<?xml version="1.0" standalone="no"?>
<!DOCTYPE svg PUBLIC "-//W3C//DTD SVG 20010904//EN"
 "http://www.w3.org/TR/2001/REC-SVG-20010904/DTD/svg10.dtd">
<svg version="1.0" xmlns="http://www.w3.org/2000/svg"
 width="70.000000pt" height="70.000000pt" viewBox="0 0 70.000000 70.000000"
 preserveAspectRatio="xMidYMid meet">
<metadata>
Created by potrace 1.11, written by Peter Selinger 2001-2013
</metadata>
<g transform="translate(0.000000,70.000000) scale(0.100000,-0.100000)"
fill="#000000" stroke="none">
<path d="M263 685 c-176 -54 -277 -220 -244 -400 7 -37 23 -77 41 -103 17 -23
30 -47 30 -51 0 -5 24 -26 52 -47 155 -111 325 -99 455 31 53 53 64 71 83 134
27 88 24 159 -12 252 -26 70 -102 163 -126 154 -8 -3 -20 -1 -26 4 -21 17
-119 41 -165 40 -25 0 -65 -6 -88 -14z m210 -78 c168 -71 210 -315 75 -444
-66 -63 -163 -90 -251 -69 -102 24 -174 88 -197 176 -15 56 -15 155 0 195 30
79 106 140 198 160 66 15 108 11 175 -18z"/>
<path d="M277 576 c-98 -36 -153 -118 -149 -224 5 -137 96 -222 238 -222 159
0 272 179 205 325 -20 46 -79 101 -127 121 -42 17 -117 17 -167 0z m53 -78
l23 -32 28 33 c38 46 73 36 127 -33 27 -36 28 -67 2 -84 -11 -7 -20 -19 -20
-27 0 -8 9 -19 20 -25 31 -17 25 -54 -18 -100 -45 -47 -75 -51 -108 -15 -29
31 -37 31 -54 0 -7 -14 -22 -25 -33 -25 -32 0 -82 37 -103 75 l-19 35 30 24
30 24 -27 29 c-16 16 -28 36 -28 45 0 32 81 108 116 108 5 0 21 -14 34 -32z"/>
</g>
</svg>
