<?xml version="1.0" encoding="utf-8"?>
<!-- Generator: Adobe Illustrator 22.0.1, SVG Export Plug-In . SVG Version: 6.00 Build 0)  -->
<svg version="1.1" id="Layer_1" xmlns="http://www.w3.org/2000/svg" xmlns:xlink="http://www.w3.org/1999/xlink" x="0px" y="0px"
	 width="9px" height="11px" viewBox="0 0 9 11" style="enable-background:new 0 0 9 11;" xml:space="preserve">
<style type="text/css">
	.st0{fill:#CC0000;}
</style>
<path class="st0" d="M6.04,5.497C6.773,4.33,7.555,3.235,8.392,2.136c0.409-0.538,0.971-1.343,0.289-1.904
	C7.955-0.367,6.977,0.328,6.393,0.801c-0.814,0.7-1.526,1.514-2.113,2.418C4.168,3.067,4.069,2.891,3.984,2.785
	C3.75,2.499,3.519,2.216,3.283,1.929c-0.314-0.41-0.69-0.766-1.115-1.055C1.663,0.562,0.597,0.215,0.151,0.825
	s0.208,1.493,0.534,1.977c0.619,0.931,1.274,1.837,1.937,2.737C1.976,6.289,1.501,7.173,1.233,8.13
	c-0.211,0.728-0.844,1.686-0.397,2.445c0.867,1.469,2.78-1.258,3.536-2.311c0.97,1.109,2.789,3.383,4.142,2.14
	c0.546-0.503,0.225-1.218-0.137-1.707C7.594,7.63,6.804,6.576,6.04,5.497z"/>
</svg>
