<?xml version="1.0" encoding="UTF-8" ?>
<!DOCTYPE svg PUBLIC "-//W3C//DTD SVG 1.1//EN" "http://www.w3.org/Graphics/SVG/1.1/DTD/svg11.dtd">
<svg width="512pt" height="256pt" viewBox="0 0 512 256" version="1.1" xmlns="http://www.w3.org/2000/svg">
<g id="#ffffffff">
<path fill="#ffffff" opacity="1.00" d=" M 217.39 25.04 C 220.13 22.04 222.43 18.64 225.50 15.96 C 225.09 17.20 224.63 18.43 224.27 19.68 C 224.05 19.58 223.62 19.39 223.40 19.30 C 222.60 20.26 221.79 21.21 220.97 22.14 C 220.22 25.14 219.13 28.03 217.76 30.79 C 217.21 30.67 216.11 30.43 215.56 30.31 C 216.12 28.54 216.62 26.74 217.39 25.04 Z" />
<path fill="#ffffff" opacity="1.00" d=" M 227.30 19.35 C 227.85 20.11 228.38 20.90 228.94 21.66 L 230.28 20.23 C 228.59 22.97 226.68 25.56 225.04 28.33 C 225.70 28.47 227.03 28.75 227.69 28.89 C 227.88 27.36 228.78 26.10 229.55 24.82 C 229.57 27.23 229.50 29.64 229.13 32.03 C 228.33 31.19 227.82 30.15 227.44 29.08 L 225.72 29.28 C 225.80 30.04 225.96 31.57 226.04 32.33 C 225.71 31.80 225.04 30.73 224.71 30.20 C 223.99 30.62 222.53 31.46 221.81 31.88 C 223.00 32.68 224.27 33.35 225.61 33.90 C 227.38 37.26 229.55 40.44 230.78 44.06 C 227.36 42.71 226.39 38.26 225.25 35.05 C 223.98 34.01 222.34 33.99 220.92 34.94 C 221.29 35.28 222.02 35.97 222.39 36.31 C 221.49 38.18 223.06 39.30 224.20 40.50 C 222.81 41.88 221.31 43.14 219.80 44.38 C 220.99 44.43 223.35 44.52 224.54 44.57 C 223.10 45.45 221.66 46.34 220.09 46.95 C 218.27 46.94 216.86 45.63 215.33 44.84 C 215.54 45.59 215.96 47.10 216.17 47.85 C 214.82 47.21 213.63 46.33 212.50 45.36 C 210.29 45.52 207.61 44.87 206.09 46.98 L 205.67 47.36 L 206.08 47.80 L 206.50 47.40 L 206.09 46.98 C 207.31 46.68 209.76 46.08 210.99 45.78 C 209.34 48.59 206.42 50.16 203.70 51.72 C 203.99 50.94 204.57 49.37 204.86 48.59 C 203.19 50.14 201.52 51.69 199.90 53.28 C 201.15 52.82 203.64 51.91 204.89 51.45 C 204.70 54.04 202.07 54.88 200.52 56.52 C 198.54 56.16 195.35 54.51 194.70 57.64 C 195.55 57.53 197.25 57.31 198.10 57.21 C 197.84 57.42 197.33 57.85 197.07 58.06 C 197.68 59.03 198.26 60.25 197.53 61.34 L 197.38 61.82 C 197.50 62.04 197.73 62.47 197.85 62.68 C 195.77 61.92 193.99 63.04 192.57 64.51 C 192.75 64.10 193.12 63.29 193.30 62.88 L 194.72 62.14 C 194.74 61.91 194.77 61.45 194.79 61.21 C 194.44 61.08 193.75 60.82 193.40 60.68 C 193.12 60.37 192.58 59.75 192.30 59.44 C 191.26 60.59 189.93 61.33 188.45 61.75 C 191.39 57.49 196.55 55.56 200.10 51.86 C 200.30 51.41 200.71 50.50 200.91 50.05 L 200.12 50.07 L 200.24 50.95 C 198.71 52.02 197.07 52.84 195.30 53.39 C 196.27 52.50 198.19 50.71 199.16 49.81 C 198.77 49.28 198.39 48.75 198.02 48.22 C 194.51 49.78 193.51 53.32 191.37 56.11 C 191.43 55.40 191.54 53.97 191.60 53.26 L 190.36 53.84 C 191.82 51.62 193.14 49.32 194.75 47.21 C 194.90 47.88 195.21 49.24 195.36 49.92 C 196.44 48.96 197.47 47.94 198.50 46.92 C 197.86 46.36 197.22 45.79 196.60 45.22 C 197.75 44.63 198.88 44.01 200.00 43.36 C 201.24 44.23 202.60 44.84 204.08 45.21 C 203.69 44.43 202.92 42.85 202.53 42.07 C 205.29 41.15 208.50 39.84 211.19 41.68 C 208.98 42.85 206.77 44.03 204.78 45.56 C 204.21 45.45 203.07 45.25 202.50 45.15 C 201.67 45.90 200.84 46.64 200.00 47.37 C 199.82 47.88 199.47 48.89 199.29 49.40 C 202.45 47.41 205.79 45.73 209.12 44.04 C 209.54 43.74 210.38 43.15 210.80 42.86 L 210.37 44.45 C 211.11 44.46 212.60 44.48 213.34 44.49 C 212.79 41.59 215.65 43.94 216.93 43.51 C 218.90 42.53 220.86 41.44 223.13 41.32 C 221.20 39.48 219.47 37.43 217.74 35.41 C 217.97 35.16 218.42 34.65 218.65 34.40 C 219.20 33.17 220.49 33.38 221.58 33.56 C 221.51 33.37 221.37 32.99 221.29 32.80 C 221.42 30.99 220.99 29.21 220.89 27.41 C 222.81 24.56 225.12 22.00 227.30 19.35 M 224.60 23.27 C 224.36 25.10 222.34 26.96 223.23 28.75 C 224.86 26.98 225.55 23.92 227.87 22.43 C 226.66 22.03 225.58 22.61 224.60 23.27 Z" />
<path fill="#ffffff" opacity="1.00" d=" M 234.61 20.28 C 234.98 20.23 235.72 20.14 236.09 20.09 C 235.74 23.38 235.73 26.78 234.32 29.84 C 233.94 29.66 233.17 29.30 232.78 29.13 C 232.35 29.21 231.50 29.38 231.07 29.46 C 231.13 28.31 231.17 27.16 231.21 26.02 C 231.43 25.86 231.87 25.54 232.09 25.38 C 232.36 25.86 232.89 26.84 233.15 27.32 C 234.94 25.70 234.20 22.53 234.61 20.28 Z" />
<path fill="#ffffff" opacity="1.00" d=" M 237.35 22.54 C 237.59 26.67 237.66 30.84 239.02 34.80 L 237.60 34.29 C 237.34 34.65 236.81 35.36 236.55 35.71 C 234.95 31.27 236.60 26.95 237.35 22.54 Z" />
<path fill="#ffffff" opacity="1.00" d=" M 274.25 32.26 C 275.45 30.03 276.83 27.89 278.40 25.90 C 277.42 28.39 277.21 31.17 275.62 33.41 C 275.22 35.26 274.99 37.81 272.89 38.47 L 272.95 34.96 C 272.19 35.75 270.66 37.32 269.89 38.10 L 270.46 38.22 C 269.40 39.21 268.23 39.97 266.85 39.16 C 269.31 37.08 269.28 33.59 270.68 30.88 C 271.16 30.76 272.13 30.54 272.61 30.42 C 272.47 31.38 272.18 33.29 272.03 34.25 C 272.84 34.65 273.66 35.04 274.48 35.42 C 274.42 34.63 274.31 33.05 274.25 32.26 Z" />
<path fill="#ffffff" opacity="1.00" d=" M 240.24 35.44 C 240.25 32.56 239.01 29.30 240.94 26.79 C 241.34 29.16 242.19 31.42 242.55 33.80 L 243.33 32.05 L 245.04 30.95 C 244.75 33.26 244.34 35.73 242.35 37.20 L 242.56 35.36 C 241.98 35.38 240.82 35.42 240.24 35.44 Z" />
<path fill="#ffffff" opacity="1.00" d=" M 252.61 28.32 C 252.82 28.59 253.23 29.13 253.44 29.39 C 255.15 29.03 255.82 30.22 256.25 31.58 C 255.66 31.56 254.47 31.53 253.88 31.52 C 253.68 33.03 253.21 34.50 252.44 35.82 C 252.63 35.80 253.01 35.75 253.20 35.72 C 253.87 34.83 255.22 33.04 255.90 32.15 C 255.10 35.85 254.63 40.57 250.44 41.99 C 249.81 44.60 248.51 47.16 248.87 49.91 C 248.27 51.12 247.70 52.34 247.00 53.49 C 246.02 52.76 245.11 51.95 244.19 51.17 C 247.93 47.27 249.88 41.93 251.93 36.99 C 249.04 37.47 249.47 41.47 246.62 42.30 C 247.50 38.76 247.21 35.00 248.45 31.57 C 248.65 33.36 248.83 35.15 249.00 36.95 C 250.91 35.38 251.04 32.73 252.62 30.94 C 252.62 30.28 252.61 28.98 252.61 28.32 Z" />
<path fill="#ffffff" opacity="1.00" d=" M 262.39 35.57 C 262.82 32.33 264.63 29.50 267.48 27.89 C 265.95 31.21 264.76 34.85 261.46 36.96 L 264.57 36.52 L 266.49 34.44 C 266.54 35.59 266.66 37.90 266.71 39.06 L 265.52 38.37 C 265.96 38.82 266.85 39.73 267.29 40.18 C 264.45 40.59 262.98 43.41 260.12 43.82 C 259.92 44.61 259.53 46.20 259.33 46.99 C 260.06 46.45 261.53 45.36 262.27 44.82 C 263.76 45.91 265.07 47.29 266.78 48.07 C 266.02 46.85 265.23 45.65 264.40 44.47 L 264.39 44.35 L 265.50 44.94 C 265.68 44.29 266.05 42.98 266.24 42.33 C 267.48 43.25 268.22 44.53 268.50 46.05 L 266.07 45.49 C 267.52 47.87 269.89 49.65 270.80 52.35 C 269.87 51.79 268.01 50.65 267.08 50.08 C 267.31 50.79 267.77 52.20 268.00 52.90 L 266.78 52.16 C 264.65 53.17 262.59 54.31 260.46 55.28 C 259.47 58.29 258.37 61.56 255.49 63.27 C 255.93 60.32 257.98 58.08 259.83 55.89 C 259.27 55.69 258.15 55.28 257.59 55.08 C 258.83 53.80 259.73 50.27 261.80 52.57 C 261.34 51.55 260.91 50.52 260.50 49.49 C 262.73 49.84 264.72 50.84 266.69 51.89 C 265.59 50.71 264.73 48.84 262.98 48.48 C 261.48 48.52 260.05 49.03 258.60 49.31 C 259.47 51.70 256.62 53.27 256.29 55.54 C 255.71 54.57 255.13 53.61 254.54 52.66 C 255.79 50.60 257.01 48.46 258.89 46.87 C 256.94 42.67 260.50 39.11 261.63 35.27 L 262.39 35.57 Z" />
<path fill="#ffffff" opacity="1.00" d=" M 285.32 30.28 C 285.74 29.36 286.19 28.45 286.66 27.55 L 286.17 30.02 C 286.89 29.73 288.32 29.13 289.04 28.83 C 286.45 31.41 284.19 34.28 281.92 37.14 C 282.18 37.55 282.44 37.95 282.71 38.35 C 283.81 36.17 285.45 34.34 287.83 33.59 C 288.89 33.78 289.97 33.93 291.04 34.06 L 291.25 34.25 C 290.75 34.50 289.73 34.99 289.22 35.24 C 289.51 35.95 289.91 36.61 290.42 37.22 C 290.11 37.41 289.50 37.81 289.19 38.00 C 289.26 38.69 289.39 40.07 289.45 40.75 L 291.52 40.58 C 290.48 41.35 289.29 41.75 287.97 41.77 C 288.91 42.91 289.53 44.24 289.94 45.66 C 289.56 45.69 288.81 45.75 288.43 45.78 C 288.50 45.33 288.63 44.44 288.69 43.99 C 287.29 43.88 286.46 43.10 286.23 41.64 C 285.72 41.53 284.71 41.31 284.20 41.20 C 285.21 39.90 286.31 38.65 287.70 37.73 C 287.99 37.00 288.58 35.54 288.87 34.81 L 287.76 34.42 C 287.12 37.16 284.77 38.73 282.70 40.34 C 281.85 39.35 281.10 38.12 279.73 37.80 C 281.13 34.97 283.22 32.60 285.32 30.28 Z" />
<path fill="#ffffff" opacity="1.00" d=" M 210.98 34.10 C 210.55 32.09 208.64 29.38 211.10 27.93 L 211.42 29.82 L 212.36 29.31 C 212.45 31.19 212.62 33.06 212.83 34.92 C 212.37 34.72 211.44 34.30 210.98 34.10 Z" />
<path fill="#ffffff" opacity="1.00" d=" M 279.11 30.48 C 281.00 31.20 282.40 29.95 283.86 28.96 C 282.79 29.92 282.13 32.25 280.24 31.29 C 280.86 34.03 278.78 36.28 277.45 38.43 C 276.87 38.58 275.72 38.87 275.14 39.01 C 275.63 37.88 276.13 36.76 276.70 35.67 C 277.31 34.62 277.91 33.57 278.49 32.51 L 279.79 32.67 C 279.62 32.12 279.28 31.02 279.11 30.48 Z" />
<path fill="#ffffff" opacity="1.00" d=" M 258.13 33.11 C 258.78 31.83 259.48 30.59 260.23 29.36 L 260.61 32.91 L 258.86 32.26 C 259.18 33.18 259.52 34.10 259.86 35.01 C 258.96 37.85 258.10 40.76 256.30 43.20 C 255.80 42.68 254.79 41.64 254.29 41.13 C 255.55 38.44 256.97 35.84 258.13 33.11 Z" />
<path fill="#ffffff" opacity="1.00" d=" M 267.09 34.19 C 266.62 33.09 267.61 31.01 268.94 31.30 C 269.44 32.38 268.32 34.42 267.09 34.19 Z" />
<path fill="#ffffff" opacity="1.00" d=" M 194.14 31.73 C 195.66 32.97 197.54 34.11 198.25 36.04 C 197.64 36.23 196.43 36.62 195.82 36.81 C 196.91 37.64 198.04 38.44 199.12 39.29 C 197.79 39.83 196.46 40.36 195.11 40.84 C 195.49 39.75 195.90 38.67 196.32 37.59 C 195.79 37.57 194.73 37.52 194.20 37.49 C 194.25 37.26 194.34 36.80 194.39 36.57 L 195.56 36.79 C 195.63 36.15 195.78 34.86 195.85 34.22 C 195.26 33.40 194.69 32.57 194.14 31.73 Z" />
<path fill="#ffffff" opacity="1.00" d=" M 204.28 33.97 C 205.37 34.42 207.54 35.33 208.63 35.78 C 207.72 34.84 205.92 32.97 205.02 32.03 C 208.18 31.77 209.70 34.74 211.70 36.55 C 211.11 36.87 209.93 37.50 209.34 37.81 C 210.84 38.62 212.43 39.29 213.88 40.20 C 213.34 40.60 212.27 41.40 211.73 41.80 C 209.88 38.46 206.00 39.90 202.97 39.72 C 200.63 39.08 204.97 37.55 205.51 38.27 C 204.36 37.53 202.07 36.06 200.92 35.33 C 201.88 35.43 203.80 35.65 204.76 35.75 L 204.28 33.97 Z" />
<path fill="#ffffff" opacity="1.00" d=" M 232.32 36.23 C 232.56 36.19 233.03 36.12 233.27 36.08 C 232.26 38.76 234.75 39.17 236.69 38.11 C 235.52 40.47 234.41 42.85 233.13 45.15 L 235.39 45.30 C 234.53 46.72 233.57 48.09 232.66 49.48 L 231.78 48.57 C 232.09 49.42 232.39 50.26 232.70 51.11 C 234.41 48.63 235.65 45.76 237.94 43.73 C 239.79 42.08 239.97 39.33 239.72 37.02 C 240.47 37.66 241.21 38.30 241.97 38.94 C 241.32 41.54 240.87 44.35 237.71 44.96 C 241.06 45.30 239.18 48.82 240.05 50.85 C 242.43 50.13 243.99 47.46 241.65 45.70 C 242.54 43.13 243.16 40.47 243.07 37.74 L 244.94 37.62 C 244.60 40.37 244.60 43.37 242.47 45.47 C 244.39 46.37 245.26 43.84 246.44 42.80 C 245.65 45.72 245.31 48.83 243.01 51.06 C 243.63 51.73 244.26 52.41 244.89 53.09 C 244.35 53.75 243.28 55.09 242.74 55.75 C 242.53 57.89 241.87 59.93 241.40 62.01 C 241.03 61.82 240.28 61.43 239.91 61.24 C 239.98 58.43 240.65 55.74 241.54 53.09 C 239.53 55.23 238.73 58.10 237.62 60.74 C 237.24 60.56 236.50 60.19 236.13 60.00 C 237.11 57.69 238.09 55.38 239.13 53.09 C 237.85 54.72 236.02 55.67 234.21 56.59 C 234.25 56.25 234.32 55.58 234.36 55.25 C 235.20 53.13 235.95 50.97 236.60 48.79 C 235.69 49.95 233.86 52.27 232.95 53.43 C 232.16 51.68 230.93 50.23 229.27 49.24 C 229.44 48.65 229.60 48.06 229.76 47.47 C 231.29 47.43 232.25 46.23 233.34 45.37 L 231.33 45.51 C 233.73 42.86 230.87 40.43 230.38 37.70 C 230.88 37.72 231.86 37.76 232.36 37.78 L 232.32 36.23 Z" />
<path fill="#ffffff" opacity="1.00" d=" M 215.85 39.78 C 216.37 38.71 217.05 37.73 217.68 36.72 C 218.55 37.87 219.41 39.03 220.27 40.19 C 219.54 40.73 218.07 41.79 217.34 42.32 C 216.82 41.49 216.32 40.64 215.85 39.78 Z" />
<path fill="#ffffff" opacity="1.00" d=" M 272.10 39.73 C 274.22 39.97 276.32 40.45 278.23 41.42 C 278.38 41.06 278.67 40.34 278.81 39.98 C 281.74 41.97 285.03 43.69 287.05 46.71 C 284.16 46.39 281.67 44.83 279.38 43.13 L 280.71 46.42 C 278.99 44.99 277.67 43.04 275.55 42.14 C 276.39 43.57 277.41 44.89 278.32 46.29 C 277.17 45.56 276.03 44.80 274.92 44.02 L 274.56 46.11 C 275.57 47.03 276.54 47.98 277.50 48.95 C 278.57 49.47 279.55 50.15 280.53 50.83 C 281.92 50.48 283.65 49.98 284.49 51.86 C 284.86 50.81 285.22 49.75 285.39 48.64 C 287.13 49.37 290.96 48.47 289.53 51.62 C 291.52 53.61 293.44 55.67 295.41 57.69 C 296.03 58.48 296.62 59.30 297.18 60.14 C 295.27 59.87 294.17 58.27 293.00 56.94 C 291.19 54.77 288.89 53.10 286.90 51.12 C 286.44 51.71 285.97 52.30 285.50 52.88 C 288.88 54.56 290.28 58.50 292.42 61.43 C 289.67 58.79 285.47 57.28 284.02 53.56 C 283.83 50.16 281.02 54.01 279.93 52.17 C 278.04 50.03 275.06 49.03 273.68 46.46 C 272.49 44.38 270.97 42.54 269.68 40.54 C 271.34 41.16 272.90 42.02 274.42 42.93 C 273.65 41.86 272.88 40.79 272.10 39.73 Z" />
<path fill="#ffffff" opacity="1.00" d=" M 267.71 41.71 C 271.47 44.25 272.30 49.12 275.36 52.33 C 272.47 52.43 272.33 49.00 270.06 47.99 C 268.62 46.19 268.33 43.85 267.71 41.71 Z" />
<path fill="#ffffff" opacity="1.00" d=" M 253.75 43.42 L 256.16 43.28 L 254.04 45.29 L 254.70 46.11 L 254.08 46.23 L 254.15 46.86 L 253.47 46.61 C 253.20 47.18 252.67 48.30 252.41 48.87 C 252.81 48.77 253.60 48.57 254.00 48.47 C 252.57 51.81 251.02 55.18 248.44 57.80 C 247.81 53.33 249.55 49.41 251.81 45.74 C 253.05 45.53 253.75 44.75 253.75 43.42 Z" />
<path fill="#ffffff" opacity="1.00" d=" M 224.03 46.97 C 225.30 46.48 226.57 45.98 227.83 45.45 C 228.16 46.66 228.51 47.88 228.87 49.09 C 227.02 48.88 225.12 48.56 224.03 46.97 Z" />
<path fill="#ffffff" opacity="1.00" d=" M 254.70 46.11 C 255.18 45.94 256.14 45.59 256.62 45.41 C 257.29 46.72 255.59 48.54 254.33 48.86 L 254.00 48.47 C 254.04 48.07 254.12 47.27 254.15 46.86 C 254.29 46.68 254.56 46.30 254.70 46.11 Z" />
<path fill="#ffffff" opacity="1.00" d=" M 229.94 45.80 L 230.61 45.78 L 230.64 46.46 L 229.97 46.48 L 229.94 45.80 Z" />
<path fill="#ffffff" opacity="1.00" d=" M 211.39 48.28 C 212.73 47.84 214.39 47.82 215.72 48.34 C 216.48 50.87 211.24 50.23 211.39 48.28 Z" />
<path fill="#ffffff" opacity="1.00" d=" M 218.57 50.12 C 219.25 49.63 219.93 49.15 220.63 48.68 C 222.22 49.75 224.62 49.94 225.15 52.20 C 223.53 51.94 222.06 51.25 221.16 49.84 C 220.45 50.12 219.74 50.41 219.03 50.70 C 220.23 52.48 221.50 54.20 223.88 53.51 L 224.47 54.11 C 224.33 54.53 224.06 55.37 223.93 55.78 C 220.62 56.46 217.39 55.52 214.44 54.05 C 214.98 53.51 215.52 52.96 216.07 52.42 C 217.57 53.22 219.16 53.81 220.84 54.16 C 219.38 51.89 216.44 52.00 214.27 50.87 C 215.34 50.68 217.50 50.31 218.57 50.12 Z" />
<path fill="#ffffff" opacity="1.00" d=" M 292.52 49.23 C 295.94 49.35 299.71 49.52 302.58 51.63 C 305.06 54.40 307.19 57.50 310.00 59.98 C 309.19 59.79 307.59 59.39 306.79 59.20 C 309.67 62.05 313.14 64.47 314.94 68.23 C 312.83 67.84 311.63 66.11 310.64 64.38 C 309.06 63.25 307.33 62.21 306.24 60.56 C 305.58 55.49 301.30 51.76 296.92 49.63 C 299.18 52.82 300.46 56.54 302.29 59.98 L 303.45 59.55 C 302.92 62.17 304.05 64.38 305.73 66.29 C 302.71 65.78 300.58 63.41 298.51 61.36 C 300.03 61.81 301.54 62.28 303.05 62.76 C 302.08 61.53 301.24 60.21 300.19 59.05 C 298.07 56.74 294.58 56.07 293.02 53.20 C 295.33 52.80 296.80 54.79 298.63 55.70 C 297.18 53.02 294.22 51.72 292.52 49.23 Z" />
<path fill="#ffffff" opacity="1.00" d=" M 208.27 50.35 C 209.42 50.21 210.55 50.38 211.67 50.86 C 211.72 51.22 211.81 51.93 211.86 52.28 C 210.61 52.29 208.48 51.74 208.27 50.35 Z" />
<path fill="#ffffff" opacity="1.00" d=" M 224.81 53.66 C 224.90 51.86 225.97 50.71 227.60 50.12 C 228.17 51.18 228.72 52.25 229.26 53.33 C 230.26 53.73 231.26 54.14 232.25 54.55 C 230.97 56.77 229.18 55.48 228.54 53.42 C 227.29 53.51 226.05 53.59 224.81 53.66 Z" />
<path fill="#ffffff" opacity="1.00" d=" M 208.50 54.86 C 209.12 54.62 210.36 54.14 210.98 53.90 C 211.74 55.45 212.51 57.69 214.63 56.51 L 212.70 55.41 C 212.54 55.06 212.24 54.36 212.08 54.01 C 212.68 53.84 213.87 53.50 214.47 53.34 L 213.91 54.53 C 217.55 59.26 219.86 65.23 219.94 71.25 C 219.29 69.63 218.65 68.01 218.02 66.39 C 216.41 67.89 216.40 69.21 217.98 70.34 L 216.49 71.75 C 217.43 71.62 219.30 71.37 220.24 71.25 C 220.41 71.80 220.75 72.91 220.92 73.46 C 219.52 73.53 218.14 73.81 216.77 74.08 C 216.77 74.51 216.77 75.38 216.77 75.81 C 216.35 75.79 215.52 75.74 215.10 75.72 L 215.26 76.67 C 215.71 76.58 216.62 76.41 217.07 76.32 C 218.33 74.89 220.20 75.62 221.82 75.59 C 221.78 75.97 221.68 76.75 221.63 77.13 C 223.65 81.80 224.92 86.78 227.40 91.25 C 226.04 91.00 224.70 90.97 223.83 92.25 L 223.21 92.49 L 223.94 94.29 C 222.77 94.31 221.61 94.35 220.45 94.41 C 218.28 96.03 215.68 96.95 213.57 98.64 C 216.09 97.48 219.00 96.68 220.86 94.49 C 221.32 94.65 222.23 94.97 222.69 95.14 C 222.16 97.73 224.36 99.78 223.47 102.42 L 222.22 102.47 C 221.21 104.24 220.17 105.98 219.24 107.79 C 216.96 106.37 213.44 105.50 213.98 101.93 C 215.35 102.68 216.63 103.59 217.89 104.51 C 218.63 103.77 219.37 103.04 220.12 102.30 L 218.82 103.12 C 217.29 105.39 216.98 102.30 215.65 102.01 C 212.53 101.75 212.72 98.22 211.76 95.98 C 210.49 93.07 211.14 89.73 209.73 86.90 C 209.81 86.56 209.97 85.89 210.05 85.56 C 209.89 82.97 209.10 80.24 210.26 77.77 C 210.27 77.28 210.28 76.30 210.29 75.81 C 209.94 76.45 209.58 77.08 209.21 77.70 C 207.37 76.66 205.65 78.24 203.89 78.63 C 205.16 76.92 206.69 75.42 208.66 74.56 C 208.83 69.47 209.93 64.40 209.00 59.31 C 210.04 59.26 211.09 59.27 212.13 59.34 L 211.16 60.78 C 212.07 60.86 213.90 61.03 214.81 61.11 C 213.77 61.86 212.88 62.76 212.15 63.80 C 212.93 63.35 214.48 62.44 215.26 61.98 C 216.70 64.21 214.02 65.44 212.35 65.85 C 212.38 65.95 212.42 66.14 212.45 66.23 C 214.40 66.10 216.35 66.10 218.30 66.20 C 217.43 63.47 216.24 60.85 215.15 58.20 C 214.80 58.09 214.10 57.87 213.75 57.76 L 214.83 60.31 C 213.28 59.67 211.83 58.77 210.18 58.42 L 210.38 56.55 C 209.96 57.47 209.52 58.38 209.05 59.27 C 208.91 58.17 208.64 55.96 208.50 54.86 M 215.21 68.38 C 215.91 68.87 215.91 68.87 215.21 68.38 M 216.22 72.14 C 216.82 72.79 216.82 72.79 216.22 72.14 M 219.52 81.74 C 218.10 82.55 216.58 83.15 215.07 83.75 C 216.98 83.36 219.43 84.02 220.58 81.89 C 220.97 82.91 221.74 84.96 222.13 85.99 C 222.55 85.21 222.96 84.43 223.37 83.65 C 223.04 82.85 222.38 81.25 222.04 80.45 C 221.41 80.77 220.15 81.42 219.52 81.74 M 216.08 89.44 C 215.38 89.88 214.56 90.26 214.23 91.08 C 215.97 90.02 217.69 88.92 219.33 87.73 L 219.28 89.81 C 220.11 89.48 221.76 88.82 222.59 88.49 C 221.16 92.12 216.77 93.00 213.46 94.07 C 213.49 93.39 213.56 92.03 213.60 91.35 C 213.17 91.49 212.32 91.78 211.90 91.92 C 212.56 92.97 213.17 94.06 213.75 95.17 C 216.89 94.10 220.01 92.81 222.53 90.59 C 223.00 90.58 223.93 90.57 224.40 90.56 C 224.61 90.06 225.04 89.05 225.25 88.55 C 224.92 87.77 224.26 86.19 223.93 85.40 C 223.48 85.87 223.03 86.34 222.58 86.80 C 221.70 86.78 219.94 86.75 219.06 86.74 L 219.80 85.06 C 218.81 86.71 217.63 88.25 216.08 89.44 Z" />
<path fill="#ffffff" opacity="1.00" d=" M 242.48 59.36 C 243.89 56.96 245.36 54.52 247.81 53.03 C 246.45 56.27 246.45 59.76 245.54 63.10 C 243.96 62.71 242.48 62.15 243.66 60.26 C 243.36 60.03 242.78 59.58 242.48 59.36 Z" />
<path fill="#ffffff" opacity="1.00" d=" M 300.17 53.76 C 301.55 53.60 302.13 54.27 301.93 55.76 C 300.59 55.82 300.01 55.16 300.17 53.76 Z" />
<path fill="#ffffff" opacity="1.00" d=" M 198.10 58.25 C 202.04 58.64 205.14 55.43 208.71 54.21 C 207.49 56.34 206.21 58.44 204.73 60.40 C 204.22 59.49 203.77 58.56 203.30 57.64 L 204.20 61.50 L 202.39 59.02 C 201.48 59.77 200.56 60.50 199.62 61.20 C 198.78 60.43 198.27 59.44 198.10 58.25 Z" />
<path fill="#ffffff" opacity="1.00" d=" M 247.78 61.29 C 249.79 58.63 251.04 53.35 255.26 54.42 C 254.05 55.88 253.69 58.80 251.24 58.58 L 250.96 58.89 L 252.58 58.84 C 251.81 60.69 251.74 63.86 249.15 64.05 L 249.34 62.41 L 250.64 60.48 L 250.93 60.06 L 250.51 59.78 L 250.22 60.21 L 250.64 60.48 C 249.93 60.68 248.50 61.09 247.78 61.29 Z" />
<path fill="#ffffff" opacity="1.00" d=" M 218.78 58.53 C 221.19 58.79 223.29 57.59 225.43 56.71 C 226.68 58.11 227.77 57.98 228.69 56.33 C 229.59 57.15 230.32 58.11 230.68 59.30 C 228.17 57.79 225.90 59.74 223.72 60.81 C 221.90 60.46 220.26 59.61 218.78 58.53 Z" />
<path fill="#ffffff" opacity="1.00" d=" M 256.09 66.00 C 257.90 62.20 259.90 58.17 263.91 56.26 C 262.84 58.57 261.40 60.67 259.46 62.34 C 260.31 62.39 262.01 62.48 262.86 62.53 C 263.50 60.45 264.86 58.47 267.05 57.83 C 266.28 59.92 265.32 62.41 262.87 62.93 C 260.45 63.61 258.28 64.80 256.09 66.00 Z" />
<path fill="#ffffff" opacity="1.00" d=" M 301.93 55.76 C 303.40 55.97 304.96 58.38 304.54 59.79 C 304.26 59.73 303.72 59.61 303.45 59.55 C 302.81 58.40 301.42 57.18 301.93 55.76 Z" />
<path fill="#ffffff" opacity="1.00" d=" M 274.86 56.91 C 276.63 57.38 278.26 58.22 279.92 58.99 L 279.26 56.80 C 280.25 58.13 281.22 59.49 282.20 60.84 C 283.63 62.26 285.14 63.64 286.03 65.50 C 283.12 64.59 280.73 62.65 278.04 61.32 C 278.50 61.41 279.42 61.60 279.88 61.69 L 279.77 59.96 C 277.83 59.48 276.14 58.42 274.86 56.91 Z" />
<path fill="#ffffff" opacity="1.00" d=" M 283.67 57.28 C 286.16 58.15 287.99 60.36 290.44 61.40 C 289.32 61.81 288.16 62.14 287.02 62.48 L 287.57 64.09 C 286.10 62.82 284.68 61.50 283.24 60.20 C 283.36 59.22 283.50 58.25 283.67 57.28 Z" />
<path fill="#ffffff" opacity="1.00" d=" M 252.95 62.43 C 252.27 61.20 253.50 58.82 254.84 58.74 C 255.24 60.02 254.43 62.33 252.95 62.43 Z" />
<path fill="#ffffff" opacity="1.00" d=" M 270.36 59.13 C 272.81 60.77 276.49 61.27 277.40 64.49 L 274.90 64.27 C 275.54 65.36 276.17 66.47 276.79 67.59 C 274.73 67.49 273.30 66.71 273.52 64.53 C 271.59 63.28 270.06 61.60 270.36 59.13 Z" />
<path fill="#ffffff" opacity="1.00" d=" M 202.44 60.42 C 202.78 60.22 202.78 60.22 202.44 60.42 Z" />
<path fill="#ffffff" opacity="1.00" d=" M 230.16 60.06 C 231.29 58.89 233.76 60.51 232.86 61.98 C 231.75 63.04 229.16 61.54 230.16 60.06 Z" />
<path fill="#ffffff" opacity="1.00" d=" M 202.33 61.19 C 202.36 61.00 202.41 60.61 202.44 60.42 C 202.41 60.61 202.36 61.00 202.33 61.19 Z" />
<path fill="#ffffff" opacity="1.00" d=" M 223.91 63.49 C 224.98 62.47 225.60 60.86 227.20 60.54 C 227.76 61.04 228.88 62.05 229.44 62.55 C 227.93 63.39 226.39 64.16 224.92 65.06 C 224.11 64.12 223.35 63.15 222.66 62.12 L 223.91 63.49 Z" />
<path fill="#ffffff" opacity="1.00" d=" M 179.11 64.52 C 181.24 64.91 183.00 63.62 184.86 62.86 C 185.74 63.56 186.78 63.93 187.90 63.98 C 189.29 63.62 190.48 62.80 191.79 62.26 C 191.19 63.88 189.34 64.94 187.63 64.52 C 184.87 66.63 183.06 69.64 180.57 72.01 L 180.14 71.87 C 180.24 71.16 180.44 69.75 180.54 69.05 C 179.91 69.69 178.65 70.98 178.02 71.62 C 177.20 71.70 175.57 71.87 174.75 71.95 C 174.61 70.96 174.48 69.98 174.36 68.99 C 175.58 68.58 176.71 67.98 177.74 67.19 C 176.18 67.57 174.63 67.99 173.09 68.46 C 174.80 66.60 176.98 64.90 179.65 65.47 L 179.11 64.52 M 180.91 65.86 C 180.71 66.30 180.32 67.18 180.13 67.62 C 181.42 67.83 182.43 66.55 183.57 66.08 C 183.56 65.75 183.56 65.08 183.56 64.75 C 182.90 65.03 181.57 65.58 180.91 65.86 Z" />
<path fill="#ffffff" opacity="1.00" d=" M 200.52 61.54 L 202.33 61.19 C 201.63 62.09 200.24 63.91 199.54 64.81 C 202.10 62.87 204.80 61.07 208.18 61.40 C 208.67 65.66 203.74 67.13 201.74 70.19 C 204.08 69.67 206.10 68.38 208.25 67.42 C 207.54 69.78 205.63 71.38 203.89 72.99 C 201.99 71.51 199.86 73.39 197.88 73.66 C 199.32 69.53 204.28 67.71 204.61 63.11 C 202.94 64.14 201.31 65.24 199.72 66.38 C 199.51 65.34 199.29 64.31 199.04 63.29 C 199.41 62.85 200.15 61.97 200.52 61.54 Z" />
<path fill="#ffffff" opacity="1.00" d=" M 290.85 63.48 C 291.55 62.65 292.23 61.81 292.89 60.94 L 294.11 63.78 C 294.57 63.06 295.04 62.35 295.50 61.63 C 296.07 62.32 296.64 63.01 297.22 63.71 C 296.55 64.67 295.90 65.65 295.21 66.60 C 293.64 65.73 292.34 64.47 290.85 63.48 Z" />
<path fill="#ffffff" opacity="1.00" d=" M 230.10 64.30 C 232.42 65.40 234.10 60.62 235.66 64.05 L 236.48 62.76 C 236.91 63.25 237.36 63.75 237.81 64.24 L 239.41 62.90 C 238.85 64.45 238.10 66.50 236.26 66.81 C 236.19 66.20 236.04 64.98 235.97 64.37 C 233.80 66.81 231.13 68.75 229.85 71.93 C 231.14 70.82 232.44 69.73 233.82 68.73 C 232.98 70.69 232.08 72.62 231.23 74.57 C 230.60 74.01 229.97 73.45 229.36 72.89 C 228.38 74.83 227.22 76.67 225.75 78.27 C 225.87 74.47 224.16 69.77 227.56 66.93 C 227.82 67.45 228.33 68.48 228.59 69.00 C 230.45 68.65 231.55 66.98 231.65 65.13 C 230.72 65.62 228.86 66.60 227.93 67.09 C 228.47 66.39 229.56 65.00 230.10 64.30 Z" />
<path fill="#ffffff" opacity="1.00" d=" M 240.49 63.49 C 240.77 63.78 240.77 63.78 240.49 63.49 Z" />
<path fill="#ffffff" opacity="1.00" d=" M 269.46 63.39 C 269.89 63.70 270.76 64.31 271.20 64.62 C 269.46 66.81 266.56 67.26 264.20 68.48 C 264.18 66.63 264.65 64.99 266.29 64.01 C 267.59 66.16 268.55 64.67 269.46 63.39 Z" />
<path fill="#ffffff" opacity="1.00" d=" M 239.09 69.53 C 239.38 66.91 241.14 64.85 243.36 63.60 C 242.91 66.14 240.97 67.95 239.09 69.53 Z" />
<path fill="#ffffff" opacity="1.00" d=" M 240.59 71.06 C 241.83 68.32 243.92 66.08 246.07 64.02 C 245.16 66.88 243.65 70.00 240.59 71.06 Z" />
<path fill="#ffffff" opacity="1.00" d=" M 277.64 64.94 C 278.62 63.32 282.85 64.67 282.01 66.73 C 280.44 67.19 278.93 65.65 277.64 64.94 Z" />
<path fill="#ffffff" opacity="1.00" d=" M 289.00 64.46 C 290.31 63.95 291.21 65.62 292.16 66.23 C 293.28 66.72 292.85 68.59 291.58 67.71 C 290.52 67.00 288.55 65.98 289.00 64.46 Z" />
<path fill="#ffffff" opacity="1.00" d=" M 191.19 64.75 C 191.52 65.10 191.84 65.44 192.16 65.79 C 190.26 67.29 188.81 69.55 186.29 70.06 C 182.90 72.87 180.64 76.70 177.74 79.94 C 177.22 80.15 176.19 80.57 175.67 80.78 C 175.61 79.91 175.47 78.19 175.40 77.32 C 177.02 75.24 178.48 73.03 180.09 70.93 L 180.14 71.87 C 180.17 72.50 180.23 73.78 180.26 74.41 C 182.68 72.01 184.71 68.97 188.02 67.72 C 189.40 67.14 190.21 65.79 191.19 64.75 Z" />
<path fill="#ffffff" opacity="1.00" d=" M 245.63 70.21 C 245.70 68.00 246.67 66.03 247.76 64.15 C 248.21 64.45 249.10 65.05 249.55 65.35 L 251.34 65.15 C 249.85 67.05 248.29 68.89 246.76 70.77 C 246.05 72.22 245.30 73.65 244.52 75.06 L 247.31 73.83 C 246.59 75.90 245.74 77.97 244.32 79.67 L 243.68 76.57 C 243.31 77.37 242.58 78.95 242.22 79.75 C 237.03 79.84 240.37 74.65 241.66 72.17 C 242.02 72.30 242.73 72.54 243.09 72.66 C 243.43 71.36 244.48 70.70 245.63 70.21 Z" />
<path fill="#ffffff" opacity="1.00" d=" M 306.61 64.99 C 307.07 65.28 308.00 65.85 308.47 66.14 C 308.76 65.93 309.34 65.52 309.64 65.31 C 310.83 68.90 314.86 71.11 314.64 75.26 C 312.11 71.73 308.44 68.96 306.61 64.99 Z" />
<path fill="#ffffff" opacity="1.00" d=" M 194.78 69.56 C 195.55 67.54 197.59 66.58 199.20 65.34 C 198.62 66.45 198.03 67.56 197.42 68.65 C 196.31 69.67 195.21 70.78 195.12 72.37 C 195.00 72.98 194.75 74.22 194.63 74.83 C 194.16 75.27 193.22 76.16 192.75 76.60 C 193.54 76.53 195.12 76.40 195.91 76.33 C 194.59 77.45 193.27 78.56 191.95 79.67 L 194.64 79.24 L 194.43 81.20 C 195.15 80.69 196.57 79.66 197.28 79.14 C 197.03 81.10 193.47 81.00 194.34 83.09 C 196.52 85.40 197.88 81.15 199.59 80.18 C 199.55 79.96 199.49 79.51 199.45 79.29 C 200.40 79.73 201.37 80.16 202.31 80.64 C 201.83 81.10 200.88 82.01 200.40 82.46 C 199.98 82.15 199.15 81.53 198.74 81.23 C 198.02 84.74 196.21 89.33 192.10 89.67 C 193.25 87.95 194.53 86.32 195.51 84.50 C 194.05 86.01 191.36 87.32 191.64 89.77 C 190.78 89.63 189.07 89.35 188.22 89.21 C 189.45 87.08 191.48 85.50 192.69 83.40 C 190.95 84.09 189.61 85.67 187.69 86.06 C 187.85 83.01 190.46 80.97 190.83 78.03 C 188.24 80.84 186.42 84.25 184.02 87.21 L 185.87 87.55 C 183.83 89.67 181.68 91.70 179.81 93.97 C 180.63 93.81 182.28 93.49 183.10 93.33 C 179.61 94.97 181.88 100.54 177.49 100.74 C 176.69 101.51 175.90 102.30 175.11 103.08 L 175.78 101.13 C 175.04 101.25 173.57 101.49 172.84 101.61 C 174.41 99.53 176.18 97.61 177.76 95.53 C 177.15 95.44 175.93 95.28 175.32 95.20 C 178.11 92.48 181.20 90.10 184.29 87.73 C 183.41 87.06 182.54 86.40 181.68 85.72 C 182.37 85.11 183.07 84.50 183.77 83.89 L 181.54 83.48 C 184.91 80.87 188.30 78.26 191.46 75.39 C 193.05 73.87 195.25 72.71 195.40 70.16 C 192.58 71.97 190.69 75.71 186.93 75.67 C 186.89 71.53 190.02 69.01 193.15 66.93 C 193.68 67.81 194.22 68.69 194.78 69.56 M 193.08 68.62 C 191.65 69.27 190.23 71.01 190.22 72.60 C 191.42 72.33 192.33 71.20 193.28 70.46 C 193.23 70.00 193.13 69.08 193.08 68.62 Z" />
<path fill="#ffffff" opacity="1.00" d=" M 297.70 66.17 C 298.31 66.65 299.51 67.60 300.11 68.08 C 300.71 67.80 301.31 67.51 301.91 67.23 L 301.55 66.16 C 304.32 67.93 307.61 69.28 309.42 72.17 C 311.20 74.81 313.42 77.11 315.50 79.52 C 314.39 79.89 313.29 80.28 312.21 80.72 C 314.29 81.74 316.17 83.21 317.43 85.18 C 315.30 83.78 313.47 81.94 311.21 80.72 C 311.46 81.41 311.94 82.78 312.18 83.47 C 314.51 84.78 317.18 86.21 318.27 88.80 C 312.61 86.45 308.77 81.14 305.68 76.08 C 307.54 77.00 309.28 78.14 310.98 79.35 C 311.54 78.98 312.10 78.61 312.67 78.25 C 311.25 76.87 310.00 75.34 308.77 73.80 C 308.67 74.36 308.47 75.48 308.38 76.04 C 306.32 73.59 304.71 70.82 302.88 68.22 C 302.32 68.95 301.76 69.68 301.21 70.41 C 299.91 69.11 298.65 67.75 297.70 66.17 M 307.01 70.88 C 306.37 71.99 307.63 73.92 308.88 73.74 C 309.28 72.67 308.32 70.57 307.01 70.88 Z" />
<path fill="#ffffff" opacity="1.00" d=" M 259.00 71.94 C 259.67 69.99 261.44 66.33 263.94 68.12 C 262.34 69.46 260.77 70.83 259.00 71.94 Z" />
<path fill="#ffffff" opacity="1.00" d=" M 276.25 68.25 C 276.95 67.66 278.34 66.49 279.03 65.90 C 279.93 67.61 280.84 69.31 281.65 71.08 C 279.71 70.41 277.95 69.37 276.25 68.25 Z" />
<path fill="#ffffff" opacity="1.00" d=" M 284.84 66.98 C 287.96 66.87 290.55 68.53 291.65 71.49 C 290.13 70.81 288.85 69.66 287.26 69.16 C 287.40 69.69 287.67 70.74 287.81 71.26 C 287.05 70.89 286.30 70.53 285.55 70.17 C 285.69 69.68 285.96 68.69 286.10 68.20 C 285.78 67.89 285.15 67.28 284.84 66.98 Z" />
<path fill="#ffffff" opacity="1.00" d=" M 253.59 68.10 C 254.62 68.06 256.30 68.82 255.83 70.10 C 254.98 72.84 253.09 75.16 251.70 77.65 C 251.35 77.63 250.66 77.60 250.32 77.58 C 252.00 74.64 253.67 71.60 253.59 68.10 Z" />
<path fill="#ffffff" opacity="1.00" d=" M 236.22 67.76 C 236.58 68.75 236.93 69.74 237.27 70.74 C 238.18 70.25 239.08 69.74 239.98 69.21 C 239.52 72.35 238.58 75.76 236.07 77.90 C 236.40 76.91 237.07 74.92 237.40 73.93 C 236.50 74.66 234.69 76.13 233.79 76.86 C 234.52 75.44 235.28 74.05 236.07 72.67 C 235.39 72.78 234.03 73.00 233.35 73.11 C 234.29 71.31 235.24 69.53 236.22 67.76 Z" />
<path fill="#ffffff" opacity="1.00" d=" M 266.83 68.86 C 267.27 69.41 267.72 69.96 268.16 70.52 C 266.59 71.96 264.87 74.33 262.66 72.39 C 260.93 76.78 265.63 79.26 266.85 82.96 L 264.76 83.71 C 264.48 83.35 263.92 82.63 263.64 82.27 C 261.95 79.31 260.52 76.16 259.23 72.98 C 259.96 73.23 261.42 73.73 262.16 73.97 L 261.22 72.14 C 261.59 72.18 262.34 72.25 262.72 72.28 C 262.80 71.64 262.95 70.37 263.03 69.73 C 264.35 69.68 265.61 69.39 266.83 68.86 Z" />
<path fill="#ffffff" opacity="1.00" d=" M 247.94 75.47 C 247.01 74.31 247.40 71.88 248.87 71.34 C 250.50 72.10 249.73 75.56 247.94 75.47 Z" />
<path fill="#ffffff" opacity="1.00" d=" M 268.96 72.08 C 269.54 71.55 270.70 70.49 271.28 69.96 L 271.47 71.18 C 273.42 70.85 274.78 72.18 276.08 73.37 C 275.61 73.50 274.68 73.77 274.21 73.90 L 274.84 76.37 L 271.27 73.96 C 271.42 74.67 271.71 76.08 271.85 76.79 C 270.90 77.92 270.25 79.25 269.58 80.55 C 269.77 81.60 269.95 82.65 270.11 83.71 C 269.66 83.51 268.77 83.11 268.32 82.91 C 267.69 81.69 267.06 80.48 266.43 79.26 C 267.02 79.26 268.19 79.24 268.78 79.24 C 267.81 77.71 266.89 76.15 266.04 74.57 C 267.70 74.28 269.37 73.97 270.96 73.38 L 268.96 72.08 Z" />
<path fill="#ffffff" opacity="1.00" d=" M 278.27 71.98 C 281.47 73.27 283.97 75.84 285.77 78.73 C 282.29 77.90 279.98 74.92 278.27 71.98 Z" />
<path fill="#ffffff" opacity="1.00" d=" M 264.11 75.27 C 265.44 75.10 266.32 77.17 266.06 78.31 C 264.74 78.52 263.67 76.41 264.11 75.27 Z" />
<path fill="#ffffff" opacity="1.00" d=" M 250.46 83.87 C 253.18 81.58 254.57 78.25 256.86 75.75 C 256.10 79.87 256.27 84.07 255.55 88.19 C 256.03 87.95 257.00 87.49 257.48 87.25 C 257.53 87.90 257.63 89.19 257.68 89.84 C 258.23 89.47 259.35 88.72 259.91 88.34 C 259.32 90.57 259.08 92.95 257.95 94.99 L 256.80 94.88 L 255.39 93.29 C 255.19 94.79 255.15 96.47 253.49 97.07 C 253.78 94.49 254.12 91.92 254.56 89.36 C 254.19 89.27 253.45 89.10 253.08 89.01 L 253.44 86.79 C 249.88 85.95 249.95 92.09 253.21 91.66 C 251.99 93.86 251.42 96.29 250.78 98.69 C 248.85 101.74 247.49 105.12 245.43 108.09 C 245.42 108.77 245.41 110.11 245.41 110.78 C 245.58 112.95 244.84 115.39 242.46 115.91 C 242.94 114.80 243.89 112.58 244.36 111.47 C 242.97 112.61 241.61 113.75 240.22 114.87 C 242.49 116.68 240.12 118.29 239.39 119.86 C 238.09 118.14 237.78 115.98 237.20 113.97 C 237.84 114.10 239.13 114.37 239.78 114.50 C 240.79 112.54 242.24 110.87 243.96 109.50 L 243.87 108.80 C 242.89 109.82 241.93 110.86 240.94 111.86 C 240.56 111.06 239.79 109.46 239.40 108.66 C 240.78 107.12 242.26 105.67 243.83 104.32 C 243.48 105.18 242.76 106.91 242.40 107.78 C 243.58 106.84 244.66 105.80 245.77 104.78 C 247.20 101.62 248.93 98.60 250.94 95.77 L 249.40 95.79 C 249.58 95.11 249.96 93.76 250.14 93.08 L 251.24 93.47 C 250.92 92.56 250.61 91.65 250.29 90.74 C 249.11 93.07 247.22 95.26 247.10 97.99 C 246.85 100.20 246.37 103.29 243.87 103.99 C 244.46 100.79 244.98 97.51 246.79 94.73 C 248.56 92.13 248.75 88.73 251.05 86.49 C 250.90 85.84 250.60 84.52 250.46 83.87 Z" />
<path fill="#ffffff" opacity="1.00" d=" M 201.94 78.51 L 202.65 77.93 C 205.28 78.04 202.39 80.65 201.94 78.51 Z" />
<path fill="#ffffff" opacity="1.00" d=" M 257.94 77.79 C 259.20 77.79 260.20 78.26 260.95 79.21 C 260.53 79.98 259.88 80.56 259.02 80.96 C 259.91 81.37 261.69 82.20 262.58 82.61 C 263.72 84.67 260.30 84.31 259.17 84.64 C 259.90 84.68 261.36 84.74 262.09 84.78 C 262.71 86.54 264.39 85.27 265.56 85.08 C 266.19 85.29 267.46 85.71 268.09 85.92 C 266.78 88.08 266.04 90.45 266.00 92.98 C 265.37 93.23 264.11 93.73 263.48 93.98 C 263.05 92.35 262.71 90.71 262.44 89.05 C 262.88 89.15 263.75 89.35 264.19 89.45 C 264.52 88.88 265.19 87.76 265.53 87.20 C 264.79 87.55 264.06 87.90 263.33 88.25 C 261.72 87.38 260.10 86.56 258.48 85.74 C 258.27 83.96 258.97 82.00 257.67 80.45 C 258.29 80.01 258.90 79.57 259.51 79.11 L 257.94 77.79 Z" />
<path fill="#ffffff" opacity="1.00" d=" M 270.51 85.26 C 270.61 82.17 271.56 79.38 274.52 78.01 C 273.97 79.06 273.81 80.07 274.06 81.05 C 275.29 81.39 276.54 81.41 277.81 81.10 C 279.39 83.18 281.00 86.74 277.61 87.89 C 276.39 86.46 276.35 83.17 274.14 82.87 C 273.91 84.20 274.29 85.52 274.45 86.84 C 273.11 86.38 271.81 85.83 270.51 85.26 Z" />
<path fill="#ffffff" opacity="1.00" d=" M 205.01 79.25 C 206.07 79.38 208.19 78.22 207.86 80.39 C 206.41 83.20 205.38 86.35 203.14 88.66 C 203.24 87.99 203.44 86.65 203.54 85.99 L 202.18 86.10 C 202.44 84.93 202.67 83.76 202.87 82.58 C 203.63 81.50 204.35 80.40 205.01 79.25 Z" />
<path fill="#ffffff" opacity="1.00" d=" M 236.40 81.46 C 237.31 80.59 238.20 79.69 239.13 78.83 C 238.60 79.75 237.55 81.59 237.02 82.51 C 238.51 82.04 241.49 81.09 242.98 80.61 C 242.08 82.34 241.11 84.02 240.06 85.66 C 240.76 85.56 242.17 85.36 242.87 85.26 C 244.47 82.96 246.85 81.44 248.83 79.51 C 249.55 79.67 250.28 79.83 251.00 80.00 L 250.80 80.73 L 249.35 80.30 C 250.04 82.79 248.85 84.91 247.42 86.82 C 247.21 88.77 245.59 90.72 247.02 92.62 C 246.77 92.46 246.27 92.14 246.02 91.98 C 245.74 91.80 245.18 91.43 244.91 91.24 L 245.41 90.38 C 244.51 91.34 243.65 92.33 242.80 93.32 C 242.42 93.36 241.68 93.45 241.30 93.49 C 243.26 89.64 246.50 86.59 248.34 82.75 L 248.54 82.55 L 248.59 82.40 C 248.52 82.48 248.40 82.66 248.34 82.75 C 245.29 85.89 241.81 88.52 237.94 90.58 C 238.64 89.19 239.59 87.95 240.72 86.87 C 239.95 86.30 239.20 85.74 238.44 85.17 C 237.89 85.68 236.80 86.69 236.25 87.19 C 235.99 85.28 235.08 83.20 236.40 81.46 Z" />
<path fill="#ffffff" opacity="1.00" d=" M 279.35 79.04 C 280.87 79.69 282.35 80.44 283.82 81.19 C 283.72 81.84 283.53 83.16 283.43 83.82 C 281.32 82.96 280.00 81.15 279.35 79.04 Z" />
<path fill="#ffffff" opacity="1.00" d=" M 174.02 90.09 C 175.21 87.29 176.49 84.49 179.02 82.62 C 179.75 82.98 181.21 83.71 181.94 84.07 C 179.67 86.55 177.16 88.80 174.02 90.09 Z" />
<path fill="#ffffff" opacity="1.00" d=" M 285.35 82.66 C 285.31 83.15 285.24 84.13 285.21 84.62 C 287.98 82.66 287.43 86.44 287.97 87.81 C 286.59 87.94 285.23 88.19 283.85 88.19 C 282.46 86.96 281.42 85.40 280.45 83.83 C 281.68 84.41 282.91 85.01 284.14 85.62 C 284.44 84.88 285.05 83.40 285.35 82.66 Z" />
<path fill="#ffffff" opacity="1.00" d=" M 304.79 87.67 C 303.06 86.58 300.02 85.89 300.28 83.34 C 302.05 84.47 303.63 85.90 304.79 87.67 Z" />
<path fill="#ffffff" opacity="1.00" d=" M 308.60 85.71 C 313.92 88.13 316.04 94.02 318.49 98.89 C 316.10 97.78 314.79 95.32 312.86 93.62 C 313.13 93.21 313.67 92.37 313.94 91.96 C 312.28 89.77 309.92 88.17 308.60 85.71 Z" />
<path fill="#ffffff" opacity="1.00" d=" M 270.29 87.27 C 272.18 88.11 274.22 88.64 275.93 89.85 C 280.33 88.19 284.32 91.16 287.77 93.51 C 287.06 93.59 285.65 93.75 284.94 93.83 C 282.35 92.02 279.06 90.44 276.20 92.66 C 277.81 93.40 279.06 94.52 279.97 96.04 C 279.11 96.05 277.37 96.06 276.51 96.07 C 276.61 96.52 276.82 97.41 276.92 97.86 C 276.57 97.78 275.87 97.63 275.51 97.56 C 274.81 98.86 273.91 100.02 272.95 101.13 C 274.10 103.77 275.30 106.39 276.17 109.14 L 274.14 107.89 C 273.99 107.42 273.67 106.48 273.52 106.00 C 273.28 107.30 273.00 108.58 272.63 109.85 C 271.15 108.59 271.43 106.39 270.75 104.70 C 270.43 106.56 270.22 108.44 270.12 110.32 C 269.37 110.05 267.85 109.50 267.10 109.22 C 267.22 107.65 269.96 105.64 268.71 104.26 C 267.12 104.76 266.96 107.40 265.73 108.43 C 265.21 105.54 265.78 102.69 266.39 99.87 C 264.13 102.84 262.82 106.45 261.78 110.01 C 261.40 109.26 261.03 108.51 260.68 107.76 C 262.56 104.42 263.96 100.85 265.34 97.28 C 265.67 97.04 266.34 96.55 266.68 96.31 C 267.01 97.84 266.94 99.74 268.53 100.61 C 268.97 101.77 269.40 102.94 269.97 104.05 L 270.04 100.97 C 270.51 101.53 271.46 102.65 271.93 103.21 C 271.61 101.83 271.28 100.46 270.98 99.08 C 272.20 98.39 273.99 93.45 274.47 96.79 L 274.73 96.79 C 274.47 95.89 273.96 94.08 273.71 93.17 L 276.75 93.46 C 275.94 92.22 274.74 91.31 273.36 90.81 C 272.38 90.11 271.42 89.41 270.40 88.78 C 270.38 88.40 270.32 87.65 270.29 87.27 Z" />
<path fill="#ffffff" opacity="1.00" d=" M 268.41 89.82 C 268.91 89.56 269.91 89.04 270.40 88.78 C 269.69 91.25 271.42 93.60 271.86 96.00 C 270.61 95.48 269.41 94.84 268.13 94.40 C 266.62 95.42 264.95 95.78 263.13 95.48 C 264.00 94.32 265.16 93.63 266.61 93.43 C 267.50 92.72 268.40 92.02 269.32 91.33 C 269.09 90.95 268.64 90.19 268.41 89.82 Z" />
<path fill="#ffffff" opacity="1.00" d=" M 184.07 93.26 C 185.27 91.60 186.50 89.97 187.76 88.34 C 187.61 89.30 187.33 91.21 187.18 92.17 C 187.89 92.23 189.31 92.35 190.02 92.42 C 189.27 93.10 187.75 94.47 186.99 95.16 C 186.23 95.97 185.44 96.75 184.68 97.56 C 185.72 96.90 187.78 95.58 188.82 94.91 C 187.35 96.30 186.95 100.68 183.97 99.43 C 181.89 102.76 180.09 106.27 177.57 109.30 L 178.55 105.87 L 176.10 108.24 C 176.94 106.52 175.67 101.57 178.88 103.84 L 177.88 101.33 L 179.36 102.43 C 182.13 99.80 183.67 96.28 185.79 93.17 L 184.07 93.26 Z" />
<path fill="#ffffff" opacity="1.00" d=" M 188.67 91.02 C 189.24 90.84 190.37 90.47 190.94 90.29 C 191.77 91.58 188.54 92.72 188.67 91.02 Z" />
<path fill="#ffffff" opacity="1.00" d=" M 301.02 88.91 C 303.68 91.72 307.22 93.21 309.91 95.88 C 309.16 95.60 307.66 95.03 306.90 94.75 C 307.33 95.54 308.18 97.12 308.60 97.91 C 307.86 97.62 306.36 97.03 305.61 96.74 C 307.27 99.12 309.22 101.38 310.23 104.16 C 306.66 102.47 304.27 99.25 301.91 96.23 C 305.05 101.09 305.27 97.05 306.09 95.38 L 303.34 96.67 L 304.99 94.30 C 301.78 96.20 300.33 91.84 298.81 90.05 C 299.46 90.50 300.76 91.41 301.41 91.86 L 302.31 92.28 C 302.37 92.37 302.48 92.55 302.54 92.64 C 302.48 92.55 302.37 92.37 302.31 92.28 C 301.99 91.43 301.34 89.75 301.02 88.91 Z" />
<path fill="#ffffff" opacity="1.00" d=" M 190.72 93.67 C 192.07 92.77 193.42 91.88 194.86 91.14 C 194.00 93.11 192.77 94.88 191.50 96.61 C 190.78 98.99 189.88 101.38 188.24 103.30 C 188.02 99.87 188.98 96.61 190.72 93.67 Z" />
<path fill="#ffffff" opacity="1.00" d=" M 311.22 91.23 C 311.87 91.83 311.87 91.83 311.22 91.23 Z" />
<path fill="#ffffff" opacity="1.00" d=" M 228.25 99.85 C 227.29 97.27 225.32 94.05 227.65 91.62 C 229.09 93.07 230.59 94.46 231.96 95.99 C 234.05 96.56 233.74 98.99 234.32 100.62 C 234.78 100.63 235.70 100.64 236.16 100.65 C 236.57 102.88 236.63 105.15 236.80 107.41 L 235.52 107.83 C 235.57 107.01 235.69 105.38 235.75 104.57 C 234.86 106.09 234.07 107.68 233.09 109.15 C 233.38 106.24 233.66 103.18 235.44 100.72 C 234.65 101.07 233.08 101.76 232.29 102.10 C 231.31 100.05 230.28 98.03 229.47 95.91 C 228.97 97.09 230.00 99.72 228.25 99.85 Z" />
<path fill="#ffffff" opacity="1.00" d=" M 242.87 97.51 C 242.83 95.37 243.56 92.42 246.02 91.98 C 245.99 94.21 244.42 96.07 242.87 97.51 Z" />
<path fill="#ffffff" opacity="1.00" d=" M 259.28 103.23 C 260.41 100.06 258.30 96.67 260.46 93.69 C 261.94 97.39 262.02 101.37 259.91 104.86 C 260.37 108.39 257.75 111.45 255.04 113.32 C 256.45 109.95 258.69 106.90 259.28 103.23 Z" />
<path fill="#ffffff" opacity="1.00" d=" M 295.03 93.70 C 298.03 95.03 298.07 98.92 299.93 101.26 C 299.03 101.60 298.13 101.94 297.23 102.26 C 297.48 101.51 297.99 100.00 298.25 99.25 C 296.98 97.52 295.73 95.75 295.03 93.70 Z" />
<path fill="#ffffff" opacity="1.00" d=" M 206.51 95.46 C 206.83 95.66 207.47 96.05 207.79 96.25 C 207.69 97.45 207.57 98.65 207.45 99.85 C 209.00 100.59 208.16 101.97 208.00 103.12 C 205.98 101.97 203.53 101.11 201.47 102.62 C 203.27 103.21 204.65 104.54 205.94 105.86 C 202.63 105.28 199.30 103.50 195.92 104.61 C 193.85 107.42 192.86 103.56 191.82 101.96 C 193.66 102.15 195.49 102.50 197.20 103.23 C 198.29 101.44 198.74 97.10 201.95 102.16 C 201.63 101.35 200.98 99.74 200.66 98.94 C 202.08 99.90 203.53 100.81 205.08 101.55 C 204.89 100.66 204.69 99.76 204.50 98.87 C 205.21 97.76 205.89 96.63 206.51 95.46 Z" />
<path fill="#ffffff" opacity="1.00" d=" M 256.16 106.20 C 256.75 102.63 255.34 98.85 257.97 95.81 C 258.73 98.58 258.19 101.40 257.88 104.18 C 257.30 104.85 256.73 105.53 256.16 106.20 Z" />
<path fill="#ffffff" opacity="1.00" d=" M 279.74 102.37 C 279.54 100.06 279.34 97.70 280.20 95.50 C 282.41 99.83 280.92 104.71 281.21 109.33 C 279.53 109.22 278.32 108.41 277.56 106.90 C 277.16 107.11 276.36 107.53 275.96 107.74 C 275.67 105.86 275.14 104.01 275.11 102.11 C 275.86 101.23 276.72 100.46 277.57 99.67 C 277.54 100.40 277.48 101.86 277.44 102.58 C 278.02 102.53 279.17 102.42 279.74 102.37 Z" />
<path fill="#ffffff" opacity="1.00" d=" M 285.33 96.41 C 287.36 94.75 288.61 98.12 289.55 99.35 C 290.03 99.69 290.52 100.03 291.01 100.37 C 290.28 100.36 288.81 100.35 288.08 100.34 C 288.62 104.04 290.88 107.22 291.28 110.96 C 292.69 108.38 291.46 105.49 291.48 102.74 C 293.01 104.45 294.09 106.48 295.13 108.51 C 295.18 107.36 295.29 105.04 295.35 103.89 C 294.35 102.38 293.20 100.84 293.28 98.93 C 295.47 102.65 299.26 106.45 297.64 111.13 C 298.51 110.30 299.37 109.47 300.24 108.63 C 298.52 107.22 300.54 105.46 300.66 103.99 L 299.17 105.14 L 297.97 102.62 C 298.72 102.62 300.23 102.61 300.98 102.61 C 300.77 102.94 300.34 103.59 300.13 103.92 C 300.91 103.76 302.46 103.45 303.24 103.29 C 302.68 103.79 301.57 104.77 301.02 105.27 C 301.41 105.44 302.20 105.80 302.60 105.98 L 303.03 104.54 C 303.94 105.21 304.91 105.76 305.96 106.19 C 305.47 106.82 304.99 107.46 304.52 108.09 C 304.48 109.29 304.39 110.49 304.32 111.69 C 307.02 112.06 306.13 115.19 305.95 116.91 C 305.39 116.01 304.86 115.09 304.36 114.16 L 303.78 115.60 L 301.96 116.33 C 302.56 114.51 303.29 112.74 303.96 110.95 C 303.08 112.06 302.22 113.19 301.34 114.31 C 301.97 116.44 301.81 118.62 301.32 120.78 L 302.66 120.24 C 302.45 122.27 302.55 124.46 301.10 126.11 C 299.07 123.74 299.28 120.60 298.44 117.78 L 296.83 118.59 L 297.86 116.52 C 296.90 116.52 294.97 116.50 294.01 116.49 C 295.28 114.73 293.81 112.31 294.28 110.37 C 291.45 112.42 286.72 112.52 284.58 109.40 C 283.42 109.58 282.26 109.77 281.12 109.97 C 282.08 107.41 282.78 104.77 283.38 102.11 C 284.68 105.04 285.74 108.09 287.38 110.86 C 287.78 108.12 285.98 105.49 284.94 103.00 L 287.18 103.80 C 286.51 101.52 282.94 98.73 285.33 96.41 M 299.92 119.16 C 300.11 116.20 301.32 112.89 299.33 110.24 C 297.64 112.88 298.30 116.62 299.92 119.16 Z" />
<path fill="#ffffff" opacity="1.00" d=" M 197.58 97.09 C 198.23 97.47 198.88 97.85 199.53 98.23 C 197.72 99.36 196.47 101.86 193.98 101.17 C 193.81 100.74 193.46 99.88 193.28 99.45 C 194.68 98.61 196.14 97.90 197.81 98.54 L 197.58 97.09 Z" />
<path fill="#ffffff" opacity="1.00" d=" M 224.26 101.76 C 223.60 100.88 224.37 98.57 225.69 99.35 C 226.59 100.22 225.48 102.38 224.26 101.76 Z" />
<path fill="#ffffff" opacity="1.00" d=" M 249.71 105.67 C 251.12 103.48 252.40 101.21 253.86 99.04 C 253.69 99.64 253.36 100.83 253.19 101.43 C 253.69 102.74 253.70 104.08 253.29 105.42 C 253.60 105.41 254.22 105.39 254.54 105.38 C 252.45 108.89 253.33 113.14 252.60 117.02 L 251.71 116.87 C 251.75 116.40 251.84 115.46 251.89 114.98 C 251.03 115.88 250.17 116.76 249.27 117.61 L 250.39 113.45 C 249.43 115.21 248.06 116.49 246.27 117.29 C 247.06 115.74 248.05 114.30 249.09 112.92 C 249.83 113.20 250.58 113.49 251.32 113.78 C 251.12 113.45 250.73 112.80 250.54 112.48 C 249.83 112.54 248.43 112.66 247.73 112.72 C 247.51 110.98 247.19 109.18 248.19 107.60 L 249.55 110.39 C 250.83 108.86 250.89 107.29 249.71 105.67 Z" />
<path fill="#ffffff" opacity="1.00" d=" M 296.15 99.24 C 299.54 99.63 294.57 102.11 296.15 99.24 Z" />
<path fill="#ffffff" opacity="1.00" d=" M 211.25 100.39 C 214.59 100.29 209.98 103.46 211.25 100.39 Z" />
<path fill="#ffffff" opacity="1.00" d=" M 313.55 99.94 C 314.34 100.71 315.11 101.50 315.90 102.30 C 315.34 103.54 314.78 104.79 314.23 106.03 C 315.88 107.94 317.59 109.80 319.04 111.86 L 319.10 109.61 C 319.67 110.14 320.80 111.20 321.36 111.73 C 322.50 112.87 323.57 114.06 324.59 115.31 C 324.88 115.07 325.45 114.57 325.74 114.33 C 326.00 114.87 326.52 115.97 326.77 116.52 L 327.28 116.41 C 327.54 117.94 328.12 119.38 328.71 120.81 C 327.79 119.83 325.82 119.15 326.57 117.43 C 324.39 118.24 322.34 117.95 321.77 115.36 C 321.25 116.23 320.75 117.10 320.25 117.97 L 320.60 116.55 C 319.11 116.88 317.78 116.51 316.72 115.44 C 314.85 113.27 313.03 111.05 311.70 108.49 C 312.42 108.05 313.13 107.61 313.85 107.16 L 312.13 105.67 C 312.56 105.61 313.42 105.49 313.84 105.42 C 312.98 103.86 312.09 102.32 311.35 100.70 C 312.18 101.40 313.85 102.79 314.69 103.49 L 313.55 99.94 M 313.84 109.88 C 315.96 111.71 317.65 113.94 319.45 116.06 C 319.69 114.95 319.85 113.82 319.94 112.69 C 317.42 112.49 315.93 110.51 314.80 108.49 C 314.47 108.95 314.15 109.41 313.84 109.88 Z" />
<path fill="#ffffff" opacity="1.00" d=" M 184.54 100.72 C 185.44 101.40 186.34 102.09 187.23 102.78 C 186.33 104.17 185.46 105.58 184.63 107.01 C 183.68 104.37 182.17 104.77 180.10 108.21 C 181.42 105.62 183.04 103.21 184.54 100.72 Z" />
<path fill="#ffffff" opacity="1.00" d=" M 227.35 101.20 L 227.69 101.19 C 227.66 101.84 227.62 103.13 227.60 103.78 L 228.81 103.79 L 228.47 100.51 C 231.23 101.15 230.13 102.97 229.49 104.54 L 227.74 104.63 C 228.93 105.72 230.61 106.49 231.05 108.20 C 229.33 108.42 227.75 109.12 226.17 109.76 L 226.69 108.28 C 226.15 108.36 225.08 108.52 224.55 108.60 L 224.95 106.87 C 224.15 107.48 222.54 108.71 221.74 109.32 C 222.43 107.84 223.23 106.42 224.15 105.07 C 224.60 105.25 225.50 105.61 225.95 105.79 C 226.33 104.31 226.68 102.83 227.04 101.36 L 227.35 101.20 Z" />
<path fill="#ffffff" opacity="1.00" d=" M 240.93 105.27 C 239.48 104.49 241.86 101.68 243.20 102.28 C 243.65 103.61 241.97 104.77 240.93 105.27 Z" />
<path fill="#ffffff" opacity="1.00" d=" M 223.24 103.47 C 223.57 103.77 223.57 103.77 223.24 103.47 Z" />
<path fill="#ffffff" opacity="1.00" d=" M 187.06 111.60 C 188.95 109.42 190.36 106.76 192.84 105.15 C 192.01 107.90 190.59 110.43 189.81 113.20 C 190.34 112.73 191.41 111.80 191.94 111.34 L 191.60 113.21 C 191.56 113.60 191.47 114.39 191.42 114.78 C 193.01 113.78 194.80 112.17 194.82 110.16 C 193.30 110.51 192.60 112.18 191.60 113.21 C 191.89 112.43 192.47 110.86 192.76 110.08 L 192.03 109.52 C 193.63 107.14 196.37 106.32 198.99 105.58 C 198.16 107.11 197.31 108.62 196.60 110.21 C 197.57 110.35 199.50 110.64 200.47 110.78 C 200.04 109.97 199.18 108.36 198.75 107.55 C 201.19 108.80 203.04 110.87 204.74 112.97 C 205.81 113.09 208.43 114.40 206.77 115.70 C 205.16 116.56 203.49 115.28 202.03 114.69 C 199.61 115.14 197.21 115.70 194.81 116.21 C 194.79 115.60 194.76 114.39 194.74 113.79 C 191.34 116.36 193.08 121.38 189.86 124.33 C 189.47 124.52 188.69 124.90 188.30 125.09 C 189.60 122.49 191.31 120.09 192.29 117.34 C 190.80 119.26 187.18 120.79 187.96 116.37 C 187.45 117.09 186.43 118.53 185.93 119.25 C 186.11 120.72 186.32 122.21 186.64 123.66 C 185.14 126.52 183.15 129.10 180.77 131.27 C 181.58 128.37 183.96 125.90 183.64 122.73 C 183.01 122.63 181.77 122.42 181.15 122.32 C 183.57 118.58 186.92 115.53 188.98 111.55 C 188.50 111.56 187.54 111.59 187.06 111.60 M 196.37 114.18 C 198.16 113.64 199.94 113.06 201.74 112.55 C 200.55 111.87 199.35 111.21 198.14 110.57 C 197.55 111.78 196.96 112.98 196.37 114.18 Z" />
<path fill="#ffffff" opacity="1.00" d=" M 264.20 106.26 C 264.57 106.94 264.94 107.62 265.30 108.30 C 264.59 109.93 263.80 111.51 263.04 113.12 C 264.26 111.61 265.42 109.96 267.66 110.24 C 267.71 110.47 267.82 110.92 267.88 111.15 C 265.17 110.72 264.60 114.30 263.14 115.86 C 262.43 115.34 261.72 114.82 261.01 114.30 C 262.21 111.68 263.38 109.03 264.20 106.26 Z" />
<path fill="#ffffff" opacity="1.00" d=" M 180.12 111.77 C 181.85 111.47 183.25 110.38 184.71 109.48 C 182.65 112.94 180.90 116.64 178.29 119.74 C 178.22 117.00 178.10 113.92 180.12 111.77 Z" />
<path fill="#ffffff" opacity="1.00" d=" M 276.32 109.37 C 278.56 108.82 279.84 112.37 282.29 110.61 C 279.62 112.91 276.82 115.07 274.49 117.73 L 278.33 117.81 L 277.10 116.39 C 278.12 115.51 279.15 114.63 280.17 113.75 C 281.15 113.62 283.12 113.37 284.11 113.24 C 282.29 115.51 280.28 117.68 277.72 119.12 C 278.09 119.58 278.47 120.04 278.85 120.49 C 280.21 118.78 282.32 118.33 284.34 118.02 C 282.80 120.81 279.11 120.77 277.11 123.16 C 277.56 124.00 278.02 124.84 278.47 125.69 L 280.46 124.90 C 279.07 126.63 277.46 128.17 275.75 129.58 C 276.01 128.68 276.52 126.88 276.78 125.98 C 276.02 126.98 275.13 127.84 273.96 128.33 C 273.43 128.87 272.91 129.42 272.39 129.98 C 273.68 132.34 276.03 134.88 274.34 137.79 C 274.87 137.58 275.92 137.16 276.45 136.95 C 276.36 136.18 276.19 134.63 276.10 133.85 C 276.71 134.87 277.27 135.91 277.79 136.99 C 278.22 137.19 279.08 137.58 279.50 137.78 C 279.14 136.17 278.77 134.55 278.38 132.95 C 277.78 132.01 277.20 131.07 276.64 130.12 L 278.71 131.02 C 278.66 130.25 278.55 128.71 278.50 127.95 C 278.97 128.54 279.91 129.73 280.38 130.33 C 282.63 132.96 281.29 136.27 280.67 139.24 L 279.98 137.40 C 279.48 137.93 278.99 138.46 278.51 139.01 C 278.11 140.41 277.16 141.52 276.38 142.71 C 275.93 142.23 275.04 141.27 274.59 140.79 C 275.16 140.34 276.30 139.44 276.87 139.00 C 275.72 138.26 274.46 137.83 273.10 137.70 C 272.51 136.61 271.90 135.53 271.28 134.46 C 271.62 134.29 272.31 133.96 272.65 133.80 C 272.25 132.42 271.86 131.04 271.48 129.66 C 272.57 128.48 273.68 127.29 274.60 125.96 C 271.85 124.25 275.98 122.26 277.42 121.69 C 276.48 121.15 275.53 120.65 274.58 120.15 C 273.65 120.76 272.71 121.36 271.76 121.94 C 272.89 119.72 274.10 117.55 275.32 115.39 L 273.65 114.19 L 273.75 115.68 C 273.21 116.36 272.13 117.73 271.59 118.41 C 271.58 116.73 271.65 115.06 271.56 113.38 C 270.43 114.81 269.10 116.00 267.57 116.96 C 268.50 114.93 270.07 113.35 271.54 111.72 C 271.97 112.35 272.40 112.98 272.84 113.62 C 273.37 113.14 274.44 112.20 274.97 111.73 C 275.38 110.92 275.83 110.13 276.32 109.37 M 275.85 118.39 C 276.02 118.53 276.37 118.82 276.54 118.96 L 276.47 118.33 L 275.85 118.39 M 279.33 131.14 C 277.64 134.09 282.64 131.41 279.33 131.14 Z" />
<path fill="#ffffff" opacity="1.00" d=" M 228.51 110.91 C 229.37 109.71 232.23 109.61 232.97 111.00 C 232.30 112.68 229.19 112.50 228.51 110.91 Z" />
<path fill="#ffffff" opacity="1.00" d=" M 255.67 117.49 C 256.70 115.32 256.97 110.87 260.28 111.35 C 258.72 113.38 257.96 116.10 255.67 117.49 Z" />
<path fill="#ffffff" opacity="1.00" d=" M 307.53 111.74 C 309.41 111.82 311.40 110.90 313.14 112.08 C 312.07 112.64 310.95 113.13 309.83 113.56 C 311.21 114.76 311.57 116.52 311.95 118.22 C 311.81 119.64 311.68 121.07 311.55 122.50 C 310.55 120.58 311.03 117.62 308.98 116.45 C 308.96 118.07 309.12 119.67 309.45 121.26 C 308.72 121.53 307.24 122.06 306.50 122.32 C 306.48 121.56 306.44 120.03 306.41 119.26 L 304.99 119.92 L 305.44 117.73 C 307.62 118.45 307.20 115.95 307.88 114.80 L 308.07 114.10 C 307.98 113.29 307.80 112.51 307.53 111.74 Z" />
<path fill="#ffffff" opacity="1.00" d=" M 182.82 116.18 C 182.71 114.70 184.03 112.06 185.70 112.23 C 185.86 113.77 184.39 116.02 182.82 116.18 Z" />
<path fill="#ffffff" opacity="1.00" d=" M 286.27 113.14 C 287.99 113.16 289.77 113.03 291.31 114.01 C 290.73 114.86 289.56 116.58 288.98 117.43 C 290.39 116.51 291.63 115.36 292.97 114.34 C 292.51 116.35 291.79 118.27 290.85 120.10 C 290.43 119.81 289.59 119.23 289.17 118.94 C 289.58 119.36 290.41 120.21 290.82 120.64 C 288.76 120.23 287.21 121.72 285.45 122.40 C 286.34 120.88 287.35 119.44 288.24 117.92 C 287.66 118.41 286.50 119.37 285.92 119.86 C 285.36 118.24 284.73 116.65 284.11 115.06 L 285.75 116.02 L 285.42 114.44 L 286.80 114.54 L 286.27 113.14 Z" />
<path fill="#ffffff" opacity="1.00" d=" M 227.60 115.45 C 227.75 115.08 228.04 114.33 228.19 113.96 C 228.29 115.61 228.40 117.25 228.50 118.89 L 229.29 118.39 C 229.48 119.19 229.86 120.78 230.05 121.58 C 229.46 120.82 228.97 119.97 228.29 119.29 C 227.55 120.02 226.81 120.76 226.06 121.49 C 227.05 121.91 228.04 122.37 229.02 122.83 C 228.68 124.21 228.36 125.60 227.98 126.97 C 227.62 126.49 226.90 125.53 226.54 125.05 C 226.30 126.42 225.60 127.39 224.43 127.94 C 224.76 126.32 226.01 124.87 225.86 123.16 C 224.58 123.82 223.62 124.97 222.39 125.71 C 224.10 122.35 226.29 119.26 227.84 115.80 C 224.68 116.60 224.81 121.54 221.37 121.70 C 221.01 124.28 219.06 126.16 217.18 127.77 C 216.91 124.85 217.94 122.00 220.60 120.58 L 220.63 119.91 C 223.52 119.23 223.89 114.36 227.60 115.45 Z" />
<path fill="#ffffff" opacity="1.00" d=" M 312.30 115.04 C 312.80 114.56 313.29 114.08 313.80 113.61 C 314.66 114.91 315.88 115.93 316.99 117.02 C 318.44 118.16 320.12 119.08 321.27 120.55 C 321.53 122.35 321.25 124.19 322.14 125.91 C 321.52 125.32 320.28 124.14 319.66 123.56 C 319.05 123.52 317.82 123.45 317.21 123.41 C 317.13 123.88 316.98 124.80 316.91 125.27 C 316.83 124.46 316.67 122.83 316.60 122.02 L 315.43 122.86 C 314.25 120.79 313.01 118.76 312.22 116.51 C 312.57 116.44 313.27 116.32 313.62 116.26 L 312.30 115.04 Z" />
<path fill="#ffffff" opacity="1.00" d=" M 197.04 117.39 C 198.82 117.63 200.61 117.50 202.35 117.08 C 203.22 118.53 203.86 120.08 203.89 121.79 C 201.59 121.37 199.33 120.68 196.97 120.86 C 195.65 121.76 194.23 121.91 192.95 120.90 C 193.48 120.53 194.55 119.79 195.09 119.42 C 195.30 119.10 195.73 118.46 195.94 118.13 L 198.18 118.88 L 197.04 117.39 Z" />
<path fill="#ffffff" opacity="1.00" d=" M 233.54 115.87 C 236.57 116.24 234.91 119.19 234.79 120.92 C 231.95 121.92 232.89 125.38 231.98 127.67 C 231.46 127.53 230.41 127.26 229.88 127.12 C 229.11 123.73 231.48 121.13 231.83 117.93 C 232.30 118.16 233.25 118.63 233.73 118.86 C 233.68 118.11 233.59 116.62 233.54 115.87 Z" />
<path fill="#ffffff" opacity="1.00" d=" M 269.57 116.68 C 270.33 119.34 268.17 121.73 266.78 123.78 C 266.37 122.79 265.96 121.81 265.56 120.82 C 266.90 119.45 268.26 118.10 269.57 116.68 Z" />
<path fill="#ffffff" opacity="1.00" d=" M 256.54 120.03 C 257.27 119.02 258.17 118.16 259.07 117.31 C 261.85 118.78 260.89 122.38 258.88 124.07 C 258.08 122.73 257.17 121.46 256.54 120.03 Z" />
<path fill="#ffffff" opacity="1.00" d=" M 293.72 117.50 C 294.06 118.48 294.72 120.43 295.06 121.41 C 295.47 121.34 296.30 121.20 296.71 121.13 C 297.09 122.81 297.57 124.48 298.08 126.13 C 299.38 126.96 300.91 127.51 301.97 128.69 C 302.07 130.38 301.44 131.97 300.61 133.40 C 300.70 133.95 300.90 135.05 300.99 135.60 C 300.06 136.90 299.22 138.27 298.10 139.43 C 298.26 137.71 299.32 135.94 298.39 134.27 L 296.78 135.84 C 297.71 133.52 298.89 131.29 300.45 129.32 C 297.89 128.85 298.27 132.61 296.43 133.51 C 296.45 131.34 297.02 129.20 296.87 127.04 C 296.17 125.18 294.83 123.56 294.73 121.50 C 294.34 121.53 293.57 121.59 293.18 121.62 C 293.32 120.59 293.59 118.53 293.72 117.50 Z" />
<path fill="#ffffff" opacity="1.00" d=" M 196.02 123.86 C 197.14 123.12 198.36 122.54 199.56 121.94 C 198.87 124.05 198.32 126.21 197.41 128.24 C 196.87 126.81 196.13 125.41 196.02 123.86 Z" />
<path fill="#ffffff" opacity="1.00" d=" M 288.64 123.78 C 289.23 123.58 290.42 123.18 291.02 122.98 C 291.97 124.99 292.75 127.07 293.33 129.23 C 293.72 128.00 294.05 126.76 294.33 125.51 C 294.69 126.14 295.43 127.40 295.79 128.03 C 294.32 128.82 293.47 130.23 292.66 131.64 C 293.56 132.77 294.46 133.91 295.28 135.11 C 294.47 134.66 292.85 133.77 292.04 133.33 L 292.87 136.32 C 291.51 135.13 290.23 133.86 288.96 132.58 L 291.37 132.39 C 290.11 131.28 288.88 130.15 287.64 129.03 C 288.19 131.72 287.25 134.33 287.25 137.00 C 286.28 137.96 285.27 138.87 284.23 139.75 C 283.59 139.08 282.97 138.39 282.39 137.68 C 282.93 136.64 283.90 135.93 284.77 135.17 C 284.33 134.46 283.45 133.04 283.00 132.33 L 285.78 132.55 C 285.68 131.66 285.48 129.86 285.38 128.96 L 284.01 129.75 L 283.99 128.61 C 284.47 128.72 285.43 128.95 285.91 129.07 C 284.91 127.40 283.37 125.31 286.23 124.85 C 286.38 125.93 286.69 128.07 286.84 129.14 C 288.20 128.91 289.54 128.62 290.90 128.33 C 289.36 127.22 288.69 125.62 288.64 123.78 Z" />
<path fill="#ffffff" opacity="1.00" d=" M 309.49 123.18 C 310.58 123.34 311.67 123.49 312.77 123.64 C 313.24 124.75 313.73 125.85 314.24 126.95 C 313.81 127.53 312.95 128.68 312.52 129.26 C 311.87 128.54 311.22 127.82 310.58 127.10 L 309.27 128.06 C 308.33 126.80 307.66 125.41 307.26 123.90 C 308.15 124.70 309.92 126.31 310.80 127.11 C 310.47 126.13 309.82 124.16 309.49 123.18 Z" />
<path fill="#ffffff" opacity="1.00" d=" M 189.86 124.33 C 190.27 124.63 191.10 125.22 191.51 125.52 C 190.65 128.45 188.44 130.62 186.45 132.83 L 186.71 133.52 C 184.32 133.04 182.92 135.23 181.06 136.26 C 181.90 133.71 183.84 131.85 185.57 129.89 C 188.58 130.36 189.69 126.70 189.86 124.33 Z" />
<path fill="#ffffff" opacity="1.00" d=" M 280.49 127.36 C 281.13 126.64 281.75 125.90 282.37 125.17 C 282.45 126.92 282.75 128.65 283.07 130.38 C 282.40 130.37 281.05 130.34 280.38 130.33 C 280.73 129.36 280.76 128.37 280.49 127.36 Z" />
<path fill="#ffffff" opacity="1.00" d=" M 213.80 135.57 C 214.66 132.29 216.30 129.21 219.25 127.35 C 218.95 130.74 216.72 133.87 213.80 135.57 Z" />
<path fill="#ffffff" opacity="1.00" d=" M 306.38 128.17 C 309.04 128.99 309.69 131.95 311.18 133.97 C 313.33 137.10 316.12 139.73 318.21 142.92 C 317.49 143.13 316.05 143.55 315.33 143.75 C 316.62 141.90 313.57 137.35 311.44 138.99 L 308.98 136.90 C 310.64 141.60 316.44 145.25 314.82 150.79 C 312.59 150.52 311.96 147.26 310.71 145.64 C 311.29 145.72 312.47 145.86 313.05 145.93 C 310.92 142.80 308.80 139.66 307.02 136.32 C 307.30 136.22 307.84 136.04 308.12 135.95 C 307.44 135.55 305.89 131.16 308.56 134.02 L 309.32 133.32 C 308.77 134.72 309.27 135.62 310.81 136.03 C 310.96 134.83 310.47 133.92 309.32 133.32 C 307.95 131.86 307.21 129.96 306.38 128.17 Z" />
<path fill="#ffffff" opacity="1.00" d=" M 210.08 129.36 C 211.53 129.50 210.72 131.80 209.61 131.91 C 207.95 131.84 208.83 129.38 210.08 129.36 Z" />
<path fill="#ffffff" opacity="1.00" d=" M 202.60 133.44 C 203.23 132.23 204.03 131.13 204.93 130.12 C 204.82 131.91 204.32 133.78 202.68 134.75 C 201.98 137.35 200.74 139.77 200.14 142.40 C 199.56 142.69 198.41 143.27 197.84 143.56 C 199.06 140.61 200.35 137.67 202.21 135.06 L 199.57 135.69 C 200.06 134.29 201.08 133.39 202.60 133.44 Z" />
<path fill="#ffffff" opacity="1.00" d=" M 227.00 137.48 C 230.16 135.89 230.48 131.68 233.79 130.18 C 232.94 131.83 232.09 133.47 231.29 135.14 C 231.41 136.17 231.53 137.20 231.64 138.23 C 230.36 139.22 229.10 140.24 227.84 141.24 C 228.23 140.25 229.01 138.25 229.39 137.25 L 227.51 138.47 C 225.05 144.03 222.91 149.88 218.69 154.42 C 220.16 150.61 221.28 146.64 223.43 143.14 L 221.40 143.59 C 222.77 141.61 224.82 139.81 224.48 137.17 C 225.85 135.35 227.44 133.72 229.07 132.13 C 228.39 133.92 227.60 135.67 227.00 137.48 Z" />
<path fill="#ffffff" opacity="1.00" d=" M 188.07 137.86 C 189.88 135.57 191.63 133.24 193.21 130.78 L 193.31 132.53 C 193.75 132.63 194.63 132.83 195.07 132.93 C 194.59 133.04 193.63 133.27 193.15 133.38 C 193.25 133.87 193.45 134.85 193.55 135.34 L 191.37 135.01 C 194.60 137.30 191.59 140.40 190.63 143.00 C 188.94 140.81 190.94 138.42 192.03 136.49 C 191.28 136.53 189.79 136.61 189.04 136.65 C 188.67 140.98 186.14 144.65 185.29 148.85 C 185.75 148.97 186.68 149.23 187.14 149.36 C 186.83 150.84 186.61 152.34 186.48 153.85 C 186.20 153.88 185.65 153.94 185.37 153.97 C 185.62 152.21 185.22 150.55 184.17 149.13 C 184.68 145.13 186.67 141.58 188.07 137.86 Z" />
<path fill="#ffffff" opacity="1.00" d=" M 250.92 131.39 C 251.81 131.40 252.71 131.42 253.61 131.45 C 253.64 133.73 254.15 136.32 251.98 137.86 C 251.85 136.92 251.60 135.04 251.47 134.10 L 250.73 133.94 C 250.82 136.73 250.89 139.53 251.26 142.30 C 251.92 141.71 252.56 141.12 253.21 140.52 C 254.14 142.64 255.17 144.74 256.44 146.69 C 256.10 148.01 257.39 150.64 255.35 150.84 C 253.24 148.33 253.29 144.76 252.73 141.68 C 252.12 142.08 250.88 142.87 250.27 143.26 C 249.53 141.24 248.92 139.17 248.46 137.07 C 246.04 135.73 246.16 132.56 248.04 130.78 C 248.41 132.89 247.82 135.60 250.03 136.99 C 249.90 135.60 249.72 134.22 249.43 132.86 C 249.80 132.49 250.55 131.76 250.92 131.39 Z" />
<path fill="#ffffff" opacity="1.00" d=" M 256.53 130.52 C 258.64 132.70 259.04 135.77 259.09 138.68 C 258.01 137.23 257.66 134.54 255.09 135.55 C 255.58 133.88 256.02 132.19 256.53 130.52 Z" />
<path fill="#ffffff" opacity="1.00" d=" M 235.25 140.93 C 235.86 137.67 237.15 134.53 238.75 131.63 C 238.33 134.75 237.65 137.92 236.27 140.77 C 236.02 140.81 235.51 140.89 235.25 140.93 Z" />
<path fill="#ffffff" opacity="1.00" d=" M 261.24 144.88 C 260.73 140.61 259.54 136.07 261.10 131.89 C 261.39 134.46 263.74 137.75 261.30 139.89 C 261.87 141.77 262.49 143.63 263.09 145.50 C 262.63 145.34 261.70 145.04 261.24 144.88 Z" />
<path fill="#ffffff" opacity="1.00" d=" M 240.25 137.07 C 241.38 135.38 242.68 133.81 244.45 132.76 C 243.10 135.92 242.45 139.29 241.96 142.68 C 240.32 141.23 240.26 139.07 240.25 137.07 Z" />
<path fill="#ffffff" opacity="1.00" d=" M 267.91 144.33 C 271.49 140.80 266.11 136.31 268.32 132.31 C 269.80 136.11 270.52 140.30 272.96 143.66 L 274.10 141.76 C 274.23 143.22 274.31 144.69 274.34 146.17 C 274.73 145.58 275.49 144.42 275.87 143.83 C 277.40 146.87 277.92 150.18 277.45 153.55 C 278.34 154.88 280.39 156.53 279.31 158.24 C 278.88 159.95 277.02 159.18 276.26 158.27 C 277.22 156.05 276.60 153.81 275.69 151.74 C 275.61 150.75 275.51 149.76 275.40 148.78 C 275.35 149.51 275.24 150.97 275.19 151.70 C 273.70 151.46 272.46 150.87 272.04 149.36 C 271.72 149.72 271.08 150.43 270.76 150.79 C 270.29 150.71 269.37 150.55 268.91 150.46 C 268.44 152.41 268.02 154.37 267.40 156.27 C 267.01 154.46 267.36 152.63 267.69 150.84 C 268.36 149.57 268.95 148.27 269.55 146.98 C 269.86 147.48 270.48 148.49 270.79 149.00 C 270.75 147.32 270.72 145.64 270.72 143.96 C 271.25 144.62 272.31 145.95 272.84 146.62 C 272.83 145.86 272.80 144.33 272.79 143.57 C 271.11 143.48 269.48 143.73 267.91 144.33 Z" />
<path fill="#ffffff" opacity="1.00" d=" M 192.68 142.01 C 193.76 138.46 196.17 135.56 198.73 132.97 C 197.76 135.07 198.20 139.51 195.00 139.55 C 195.00 139.92 195.00 140.65 195.00 141.01 L 196.70 140.09 C 195.28 143.44 195.79 147.77 193.28 150.56 C 193.66 147.50 194.04 144.43 194.70 141.41 L 192.68 142.01 Z" />
<path fill="#ffffff" opacity="1.00" d=" M 205.56 137.12 C 204.02 134.39 207.11 134.45 208.63 134.17 L 207.96 136.80 C 208.66 136.16 210.05 134.88 210.75 134.24 C 208.57 138.38 206.63 142.63 204.91 146.99 C 204.21 149.99 204.05 153.11 203.24 156.10 C 200.69 152.47 205.34 148.18 204.12 144.35 L 204.74 144.99 C 205.82 142.02 207.44 139.24 208.10 136.13 C 206.20 138.06 205.41 140.72 204.26 143.10 L 203.77 141.81 C 203.29 140.49 203.42 139.22 204.17 137.99 C 204.20 137.61 204.26 136.86 204.29 136.48 L 205.56 137.12 Z" />
<path fill="#ffffff" opacity="1.00" d=" M 181.52 138.36 C 182.86 137.24 184.22 136.15 185.61 135.08 C 184.12 138.07 184.02 142.37 180.21 143.40 C 180.67 141.72 181.10 140.04 181.52 138.36 Z" />
<path fill="#ffffff" opacity="1.00" d=" M 210.15 142.86 C 212.49 140.58 214.03 137.36 217.04 135.87 C 215.62 139.32 213.72 142.70 211.20 145.47 C 210.94 144.82 210.41 143.51 210.15 142.86 Z" />
<path fill="#ffffff" opacity="1.00" d=" M 254.90 136.00 C 255.56 136.67 255.56 136.67 254.90 136.00 Z" />
<path fill="#ffffff" opacity="1.00" d=" M 226.36 148.28 C 229.53 144.66 232.75 141.03 235.01 136.70 C 233.53 141.67 230.80 146.13 228.47 150.72 C 228.17 150.24 227.57 149.26 227.27 148.78 C 228.15 152.39 226.48 156.64 223.86 159.15 C 223.06 159.86 222.27 160.58 221.48 161.29 C 222.47 158.20 223.61 155.15 224.64 152.06 C 222.73 154.10 221.22 156.54 218.98 158.26 C 220.01 155.09 222.61 152.67 223.23 149.35 C 224.70 147.11 225.99 144.68 228.05 142.90 C 227.67 144.74 226.93 146.49 226.36 148.28 Z" />
<path fill="#ffffff" opacity="1.00" d=" M 246.67 142.24 C 246.08 140.74 244.37 137.78 246.78 137.11 C 247.49 139.53 247.90 142.03 248.22 144.53 L 246.26 144.65 C 246.36 144.05 246.57 142.85 246.67 142.24 Z" />
<path fill="#ffffff" opacity="1.00" d=" M 291.09 137.25 C 294.53 137.69 297.12 140.40 299.53 142.65 C 298.69 143.30 297.86 143.96 297.05 144.63 C 296.32 143.50 295.56 142.39 294.78 141.30 C 293.17 140.34 291.96 138.89 291.09 137.25 Z" />
<path fill="#ffffff" opacity="1.00" d=" M 201.99 141.20 C 200.06 139.54 204.27 138.44 202.74 140.88 L 201.99 141.20 Z" />
<path fill="#ffffff" opacity="1.00" d=" M 216.17 145.80 C 217.36 143.14 218.95 140.66 221.18 138.74 C 220.22 141.46 218.89 144.02 217.71 146.65 C 217.88 149.26 217.12 151.82 216.01 154.15 C 215.16 152.59 213.89 151.04 214.47 149.11 C 213.87 149.26 212.66 149.55 212.06 149.69 C 212.56 149.18 213.55 148.15 214.05 147.64 L 212.11 147.21 C 213.70 144.55 214.86 141.49 217.05 139.28 L 218.09 139.49 C 217.36 141.57 216.68 143.66 216.17 145.80 Z" />
<path fill="#ffffff" opacity="1.00" d=" M 302.25 139.48 C 305.87 139.06 308.34 142.98 311.04 144.94 L 310.71 145.64 L 310.12 146.83 C 309.58 146.38 308.49 145.49 307.94 145.04 C 309.04 146.77 311.06 148.21 310.58 150.52 L 311.28 150.47 C 311.91 152.00 312.62 153.51 313.20 155.08 C 312.30 154.43 311.42 153.77 310.57 153.09 L 310.14 152.32 C 309.49 151.19 308.87 150.05 308.26 148.90 C 307.10 147.51 305.96 146.10 304.71 144.79 C 307.67 142.49 303.29 141.48 302.25 139.48 Z" />
<path fill="#ffffff" opacity="1.00" d=" M 280.33 140.25 C 280.97 141.00 281.60 141.76 282.24 142.51 C 282.46 143.99 282.69 145.47 282.91 146.96 C 283.28 147.10 284.02 147.40 284.39 147.55 C 284.20 151.08 284.00 154.61 284.45 158.13 C 283.20 157.03 283.36 155.33 283.15 153.84 C 282.58 154.13 281.43 154.69 280.86 154.98 C 280.80 151.61 280.15 148.31 279.82 144.97 C 280.30 143.44 280.29 141.84 280.33 140.25 Z" />
<path fill="#ffffff" opacity="1.00" d=" M 201.08 141.29 L 201.99 141.20 C 203.73 143.01 199.76 143.35 201.08 141.29 Z" />
<path fill="#ffffff" opacity="1.00" d=" M 237.12 151.19 C 237.26 147.05 237.24 142.57 239.48 138.93 C 239.53 142.77 239.34 146.61 239.46 150.45 C 238.88 150.63 237.71 151.01 237.12 151.19 Z" />
<path fill="#ffffff" opacity="1.00" d=" M 285.26 141.23 C 285.94 141.74 285.94 141.74 285.26 141.23 Z" />
<path fill="#ffffff" opacity="1.00" d=" M 290.01 141.47 C 290.74 141.47 292.22 141.47 292.96 141.48 L 292.45 142.13 C 293.57 142.88 294.62 143.72 295.66 144.59 C 296.78 145.21 298.07 144.66 299.24 144.53 C 298.80 147.34 300.56 149.83 300.78 152.59 C 301.22 152.65 302.11 152.78 302.55 152.84 C 302.11 154.61 301.63 156.37 300.97 158.06 C 299.79 156.59 298.56 155.18 297.23 153.86 C 297.25 151.95 297.29 150.04 297.15 148.14 C 296.92 148.14 296.44 148.14 296.21 148.14 C 295.99 149.51 295.85 150.88 295.78 152.26 C 294.44 149.81 293.02 147.36 292.34 144.62 C 289.88 145.44 290.24 143.07 290.01 141.47 Z" />
<path fill="#ffffff" opacity="1.00" d=" M 203.31 141.71 L 203.77 141.81 C 203.86 142.45 204.03 143.71 204.12 144.35 C 203.71 144.62 202.90 145.17 202.50 145.45 C 202.01 144.27 202.50 142.65 203.31 141.71 Z" />
<path fill="#ffffff" opacity="1.00" d=" M 233.73 143.26 C 234.02 143.18 234.60 143.02 234.89 142.95 C 236.43 144.50 236.49 147.14 235.72 149.10 C 234.78 149.22 234.00 148.88 233.38 148.09 C 233.77 147.39 234.56 146.00 234.95 145.30 C 234.27 145.87 233.61 146.45 232.94 147.03 C 233.16 148.23 233.37 149.44 233.59 150.65 C 233.95 150.73 234.68 150.87 235.05 150.94 C 236.56 152.30 234.80 155.18 235.13 157.01 C 234.44 156.01 233.76 155.00 233.10 153.99 C 233.27 154.83 233.61 156.50 233.79 157.33 C 231.46 157.55 232.17 160.29 231.52 161.80 C 231.14 161.34 230.37 160.43 229.99 159.97 C 229.88 161.34 229.53 162.71 228.91 163.95 C 228.27 162.87 227.64 161.79 227.02 160.70 L 226.51 163.61 C 226.26 163.60 225.74 163.56 225.49 163.55 C 226.33 160.40 227.10 157.22 228.43 154.24 L 229.52 154.96 C 229.79 150.78 231.39 146.71 233.73 143.26 M 228.19 160.69 C 229.43 160.75 230.62 158.80 230.07 157.65 C 228.46 156.95 227.23 159.51 228.19 160.69 Z" />
<path fill="#ffffff" opacity="1.00" d=" M 286.15 142.46 L 288.32 142.34 C 288.70 143.89 289.08 145.43 289.46 146.98 C 292.40 146.78 291.50 150.00 292.23 151.77 C 292.58 151.93 293.29 152.25 293.64 152.41 L 294.15 153.61 C 294.53 153.49 295.28 153.26 295.66 153.14 C 295.60 154.31 295.55 155.48 295.51 156.65 C 295.02 156.93 294.06 157.47 293.57 157.75 C 293.01 160.38 294.29 162.78 295.08 165.21 C 292.91 163.85 291.11 161.96 290.42 159.44 C 290.44 157.64 290.73 155.86 290.84 154.07 C 290.25 153.30 289.65 152.55 289.05 151.80 C 288.99 151.26 288.87 150.16 288.81 149.61 C 286.86 147.76 286.97 144.85 286.15 142.46 Z" />
<path fill="#ffffff" opacity="1.00" d=" M 180.20 148.61 C 179.96 146.20 182.40 145.20 183.80 143.71 C 183.09 146.76 182.75 149.88 182.40 152.98 C 181.27 151.52 180.10 150.08 178.94 148.65 L 180.20 148.61 Z" />
<path fill="#ffffff" opacity="1.00" d=" M 188.46 149.35 C 188.97 147.29 189.45 145.16 191.03 143.63 C 191.36 146.07 190.70 148.50 190.80 150.95 C 190.75 152.45 191.04 154.24 189.61 155.24 C 189.36 153.23 190.51 150.70 188.46 149.35 Z" />
<path fill="#ffffff" opacity="1.00" d=" M 199.75 143.86 C 200.22 143.73 201.15 143.48 201.62 143.35 C 200.36 145.42 199.49 147.68 198.75 149.98 C 198.88 152.29 199.00 154.95 196.91 156.51 C 196.51 152.03 199.39 148.23 199.75 143.86 Z" />
<path fill="#ffffff" opacity="1.00" d=" M 244.24 153.65 C 244.13 150.32 244.23 146.98 244.62 143.66 C 247.50 146.37 247.15 150.79 247.82 154.40 C 246.63 154.14 245.43 153.88 244.24 153.65 Z" />
<path fill="#ffffff" opacity="1.00" d=" M 250.19 145.22 C 251.59 146.89 251.71 149.05 251.53 151.12 C 249.94 149.58 250.24 147.22 250.19 145.22 Z" />
<path fill="#ffffff" opacity="1.00" d=" M 302.24 146.48 C 303.59 146.26 304.55 147.90 305.25 148.86 C 304.69 151.40 301.50 147.99 302.24 146.48 Z" />
<path fill="#ffffff" opacity="1.00" d=" M 240.10 147.02 L 240.63 147.01 C 240.63 147.72 240.63 149.12 240.63 149.82 L 240.09 149.82 C 240.10 149.12 240.10 147.72 240.10 147.02 Z" />
<path fill="#ffffff" opacity="1.00" d=" M 278.80 153.34 C 278.01 151.97 277.07 147.48 278.89 147.27 C 278.85 149.25 279.94 151.53 278.80 153.34 Z" />
<path fill="#ffffff" opacity="1.00" d=" M 242.15 153.57 C 241.34 152.72 241.76 150.43 243.06 150.39 C 243.76 151.26 243.55 153.64 242.15 153.57 Z" />
<path fill="#ffffff" opacity="1.00" d=" M 286.37 149.85 C 288.80 154.63 288.25 160.45 291.00 165.22 C 285.20 162.57 285.78 155.10 286.37 149.85 Z" />
<path fill="#ffffff" opacity="1.00" d=" M 305.45 151.32 C 305.92 150.71 306.41 150.11 306.92 149.53 C 307.79 150.94 308.66 152.35 309.55 153.76 L 310.14 152.32 C 310.07 153.22 309.95 155.02 309.89 155.93 C 308.69 154.57 307.54 153.17 306.32 151.85 C 307.32 153.84 308.49 155.79 309.04 157.98 C 308.12 156.98 306.28 154.99 305.36 154.00 L 307.19 159.06 C 306.21 158.15 305.31 157.21 304.44 156.21 C 304.45 156.97 304.45 158.50 304.46 159.26 C 303.39 159.15 302.35 159.02 301.32 158.74 C 302.14 157.41 302.99 156.10 303.86 154.80 C 303.89 153.05 303.91 151.19 305.15 149.80 L 305.45 151.32 Z" />
<path fill="#ffffff" opacity="1.00" d=" M 209.94 150.82 C 210.11 151.04 210.43 151.48 210.59 151.71 C 209.21 153.11 209.27 156.68 207.09 156.88 C 205.94 154.42 208.60 152.49 209.94 150.82 Z" />
<path fill="#ffffff" opacity="1.00" d=" M 269.36 153.40 C 270.88 152.09 273.02 151.40 273.66 154.01 L 274.65 153.01 C 275.10 155.08 275.62 157.15 275.71 159.28 C 276.84 159.84 277.95 160.46 278.60 161.59 C 279.00 160.57 279.47 159.59 280.00 158.63 C 280.40 160.55 280.02 162.26 278.85 163.77 C 279.12 164.92 279.37 166.08 279.61 167.24 C 275.73 165.65 278.89 160.03 274.57 158.87 L 274.69 161.84 C 274.37 161.84 273.72 161.86 273.39 161.87 C 273.40 160.69 273.41 159.53 273.39 158.36 C 272.05 158.47 270.72 158.50 269.39 158.47 C 269.35 159.15 269.28 160.51 269.25 161.20 C 267.79 158.86 269.13 155.91 269.36 153.40 Z" />
<path fill="#ffffff" opacity="1.00" d=" M 255.67 157.76 C 256.01 156.09 256.36 154.43 256.70 152.77 C 257.18 154.19 257.63 155.61 258.09 157.04 C 256.99 158.70 256.57 163.66 253.84 162.07 C 253.15 159.98 253.53 157.78 253.65 155.64 C 254.32 156.34 255.00 157.05 255.67 157.76 Z" />
<path fill="#ffffff" opacity="1.00" d=" M 258.33 162.20 C 259.23 159.39 259.37 156.13 261.38 153.83 C 261.27 157.25 260.79 160.64 260.91 164.07 C 260.05 163.44 259.19 162.81 258.33 162.20 Z" />
<path fill="#ffffff" opacity="1.00" d=" M 279.33 155.37 C 280.15 155.34 280.97 155.36 281.79 155.41 C 282.00 157.54 283.92 159.99 281.82 161.87 C 280.98 159.70 280.30 157.48 279.33 155.37 Z" />
<path fill="#ffffff" opacity="1.00" d=" M 249.42 156.22 C 249.87 156.43 250.76 156.85 251.21 157.06 C 251.39 159.55 249.90 161.33 248.29 162.99 C 248.74 163.36 249.63 164.09 250.08 164.46 C 249.67 165.39 249.25 166.32 248.84 167.25 C 249.08 168.11 249.55 169.83 249.79 170.69 C 249.29 170.67 248.29 170.63 247.78 170.61 L 248.20 171.74 C 248.72 171.65 249.77 171.46 250.30 171.36 C 249.65 173.21 248.96 175.04 248.24 176.86 C 246.87 177.67 245.60 178.65 244.40 179.70 C 244.91 178.19 246.53 176.43 244.54 175.28 C 245.17 173.60 245.82 171.91 247.08 170.59 C 248.38 165.88 247.84 160.88 249.42 156.22 Z" />
<path fill="#ffffff" opacity="1.00" d=" M 262.98 156.77 C 263.44 156.59 264.35 156.23 264.81 156.05 C 264.84 158.19 264.81 160.33 264.73 162.48 C 264.34 162.37 263.56 162.16 263.17 162.06 C 263.12 160.29 263.07 158.53 262.98 156.77 Z" />
<path fill="#ffffff" opacity="1.00" d=" M 203.00 165.32 C 203.96 162.78 204.55 160.14 205.36 157.56 C 205.83 157.95 206.75 158.72 207.21 159.11 C 206.29 164.43 207.73 169.69 209.61 174.62 C 209.19 174.49 208.37 174.21 207.95 174.07 C 207.79 170.54 206.10 167.39 205.79 163.92 C 205.09 164.27 203.70 164.97 203.00 165.32 Z" />
<path fill="#ffffff" opacity="1.00" d=" M 239.62 163.74 C 240.85 161.74 242.09 159.73 243.76 158.07 C 242.19 162.35 239.59 166.49 235.97 169.31 C 236.14 166.95 237.80 165.13 238.71 163.04 L 239.62 163.74 Z" />
<path fill="#ffffff" opacity="1.00" d=" M 245.86 159.01 C 246.33 162.20 247.03 165.42 246.73 168.66 C 246.31 168.94 245.47 169.49 245.04 169.76 C 244.85 168.16 244.65 166.55 244.44 164.96 C 243.34 167.63 242.16 170.27 240.81 172.82 C 240.30 172.97 239.30 173.28 238.80 173.44 C 238.06 170.37 241.39 168.95 242.67 166.64 C 244.01 164.22 244.91 161.59 245.86 159.01 Z" />
<path fill="#ffffff" opacity="1.00" d=" M 202.56 160.47 C 204.29 160.76 203.83 163.96 202.41 164.43 C 201.07 163.71 201.46 161.25 202.56 160.47 Z" />
<path fill="#ffffff" opacity="1.00" d=" M 296.25 160.66 C 298.84 159.95 300.65 161.20 301.67 163.55 C 301.14 163.79 300.10 164.28 299.57 164.52 C 300.13 167.37 301.10 170.13 302.38 172.74 C 301.85 174.37 301.32 176.00 300.64 177.57 C 299.35 178.62 297.90 179.47 296.42 180.23 L 296.54 178.74 C 293.86 177.40 291.45 175.62 289.03 173.88 C 288.87 173.60 288.56 173.05 288.41 172.77 C 289.00 172.57 290.19 172.18 290.79 171.99 C 291.54 172.10 293.05 172.32 293.81 172.43 L 293.57 173.89 C 294.21 173.74 295.50 173.44 296.15 173.29 C 295.68 173.50 294.76 173.92 294.29 174.14 C 295.62 175.59 296.89 177.17 298.99 177.54 C 298.57 176.67 297.72 174.94 297.29 174.08 C 298.29 174.63 299.28 175.18 300.28 175.74 C 300.53 174.43 300.79 173.11 301.05 171.80 C 299.58 168.00 296.35 164.94 296.25 160.66 Z" />
<path fill="#ffffff" opacity="1.00" d=" M 252.14 162.84 L 252.95 162.78 L 253.73 163.07 C 253.53 164.07 253.13 166.07 252.93 167.07 C 252.44 167.29 251.45 167.74 250.95 167.96 C 251.31 166.32 250.65 163.90 252.14 162.84 Z" />
<path fill="#ffffff" opacity="1.00" d=" M 266.65 163.67 L 268.26 163.88 C 268.26 164.57 268.26 165.93 268.27 166.62 C 268.59 165.87 269.25 164.36 269.58 163.61 C 270.86 165.27 270.85 167.45 271.40 169.40 C 268.91 170.25 270.15 173.75 269.25 175.62 C 269.63 175.63 270.37 175.67 270.74 175.69 C 271.34 174.55 272.01 173.46 272.69 172.37 C 272.90 172.43 273.33 172.56 273.54 172.62 C 272.96 173.45 272.38 174.27 271.81 175.10 C 270.76 177.15 271.32 179.15 272.80 180.79 L 271.26 179.85 L 271.87 182.00 L 269.94 180.13 C 271.26 182.07 270.10 185.54 267.35 184.44 C 267.49 183.65 267.77 182.09 267.92 181.31 C 267.67 181.99 267.18 183.36 266.93 184.04 C 266.47 182.14 264.51 181.83 262.94 181.50 C 262.61 179.72 262.46 177.92 262.18 176.14 C 263.31 173.79 264.22 171.34 264.95 168.84 C 267.35 170.25 266.94 174.44 264.90 175.90 C 264.79 176.74 264.56 178.42 264.45 179.26 C 265.01 179.04 266.14 178.60 266.71 178.38 L 265.07 179.96 C 265.72 180.41 266.37 180.86 267.03 181.30 C 270.44 178.32 267.85 174.09 267.03 170.57 C 266.02 168.37 266.51 165.97 266.65 163.67 Z" />
<path fill="#ffffff" opacity="1.00" d=" M 282.04 165.30 C 285.45 165.60 285.93 169.17 286.08 171.97 C 284.49 172.99 281.51 172.87 282.37 175.57 L 281.21 175.44 C 281.28 176.83 281.37 178.21 281.50 179.60 C 280.64 180.04 279.79 180.49 278.95 180.95 C 280.62 181.66 282.36 182.37 283.73 183.62 C 285.59 183.63 287.46 183.66 289.31 183.85 C 286.76 185.27 283.71 184.33 280.98 184.09 C 280.07 183.02 279.31 181.84 278.46 180.74 C 278.93 179.36 279.67 177.94 279.28 176.43 C 279.38 175.59 279.58 173.91 279.68 173.07 L 280.47 173.80 C 280.24 172.99 280.02 172.17 279.81 171.36 C 280.28 171.49 281.23 171.76 281.71 171.89 C 282.90 171.52 284.09 171.17 285.30 170.83 C 284.65 168.74 283.10 167.16 282.04 165.30 Z" />
<path fill="#ffffff" opacity="1.00" d=" M 260.78 167.26 C 261.18 167.30 261.97 167.36 262.37 167.39 C 263.07 170.11 262.55 173.56 259.83 174.96 C 258.75 175.67 257.67 176.38 256.60 177.08 C 256.42 173.24 259.64 170.67 260.78 167.26 Z" />
<path fill="#ffffff" opacity="1.00" d=" M 225.86 167.76 C 226.28 168.75 226.46 169.80 226.63 170.85 L 227.64 171.26 C 227.10 172.23 226.56 173.20 226.03 174.17 C 227.64 172.93 229.11 171.40 231.08 170.71 C 230.30 171.92 229.42 173.06 228.54 174.21 L 228.28 174.55 L 228.62 174.91 C 226.15 175.91 224.76 178.34 222.71 179.91 C 221.24 178.04 226.93 174.99 222.96 175.22 C 223.91 173.72 224.88 172.24 225.87 170.78 L 223.74 170.84 C 224.43 169.80 225.13 168.77 225.86 167.76 Z" />
<path fill="#ffffff" opacity="1.00" d=" M 256.95 167.64 C 257.42 168.42 257.87 169.29 257.37 170.20 C 256.56 172.91 255.52 175.55 254.31 178.10 C 253.91 174.39 255.34 170.89 256.95 167.64 Z" />
<path fill="#ffffff" opacity="1.00" d=" M 215.03 183.66 C 212.12 179.98 212.38 175.10 212.55 170.68 C 213.21 173.74 213.69 176.83 214.24 179.91 C 215.83 177.72 213.90 174.46 216.23 172.72 L 216.12 175.15 L 217.35 175.72 C 217.34 174.90 217.32 173.25 217.31 172.43 C 218.60 174.54 218.30 177.05 217.98 179.38 C 216.86 179.49 215.74 179.61 214.62 179.73 C 214.72 180.72 214.93 182.68 215.03 183.66 Z" />
<path fill="#ffffff" opacity="1.00" d=" M 239.31 176.37 C 241.37 174.87 242.48 172.53 244.14 170.65 C 242.95 174.59 241.21 178.37 239.32 182.02 L 239.97 177.05 C 239.31 177.84 238.00 179.41 237.34 180.20 C 235.33 183.07 233.26 185.91 231.71 189.06 C 231.79 188.31 231.95 186.82 232.03 186.07 C 235.17 183.42 236.15 179.04 239.31 176.37 Z" />
<path fill="#ffffff" opacity="1.00" d=" M 228.54 174.21 C 229.04 174.30 230.05 174.47 230.56 174.56 C 229.71 175.78 228.84 176.98 228.05 178.24 L 230.63 176.01 C 230.99 176.64 231.69 177.91 232.05 178.54 C 228.66 177.35 229.93 180.93 229.25 182.51 C 231.56 181.69 232.35 179.01 234.20 177.60 C 233.70 178.88 232.70 181.44 232.19 182.72 C 231.88 182.60 231.25 182.36 230.93 182.25 C 231.21 183.20 231.75 185.11 232.03 186.07 C 230.51 187.05 229.03 188.10 227.55 189.15 C 228.18 189.22 229.44 189.37 230.08 189.45 C 229.47 190.43 228.27 192.40 227.66 193.39 C 228.75 193.94 229.67 193.77 230.33 192.19 C 229.93 195.00 228.16 197.32 227.33 199.98 C 229.15 198.69 229.97 196.56 230.94 194.64 C 232.62 190.53 234.85 186.67 237.24 182.93 C 238.69 184.14 239.95 183.07 241.17 182.16 C 240.92 183.60 240.64 185.04 240.43 186.50 C 239.62 187.97 237.96 191.77 236.94 188.07 C 233.82 189.83 232.60 193.36 231.40 196.52 C 230.40 198.70 229.02 200.67 227.82 202.75 C 227.26 201.97 226.70 201.19 226.13 200.43 L 224.90 202.34 C 224.77 199.73 226.69 197.73 227.50 195.38 C 226.16 196.34 225.07 197.58 223.76 198.57 C 224.45 196.74 225.44 195.05 226.43 193.38 C 225.81 193.45 224.58 193.61 223.97 193.68 C 224.79 192.27 225.62 190.85 226.46 189.45 C 225.77 189.72 224.39 190.26 223.70 190.52 C 225.48 188.20 226.79 185.25 229.50 183.85 C 228.56 183.12 227.62 182.39 226.68 181.68 C 225.20 183.96 223.87 186.43 221.74 188.19 C 223.24 184.89 225.79 182.24 227.93 179.36 C 227.56 179.23 226.80 178.97 226.42 178.83 L 226.24 177.94 C 226.84 177.18 228.02 175.67 228.62 174.91 L 228.91 174.50 L 228.54 174.21 M 230.27 184.67 C 230.77 184.99 230.77 184.99 230.27 184.67 M 228.71 186.17 L 228.61 187.08 C 230.41 188.83 230.54 184.15 228.71 186.17 Z" />
<path fill="#ffffff" opacity="1.00" d=" M 220.22 178.67 C 219.82 177.51 219.71 175.04 221.15 174.68 C 221.65 175.84 221.52 178.19 220.22 178.67 Z" />
<path fill="#ffffff" opacity="1.00" d=" M 259.81 177.11 C 259.44 180.82 257.69 184.25 257.60 187.99 C 257.60 189.68 256.17 192.38 254.36 190.64 C 255.60 188.42 257.07 186.32 257.95 183.92 C 257.41 183.41 256.34 182.40 255.81 181.89 C 256.48 180.93 257.25 180.03 258.02 179.15 C 258.47 178.64 259.37 177.62 259.81 177.11 Z" />
<path fill="#ffffff" opacity="1.00" d=" M 271.07 185.98 C 273.31 183.13 274.35 179.52 276.68 176.76 C 276.23 178.69 275.38 180.49 274.48 182.25 C 274.90 182.70 275.73 183.61 276.15 184.07 C 276.75 185.44 276.35 186.66 274.93 187.73 C 275.74 187.51 277.36 187.06 278.17 186.83 C 276.80 188.75 274.48 188.99 273.33 186.75 C 272.57 186.50 271.82 186.24 271.07 185.98 Z" />
<path fill="#ffffff" opacity="1.00" d=" M 226.02 179.26 C 226.12 179.15 226.32 178.94 226.42 178.83 C 226.32 178.94 226.12 179.15 226.02 179.26 Z" />
<path fill="#ffffff" opacity="1.00" d=" M 292.20 178.35 C 293.27 179.29 294.42 180.14 295.57 180.99 C 291.63 183.05 290.53 187.80 288.65 191.50 L 288.23 191.36 C 287.14 190.68 286.69 192.06 286.20 192.75 C 284.78 191.46 283.22 187.77 281.05 190.07 C 280.57 189.14 280.11 188.20 279.68 187.26 L 281.17 188.68 C 281.53 188.15 281.89 187.62 282.26 187.09 C 282.86 187.67 284.05 188.82 284.65 189.39 C 285.46 189.02 286.27 188.65 287.08 188.26 C 287.34 188.50 287.86 188.97 288.12 189.21 C 290.18 188.11 289.91 185.22 291.30 183.50 C 291.06 183.08 290.59 182.22 290.36 181.80 C 290.42 181.15 290.55 179.85 290.61 179.20 C 291.16 179.63 292.26 180.48 292.80 180.91 L 292.20 178.35 Z" />
<path fill="#ffffff" opacity="1.00" d=" M 226.02 179.26 C 225.57 179.62 225.57 179.62 226.02 179.26 Z" />
<path fill="#ffffff" opacity="1.00" d=" M 251.22 187.45 C 252.44 184.84 253.56 182.19 254.82 179.60 C 254.62 180.76 254.41 181.90 254.17 183.05 C 254.45 184.57 254.66 186.10 254.83 187.65 C 253.62 187.59 252.42 187.52 251.22 187.45 Z" />
<path fill="#ffffff" opacity="1.00" d=" M 209.11 183.33 L 209.74 183.20 C 210.26 184.62 210.78 186.06 211.68 187.30 C 212.78 189.36 213.49 191.76 215.52 193.13 C 214.25 189.41 212.11 185.96 211.62 181.99 C 213.60 184.45 214.44 187.55 215.93 190.29 C 216.12 191.82 216.30 193.34 216.42 194.87 L 217.17 194.58 C 218.36 196.77 219.74 198.87 220.61 201.23 C 218.39 199.85 216.27 197.92 215.79 195.22 C 215.40 195.94 215.01 196.67 214.62 197.40 C 212.12 197.43 210.01 196.15 209.27 193.71 L 211.00 193.99 L 211.00 194.82 L 214.42 193.83 L 212.20 196.20 C 213.31 195.31 214.63 194.77 215.74 193.89 C 213.69 193.22 210.48 194.25 210.31 191.04 C 211.64 188.40 209.76 185.88 209.11 183.33 Z" />
<path fill="#ffffff" opacity="1.00" d=" M 218.89 183.69 C 220.35 183.12 221.14 185.70 220.51 186.73 C 219.04 187.22 218.08 184.74 218.89 183.69 Z" />
<path fill="#ffffff" opacity="1.00" d=" M 215.35 184.67 C 215.93 184.63 217.09 184.53 217.67 184.48 C 217.98 187.79 218.96 190.97 219.66 194.20 C 216.68 191.94 216.48 187.95 215.35 184.67 Z" />
<path fill="#ffffff" opacity="1.00" d=" M 231.17 189.21 C 231.77 189.79 231.77 189.79 231.17 189.21 Z" />
<path fill="#ffffff" opacity="1.00" d=" M 234.93 195.04 C 235.64 193.96 236.36 192.89 237.11 191.84 C 237.87 192.48 238.65 193.11 239.44 193.72 C 238.55 195.27 237.77 196.88 237.13 198.55 L 236.21 198.41 C 236.34 198.95 236.59 200.02 236.72 200.56 L 235.49 200.27 C 235.53 202.62 234.70 204.81 233.90 206.98 C 233.24 206.02 232.84 204.86 231.99 204.05 L 231.60 204.14 L 231.55 204.59 C 231.74 205.67 231.53 206.70 230.94 207.69 C 232.94 206.41 233.55 208.39 232.07 209.74 C 230.80 209.49 229.51 209.38 228.22 209.42 C 229.15 207.99 230.06 206.54 231.00 205.12 L 228.76 205.55 C 230.17 203.53 231.65 201.56 233.19 199.64 L 234.53 202.10 C 234.43 199.10 235.57 196.24 237.97 194.36 C 237.21 194.53 235.69 194.87 234.93 195.04 Z" />
<path fill="#ffffff" opacity="1.00" d=" M 206.29 193.41 C 207.68 192.99 209.18 195.04 209.07 196.33 C 207.70 196.69 206.02 194.74 206.29 193.41 Z" />
<path fill="#ffffff" opacity="1.00" d=" M 209.27 193.71 C 209.23 192.87 209.23 192.87 209.27 193.71 Z" />
<path fill="#ffffff" opacity="1.00" d=" M 237.49 201.79 C 239.35 198.88 240.42 195.28 243.42 193.30 C 242.90 195.25 242.43 197.22 241.56 199.06 C 242.12 199.68 242.68 200.31 243.26 200.94 C 242.74 201.09 241.72 201.37 241.20 201.52 L 241.83 202.85 C 241.23 202.78 240.04 202.64 239.45 202.58 C 238.13 205.22 236.64 207.79 234.85 210.15 C 233.81 210.89 234.47 212.08 234.34 213.08 L 233.85 213.64 C 233.83 214.45 234.28 214.81 235.19 214.73 L 235.87 214.48 L 236.13 214.89 C 235.96 215.67 235.63 217.24 235.46 218.02 C 236.93 216.26 237.42 213.71 239.61 212.60 C 238.89 215.20 237.91 217.90 235.92 219.81 C 235.13 218.56 233.89 217.87 232.54 217.37 L 234.79 215.52 C 234.11 215.60 232.75 215.78 232.07 215.87 L 232.11 214.99 L 233.13 214.49 C 233.23 213.72 232.89 213.13 232.12 212.71 C 231.61 213.33 230.58 214.57 230.07 215.18 C 232.11 210.61 235.74 207.05 238.60 203.02 C 238.32 202.71 237.77 202.10 237.49 201.79 Z" />
<path fill="#ffffff" opacity="1.00" d=" M 248.77 193.28 C 249.51 193.94 250.25 194.59 251.00 195.23 C 250.52 195.34 249.55 195.54 249.06 195.64 C 249.55 196.76 250.05 197.90 250.53 199.03 C 248.69 199.35 247.85 201.02 248.37 202.76 C 249.38 205.78 247.85 208.70 247.09 211.58 C 246.13 207.99 247.20 204.25 247.59 200.66 C 247.07 200.51 246.04 200.21 245.52 200.06 C 246.35 198.89 247.29 197.79 248.37 196.84 C 248.51 195.65 248.64 194.47 248.77 193.28 Z" />
<path fill="#ffffff" opacity="1.00" d=" M 265.55 193.16 C 266.15 194.10 266.65 195.08 267.18 196.06 C 268.45 196.45 269.74 196.83 271.01 197.26 L 269.24 197.41 C 269.65 198.25 270.47 199.93 270.88 200.78 C 270.53 201.48 270.76 203.00 269.56 202.62 C 267.91 199.61 266.39 196.50 265.55 193.16 Z" />
<path fill="#ffffff" opacity="1.00" d=" M 253.72 199.56 C 254.31 197.95 254.89 196.34 255.70 194.83 C 256.01 197.31 256.10 199.88 257.32 202.13 C 256.54 203.42 255.91 204.84 254.73 205.82 C 253.89 207.10 253.15 208.59 251.55 209.02 C 251.88 210.77 251.69 212.37 250.97 213.81 C 250.00 212.26 250.35 210.23 249.67 208.55 C 250.39 208.09 251.13 207.63 251.86 207.18 C 249.37 206.32 251.30 203.93 251.39 202.28 C 253.64 201.52 254.68 203.34 255.16 205.23 C 254.91 203.62 254.57 202.04 254.14 200.48 C 254.69 200.34 255.80 200.07 256.36 199.93 C 255.70 199.83 254.38 199.65 253.72 199.56 Z" />
<path fill="#ffffff" opacity="1.00" d=" M 202.20 196.29 C 202.54 196.21 203.22 196.03 203.56 195.95 C 204.75 197.19 205.95 198.42 207.17 199.64 L 206.48 196.57 C 207.81 198.00 208.93 199.65 208.67 201.72 L 209.28 201.20 C 209.77 201.89 210.75 203.29 211.24 203.98 C 210.82 204.68 210.41 205.38 209.99 206.07 C 209.67 205.41 209.02 204.08 208.69 203.42 C 208.22 204.38 207.79 205.35 207.36 206.34 C 206.92 205.62 206.03 204.18 205.59 203.47 L 204.90 204.79 C 204.97 203.92 205.10 202.19 205.16 201.33 L 205.93 203.42 C 206.53 202.97 207.14 202.53 207.74 202.08 C 205.91 200.13 203.97 198.30 202.20 196.29 Z" />
<path fill="#ffffff" opacity="1.00" d=" M 209.56 196.56 C 210.78 197.98 211.84 199.54 212.98 201.04 C 214.12 204.00 214.39 207.17 214.37 210.32 C 213.32 208.67 211.74 207.17 211.71 205.09 C 211.76 202.07 210.14 199.44 209.56 196.56 Z" />
<path fill="#ffffff" opacity="1.00" d=" M 263.59 199.14 C 265.48 201.68 268.10 203.74 269.30 206.73 C 268.88 207.26 268.05 208.32 267.63 208.85 C 268.05 209.91 268.45 210.98 268.83 212.06 C 266.19 211.59 266.63 208.24 266.36 206.24 C 265.72 203.77 264.38 201.56 263.59 199.14 Z" />
<path fill="#ffffff" opacity="1.00" d=" M 185.90 201.02 C 187.14 202.51 188.07 204.31 189.72 205.41 L 190.21 205.86 C 191.21 207.01 191.35 208.66 191.13 210.11 C 191.68 211.06 192.45 212.05 193.66 211.44 C 191.54 210.06 191.67 207.61 191.36 205.46 C 193.10 207.06 194.14 209.21 195.43 211.15 C 194.67 211.93 193.96 212.78 193.27 213.63 C 192.49 213.05 191.71 212.48 190.93 211.92 C 189.57 210.70 186.88 209.05 190.95 208.90 C 190.68 208.48 190.13 207.64 189.86 207.22 L 189.29 206.68 C 187.86 204.98 186.31 203.28 185.90 201.02 Z" />
<path fill="#ffffff" opacity="1.00" d=" M 196.84 202.00 C 198.22 202.37 199.60 202.75 200.98 203.11 C 201.38 204.63 202.00 206.05 203.74 206.29 C 205.08 207.23 206.38 208.24 207.33 209.59 C 203.72 208.57 200.41 206.81 197.09 205.13 C 197.63 204.08 197.61 202.94 196.84 202.00 Z" />
<path fill="#ffffff" opacity="1.00" d=" M 202.01 202.50 C 203.35 202.10 204.32 203.82 204.90 204.79 L 204.95 205.41 C 203.65 205.84 201.65 203.86 202.01 202.50 Z" />
<path fill="#ffffff" opacity="1.00" d=" M 195.13 205.38 C 193.84 204.54 193.76 203.79 194.91 203.11 C 196.19 203.92 196.26 204.68 195.13 205.38 Z" />
<path fill="#ffffff" opacity="1.00" d=" M 241.36 204.52 C 241.84 204.39 242.80 204.12 243.29 203.99 C 242.82 204.46 241.90 205.39 241.43 205.85 C 241.41 206.13 241.36 206.68 241.34 206.95 C 239.38 208.09 241.63 212.71 238.41 211.12 C 238.35 212.50 237.78 213.58 236.69 214.37 L 235.87 214.48 L 235.26 214.07 C 237.32 210.90 238.94 207.43 241.36 204.52 Z" />
<path fill="#ffffff" opacity="1.00" d=" M 262.22 209.99 C 260.67 209.82 260.13 206.91 261.90 206.70 C 263.32 206.97 264.04 209.80 262.22 209.99 Z" />
<path fill="#ffffff" opacity="1.00" d=" M 242.68 207.22 L 244.79 207.63 C 244.04 210.59 243.34 213.57 242.89 216.59 C 242.18 216.57 240.76 216.54 240.04 216.52 C 240.89 213.43 242.85 210.51 242.68 207.22 Z" />
<path fill="#ffffff" opacity="1.00" d=" M 255.61 209.06 C 257.55 209.79 257.44 212.16 258.44 213.67 C 259.86 215.76 260.67 218.17 261.05 220.66 C 261.28 220.76 261.74 220.97 261.97 221.07 C 262.15 220.43 262.52 219.16 262.71 218.52 L 263.49 218.79 C 263.12 216.52 263.50 214.24 263.56 211.96 C 264.52 214.79 266.11 217.51 265.86 220.60 C 265.14 220.31 263.70 219.71 262.98 219.41 C 263.44 222.96 264.86 226.26 265.89 229.67 C 265.50 229.75 264.71 229.91 264.32 229.99 C 263.69 227.72 264.30 220.23 260.36 223.77 C 261.71 225.68 263.50 227.67 262.96 230.22 C 261.56 228.41 260.58 226.33 259.95 224.14 C 258.38 219.16 256.64 214.20 255.61 209.06 Z" />
<path fill="#ffffff" opacity="1.00" d=" M 247.26 215.36 C 247.67 213.93 247.64 212.06 249.57 211.90 C 248.53 215.49 248.82 219.72 246.68 222.89 C 246.54 222.13 246.27 220.59 246.14 219.83 C 245.67 220.00 244.74 220.34 244.27 220.52 C 244.91 217.80 245.37 215.05 246.04 212.35 C 246.34 213.10 246.95 214.61 247.26 215.36 Z" />
<path fill="#ffffff" opacity="1.00" d=" M 251.94 213.68 C 252.78 213.65 254.46 213.59 255.30 213.56 C 255.90 216.90 256.61 220.23 257.96 223.37 C 257.56 223.47 256.75 223.69 256.35 223.79 L 256.29 225.96 C 254.14 225.32 254.08 222.99 253.35 221.31 C 253.83 220.66 254.31 220.03 254.79 219.39 C 254.37 217.78 253.99 216.17 253.54 214.58 C 253.91 217.43 252.09 219.57 250.81 221.88 C 250.53 219.58 249.58 216.73 250.77 214.69 L 251.62 214.55 L 251.94 213.68 M 255.12 221.38 C 253.81 224.39 258.55 221.16 255.12 221.38 Z" />
<path fill="#ffffff" opacity="1.00" d=" M 257.74 224.84 C 260.14 224.32 258.20 228.34 257.44 225.63 L 257.74 224.84 Z" />
</g>
</svg>
