<?xml version="1.0" encoding="UTF-8" ?>
<!DOCTYPE svg PUBLIC "-//W3C//DTD SVG 1.1//EN" "http://www.w3.org/Graphics/SVG/1.1/DTD/svg11.dtd">
<svg width="512pt" height="256pt" viewBox="0 0 512 256" version="1.1" xmlns="http://www.w3.org/2000/svg">
<g id="#ffffffff">
<path fill="#ffffff" opacity="1.00" d=" M 150.43 16.93 C 150.26 15.48 151.18 14.32 151.81 13.12 C 152.15 13.58 152.82 14.49 153.16 14.94 C 155.83 21.29 155.45 28.34 156.60 34.99 C 158.56 41.79 160.52 48.71 163.92 54.95 C 168.07 61.31 173.11 67.15 179.09 71.86 C 182.46 74.52 185.45 77.60 188.74 80.36 L 187.40 81.22 C 182.16 75.82 187.44 84.35 188.67 80.55 C 191.98 83.42 196.19 84.75 199.95 86.88 C 201.20 82.27 199.45 77.61 200.01 72.96 C 200.34 69.29 200.22 65.61 199.83 61.95 C 199.73 60.24 199.41 57.63 201.74 57.42 C 201.62 55.90 201.50 54.38 201.35 52.87 C 200.55 51.72 200.24 50.36 200.35 48.98 C 200.17 41.79 200.13 34.57 200.75 27.40 C 201.04 27.55 201.62 27.84 201.91 27.98 C 202.72 30.26 203.34 32.62 203.26 35.06 C 203.36 45.47 204.73 55.79 205.50 66.15 C 205.04 67.73 204.90 69.84 203.17 70.55 C 203.54 71.12 204.28 72.26 204.65 72.84 C 204.88 72.18 205.33 70.88 205.56 70.23 C 206.67 76.44 207.63 82.71 209.43 88.77 C 210.91 91.74 213.71 93.62 216.38 95.42 C 217.99 95.89 220.15 95.39 221.20 97.06 C 225.25 97.51 228.91 100.10 233.05 99.48 C 237.66 99.42 242.01 102.19 246.64 101.36 L 246.50 102.31 C 249.42 101.90 252.24 102.67 255.05 103.38 C 256.43 102.75 258.08 101.91 257.80 104.54 C 258.45 104.14 259.74 103.33 260.38 102.92 C 261.79 100.45 263.86 98.27 264.54 95.45 L 265.24 95.86 C 265.76 96.02 266.81 96.33 267.34 96.49 C 266.78 95.13 266.09 93.84 265.28 92.62 C 265.85 92.63 266.99 92.65 267.56 92.66 C 267.60 92.04 267.66 90.80 267.70 90.18 L 267.43 90.23 C 267.03 90.74 266.25 91.76 265.85 92.28 C 265.82 90.38 266.54 88.83 268.11 87.83 C 267.45 87.69 266.13 87.40 265.47 87.25 C 266.27 83.67 263.59 81.05 262.11 78.10 C 265.68 79.34 267.31 83.13 269.55 85.88 C 269.34 91.86 269.94 98.18 267.55 103.79 C 276.90 99.39 287.54 96.53 294.80 88.74 C 296.71 86.12 299.68 83.58 299.31 80.03 C 297.81 76.52 294.98 73.76 291.48 72.27 L 291.88 71.48 C 289.03 71.53 286.68 69.79 284.14 68.78 C 283.00 68.14 281.89 67.47 280.80 66.76 L 281.29 66.59 C 282.24 67.06 284.14 67.99 285.09 68.45 C 284.62 67.51 283.68 65.63 283.21 64.69 C 285.48 65.72 286.39 68.34 288.59 69.49 C 287.73 67.92 286.80 66.40 285.96 64.82 C 288.48 65.27 290.10 67.52 292.59 67.99 C 294.26 68.87 295.16 70.71 296.48 72.00 C 296.39 71.16 296.22 69.47 296.13 68.62 C 297.09 69.42 298.02 70.25 298.95 71.10 C 298.94 69.77 298.49 68.29 299.56 67.24 C 300.62 71.69 301.27 76.29 301.33 80.86 C 298.76 86.72 295.42 92.83 290.03 96.54 C 289.62 96.60 288.80 96.74 288.39 96.80 C 288.50 97.14 288.73 97.81 288.85 98.14 C 285.11 98.27 282.25 101.19 278.99 102.75 C 278.29 101.68 276.73 100.84 276.36 102.63 C 277.03 103.03 277.70 103.44 278.38 103.84 C 277.04 104.20 275.72 104.62 274.43 105.12 C 273.25 103.45 272.34 105.09 271.42 105.86 C 270.45 105.70 269.49 105.53 268.53 105.37 C 268.39 105.99 268.12 107.23 267.98 107.85 C 265.28 106.08 264.89 102.97 264.32 100.09 C 264.94 100.24 266.19 100.54 266.81 100.69 C 266.48 99.52 266.22 98.34 265.77 97.21 C 263.67 96.13 264.09 99.25 263.39 100.39 C 263.13 102.15 260.40 104.36 262.10 105.88 L 262.65 106.28 C 262.74 107.18 261.95 107.88 261.62 108.67 C 261.39 108.30 260.93 107.57 260.70 107.20 C 259.20 108.52 258.37 110.57 257.06 112.10 C 257.26 110.70 257.53 109.31 257.76 107.92 C 256.40 109.41 255.27 111.09 253.82 112.50 C 254.30 110.69 255.09 108.99 255.69 107.22 C 254.77 107.91 252.92 109.30 252.00 110.00 C 252.23 109.20 252.68 107.61 252.91 106.81 C 252.25 107.40 251.58 107.97 250.90 108.52 C 249.68 107.99 248.47 108.26 247.28 108.64 C 247.33 108.02 247.43 106.79 247.48 106.17 C 246.04 107.31 244.62 108.48 243.16 109.60 L 243.37 106.61 C 242.87 107.12 241.87 108.12 241.37 108.62 L 239.16 107.64 C 239.62 108.33 240.53 109.73 240.99 110.43 C 238.55 109.94 235.62 110.57 233.63 108.78 C 228.75 107.52 223.87 106.20 218.86 105.57 C 215.57 105.16 213.13 102.64 210.02 101.70 C 203.66 99.39 197.13 97.15 191.75 92.90 C 191.38 91.61 190.68 90.46 189.79 89.46 C 189.73 90.08 189.61 91.32 189.55 91.95 C 187.21 90.34 184.79 88.89 182.37 87.42 C 182.71 87.28 183.39 86.99 183.72 86.85 C 183.51 85.63 183.32 84.42 183.13 83.20 C 182.68 83.35 181.77 83.66 181.31 83.82 C 181.86 84.83 182.43 85.82 183.03 86.81 C 178.94 84.72 174.66 82.82 171.20 79.73 C 167.72 76.57 162.81 75.32 159.77 71.66 C 161.43 71.88 162.78 72.86 164.16 73.73 C 164.57 73.13 165.40 71.92 165.81 71.31 L 165.94 72.87 C 165.58 73.64 165.21 74.40 164.85 75.16 C 165.53 74.94 166.89 74.48 167.57 74.25 L 166.94 75.82 C 168.19 76.27 170.70 77.16 171.95 77.61 C 171.06 76.83 169.28 75.28 168.39 74.50 L 169.17 74.62 C 170.09 73.69 170.60 72.55 170.68 71.21 C 169.55 71.90 168.00 72.95 168.39 74.50 C 168.10 74.30 167.51 73.90 167.22 73.70 C 167.56 72.69 167.89 71.68 168.21 70.67 C 167.64 71.22 166.51 72.32 165.94 72.87 C 166.13 71.84 166.49 69.77 166.68 68.73 C 165.39 70.87 163.69 72.05 161.22 71.30 C 164.18 69.39 166.33 66.59 168.58 63.95 C 167.29 65.11 166.03 66.30 164.89 67.61 C 164.34 67.06 163.79 66.52 163.24 65.97 L 165.83 64.44 C 165.11 64.45 163.68 64.47 162.96 64.49 L 163.38 61.95 C 163.09 62.84 162.82 63.74 162.57 64.65 C 161.94 64.68 160.68 64.73 160.05 64.75 C 161.13 65.62 162.21 66.50 163.30 67.38 C 161.14 67.55 159.27 68.39 157.68 69.93 C 157.64 68.63 157.61 67.34 157.60 66.04 C 157.09 65.87 156.08 65.52 155.58 65.35 C 156.17 64.89 157.36 63.98 157.95 63.53 C 157.22 63.36 155.74 63.03 155.01 62.86 C 153.29 59.84 151.78 56.71 150.10 53.66 L 151.05 53.58 L 151.91 53.76 C 152.72 54.29 153.59 54.78 154.62 54.52 L 154.62 56.96 C 154.94 56.03 155.59 54.17 155.92 53.24 L 154.47 53.63 C 154.92 51.89 153.46 52.47 152.57 52.41 C 152.34 51.78 152.11 51.15 151.88 50.52 C 151.64 50.91 151.14 51.67 150.90 52.06 C 146.37 50.04 141.77 46.04 140.22 41.01 C 143.06 42.92 145.97 44.75 149.03 46.29 C 151.99 44.80 152.18 41.39 151.70 38.47 C 153.54 39.24 154.16 37.63 154.83 36.40 C 154.47 36.46 153.77 36.58 153.42 36.64 L 152.84 37.02 C 152.45 37.16 151.67 37.44 151.28 37.59 C 150.11 30.77 150.39 23.82 150.43 16.93 M 200.95 70.79 C 201.35 72.18 202.01 73.44 202.93 74.58 C 202.53 74.70 201.72 74.95 201.32 75.07 L 201.47 75.53 C 201.36 78.27 201.98 80.66 203.91 82.81 C 203.08 82.45 201.42 81.73 200.59 81.38 C 201.26 84.15 201.60 86.98 201.78 89.83 C 201.08 89.71 199.69 89.48 198.99 89.36 C 199.54 90.44 200.08 91.52 200.61 92.62 C 201.04 92.93 201.89 93.54 202.32 93.85 C 202.48 95.95 202.77 98.43 205.09 99.24 C 210.12 101.11 215.07 103.24 220.28 104.58 C 220.28 104.22 220.29 103.50 220.29 103.15 C 221.24 106.53 225.63 106.34 228.45 106.40 C 228.69 105.63 229.17 104.08 229.42 103.31 C 228.24 103.59 225.90 104.16 224.72 104.44 L 226.80 101.02 C 225.64 101.51 223.30 102.49 222.14 102.97 C 222.08 101.44 223.55 100.41 224.61 99.53 C 222.56 100.12 221.16 97.91 219.26 97.72 C 217.64 98.15 216.46 97.05 215.14 96.45 C 216.03 97.65 217.35 98.71 216.28 100.30 C 212.69 96.65 209.41 92.56 207.36 87.82 C 204.75 87.67 203.33 85.10 202.52 82.95 C 204.31 84.43 205.83 86.20 207.50 87.82 C 207.65 84.67 205.68 82.46 203.58 80.44 C 202.23 79.52 202.17 77.59 203.50 76.64 C 204.21 77.06 205.63 77.89 206.34 78.30 C 204.78 75.64 203.01 73.09 200.95 70.79 M 193.65 84.98 C 193.71 87.68 193.93 90.38 193.97 93.08 C 196.17 94.43 198.36 96.06 201.09 95.92 C 197.08 94.81 199.04 89.74 196.09 87.65 C 196.28 89.78 196.72 91.86 197.04 93.97 C 194.06 92.00 195.68 87.68 193.65 84.98 M 201.23 96.19 C 201.90 96.90 201.90 96.90 201.23 96.19 M 234.91 105.75 C 234.52 106.41 233.76 107.74 233.37 108.40 C 235.03 108.37 236.76 108.44 238.23 107.54 C 238.37 106.91 238.65 105.65 238.78 105.02 C 237.67 105.76 236.56 106.50 235.46 107.24 L 235.76 105.00 C 235.54 105.18 235.12 105.56 234.91 105.75 Z" />
<path fill="#ffffff" opacity="1.00" d=" M 298.26 12.20 L 299.80 13.02 C 300.30 17.70 298.50 22.30 298.98 27.01 C 299.91 38.12 301.13 49.35 304.60 60.01 C 305.67 63.76 308.89 66.71 308.98 70.74 C 312.20 75.35 311.22 80.98 310.72 86.21 C 310.11 85.98 308.90 85.52 308.29 85.28 L 308.28 87.16 C 307.70 86.68 306.53 85.70 305.95 85.21 C 305.72 85.48 305.25 86.03 305.01 86.30 C 305.71 86.45 307.12 86.74 307.82 86.88 C 307.45 88.31 307.00 89.73 306.82 91.20 C 307.94 89.61 308.73 87.84 309.46 86.04 C 311.56 86.06 310.56 91.27 308.09 90.64 L 309.65 92.76 C 309.03 92.64 307.79 92.38 307.17 92.26 L 307.12 92.61 C 308.03 93.31 308.94 94.04 309.84 94.78 C 309.63 94.34 309.21 93.46 309.01 93.02 L 312.28 92.30 C 312.10 94.19 313.46 95.59 314.37 97.09 C 312.90 97.54 311.56 97.09 310.36 95.77 C 311.05 96.98 311.69 98.21 312.31 99.46 C 308.71 97.36 305.98 94.08 302.94 91.26 C 302.07 92.48 301.19 93.69 300.27 94.87 C 302.30 95.92 304.22 97.18 306.27 98.17 C 305.35 96.78 304.15 95.60 302.65 94.84 C 303.09 94.29 303.53 93.73 303.98 93.17 C 305.58 94.97 307.29 96.67 309.18 98.17 L 308.33 99.66 C 308.66 100.02 309.31 100.74 309.64 101.10 C 311.76 99.97 313.80 98.58 316.28 98.35 C 313.82 101.57 309.37 102.56 306.16 105.02 C 302.81 107.23 300.39 110.43 297.97 113.56 C 298.15 112.72 298.49 111.03 298.67 110.19 C 297.37 109.52 294.79 108.17 293.49 107.50 L 295.22 111.08 C 294.11 111.98 293.38 113.20 292.89 114.51 C 293.44 115.60 294.93 116.41 294.80 117.78 C 294.44 117.95 293.71 118.28 293.35 118.45 C 296.53 119.33 291.01 121.71 294.50 122.68 C 294.64 120.91 294.76 118.66 297.10 118.64 C 296.26 117.18 293.98 116.05 294.22 114.17 C 295.37 112.57 296.42 115.01 297.28 115.75 C 298.48 117.41 298.37 119.54 298.49 121.47 L 300.61 121.93 C 299.07 123.15 297.42 124.22 295.96 125.54 C 295.09 125.59 293.34 125.67 292.46 125.72 C 292.42 125.32 292.34 124.52 292.30 124.12 C 290.83 125.02 288.78 125.46 288.17 127.27 C 286.19 129.19 284.09 130.97 281.89 132.63 C 282.16 132.65 282.70 132.71 282.97 132.74 C 285.68 130.12 288.97 128.22 291.64 125.57 C 291.73 126.22 291.90 127.52 291.98 128.17 L 292.37 126.46 C 295.06 126.12 297.74 125.80 300.41 125.34 C 299.71 126.15 299.02 126.97 298.34 127.80 C 299.43 127.50 300.38 126.87 301.39 126.37 C 301.32 125.61 301.32 124.85 301.34 124.10 C 303.57 125.02 305.15 126.68 306.10 128.85 C 304.74 129.09 303.38 129.34 302.03 129.59 C 303.68 129.52 305.34 129.42 306.99 129.34 C 306.34 127.93 305.66 126.54 305.03 125.13 L 307.04 124.55 C 307.84 128.53 308.67 132.74 312.18 135.28 C 311.86 135.63 311.20 136.33 310.88 136.68 C 312.62 136.76 315.89 136.00 316.65 137.89 C 314.87 138.81 312.53 137.68 310.93 139.36 C 313.70 139.93 316.42 139.56 318.71 137.87 L 317.19 139.75 C 320.93 138.08 321.87 142.15 323.77 144.20 C 326.02 146.93 329.75 147.50 332.39 149.74 C 334.75 151.30 336.42 153.61 338.29 155.70 C 337.80 157.45 337.34 159.23 337.20 161.05 C 334.58 158.66 338.09 155.01 334.88 152.89 C 334.65 153.92 334.21 155.99 333.99 157.02 C 332.83 155.96 331.64 154.96 330.42 154.00 C 329.51 158.32 337.23 156.02 335.32 160.41 C 334.69 160.45 333.42 160.53 332.79 160.57 C 333.21 160.68 334.06 160.89 334.49 161.00 C 333.65 162.22 333.18 163.60 333.14 165.08 C 333.76 165.47 334.38 165.86 335.00 166.26 C 335.26 164.98 335.79 162.43 336.05 161.16 C 337.17 163.55 337.34 167.59 334.37 168.68 C 333.25 167.90 331.71 165.19 330.73 168.51 C 327.61 170.11 330.82 165.63 330.67 164.42 L 331.22 164.42 C 331.28 162.75 331.40 161.07 331.64 159.41 C 330.58 157.95 329.72 156.35 329.07 154.67 C 328.11 155.28 327.17 155.91 326.23 156.55 C 327.29 157.73 327.95 159.09 328.21 160.64 C 325.71 158.72 324.36 155.73 321.99 153.65 C 321.89 153.00 321.67 151.68 321.57 151.03 C 318.68 150.01 315.34 152.45 315.88 155.63 C 316.67 155.62 318.25 155.62 319.04 155.61 L 317.39 153.69 C 318.12 152.94 318.85 152.19 319.59 151.45 C 320.12 152.15 321.20 153.56 321.74 154.26 C 321.15 154.36 319.97 154.56 319.38 154.65 L 320.03 156.29 C 317.95 156.46 314.72 155.29 315.34 158.78 C 313.16 157.79 310.81 157.45 308.45 157.32 C 308.42 157.83 308.35 158.85 308.32 159.35 C 309.37 159.66 310.42 159.98 311.47 160.31 C 312.51 162.01 313.67 163.63 314.96 165.15 C 315.39 166.66 315.82 168.18 316.85 169.43 C 316.21 169.52 314.92 169.70 314.28 169.79 C 314.74 170.75 315.56 171.56 315.80 172.62 C 315.34 173.17 314.42 174.26 313.96 174.80 C 311.75 173.99 309.79 172.70 308.41 170.76 L 308.26 172.46 C 307.95 172.34 307.32 172.09 307.00 171.96 C 306.15 169.60 304.94 167.40 303.91 165.12 L 306.12 165.73 L 307.08 166.79 C 307.38 166.35 307.70 165.92 308.01 165.49 L 306.73 165.48 C 305.79 163.40 304.72 161.39 303.74 159.35 L 306.18 159.71 C 303.95 157.55 306.24 155.22 306.78 152.92 C 305.20 154.65 304.02 156.68 302.52 158.47 L 302.43 156.15 C 301.87 156.38 300.76 156.86 300.20 157.10 L 301.90 153.44 C 299.94 154.55 298.42 156.08 297.34 158.01 C 299.22 159.02 300.13 160.61 299.76 162.75 C 302.16 161.07 303.58 164.23 303.55 166.10 C 303.62 168.01 304.66 169.67 305.45 171.35 C 303.60 171.37 301.99 172.24 300.29 172.84 C 297.76 169.92 298.22 165.06 295.14 162.75 C 295.74 165.85 296.91 168.80 297.76 171.83 C 297.02 172.15 296.28 172.47 295.54 172.78 C 294.33 169.71 293.38 166.53 292.20 163.44 C 292.61 163.33 293.43 163.10 293.84 162.99 C 293.10 162.85 291.61 162.57 290.87 162.43 C 291.20 164.16 291.64 165.88 292.22 167.56 C 293.71 170.21 294.48 173.19 295.53 176.03 C 293.38 174.00 292.31 171.26 291.10 168.64 C 291.45 171.62 292.28 174.54 293.53 177.27 C 293.06 176.66 292.12 175.44 291.65 174.83 C 291.45 175.35 291.05 176.40 290.85 176.93 C 290.25 175.68 288.95 172.15 287.32 174.80 C 286.50 172.16 285.17 169.58 285.37 166.74 C 282.14 162.84 282.49 157.36 281.83 152.60 C 280.33 152.59 278.86 152.35 277.44 151.87 C 277.48 151.38 277.57 150.41 277.61 149.92 C 277.00 149.54 275.79 148.79 275.18 148.42 C 275.81 148.17 277.06 147.66 277.68 147.41 L 276.91 145.54 C 277.70 145.86 279.27 146.50 280.06 146.82 C 279.79 146.40 279.26 145.57 279.00 145.16 C 277.14 145.38 275.26 145.46 273.46 146.03 L 273.98 144.47 C 272.50 144.12 271.04 143.70 269.56 143.32 C 269.67 142.47 269.90 140.78 270.01 139.93 C 271.41 139.35 272.63 140.39 273.81 140.98 C 275.22 140.55 276.64 140.12 278.05 139.67 C 278.73 139.91 280.10 140.40 280.78 140.64 C 281.97 142.03 283.22 143.51 281.05 144.70 C 282.91 144.45 284.79 144.47 286.66 144.57 C 286.63 143.45 286.60 142.33 286.57 141.21 C 286.88 140.67 287.49 139.59 287.80 139.05 C 286.80 140.31 285.93 141.67 285.09 143.04 C 284.31 142.11 282.76 140.25 281.98 139.32 C 282.56 139.32 283.73 139.32 284.32 139.32 C 284.77 137.92 285.95 137.36 287.29 137.05 C 287.30 136.14 287.31 135.23 287.33 134.32 C 286.90 136.59 284.23 136.68 283.64 138.88 C 282.43 138.14 281.21 137.43 280.04 136.66 C 279.66 134.99 279.43 133.29 279.03 131.62 C 281.93 130.40 284.66 128.49 286.17 125.66 C 285.54 126.16 284.27 127.17 283.64 127.67 C 283.18 125.88 283.02 123.72 280.83 123.22 C 280.68 125.02 281.56 126.65 282.51 128.10 C 281.47 131.62 278.37 129.53 276.19 129.12 C 276.31 128.35 276.53 126.81 276.64 126.04 C 275.16 128.36 275.39 130.67 277.40 132.59 L 278.27 132.40 C 278.28 132.97 278.30 134.13 278.31 134.71 C 275.38 133.79 272.88 136.58 269.99 135.09 C 272.28 137.96 264.64 141.38 268.78 135.16 C 268.27 135.43 267.27 135.97 266.77 136.24 C 266.96 138.68 266.97 141.14 266.71 143.58 C 265.46 142.85 264.90 141.72 265.03 140.18 C 264.11 140.88 263.19 141.57 262.26 142.24 C 262.82 140.31 264.36 138.47 263.55 136.36 C 263.12 137.44 262.25 139.60 261.82 140.68 C 261.47 140.45 260.78 139.97 260.43 139.74 C 260.06 140.07 259.33 140.73 258.96 141.06 C 259.29 138.95 259.67 136.84 260.63 134.92 C 260.48 133.78 260.35 132.63 260.25 131.48 C 259.25 130.13 258.30 128.75 257.36 127.36 C 256.18 128.82 254.97 130.25 253.62 131.55 C 253.61 130.77 253.58 129.21 253.57 128.43 L 252.14 128.91 C 253.41 125.23 253.41 121.28 254.47 117.54 C 253.06 116.06 251.77 114.46 250.44 112.91 C 250.98 116.01 251.59 119.16 251.08 122.32 C 250.53 120.67 250.22 118.94 249.93 117.23 C 249.18 116.61 248.44 116.00 247.71 115.39 C 247.00 116.50 246.32 117.61 245.63 118.72 C 244.85 118.36 243.28 117.65 242.49 117.29 C 243.29 118.96 244.51 120.34 245.88 121.56 C 245.80 121.83 245.65 122.36 245.57 122.62 C 246.75 124.13 247.84 125.70 248.91 127.29 C 247.73 127.03 245.38 126.51 244.20 126.25 C 245.98 128.23 248.06 130.20 250.88 129.99 C 251.79 130.50 252.71 131.02 253.62 131.55 C 252.83 132.26 252.04 132.97 251.25 133.67 C 248.70 133.02 246.42 131.70 244.25 130.25 C 244.78 130.88 245.85 132.15 246.38 132.78 C 245.80 133.47 245.21 134.16 244.63 134.85 C 245.44 135.44 247.07 136.63 247.88 137.22 C 247.00 137.98 246.13 138.73 245.31 139.55 C 246.74 139.54 248.19 139.55 249.63 139.57 C 248.38 140.54 246.66 144.13 245.13 142.89 L 244.71 142.30 C 241.21 141.70 237.20 143.70 233.89 141.83 C 234.70 141.60 236.31 141.13 237.12 140.90 C 237.27 140.32 237.57 139.17 237.72 138.60 L 238.57 139.02 C 238.50 138.11 238.37 136.30 238.30 135.39 L 241.07 136.02 C 240.69 135.31 239.94 133.88 239.56 133.17 C 239.88 133.48 240.52 134.11 240.84 134.42 C 242.05 133.43 243.59 133.35 245.08 133.56 L 243.64 131.62 C 243.63 131.04 243.60 129.87 243.59 129.29 C 242.92 128.79 242.26 128.29 241.59 127.79 C 241.79 126.16 240.61 124.96 239.91 123.62 C 240.89 124.11 241.87 124.63 242.82 125.18 C 242.75 123.95 242.69 122.71 242.63 121.47 C 241.67 120.65 240.67 119.88 239.69 119.08 C 240.45 119.05 241.96 119.00 242.71 118.98 C 241.84 118.00 241.02 116.98 240.25 115.92 C 240.59 113.83 242.36 112.51 244.29 111.97 C 244.69 112.98 245.09 113.99 245.50 115.01 C 245.40 114.22 245.20 112.64 245.10 111.85 C 246.89 110.90 248.81 110.64 250.76 111.19 C 253.56 113.86 256.81 116.40 258.44 119.99 C 257.62 121.09 256.82 122.20 256.04 123.33 C 256.74 123.90 257.46 124.47 258.21 125.00 C 258.36 124.50 258.68 123.50 258.84 123.00 L 259.33 122.32 L 261.13 122.50 C 260.97 122.97 260.66 123.92 260.50 124.39 C 262.22 125.68 262.75 127.80 263.78 129.58 C 263.48 130.08 262.88 131.08 262.58 131.58 C 263.57 131.55 265.56 131.48 266.55 131.45 C 266.26 132.48 265.66 134.53 265.37 135.56 C 268.32 134.07 268.89 131.42 266.43 129.68 C 266.74 127.45 264.12 124.71 267.11 123.50 L 266.27 122.93 C 268.07 121.89 269.93 121.49 271.88 121.73 C 270.35 123.24 268.57 124.45 267.03 125.94 C 267.95 126.99 268.94 127.99 269.95 128.98 C 269.50 127.55 266.66 126.03 268.76 124.64 C 271.22 124.99 273.00 123.64 274.59 121.97 C 276.33 123.40 278.23 124.73 280.52 125.06 C 279.55 122.86 276.82 122.76 274.98 121.70 C 276.35 120.20 278.16 119.59 280.18 119.69 C 279.45 117.56 279.07 115.05 276.79 114.02 C 276.39 112.70 275.98 111.39 275.57 110.08 C 276.77 110.22 277.98 110.34 279.20 110.44 C 280.33 109.55 281.59 108.74 283.09 108.73 C 286.19 109.45 289.74 109.19 292.08 111.77 C 292.64 111.21 293.21 110.66 293.79 110.11 C 292.13 107.29 288.53 108.36 286.55 106.13 C 285.89 106.22 284.55 106.38 283.89 106.47 C 289.33 102.45 294.36 97.95 299.53 93.59 C 302.09 90.65 302.71 86.53 305.35 83.65 C 305.07 82.75 304.80 81.85 304.54 80.96 C 305.94 80.55 307.25 79.91 308.53 79.23 C 308.43 78.04 308.36 76.85 308.30 75.66 C 307.59 77.33 307.64 79.83 305.23 79.72 C 305.33 75.43 303.37 71.47 303.20 67.23 C 303.99 67.03 305.56 66.62 306.35 66.42 C 304.44 66.20 301.40 67.19 302.11 64.02 C 300.38 61.93 298.55 59.92 296.85 57.80 C 296.33 58.11 295.81 58.43 295.29 58.75 C 296.86 60.69 298.38 62.66 299.77 64.73 C 297.48 64.35 296.13 62.34 294.40 61.01 C 295.53 62.96 296.23 65.60 298.74 66.26 C 298.12 66.61 297.49 66.96 296.88 67.31 C 295.11 66.35 293.31 65.45 291.40 64.82 C 292.28 64.25 293.18 63.70 294.06 63.12 L 292.28 63.92 C 292.21 62.62 292.15 61.33 292.01 60.04 C 291.63 61.47 291.33 62.91 291.10 64.36 C 288.34 63.56 289.61 61.17 289.49 59.31 C 289.32 60.16 288.97 61.87 288.80 62.72 C 287.40 61.77 286.00 60.73 286.27 58.83 C 286.04 59.38 285.58 60.49 285.35 61.05 C 282.07 58.86 279.23 56.15 276.39 53.46 C 273.65 51.92 273.69 47.42 270.21 47.23 C 270.43 46.72 270.87 45.69 271.09 45.18 C 270.67 45.46 269.81 46.01 269.38 46.29 C 267.59 41.59 264.04 37.09 264.97 31.79 C 267.64 34.86 267.89 39.40 270.93 42.29 C 275.07 48.13 281.11 52.06 287.05 55.83 C 289.05 57.02 291.52 56.14 293.70 56.17 L 294.03 57.69 C 294.52 57.19 295.01 56.68 295.51 56.18 C 295.22 55.15 294.97 54.11 294.75 53.06 C 295.74 46.18 295.14 39.12 295.90 32.28 L 297.68 32.32 C 296.75 30.72 295.70 28.97 296.20 27.04 C 296.80 22.09 297.40 17.13 298.26 12.20 M 296.93 48.25 C 298.26 47.55 298.28 46.64 296.99 45.52 C 295.59 46.24 295.57 47.15 296.93 48.25 M 296.30 48.24 C 294.99 51.53 296.14 54.67 296.55 57.95 L 297.39 57.01 C 298.47 57.66 299.63 57.93 300.80 57.41 C 301.19 58.44 301.57 59.48 301.93 60.53 C 302.16 60.52 302.62 60.49 302.85 60.47 C 302.54 60.12 301.91 59.43 301.60 59.08 C 301.55 57.81 301.50 56.53 301.45 55.26 C 300.79 56.29 299.64 56.39 298.56 56.59 C 298.11 53.62 299.23 50.22 296.30 48.24 M 306.46 74.63 C 307.70 74.89 307.80 72.61 308.31 71.79 C 307.10 69.78 305.24 73.40 306.46 74.63 M 297.96 96.48 C 301.07 98.48 306.55 100.53 305.46 105.06 C 306.94 103.98 308.48 102.93 309.72 101.55 C 306.01 100.29 302.46 98.56 299.27 96.27 C 298.94 96.33 298.28 96.43 297.96 96.48 M 295.76 99.00 C 296.81 100.20 297.93 101.34 299.12 102.42 C 298.04 102.41 296.96 102.41 295.88 102.41 C 297.18 103.40 297.94 104.84 298.89 106.13 L 299.37 106.60 L 299.72 107.25 L 300.19 107.79 L 302.11 107.13 L 301.42 105.48 L 303.35 106.06 C 301.99 102.80 298.30 101.30 295.76 99.00 M 302.83 102.27 C 302.67 103.67 303.31 104.30 304.73 104.17 C 304.85 102.79 304.22 102.16 302.83 102.27 M 280.84 117.97 C 279.34 120.18 283.51 121.77 284.60 120.37 C 283.27 119.80 282.37 117.40 280.84 117.97 M 287.86 122.23 C 286.64 122.42 285.42 122.60 284.21 122.75 C 284.20 123.18 284.18 124.03 284.17 124.46 C 285.78 123.72 287.40 122.97 289.01 122.20 C 289.82 122.37 291.45 122.70 292.26 122.87 C 291.62 122.57 290.32 121.97 289.67 121.67 C 289.64 121.24 289.59 120.36 289.57 119.93 C 288.99 120.69 288.42 121.46 287.86 122.23 M 296.70 122.29 C 297.02 121.92 297.66 121.18 297.98 120.81 L 297.64 119.80 L 296.77 119.56 C 295.65 120.48 295.63 121.39 296.70 122.29 M 268.08 133.39 C 269.50 133.95 270.97 133.56 272.42 133.29 C 272.01 132.21 271.59 131.11 271.20 130.03 C 270.42 130.87 268.86 132.55 268.08 133.39 M 299.43 143.41 C 299.23 143.96 298.81 145.08 298.61 145.63 C 300.26 144.58 301.82 143.38 303.38 142.20 L 304.31 143.71 L 303.57 142.34 C 305.13 141.38 306.66 140.37 308.06 139.17 C 305.13 140.46 302.21 141.81 299.43 143.41 M 307.09 143.26 C 310.17 144.61 307.50 140.01 307.09 143.26 M 304.31 143.71 C 303.95 144.12 303.22 144.93 302.86 145.34 C 304.31 145.54 306.49 144.57 307.09 143.26 C 306.40 143.37 305.01 143.60 304.31 143.71 M 289.65 148.27 C 289.98 149.58 289.53 150.96 289.94 152.24 C 291.16 152.25 291.90 151.52 292.15 150.07 C 291.93 148.96 290.59 148.44 289.65 148.27 M 292.79 150.38 C 290.94 153.40 296.22 150.44 292.79 150.38 Z" />
<path fill="#ffffff" opacity="1.00" d=" M 133.66 18.71 C 135.63 23.45 135.43 28.74 136.26 33.74 C 135.07 33.55 134.20 33.89 133.64 34.78 C 134.29 34.59 135.59 34.22 136.24 34.03 C 137.37 39.27 136.82 45.10 140.34 49.56 C 144.31 54.06 148.22 58.70 152.99 62.38 C 153.24 63.79 153.49 65.20 153.83 66.60 C 151.94 65.77 150.85 66.92 150.02 68.50 C 152.42 69.11 155.03 70.37 156.73 67.60 C 156.34 68.51 155.94 69.41 155.54 70.32 C 151.79 70.21 147.63 69.81 144.88 66.96 C 142.26 64.27 139.74 61.47 137.00 58.92 C 132.59 55.83 127.76 53.36 122.84 51.19 C 121.30 50.64 120.49 49.10 119.39 48.02 C 119.72 47.37 121.14 46.53 120.22 45.79 C 119.56 44.98 118.72 46.02 118.08 46.30 C 116.80 42.57 113.51 39.05 114.54 34.88 C 116.99 38.48 118.76 42.78 122.39 45.41 C 124.81 46.32 127.44 46.44 129.99 46.66 C 131.62 46.10 133.05 44.74 133.24 42.95 C 134.71 34.94 131.98 26.69 133.66 18.71 M 134.19 49.31 C 133.45 50.05 132.70 50.78 131.95 51.51 C 134.19 50.60 137.11 51.27 138.35 48.70 C 137.38 49.00 135.44 49.61 134.47 49.92 C 135.37 48.93 137.16 46.97 138.06 45.99 C 135.91 45.68 135.11 47.83 134.19 49.31 M 138.46 52.51 C 139.79 53.53 140.90 50.39 139.15 50.42 C 138.98 50.94 138.63 51.98 138.46 52.51 M 140.10 52.97 C 140.21 56.46 142.97 51.41 140.10 52.97 M 135.29 56.01 C 136.44 56.66 138.09 55.03 137.76 53.85 C 136.67 53.31 134.99 54.86 135.29 56.01 M 143.47 63.04 C 144.41 64.16 146.19 62.52 145.74 61.39 C 144.79 60.67 142.76 61.77 143.47 63.04 M 147.90 67.68 L 148.34 68.31 C 149.96 68.57 150.89 66.55 150.45 65.23 C 149.13 64.62 147.82 66.47 147.90 67.68 Z" />
<path fill="#ffffff" opacity="1.00" d=" M 253.59 20.88 C 253.96 21.14 254.69 21.68 255.05 21.95 C 255.09 27.99 254.08 34.57 257.40 39.99 C 259.49 46.30 263.78 51.32 268.03 56.27 C 270.73 56.27 273.00 58.00 275.47 58.83 C 275.65 58.25 275.82 57.67 276.00 57.09 C 275.15 56.13 274.46 55.06 273.91 53.91 C 274.32 53.79 275.15 53.55 275.57 53.43 L 275.68 53.84 C 275.89 55.59 277.19 56.81 278.16 58.18 C 277.02 58.62 275.89 59.09 274.92 59.85 C 275.38 61.63 276.06 63.35 276.56 65.12 C 276.05 64.31 275.57 63.49 275.12 62.65 C 273.45 64.56 272.13 64.01 271.16 61.95 C 271.34 62.93 271.69 64.89 271.87 65.87 C 268.71 64.27 265.55 62.38 263.65 59.29 C 260.52 55.72 257.12 52.27 254.82 48.09 C 254.15 46.18 252.85 44.01 254.27 42.12 C 254.39 40.91 254.53 39.71 254.67 38.50 C 254.24 38.47 253.37 38.40 252.93 38.36 C 251.89 32.57 251.93 26.56 253.59 20.88 M 253.99 42.92 C 254.67 46.08 256.71 48.66 258.50 51.25 C 258.51 50.68 258.54 49.53 258.55 48.95 C 256.19 47.50 256.71 43.71 253.99 42.92 M 259.05 50.06 C 258.21 53.38 261.64 54.75 263.50 56.74 L 263.88 56.63 C 261.90 54.72 260.50 52.36 259.05 50.06 Z" />
<path fill="#ffffff" opacity="1.00" d=" M 343.68 50.84 C 345.79 52.10 345.17 54.94 344.83 56.98 C 345.04 57.58 345.47 58.78 345.68 59.38 L 343.63 58.32 C 343.12 59.59 342.56 60.84 342.07 62.12 C 342.71 61.32 343.99 59.71 344.63 58.90 C 344.63 61.24 344.74 63.57 344.72 65.90 C 343.33 69.46 342.87 73.89 340.03 76.55 C 339.34 76.43 337.98 76.18 337.30 76.05 L 337.17 74.39 C 337.99 74.40 339.61 74.42 340.43 74.42 C 339.53 73.98 338.62 73.57 337.72 73.15 C 336.47 75.43 335.07 77.63 334.05 80.02 C 335.06 78.80 335.58 77.18 336.86 76.20 C 337.62 76.37 339.12 76.73 339.87 76.91 C 339.92 78.68 339.14 79.52 337.51 79.41 C 337.48 80.41 337.41 81.40 337.35 82.40 C 335.57 81.70 333.80 81.00 332.04 80.26 C 331.92 80.61 331.68 81.31 331.56 81.65 C 333.31 81.47 334.66 82.59 336.10 83.35 C 335.53 84.42 334.95 85.48 334.40 86.54 C 333.53 86.10 332.66 85.66 331.80 85.23 C 330.67 86.06 329.31 85.83 328.03 85.59 C 328.91 85.97 329.82 86.21 330.77 86.31 L 330.37 88.76 C 330.88 87.81 331.38 86.85 331.88 85.90 C 332.18 86.79 332.77 88.59 333.06 89.48 C 330.30 90.37 328.34 88.32 326.59 86.52 C 326.16 86.78 325.28 87.30 324.84 87.57 C 325.34 87.48 326.33 87.31 326.83 87.22 C 327.46 88.36 328.72 90.65 329.35 91.80 C 327.48 90.67 325.64 89.55 323.69 88.60 C 324.27 89.42 325.44 91.07 326.02 91.89 C 324.39 91.72 322.77 91.54 321.15 91.35 C 321.51 91.79 322.24 92.66 322.60 93.09 C 320.03 93.56 318.18 95.53 315.93 96.67 C 315.25 96.26 313.91 95.44 313.24 95.03 C 313.17 94.04 313.22 93.07 313.39 92.11 C 314.56 91.55 315.65 92.71 316.73 93.02 C 316.24 92.33 315.75 91.64 315.27 90.95 C 327.61 86.71 336.81 75.30 340.13 62.90 C 341.55 58.95 343.29 55.08 343.68 50.84 Z" />
<path fill="#ffffff" opacity="1.00" d=" M 347.16 51.89 C 349.93 55.22 351.95 59.88 351.22 64.24 C 349.81 66.26 349.66 62.21 349.42 61.29 C 348.91 64.01 349.46 66.72 352.08 68.08 C 352.30 70.40 353.27 72.79 351.92 75.02 C 350.86 73.53 350.60 71.71 350.32 69.95 C 350.65 71.82 349.66 74.35 351.50 75.60 C 348.51 80.61 344.52 84.92 341.45 89.88 C 341.14 88.93 340.50 87.04 340.19 86.09 C 339.08 87.33 338.00 88.60 336.92 89.86 C 337.55 90.87 338.17 91.89 338.76 92.93 L 337.08 93.74 C 336.92 92.40 336.33 91.34 335.30 90.56 C 335.22 91.10 335.07 92.17 334.99 92.70 L 336.34 93.58 C 334.66 97.14 331.05 98.90 327.90 100.90 L 326.85 100.12 C 329.26 97.57 332.20 95.65 335.13 93.76 C 333.41 92.78 332.35 93.40 331.95 95.63 C 331.27 95.17 330.58 94.72 329.90 94.26 C 334.83 92.27 336.69 86.13 341.03 83.53 C 341.27 84.13 341.75 85.33 341.99 85.93 C 343.11 85.02 343.73 83.82 343.50 82.31 L 344.37 82.83 C 344.33 80.29 347.22 79.43 348.51 77.59 C 348.38 76.42 348.32 75.25 348.28 74.09 C 347.93 75.13 347.57 76.17 347.20 77.21 C 345.88 77.62 344.59 78.52 345.40 80.26 C 344.75 80.42 343.44 80.74 342.78 80.90 C 342.71 81.77 342.57 83.50 342.50 84.36 L 340.93 82.79 C 343.74 78.54 346.75 74.13 347.76 69.07 C 347.38 63.32 348.90 57.53 347.16 51.89 Z" />
<path fill="#ffffff" opacity="1.00" d=" M 161.49 68.75 C 161.94 68.22 161.94 68.22 161.49 68.75 Z" />
<path fill="#ffffff" opacity="1.00" d=" M 160.97 68.64 L 161.49 68.75 C 160.78 70.10 159.23 72.55 157.45 72.05 C 156.44 69.98 159.80 69.53 160.97 68.64 Z" />
<path fill="#ffffff" opacity="1.00" d=" M 204.00 94.21 C 205.63 93.79 206.24 96.55 205.76 97.71 C 204.19 98.20 203.06 95.34 204.00 94.21 Z" />
<path fill="#ffffff" opacity="1.00" d=" M 328.17 95.92 C 330.14 97.07 326.73 98.87 325.71 99.61 C 325.32 99.52 324.55 99.33 324.16 99.24 C 324.16 100.14 324.27 101.03 324.50 101.91 L 323.84 101.48 C 322.27 103.73 318.67 106.86 316.03 104.58 C 313.92 105.26 311.89 106.14 309.77 106.76 C 312.92 103.60 317.41 102.24 321.14 99.87 C 320.42 101.70 318.63 102.65 317.61 104.25 C 319.20 103.95 320.21 102.51 321.79 102.18 C 321.55 101.51 321.32 100.85 321.09 100.18 C 323.23 98.42 325.86 97.46 328.17 95.92 Z" />
<path fill="#ffffff" opacity="1.00" d=" M 217.85 98.19 C 219.65 98.46 223.71 100.31 220.67 102.06 C 219.75 101.81 217.92 101.30 217.00 101.05 C 217.27 100.09 217.56 99.14 217.85 98.19 Z" />
<path fill="#ffffff" opacity="1.00" d=" M 299.05 103.18 C 299.35 103.35 299.96 103.69 300.26 103.86 L 299.68 104.65 L 298.71 104.50 C 298.80 104.17 298.96 103.51 299.05 103.18 Z" />
<path fill="#ffffff" opacity="1.00" d=" M 305.90 110.77 C 306.70 110.16 307.35 108.83 308.55 109.36 C 309.15 110.50 309.63 111.71 310.13 112.91 C 309.36 112.27 307.83 111.00 307.07 110.36 C 307.41 111.54 308.08 113.89 308.42 115.07 C 308.78 114.81 309.49 114.28 309.85 114.02 C 309.78 114.70 309.65 116.06 309.58 116.73 C 308.53 117.16 306.93 118.08 309.36 119.03 C 308.14 121.66 307.29 124.85 303.97 125.54 C 304.55 123.48 305.62 120.80 302.81 119.89 C 302.78 120.83 302.73 122.71 302.70 123.65 C 301.51 122.29 300.40 120.79 300.00 119.00 C 301.28 115.86 303.49 113.14 305.90 110.77 M 304.06 114.67 C 304.54 114.92 305.49 115.43 305.97 115.69 L 307.07 117.39 C 302.91 116.08 303.97 120.57 306.06 121.84 C 306.14 121.19 306.31 119.91 306.39 119.27 L 307.90 120.11 C 306.82 118.53 307.19 116.72 307.40 114.96 C 306.28 114.77 305.18 114.67 304.06 114.67 Z" />
<path fill="#ffffff" opacity="1.00" d=" M 267.74 114.81 C 269.75 115.49 272.24 115.17 273.77 116.93 C 274.11 118.54 273.07 120.02 272.04 121.15 C 271.51 120.80 270.44 120.11 269.91 119.77 C 267.75 118.63 266.85 121.48 266.27 122.93 C 265.48 123.42 264.67 123.86 263.83 124.25 C 265.46 122.05 267.14 119.88 268.71 117.63 C 268.46 116.92 267.98 115.52 267.74 114.81 Z" />
<path fill="#ffffff" opacity="1.00" d=" M 276.07 116.38 C 277.81 115.78 278.62 118.74 276.74 119.09 C 274.77 120.01 274.65 116.98 276.07 116.38 Z" />
<path fill="#ffffff" opacity="1.00" d=" M 247.21 117.38 L 247.80 117.13 C 251.03 118.66 246.68 120.81 247.21 117.38 Z" />
<path fill="#ffffff" opacity="1.00" d=" M 253.53 132.58 C 255.61 131.98 258.56 127.21 259.65 131.59 L 256.79 131.87 C 257.29 132.06 258.30 132.44 258.80 132.63 C 258.47 133.87 257.99 135.07 257.37 136.20 C 257.67 138.38 257.16 140.53 256.84 142.68 C 253.11 140.03 249.19 137.33 246.46 133.62 C 248.88 135.51 251.85 135.02 253.53 132.58 Z" />
<path fill="#ffffff" opacity="1.00" d=" M 272.89 136.99 C 274.45 136.63 274.98 137.24 274.49 138.84 C 272.88 139.23 272.35 138.61 272.89 136.99 Z" />
<path fill="#ffffff" opacity="1.00" d=" M 246.82 145.42 C 247.99 143.41 249.12 141.34 250.71 139.62 C 252.57 141.04 254.39 142.52 256.30 143.88 C 255.99 144.95 255.39 147.07 255.09 148.13 C 253.73 146.16 252.49 144.12 251.14 142.15 C 251.96 143.94 253.09 145.61 253.51 147.56 C 255.32 148.39 255.73 150.38 256.42 152.08 C 255.94 152.05 254.99 152.00 254.51 151.97 C 254.12 151.48 253.35 150.51 252.96 150.02 C 253.61 151.82 254.68 153.18 257.06 152.19 L 255.42 154.31 C 255.98 153.67 256.56 153.03 257.15 152.40 C 257.72 154.41 258.23 156.51 259.68 158.10 C 258.79 159.98 260.44 161.44 261.21 163.01 C 260.39 162.80 258.75 162.38 257.94 162.18 C 260.03 164.47 262.28 166.62 264.12 169.14 C 261.97 168.12 259.78 167.09 257.33 167.31 C 259.31 171.36 262.74 174.34 266.08 177.24 C 266.80 177.35 268.22 177.58 268.93 177.69 C 267.13 175.72 265.80 173.41 264.68 171.02 C 265.06 170.87 265.84 170.58 266.23 170.43 C 266.67 171.69 267.11 172.95 267.59 174.20 C 268.00 171.90 266.35 168.32 269.17 167.19 C 271.96 167.03 270.00 170.16 269.85 171.75 C 269.50 173.05 270.04 174.38 270.57 175.55 C 270.16 170.89 271.98 166.43 271.41 161.73 C 270.53 163.21 270.44 164.90 270.92 166.58 C 269.79 166.48 268.66 166.40 267.54 166.35 L 267.97 167.65 C 267.33 167.90 266.05 168.40 265.41 168.65 C 265.23 167.21 263.40 165.52 265.06 164.25 C 267.31 161.26 267.96 156.99 271.50 155.15 C 271.20 156.45 270.60 159.07 270.31 160.38 C 271.37 159.42 272.43 158.45 273.48 157.48 C 272.03 156.17 272.26 150.70 274.63 154.28 C 275.08 154.16 275.99 153.93 276.45 153.81 C 278.16 154.08 279.89 154.27 281.63 154.45 C 281.62 158.30 281.56 162.24 282.92 165.91 C 284.41 169.15 285.20 172.68 285.70 176.20 C 281.86 174.74 283.56 169.56 281.66 166.67 C 281.19 169.42 281.80 172.10 282.86 174.63 C 282.31 174.61 281.23 174.57 280.69 174.56 C 280.28 176.28 281.39 179.02 279.18 179.84 C 280.09 180.62 280.55 181.60 280.55 182.77 C 279.87 182.25 278.51 181.23 277.83 180.71 C 278.41 182.61 279.04 184.47 279.61 186.38 C 274.75 184.29 277.25 177.72 273.51 174.88 C 274.12 179.88 276.06 184.83 279.70 188.40 C 279.25 188.62 278.36 189.05 277.92 189.26 C 278.57 191.12 281.22 191.04 282.23 192.77 C 284.31 194.21 285.43 197.31 287.88 197.92 L 288.01 197.35 C 285.97 194.35 282.86 192.16 280.87 189.08 C 283.07 189.67 284.57 191.44 286.34 192.75 C 288.51 194.22 290.38 196.27 292.98 196.99 C 293.72 197.67 294.49 198.34 295.26 199.00 C 293.46 195.73 289.74 193.99 288.14 190.54 L 287.53 190.43 C 287.71 187.71 286.04 185.45 285.18 183.00 C 286.31 184.35 287.27 185.82 288.14 187.36 C 288.70 186.88 289.26 186.41 289.83 185.94 C 291.89 187.80 292.43 191.48 295.47 192.00 C 296.36 193.49 297.24 194.99 298.15 196.47 C 297.10 196.92 296.06 197.41 295.19 198.15 L 296.92 198.23 L 296.71 199.90 C 296.93 200.30 297.35 201.11 297.57 201.51 C 296.78 201.90 296.00 202.30 295.23 202.70 C 295.59 203.20 296.32 204.20 296.68 204.70 C 295.95 204.34 294.48 203.63 293.75 203.27 C 293.35 203.92 292.96 204.58 292.57 205.24 L 294.16 205.30 C 294.29 206.52 294.42 207.74 294.55 208.97 C 294.13 208.23 293.72 207.50 293.31 206.77 C 292.63 206.64 291.26 206.38 290.58 206.24 C 292.43 208.39 294.60 210.30 296.02 212.79 C 291.77 210.09 289.17 205.70 285.79 202.12 C 282.84 198.96 280.72 195.17 278.57 191.46 C 275.84 189.41 274.13 186.42 272.47 183.50 L 273.05 183.07 C 273.37 182.97 274.01 182.77 274.33 182.68 L 272.35 182.51 C 272.36 181.89 272.40 180.65 272.42 180.02 L 272.09 180.45 L 271.74 180.87 C 270.11 181.13 270.30 178.57 269.40 177.78 C 267.39 179.11 265.38 178.76 263.70 176.84 C 265.07 178.93 266.87 180.73 268.16 182.88 C 269.36 184.29 270.74 185.55 272.03 186.90 C 270.42 186.57 268.34 187.09 267.34 185.45 L 266.22 185.77 L 267.32 183.80 L 265.16 184.79 L 265.92 183.11 L 264.13 183.67 C 264.22 183.42 264.40 182.94 264.49 182.69 C 264.83 182.35 265.51 181.66 265.85 181.31 C 263.45 178.68 261.27 175.84 258.80 173.25 C 259.23 170.24 255.66 169.01 255.17 166.23 C 254.12 166.19 253.08 166.27 252.05 166.43 C 253.48 168.25 254.92 170.08 256.27 171.96 C 256.58 177.69 261.21 181.89 264.80 185.89 L 264.07 186.03 C 262.48 185.24 261.11 184.11 259.67 183.10 C 257.93 181.93 256.41 180.48 255.03 178.91 C 255.05 178.53 255.10 177.75 255.12 177.37 C 254.63 176.26 254.18 175.14 253.73 174.02 C 254.36 171.82 253.20 170.16 251.54 168.81 C 251.92 169.96 252.66 172.26 253.03 173.42 C 252.42 172.86 251.19 171.75 250.58 171.20 C 249.34 173.46 247.26 171.73 245.54 171.35 C 245.43 169.14 245.32 166.92 245.18 164.71 C 244.63 167.37 244.94 170.41 242.61 172.33 C 242.40 169.92 242.84 167.37 241.86 165.08 C 242.56 162.93 244.29 160.83 243.10 158.45 C 242.40 159.93 241.73 161.45 241.38 163.06 C 240.64 166.40 238.44 169.14 237.40 172.38 L 239.05 170.85 C 240.35 171.78 241.66 172.71 242.97 173.64 C 245.62 173.51 248.16 174.32 250.33 175.84 C 250.61 175.77 251.18 175.64 251.46 175.58 C 254.05 179.83 256.64 184.10 259.68 188.04 L 258.01 188.74 C 257.84 188.28 257.49 187.36 257.32 186.90 L 257.79 189.84 C 257.00 189.34 255.42 188.35 254.63 187.85 C 255.72 189.44 257.01 190.87 258.14 192.44 C 258.68 191.78 259.22 191.13 259.78 190.48 C 259.68 191.90 259.56 193.33 259.43 194.75 C 256.57 192.51 254.01 189.94 251.48 187.35 C 251.17 186.37 250.87 185.40 250.56 184.43 C 246.52 181.62 243.82 176.90 238.78 175.66 C 238.59 175.28 238.22 174.50 238.04 174.12 C 236.68 174.03 236.18 174.63 236.55 175.92 C 234.05 176.95 231.48 178.12 228.70 177.82 C 229.71 176.74 230.90 175.87 232.06 174.96 C 231.05 174.94 229.01 174.91 227.99 174.90 C 230.27 172.28 233.94 172.04 237.14 171.49 C 237.17 169.68 237.78 167.97 238.70 166.43 C 238.25 166.10 237.35 165.43 236.89 165.10 C 237.85 164.58 239.76 163.53 240.72 163.00 C 236.91 161.60 240.52 158.29 241.04 155.88 C 242.22 157.16 243.39 158.45 244.59 159.72 C 244.39 160.22 244.20 160.73 244.01 161.24 C 246.40 162.33 248.09 164.32 249.57 166.43 C 249.27 165.32 248.67 163.10 248.37 161.99 C 249.41 163.07 250.41 164.20 251.37 165.37 C 251.98 165.42 253.18 165.53 253.79 165.58 C 251.92 163.11 250.31 160.17 251.82 157.13 L 250.39 157.97 C 251.32 155.51 250.25 153.05 249.48 150.75 C 249.10 152.81 249.16 154.90 249.83 156.90 C 249.57 157.41 249.05 158.43 248.80 158.94 L 250.75 158.11 C 250.53 158.93 250.10 160.55 249.88 161.37 C 246.90 158.34 247.54 153.69 247.58 149.82 C 248.13 148.42 248.54 146.98 248.93 145.54 L 246.82 145.42 M 272.02 160.02 C 275.13 160.50 273.09 163.90 273.35 165.87 C 273.65 165.90 274.24 165.98 274.53 166.02 C 274.25 163.98 274.91 162.55 276.52 161.74 C 275.36 164.94 278.35 165.79 280.48 166.96 C 280.85 164.86 280.71 162.75 279.88 160.76 C 279.44 161.79 278.57 163.85 278.14 164.88 C 278.31 163.93 278.67 162.04 278.85 161.10 C 278.03 161.32 276.40 161.77 275.58 161.99 C 276.29 161.45 276.99 160.91 277.70 160.35 C 276.98 160.44 275.56 160.63 274.85 160.72 C 274.77 160.01 274.60 158.60 274.52 157.90 C 273.66 158.58 272.83 159.29 272.02 160.02 M 288.24 187.40 C 289.69 189.41 290.66 192.10 293.10 193.17 C 291.98 191.56 291.00 189.85 290.33 188.01 C 289.81 187.86 288.76 187.55 288.24 187.40 M 293.10 193.17 C 293.23 194.24 293.74 195.17 294.63 195.96 C 295.01 195.99 295.78 196.04 296.16 196.06 C 295.67 194.88 294.64 192.74 293.10 193.17 M 291.07 200.17 C 291.61 200.21 292.68 200.29 293.22 200.33 C 293.50 198.18 288.60 197.32 291.07 200.17 M 287.84 199.48 C 288.54 200.86 289.97 201.67 290.98 202.82 C 291.75 202.95 292.01 202.59 291.74 201.74 C 291.57 201.34 291.24 200.56 291.07 200.17 C 290.06 199.97 288.82 198.64 287.84 199.48 M 293.22 200.33 C 293.76 200.76 293.76 200.76 293.22 200.33 Z" />
<path fill="#ffffff" opacity="1.00" d=" M 234.26 143.41 C 237.16 143.35 240.15 143.24 242.96 144.15 C 242.43 146.90 238.10 147.01 235.85 148.17 C 234.96 147.69 234.07 147.22 233.18 146.76 C 232.99 146.40 232.60 145.70 232.41 145.35 C 234.30 145.91 234.91 145.26 234.26 143.41 Z" />
<path fill="#ffffff" opacity="1.00" d=" M 258.09 143.19 C 260.62 143.50 263.17 143.43 265.71 143.18 C 265.61 143.56 265.40 144.31 265.30 144.69 C 265.60 144.66 266.19 144.60 266.48 144.57 C 267.17 145.53 267.91 146.46 268.71 147.35 C 268.77 148.69 268.84 150.03 268.92 151.36 C 270.27 151.26 271.92 150.68 272.50 152.37 C 271.36 153.49 270.20 155.06 268.40 154.65 C 267.26 156.68 266.31 158.82 265.64 161.05 C 265.19 159.83 264.92 158.56 264.78 157.27 C 264.47 158.73 263.34 159.98 263.26 161.46 C 264.04 161.45 264.86 161.29 265.54 161.81 C 264.90 162.57 263.62 164.11 262.98 164.87 C 262.24 162.12 261.82 159.26 260.49 156.70 C 258.91 153.81 257.11 151.01 256.28 147.77 C 256.86 146.23 257.47 144.71 258.09 143.19 M 258.91 147.03 C 259.12 146.52 259.53 145.49 259.73 144.98 C 258.46 143.90 257.17 147.01 258.91 147.03 Z" />
<path fill="#ffffff" opacity="1.00" d=" M 270.04 143.85 C 274.03 144.79 274.99 149.58 277.54 152.37 C 273.11 152.34 270.23 147.83 270.04 143.85 Z" />
<path fill="#ffffff" opacity="1.00" d=" M 225.80 146.29 C 228.20 147.97 230.45 149.90 233.10 151.19 C 231.72 149.68 230.08 148.40 228.94 146.69 C 231.43 147.01 233.26 148.80 235.20 150.20 C 236.60 149.08 238.04 148.71 239.16 150.37 C 236.43 153.10 233.38 155.54 231.13 158.70 C 233.34 157.33 235.37 155.69 237.53 154.23 C 236.77 157.22 234.92 159.65 233.22 162.14 C 234.98 161.40 236.49 159.23 238.60 160.10 L 236.51 161.25 C 237.37 161.77 238.26 162.24 239.16 162.71 C 237.57 163.97 236.02 165.28 234.36 166.46 C 235.28 166.80 237.05 166.66 237.01 168.07 C 235.28 169.71 232.87 170.00 230.68 170.66 C 232.02 169.40 234.09 168.39 233.26 166.18 C 234.34 165.37 235.43 164.58 236.54 163.81 C 236.06 163.46 235.58 163.12 235.11 162.78 C 231.36 166.48 228.74 171.32 223.96 173.89 C 225.00 173.72 227.06 173.39 228.10 173.22 C 227.92 174.76 226.50 175.48 225.33 176.20 C 223.27 175.70 221.16 175.42 219.07 175.11 C 221.49 173.50 224.07 172.06 226.12 169.98 C 224.22 170.66 222.45 171.65 220.50 172.18 C 221.37 170.35 223.33 169.73 224.96 168.80 C 227.41 167.58 229.02 165.27 230.99 163.44 L 229.38 164.21 C 229.42 163.39 229.51 161.75 229.55 160.92 C 227.74 161.91 225.98 162.98 224.31 164.20 C 222.63 163.35 220.71 163.28 218.89 162.98 C 222.34 160.83 226.60 160.42 229.74 157.67 C 229.28 157.51 228.35 157.19 227.89 157.03 L 227.93 156.42 C 229.71 155.25 231.21 153.73 232.82 152.36 C 232.36 152.46 231.42 152.67 230.95 152.77 C 229.33 151.12 227.46 149.78 225.42 148.69 C 225.52 148.09 225.70 146.89 225.80 146.29 Z" />
<path fill="#ffffff" opacity="1.00" d=" M 243.26 152.70 C 240.36 151.68 242.24 147.93 243.97 146.88 C 244.78 148.83 243.50 150.78 243.26 152.70 Z" />
<path fill="#ffffff" opacity="1.00" d=" M 244.24 151.29 C 244.35 149.64 244.44 147.68 246.42 147.06 C 245.70 151.01 246.81 154.94 246.84 158.91 C 245.55 156.73 242.58 153.87 244.24 151.29 Z" />
<path fill="#ffffff" opacity="1.00" d=" M 223.30 149.03 C 225.61 150.98 228.46 151.93 231.13 153.23 C 229.75 154.20 226.84 155.08 226.38 156.68 C 226.76 156.77 227.52 156.94 227.89 157.03 L 227.98 157.57 C 224.67 159.92 220.61 160.52 216.66 160.79 C 217.77 158.74 220.50 159.14 222.34 158.18 C 219.83 157.81 217.09 158.07 214.92 156.55 C 217.24 155.97 219.62 155.73 222.01 155.58 C 219.65 155.23 217.29 154.80 215.05 153.98 C 216.76 153.75 218.48 153.54 220.20 153.33 C 219.72 152.71 218.76 151.46 218.29 150.84 C 220.68 151.65 222.81 153.05 225.14 154.01 C 224.68 151.93 222.38 151.50 220.90 150.36 C 221.56 150.37 222.90 150.38 223.56 150.39 L 223.30 149.03 Z" />
<path fill="#ffffff" opacity="1.00" d=" M 238.94 157.15 C 239.03 155.97 239.27 153.68 240.72 153.52 C 243.02 154.53 240.41 157.11 238.94 157.15 Z" />
<path fill="#ffffff" opacity="1.00" d=" M 316.86 158.01 C 317.61 157.49 318.36 156.97 319.10 156.45 C 319.85 160.02 322.53 162.76 324.33 165.86 C 324.57 164.38 325.44 163.20 326.44 162.13 L 326.46 164.04 C 327.51 163.43 329.60 162.22 330.64 161.62 C 329.52 164.19 327.71 166.28 325.77 168.24 C 325.43 168.01 324.76 167.54 324.42 167.31 L 324.84 168.42 L 322.17 168.43 L 322.55 167.19 C 321.52 168.32 320.57 169.54 319.40 170.53 C 318.86 168.01 321.09 166.63 322.07 164.70 C 320.38 166.12 319.15 167.98 317.65 169.57 C 317.10 168.65 316.56 167.72 316.04 166.80 C 316.01 163.59 312.37 162.47 311.82 159.56 C 315.63 158.96 318.17 161.94 320.76 164.13 C 319.11 162.33 317.47 160.45 316.86 158.01 Z" />
<path fill="#ffffff" opacity="1.00" d=" M 302.79 160.81 C 304.20 160.90 305.20 162.90 305.20 164.22 C 303.80 164.09 302.65 162.16 302.79 160.81 Z" />
<path fill="#ffffff" opacity="1.00" d=" M 323.09 161.45 C 323.88 162.02 323.88 162.02 323.09 161.45 Z" />
<path fill="#ffffff" opacity="1.00" d=" M 226.44 164.22 C 226.64 164.85 226.81 165.49 226.94 166.14 C 223.84 168.03 220.45 169.50 216.85 170.08 C 216.63 169.39 216.43 168.69 216.26 167.99 C 217.31 167.25 218.35 166.49 219.38 165.71 C 220.34 166.40 221.46 166.79 222.57 167.21 C 223.86 166.22 225.15 165.22 226.44 164.22 Z" />
<path fill="#ffffff" opacity="1.00" d=" M 240.93 167.19 C 242.38 166.62 242.05 169.15 241.68 169.86 C 239.99 171.47 240.06 167.94 240.93 167.19 Z" />
<path fill="#ffffff" opacity="1.00" d=" M 321.16 171.55 C 322.50 170.33 324.05 170.76 325.50 171.46 C 327.18 170.19 329.36 170.00 331.38 169.72 C 331.52 171.42 329.84 172.41 329.02 173.70 C 325.48 173.81 321.94 173.94 318.41 173.89 C 317.66 172.68 316.90 171.49 316.14 170.30 C 317.80 170.75 319.47 171.16 321.16 171.55 Z" />
<path fill="#ffffff" opacity="1.00" d=" M 308.50 176.91 C 308.40 175.34 308.00 173.73 308.61 172.21 C 309.62 173.54 310.64 174.87 311.66 176.20 C 310.61 176.45 309.55 176.68 308.50 176.91 Z" />
<path fill="#ffffff" opacity="1.00" d=" M 220.34 175.36 C 222.56 176.36 225.15 176.96 226.87 178.78 C 225.42 181.56 223.09 179.62 221.41 178.32 L 221.10 178.58 C 222.78 179.65 224.39 181.30 223.59 183.59 C 221.94 182.20 220.78 180.37 219.43 178.73 C 219.74 177.60 220.04 176.48 220.34 175.36 Z" />
<path fill="#ffffff" opacity="1.00" d=" M 237.94 182.03 C 236.11 181.17 235.10 179.20 236.08 177.28 C 237.96 177.27 239.85 177.24 241.74 177.19 L 241.42 178.60 C 241.79 178.56 242.54 178.47 242.92 178.43 C 244.44 181.26 247.49 182.88 248.85 185.81 C 250.52 188.82 252.04 192.22 255.32 193.79 C 258.78 196.44 262.86 198.84 265.09 202.67 C 262.92 201.47 260.87 200.09 258.70 198.91 C 256.53 197.29 254.90 195.02 252.56 193.62 C 253.85 196.30 257.38 198.07 257.83 200.86 L 257.66 201.44 C 257.13 200.85 256.07 199.69 255.54 199.11 L 254.52 198.61 L 254.29 198.36 L 254.19 198.27 C 254.27 198.36 254.44 198.53 254.52 198.61 C 256.74 204.13 262.06 207.37 265.79 211.75 C 261.66 210.99 259.58 206.88 256.05 205.07 C 257.29 207.63 259.29 209.69 260.92 211.99 C 258.65 211.70 257.57 209.43 255.94 208.11 C 252.33 204.95 249.19 201.31 245.82 197.91 C 247.37 202.71 251.68 205.69 254.27 209.84 C 255.66 212.07 257.94 213.80 258.47 216.50 C 256.37 215.56 255.28 213.49 254.08 211.67 C 253.38 212.03 252.69 212.39 251.99 212.75 L 252.26 213.63 C 248.87 212.21 246.66 209.31 244.22 206.73 C 244.88 208.96 246.37 210.87 246.81 213.18 C 244.01 210.47 242.92 206.49 240.17 203.74 C 240.77 205.58 241.96 209.27 242.55 211.12 C 242.11 210.41 241.21 208.99 240.77 208.28 C 240.21 209.21 239.68 210.15 239.16 211.10 C 235.76 206.10 233.11 200.57 231.19 194.84 C 230.89 193.99 230.33 193.37 229.49 192.97 C 229.83 198.64 233.48 203.28 234.66 208.65 C 236.33 210.13 237.97 211.76 238.80 213.88 C 236.81 213.09 235.47 211.38 234.09 209.82 C 234.14 209.38 234.25 208.51 234.30 208.07 C 230.84 204.68 230.22 199.50 227.10 195.92 C 227.60 199.88 230.01 203.20 230.99 207.01 C 228.91 204.90 227.63 202.19 226.22 199.63 C 225.32 195.01 225.64 190.23 226.80 185.66 C 229.15 185.72 230.11 188.06 231.47 189.58 C 231.17 189.84 230.59 190.35 230.29 190.60 C 230.63 190.51 231.30 190.31 231.64 190.22 C 234.12 196.11 236.56 202.07 238.10 208.31 C 238.59 207.93 239.07 207.57 239.56 207.20 C 237.23 201.84 234.88 196.46 233.37 190.79 C 232.55 187.12 228.88 185.32 227.26 182.14 C 229.50 182.77 231.66 183.70 233.87 184.46 C 233.47 184.81 232.69 185.51 232.29 185.86 C 232.92 186.25 233.56 186.62 234.22 186.97 L 234.12 184.73 L 235.82 185.07 C 233.47 182.69 230.64 180.93 227.42 180.01 C 229.33 178.68 232.02 178.74 234.15 179.14 C 234.22 179.57 234.35 180.41 234.41 180.84 C 235.57 181.27 236.75 181.65 237.94 182.03 M 240.25 179.98 C 240.50 181.28 240.77 182.57 241.05 183.86 C 243.25 185.70 245.70 187.56 247.09 190.08 C 247.53 192.90 249.82 194.77 250.65 197.42 C 251.68 199.31 252.88 201.36 254.93 202.29 C 253.13 198.87 250.27 195.98 249.16 192.24 C 249.57 191.92 250.40 191.29 250.82 190.97 L 249.56 191.63 C 249.17 190.40 248.74 189.15 247.72 188.30 C 245.05 185.68 242.84 182.67 240.25 179.98 M 238.62 184.22 C 237.68 185.52 239.93 186.97 240.88 185.79 C 241.99 184.45 239.55 182.96 238.62 184.22 M 233.67 188.72 C 234.22 188.94 235.34 189.36 235.90 189.58 C 235.75 190.20 235.46 191.45 235.32 192.08 C 235.62 191.55 236.23 190.49 236.53 189.96 C 241.05 197.44 244.43 205.85 251.18 211.75 C 251.60 211.20 252.02 210.65 252.44 210.11 C 249.92 206.86 246.96 203.87 245.26 200.08 C 243.02 195.86 239.00 192.76 237.38 188.20 C 236.14 188.38 234.90 188.55 233.67 188.72 Z" />
<path fill="#ffffff" opacity="1.00" d=" M 296.56 178.96 C 299.14 180.97 300.51 183.91 301.47 186.95 C 300.58 186.57 298.81 185.83 297.93 185.45 C 298.55 186.24 299.16 187.02 299.80 187.81 C 299.18 188.48 298.56 189.15 297.95 189.82 C 296.35 187.31 295.02 184.62 294.07 181.81 C 295.57 183.27 296.70 185.05 298.21 186.53 C 297.79 184.64 296.97 180.85 296.56 178.96 Z" />
<path fill="#ffffff" opacity="1.00" d=" M 258.19 182.68 C 258.56 182.79 259.30 183.00 259.67 183.10 C 259.71 183.55 259.80 184.44 259.84 184.89 L 259.14 185.06 C 258.90 184.47 258.42 183.28 258.19 182.68 Z" />
<path fill="#ffffff" opacity="1.00" d=" M 224.71 198.98 C 222.10 194.43 222.19 187.95 225.80 184.02 C 226.13 189.06 223.83 193.90 224.71 198.98 Z" />
<path fill="#ffffff" opacity="1.00" d=" M 291.75 183.49 C 295.06 187.89 299.60 191.52 301.56 196.82 C 297.61 193.07 293.09 189.00 291.75 183.49 Z" />
<path fill="#ffffff" opacity="1.00" d=" M 259.84 184.89 L 260.26 183.84 C 262.41 186.31 264.49 188.83 266.73 191.23 C 266.16 191.06 265.01 190.72 264.44 190.55 C 263.62 189.53 262.91 188.27 261.61 187.82 L 261.14 188.36 C 260.70 187.20 260.27 186.04 259.84 184.89 Z" />
<path fill="#ffffff" opacity="1.00" d=" M 264.07 186.03 C 264.13 186.23 264.24 186.63 264.30 186.83 L 263.89 186.49 L 264.07 186.03 Z" />
<path fill="#ffffff" opacity="1.00" d=" M 264.30 186.83 C 266.67 186.95 267.93 189.29 269.72 190.54 C 269.49 191.40 269.22 192.26 268.98 193.13 C 269.82 193.97 270.55 194.89 271.19 195.90 C 269.69 194.59 266.70 193.51 269.07 190.72 L 267.32 192.60 C 266.83 192.41 265.85 192.01 265.36 191.82 L 266.73 191.23 C 267.30 190.98 267.87 190.72 268.44 190.46 C 267.01 189.30 265.65 188.07 264.30 186.83 Z" />
<path fill="#ffffff" opacity="1.00" d=" M 259.68 188.04 C 260.05 188.12 260.78 188.28 261.14 188.36 C 261.15 188.71 261.18 189.42 261.19 189.77 C 259.47 190.02 258.97 189.45 259.68 188.04 Z" />
<path fill="#ffffff" opacity="1.00" d=" M 261.19 189.77 C 262.20 190.41 263.29 190.67 264.44 190.55 L 263.75 191.93 L 265.09 192.08 C 264.97 192.59 264.72 193.61 264.60 194.13 C 266.23 196.58 268.33 198.65 270.36 200.78 C 271.38 201.49 270.79 202.76 270.50 203.69 C 268.83 200.20 265.91 197.59 263.51 194.62 C 263.67 194.20 264.00 193.35 264.17 192.93 C 262.83 192.22 261.48 191.53 260.07 190.97 L 261.19 189.77 Z" />
<path fill="#ffffff" opacity="1.00" d=" M 275.01 195.79 C 282.65 199.26 284.25 208.34 289.58 214.08 C 289.14 212.86 288.27 210.43 287.84 209.21 C 290.21 210.79 291.43 213.34 292.49 215.88 L 289.80 215.00 C 290.65 216.66 291.81 218.21 291.92 220.16 C 289.31 219.11 288.48 216.09 286.87 214.00 C 285.66 210.83 283.71 208.03 282.17 205.03 C 280.52 201.41 277.05 199.15 275.01 195.79 Z" />
<path fill="#ffffff" opacity="1.00" d=" M 271.42 198.73 C 273.34 201.61 275.08 204.68 277.59 207.12 C 276.43 204.50 274.79 202.11 273.86 199.40 C 277.01 202.37 279.29 206.22 281.09 210.12 C 281.73 214.62 284.51 218.35 286.72 222.20 C 286.77 222.74 286.88 223.82 286.94 224.36 C 284.12 222.28 283.32 218.61 280.85 216.21 C 277.79 212.33 274.86 208.36 271.37 204.85 C 272.03 204.38 272.70 203.91 273.37 203.45 L 271.21 204.19 C 271.26 202.82 271.37 200.10 271.42 198.73 Z" />
<path fill="#ffffff" opacity="1.00" d=" M 257.83 200.86 C 259.17 200.56 261.27 202.32 260.81 203.75 C 259.35 204.29 257.30 202.31 257.83 200.86 Z" />
<path fill="#ffffff" opacity="1.00" d=" M 270.34 208.27 C 271.29 208.74 272.38 209.09 273.04 209.99 C 277.17 214.64 280.43 219.97 283.53 225.34 L 283.31 226.28 C 279.71 224.48 277.62 220.64 275.20 217.55 L 274.34 217.67 L 275.07 216.01 L 273.38 216.69 C 275.48 214.08 271.79 215.71 270.81 214.78 L 272.70 214.97 C 272.73 214.25 272.78 212.81 272.81 212.09 C 271.93 210.85 271.08 209.60 270.34 208.27 Z" />
<path fill="#ffffff" opacity="1.00" d=" M 248.68 213.56 C 250.69 214.39 252.25 215.94 253.90 217.30 C 254.26 218.18 254.61 219.07 254.96 219.95 C 252.69 218.08 249.29 216.76 248.68 213.56 Z" />
<path fill="#ffffff" opacity="1.00" d=" M 286.64 216.12 C 289.18 217.47 290.45 220.26 291.55 222.77 C 288.05 222.79 287.88 218.50 286.64 216.12 Z" />
<path fill="#ffffff" opacity="1.00" d=" M 269.06 219.92 C 270.01 221.03 270.76 222.29 271.66 223.45 C 272.36 223.80 273.11 223.81 273.88 223.48 C 272.81 222.52 272.24 221.35 272.15 219.98 C 275.24 223.04 278.83 225.72 281.31 229.32 C 280.87 229.47 279.98 229.77 279.54 229.92 C 279.60 231.42 279.63 232.92 279.62 234.43 C 276.04 232.41 274.70 228.03 271.95 225.08 L 271.44 224.59 C 270.59 223.06 269.72 221.54 269.06 219.92 M 272.92 225.28 C 273.24 226.42 274.40 228.26 275.79 227.77 C 276.14 226.52 274.13 223.98 272.92 225.28 Z" />
</g>
</svg>
