<?xml version="1.0" encoding="UTF-8" ?>
<!DOCTYPE svg PUBLIC "-//W3C//DTD SVG 1.1//EN" "http://www.w3.org/Graphics/SVG/1.1/DTD/svg11.dtd">
<svg width="512pt" height="256pt" viewBox="0 0 512 256" version="1.1" xmlns="http://www.w3.org/2000/svg">
<g id="#ffffffff">
<path fill="#ffffff" opacity="1.00" d=" M 181.13 21.39 C 185.96 18.06 191.01 15.00 196.53 12.93 C 196.79 13.65 197.06 14.37 197.33 15.09 C 196.89 15.42 196.01 16.09 195.58 16.42 C 193.62 16.73 192.92 18.80 191.14 19.40 C 186.73 21.36 184.12 25.62 180.96 29.05 C 178.59 32.26 175.75 35.24 174.33 39.03 C 171.60 38.87 169.15 37.61 167.04 35.94 C 168.00 34.60 168.93 33.24 169.83 31.87 C 171.02 33.30 172.35 34.70 174.26 35.08 C 173.40 33.57 171.98 32.53 170.71 31.40 C 172.70 29.03 174.84 26.79 177.33 24.92 C 179.30 26.70 180.16 23.93 178.77 22.56 C 179.54 22.56 181.08 22.55 181.85 22.55 L 181.13 21.39 M 181.24 23.12 C 181.79 23.78 181.79 23.78 181.24 23.12 M 174.20 29.19 C 174.86 29.78 174.86 29.78 174.20 29.19 Z" />
<path fill="#ffffff" opacity="1.00" d=" M 271.22 14.52 C 270.21 12.47 273.14 12.94 274.24 13.31 C 277.61 14.52 280.00 17.40 283.24 18.87 C 287.36 21.65 289.54 26.13 291.59 30.50 C 291.28 30.77 290.65 31.31 290.34 31.58 C 293.78 31.83 294.78 36.22 297.32 38.11 C 296.73 38.89 296.12 39.66 295.50 40.41 L 296.80 40.05 L 296.53 41.45 C 296.98 40.58 297.45 39.72 297.93 38.86 C 298.10 39.70 298.45 41.38 298.62 42.22 C 301.46 45.83 303.41 50.03 306.25 53.64 C 304.78 53.43 303.34 53.57 301.95 54.05 C 303.19 54.44 305.44 53.65 305.25 55.87 C 304.67 56.07 303.51 56.49 302.93 56.69 C 303.67 56.55 305.16 56.27 305.90 56.13 C 307.91 60.09 308.08 64.81 310.40 68.58 C 310.80 68.75 311.58 69.08 311.98 69.25 C 314.38 67.75 316.12 65.28 318.14 63.30 C 319.42 64.46 320.73 65.58 322.00 66.75 C 322.23 66.04 322.41 65.32 322.57 64.59 C 320.75 65.47 320.27 63.16 319.51 62.02 C 321.21 58.91 322.49 55.57 324.70 52.77 C 324.41 52.69 323.82 52.52 323.53 52.44 C 324.08 50.92 323.74 49.31 323.54 47.76 C 325.41 49.33 326.54 51.47 327.40 53.72 C 326.02 56.36 326.41 59.52 325.37 62.29 C 324.61 66.03 321.95 68.94 319.53 71.73 C 317.61 71.24 316.63 69.21 315.07 68.11 C 315.40 68.60 316.05 69.56 316.37 70.04 C 316.85 71.30 317.26 72.56 317.62 73.86 C 316.72 74.87 315.81 75.87 314.88 76.85 C 313.92 75.92 313.06 74.92 312.18 73.93 C 312.32 74.79 312.59 76.49 312.72 77.34 C 311.54 76.71 310.39 76.04 309.26 75.33 C 309.97 76.90 310.48 78.55 308.02 78.53 C 307.86 78.13 307.54 77.34 307.38 76.94 C 304.51 76.65 304.24 73.62 304.58 71.35 C 305.26 71.44 306.63 71.62 307.32 71.71 C 305.94 70.68 304.49 69.72 302.86 69.16 C 303.47 68.54 304.09 67.91 304.72 67.29 C 303.25 64.09 300.96 60.92 301.53 57.21 C 300.16 51.85 296.66 47.60 294.38 42.66 C 295.12 42.64 296.61 42.60 297.35 42.58 C 296.73 42.49 295.48 42.30 294.86 42.21 C 293.70 40.30 292.47 38.43 291.14 36.64 C 291.05 36.05 290.89 34.86 290.80 34.27 C 290.00 33.76 289.21 33.24 288.41 32.73 C 287.90 31.25 287.40 29.76 287.09 28.22 C 284.83 24.77 280.35 23.25 279.12 19.09 C 276.50 17.53 273.93 15.91 271.22 14.52 M 297.26 45.20 C 297.84 45.86 297.84 45.86 297.26 45.20 Z" />
<path fill="#ffffff" opacity="1.00" d=" M 210.06 27.23 C 212.78 24.59 217.26 24.67 220.85 23.81 C 221.82 24.08 222.80 24.34 223.78 24.59 C 223.40 25.29 223.03 25.99 222.67 26.70 C 218.45 27.09 214.78 29.32 210.86 30.71 C 209.08 31.16 207.56 32.24 206.27 33.51 C 206.68 32.13 207.13 30.77 207.71 29.45 C 206.30 30.71 204.64 30.05 203.59 28.68 C 205.26 28.55 207.43 26.05 209.08 27.07 C 209.23 27.45 209.52 28.21 209.67 28.59 C 210.38 28.76 211.06 28.73 211.71 28.48 C 211.30 28.17 210.48 27.54 210.06 27.23 Z" />
<path fill="#ffffff" opacity="1.00" d=" M 242.17 25.21 C 242.68 24.58 243.25 24.01 243.89 23.50 C 244.64 23.76 246.15 24.27 246.91 24.52 L 246.11 25.46 C 249.72 25.32 251.88 28.77 254.73 30.45 C 254.23 30.74 253.24 31.32 252.75 31.62 C 256.14 29.66 257.56 34.15 259.21 36.23 C 258.63 36.29 257.48 36.41 256.90 36.46 C 260.08 36.13 262.74 37.96 264.22 40.69 C 266.44 44.74 270.04 47.66 273.27 50.86 C 272.18 55.54 268.10 46.00 268.32 51.15 C 267.50 50.48 265.87 49.16 265.05 48.49 C 262.19 44.46 258.48 41.10 255.59 37.07 C 253.60 35.48 251.99 33.49 250.56 31.40 C 247.59 29.58 244.68 27.64 242.17 25.21 Z" />
<path fill="#ffffff" opacity="1.00" d=" M 154.89 36.80 C 158.85 33.14 162.02 28.47 167.08 26.19 C 168.03 27.92 168.80 29.73 166.89 31.19 C 166.64 30.71 166.14 29.75 165.89 29.27 C 165.90 30.81 165.46 32.31 163.97 33.00 C 160.56 36.15 157.94 39.95 157.04 44.57 C 156.84 44.66 156.43 44.84 156.23 44.93 C 154.74 43.47 151.28 42.81 151.65 40.38 C 152.03 40.29 152.80 40.11 153.18 40.02 C 152.20 38.54 154.17 37.79 154.89 36.80 Z" />
<path fill="#ffffff" opacity="1.00" d=" M 181.93 40.61 C 188.70 36.03 196.69 33.61 203.29 28.77 C 204.28 30.19 205.38 31.54 206.40 32.94 C 204.09 34.06 201.94 35.46 199.83 36.90 C 199.41 36.52 198.56 35.76 198.13 35.38 C 198.18 36.09 198.28 37.52 198.32 38.23 C 197.11 37.22 196.05 36.05 194.97 34.91 C 195.42 35.84 195.86 36.78 196.30 37.72 C 193.43 40.07 190.60 42.49 187.56 44.61 C 185.11 45.84 182.67 47.07 180.35 48.54 C 176.94 53.36 171.47 56.16 167.31 60.28 C 166.88 60.81 166.01 61.86 165.58 62.39 C 162.91 61.53 160.23 60.70 157.74 59.37 C 159.56 60.88 161.66 62.00 163.71 63.19 C 162.73 64.91 161.66 66.58 160.53 68.21 C 158.62 66.04 156.08 64.60 154.06 62.55 C 155.39 59.12 155.94 55.47 157.02 51.97 C 158.06 49.41 159.91 47.16 160.12 44.29 C 160.69 45.14 161.26 45.99 161.83 46.85 C 162.44 45.42 163.04 43.99 163.70 42.59 C 163.03 42.63 161.71 42.70 161.04 42.74 C 161.56 42.09 162.59 40.81 163.11 40.16 C 164.25 38.49 165.45 36.86 166.58 35.17 C 166.39 36.45 166.21 37.74 166.04 39.02 C 166.18 38.59 166.46 37.71 166.60 37.27 C 168.70 38.49 170.54 40.48 173.08 40.71 C 172.60 43.54 170.02 45.78 167.11 45.61 C 169.01 48.44 165.67 50.14 163.17 49.47 C 163.87 50.05 164.57 50.63 165.27 51.22 C 164.62 52.38 163.96 53.54 163.28 54.68 C 161.56 53.77 159.86 52.82 158.16 51.86 C 158.13 52.27 158.07 53.10 158.04 53.52 C 159.68 53.96 161.31 54.43 162.94 54.88 C 162.13 56.66 162.54 58.03 164.16 58.99 C 163.48 55.90 166.82 55.24 168.23 53.24 C 169.39 51.63 170.32 49.88 171.31 48.17 C 172.69 47.63 174.07 47.13 175.45 46.59 C 174.70 46.44 173.21 46.15 172.46 46.01 C 175.36 43.78 178.94 42.70 181.93 40.61 Z" />
<path fill="#ffffff" opacity="1.00" d=" M 310.28 35.35 C 315.05 34.82 318.48 38.63 322.17 40.96 C 318.64 41.52 315.61 39.44 312.36 38.53 C 311.65 37.47 310.96 36.41 310.28 35.35 Z" />
<path fill="#ffffff" opacity="1.00" d=" M 150.59 41.12 C 151.91 42.94 153.12 44.83 154.38 46.68 L 154.88 47.13 C 155.53 48.66 154.22 50.39 153.87 51.94 C 153.71 54.98 153.16 57.99 151.93 60.79 C 152.36 61.80 152.78 62.82 153.19 63.83 C 155.59 65.44 158.33 66.83 159.70 69.51 C 158.48 71.16 158.08 73.13 158.08 75.15 C 157.63 74.86 156.75 74.27 156.30 73.97 C 156.82 75.22 157.02 76.55 157.07 77.90 C 155.06 75.89 153.26 73.63 150.82 72.10 C 151.57 74.46 153.59 76.06 154.59 78.26 C 154.76 79.88 154.59 81.52 154.61 83.14 C 154.14 82.61 153.20 81.55 152.73 81.02 C 152.66 83.42 154.97 85.01 154.87 87.45 C 154.84 89.46 156.94 90.24 158.50 90.88 L 158.32 91.36 C 161.15 92.72 164.00 94.03 166.88 95.30 C 164.79 93.47 162.66 91.69 160.51 89.95 C 162.03 88.74 160.36 87.26 160.02 85.90 C 158.80 82.89 160.15 79.72 161.16 76.86 C 162.03 74.52 161.92 71.70 163.88 69.89 C 163.24 74.59 162.89 79.34 161.85 83.98 C 162.52 88.73 165.96 92.50 169.16 95.84 C 168.29 95.68 166.53 95.35 165.66 95.19 C 167.16 96.00 168.71 96.73 170.15 97.66 C 170.30 97.13 170.61 96.06 170.76 95.53 C 172.12 97.10 173.45 98.73 174.06 100.76 C 173.30 100.46 171.77 99.85 171.00 99.54 C 172.05 101.21 173.59 101.76 175.55 100.74 L 174.66 102.57 C 176.06 102.59 177.46 102.62 178.86 102.65 C 178.67 103.19 178.30 104.26 178.11 104.80 C 179.06 104.71 180.96 104.54 181.91 104.46 C 180.75 106.58 178.07 106.94 176.23 108.30 C 175.74 108.46 174.75 108.76 174.25 108.92 C 173.70 104.76 168.66 103.44 165.53 101.49 C 163.38 99.44 160.94 97.74 158.37 96.26 C 158.48 95.94 158.70 95.32 158.81 95.00 C 157.20 93.39 155.75 91.63 154.23 89.93 C 151.15 88.44 150.10 85.07 148.81 82.18 C 148.06 81.16 148.50 79.98 148.67 78.86 C 147.93 77.46 146.83 76.18 146.66 74.55 C 146.24 68.07 145.88 61.57 145.81 55.07 C 145.94 50.04 148.40 45.52 150.59 41.12 Z" />
<path fill="#ffffff" opacity="1.00" d=" M 312.31 41.20 C 316.11 41.80 319.85 43.05 323.68 43.37 C 323.93 43.21 324.44 42.87 324.69 42.70 C 325.39 43.12 326.79 43.97 327.50 44.40 C 328.06 44.32 329.20 44.16 329.76 44.08 C 328.98 45.92 329.50 47.31 331.95 46.65 C 332.58 50.01 332.55 53.43 332.55 56.83 C 332.11 59.03 331.28 61.43 328.94 62.21 C 329.53 61.00 330.20 59.82 330.89 58.66 C 330.74 54.50 330.38 50.36 328.67 46.50 C 325.05 46.25 321.50 45.42 317.92 44.93 C 315.66 44.56 312.91 43.76 312.31 41.20 Z" />
<path fill="#ffffff" opacity="1.00" d=" M 161.36 43.36 C 161.66 43.66 161.66 43.66 161.36 43.36 Z" />
<path fill="#ffffff" opacity="1.00" d=" M 267.49 51.04 C 269.25 51.60 270.69 52.70 272.00 53.96 C 272.41 53.64 273.23 52.99 273.64 52.67 C 275.16 54.22 276.70 55.75 278.15 57.37 C 276.40 58.70 279.67 59.23 279.38 60.84 C 279.44 62.26 280.58 60.98 281.12 60.70 C 281.28 63.07 282.81 64.99 283.94 66.98 C 286.85 71.56 288.75 76.92 292.58 80.83 C 292.49 81.32 292.32 82.29 292.23 82.77 C 293.96 82.83 296.07 84.27 297.50 82.52 C 299.84 83.98 301.78 85.96 302.89 88.52 C 302.48 89.32 302.08 90.13 301.69 90.94 L 300.59 90.09 C 300.41 90.95 300.07 92.67 299.89 93.53 C 297.47 91.94 295.59 89.70 293.33 87.90 C 295.04 90.16 298.61 91.92 297.85 95.21 C 294.94 93.68 293.39 90.36 290.11 89.46 C 292.35 91.92 295.42 93.80 296.69 97.00 C 295.88 96.84 294.24 96.51 293.43 96.34 C 293.63 97.79 293.59 99.28 292.47 100.39 C 291.50 103.40 288.73 105.22 286.75 107.51 C 284.90 109.92 283.04 112.32 281.09 114.65 C 280.04 114.78 279.02 114.99 278.01 115.26 C 278.70 115.28 280.06 115.32 280.74 115.35 C 280.29 116.76 279.43 117.61 278.19 117.88 C 275.34 115.82 272.91 113.33 270.83 110.50 C 273.11 111.26 273.11 108.61 274.03 107.39 C 275.96 106.25 277.19 104.34 278.70 102.75 C 278.18 102.46 277.67 102.17 277.16 101.89 C 276.14 104.00 274.25 105.49 272.33 106.74 C 273.29 103.19 276.99 101.62 278.60 98.49 C 280.11 95.69 281.88 92.95 282.72 89.85 C 283.41 83.38 281.81 76.86 279.04 71.03 C 280.23 72.26 281.38 73.52 282.63 74.69 C 282.57 69.48 277.53 66.53 276.93 61.59 C 276.57 62.28 275.83 63.67 275.47 64.36 C 272.29 60.23 270.83 55.07 267.49 51.04 M 272.75 57.23 C 271.91 58.31 273.44 60.12 274.62 59.68 C 274.97 58.68 274.02 56.57 272.75 57.23 M 282.57 76.57 C 282.91 78.99 283.48 81.36 284.12 83.72 C 284.82 81.96 284.51 80.06 284.54 78.23 C 284.05 77.81 283.06 76.98 282.57 76.57 M 284.49 83.07 C 284.64 85.10 282.62 90.59 286.38 89.80 C 285.82 87.54 285.24 85.27 284.49 83.07 M 278.34 100.09 C 278.84 100.62 279.34 101.16 279.84 101.70 C 281.68 98.51 284.52 95.90 285.91 92.38 L 286.61 94.01 L 287.40 93.86 C 287.27 93.46 287.01 92.66 286.87 92.27 C 286.29 91.89 285.13 91.15 284.55 90.78 C 281.60 93.38 281.68 97.87 278.34 100.09 Z" />
<path fill="#ffffff" opacity="1.00" d=" M 303.36 77.01 C 304.60 76.91 305.77 77.48 306.97 77.73 C 308.84 79.59 310.62 83.61 313.25 76.84 C 310.83 81.41 306.36 84.34 303.60 88.67 L 303.48 86.58 C 301.28 85.49 299.67 83.64 297.98 81.93 C 299.03 81.30 300.09 80.68 301.16 80.08 C 301.87 79.04 302.57 77.99 303.36 77.01 Z" />
<path fill="#ffffff" opacity="1.00" d=" M 246.51 85.40 C 247.59 85.80 248.67 86.20 249.76 86.59 C 252.25 89.72 254.53 93.03 256.40 96.57 C 260.74 102.31 265.73 107.84 268.18 114.73 C 264.67 114.86 258.79 114.73 258.37 110.13 C 257.99 106.14 254.49 103.59 253.26 99.93 C 251.71 95.80 249.57 91.91 246.59 88.64 C 246.57 87.56 246.54 86.48 246.51 85.40 M 256.28 100.23 C 256.75 103.53 259.16 98.46 256.28 100.23 M 264.74 111.90 C 264.49 113.28 265.08 113.88 266.50 113.70 C 266.70 112.34 266.11 111.74 264.74 111.90 Z" />
<path fill="#ffffff" opacity="1.00" d=" M 207.92 90.04 C 207.03 88.00 209.24 86.23 211.11 86.24 C 210.52 95.16 217.50 101.68 219.12 110.02 C 220.13 113.20 222.66 115.72 223.20 119.09 C 221.40 117.51 219.77 115.77 218.14 114.04 C 216.55 113.06 214.35 112.78 213.39 111.04 C 213.47 109.24 213.53 107.43 213.58 105.63 C 214.23 105.57 215.52 105.44 216.17 105.37 C 215.20 104.86 214.20 104.39 213.19 103.98 C 211.45 99.33 208.57 95.06 207.92 90.04 Z" />
<path fill="#ffffff" opacity="1.00" d=" M 178.65 108.32 C 180.42 107.71 182.16 107.04 183.89 106.32 C 186.00 107.99 188.55 109.79 191.39 109.33 C 192.45 111.90 195.73 111.81 197.99 112.00 C 196.46 113.13 193.41 115.40 191.88 116.54 C 194.54 115.70 196.88 114.34 198.90 112.47 C 202.62 112.79 206.56 115.48 210.18 113.68 C 210.26 114.19 210.43 115.20 210.51 115.71 C 208.13 116.23 206.03 117.36 204.59 119.35 C 204.59 120.21 204.59 121.92 204.60 122.78 L 203.39 122.80 C 203.20 121.79 202.83 119.78 202.64 118.77 C 201.96 119.31 200.59 120.39 199.91 120.94 C 199.83 120.54 199.68 119.75 199.60 119.36 C 199.09 119.44 198.07 119.60 197.55 119.68 L 197.61 117.39 C 196.46 118.11 195.32 118.84 194.19 119.59 C 194.27 119.16 194.45 118.31 194.54 117.88 C 193.78 117.77 192.27 117.56 191.51 117.46 L 191.74 116.52 C 189.75 115.83 187.68 115.23 185.54 115.34 C 186.20 114.70 187.52 113.41 188.18 112.77 C 186.53 113.39 184.91 114.09 183.31 114.83 C 182.53 114.23 181.76 113.63 180.99 113.03 C 183.38 112.45 185.64 111.50 187.85 110.44 C 185.58 110.92 183.36 111.61 181.26 112.60 C 179.49 111.59 177.56 110.91 175.61 110.33 L 177.56 108.26 C 178.99 109.51 180.79 109.88 182.66 109.40 C 181.31 109.10 179.97 108.75 178.65 108.32 Z" />
<path fill="#ffffff" opacity="1.00" d=" M 214.12 115.21 C 213.73 114.19 213.38 113.16 213.05 112.12 C 215.98 114.24 219.00 116.34 221.27 119.20 C 220.48 120.14 219.73 121.12 219.01 122.13 C 220.82 121.25 222.45 120.08 224.08 118.92 C 223.99 119.37 223.81 120.29 223.73 120.74 L 223.32 121.39 L 223.02 122.26 C 221.58 122.74 220.12 123.18 218.70 123.71 C 219.76 123.57 221.86 123.29 222.92 123.16 C 222.13 125.83 220.51 128.28 217.76 129.28 C 218.46 128.43 219.87 126.74 220.57 125.89 C 219.01 126.00 215.06 128.88 215.29 125.69 C 212.46 126.31 211.27 122.50 208.25 124.22 C 209.11 123.27 209.99 122.33 210.89 121.41 C 212.29 122.22 213.64 123.11 215.06 123.89 C 216.08 123.46 217.05 122.95 218.06 122.49 C 216.15 122.78 214.38 122.18 212.90 121.00 L 211.81 121.08 L 212.72 119.68 C 211.08 119.55 209.44 119.40 207.81 119.24 C 208.87 118.08 209.96 116.94 210.97 115.73 C 212.01 115.56 213.06 115.39 214.12 115.21 Z" />
<path fill="#ffffff" opacity="1.00" d=" M 269.24 113.29 C 269.80 113.25 270.91 113.17 271.47 113.13 C 273.33 114.93 275.45 116.45 277.37 118.19 L 275.00 119.46 C 275.50 119.52 276.48 119.64 276.97 119.70 C 277.90 121.17 277.01 123.34 277.25 125.06 C 278.19 125.98 279.13 126.89 280.11 127.78 C 279.86 128.59 279.60 129.40 279.34 130.21 C 278.84 129.38 277.84 127.72 277.34 126.89 C 277.79 128.05 278.29 129.16 278.82 130.29 C 276.08 130.30 273.36 130.64 270.72 131.36 C 268.04 130.49 265.97 128.43 266.37 125.42 C 263.35 122.98 262.84 119.24 263.39 115.59 C 265.47 116.22 267.54 116.88 269.60 117.58 C 269.65 116.13 269.53 114.70 269.24 113.29 M 264.25 117.93 C 264.47 121.23 267.38 116.50 264.25 117.93 Z" />
<path fill="#ffffff" opacity="1.00" d=" M 204.73 121.27 C 205.25 117.94 208.93 119.49 210.27 121.15 C 209.24 122.58 205.03 125.38 205.20 121.85 L 206.92 121.33 C 206.37 121.31 205.27 121.28 204.73 121.27 Z" />
<path fill="#ffffff" opacity="1.00" d=" M 257.03 124.12 C 257.97 122.42 259.03 120.81 260.08 119.18 C 260.41 122.30 261.79 125.11 263.55 127.65 L 262.24 127.83 C 263.05 130.11 265.02 132.05 264.95 134.58 L 263.95 132.53 C 262.65 136.26 257.66 133.44 256.42 131.02 C 255.91 131.17 254.91 131.45 254.41 131.60 C 255.03 129.10 255.08 126.20 257.25 124.44 C 257.26 125.47 257.27 127.52 257.27 128.55 C 260.04 126.87 260.37 130.94 261.18 132.48 C 261.56 132.01 261.95 131.54 262.34 131.08 C 261.92 130.30 261.10 128.76 260.69 127.98 C 259.47 126.70 258.19 125.46 257.03 124.12 Z" />
<path fill="#ffffff" opacity="1.00" d=" M 225.14 121.17 C 231.27 124.67 237.03 128.80 242.82 132.84 C 241.41 134.70 240.04 136.60 238.72 138.54 C 238.10 137.91 236.86 136.65 236.24 136.02 C 237.02 135.18 237.80 134.35 238.59 133.53 L 238.77 132.93 C 238.41 132.00 237.45 130.92 236.35 131.40 C 233.83 133.19 231.78 135.62 228.87 136.85 C 229.75 137.38 231.51 138.43 232.40 138.96 C 232.82 138.79 233.66 138.45 234.08 138.28 C 237.20 139.56 239.34 142.22 241.80 144.40 C 243.72 143.37 245.72 142.54 247.69 141.63 C 247.08 140.61 245.95 139.84 244.66 140.61 C 244.12 139.47 243.60 138.33 243.13 137.17 C 242.80 137.65 242.15 138.60 241.82 139.07 C 241.99 139.50 242.34 140.35 242.51 140.77 C 242.19 141.07 241.53 141.68 241.20 141.98 C 241.20 141.28 241.21 139.89 241.22 139.20 C 240.65 139.19 239.52 139.19 238.95 139.19 C 240.92 136.95 242.89 134.69 244.70 132.31 C 245.25 133.03 245.80 133.75 246.36 134.48 C 247.26 134.56 248.37 134.36 248.76 135.51 C 249.83 135.79 250.91 136.08 251.99 136.37 C 251.60 139.06 250.33 141.56 248.45 143.53 C 246.04 144.85 243.67 146.27 241.23 147.53 C 239.87 145.18 238.54 142.77 236.48 140.93 C 234.17 142.33 231.49 142.67 228.94 143.36 C 228.30 142.76 227.79 142.03 227.21 141.37 C 228.12 141.77 229.02 142.19 229.92 142.61 C 231.33 141.67 232.81 140.83 234.28 139.98 C 231.82 139.70 229.64 138.52 228.14 136.56 C 228.78 136.02 229.42 135.47 230.06 134.94 C 228.53 134.07 226.89 133.57 225.16 133.43 L 225.43 132.64 C 224.35 132.45 223.28 132.26 222.21 132.06 C 221.66 131.45 220.57 130.23 220.02 129.62 C 221.32 129.05 222.62 128.49 223.93 127.92 C 223.78 128.51 223.50 129.69 223.35 130.28 C 223.92 130.35 225.05 130.48 225.61 130.54 C 225.58 131.10 225.50 132.23 225.47 132.79 C 226.53 132.14 227.59 131.49 228.66 130.83 L 229.20 131.95 C 229.63 131.94 230.48 131.92 230.91 131.91 L 231.40 132.77 L 232.24 133.28 L 232.06 131.90 C 233.18 131.25 234.30 130.61 235.39 129.91 C 233.97 130.21 232.66 130.78 231.23 130.97 C 228.58 130.03 231.55 127.98 232.04 126.49 C 231.58 126.39 230.65 126.19 230.18 126.10 C 229.55 127.58 228.69 128.95 227.69 130.22 L 227.47 128.49 C 226.58 128.42 224.80 128.28 223.92 128.21 C 225.53 126.86 226.78 123.75 229.51 125.43 C 226.96 121.98 225.11 126.77 222.44 126.96 C 222.99 125.58 223.77 124.23 223.50 122.67 L 224.67 122.58 C 224.79 122.23 225.02 121.52 225.14 121.17 Z" />
<path fill="#ffffff" opacity="1.00" d=" M 185.50 129.04 C 185.70 126.71 188.21 125.04 190.38 126.07 C 189.05 127.38 187.57 128.52 186.17 129.75 C 186.40 133.82 186.32 137.90 186.48 141.97 C 186.54 144.72 188.35 146.90 189.56 149.23 C 190.65 151.20 191.22 153.58 193.26 154.87 C 193.59 153.19 194.39 151.60 195.96 150.79 C 195.74 152.47 195.04 154.01 194.26 155.50 C 194.73 155.60 195.66 155.81 196.13 155.92 C 196.19 153.80 196.90 151.79 198.61 150.41 C 198.37 151.41 197.89 153.40 197.65 154.40 L 196.64 154.65 C 196.85 155.87 197.42 156.10 198.35 155.35 L 197.65 154.40 C 198.25 153.81 199.45 152.64 200.05 152.06 C 200.21 152.59 200.53 153.67 200.70 154.20 L 201.97 155.00 C 201.79 155.45 201.43 156.36 201.25 156.81 C 202.60 154.29 204.41 157.92 206.11 158.21 C 205.95 157.22 205.62 155.24 205.46 154.25 C 206.90 154.82 208.45 156.47 210.05 155.10 L 209.85 156.45 C 210.92 156.78 213.06 157.45 214.13 157.79 C 213.69 156.81 212.82 154.84 212.38 153.86 C 213.43 155.06 214.23 156.47 215.52 157.47 L 215.46 155.20 C 215.64 155.22 216.00 155.25 216.18 155.27 C 216.52 157.18 217.33 158.95 218.13 160.70 C 216.95 160.58 215.78 160.46 214.61 160.33 C 212.96 160.38 211.34 160.07 209.79 159.55 C 209.40 158.22 208.94 156.93 208.41 155.66 C 208.43 157.90 207.75 159.67 205.38 159.76 L 205.65 158.04 L 203.66 158.33 L 203.87 159.73 C 202.08 159.24 199.47 159.41 198.78 157.25 C 198.02 156.97 196.51 156.42 195.76 156.14 C 196.33 157.04 197.47 158.82 198.05 159.72 C 195.76 157.10 191.85 156.28 190.41 152.92 C 188.52 149.46 185.05 146.27 185.55 142.01 C 185.78 137.68 185.30 133.35 185.50 129.04 M 199.16 155.31 C 199.87 155.84 199.87 155.84 199.16 155.31 Z" />
<path fill="#ffffff" opacity="1.00" d=" M 191.10 126.13 C 192.62 126.46 194.29 126.45 195.63 127.34 C 197.07 128.46 199.33 128.13 200.20 130.00 C 198.33 129.61 196.57 128.89 194.78 128.25 C 193.03 128.44 191.15 127.90 189.59 128.96 C 190.08 128.01 190.59 127.07 191.10 126.13 Z" />
<path fill="#ffffff" opacity="1.00" d=" M 280.44 135.21 C 280.89 133.10 279.68 130.90 280.75 128.91 C 282.32 132.07 283.76 135.49 283.58 139.10 C 280.64 138.04 278.57 135.51 275.83 134.05 C 275.28 134.61 274.18 135.73 273.63 136.29 L 276.21 136.11 L 276.46 137.78 C 275.89 137.65 274.75 137.38 274.17 137.24 L 274.72 138.33 C 272.67 140.39 270.47 142.34 267.88 143.70 C 268.72 142.42 269.77 141.29 270.86 140.21 C 269.19 140.42 267.53 140.58 265.86 140.67 C 266.86 139.94 267.88 139.26 268.96 138.64 C 268.74 137.24 268.51 135.83 267.99 134.51 C 268.08 135.77 268.22 137.03 268.34 138.29 C 267.49 138.51 265.77 138.97 264.92 139.19 L 265.74 137.40 C 263.53 138.47 261.25 137.67 259.61 136.04 C 260.50 136.15 262.27 136.37 263.16 136.47 C 265.57 134.93 268.29 133.81 270.35 131.74 C 272.99 131.40 275.67 131.32 278.31 130.84 C 278.77 131.09 279.69 131.60 280.16 131.85 C 279.30 132.97 279.45 134.23 280.44 135.21 M 271.23 135.33 C 270.19 135.95 269.67 136.80 269.67 137.89 C 270.91 137.72 274.21 136.95 273.63 135.35 C 273.03 135.35 271.83 135.33 271.23 135.33 Z" />
<path fill="#ffffff" opacity="1.00" d=" M 205.55 131.96 C 210.18 133.89 217.68 133.83 218.99 139.85 C 216.24 138.36 214.72 134.35 211.20 134.66 C 208.83 135.62 207.01 133.49 205.55 131.96 Z" />
<path fill="#ffffff" opacity="1.00" d=" M 203.88 132.16 C 205.56 133.94 207.22 135.94 209.59 136.81 C 208.73 137.88 207.94 139.01 207.17 140.14 C 206.72 139.34 206.27 138.53 205.83 137.73 C 204.32 137.16 203.19 135.99 201.99 134.98 L 203.49 134.37 C 203.59 133.81 203.78 132.71 203.88 132.16 Z" />
<path fill="#ffffff" opacity="1.00" d=" M 233.42 136.68 C 233.42 135.04 236.34 131.19 237.19 134.12 C 236.18 135.11 234.90 136.76 233.42 136.68 Z" />
<path fill="#ffffff" opacity="1.00" d=" M 198.80 134.84 C 199.75 136.17 201.11 136.64 202.68 136.47 C 202.52 137.37 202.36 138.28 202.21 139.18 C 200.83 139.23 199.45 139.32 198.08 139.49 C 198.32 137.93 198.56 136.38 198.80 134.84 Z" />
<path fill="#ffffff" opacity="1.00" d=" M 208.62 138.87 C 209.62 133.87 217.06 143.07 211.44 142.91 C 210.80 141.50 207.65 140.69 208.62 138.87 Z" />
<path fill="#ffffff" opacity="1.00" d=" M 255.82 138.78 C 256.28 138.60 257.19 138.25 257.64 138.08 C 257.59 138.42 257.49 139.10 257.44 139.44 C 260.72 139.74 258.96 143.63 259.22 145.66 C 256.50 145.15 256.57 142.58 257.37 140.55 C 255.14 142.49 255.56 146.59 252.28 147.32 C 250.91 148.00 249.85 149.13 248.67 150.06 L 249.04 148.25 C 248.17 148.42 246.43 148.75 245.55 148.92 C 247.44 146.24 250.91 145.97 253.68 144.70 C 254.63 142.81 255.29 140.81 255.82 138.78 Z" />
<path fill="#ffffff" opacity="1.00" d=" M 273.91 142.54 C 272.08 140.17 275.65 139.03 276.85 137.47 C 277.56 137.79 278.99 138.42 279.70 138.74 C 279.78 138.87 279.92 139.13 280.00 139.27 C 277.73 139.86 275.73 141.08 273.91 142.54 Z" />
<path fill="#ffffff" opacity="1.00" d=" M 221.80 146.62 C 221.20 144.40 220.39 141.40 222.84 140.00 C 222.74 141.97 222.46 143.92 222.17 145.87 L 224.13 145.26 C 223.74 145.56 222.97 146.16 222.58 146.46 C 221.45 148.79 220.55 151.34 218.57 153.11 C 218.34 150.58 219.80 148.60 221.03 146.58 L 221.80 146.62 Z" />
<path fill="#ffffff" opacity="1.00" d=" M 282.16 143.62 C 282.77 142.42 283.40 141.22 284.03 140.03 C 284.82 141.27 285.63 142.50 286.45 143.72 C 285.77 145.04 285.17 146.39 284.71 147.80 C 285.49 147.81 287.05 147.82 287.83 147.82 C 286.61 150.28 284.81 152.35 282.83 154.21 L 282.53 152.41 L 280.64 153.22 C 281.71 151.00 283.82 149.09 283.49 146.41 C 281.60 144.95 279.89 148.12 280.89 149.61 C 280.03 150.55 279.21 151.51 278.40 152.49 C 277.81 151.94 276.61 150.82 276.02 150.26 C 276.56 152.90 279.80 153.64 281.65 155.30 C 280.85 156.12 279.25 157.75 278.45 158.56 C 279.39 158.25 281.27 157.64 282.21 157.33 C 283.25 159.12 284.39 161.29 286.81 161.06 C 286.37 158.64 285.37 156.42 283.96 154.41 C 285.01 153.19 286.11 152.00 287.25 150.85 C 290.53 152.15 287.02 155.05 289.46 156.64 C 288.60 158.03 288.25 159.62 288.35 161.25 C 288.85 160.03 289.33 158.79 289.80 157.55 L 291.30 158.88 C 289.19 160.75 291.04 163.13 291.81 165.06 C 293.99 169.23 294.81 174.24 298.54 177.44 C 303.22 180.88 304.65 186.96 308.61 191.00 C 308.15 191.34 307.22 192.02 306.76 192.36 C 305.98 191.47 305.14 190.65 304.28 189.87 C 304.74 189.42 305.66 188.52 306.12 188.07 C 305.09 187.07 304.12 186.03 303.01 185.14 C 301.77 185.77 300.55 186.43 299.36 187.13 C 299.47 186.44 299.68 185.06 299.79 184.37 C 299.28 184.50 298.26 184.76 297.75 184.89 C 297.54 184.20 297.12 182.84 296.90 182.16 C 295.46 182.04 294.65 183.53 293.56 184.21 C 293.48 183.68 293.32 182.64 293.24 182.12 C 291.43 183.37 289.56 184.62 287.26 184.56 C 288.78 182.63 291.00 181.53 293.03 180.24 C 293.73 178.67 295.35 179.40 296.65 179.48 L 295.97 177.74 L 297.86 178.78 L 298.13 178.11 C 297.11 177.70 296.10 177.29 295.09 176.88 L 296.09 178.76 C 294.25 178.16 292.69 178.60 291.42 180.09 C 291.25 179.27 290.92 177.64 290.76 176.83 C 289.28 177.53 287.85 178.33 286.36 179.01 C 288.19 176.84 290.66 175.38 292.82 173.58 C 292.34 173.45 291.37 173.19 290.89 173.06 C 289.40 171.28 293.68 171.50 293.61 169.65 C 290.20 170.57 288.43 174.44 284.57 174.30 C 285.30 173.28 286.76 171.24 287.50 170.22 C 287.31 169.72 286.94 168.72 286.75 168.22 C 287.36 168.04 288.57 167.68 289.18 167.50 C 289.00 167.19 288.66 166.56 288.49 166.25 C 285.84 167.46 283.39 169.01 281.01 170.66 C 282.32 169.13 283.44 167.19 285.22 166.23 C 289.32 166.05 284.02 164.22 285.56 162.39 C 283.79 162.50 282.07 162.19 280.40 161.64 C 278.78 160.21 277.15 158.78 275.45 157.45 C 274.87 156.27 274.28 155.07 274.22 153.73 C 272.05 152.66 271.15 150.28 270.71 148.05 C 271.03 147.86 271.66 147.47 271.98 147.27 C 272.95 148.38 274.88 150.59 275.85 151.70 L 274.74 148.41 C 276.42 145.94 278.34 143.56 281.00 142.09 C 281.11 144.16 278.93 144.93 277.76 146.25 C 280.93 146.41 284.20 145.92 285.45 142.46 C 284.63 142.75 282.98 143.33 282.16 143.62 M 277.49 149.99 C 278.51 150.90 280.18 149.23 279.64 148.14 C 278.64 147.37 276.85 148.86 277.49 149.99 M 289.05 163.26 C 287.39 166.19 292.56 163.42 289.05 163.26 M 289.46 169.25 C 291.10 169.44 291.77 168.79 291.46 167.30 C 289.77 167.02 289.10 167.67 289.46 169.25 M 297.96 182.63 C 299.01 182.47 300.08 182.25 301.13 182.00 C 300.62 181.21 299.60 179.64 299.09 178.85 C 297.64 179.74 297.27 181.01 297.96 182.63 Z" />
<path fill="#ffffff" opacity="1.00" d=" M 192.46 145.78 C 193.63 144.08 194.69 142.27 196.31 140.95 L 196.23 143.65 C 196.59 143.56 197.32 143.38 197.69 143.29 C 197.53 145.50 199.96 146.86 199.32 149.18 C 198.79 148.60 197.73 147.44 197.20 146.86 C 197.36 147.77 197.70 149.58 197.86 150.49 C 195.27 149.61 196.40 146.58 195.27 144.70 C 194.90 146.76 193.93 148.63 192.51 150.14 C 192.96 148.57 193.49 147.02 194.00 145.47 L 192.46 145.78 Z" />
<path fill="#ffffff" opacity="1.00" d=" M 213.41 144.09 C 213.61 142.71 213.99 141.40 214.57 140.14 C 214.92 142.50 215.00 144.94 214.45 147.28 C 212.68 148.93 207.72 149.87 207.53 146.53 C 207.01 146.54 205.99 146.55 205.47 146.56 L 205.90 144.95 C 206.39 145.12 207.37 145.47 207.86 145.64 C 208.60 143.22 211.58 144.58 213.41 144.09 Z" />
<path fill="#ffffff" opacity="1.00" d=" M 260.55 141.61 C 262.39 143.60 265.02 144.95 266.14 147.52 C 266.48 147.01 267.16 146.00 267.50 145.50 C 268.05 146.30 268.59 147.11 269.11 147.93 C 269.78 149.29 272.26 152.27 269.09 152.25 C 267.40 150.69 266.52 148.46 264.89 146.86 L 265.55 149.52 C 264.64 149.89 263.73 150.27 262.82 150.66 C 262.53 149.12 262.27 147.58 262.01 146.05 C 261.44 146.52 260.29 147.48 259.72 147.96 C 259.94 145.84 260.26 143.72 260.55 141.61 Z" />
<path fill="#ffffff" opacity="1.00" d=" M 223.90 146.66 L 225.15 146.72 C 224.67 147.74 224.15 148.74 223.59 149.72 L 223.07 150.39 L 223.25 150.83 C 223.84 150.59 225.03 150.10 225.62 149.86 C 225.00 150.87 224.33 151.85 223.62 152.79 C 223.28 152.56 222.59 152.09 222.24 151.85 C 221.77 152.35 220.82 153.34 220.35 153.83 C 221.32 151.61 221.91 148.96 224.02 147.49 L 223.90 146.66 Z" />
<path fill="#ffffff" opacity="1.00" d=" M 226.29 152.88 C 225.54 151.87 226.88 150.04 228.09 150.46 C 228.92 151.46 227.46 153.28 226.29 152.88 Z" />
<path fill="#ffffff" opacity="1.00" d=" M 247.14 150.52 C 248.73 151.73 250.08 153.18 251.50 154.58 C 250.76 154.62 249.28 154.69 248.54 154.72 C 249.92 155.51 251.48 155.61 253.04 155.66 C 252.35 154.19 251.67 152.74 250.98 151.29 C 252.51 151.60 254.14 151.86 255.32 153.01 C 254.69 153.15 253.45 153.44 252.82 153.58 C 253.72 154.11 255.50 155.17 256.40 155.69 C 255.73 155.66 254.40 155.59 253.74 155.55 C 253.63 155.96 253.41 156.77 253.30 157.18 C 254.12 157.60 255.77 158.45 256.60 158.87 L 256.62 156.93 C 258.00 157.82 259.34 159.01 261.07 158.38 C 261.29 158.69 261.73 159.33 261.95 159.64 C 260.59 159.64 259.24 159.62 257.89 159.58 L 258.48 160.94 C 256.89 160.67 255.29 160.50 253.68 160.45 C 252.61 161.19 251.48 161.84 250.37 162.51 C 248.83 160.03 246.27 158.41 244.78 155.91 C 246.98 154.15 248.24 158.10 250.14 158.90 C 248.97 156.38 246.47 154.87 245.08 152.49 C 245.81 152.96 247.26 153.89 247.99 154.36 L 247.14 150.52 Z" />
<path fill="#ffffff" opacity="1.00" d=" M 235.92 156.09 C 236.73 156.90 237.51 157.73 238.27 158.59 C 238.55 158.15 239.11 157.29 239.39 156.85 C 241.04 158.61 243.31 160.49 242.91 163.18 C 241.40 162.40 240.27 161.15 239.23 159.86 C 237.84 158.87 236.23 157.92 235.92 156.09 Z" />
<path fill="#ffffff" opacity="1.00" d=" M 223.00 157.74 C 225.31 159.07 226.16 162.91 229.31 162.31 L 229.54 163.85 L 231.76 163.59 L 231.45 165.85 C 229.30 165.48 227.17 165.11 225.06 164.60 L 226.21 163.04 C 224.39 164.53 223.10 163.06 222.17 161.60 C 222.98 161.97 224.60 162.70 225.41 163.06 C 224.42 161.37 223.62 159.60 223.00 157.74 Z" />
<path fill="#ffffff" opacity="1.00" d=" M 243.49 157.85 C 245.38 159.02 248.14 160.25 248.06 162.86 C 246.37 161.35 244.80 159.70 243.49 157.85 Z" />
<path fill="#ffffff" opacity="1.00" d=" M 217.11 162.67 C 220.55 164.29 220.90 169.50 225.29 169.82 C 224.53 170.72 223.69 171.52 222.76 172.24 L 224.45 172.46 C 224.69 174.61 223.44 177.51 225.47 179.08 C 225.50 177.42 225.45 175.76 225.45 174.10 C 226.10 173.65 227.39 172.77 228.04 172.32 C 228.21 175.12 227.32 178.69 229.71 180.79 C 230.39 181.93 230.41 183.75 231.91 184.20 L 232.65 184.13 C 230.34 180.03 230.49 175.48 230.48 170.95 C 233.44 173.03 236.27 175.30 239.05 177.63 C 236.06 176.98 233.64 174.95 231.17 173.27 C 231.55 174.73 232.46 175.66 233.92 176.06 C 234.61 177.60 236.32 180.48 233.46 180.72 C 233.58 182.62 233.60 184.54 233.93 186.42 C 233.49 186.10 232.61 185.44 232.17 185.11 C 230.99 187.00 233.49 189.12 232.16 191.16 L 234.04 189.69 L 233.24 191.81 C 233.78 191.77 234.85 191.68 235.39 191.63 C 234.60 192.69 233.81 193.75 233.02 194.80 C 232.47 193.63 232.28 192.40 232.44 191.13 L 230.93 191.79 C 231.34 190.69 231.74 189.59 232.14 188.49 C 231.51 188.79 230.25 189.39 229.62 189.69 C 229.85 190.63 230.32 192.50 230.55 193.43 C 230.03 192.94 228.99 191.98 228.47 191.49 C 227.82 191.91 227.18 192.33 226.54 192.75 C 227.28 194.05 228.01 195.38 228.62 196.77 C 225.46 193.96 222.93 190.18 222.51 185.88 C 222.91 184.44 223.91 182.76 225.66 183.34 C 225.71 182.76 225.81 181.59 225.86 181.01 C 225.38 181.59 224.41 182.77 223.93 183.36 C 223.84 182.50 223.66 180.79 223.57 179.93 C 223.46 181.79 223.88 184.08 221.91 185.19 C 220.73 180.37 221.89 175.48 221.35 170.62 L 223.84 171.24 C 220.67 169.30 218.44 166.09 217.11 162.67 Z" />
<path fill="#ffffff" opacity="1.00" d=" M 246.35 164.16 C 248.18 165.78 249.21 168.68 251.92 168.97 C 254.12 169.57 258.18 170.22 256.72 173.51 C 254.79 174.27 253.31 172.73 252.25 171.41 C 251.94 171.76 251.30 172.47 250.99 172.82 C 249.52 170.48 246.49 171.56 244.25 171.02 C 245.71 169.95 247.26 168.96 248.47 167.58 C 247.40 167.87 245.25 168.44 244.18 168.73 L 244.97 167.26 C 245.39 167.02 246.21 166.54 246.62 166.30 C 246.56 165.76 246.42 164.69 246.35 164.16 Z" />
<path fill="#ffffff" opacity="1.00" d=" M 251.50 166.52 C 251.52 165.15 252.98 164.72 253.86 164.00 C 254.46 165.67 253.38 167.70 251.50 166.52 Z" />
<path fill="#ffffff" opacity="1.00" d=" M 257.81 170.04 C 259.85 169.74 261.19 168.12 262.75 166.93 C 263.45 167.85 264.19 168.76 264.85 169.72 C 263.98 170.31 263.09 170.87 262.22 171.47 C 261.71 171.13 260.68 170.45 260.17 170.11 C 260.22 172.12 259.65 173.52 257.75 172.31 C 257.76 171.74 257.79 170.61 257.81 170.04 Z" />
<path fill="#ffffff" opacity="1.00" d=" M 273.24 169.31 C 273.88 169.91 273.88 169.91 273.24 169.31 Z" />
<path fill="#ffffff" opacity="1.00" d=" M 270.86 171.50 C 271.75 171.26 273.52 170.78 274.41 170.54 L 274.26 171.25 C 273.15 172.32 272.18 173.50 271.36 174.81 C 272.73 173.99 274.01 173.02 275.26 172.02 C 276.33 173.15 277.84 172.80 279.08 172.20 C 278.52 173.17 277.62 173.82 276.68 174.39 C 279.58 176.25 274.83 178.00 273.79 179.65 C 272.53 179.40 271.27 179.43 270.02 179.76 C 270.80 178.85 271.58 177.93 272.35 177.01 L 273.07 177.85 C 273.78 176.34 274.55 174.87 275.40 173.44 C 273.09 174.89 271.30 177.48 268.43 177.91 C 266.75 180.14 263.99 180.76 261.60 181.91 C 260.01 180.76 258.96 183.53 257.22 182.80 C 257.03 182.26 256.66 181.17 256.47 180.62 C 261.77 178.98 265.63 174.66 270.36 171.95 C 269.20 173.34 268.05 174.73 266.89 176.12 C 268.85 175.37 270.25 173.75 271.90 172.52 L 270.86 171.50 Z" />
<path fill="#ffffff" opacity="1.00" d=" M 218.94 170.67 C 221.64 173.64 219.96 178.19 220.65 181.85 C 219.85 182.73 219.21 184.05 217.78 183.97 L 218.15 184.48 L 219.97 183.40 L 218.79 186.90 C 218.32 186.74 217.38 186.43 216.91 186.28 C 217.41 187.87 217.94 189.45 218.48 191.03 C 217.85 192.49 216.73 193.97 217.39 195.65 C 217.60 194.84 218.04 193.21 218.25 192.40 C 218.75 192.48 219.74 192.65 220.24 192.74 C 219.59 191.18 218.23 189.83 218.16 188.09 C 219.19 187.44 220.22 187.59 221.23 188.54 C 220.73 188.15 219.72 187.36 219.22 186.97 C 219.71 185.54 220.23 184.13 220.85 182.76 C 221.39 185.44 222.09 188.08 222.83 190.71 L 221.39 190.37 C 221.52 193.89 222.48 197.73 220.30 200.84 C 219.26 198.88 218.61 196.74 217.98 194.63 C 217.67 195.85 218.56 199.19 216.61 197.08 L 216.14 197.07 C 216.17 198.17 216.31 199.30 216.45 200.40 C 216.04 200.53 215.22 200.79 214.82 200.92 C 214.67 199.65 214.64 198.32 213.83 197.26 C 213.85 196.79 213.88 195.85 213.90 195.38 L 212.33 195.56 C 212.75 193.51 211.92 191.80 210.43 190.45 C 210.60 189.03 210.75 187.62 210.87 186.20 C 211.37 184.78 212.15 183.54 213.21 182.46 C 214.19 186.78 214.61 191.16 215.23 195.54 C 215.38 195.62 215.69 195.77 215.85 195.85 C 217.11 194.32 215.89 192.43 215.49 190.83 C 214.52 188.44 214.37 185.85 214.31 183.31 C 214.76 183.28 215.66 183.22 216.11 183.19 C 215.95 182.02 215.77 180.86 215.57 179.71 C 215.18 180.31 214.40 181.52 214.01 182.12 C 213.78 181.99 213.30 181.72 213.07 181.59 C 213.85 179.00 215.11 176.61 216.28 174.19 C 216.70 173.78 217.53 172.97 217.94 172.57 C 218.55 175.50 216.73 178.71 218.22 181.44 C 218.37 177.84 218.60 174.25 218.94 170.67 Z" />
<path fill="#ffffff" opacity="1.00" d=" M 286.92 175.25 C 287.26 173.82 289.45 172.87 290.89 173.06 L 290.84 173.55 C 289.91 174.60 288.41 175.93 286.92 175.25 Z" />
<path fill="#ffffff" opacity="1.00" d=" M 241.17 176.58 C 243.35 177.12 242.87 179.01 241.86 180.46 C 242.66 179.67 243.46 178.88 244.25 178.07 C 246.38 179.29 247.36 178.70 247.18 176.31 L 248.77 176.10 C 248.63 176.89 248.35 178.47 248.21 179.26 C 248.61 178.70 249.43 177.58 249.84 177.01 C 250.39 177.61 251.49 178.82 252.04 179.42 C 251.37 180.72 250.68 182.00 250.07 183.33 C 251.73 181.88 253.12 180.18 254.55 178.52 L 254.17 181.42 L 256.08 179.99 C 256.60 182.26 256.52 184.64 254.99 186.55 C 253.55 185.49 254.93 183.83 254.52 182.43 C 252.36 183.69 253.54 185.86 253.57 187.67 C 251.16 185.85 248.60 184.19 247.45 181.26 L 248.75 179.62 C 247.52 179.43 246.30 179.23 245.09 179.04 C 244.38 180.26 244.22 181.53 244.62 182.86 L 242.62 182.44 C 243.18 182.74 244.30 183.34 244.86 183.63 L 243.90 184.82 C 244.54 185.58 245.10 186.40 245.56 187.29 C 244.08 189.46 242.99 191.81 242.16 194.29 C 242.28 193.32 242.51 191.36 242.62 190.38 L 241.47 190.63 C 241.35 189.96 241.10 188.62 240.97 187.94 C 241.63 188.47 242.94 189.52 243.60 190.04 C 242.79 188.36 241.71 186.86 240.65 185.34 L 239.24 186.36 C 239.42 185.27 239.79 183.10 239.97 182.02 L 237.98 184.27 C 238.19 183.30 238.62 181.36 238.83 180.39 C 239.96 179.34 240.93 178.17 241.17 176.58 Z" />
<path fill="#ffffff" opacity="1.00" d=" M 275.02 182.65 C 276.78 179.75 279.45 177.52 282.32 175.78 C 281.78 176.67 280.68 178.47 280.14 179.36 C 281.79 178.26 283.57 177.13 284.34 175.16 L 284.93 178.82 L 283.22 178.21 L 284.08 179.89 C 281.92 178.10 280.59 181.62 278.28 180.64 C 277.20 181.34 276.13 182.02 275.02 182.65 Z" />
<path fill="#ffffff" opacity="1.00" d=" M 286.32 182.50 C 286.71 180.94 289.06 179.72 290.63 179.64 C 290.57 181.32 287.88 182.80 286.32 182.50 Z" />
<path fill="#ffffff" opacity="1.00" d=" M 264.44 181.46 C 265.75 181.36 267.04 181.16 268.32 180.84 C 267.03 184.36 264.12 186.58 260.94 188.32 C 261.02 187.73 261.18 186.56 261.26 185.98 L 262.14 185.99 C 262.41 185.65 262.96 184.97 263.23 184.63 L 263.51 184.51 C 263.44 184.54 263.30 184.60 263.23 184.63 C 262.74 184.97 261.75 185.64 261.26 185.98 C 260.76 185.82 259.78 185.50 259.28 185.34 C 261.04 184.10 262.77 182.82 264.44 181.46 Z" />
<path fill="#ffffff" opacity="1.00" d=" M 298.01 186.81 L 299.05 186.85 C 300.95 188.45 296.64 188.58 298.01 186.81 Z" />
<path fill="#ffffff" opacity="1.00" d=" M 233.84 187.33 C 235.31 187.45 236.14 189.77 235.82 191.07 C 234.49 190.89 233.15 188.60 233.84 187.33 Z" />
<path fill="#ffffff" opacity="1.00" d=" M 244.46 193.51 C 244.92 190.97 245.27 188.26 246.95 186.18 C 247.37 186.96 248.22 188.53 248.64 189.31 C 251.95 190.71 253.88 193.80 254.53 197.24 C 255.28 197.85 256.67 198.03 256.73 199.19 C 254.83 199.35 253.80 200.80 252.86 202.26 C 252.73 201.54 252.46 200.10 252.33 199.38 L 254.23 199.42 C 253.24 197.64 251.42 196.18 251.52 193.99 C 251.27 194.99 251.00 195.99 250.71 196.98 C 251.25 198.33 251.63 199.74 252.01 201.15 C 251.62 201.65 250.85 202.65 250.47 203.16 C 249.52 200.69 249.38 198.05 249.60 195.45 L 248.23 195.70 C 248.97 194.04 249.38 192.31 249.47 190.50 L 248.24 190.45 C 248.26 191.29 248.31 192.97 248.33 193.81 L 245.94 193.70 C 246.18 193.03 246.65 191.69 246.89 191.02 C 246.28 191.64 245.06 192.89 244.46 193.51 Z" />
<path fill="#ffffff" opacity="1.00" d=" M 289.74 191.69 C 291.19 189.86 292.58 187.61 294.98 186.95 C 291.16 189.91 289.51 195.35 284.85 197.11 L 284.80 195.08 C 284.01 195.60 282.43 196.62 281.63 197.14 C 282.33 195.71 283.53 194.67 284.72 193.66 C 284.90 194.30 285.27 195.58 285.45 196.22 C 285.27 194.48 284.98 190.91 288.05 192.62 L 287.11 191.01 L 289.37 192.13 L 287.96 189.63 C 288.40 190.14 289.29 191.17 289.74 191.69 Z" />
<path fill="#ffffff" opacity="1.00" d=" M 301.39 186.74 C 303.23 185.64 303.37 188.42 301.68 188.60 C 299.87 189.67 299.99 187.08 301.39 186.74 Z" />
<path fill="#ffffff" opacity="1.00" d=" M 294.95 190.16 C 295.65 189.49 295.65 189.49 294.95 190.16 Z" />
<path fill="#ffffff" opacity="1.00" d=" M 297.86 189.12 C 299.38 188.36 298.47 191.35 298.82 191.85 L 297.20 190.79 C 298.56 193.81 295.51 196.28 293.46 197.99 L 296.68 192.11 C 295.50 193.38 293.15 195.90 291.97 197.16 C 292.09 196.63 292.32 195.55 292.44 195.02 C 294.26 193.07 296.10 191.13 297.86 189.12 Z" />
<path fill="#ffffff" opacity="1.00" d=" M 208.43 190.37 C 212.68 191.16 212.35 196.31 210.28 199.12 C 210.20 198.15 210.05 196.19 209.97 195.21 C 209.44 195.81 208.92 196.40 208.39 197.00 C 208.70 198.93 209.31 201.31 206.45 200.97 C 206.21 198.51 206.86 196.12 207.35 193.75 L 208.09 196.36 C 209.37 194.52 209.13 192.37 208.43 190.37 Z" />
<path fill="#ffffff" opacity="1.00" d=" M 259.77 189.08 C 262.01 189.11 263.90 189.75 264.03 192.19 C 264.15 191.65 264.39 190.56 264.51 190.01 C 264.94 190.19 265.81 190.53 266.25 190.71 C 266.83 191.35 267.99 192.64 268.56 193.28 L 268.56 191.28 C 269.77 192.04 271.00 192.77 272.24 193.49 C 270.60 193.94 267.74 192.31 267.31 194.85 C 267.51 197.13 268.81 199.53 270.98 200.54 C 270.37 199.04 269.61 197.61 268.99 196.12 C 270.37 197.85 271.65 199.65 273.34 201.10 C 272.63 201.21 271.94 201.37 271.25 201.55 C 272.85 201.63 274.45 201.49 276.06 201.55 C 275.65 200.86 274.83 199.48 274.42 198.80 C 277.37 199.81 279.14 202.45 281.12 204.67 C 279.44 205.01 277.88 204.92 277.15 203.14 C 275.85 205.34 273.88 204.31 272.38 203.09 C 272.07 203.28 271.46 203.65 271.15 203.83 C 270.21 202.66 269.33 201.45 268.24 200.42 C 268.63 201.31 269.40 203.08 269.78 203.97 C 267.25 204.17 265.70 202.57 264.48 200.59 C 265.04 200.56 266.17 200.51 266.73 200.48 C 266.42 200.08 265.80 199.28 265.49 198.88 C 265.92 198.65 266.78 198.20 267.21 197.98 C 265.65 194.29 261.15 192.97 259.77 189.08 Z" />
<path fill="#ffffff" opacity="1.00" d=" M 294.23 190.78 C 294.41 190.63 294.77 190.32 294.95 190.16 C 294.77 190.32 294.41 190.63 294.23 190.78 Z" />
<path fill="#ffffff" opacity="1.00" d=" M 281.08 194.69 C 280.97 193.11 283.43 191.28 284.94 191.45 C 285.37 193.19 282.58 194.80 281.08 194.69 Z" />
<path fill="#ffffff" opacity="1.00" d=" M 293.60 191.25 C 293.76 191.13 294.08 190.90 294.23 190.78 C 294.08 190.90 293.76 191.13 293.60 191.25 Z" />
<path fill="#ffffff" opacity="1.00" d=" M 254.27 191.24 C 256.25 191.36 258.05 192.03 259.66 193.25 C 259.23 194.14 258.79 195.03 258.35 195.91 C 259.30 196.42 260.24 196.94 261.19 197.46 C 258.60 196.64 260.37 195.30 260.85 194.16 C 261.67 195.93 263.13 197.86 262.02 199.86 C 263.14 201.57 264.82 203.02 265.14 205.14 C 264.06 203.56 262.97 203.05 261.50 203.56 C 262.04 204.36 263.14 205.96 263.68 206.76 C 263.11 206.66 261.95 206.44 261.38 206.34 C 261.53 206.92 261.84 208.10 262.00 208.68 C 261.25 208.30 259.75 207.55 259.00 207.17 C 258.88 205.68 258.35 204.31 257.47 203.11 C 258.26 203.45 259.06 203.78 259.87 204.12 C 260.34 203.21 260.78 202.28 261.17 201.34 L 259.58 202.99 L 257.78 201.51 C 258.66 201.13 259.56 200.74 260.43 200.33 C 258.19 199.97 257.79 197.69 257.06 196.00 C 255.59 195.51 254.67 194.55 254.29 193.13 C 255.20 193.30 257.00 193.63 257.91 193.80 C 257.00 193.16 255.18 191.88 254.27 191.24 Z" />
<path fill="#ffffff" opacity="1.00" d=" M 287.92 196.62 C 289.71 194.74 291.39 192.66 293.60 191.25 C 293.10 192.09 292.09 193.78 291.59 194.63 L 292.44 195.02 C 290.67 194.93 289.54 198.02 287.92 196.62 Z" />
<path fill="#ffffff" opacity="1.00" d=" M 307.32 194.44 C 308.33 193.43 309.43 192.51 310.57 191.64 C 311.95 192.94 313.47 194.08 315.06 195.10 C 314.63 196.14 314.59 197.21 315.06 198.25 C 315.20 197.55 315.49 196.16 315.63 195.46 C 316.63 196.59 317.59 197.76 318.50 198.98 C 318.77 201.02 317.86 202.98 317.63 204.99 C 320.43 208.68 315.11 211.92 312.26 213.39 C 313.54 211.26 315.51 209.72 317.35 208.10 C 317.08 206.22 316.83 204.34 316.57 202.47 C 315.93 202.98 314.64 204.01 314.00 204.52 C 311.89 203.05 309.65 201.76 307.31 200.70 C 306.11 199.04 305.09 196.85 302.62 197.32 C 302.97 200.02 305.60 201.59 306.00 204.23 C 303.82 202.71 300.75 200.26 301.19 197.46 C 303.52 196.95 306.49 196.62 306.76 193.65 L 307.32 194.44 M 309.34 194.09 C 309.51 197.44 312.48 192.73 309.34 194.09 M 307.23 195.98 C 305.19 196.49 306.56 197.77 307.36 198.77 C 307.67 199.10 308.29 199.77 308.60 200.11 L 308.53 197.94 C 309.23 198.32 310.63 199.07 311.33 199.44 C 311.96 200.81 312.65 202.15 313.32 203.51 C 313.73 203.33 314.57 202.98 314.99 202.81 C 313.91 201.67 312.81 200.54 311.75 199.39 C 312.88 199.82 315.12 200.67 316.24 201.09 C 313.74 198.94 310.81 195.53 307.23 195.98 Z" />
<path fill="#ffffff" opacity="1.00" d=" M 235.39 195.19 C 234.91 193.98 236.73 192.74 237.77 193.29 C 238.27 194.46 236.43 195.99 235.39 195.19 Z" />
<path fill="#ffffff" opacity="1.00" d=" M 234.10 197.64 C 235.36 196.92 238.14 194.51 239.20 195.73 C 238.20 196.79 234.87 199.80 234.10 197.64 Z" />
<path fill="#ffffff" opacity="1.00" d=" M 244.89 195.98 C 246.42 196.10 246.72 198.56 246.07 199.67 C 245.88 199.44 245.48 198.99 245.28 198.76 C 245.18 198.06 244.99 196.68 244.89 195.98 Z" />
<path fill="#ffffff" opacity="1.00" d=" M 234.25 199.87 C 236.23 199.21 238.04 196.91 240.25 197.45 C 239.61 200.07 240.57 202.43 242.52 204.20 C 242.62 207.38 240.84 210.39 238.11 211.98 C 237.65 211.51 236.74 210.57 236.29 210.11 C 236.87 208.06 238.06 206.31 239.88 205.17 C 239.74 203.73 239.12 202.39 237.99 201.47 C 237.94 202.19 237.86 203.61 237.82 204.33 C 236.73 204.33 234.54 204.33 233.44 204.33 C 235.05 202.91 236.85 201.58 237.84 199.61 C 236.59 200.38 235.46 201.32 234.30 202.22 L 234.25 199.87 Z" />
<path fill="#ffffff" opacity="1.00" d=" M 247.84 197.01 C 249.76 198.53 250.63 203.22 247.02 202.39 C 247.24 200.59 247.51 198.79 247.84 197.01 Z" />
<path fill="#ffffff" opacity="1.00" d=" M 227.04 198.82 C 229.23 200.68 230.29 203.43 231.73 205.84 C 231.07 206.80 230.42 207.75 229.76 208.71 C 231.51 206.55 232.68 208.57 233.85 210.06 C 233.46 210.73 232.67 212.06 232.28 212.72 C 230.43 210.84 228.57 208.96 226.64 207.16 C 227.60 205.87 229.14 206.25 230.52 206.37 C 229.57 203.75 227.08 201.71 227.04 198.82 Z" />
<path fill="#ffffff" opacity="1.00" d=" M 286.28 199.22 C 286.84 199.31 287.94 199.49 288.50 199.58 C 288.42 200.06 288.28 201.04 288.21 201.52 C 288.60 201.61 289.38 201.78 289.77 201.86 C 288.74 203.83 287.51 205.70 285.74 207.07 C 285.76 206.24 285.79 204.58 285.81 203.75 C 284.02 204.79 282.47 205.15 282.37 202.70 C 282.94 202.36 284.07 201.68 284.64 201.35 L 285.64 201.63 L 285.33 200.20 L 286.91 200.80 L 286.28 199.22 Z" />
<path fill="#ffffff" opacity="1.00" d=" M 204.24 200.82 L 205.03 200.85 C 205.00 201.24 204.95 202.03 204.92 202.43 L 204.12 202.40 C 204.15 202.00 204.21 201.21 204.24 200.82 Z" />
<path fill="#ffffff" opacity="1.00" d=" M 223.39 202.37 C 224.64 202.57 225.89 202.58 227.14 202.38 L 226.47 203.17 C 227.15 203.80 228.52 205.07 229.21 205.71 C 228.37 205.62 226.68 205.46 225.84 205.37 C 225.14 204.27 224.27 203.31 223.39 202.37 Z" />
<path fill="#ffffff" opacity="1.00" d=" M 296.84 203.67 C 297.26 203.22 297.68 202.78 298.11 202.34 C 298.25 203.03 298.53 204.40 298.67 205.09 C 300.15 205.35 301.62 205.69 303.10 205.95 C 304.91 205.52 306.48 204.46 308.22 203.85 C 306.66 206.34 303.79 207.76 300.96 208.20 C 299.83 206.30 298.62 205.70 297.22 207.62 C 297.59 206.24 297.46 204.92 296.84 203.67 Z" />
<path fill="#ffffff" opacity="1.00" d=" M 197.81 209.66 C 199.62 207.62 200.19 204.27 202.76 203.06 C 202.34 204.33 201.80 205.60 200.69 206.45 C 200.61 206.87 200.44 207.71 200.36 208.14 C 197.69 210.95 196.09 215.66 191.48 215.41 C 192.05 214.42 192.60 213.43 193.17 212.45 C 194.74 211.77 197.34 211.62 196.52 209.24 C 196.84 209.35 197.49 209.56 197.81 209.66 Z" />
<path fill="#ffffff" opacity="1.00" d=" M 212.64 203.30 C 213.53 203.32 215.30 203.37 216.19 203.40 C 212.73 206.73 214.62 211.28 215.44 215.25 C 213.46 216.31 211.35 217.13 209.19 217.71 C 208.13 216.76 207.06 215.58 207.63 214.07 C 208.18 214.27 209.30 214.68 209.86 214.88 L 209.60 211.97 C 210.63 212.90 211.65 213.85 212.67 214.81 C 212.57 213.23 212.22 211.73 211.19 210.50 L 212.98 210.36 C 212.47 209.18 211.96 207.99 211.47 206.80 C 212.37 205.82 212.76 204.65 212.64 203.30 Z" />
<path fill="#ffffff" opacity="1.00" d=" M 237.82 204.33 L 238.59 204.04 C 238.61 204.34 238.66 204.93 238.68 205.22 C 237.66 205.92 236.62 207.85 235.20 207.16 C 234.77 205.63 236.86 205.01 237.82 204.33 Z" />
<path fill="#ffffff" opacity="1.00" d=" M 244.41 204.56 C 245.75 205.25 247.20 205.59 248.73 205.52 C 247.45 207.69 247.68 211.14 244.68 211.76 C 245.05 210.11 245.44 208.47 245.80 206.82 C 244.54 208.65 243.58 210.73 241.57 211.92 C 242.44 209.44 243.71 207.10 244.41 204.56 Z" />
<path fill="#ffffff" opacity="1.00" d=" M 223.81 206.16 C 226.91 208.74 229.63 211.74 232.33 214.74 L 230.19 214.40 C 231.80 216.76 233.69 219.16 236.49 220.14 C 235.50 218.78 234.29 217.62 233.14 216.42 L 234.83 216.15 C 234.76 215.53 234.61 214.29 234.54 213.67 C 235.48 214.58 235.68 215.63 235.14 216.83 L 236.64 216.29 L 238.75 218.13 C 238.50 217.33 237.99 215.73 237.74 214.93 C 239.00 215.72 240.29 216.48 241.56 217.27 C 242.21 217.93 243.51 219.25 244.16 219.91 C 242.95 219.26 240.55 217.95 239.34 217.30 C 239.06 218.75 240.41 219.60 240.86 220.83 C 240.53 220.98 239.86 221.28 239.53 221.43 C 241.10 222.01 242.28 223.23 243.45 224.39 C 242.20 224.09 239.71 223.51 238.46 223.22 C 239.12 223.72 240.43 224.73 241.09 225.24 L 241.28 226.23 C 240.53 225.95 239.05 225.40 238.31 225.13 L 238.97 227.00 C 238.38 226.73 237.19 226.20 236.59 225.94 C 237.31 227.95 238.96 229.41 239.95 231.28 C 237.94 230.60 236.16 229.42 234.36 228.34 C 234.22 231.38 237.54 233.02 238.77 235.60 C 236.19 233.96 232.47 232.13 232.30 228.74 C 231.62 228.30 230.25 227.41 229.56 226.97 C 231.24 225.37 233.02 224.90 234.82 226.73 C 235.10 225.54 235.34 224.34 235.52 223.14 C 235.23 223.80 234.66 225.10 234.38 225.75 C 233.44 224.85 231.58 223.03 230.64 222.13 C 230.21 223.34 229.80 224.57 229.35 225.78 C 227.44 223.89 225.29 222.23 223.69 220.05 L 221.46 222.86 L 223.12 218.91 L 218.56 221.01 L 221.99 218.29 C 221.49 217.69 220.49 216.50 219.99 215.90 C 222.10 216.31 222.95 218.44 224.42 219.74 C 225.50 220.88 227.70 220.36 228.04 222.31 C 228.57 221.94 229.11 221.58 229.65 221.22 C 229.06 220.79 227.90 219.94 227.32 219.51 L 226.30 219.74 L 226.78 218.52 C 223.64 218.79 222.14 215.24 219.96 213.54 C 220.38 213.59 221.23 213.67 221.66 213.71 C 221.71 213.32 221.81 212.53 221.86 212.14 C 224.29 215.05 227.38 217.31 229.85 220.19 C 230.84 221.48 232.37 222.11 233.98 221.66 C 232.96 220.00 231.83 218.42 230.62 216.90 C 230.26 217.14 229.54 217.63 229.18 217.88 C 227.83 216.61 226.47 215.38 225.16 214.09 L 228.24 214.73 C 226.86 213.47 225.56 212.15 224.32 210.76 C 224.66 210.55 225.35 210.11 225.69 209.89 C 225.02 208.66 224.40 207.42 223.81 206.16 Z" />
<path fill="#ffffff" opacity="1.00" d=" M 266.81 206.28 C 268.60 206.99 270.00 208.34 270.65 210.17 C 268.59 209.83 267.36 208.19 266.81 206.28 Z" />
<path fill="#ffffff" opacity="1.00" d=" M 280.03 207.39 C 280.86 207.18 281.71 207.12 282.56 207.00 C 283.38 208.22 284.20 209.46 285.02 210.69 C 282.92 210.66 280.51 211.10 279.62 208.59 C 279.16 209.63 278.77 210.69 278.39 211.76 C 277.37 210.39 276.52 208.90 275.82 207.35 C 276.35 207.66 277.39 208.29 277.92 208.60 C 278.10 208.12 278.46 207.17 278.65 206.69 L 280.03 207.39 Z" />
<path fill="#ffffff" opacity="1.00" d=" M 209.07 207.45 C 211.64 206.66 209.52 210.45 208.62 208.14 L 209.07 207.45 Z" />
<path fill="#ffffff" opacity="1.00" d=" M 248.86 209.80 C 247.79 208.88 248.67 205.56 250.26 207.01 C 251.22 207.97 250.54 211.03 248.86 209.80 Z" />
<path fill="#ffffff" opacity="1.00" d=" M 272.14 206.81 C 274.18 207.50 275.49 209.07 276.16 211.08 C 274.36 210.07 270.99 209.69 272.14 206.81 Z" />
<path fill="#ffffff" opacity="1.00" d=" M 209.22 211.21 C 209.87 211.82 209.87 211.82 209.22 211.21 Z" />
<path fill="#ffffff" opacity="1.00" d=" M 303.20 213.46 C 304.33 213.82 305.46 214.16 306.62 214.46 C 308.16 213.83 309.75 213.34 311.34 212.83 C 311.77 215.77 309.92 218.18 307.55 219.68 C 304.62 219.76 301.71 219.43 298.80 219.30 C 296.08 219.32 294.35 216.88 292.79 214.99 C 295.03 215.38 296.49 217.13 298.06 218.60 C 301.99 218.15 306.59 219.66 309.67 216.49 C 307.84 215.67 305.97 215.36 304.06 215.56 C 303.72 214.88 303.41 214.19 303.20 213.46 Z" />
<path fill="#ffffff" opacity="1.00" d=" M 239.87 214.70 C 241.42 214.96 242.91 215.39 244.36 216.00 C 244.77 215.75 245.59 215.24 246.00 214.99 C 247.57 215.86 249.18 216.73 250.45 218.04 C 249.26 217.83 246.87 217.41 245.68 217.20 C 246.85 218.72 248.66 219.54 249.96 220.94 C 248.08 221.03 246.00 220.58 244.69 219.16 C 243.76 218.29 243.35 216.13 241.56 217.27 L 241.55 216.46 C 241.13 216.02 240.29 215.14 239.87 214.70 Z" />
<path fill="#ffffff" opacity="1.00" d=" M 259.14 217.21 L 262.23 217.26 C 261.20 220.91 263.26 224.55 262.70 228.27 C 259.90 227.93 260.74 224.83 260.58 222.95 C 260.38 224.31 260.20 225.67 259.99 227.02 C 259.29 226.44 258.59 225.85 257.90 225.26 C 257.70 222.35 257.16 219.45 257.38 216.52 C 257.86 217.61 258.83 219.79 259.31 220.89 L 259.86 220.82 C 259.68 219.92 259.32 218.11 259.14 217.21 Z" />
<path fill="#ffffff" opacity="1.00" d=" M 262.08 218.29 C 262.89 218.23 264.50 218.13 265.31 218.08 C 265.21 219.68 265.17 221.43 266.71 222.37 C 266.52 221.19 266.13 218.83 265.94 217.66 C 267.64 219.58 268.87 221.85 270.29 223.98 C 269.82 224.48 269.35 224.98 268.87 225.47 L 268.20 223.22 C 268.14 223.85 268.00 225.13 267.93 225.77 L 270.80 224.95 C 267.67 226.29 269.61 229.15 269.81 231.34 C 268.01 229.47 267.83 226.65 266.15 224.68 C 266.04 226.36 266.19 228.05 266.46 229.71 C 266.14 229.77 265.51 229.90 265.19 229.96 C 264.26 226.04 263.54 222.06 262.08 218.29 Z" />
<path fill="#ffffff" opacity="1.00" d=" M 214.41 220.53 C 214.75 220.61 215.41 220.77 215.75 220.84 C 215.94 221.19 216.34 221.88 216.53 222.23 L 216.57 219.69 C 218.24 221.57 220.14 223.38 221.02 225.80 C 222.84 227.89 224.96 229.76 226.34 232.21 C 224.57 231.47 223.01 230.02 220.96 230.37 C 220.76 229.49 220.57 228.62 220.39 227.74 C 217.44 226.46 216.47 222.83 214.41 220.53 Z" />
<path fill="#ffffff" opacity="1.00" d=" M 242.01 220.51 C 243.28 220.12 245.71 221.26 245.65 222.69 C 244.43 223.20 241.24 222.21 242.01 220.51 Z" />
<path fill="#ffffff" opacity="1.00" d=" M 216.30 226.52 C 217.68 226.45 219.93 228.36 219.36 229.82 C 217.78 230.00 216.06 228.04 216.30 226.52 Z" />
<path fill="#ffffff" opacity="1.00" d=" M 269.93 227.59 C 269.79 226.55 270.14 226.00 271.00 225.92 C 271.23 226.65 271.68 228.10 271.90 228.83 C 271.81 230.86 269.82 228.49 269.93 227.59 Z" />
<path fill="#ffffff" opacity="1.00" d=" M 229.71 229.68 C 233.78 231.14 235.70 235.45 237.30 239.14 C 235.43 238.73 234.12 237.32 232.69 236.17 C 233.15 237.56 233.96 238.71 235.35 239.30 L 235.08 240.34 C 233.85 239.51 232.66 238.61 231.48 237.72 C 231.44 237.07 231.34 235.77 231.29 235.12 L 233.23 235.56 C 231.91 233.69 230.48 231.86 229.71 229.68 Z" />
</g>
</svg>
