<?xml version="1.0" encoding="UTF-8" ?>
<!DOCTYPE svg PUBLIC "-//W3C//DTD SVG 1.1//EN" "http://www.w3.org/Graphics/SVG/1.1/DTD/svg11.dtd">
<svg width="512pt" height="256pt" viewBox="0 0 512 256" version="1.1" xmlns="http://www.w3.org/2000/svg">
<g id="#ffffffff">
<path fill="#ffffff" opacity="1.00" d=" M 273.74 16.63 C 276.06 19.26 277.31 22.76 277.27 26.27 L 279.06 28.16 C 278.23 25.00 277.42 21.85 276.61 18.69 C 277.53 18.89 279.35 19.29 280.26 19.49 C 279.98 20.10 279.43 21.32 279.16 21.93 C 280.20 20.55 281.57 20.07 283.28 20.50 L 282.35 22.46 C 282.85 22.61 283.84 22.90 284.34 23.04 C 284.38 23.47 284.47 24.32 284.52 24.74 L 285.45 25.50 C 284.92 26.87 285.30 27.92 286.59 28.62 C 285.98 28.80 284.74 29.17 284.12 29.36 C 284.50 30.19 285.25 31.86 285.63 32.69 C 285.00 32.19 284.37 31.69 283.75 31.19 C 283.94 28.81 283.71 26.41 282.43 24.34 C 281.75 24.47 280.41 24.73 279.74 24.86 C 279.67 25.60 279.53 27.08 279.46 27.82 C 280.21 27.69 281.71 27.42 282.47 27.29 C 281.94 27.65 280.88 28.36 280.35 28.72 L 280.50 30.01 C 279.45 29.44 278.42 28.87 277.39 28.28 C 277.38 28.88 277.34 30.07 277.33 30.67 C 276.71 30.36 275.46 29.74 274.84 29.44 L 278.43 34.10 C 276.84 33.12 273.67 31.16 272.08 30.18 L 272.43 32.78 C 271.64 32.32 270.05 31.38 269.25 30.92 C 270.17 30.07 271.94 29.68 271.46 27.97 L 273.53 29.77 C 271.84 26.19 269.37 22.97 267.16 19.67 C 268.38 18.68 269.72 18.40 271.18 18.83 C 271.71 22.75 274.27 26.27 277.20 28.82 C 276.58 26.37 273.22 24.48 274.51 21.75 C 273.38 20.79 272.31 19.77 271.31 18.67 C 271.92 18.16 273.13 17.14 273.74 16.63 Z" />
<path fill="#ffffff" opacity="1.00" d=" M 258.00 17.81 C 260.76 19.32 262.75 21.89 264.20 24.64 C 264.57 24.06 264.95 23.48 265.33 22.90 C 262.76 22.59 263.54 19.87 263.51 18.17 C 267.28 20.72 269.92 24.72 271.04 29.11 C 268.77 28.03 266.81 26.29 265.68 24.01 C 265.28 25.07 264.89 26.15 264.52 27.22 C 263.61 25.77 262.65 24.36 261.72 22.93 L 260.35 24.02 C 261.64 21.60 258.77 19.90 258.00 17.81 Z" />
<path fill="#ffffff" opacity="1.00" d=" M 212.60 19.11 L 213.03 19.03 C 214.14 20.42 214.80 22.01 214.51 23.85 L 215.66 23.25 C 216.31 24.24 216.99 25.21 217.67 26.18 C 221.08 25.58 219.25 30.55 221.93 31.43 C 221.69 29.57 221.22 27.76 220.72 25.97 C 221.05 24.26 221.26 22.54 221.57 20.84 C 221.63 23.18 221.27 25.73 223.02 27.62 C 223.20 26.66 223.55 24.76 223.72 23.80 C 224.81 25.62 225.03 27.70 225.03 29.78 C 225.38 29.84 226.07 29.96 226.42 30.02 C 226.19 29.16 225.73 27.42 225.50 26.56 C 226.31 26.52 227.94 26.45 228.75 26.42 L 228.67 28.37 C 230.20 26.89 230.88 24.87 231.60 22.93 C 231.58 24.35 231.80 25.72 232.26 27.04 C 232.31 28.15 232.40 29.27 232.53 30.38 C 232.67 29.62 232.96 28.10 233.11 27.34 C 234.18 27.51 235.26 27.67 236.35 27.81 C 236.81 26.10 237.22 24.37 237.69 22.66 C 237.63 24.54 237.59 26.42 237.59 28.30 C 238.67 26.52 239.59 24.65 240.69 22.88 C 240.73 23.68 240.80 25.28 240.84 26.08 C 241.89 25.39 244.00 24.00 245.05 23.31 C 244.94 24.35 244.71 26.43 244.60 27.47 C 244.84 26.48 245.32 24.52 245.56 23.54 L 247.19 24.81 L 249.92 24.14 C 248.78 25.35 247.74 26.64 246.80 28.00 C 248.05 27.14 249.14 26.09 250.29 25.10 C 250.40 25.60 250.61 26.60 250.72 27.10 C 249.76 27.85 249.20 28.85 249.05 30.10 C 250.96 28.83 252.69 27.26 254.91 26.51 C 254.08 27.86 252.99 29.00 251.98 30.20 C 253.09 29.61 254.20 28.99 255.29 28.36 C 257.82 29.57 256.31 31.52 255.04 33.06 C 255.73 32.61 257.12 31.72 257.81 31.27 C 257.44 32.66 257.65 33.94 258.45 35.10 L 258.34 32.80 C 260.25 33.69 261.90 35.17 264.01 35.64 C 263.88 36.30 263.63 37.63 263.50 38.30 C 262.60 38.72 261.72 39.17 260.86 39.65 C 261.89 39.51 262.93 39.34 263.96 39.15 C 265.50 40.55 267.92 41.29 268.61 43.39 C 268.04 43.43 266.90 43.51 266.33 43.55 C 265.65 44.95 267.51 44.16 268.33 44.18 C 269.44 43.23 270.63 42.39 271.91 41.66 C 271.80 42.50 271.58 44.17 271.47 45.01 C 271.85 44.28 272.22 43.55 272.60 42.83 C 273.78 42.28 274.94 41.69 276.10 41.10 C 275.85 41.86 275.36 43.37 275.11 44.13 C 276.31 43.19 277.54 41.77 279.10 42.94 C 280.93 43.87 283.08 43.12 284.92 44.08 C 284.19 44.28 282.73 44.66 282.01 44.86 L 282.01 45.58 L 285.03 45.10 C 284.22 45.88 282.60 47.42 281.78 48.20 C 283.78 47.75 285.77 47.23 287.74 46.67 C 286.53 47.73 285.26 48.77 284.09 49.84 C 287.14 47.00 288.20 50.74 288.87 52.67 C 286.21 53.76 284.17 56.64 281.04 55.45 C 283.92 57.45 287.06 54.20 289.90 55.93 C 291.67 56.72 290.28 58.90 290.34 60.28 L 291.29 60.46 C 291.02 63.31 294.45 59.70 296.05 60.42 C 295.44 60.70 294.22 61.27 293.61 61.55 C 293.36 63.63 291.09 64.08 290.04 62.22 C 290.69 63.15 291.33 64.07 291.99 65.01 C 290.17 65.54 288.34 66.19 286.85 67.39 C 289.19 67.23 291.50 66.77 293.86 66.67 C 293.50 67.44 292.78 68.96 292.43 69.73 C 294.26 69.90 296.83 68.59 297.78 70.91 C 297.36 71.47 296.53 72.57 296.12 73.13 C 296.97 73.16 298.67 73.24 299.52 73.28 L 299.39 73.68 C 298.44 75.23 300.32 76.36 301.55 76.83 C 301.46 77.80 301.39 78.77 301.32 79.74 C 300.63 80.25 299.94 80.76 299.25 81.27 C 294.67 82.17 289.82 81.82 285.40 83.34 C 286.08 86.61 289.12 87.04 291.97 86.92 C 291.48 86.86 290.51 86.74 290.03 86.67 L 290.55 85.44 C 289.12 86.33 286.48 85.34 287.29 83.39 C 292.79 83.15 298.50 83.02 303.76 81.23 C 303.14 81.90 301.92 83.24 301.30 83.90 C 302.23 83.79 304.09 83.56 305.01 83.45 C 304.81 83.94 304.41 84.91 304.20 85.40 C 305.16 85.37 307.08 85.32 308.03 85.30 C 306.96 85.93 305.88 86.55 304.80 87.18 C 303.15 87.30 301.53 87.66 300.03 88.39 C 297.96 88.22 295.89 88.39 293.87 88.84 C 295.80 90.02 298.28 89.82 300.23 88.77 C 302.18 88.73 304.12 88.53 306.07 88.46 C 307.68 88.24 307.14 90.61 307.64 91.46 C 309.89 91.71 310.56 94.25 312.16 95.49 C 308.72 95.83 305.18 95.34 301.81 96.26 C 305.10 96.48 308.40 96.51 311.70 96.41 C 311.61 97.18 311.44 98.72 311.36 99.49 C 310.77 99.53 309.60 99.61 309.01 99.65 C 308.30 98.00 306.39 98.56 305.00 98.28 C 306.65 98.39 308.03 98.99 309.15 100.08 C 307.16 100.12 305.24 101.43 303.26 101.01 C 303.28 100.55 303.34 99.62 303.37 99.16 C 303.14 99.20 302.68 99.28 302.45 99.32 L 302.85 100.89 C 301.84 100.77 299.84 100.52 298.83 100.40 C 300.60 101.09 302.40 101.70 304.13 102.50 C 307.08 101.30 311.48 98.82 313.74 102.49 C 312.77 102.55 310.83 102.67 309.86 102.72 C 310.66 103.03 311.47 103.32 312.28 103.62 C 312.82 105.07 313.32 106.54 313.67 108.06 C 311.47 107.54 309.20 107.69 306.97 107.51 C 308.89 107.97 310.81 108.48 312.78 108.73 C 313.62 109.67 314.59 110.48 315.57 111.28 C 314.41 111.71 313.29 112.21 312.21 112.78 C 312.58 113.22 313.33 114.09 313.70 114.53 C 313.31 114.80 312.52 115.36 312.12 115.63 C 312.84 115.59 314.29 115.50 315.01 115.46 C 314.44 118.91 310.69 118.17 308.19 118.43 L 308.14 118.91 C 310.13 118.76 312.12 118.61 314.12 118.43 C 315.28 119.23 316.95 119.75 316.71 121.57 C 317.89 121.79 319.07 122.02 320.24 122.33 C 317.76 122.35 315.33 122.77 312.92 123.26 C 313.47 124.00 316.73 124.93 314.45 125.57 C 311.26 125.88 308.14 124.21 304.89 124.40 C 307.98 125.23 311.15 125.77 314.19 126.83 L 313.22 127.72 C 312.46 127.67 310.94 127.58 310.18 127.53 L 310.93 128.75 C 309.29 128.36 307.66 127.97 306.03 127.57 L 306.40 130.25 C 308.16 130.35 309.94 130.74 311.71 130.34 C 311.13 131.26 310.51 132.16 309.94 133.08 C 309.18 133.17 307.68 133.36 306.92 133.45 C 307.98 134.08 309.05 134.71 310.12 135.34 C 308.62 135.99 308.20 137.16 308.87 138.84 L 307.03 138.63 C 307.24 139.20 307.64 140.35 307.85 140.92 C 311.07 143.76 311.25 148.53 314.46 151.35 C 316.14 153.03 316.62 155.49 317.87 157.46 C 317.46 157.58 316.64 157.83 316.24 157.95 C 316.95 158.46 318.38 159.46 319.10 159.97 C 318.53 160.14 317.38 160.49 316.81 160.66 C 317.50 160.66 318.90 160.66 319.59 160.67 C 319.54 161.11 319.44 162.00 319.39 162.45 C 320.41 162.92 321.42 163.43 322.42 163.97 C 320.26 165.83 317.21 166.31 314.54 165.40 C 314.51 165.68 314.44 166.23 314.41 166.50 C 316.90 166.18 320.29 167.49 322.04 165.15 C 323.99 166.69 324.07 167.80 322.28 168.49 C 324.39 168.96 326.40 170.42 327.22 172.48 C 325.71 172.42 324.12 172.57 322.76 171.80 C 322.16 171.95 320.97 172.25 320.38 172.40 C 321.04 172.73 321.55 173.19 321.89 173.80 C 319.83 176.16 315.70 174.51 314.51 177.79 C 317.33 176.45 320.32 175.50 323.18 174.24 C 324.94 174.94 326.43 174.25 327.36 172.64 C 327.64 175.09 329.81 176.39 331.55 177.79 C 331.22 178.30 330.58 179.32 330.25 179.83 L 332.08 179.86 C 333.92 183.09 337.76 185.12 338.24 189.10 C 337.74 189.65 337.23 190.19 336.70 190.72 C 336.35 189.95 335.64 188.40 335.29 187.62 C 334.45 189.43 333.56 191.21 332.60 192.95 L 332.85 191.41 L 330.39 191.51 L 330.56 192.74 L 329.02 192.13 C 329.06 192.53 329.14 193.34 329.17 193.75 C 325.70 195.18 322.93 201.45 318.84 197.09 C 323.24 198.72 320.15 201.94 319.65 204.47 C 317.82 204.33 316.00 204.24 314.19 204.51 C 314.10 204.18 313.93 203.52 313.85 203.18 C 313.02 203.28 311.36 203.47 310.52 203.56 C 310.58 202.99 310.69 201.85 310.75 201.28 C 311.29 201.28 312.37 201.29 312.91 201.30 C 312.84 200.84 312.69 199.92 312.61 199.46 C 312.28 199.58 311.63 199.81 311.30 199.92 C 310.90 199.33 310.10 198.15 309.70 197.56 C 312.60 200.50 305.95 202.42 309.32 204.91 C 307.41 207.34 306.43 210.35 305.13 213.13 C 303.27 212.60 301.33 211.08 302.67 209.02 C 301.91 209.47 301.46 211.55 300.39 210.74 C 299.91 210.12 298.95 208.87 298.47 208.24 L 300.79 208.81 L 300.18 207.21 L 301.82 207.50 L 300.89 205.62 C 303.60 206.39 303.92 203.20 305.00 201.62 C 302.70 200.64 301.74 203.04 302.51 204.91 L 300.80 204.42 C 300.69 206.30 299.57 207.10 297.45 206.84 C 299.15 203.21 302.20 200.46 304.11 196.95 C 301.24 199.24 299.70 202.75 296.80 204.99 C 296.93 204.16 297.18 202.50 297.30 201.67 C 296.24 202.50 295.21 203.36 294.09 204.12 C 294.66 202.94 295.79 200.59 296.35 199.41 L 292.72 201.95 C 293.07 201.22 293.75 199.76 294.10 199.03 C 292.39 199.75 290.71 198.63 289.06 198.35 C 290.37 196.63 292.01 195.10 292.88 193.09 C 291.07 193.20 290.19 194.95 289.06 196.10 C 288.20 197.38 287.49 198.75 287.18 200.28 C 291.00 200.08 286.48 203.90 286.99 205.20 L 287.87 205.90 L 289.53 202.97 C 291.13 203.72 292.61 204.89 292.41 206.88 L 293.50 206.45 L 293.29 208.02 L 294.65 207.30 C 295.00 210.66 298.89 210.37 299.83 213.23 C 303.28 213.36 305.61 216.82 303.77 219.99 C 304.26 219.55 305.25 218.67 305.74 218.24 C 306.60 220.46 308.39 222.17 309.08 224.47 C 310.01 224.69 310.95 224.90 311.90 225.10 C 309.56 225.76 307.35 226.78 305.21 227.91 L 306.01 226.15 L 304.81 226.48 C 304.36 225.50 303.91 224.52 303.45 223.55 C 301.65 223.41 297.44 224.20 298.61 220.93 L 297.04 222.00 C 296.88 221.55 296.57 220.63 296.41 220.17 L 294.73 221.37 C 294.73 220.94 294.74 220.07 294.75 219.64 C 292.64 218.87 290.83 217.48 289.80 215.46 C 288.36 216.79 286.73 216.47 285.34 215.35 C 285.68 214.81 286.03 214.27 286.37 213.73 L 284.68 213.86 C 284.74 211.66 284.16 209.09 281.39 210.74 C 281.83 210.12 282.71 208.87 283.15 208.25 C 281.91 208.38 279.43 208.64 278.19 208.77 C 279.33 207.80 280.49 206.86 281.70 205.98 C 282.53 204.71 283.37 203.45 284.17 202.17 C 283.41 202.60 281.89 203.45 281.12 203.88 C 281.27 203.21 281.55 201.89 281.69 201.22 C 280.56 200.21 279.44 199.18 278.30 198.19 C 279.14 196.78 279.68 195.22 279.75 193.56 C 276.80 195.02 278.16 198.18 278.40 200.62 C 278.81 200.69 279.64 200.83 280.06 200.90 C 279.36 202.28 278.60 203.63 277.71 204.90 C 277.73 204.10 277.77 202.50 277.79 201.70 C 277.23 202.07 276.09 202.81 275.53 203.18 C 275.38 200.38 275.35 197.59 275.30 194.80 C 278.83 193.86 278.69 189.19 280.97 186.79 C 280.33 188.64 279.47 190.43 279.42 192.43 C 281.56 192.10 282.68 193.04 282.77 195.24 C 284.29 193.72 284.86 191.70 284.56 189.59 C 283.96 189.59 282.77 189.60 282.17 189.60 C 282.24 189.33 282.36 188.79 282.42 188.52 L 283.30 188.67 C 284.26 186.95 285.29 185.28 286.45 183.69 C 286.98 182.91 288.04 181.35 288.56 180.58 C 287.92 183.60 287.20 186.60 286.36 189.58 C 288.34 188.55 289.40 187.01 289.52 184.97 C 289.79 181.81 290.80 178.78 291.93 175.83 L 293.12 175.47 C 294.71 179.22 291.32 182.53 291.14 186.28 C 292.88 184.15 294.04 181.61 294.80 178.99 C 296.73 177.24 298.39 175.23 299.78 173.03 C 297.58 174.42 295.03 174.68 292.49 174.74 C 292.92 174.21 293.77 173.16 294.20 172.64 C 291.15 172.56 289.58 169.39 286.90 168.33 C 285.17 167.83 284.53 166.12 283.84 164.65 L 285.45 165.07 C 285.47 165.50 285.51 166.35 285.53 166.78 C 288.91 166.11 294.46 168.61 295.67 163.95 C 296.47 163.79 296.47 163.79 295.67 163.95 C 294.90 164.57 293.35 165.80 292.58 166.41 C 290.16 165.58 286.18 166.66 285.23 163.60 C 286.85 162.89 289.30 163.02 289.91 160.95 C 288.61 161.47 287.40 162.17 286.17 162.82 C 285.69 160.65 283.89 161.88 282.65 161.86 L 282.20 160.63 C 283.92 160.45 285.68 160.32 287.28 159.56 C 285.76 159.40 284.24 159.37 282.73 159.48 C 281.74 158.94 279.77 157.86 278.79 157.32 C 279.81 157.42 281.87 157.63 282.89 157.74 L 282.88 157.34 C 281.56 156.57 280.26 155.76 278.92 155.03 C 280.54 154.31 282.34 155.43 284.03 154.75 C 284.75 154.82 286.21 154.95 286.93 155.02 C 291.55 152.12 293.45 146.74 297.03 142.84 C 298.24 141.64 299.44 143.16 300.54 143.66 C 300.60 143.04 300.74 141.81 300.81 141.19 C 302.79 141.27 304.78 141.38 306.77 141.38 C 305.22 140.85 303.61 140.57 302.03 140.19 C 301.00 139.08 299.84 138.10 298.67 137.16 C 298.65 136.08 298.62 135.01 298.58 133.94 C 296.57 133.05 294.99 131.48 293.37 130.05 C 292.11 128.61 294.18 127.17 294.80 126.02 C 294.30 125.74 293.32 125.18 292.82 124.90 C 293.58 124.21 295.28 124.10 295.48 123.00 L 295.21 122.57 C 297.52 121.26 300.44 123.82 302.63 124.84 C 302.67 124.55 302.75 123.97 302.79 123.68 C 299.72 122.62 296.47 121.58 294.31 119.02 L 295.25 120.47 L 294.39 121.12 C 293.44 121.79 292.71 123.03 291.38 122.57 C 291.39 122.92 291.40 123.62 291.40 123.97 C 290.48 123.60 288.64 122.85 287.72 122.47 C 288.80 123.29 289.93 124.03 291.10 124.74 C 291.54 125.46 292.40 126.91 292.83 127.64 C 291.59 128.02 290.59 127.30 289.76 126.46 C 288.68 128.02 286.55 127.57 285.14 128.74 C 284.78 126.92 283.84 125.31 282.43 124.13 C 282.97 125.47 283.51 126.81 284.00 128.17 C 282.27 127.37 280.85 126.14 279.31 125.07 C 279.29 127.96 281.97 128.87 284.44 128.31 C 284.69 129.29 285.17 130.14 285.87 130.87 C 286.61 129.54 287.87 128.74 289.23 129.87 C 289.79 129.42 290.34 128.95 290.89 128.48 C 292.61 131.05 295.01 133.02 297.00 135.36 C 294.92 136.32 292.97 134.53 290.84 134.64 L 289.73 133.57 L 289.84 135.14 C 290.20 135.20 290.92 135.33 291.28 135.39 C 291.71 136.12 292.57 137.58 293.00 138.31 C 291.99 138.81 290.99 139.33 289.99 139.82 C 288.54 139.12 287.61 138.04 287.21 136.60 C 287.68 136.35 288.62 135.85 289.09 135.60 L 286.84 135.63 C 287.09 135.13 287.60 134.13 287.85 133.63 C 286.03 133.83 284.16 131.22 283.03 133.83 C 282.09 132.47 281.12 131.14 279.98 129.95 C 280.64 131.21 281.36 132.44 282.14 133.63 C 281.33 133.68 279.71 133.76 278.90 133.80 C 278.70 133.32 278.30 132.37 278.09 131.89 C 278.34 133.41 278.71 134.93 279.45 136.30 L 279.28 134.25 C 281.35 133.81 283.41 134.09 284.28 136.27 L 284.39 134.97 C 284.94 135.01 286.03 135.10 286.58 135.14 C 286.61 136.91 286.58 138.67 286.58 140.44 C 284.49 140.16 285.30 142.41 284.96 143.54 C 285.65 143.55 287.02 143.57 287.71 143.58 C 287.65 145.07 287.59 146.56 287.52 148.05 C 287.07 148.52 286.16 149.46 285.70 149.93 C 287.17 149.42 288.64 148.88 290.09 148.29 C 289.44 150.77 288.28 153.42 285.55 154.10 C 284.86 152.27 284.26 150.42 283.68 148.56 C 283.44 150.40 283.22 152.27 282.39 153.96 C 281.06 152.80 279.53 151.93 278.03 151.02 C 277.95 148.72 281.41 149.59 282.77 148.96 C 281.74 147.67 280.68 146.41 279.59 145.17 L 281.91 145.48 C 282.50 143.62 281.32 143.30 279.79 143.36 C 279.39 145.01 278.48 146.47 277.78 148.00 C 276.39 146.95 275.31 145.47 274.89 143.76 C 275.41 143.75 276.45 143.72 276.97 143.71 C 276.82 143.40 276.51 142.80 276.36 142.50 C 276.72 140.43 276.91 138.25 278.27 136.54 C 277.53 135.60 276.79 134.67 276.06 133.73 C 276.12 135.75 276.27 137.76 276.47 139.77 C 275.86 139.12 274.63 137.81 274.02 137.16 C 274.20 137.79 274.56 139.05 274.74 139.68 L 275.97 139.24 C 276.38 141.42 272.52 144.40 271.53 141.16 C 270.45 142.40 270.88 144.06 272.53 144.44 C 274.14 145.46 275.57 146.74 276.97 148.04 C 276.66 149.73 274.74 150.02 273.55 150.90 C 271.73 149.96 269.91 149.03 268.08 148.12 C 268.22 148.90 268.50 150.47 268.64 151.25 C 267.22 151.08 266.56 149.88 265.86 148.80 C 265.51 147.13 265.20 145.42 264.38 143.90 C 264.83 146.46 265.61 148.96 266.76 151.30 C 265.09 151.87 263.48 152.60 261.85 153.29 C 261.57 152.82 261.02 151.87 260.75 151.40 L 260.04 150.47 C 258.07 147.46 256.98 143.99 255.51 140.73 C 257.12 139.61 258.70 138.43 260.23 137.20 C 259.51 138.25 258.79 139.31 258.08 140.37 C 258.82 140.32 260.31 140.21 261.05 140.15 C 261.59 142.61 262.16 145.05 262.73 147.50 C 261.84 147.02 260.05 146.07 259.15 145.59 C 259.40 147.82 261.00 149.43 262.25 151.15 C 262.89 151.23 264.18 151.39 264.82 151.48 C 263.55 150.14 262.30 148.78 261.08 147.39 C 261.70 147.47 262.93 147.63 263.54 147.71 C 262.73 145.41 262.09 143.05 261.56 140.67 C 264.40 140.28 267.24 140.61 269.86 141.80 C 270.04 138.85 265.81 139.57 264.44 137.89 C 264.45 137.11 264.49 135.56 264.50 134.78 C 263.59 136.61 263.24 139.17 260.77 139.61 C 260.98 135.12 264.89 132.73 267.91 130.15 C 268.52 130.62 269.14 131.09 269.78 131.55 C 269.34 130.14 268.64 128.63 267.17 128.03 C 267.35 127.64 267.70 126.88 267.87 126.49 L 266.46 126.86 C 266.39 126.11 266.25 124.61 266.18 123.86 L 264.91 125.94 C 264.15 124.55 263.44 123.13 262.73 121.72 C 263.13 124.75 264.59 127.37 266.25 129.87 C 265.04 130.87 263.84 131.89 262.67 132.93 C 261.33 130.46 259.90 128.04 258.13 125.85 C 256.41 123.34 253.77 120.57 255.00 117.26 C 256.27 116.74 256.90 117.42 256.87 119.32 C 257.44 120.72 258.01 122.13 258.79 123.44 C 258.33 121.21 257.47 119.09 257.01 116.87 C 257.86 116.07 258.91 115.48 259.66 114.57 C 258.23 115.24 256.73 115.68 255.15 115.88 C 255.21 115.20 255.33 113.85 255.39 113.17 C 255.24 113.41 254.95 113.89 254.80 114.13 C 254.55 114.31 254.05 114.66 253.80 114.84 C 252.43 114.51 251.83 113.00 250.82 112.18 C 251.44 113.92 252.23 115.60 253.24 117.15 C 253.08 119.43 254.25 122.01 252.95 124.09 C 250.65 122.99 251.50 120.33 251.73 118.37 C 249.53 119.04 248.19 117.63 246.97 116.02 C 247.51 117.12 248.07 118.20 248.65 119.27 C 247.84 120.26 247.01 121.22 246.16 122.17 L 246.36 123.43 C 245.69 123.02 245.02 122.61 244.37 122.19 C 243.65 119.69 241.83 117.71 241.25 115.16 C 240.81 116.25 240.37 117.33 239.94 118.42 C 239.56 119.67 239.31 120.95 239.04 122.22 C 240.16 121.62 241.10 119.64 242.57 120.29 C 243.59 121.83 244.31 123.55 245.28 125.13 L 245.21 122.76 C 247.30 123.49 248.12 124.96 247.66 127.19 C 247.72 126.57 247.82 125.31 247.87 124.68 C 248.69 124.63 250.33 124.52 251.15 124.46 C 251.72 126.87 252.38 129.26 252.68 131.73 C 252.97 131.75 253.56 131.80 253.85 131.83 C 253.35 129.74 252.78 127.67 252.32 125.59 C 253.18 126.34 254.03 127.12 254.86 127.92 C 254.65 126.21 254.47 124.49 254.69 122.78 C 255.44 124.58 256.10 126.42 256.68 128.29 C 257.16 128.54 258.10 129.05 258.57 129.30 C 259.15 131.26 259.52 133.27 259.77 135.30 C 259.15 135.47 257.93 135.81 257.32 135.98 C 256.84 133.67 256.33 131.38 255.80 129.09 L 255.27 129.25 C 255.86 131.85 256.49 134.43 257.00 137.05 C 256.40 137.38 255.20 138.05 254.60 138.38 C 253.78 138.37 252.96 138.38 252.14 138.42 C 253.48 141.78 254.89 145.19 254.94 148.88 C 255.39 148.55 256.28 147.89 256.73 147.56 C 257.61 148.83 258.49 150.11 259.37 151.39 L 260.04 150.47 L 259.78 151.82 C 260.26 152.29 261.20 153.24 261.67 153.71 C 260.16 154.97 258.60 156.15 256.97 157.25 C 256.88 156.87 256.71 156.12 256.63 155.74 C 254.13 154.88 253.38 151.92 252.08 149.88 C 250.98 146.89 248.45 144.42 248.19 141.16 C 249.92 141.04 250.13 143.22 251.13 144.22 C 250.75 142.95 250.33 141.71 249.90 140.46 C 250.39 139.55 251.40 137.50 249.99 136.94 C 249.56 138.20 250.01 140.41 248.03 140.21 C 246.31 139.20 247.38 136.02 244.84 135.89 C 245.03 139.49 246.14 143.02 248.49 145.82 C 247.19 145.27 245.90 144.70 244.64 144.09 C 245.83 145.57 246.82 147.21 247.39 149.04 L 247.28 145.88 C 247.77 146.28 248.75 147.10 249.24 147.50 C 249.84 149.46 250.77 151.29 251.88 153.01 C 252.93 154.17 253.65 155.50 254.05 157.00 C 252.50 156.28 251.01 155.47 249.68 154.40 C 249.35 153.97 248.68 153.11 248.34 152.68 C 248.56 153.58 249.01 155.38 249.23 156.28 C 247.83 155.21 246.52 154.09 245.19 152.96 C 246.29 156.20 249.84 158.47 249.74 162.00 C 250.61 161.44 252.35 160.32 253.22 159.75 C 252.28 163.49 248.95 165.95 246.84 169.05 C 249.02 168.16 250.02 164.91 252.35 164.93 L 252.67 165.48 C 251.52 169.88 254.14 162.24 256.24 164.62 C 254.77 166.92 252.77 168.78 250.94 170.78 C 249.73 170.78 248.45 170.76 247.74 172.00 C 247.29 171.57 246.40 170.70 245.95 170.27 C 245.42 170.68 244.36 171.48 243.83 171.88 C 244.51 170.53 245.32 169.24 246.05 167.91 C 245.40 168.42 244.10 169.44 243.44 169.95 C 243.23 169.14 242.79 167.52 242.57 166.70 C 243.39 165.98 244.21 165.26 245.03 164.54 L 244.49 163.73 C 246.71 163.76 248.46 161.60 248.93 159.59 C 246.63 159.71 245.68 162.14 244.49 163.73 C 243.43 165.07 242.45 166.87 240.52 166.92 L 240.33 167.46 C 238.24 167.00 236.32 168.12 234.30 168.38 C 234.35 167.49 234.46 165.69 234.51 164.80 C 233.97 165.77 233.43 166.75 232.90 167.74 C 232.61 167.14 232.03 165.94 231.74 165.34 C 230.03 165.61 228.80 164.44 227.55 163.50 C 228.23 160.34 228.91 157.18 229.89 154.10 C 228.70 155.67 227.71 157.38 226.38 158.83 L 226.38 156.80 C 225.89 156.65 224.89 156.34 224.39 156.19 C 224.55 153.81 225.98 151.79 227.07 149.75 C 225.71 149.30 222.41 149.08 223.65 146.66 C 222.72 146.47 221.83 146.20 220.94 145.92 C 219.55 149.02 218.27 145.26 217.40 144.02 C 217.99 143.08 218.60 142.14 219.20 141.21 C 220.12 141.29 221.04 141.39 221.96 141.49 C 222.40 143.04 222.97 144.57 223.73 146.00 C 224.24 145.23 225.27 143.68 225.78 142.90 C 227.31 144.16 228.24 145.72 227.36 147.74 L 229.22 147.01 C 228.62 148.75 228.70 151.33 226.29 151.71 C 227.34 152.51 228.55 153.03 229.71 153.64 L 231.31 153.00 C 231.29 153.47 231.23 154.42 231.21 154.89 L 232.54 154.40 C 232.29 156.23 232.64 158.03 234.88 157.82 C 234.90 156.48 234.29 155.65 233.07 155.32 C 233.65 155.42 234.80 155.61 235.38 155.71 L 235.28 152.36 C 236.01 153.80 235.93 155.45 235.23 156.95 C 236.67 156.75 239.54 156.36 240.98 156.17 C 238.79 155.20 237.19 153.55 235.52 151.94 C 235.25 151.17 234.71 149.62 234.45 148.84 C 235.25 147.65 235.93 146.36 236.93 145.31 C 238.76 145.46 240.60 145.31 242.42 145.06 L 242.54 147.31 C 242.85 146.38 243.48 144.53 243.79 143.60 L 242.21 143.57 L 242.51 141.57 C 242.27 142.40 241.79 144.07 241.55 144.90 C 241.04 144.50 240.01 143.71 239.49 143.32 C 239.38 139.81 239.26 136.30 239.45 132.79 C 239.05 133.87 238.66 134.95 238.27 136.04 C 237.33 137.01 237.05 138.19 237.43 139.56 C 234.95 139.77 235.82 143.22 234.86 144.84 C 232.01 143.71 234.55 139.45 235.33 137.42 C 235.02 135.98 234.79 134.52 234.61 133.07 L 234.26 133.11 C 234.68 135.28 234.67 137.53 232.98 139.20 C 232.75 137.76 232.55 136.32 232.38 134.87 C 232.07 134.71 231.47 134.39 231.16 134.23 C 231.86 131.50 232.74 128.80 233.94 126.24 C 233.02 127.61 231.42 127.24 230.01 127.26 C 229.37 128.51 229.06 129.88 228.90 131.28 C 229.44 130.49 230.07 129.78 230.79 129.17 C 230.65 131.71 230.02 134.24 230.58 136.80 L 229.47 136.57 C 229.47 137.01 229.47 137.89 229.47 138.33 C 230.30 138.45 231.98 138.71 232.82 138.84 C 232.70 140.41 232.59 141.99 232.48 143.56 C 230.98 143.23 229.81 143.69 228.95 144.96 C 227.95 143.70 227.43 142.29 227.38 140.71 C 227.04 141.25 226.35 142.32 226.01 142.86 C 224.45 141.79 223.47 140.26 223.11 138.41 C 223.65 138.31 224.74 138.12 225.29 138.03 C 224.61 137.90 223.24 137.65 222.56 137.52 C 222.82 137.11 223.33 136.29 223.59 135.88 C 220.74 134.97 222.10 131.14 223.30 129.28 L 224.56 129.97 C 225.25 128.24 225.15 125.41 227.55 125.21 C 227.37 124.50 227.18 123.80 227.01 123.09 C 229.14 120.94 229.41 117.36 232.37 116.01 C 232.31 118.04 232.53 120.04 233.02 122.01 L 231.15 121.32 C 231.95 122.23 232.74 123.13 233.53 124.05 C 233.47 123.32 233.34 121.87 233.27 121.15 C 234.07 121.34 235.65 121.73 236.44 121.93 C 236.26 122.79 235.89 124.51 235.70 125.36 C 236.09 125.47 236.86 125.68 237.24 125.78 C 237.45 124.35 237.67 122.92 237.90 121.50 C 236.56 121.64 235.61 121.09 235.05 119.86 C 233.83 118.59 233.62 116.72 232.69 115.27 C 233.71 115.27 235.75 115.26 236.77 115.26 C 235.81 115.11 233.90 114.80 232.95 114.64 C 233.21 114.01 233.72 112.74 233.98 112.11 C 233.09 114.18 230.01 114.21 231.54 111.17 L 230.19 111.63 C 230.37 110.50 230.73 108.25 230.91 107.13 C 229.33 108.43 228.29 110.16 227.42 111.96 C 227.92 113.19 228.74 114.12 229.87 114.76 C 229.91 116.10 229.32 117.18 228.20 117.92 C 228.00 117.17 227.60 115.67 227.41 114.91 C 228.18 118.36 226.51 121.56 226.52 124.98 C 225.33 126.25 224.66 127.88 223.94 129.44 C 221.88 127.62 223.03 125.18 223.93 123.10 C 219.76 123.84 220.04 127.17 221.43 129.90 C 220.74 131.55 220.19 133.24 219.71 134.96 C 222.81 135.41 221.27 138.57 221.51 140.68 C 219.18 140.05 216.87 139.39 214.51 138.90 C 214.62 138.43 214.83 137.51 214.94 137.04 C 213.65 139.63 210.64 137.50 209.24 136.24 C 209.64 133.86 211.76 132.29 213.00 130.34 C 213.66 131.59 214.36 132.81 215.11 134.01 C 214.69 132.55 213.87 131.28 213.13 129.97 C 215.22 127.44 218.52 126.22 220.17 123.26 C 217.92 124.96 215.14 126.11 213.56 128.56 C 211.89 130.90 210.18 133.21 208.39 135.46 C 209.63 137.45 210.18 139.85 209.30 142.10 C 206.53 144.56 205.56 148.63 202.02 150.27 L 202.11 151.68 C 201.51 151.02 200.91 150.37 200.32 149.71 L 201.75 149.51 L 201.69 148.66 C 204.73 147.48 204.82 143.82 205.76 141.17 C 206.32 140.12 206.64 139.00 206.73 137.82 C 206.02 139.09 205.44 140.44 204.82 141.76 C 204.40 142.98 204.77 144.75 203.44 145.45 C 200.62 147.11 199.76 150.44 198.45 153.21 C 196.61 153.20 195.56 154.82 194.20 155.76 C 195.18 152.83 197.01 150.38 199.24 148.30 C 200.71 144.07 202.97 140.17 205.50 136.51 C 206.83 135.18 208.64 133.07 206.84 131.33 C 207.61 130.25 208.39 129.17 209.09 128.04 C 207.70 129.28 206.42 130.63 205.10 131.95 C 204.23 131.79 202.48 131.48 201.61 131.32 C 201.68 130.55 201.84 129.01 201.91 128.24 C 203.53 126.46 205.78 123.78 207.97 126.62 C 209.55 125.04 211.16 123.46 213.06 122.26 C 214.37 122.80 215.63 123.57 217.11 123.56 C 218.39 121.48 218.71 116.43 222.13 117.96 C 222.75 116.65 223.39 115.34 223.87 113.97 C 223.04 114.73 222.46 115.65 222.10 116.72 C 221.32 116.39 219.75 115.73 218.97 115.40 C 219.21 114.90 219.68 113.89 219.92 113.39 L 219.53 113.19 C 218.23 115.25 216.91 117.30 215.72 119.42 C 216.62 118.75 218.42 117.41 219.32 116.74 C 218.13 118.99 218.20 123.80 214.46 122.62 C 215.81 120.42 215.65 117.90 215.43 115.46 C 216.92 114.48 220.41 111.44 216.47 111.29 C 215.71 113.18 214.50 114.70 212.85 115.85 C 213.02 113.18 214.57 110.97 215.57 108.58 C 219.64 110.18 217.32 103.80 220.78 104.64 C 219.33 102.86 220.51 100.77 221.30 99.00 C 222.37 98.00 223.33 96.71 222.10 95.08 L 223.15 95.41 C 224.22 93.20 226.72 91.96 226.93 89.30 C 223.02 88.79 225.30 95.16 221.51 94.96 C 221.65 95.38 221.94 96.23 222.08 96.65 L 220.09 96.37 L 222.17 97.06 C 221.25 97.64 220.34 98.21 219.42 98.78 C 217.44 96.97 218.52 94.99 219.58 93.14 C 219.32 93.18 218.81 93.24 218.56 93.27 C 217.72 94.22 216.87 95.16 216.02 96.09 C 216.16 96.65 216.44 97.76 216.58 98.32 C 217.96 98.89 219.14 99.77 219.99 101.02 C 218.79 101.99 217.50 102.84 216.14 103.56 C 216.28 102.92 216.57 101.64 216.72 101.00 C 216.05 101.16 214.73 101.48 214.06 101.64 C 214.45 102.70 215.23 104.81 215.63 105.87 L 213.82 105.55 C 214.28 105.79 215.21 106.28 215.67 106.53 C 214.69 108.99 214.28 112.61 211.05 113.12 C 211.37 112.21 212.02 110.39 212.35 109.48 L 212.57 109.20 L 212.63 109.07 C 212.56 109.17 212.42 109.38 212.35 109.48 C 211.68 110.02 210.35 111.12 209.69 111.66 C 209.69 110.91 209.69 109.40 209.69 108.65 L 207.82 109.01 C 208.40 107.95 209.57 105.83 210.15 104.77 C 209.65 105.13 208.67 105.84 208.17 106.20 C 205.04 107.71 208.21 112.15 204.14 112.94 C 204.34 111.23 204.58 109.53 204.87 107.83 C 204.37 107.27 203.39 106.13 202.90 105.57 C 203.55 105.15 204.84 104.30 205.48 103.88 C 205.37 103.55 205.13 102.89 205.02 102.56 C 206.66 102.45 208.13 101.70 209.41 100.69 C 208.16 100.68 206.91 100.69 205.67 100.70 L 205.71 101.80 L 204.42 101.33 C 204.06 102.28 203.33 104.17 202.96 105.12 C 201.91 103.30 201.26 100.74 198.45 101.48 C 198.56 100.92 198.78 99.82 198.89 99.27 L 196.77 99.20 C 198.51 95.68 202.33 94.82 205.42 93.05 L 208.14 93.47 C 206.86 94.29 205.54 95.03 204.17 95.70 C 206.11 96.04 208.70 94.58 208.69 92.50 C 206.56 92.44 204.43 92.67 202.31 92.73 L 202.38 90.87 C 205.78 90.39 210.01 89.52 211.94 93.27 C 212.87 93.46 213.81 93.62 214.76 93.75 C 215.39 91.38 211.47 92.02 211.33 89.73 C 211.37 89.07 211.46 87.76 211.51 87.11 C 209.47 90.79 205.34 89.52 201.95 89.16 C 201.91 85.81 205.42 86.33 207.70 86.33 C 207.64 85.56 207.53 84.03 207.47 83.26 L 208.42 83.77 C 208.02 80.62 211.12 79.20 213.04 77.39 C 212.19 77.53 210.50 77.83 209.66 77.97 C 210.44 76.71 211.55 75.59 211.93 74.10 C 211.40 74.54 210.34 75.43 209.81 75.88 C 209.50 75.13 208.88 73.63 208.57 72.87 C 209.46 72.40 210.34 71.92 211.23 71.43 L 209.20 71.63 C 209.31 69.78 209.47 67.93 209.66 66.08 L 208.62 66.73 C 208.73 65.50 208.80 64.27 208.89 63.03 C 208.49 63.18 207.68 63.46 207.28 63.60 C 210.08 61.80 206.85 59.70 204.71 60.36 C 205.44 59.41 206.18 58.47 206.94 57.53 L 205.05 57.44 C 204.48 58.30 203.86 59.13 203.18 59.91 C 202.76 59.50 201.92 58.68 201.51 58.27 C 200.83 58.59 199.48 59.22 198.81 59.54 C 197.46 58.31 196.32 56.88 195.22 55.43 C 195.18 56.30 195.11 58.04 195.08 58.91 C 193.76 57.47 192.54 55.93 191.61 54.21 C 191.17 55.53 190.83 56.88 190.52 58.23 C 187.05 55.13 183.43 51.94 180.84 48.06 C 182.57 49.05 184.08 50.36 185.71 51.50 C 185.67 50.69 185.58 49.07 185.54 48.26 L 184.36 48.99 C 184.49 47.20 183.72 45.62 182.59 44.29 C 182.53 44.00 182.42 43.43 182.36 43.15 C 183.71 44.17 185.03 45.25 186.38 46.29 C 185.58 44.95 184.83 43.58 184.12 42.20 C 184.74 42.78 185.98 43.94 186.60 44.52 L 187.78 42.46 L 187.44 44.97 L 188.77 43.82 C 189.25 46.08 190.57 47.91 192.32 49.36 C 191.75 49.62 190.60 50.13 190.02 50.39 C 191.34 51.71 192.92 52.71 194.82 52.97 C 194.61 49.91 192.01 47.96 190.67 45.40 C 189.53 43.77 188.55 41.15 186.16 41.37 L 186.96 40.10 L 184.68 40.33 C 186.59 38.92 188.49 40.68 190.02 41.81 C 191.83 43.11 192.57 45.34 193.85 47.09 C 193.20 45.55 192.39 44.06 192.26 42.36 C 190.84 40.61 189.40 38.87 188.33 36.88 C 191.68 37.49 193.32 41.20 196.15 42.91 C 196.63 45.21 198.26 46.93 200.10 48.28 C 199.25 42.41 192.23 39.68 192.26 33.54 L 193.85 33.78 C 193.73 33.05 193.49 31.57 193.37 30.83 C 194.27 32.81 194.63 35.03 196.13 36.71 L 193.83 36.93 C 194.78 37.43 195.91 37.72 196.64 36.67 C 198.92 40.74 202.65 43.60 206.15 46.57 C 205.36 44.15 203.67 42.01 201.23 41.12 C 199.11 37.84 196.42 34.91 194.83 31.32 C 199.57 31.83 199.09 38.12 203.19 39.22 C 201.84 35.92 198.28 33.89 197.98 30.09 C 198.97 30.46 200.95 31.21 201.93 31.58 C 203.66 34.06 204.64 37.00 206.54 39.36 L 206.40 39.75 C 207.53 39.65 208.66 39.54 209.79 39.43 C 209.52 40.71 209.65 41.94 210.15 43.12 C 210.30 41.81 210.43 40.49 210.56 39.18 L 209.43 39.37 L 209.92 37.70 L 208.37 38.44 C 208.49 37.59 208.74 35.89 208.87 35.05 C 207.52 33.60 207.19 31.74 207.14 29.83 L 205.91 29.93 L 206.59 28.44 C 206.32 28.53 205.77 28.72 205.50 28.81 L 205.07 27.14 C 204.63 27.76 204.20 28.38 203.78 29.01 C 205.87 30.94 206.46 33.92 208.51 35.86 C 208.33 36.35 207.96 37.32 207.78 37.80 C 206.52 37.67 205.98 36.30 205.42 35.36 C 203.91 32.43 202.02 29.64 201.17 26.42 C 201.60 26.51 202.46 26.69 202.88 26.78 C 203.04 26.06 203.34 24.61 203.49 23.89 C 204.65 24.60 205.76 25.37 206.83 26.21 C 206.76 25.40 206.63 23.77 206.56 22.95 C 207.99 24.70 209.51 26.47 210.39 28.58 C 210.54 33.21 214.98 36.02 216.61 40.12 C 216.56 39.06 216.44 36.94 216.38 35.88 C 217.64 37.37 218.42 39.17 219.56 40.74 C 219.36 39.12 218.87 37.49 219.51 35.90 L 221.04 36.68 L 221.88 35.44 C 220.51 35.44 217.77 35.44 216.40 35.45 C 217.33 34.60 219.20 32.92 220.13 32.07 C 219.50 32.56 218.25 33.52 217.62 34.01 C 217.92 30.25 215.90 26.68 214.02 23.57 C 214.24 24.80 214.54 26.02 214.93 27.22 C 215.58 29.16 216.30 31.07 217.07 32.97 C 216.65 32.93 215.79 32.86 215.36 32.83 C 216.20 34.20 216.21 35.80 215.17 37.07 C 213.37 33.34 211.50 29.63 210.33 25.63 C 211.30 25.08 212.32 24.63 213.41 24.36 C 213.54 23.61 213.78 22.11 213.90 21.36 C 213.59 21.43 212.96 21.58 212.64 21.65 C 212.63 21.02 212.61 19.75 212.60 19.11 M 223.03 28.28 C 222.30 29.50 222.57 30.32 223.85 30.75 C 224.59 29.53 224.31 28.71 223.03 28.28 M 225.52 32.40 C 226.11 34.03 226.75 35.65 227.52 37.20 C 227.57 34.87 227.22 32.56 226.95 30.25 C 226.47 30.97 225.99 31.68 225.52 32.40 M 233.19 33.30 C 231.39 36.06 236.56 33.69 233.19 33.30 M 190.63 54.07 C 190.24 52.51 189.32 51.34 187.87 50.57 C 187.15 51.37 189.41 54.27 190.63 54.07 M 286.34 51.16 C 286.37 54.56 289.42 49.74 286.34 51.16 M 285.57 75.01 C 285.58 75.69 285.62 77.06 285.63 77.74 C 284.20 77.65 282.77 77.57 281.35 77.50 C 281.34 77.78 281.31 78.35 281.30 78.63 C 287.15 79.05 292.56 76.08 298.39 76.31 C 298.35 75.49 298.11 74.74 297.67 74.06 C 294.95 75.10 292.07 75.63 289.33 76.58 C 288.01 76.80 285.30 78.72 285.65 75.66 C 286.76 75.30 287.90 74.93 289.01 74.53 C 287.86 74.68 286.71 74.84 285.57 75.01 M 260.18 78.09 C 261.29 80.71 262.21 83.70 264.93 85.09 C 264.09 82.31 261.89 80.33 260.18 78.09 M 295.13 85.07 C 296.32 85.77 297.53 85.77 298.75 85.09 C 298.71 83.80 295.17 83.71 295.13 85.07 M 237.42 85.52 C 236.34 86.76 236.46 87.47 237.79 87.64 C 238.81 86.39 238.68 85.68 237.42 85.52 M 227.12 87.30 C 227.21 88.74 228.23 89.84 228.88 91.06 C 229.32 90.36 230.19 88.95 230.62 88.25 L 231.50 88.77 L 231.64 86.40 C 230.18 86.80 228.30 86.07 227.12 87.30 M 224.44 100.52 C 224.50 102.76 224.51 105.00 224.20 107.23 C 223.49 106.80 222.07 105.96 221.37 105.54 C 221.38 106.76 221.40 109.20 221.41 110.42 C 223.52 109.88 225.76 109.94 227.83 109.27 L 227.32 107.91 C 226.68 107.81 225.40 107.62 224.76 107.53 C 226.22 105.09 226.96 102.37 226.87 99.52 C 226.12 100.00 225.31 100.34 224.44 100.52 M 212.41 100.91 C 211.50 103.45 215.35 101.62 213.12 100.53 L 212.41 100.91 M 213.22 107.24 C 213.82 107.84 213.82 107.84 213.22 107.24 M 242.33 109.23 C 242.58 112.66 245.16 107.48 242.33 109.23 M 276.04 115.55 C 277.15 114.78 277.10 113.97 275.91 113.13 C 274.80 113.88 274.85 114.69 276.04 115.55 M 310.34 113.16 C 310.68 113.92 310.68 113.92 310.34 113.16 M 226.21 130.23 L 225.68 130.82 C 226.24 133.28 228.86 129.92 226.21 130.23 M 251.09 132.07 C 251.24 134.13 251.67 136.14 252.00 138.18 C 252.52 137.32 253.02 136.45 253.51 135.57 C 252.49 134.74 253.05 131.55 251.09 132.07 M 281.90 141.25 C 283.04 143.79 284.49 146.24 284.72 149.10 C 284.94 147.15 286.73 144.65 284.35 143.34 C 284.53 142.84 284.88 141.83 285.06 141.32 C 281.89 143.18 281.65 138.51 280.23 136.91 C 280.52 138.45 281.14 139.88 281.90 141.25 M 208.25 139.19 C 208.82 139.81 208.82 139.81 208.25 139.19 M 248.66 163.13 C 249.43 162.41 249.43 162.41 248.66 163.13 M 247.86 163.90 C 248.06 163.70 248.46 163.32 248.66 163.13 C 248.46 163.32 248.06 163.70 247.86 163.90 M 247.11 164.72 C 246.42 165.52 246.42 165.52 247.11 164.72 C 247.30 164.51 247.67 164.10 247.86 163.90 C 247.67 164.10 247.30 164.51 247.11 164.72 M 299.84 181.41 L 300.40 179.47 L 296.53 178.69 L 299.13 181.91 L 297.96 183.69 C 298.65 183.62 300.04 183.49 300.73 183.42 C 301.65 180.83 304.37 179.52 305.97 177.38 C 304.24 179.16 302.14 180.47 299.84 181.41 M 302.28 184.22 C 302.77 184.88 302.77 184.88 302.28 184.22 M 334.87 187.20 C 335.76 186.39 335.62 185.61 334.46 184.84 C 333.24 185.69 333.38 186.48 334.87 187.20 M 303.37 186.37 C 303.65 186.65 303.65 186.65 303.37 186.37 M 291.83 187.57 C 291.19 189.07 290.51 190.55 290.00 192.10 C 290.94 191.61 291.85 191.08 292.74 190.51 L 293.52 190.40 C 293.52 189.36 293.53 188.32 293.54 187.29 C 293.11 187.36 292.25 187.50 291.83 187.57 M 298.42 188.48 C 296.76 190.56 295.26 192.74 293.83 194.97 C 292.57 196.33 291.23 198.87 294.46 198.89 C 295.49 196.84 297.18 195.22 298.07 193.09 C 296.76 194.38 294.16 196.96 292.85 198.25 C 294.32 194.52 297.31 191.84 299.92 188.94 L 299.60 192.69 L 298.53 192.57 C 298.43 192.86 298.23 193.45 298.14 193.74 C 298.88 193.64 300.38 193.45 301.13 193.35 C 299.17 194.55 299.39 196.84 299.47 198.69 C 300.34 196.75 300.74 193.45 303.34 193.22 L 303.81 190.77 C 304.89 191.94 305.31 193.47 305.63 195.00 C 306.13 194.04 306.61 193.07 307.10 192.11 C 308.16 190.81 309.26 189.51 310.02 188.00 C 309.00 189.10 308.14 190.31 307.32 191.56 C 306.32 191.19 305.33 190.78 304.43 190.23 C 306.44 189.43 306.66 188.44 305.08 187.28 C 303.69 189.00 302.81 191.04 301.87 193.01 C 301.06 191.73 299.96 190.51 299.95 188.89 L 301.73 188.23 C 301.65 185.63 299.54 188.25 298.42 188.48 M 287.04 189.88 C 286.74 190.60 286.16 192.04 285.86 192.76 C 286.21 192.77 286.91 192.77 287.27 192.78 C 287.99 191.44 287.91 190.48 287.04 189.88 M 285.23 194.19 C 284.70 195.05 284.15 195.90 283.58 196.73 C 283.19 197.67 282.40 199.54 282.01 200.47 C 283.63 198.59 285.43 196.86 287.52 195.50 C 286.81 194.93 286.05 194.49 285.23 194.19 M 314.09 199.38 C 312.44 202.26 317.51 199.57 314.09 199.38 Z" />
<path fill="#ffffff" opacity="1.00" d=" M 209.38 22.47 C 209.82 22.44 210.71 22.39 211.15 22.36 C 211.50 23.74 211.00 24.42 209.63 24.39 C 209.57 23.91 209.44 22.95 209.38 22.47 Z" />
<path fill="#ffffff" opacity="1.00" d=" M 255.15 21.77 C 258.59 22.93 259.18 27.24 262.21 29.06 L 261.27 29.27 C 258.24 29.18 255.35 26.65 253.86 24.05 L 257.40 26.04 C 256.60 24.64 255.85 23.21 255.15 21.77 Z" />
<path fill="#ffffff" opacity="1.00" d=" M 259.84 23.98 C 259.46 23.51 259.46 23.51 259.84 23.98 Z" />
<path fill="#ffffff" opacity="1.00" d=" M 259.84 23.98 C 262.86 23.89 263.99 30.62 266.84 27.65 C 267.84 29.36 268.69 31.16 269.80 32.82 C 268.96 33.41 268.13 34.01 267.31 34.61 C 265.65 34.23 264.02 34.25 262.41 34.67 C 262.68 32.43 259.71 32.09 258.79 30.39 C 260.64 31.07 262.23 32.83 264.40 32.15 C 263.63 31.74 262.09 30.92 261.32 30.51 L 261.96 29.85 C 262.46 29.78 263.48 29.65 263.98 29.58 C 262.21 28.16 259.69 26.50 259.84 23.98 Z" />
<path fill="#ffffff" opacity="1.00" d=" M 261.27 29.27 L 261.90 29.21 L 261.96 29.85 C 261.79 29.70 261.44 29.42 261.27 29.27 Z" />
<path fill="#ffffff" opacity="1.00" d=" M 265.28 36.94 C 267.58 36.46 272.20 34.13 272.85 37.72 C 273.26 37.56 274.07 37.24 274.48 37.08 C 274.47 37.78 274.43 39.17 274.42 39.87 C 273.06 40.18 271.70 40.44 270.34 40.69 L 270.30 39.16 C 269.64 39.35 268.32 39.72 267.66 39.90 C 267.07 39.16 265.88 37.68 265.28 36.94 Z" />
<path fill="#ffffff" opacity="1.00" d=" M 282.24 35.97 C 285.17 34.50 282.32 39.33 282.24 35.97 Z" />
<path fill="#ffffff" opacity="1.00" d=" M 279.12 39.97 C 279.82 39.84 281.22 39.56 281.92 39.43 C 285.30 41.46 279.18 42.39 279.12 39.97 Z" />
<path fill="#ffffff" opacity="1.00" d=" M 178.21 53.72 C 178.97 53.27 179.72 52.80 180.46 52.33 C 183.64 53.06 186.05 54.89 187.61 57.78 C 186.79 57.71 185.17 57.57 184.36 57.50 C 183.82 56.81 183.29 56.12 182.76 55.43 C 182.06 55.12 180.66 54.49 179.95 54.18 C 180.63 54.98 181.97 56.59 182.64 57.39 C 182.67 58.87 182.72 60.35 182.82 61.83 L 183.69 61.42 C 184.79 63.61 185.88 65.80 187.03 67.96 C 185.92 67.47 184.81 66.98 183.70 66.51 C 183.66 61.45 179.16 58.44 178.21 53.72 Z" />
<path fill="#ffffff" opacity="1.00" d=" M 176.03 56.28 C 177.36 56.38 179.37 57.94 178.91 59.48 C 177.49 59.36 175.74 57.78 176.03 56.28 Z" />
<path fill="#ffffff" opacity="1.00" d=" M 185.32 61.16 C 187.48 61.55 188.80 62.98 189.36 65.06 C 189.39 64.53 189.45 63.49 189.48 62.96 C 190.31 62.31 191.96 61.00 192.79 60.34 C 192.30 62.75 192.00 65.23 190.99 67.50 C 190.26 67.43 188.81 67.29 188.08 67.22 C 187.21 65.18 186.29 63.15 185.32 61.16 Z" />
<path fill="#ffffff" opacity="1.00" d=" M 194.35 61.22 C 196.73 61.10 197.91 62.88 198.81 64.79 C 199.60 63.23 200.76 61.99 202.29 61.06 C 202.35 62.05 202.46 64.04 202.52 65.03 C 201.08 66.29 199.41 67.37 198.49 69.12 C 201.34 68.82 202.51 65.92 204.22 64.05 C 207.61 66.48 206.58 70.64 206.56 74.20 C 205.32 74.05 204.35 74.43 203.65 75.35 C 205.49 75.37 206.96 76.00 208.07 77.25 C 206.63 77.30 205.20 77.37 203.76 77.44 C 204.60 77.66 206.27 78.11 207.10 78.33 C 205.95 81.67 202.56 78.19 200.86 77.06 C 202.74 75.57 203.04 73.85 201.45 71.99 C 201.73 71.27 202.30 69.82 202.58 69.09 C 200.12 69.43 199.57 71.50 199.80 73.62 C 199.42 74.14 198.66 75.19 198.28 75.71 C 197.86 75.59 197.00 75.35 196.58 75.23 C 196.53 75.72 196.43 76.70 196.38 77.19 C 196.10 76.49 195.55 75.09 195.28 74.39 C 194.27 74.85 193.26 75.31 192.26 75.78 C 191.86 73.36 190.92 71.07 189.47 69.09 C 192.05 67.20 193.30 64.13 194.35 61.22 M 196.38 65.40 C 195.70 66.88 195.03 68.37 194.39 69.87 C 195.48 71.57 196.50 73.30 197.24 75.19 C 197.52 71.90 197.05 68.61 196.38 65.40 M 193.19 73.56 C 193.43 73.56 193.93 73.55 194.17 73.54 C 194.20 71.95 194.14 69.87 192.81 68.78 C 191.22 69.84 193.35 72.05 193.19 73.56 Z" />
<path fill="#ffffff" opacity="1.00" d=" M 177.34 63.69 C 177.81 63.32 178.76 62.57 179.23 62.20 L 179.52 63.45 C 181.86 62.50 182.52 65.14 183.70 66.51 L 184.09 67.08 C 185.02 67.64 185.97 68.18 186.93 68.70 C 185.72 70.30 187.75 71.63 188.23 73.04 L 189.47 72.94 L 188.00 70.90 L 188.72 70.50 L 189.71 69.97 C 189.31 73.03 191.00 75.62 191.60 78.51 C 189.89 75.72 185.76 74.58 185.54 70.99 C 184.12 73.26 182.76 70.77 181.39 69.80 C 181.98 71.16 182.64 72.50 183.02 73.94 C 180.76 73.10 180.26 69.82 178.28 69.26 C 178.25 69.78 178.19 70.83 178.16 71.35 C 175.68 69.98 171.99 69.07 173.06 65.14 C 174.15 66.37 175.41 67.26 176.83 67.82 C 176.90 67.42 177.03 66.62 177.10 66.22 L 177.24 65.25 C 177.81 65.77 178.96 66.81 179.53 67.33 C 178.98 66.01 178.25 64.80 177.34 63.69 Z" />
<path fill="#ffffff" opacity="1.00" d=" M 174.65 64.02 C 175.82 63.31 177.50 64.98 177.10 66.22 L 176.52 66.36 C 175.31 65.95 174.69 65.17 174.65 64.02 Z" />
<path fill="#ffffff" opacity="1.00" d=" M 170.20 69.47 C 170.59 68.56 170.98 67.66 171.40 66.76 L 171.36 68.28 C 175.15 70.67 179.12 72.99 182.01 76.49 C 181.18 76.46 179.51 76.41 178.68 76.38 C 179.98 77.19 181.24 78.05 182.47 78.98 C 180.70 79.94 179.06 79.58 177.75 78.06 C 177.47 78.84 176.90 80.39 176.61 81.16 C 178.05 81.82 180.00 82.18 180.12 84.14 C 177.74 82.86 175.69 80.76 172.83 80.63 C 169.45 80.63 166.14 79.90 162.80 79.54 L 165.04 78.38 C 163.36 77.77 161.67 77.22 159.99 76.61 C 161.94 76.62 163.89 76.65 165.84 76.50 C 165.74 77.18 165.55 78.55 165.45 79.24 C 165.73 78.73 166.30 77.70 166.59 77.19 C 167.29 77.29 168.71 77.49 169.42 77.59 L 169.14 76.41 C 171.25 76.97 174.56 75.25 175.70 77.93 C 175.61 77.51 175.44 76.67 175.36 76.25 C 175.83 76.00 176.76 75.51 177.23 75.27 C 176.54 75.42 175.16 75.72 174.47 75.87 C 174.36 75.35 174.14 74.30 174.03 73.77 C 173.91 74.19 173.68 75.03 173.56 75.44 C 172.47 75.54 170.29 75.73 169.21 75.83 C 169.30 75.13 169.49 73.73 169.58 73.03 C 168.68 73.60 167.79 74.19 166.91 74.78 C 166.06 74.01 165.26 73.20 164.51 72.33 L 166.84 72.25 C 166.70 71.65 166.41 70.46 166.27 69.86 C 169.19 70.98 172.11 72.21 175.22 72.72 C 173.66 71.47 171.91 70.49 170.20 69.47 Z" />
<path fill="#ffffff" opacity="1.00" d=" M 188.72 70.50 C 188.02 69.96 188.02 69.96 188.72 70.50 Z" />
<path fill="#ffffff" opacity="1.00" d=" M 184.05 74.43 C 186.14 74.48 187.66 75.77 188.79 77.43 C 187.92 77.91 187.06 78.41 186.20 78.91 L 188.26 80.19 C 186.66 80.35 185.89 78.98 185.04 77.94 L 186.99 77.64 C 186.01 76.57 184.99 75.54 184.05 74.43 Z" />
<path fill="#ffffff" opacity="1.00" d=" M 166.75 75.68 C 167.17 75.70 168.01 75.73 168.43 75.75 L 168.43 76.51 C 168.01 76.49 167.17 76.46 166.75 76.44 L 166.75 75.68 Z" />
<path fill="#ffffff" opacity="1.00" d=" M 199.57 79.14 C 201.93 79.65 204.64 80.48 205.75 82.84 C 203.54 85.33 202.00 81.00 199.84 80.37 C 200.71 81.97 201.83 83.41 202.80 84.96 C 199.39 85.80 196.84 82.94 195.99 79.97 C 197.07 80.61 198.12 81.32 199.17 82.04 C 199.27 81.31 199.47 79.86 199.57 79.14 Z" />
<path fill="#ffffff" opacity="1.00" d=" M 160.78 81.39 C 161.51 81.43 162.95 81.51 163.68 81.56 L 163.49 80.51 C 165.04 81.10 168.50 79.37 168.77 81.78 C 167.18 82.77 165.33 83.18 163.56 83.73 L 163.55 82.47 C 162.98 82.44 161.85 82.38 161.29 82.35 L 161.62 83.67 C 161.41 83.70 160.99 83.75 160.78 83.78 C 160.78 83.18 160.78 81.99 160.78 81.39 Z" />
<path fill="#ffffff" opacity="1.00" d=" M 192.26 81.08 C 193.64 81.78 194.48 83.07 195.16 84.41 C 195.81 84.33 197.10 84.17 197.75 84.09 C 197.64 85.37 197.52 86.66 197.39 87.94 C 195.09 86.14 193.99 83.36 192.26 81.08 Z" />
<path fill="#ffffff" opacity="1.00" d=" M 169.75 82.20 C 170.58 79.90 178.25 83.67 173.16 85.21 C 174.25 85.98 175.35 86.73 176.50 87.41 C 175.04 88.43 175.78 90.67 174.25 91.69 C 174.26 91.04 174.27 89.74 174.27 89.10 C 173.26 91.56 171.23 90.41 169.55 89.35 C 170.68 88.68 172.94 87.33 174.06 86.66 C 173.35 86.41 172.63 86.17 171.92 85.93 C 170.92 86.80 169.75 87.45 168.43 87.59 C 168.04 85.57 170.58 84.71 171.83 83.60 L 170.25 83.64 L 169.88 83.02 L 169.75 82.20 Z" />
<path fill="#ffffff" opacity="1.00" d=" M 186.15 82.15 C 187.55 83.56 188.78 85.21 188.89 87.30 C 190.73 85.96 189.43 83.82 189.47 82.03 C 191.05 84.02 189.02 88.31 193.18 87.81 C 192.91 86.85 192.37 84.92 192.10 83.96 C 193.47 86.10 195.94 87.55 196.44 90.18 L 194.74 89.24 C 194.12 90.73 192.56 91.21 191.27 91.94 C 191.33 91.57 191.45 90.84 191.51 90.47 C 190.90 90.07 189.66 89.26 189.05 88.85 C 189.16 90.67 190.56 92.35 190.97 94.16 C 188.38 93.02 187.24 89.57 187.59 86.88 C 188.24 85.09 186.73 83.71 186.15 82.15 M 188.29 87.39 C 188.68 87.71 188.68 87.71 188.29 87.39 Z" />
<path fill="#ffffff" opacity="1.00" d=" M 168.42 84.01 C 168.66 83.65 169.12 82.94 169.35 82.58 L 169.88 83.02 C 169.69 83.35 169.32 84.02 169.13 84.35 L 168.42 84.01 Z" />
<path fill="#ffffff" opacity="1.00" d=" M 161.12 84.45 C 162.06 84.45 163.96 84.47 164.90 84.48 C 163.34 87.01 161.36 89.51 158.34 90.31 C 158.56 89.03 158.62 87.75 158.53 86.47 C 159.61 86.11 160.70 85.76 161.80 85.43 L 161.12 84.45 Z" />
<path fill="#ffffff" opacity="1.00" d=" M 197.97 95.08 C 196.57 92.12 198.56 88.49 201.21 87.02 C 201.27 87.89 201.41 89.63 201.48 90.50 C 201.70 92.52 204.37 96.28 199.38 94.97 C 199.45 94.30 199.58 92.95 199.65 92.27 C 199.09 93.21 198.54 94.15 197.97 95.08 Z" />
<path fill="#ffffff" opacity="1.00" d=" M 160.25 91.11 C 161.37 89.79 162.52 88.48 163.72 87.23 C 165.09 88.27 166.50 89.27 167.95 90.21 C 166.69 91.49 165.43 92.77 164.17 94.04 C 162.88 93.04 161.57 92.07 160.25 91.11 Z" />
<path fill="#ffffff" opacity="1.00" d=" M 179.35 90.07 L 179.91 90.39 C 178.85 92.47 177.68 94.56 177.55 96.95 C 179.01 96.06 179.40 94.31 180.15 92.90 C 180.77 92.76 182.02 92.49 182.64 92.35 C 182.49 91.26 182.37 90.18 182.26 89.09 C 184.01 90.59 183.26 93.04 184.18 94.94 C 184.29 95.83 184.39 96.72 184.50 97.61 C 184.05 97.49 183.16 97.24 182.71 97.12 C 182.39 97.71 181.73 98.88 181.41 99.47 C 181.23 98.63 180.88 96.95 180.70 96.11 C 180.36 98.88 179.26 101.44 177.99 103.90 C 176.94 102.96 175.76 102.08 175.22 100.73 L 174.04 100.68 C 173.83 100.44 173.41 99.98 173.20 99.74 C 172.55 99.34 171.27 98.53 170.63 98.13 C 170.24 100.02 169.90 102.23 168.21 103.45 C 168.31 101.49 171.49 98.96 168.53 97.63 C 168.37 98.52 168.03 100.32 167.86 101.21 C 167.33 100.18 166.75 99.18 166.15 98.19 L 164.98 100.41 C 165.09 99.01 165.66 97.79 166.67 96.75 C 164.98 93.96 169.66 90.34 171.19 93.87 C 171.62 93.10 172.06 92.33 172.50 91.57 C 173.02 93.57 171.44 94.88 170.60 96.42 C 171.15 96.41 172.25 96.40 172.79 96.39 C 172.69 96.92 172.47 97.97 172.36 98.50 L 173.48 98.58 C 174.62 96.14 175.66 93.64 176.98 91.30 C 177.50 91.31 178.53 91.33 179.04 91.34 L 179.35 90.07 Z" />
<path fill="#ffffff" opacity="1.00" d=" M 186.31 90.89 C 187.59 92.58 187.75 94.71 187.91 96.74 C 185.43 95.78 186.46 92.91 186.31 90.89 Z" />
<path fill="#ffffff" opacity="1.00" d=" M 191.73 95.91 C 192.85 95.09 193.55 93.43 194.98 93.19 C 197.21 93.55 197.05 96.32 197.31 98.02 C 195.98 98.93 194.70 99.92 193.44 100.93 C 193.14 99.16 192.86 97.36 191.73 95.91 Z" />
<path fill="#ffffff" opacity="1.00" d=" M 187.36 97.32 C 189.38 97.51 191.10 98.52 192.01 100.33 C 190.65 101.44 189.30 102.56 187.86 103.56 C 187.74 104.05 187.50 105.03 187.39 105.52 L 189.84 104.35 C 190.45 105.83 191.07 107.31 191.60 108.82 C 192.04 108.79 192.92 108.74 193.37 108.72 C 192.28 110.31 191.09 111.82 189.73 113.18 C 190.10 114.54 190.42 115.91 190.73 117.28 C 191.07 117.54 191.74 118.06 192.08 118.31 C 191.06 120.00 189.22 120.84 187.68 121.94 C 187.47 120.30 186.56 119.37 184.94 119.14 C 186.36 117.85 187.81 116.54 189.67 115.93 C 190.21 113.46 187.81 112.96 186.13 112.05 C 187.15 110.80 188.18 109.56 189.19 108.30 C 188.16 108.88 187.13 109.47 186.09 110.04 C 185.65 109.12 185.23 108.19 184.83 107.26 C 185.54 106.90 186.96 106.19 187.67 105.83 C 186.35 104.90 184.44 104.43 184.20 102.50 C 184.93 102.56 186.41 102.68 187.15 102.74 C 186.71 102.29 185.83 101.38 185.39 100.93 C 185.77 98.66 188.58 100.96 189.95 101.04 C 188.98 99.88 187.87 98.79 187.36 97.32 Z" />
<path fill="#ffffff" opacity="1.00" d=" M 152.17 107.34 C 150.50 103.88 154.49 102.06 156.39 99.92 L 156.46 101.55 L 157.80 101.39 C 157.40 104.45 154.81 106.28 152.17 107.34 Z" />
<path fill="#ffffff" opacity="1.00" d=" M 191.18 104.87 C 192.89 103.11 194.84 101.63 196.82 100.20 C 197.79 101.26 198.35 103.07 200.16 102.74 C 200.92 103.69 201.69 104.63 202.48 105.55 C 202.50 106.36 202.54 107.96 202.56 108.76 L 204.13 107.87 C 203.85 109.50 203.95 111.26 203.35 112.81 C 201.61 115.05 200.69 112.39 199.52 111.54 C 200.26 110.28 200.98 109.01 201.69 107.73 C 198.89 109.44 195.65 107.48 192.65 108.34 C 193.70 107.19 194.80 106.09 195.84 104.92 C 194.81 105.61 193.79 106.32 192.78 107.05 C 192.38 106.51 191.58 105.42 191.18 104.87 Z" />
<path fill="#ffffff" opacity="1.00" d=" M 151.80 109.35 C 154.24 107.12 156.83 105.06 159.48 103.08 C 160.38 105.63 157.91 106.95 156.63 108.59 C 155.54 110.22 153.40 109.14 151.80 109.35 Z" />
<path fill="#ffffff" opacity="1.00" d=" M 178.73 107.90 C 180.30 106.60 181.84 105.27 183.44 104.01 C 184.74 107.40 182.49 109.90 181.16 112.75 C 182.21 112.25 184.31 111.27 185.36 110.78 C 185.18 112.49 184.35 113.95 183.21 115.20 C 184.03 118.12 181.39 120.11 179.82 122.16 C 177.89 119.69 181.16 118.20 182.27 116.37 C 181.11 116.46 178.80 116.64 177.64 116.73 C 178.23 115.79 179.41 113.89 180.00 112.95 C 178.59 113.52 175.63 116.41 175.88 113.02 C 177.09 112.73 178.36 112.61 179.69 112.67 C 178.00 111.61 178.45 109.57 178.73 107.90 Z" />
<path fill="#ffffff" opacity="1.00" d=" M 143.98 109.50 C 140.76 108.68 143.91 106.37 145.03 105.42 C 145.95 107.14 146.51 109.01 147.05 110.87 L 145.18 110.16 L 145.76 111.47 C 145.37 111.60 144.59 111.88 144.20 112.02 C 144.57 113.09 144.93 114.16 145.29 115.24 C 142.93 116.03 140.50 115.08 140.90 112.22 C 141.33 112.39 142.18 112.74 142.61 112.91 C 142.39 111.25 141.12 108.59 143.98 109.50 Z" />
<path fill="#ffffff" opacity="1.00" d=" M 158.25 113.29 C 161.15 111.19 164.02 109.04 166.84 106.83 C 165.70 108.24 165.02 109.83 165.27 111.70 C 166.11 111.22 167.78 110.27 168.62 109.79 C 167.45 113.73 162.62 115.45 162.31 119.63 L 160.96 119.88 C 161.88 120.08 162.80 120.28 163.73 120.47 C 163.40 121.37 162.72 123.16 162.39 124.06 C 161.44 125.15 160.21 126.15 160.46 127.77 C 160.35 126.48 159.58 125.92 158.16 126.11 C 158.29 125.43 158.55 124.07 158.68 123.40 L 157.53 123.56 C 157.63 122.73 157.73 121.90 157.84 121.08 C 159.45 120.25 160.08 118.67 159.92 116.92 C 160.88 115.97 161.87 115.05 162.86 114.13 C 161.48 114.80 160.20 115.84 158.55 115.67 C 158.48 115.07 158.33 113.88 158.25 113.29 Z" />
<path fill="#ffffff" opacity="1.00" d=" M 169.83 111.79 C 171.21 110.93 172.56 110.01 174.00 109.23 C 171.01 113.39 167.43 117.17 163.45 120.38 C 162.18 116.01 167.30 114.29 169.83 111.79 Z" />
<path fill="#ffffff" opacity="1.00" d=" M 191.40 116.38 C 192.63 113.40 193.64 109.61 197.47 109.12 C 197.57 110.08 197.78 112.00 197.88 112.95 C 197.33 112.82 196.24 112.54 195.70 112.41 C 195.64 113.12 195.53 114.54 195.47 115.25 C 195.72 114.79 196.23 113.85 196.48 113.38 L 199.01 113.19 C 198.59 114.30 198.19 115.42 197.79 116.54 C 195.66 116.64 193.53 116.45 191.40 116.38 Z" />
<path fill="#ffffff" opacity="1.00" d=" M 146.92 109.09 C 149.33 111.02 152.24 113.27 151.84 116.76 C 150.14 117.37 148.37 117.80 146.57 117.98 C 147.60 117.35 148.65 116.75 149.71 116.17 C 148.44 116.25 145.89 116.39 144.61 116.46 C 145.85 114.86 148.04 114.68 149.52 113.39 C 148.58 113.38 146.69 113.37 145.74 113.36 L 145.77 111.34 C 146.23 111.48 147.14 111.76 147.60 111.90 L 146.92 109.09 Z" />
<path fill="#ffffff" opacity="1.00" d=" M 164.64 121.89 C 168.32 117.82 172.49 114.24 176.69 110.72 C 176.48 111.29 176.08 112.44 175.88 113.02 C 174.62 113.93 173.49 114.98 172.49 116.18 C 173.44 116.15 175.33 116.09 176.27 116.06 C 174.14 119.64 170.70 122.10 167.74 124.94 C 167.12 125.12 165.90 125.46 165.29 125.63 C 166.98 122.54 169.89 120.44 172.05 117.72 C 169.27 118.73 168.09 122.57 164.64 121.89 Z" />
<path fill="#ffffff" opacity="1.00" d=" M 205.90 114.38 C 206.43 113.07 207.14 111.83 208.75 111.90 C 209.57 113.67 210.97 115.03 212.53 116.15 C 213.21 119.45 211.44 124.02 207.39 123.37 C 207.60 122.11 207.26 120.93 206.48 119.93 C 207.27 118.30 208.34 116.78 208.59 114.95 C 207.78 116.45 207.05 117.99 206.06 119.39 C 205.23 118.03 204.92 116.07 203.10 115.71 C 202.81 118.81 200.19 120.82 197.13 120.66 C 197.97 118.37 199.53 116.49 200.97 114.57 C 202.61 114.98 204.29 114.87 205.90 114.38 Z" />
<path fill="#ffffff" opacity="1.00" d=" M 147.28 118.52 C 149.57 119.18 151.63 117.80 153.68 117.04 C 152.60 118.19 152.03 119.34 153.70 120.24 C 152.80 120.82 151.83 121.15 150.79 121.25 C 150.65 120.96 150.37 120.40 150.23 120.11 C 148.67 120.72 146.40 122.87 145.48 119.78 L 147.47 119.43 L 147.28 118.52 Z" />
<path fill="#ffffff" opacity="1.00" d=" M 140.26 119.28 C 141.50 118.68 142.80 118.10 144.21 118.32 C 144.64 119.96 145.31 121.50 146.71 122.55 C 146.25 123.51 145.81 124.48 145.37 125.45 C 146.33 124.85 147.86 121.59 148.81 123.55 C 148.26 124.65 146.72 126.87 148.75 127.41 C 150.38 127.35 151.95 126.95 153.47 126.23 C 154.29 126.98 155.07 127.81 155.79 128.67 C 156.32 129.96 157.32 130.56 158.80 130.45 C 158.75 131.36 158.63 133.17 158.58 134.08 C 156.82 134.95 156.68 136.94 156.18 138.59 C 154.65 138.45 153.11 138.35 151.57 138.30 C 150.77 137.87 149.18 136.99 148.38 136.55 L 148.55 138.53 L 147.60 138.45 C 146.50 139.07 145.37 139.63 144.23 140.16 C 144.45 139.65 144.89 138.62 145.11 138.11 C 144.35 137.34 142.30 135.94 144.02 135.06 C 145.95 133.46 150.47 133.06 149.31 129.65 C 147.77 128.53 146.10 128.56 144.70 129.93 C 144.63 128.42 148.03 127.02 146.42 125.96 C 145.84 126.29 144.68 126.94 144.09 127.27 C 143.06 126.48 142.02 125.70 141.00 124.91 C 142.08 123.91 143.27 123.01 144.28 121.93 C 142.64 122.42 141.39 123.61 140.19 124.76 C 140.16 122.93 140.19 121.11 140.26 119.28 M 145.13 136.69 C 146.25 137.64 148.98 135.32 147.16 134.62 C 145.88 134.84 145.20 135.54 145.13 136.69 Z" />
<path fill="#ffffff" opacity="1.00" d=" M 169.35 124.77 C 173.44 123.96 173.03 118.31 177.29 117.62 C 177.76 119.59 176.60 121.07 175.51 122.54 C 175.81 123.21 176.40 124.54 176.70 125.21 C 174.51 126.03 172.56 127.81 171.91 130.11 C 172.73 129.30 173.53 128.46 174.30 127.59 C 174.99 127.62 176.37 127.67 177.06 127.70 C 176.90 127.39 176.59 126.76 176.44 126.44 C 178.10 125.80 179.21 124.33 180.65 123.37 C 180.91 123.80 181.42 124.66 181.67 125.09 L 180.50 124.33 C 177.80 127.86 175.88 132.05 172.26 134.80 C 172.44 134.05 172.82 132.56 173.01 131.82 C 171.98 133.21 170.67 133.76 169.07 133.47 C 170.02 132.18 171.01 130.92 172.04 129.69 C 171.32 129.64 169.88 129.55 169.16 129.50 C 170.27 128.25 171.46 127.05 172.45 125.69 C 172.57 125.53 172.81 125.21 172.94 125.05 C 173.06 124.88 173.30 124.54 173.42 124.37 C 174.63 123.55 174.63 123.55 173.42 124.37 C 173.30 124.54 173.06 124.88 172.94 125.05 C 172.81 125.21 172.57 125.53 172.45 125.69 C 171.81 125.91 170.53 126.34 169.89 126.56 L 169.35 124.77 Z" />
<path fill="#ffffff" opacity="1.00" d=" M 190.24 123.96 C 190.54 121.32 192.74 119.09 194.94 117.83 C 194.65 120.56 192.49 122.64 190.24 123.96 Z" />
<path fill="#ffffff" opacity="1.00" d=" M 204.13 118.55 C 204.65 119.19 205.16 119.84 205.67 120.49 C 204.56 122.71 202.92 124.55 200.57 125.46 C 198.14 128.49 197.57 133.66 193.29 134.74 C 195.63 131.40 196.41 126.61 200.42 124.79 C 200.38 123.48 200.37 122.18 200.35 120.87 C 201.65 120.17 202.91 119.40 204.13 118.55 Z" />
<path fill="#ffffff" opacity="1.00" d=" M 249.08 119.58 C 249.47 119.51 250.25 119.38 250.65 119.31 C 251.14 120.38 251.08 121.42 250.47 122.43 C 250.02 122.42 249.12 122.41 248.67 122.40 C 248.40 121.43 248.54 120.49 249.08 119.58 Z" />
<path fill="#ffffff" opacity="1.00" d=" M 181.67 125.09 C 182.92 123.89 184.24 122.76 185.55 121.63 L 185.21 123.94 C 183.07 124.16 182.70 127.44 180.39 127.45 C 180.71 126.86 181.35 125.68 181.67 125.09 Z" />
<path fill="#ffffff" opacity="1.00" d=" M 186.25 123.14 C 186.66 123.19 187.46 123.31 187.86 123.37 C 185.93 125.81 183.62 127.91 181.60 130.28 C 181.67 131.23 181.99 132.11 182.56 132.89 C 180.65 135.42 178.40 137.60 175.60 139.13 C 175.24 139.36 174.53 139.83 174.17 140.06 C 175.98 137.09 178.52 134.70 180.78 132.12 C 178.43 132.31 177.70 135.53 175.34 136.01 C 177.41 130.94 183.85 129.38 185.21 123.94 L 185.88 124.81 L 186.25 123.14 Z" />
<path fill="#ffffff" opacity="1.00" d=" M 194.73 122.99 C 194.72 123.50 194.70 124.51 194.69 125.01 C 196.43 123.72 198.25 122.51 200.34 121.83 C 198.29 124.02 196.32 126.31 194.80 128.91 C 193.87 129.31 192.95 129.72 192.03 130.13 L 191.47 128.25 C 191.18 128.72 190.58 129.65 190.29 130.12 C 189.25 131.04 187.74 131.74 187.34 133.18 C 187.43 136.28 185.62 139.16 183.46 141.23 C 183.38 140.13 183.22 137.93 183.14 136.83 C 185.40 134.55 187.11 131.82 188.89 129.16 C 190.00 128.09 190.70 125.86 192.70 126.49 C 193.47 125.38 194.28 124.28 194.73 122.99 Z" />
<path fill="#ffffff" opacity="1.00" d=" M 164.36 128.87 C 164.36 128.50 164.37 127.76 164.37 127.38 C 165.47 128.58 166.64 127.91 167.74 127.22 C 166.79 128.22 165.90 129.27 165.01 130.33 C 165.13 130.96 165.37 132.21 165.49 132.84 L 166.89 132.43 C 166.52 133.12 165.78 134.50 165.40 135.19 L 168.28 134.64 C 167.78 134.93 166.77 135.53 166.26 135.82 C 166.47 136.54 166.87 137.99 167.08 138.71 C 164.54 141.77 161.26 144.05 158.42 146.80 C 158.42 146.47 158.42 145.79 158.42 145.46 C 159.04 144.75 159.66 144.04 160.29 143.33 C 161.31 142.42 162.17 141.38 162.86 140.20 C 162.04 140.29 160.41 140.46 159.60 140.55 C 159.68 139.91 159.85 138.62 159.94 137.98 C 156.20 138.55 159.18 136.05 159.64 134.83 C 161.38 134.58 161.39 133.06 161.50 131.70 C 162.37 130.68 163.39 129.80 164.36 128.87 Z" />
<path fill="#ffffff" opacity="1.00" d=" M 180.03 128.08 C 180.12 127.92 180.30 127.61 180.39 127.45 C 180.30 127.61 180.12 127.92 180.03 128.08 Z" />
<path fill="#ffffff" opacity="1.00" d=" M 180.03 128.08 C 179.38 128.74 179.38 128.74 180.03 128.08 Z" />
<path fill="#ffffff" opacity="1.00" d=" M 198.76 131.32 C 199.73 131.42 200.69 131.54 201.66 131.66 C 200.35 133.65 199.72 136.73 196.83 136.82 C 194.19 140.32 193.54 145.37 189.46 147.71 C 190.12 146.34 191.44 143.59 192.11 142.22 L 189.27 144.71 L 187.74 145.15 C 189.41 141.20 192.34 138.09 196.21 136.28 C 196.65 134.43 197.73 132.87 198.76 131.32 Z" />
<path fill="#ffffff" opacity="1.00" d=" M 260.12 132.14 C 259.57 131.08 259.57 131.08 260.12 132.14 Z" />
<path fill="#ffffff" opacity="1.00" d=" M 260.12 132.14 C 263.37 133.31 259.22 135.47 260.12 132.14 Z" />
<path fill="#ffffff" opacity="1.00" d=" M 312.29 131.89 C 312.62 132.09 313.30 132.51 313.63 132.72 C 313.02 135.81 311.01 138.77 312.29 142.00 C 311.39 141.53 310.81 140.71 310.25 139.91 C 312.26 138.76 310.82 136.27 311.19 134.51 L 312.43 135.01 C 312.40 134.23 312.32 132.67 312.29 131.89 Z" />
<path fill="#ffffff" opacity="1.00" d=" M 191.02 133.86 C 191.21 134.70 191.39 135.53 191.57 136.37 C 190.97 137.12 190.37 137.88 189.78 138.65 C 189.55 139.74 189.31 140.82 189.04 141.89 C 187.72 142.08 183.97 140.67 186.23 139.03 L 186.99 138.95 C 187.20 139.55 187.61 140.74 187.82 141.34 C 188.68 140.49 189.11 139.47 189.12 138.26 C 188.59 138.43 187.52 138.78 186.99 138.95 L 186.68 138.29 C 187.42 136.27 189.74 135.49 191.02 133.86 Z" />
<path fill="#ffffff" opacity="1.00" d=" M 190.97 149.81 C 194.69 143.93 198.90 138.40 203.33 133.03 C 203.96 133.31 205.23 133.86 205.86 134.14 C 203.53 136.28 202.96 139.49 201.46 142.17 C 198.95 144.60 197.54 147.84 195.28 150.48 C 194.16 151.91 192.05 152.05 191.09 153.72 C 191.24 152.63 191.54 150.44 191.69 149.35 C 189.77 150.82 189.07 152.96 189.31 155.28 C 187.20 155.82 187.00 158.47 185.96 160.07 C 186.38 159.56 187.21 158.54 187.63 158.04 L 188.13 158.84 L 188.86 160.03 C 187.55 160.73 186.22 161.41 184.93 162.16 C 183.05 165.31 181.69 168.73 180.25 172.09 C 178.90 173.25 178.22 174.95 176.98 176.20 C 177.78 170.85 180.89 166.22 183.37 161.52 C 183.80 161.45 184.67 161.32 185.10 161.25 C 184.88 160.69 184.43 159.58 184.20 159.03 C 184.88 157.58 185.45 156.08 185.74 154.51 L 186.71 154.65 L 186.38 153.47 L 187.25 153.44 C 187.15 151.63 188.46 150.49 189.72 149.46 L 190.97 149.81 Z" />
<path fill="#ffffff" opacity="1.00" d=" M 292.64 135.44 C 294.08 135.42 295.69 136.54 296.85 136.98 C 295.52 137.85 291.92 137.68 292.64 135.44 Z" />
<path fill="#ffffff" opacity="1.00" d=" M 168.54 139.18 C 168.38 138.95 168.05 138.48 167.88 138.24 L 170.18 138.64 C 169.55 139.11 168.93 139.59 168.32 140.10 L 170.42 140.80 C 168.96 142.46 167.43 144.07 165.89 145.65 C 165.19 145.13 164.51 144.60 163.84 144.06 C 165.29 142.33 166.93 140.77 168.54 139.18 Z" />
<path fill="#ffffff" opacity="1.00" d=" M 176.94 138.85 L 178.70 138.41 L 177.90 140.60 C 178.44 140.50 179.53 140.30 180.08 140.20 C 178.94 142.88 177.70 145.53 176.30 148.09 C 173.88 149.88 171.89 152.31 170.94 155.19 C 171.90 155.25 172.86 155.36 173.82 155.50 L 171.69 158.94 C 171.30 158.02 170.90 157.10 170.53 156.17 C 169.93 157.36 169.31 158.53 168.67 159.69 L 169.39 159.81 L 167.95 159.93 C 168.11 160.35 168.42 161.20 168.58 161.62 C 167.90 161.74 166.55 161.97 165.87 162.09 C 166.27 161.03 166.66 159.96 167.06 158.90 C 166.11 159.74 164.23 161.42 163.28 162.26 C 164.10 159.70 165.72 157.56 167.03 155.25 C 168.99 154.02 171.70 152.80 171.66 150.05 L 171.50 151.45 C 172.66 149.69 175.91 148.35 174.34 145.86 C 173.39 148.08 171.89 148.89 169.77 147.68 L 168.78 149.17 L 167.02 150.15 C 167.84 148.42 169.24 147.14 170.62 145.88 C 171.03 146.52 171.43 147.16 171.85 147.80 C 172.86 144.87 176.58 142.46 175.60 139.13 L 177.18 140.81 L 176.94 138.85 M 177.24 141.18 C 177.84 141.87 177.84 141.87 177.24 141.18 Z" />
<path fill="#ffffff" opacity="1.00" d=" M 298.26 138.58 C 299.44 137.86 300.90 139.90 300.59 141.02 C 299.37 141.67 298.14 139.66 298.26 138.58 Z" />
<path fill="#ffffff" opacity="1.00" d=" M 153.23 139.27 C 153.60 139.91 153.97 140.55 154.35 141.19 C 152.62 142.23 151.09 143.55 149.60 144.89 C 151.01 144.66 152.42 144.44 153.83 144.22 C 154.06 144.45 154.51 144.92 154.73 145.15 C 154.39 145.20 153.72 145.30 153.39 145.35 L 153.53 146.27 C 152.56 147.62 151.20 148.03 149.72 147.21 C 149.87 145.38 149.01 144.80 147.14 145.48 C 148.44 142.71 151.75 141.87 153.23 139.27 Z" />
<path fill="#ffffff" opacity="1.00" d=" M 213.28 139.88 C 213.88 140.12 215.08 140.61 215.69 140.85 C 215.58 141.45 215.38 142.66 215.28 143.26 C 215.51 142.76 215.99 141.75 216.22 141.25 L 217.95 141.56 C 217.05 143.39 215.72 144.93 213.94 145.96 C 212.76 144.86 211.36 143.85 210.97 142.20 C 211.74 141.43 212.51 140.65 213.28 139.88 Z" />
<path fill="#ffffff" opacity="1.00" d=" M 236.17 144.02 C 236.20 142.77 236.05 139.78 238.06 140.35 C 238.07 140.98 238.08 142.22 238.08 142.84 C 237.87 143.43 236.45 145.84 236.17 144.02 Z" />
<path fill="#ffffff" opacity="1.00" d=" M 287.96 138.97 C 288.47 139.64 289.48 140.97 289.99 141.64 C 291.42 140.96 292.88 140.31 294.13 139.32 L 294.31 140.55 C 295.03 140.35 296.45 139.95 297.17 139.75 C 296.06 143.16 292.80 145.42 291.89 149.01 C 289.92 147.56 290.09 145.85 291.53 144.11 C 291.10 144.21 290.26 144.41 289.83 144.51 C 289.16 142.68 288.18 140.94 287.96 138.97 Z" />
<path fill="#ffffff" opacity="1.00" d=" M 180.78 147.33 C 182.28 145.41 183.33 143.00 185.62 141.86 C 184.99 143.29 184.24 144.66 183.78 146.16 C 184.53 145.61 186.03 144.51 186.78 143.96 L 184.94 147.55 C 185.60 147.43 186.92 147.20 187.58 147.08 C 186.95 148.05 186.32 149.03 185.70 150.02 L 183.95 148.54 L 185.05 151.61 L 183.43 150.09 C 182.97 151.68 181.95 153.01 181.18 154.44 L 179.33 153.97 C 180.10 152.79 180.91 151.64 181.75 150.52 C 182.23 149.57 182.71 148.62 183.19 147.66 C 180.34 149.99 177.15 152.95 176.51 156.65 L 175.23 156.19 L 175.77 157.86 L 174.25 157.82 L 173.93 160.02 C 173.56 159.35 173.21 158.69 172.87 158.02 C 174.14 156.83 175.37 155.59 176.58 154.33 C 175.13 154.33 173.67 154.34 172.22 154.36 C 175.37 152.59 176.89 149.14 178.80 146.25 C 179.29 146.52 180.29 147.06 180.78 147.33 Z" />
<path fill="#ffffff" opacity="1.00" d=" M 205.00 152.81 C 206.05 149.70 207.75 146.87 209.01 143.85 C 211.58 145.29 210.00 147.94 210.97 150.08 C 210.07 152.53 210.26 155.77 207.68 157.22 C 207.87 154.76 208.70 152.38 208.48 149.89 C 207.29 150.83 206.16 151.83 205.00 152.81 M 208.25 148.40 C 206.66 151.31 211.73 148.39 208.25 148.40 Z" />
<path fill="#ffffff" opacity="1.00" d=" M 229.59 144.89 C 235.28 142.10 234.73 151.30 231.05 153.03 C 229.96 150.46 229.76 147.64 229.59 144.89 Z" />
<path fill="#ffffff" opacity="1.00" d=" M 159.99 151.22 C 161.50 149.50 162.93 147.56 165.21 146.80 C 164.19 149.57 162.22 151.79 160.41 154.06 L 160.88 152.19 C 160.26 152.34 159.02 152.64 158.40 152.79 C 158.22 150.55 158.91 148.60 161.09 147.47 C 160.82 148.41 160.26 150.28 159.99 151.22 Z" />
<path fill="#ffffff" opacity="1.00" d=" M 211.41 156.09 C 211.52 152.90 212.84 149.96 213.88 147.01 C 214.56 147.10 215.92 147.28 216.61 147.37 L 214.75 150.91 C 215.70 150.15 217.59 148.63 218.54 147.87 C 217.42 150.53 216.94 153.85 214.98 155.92 L 213.34 155.29 C 214.13 156.79 212.90 157.92 212.27 159.09 C 212.33 158.48 212.45 157.26 212.51 156.65 L 211.41 156.09 Z" />
<path fill="#ffffff" opacity="1.00" d=" M 156.46 148.27 C 156.90 150.04 155.17 151.46 154.38 152.89 C 153.97 150.93 154.90 149.39 156.46 148.27 Z" />
<path fill="#ffffff" opacity="1.00" d=" M 170.08 148.76 C 170.60 149.19 171.13 149.62 171.66 150.05 C 169.95 151.62 168.24 153.25 167.03 155.25 L 166.43 154.87 C 164.77 156.65 162.97 158.33 160.99 159.75 C 163.15 155.44 167.41 152.70 170.08 148.76 Z" />
<path fill="#ffffff" opacity="1.00" d=" M 221.65 149.34 C 222.01 149.39 222.73 149.51 223.09 149.56 C 222.77 151.38 222.31 153.21 222.62 155.07 L 220.85 154.48 C 221.22 154.76 221.98 155.33 222.36 155.62 C 223.05 156.51 223.75 157.41 224.45 158.30 C 224.34 159.49 224.21 160.68 224.08 161.87 C 224.76 161.34 226.11 160.26 226.79 159.73 C 225.97 164.27 221.82 168.22 222.91 173.01 L 221.46 171.86 C 221.26 173.41 222.23 175.49 220.90 176.79 C 220.51 177.73 219.73 179.61 219.34 180.55 C 219.50 179.24 219.83 176.61 219.99 175.30 C 219.12 176.82 218.55 178.64 216.94 179.58 C 217.57 176.59 218.66 173.73 219.69 170.86 C 223.18 170.33 221.31 165.30 223.17 163.17 C 222.44 163.72 220.98 164.83 220.25 165.38 C 220.33 164.62 220.49 163.11 220.57 162.35 L 218.91 162.72 C 219.52 160.67 220.36 158.70 220.95 156.65 C 218.92 158.21 217.75 161.48 219.08 163.83 L 216.40 163.50 L 216.29 161.93 C 214.89 162.72 214.29 163.93 214.50 165.55 L 213.62 165.03 C 214.05 166.99 213.13 170.19 211.71 171.01 C 211.62 170.71 211.45 170.11 211.37 169.82 C 213.36 164.82 215.14 159.73 217.52 154.90 C 217.57 155.68 217.68 157.24 217.73 158.02 C 219.62 155.42 220.92 152.46 221.65 149.34 Z" />
<path fill="#ffffff" opacity="1.00" d=" M 200.31 151.53 C 202.79 151.08 200.04 154.92 199.80 152.27 L 200.31 151.53 Z" />
<path fill="#ffffff" opacity="1.00" d=" M 183.86 152.63 L 185.56 152.46 L 185.28 154.08 C 183.04 155.92 181.49 158.45 179.18 160.23 C 179.74 160.53 180.31 160.84 180.88 161.15 C 181.21 160.47 181.86 159.13 182.19 158.46 L 183.35 158.02 C 182.12 160.74 180.93 163.55 178.89 165.78 C 179.27 164.69 180.04 162.52 180.42 161.44 C 177.69 161.32 176.72 164.24 175.14 165.95 C 175.37 164.54 175.66 163.13 175.92 161.72 C 177.31 160.08 178.60 158.35 179.77 156.55 C 180.22 156.49 181.13 156.38 181.58 156.32 C 182.38 155.11 183.20 153.91 183.86 152.63 Z" />
<path fill="#ffffff" opacity="1.00" d=" M 190.14 154.34 L 190.94 154.28 C 190.92 154.66 190.88 155.43 190.87 155.81 L 190.05 155.90 C 190.07 155.51 190.12 154.73 190.14 154.34 Z" />
<path fill="#ffffff" opacity="1.00" d=" M 188.13 158.84 C 187.83 157.59 188.27 156.61 189.45 155.90 L 190.05 155.90 C 190.53 157.01 189.36 158.93 188.13 158.84 Z" />
<path fill="#ffffff" opacity="1.00" d=" M 199.17 158.02 C 199.46 157.41 199.75 156.81 200.04 156.20 C 199.91 158.21 200.71 159.45 202.42 159.92 C 202.56 159.18 202.85 157.68 202.99 156.93 C 204.42 162.92 198.80 167.18 197.05 172.30 C 199.23 171.33 200.53 173.48 202.03 174.50 C 202.96 173.50 204.09 173.17 205.43 173.53 C 205.54 172.18 206.03 170.94 206.75 169.82 C 206.92 172.25 206.61 174.67 206.72 177.10 C 208.07 178.36 209.32 177.18 210.49 176.40 C 210.49 175.49 210.48 173.68 210.48 172.77 C 210.76 172.91 211.31 173.20 211.59 173.35 C 211.57 174.00 211.53 175.31 211.51 175.97 L 213.27 175.89 C 212.74 172.41 215.03 169.53 215.45 166.19 C 215.36 167.80 216.42 168.38 217.94 168.45 C 217.02 170.96 216.00 173.43 214.48 175.64 C 214.92 176.92 215.38 178.20 215.82 179.48 L 213.92 179.62 C 214.37 180.18 215.26 181.29 215.70 181.84 C 215.31 182.87 214.51 184.92 214.12 185.95 C 214.12 185.24 214.12 183.81 214.12 183.10 C 213.55 183.29 212.42 183.68 211.86 183.87 C 211.31 181.86 210.87 179.82 210.41 177.79 C 210.41 179.81 210.28 181.83 210.05 183.84 C 208.85 183.63 207.80 183.97 206.91 184.85 C 206.75 183.52 206.59 182.19 206.43 180.86 C 205.97 181.90 205.03 183.98 204.56 185.02 C 204.37 182.33 204.63 179.67 204.78 176.99 C 203.79 177.77 202.81 178.55 201.86 179.36 C 201.28 179.33 200.12 179.28 199.54 179.25 C 199.56 179.92 199.62 181.27 199.65 181.94 C 199.43 181.35 198.98 180.16 198.76 179.57 C 198.43 179.56 197.78 179.56 197.45 179.55 C 197.93 178.40 198.89 176.09 199.37 174.94 C 198.63 175.59 197.16 176.89 196.42 177.55 C 196.14 177.16 195.58 176.39 195.30 176.01 C 195.58 175.57 196.15 174.68 196.43 174.24 C 196.59 171.66 197.62 169.29 198.59 166.94 C 197.16 165.65 195.69 164.41 194.18 163.23 L 198.26 163.66 C 197.45 163.12 195.85 162.03 195.04 161.49 L 198.55 161.45 C 198.30 160.25 198.43 159.02 199.17 158.02 Z" />
<path fill="#ffffff" opacity="1.00" d=" M 266.42 158.56 C 265.18 156.16 268.44 156.76 269.82 156.31 C 268.91 157.43 268.24 159.52 266.42 158.56 Z" />
<path fill="#ffffff" opacity="1.00" d=" M 190.09 160.07 C 189.90 158.70 191.01 156.89 192.46 156.81 C 192.49 158.05 191.52 160.10 190.09 160.07 Z" />
<path fill="#ffffff" opacity="1.00" d=" M 193.15 155.04 C 193.72 155.71 194.88 157.04 195.45 157.70 C 193.79 159.86 192.40 162.21 191.21 164.66 C 190.42 164.22 189.62 163.79 188.83 163.37 C 191.18 162.48 191.79 159.76 193.35 158.00 C 193.30 157.26 193.20 155.78 193.15 155.04 Z" />
<path fill="#ffffff" opacity="1.00" d=" M 169.85 159.02 C 170.78 158.87 171.28 159.35 171.35 160.46 C 170.69 161.93 168.15 161.71 169.39 159.81 L 169.85 159.02 Z" />
<path fill="#ffffff" opacity="1.00" d=" M 171.89 159.74 C 172.84 159.81 173.20 160.37 172.95 161.40 C 172.64 162.51 172.07 163.18 171.23 163.42 C 171.26 162.68 171.32 161.20 171.35 160.46 L 171.89 159.74 Z" />
<path fill="#ffffff" opacity="1.00" d=" M 190.09 160.07 C 191.23 163.13 186.75 160.38 190.09 160.07 Z" />
<path fill="#ffffff" opacity="1.00" d=" M 204.93 160.23 C 205.28 160.65 205.98 161.49 206.33 161.91 C 206.86 161.63 207.92 161.09 208.45 160.82 C 207.50 164.02 206.89 167.52 204.46 170.02 L 204.24 167.58 C 203.61 168.21 202.37 169.46 201.74 170.09 C 203.13 167.69 203.24 163.41 206.57 163.05 C 205.80 162.25 205.06 161.38 204.93 160.23 Z" />
<path fill="#ffffff" opacity="1.00" d=" M 254.73 161.14 C 256.16 160.51 257.71 160.51 259.24 160.49 C 259.43 161.10 259.80 162.32 259.99 162.93 C 259.31 163.77 258.61 164.59 257.88 165.38 C 257.80 165.00 257.64 164.22 257.56 163.83 C 256.18 163.46 255.56 162.15 254.73 161.14 Z" />
<path fill="#ffffff" opacity="1.00" d=" M 274.54 161.96 C 274.61 163.49 274.61 165.01 274.62 166.55 C 275.37 166.56 276.87 166.59 277.62 166.60 C 277.55 167.30 277.40 168.70 277.33 169.40 C 277.85 168.78 278.88 167.55 279.40 166.93 C 280.56 167.30 281.74 167.66 282.92 168.01 C 282.24 171.40 280.97 174.62 279.21 177.61 C 280.16 176.67 282.06 174.80 283.01 173.87 C 284.03 175.75 281.95 177.76 281.31 179.56 C 281.53 179.61 281.99 179.71 282.22 179.76 C 282.47 179.17 282.97 177.98 283.21 177.38 C 284.56 175.09 285.63 172.65 286.84 170.29 C 287.79 170.72 288.72 171.19 289.65 171.68 C 289.03 171.56 287.78 171.33 287.16 171.21 C 287.14 173.71 285.53 175.73 285.11 178.13 C 286.36 176.59 287.23 174.79 287.98 172.96 C 288.70 173.13 290.13 173.47 290.85 173.63 C 290.42 175.29 289.95 176.93 289.48 178.58 L 288.34 178.31 L 288.81 179.84 L 287.89 179.50 C 286.69 181.26 285.45 184.88 283.16 184.58 C 283.23 183.69 283.36 181.90 283.43 181.01 C 282.26 181.97 281.08 182.92 279.89 183.85 C 279.86 183.21 279.81 181.95 279.78 181.32 C 278.59 181.47 277.39 181.61 276.20 181.74 C 277.08 179.01 277.90 176.26 278.87 173.55 L 276.34 173.32 L 276.68 175.82 L 274.88 175.04 C 274.66 175.53 274.23 176.50 274.01 176.99 C 273.17 175.80 272.42 174.55 271.75 173.27 C 272.30 171.76 272.64 170.19 272.74 168.59 L 273.55 168.54 C 273.17 166.27 273.53 164.02 274.54 161.96 Z" />
<path fill="#ffffff" opacity="1.00" d=" M 182.07 173.07 C 182.19 169.26 184.52 166.16 186.69 163.25 C 187.04 164.39 187.40 165.52 187.80 166.64 L 186.50 165.66 C 186.53 167.35 187.16 169.35 185.84 170.73 C 185.50 170.40 184.83 169.73 184.49 169.40 C 184.05 170.86 183.36 172.20 182.07 173.07 M 185.27 167.14 L 184.73 167.64 L 185.12 168.59 L 186.04 168.68 C 186.01 168.32 185.95 167.59 185.92 167.23 L 185.27 167.14 Z" />
<path fill="#ffffff" opacity="1.00" d=" M 252.35 164.93 C 251.91 163.62 252.42 163.08 253.87 163.31 C 254.30 164.68 253.79 165.22 252.35 164.93 Z" />
<path fill="#ffffff" opacity="1.00" d=" M 258.93 165.31 C 261.12 166.60 262.29 164.12 263.55 162.90 C 263.66 163.52 263.86 164.76 263.97 165.38 C 267.22 165.79 269.88 163.30 273.09 163.36 C 271.42 167.39 266.66 164.94 263.56 166.80 L 263.31 164.66 C 261.95 166.17 260.64 167.74 259.38 169.33 C 258.36 170.90 256.47 170.39 254.91 170.59 C 254.47 170.02 254.05 169.45 253.63 168.88 C 254.86 168.41 256.21 168.35 257.51 168.28 C 257.53 167.77 257.57 166.74 257.59 166.23 C 258.08 166.33 259.05 166.52 259.54 166.62 L 258.93 165.31 Z" />
<path fill="#ffffff" opacity="1.00" d=" M 167.01 166.37 C 167.84 166.40 169.49 166.47 170.32 166.50 C 169.34 167.73 168.32 168.93 167.21 170.05 C 166.73 168.85 166.02 167.53 167.01 166.37 Z" />
<path fill="#ffffff" opacity="1.00" d=" M 224.01 174.21 C 224.56 171.10 225.33 167.30 228.54 165.87 L 228.01 167.59 L 230.90 167.80 C 229.32 168.21 227.33 168.07 226.41 169.68 C 227.59 169.23 228.77 168.77 229.95 168.30 C 228.24 170.97 227.06 173.90 225.90 176.82 C 224.91 178.73 224.67 181.61 222.27 182.23 C 223.06 180.27 223.95 178.35 224.79 176.41 L 223.88 176.50 C 223.59 175.33 223.26 174.16 222.91 173.01 L 224.01 174.21 Z" />
<path fill="#ffffff" opacity="1.00" d=" M 168.70 170.65 C 169.50 169.21 170.37 167.79 171.70 166.78 C 171.59 168.16 171.02 169.60 171.71 170.95 C 171.18 171.45 170.65 171.95 170.11 172.45 L 170.77 170.10 L 168.70 170.65 Z" />
<path fill="#ffffff" opacity="1.00" d=" M 192.88 175.83 C 192.04 172.67 193.50 169.97 195.90 167.99 C 195.15 170.70 194.33 173.40 192.88 175.83 Z" />
<path fill="#ffffff" opacity="1.00" d=" M 260.75 169.81 C 260.68 166.92 264.43 169.41 265.68 167.51 C 264.79 169.83 263.70 172.85 260.81 173.21 C 261.19 172.51 261.94 171.10 262.32 170.40 L 260.75 169.81 Z" />
<path fill="#ffffff" opacity="1.00" d=" M 227.62 175.07 C 229.27 172.93 230.08 169.77 232.96 168.93 C 232.15 171.37 230.62 173.46 229.21 175.57 C 228.56 175.93 228.03 175.76 227.62 175.07 Z" />
<path fill="#ffffff" opacity="1.00" d=" M 263.57 174.52 C 264.28 171.90 265.72 169.59 267.00 167.23 C 268.81 169.89 266.36 173.77 263.57 174.52 Z" />
<path fill="#ffffff" opacity="1.00" d=" M 283.01 173.87 C 282.32 172.54 283.21 169.45 284.82 169.38 C 285.12 170.76 284.45 173.56 283.01 173.87 Z" />
<path fill="#ffffff" opacity="1.00" d=" M 229.87 178.62 C 231.52 175.20 233.38 171.81 237.15 170.40 C 235.31 173.43 233.15 176.37 232.89 180.05 C 232.41 179.10 231.95 178.14 231.50 177.19 L 230.57 178.92 L 229.87 178.62 Z" />
<path fill="#ffffff" opacity="1.00" d=" M 260.48 169.15 L 260.75 169.81 L 261.00 170.49 C 259.21 172.73 257.91 175.28 256.60 177.81 C 254.89 177.09 253.48 175.91 252.19 174.61 C 252.78 173.90 253.97 172.47 254.57 171.76 C 255.11 173.18 255.55 175.79 257.93 174.69 C 258.68 172.80 259.45 170.91 260.48 169.15 Z" />
<path fill="#ffffff" opacity="1.00" d=" M 266.76 174.46 C 267.52 172.32 268.37 170.21 269.42 168.19 C 272.75 169.32 270.17 172.38 270.09 174.56 C 268.98 174.43 267.87 174.40 266.76 174.46 Z" />
<path fill="#ffffff" opacity="1.00" d=" M 252.51 171.00 C 252.93 170.98 253.77 170.94 254.20 170.92 C 253.54 172.09 252.47 173.83 250.97 173.76 C 250.96 172.64 251.47 171.72 252.51 171.00 Z" />
<path fill="#ffffff" opacity="1.00" d=" M 248.24 173.68 C 247.98 172.22 248.51 171.55 249.83 171.66 C 250.09 173.08 249.56 173.76 248.24 173.68 Z" />
<path fill="#ffffff" opacity="1.00" d=" M 236.15 177.09 C 236.71 176.06 237.30 175.04 237.90 174.04 C 237.53 178.12 235.59 182.69 231.82 184.59 C 232.61 181.75 234.16 179.24 236.15 177.09 Z" />
<path fill="#ffffff" opacity="1.00" d=" M 226.58 177.19 C 227.10 177.15 228.14 177.07 228.66 177.03 C 227.60 179.81 227.22 183.52 224.45 185.19 C 225.27 182.55 226.39 179.98 226.58 177.19 Z" />
<path fill="#ffffff" opacity="1.00" d=" M 233.71 187.22 C 236.25 184.19 236.50 179.28 240.00 176.78 C 242.11 178.76 239.30 181.09 238.67 183.12 C 238.12 183.55 237.56 183.98 237.01 184.41 L 238.85 184.68 C 238.15 187.31 237.24 189.98 235.21 191.90 C 235.23 189.30 236.86 187.11 237.32 184.60 C 235.67 185.45 234.96 187.13 234.37 188.77 L 233.34 188.21 L 233.46 189.35 C 232.83 189.43 231.56 189.59 230.92 189.67 C 231.42 188.56 231.92 187.46 232.42 186.35 C 232.73 185.71 233.34 184.41 233.65 183.77 C 233.67 184.63 233.69 186.35 233.71 187.22 M 233.29 187.39 C 233.88 188.06 233.88 188.06 233.29 187.39 Z" />
<path fill="#ffffff" opacity="1.00" d=" M 266.76 178.60 C 267.29 178.52 268.34 178.37 268.87 178.29 C 268.11 180.76 267.47 183.31 265.97 185.46 C 265.60 187.24 265.29 189.03 265.14 190.85 C 267.23 186.83 268.88 182.61 270.95 178.58 C 271.02 179.45 271.18 181.19 271.26 182.06 C 271.82 181.30 272.94 179.78 273.50 179.02 C 273.99 182.11 272.97 184.89 271.76 187.63 C 271.38 191.79 267.85 195.05 268.37 199.40 C 271.43 194.35 271.60 188.15 274.54 183.03 C 274.70 184.01 275.02 185.97 275.18 186.95 C 274.09 189.64 272.62 192.27 272.34 195.20 C 271.78 196.44 271.17 197.66 270.52 198.86 C 270.52 199.63 270.51 201.18 270.51 201.96 C 268.69 201.84 266.43 197.85 264.99 200.24 C 264.81 200.22 264.46 200.16 264.28 200.13 C 265.42 198.19 266.30 196.10 267.31 194.09 C 267.35 193.50 267.43 192.32 267.48 191.73 C 268.83 188.59 270.71 185.58 270.99 182.09 C 268.83 187.43 266.09 192.49 263.72 197.73 C 263.20 197.70 262.18 197.64 261.66 197.60 C 261.30 198.44 260.93 199.27 260.53 200.10 C 260.63 199.42 260.83 198.07 260.93 197.39 L 259.94 197.38 C 259.57 196.92 258.82 196.01 258.45 195.55 C 258.90 194.39 259.35 193.25 259.81 192.10 C 258.89 192.24 257.05 192.52 256.13 192.66 C 256.55 191.09 256.95 189.51 257.31 187.92 C 253.08 189.48 255.67 195.84 252.08 198.33 C 252.23 196.85 252.41 195.37 252.62 193.90 C 252.19 193.74 251.32 193.41 250.89 193.25 C 251.67 190.18 251.76 186.88 253.22 184.02 C 253.58 183.13 253.95 182.24 254.33 181.36 C 254.43 182.11 254.63 183.60 254.73 184.35 L 255.82 185.13 C 256.13 184.34 256.77 182.76 257.09 181.97 C 257.12 182.94 257.17 184.88 257.20 185.85 C 256.29 185.63 255.37 185.42 254.46 185.20 C 254.41 186.54 254.36 187.89 254.31 189.24 C 254.49 188.69 254.86 187.57 255.04 187.01 C 255.85 187.29 256.66 187.58 257.48 187.87 C 257.65 186.42 258.33 185.19 259.35 184.17 C 259.57 183.10 259.78 182.03 260.00 180.96 L 262.49 183.17 C 262.49 182.12 262.50 180.04 262.51 178.99 C 263.61 179.48 264.74 179.92 265.91 180.26 C 264.59 183.95 262.62 187.44 262.06 191.38 C 264.76 187.72 266.20 183.08 266.76 178.60 Z" />
<path fill="#ffffff" opacity="1.00" d=" M 242.23 178.59 C 245.68 177.08 244.58 180.98 244.54 182.99 C 243.77 182.84 242.99 182.69 242.23 182.54 C 242.27 182.79 242.35 183.27 242.39 183.51 L 244.35 183.04 C 243.46 185.54 242.85 188.14 242.65 190.79 L 241.22 190.23 C 241.79 191.99 241.07 196.02 243.99 195.83 C 244.24 196.28 244.74 197.18 244.98 197.64 C 244.35 197.65 243.09 197.69 242.46 197.70 L 242.83 196.40 C 242.02 196.38 241.21 196.40 240.41 196.44 C 240.01 195.56 239.41 194.87 238.62 194.35 C 237.71 194.63 236.87 195.12 235.89 194.99 L 237.23 194.45 C 237.26 193.07 237.99 192.41 239.43 192.47 C 238.67 187.75 240.33 182.89 242.23 178.59 M 242.15 188.96 C 242.00 188.13 241.71 186.47 241.56 185.64 C 240.12 185.47 240.44 189.94 242.15 188.96 M 239.84 190.74 C 239.09 191.47 240.11 195.18 241.01 193.05 C 241.51 192.31 240.99 189.11 239.84 190.74 Z" />
<path fill="#ffffff" opacity="1.00" d=" M 246.19 182.07 C 245.60 179.30 247.87 179.43 249.82 179.32 C 249.67 180.20 249.38 181.96 249.24 182.84 C 249.65 182.80 250.48 182.73 250.89 182.69 C 250.46 185.82 251.11 190.48 247.55 191.94 C 247.55 189.37 247.63 186.78 247.37 184.23 L 245.88 188.74 C 245.43 188.16 244.98 187.59 244.54 187.03 C 245.16 185.40 245.65 183.72 246.19 182.07 Z" />
<path fill="#ffffff" opacity="1.00" d=" M 191.61 186.25 C 189.07 184.87 191.50 181.38 192.79 179.77 C 192.57 180.93 192.28 182.06 191.93 183.18 C 191.85 183.95 191.69 185.49 191.61 186.25 Z" />
<path fill="#ffffff" opacity="1.00" d=" M 231.20 179.15 C 231.53 179.79 231.87 180.43 232.21 181.07 L 230.78 181.55 C 230.41 183.85 230.08 186.37 228.25 188.03 C 228.40 184.84 230.41 182.18 231.20 179.15 Z" />
<path fill="#ffffff" opacity="1.00" d=" M 273.03 194.59 C 274.86 191.12 274.51 185.73 278.51 183.91 C 277.75 186.08 276.83 188.28 277.42 190.62 L 276.27 190.46 C 276.36 190.88 276.54 191.72 276.63 192.14 C 275.85 193.66 274.65 194.47 273.03 194.59 Z" />
<path fill="#ffffff" opacity="1.00" d=" M 201.67 185.39 C 202.09 185.39 202.94 185.41 203.36 185.41 C 203.49 187.17 203.68 188.91 203.95 190.66 C 203.09 190.08 202.20 189.56 201.27 189.10 C 201.39 187.86 201.53 186.62 201.67 185.39 Z" />
<path fill="#ffffff" opacity="1.00" d=" M 212.03 184.12 C 212.79 185.70 213.73 187.20 215.42 187.93 C 215.51 189.19 215.58 190.45 215.64 191.72 C 214.77 192.14 213.91 192.56 213.04 192.98 C 213.24 191.11 213.49 189.24 213.78 187.39 C 213.26 187.52 212.21 187.79 211.68 187.93 L 212.03 184.12 Z" />
<path fill="#ffffff" opacity="1.00" d=" M 244.02 188.84 C 246.22 188.75 245.73 193.79 243.64 193.63 C 243.08 192.11 243.90 190.40 244.02 188.84 Z" />
<path fill="#ffffff" opacity="1.00" d=" M 220.78 193.83 C 222.85 196.53 224.55 199.55 223.98 203.09 C 223.58 203.25 222.78 203.56 222.37 203.72 C 222.20 201.72 222.02 199.72 221.77 197.73 C 219.61 201.00 220.57 204.71 222.74 207.71 C 221.17 206.40 218.67 205.86 217.99 203.67 C 217.00 203.27 216.02 202.88 215.05 202.47 C 215.68 202.51 216.94 202.60 217.57 202.64 L 217.37 201.28 L 218.49 201.81 C 219.53 199.24 220.75 196.67 220.78 193.83 Z" />
<path fill="#ffffff" opacity="1.00" d=" M 216.49 200.09 C 216.27 198.13 216.25 196.08 217.36 194.37 C 219.03 196.15 218.91 199.12 216.49 200.09 Z" />
<path fill="#ffffff" opacity="1.00" d=" M 338.33 193.45 C 338.59 194.41 339.10 196.32 339.36 197.28 C 339.75 196.35 340.21 195.46 340.70 194.58 C 341.62 196.56 342.62 198.53 344.02 200.22 C 343.18 200.76 341.50 201.83 340.66 202.36 C 341.55 202.80 342.45 203.19 343.37 203.59 C 339.18 205.83 337.30 210.40 333.81 213.32 C 333.97 210.84 336.37 209.65 337.82 207.98 C 337.17 207.37 336.52 206.76 335.88 206.14 C 335.46 206.82 334.62 208.18 334.19 208.86 C 334.22 207.49 334.25 206.12 334.39 204.75 C 335.44 203.93 336.26 202.89 337.02 201.81 C 336.41 201.25 335.75 199.92 334.82 200.82 C 333.63 201.59 332.77 201.12 332.24 199.43 L 331.02 199.57 C 331.37 198.96 332.06 197.75 332.41 197.14 L 334.06 198.33 C 333.83 197.72 333.38 196.51 333.15 195.90 C 333.67 196.05 334.71 196.37 335.24 196.52 C 336.11 197.77 337.02 199.00 338.11 200.08 C 337.54 198.98 336.93 197.91 336.27 196.87 C 336.79 196.02 337.82 194.30 338.33 193.45 M 337.70 204.99 C 338.10 205.60 338.51 206.21 338.93 206.81 C 342.14 205.20 339.19 203.16 339.20 201.10 C 338.76 202.42 338.22 203.70 337.70 204.99 Z" />
<path fill="#ffffff" opacity="1.00" d=" M 272.51 198.82 C 273.16 197.48 273.77 196.12 274.34 194.74 C 274.56 195.82 275.00 197.98 275.22 199.06 L 273.23 198.36 L 273.04 199.19 C 273.49 199.17 274.40 199.15 274.85 199.14 C 274.61 199.90 274.13 201.42 273.89 202.18 C 272.91 201.30 272.48 200.12 272.51 198.82 Z" />
<path fill="#ffffff" opacity="1.00" d=" M 330.12 197.37 C 333.54 197.25 328.46 200.37 330.12 197.37 Z" />
<path fill="#ffffff" opacity="1.00" d=" M 234.40 204.54 C 234.52 202.38 234.40 200.12 235.25 198.08 C 235.24 198.99 235.21 200.83 235.20 201.75 C 238.98 200.31 237.07 204.65 237.50 206.54 C 236.21 206.39 234.94 206.25 233.66 206.12 C 233.64 205.73 233.61 204.94 233.59 204.55 L 234.40 204.54 Z" />
<path fill="#ffffff" opacity="1.00" d=" M 327.60 200.21 C 328.06 200.24 328.98 200.29 329.44 200.32 C 329.10 202.22 331.21 203.58 332.84 203.91 C 332.45 205.17 332.07 206.42 331.67 207.68 C 329.32 208.20 327.68 209.79 327.63 212.31 C 326.96 211.74 326.30 211.17 325.65 210.60 C 326.88 208.97 328.02 207.18 329.89 206.21 C 328.84 205.50 327.78 204.81 326.72 204.15 L 327.54 206.17 C 327.09 206.65 326.18 207.62 325.73 208.10 C 324.51 206.48 323.43 204.75 322.83 202.81 C 323.71 203.38 324.58 203.97 325.46 204.58 C 325.31 202.74 326.57 201.50 327.60 200.21 Z" />
<path fill="#ffffff" opacity="1.00" d=" M 330.99 200.95 C 332.39 201.00 335.25 201.81 334.51 203.75 C 333.11 204.36 331.13 202.23 330.99 200.95 Z" />
<path fill="#ffffff" opacity="1.00" d=" M 215.26 204.58 C 216.77 204.00 218.72 206.43 217.44 207.65 C 216.36 207.30 215.03 205.76 215.26 204.58 Z" />
<path fill="#ffffff" opacity="1.00" d=" M 308.94 207.22 C 309.76 205.96 310.67 204.77 311.85 203.84 C 311.65 204.53 311.27 205.92 311.07 206.61 C 314.33 206.15 313.02 210.58 314.70 212.26 C 315.16 213.17 315.60 214.08 316.03 215.01 C 316.34 218.33 313.70 215.74 313.53 214.45 C 312.48 212.54 312.73 210.06 311.04 208.50 L 309.99 210.45 C 310.03 209.21 310.30 208.02 310.80 206.88 L 308.94 207.22 Z" />
<path fill="#ffffff" opacity="1.00" d=" M 267.70 206.48 C 268.15 206.46 269.05 206.43 269.51 206.41 C 269.52 207.37 269.55 208.34 269.58 209.30 C 268.64 209.79 267.78 210.40 267.01 211.13 C 267.29 209.58 267.54 208.04 267.70 206.48 Z" />
<path fill="#ffffff" opacity="1.00" d=" M 217.90 208.47 C 218.08 208.06 218.42 207.25 218.60 206.85 C 220.07 206.96 221.45 208.52 221.47 209.96 C 220.18 210.21 218.90 209.19 217.90 208.47 Z" />
<path fill="#ffffff" opacity="1.00" d=" M 247.19 209.66 C 246.93 208.13 247.26 206.82 248.20 205.71 L 248.42 207.92 C 248.93 207.73 249.94 207.36 250.45 207.18 C 250.50 208.65 250.55 210.13 250.61 211.61 C 249.97 211.68 248.71 211.82 248.07 211.89 C 248.24 211.23 248.56 209.91 248.73 209.24 L 247.19 209.66 Z" />
<path fill="#ffffff" opacity="1.00" d=" M 319.96 207.13 L 320.62 207.10 L 320.57 208.92 C 321.09 208.75 322.14 208.41 322.66 208.23 C 323.09 208.69 323.94 209.59 324.36 210.04 C 323.93 210.91 323.50 211.79 323.06 212.66 C 322.28 211.96 321.50 211.28 320.71 210.61 C 320.77 210.26 320.90 209.56 320.97 209.20 C 320.40 209.10 319.27 208.89 318.70 208.79 L 320.38 208.32 L 319.96 207.13 Z" />
<path fill="#ffffff" opacity="1.00" d=" M 259.47 210.79 C 260.25 209.42 260.88 207.90 262.24 206.97 C 262.35 208.15 262.45 209.34 262.53 210.53 C 261.50 210.62 260.48 210.71 259.47 210.79 Z" />
<path fill="#ffffff" opacity="1.00" d=" M 265.93 210.53 C 264.32 211.00 264.44 207.64 266.04 208.31 C 266.01 208.86 265.96 209.98 265.93 210.53 Z" />
<path fill="#ffffff" opacity="1.00" d=" M 306.77 210.00 C 308.16 210.93 308.93 212.35 309.45 213.89 C 309.15 214.64 308.54 216.14 308.24 216.89 C 305.98 217.40 303.99 214.17 306.26 212.88 C 306.38 212.16 306.64 210.72 306.77 210.00 Z" />
<path fill="#ffffff" opacity="1.00" d=" M 317.44 211.17 C 318.92 212.52 320.00 214.38 321.85 215.27 C 323.69 215.65 325.37 214.59 327.05 214.03 C 327.97 213.34 328.91 212.66 329.86 212.01 C 329.31 213.43 328.71 214.84 328.19 216.28 C 327.22 216.61 326.25 216.97 325.30 217.34 C 321.91 217.37 316.77 215.24 317.44 211.17 Z" />
<path fill="#ffffff" opacity="1.00" d=" M 309.85 213.45 C 311.69 215.32 313.32 217.42 315.42 219.02 C 314.80 220.00 314.16 220.97 313.53 221.95 C 312.18 221.51 310.74 221.15 309.75 220.07 C 308.77 219.47 307.93 218.71 307.23 217.81 C 309.73 217.70 309.22 215.06 309.85 213.45 Z" />
<path fill="#ffffff" opacity="1.00" d=" M 331.86 213.87 C 332.50 214.60 333.14 215.35 333.76 216.11 C 332.30 219.52 328.42 220.30 326.00 222.82 C 322.55 223.52 319.18 224.47 316.00 226.12 C 315.81 225.66 315.43 224.72 315.24 224.25 C 317.62 225.01 319.72 223.98 321.66 222.65 C 322.41 222.72 323.90 222.86 324.64 222.93 L 323.97 220.98 C 324.50 220.76 325.55 220.32 326.07 220.10 C 329.10 219.45 331.33 216.88 331.86 213.87 Z" />
</g>
</svg>
