<?xml version="1.0" encoding="UTF-8" ?>
<!DOCTYPE svg PUBLIC "-//W3C//DTD SVG 1.1//EN" "http://www.w3.org/Graphics/SVG/1.1/DTD/svg11.dtd">
<svg width="512pt" height="256pt" viewBox="0 0 512 256" version="1.1" xmlns="http://www.w3.org/2000/svg">
<g id="#ffffffff">
<path fill="#ffffff" opacity="1.00" d=" M 207.46 24.16 C 207.93 24.28 208.88 24.53 209.36 24.65 C 209.36 25.27 209.37 26.53 209.38 27.16 C 210.41 28.39 210.99 30.01 212.35 30.95 L 212.49 31.46 L 213.05 31.26 L 212.89 30.70 L 212.35 30.95 C 212.78 28.50 211.37 26.24 211.12 23.84 C 213.56 24.65 212.31 28.20 213.56 30.07 C 215.60 29.87 215.43 28.02 215.50 26.43 C 216.21 26.53 217.63 26.74 218.34 26.85 C 218.42 26.34 218.58 25.33 218.66 24.82 C 218.66 25.39 218.66 26.53 218.66 27.10 C 216.05 27.17 217.25 30.96 217.13 32.64 C 218.18 31.03 218.84 29.04 218.66 27.10 C 219.72 26.82 220.78 26.54 221.83 26.25 C 221.12 27.33 220.41 28.41 219.70 29.49 C 220.63 29.58 222.47 29.75 223.40 29.83 L 223.45 27.86 C 223.72 28.09 224.25 28.54 224.52 28.77 C 223.67 30.43 222.81 32.15 221.52 33.51 C 220.00 33.64 218.48 33.41 216.97 33.31 C 216.50 34.40 215.69 34.85 214.54 34.68 C 214.41 34.02 214.16 32.69 214.04 32.02 C 213.54 32.25 212.56 32.70 212.07 32.93 C 211.08 31.46 210.07 30.00 208.89 28.67 C 208.32 31.12 210.81 32.81 211.79 34.77 C 207.07 33.97 205.50 29.15 205.24 25.01 C 205.88 25.42 207.16 26.23 207.80 26.64 L 207.46 24.16 Z" />
<path fill="#ffffff" opacity="1.00" d=" M 323.00 24.57 C 323.69 24.53 325.06 24.44 325.75 24.40 L 325.39 25.51 L 326.62 25.59 C 326.59 26.77 326.56 27.95 326.50 29.13 C 325.19 29.93 323.97 30.86 322.82 31.86 C 322.54 31.44 321.98 30.61 321.70 30.20 L 320.15 30.93 L 320.41 29.37 L 317.99 29.14 C 318.91 28.48 319.86 27.84 320.79 27.18 L 318.29 28.30 L 318.39 25.35 L 320.59 25.50 L 320.68 24.11 C 322.43 25.10 323.81 26.56 325.17 28.01 C 324.59 26.77 323.77 25.68 323.00 24.57 Z" />
<path fill="#ffffff" opacity="1.00" d=" M 313.85 24.78 C 314.97 26.15 316.21 26.51 317.56 25.85 C 317.48 27.04 317.45 28.23 317.49 29.42 C 318.45 30.47 319.29 31.62 320.02 32.84 C 319.46 32.71 318.33 32.45 317.77 32.32 C 316.27 30.47 315.29 27.94 313.07 26.85 C 313.48 29.51 316.85 30.71 316.84 33.38 C 315.27 32.64 313.72 31.89 312.12 31.23 C 312.28 29.38 312.45 27.52 312.26 25.66 L 313.66 26.94 C 313.71 26.40 313.80 25.32 313.85 24.78 Z" />
<path fill="#ffffff" opacity="1.00" d=" M 308.80 29.04 C 308.81 28.60 308.84 27.72 308.85 27.28 C 309.73 28.26 311.57 28.98 310.36 30.62 L 312.19 28.72 L 311.63 31.37 C 313.62 32.21 315.88 34.52 315.20 36.84 C 313.26 35.05 311.33 33.26 309.48 31.38 L 308.81 32.73 C 309.50 30.70 307.09 29.60 306.25 28.03 C 306.89 28.28 308.17 28.79 308.80 29.04 Z" />
<path fill="#ffffff" opacity="1.00" d=" M 302.51 30.48 C 303.53 31.07 304.22 30.19 304.76 29.42 C 306.09 30.54 307.45 31.62 308.81 32.73 C 310.27 33.96 311.82 35.54 311.48 37.64 L 310.10 37.07 C 309.91 36.67 309.54 35.88 309.35 35.48 L 308.43 35.70 C 308.25 35.10 307.87 33.88 307.68 33.27 C 307.42 33.62 306.90 34.34 306.63 34.70 C 306.02 33.86 304.80 32.18 304.19 31.34 C 303.65 31.89 303.11 32.45 302.58 33.01 C 305.61 34.91 308.93 36.68 310.92 39.78 C 308.76 40.37 307.46 38.40 306.10 37.09 L 305.08 37.91 C 306.43 39.34 307.72 40.83 309.03 42.31 C 309.16 42.69 309.41 43.46 309.54 43.85 C 306.46 43.64 306.08 37.82 302.85 39.72 C 304.78 40.94 305.99 42.92 307.13 44.83 C 304.28 45.08 301.94 42.75 301.00 40.27 C 300.20 40.30 299.42 40.38 298.64 40.50 C 300.86 42.05 301.99 44.62 303.58 46.74 L 303.80 47.50 C 304.29 50.06 302.00 46.70 300.94 47.81 C 299.68 48.18 300.65 49.76 300.36 50.65 C 298.81 48.17 296.31 46.63 294.21 44.67 C 294.81 45.78 295.41 46.90 295.99 48.03 L 291.59 45.81 C 292.87 47.43 294.10 49.94 296.55 49.78 C 296.16 50.31 295.37 51.39 294.98 51.92 C 296.00 52.74 296.71 53.76 297.13 55.01 C 296.15 53.94 293.86 53.21 294.60 51.38 C 290.94 50.66 286.90 50.07 283.70 47.93 L 286.98 47.28 L 286.76 46.85 L 285.12 47.31 C 285.53 46.57 286.35 45.08 286.76 44.33 C 288.23 45.78 290.31 46.22 292.19 46.86 C 291.09 45.06 288.60 45.03 286.92 44.01 C 288.05 42.51 289.19 40.89 291.32 41.49 C 292.74 42.70 294.43 43.51 296.20 44.10 C 295.29 41.87 291.95 42.82 291.49 40.17 L 293.62 40.47 C 293.49 39.85 293.21 38.60 293.07 37.98 C 296.02 39.33 297.18 42.87 300.20 44.23 C 298.76 42.08 297.04 40.15 295.38 38.18 C 296.20 38.32 297.83 38.62 298.65 38.76 C 298.25 37.81 297.31 37.15 296.91 36.18 C 298.14 36.96 300.58 38.52 301.81 39.30 C 300.49 37.71 299.22 36.08 298.00 34.42 C 298.63 34.55 299.88 34.81 300.50 34.95 L 300.17 33.08 L 301.84 34.02 C 302.10 32.84 302.32 31.66 302.51 30.48 M 296.41 44.67 C 296.93 45.27 297.96 46.46 298.48 47.06 C 298.95 47.12 299.88 47.23 300.35 47.29 C 299.62 46.33 297.31 43.42 296.41 44.67 Z" />
<path fill="#ffffff" opacity="1.00" d=" M 223.30 33.32 C 224.13 32.52 224.96 31.73 225.81 30.95 L 225.80 32.82 C 226.48 32.58 227.85 32.11 228.53 31.88 L 226.28 33.16 C 227.58 34.00 228.98 34.67 230.57 34.78 C 228.71 35.04 226.16 36.30 226.50 38.55 C 224.94 38.38 224.08 39.14 223.90 40.83 C 223.83 40.41 223.69 39.58 223.63 39.16 L 221.56 39.52 C 221.38 39.92 221.02 40.72 220.85 41.12 C 220.77 40.66 220.63 39.72 220.56 39.25 L 218.82 39.43 C 219.18 39.13 219.90 38.53 220.26 38.23 C 221.61 37.58 222.92 38.64 224.25 38.81 C 224.47 38.19 224.92 36.96 225.15 36.34 L 226.52 36.09 C 225.98 35.49 225.43 34.90 224.89 34.30 L 224.07 36.24 C 223.81 35.26 223.56 34.29 223.30 33.32 Z" />
<path fill="#ffffff" opacity="1.00" d=" M 208.96 36.86 C 206.99 36.18 203.09 34.71 204.91 32.13 C 205.88 34.06 208.47 34.63 208.96 36.86 Z" />
<path fill="#ffffff" opacity="1.00" d=" M 320.58 31.37 C 322.19 31.15 323.25 33.05 324.41 33.94 C 325.36 34.43 324.96 36.23 323.83 35.33 C 322.63 34.17 321.01 33.03 320.58 31.37 Z" />
<path fill="#ffffff" opacity="1.00" d=" M 202.07 34.27 C 203.56 34.53 204.38 35.83 204.83 37.17 C 206.23 37.73 207.64 38.37 208.29 39.84 C 205.82 41.16 203.74 39.00 201.92 37.62 L 203.57 38.05 C 203.49 37.25 203.33 35.66 203.25 34.87 L 202.17 35.47 L 202.07 34.27 Z" />
<path fill="#ffffff" opacity="1.00" d=" M 227.91 38.28 C 228.49 37.43 228.49 37.43 227.91 38.28 Z" />
<path fill="#ffffff" opacity="1.00" d=" M 229.54 37.51 C 230.67 37.42 231.81 37.31 232.94 37.18 C 232.63 39.62 230.72 41.15 228.94 42.60 C 228.73 41.94 228.31 40.63 228.09 39.98 C 228.93 39.34 229.41 38.52 229.54 37.51 Z" />
<path fill="#ffffff" opacity="1.00" d=" M 227.91 38.28 C 227.17 38.99 227.17 38.99 227.91 38.28 Z" />
<path fill="#ffffff" opacity="1.00" d=" M 322.30 37.79 C 323.79 37.15 325.20 39.55 324.68 40.83 C 323.22 41.53 321.66 39.07 322.30 37.79 Z" />
<path fill="#ffffff" opacity="1.00" d=" M 236.46 40.29 C 236.76 39.92 237.36 39.19 237.66 38.83 C 237.66 39.55 237.64 41.00 237.63 41.73 C 237.05 43.04 236.50 44.35 235.96 45.68 C 237.03 45.53 239.15 45.25 240.21 45.10 C 238.92 46.48 237.28 47.67 236.80 49.60 C 237.93 48.57 239.13 48.34 240.41 48.91 C 241.57 48.26 242.72 47.60 243.87 46.93 C 243.77 47.69 243.57 49.21 243.46 49.98 L 244.46 49.94 C 243.55 50.64 242.54 50.98 241.42 50.96 L 243.66 50.17 C 243.06 49.57 242.45 48.98 241.85 48.39 C 241.39 50.72 239.09 51.66 237.46 53.00 C 237.39 52.58 237.25 51.74 237.18 51.32 C 236.80 51.34 236.05 51.37 235.68 51.38 C 234.89 49.55 234.49 47.19 232.06 46.89 L 233.40 44.49 C 232.28 45.10 231.24 45.82 230.22 46.56 C 230.91 44.52 232.43 43.01 234.10 41.71 C 234.15 42.23 234.25 43.26 234.30 43.78 C 235.43 43.14 237.88 41.88 236.46 40.29 Z" />
<path fill="#ffffff" opacity="1.00" d=" M 201.12 40.40 C 203.04 40.88 204.83 41.73 206.66 42.49 C 206.45 44.05 204.29 46.20 206.64 47.16 C 205.98 48.03 205.30 48.89 204.61 49.74 C 205.42 52.31 203.91 54.48 201.84 55.82 C 201.22 56.38 199.99 57.51 199.37 58.08 L 199.42 55.05 L 201.15 55.76 C 201.06 55.47 200.90 54.89 200.81 54.60 C 199.01 54.51 197.20 54.37 195.41 54.27 C 196.31 53.92 198.09 53.22 198.99 52.87 C 198.57 52.50 197.74 51.77 197.33 51.41 C 199.15 50.25 201.03 49.18 203.07 48.44 C 202.07 48.42 200.09 48.38 199.10 48.36 L 200.11 47.53 C 200.79 47.46 202.14 47.34 202.82 47.27 L 202.42 45.91 C 201.69 45.84 200.22 45.70 199.48 45.62 C 199.54 44.42 199.62 43.21 199.72 42.01 C 200.38 42.47 201.05 42.93 201.71 43.41 C 203.13 43.31 205.09 44.62 206.06 43.02 C 204.21 42.54 202.38 41.89 201.12 40.40 Z" />
<path fill="#ffffff" opacity="1.00" d=" M 240.21 45.10 C 239.94 43.68 240.46 43.11 241.79 43.40 C 242.03 44.83 241.50 45.40 240.21 45.10 Z" />
<path fill="#ffffff" opacity="1.00" d=" M 317.80 42.99 L 319.08 42.99 C 319.26 43.39 319.61 44.20 319.79 44.60 C 320.30 44.51 321.33 44.34 321.84 44.25 L 322.51 42.90 C 322.27 44.92 323.44 46.62 324.19 48.40 C 322.61 48.08 321.57 47.13 321.08 45.55 C 320.37 46.04 319.67 46.52 318.97 47.01 C 321.71 47.08 323.35 49.29 323.91 51.73 C 322.98 51.11 321.12 49.88 320.19 49.26 C 320.66 50.25 321.61 52.22 322.08 53.21 C 319.38 51.38 319.86 47.31 317.02 45.60 C 318.56 46.42 318.71 44.43 319.38 43.65 L 317.80 42.99 Z" />
<path fill="#ffffff" opacity="1.00" d=" M 241.25 46.17 C 241.74 46.86 241.74 46.86 241.25 46.17 Z" />
<path fill="#ffffff" opacity="1.00" d=" M 281.27 49.29 C 284.81 48.51 287.82 50.92 290.73 52.51 C 291.59 53.54 292.21 54.74 292.91 55.89 L 295.18 55.11 C 294.24 56.51 292.73 56.86 290.67 56.17 C 291.47 57.27 296.05 58.28 293.64 60.27 C 292.67 58.97 291.88 57.54 290.78 56.35 C 289.67 56.18 288.52 57.25 287.53 56.31 C 284.73 54.69 280.27 54.15 280.01 50.14 C 282.58 51.68 285.74 52.32 287.75 54.70 C 288.73 55.03 290.69 55.67 291.67 56.00 L 291.67 54.53 C 288.36 52.47 284.65 51.20 281.27 49.29 Z" />
<path fill="#ffffff" opacity="1.00" d=" M 245.50 51.39 C 246.14 51.30 247.41 51.11 248.05 51.01 C 246.60 51.70 245.87 52.95 246.45 54.52 C 243.98 53.53 240.01 56.45 238.95 52.88 C 241.18 52.42 243.46 52.21 245.72 52.60 L 245.50 51.39 Z" />
<path fill="#ffffff" opacity="1.00" d=" M 318.29 51.04 C 319.34 52.20 320.33 53.40 321.32 54.61 C 320.64 54.97 319.97 55.34 319.31 55.70 C 319.80 56.55 320.79 58.24 321.29 59.08 C 319.31 58.42 318.43 56.46 317.49 54.78 C 317.89 53.89 319.07 53.60 319.75 52.91 L 318.02 52.31 L 318.29 51.04 Z" />
<path fill="#ffffff" opacity="1.00" d=" M 278.76 52.90 C 280.05 52.82 280.77 53.48 280.92 54.88 C 279.47 55.08 278.75 54.42 278.76 52.90 Z" />
<path fill="#ffffff" opacity="1.00" d=" M 276.82 57.71 C 276.72 56.52 276.61 55.33 276.52 54.14 C 278.76 55.58 281.02 57.04 282.86 59.00 C 285.19 61.48 288.46 62.71 291.04 64.88 C 289.31 64.54 287.74 63.69 286.11 63.08 C 286.41 63.99 287.00 65.79 287.29 66.69 C 288.79 66.43 289.49 67.59 290.15 68.70 C 288.67 67.51 286.87 67.48 285.08 67.68 C 285.22 68.15 285.51 69.09 285.66 69.56 C 286.26 69.43 287.46 69.19 288.06 69.07 C 287.16 69.90 286.23 70.73 285.84 71.94 L 285.30 72.01 C 285.36 71.36 285.47 70.06 285.53 69.41 C 283.14 70.38 280.99 69.29 279.16 67.86 C 279.70 68.59 280.78 70.05 281.32 70.78 C 280.37 70.75 278.48 70.69 277.54 70.66 C 277.48 71.43 277.43 72.20 277.37 72.97 L 277.94 71.56 L 279.90 70.85 C 278.91 76.16 275.70 80.65 274.17 85.77 C 276.50 81.27 278.40 76.53 281.22 72.31 L 281.05 71.27 C 281.79 71.21 282.53 71.15 283.27 71.09 C 282.63 72.77 282.11 74.56 280.79 75.85 C 281.12 76.50 281.46 77.14 281.81 77.78 C 282.57 76.00 283.49 74.29 284.55 72.67 C 286.81 72.67 288.71 71.70 290.28 69.77 C 287.11 75.20 281.51 78.90 279.22 84.84 C 282.19 80.05 285.64 74.84 290.67 72.19 L 289.08 74.97 C 289.97 74.88 291.75 74.71 292.63 74.63 C 292.60 74.20 292.52 73.35 292.49 72.93 C 292.76 73.39 293.30 74.33 293.57 74.79 C 291.37 77.08 288.74 79.26 288.69 82.82 C 290.65 81.01 291.87 78.39 294.24 77.04 C 294.69 76.44 295.15 75.85 295.61 75.26 C 295.42 76.13 295.04 77.86 294.85 78.73 C 295.67 78.10 297.31 76.85 298.13 76.22 C 296.92 77.55 295.95 79.03 295.20 80.66 L 298.06 79.38 C 296.95 81.52 295.82 83.66 295.14 85.97 C 296.71 84.41 297.45 81.79 299.73 81.14 C 297.17 87.96 292.21 94.03 290.57 101.36 C 291.05 101.52 292.01 101.83 292.48 101.99 C 293.26 93.78 298.37 87.17 302.35 80.29 C 301.14 80.57 300.07 80.33 299.14 79.56 C 299.65 79.65 300.68 79.81 301.20 79.90 L 301.23 77.87 C 303.40 80.17 305.07 83.37 308.48 83.99 C 308.88 80.36 304.38 79.16 303.92 75.79 C 305.80 77.53 307.36 79.58 309.15 81.41 C 311.13 81.59 312.51 83.05 313.99 84.21 C 312.91 85.90 313.22 87.89 313.39 89.77 L 311.17 88.33 C 311.29 89.26 311.52 91.13 311.63 92.07 C 306.04 95.90 301.28 100.77 296.27 105.31 C 296.68 105.75 297.10 106.18 297.52 106.61 C 299.86 101.99 304.24 98.94 308.32 95.96 C 308.66 96.16 309.34 96.55 309.69 96.74 L 309.13 95.18 C 310.38 94.90 312.86 94.35 314.10 94.07 C 313.41 95.38 312.10 96.56 312.58 98.22 C 312.99 97.47 313.41 96.72 313.82 95.97 L 315.08 98.22 C 309.71 101.50 304.03 104.30 298.97 108.06 C 297.70 108.86 298.36 110.49 298.37 111.70 C 298.95 111.62 300.10 111.46 300.68 111.38 C 303.13 113.14 306.25 112.55 309.05 113.21 C 311.44 114.77 314.22 115.63 317.06 115.86 C 318.11 117.12 319.10 118.45 319.88 119.90 C 316.44 117.42 312.35 115.98 308.06 116.39 C 305.95 115.71 303.77 115.19 301.85 114.04 C 300.64 114.83 299.36 115.47 297.88 115.40 C 297.26 114.24 296.35 113.45 295.15 113.05 C 293.92 113.25 294.53 114.82 294.41 115.65 L 292.27 115.22 C 292.99 116.38 293.64 117.59 294.20 118.84 C 293.55 118.49 292.24 117.78 291.59 117.42 C 290.20 120.50 297.33 122.34 293.48 124.84 C 294.64 127.20 295.05 129.86 296.47 132.09 C 296.72 133.34 297.20 134.50 298.02 135.50 C 298.56 137.20 296.51 136.60 295.56 136.60 C 298.47 137.29 297.68 140.81 299.45 142.65 C 299.44 142.15 299.44 141.16 299.44 140.66 C 301.60 142.38 303.96 144.29 304.76 147.07 L 303.32 147.56 C 303.19 147.90 302.95 148.57 302.83 148.91 C 303.42 148.44 304.59 147.51 305.17 147.04 C 306.28 149.69 303.48 151.29 301.92 152.80 C 300.00 152.73 298.13 152.16 296.25 151.87 C 296.52 149.18 294.45 147.18 293.22 145.02 C 294.15 147.33 295.43 149.51 296.08 151.94 C 294.11 151.33 292.36 151.58 290.83 152.67 C 290.15 150.11 286.25 149.44 287.51 146.48 C 286.68 146.09 285.85 145.70 285.03 145.33 C 284.41 144.20 283.80 143.07 283.13 141.99 C 283.57 143.05 284.04 144.11 284.52 145.16 C 284.67 148.13 287.38 150.27 287.49 153.29 L 286.10 153.48 L 284.95 155.41 C 285.09 153.60 283.60 152.66 282.63 151.46 C 281.25 151.50 279.79 151.27 278.56 152.04 C 275.03 150.55 271.33 148.53 269.18 145.09 C 270.00 146.27 270.61 147.56 271.02 148.95 C 269.48 148.58 268.34 147.68 267.58 146.27 C 267.44 148.61 265.12 147.35 263.61 147.38 C 263.55 146.94 263.44 146.06 263.38 145.62 C 260.93 146.02 258.37 145.96 257.73 143.08 C 257.29 143.74 256.42 145.05 255.98 145.70 C 255.53 143.41 255.15 141.11 254.54 138.86 C 254.65 140.75 254.67 142.66 254.51 144.56 C 251.34 144.41 252.42 141.05 252.27 139.08 C 251.74 141.13 252.09 143.97 249.43 144.69 C 249.44 143.52 249.46 141.17 249.48 140.00 C 249.19 141.16 248.92 142.33 248.65 143.50 L 246.28 143.46 L 246.44 141.86 C 245.47 142.84 244.51 143.80 243.54 144.77 L 243.60 145.85 L 241.47 145.43 C 242.50 146.03 243.62 146.43 244.75 146.82 C 245.40 146.45 246.68 145.71 247.33 145.34 C 247.58 145.72 248.09 146.50 248.34 146.88 C 249.19 146.36 250.05 145.87 250.94 145.41 C 252.35 146.42 253.86 146.63 255.48 146.06 C 255.48 146.63 255.49 147.76 255.50 148.33 C 250.69 148.13 246.08 149.52 241.41 150.36 C 240.49 150.68 239.74 150.45 239.16 149.66 C 238.13 150.10 237.09 150.53 236.06 150.97 C 234.95 150.32 234.25 149.39 233.95 148.18 C 232.77 148.32 231.62 148.55 230.48 148.87 C 230.51 150.88 228.34 151.84 227.15 153.15 C 226.18 153.70 225.58 154.52 225.34 155.60 L 224.19 155.11 L 224.85 156.93 L 223.10 156.08 C 223.60 157.38 223.20 158.36 221.90 159.03 C 220.01 163.32 217.13 167.09 214.26 170.76 C 214.52 168.46 217.11 166.55 216.19 164.27 C 217.88 160.53 220.15 157.15 223.12 154.25 L 224.43 154.51 C 224.54 152.67 226.38 151.70 227.94 151.28 C 228.97 150.18 230.09 149.11 230.80 147.76 C 231.27 146.24 229.74 145.19 229.07 144.02 C 227.71 146.86 225.56 149.24 223.06 151.13 C 220.72 151.43 219.53 153.60 217.94 155.06 C 214.75 158.16 210.99 160.76 208.56 164.56 C 206.74 166.66 205.64 169.44 203.32 171.06 C 204.48 169.16 205.79 167.36 207.13 165.58 L 205.02 165.60 C 206.83 163.24 208.37 160.67 210.35 158.44 L 211.57 158.49 C 211.56 157.58 211.55 155.76 211.55 154.85 C 210.50 156.06 209.74 157.72 208.05 158.13 C 210.29 155.03 212.13 151.17 215.60 149.30 C 214.85 150.57 213.87 151.68 212.93 152.81 C 213.70 152.59 215.24 152.16 216.02 151.95 C 214.81 154.17 212.54 155.77 211.84 158.27 C 215.82 155.31 218.66 151.02 222.81 148.30 L 223.13 147.87 L 222.90 147.25 L 222.06 146.62 C 224.84 142.99 227.47 139.24 230.86 136.13 C 228.85 136.65 227.18 138.44 225.21 138.69 C 225.06 138.18 224.77 137.14 224.63 136.63 C 221.86 139.47 218.55 141.71 215.64 144.39 C 217.35 140.34 221.47 138.40 224.21 135.15 C 223.50 135.34 222.10 135.71 221.39 135.89 L 221.38 137.60 C 220.86 137.41 219.80 137.03 219.28 136.83 C 219.05 135.69 220.27 134.80 220.65 133.79 C 219.83 134.64 219.04 135.53 218.21 136.38 C 214.72 137.28 212.96 140.94 210.02 142.82 C 208.98 142.85 206.91 142.92 205.87 142.96 C 209.52 140.27 212.89 137.24 216.55 134.56 L 213.98 134.27 C 217.62 131.08 222.47 129.39 225.45 125.48 C 221.76 127.74 217.81 129.79 214.86 133.04 C 214.52 132.44 214.18 131.84 213.83 131.25 C 209.05 133.79 204.81 137.19 200.19 140.00 C 202.04 136.74 205.09 134.33 208.26 132.45 L 209.61 132.55 L 209.53 131.64 C 210.48 131.24 211.43 130.83 212.37 130.41 C 212.66 129.83 213.24 128.67 213.53 128.09 C 212.89 128.10 211.62 128.12 210.99 128.13 C 211.46 126.55 213.84 125.29 215.18 126.98 L 213.90 125.10 C 216.16 126.20 217.64 125.55 218.35 123.16 C 218.33 124.32 218.33 125.48 218.33 126.65 C 217.03 126.87 215.73 127.23 214.46 127.71 L 214.26 130.07 C 215.88 128.44 219.07 127.75 219.40 125.27 C 220.98 125.41 222.44 124.97 223.78 123.93 L 223.64 125.62 C 223.88 125.61 224.37 125.59 224.61 125.58 C 224.47 125.04 224.20 123.97 224.06 123.43 C 222.72 123.89 221.39 124.37 220.08 124.87 C 218.63 125.31 219.25 123.12 219.28 122.36 C 219.42 122.55 219.70 122.95 219.84 123.15 C 220.61 123.20 222.15 123.30 222.92 123.35 C 223.48 122.19 224.65 121.58 225.76 121.07 C 225.58 121.36 225.21 121.96 225.02 122.26 L 224.81 123.01 C 224.92 123.43 225.16 124.27 225.28 124.68 C 225.63 124.13 226.34 123.03 226.70 122.48 C 226.67 123.06 226.61 124.21 226.57 124.78 C 228.31 124.52 230.07 124.38 231.82 124.57 L 231.51 123.17 C 232.99 123.19 233.86 123.95 234.10 125.44 C 234.18 122.57 236.84 123.35 238.59 123.68 C 238.87 123.25 239.43 122.39 239.71 121.97 L 239.73 123.43 C 243.18 123.19 245.44 126.53 248.53 127.63 C 250.96 129.79 254.48 127.62 256.97 129.52 C 257.00 128.98 257.06 127.90 257.09 127.36 L 257.34 130.00 L 259.28 129.47 C 258.58 130.02 257.89 130.57 257.21 131.14 L 260.32 131.65 C 259.23 128.62 262.60 130.19 263.92 128.93 C 264.57 130.30 265.18 131.70 265.81 133.08 C 265.63 131.64 265.44 130.20 265.28 128.76 C 264.20 127.70 263.14 126.62 262.14 125.49 C 264.19 124.63 267.97 126.46 266.10 129.08 C 267.25 128.13 268.37 127.11 269.73 126.46 L 270.29 127.82 L 270.12 126.41 C 270.84 126.52 272.30 126.75 273.02 126.87 C 272.67 126.38 271.97 125.41 271.62 124.92 C 271.06 125.43 270.51 125.93 269.95 126.43 L 268.79 124.80 L 268.51 127.04 C 266.99 126.04 265.69 123.93 263.57 124.67 C 262.64 123.17 261.89 121.56 262.33 119.75 C 261.57 119.71 260.04 119.63 259.28 119.58 L 259.70 118.61 C 258.37 118.23 257.06 117.82 255.79 117.28 C 256.12 116.61 256.77 115.26 257.09 114.59 C 259.99 114.51 260.29 111.43 260.85 109.21 C 258.69 109.57 259.02 112.11 258.21 113.60 C 255.70 112.92 255.41 116.48 253.11 116.76 L 253.44 117.86 C 251.86 117.70 250.20 117.58 249.08 116.31 C 247.78 118.43 245.07 118.37 243.30 119.85 C 243.43 119.42 243.69 118.57 243.83 118.14 C 241.69 118.75 239.50 119.23 237.51 120.26 C 235.18 119.93 229.76 122.10 230.68 117.91 C 230.11 119.43 228.88 120.39 227.33 120.85 C 228.10 119.47 228.84 118.07 229.53 116.66 C 228.37 117.38 227.42 118.34 226.71 119.53 C 226.14 119.53 225.02 119.53 224.45 119.53 C 223.46 120.46 222.49 121.57 220.98 121.27 C 219.41 120.42 223.09 118.30 223.51 117.00 L 224.49 117.69 C 224.53 116.93 224.60 115.40 224.64 114.64 C 225.69 114.31 227.21 113.73 227.62 115.26 L 227.93 115.55 C 228.14 115.08 228.56 114.15 228.77 113.68 L 230.46 113.24 C 229.08 112.87 227.70 112.49 226.34 112.09 L 229.56 110.74 C 233.70 111.00 237.74 109.20 241.85 110.13 C 242.22 109.85 242.98 109.29 243.36 109.01 C 241.29 108.07 239.08 108.22 237.04 109.15 C 233.33 109.51 229.58 109.65 225.88 110.22 C 225.79 110.53 225.61 111.17 225.53 111.49 C 223.58 110.98 222.47 112.71 221.38 113.97 C 222.12 113.49 223.61 112.51 224.35 112.02 C 225.54 114.26 223.51 116.48 222.22 118.18 C 220.68 119.66 219.91 122.11 217.39 122.29 C 217.45 120.30 219.00 116.21 214.33 118.39 C 216.76 117.40 219.12 116.22 221.38 114.89 L 218.68 114.30 C 218.44 114.80 217.97 115.80 217.73 116.31 C 217.67 115.83 217.57 114.88 217.52 114.40 C 215.41 114.60 213.30 114.47 211.21 114.16 L 211.46 115.65 C 210.97 115.53 210.00 115.27 209.51 115.14 L 209.08 116.56 C 208.60 116.45 207.64 116.22 207.16 116.11 L 207.77 117.90 C 207.15 117.69 205.91 117.27 205.29 117.06 L 205.93 118.75 L 204.30 118.23 L 204.58 119.68 C 204.08 119.62 203.06 119.48 202.55 119.42 L 202.62 120.60 C 200.51 121.38 198.25 121.67 196.13 122.48 C 203.56 115.73 213.24 111.60 223.01 109.44 C 224.93 108.83 227.30 109.03 228.83 107.55 C 230.38 107.16 231.71 107.51 232.82 108.60 C 233.86 107.79 235.05 107.28 236.39 107.05 C 233.58 106.52 230.72 106.55 227.88 106.64 C 222.76 108.92 216.78 108.32 211.80 111.20 C 211.11 111.93 210.31 112.14 209.40 111.83 C 209.35 111.05 209.41 110.28 209.55 109.50 C 208.98 110.00 207.82 110.98 207.24 111.47 C 208.67 113.27 205.93 114.03 204.72 114.74 C 200.22 116.94 196.74 120.83 192.05 122.67 C 192.90 121.69 194.59 119.74 195.44 118.76 C 193.43 119.66 191.50 120.69 189.51 121.62 L 189.64 122.39 C 187.69 123.20 186.06 125.42 183.67 124.36 C 184.48 124.03 186.12 123.37 186.93 123.04 C 186.77 122.65 186.44 121.87 186.27 121.48 C 188.22 120.64 190.26 120.06 192.22 119.27 C 193.34 118.45 194.29 117.33 195.71 117.00 C 196.70 116.23 198.32 115.94 198.61 114.52 C 199.95 114.70 201.29 114.33 202.17 113.26 C 201.34 113.39 199.70 113.67 198.88 113.81 L 200.16 112.34 L 201.28 112.26 C 201.81 111.59 202.52 111.22 203.40 111.17 C 205.99 108.67 210.09 108.53 213.36 107.21 L 213.70 105.35 C 208.63 106.69 203.84 108.84 199.10 111.03 C 196.63 112.18 194.69 114.32 192.05 115.09 C 195.06 111.98 198.09 108.35 202.52 107.36 C 205.58 106.45 208.61 105.04 211.87 105.23 C 215.18 102.55 219.36 104.16 223.16 103.46 C 220.06 103.36 216.99 102.96 213.90 102.81 C 209.10 103.75 204.42 105.22 199.68 106.40 C 199.26 106.22 198.42 105.86 197.99 105.68 C 199.93 104.88 201.92 104.17 204.00 103.84 C 203.64 103.39 202.93 102.51 202.58 102.07 C 203.18 101.92 204.40 101.61 205.01 101.46 C 204.75 100.95 204.23 99.92 203.98 99.41 C 204.98 99.40 206.97 99.38 207.97 99.37 C 207.80 98.84 207.45 97.76 207.28 97.22 C 208.72 95.30 210.90 94.16 213.08 95.82 L 208.33 97.16 C 211.02 98.22 213.41 96.54 215.99 96.26 C 215.40 96.09 214.21 95.76 213.62 95.59 C 213.19 94.77 213.29 93.86 213.47 92.99 L 215.52 93.56 L 215.29 92.36 C 219.36 92.71 223.44 91.96 227.15 94.07 C 226.04 92.68 224.40 91.37 225.97 89.48 C 226.21 88.81 226.47 88.14 226.73 87.48 C 227.49 89.76 230.09 90.58 232.20 91.10 C 232.79 92.32 234.17 93.88 235.69 93.42 C 235.19 92.84 234.18 91.67 233.68 91.08 C 235.22 89.08 237.07 92.42 238.49 93.18 C 238.77 94.28 239.34 96.48 239.63 97.58 L 240.34 95.64 L 240.41 94.23 L 239.88 93.45 C 235.23 89.88 230.67 86.10 225.44 83.40 C 226.29 82.68 227.31 82.36 228.51 82.44 L 227.85 80.58 C 228.63 80.44 230.19 80.16 230.97 80.02 C 232.41 81.40 233.95 82.68 235.59 83.83 C 235.91 83.55 236.24 83.27 236.58 82.99 C 234.01 81.37 230.24 80.06 231.29 76.16 C 232.35 77.52 233.70 78.33 235.34 78.59 C 236.68 79.75 237.88 81.09 239.43 82.01 L 239.52 79.50 C 236.54 79.89 237.53 76.48 238.07 74.82 C 240.38 77.15 242.05 80.01 244.30 82.40 C 245.26 85.19 247.52 87.43 247.91 90.43 C 250.84 93.42 251.58 97.65 253.80 101.04 C 252.21 97.58 251.45 93.56 248.71 90.76 C 247.89 87.57 245.97 84.84 245.00 81.72 C 245.43 81.59 246.28 81.33 246.70 81.20 C 245.77 80.27 244.34 80.86 243.18 80.53 C 242.47 77.71 240.44 75.54 238.93 73.14 C 236.96 73.91 234.83 73.41 232.78 73.51 C 233.35 72.57 234.24 72.26 235.45 72.57 C 235.45 72.21 235.46 71.51 235.46 71.16 C 235.91 71.50 236.82 72.19 237.28 72.54 C 237.46 72.00 237.82 70.93 238.01 70.39 C 237.73 69.76 237.16 68.50 236.88 67.87 C 240.38 70.57 241.04 75.71 244.98 78.01 C 243.83 74.89 240.81 72.35 241.29 68.79 C 242.99 70.54 244.80 72.27 246.00 74.42 C 246.90 72.98 250.22 72.45 249.07 75.05 C 248.65 75.21 247.82 75.52 247.40 75.68 C 248.30 76.42 249.36 77.19 249.51 78.43 C 250.35 78.46 251.18 78.47 252.02 78.52 C 251.37 75.85 249.77 73.52 249.29 70.80 L 250.81 71.05 C 251.04 71.33 251.50 71.90 251.73 72.18 L 252.33 72.78 C 252.29 73.24 252.22 74.15 252.19 74.61 L 254.53 73.98 C 254.12 74.75 253.32 76.28 252.92 77.05 C 253.66 76.22 254.33 75.33 255.01 74.45 C 255.26 76.61 255.91 78.75 255.72 80.95 C 256.80 87.53 257.99 94.16 258.21 100.81 L 259.26 100.64 C 259.37 91.44 257.81 82.29 255.65 73.38 L 254.49 73.73 C 254.53 72.93 254.62 71.32 254.66 70.51 L 253.37 70.69 C 253.48 69.84 253.71 68.13 253.82 67.28 C 255.74 68.22 256.31 70.50 257.48 72.15 C 256.22 68.17 253.93 64.53 253.14 60.41 C 251.40 59.85 249.60 60.28 247.94 60.90 C 249.10 61.77 253.23 63.49 249.49 63.69 L 249.33 65.54 C 250.75 65.18 252.64 65.71 252.37 67.48 C 251.43 67.23 249.56 66.74 248.62 66.50 L 250.74 69.00 C 249.99 68.74 248.48 68.23 247.72 67.98 L 249.49 70.67 C 247.77 70.21 246.46 68.98 245.05 67.97 C 245.82 69.22 246.41 70.56 246.80 71.98 C 244.84 70.18 243.05 68.21 241.20 66.29 C 241.59 64.52 241.46 62.05 243.99 62.58 C 243.73 62.16 243.20 61.32 242.93 60.90 C 243.05 60.22 243.30 58.87 243.42 58.19 L 241.46 58.82 C 241.33 58.24 241.08 57.09 240.95 56.51 C 243.05 56.19 245.22 55.64 247.28 56.54 C 247.71 56.11 248.56 55.26 248.99 54.83 C 248.90 57.47 245.40 57.88 243.44 57.97 C 244.03 58.44 244.64 58.91 245.24 59.38 C 248.10 58.75 252.37 61.21 254.19 58.34 C 254.65 59.86 255.81 60.31 257.68 59.70 C 257.97 60.06 258.57 60.78 258.86 61.14 C 261.92 61.76 264.57 63.46 266.30 66.07 C 266.00 65.29 265.41 63.75 265.11 62.98 C 266.33 63.20 268.76 63.65 269.98 63.88 L 268.97 61.46 C 269.71 62.05 271.20 63.25 271.94 63.85 C 271.58 63.06 270.87 61.48 270.52 60.69 L 275.04 63.65 C 274.29 62.44 272.78 60.03 272.02 58.82 C 273.41 57.59 274.95 56.55 276.82 57.71 M 286.15 65.74 C 285.92 64.71 285.23 63.97 284.07 63.51 C 281.92 63.91 284.86 66.69 286.15 65.74 M 267.35 79.36 C 266.88 80.79 266.60 82.28 266.41 83.77 L 265.44 83.22 C 265.61 83.63 265.96 84.43 266.14 84.83 C 264.37 89.81 262.23 94.67 261.04 99.83 C 261.28 102.16 263.20 98.91 263.44 98.08 C 263.94 92.72 267.30 88.17 267.96 82.87 C 268.24 80.18 268.86 77.57 269.45 74.94 C 269.58 71.91 269.35 68.87 269.59 65.84 C 268.45 70.27 268.42 74.90 267.35 79.36 M 279.36 79.05 C 279.83 79.42 279.83 79.42 279.36 79.05 M 301.81 82.18 C 299.67 87.46 296.18 92.32 295.26 98.02 C 296.05 94.90 297.63 92.15 300.27 90.23 C 301.22 88.25 302.01 85.65 304.38 84.96 C 303.36 86.51 302.24 87.98 301.19 89.50 C 303.60 90.42 305.28 88.13 307.23 87.20 C 307.54 88.07 308.15 89.81 308.45 90.68 C 309.30 89.69 310.16 88.72 311.03 87.75 C 310.39 87.29 309.10 86.35 308.46 85.88 C 308.82 85.42 309.54 84.49 309.90 84.02 C 306.77 85.54 304.98 81.47 301.81 82.18 M 241.59 94.68 C 243.32 98.37 246.60 100.80 249.58 103.40 C 248.88 106.38 253.88 106.85 253.42 109.99 C 253.87 109.74 254.76 109.25 255.21 109.00 C 254.56 111.97 251.61 113.63 249.74 115.78 C 250.58 115.56 252.27 115.14 253.11 114.93 L 252.77 114.35 C 254.97 112.81 256.55 110.56 257.17 107.95 C 257.83 108.16 259.15 108.59 259.80 108.81 C 258.41 106.37 261.28 104.59 260.87 102.22 C 260.27 102.21 259.08 102.19 258.48 102.18 C 258.44 103.44 258.13 104.64 257.57 105.78 C 256.72 106.40 256.22 107.24 256.07 108.31 C 255.51 107.97 254.39 107.29 253.83 106.95 C 253.51 105.24 252.66 103.70 251.70 102.28 C 251.59 102.79 251.35 103.80 251.24 104.31 C 247.59 101.57 245.67 97.02 241.59 94.68 M 235.26 98.07 C 235.41 98.60 235.72 99.65 235.88 100.18 C 233.55 100.80 231.18 100.36 228.83 100.17 C 231.13 100.82 233.87 102.39 236.10 100.79 C 237.53 99.61 239.09 101.11 240.47 101.59 C 242.90 103.47 245.58 105.01 248.01 106.90 L 245.84 106.70 C 245.12 106.98 243.68 107.53 242.96 107.81 C 244.53 109.41 246.02 109.22 247.42 107.24 C 247.84 108.04 248.68 109.64 249.11 110.43 C 248.41 110.42 247.03 110.39 246.34 110.38 L 246.85 111.57 L 245.34 111.45 C 243.89 114.44 247.82 114.55 247.76 112.14 C 248.26 112.33 249.24 112.70 249.73 112.89 L 249.42 111.29 C 249.92 111.45 250.93 111.77 251.43 111.92 C 251.51 111.33 251.65 110.14 251.73 109.54 C 250.50 108.36 249.25 107.20 247.97 106.09 C 245.13 103.14 241.46 101.25 237.87 99.38 L 236.16 99.63 L 236.71 98.03 C 236.34 98.04 235.62 98.06 235.26 98.07 M 236.37 106.50 C 238.75 106.46 241.13 106.69 243.51 106.67 C 241.74 105.27 237.64 106.00 238.58 102.76 C 237.99 104.08 237.35 105.41 236.37 106.50 M 228.81 125.39 C 227.06 128.52 222.41 128.70 221.00 132.02 C 223.27 130.92 225.25 129.30 227.62 128.40 C 228.44 127.77 229.21 127.09 229.93 126.35 C 230.39 126.33 231.31 126.30 231.76 126.29 C 231.74 126.10 231.68 125.74 231.66 125.55 C 230.70 125.50 229.76 125.45 228.81 125.39 M 248.02 137.68 C 248.28 136.67 248.79 134.63 249.05 133.61 C 247.42 135.79 245.52 138.43 242.45 137.46 C 242.70 138.73 242.53 139.91 241.93 141.02 L 240.46 140.06 C 240.42 140.83 240.33 142.37 240.28 143.13 C 241.89 141.27 243.80 139.70 245.58 138.00 C 245.64 139.01 245.78 141.04 245.84 142.05 C 246.22 141.63 246.98 140.78 247.36 140.36 C 249.01 138.91 249.99 136.45 252.31 135.97 C 252.56 136.50 253.05 137.56 253.29 138.09 C 253.30 137.07 253.30 135.03 253.30 134.00 C 253.86 134.16 254.98 134.46 255.54 134.61 L 255.14 133.05 L 256.64 133.42 C 256.66 133.12 256.70 132.52 256.72 132.21 C 255.60 132.22 254.96 132.77 254.81 133.87 L 251.98 133.63 L 252.55 131.64 C 251.05 133.69 250.62 136.50 248.02 137.68 M 237.28 139.23 C 235.64 140.50 234.11 141.91 232.67 143.41 C 230.42 142.51 229.96 143.71 230.78 145.40 C 233.52 144.12 235.27 140.30 238.48 140.52 C 238.06 138.63 240.02 137.40 241.64 137.12 C 241.49 136.55 241.20 135.40 241.05 134.82 C 239.27 135.79 238.20 137.49 237.28 139.23 M 224.54 145.24 C 224.71 146.34 225.32 147.15 226.37 147.67 L 226.39 145.85 C 228.74 146.01 228.08 142.94 228.52 141.50 C 227.14 142.65 225.32 143.52 224.54 145.24 Z" />
<path fill="#ffffff" opacity="1.00" d=" M 280.92 54.88 C 282.10 54.13 283.78 56.03 283.20 57.14 C 282.63 56.58 281.49 55.45 280.92 54.88 Z" />
<path fill="#ffffff" opacity="1.00" d=" M 283.44 58.18 C 283.90 57.57 284.38 56.96 284.85 56.36 C 286.64 58.81 289.84 59.73 291.34 62.44 C 289.39 61.87 287.60 60.93 285.78 60.07 C 285.19 59.60 284.02 58.65 283.44 58.18 Z" />
<path fill="#ffffff" opacity="1.00" d=" M 200.29 59.22 C 201.37 58.59 202.51 58.08 203.80 58.17 C 203.44 59.35 202.77 60.50 202.85 61.78 C 203.78 62.03 205.35 60.94 205.86 62.16 C 204.21 63.51 202.44 64.71 200.75 66.02 C 200.61 65.46 200.33 64.34 200.19 63.78 C 200.59 63.39 201.41 62.62 201.81 62.23 C 200.79 61.52 200.43 60.40 200.29 59.22 Z" />
<path fill="#ffffff" opacity="1.00" d=" M 315.26 58.22 C 317.09 59.86 318.85 61.64 320.04 63.82 C 317.67 62.83 316.02 60.62 315.26 58.22 Z" />
<path fill="#ffffff" opacity="1.00" d=" M 311.53 64.72 C 310.05 63.98 308.89 62.84 308.20 61.35 C 310.13 62.84 311.95 64.45 313.85 65.98 L 311.47 65.21 C 311.51 65.84 311.60 67.11 311.64 67.75 C 314.33 68.63 316.32 70.74 318.00 72.92 C 317.72 73.42 317.16 74.42 316.88 74.93 C 318.22 74.31 319.80 74.08 320.50 75.73 L 317.43 75.01 L 318.80 77.03 C 317.85 76.68 315.96 75.98 315.01 75.62 C 315.62 76.32 316.85 77.71 317.47 78.41 L 317.45 79.90 L 319.35 79.06 C 319.12 80.82 317.06 80.69 315.79 80.43 C 314.42 79.31 313.20 77.99 311.67 77.08 C 311.55 76.59 311.32 75.61 311.20 75.12 C 309.18 72.88 306.12 71.21 305.26 68.17 C 308.35 70.46 310.45 73.84 313.55 76.03 C 313.42 75.30 313.17 73.85 313.04 73.12 C 313.73 73.31 315.11 73.69 315.80 73.88 C 314.87 72.58 313.92 71.33 313.03 70.01 C 311.14 68.75 309.22 67.40 308.05 65.39 C 308.57 65.74 309.60 66.42 310.11 66.77 C 310.58 66.09 311.05 65.40 311.53 64.72 Z" />
<path fill="#ffffff" opacity="1.00" d=" M 312.12 60.65 L 313.06 62.76 C 313.56 62.05 314.07 61.34 314.58 60.63 C 314.56 61.55 314.52 63.39 314.50 64.31 L 316.21 62.88 C 317.35 64.57 319.42 65.97 318.91 68.35 C 317.44 67.47 316.10 66.45 314.79 65.37 C 313.75 63.94 310.98 62.79 312.12 60.65 Z" />
<path fill="#ffffff" opacity="1.00" d=" M 202.77 65.70 C 204.26 65.28 205.49 64.35 206.72 63.46 C 206.55 64.14 206.21 65.51 206.04 66.20 C 207.57 65.52 209.12 64.87 210.65 64.19 L 210.21 66.02 C 211.05 65.85 212.71 65.50 213.55 65.33 C 212.17 67.72 208.89 66.28 206.68 66.48 L 206.61 67.67 L 205.34 67.33 L 205.56 68.66 C 204.90 68.77 203.58 69.01 202.92 69.13 C 204.47 69.14 207.42 70.78 207.66 68.12 C 208.33 68.29 209.69 68.64 210.36 68.82 L 208.54 69.79 L 208.50 71.87 C 208.91 71.32 209.75 70.21 210.17 69.65 L 212.51 69.07 C 210.92 71.75 208.61 73.77 205.81 75.09 C 207.67 76.26 209.51 78.59 211.93 75.39 C 208.98 77.96 205.74 80.43 202.08 81.87 C 201.73 81.73 201.02 81.47 200.66 81.33 C 202.04 79.19 201.18 76.53 201.74 74.17 L 200.77 74.41 C 200.78 73.62 200.81 72.05 200.83 71.26 C 199.63 71.77 198.45 72.30 197.29 72.87 C 197.27 72.54 197.25 71.87 197.24 71.54 L 198.65 71.62 C 197.01 68.97 200.11 68.47 200.55 66.38 C 201.10 66.21 202.22 65.87 202.77 65.70 Z" />
<path fill="#ffffff" opacity="1.00" d=" M 216.45 65.60 C 219.02 65.35 221.54 64.78 224.07 64.27 C 224.60 64.96 225.14 65.65 225.69 66.34 C 222.57 66.10 219.66 67.42 216.61 67.78 C 216.57 67.23 216.49 66.14 216.45 65.60 Z" />
<path fill="#ffffff" opacity="1.00" d=" M 312.88 65.70 C 315.05 65.92 316.70 67.35 318.34 68.61 C 318.85 69.74 319.42 70.86 319.93 72.00 C 317.15 70.44 314.97 68.07 312.88 65.70 Z" />
<path fill="#ffffff" opacity="1.00" d=" M 220.51 69.19 C 221.97 69.42 223.26 69.90 222.67 71.87 C 224.65 71.26 226.69 70.81 228.78 70.85 C 228.15 71.19 227.52 71.53 226.90 71.87 C 223.78 73.07 220.58 74.07 218.06 76.41 L 218.54 74.22 C 218.25 74.19 217.67 74.13 217.38 74.10 C 217.47 74.75 217.64 76.06 217.73 76.71 C 216.10 77.46 214.46 78.16 212.79 78.82 C 213.89 77.46 215.25 76.45 216.86 75.80 C 216.41 75.39 215.51 74.57 215.06 74.16 C 216.02 73.56 216.99 72.97 217.98 72.41 C 217.35 72.09 216.09 71.46 215.46 71.15 L 217.68 71.73 L 217.53 70.41 C 218.33 70.49 219.94 70.64 220.74 70.71 L 220.51 69.19 Z" />
<path fill="#ffffff" opacity="1.00" d=" M 252.17 70.26 C 252.80 70.84 252.80 70.84 252.17 70.26 Z" />
<path fill="#ffffff" opacity="1.00" d=" M 253.26 73.62 C 253.79 73.98 253.79 73.98 253.26 73.62 Z" />
<path fill="#ffffff" opacity="1.00" d=" M 304.95 73.46 C 306.07 74.08 307.51 74.42 308.07 75.74 C 308.42 75.63 309.13 75.42 309.48 75.31 C 308.57 77.54 311.20 77.55 312.46 78.53 C 314.34 79.58 315.40 81.51 316.58 83.22 C 314.25 83.95 312.74 81.64 310.81 80.86 C 310.23 79.33 309.39 77.93 308.24 76.77 C 306.96 75.86 305.87 74.73 304.95 73.46 Z" />
<path fill="#ffffff" opacity="1.00" d=" M 223.14 78.96 C 225.10 77.70 226.88 76.20 228.86 74.97 C 228.16 76.55 226.43 77.18 225.17 78.20 L 226.32 79.14 C 224.70 78.68 223.14 80.09 222.56 81.49 C 224.20 81.72 225.36 80.24 226.32 79.14 C 226.82 78.92 227.83 78.49 228.33 78.27 C 227.53 80.90 224.76 81.81 223.28 83.91 C 222.09 85.78 219.70 86.77 219.14 89.03 C 220.68 87.11 224.20 86.55 224.56 83.81 C 226.94 85.58 229.48 87.11 231.99 88.67 L 231.09 89.16 C 228.97 89.53 227.30 86.64 225.49 85.55 C 225.75 87.99 220.72 89.24 224.69 91.10 C 223.04 90.09 221.41 90.13 219.79 91.21 L 220.52 89.16 C 213.60 89.72 208.17 94.22 202.90 98.28 L 203.50 96.29 C 202.92 96.31 201.77 96.37 201.19 96.39 C 203.45 94.55 205.80 92.83 208.12 91.06 C 208.57 91.30 209.46 91.79 209.91 92.04 C 209.73 91.57 209.36 90.64 209.17 90.17 C 211.78 88.86 214.48 87.63 216.73 85.74 C 219.59 86.50 221.90 84.65 222.87 82.01 C 221.98 82.32 220.18 82.94 219.29 83.25 L 217.79 81.01 C 219.74 83.47 221.25 80.55 222.23 79.19 C 220.55 80.51 218.48 81.18 216.38 80.64 L 216.51 78.57 C 217.43 78.17 218.34 77.76 219.25 77.34 C 220.15 75.74 222.16 76.86 223.55 76.57 C 223.45 77.17 223.24 78.36 223.14 78.96 Z" />
<path fill="#ffffff" opacity="1.00" d=" M 249.07 75.05 C 252.09 75.60 247.67 78.04 249.07 75.05 Z" />
<path fill="#ffffff" opacity="1.00" d=" M 205.24 81.18 C 207.39 80.68 209.08 79.19 210.82 77.93 C 210.69 78.53 210.42 79.72 210.29 80.31 C 209.23 80.95 208.21 81.64 207.22 82.38 C 206.56 81.98 205.90 81.58 205.24 81.18 Z" />
<path fill="#ffffff" opacity="1.00" d=" M 213.43 80.16 C 214.66 80.49 216.22 80.65 215.72 82.37 C 213.17 81.74 212.53 84.39 211.18 85.89 C 211.96 85.83 213.51 85.72 214.28 85.66 C 212.64 88.06 209.44 88.63 207.84 91.11 C 208.46 87.49 203.36 91.49 204.13 87.79 C 203.38 87.18 202.63 86.58 201.88 85.98 C 202.33 85.75 203.25 85.28 203.71 85.05 L 203.08 83.77 L 203.47 82.22 C 203.79 83.08 204.18 83.91 204.65 84.69 L 205.12 84.30 L 205.81 83.84 C 206.16 83.61 206.85 83.17 207.20 82.95 C 208.45 82.13 209.63 83.60 210.92 83.54 C 211.92 83.09 211.47 81.99 211.22 81.22 C 211.82 81.36 213.03 81.65 213.63 81.79 L 213.43 80.16 Z" />
<path fill="#ffffff" opacity="1.00" d=" M 231.09 89.16 C 232.19 88.40 234.21 89.85 233.68 91.08 C 233.31 91.09 232.57 91.10 232.20 91.10 C 231.92 90.62 231.37 89.65 231.09 89.16 Z" />
<path fill="#ffffff" opacity="1.00" d=" M 303.23 106.28 C 307.87 104.22 311.84 100.80 316.68 99.15 C 316.40 99.85 315.86 101.24 315.59 101.94 C 316.16 101.97 317.28 102.04 317.85 102.08 L 316.75 102.45 C 316.56 102.87 316.17 103.72 315.98 104.14 L 313.56 105.42 C 317.65 103.23 316.99 107.68 317.88 109.66 C 317.11 111.10 317.05 113.34 315.07 113.66 C 313.23 113.37 311.52 111.84 309.60 112.64 C 305.99 111.17 301.99 111.34 298.35 109.91 C 299.46 109.05 300.64 108.32 301.86 107.61 C 303.35 108.78 305.27 109.00 307.04 109.57 C 308.41 109.43 308.97 107.72 310.05 107.06 C 310.20 107.54 310.49 108.51 310.63 108.99 C 310.47 108.26 310.15 106.82 309.99 106.09 C 309.80 106.43 309.41 107.09 309.22 107.42 C 307.49 105.51 305.07 108.05 303.23 106.28 Z" />
<path fill="#ffffff" opacity="1.00" d=" M 251.24 104.31 C 251.62 104.70 251.62 104.70 251.24 104.31 Z" />
<path fill="#ffffff" opacity="1.00" d=" M 226.36 112.36 C 226.66 112.66 226.66 112.66 226.36 112.36 Z" />
<path fill="#ffffff" opacity="1.00" d=" M 295.17 114.37 C 296.59 113.84 298.91 116.77 296.69 117.32 C 295.12 117.58 294.35 115.48 295.17 114.37 Z" />
<path fill="#ffffff" opacity="1.00" d=" M 211.46 115.65 C 211.98 115.46 213.02 115.08 213.54 114.89 L 213.78 116.20 C 212.17 116.53 209.72 116.25 210.49 118.70 C 209.95 118.72 208.87 118.75 208.33 118.77 L 209.64 120.42 C 208.24 118.32 206.87 121.55 205.55 120.55 L 204.87 120.13 C 206.12 119.64 207.35 119.10 208.57 118.52 L 208.39 117.45 L 209.74 117.58 L 209.40 116.44 C 209.91 116.25 210.94 115.85 211.46 115.65 Z" />
<path fill="#ffffff" opacity="1.00" d=" M 297.96 117.35 C 299.07 114.52 304.06 115.28 305.02 117.84 C 302.66 117.73 300.31 117.54 297.96 117.35 Z" />
<path fill="#ffffff" opacity="1.00" d=" M 313.58 117.90 C 314.44 119.34 314.76 121.01 315.45 122.53 L 315.08 123.01 C 314.93 123.37 314.63 124.08 314.48 124.43 C 313.04 123.95 312.25 124.34 312.14 125.62 C 312.93 125.54 314.53 125.39 315.32 125.31 C 317.25 129.61 321.06 132.51 323.95 136.09 C 320.42 133.31 316.93 130.28 314.33 126.57 C 314.59 128.26 314.98 129.92 315.50 131.56 L 316.29 131.55 C 316.54 132.96 318.34 134.41 316.91 135.82 C 317.65 136.05 319.13 136.51 319.87 136.74 C 319.11 136.65 317.59 136.48 316.83 136.39 C 317.38 137.13 318.48 138.62 319.03 139.37 C 317.93 138.63 316.82 137.90 315.72 137.18 L 315.35 138.79 C 313.33 138.40 312.78 137.20 313.69 135.19 C 310.93 136.23 308.30 134.97 306.40 132.98 L 306.60 134.96 C 304.87 133.41 302.81 132.39 300.72 131.46 C 301.90 133.45 304.40 134.14 305.40 136.34 C 304.45 136.01 302.54 135.36 301.59 135.03 L 303.61 135.94 C 302.94 136.51 302.27 137.07 301.60 137.63 L 304.14 136.26 L 303.26 139.17 C 304.89 137.24 307.52 137.54 309.78 137.34 C 308.79 139.32 310.11 140.12 311.80 140.55 C 311.63 141.06 311.30 142.09 311.13 142.60 L 313.29 142.32 C 312.82 143.98 311.18 143.28 309.98 143.28 C 309.00 141.86 307.78 140.60 306.12 140.00 C 306.48 140.49 307.20 141.49 307.56 141.98 C 307.56 143.08 307.56 145.28 307.56 146.38 C 304.84 144.09 302.65 139.58 298.50 140.45 L 297.86 137.54 C 298.72 137.34 300.45 136.94 301.31 136.74 C 300.33 135.79 299.38 134.80 298.47 133.79 C 298.97 133.44 299.97 132.73 300.47 132.38 C 298.88 131.13 297.33 129.81 295.73 128.58 C 296.56 128.27 298.20 127.64 299.03 127.33 C 300.33 127.75 301.63 128.24 302.91 128.77 L 301.39 127.81 C 301.81 123.71 305.70 128.27 307.25 129.37 C 306.95 129.74 306.35 130.46 306.06 130.82 C 308.57 131.93 309.33 135.57 312.43 135.29 C 312.15 134.66 311.57 133.40 311.28 132.77 L 311.97 131.27 L 310.22 131.62 C 308.41 129.18 306.21 127.01 303.33 125.87 C 304.19 124.52 305.21 123.22 305.65 121.66 C 308.22 121.13 310.83 121.28 313.23 121.94 C 313.60 120.62 313.71 119.27 313.58 117.90 M 308.17 127.39 L 309.16 129.49 L 310.35 128.16 C 311.45 129.74 312.89 131.26 312.55 133.37 C 313.06 133.40 314.08 133.45 314.58 133.48 L 314.63 134.66 L 316.14 134.66 L 315.84 136.58 C 316.46 135.71 318.35 134.58 316.55 133.56 C 314.78 132.28 313.31 130.68 312.19 128.81 C 312.36 128.43 312.69 127.66 312.86 127.27 C 311.30 127.44 309.73 127.48 308.17 127.39 Z" />
<path fill="#ffffff" opacity="1.00" d=" M 209.64 120.42 C 210.92 119.69 212.17 118.93 213.42 118.14 L 213.62 120.76 L 212.36 120.23 C 210.46 121.77 208.16 122.70 206.21 124.15 C 206.35 124.56 206.65 125.38 206.79 125.79 C 203.15 128.49 200.00 131.88 195.96 134.02 C 196.81 132.16 198.70 131.12 199.98 129.60 C 200.17 128.67 200.17 128.67 199.98 129.60 C 198.71 129.35 197.51 130.95 196.33 130.09 C 201.22 127.41 204.63 122.86 209.64 120.42 Z" />
<path fill="#ffffff" opacity="1.00" d=" M 298.36 120.28 C 298.81 120.05 299.26 119.83 299.71 119.60 C 300.56 120.34 302.06 120.61 302.20 121.94 C 301.83 123.01 301.41 124.07 300.94 125.11 C 300.19 125.03 298.68 124.87 297.93 124.80 C 297.79 124.44 297.52 123.72 297.39 123.36 C 298.73 123.34 300.01 123.06 301.22 122.50 C 300.51 121.94 299.07 120.83 298.36 120.28 Z" />
<path fill="#ffffff" opacity="1.00" d=" M 246.50 122.87 C 248.18 121.18 250.57 120.77 252.79 120.22 C 251.15 121.68 251.27 123.82 251.31 125.84 C 252.00 125.57 253.36 125.03 254.05 124.75 C 254.32 127.74 251.72 126.24 250.02 126.05 C 248.86 124.98 247.68 123.92 246.50 122.87 Z" />
<path fill="#ffffff" opacity="1.00" d=" M 196.84 125.90 C 199.26 123.44 202.46 121.97 205.55 120.55 C 203.46 123.06 200.13 125.29 196.84 125.90 Z" />
<path fill="#ffffff" opacity="1.00" d=" M 214.95 121.56 C 215.49 121.98 216.04 122.41 216.59 122.84 C 213.54 123.86 211.26 126.42 208.16 127.24 C 209.09 127.56 210.03 127.85 210.99 128.13 C 210.49 129.74 208.61 130.46 207.56 131.63 C 207.47 130.42 207.79 129.17 207.25 128.02 C 206.45 129.69 206.24 131.54 205.68 133.29 L 205.96 129.87 C 203.36 133.98 197.89 135.50 196.09 140.13 C 195.76 135.63 200.81 134.18 203.04 131.04 C 205.89 126.65 210.76 124.41 214.95 121.56 Z" />
<path fill="#ffffff" opacity="1.00" d=" M 188.83 123.41 C 191.33 122.98 193.27 125.18 195.83 124.60 C 195.81 124.81 195.76 125.22 195.73 125.42 C 194.97 125.41 193.45 125.39 192.69 125.39 C 191.49 126.67 190.30 128.11 188.37 128.20 C 188.96 128.63 190.15 129.47 190.74 129.90 C 189.11 130.18 188.27 131.09 188.20 132.64 L 189.42 132.62 C 189.89 131.97 190.82 130.66 191.29 130.00 C 191.94 131.54 191.42 133.23 191.21 134.80 C 188.90 136.75 186.11 138.02 183.40 139.31 C 184.50 139.38 186.68 139.52 187.78 139.59 L 187.36 138.39 L 188.50 138.52 L 188.64 137.47 C 189.06 137.50 189.91 137.57 190.33 137.60 L 190.45 136.38 L 191.72 136.71 L 191.40 135.41 C 192.08 135.39 193.44 135.36 194.12 135.34 C 192.64 136.49 191.06 137.54 189.70 138.84 C 188.59 139.67 190.48 141.34 189.27 142.12 C 188.02 142.49 187.25 143.31 186.94 144.58 L 186.38 143.79 C 183.50 146.16 180.32 148.13 177.12 150.05 C 177.04 150.34 176.86 150.93 176.78 151.22 C 176.37 151.64 176.37 151.64 176.78 151.22 C 180.69 149.90 183.49 146.70 186.94 144.58 C 188.91 143.65 191.61 142.52 190.12 139.75 L 192.32 140.32 C 191.72 139.90 191.13 139.47 190.56 139.04 C 192.27 138.50 194.01 138.04 195.76 137.64 C 195.05 138.27 193.62 139.54 192.91 140.17 L 195.93 140.21 C 195.07 140.86 193.36 142.17 192.50 142.83 C 193.35 142.73 195.05 142.54 195.90 142.44 L 195.87 143.23 C 195.48 143.30 194.70 143.43 194.31 143.50 L 194.66 144.67 L 193.33 144.32 L 193.64 145.70 L 192.30 145.17 C 194.02 149.63 190.15 152.61 187.61 155.59 C 187.25 155.62 186.55 155.69 186.20 155.72 C 186.93 154.72 188.41 152.72 189.15 151.72 C 186.62 151.05 186.89 156.47 184.64 154.32 L 181.33 156.65 L 185.06 151.62 C 182.86 153.10 181.19 155.21 179.01 156.72 C 179.35 156.28 180.02 155.39 180.36 154.94 L 179.51 153.58 L 180.53 154.13 C 182.63 152.07 184.75 150.02 186.45 147.60 C 183.96 149.38 181.79 151.54 179.51 153.58 C 178.09 154.88 176.58 156.09 174.89 157.03 C 175.49 156.58 176.68 155.67 177.28 155.21 C 176.90 154.57 176.54 153.92 176.17 153.28 C 175.27 154.41 174.14 155.26 172.78 155.80 C 173.35 155.30 174.49 154.29 175.06 153.78 C 174.18 153.36 173.29 152.95 172.42 152.53 L 174.98 152.98 L 174.17 151.08 L 175.91 151.98 L 175.43 150.43 L 176.65 150.59 C 176.72 149.98 176.86 148.77 176.93 148.16 C 178.10 146.93 181.22 146.52 180.36 144.27 L 181.67 144.48 C 181.68 144.14 181.72 143.46 181.73 143.12 C 179.59 143.67 177.63 144.71 175.61 145.58 C 174.37 144.58 173.85 143.40 175.15 142.19 C 175.92 141.17 177.27 140.95 178.37 140.44 C 178.35 139.97 178.31 139.03 178.29 138.55 C 177.71 138.55 176.55 138.53 175.97 138.52 C 176.42 138.58 177.31 138.72 177.76 138.78 C 177.67 139.19 177.49 139.99 177.40 140.39 C 176.40 140.46 174.39 140.59 173.38 140.65 C 173.37 140.15 173.34 139.16 173.33 138.66 C 172.32 139.01 171.32 139.36 170.32 139.71 C 170.29 139.43 170.25 138.88 170.23 138.60 C 172.63 138.33 174.89 137.45 177.10 136.51 C 175.56 136.58 172.48 136.71 170.94 136.78 C 172.36 135.96 173.77 135.11 175.29 134.49 C 175.19 132.58 177.90 132.56 177.95 130.61 C 178.49 130.58 179.58 130.52 180.13 130.48 C 181.44 129.31 182.41 127.87 183.31 126.37 C 185.15 125.38 187.24 124.83 188.83 123.41 M 177.91 132.41 L 177.49 133.11 C 178.74 135.21 180.55 131.34 177.91 132.41 M 178.23 152.47 C 178.58 152.77 178.58 152.77 178.23 152.47 Z" />
<path fill="#ffffff" opacity="1.00" d=" M 255.19 126.98 C 255.00 125.34 256.07 124.02 256.91 122.73 C 258.30 124.62 256.95 126.20 255.19 126.98 Z" />
<path fill="#ffffff" opacity="1.00" d=" M 211.32 133.79 C 212.57 132.33 215.76 134.12 213.55 136.28 L 210.95 134.94 L 212.90 137.23 L 210.39 136.53 L 211.24 138.11 L 209.70 137.46 C 209.94 139.18 208.12 139.40 207.01 140.11 C 205.33 140.99 204.17 142.75 202.12 142.83 C 200.74 143.99 199.54 145.39 197.88 146.17 C 200.97 140.81 206.64 137.63 211.32 133.79 Z" />
<path fill="#ffffff" opacity="1.00" d=" M 252.02 134.56 L 252.70 134.62 L 252.63 135.31 L 251.95 135.25 L 252.02 134.56 Z" />
<path fill="#ffffff" opacity="1.00" d=" M 216.54 137.18 C 217.71 137.65 218.85 138.19 219.96 138.80 C 217.25 139.90 215.33 142.47 212.42 143.09 C 213.70 143.95 215.02 144.78 216.65 144.84 C 214.51 144.90 213.19 146.45 211.86 147.84 C 210.71 149.42 208.19 150.51 208.50 152.75 L 207.16 152.10 C 208.32 153.99 206.47 155.49 205.68 156.99 C 203.51 159.88 201.83 163.16 199.41 165.85 C 201.37 161.64 203.41 157.33 206.83 154.09 C 205.90 150.61 209.46 148.77 211.26 146.45 L 211.49 146.96 C 211.87 146.19 212.63 144.63 213.01 143.85 L 209.64 145.82 L 209.15 143.85 C 211.07 143.59 212.01 141.71 213.54 140.76 C 214.67 139.68 216.90 139.25 216.54 137.18 Z" />
<path fill="#ffffff" opacity="1.00" d=" M 310.66 138.72 C 312.65 137.28 313.14 141.59 310.89 139.52 L 310.66 138.72 Z" />
<path fill="#ffffff" opacity="1.00" d=" M 222.63 139.79 C 224.28 139.27 225.50 140.48 224.01 141.80 C 221.22 144.98 219.03 148.68 216.03 151.68 L 214.15 151.93 C 215.51 148.26 220.16 146.32 220.48 142.38 C 221.22 141.54 221.93 140.67 222.63 139.79 Z" />
<path fill="#ffffff" opacity="1.00" d=" M 205.35 143.09 C 206.50 143.49 207.65 143.54 208.80 143.23 C 208.79 143.88 208.77 145.17 208.76 145.81 C 207.18 147.28 205.68 148.81 204.29 150.46 C 203.87 150.51 203.04 150.61 202.63 150.66 C 201.63 151.97 200.44 153.12 199.29 154.30 C 198.22 154.39 197.15 154.49 196.08 154.61 C 197.58 153.59 198.54 151.62 200.50 151.46 C 200.38 150.04 201.04 149.35 202.49 149.40 L 202.43 148.64 C 203.87 146.99 206.89 145.67 205.35 143.09 Z" />
<path fill="#ffffff" opacity="1.00" d=" M 257.48 146.35 C 258.09 146.17 260.50 146.26 259.68 147.42 C 258.46 148.27 257.17 148.50 255.80 148.12 C 256.22 147.68 257.06 146.79 257.48 146.35 Z" />
<path fill="#ffffff" opacity="1.00" d=" M 262.20 148.37 C 262.68 148.64 263.64 149.17 264.12 149.44 C 264.55 151.38 262.96 152.84 262.41 154.56 C 260.02 155.11 257.74 156.30 255.30 156.39 C 254.81 153.95 258.03 150.86 259.98 153.60 C 260.86 152.77 261.76 151.96 262.68 151.18 C 261.83 151.19 260.14 151.22 259.29 151.24 C 257.86 152.29 256.15 151.48 254.60 151.36 C 253.60 152.11 252.59 152.84 251.57 153.57 C 250.76 155.09 249.93 156.63 248.62 157.79 C 247.06 158.94 244.60 157.28 243.36 159.22 L 242.65 158.05 C 239.76 160.97 235.22 161.05 231.74 163.09 C 233.71 160.13 236.15 157.52 238.57 154.92 C 237.98 154.39 237.38 153.87 236.79 153.35 C 234.89 156.57 233.00 159.80 230.87 162.87 C 229.32 164.67 227.13 165.89 225.98 168.02 C 225.63 168.92 225.00 169.48 224.03 169.37 C 225.78 165.83 228.45 162.87 230.55 159.55 C 232.06 157.12 234.91 155.74 235.92 152.99 C 236.74 153.18 238.38 153.55 239.20 153.74 L 239.43 152.44 C 240.21 152.51 240.99 152.59 241.78 152.66 C 240.39 153.89 239.12 155.24 237.94 156.67 C 238.86 156.98 239.78 157.29 240.69 157.62 C 240.63 157.04 240.50 155.89 240.44 155.32 C 241.03 155.40 242.23 155.57 242.82 155.66 C 243.52 154.95 244.21 154.24 244.90 153.52 C 245.74 153.46 247.43 153.33 248.28 153.26 C 247.56 154.51 246.84 155.75 246.12 156.99 C 247.61 155.39 249.58 154.16 250.43 152.06 C 251.89 150.80 253.72 149.35 255.78 149.98 C 257.39 149.44 259.12 149.00 260.77 149.69 C 261.13 149.36 261.84 148.70 262.20 148.37 Z" />
<path fill="#ffffff" opacity="1.00" d=" M 308.84 149.72 C 309.51 150.51 309.51 150.51 308.84 149.72 Z" />
<path fill="#ffffff" opacity="1.00" d=" M 193.10 151.19 C 193.81 151.29 195.25 151.47 195.97 151.56 C 195.11 153.50 194.27 155.45 193.24 157.31 C 193.56 157.44 194.20 157.69 194.52 157.82 C 192.75 162.37 189.66 166.21 187.48 170.54 C 189.72 170.32 190.22 167.56 191.34 165.99 L 192.45 166.88 L 192.33 164.81 L 195.41 161.41 C 194.20 161.96 191.49 168.06 194.74 168.69 C 194.11 169.39 193.48 170.09 192.86 170.80 C 192.49 170.67 191.74 170.41 191.37 170.28 C 191.00 174.44 186.60 168.43 186.56 172.22 L 185.39 171.53 C 186.07 170.58 187.23 169.34 185.85 168.40 C 188.16 165.49 190.68 162.61 192.03 159.10 C 190.56 159.19 190.64 160.91 189.95 161.81 C 189.03 163.32 187.77 164.57 186.66 165.93 C 185.95 165.69 185.24 165.45 184.54 165.21 L 184.57 166.47 L 183.68 166.46 C 183.39 166.77 182.79 167.38 182.50 167.69 L 182.44 168.45 L 181.39 168.52 L 181.51 169.70 C 179.85 169.27 178.35 169.60 177.00 170.69 C 178.93 168.33 181.73 166.87 183.83 164.66 C 183.23 164.68 182.03 164.71 181.43 164.73 C 180.64 165.65 179.85 166.63 178.67 167.05 C 178.66 166.30 178.64 164.81 178.63 164.06 C 179.21 164.31 180.36 164.82 180.93 165.08 C 177.38 160.82 183.79 165.54 182.65 161.73 C 186.55 158.66 190.05 155.12 193.10 151.19 M 183.65 163.11 C 184.02 163.46 184.40 163.80 184.79 164.14 C 185.92 162.21 188.17 161.18 189.07 159.07 C 187.20 160.34 185.51 161.84 183.65 163.11 Z" />
<path fill="#ffffff" opacity="1.00" d=" M 228.55 155.96 C 228.27 153.73 230.46 152.52 231.65 150.98 C 231.35 152.53 231.19 154.10 231.30 155.68 C 228.57 159.46 224.99 162.55 222.42 166.45 C 220.77 169.02 218.22 170.68 216.22 172.91 C 218.86 168.48 221.22 163.59 225.23 160.24 C 226.32 158.73 228.12 157.36 227.50 155.27 L 228.55 155.96 Z" />
<path fill="#ffffff" opacity="1.00" d=" M 246.40 151.98 C 247.31 151.02 249.65 150.85 250.43 152.06 C 249.31 152.71 247.33 153.04 246.40 151.98 Z" />
<path fill="#ffffff" opacity="1.00" d=" M 263.11 155.29 C 264.82 153.65 265.09 147.98 268.55 150.83 C 268.53 151.52 268.50 152.90 268.48 153.59 C 270.27 152.31 271.31 149.19 274.15 150.42 C 273.61 151.08 272.55 152.40 272.02 153.06 C 273.50 152.43 275.91 150.19 276.73 152.78 C 276.14 154.14 273.82 154.02 274.17 155.83 C 275.78 155.22 277.19 154.24 278.19 152.81 C 279.19 152.51 280.19 152.20 281.19 151.87 C 282.46 152.46 283.48 153.34 284.25 154.50 C 282.17 154.93 279.22 153.52 277.73 155.55 C 280.08 155.52 282.43 155.43 284.79 155.37 C 283.54 156.24 282.48 157.31 281.62 158.57 C 280.11 158.84 278.59 159.12 277.08 159.39 C 277.28 158.81 277.68 157.63 277.88 157.05 C 275.95 160.22 270.88 157.42 268.45 160.33 C 270.32 160.41 272.17 160.18 273.99 159.64 C 273.53 161.48 271.51 161.25 270.09 161.56 C 266.23 161.66 263.12 164.40 259.34 164.83 C 259.83 165.42 260.32 166.01 260.81 166.61 C 263.57 165.12 266.54 164.13 269.48 163.08 C 268.89 163.85 267.71 165.40 267.12 166.17 C 268.37 165.74 269.46 164.92 269.54 163.49 C 273.38 162.55 276.96 160.57 280.97 160.17 C 280.76 161.57 280.25 162.78 278.62 162.73 C 278.62 163.17 278.60 164.05 278.59 164.49 L 277.29 164.32 C 277.39 165.28 277.48 166.25 277.57 167.22 C 278.07 166.18 278.82 165.45 279.85 165.03 C 279.69 166.01 279.53 166.98 279.36 167.96 C 279.71 167.95 280.40 167.94 280.75 167.94 L 280.12 166.49 C 280.96 166.24 282.65 165.75 283.50 165.50 C 283.93 166.32 284.37 167.13 284.81 167.95 C 285.26 167.43 286.18 166.40 286.63 165.88 C 286.16 166.58 285.21 167.97 284.73 168.66 C 285.28 168.73 286.37 168.85 286.91 168.92 L 285.62 170.92 L 287.88 170.35 C 287.26 172.43 288.37 173.70 290.17 174.55 L 291.03 172.77 C 290.88 174.13 290.73 175.49 290.56 176.85 C 290.24 177.09 289.61 177.56 289.29 177.80 C 289.22 177.16 289.08 175.86 289.00 175.22 C 287.06 176.31 285.50 176.03 284.32 174.38 C 285.90 176.99 283.06 178.63 281.76 176.46 L 284.01 176.43 C 283.77 175.82 283.30 174.60 283.06 174.00 C 281.12 173.39 280.19 178.59 279.31 175.27 C 277.85 175.43 276.38 175.50 274.92 175.47 C 275.29 174.58 275.80 173.77 276.45 173.05 C 277.85 173.68 281.07 176.50 280.85 173.08 C 278.18 172.69 276.24 169.58 273.37 170.66 L 273.43 169.76 C 272.66 169.33 272.21 168.68 272.08 167.79 C 273.58 167.11 275.14 166.35 276.07 164.91 C 273.75 165.85 271.77 167.67 269.14 167.64 C 266.18 168.56 263.76 170.77 261.08 172.28 C 260.28 169.02 263.06 168.63 264.96 167.19 C 263.03 167.88 261.33 169.39 259.18 169.28 L 259.63 170.61 L 258.03 170.29 L 258.45 171.71 C 258.28 171.71 257.94 171.69 257.77 171.68 C 257.73 171.18 257.65 170.17 257.61 169.67 C 261.88 169.32 257.71 164.13 255.15 164.99 C 255.84 164.73 256.54 164.48 257.23 164.23 C 260.81 162.01 266.28 162.73 269.15 159.32 C 266.28 159.72 263.54 160.72 260.67 161.10 C 257.58 159.00 253.39 164.53 250.96 161.48 C 255.62 159.91 260.61 159.87 265.33 158.53 C 265.50 153.84 273.19 157.96 272.58 153.21 C 271.05 153.97 269.55 154.77 268.07 155.60 C 266.86 153.16 264.90 156.21 263.11 155.29 M 283.07 167.38 C 282.27 168.63 281.48 169.89 280.95 171.28 C 281.39 171.34 282.28 171.46 282.72 171.53 L 283.49 172.80 C 284.60 172.41 285.70 171.98 286.80 171.51 C 284.89 171.91 283.31 171.41 282.04 170.02 L 284.19 168.91 C 283.81 168.39 283.44 167.89 283.07 167.38 M 285.31 173.29 L 285.17 174.11 C 287.01 175.75 287.37 171.35 285.31 173.29 Z" />
<path fill="#ffffff" opacity="1.00" d=" M 303.25 152.96 C 303.70 152.52 304.60 151.64 305.06 151.21 C 307.22 152.75 307.39 155.57 309.03 157.52 C 309.49 159.07 307.04 158.69 306.85 157.58 C 306.07 155.74 304.75 154.25 303.25 152.96 Z" />
<path fill="#ffffff" opacity="1.00" d=" M 252.09 153.58 C 253.41 153.44 254.75 153.17 256.06 153.56 C 254.79 155.81 252.57 157.11 250.17 157.83 C 250.69 156.36 251.41 154.97 252.09 153.58 Z" />
<path fill="#ffffff" opacity="1.00" d=" M 293.98 153.03 C 294.66 153.15 296.02 153.38 296.70 153.49 C 296.64 154.30 296.58 155.10 296.52 155.90 C 296.79 155.88 297.33 155.83 297.60 155.80 L 297.15 154.10 C 297.90 154.27 299.41 154.61 300.16 154.79 C 299.53 156.42 297.80 156.96 296.42 157.75 C 296.25 159.79 297.03 161.68 297.88 163.50 C 296.33 163.37 293.90 164.35 294.21 161.80 C 293.18 161.33 293.02 160.63 293.73 159.69 C 294.51 158.29 294.11 156.61 294.77 155.16 C 294.33 155.20 293.45 155.27 293.01 155.31 C 293.25 154.74 293.74 153.60 293.98 153.03 Z" />
<path fill="#ffffff" opacity="1.00" d=" M 300.45 156.10 C 301.52 156.53 302.59 156.98 303.65 157.45 C 303.80 160.04 302.65 161.86 300.47 163.17 C 299.38 161.82 299.31 159.07 296.93 159.37 L 299.02 157.26 C 299.53 157.76 300.06 158.26 300.62 158.75 C 300.57 158.08 300.49 156.76 300.45 156.10 Z" />
<path fill="#ffffff" opacity="1.00" d=" M 290.72 157.19 C 291.16 157.78 291.59 158.37 292.04 158.96 C 291.20 160.25 290.68 162.22 288.73 161.77 C 288.72 160.76 288.72 159.76 288.72 158.75 C 289.22 158.36 290.22 157.58 290.72 157.19 Z" />
<path fill="#ffffff" opacity="1.00" d=" M 309.79 159.48 C 311.34 160.15 312.84 160.84 314.35 161.66 C 313.27 161.54 311.12 161.31 310.04 161.19 C 309.52 165.21 314.34 165.87 316.00 168.81 C 314.26 167.73 312.57 166.54 310.66 165.77 C 310.98 167.14 311.48 168.46 312.05 169.74 L 311.28 169.93 L 310.77 168.54 L 309.83 169.49 L 310.30 168.45 C 309.82 168.02 308.85 167.16 308.37 166.73 C 309.13 164.75 308.24 162.73 307.77 160.80 C 308.28 160.47 309.29 159.81 309.79 159.48 Z" />
<path fill="#ffffff" opacity="1.00" d=" M 179.70 161.81 C 179.71 160.54 180.49 159.99 182.03 160.16 C 181.98 161.40 181.20 161.95 179.70 161.81 Z" />
<path fill="#ffffff" opacity="1.00" d=" M 210.63 164.48 C 212.50 161.90 214.41 159.31 216.73 157.10 C 215.40 159.95 214.17 163.04 211.74 165.17 C 211.39 166.39 211.04 167.61 210.67 168.83 C 210.62 167.38 210.42 165.92 210.63 164.48 Z" />
<path fill="#ffffff" opacity="1.00" d=" M 244.36 161.40 C 244.44 161.03 244.58 160.30 244.65 159.93 L 244.62 161.81 C 246.02 161.39 247.41 160.91 248.81 160.49 C 246.70 162.59 243.35 164.89 240.25 164.15 L 240.24 167.01 C 241.01 166.78 242.55 166.34 243.32 166.11 C 241.92 167.25 240.16 167.64 238.40 167.25 L 238.59 169.18 C 238.45 168.47 238.15 167.07 238.01 166.36 C 237.79 167.47 237.35 169.68 237.13 170.78 L 235.24 168.96 C 234.64 168.91 233.44 168.79 232.84 168.73 C 234.82 168.11 233.99 165.47 235.79 164.87 C 238.50 163.41 241.26 161.83 244.36 161.40 Z" />
<path fill="#ffffff" opacity="1.00" d=" M 197.53 170.02 C 199.39 168.43 201.42 167.06 203.65 166.03 C 202.30 167.99 200.21 169.34 199.07 171.45 C 198.55 170.97 198.04 170.49 197.53 170.02 Z" />
<path fill="#ffffff" opacity="1.00" d=" M 252.39 166.50 C 254.01 166.37 253.69 168.51 253.35 169.51 C 253.42 170.17 253.51 170.83 253.59 171.49 C 252.36 172.70 251.17 173.94 249.87 175.08 C 250.39 173.98 251.42 171.79 251.94 170.70 C 250.16 173.96 244.55 175.62 245.36 179.95 C 244.73 179.72 243.48 179.25 242.86 179.02 C 242.37 179.51 241.40 180.49 240.91 180.98 C 241.65 179.55 242.33 176.85 244.79 178.91 L 243.11 177.03 C 243.58 177.20 244.54 177.54 245.02 177.72 C 245.66 175.91 246.43 174.13 247.71 172.67 C 247.74 172.40 247.80 171.87 247.83 171.60 L 248.44 171.79 L 248.89 171.19 C 250.27 170.59 251.19 169.63 251.65 168.31 C 250.00 168.61 249.08 169.57 248.89 171.19 L 248.27 170.99 L 247.83 171.60 L 247.40 172.15 L 247.71 172.67 L 246.50 172.59 C 245.54 173.95 244.34 175.06 242.91 175.91 C 244.01 173.49 245.76 171.25 248.18 170.06 C 249.55 168.84 250.94 167.63 252.39 166.50 Z" />
<path fill="#ffffff" opacity="1.00" d=" M 231.22 171.51 C 230.56 170.37 232.08 168.65 233.31 169.10 C 233.91 170.20 232.33 171.79 231.22 171.51 Z" />
<path fill="#ffffff" opacity="1.00" d=" M 266.28 169.65 C 268.09 168.75 270.06 168.37 272.05 168.08 C 271.41 168.78 270.12 170.19 269.47 170.89 C 269.48 171.28 269.49 172.08 269.49 172.47 L 270.66 172.28 C 270.73 172.86 270.86 174.04 270.93 174.63 C 270.53 174.55 269.71 174.38 269.31 174.30 L 269.75 175.86 C 266.71 176.07 264.42 174.55 262.76 172.15 C 263.96 171.36 265.15 170.54 266.28 169.65 Z" />
<path fill="#ffffff" opacity="1.00" d=" M 306.32 168.38 C 307.21 169.40 308.38 169.77 309.83 169.49 C 309.84 169.85 309.85 170.57 309.85 170.93 L 309.42 170.93 C 309.03 170.62 308.24 170.00 307.84 169.69 C 308.52 172.14 309.56 174.46 310.33 176.88 C 308.97 176.44 307.50 173.12 305.98 175.29 C 306.73 175.46 308.22 175.81 308.97 175.99 C 308.79 178.58 306.10 178.21 304.24 178.46 C 303.77 180.43 302.37 179.01 301.72 178.00 L 303.85 178.95 C 303.96 178.53 304.18 177.67 304.29 177.25 L 305.82 177.91 C 305.46 176.20 306.25 172.72 303.46 173.10 C 304.58 171.64 305.93 170.25 306.32 168.38 Z" />
<path fill="#ffffff" opacity="1.00" d=" M 309.85 170.93 L 310.49 170.69 C 310.53 171.14 310.62 172.03 310.66 172.47 L 309.85 172.52 C 309.85 172.12 309.85 171.33 309.85 170.93 Z" />
<path fill="#ffffff" opacity="1.00" d=" M 196.77 171.18 C 197.57 171.54 199.15 172.27 199.95 172.63 C 199.01 174.20 196.49 175.55 197.73 177.63 C 195.86 179.43 194.08 181.31 192.27 183.17 C 191.06 184.10 190.15 185.29 189.53 186.73 L 189.43 183.06 L 190.78 183.59 C 190.78 183.28 190.79 182.68 190.79 182.38 C 190.15 182.39 188.85 182.43 188.21 182.45 C 188.25 183.56 188.30 184.67 188.38 185.78 C 188.06 185.76 187.42 185.71 187.10 185.69 C 187.76 184.18 187.19 181.47 189.49 181.40 C 188.30 179.32 191.10 178.09 191.92 176.68 C 191.20 176.37 190.49 176.06 189.78 175.76 C 189.13 176.67 188.46 177.57 187.79 178.47 C 186.58 178.45 185.38 178.45 184.17 178.46 C 184.79 177.61 185.30 176.67 186.11 175.98 C 187.45 175.09 189.49 175.91 190.47 174.39 L 190.98 174.27 L 191.47 174.54 C 191.93 175.19 192.46 175.79 193.06 176.33 C 192.50 174.42 194.83 173.54 195.71 172.21 L 196.13 174.63 C 196.29 173.77 196.61 172.04 196.77 171.18 Z" />
<path fill="#ffffff" opacity="1.00" d=" M 256.82 175.31 C 257.35 174.77 258.41 173.68 258.94 173.14 C 258.46 173.86 257.51 175.31 257.03 176.03 C 257.76 176.60 258.49 177.18 259.21 177.76 L 259.46 176.49 L 261.18 176.87 C 261.42 176.41 261.89 175.47 262.12 175.01 C 262.16 175.65 262.25 176.94 262.29 177.58 C 261.95 177.97 261.28 178.75 260.95 179.14 C 259.21 177.88 255.27 179.39 255.48 176.07 C 254.79 176.30 253.42 176.75 252.74 176.98 C 253.65 175.20 255.00 174.91 256.79 176.10 L 255.01 173.83 C 255.46 174.20 256.37 174.94 256.82 175.31 Z" />
<path fill="#ffffff" opacity="1.00" d=" M 271.88 175.38 C 270.49 174.47 272.13 171.96 273.50 172.88 C 274.36 173.87 273.22 176.00 271.88 175.38 Z" />
<path fill="#ffffff" opacity="1.00" d=" M 300.21 174.14 C 301.52 172.83 303.40 175.06 302.25 176.29 C 301.06 177.45 298.91 175.32 300.21 174.14 Z" />
<path fill="#ffffff" opacity="1.00" d=" M 193.80 184.22 C 196.21 181.03 199.00 178.14 201.84 175.34 C 202.76 175.32 204.60 175.28 205.52 175.26 L 205.51 177.78 L 204.34 177.34 L 204.46 178.56 L 203.22 178.74 C 203.34 179.55 203.57 181.17 203.68 181.99 C 204.25 181.67 205.38 181.04 205.95 180.73 C 205.55 181.23 204.76 182.23 204.36 182.73 L 204.27 185.11 C 205.80 183.86 207.35 182.62 208.89 181.38 L 209.08 182.88 L 207.68 182.93 L 207.82 183.65 C 207.26 184.46 206.13 186.08 205.57 186.89 C 207.91 186.14 209.07 182.07 211.88 182.79 L 211.53 181.71 C 213.31 180.84 214.57 179.33 215.78 177.82 C 215.25 179.07 214.67 180.31 214.26 181.60 C 213.86 181.52 213.07 181.36 212.67 181.27 C 212.27 182.41 211.86 183.55 211.45 184.68 C 209.73 185.74 208.43 188.15 206.09 187.53 C 206.69 188.20 207.30 188.89 207.91 189.57 C 209.89 187.64 211.63 184.42 214.77 184.49 L 214.09 183.33 C 214.82 183.43 216.28 183.61 217.01 183.70 C 217.47 182.86 217.95 182.01 218.43 181.18 C 218.46 181.77 218.51 182.94 218.53 183.52 C 216.76 185.41 215.23 187.54 213.22 189.20 C 213.94 189.70 214.66 190.21 215.38 190.73 C 215.13 189.14 215.94 188.27 217.80 188.12 C 218.27 187.85 219.21 187.32 219.68 187.05 C 217.73 190.28 215.72 193.55 213.02 196.22 C 212.80 196.72 212.36 197.73 212.14 198.23 C 210.02 198.85 209.54 201.31 208.26 202.86 C 208.78 200.92 209.93 199.25 210.78 197.45 L 211.88 197.78 C 211.81 197.20 211.67 196.04 211.60 195.46 L 211.85 194.86 C 211.92 194.48 212.05 193.71 212.12 193.33 L 213.64 191.96 C 213.12 191.45 212.62 190.94 212.11 190.43 C 210.66 191.51 209.29 192.68 207.93 193.87 C 209.50 191.09 212.11 189.05 213.87 186.38 C 214.09 185.50 214.09 185.50 213.87 186.38 C 210.58 187.72 208.67 191.83 204.84 192.02 L 206.56 191.25 C 205.72 189.93 204.65 188.80 203.18 188.20 C 204.42 187.52 206.21 187.30 206.18 185.36 C 202.55 185.08 201.28 189.11 198.73 190.96 C 199.13 194.29 193.29 190.16 197.06 193.47 L 193.93 193.67 C 194.55 192.21 195.66 190.84 195.34 189.15 C 197.70 185.60 202.00 183.34 203.21 179.15 C 199.73 182.11 197.32 186.39 193.44 188.75 C 193.89 187.12 194.69 185.67 195.84 184.40 C 195.33 184.35 194.31 184.26 193.80 184.22 Z" />
<path fill="#ffffff" opacity="1.00" d=" M 205.95 180.73 C 205.78 179.35 206.37 178.69 207.72 178.77 C 207.90 180.20 207.31 180.85 205.95 180.73 Z" />
<path fill="#ffffff" opacity="1.00" d=" M 225.26 181.16 C 225.69 180.05 226.70 179.62 227.75 179.30 C 225.43 180.89 226.96 183.86 225.96 186.10 C 225.49 185.31 225.02 184.53 224.54 183.75 L 223.82 184.50 L 223.23 184.76 C 223.23 183.26 224.52 182.32 225.26 181.16 Z" />
<path fill="#ffffff" opacity="1.00" d=" M 231.46 180.45 C 231.86 180.36 232.65 180.16 233.04 180.06 C 231.91 182.60 229.54 184.59 229.37 187.50 C 228.58 189.28 227.12 190.89 225.27 191.61 C 226.15 190.40 227.07 189.21 228.03 188.06 C 227.37 188.17 226.04 188.39 225.38 188.50 C 227.60 185.96 229.50 183.19 231.46 180.45 Z" />
<path fill="#ffffff" opacity="1.00" d=" M 276.18 181.38 C 277.95 181.53 279.75 181.83 281.48 181.18 C 281.01 182.07 280.54 182.96 280.09 183.86 C 278.95 183.67 277.82 183.49 276.68 183.30 C 276.56 182.82 276.30 181.86 276.18 181.38 Z" />
<path fill="#ffffff" opacity="1.00" d=" M 223.52 186.03 C 224.47 185.82 225.14 186.25 225.54 187.32 L 224.39 187.07 C 223.93 188.54 222.71 189.74 221.13 189.70 C 220.23 191.13 219.94 193.05 218.45 194.03 C 218.56 194.48 218.78 195.38 218.89 195.83 L 216.29 194.94 C 218.82 196.42 217.57 200.05 215.48 201.16 C 215.89 199.92 216.70 197.43 217.11 196.19 C 215.99 197.29 214.87 198.38 213.74 199.48 C 214.51 196.65 216.66 194.54 218.17 192.11 C 219.54 189.67 222.62 188.84 223.52 186.03 Z" />
<path fill="#ffffff" opacity="1.00" d=" M 290.04 188.85 C 290.53 188.05 291.03 187.26 291.49 186.44 C 291.88 186.92 292.66 187.88 293.05 188.35 C 292.17 189.39 291.53 190.59 290.86 191.76 C 290.31 191.24 289.20 190.20 288.65 189.68 L 288.97 189.12 C 288.23 188.87 286.75 188.36 286.01 188.11 C 286.66 189.19 287.97 191.36 288.62 192.44 C 288.11 192.53 287.08 192.71 286.57 192.80 C 286.58 191.12 286.00 189.03 283.96 188.83 C 285.75 187.80 287.77 187.30 289.78 186.96 L 290.04 188.85 Z" />
<path fill="#ffffff" opacity="1.00" d=" M 279.19 189.51 C 280.16 189.91 281.13 190.30 282.12 190.69 C 284.02 193.32 287.22 195.60 286.58 199.27 C 284.53 196.57 281.74 194.14 281.15 190.63 C 280.61 190.62 279.51 190.60 278.96 190.59 C 279.02 190.32 279.13 189.78 279.19 189.51 Z" />
<path fill="#ffffff" opacity="1.00" d=" M 221.98 191.22 C 222.84 191.89 223.49 192.76 223.86 193.80 C 222.75 195.15 222.03 196.90 220.47 197.83 C 220.18 199.44 219.00 200.81 219.40 202.52 L 218.53 202.24 C 217.87 203.91 216.98 205.49 216.00 207.01 C 216.34 205.12 217.25 203.43 218.24 201.81 C 219.89 198.42 220.07 194.53 221.98 191.22 Z" />
<path fill="#ffffff" opacity="1.00" d=" M 226.28 199.66 C 228.69 196.41 230.67 191.95 234.91 190.89 C 232.89 193.24 230.89 195.62 228.78 197.89 C 228.56 200.29 227.09 202.49 225.05 203.74 C 225.73 202.12 226.64 200.65 227.80 199.32 C 227.39 199.48 222.45 202.05 223.09 199.58 C 224.57 197.63 226.22 195.82 227.98 194.12 C 226.95 196.19 225.64 198.10 224.14 199.85 C 224.67 199.80 225.74 199.71 226.28 199.66 Z" />
<path fill="#ffffff" opacity="1.00" d=" M 277.48 195.72 C 276.19 194.32 275.99 192.30 278.43 192.17 C 281.99 194.45 283.56 198.64 286.87 201.19 C 285.30 200.50 283.77 199.75 282.27 198.92 C 283.11 200.49 284.52 201.87 284.56 203.76 C 285.32 204.57 286.11 205.37 286.92 206.15 C 287.72 207.06 288.42 208.05 289.05 209.09 C 285.91 207.77 283.37 205.77 281.88 202.61 C 281.48 202.50 280.68 202.28 280.29 202.17 C 280.83 200.58 280.80 198.98 280.26 197.41 C 280.63 197.46 281.37 197.56 281.74 197.61 C 280.77 196.07 279.75 194.54 278.89 192.95 C 278.41 193.87 277.94 194.79 277.48 195.72 Z" />
<path fill="#ffffff" opacity="1.00" d=" M 244.34 193.58 C 244.96 193.64 246.19 193.75 246.81 193.81 C 246.80 194.01 246.77 194.39 246.75 194.59 L 245.10 194.06 C 245.41 195.44 246.03 198.21 246.35 199.59 C 246.60 198.66 247.11 196.80 247.37 195.87 C 247.81 196.82 248.31 197.75 248.85 198.66 L 249.87 196.85 C 249.44 198.61 249.04 200.39 249.20 202.22 L 248.44 202.25 C 248.39 203.51 248.29 206.04 248.24 207.31 L 249.63 206.59 C 249.84 206.08 250.26 205.06 250.47 204.55 C 252.15 206.07 254.88 206.67 255.62 209.05 C 255.75 211.03 254.99 213.13 255.91 215.00 C 256.28 216.76 258.69 219.17 254.99 219.83 L 257.65 219.58 C 257.83 220.14 258.18 221.27 258.36 221.83 L 258.40 222.80 C 262.75 221.93 261.96 230.39 264.39 231.26 C 263.10 229.48 260.52 225.94 259.23 224.16 C 257.48 224.06 255.78 224.25 254.13 224.74 C 254.52 223.62 254.39 222.60 253.76 221.67 C 253.30 221.84 252.39 222.18 251.93 222.35 C 251.57 223.71 252.59 225.35 254.13 224.74 C 254.74 226.07 255.40 227.39 255.84 228.80 C 254.29 227.82 254.49 225.47 252.39 225.09 L 252.84 227.95 C 251.89 226.68 250.94 225.41 249.98 224.17 L 249.32 227.04 C 249.17 225.69 249.34 224.37 249.83 223.08 C 249.02 223.23 247.41 223.53 246.60 223.68 C 246.57 222.89 246.51 221.31 246.48 220.52 C 245.96 221.09 244.90 222.25 244.38 222.82 C 244.44 222.27 244.55 221.16 244.61 220.61 C 241.54 221.84 243.14 217.06 240.32 217.27 C 240.22 215.54 240.26 213.80 240.31 212.08 L 241.71 212.87 C 241.64 210.75 241.58 208.63 241.43 206.52 L 242.49 206.46 C 241.01 203.36 244.89 200.75 243.56 197.63 C 242.29 199.71 242.40 203.13 239.77 204.16 C 240.72 201.87 241.75 199.62 242.42 197.24 L 243.87 197.62 C 243.79 196.88 243.61 195.39 243.53 194.65 L 244.89 195.02 L 244.34 193.58 Z" />
<path fill="#ffffff" opacity="1.00" d=" M 228.03 203.85 C 229.57 200.42 231.62 197.02 234.76 194.84 C 232.50 197.82 231.15 201.61 228.03 203.85 Z" />
<path fill="#ffffff" opacity="1.00" d=" M 231.24 205.82 C 231.93 202.44 233.78 199.45 235.82 196.72 C 235.47 199.31 234.43 201.76 232.86 203.85 C 233.18 204.45 233.51 205.06 233.85 205.66 C 234.39 203.87 235.16 202.17 235.94 200.48 C 236.60 200.46 237.92 200.43 238.58 200.41 L 238.47 201.73 L 239.80 201.36 C 239.65 202.18 239.35 203.84 239.20 204.66 L 240.61 204.11 C 240.31 206.74 240.89 209.61 239.76 212.07 C 239.69 210.79 239.85 209.54 240.26 208.33 C 239.88 207.52 239.48 206.73 239.06 205.95 C 238.37 208.01 237.80 210.11 237.41 212.25 C 236.59 211.18 235.31 209.80 236.64 208.43 C 235.13 208.98 231.67 208.02 233.39 205.67 C 232.86 205.71 231.78 205.79 231.24 205.82 Z" />
<path fill="#ffffff" opacity="1.00" d=" M 275.38 199.18 C 275.81 198.95 276.66 198.49 277.09 198.26 C 277.41 198.87 278.04 200.09 278.36 200.71 C 279.11 203.41 280.33 206.08 278.97 208.86 C 280.69 207.85 282.32 209.75 282.66 211.29 C 285.67 212.87 280.85 216.30 279.91 211.03 C 281.07 213.50 282.32 215.99 283.72 218.34 C 285.15 218.29 285.71 219.01 285.41 220.51 L 286.91 220.78 C 286.11 221.62 284.97 221.75 283.88 221.91 C 283.38 220.64 283.89 218.38 281.96 218.31 C 281.70 217.56 281.16 216.07 280.90 215.33 C 280.16 215.44 278.69 215.66 277.95 215.77 C 278.62 213.96 279.70 212.28 279.86 210.30 L 278.50 210.63 C 278.51 208.99 278.48 207.35 278.42 205.71 L 277.50 206.93 C 277.46 207.63 277.38 209.03 277.34 209.73 L 275.88 209.27 L 276.81 207.35 L 274.15 207.32 L 275.13 209.02 L 275.16 210.67 C 273.56 208.33 271.75 205.45 272.62 202.51 C 273.21 202.53 274.39 202.56 274.98 202.57 C 274.77 202.02 274.33 200.92 274.11 200.37 L 275.76 200.89 L 275.38 199.18 M 274.34 205.33 C 272.77 208.31 277.72 205.41 274.34 205.33 Z" />
<path fill="#ffffff" opacity="1.00" d=" M 268.39 199.25 L 270.45 199.34 C 270.49 201.36 270.68 203.39 271.46 205.28 L 270.57 205.79 C 270.84 206.57 271.37 208.14 271.64 208.92 C 271.00 208.41 269.73 207.40 269.09 206.89 C 269.39 208.08 269.68 209.27 269.95 210.47 C 268.19 211.04 266.37 212.00 264.50 211.23 C 266.31 210.79 266.64 209.74 265.50 208.08 C 265.00 208.28 264.00 208.69 263.50 208.89 C 263.44 207.98 263.33 206.15 263.27 205.23 C 263.88 205.31 265.09 205.46 265.70 205.54 C 265.62 206.04 265.45 207.03 265.36 207.53 L 266.42 207.42 C 266.58 208.36 266.92 210.25 267.08 211.19 C 268.48 209.37 267.59 207.13 267.13 205.16 L 268.54 205.63 C 268.42 203.50 268.40 201.37 268.39 199.25 Z" />
<path fill="#ffffff" opacity="1.00" d=" M 286.03 201.45 C 286.60 201.43 287.76 201.38 288.33 201.35 C 289.27 202.21 289.79 204.23 291.40 203.54 C 291.41 204.21 291.43 205.55 291.44 206.22 C 289.37 204.95 287.70 203.18 286.03 201.45 Z" />
</g>
</svg>
