<?xml version="1.0" encoding="UTF-8" ?>
<!DOCTYPE svg PUBLIC "-//W3C//DTD SVG 1.1//EN" "http://www.w3.org/Graphics/SVG/1.1/DTD/svg11.dtd">
<svg width="512pt" height="256pt" viewBox="0 0 512 256" version="1.1" xmlns="http://www.w3.org/2000/svg">
<g id="#ffffffff">
<path fill="#ffffff" opacity="1.00" d=" M 214.16 20.10 C 216.07 19.56 218.37 18.43 220.15 19.91 C 222.23 21.38 224.27 22.91 226.57 24.04 C 226.62 24.83 226.73 26.43 226.79 27.22 C 224.31 28.10 222.31 29.98 219.72 30.58 C 221.31 27.92 217.17 27.53 216.43 25.46 C 215.31 25.71 214.50 25.33 214.00 24.32 C 215.05 24.53 217.15 24.95 218.20 25.16 L 216.10 23.26 L 215.82 21.25 C 214.04 21.78 212.57 22.88 211.25 24.14 C 208.67 25.96 210.11 28.81 208.72 31.25 C 208.94 32.16 209.21 33.05 209.55 33.92 L 206.91 33.20 C 207.73 34.21 208.58 35.21 209.46 36.18 C 208.97 36.48 207.98 37.09 207.49 37.39 C 207.84 38.01 208.53 39.24 208.88 39.86 C 205.90 39.17 204.85 34.84 205.11 32.07 C 205.83 32.38 207.28 33.02 208.01 33.34 C 207.58 32.62 206.73 31.19 206.31 30.48 C 207.93 26.38 209.81 21.94 214.16 20.10 Z" />
<path fill="#ffffff" opacity="1.00" d=" M 226.59 24.28 C 227.33 24.77 228.45 25.05 228.57 26.11 C 229.92 29.43 231.26 32.78 231.95 36.32 C 229.38 37.32 226.98 38.66 224.56 39.97 C 224.46 39.28 224.26 37.90 224.15 37.21 C 225.33 36.08 226.62 35.10 227.93 34.14 C 226.35 34.74 223.76 36.70 223.12 33.77 C 225.29 33.00 227.75 32.14 229.03 30.07 C 226.25 31.13 223.90 33.98 220.70 32.23 C 222.70 29.85 225.23 28.15 228.27 27.43 C 227.85 26.64 227.01 25.07 226.59 24.28 Z" />
<path fill="#ffffff" opacity="1.00" d=" M 311.24 25.29 L 311.55 25.28 C 312.32 26.61 313.18 27.89 314.05 29.16 C 315.19 28.00 317.99 26.33 316.19 29.84 C 316.79 29.63 318.01 29.22 318.61 29.01 C 318.30 29.60 317.67 30.77 317.36 31.36 C 319.69 30.99 319.24 33.16 317.53 33.64 C 316.63 32.48 315.40 31.69 314.14 30.99 C 311.34 31.56 308.87 32.94 306.43 34.37 C 303.45 37.73 300.35 41.21 296.39 43.44 C 297.05 44.63 298.21 45.33 299.38 45.96 C 300.99 45.90 301.26 43.65 301.32 42.39 C 302.91 43.92 305.13 44.93 306.09 47.02 C 305.25 46.55 303.59 45.61 302.75 45.14 C 302.37 45.75 301.99 46.36 301.61 46.97 C 304.74 49.43 308.93 51.07 311.13 54.42 C 311.70 53.71 312.23 52.96 312.74 52.21 C 313.35 52.76 314.55 53.86 315.15 54.41 C 314.90 53.61 314.39 52.01 314.13 51.21 C 315.03 52.04 315.93 52.88 316.85 53.70 L 315.10 53.21 C 315.31 53.97 315.75 55.50 315.97 56.26 C 315.51 55.86 314.58 55.06 314.11 54.66 C 312.96 55.64 311.36 56.14 310.23 54.79 C 306.08 51.19 300.14 49.56 297.04 44.90 C 294.97 45.19 293.12 44.04 292.41 42.11 C 293.68 40.79 294.88 38.96 296.99 39.22 C 297.91 37.32 300.14 36.68 301.23 34.92 C 302.30 33.64 303.26 31.86 305.24 32.34 L 304.40 30.63 C 305.15 29.96 305.82 29.21 306.41 28.39 C 307.83 28.87 308.77 28.23 309.22 26.47 C 309.86 26.95 311.14 27.92 311.78 28.41 C 311.64 27.63 311.37 26.07 311.24 25.29 Z" />
<path fill="#ffffff" opacity="1.00" d=" M 217.15 33.44 C 218.26 31.62 220.06 30.48 222.21 30.35 L 219.26 32.36 L 220.72 33.50 C 219.64 34.10 218.91 35.00 218.54 36.19 C 218.24 36.69 218.24 36.69 218.54 36.19 C 219.74 35.55 220.92 34.87 222.09 34.19 C 220.37 37.08 218.74 40.20 215.83 42.09 C 217.95 39.86 214.95 36.00 218.12 34.88 C 217.80 34.40 217.47 33.92 217.15 33.44 Z" />
<path fill="#ffffff" opacity="1.00" d=" M 310.32 36.10 C 310.28 32.65 313.93 35.87 315.65 36.21 C 315.50 36.54 315.19 37.21 315.04 37.54 C 316.09 38.09 316.79 38.92 317.13 40.05 C 314.59 39.24 312.60 37.39 310.32 36.10 Z" />
<path fill="#ffffff" opacity="1.00" d=" M 308.37 34.96 C 309.20 35.67 309.55 36.53 309.41 37.55 C 312.24 38.18 314.69 40.49 316.16 42.96 C 315.00 42.44 312.69 41.40 311.54 40.88 C 313.04 42.78 315.26 44.15 316.55 46.26 C 312.13 44.64 308.90 41.09 304.95 38.75 C 306.15 37.75 307.13 34.68 308.95 37.82 C 308.81 37.11 308.51 35.68 308.37 34.96 Z" />
<path fill="#ffffff" opacity="1.00" d=" M 202.44 38.34 C 202.70 38.37 203.23 38.42 203.50 38.45 C 205.44 40.32 206.03 42.88 206.18 45.49 C 203.73 46.12 203.33 43.05 200.95 43.22 C 201.48 42.66 202.54 41.55 203.08 41.00 C 202.92 40.33 202.60 39.00 202.44 38.34 Z" />
<path fill="#ffffff" opacity="1.00" d=" M 227.49 40.20 C 228.47 39.39 229.50 38.64 230.58 37.95 L 230.38 39.85 C 231.46 39.09 232.64 38.55 233.92 38.24 C 233.41 38.90 232.37 40.22 231.85 40.88 L 234.72 39.98 C 234.26 40.72 233.33 42.21 232.87 42.96 L 233.74 43.09 C 234.06 42.65 234.69 41.78 235.01 41.34 C 234.82 43.16 236.61 43.80 237.61 44.87 C 236.29 48.49 234.10 51.60 232.62 55.09 C 232.19 55.29 231.34 55.70 230.91 55.90 C 230.94 55.44 230.99 54.50 231.02 54.04 C 231.32 53.74 231.92 53.15 232.22 52.86 L 231.57 51.94 C 231.43 52.47 231.15 53.51 231.02 54.04 C 230.53 54.21 229.56 54.56 229.08 54.74 C 228.43 53.02 230.55 51.73 231.16 50.26 C 231.52 50.46 232.23 50.86 232.59 51.06 C 232.58 48.72 235.48 47.36 234.93 44.91 C 234.10 45.94 233.36 47.05 232.71 48.20 C 230.88 48.73 229.36 49.85 228.38 51.49 C 227.11 52.29 225.92 53.19 224.86 54.25 L 225.95 56.00 L 224.28 54.92 C 224.13 56.26 223.28 56.73 222.11 56.66 C 223.34 54.92 224.56 53.18 225.90 51.52 C 226.07 50.75 226.25 49.97 226.42 49.20 C 226.80 48.64 227.56 47.52 227.94 46.96 C 226.48 47.61 226.27 49.90 224.36 49.51 L 224.86 50.68 C 224.14 50.80 222.70 51.02 221.98 51.13 L 223.54 53.23 L 220.85 51.63 C 222.08 53.17 221.89 54.39 220.30 55.28 C 220.43 54.71 220.68 53.57 220.80 53.00 L 219.03 52.71 C 220.51 50.60 222.84 49.24 224.04 46.91 C 226.04 45.31 228.53 44.26 230.15 42.16 C 228.69 42.48 227.52 43.41 226.31 44.23 C 225.66 44.27 224.35 44.36 223.70 44.40 C 223.53 47.88 219.27 49.50 217.10 51.90 C 216.71 50.46 217.84 49.60 218.76 48.71 C 219.69 47.92 220.62 47.12 221.55 46.32 L 219.12 46.95 C 218.81 44.85 221.47 44.74 221.76 42.87 C 222.17 42.44 222.99 41.58 223.40 41.15 C 223.81 41.27 224.61 41.52 225.01 41.64 C 225.83 41.16 226.66 40.68 227.49 40.20 Z" />
<path fill="#ffffff" opacity="1.00" d=" M 216.30 43.38 C 217.19 42.28 218.30 40.40 219.80 40.36 C 219.74 40.87 219.61 41.90 219.55 42.42 C 218.80 42.98 216.84 44.97 216.30 43.38 Z" />
<path fill="#ffffff" opacity="1.00" d=" M 290.79 43.79 C 292.36 44.54 293.80 45.67 295.58 45.91 C 295.42 46.48 295.11 47.64 294.96 48.21 C 293.44 48.60 292.98 46.66 291.93 45.99 C 292.56 47.07 293.27 48.10 294.06 49.08 C 293.52 49.51 292.45 50.38 291.91 50.81 C 291.69 51.97 291.69 53.14 291.91 54.30 C 291.29 54.43 290.05 54.69 289.43 54.82 C 289.90 57.05 292.03 58.07 293.30 59.78 C 290.27 58.18 285.51 57.69 284.45 54.02 C 285.09 54.18 286.37 54.48 287.01 54.64 C 286.69 54.44 286.04 54.04 285.71 53.84 C 286.64 52.28 287.56 50.71 288.38 49.09 C 288.95 49.27 290.09 49.63 290.66 49.81 C 290.49 48.92 290.13 47.12 289.96 46.22 L 292.12 47.18 C 291.79 46.33 291.12 44.64 290.79 43.79 Z" />
<path fill="#ffffff" opacity="1.00" d=" M 217.03 44.29 C 219.05 45.68 218.87 49.09 216.17 49.53 C 215.61 49.06 214.50 48.11 213.95 47.63 C 215.04 46.58 216.41 45.75 217.03 44.29 Z" />
<path fill="#ffffff" opacity="1.00" d=" M 200.44 47.56 C 200.67 46.18 202.72 44.42 203.74 46.16 C 205.99 48.47 208.52 50.80 208.93 54.20 C 206.90 52.95 206.04 50.56 204.46 48.86 L 203.51 50.34 C 202.85 48.98 201.82 48.05 200.44 47.56 Z" />
<path fill="#ffffff" opacity="1.00" d=" M 232.62 55.09 C 235.62 52.73 235.97 48.29 239.14 46.18 C 238.30 50.19 235.59 53.45 233.92 57.12 C 234.34 59.08 233.81 61.91 231.85 62.87 C 231.57 62.32 231.00 61.22 230.72 60.67 C 229.76 61.93 228.80 63.19 227.82 64.43 C 226.81 64.21 225.81 64.30 224.85 64.68 C 226.49 61.58 228.08 58.05 230.91 55.90 C 230.55 57.01 230.20 58.11 229.86 59.22 C 231.54 58.91 233.20 56.79 232.62 55.09 Z" />
<path fill="#ffffff" opacity="1.00" d=" M 235.70 57.81 C 238.14 54.50 238.41 49.55 241.70 47.02 C 241.38 48.53 240.98 50.03 240.61 51.53 C 240.94 51.92 241.60 52.70 241.93 53.09 C 241.45 53.19 240.50 53.38 240.03 53.48 C 240.20 53.95 240.55 54.91 240.72 55.38 L 239.56 55.34 C 239.36 55.95 238.96 57.16 238.76 57.76 C 237.73 59.12 236.71 60.49 235.72 61.88 C 237.02 61.04 238.34 60.22 239.67 59.40 C 242.10 57.58 241.65 52.90 244.67 52.06 C 242.84 56.03 241.87 60.36 239.71 64.17 L 238.29 64.44 C 238.65 63.74 239.38 62.35 239.74 61.66 C 239.78 61.46 239.87 61.06 239.91 60.86 L 239.47 61.16 L 239.74 61.66 L 238.48 61.72 C 237.41 63.39 234.54 66.67 233.27 63.32 C 234.31 61.59 234.91 59.65 235.70 57.81 Z" />
<path fill="#ffffff" opacity="1.00" d=" M 295.51 48.33 C 296.32 48.42 297.93 48.60 298.74 48.69 C 302.01 52.45 307.58 53.58 310.34 57.77 C 308.40 56.86 306.54 55.79 304.54 55.04 C 306.26 57.82 309.97 58.28 311.90 60.87 C 306.91 60.49 303.39 56.20 299.54 53.44 C 297.84 52.03 294.89 51.16 295.51 48.33 Z" />
<path fill="#ffffff" opacity="1.00" d=" M 199.95 47.67 C 200.95 49.84 204.65 51.43 202.99 54.25 C 202.08 53.78 201.20 53.25 200.37 52.66 C 200.71 50.97 200.57 49.31 199.95 47.67 Z" />
<path fill="#ffffff" opacity="1.00" d=" M 293.48 51.90 C 294.28 52.45 295.08 53.00 295.88 53.56 L 294.03 53.58 C 295.11 55.27 297.79 56.20 297.34 58.60 C 297.97 58.72 299.22 58.95 299.84 59.07 C 304.15 61.74 309.64 63.45 312.30 68.06 C 308.90 66.73 306.09 64.17 302.46 63.41 C 299.35 61.94 296.58 59.82 293.81 57.79 C 294.09 57.54 294.66 57.04 294.95 56.79 C 294.63 55.80 293.95 55.07 292.89 54.60 L 293.83 54.71 C 293.74 54.00 293.57 52.60 293.48 51.90 Z" />
<path fill="#ffffff" opacity="1.00" d=" M 227.34 53.32 C 227.65 53.63 227.65 53.63 227.34 53.32 Z" />
<path fill="#ffffff" opacity="1.00" d=" M 197.74 56.46 C 198.95 51.89 204.40 56.52 201.87 59.06 C 200.65 57.94 200.00 55.23 197.74 56.46 Z" />
<path fill="#ffffff" opacity="1.00" d=" M 244.29 58.65 C 245.23 57.09 246.09 54.70 248.28 54.81 C 247.30 56.36 246.35 58.43 244.29 58.65 Z" />
<path fill="#ffffff" opacity="1.00" d=" M 225.96 59.10 C 226.29 57.92 226.84 55.42 228.53 55.93 C 228.27 57.08 227.32 59.33 225.96 59.10 Z" />
<path fill="#ffffff" opacity="1.00" d=" M 283.41 56.01 C 287.22 56.88 289.53 60.87 293.50 61.61 L 293.41 62.37 C 294.63 62.53 295.75 62.97 296.76 63.70 C 295.93 63.64 294.27 63.53 293.44 63.47 C 293.42 63.81 293.37 64.48 293.34 64.82 C 292.76 62.62 290.74 61.86 288.58 62.03 C 289.19 62.80 290.42 64.34 291.03 65.11 C 290.06 64.67 288.12 63.79 287.15 63.35 C 287.86 64.28 289.26 66.13 289.96 67.06 C 287.75 67.19 285.94 65.83 284.00 65.00 C 281.32 63.84 278.55 62.86 276.07 61.28 C 278.86 60.62 280.88 62.97 283.46 63.43 C 282.22 61.90 280.67 60.68 279.20 59.39 C 281.08 59.79 282.93 60.22 284.80 60.77 C 283.06 59.42 281.20 57.85 283.41 56.01 Z" />
<path fill="#ffffff" opacity="1.00" d=" M 197.96 56.82 C 200.84 59.46 202.85 62.84 203.59 66.70 C 201.96 66.43 199.97 66.33 199.04 64.71 C 198.50 65.07 197.97 65.43 197.44 65.80 C 199.23 66.31 200.64 67.59 202.00 68.79 C 200.08 69.03 198.62 67.56 196.99 66.82 C 196.41 65.53 195.97 62.76 198.31 63.48 C 198.99 63.85 200.35 64.59 201.03 64.96 C 199.56 63.31 198.56 61.38 198.83 59.14 C 198.61 58.56 198.18 57.40 197.96 56.82 Z" />
<path fill="#ffffff" opacity="1.00" d=" M 257.25 57.58 C 257.84 57.62 259.03 57.72 259.62 57.77 C 260.14 59.98 258.09 64.32 261.06 64.88 C 260.96 62.66 260.99 60.43 261.26 58.22 C 262.60 59.30 262.42 61.05 262.75 62.54 C 263.22 62.47 264.16 62.34 264.63 62.28 C 264.78 64.25 266.10 65.86 267.70 66.93 C 267.41 66.00 266.83 64.15 266.54 63.22 L 267.90 63.28 L 268.05 64.83 L 269.81 64.25 C 269.43 65.08 268.67 66.75 268.29 67.59 C 268.86 67.61 269.99 67.66 270.56 67.69 C 270.38 66.92 270.02 65.39 269.84 64.63 C 270.93 65.81 272.01 65.91 273.08 64.91 C 270.57 65.04 271.55 62.19 271.15 60.74 C 271.71 62.04 272.27 63.35 272.81 64.66 C 273.22 64.33 274.05 63.69 274.47 63.36 C 274.62 64.44 274.76 65.52 274.91 66.60 C 272.39 69.21 276.36 71.19 277.79 73.05 C 277.56 74.35 277.31 75.65 277.03 76.94 C 275.28 77.22 274.96 74.20 273.86 73.11 C 274.65 73.33 276.24 73.78 277.03 74.01 C 276.19 72.18 274.92 71.36 273.24 71.55 L 273.57 70.30 C 273.37 70.28 272.99 70.22 272.80 70.20 C 272.71 70.83 272.52 72.09 272.43 72.72 L 274.32 71.93 L 273.23 73.78 C 274.79 77.63 277.86 80.52 280.43 83.69 C 281.04 83.78 282.24 83.97 282.84 84.06 L 281.88 85.84 L 283.68 85.17 L 284.11 85.99 C 284.22 86.33 284.46 87.02 284.58 87.36 C 284.82 87.79 285.29 88.65 285.53 89.08 C 285.94 88.16 286.35 87.22 286.98 86.42 L 287.58 87.99 L 288.73 87.57 C 289.07 88.30 289.77 89.76 290.11 90.49 C 289.44 90.41 288.08 90.26 287.41 90.18 L 287.25 91.19 C 288.95 91.45 290.30 92.53 291.72 93.39 C 291.25 93.92 290.30 94.97 289.83 95.49 C 290.37 95.07 291.47 94.22 292.01 93.80 C 296.04 97.12 300.75 100.36 303.09 105.11 C 301.91 104.20 299.56 102.38 298.38 101.47 C 299.90 103.44 301.06 105.79 302.82 107.59 C 304.55 107.20 304.16 105.23 304.69 103.98 C 305.08 104.70 305.85 106.16 306.24 106.88 C 306.58 106.14 306.91 105.39 307.25 104.65 C 306.95 103.88 306.36 102.36 306.06 101.60 C 304.84 101.59 303.63 101.60 302.42 101.61 C 300.17 99.50 297.84 97.45 296.09 94.90 C 294.25 93.72 292.36 92.64 290.45 91.58 L 290.93 90.83 L 291.41 90.09 C 292.43 91.14 293.96 92.27 295.12 90.82 C 290.22 89.76 287.31 84.84 282.59 83.55 C 281.99 83.11 280.78 82.23 280.18 81.78 C 280.49 80.50 280.87 79.23 281.32 77.99 C 283.41 78.30 285.09 79.59 286.72 80.81 C 284.42 78.45 281.23 77.51 278.36 76.08 C 277.90 75.23 278.37 74.63 279.78 74.28 C 279.01 73.48 277.06 72.00 278.64 71.09 C 279.84 71.75 280.81 72.84 282.09 73.39 C 281.37 71.73 279.83 70.73 278.40 69.74 C 278.19 69.10 277.99 68.45 277.79 67.80 C 277.68 68.96 277.13 69.74 276.13 70.14 C 276.71 68.49 276.79 66.81 276.36 65.08 C 277.00 65.85 278.26 67.38 278.90 68.14 L 278.33 64.76 C 279.06 65.44 279.77 66.14 280.46 66.87 L 281.95 66.00 C 282.17 66.63 282.61 67.90 282.83 68.53 C 284.43 66.59 286.14 67.45 287.12 69.35 L 285.36 70.96 L 287.76 70.38 L 289.19 70.81 L 289.01 68.90 C 291.09 70.30 293.08 71.83 295.21 73.16 C 296.88 73.58 298.75 73.07 300.20 74.39 C 299.35 74.29 297.66 74.09 296.81 74.00 C 297.16 74.43 297.86 75.30 298.21 75.73 C 301.50 74.79 304.72 77.08 307.91 77.75 L 307.33 79.23 C 309.80 83.26 304.03 78.31 305.44 81.43 C 307.97 82.42 311.34 81.92 313.17 84.29 C 312.31 84.40 310.58 84.62 309.72 84.73 C 311.22 84.97 312.47 85.65 313.46 86.78 C 312.78 86.69 311.41 86.51 310.73 86.43 C 309.72 85.45 308.64 84.53 307.26 84.16 C 305.52 83.11 303.84 81.97 302.00 81.11 C 304.03 83.22 306.61 84.64 309.21 85.92 C 309.28 86.33 309.42 87.15 309.49 87.56 C 310.95 87.52 312.36 87.92 313.74 88.39 C 312.82 89.49 310.09 90.13 311.91 92.00 C 310.58 91.52 308.90 91.95 307.77 91.05 C 307.71 90.28 307.60 88.74 307.54 87.97 L 309.12 89.57 C 309.67 89.67 310.78 89.87 311.34 89.97 L 311.52 88.70 C 309.27 88.52 306.85 87.86 305.43 85.95 L 305.39 89.18 C 304.41 88.41 303.80 87.19 304.98 86.28 C 304.72 85.97 304.22 85.35 303.97 85.04 C 303.00 86.39 301.85 87.59 300.76 88.84 L 304.33 85.64 L 302.69 90.21 C 302.88 89.73 303.27 88.77 303.46 88.29 C 304.17 89.21 307.84 89.87 306.36 91.19 L 305.51 91.37 L 305.19 92.02 L 306.19 91.62 C 307.07 92.51 307.85 93.48 308.53 94.53 C 304.19 93.53 301.36 89.56 297.15 88.25 C 299.79 90.89 302.96 92.90 306.01 95.03 C 307.81 96.34 310.16 97.13 311.19 99.25 C 310.34 99.14 308.65 98.91 307.80 98.79 C 309.64 100.97 312.94 101.55 314.32 104.15 C 311.96 103.64 309.98 102.08 307.57 101.71 C 307.70 104.85 311.83 104.49 313.46 106.54 C 315.23 107.88 313.44 111.69 316.32 111.99 C 316.45 113.35 316.62 114.71 316.82 116.07 C 313.50 115.61 311.69 112.58 311.59 109.46 C 310.18 109.61 309.32 108.97 308.99 107.53 C 307.56 107.59 306.12 107.62 304.69 107.63 C 303.84 108.12 302.99 108.61 302.14 109.10 C 298.69 106.81 296.45 103.29 293.42 100.55 L 293.57 103.31 C 296.01 103.26 298.45 106.93 295.75 108.83 C 296.47 108.04 297.07 107.16 297.55 106.20 C 298.17 107.34 298.95 108.36 299.91 109.25 C 300.15 109.73 300.65 110.70 300.89 111.18 C 300.44 110.79 299.54 110.00 299.09 109.61 C 298.38 110.05 297.68 110.50 296.98 110.95 C 300.95 113.55 305.28 115.87 310.00 116.73 C 310.17 117.16 310.51 118.01 310.68 118.44 C 308.04 117.58 307.15 121.03 304.86 121.30 C 303.05 120.77 305.16 119.05 305.57 118.16 C 304.18 118.32 303.59 119.70 302.78 120.65 C 301.60 120.99 300.31 120.57 299.12 120.61 C 298.82 120.78 298.23 121.11 297.93 121.27 C 299.76 121.81 303.24 121.15 303.70 123.51 C 305.86 122.17 307.37 119.34 310.14 119.51 C 310.78 118.58 311.66 117.93 312.85 117.98 C 313.02 119.47 312.42 120.97 311.06 121.69 C 311.97 121.70 313.79 121.73 314.70 121.75 C 314.81 121.46 315.01 120.88 315.11 120.58 C 316.51 122.26 320.38 121.85 320.16 124.63 C 316.29 122.96 312.00 125.28 308.33 123.68 C 306.71 125.51 303.87 126.27 303.36 128.93 C 302.00 129.29 300.65 129.67 299.49 130.49 C 300.12 130.53 301.39 130.61 302.03 130.65 C 300.52 133.55 298.96 136.86 301.01 139.91 C 300.63 140.35 299.89 141.24 299.51 141.68 C 301.16 145.68 304.96 148.12 307.21 151.73 C 306.24 151.76 304.31 151.82 303.34 151.84 L 302.89 150.24 C 302.20 151.29 301.45 152.42 301.58 153.76 C 298.48 154.01 298.13 151.43 298.60 149.04 C 296.22 149.77 298.54 152.78 298.48 154.34 C 296.16 153.70 295.80 150.99 295.81 148.98 C 295.39 149.52 294.54 150.59 294.12 151.13 C 294.65 149.32 294.49 147.94 292.33 148.04 C 291.70 150.15 293.58 153.28 291.39 154.68 C 291.57 156.53 291.49 158.40 291.30 160.26 C 289.10 160.69 291.70 164.57 289.71 164.36 C 288.38 161.99 289.51 158.94 287.98 156.70 C 287.30 159.02 288.40 162.07 286.73 163.99 L 286.74 162.31 C 285.97 162.49 284.44 162.84 283.67 163.02 C 283.50 161.94 283.16 159.80 282.99 158.72 C 282.83 160.44 282.25 161.98 281.27 163.35 C 279.79 163.06 278.73 163.81 278.01 165.04 C 278.18 164.48 278.54 163.36 278.72 162.80 C 275.73 161.91 278.70 159.42 279.87 158.39 C 280.43 158.50 281.57 158.71 282.13 158.81 C 281.75 157.60 279.93 154.51 279.22 157.23 C 278.34 158.12 278.10 160.17 276.44 159.75 C 276.20 161.13 276.45 162.71 275.60 163.91 C 275.39 162.37 274.61 161.55 273.25 161.45 C 275.04 156.72 275.35 151.25 278.38 147.12 C 277.79 147.00 276.61 146.76 276.03 146.64 L 276.04 145.59 L 278.86 143.52 L 277.03 143.53 C 276.10 143.47 274.25 143.34 273.33 143.28 C 273.91 141.69 275.31 140.93 276.89 140.71 C 278.93 139.48 277.03 137.63 276.52 136.12 C 275.87 137.58 273.99 141.35 272.59 137.79 C 272.58 138.41 272.56 139.65 272.55 140.27 C 270.87 140.58 270.29 142.59 268.50 142.76 C 268.70 141.56 268.61 140.38 268.24 139.23 C 268.75 138.37 269.78 136.65 270.29 135.79 C 270.62 136.72 270.95 137.66 271.29 138.59 C 272.46 137.31 272.96 135.91 272.79 134.39 C 273.24 133.88 274.15 132.85 274.61 132.34 C 274.15 132.85 273.24 133.88 272.79 134.39 L 271.95 136.40 C 271.43 135.93 270.92 135.47 270.42 135.00 C 272.80 132.71 273.55 129.33 275.82 126.96 C 274.11 127.46 273.60 129.33 272.65 130.60 C 272.29 130.25 271.57 129.55 271.21 129.20 C 270.51 130.25 269.96 131.38 269.35 132.48 C 269.72 133.42 269.91 134.40 269.94 135.41 C 268.29 137.19 267.45 139.59 265.61 141.20 C 265.54 140.60 265.40 139.41 265.32 138.81 L 265.30 140.15 C 264.33 140.91 263.41 141.78 262.20 142.13 C 262.82 140.58 264.56 139.23 263.79 137.40 L 264.72 138.33 C 265.03 137.45 265.63 135.71 265.94 134.83 C 267.10 135.78 268.23 135.47 269.21 134.38 C 268.45 134.42 266.93 134.48 266.17 134.52 C 267.90 132.24 269.23 129.68 271.00 127.43 C 270.69 126.80 270.38 126.18 270.08 125.56 C 272.18 122.86 274.08 120.02 276.42 117.51 C 276.22 120.75 273.73 122.85 272.10 125.37 C 275.33 123.44 276.31 119.43 279.21 117.17 C 278.94 116.44 278.66 115.71 278.39 114.99 L 276.30 116.47 C 276.86 115.92 277.98 114.80 278.54 114.25 L 277.89 113.47 L 278.63 113.55 C 279.04 114.34 279.44 115.12 279.84 115.92 C 280.72 113.81 281.88 111.85 282.78 109.76 C 283.87 107.51 282.37 104.62 284.51 102.82 C 286.40 105.40 284.76 109.54 284.66 112.67 C 284.19 112.20 283.71 111.74 283.21 111.30 C 281.84 113.50 280.65 115.80 279.30 118.01 L 278.96 118.49 L 279.32 118.96 L 279.76 118.53 L 279.30 118.01 L 280.54 118.41 C 281.00 117.56 281.92 115.85 282.39 115.00 C 282.71 115.52 283.35 116.57 283.68 117.09 C 285.00 115.18 287.44 115.11 289.36 114.19 C 289.72 114.54 290.44 115.25 290.80 115.60 C 291.01 115.45 291.43 115.16 291.64 115.01 C 290.30 114.46 289.38 113.36 288.47 112.29 C 289.40 111.43 290.31 110.55 291.19 109.65 L 292.10 109.35 C 292.10 112.55 295.60 112.58 297.74 113.76 C 295.42 112.62 295.30 110.26 294.78 108.06 C 294.67 109.07 294.43 111.11 294.31 112.12 C 292.58 110.26 293.69 107.81 293.86 105.68 C 293.12 106.86 292.40 108.05 291.69 109.24 C 291.89 106.29 290.61 103.63 289.53 100.99 C 289.64 101.68 289.86 103.07 289.97 103.76 L 287.68 103.73 C 287.70 103.01 287.75 101.57 287.77 100.85 C 287.63 101.51 287.36 102.84 287.22 103.50 C 285.89 104.45 285.63 101.93 284.99 101.22 C 284.44 101.87 283.35 103.15 282.81 103.79 C 282.33 103.11 281.86 102.43 281.40 101.75 C 281.51 100.41 281.61 99.07 281.71 97.73 C 281.35 98.94 280.99 100.16 280.64 101.38 C 278.11 103.59 277.77 107.16 277.25 110.27 C 280.12 108.86 279.86 105.11 281.10 102.62 C 281.96 104.18 282.47 105.90 282.62 107.68 C 281.35 109.67 280.27 111.81 278.63 113.55 C 278.95 112.70 279.59 111.00 279.90 110.15 C 276.53 110.25 277.61 116.24 273.94 115.45 C 274.16 116.02 274.60 117.17 274.81 117.74 C 273.08 116.60 272.39 117.62 272.13 119.30 C 269.89 121.90 267.97 124.78 266.62 127.95 L 266.11 127.67 L 265.84 128.22 C 266.04 128.15 266.43 128.02 266.62 127.95 C 267.24 127.74 268.46 127.33 269.07 127.12 C 265.76 130.33 263.25 134.25 260.82 138.15 C 261.64 137.57 263.27 136.42 264.09 135.85 C 264.02 136.24 263.87 137.01 263.79 137.40 C 263.51 137.72 262.94 138.38 262.66 138.71 L 261.15 138.36 C 261.31 138.87 261.62 139.90 261.78 140.41 L 260.56 140.40 C 259.85 142.04 259.68 144.00 258.38 145.33 C 256.82 146.86 256.76 149.28 255.01 150.67 C 255.51 150.73 256.51 150.84 257.01 150.90 L 257.72 151.27 C 257.33 151.88 256.56 153.09 256.18 153.70 C 256.70 153.13 257.76 152.00 258.29 151.43 C 259.94 154.55 256.41 158.02 254.30 159.98 C 254.38 159.30 254.55 157.96 254.63 157.29 C 253.20 158.55 251.60 159.66 250.05 160.76 C 250.76 158.53 252.22 156.76 253.76 155.08 C 252.76 155.53 251.79 156.03 250.84 156.58 C 250.80 155.93 250.70 154.64 250.65 153.99 C 249.07 155.50 247.62 157.13 246.11 158.72 C 246.13 156.41 248.30 154.98 249.16 152.98 C 246.82 154.40 245.85 157.54 243.08 158.22 C 243.81 153.96 248.49 151.44 250.37 147.78 C 251.59 147.68 252.82 147.59 254.05 147.54 C 253.68 147.17 252.93 146.45 252.56 146.08 C 254.23 145.76 255.08 144.70 255.11 142.90 C 253.21 144.76 251.07 146.40 249.51 148.59 C 247.33 151.53 244.17 153.51 241.88 156.36 C 241.10 156.47 239.53 156.70 238.74 156.82 C 238.53 156.18 238.11 154.90 237.90 154.27 C 240.04 152.00 242.17 149.70 244.30 147.41 C 244.38 146.87 244.53 145.78 244.60 145.23 C 245.81 144.40 247.05 143.61 248.33 142.88 C 247.92 142.44 247.51 142.00 247.10 141.57 C 246.38 143.21 245.03 144.33 243.58 145.29 C 243.76 145.71 244.12 146.55 244.30 146.98 C 241.49 149.67 238.95 153.14 234.85 153.79 C 233.49 152.45 232.67 150.21 230.48 150.10 L 230.84 148.27 C 232.31 148.45 233.79 148.57 235.27 148.67 C 235.30 146.70 237.53 145.80 238.63 144.39 C 238.65 144.10 238.70 143.52 238.73 143.23 C 237.32 145.08 235.84 147.04 233.60 147.91 C 231.63 147.70 233.48 145.35 233.85 144.38 C 232.83 145.20 230.92 146.04 231.72 147.71 C 230.55 147.49 229.56 147.86 228.75 148.83 C 229.04 149.32 229.62 150.31 229.91 150.80 C 228.98 151.95 228.05 153.09 227.15 154.26 C 228.80 153.53 230.22 152.46 231.43 151.05 C 232.35 152.85 230.51 154.34 230.02 155.95 C 231.19 155.01 232.33 154.02 233.60 153.19 C 233.87 155.59 231.11 156.56 229.76 158.08 C 229.31 157.89 228.40 157.53 227.95 157.35 C 223.82 158.88 222.23 163.82 218.08 165.12 C 218.75 163.78 221.84 162.76 220.03 161.11 C 217.92 161.90 216.85 164.30 216.26 166.34 C 215.30 166.70 214.66 167.36 214.32 168.31 C 213.06 168.75 211.93 169.40 210.91 170.27 C 210.63 170.24 210.06 170.18 209.77 170.15 C 210.12 168.41 211.87 167.50 213.06 166.36 C 212.41 166.40 211.12 166.48 210.47 166.52 L 211.30 167.65 C 209.23 167.92 208.28 170.13 206.28 170.64 C 203.05 171.81 200.52 174.73 196.95 174.92 C 197.92 174.02 198.92 173.14 199.94 172.30 C 199.30 172.14 198.03 171.83 197.39 171.67 C 199.17 170.15 201.01 168.68 203.01 167.44 C 202.77 167.01 202.28 166.15 202.04 165.73 C 202.52 165.27 203.50 164.37 203.99 163.92 C 201.93 164.09 200.13 168.10 198.59 165.38 C 196.79 166.96 194.33 167.38 192.28 168.56 C 192.63 167.33 193.78 166.70 194.66 165.88 C 197.94 161.64 203.02 159.31 207.18 156.03 C 207.83 156.22 209.13 156.61 209.78 156.81 C 210.77 156.05 210.71 154.96 209.57 154.34 C 210.31 154.09 211.77 153.59 212.50 153.34 C 212.65 151.38 214.53 152.64 215.64 152.76 C 216.77 152.10 217.92 151.46 219.10 150.89 C 218.67 153.04 216.28 153.48 214.65 154.42 C 214.48 156.36 212.67 157.16 211.32 158.23 C 211.95 159.05 212.54 159.91 213.08 160.80 C 210.54 159.61 208.93 162.18 207.21 163.44 C 206.06 163.95 206.31 165.00 207.21 165.62 C 205.81 166.64 204.42 167.66 202.94 168.54 C 202.81 169.06 202.53 170.08 202.40 170.59 C 205.18 168.07 208.25 165.88 211.31 163.70 C 211.02 163.30 210.45 162.49 210.16 162.09 C 211.09 161.71 212.06 161.53 213.09 161.55 C 214.11 160.81 215.24 160.38 216.46 160.29 C 214.80 161.68 211.30 161.83 212.13 164.92 C 214.23 163.39 216.34 161.87 218.43 160.33 L 217.36 160.11 C 219.26 159.43 221.19 158.74 223.23 158.57 C 224.93 157.07 226.60 155.54 228.17 153.91 C 226.44 154.74 224.89 155.85 223.54 157.24 C 223.41 156.37 223.15 154.64 223.02 153.78 C 224.26 152.46 225.56 151.19 226.81 149.88 C 223.64 152.51 220.17 154.74 216.93 157.27 L 216.88 157.85 C 215.55 158.49 214.27 159.20 213.02 159.99 C 212.29 156.22 216.30 156.32 218.16 154.21 C 221.43 151.01 225.93 149.44 228.99 146.03 C 233.73 141.68 239.54 138.70 243.82 133.82 L 243.34 136.70 C 244.45 135.32 245.62 133.98 246.68 132.55 L 245.41 132.35 C 247.95 129.87 250.61 127.27 252.10 124.02 C 249.45 125.76 248.25 129.81 244.81 130.03 C 245.64 128.45 247.10 127.26 247.66 125.53 C 246.42 126.46 245.40 127.67 244.07 128.46 C 242.84 127.81 241.77 127.98 240.85 128.99 C 241.69 127.49 243.39 124.48 244.23 122.97 C 241.58 125.04 239.70 128.03 236.76 129.75 C 237.29 126.92 240.48 125.74 241.58 123.15 C 238.80 124.09 237.23 126.76 235.16 128.66 C 238.72 130.24 233.50 131.96 232.86 133.86 C 234.88 132.60 236.36 130.25 238.90 130.05 C 236.81 133.43 233.56 135.80 230.69 138.47 L 230.53 139.80 L 229.15 139.40 C 229.18 139.67 229.24 140.19 229.27 140.45 C 230.71 139.89 231.58 141.18 232.58 141.87 C 231.77 142.25 230.14 143.01 229.33 143.39 L 230.92 140.79 C 225.47 142.54 222.94 149.05 217.01 150.11 C 218.93 145.46 224.84 144.55 227.12 140.29 L 225.26 140.64 C 225.12 140.06 224.86 138.92 224.73 138.35 L 225.02 140.97 C 223.53 140.38 222.07 140.45 220.64 141.17 C 221.59 141.69 222.54 142.22 223.47 142.78 C 221.12 143.46 219.45 145.37 217.20 146.23 C 215.33 146.30 213.48 146.47 211.73 147.18 C 213.98 144.19 218.12 143.20 219.96 139.88 C 217.30 140.90 215.26 143.05 212.54 143.97 L 212.99 142.12 L 212.02 142.02 L 212.56 143.31 C 209.59 146.13 205.00 147.14 203.10 150.95 C 198.49 154.02 194.17 157.57 189.27 160.18 L 189.98 158.72 L 195.28 154.02 C 192.74 155.53 190.23 157.06 187.77 158.61 C 188.53 156.47 190.74 155.42 192.26 153.90 L 193.35 154.41 L 193.76 152.04 C 191.37 153.69 189.06 156.28 186.06 156.54 C 186.23 154.65 186.34 152.74 186.78 150.89 C 182.89 154.90 183.39 149.26 183.87 147.35 L 182.30 147.55 C 182.42 147.04 182.68 146.02 182.80 145.51 C 183.40 146.56 184.29 147.53 184.23 148.84 L 184.73 148.84 C 184.58 148.24 184.30 147.02 184.16 146.41 C 187.07 147.09 188.66 143.35 191.71 143.77 C 189.23 141.84 187.21 145.08 185.30 146.30 C 184.69 145.93 184.08 145.54 183.48 145.16 C 186.09 145.18 186.53 142.09 188.82 141.41 C 189.57 141.90 191.07 142.88 191.82 143.37 L 191.39 140.48 C 191.90 141.29 192.41 142.11 192.91 142.93 C 194.14 142.07 195.39 141.22 196.59 140.32 L 196.25 142.19 L 198.06 141.49 C 198.14 139.17 200.59 138.83 202.13 137.85 C 201.64 137.10 200.76 136.78 200.06 136.29 C 204.85 132.84 209.99 129.95 215.07 126.96 L 215.27 127.89 C 214.19 128.45 213.11 129.00 212.04 129.55 C 211.86 130.10 211.51 131.22 211.33 131.77 C 218.31 127.42 224.66 122.24 230.87 116.87 C 230.77 118.16 230.93 121.95 228.62 120.33 L 227.94 123.17 C 229.44 122.27 230.97 121.28 232.76 121.12 C 232.38 118.28 233.24 115.47 235.95 114.17 C 235.06 114.45 233.29 115.00 232.41 115.28 C 233.35 112.39 236.92 113.29 238.56 111.17 C 239.53 111.66 240.50 112.15 241.47 112.65 L 241.50 110.87 C 243.25 112.21 244.93 113.63 246.63 115.02 C 244.76 116.12 246.56 118.51 244.43 119.60 C 244.63 119.69 245.03 119.89 245.24 119.98 L 245.79 118.42 C 246.34 118.93 246.89 119.44 247.44 119.97 C 247.93 119.63 248.91 118.95 249.40 118.61 C 248.12 118.07 247.55 116.84 247.15 115.60 C 249.22 118.19 252.36 116.94 255.06 116.74 C 254.72 116.25 254.03 115.26 253.69 114.77 C 250.30 115.58 246.74 113.35 245.00 110.49 C 246.08 109.88 247.16 109.26 248.23 108.63 C 249.12 110.08 249.73 111.76 250.98 112.97 C 253.30 113.65 255.41 112.19 257.11 110.81 C 257.56 112.02 258.04 113.22 258.52 114.43 C 257.41 114.56 255.21 114.81 254.11 114.94 C 255.04 115.87 256.64 116.57 256.58 118.12 C 256.00 118.23 254.84 118.43 254.26 118.54 L 254.94 120.06 L 253.66 119.55 L 254.03 121.45 C 252.65 121.31 251.30 121.67 250.27 122.61 C 252.16 121.38 256.68 124.07 253.79 119.60 L 256.10 121.01 L 254.66 118.76 C 258.10 121.96 256.91 116.08 259.70 116.27 C 259.59 116.99 259.36 118.43 259.25 119.15 C 260.08 118.19 260.89 117.22 261.68 116.23 C 264.65 119.13 260.72 122.37 258.63 124.26 L 259.47 119.96 C 258.77 121.45 257.67 122.80 257.39 124.45 C 256.88 124.64 255.86 125.01 255.36 125.20 C 255.81 125.38 256.71 125.74 257.16 125.92 C 256.52 129.75 252.52 132.85 249.87 135.13 C 250.82 133.39 252.72 129.90 253.67 128.15 C 251.93 130.69 249.06 133.21 246.04 133.56 C 246.69 134.32 247.36 135.08 248.03 135.85 C 245.58 136.18 246.82 138.81 245.77 140.24 C 245.28 139.88 244.30 139.17 243.81 138.81 C 244.62 137.93 245.33 136.97 245.94 135.93 C 243.22 137.32 239.50 139.77 239.47 143.13 C 240.66 142.20 241.59 141.01 242.54 139.86 C 242.44 140.93 242.23 143.07 242.12 144.13 C 246.15 141.02 249.84 137.54 253.39 133.89 C 252.06 136.59 250.19 138.94 248.54 141.44 C 249.39 140.80 251.09 139.53 251.94 138.90 L 252.46 139.81 C 252.96 139.51 253.95 138.91 254.44 138.62 C 255.73 135.55 257.79 132.81 260.09 130.42 L 260.02 131.85 C 259.53 132.64 258.55 134.22 258.06 135.01 C 261.09 133.39 261.87 129.70 264.29 127.43 C 267.60 124.24 269.79 120.15 272.52 116.49 L 273.71 116.83 C 273.44 113.68 273.06 110.43 274.37 107.44 C 272.33 108.17 272.43 110.86 270.57 111.77 C 271.50 112.92 272.49 114.16 270.88 115.31 C 270.18 114.70 269.47 114.10 268.75 113.52 L 268.11 114.84 C 268.97 112.87 269.47 110.78 270.07 108.72 C 268.57 110.10 267.21 111.61 265.71 112.98 L 266.15 110.88 L 264.19 111.67 L 263.80 109.44 C 264.93 110.95 266.38 111.15 267.31 109.28 C 269.38 106.68 271.61 104.21 273.69 101.62 C 274.19 99.09 274.71 96.53 274.73 93.93 C 273.75 96.51 272.94 99.16 271.79 101.68 C 271.28 102.17 270.25 103.16 269.73 103.65 C 269.00 103.56 267.53 103.37 266.79 103.28 C 267.02 102.79 267.47 101.80 267.70 101.31 C 267.14 101.18 266.02 100.93 265.46 100.80 C 266.84 98.86 266.83 96.59 266.90 94.33 C 267.93 92.59 268.82 90.78 268.69 88.70 C 270.81 85.91 268.92 82.14 269.28 78.95 L 267.67 80.30 L 266.88 83.00 L 268.86 82.20 C 267.94 85.03 267.64 87.99 267.27 90.93 C 266.30 92.38 265.41 93.87 264.51 95.35 C 265.53 95.75 266.08 96.45 266.15 97.45 C 265.29 98.72 264.38 99.95 263.43 101.15 C 263.94 101.55 264.46 101.95 264.98 102.35 L 265.46 100.80 L 266.43 101.42 C 266.00 102.09 265.14 103.44 264.70 104.12 C 263.66 103.18 262.47 103.19 261.14 104.16 L 261.16 102.30 C 260.46 102.35 259.08 102.46 258.38 102.51 C 259.12 101.22 260.19 100.17 261.19 99.07 C 260.64 99.09 259.55 99.13 259.00 99.15 C 260.03 97.74 261.14 96.37 261.79 94.73 C 262.32 94.42 263.38 93.79 263.91 93.48 C 263.25 93.48 261.95 93.49 261.29 93.49 C 261.38 93.19 261.54 92.59 261.62 92.29 C 261.42 92.32 261.01 92.38 260.81 92.41 C 260.96 93.12 261.26 94.52 261.41 95.22 C 259.29 94.92 255.46 92.14 258.27 90.11 L 257.14 90.88 C 257.24 90.39 257.46 89.40 257.57 88.91 C 256.32 88.32 254.11 88.54 253.77 86.85 C 254.24 86.70 255.18 86.38 255.64 86.23 C 254.61 85.24 252.36 84.79 252.85 82.95 C 253.26 82.94 254.09 82.91 254.51 82.89 C 256.36 84.79 258.48 86.40 260.67 87.89 C 258.28 85.72 256.72 82.67 253.75 81.15 L 252.02 82.08 C 253.49 79.71 250.15 78.68 248.95 77.17 C 249.42 79.20 252.79 79.71 251.14 82.09 L 250.61 82.69 C 248.18 81.37 245.59 80.34 243.52 78.45 C 242.54 77.41 241.13 77.35 239.81 77.34 C 239.68 76.44 239.42 74.64 239.29 73.73 L 242.11 75.55 C 240.67 72.59 237.17 71.23 236.10 68.05 C 238.66 69.01 239.97 71.73 242.49 72.80 C 240.95 70.53 239.09 68.44 238.07 65.86 C 241.12 67.07 241.93 70.91 244.96 72.20 C 243.90 70.13 242.44 68.30 241.14 66.38 C 242.21 66.46 244.36 66.63 245.43 66.71 C 245.03 66.05 244.23 64.73 243.82 64.07 L 245.82 64.58 C 245.68 63.72 245.41 62.00 245.27 61.13 C 245.61 61.17 246.30 61.24 246.64 61.27 C 246.60 62.02 246.51 63.51 246.47 64.25 C 248.69 64.36 248.30 67.18 249.92 68.15 C 249.69 65.87 248.36 63.86 248.33 61.53 C 249.47 63.01 250.28 64.80 251.76 66.00 C 251.69 63.67 251.39 61.36 251.30 59.04 C 251.62 59.14 252.25 59.33 252.57 59.43 C 252.86 61.94 252.98 64.46 253.29 66.96 L 253.87 66.88 C 253.76 64.59 253.13 62.14 254.48 60.07 C 255.08 62.55 255.82 65.00 257.02 67.27 C 257.28 64.05 257.20 60.81 257.25 57.58 M 262.14 66.38 C 261.61 67.79 261.97 68.81 263.21 69.44 C 263.66 68.05 263.31 67.03 262.14 66.38 M 255.17 68.12 C 256.09 70.20 256.50 73.18 258.90 74.05 C 257.90 71.95 257.09 69.57 255.17 68.12 M 276.11 80.98 C 275.52 82.09 277.11 84.06 278.18 83.04 C 277.66 82.53 276.63 81.49 276.11 80.98 C 275.43 80.19 275.43 80.19 276.11 80.98 M 277.38 85.19 C 278.16 85.77 279.71 86.94 280.49 87.52 L 278.04 86.79 C 278.46 88.54 279.99 90.31 279.23 92.16 C 278.25 91.37 277.28 90.58 276.32 89.78 L 275.82 94.29 C 276.45 93.95 277.72 93.26 278.35 92.92 C 277.60 95.53 279.61 99.92 276.00 100.89 L 276.44 101.58 C 275.21 102.84 274.18 104.28 273.23 105.76 C 273.87 106.44 274.51 107.12 275.16 107.80 C 275.00 104.69 276.67 101.89 279.12 100.11 C 279.99 97.61 279.35 94.83 279.41 92.23 L 281.33 92.48 L 281.27 94.10 C 281.56 94.29 282.13 94.67 282.42 94.86 C 282.58 96.29 282.90 97.70 283.50 99.03 C 284.33 94.94 282.11 91.49 280.92 87.81 C 282.11 88.30 282.75 89.17 282.84 90.40 C 283.83 91.05 284.86 91.64 285.98 92.05 C 285.88 91.67 285.69 90.89 285.59 90.51 C 283.08 88.50 281.16 85.93 279.07 83.52 C 278.50 84.07 277.93 84.63 277.38 85.19 M 281.68 119.31 C 280.68 120.36 280.68 120.36 281.68 119.31 C 282.61 118.29 282.61 118.29 281.68 119.31 M 225.67 125.71 L 223.46 125.64 C 224.31 126.00 225.15 126.38 226.00 126.75 C 223.79 127.26 222.55 129.16 221.11 130.68 C 224.82 128.48 228.27 125.90 231.63 123.20 C 231.05 124.23 229.89 126.30 229.31 127.34 C 230.48 126.15 231.87 125.69 233.47 125.95 L 233.13 127.26 C 230.34 129.51 227.47 131.66 224.80 134.07 C 223.91 135.33 222.33 134.66 221.09 134.73 C 221.25 134.10 221.55 132.86 221.70 132.23 C 217.77 133.76 213.85 135.34 210.16 137.52 C 211.39 134.48 215.15 133.85 216.91 131.20 C 213.88 132.48 211.38 134.68 208.51 136.23 C 205.28 137.14 202.60 139.23 199.58 140.63 C 198.81 141.26 198.57 143.20 197.25 142.60 C 194.94 141.78 192.69 143.48 191.53 145.36 C 192.92 144.82 194.31 144.29 195.71 143.76 C 193.12 146.17 190.69 148.97 187.25 150.19 C 187.86 150.57 188.47 150.95 189.08 151.33 C 191.25 149.62 193.62 148.18 195.90 146.62 C 201.42 146.37 204.87 141.08 210.08 140.16 C 209.95 140.43 209.68 140.96 209.55 141.23 C 205.47 143.66 201.71 146.53 197.86 149.27 L 199.51 151.22 C 197.66 148.90 195.82 150.98 194.12 151.73 C 195.37 151.73 196.62 151.53 197.84 151.24 C 198.37 151.47 199.44 151.92 199.98 152.14 L 199.03 149.96 L 201.06 151.06 C 201.71 150.14 201.54 149.25 200.80 148.49 C 202.92 147.43 204.73 145.68 207.13 145.26 C 208.26 144.98 209.97 144.46 209.86 142.98 C 209.43 141.46 212.44 141.74 211.59 140.24 C 211.10 139.46 211.68 138.21 212.69 138.60 C 216.11 139.35 219.03 136.67 221.66 134.92 C 221.61 135.72 221.50 137.32 221.45 138.12 C 222.28 137.52 222.66 136.68 222.59 135.61 C 225.94 136.49 227.18 129.43 230.24 133.05 C 228.85 134.44 227.33 135.85 225.32 136.21 C 226.12 136.67 226.89 137.20 227.72 137.63 C 228.76 136.24 230.87 135.19 230.32 133.17 C 230.93 131.85 234.05 130.62 231.57 129.41 C 233.52 128.12 235.34 126.63 236.97 124.94 L 235.15 124.73 L 235.69 123.33 C 233.90 124.23 232.83 123.77 232.49 121.95 C 230.04 122.47 228.32 124.72 226.40 126.14 C 226.46 124.77 226.45 123.41 226.38 122.05 C 226.08 123.25 225.62 124.44 225.67 125.71 M 208.97 131.75 C 207.35 133.61 204.48 134.09 203.49 136.54 C 206.00 135.66 207.85 133.57 210.41 132.81 C 209.93 132.45 209.45 132.10 208.97 131.75 M 275.20 133.89 C 275.84 134.57 275.84 134.57 275.20 133.89 M 255.93 136.62 C 255.50 137.38 254.63 138.91 254.20 139.67 C 255.71 139.45 257.21 139.55 258.69 139.97 C 258.12 140.00 256.99 140.06 256.43 140.09 C 256.06 140.63 255.31 141.70 254.94 142.24 C 255.40 142.29 256.33 142.37 256.80 142.42 L 256.41 144.13 C 257.88 143.60 258.60 142.27 259.54 141.14 C 259.49 140.74 259.41 139.94 259.36 139.54 L 260.70 139.40 L 260.27 137.07 C 258.90 139.79 257.27 138.05 255.93 136.62 M 270.15 139.18 C 270.79 139.73 270.79 139.73 270.15 139.18 M 251.86 140.12 C 251.13 141.69 248.94 142.91 249.71 144.88 L 248.41 144.42 C 248.38 145.18 248.31 146.69 248.28 147.45 C 249.70 145.39 252.77 143.79 252.11 140.93 L 253.36 141.69 L 253.90 140.17 C 253.22 140.15 252.53 140.13 251.86 140.12 M 281.30 146.84 L 280.65 144.89 C 278.19 145.48 278.26 149.03 278.39 151.08 C 279.39 150.12 280.23 149.03 280.90 147.82 C 280.83 148.88 280.69 150.99 280.62 152.05 C 281.28 150.04 282.51 149.27 284.30 149.75 C 281.45 147.19 283.49 143.97 284.18 141.02 C 281.94 142.23 283.47 145.77 281.30 146.84 M 297.08 141.88 C 297.24 143.27 297.61 144.63 298.13 145.94 C 297.86 146.41 297.30 147.35 297.03 147.82 C 297.50 147.44 298.44 146.70 298.91 146.32 C 299.12 147.36 299.55 149.44 299.76 150.47 C 300.38 150.05 301.01 149.63 301.64 149.22 C 300.55 148.17 299.86 146.92 299.57 145.45 C 298.76 144.24 297.97 143.03 297.08 141.88 M 191.53 145.36 C 190.95 145.93 190.95 145.93 191.53 145.36 M 285.08 150.51 C 285.91 149.07 285.13 147.11 284.79 145.59 C 283.68 146.63 284.08 149.36 285.08 150.51 M 294.81 146.24 C 293.05 149.06 298.15 146.60 294.81 146.24 M 287.36 145.87 C 287.43 147.47 287.52 149.07 287.63 150.68 L 285.73 149.90 C 286.76 151.15 286.96 152.56 286.33 154.13 C 286.95 153.55 288.19 152.40 288.80 151.82 C 288.97 152.65 289.29 154.31 289.45 155.13 C 289.28 153.31 289.07 151.32 291.69 152.77 C 291.66 151.54 291.61 149.07 291.58 147.83 C 291.03 148.07 289.93 148.55 289.38 148.79 C 289.23 148.23 288.95 147.11 288.81 146.54 L 287.36 145.87 M 286.06 159.70 C 287.21 158.62 287.17 157.53 285.96 156.42 C 284.79 157.53 284.83 158.63 286.06 159.70 M 221.24 160.50 C 221.54 160.76 221.54 160.76 221.24 160.50 M 205.21 162.31 C 205.80 162.91 205.80 162.91 205.21 162.31 M 201.23 170.47 C 201.59 170.77 201.59 170.77 201.23 170.47 Z" />
<path fill="#ffffff" opacity="1.00" d=" M 267.90 60.16 C 269.20 60.58 269.82 62.59 269.71 63.85 C 268.20 64.19 266.97 61.27 267.90 60.16 Z" />
<path fill="#ffffff" opacity="1.00" d=" M 207.35 63.10 C 208.21 64.12 209.08 65.13 209.96 66.14 C 208.97 66.68 207.99 67.25 207.03 67.82 L 209.35 69.10 C 208.28 69.63 207.17 70.16 206.43 71.14 C 207.66 72.90 209.74 74.74 208.31 77.05 C 209.22 78.25 212.52 81.41 209.23 81.73 C 209.60 82.76 210.33 84.83 210.70 85.86 C 208.96 84.75 207.50 83.29 205.96 81.93 C 207.04 80.58 207.74 79.05 208.06 77.32 C 206.19 78.65 205.00 76.55 204.04 75.38 C 205.30 76.08 206.61 76.68 207.98 77.17 C 207.01 75.77 205.90 74.49 204.98 73.06 C 205.46 72.35 206.43 70.93 206.91 70.21 L 205.01 70.60 C 205.93 68.15 207.25 65.77 207.35 63.10 Z" />
<path fill="#ffffff" opacity="1.00" d=" M 296.92 62.87 C 301.16 65.57 305.61 68.08 309.82 70.92 C 310.19 71.56 310.93 72.85 311.30 73.50 C 310.21 73.80 309.14 74.23 308.34 75.06 L 310.34 74.95 C 310.44 75.42 310.65 76.37 310.75 76.84 C 308.16 75.56 305.25 74.40 303.77 71.73 C 305.42 74.96 307.16 73.16 308.57 72.14 C 303.78 70.49 300.35 66.43 296.92 62.87 Z" />
<path fill="#ffffff" opacity="1.00" d=" M 309.91 62.93 C 311.09 62.53 312.80 63.77 312.70 65.05 C 311.57 65.68 309.76 64.11 309.91 62.93 Z" />
<path fill="#ffffff" opacity="1.00" d=" M 217.09 66.51 C 217.52 66.65 218.38 66.93 218.81 67.07 C 220.13 69.05 221.47 71.02 222.85 72.96 C 222.47 71.72 221.71 69.25 221.33 68.02 C 222.90 69.69 224.44 71.39 225.95 73.13 L 223.75 73.02 C 224.04 73.69 224.64 75.02 224.94 75.68 C 223.26 75.16 221.80 74.22 220.51 73.06 C 220.28 70.46 217.96 68.86 217.09 66.51 Z" />
<path fill="#ffffff" opacity="1.00" d=" M 294.77 65.47 C 296.81 65.67 298.62 66.69 300.53 67.34 C 300.43 67.89 300.24 68.97 300.14 69.52 C 301.71 70.45 303.72 71.03 304.55 72.85 C 300.85 71.06 297.34 68.72 294.77 65.47 Z" />
<path fill="#ffffff" opacity="1.00" d=" M 228.31 67.50 C 232.36 68.43 235.16 71.90 239.05 73.25 C 237.72 73.86 236.39 74.57 234.89 74.55 C 233.19 73.39 231.36 72.08 229.20 72.22 C 230.26 70.76 232.29 70.94 233.79 71.93 C 232.15 70.21 229.64 69.54 228.31 67.50 Z" />
<path fill="#ffffff" opacity="1.00" d=" M 194.99 70.48 C 197.15 69.13 200.52 68.87 201.99 71.33 C 201.35 71.31 200.07 71.25 199.43 71.23 C 199.69 71.97 200.22 73.44 200.49 74.18 L 198.64 73.20 C 197.31 75.93 194.36 73.23 193.55 71.48 C 195.22 71.69 196.73 72.52 198.33 73.01 C 197.37 71.97 196.17 71.22 194.99 70.48 Z" />
<path fill="#ffffff" opacity="1.00" d=" M 215.88 70.90 C 218.61 72.19 219.68 75.17 222.34 76.37 C 220.98 78.79 217.45 75.52 218.59 73.42 C 216.71 74.38 216.50 71.91 215.88 70.90 Z" />
<path fill="#ffffff" opacity="1.00" d=" M 229.88 75.52 C 229.88 74.92 229.88 73.73 229.88 73.13 C 232.92 74.49 236.09 75.53 239.14 76.83 C 237.02 76.84 234.90 76.53 233.07 75.38 C 232.53 75.92 232.00 76.46 231.47 77.00 C 234.49 76.25 236.77 78.55 239.27 79.73 C 240.84 79.41 242.61 78.83 243.97 80.07 C 246.95 82.20 251.26 82.60 253.44 85.64 L 253.24 86.33 C 251.68 86.53 250.48 85.30 249.61 84.19 C 248.14 84.85 245.19 86.15 243.72 86.81 C 247.54 83.45 250.14 86.41 253.26 87.82 C 254.10 88.25 254.93 88.72 255.74 89.22 C 256.04 90.23 254.45 90.48 254.35 91.45 C 256.55 91.38 258.23 94.04 258.01 96.05 C 256.40 95.01 254.97 93.74 253.45 92.58 C 246.99 88.96 239.46 91.02 232.54 89.50 C 231.14 89.91 230.26 91.39 228.83 91.82 C 227.40 90.90 225.51 89.25 224.11 91.05 C 225.74 90.58 226.62 92.00 227.69 92.81 C 228.52 92.35 230.16 91.43 230.99 90.97 C 231.61 91.69 232.24 92.41 232.89 93.12 C 229.04 94.21 225.16 95.51 221.09 95.05 C 222.00 94.28 222.91 93.53 223.82 92.76 C 222.25 92.32 221.12 93.76 220.14 94.72 C 219.43 94.67 218.00 94.55 217.29 94.49 C 217.42 94.79 217.69 95.39 217.83 95.69 C 217.38 95.61 216.49 95.44 216.04 95.36 C 216.20 98.17 213.03 96.48 212.24 98.29 C 210.49 98.24 208.61 98.23 207.23 99.48 C 207.91 99.54 209.26 99.66 209.94 99.72 C 210.35 102.18 207.78 102.48 206.10 103.13 L 206.48 101.38 C 206.25 101.33 205.78 101.24 205.54 101.20 C 205.63 101.73 205.80 102.81 205.88 103.35 C 204.91 103.40 202.98 103.52 202.02 103.57 C 203.55 105.14 205.70 104.11 207.28 103.14 C 206.03 105.92 202.30 105.71 199.78 106.80 C 198.46 107.45 196.96 107.86 195.49 107.48 C 195.42 111.29 189.93 109.63 187.65 111.54 C 186.53 110.90 185.27 111.30 184.09 111.36 C 182.39 108.76 180.00 111.95 178.13 112.71 C 178.62 109.66 182.61 108.88 184.90 107.31 C 184.66 108.33 184.00 109.46 184.66 110.48 C 187.88 108.40 192.31 109.86 195.27 107.29 C 192.61 107.25 189.96 107.47 187.32 107.77 L 187.59 106.44 L 186.03 106.36 C 186.67 105.12 187.67 104.25 189.04 103.75 C 192.07 103.42 195.10 103.68 198.14 103.64 C 196.16 103.13 194.10 103.25 192.09 103.08 C 194.34 100.93 197.73 101.59 200.56 101.52 C 201.05 100.36 201.80 99.45 203.13 99.32 C 202.26 97.84 200.80 97.36 199.17 97.80 L 199.51 96.56 C 196.81 96.89 194.95 94.32 193.80 92.24 C 195.45 93.94 197.99 93.62 200.09 94.27 L 195.88 90.49 C 198.52 91.54 201.24 92.42 203.83 93.61 C 204.10 93.28 204.64 92.61 204.91 92.28 C 206.32 92.73 207.72 93.23 209.07 93.86 C 210.41 93.57 211.76 93.27 213.10 92.90 C 211.82 92.41 209.70 90.11 209.19 92.70 C 207.12 92.71 205.69 91.92 204.90 90.34 C 209.51 90.83 214.13 90.05 218.75 90.54 C 218.76 90.33 218.77 89.90 218.77 89.68 C 216.01 90.10 213.85 88.36 211.68 86.97 C 213.38 86.46 215.01 86.71 216.55 87.71 L 216.40 86.53 C 214.58 86.25 212.84 85.43 211.73 83.92 C 213.14 84.31 215.95 85.09 217.35 85.48 L 215.13 82.80 C 216.84 83.27 219.12 86.11 220.29 83.48 C 218.79 83.38 217.44 83.04 217.02 81.46 C 217.65 81.47 218.91 81.49 219.54 81.49 C 221.20 82.27 222.94 83.27 224.78 82.23 L 224.56 84.20 L 225.34 83.77 C 225.35 83.40 225.37 82.66 225.38 82.30 C 226.12 82.24 227.59 82.13 228.33 82.08 C 226.16 81.50 223.85 81.33 221.69 82.06 L 224.47 79.94 C 222.80 80.28 220.65 81.72 219.88 79.39 C 221.29 80.09 222.53 79.93 223.61 78.90 C 225.07 78.12 227.80 78.49 227.68 80.64 C 228.11 80.55 228.98 80.37 229.42 80.27 L 229.48 81.33 C 229.79 81.59 230.40 82.12 230.71 82.38 C 231.91 83.07 233.17 83.67 234.61 83.38 L 234.53 84.28 C 236.00 84.13 237.48 84.18 238.94 84.49 C 237.99 83.88 236.96 83.41 235.83 83.23 C 232.77 81.56 228.65 80.62 227.07 77.26 C 231.47 79.06 235.58 81.52 240.16 82.87 C 236.80 79.36 230.41 79.04 227.87 74.51 L 229.88 75.52 M 220.82 83.39 C 222.23 86.61 226.34 85.57 229.14 85.83 L 228.54 85.29 C 225.77 85.67 223.35 84.23 220.82 83.39 M 204.67 95.58 C 204.02 95.82 202.70 96.31 202.05 96.55 L 202.80 98.02 C 206.83 96.61 211.12 96.29 215.28 95.45 L 216.32 94.30 C 212.49 95.20 208.56 95.10 204.67 95.58 Z" />
<path fill="#ffffff" opacity="1.00" d=" M 198.29 75.56 C 198.85 75.60 199.97 75.66 200.53 75.69 C 200.41 77.95 200.91 80.41 199.51 82.39 C 200.00 82.81 200.97 83.67 201.46 84.09 C 200.05 83.72 198.67 83.26 197.30 82.78 L 198.44 80.42 C 197.03 81.53 195.54 82.43 193.99 83.10 L 195.60 82.16 C 194.89 81.46 194.15 80.79 193.40 80.14 C 194.35 79.50 195.30 78.86 196.26 78.22 C 196.72 77.18 197.49 76.35 198.29 75.56 M 196.23 79.47 C 196.58 79.77 196.58 79.77 196.23 79.47 Z" />
<path fill="#ffffff" opacity="1.00" d=" M 215.78 74.61 C 217.30 73.95 219.31 76.41 218.78 77.84 C 217.27 78.02 215.75 76.02 215.78 74.61 Z" />
<path fill="#ffffff" opacity="1.00" d=" M 277.03 76.94 C 278.09 76.67 280.69 77.81 280.36 79.13 C 279.01 79.10 277.90 78.53 277.03 77.42 L 277.03 76.94 Z" />
<path fill="#ffffff" opacity="1.00" d=" M 202.71 79.15 C 203.93 78.92 204.56 79.42 204.59 80.66 L 205.90 80.46 C 205.86 80.75 205.78 81.32 205.74 81.61 L 203.92 81.23 C 204.51 82.91 206.26 83.56 207.64 84.45 L 207.25 85.13 C 208.04 85.33 209.62 85.74 210.41 85.95 C 209.22 88.99 206.84 86.72 205.34 85.75 C 203.52 84.41 201.79 82.85 200.77 80.79 L 204.25 82.89 C 203.87 81.95 203.10 80.09 202.71 79.15 Z" />
<path fill="#ffffff" opacity="1.00" d=" M 201.46 84.09 C 201.94 84.85 201.94 84.85 201.46 84.09 Z" />
<path fill="#ffffff" opacity="1.00" d=" M 198.11 85.31 C 202.37 86.16 206.46 87.39 210.53 88.92 C 210.74 89.25 211.17 89.90 211.39 90.22 C 206.79 89.64 201.23 89.08 198.11 85.31 Z" />
<path fill="#ffffff" opacity="1.00" d=" M 253.24 86.33 C 253.37 86.46 253.64 86.72 253.77 86.85 C 253.64 86.72 253.37 86.46 253.24 86.33 Z" />
<path fill="#ffffff" opacity="1.00" d=" M 198.05 89.47 C 198.01 87.59 200.04 88.35 201.16 88.61 C 202.22 89.41 203.43 89.85 204.79 89.95 C 204.69 90.57 204.50 91.80 204.40 92.42 C 202.05 92.26 199.53 91.40 198.05 89.47 Z" />
<path fill="#ffffff" opacity="1.00" d=" M 290.11 90.49 L 290.73 90.25 L 290.93 90.83 L 290.38 91.01 L 290.11 90.49 Z" />
<path fill="#ffffff" opacity="1.00" d=" M 236.91 92.91 C 234.78 92.57 232.65 92.00 231.08 90.42 L 234.44 90.17 C 234.95 90.47 235.96 91.07 236.46 91.37 L 236.72 92.28 C 237.09 92.68 237.83 93.46 238.20 93.86 C 238.65 94.11 239.56 94.61 240.02 94.86 C 239.56 94.44 238.65 93.59 238.19 93.17 C 238.02 90.25 241.27 91.96 242.85 91.76 C 245.40 91.38 247.29 93.63 249.76 93.53 C 252.97 93.23 254.85 96.55 256.18 98.98 C 253.97 98.27 251.73 97.61 249.64 96.60 C 248.73 96.26 247.87 95.83 247.07 95.29 C 244.01 96.27 240.79 96.57 237.76 97.62 C 237.74 97.10 237.68 96.05 237.65 95.52 C 236.37 95.56 235.14 95.35 233.96 94.89 C 234.10 94.58 234.37 93.95 234.51 93.63 L 236.91 92.91 Z" />
<path fill="#ffffff" opacity="1.00" d=" M 218.03 97.68 C 222.98 96.92 228.10 96.52 232.73 94.45 L 233.16 94.97 C 233.20 95.39 233.28 96.21 233.32 96.63 C 235.01 95.51 236.56 96.99 237.90 97.93 C 234.97 100.05 231.07 99.43 227.69 100.41 C 228.27 98.63 230.14 98.06 231.30 96.79 C 227.98 96.84 225.38 99.04 222.41 100.12 C 222.50 100.55 222.68 101.42 222.77 101.86 C 222.20 101.62 221.07 101.14 220.51 100.90 C 220.50 101.47 220.49 102.61 220.48 103.18 C 218.16 104.48 215.42 104.98 213.05 106.28 C 211.18 105.42 209.06 105.67 207.08 105.70 C 210.03 103.51 213.62 102.46 216.93 100.94 C 216.46 100.44 215.51 99.43 215.04 98.93 L 215.89 97.86 C 216.51 98.80 217.14 99.75 217.73 100.72 C 218.87 100.20 220.02 99.71 221.17 99.21 C 220.17 99.33 218.19 99.58 217.20 99.70 C 217.41 99.20 217.82 98.19 218.03 97.68 Z" />
<path fill="#ffffff" opacity="1.00" d=" M 188.32 98.62 C 190.32 98.14 192.20 97.27 193.93 96.15 C 193.48 96.83 192.59 98.20 192.15 98.88 L 194.99 98.41 C 194.14 99.69 193.29 101.21 191.46 100.57 L 191.74 101.60 C 187.06 102.58 183.98 106.71 179.49 108.10 C 180.18 106.23 182.07 105.49 183.73 104.73 C 182.15 101.65 186.73 101.38 188.51 100.28 C 188.47 99.87 188.37 99.04 188.32 98.62 Z" />
<path fill="#ffffff" opacity="1.00" d=" M 239.98 98.86 C 245.23 96.94 252.13 98.13 255.49 102.83 C 251.64 103.00 247.80 101.85 243.98 102.63 C 241.67 103.52 239.57 104.84 237.43 106.05 C 238.43 103.70 238.66 101.08 239.98 98.86 Z" />
<path fill="#ffffff" opacity="1.00" d=" M 238.46 99.15 C 239.11 101.16 236.70 102.70 237.40 104.84 C 236.42 105.97 235.43 107.10 234.42 108.22 L 234.31 106.82 C 233.08 107.30 231.78 107.63 230.46 107.69 C 230.52 108.16 230.63 109.08 230.68 109.55 L 229.51 109.33 C 229.32 109.98 228.92 111.28 228.72 111.93 L 228.41 110.60 C 229.16 108.65 226.53 109.04 225.99 110.26 C 226.59 110.34 227.80 110.51 228.41 110.60 C 227.12 112.17 228.15 114.52 226.07 115.70 C 227.25 115.16 232.05 113.65 228.75 112.18 C 229.78 111.37 230.92 110.96 232.17 110.96 L 230.40 111.93 C 231.21 112.78 232.02 113.63 232.83 114.50 C 232.49 114.44 231.81 114.32 231.47 114.26 C 229.29 115.94 226.82 117.15 224.33 118.27 C 221.83 120.92 218.92 123.30 215.47 124.61 C 215.89 122.67 218.33 122.35 219.49 121.07 L 215.65 121.67 C 216.70 119.16 218.44 117.20 220.88 115.80 L 218.53 116.19 L 216.15 117.55 L 213.99 116.89 L 215.00 119.19 L 212.99 117.91 L 213.84 119.80 C 211.57 119.78 209.57 121.60 207.95 123.06 C 208.49 122.77 209.58 122.21 210.12 121.93 C 210.91 122.50 213.00 122.12 212.71 123.56 C 210.93 124.97 209.05 126.40 206.77 126.84 C 203.78 128.11 201.04 129.93 197.94 130.92 C 199.23 129.19 201.59 128.53 202.31 126.33 C 199.74 127.44 197.53 129.30 194.80 130.07 C 195.04 129.67 195.51 128.87 195.74 128.47 L 198.65 127.67 C 197.78 127.28 196.05 126.52 195.18 126.13 C 195.96 126.31 197.51 126.65 198.29 126.82 C 197.72 126.07 196.57 124.57 195.99 123.82 C 196.44 123.73 197.34 123.53 197.78 123.43 C 197.66 122.95 197.41 121.99 197.28 121.51 C 198.66 121.29 199.69 120.23 201.05 119.91 C 200.22 120.71 198.57 122.30 197.74 123.09 C 198.71 122.69 200.64 121.90 201.61 121.51 L 201.35 120.44 C 201.85 120.52 202.84 120.67 203.33 120.75 L 203.56 119.35 C 204.07 119.48 205.09 119.74 205.60 119.87 L 205.20 118.32 C 207.76 119.50 209.80 116.66 212.25 116.39 C 218.83 112.78 205.73 117.53 210.62 114.23 L 210.48 112.79 L 211.64 111.30 C 209.55 110.30 207.55 112.00 205.66 112.70 L 205.47 113.99 C 201.84 116.61 197.86 118.76 194.12 121.24 L 194.94 119.11 C 194.18 119.32 192.65 119.73 191.88 119.94 C 192.86 118.82 194.35 118.30 195.22 117.07 C 193.09 117.48 191.12 118.42 189.04 118.98 C 189.22 119.37 189.57 120.15 189.75 120.54 C 188.35 121.29 185.73 122.21 186.55 124.28 C 187.05 125.73 183.66 126.83 184.58 124.70 C 184.69 123.34 182.87 124.71 182.16 124.55 C 181.86 123.39 183.38 123.03 183.80 122.17 C 182.99 122.32 181.37 122.62 180.56 122.77 C 181.40 121.43 182.67 120.89 184.37 121.13 L 184.01 120.04 C 184.49 119.99 185.44 119.87 185.91 119.82 L 185.91 118.85 C 183.80 119.34 181.76 120.12 179.62 120.46 C 179.66 120.14 179.74 119.51 179.78 119.19 C 181.64 118.71 183.53 118.30 185.47 118.45 C 186.70 116.16 189.53 116.09 191.37 114.52 C 195.79 114.00 199.93 112.36 204.25 111.35 C 206.01 110.36 207.90 109.32 209.96 109.18 C 217.31 108.67 222.43 101.71 229.90 101.42 C 229.50 102.11 228.70 103.49 228.30 104.19 C 228.93 104.25 230.19 104.38 230.82 104.45 L 231.92 105.45 C 230.33 105.76 226.08 104.77 227.52 107.78 C 228.89 107.55 230.09 106.98 231.13 106.09 C 231.81 106.25 233.18 106.59 233.86 106.76 C 232.89 105.02 234.26 103.41 234.70 101.78 C 236.06 101.07 237.31 100.19 238.46 99.15 M 187.13 118.23 C 187.87 118.73 187.87 118.73 187.13 118.23 M 184.74 121.29 L 184.82 121.92 C 184.95 121.74 185.23 121.39 185.36 121.21 L 184.74 121.29 Z" />
<path fill="#ffffff" opacity="1.00" d=" M 288.85 104.23 C 290.27 104.65 291.44 108.45 290.00 109.47 C 288.86 108.10 288.80 105.96 288.85 104.23 Z" />
<path fill="#ffffff" opacity="1.00" d=" M 262.66 106.01 C 263.78 105.27 264.94 105.56 266.12 105.88 C 267.00 105.44 268.78 104.55 269.67 104.10 C 269.31 106.52 266.28 107.28 266.12 109.72 C 264.39 109.09 263.63 107.43 262.66 106.01 Z" />
<path fill="#ffffff" opacity="1.00" d=" M 286.02 107.91 C 286.61 107.10 286.51 105.12 287.79 105.19 C 289.49 107.54 288.29 110.73 286.30 112.50 C 286.43 110.95 286.34 109.42 286.02 107.91 Z" />
<path fill="#ffffff" opacity="1.00" d=" M 315.56 108.77 C 315.58 107.41 313.96 106.72 313.25 105.72 C 314.75 106.23 316.21 106.83 317.64 107.53 C 317.88 109.08 316.09 110.69 318.51 111.83 C 317.58 110.86 315.10 110.53 315.56 108.77 Z" />
<path fill="#ffffff" opacity="1.00" d=" M 203.66 107.27 C 203.94 107.35 204.50 107.50 204.77 107.58 C 204.13 108.27 203.45 108.95 203.05 109.83 C 199.45 111.04 195.81 113.03 191.95 112.80 C 195.42 110.19 200.37 110.31 203.66 107.27 Z" />
<path fill="#ffffff" opacity="1.00" d=" M 304.32 112.38 C 305.47 111.93 306.94 112.91 307.34 114.02 C 306.95 116.27 303.25 114.03 304.32 112.38 Z" />
<path fill="#ffffff" opacity="1.00" d=" M 285.57 114.86 C 285.78 113.85 286.38 113.14 287.38 112.74 C 287.65 112.95 288.19 113.38 288.47 113.59 C 287.79 114.73 286.83 115.16 285.57 114.86 Z" />
<path fill="#ffffff" opacity="1.00" d=" M 182.20 116.27 C 182.98 116.15 184.54 115.90 185.32 115.78 C 184.72 116.96 183.66 117.27 182.15 116.73 L 182.20 116.27 Z" />
<path fill="#ffffff" opacity="1.00" d=" M 263.85 116.76 C 264.53 116.69 265.89 116.54 266.57 116.46 C 267.74 118.79 262.17 119.93 263.85 116.76 Z" />
<path fill="#ffffff" opacity="1.00" d=" M 313.21 116.16 C 315.42 117.30 319.23 118.86 318.27 121.95 C 317.06 121.06 316.07 119.92 314.76 119.19 C 313.91 118.34 313.08 117.45 313.21 116.16 Z" />
<path fill="#ffffff" opacity="1.00" d=" M 263.21 120.36 C 266.36 121.35 266.09 116.08 269.29 116.28 C 268.57 122.47 262.79 126.08 260.53 131.58 L 260.09 130.42 C 259.96 130.09 259.70 129.42 259.57 129.09 C 257.66 130.93 256.77 134.00 254.18 134.97 C 253.05 130.92 257.74 128.93 258.39 125.48 C 259.03 124.96 260.89 123.11 261.22 124.84 C 260.91 125.36 260.29 126.40 259.98 126.92 C 261.28 126.38 262.14 125.27 263.00 124.20 C 262.31 123.02 261.18 120.86 263.21 120.36 Z" />
<path fill="#ffffff" opacity="1.00" d=" M 257.16 125.92 C 257.59 125.46 257.59 125.46 257.16 125.92 Z" />
<path fill="#ffffff" opacity="1.00" d=" M 177.89 132.23 C 183.06 130.43 187.89 127.58 193.14 126.15 C 192.28 126.92 191.30 127.48 190.19 127.81 C 191.61 130.01 189.25 130.63 187.50 130.74 L 187.60 131.88 C 187.12 131.74 186.16 131.47 185.68 131.33 C 185.54 133.53 182.58 133.32 181.09 133.96 C 181.00 134.36 180.82 135.17 180.73 135.57 C 183.30 135.38 185.43 133.82 187.86 133.14 C 185.55 135.75 181.62 136.27 178.40 137.18 L 178.94 137.83 C 177.19 137.96 175.46 138.27 173.75 138.73 C 174.60 137.36 175.88 136.61 177.61 136.49 L 177.07 135.37 L 180.87 136.11 C 179.76 135.24 178.43 134.75 177.16 134.19 L 179.03 133.48 L 177.89 132.23 M 187.35 129.81 L 186.48 129.57 C 183.67 130.28 187.52 132.21 187.35 129.81 C 190.91 130.47 188.45 126.65 187.35 129.81 Z" />
<path fill="#ffffff" opacity="1.00" d=" M 316.71 125.85 C 319.04 126.99 322.01 126.06 324.02 127.94 C 323.70 130.25 321.41 130.25 320.43 128.56 C 318.71 129.87 316.44 129.94 314.45 130.62 C 313.22 129.10 311.37 129.58 309.69 129.71 C 308.76 130.67 307.83 131.63 306.91 132.58 C 306.53 133.80 305.81 134.70 304.38 134.55 C 304.38 134.95 304.39 135.74 304.39 136.13 L 303.27 135.99 C 303.28 134.07 303.32 132.14 303.93 130.29 C 307.10 125.82 314.52 124.36 318.30 128.83 L 316.71 125.85 Z" />
<path fill="#ffffff" opacity="1.00" d=" M 323.95 127.82 C 326.72 130.03 331.64 130.04 332.61 134.04 C 332.78 136.09 332.48 138.18 332.96 140.22 C 332.36 141.29 331.72 142.34 331.05 143.37 C 331.49 144.51 331.95 145.65 332.41 146.78 C 331.85 146.88 330.71 147.08 330.14 147.18 C 332.11 148.17 332.44 149.42 331.14 150.94 C 331.75 151.90 332.36 152.87 332.99 153.83 L 331.12 153.49 C 331.07 155.15 331.41 156.73 332.13 158.22 C 331.37 155.31 327.98 158.05 329.01 160.02 L 327.02 159.82 C 327.33 160.56 327.94 162.03 328.24 162.77 C 327.12 162.58 326.01 162.38 324.90 162.17 C 325.40 161.37 326.41 159.77 326.91 158.98 C 326.44 159.10 325.51 159.36 325.05 159.49 C 325.91 158.87 326.77 158.25 327.64 157.62 C 325.67 155.02 330.59 152.40 327.95 149.80 C 328.38 149.65 329.23 149.35 329.66 149.20 C 327.36 147.36 332.21 146.07 329.43 144.42 C 328.48 145.74 327.81 147.61 325.99 147.93 C 328.28 144.73 331.07 141.83 332.32 137.97 C 331.84 135.28 330.86 132.70 329.11 130.57 C 328.06 131.32 327.05 132.10 326.05 132.90 C 326.19 132.23 326.46 130.90 326.60 130.23 L 325.03 129.69 L 323.95 127.82 Z" />
<path fill="#ffffff" opacity="1.00" d=" M 320.19 129.39 C 321.39 130.12 322.69 130.48 324.07 130.00 C 324.45 132.36 324.94 134.72 324.76 137.13 C 323.94 136.28 323.53 135.24 323.52 134.00 C 322.20 133.13 320.73 132.38 319.15 132.19 C 319.41 131.49 319.93 130.09 320.19 129.39 Z" />
<path fill="#ffffff" opacity="1.00" d=" M 231.46 138.55 C 234.70 136.82 236.95 133.76 240.13 131.93 C 239.53 132.89 238.81 133.74 237.96 134.48 C 238.80 137.15 235.00 138.73 233.65 140.71 C 232.97 139.93 232.24 139.21 231.46 138.55 Z" />
<path fill="#ffffff" opacity="1.00" d=" M 265.18 133.63 C 266.21 132.86 266.21 132.86 265.18 133.63 Z" />
<path fill="#ffffff" opacity="1.00" d=" M 264.09 135.85 C 264.36 135.29 264.91 134.18 265.18 133.63 C 264.91 134.18 264.36 135.29 264.09 135.85 Z" />
<path fill="#ffffff" opacity="1.00" d=" M 178.94 137.83 C 179.72 137.96 181.28 138.22 182.06 138.36 C 179.33 139.21 177.41 141.35 175.14 142.96 C 175.35 141.92 175.56 140.88 175.77 139.84 C 177.08 139.59 178.38 139.33 179.68 139.06 L 178.94 137.83 Z" />
<path fill="#ffffff" opacity="1.00" d=" M 302.92 138.71 C 305.14 140.06 306.66 142.30 308.94 143.55 C 310.57 144.10 313.45 142.40 314.02 144.78 C 312.40 144.65 310.78 144.53 309.16 144.41 C 309.32 145.89 310.09 147.02 311.48 147.80 C 310.97 148.43 310.45 149.06 309.92 149.67 C 309.25 148.90 308.64 148.08 308.03 147.27 C 307.16 146.60 306.32 145.93 305.47 145.25 C 305.61 144.79 305.89 143.87 306.04 143.41 C 304.79 141.99 303.30 140.65 302.92 138.71 Z" />
<path fill="#ffffff" opacity="1.00" d=" M 167.93 146.95 C 172.13 145.53 176.34 144.10 180.26 141.98 C 179.58 144.71 175.73 145.28 173.47 146.51 L 173.59 147.44 C 171.95 147.13 170.09 147.33 170.45 149.44 C 168.09 150.28 165.74 151.14 163.35 151.87 C 164.11 149.62 165.51 147.55 167.93 146.95 Z" />
<path fill="#ffffff" opacity="1.00" d=" M 260.70 149.11 C 263.60 147.24 264.27 141.92 268.12 142.00 C 266.41 144.94 264.16 147.51 262.12 150.22 C 261.64 149.85 261.16 149.49 260.70 149.11 Z" />
<path fill="#ffffff" opacity="1.00" d=" M 271.48 142.84 C 272.74 143.92 273.94 145.21 274.06 146.96 C 272.75 146.87 271.44 146.76 270.14 146.62 C 270.59 145.36 271.03 144.10 271.48 142.84 Z" />
<path fill="#ffffff" opacity="1.00" d=" M 266.69 145.75 C 267.33 144.98 268.09 144.37 268.98 143.90 C 269.56 148.03 266.08 150.73 264.03 153.82 L 263.12 154.16 C 262.56 153.70 261.45 152.78 260.89 152.31 C 262.67 149.99 265.13 148.25 266.69 145.75 Z" />
<path fill="#ffffff" opacity="1.00" d=" M 259.40 146.35 C 261.15 147.42 258.58 149.96 257.56 150.90 L 257.01 150.90 C 256.40 149.17 258.37 147.55 259.40 146.35 Z" />
<path fill="#ffffff" opacity="1.00" d=" M 270.34 148.00 C 270.78 148.99 271.32 149.92 271.98 150.81 C 271.50 150.81 270.55 150.81 270.07 150.81 C 269.43 150.93 268.16 151.17 267.52 151.29 C 268.20 149.96 269.14 148.87 270.34 148.00 Z" />
<path fill="#ffffff" opacity="1.00" d=" M 194.50 159.39 C 199.82 156.12 205.14 152.83 210.14 149.09 C 210.11 149.62 210.06 150.70 210.04 151.24 C 211.27 150.50 212.53 149.80 213.81 149.15 C 213.51 151.48 210.79 152.04 209.18 153.30 C 206.79 155.00 203.68 155.95 202.01 158.46 C 201.46 157.94 200.93 157.42 200.39 156.89 C 199.52 157.51 198.67 158.17 197.86 158.85 C 196.97 159.83 195.63 160.15 194.50 159.39 Z" />
<path fill="#ffffff" opacity="1.00" d=" M 273.34 152.52 C 272.86 151.53 273.80 149.45 275.09 150.13 C 275.93 151.14 274.50 153.02 273.34 152.52 Z" />
<path fill="#ffffff" opacity="1.00" d=" M 160.91 154.75 C 161.53 153.18 163.11 152.81 164.61 152.61 L 164.71 151.90 C 166.76 151.76 168.79 151.34 170.81 150.96 C 170.78 151.89 170.73 153.75 170.70 154.68 L 168.64 153.71 C 168.63 154.19 168.62 155.14 168.62 155.62 L 167.47 155.41 L 167.57 156.51 C 165.58 156.19 163.83 157.27 162.08 157.99 C 159.31 158.35 156.82 160.11 153.96 159.68 C 154.93 158.13 158.26 158.82 157.64 156.47 C 159.03 156.67 160.73 157.09 161.72 155.74 C 163.95 154.79 166.74 154.47 168.37 152.57 C 165.91 153.39 163.57 154.68 160.91 154.75 Z" />
<path fill="#ffffff" opacity="1.00" d=" M 269.03 151.41 C 270.80 153.67 269.07 156.86 270.63 159.33 C 271.21 158.48 272.38 156.78 272.96 155.93 C 272.22 158.07 272.00 160.57 270.30 162.23 C 270.56 160.65 269.93 159.19 269.12 157.90 C 268.97 158.97 268.65 161.12 268.49 162.19 C 268.13 161.70 267.41 160.72 267.05 160.23 C 266.52 160.59 265.47 161.29 264.94 161.65 C 265.53 157.93 268.79 155.21 269.03 151.41 Z" />
<path fill="#ffffff" opacity="1.00" d=" M 266.22 152.33 C 266.58 152.97 266.93 153.61 267.28 154.27 C 265.24 156.45 263.73 159.08 261.56 161.14 L 261.69 158.46 L 259.84 160.27 L 257.93 160.95 C 259.06 158.80 260.53 156.84 262.36 155.24 L 262.43 154.40 C 264.18 154.68 265.44 153.99 266.22 152.33 Z" />
<path fill="#ffffff" opacity="1.00" d=" M 292.59 154.85 C 293.21 154.57 294.46 154.02 295.08 153.75 C 295.79 155.74 296.35 157.79 297.05 159.79 L 295.31 159.36 C 295.33 159.97 295.38 161.18 295.40 161.79 C 292.36 161.09 293.19 157.17 292.59 154.85 Z" />
<path fill="#ffffff" opacity="1.00" d=" M 301.66 154.31 C 302.61 154.82 303.92 156.14 303.64 157.34 C 303.25 157.24 302.48 157.04 302.09 156.94 C 301.99 156.28 301.77 154.97 301.66 154.31 Z" />
<path fill="#ffffff" opacity="1.00" d=" M 219.82 156.84 C 220.16 155.58 220.95 155.01 222.19 155.13 C 222.08 156.59 221.29 157.16 219.82 156.84 Z" />
<path fill="#ffffff" opacity="1.00" d=" M 233.99 157.09 C 234.97 155.57 235.45 155.76 235.44 157.65 C 235.81 157.69 236.56 157.78 236.94 157.83 L 236.77 158.54 L 234.94 158.07 L 235.74 159.73 C 235.37 159.64 234.62 159.46 234.24 159.37 C 233.80 160.15 233.36 160.94 232.93 161.72 C 233.83 160.63 234.95 160.14 236.27 160.25 C 236.66 162.32 234.77 165.99 232.37 164.29 C 230.75 166.59 229.85 169.80 227.10 171.01 C 227.60 169.76 228.18 168.55 228.85 167.38 C 223.50 168.30 222.28 174.76 218.21 177.67 C 218.42 174.77 221.26 172.96 222.76 170.64 C 225.80 165.54 231.18 162.38 233.99 157.09 Z" />
<path fill="#ffffff" opacity="1.00" d=" M 216.88 157.85 C 217.85 157.51 218.83 157.17 219.82 156.84 C 219.52 157.94 218.87 158.82 217.87 159.49 L 217.36 160.11 C 217.13 160.15 216.68 160.25 216.46 160.29 C 216.57 159.68 216.77 158.46 216.88 157.85 Z" />
<path fill="#ffffff" opacity="1.00" d=" M 301.97 158.32 C 303.36 158.06 303.95 158.64 303.74 160.08 C 302.34 160.30 301.75 159.71 301.97 158.32 Z" />
<path fill="#ffffff" opacity="1.00" d=" M 199.39 159.35 C 199.70 159.65 199.70 159.65 199.39 159.35 Z" />
<path fill="#ffffff" opacity="1.00" d=" M 156.55 161.66 C 156.57 160.03 159.12 159.02 160.51 159.64 C 160.19 161.12 157.87 161.55 156.55 161.66 Z" />
<path fill="#ffffff" opacity="1.00" d=" M 172.50 160.60 C 173.89 160.81 175.27 160.41 176.65 160.25 C 176.51 160.84 176.24 162.02 176.11 162.61 C 177.28 162.80 178.45 163.01 179.62 163.22 C 179.03 164.75 179.39 166.00 180.72 166.99 C 176.94 166.77 173.19 166.32 169.52 165.36 C 169.45 165.73 169.32 166.48 169.26 166.85 C 172.99 168.70 177.15 168.11 181.15 168.26 C 182.28 168.17 182.94 168.70 183.14 169.86 C 181.55 170.45 179.90 170.51 178.25 170.21 L 178.16 170.70 C 180.51 171.35 182.89 171.31 185.28 170.97 L 185.88 172.14 L 184.19 172.21 L 184.14 172.74 C 184.89 172.68 186.40 172.56 187.16 172.50 C 187.55 176.96 182.60 177.54 179.72 179.43 C 178.82 179.83 177.92 180.24 177.02 180.65 C 176.44 180.24 175.27 179.41 174.69 178.99 C 174.56 179.43 174.31 180.29 174.19 180.73 C 171.09 178.95 168.30 182.23 165.09 181.72 C 165.65 181.28 166.76 180.39 167.31 179.95 C 169.46 178.54 172.62 179.15 174.28 177.25 C 170.99 177.22 168.03 178.78 165.05 179.94 C 162.81 180.87 160.36 181.28 158.31 182.62 C 158.28 182.30 158.23 181.65 158.20 181.32 C 159.46 180.36 160.90 179.72 162.51 179.65 C 162.47 179.30 162.38 178.62 162.34 178.28 C 163.22 178.42 164.98 178.69 165.86 178.83 C 164.67 178.30 163.47 177.77 162.28 177.26 C 163.28 177.31 165.29 177.41 166.29 177.46 C 167.89 175.58 171.04 176.42 173.03 174.90 C 173.87 174.78 175.54 174.53 176.38 174.40 C 176.65 174.94 177.19 176.01 177.46 176.54 L 178.54 176.52 L 178.64 177.76 C 178.92 177.75 179.47 177.75 179.75 177.75 C 179.73 176.39 178.21 174.41 180.45 173.83 C 180.47 174.59 180.50 176.10 180.52 176.85 C 181.21 176.57 181.91 176.29 182.61 176.00 C 182.33 175.09 182.32 174.17 182.66 173.28 C 181.29 173.32 179.92 173.35 178.56 173.35 L 178.44 176.29 C 178.97 172.58 175.93 173.44 174.07 173.62 C 169.58 174.38 165.14 176.61 160.58 176.03 C 161.40 175.77 163.04 175.25 163.86 175.00 C 163.43 174.57 162.57 173.72 162.14 173.29 C 167.05 171.90 172.21 171.81 177.10 170.38 C 172.88 169.82 167.53 170.96 164.30 167.63 C 165.13 167.73 166.77 167.93 167.60 168.03 C 167.34 166.80 166.98 164.88 168.47 164.29 C 169.34 164.41 171.10 164.65 171.97 164.77 C 171.80 164.17 171.46 162.96 171.29 162.36 L 174.18 163.26 C 173.76 162.59 172.92 161.27 172.50 160.60 Z" />
<path fill="#ffffff" opacity="1.00" d=" M 233.95 166.97 C 235.39 164.39 237.24 162.09 238.95 159.70 C 238.62 160.97 238.44 162.25 238.41 163.56 C 237.21 165.02 236.01 166.71 233.95 166.97 Z" />
<path fill="#ffffff" opacity="1.00" d=" M 157.92 162.53 C 159.66 162.03 161.39 161.49 163.14 161.06 C 162.48 163.02 160.03 162.77 158.45 163.54 C 158.32 163.29 158.05 162.78 157.92 162.53 Z" />
<path fill="#ffffff" opacity="1.00" d=" M 192.97 160.85 C 193.62 161.70 193.60 162.58 192.90 163.48 C 192.62 163.20 192.06 162.62 191.78 162.34 C 192.08 161.97 192.67 161.22 192.97 160.85 Z" />
<path fill="#ffffff" opacity="1.00" d=" M 195.54 163.02 C 191.36 163.36 198.07 158.85 196.52 162.35 L 195.54 163.02 Z" />
<path fill="#ffffff" opacity="1.00" d=" M 224.20 162.06 C 225.07 162.63 225.95 163.18 226.84 163.72 C 224.79 165.74 222.63 167.73 221.14 170.23 C 220.16 169.44 218.73 169.06 218.25 170.59 C 218.87 170.58 220.10 170.56 220.72 170.56 C 217.23 173.26 214.94 177.16 211.45 179.84 C 211.75 179.32 212.34 178.26 212.64 177.74 L 212.16 176.43 C 212.80 176.30 214.07 176.03 214.71 175.89 C 212.85 175.66 211.03 175.51 209.66 174.01 L 209.68 175.63 L 208.38 175.27 C 208.40 175.75 208.45 176.69 208.48 177.16 L 207.58 177.65 C 206.89 179.05 205.85 180.23 204.30 180.66 C 205.16 179.55 206.11 178.52 207.04 177.47 L 205.16 177.50 C 208.10 175.47 209.68 172.01 212.86 170.28 L 210.91 170.27 L 214.01 169.06 L 214.25 169.64 L 214.70 170.79 L 213.45 171.41 L 213.02 172.50 C 214.06 171.75 215.03 170.88 215.75 169.82 C 218.17 169.11 219.63 166.84 221.28 165.09 L 223.07 166.81 C 221.09 164.80 223.28 163.48 224.20 162.06 Z" />
<path fill="#ffffff" opacity="1.00" d=" M 245.57 166.03 C 245.81 164.47 246.64 163.55 248.04 163.25 C 248.34 164.49 246.97 166.55 245.57 166.03 Z" />
<path fill="#ffffff" opacity="1.00" d=" M 254.25 163.82 C 254.73 163.62 255.70 163.21 256.18 163.00 C 254.65 166.46 252.03 169.25 249.60 172.08 C 248.54 173.82 245.92 169.87 244.91 173.27 C 246.17 171.46 247.66 169.87 249.38 168.52 C 247.87 167.96 246.13 169.46 245.02 167.67 C 247.95 168.75 247.95 164.55 250.37 164.16 L 249.01 166.21 C 249.97 166.72 250.91 167.28 251.82 167.88 C 252.37 167.30 253.47 166.15 254.02 165.57 C 253.18 165.58 251.50 165.59 250.66 165.59 C 251.62 164.41 253.00 163.98 254.12 165.23 L 254.25 163.82 Z" />
<path fill="#ffffff" opacity="1.00" d=" M 312.45 163.11 C 312.75 163.43 313.34 164.08 313.64 164.41 C 314.23 164.81 315.40 165.62 315.99 166.03 C 314.72 167.04 313.49 168.10 312.15 169.01 C 312.26 167.04 312.60 165.08 312.45 163.11 Z" />
<path fill="#ffffff" opacity="1.00" d=" M 191.48 163.97 C 192.68 163.65 193.23 164.06 193.13 165.21 C 192.70 165.27 191.82 165.41 191.38 165.48 C 191.41 165.10 191.45 164.35 191.48 163.97 Z" />
<path fill="#ffffff" opacity="1.00" d=" M 307.47 164.26 C 307.57 164.56 307.78 165.17 307.88 165.48 C 306.50 166.93 305.63 169.34 303.36 169.57 L 303.63 170.42 C 302.80 170.43 301.12 170.45 300.29 170.47 C 301.33 168.99 303.31 167.63 302.16 165.59 C 302.91 165.43 304.42 165.12 305.17 164.96 L 304.70 167.12 C 305.66 166.20 306.58 165.24 307.47 164.26 M 303.96 167.57 L 303.87 168.20 C 304.04 168.05 304.40 167.76 304.57 167.62 L 303.96 167.57 Z" />
<path fill="#ffffff" opacity="1.00" d=" M 216.88 166.88 C 217.91 165.92 217.91 165.92 216.88 166.88 Z" />
<path fill="#ffffff" opacity="1.00" d=" M 297.92 167.62 C 298.41 166.17 300.53 165.93 301.83 166.18 C 302.70 168.06 298.53 169.53 297.92 167.62 Z" />
<path fill="#ffffff" opacity="1.00" d=" M 216.03 167.16 L 216.88 166.88 L 216.74 167.72 L 215.91 167.99 L 216.03 167.16 Z" />
<path fill="#ffffff" opacity="1.00" d=" M 241.14 164.80 C 241.82 165.75 243.16 167.67 243.84 168.62 L 243.79 165.98 C 244.57 167.13 245.30 168.31 245.97 169.53 L 243.65 169.32 C 244.58 169.82 245.53 170.30 246.45 170.83 C 244.89 171.56 243.46 172.69 241.65 172.61 C 241.46 173.10 241.08 174.09 240.89 174.58 L 237.61 173.89 L 239.99 175.77 C 238.16 177.21 237.54 179.60 235.90 181.22 C 236.37 179.61 237.01 178.07 237.58 176.50 C 237.71 176.37 237.97 176.09 238.10 175.96 C 238.50 175.49 238.50 175.49 238.10 175.96 L 237.79 176.18 L 237.58 176.50 C 235.12 177.94 234.22 180.78 232.54 182.93 C 229.53 185.86 240.75 185.98 234.12 183.26 L 233.82 182.15 C 235.21 182.75 236.60 182.74 237.99 182.12 C 236.60 184.13 235.54 186.32 234.40 188.47 C 234.37 187.80 234.30 186.45 234.27 185.78 C 234.64 185.34 234.64 185.34 234.27 185.78 C 233.32 186.45 232.31 186.64 231.20 186.36 C 229.03 187.75 229.53 191.20 227.14 192.25 C 227.74 191.01 228.22 189.72 228.57 188.39 C 226.14 189.10 225.00 191.53 223.33 193.21 L 223.59 191.69 C 222.68 191.70 221.78 191.70 220.87 191.70 C 222.20 189.42 223.46 187.08 225.24 185.10 C 224.63 186.33 223.41 188.80 222.80 190.03 C 223.12 190.50 223.45 190.97 223.79 191.43 C 224.73 188.92 226.84 186.84 226.92 184.04 C 227.28 184.47 228.00 185.33 228.36 185.76 L 228.87 185.58 C 228.45 184.70 227.59 182.92 227.17 182.04 L 229.68 183.75 C 230.38 182.77 231.10 181.80 231.82 180.83 C 232.60 179.38 234.66 177.90 233.10 176.08 C 233.57 176.30 234.51 176.72 234.98 176.93 C 236.58 174.19 240.63 171.56 239.06 167.95 L 241.03 169.22 L 239.93 166.55 L 241.80 168.16 L 241.14 164.80 M 239.23 173.47 C 239.58 173.77 239.58 173.77 239.23 173.47 M 235.24 183.59 C 235.82 183.98 235.82 183.98 235.24 183.59 Z" />
<path fill="#ffffff" opacity="1.00" d=" M 289.30 168.33 C 291.97 167.94 294.60 167.32 297.27 166.96 L 297.85 167.99 C 295.52 168.38 294.73 171.30 292.05 171.07 L 293.31 168.74 C 291.35 169.62 289.32 170.49 287.15 170.60 C 287.69 170.03 288.76 168.89 289.30 168.33 Z" />
<path fill="#ffffff" opacity="1.00" d=" M 215.12 168.17 L 215.91 167.99 L 215.82 168.80 L 215.05 168.94 L 215.12 168.17 Z" />
<path fill="#ffffff" opacity="1.00" d=" M 284.96 169.59 C 285.47 169.22 286.51 168.49 287.02 168.13 C 286.66 169.06 286.26 169.99 285.82 170.89 C 284.41 170.51 282.14 171.18 281.95 169.11 C 282.70 169.23 284.21 169.47 284.96 169.59 Z" />
<path fill="#ffffff" opacity="1.00" d=" M 321.53 167.71 C 322.45 168.41 323.21 169.26 323.81 170.26 L 321.51 170.06 C 322.85 170.92 323.52 172.16 323.49 173.79 C 321.12 173.55 319.54 171.61 317.97 170.05 C 319.59 169.87 320.77 169.09 321.53 167.71 Z" />
<path fill="#ffffff" opacity="1.00" d=" M 214.33 168.96 L 215.05 168.94 L 214.93 169.66 L 214.25 169.64 L 214.33 168.96 Z" />
<path fill="#ffffff" opacity="1.00" d=" M 296.24 170.87 C 296.14 169.42 296.77 168.68 298.13 168.67 C 298.21 170.07 297.58 170.80 296.24 170.87 Z" />
<path fill="#ffffff" opacity="1.00" d=" M 299.25 169.45 L 299.92 169.45 L 299.92 170.11 L 299.25 170.11 L 299.25 169.45 Z" />
<path fill="#ffffff" opacity="1.00" d=" M 209.77 170.15 C 209.40 170.57 209.40 170.57 209.77 170.15 Z" />
<path fill="#ffffff" opacity="1.00" d=" M 315.81 169.79 C 319.08 172.14 322.93 174.44 324.27 178.45 C 322.11 176.90 319.88 175.17 317.08 175.26 C 319.74 178.25 322.08 181.55 324.74 184.57 C 324.40 184.64 323.71 184.77 323.37 184.84 C 321.71 182.76 320.22 180.54 318.46 178.55 C 316.11 176.08 312.45 174.73 311.03 171.48 C 312.27 171.47 313.51 171.64 314.35 172.66 C 314.99 172.36 315.62 172.03 316.23 171.66 L 317.20 173.66 C 317.25 172.27 316.79 170.98 315.81 169.79 Z" />
<path fill="#ffffff" opacity="1.00" d=" M 206.51 171.74 C 206.93 171.41 207.76 170.76 208.18 170.44 C 209.91 172.07 206.11 174.75 206.51 171.74 Z" />
<path fill="#ffffff" opacity="1.00" d=" M 307.38 173.25 C 309.68 175.42 312.59 177.02 314.29 179.78 C 316.33 182.79 318.83 185.42 321.16 188.19 L 321.21 189.80 L 319.72 187.70 C 319.20 188.45 318.77 189.25 318.35 190.06 C 314.46 186.85 310.23 183.68 307.95 179.05 C 309.52 180.04 310.85 181.87 312.94 181.58 L 311.87 182.69 C 312.35 183.16 313.32 184.10 313.81 184.57 C 314.16 184.55 314.86 184.50 315.20 184.48 C 315.70 185.31 316.68 186.97 317.17 187.80 C 317.52 187.14 317.87 186.47 318.21 185.80 C 315.81 183.51 314.12 180.61 311.77 178.28 C 311.44 178.57 310.79 179.16 310.46 179.46 C 309.51 178.50 308.57 177.57 307.61 176.64 C 307.54 175.50 307.46 174.38 307.38 173.25 Z" />
<path fill="#ffffff" opacity="1.00" d=" M 186.00 177.81 C 186.71 175.85 189.28 175.27 190.96 174.27 C 190.47 176.48 188.38 177.72 186.70 178.96 C 186.52 178.67 186.17 178.10 186.00 177.81 Z" />
<path fill="#ffffff" opacity="1.00" d=" M 285.43 175.24 C 287.29 175.98 288.44 175.52 288.89 173.86 C 291.30 175.95 288.56 176.99 286.70 176.43 L 286.70 177.61 C 285.20 177.48 283.69 177.44 282.19 177.44 C 283.25 176.68 284.34 175.95 285.43 175.24 Z" />
<path fill="#ffffff" opacity="1.00" d=" M 207.72 179.33 C 209.00 178.33 210.12 176.36 211.74 176.15 C 212.26 177.89 208.96 181.16 207.72 179.33 Z" />
<path fill="#ffffff" opacity="1.00" d=" M 191.83 181.92 C 191.51 179.98 191.20 178.05 190.91 176.11 C 192.25 177.50 192.62 179.11 192.02 180.93 L 194.06 180.65 C 193.71 180.90 193.00 181.40 192.65 181.66 C 192.81 182.99 192.50 184.22 191.46 185.10 L 191.47 182.96 C 190.09 184.06 189.59 185.87 188.24 187.00 C 187.53 184.71 190.01 183.28 190.38 181.16 L 191.83 181.92 Z" />
<path fill="#ffffff" opacity="1.00" d=" M 184.41 177.95 C 184.80 177.92 185.60 177.85 186.00 177.81 C 184.93 182.11 179.13 182.73 177.02 186.50 C 176.31 185.94 175.60 185.39 174.90 184.83 C 177.55 181.91 181.40 180.48 184.41 177.95 Z" />
<path fill="#ffffff" opacity="1.00" d=" M 190.82 176.85 C 190.11 180.59 187.51 183.46 185.51 186.56 C 185.14 186.55 184.40 186.53 184.03 186.52 C 184.66 185.92 185.92 184.71 186.56 184.10 C 185.88 183.40 184.55 181.98 184.03 184.13 C 181.62 186.20 180.26 189.46 177.40 190.92 C 177.93 191.52 178.45 192.13 178.98 192.74 C 177.28 196.18 174.80 199.19 172.01 201.79 C 172.52 198.43 175.40 196.12 177.64 193.82 C 177.13 193.45 176.61 193.09 176.10 192.72 C 174.47 195.53 171.99 197.88 169.30 199.68 C 170.96 195.54 174.89 192.93 177.83 189.74 L 178.31 189.29 L 178.05 188.64 C 179.26 187.93 179.26 187.93 178.05 188.64 L 177.52 189.18 L 177.83 189.74 L 176.22 189.50 C 175.18 191.00 173.91 192.29 172.43 193.37 C 172.36 192.04 172.36 190.72 172.44 189.40 C 170.97 191.17 169.07 192.48 167.31 193.93 C 166.77 193.38 166.24 192.82 165.71 192.26 C 168.57 190.32 171.70 188.70 174.20 186.28 C 174.58 186.87 174.96 187.47 175.35 188.07 L 172.81 188.99 C 173.12 189.58 173.44 190.17 173.75 190.76 C 175.90 189.27 177.73 187.31 180.06 186.08 C 180.58 184.81 181.73 184.30 183.00 184.06 C 185.36 181.42 187.42 178.22 190.82 176.85 Z" />
<path fill="#ffffff" opacity="1.00" d=" M 322.10 178.78 C 323.41 178.40 325.20 180.18 324.74 181.51 C 323.47 181.93 321.70 180.05 322.10 178.78 Z" />
<path fill="#ffffff" opacity="1.00" d=" M 221.02 187.76 C 222.47 185.24 223.69 182.31 226.28 180.72 C 224.86 182.30 224.84 183.87 226.23 185.42 L 223.87 183.86 L 224.36 185.33 C 223.52 185.94 221.85 187.15 221.02 187.76 Z" />
<path fill="#ffffff" opacity="1.00" d=" M 306.41 183.13 C 309.00 182.94 309.64 186.22 311.26 187.67 C 312.45 189.71 315.62 191.25 315.51 193.70 C 315.02 193.34 314.05 192.63 313.56 192.27 C 313.10 195.18 315.95 197.10 316.74 199.74 C 313.26 198.65 311.95 194.30 311.19 191.04 C 310.82 190.01 310.07 187.95 309.70 186.92 C 309.24 188.19 309.56 189.74 308.64 190.82 C 307.79 188.87 306.85 186.97 305.89 185.08 L 308.05 185.81 C 307.64 185.14 306.82 183.80 306.41 183.13 M 308.25 186.65 C 308.80 187.00 308.80 187.00 308.25 186.65 Z" />
<path fill="#ffffff" opacity="1.00" d=" M 165.04 189.87 C 168.07 187.58 171.34 185.04 175.16 184.41 C 172.12 186.66 168.93 189.49 165.04 189.87 Z" />
<path fill="#ffffff" opacity="1.00" d=" M 219.53 184.30 C 222.31 183.38 220.10 188.83 218.19 187.64 C 217.54 186.45 218.71 185.09 219.53 184.30 Z" />
<path fill="#ffffff" opacity="1.00" d=" M 302.09 184.06 C 304.75 185.08 305.23 188.66 307.39 190.42 C 307.87 191.18 308.57 191.47 309.49 191.28 C 309.87 194.74 312.22 197.87 314.22 200.72 C 313.25 200.14 312.23 199.69 311.17 199.36 C 309.72 197.27 308.87 194.65 306.36 193.59 C 304.73 190.53 303.51 187.23 302.09 184.06 Z" />
<path fill="#ffffff" opacity="1.00" d=" M 198.15 184.97 C 201.06 184.64 200.46 188.38 200.80 190.24 C 198.79 189.28 198.59 186.89 198.15 184.97 Z" />
<path fill="#ffffff" opacity="1.00" d=" M 225.23 185.25 C 225.85 185.86 225.85 185.86 225.23 185.25 Z" />
<path fill="#ffffff" opacity="1.00" d=" M 271.43 187.83 C 270.37 187.23 270.47 185.72 271.31 185.02 C 271.75 187.87 273.76 190.25 273.66 193.23 C 275.80 193.99 275.03 197.22 276.00 198.96 L 274.49 198.19 C 274.27 198.65 273.83 199.56 273.62 200.02 C 272.00 198.49 272.04 196.24 272.56 194.21 L 271.22 194.59 C 271.73 192.36 271.71 190.09 271.43 187.83 Z" />
<path fill="#ffffff" opacity="1.00" d=" M 284.97 185.30 C 286.30 184.70 287.53 186.74 286.66 187.77 C 285.31 188.70 283.75 186.26 284.97 185.30 Z" />
<path fill="#ffffff" opacity="1.00" d=" M 195.80 186.17 C 196.85 187.13 198.37 188.43 196.78 189.70 C 196.29 193.19 196.19 196.78 195.62 200.29 L 194.42 200.92 C 194.61 198.96 195.07 196.96 194.47 195.02 C 193.15 197.38 193.83 201.14 191.41 202.77 C 191.16 199.90 192.88 197.34 193.57 194.63 L 194.54 194.37 C 194.14 191.53 195.30 188.90 195.80 186.17 Z" />
<path fill="#ffffff" opacity="1.00" d=" M 292.27 187.10 C 293.04 188.10 293.52 189.26 293.92 190.46 C 295.93 191.15 296.43 193.31 297.32 194.99 C 298.28 197.18 300.27 198.69 301.33 200.83 L 302.91 200.02 L 302.12 202.02 C 302.52 202.16 303.33 202.46 303.73 202.61 L 303.15 203.90 C 303.59 203.67 304.47 203.23 304.91 203.00 C 305.88 204.27 306.84 205.56 307.76 206.89 C 307.02 207.11 306.29 207.33 305.56 207.55 C 304.78 206.97 304.00 206.39 303.21 205.83 C 301.43 203.57 300.03 201.02 298.06 198.92 C 297.82 200.87 299.36 202.41 300.18 204.03 C 301.71 206.03 301.93 208.58 302.76 210.88 C 301.02 210.39 300.75 208.34 299.84 207.04 C 297.42 203.25 295.61 199.13 293.87 195.00 C 293.08 193.43 294.13 191.48 292.96 190.04 C 292.45 189.13 292.22 188.15 292.27 187.10 Z" />
<path fill="#ffffff" opacity="1.00" d=" M 197.95 189.83 C 200.65 190.39 199.29 194.22 200.11 196.18 C 199.51 196.52 198.29 197.21 197.69 197.55 C 197.92 194.98 196.92 192.28 197.95 189.83 Z" />
<path fill="#ffffff" opacity="1.00" d=" M 287.09 190.85 C 289.32 191.22 289.59 193.87 290.70 195.44 C 291.68 197.80 293.82 199.92 293.49 202.63 L 294.29 202.50 C 295.14 204.02 295.97 205.59 297.28 206.79 C 296.89 207.57 296.48 208.35 296.07 209.13 C 297.36 210.97 298.70 212.81 299.44 214.97 C 298.79 214.51 297.49 213.59 296.83 213.14 C 297.54 214.84 298.72 216.30 299.57 217.94 C 298.97 217.90 297.78 217.81 297.18 217.77 C 296.18 215.09 293.78 212.94 293.67 209.98 C 291.67 206.79 290.07 203.38 288.29 200.08 C 288.97 200.26 290.33 200.62 291.01 200.80 C 290.94 200.45 290.79 199.75 290.72 199.41 C 290.43 199.46 289.85 199.58 289.56 199.64 C 289.68 199.29 289.91 198.60 290.03 198.25 C 289.06 198.33 288.09 198.40 287.13 198.44 C 287.73 198.29 288.93 197.98 289.53 197.83 C 287.98 195.79 288.33 193.05 287.09 190.85 M 296.19 212.23 C 296.77 212.92 296.77 212.92 296.19 212.23 Z" />
<path fill="#ffffff" opacity="1.00" d=" M 304.27 194.52 C 303.48 193.26 301.32 191.24 303.62 190.17 C 303.90 191.95 305.29 193.16 306.35 194.49 C 308.20 196.63 309.22 199.30 310.54 201.76 C 309.97 202.09 309.40 202.43 308.83 202.76 C 307.12 200.12 305.63 197.35 304.27 194.52 Z" />
<path fill="#ffffff" opacity="1.00" d=" M 211.29 196.99 C 212.15 195.28 213.19 193.68 214.45 192.25 C 214.87 192.87 215.71 194.13 216.13 194.75 L 214.29 194.27 L 213.17 195.40 C 214.35 195.44 215.50 195.63 216.63 195.96 C 217.13 195.31 218.35 192.99 219.21 194.36 C 219.30 196.12 219.68 197.82 220.34 199.45 C 219.55 199.00 218.76 198.56 217.97 198.13 C 218.26 197.09 218.54 196.06 218.82 195.03 C 217.67 196.10 217.39 197.56 217.68 199.07 C 216.21 201.56 215.19 204.30 213.69 206.78 C 214.08 207.44 214.48 208.09 214.89 208.75 C 214.87 205.58 217.76 203.11 217.51 199.95 C 218.05 199.91 219.12 199.82 219.66 199.78 C 217.97 203.83 216.89 208.55 213.67 211.75 C 213.11 210.68 212.89 209.47 212.23 208.47 C 212.86 206.78 212.55 204.96 212.26 203.24 C 213.60 200.96 214.91 198.68 216.20 196.38 C 214.56 196.62 212.93 196.83 211.29 196.99 Z" />
<path fill="#ffffff" opacity="1.00" d=" M 171.23 192.17 C 171.62 192.79 172.01 193.41 172.41 194.03 C 170.90 195.25 169.24 196.31 167.27 196.53 C 168.10 194.69 169.95 193.64 171.23 192.17 Z" />
<path fill="#ffffff" opacity="1.00" d=" M 249.53 200.06 C 250.05 197.75 248.28 193.53 251.58 193.01 C 250.78 195.23 251.69 198.70 249.53 200.06 Z" />
<path fill="#ffffff" opacity="1.00" d=" M 254.56 194.24 C 255.33 193.91 256.88 193.24 257.65 192.90 C 257.74 197.17 260.11 200.98 260.94 205.13 C 261.11 205.31 261.47 205.67 261.64 205.86 C 261.61 204.89 261.55 202.95 261.51 201.98 L 262.66 202.62 C 262.62 203.42 262.55 205.02 262.51 205.82 C 263.29 205.72 264.85 205.51 265.63 205.41 C 265.60 206.08 265.55 207.42 265.52 208.09 C 266.37 208.83 266.81 209.81 266.82 211.03 C 267.53 211.87 267.95 212.84 268.07 213.95 L 266.89 212.00 C 266.41 212.74 265.92 213.48 265.44 214.23 C 266.22 215.30 266.65 216.50 266.71 217.82 C 264.82 216.09 264.77 213.32 264.05 211.04 C 263.65 211.49 262.84 212.40 262.44 212.85 C 261.58 210.95 261.55 208.83 260.93 206.90 C 259.08 207.24 258.78 208.33 260.04 210.17 C 259.39 210.19 258.74 210.22 258.09 210.24 C 256.32 206.36 258.66 201.85 256.73 198.14 C 256.68 196.94 256.64 195.75 256.62 194.55 L 254.56 194.24 M 259.19 204.28 L 258.73 204.85 C 259.43 207.33 261.85 204.06 259.19 204.28 M 264.10 206.22 C 264.06 206.89 263.96 208.24 263.92 208.91 C 264.17 209.58 264.66 210.92 264.91 211.60 C 265.21 211.61 265.82 211.63 266.12 211.64 C 265.71 209.90 265.28 207.33 264.10 206.22 Z" />
<path fill="#ffffff" opacity="1.00" d=" M 173.53 205.65 C 176.64 201.36 179.94 197.20 183.24 193.06 C 183.07 196.79 180.23 199.61 178.64 202.82 L 177.06 201.64 L 177.24 203.42 L 175.66 203.77 C 176.01 204.32 176.38 204.87 176.76 205.42 C 175.85 208.02 174.39 210.37 172.68 212.52 C 172.39 212.51 171.81 212.49 171.52 212.49 C 172.77 211.05 173.42 208.82 175.38 208.19 C 174.83 207.30 174.42 206.27 173.53 205.65 Z" />
<path fill="#ffffff" opacity="1.00" d=" M 185.78 196.68 C 186.09 195.71 186.43 194.76 186.80 193.81 C 186.72 195.46 186.53 197.09 186.23 198.72 C 186.65 198.70 187.49 198.66 187.91 198.64 C 188.09 201.12 186.70 203.30 186.54 205.74 L 184.33 205.94 C 184.30 205.01 184.24 203.14 184.21 202.20 L 185.61 202.61 C 185.74 201.56 186.00 199.46 186.13 198.41 L 184.80 202.09 C 183.48 200.32 184.22 198.22 184.52 196.27 L 185.78 196.68 Z" />
<path fill="#ffffff" opacity="1.00" d=" M 254.39 204.86 C 254.48 201.96 252.79 197.73 255.62 195.77 C 255.57 198.65 255.66 201.54 255.55 204.43 C 255.26 204.54 254.68 204.75 254.39 204.86 Z" />
<path fill="#ffffff" opacity="1.00" d=" M 221.04 199.02 C 221.72 198.28 222.43 197.57 223.15 196.86 C 223.17 197.38 223.22 198.40 223.24 198.91 L 224.80 198.07 C 225.00 198.60 225.38 199.66 225.57 200.19 C 222.88 199.68 224.50 203.14 224.41 204.47 C 224.11 204.48 223.50 204.51 223.20 204.52 C 222.87 206.25 222.24 207.90 221.60 209.54 C 221.14 208.34 220.69 207.14 220.19 205.96 L 218.99 208.75 C 219.10 205.38 221.20 202.43 221.04 199.02 M 222.55 198.88 C 222.30 201.34 221.53 203.70 220.59 205.98 C 220.95 205.96 221.68 205.91 222.04 205.89 C 222.52 203.57 223.03 201.25 222.55 198.88 Z" />
<path fill="#ffffff" opacity="1.00" d=" M 210.57 201.41 C 211.61 200.22 211.94 196.71 213.90 197.38 C 213.69 198.65 212.12 203.18 210.57 201.41 Z" />
<path fill="#ffffff" opacity="1.00" d=" M 180.69 201.70 C 181.32 200.03 182.92 198.04 183.98 200.73 L 181.95 200.53 C 182.08 201.27 182.34 202.76 182.47 203.50 L 181.18 202.04 C 180.25 204.90 178.91 208.15 176.37 209.91 C 177.27 206.91 179.12 204.36 180.69 201.70 Z" />
<path fill="#ffffff" opacity="1.00" d=" M 226.19 199.58 C 226.87 200.25 226.87 200.25 226.19 199.58 Z" />
<path fill="#ffffff" opacity="1.00" d=" M 226.99 206.17 C 228.17 204.97 226.10 199.49 229.38 200.30 C 229.46 202.15 229.58 204.01 229.80 205.86 L 229.24 205.84 C 229.29 204.74 229.05 203.72 228.51 202.80 C 227.93 204.61 227.54 206.50 226.67 208.21 C 226.13 207.43 225.59 206.66 225.07 205.88 C 224.88 206.86 224.50 208.81 224.31 209.79 C 224.03 209.75 223.48 209.66 223.20 209.62 C 224.65 206.61 224.88 203.29 225.62 200.11 C 225.75 202.19 225.55 204.46 226.99 206.17 Z" />
<path fill="#ffffff" opacity="1.00" d=" M 182.47 203.50 C 182.75 202.64 183.23 202.04 183.91 201.71 C 183.79 203.29 183.54 204.84 183.15 206.35 C 182.68 206.52 181.72 206.86 181.24 207.02 C 181.03 205.72 182.07 204.66 182.47 203.50 Z" />
<path fill="#ffffff" opacity="1.00" d=" M 181.37 210.84 C 181.19 209.66 182.06 207.68 183.36 207.55 C 183.77 208.79 182.81 210.95 181.37 210.84 Z" />
<path fill="#ffffff" opacity="1.00" d=" M 290.07 210.82 C 289.69 209.86 288.95 208.73 290.24 208.28 C 290.34 209.12 290.53 210.79 290.63 211.63 L 291.51 211.36 C 292.00 211.83 292.98 212.77 293.47 213.24 L 292.61 213.86 C 292.24 213.91 291.52 213.99 291.16 214.03 C 291.42 214.61 291.95 215.76 292.21 216.34 C 291.69 216.32 290.64 216.27 290.12 216.25 L 290.77 218.37 C 288.23 217.48 287.92 214.47 286.81 212.39 C 288.22 212.89 288.55 214.69 290.06 215.10 C 289.71 213.79 289.06 212.60 288.33 211.47 C 288.77 211.31 289.64 210.98 290.07 210.82 Z" />
<path fill="#ffffff" opacity="1.00" d=" M 297.91 209.24 C 298.33 209.88 299.18 211.16 299.61 211.80 C 299.18 211.16 298.33 209.88 297.91 209.24 Z" />
<path fill="#ffffff" opacity="1.00" d=" M 299.61 211.80 C 303.12 212.34 298.88 215.00 299.61 211.80 Z" />
<path fill="#ffffff" opacity="1.00" d=" M 292.61 213.86 C 294.01 213.90 295.24 215.69 294.93 217.02 L 294.39 216.93 C 293.18 216.15 292.58 215.13 292.61 213.86 Z" />
<path fill="#ffffff" opacity="1.00" d=" M 299.30 215.57 C 300.05 216.18 300.05 216.18 299.30 215.57 Z" />
<path fill="#ffffff" opacity="1.00" d=" M 291.23 217.80 C 291.78 217.44 292.34 217.08 292.89 216.72 C 294.50 220.13 297.07 223.09 297.94 226.83 C 294.53 224.90 293.21 220.94 291.23 217.80 Z" />
<path fill="#ffffff" opacity="1.00" d=" M 294.93 217.02 C 295.50 217.20 296.62 217.58 297.18 217.77 C 297.50 218.53 297.96 220.03 297.32 220.62 C 296.22 219.86 294.51 218.45 294.93 217.02 Z" />
<path fill="#ffffff" opacity="1.00" d=" M 289.17 217.71 C 292.44 219.89 293.27 224.52 294.96 228.02 C 293.36 226.63 292.00 224.66 291.96 222.49 C 291.39 222.95 290.81 223.41 290.23 223.87 C 290.96 225.19 291.57 226.57 292.07 228.00 C 289.98 226.58 289.48 223.88 289.10 221.57 C 289.46 221.34 290.17 220.88 290.52 220.66 L 289.17 217.71 Z" />
</g>
</svg>
