<?xml version="1.0" encoding="UTF-8" ?>
<!DOCTYPE svg PUBLIC "-//W3C//DTD SVG 1.1//EN" "http://www.w3.org/Graphics/SVG/1.1/DTD/svg11.dtd">
<svg width="512pt" height="256pt" viewBox="0 0 512 256" version="1.1" xmlns="http://www.w3.org/2000/svg">
<g id="#ffffffff">
<path fill="#ffffff" opacity="1.00" d=" M 283.08 33.84 C 285.82 32.97 288.46 31.44 291.40 31.39 C 291.60 33.83 291.33 36.29 291.08 38.72 C 290.60 38.15 290.14 37.57 289.69 36.98 C 290.11 36.25 290.95 34.78 291.36 34.05 C 290.95 33.87 290.12 33.51 289.70 33.33 C 289.58 35.50 288.69 37.72 286.17 37.86 C 286.38 38.47 286.59 39.08 286.81 39.70 C 285.21 40.58 282.43 44.25 281.19 40.97 C 281.40 41.49 281.82 42.52 282.03 43.04 C 281.06 44.44 280.01 45.79 278.73 46.92 C 278.39 48.73 277.97 50.52 277.48 52.30 C 277.10 52.60 276.34 53.21 275.97 53.51 C 274.16 53.40 272.35 53.60 270.56 53.73 C 271.34 53.08 272.90 51.77 273.69 51.11 C 269.37 48.59 266.15 54.43 270.57 55.37 C 269.31 57.44 268.21 59.92 269.79 62.18 L 270.64 58.82 C 270.70 60.34 270.71 61.86 270.66 63.38 C 271.06 62.68 271.87 61.29 272.27 60.59 C 273.45 60.61 274.62 60.60 275.80 60.67 C 275.40 61.76 274.88 62.79 274.24 63.76 C 274.85 63.56 276.07 63.17 276.68 62.97 C 275.10 67.74 280.04 63.09 282.01 65.00 C 281.73 65.78 281.16 67.33 280.88 68.10 C 281.64 67.86 283.16 67.37 283.92 67.13 L 281.63 70.94 C 282.64 70.19 284.66 68.69 285.67 67.94 L 283.82 70.87 C 284.55 70.66 286.00 70.25 286.72 70.04 L 287.42 70.77 C 286.82 71.47 285.64 72.88 285.05 73.59 C 286.72 73.99 288.07 72.80 289.52 72.20 C 288.97 73.34 288.43 74.47 287.90 75.61 C 288.67 75.53 290.21 75.36 290.98 75.28 C 290.80 76.21 290.44 78.07 290.26 79.00 C 291.09 78.74 292.75 78.23 293.58 77.97 C 293.28 78.67 292.68 80.06 292.39 80.76 C 292.89 80.67 293.90 80.49 294.41 80.41 C 295.30 83.99 292.53 86.36 290.36 88.72 C 289.83 88.63 288.75 88.45 288.21 88.36 C 287.47 89.15 285.99 90.73 285.25 91.52 C 286.88 92.21 288.10 90.68 289.41 89.99 C 288.50 91.20 287.73 92.58 286.42 93.42 C 284.93 95.78 284.66 99.02 282.12 100.59 C 282.45 97.65 285.79 95.27 284.46 92.22 C 283.85 93.54 282.91 94.57 281.63 95.31 C 281.74 94.69 281.96 93.45 282.07 92.83 C 281.33 92.67 279.85 92.34 279.11 92.18 C 280.02 90.88 280.89 89.56 281.73 88.22 C 280.24 89.36 278.85 90.63 277.44 91.87 C 277.53 91.05 277.72 89.41 277.81 88.59 C 277.14 88.62 275.81 88.67 275.14 88.69 C 274.50 89.54 273.83 90.37 273.13 91.17 C 273.70 88.16 274.76 85.27 275.88 82.43 C 278.01 81.02 279.52 78.89 280.86 76.75 C 280.35 77.26 279.32 78.27 278.81 78.77 C 278.33 77.98 277.85 77.18 277.36 76.39 L 278.09 79.89 L 275.68 78.33 C 276.30 78.93 276.92 79.54 277.54 80.15 C 275.65 80.47 273.74 80.68 271.83 80.78 C 271.97 77.78 273.88 75.44 275.36 72.99 C 273.51 75.61 269.53 73.55 268.44 76.93 C 269.24 76.41 270.83 75.35 271.63 74.82 C 271.56 77.38 271.40 79.95 271.52 82.51 C 270.21 84.62 268.28 86.49 268.16 89.14 C 266.96 87.64 265.78 85.77 263.55 86.42 L 263.74 83.50 L 261.74 84.87 L 261.32 87.04 C 260.75 86.53 259.62 85.51 259.06 84.99 L 259.71 88.36 C 258.20 85.64 256.85 82.83 255.50 80.02 C 256.09 79.51 256.69 79.03 257.33 78.57 C 257.56 79.47 258.02 81.27 258.25 82.16 C 257.70 79.70 260.87 79.92 262.42 79.67 L 260.99 76.42 C 261.46 76.38 262.41 76.30 262.88 76.27 C 263.02 76.83 263.31 77.97 263.45 78.54 C 263.67 78.41 264.09 78.13 264.31 78.00 C 264.38 77.59 264.53 76.78 264.60 76.37 C 263.64 75.34 262.92 74.14 262.62 72.75 C 262.12 73.76 261.63 74.78 261.16 75.80 C 259.10 72.86 258.48 69.07 261.26 66.42 L 261.70 68.05 C 262.09 67.54 262.50 67.03 262.93 66.54 L 261.78 66.44 C 261.20 63.07 260.02 59.83 259.21 56.50 C 260.18 57.37 261.13 58.24 262.08 59.13 C 262.16 58.24 262.31 56.48 262.39 55.59 C 262.73 57.41 262.98 59.25 263.31 61.07 C 264.26 59.74 265.20 58.40 266.09 57.03 C 266.30 58.02 266.71 60.00 266.92 60.99 C 267.98 59.30 268.99 57.29 268.66 55.23 C 266.88 56.40 264.58 55.45 264.13 53.50 C 263.27 53.69 261.56 54.06 260.71 54.24 C 259.77 53.45 258.85 52.63 258.15 51.61 C 255.51 51.73 252.88 51.71 250.25 51.75 L 250.99 50.30 C 249.27 51.03 247.50 51.14 245.69 50.63 C 244.82 51.11 243.95 51.59 243.09 52.07 C 244.67 48.85 248.55 49.12 251.54 48.40 C 251.81 48.83 252.34 49.68 252.61 50.10 C 254.87 49.39 257.24 49.41 259.57 49.69 C 259.48 50.24 259.31 51.34 259.22 51.89 C 262.14 51.63 264.38 49.96 266.21 47.79 C 261.82 47.61 257.48 46.16 253.13 47.47 C 253.01 47.21 252.78 46.68 252.67 46.41 C 256.74 45.36 260.56 43.52 264.30 41.62 C 265.15 39.47 267.76 39.29 269.52 38.24 C 273.74 35.94 278.64 35.54 283.08 33.84 M 263.16 51.20 C 264.06 51.84 264.99 52.44 265.96 53.01 C 267.67 52.44 269.18 51.47 270.49 50.12 C 269.65 50.16 267.96 50.24 267.12 50.28 L 266.11 49.66 C 265.37 50.04 263.90 50.81 263.16 51.20 M 267.82 62.33 C 267.88 62.82 268.01 63.82 268.07 64.31 C 270.03 65.50 269.40 60.95 267.82 62.33 M 275.35 76.16 C 275.72 76.88 275.72 76.88 275.35 76.16 Z" />
<path fill="#ffffff" opacity="1.00" d=" M 211.89 39.52 C 212.41 39.13 212.93 38.74 213.46 38.36 L 213.59 39.45 C 214.83 39.15 216.01 39.28 217.11 39.83 C 217.59 41.26 218.07 42.69 218.72 44.05 L 220.14 42.74 C 221.17 43.54 222.23 44.30 223.33 45.02 C 225.16 49.27 228.03 52.97 229.42 57.43 C 228.63 56.50 227.04 54.65 226.25 53.73 C 223.95 49.64 222.04 43.21 216.09 44.19 L 217.16 46.24 C 217.70 46.43 218.77 46.81 219.31 47.00 C 215.38 47.85 211.59 49.14 207.91 50.76 C 211.81 50.10 215.68 49.16 219.67 49.25 C 220.80 50.19 221.96 51.13 223.14 52.02 C 223.70 53.22 224.26 54.41 224.83 55.61 C 224.05 55.56 222.50 55.45 221.72 55.40 C 222.85 56.47 224.44 56.24 225.86 56.31 L 225.77 57.01 C 227.52 57.45 228.90 58.39 229.89 59.85 C 227.79 59.67 225.69 59.49 223.59 59.31 C 226.15 60.80 228.84 62.04 231.29 63.73 C 230.78 62.19 229.76 59.11 229.26 57.57 C 233.71 60.13 231.03 65.71 231.64 69.81 C 227.36 69.18 223.20 67.99 218.95 67.26 C 216.58 65.63 213.56 65.26 210.88 64.28 C 213.02 65.65 215.46 66.45 217.86 67.24 C 214.46 69.15 210.81 66.12 207.36 65.60 C 207.50 65.22 207.80 64.46 207.95 64.08 L 206.61 64.66 C 205.80 63.70 204.99 62.74 204.19 61.77 C 205.68 61.12 206.95 60.13 208.07 58.96 C 209.76 58.93 211.43 59.08 213.10 59.41 C 211.51 60.93 209.26 60.54 207.28 60.76 C 207.79 62.35 208.84 63.41 210.44 63.95 C 209.76 62.34 210.30 61.37 212.07 61.04 C 213.30 58.80 216.22 59.98 218.30 59.33 C 214.05 57.69 209.37 57.85 205.07 56.39 L 204.13 54.20 C 205.17 54.30 207.24 54.50 208.27 54.60 C 210.85 55.46 213.38 56.51 216.09 56.92 C 214.23 56.06 211.58 56.06 210.94 53.70 C 208.93 52.98 206.46 53.38 204.69 51.88 L 203.78 53.52 C 203.68 51.73 203.50 49.95 203.39 48.17 C 203.12 48.25 202.58 48.40 202.30 48.48 C 202.52 47.26 202.61 46.03 202.38 44.80 C 204.60 43.53 207.77 42.51 209.94 44.40 L 209.71 42.69 C 212.55 42.34 215.17 43.54 217.91 44.01 C 217.58 43.37 216.92 42.10 216.59 41.46 C 214.99 40.89 213.45 40.19 211.89 39.52 M 229.78 63.82 L 229.43 64.59 C 230.17 67.19 232.19 63.22 229.78 63.82 Z" />
<path fill="#ffffff" opacity="1.00" d=" M 198.50 43.00 C 199.98 41.64 201.40 40.22 202.88 38.85 C 202.79 39.75 204.38 41.17 203.11 41.78 C 199.58 44.40 196.67 47.80 194.58 51.66 C 193.47 54.34 193.88 57.26 193.47 60.05 C 191.59 67.96 194.30 75.99 192.79 83.99 C 190.99 82.60 191.12 80.53 191.50 78.51 L 190.60 78.81 C 191.08 76.71 191.46 74.56 192.36 72.58 C 188.95 71.43 192.96 67.59 190.65 65.80 C 190.40 61.65 190.00 57.44 191.01 53.36 C 192.22 51.49 193.44 49.62 194.63 47.73 C 195.89 46.13 197.08 44.47 198.50 43.00 Z" />
<path fill="#ffffff" opacity="1.00" d=" M 288.19 38.92 C 288.61 39.73 289.03 40.54 289.44 41.36 C 287.66 43.10 285.48 44.72 285.04 47.35 L 287.00 48.11 C 286.01 48.40 285.00 48.22 284.04 47.95 C 282.71 49.45 281.49 51.07 280.75 52.96 C 280.37 52.21 280.00 51.46 279.64 50.71 C 280.48 49.58 281.33 48.45 282.14 47.30 C 282.11 43.52 287.27 42.55 288.19 38.92 Z" />
<path fill="#ffffff" opacity="1.00" d=" M 233.59 49.03 C 233.91 51.59 237.10 52.74 238.68 50.37 C 238.92 50.82 239.40 51.73 239.64 52.19 C 240.11 51.57 241.06 50.32 241.53 49.70 C 241.20 50.44 240.55 51.93 240.23 52.68 C 240.94 52.53 242.37 52.22 243.09 52.07 C 242.90 53.44 242.53 56.18 242.34 57.56 L 243.93 56.12 C 244.05 55.36 244.27 53.84 244.39 53.08 C 244.82 53.89 245.25 54.70 245.69 55.51 L 247.81 54.31 C 247.16 56.27 246.47 58.21 246.09 60.24 C 247.84 57.84 249.44 55.09 252.81 55.04 C 251.41 57.31 250.25 59.72 248.91 62.02 C 248.31 61.71 247.13 61.09 246.54 60.78 C 247.57 64.36 243.00 61.97 241.18 62.74 C 241.39 61.03 241.92 59.37 242.46 57.74 C 241.88 57.26 240.73 56.29 240.15 55.81 C 239.74 56.76 239.32 57.71 238.90 58.65 C 238.27 58.94 237.00 59.51 236.37 59.80 C 236.09 59.42 235.54 58.66 235.26 58.28 C 235.06 59.00 234.66 60.44 234.46 61.15 C 232.71 57.49 229.62 54.50 228.60 50.50 C 229.40 51.21 230.99 52.63 231.78 53.34 C 231.64 52.41 231.37 50.54 231.23 49.61 C 231.88 50.49 232.55 51.37 233.22 52.25 L 233.59 49.03 Z" />
<path fill="#ffffff" opacity="1.00" d=" M 200.86 51.23 C 201.10 50.83 201.58 50.04 201.82 49.65 C 204.07 49.60 201.84 53.36 200.86 51.23 Z" />
<path fill="#ffffff" opacity="1.00" d=" M 282.77 50.77 C 284.77 52.19 283.43 55.87 281.50 56.77 C 281.28 58.97 279.98 60.81 279.17 62.80 C 278.41 61.78 276.34 61.03 277.65 59.42 C 276.27 59.43 275.49 58.75 275.29 57.37 C 276.06 57.06 277.60 56.45 278.37 56.14 C 277.54 56.32 275.89 56.68 275.06 56.86 C 274.70 56.32 274.35 55.78 273.99 55.24 C 274.88 55.10 276.65 54.83 277.54 54.69 L 277.80 53.41 C 278.43 54.00 279.05 54.60 279.67 55.20 C 280.64 54.52 281.63 53.87 282.66 53.27 C 282.68 52.65 282.74 51.40 282.77 50.77 Z" />
<path fill="#ffffff" opacity="1.00" d=" M 201.37 53.37 C 201.65 53.66 201.65 53.66 201.37 53.37 Z" />
<path fill="#ffffff" opacity="1.00" d=" M 195.30 59.83 C 195.52 58.22 195.70 56.62 195.89 55.01 C 196.33 55.28 197.21 55.81 197.65 56.08 C 197.82 57.88 198.15 59.67 198.51 61.45 C 197.83 61.91 197.16 62.39 196.51 62.87 C 199.42 62.77 198.02 66.12 198.61 67.79 C 200.13 71.05 197.63 74.29 198.74 77.57 C 199.88 79.42 198.50 80.06 197.07 80.45 C 196.57 79.20 196.04 77.97 195.48 76.75 C 196.27 75.96 197.92 75.58 197.82 74.21 C 196.92 73.59 195.38 73.33 195.67 71.91 C 195.95 67.89 194.09 63.39 196.25 59.73 L 195.30 59.83 Z" />
<path fill="#ffffff" opacity="1.00" d=" M 251.88 59.73 C 251.79 58.28 252.88 55.99 254.32 55.57 C 254.68 57.11 253.37 59.28 251.88 59.73 Z" />
<path fill="#ffffff" opacity="1.00" d=" M 255.98 59.19 C 256.50 58.86 257.54 58.20 258.07 57.87 C 258.62 59.73 258.92 61.79 260.28 63.28 C 260.27 64.17 261.60 65.81 260.19 66.28 C 259.28 66.54 258.36 66.72 257.43 66.84 C 259.76 68.22 257.26 71.79 255.49 69.08 L 256.22 70.09 C 256.91 70.15 258.29 70.26 258.98 70.32 C 258.46 70.93 257.41 72.15 256.89 72.76 C 257.63 72.33 258.38 71.92 259.14 71.51 C 258.69 74.27 259.89 76.82 260.67 79.37 C 260.09 79.40 258.92 79.45 258.34 79.48 C 257.81 77.87 256.64 76.67 255.28 75.75 C 255.28 77.05 255.29 78.36 255.31 79.67 L 254.05 79.33 C 257.03 81.99 256.28 85.94 257.05 89.47 C 255.66 88.24 254.62 86.69 253.69 85.10 C 252.67 85.92 251.40 85.53 250.24 85.35 C 249.46 84.12 248.68 82.88 248.02 81.59 L 247.48 81.60 C 247.89 78.54 244.92 75.62 247.16 72.79 C 247.31 75.27 248.59 77.35 250.44 78.94 C 250.45 80.20 250.49 81.47 250.57 82.73 C 251.39 81.12 251.53 79.33 251.78 77.57 C 249.96 74.43 247.96 71.39 245.75 68.50 C 248.05 71.84 249.51 67.66 251.87 68.21 C 252.53 68.84 253.86 70.08 254.52 70.70 C 253.92 69.13 253.18 67.62 252.30 66.18 L 252.88 65.72 L 253.54 65.21 C 253.91 65.68 254.64 66.62 255.00 67.09 C 254.22 65.50 253.37 63.92 252.80 62.24 C 255.94 61.31 257.00 64.23 257.08 66.75 C 257.65 66.05 258.24 65.35 258.82 64.66 C 257.89 62.82 256.92 61.01 255.98 59.19 Z" />
<path fill="#ffffff" opacity="1.00" d=" M 185.58 60.39 C 186.28 61.00 186.97 61.62 187.67 62.24 C 187.48 62.77 187.09 63.83 186.90 64.36 C 185.94 64.98 184.93 65.32 183.86 65.37 C 183.06 64.93 182.35 64.38 181.72 63.72 C 183.21 62.88 184.79 62.00 185.58 60.39 Z" />
<path fill="#ffffff" opacity="1.00" d=" M 235.10 61.92 C 236.78 63.07 238.45 64.26 239.94 65.67 C 240.62 65.59 241.98 65.43 242.67 65.35 C 242.58 66.06 242.40 67.47 242.31 68.17 C 242.61 67.69 243.22 66.72 243.52 66.24 C 243.93 66.29 244.76 66.39 245.17 66.44 C 245.00 68.79 247.52 70.78 246.06 73.04 C 244.30 72.72 243.18 71.38 242.27 69.96 C 242.38 70.70 242.58 72.19 242.68 72.94 C 240.99 72.06 240.17 70.45 239.50 68.78 C 239.37 69.61 239.12 71.26 238.99 72.08 L 238.39 72.06 C 236.71 69.67 234.49 67.67 233.30 64.96 C 234.63 65.60 235.87 66.39 236.94 67.42 C 236.19 65.63 235.59 63.79 235.10 61.92 Z" />
<path fill="#ffffff" opacity="1.00" d=" M 249.91 65.10 C 247.44 62.95 254.12 63.03 252.88 65.72 C 251.85 65.91 250.86 65.70 249.91 65.10 Z" />
<path fill="#ffffff" opacity="1.00" d=" M 178.65 66.39 C 180.03 66.14 181.47 65.33 182.82 66.17 C 183.36 67.46 182.23 68.46 181.67 69.50 C 180.89 69.65 179.32 69.96 178.53 70.12 C 179.15 70.27 180.38 70.57 181.00 70.73 C 181.07 74.10 177.72 75.06 175.75 77.10 C 177.73 76.27 179.65 75.30 181.65 74.50 C 180.17 76.38 178.77 78.35 177.01 80.00 C 178.26 79.48 179.53 79.00 180.82 78.57 C 177.86 82.32 173.82 85.08 170.12 88.05 C 170.75 86.42 171.31 84.76 171.30 82.99 C 172.18 81.58 173.80 80.49 173.39 78.59 C 174.39 77.58 174.41 76.14 174.72 74.85 C 176.24 73.88 179.11 73.09 176.76 71.19 C 178.90 70.43 178.52 68.22 178.65 66.39 Z" />
<path fill="#ffffff" opacity="1.00" d=" M 203.53 66.43 C 208.03 67.66 212.60 68.70 217.21 69.40 C 218.05 68.06 219.25 67.54 220.82 67.95 L 220.89 68.55 C 220.27 68.48 219.01 68.32 218.39 68.24 L 218.31 70.00 C 220.19 69.86 222.09 69.71 223.98 69.54 C 226.63 70.37 229.45 70.63 231.95 71.96 L 231.38 70.17 C 231.92 70.93 232.46 71.68 233.01 72.44 C 232.40 72.38 231.18 72.27 230.58 72.22 C 230.92 73.57 231.29 74.92 231.68 76.27 C 235.96 76.28 238.27 80.48 240.25 83.66 L 240.87 81.49 C 238.12 80.55 236.74 77.79 235.09 75.63 C 235.84 75.53 237.33 75.32 238.08 75.21 C 240.32 79.57 243.58 83.48 244.81 88.29 C 245.75 89.72 246.95 88.88 248.01 88.12 C 248.43 90.46 250.87 92.16 250.62 94.55 C 248.68 95.69 247.95 92.47 246.86 91.50 C 246.37 91.96 245.89 92.42 245.41 92.88 C 246.17 94.13 246.84 95.46 247.48 96.79 C 246.52 96.45 244.58 95.79 243.61 95.45 C 243.76 96.17 244.06 97.59 244.21 98.31 C 241.93 98.01 239.91 96.30 238.94 94.26 C 238.08 90.81 234.73 89.01 232.46 86.55 C 230.72 86.73 229.26 85.82 227.82 85.01 C 228.37 86.10 228.91 87.19 229.46 88.27 C 229.88 88.39 230.72 88.62 231.13 88.73 C 231.65 89.93 232.19 91.11 232.72 92.31 C 232.98 92.49 233.50 92.86 233.76 93.04 C 233.18 93.28 232.02 93.77 231.43 94.01 C 230.46 92.88 229.26 91.91 228.54 90.59 C 228.33 84.35 220.12 83.82 217.84 78.77 C 218.63 78.45 219.43 78.14 220.23 77.84 C 222.15 79.05 224.06 80.41 226.34 80.87 C 226.31 81.25 226.26 82.00 226.24 82.38 C 227.31 82.75 228.33 83.24 229.30 83.84 C 230.67 83.06 232.27 83.21 233.79 83.07 C 232.44 81.87 231.17 80.53 229.49 79.80 C 230.31 79.25 231.17 78.74 232.04 78.25 C 230.51 77.31 229.29 76.01 228.22 74.59 C 224.70 74.14 221.52 72.53 218.21 71.37 C 214.21 69.83 209.49 70.36 206.03 67.49 C 205.38 67.47 204.08 67.43 203.43 67.41 C 203.46 67.17 203.50 66.68 203.53 66.43 M 233.15 77.72 C 233.83 79.40 233.18 81.25 233.72 82.92 C 234.92 84.20 236.23 85.35 237.53 86.53 C 236.53 86.27 235.54 86.00 234.55 85.73 C 234.17 85.29 233.42 84.41 233.04 83.97 C 233.29 85.34 234.09 86.49 235.59 86.61 C 236.67 89.68 239.51 91.46 241.81 93.54 L 240.36 90.05 L 242.34 90.73 C 241.49 88.65 240.23 86.81 238.95 84.98 C 238.16 83.74 237.42 82.47 236.73 81.18 C 235.51 80.05 234.30 78.91 233.15 77.72 M 242.53 87.86 C 242.67 89.20 243.31 90.29 244.47 91.13 C 244.86 91.11 245.63 91.07 246.02 91.05 C 245.09 89.86 244.07 88.23 242.53 87.86 Z" />
<path fill="#ffffff" opacity="1.00" d=" M 246.38 66.78 C 245.79 64.90 249.42 65.40 248.62 67.08 C 248.06 67.00 246.94 66.85 246.38 66.78 Z" />
<path fill="#ffffff" opacity="1.00" d=" M 249.92 66.10 C 253.35 66.42 248.33 69.07 249.92 66.10 Z" />
<path fill="#ffffff" opacity="1.00" d=" M 187.13 74.00 C 184.32 71.71 186.45 68.06 188.96 66.68 C 188.77 67.31 188.37 68.56 188.17 69.19 C 188.86 70.91 187.90 72.50 187.13 74.00 Z" />
<path fill="#ffffff" opacity="1.00" d=" M 201.67 69.26 C 207.76 70.65 213.83 72.23 220.08 72.68 C 222.72 73.61 225.51 74.30 227.72 76.11 C 227.52 76.65 227.12 77.73 226.92 78.28 C 227.63 78.99 229.05 80.42 229.76 81.14 C 229.26 81.01 228.26 80.75 227.76 80.62 C 224.74 77.85 220.74 75.92 216.69 75.28 C 215.77 74.70 214.79 74.26 213.75 73.96 C 215.20 75.46 217.04 76.51 219.02 77.17 C 217.94 77.74 216.85 78.31 215.78 78.90 L 217.76 78.37 L 217.88 79.64 C 217.03 79.68 215.34 79.77 214.50 79.81 C 216.60 82.99 221.46 82.88 223.25 86.28 L 221.54 87.23 C 219.52 85.87 217.32 84.82 214.99 84.10 C 213.41 83.85 211.84 83.52 210.40 82.82 C 208.48 83.54 205.67 79.92 205.10 82.81 C 208.68 85.68 213.07 87.34 217.32 88.99 C 216.61 89.12 215.19 89.39 214.48 89.52 C 214.58 90.20 214.79 91.57 214.89 92.25 C 212.90 91.27 210.17 92.72 210.02 94.93 C 207.93 93.81 205.87 92.61 204.13 90.98 C 203.01 90.25 201.89 89.53 200.79 88.79 C 200.79 86.95 199.81 85.40 199.08 83.79 C 200.14 84.86 200.96 86.14 201.68 87.46 C 204.47 89.24 207.91 90.10 210.09 92.72 C 209.96 91.66 209.85 90.61 209.76 89.55 L 209.07 90.25 C 206.44 88.27 203.50 86.55 201.49 83.89 L 201.84 82.92 C 202.32 82.65 203.28 82.10 203.76 81.82 C 202.51 81.45 201.25 81.08 200.01 80.71 C 201.63 80.51 203.27 80.31 204.92 80.30 L 204.30 77.87 C 205.95 78.37 207.57 78.99 209.19 79.56 C 208.21 78.46 207.14 77.45 205.89 76.67 C 205.19 75.82 204.51 74.96 203.82 74.11 C 203.72 73.17 203.63 72.23 203.55 71.30 C 203.08 70.79 202.14 69.77 201.67 69.26 M 207.81 75.22 C 208.47 76.30 209.46 76.93 210.78 77.13 C 210.66 77.58 210.43 78.47 210.31 78.92 C 211.08 75.93 214.22 78.79 216.05 78.56 C 214.18 75.77 210.84 75.50 207.81 75.22 Z" />
<path fill="#ffffff" opacity="1.00" d=" M 233.82 68.84 C 236.40 69.99 237.58 72.72 239.11 74.90 C 236.11 74.42 234.99 71.23 233.82 68.84 Z" />
<path fill="#ffffff" opacity="1.00" d=" M 170.79 72.56 C 171.64 71.92 172.52 71.31 173.41 70.71 C 172.96 74.88 169.46 77.50 165.48 77.94 C 166.51 75.61 167.09 72.69 169.93 71.88 C 169.82 72.80 169.59 74.63 169.48 75.54 C 169.94 74.56 170.38 73.57 170.79 72.56 Z" />
<path fill="#ffffff" opacity="1.00" d=" M 238.99 72.08 L 239.55 71.94 C 242.40 72.33 244.03 74.54 245.33 76.90 C 244.72 77.06 243.50 77.37 242.90 77.53 C 244.06 77.44 245.23 77.34 246.40 77.24 C 246.18 78.19 245.74 80.10 245.51 81.05 C 241.88 79.87 239.84 76.18 238.74 72.81 L 238.99 72.08 Z" />
<path fill="#ffffff" opacity="1.00" d=" M 161.60 75.74 C 162.88 75.12 164.14 74.46 165.43 73.86 C 164.71 76.05 163.22 77.84 161.93 79.71 C 160.69 79.69 159.45 79.68 158.21 79.70 C 159.24 78.44 160.00 76.80 161.68 76.29 L 161.60 75.74 Z" />
<path fill="#ffffff" opacity="1.00" d=" M 163.98 83.06 C 164.33 79.82 167.85 79.34 170.19 78.08 C 169.03 80.39 167.73 82.80 165.52 84.28 C 164.33 84.36 163.15 84.21 161.96 84.16 C 161.45 84.67 160.43 85.68 159.92 86.19 C 160.65 84.53 161.72 81.29 163.98 83.06 Z" />
<path fill="#ffffff" opacity="1.00" d=" M 312.21 95.24 C 319.11 89.36 325.89 83.24 333.36 78.07 C 326.30 85.10 317.23 90.14 311.36 98.41 C 310.15 99.46 308.74 100.20 307.27 100.82 C 307.57 103.46 308.83 105.91 308.68 108.61 C 311.14 106.24 314.84 107.01 317.86 107.50 C 321.88 109.96 327.51 107.79 331.28 110.71 C 326.60 109.50 321.78 109.27 317.01 108.66 C 313.68 108.75 310.13 108.11 307.02 109.64 L 308.84 110.85 C 308.94 111.26 309.13 112.08 309.23 112.50 C 308.76 112.34 307.82 112.02 307.35 111.86 C 306.21 110.20 304.92 108.65 303.78 106.98 C 304.37 107.42 305.54 108.29 306.13 108.73 C 306.56 108.14 307.00 107.55 307.44 106.96 C 304.05 106.67 303.89 102.79 303.40 100.23 C 302.86 99.10 301.64 97.95 302.38 96.62 C 303.31 95.69 304.37 94.90 305.39 94.07 C 305.44 94.52 305.55 95.41 305.60 95.86 C 306.49 97.06 306.95 98.42 306.99 99.91 C 309.59 100.04 310.24 96.51 312.21 95.24 Z" />
<path fill="#ffffff" opacity="1.00" d=" M 185.54 81.12 C 186.04 80.33 186.56 79.56 187.11 78.79 C 187.38 79.59 187.92 81.19 188.19 81.99 C 190.60 82.99 190.86 85.75 190.28 88.01 C 189.10 87.00 187.99 85.92 186.78 84.95 L 186.20 83.18 L 188.00 83.73 C 187.14 82.90 186.02 82.27 185.54 81.12 Z" />
<path fill="#ffffff" opacity="1.00" d=" M 243.57 81.40 C 244.18 81.37 245.41 81.31 246.02 81.28 C 246.07 85.23 252.65 85.03 251.56 88.94 C 248.68 86.63 244.72 85.34 243.57 81.40 Z" />
<path fill="#ffffff" opacity="1.00" d=" M 272.15 81.11 L 275.57 81.07 C 274.16 83.78 272.85 86.54 271.42 89.24 C 270.45 88.67 269.48 88.14 268.64 87.40 L 270.73 87.73 C 271.56 85.61 273.30 83.49 272.15 81.11 Z" />
<path fill="#ffffff" opacity="1.00" d=" M 173.73 85.96 C 175.42 84.58 177.17 83.28 178.96 82.03 C 179.30 83.90 179.86 85.72 180.61 87.47 L 179.35 88.62 C 179.89 88.92 180.96 89.52 181.50 89.82 C 180.25 91.29 178.94 92.73 177.35 93.86 C 177.85 93.12 178.85 91.64 179.35 90.90 C 178.97 90.57 178.60 90.24 178.23 89.92 C 176.15 93.54 172.50 95.81 169.40 98.46 C 170.33 98.65 171.26 98.81 172.21 98.94 C 171.44 100.07 170.67 101.63 169.18 101.84 C 169.08 101.28 168.87 100.17 168.77 99.62 C 167.99 100.86 167.02 101.92 165.86 102.81 C 167.48 99.31 169.96 96.10 172.91 93.59 C 172.60 92.86 172.28 92.14 171.98 91.41 C 172.98 90.23 173.98 89.04 174.95 87.83 C 175.71 87.38 176.48 86.93 177.26 86.48 C 176.58 86.54 175.24 86.65 174.56 86.71 L 173.73 85.96 Z" />
<path fill="#ffffff" opacity="1.00" d=" M 193.89 83.04 C 194.98 83.53 196.07 84.03 197.17 84.51 C 196.59 86.46 195.78 88.37 194.15 89.69 C 192.79 89.22 191.43 88.77 190.07 88.34 C 191.71 86.86 192.82 84.94 193.89 83.04 Z" />
<path fill="#ffffff" opacity="1.00" d=" M 294.61 87.05 C 296.60 83.80 300.97 85.67 300.70 89.25 C 302.71 89.52 303.30 91.72 304.46 93.05 C 303.56 94.16 302.52 95.15 301.50 96.14 C 300.63 95.06 300.16 93.16 298.40 93.59 C 298.58 92.77 298.75 91.96 298.90 91.14 L 301.09 91.38 C 300.33 91.00 299.59 90.62 298.84 90.25 C 297.35 90.94 295.71 90.49 294.15 90.63 C 294.28 91.57 294.56 93.45 294.70 94.39 L 296.74 93.00 C 296.62 93.94 296.37 95.83 296.25 96.78 L 297.06 97.41 L 295.11 100.16 C 295.92 99.72 297.56 98.84 298.37 98.40 C 299.13 99.07 299.95 99.73 300.77 100.35 C 298.98 100.38 297.18 100.60 295.62 101.53 C 299.49 100.16 301.14 104.42 301.87 107.35 C 301.03 107.27 299.36 107.09 298.53 107.01 L 298.54 108.18 C 299.79 108.45 301.04 108.77 302.21 109.32 C 300.24 109.48 298.05 109.12 296.60 110.79 C 296.88 111.38 297.42 112.55 297.69 113.13 C 295.33 111.45 294.21 113.92 292.26 114.56 L 292.84 116.13 C 291.80 115.64 290.77 115.15 289.74 114.67 C 289.94 114.23 290.33 113.37 290.53 112.94 C 289.68 112.44 288.86 111.93 288.04 111.40 C 289.74 110.89 291.45 111.26 293.13 111.67 C 292.58 112.22 291.48 113.33 290.93 113.88 C 291.45 113.84 292.49 113.76 293.01 113.72 C 293.13 113.06 293.37 111.73 293.49 111.06 C 292.52 110.74 291.55 110.42 290.60 110.10 C 291.29 109.53 292.66 108.40 293.35 107.84 C 290.93 106.67 288.39 107.90 285.95 108.22 C 286.78 107.35 287.61 106.50 288.45 105.65 C 289.04 105.69 290.21 105.77 290.79 105.81 C 292.24 104.39 293.68 102.96 295.03 101.45 C 292.84 101.95 290.67 102.70 288.39 102.23 L 288.77 103.65 C 288.27 103.52 287.25 103.26 286.75 103.13 L 286.83 102.04 L 285.76 102.51 C 285.64 101.49 285.50 100.48 285.37 99.47 C 286.90 94.87 290.23 91.33 293.69 88.07 C 293.55 89.28 293.27 91.70 293.13 92.91 C 293.87 91.02 294.43 89.07 294.61 87.05 M 294.49 104.84 C 295.01 104.66 296.05 104.31 296.56 104.14 C 296.54 102.49 293.40 103.54 294.49 104.84 Z" />
<path fill="#ffffff" opacity="1.00" d=" M 309.88 90.97 C 312.20 88.82 314.37 86.46 317.05 84.74 C 313.61 88.32 310.39 92.08 307.34 96.01 C 306.96 93.92 308.64 92.39 309.88 90.97 Z" />
<path fill="#ffffff" opacity="1.00" d=" M 173.82 87.24 C 174.01 87.11 174.38 86.84 174.56 86.71 C 174.38 86.84 174.01 87.11 173.82 87.24 Z" />
<path fill="#ffffff" opacity="1.00" d=" M 214.40 86.54 C 215.20 84.55 218.58 86.69 219.50 87.49 C 217.83 87.82 215.65 87.85 214.40 86.54 Z" />
<path fill="#ffffff" opacity="1.00" d=" M 173.15 88.00 C 173.31 87.81 173.65 87.43 173.82 87.24 C 173.65 87.43 173.31 87.81 173.15 88.00 Z" />
<path fill="#ffffff" opacity="1.00" d=" M 254.33 90.71 C 252.10 91.48 251.99 86.56 254.10 87.14 C 254.77 88.32 254.84 89.51 254.33 90.71 Z" />
<path fill="#ffffff" opacity="1.00" d=" M 172.41 88.69 C 172.60 88.52 172.96 88.17 173.15 88.00 C 172.96 88.17 172.60 88.52 172.41 88.69 Z" />
<path fill="#ffffff" opacity="1.00" d=" M 170.52 92.56 C 169.91 91.20 170.64 88.58 172.41 88.69 L 172.53 89.35 C 172.01 90.34 171.73 92.37 170.52 92.56 Z" />
<path fill="#ffffff" opacity="1.00" d=" M 249.73 89.39 C 250.91 88.81 252.40 90.57 251.70 91.66 C 250.57 92.17 249.05 90.45 249.73 89.39 Z" />
<path fill="#ffffff" opacity="1.00" d=" M 257.21 89.10 C 259.61 89.97 260.50 92.61 262.12 94.36 C 261.46 92.44 260.64 90.59 259.95 88.68 C 261.40 89.15 262.59 90.01 263.51 91.26 C 263.61 90.70 263.82 89.59 263.92 89.03 C 265.19 89.88 266.44 90.87 268.04 90.90 C 268.62 92.08 269.20 93.26 269.86 94.40 C 269.74 93.59 269.49 91.97 269.37 91.16 C 271.92 92.17 274.36 94.02 277.26 93.61 C 277.29 94.43 277.37 96.05 277.40 96.87 C 277.93 96.58 278.97 96.01 279.50 95.73 C 279.54 98.00 279.54 100.28 279.57 102.55 L 278.50 102.29 C 278.56 103.34 278.68 105.44 278.74 106.49 C 280.24 104.89 280.99 102.86 281.38 100.74 C 283.33 103.43 282.69 106.80 282.66 109.89 C 279.50 112.25 283.53 116.13 282.46 119.21 L 283.37 119.23 C 284.38 120.76 285.48 122.24 286.02 124.02 C 287.67 124.11 289.51 125.13 290.94 123.81 C 292.02 122.72 292.61 124.55 293.02 125.28 L 291.44 125.14 C 291.06 127.27 290.89 129.64 292.99 131.00 C 293.74 129.00 294.28 126.94 294.49 124.82 C 294.57 125.63 294.72 127.25 294.79 128.06 C 295.41 127.60 296.65 126.68 297.27 126.22 C 297.23 128.03 296.28 129.57 295.35 131.05 C 293.00 131.99 290.96 133.61 289.86 135.94 C 290.66 135.25 291.44 134.54 292.22 133.82 C 293.72 133.45 295.01 132.67 296.09 131.51 L 294.84 134.77 C 295.57 134.23 297.01 133.13 297.73 132.59 C 297.46 134.16 297.39 135.77 297.41 137.37 C 296.11 138.38 294.82 139.43 293.64 140.58 L 295.79 140.26 C 295.54 141.70 295.29 143.14 295.04 144.58 C 294.44 143.84 293.87 143.07 293.33 142.30 C 292.95 142.64 292.17 143.31 291.79 143.65 C 292.10 143.97 292.73 144.61 293.05 144.94 C 293.18 147.34 293.34 149.74 293.47 152.15 C 292.88 150.72 292.09 149.23 292.65 147.61 L 290.82 148.91 C 290.75 149.38 290.59 150.31 290.51 150.78 L 289.22 150.05 C 289.43 151.05 289.84 153.05 290.04 154.05 C 289.39 153.15 288.09 151.35 287.44 150.45 C 287.61 153.80 288.12 157.14 289.40 160.26 C 287.03 158.59 288.49 154.90 285.84 153.65 C 285.79 155.30 285.57 156.92 285.16 158.52 C 284.49 156.39 284.32 154.11 285.86 152.28 C 282.20 151.95 283.62 156.74 283.42 158.98 C 286.34 159.67 284.04 163.20 284.33 165.19 C 283.04 164.11 282.44 162.74 282.51 161.08 C 281.72 162.46 280.87 163.81 279.98 165.14 C 280.25 163.78 280.78 161.05 281.05 159.69 C 279.99 160.98 278.96 162.33 277.51 163.21 C 277.49 162.57 277.46 161.29 277.44 160.65 C 277.97 159.51 278.14 158.34 277.96 157.14 C 277.50 157.43 276.60 158.02 276.14 158.31 L 275.42 158.64 C 275.61 159.17 276.01 160.23 276.21 160.76 C 275.13 160.21 274.03 160.29 272.96 160.80 C 272.55 160.56 271.71 160.08 271.30 159.84 C 272.30 158.26 273.35 156.71 274.08 154.98 C 272.11 156.38 270.51 158.21 268.92 160.01 C 268.66 159.33 268.13 157.97 267.86 157.29 C 268.68 156.27 269.95 155.34 269.98 153.89 C 268.02 154.52 267.11 156.76 265.55 158.00 C 264.61 155.81 266.51 154.59 267.78 153.36 C 267.19 153.32 266.00 153.23 265.41 153.18 L 265.00 152.71 C 265.69 152.06 267.06 150.75 267.74 150.09 C 268.73 150.97 269.42 152.33 270.71 152.82 C 271.34 150.93 271.95 149.02 272.69 147.16 C 272.27 147.84 271.43 149.21 271.01 149.90 C 270.45 149.28 269.90 148.68 269.34 148.07 C 270.01 146.55 271.89 145.21 271.29 143.35 C 270.48 141.81 272.27 141.17 272.96 140.18 C 274.24 138.58 275.12 136.63 276.96 135.58 C 279.08 137.85 281.66 139.67 283.52 142.19 C 284.53 141.87 285.70 140.30 286.60 141.53 C 286.06 142.53 285.20 143.27 284.32 143.96 C 284.79 144.25 285.73 144.84 286.20 145.13 L 286.43 145.62 C 286.94 144.84 287.45 144.06 288.00 143.30 L 288.33 145.73 C 290.01 143.70 291.21 140.57 289.05 138.43 C 289.19 138.12 289.46 137.49 289.59 137.18 C 289.11 137.21 288.15 137.27 287.67 137.30 C 287.94 136.72 288.48 135.54 288.75 134.96 C 286.34 135.01 286.18 132.56 285.25 130.99 C 284.12 128.94 282.58 127.16 281.39 125.14 C 280.51 124.10 279.75 122.97 279.20 121.72 C 277.96 119.45 276.45 117.09 274.10 115.86 C 270.78 114.95 267.30 114.74 263.93 114.04 C 264.84 113.44 265.76 112.88 266.68 112.30 C 264.95 112.11 263.69 113.11 263.14 114.73 C 262.77 114.25 262.01 113.29 261.63 112.81 C 261.74 116.02 255.00 114.45 258.29 111.04 C 259.24 110.70 259.90 109.98 260.47 109.17 L 258.52 110.75 L 257.74 107.37 L 257.64 110.57 C 255.95 108.63 253.73 107.27 251.12 107.34 C 250.69 109.31 253.84 109.79 253.62 111.77 C 253.12 113.42 255.92 113.24 256.33 114.36 C 255.07 114.47 253.81 114.53 252.56 114.55 C 250.13 111.17 248.72 107.19 246.40 103.74 C 247.59 103.25 249.90 106.45 250.86 105.32 C 250.10 103.75 248.62 102.49 247.77 100.90 C 248.32 101.17 249.40 101.71 249.94 101.98 C 250.14 102.39 250.56 103.22 250.77 103.64 C 251.74 103.97 252.73 104.30 253.72 104.61 L 253.57 105.65 C 253.74 105.66 254.09 105.70 254.27 105.72 C 254.38 105.16 254.61 104.04 254.72 103.48 C 253.71 103.09 252.70 102.71 251.69 102.32 C 251.09 101.28 250.49 100.25 249.93 99.19 C 251.16 99.91 253.62 101.35 254.85 102.06 C 254.34 101.35 253.31 99.92 252.80 99.20 L 253.81 98.53 L 255.05 100.51 C 255.45 100.07 255.84 99.64 256.24 99.21 C 255.56 98.76 254.21 97.87 253.53 97.43 C 252.87 96.46 252.24 95.46 251.66 94.45 C 254.79 95.82 257.21 98.32 259.39 100.87 L 257.46 100.29 C 257.06 101.21 256.65 102.12 256.24 103.03 C 256.96 102.86 258.41 102.52 259.14 102.35 C 258.91 103.08 258.47 104.54 258.24 105.28 C 257.58 105.01 256.25 104.47 255.58 104.20 C 256.28 105.92 258.19 105.54 259.67 105.82 L 259.06 103.19 C 260.17 104.14 261.38 105.12 262.51 106.09 C 261.79 104.49 261.43 102.77 260.91 101.11 C 258.79 98.10 256.24 95.44 254.20 92.39 C 256.06 93.02 257.23 94.64 258.47 96.05 L 259.46 95.65 C 258.92 97.25 259.45 98.20 261.02 98.50 C 261.00 97.31 260.48 96.36 259.46 95.65 C 258.34 94.22 257.27 92.75 256.13 91.35 C 256.82 91.51 258.19 91.82 258.87 91.98 L 257.21 89.10 M 293.99 137.41 C 294.68 138.04 294.68 138.04 293.99 137.41 M 280.83 140.75 C 280.56 143.82 280.48 146.92 280.74 150.00 L 279.37 149.13 C 278.68 150.12 278.44 151.61 277.15 152.03 C 277.11 150.29 277.39 148.59 277.58 146.87 C 276.55 147.97 276.42 151.49 275.02 151.02 C 274.65 150.66 273.91 149.95 273.54 149.60 C 273.60 150.14 273.72 151.21 273.79 151.74 C 273.26 152.63 272.20 154.42 271.67 155.31 C 272.71 154.49 274.78 152.87 275.81 152.05 C 275.54 152.82 275.00 154.36 274.73 155.13 C 275.21 154.91 276.18 154.47 276.66 154.25 C 277.27 154.43 277.90 154.57 278.53 154.67 C 278.68 155.00 278.96 155.67 279.11 156.01 C 280.98 155.44 279.44 153.10 279.65 151.75 C 280.98 153.45 280.42 155.75 280.64 157.75 C 281.18 157.69 282.26 157.58 282.80 157.52 C 282.09 154.77 281.19 152.04 281.25 149.16 L 283.01 149.25 C 282.56 149.12 281.65 148.86 281.19 148.74 C 281.25 146.09 281.90 143.28 280.83 140.75 Z" />
<path fill="#ffffff" opacity="1.00" d=" M 220.77 90.43 C 221.97 90.85 223.17 91.29 224.39 91.69 C 224.99 93.15 225.56 94.61 226.11 96.09 C 223.85 94.71 221.93 92.83 220.77 90.43 Z" />
<path fill="#ffffff" opacity="1.00" d=" M 226.43 95.35 C 225.73 93.47 225.05 91.52 225.65 89.50 C 227.38 91.21 228.16 93.52 229.20 95.66 C 230.51 96.90 231.95 98.00 233.21 99.31 C 233.73 98.60 234.00 97.66 234.72 97.12 C 236.57 98.71 237.78 100.84 238.88 102.98 C 236.87 102.14 235.46 100.65 234.63 98.53 C 234.56 99.33 234.42 100.93 234.35 101.73 C 231.56 99.78 229.44 96.98 226.43 95.35 Z" />
<path fill="#ffffff" opacity="1.00" d=" M 217.66 91.71 C 218.69 92.46 219.62 93.33 220.44 94.31 C 223.16 95.36 225.72 96.91 227.33 99.42 C 225.40 99.14 223.89 97.89 222.25 96.98 C 222.85 97.56 224.05 98.72 224.65 99.31 C 224.65 99.83 224.64 100.89 224.64 101.42 C 223.45 101.83 222.28 102.27 221.17 102.84 C 220.86 102.48 220.25 101.78 219.94 101.43 C 220.46 101.00 220.98 100.56 221.50 100.13 C 220.21 99.66 219.05 98.98 218.01 98.09 C 219.34 98.28 220.66 98.58 221.95 98.97 C 220.07 96.85 218.85 94.25 217.66 91.71 Z" />
<path fill="#ffffff" opacity="1.00" d=" M 176.73 94.33 C 176.89 94.21 177.19 93.97 177.35 93.86 C 177.19 93.97 176.89 94.21 176.73 94.33 Z" />
<path fill="#ffffff" opacity="1.00" d=" M 180.40 102.69 C 182.25 99.28 184.32 95.99 186.87 93.06 C 186.69 93.66 186.33 94.87 186.15 95.47 C 186.59 95.57 187.47 95.76 187.92 95.85 C 187.57 96.82 187.23 97.79 186.89 98.76 C 187.56 98.69 188.91 98.54 189.58 98.47 C 189.62 97.88 189.70 96.68 189.74 96.08 C 190.45 97.28 191.15 98.50 191.91 99.68 L 193.15 97.66 C 193.52 101.09 186.63 102.47 189.88 105.86 C 188.40 106.37 187.22 107.41 186.26 108.61 C 186.94 108.56 188.30 108.45 188.98 108.39 C 188.45 109.23 187.39 110.91 186.87 111.75 C 191.26 108.09 193.69 102.64 198.18 99.09 C 196.93 102.11 193.50 103.99 193.30 107.43 C 192.85 107.62 191.94 108.00 191.48 108.19 C 192.65 108.53 193.53 109.23 194.13 110.29 C 192.71 111.99 190.81 113.48 190.16 115.67 C 188.77 115.70 187.38 115.59 186.02 115.35 C 185.73 115.83 185.15 116.80 184.86 117.29 C 184.62 115.85 184.36 114.41 184.07 112.98 C 183.39 113.31 182.02 113.98 181.34 114.32 C 181.60 113.51 182.12 111.88 182.38 111.07 L 182.19 109.70 L 183.50 110.50 C 183.40 110.06 183.21 109.16 183.11 108.72 C 184.35 107.18 185.39 105.32 187.52 104.91 C 186.88 104.38 186.23 103.85 185.58 103.33 C 182.60 106.48 181.11 110.76 177.92 113.69 C 177.27 109.16 181.86 106.02 183.86 102.35 C 182.99 102.43 181.27 102.60 180.40 102.69 M 186.46 101.66 C 187.14 102.19 187.14 102.19 186.46 101.66 M 188.14 101.34 C 186.82 104.29 191.44 101.21 188.14 101.34 M 190.21 110.29 C 190.83 110.96 190.83 110.96 190.21 110.29 Z" />
<path fill="#ffffff" opacity="1.00" d=" M 176.73 94.33 C 176.02 94.96 176.02 94.96 176.73 94.33 Z" />
<path fill="#ffffff" opacity="1.00" d=" M 176.74 97.01 C 177.86 95.21 179.07 93.29 181.40 93.02 C 181.59 95.25 181.79 97.53 180.98 99.68 C 179.35 102.16 177.18 104.19 175.40 106.54 C 173.21 110.32 171.09 114.15 169.05 118.01 C 168.42 117.78 167.17 117.31 166.54 117.08 C 167.88 114.26 169.19 111.43 170.72 108.71 L 170.83 111.28 C 173.92 105.96 178.30 101.56 181.23 96.15 C 179.09 98.07 177.27 100.30 175.18 102.27 C 175.74 100.53 176.38 98.81 176.74 97.01 Z" />
<path fill="#ffffff" opacity="1.00" d=" M 236.98 98.02 C 235.72 97.66 234.53 94.06 236.62 94.65 C 238.10 95.97 238.84 97.94 239.87 99.62 C 238.47 99.88 237.48 99.35 236.98 98.02 Z" />
<path fill="#ffffff" opacity="1.00" d=" M 212.82 100.49 C 213.55 98.55 211.99 96.44 214.08 94.98 C 216.94 96.07 217.62 99.33 216.33 101.93 C 215.39 100.85 214.22 100.37 212.82 100.49 Z" />
<path fill="#ffffff" opacity="1.00" d=" M 204.47 97.42 C 205.59 98.19 205.48 99.82 206.04 100.95 C 205.07 101.38 204.09 101.81 203.11 102.23 C 203.41 100.60 202.94 98.54 204.47 97.42 Z" />
<path fill="#ffffff" opacity="1.00" d=" M 250.45 97.28 C 251.62 96.98 252.47 97.41 253.00 98.58 L 252.80 99.20 C 251.75 99.84 249.98 98.42 250.45 97.28 Z" />
<path fill="#ffffff" opacity="1.00" d=" M 206.07 102.98 C 207.01 101.62 206.99 99.26 208.71 98.65 C 209.86 100.87 208.66 103.29 208.53 105.60 C 206.16 107.43 204.85 110.34 202.18 111.83 C 202.46 111.06 203.02 109.50 203.30 108.72 C 203.40 108.61 203.60 108.39 203.70 108.29 C 204.87 107.22 205.96 106.04 207.26 105.13 C 208.69 104.22 206.68 103.43 206.07 102.98 Z" />
<path fill="#ffffff" opacity="1.00" d=" M 166.05 111.57 C 167.89 107.17 171.36 103.76 173.96 99.82 C 174.06 104.41 170.10 107.40 167.71 110.88 L 166.05 111.57 Z" />
<path fill="#ffffff" opacity="1.00" d=" M 228.36 100.54 C 228.42 100.16 228.53 99.39 228.59 99.00 C 230.81 100.23 232.39 103.34 235.32 102.66 C 234.98 103.26 234.30 104.44 233.96 105.04 C 231.93 103.76 230.05 102.24 228.36 100.54 Z" />
<path fill="#ffffff" opacity="1.00" d=" M 245.37 100.19 C 246.71 99.39 248.20 101.67 247.13 102.70 C 245.76 103.46 244.49 101.22 245.37 100.19 Z" />
<path fill="#ffffff" opacity="1.00" d=" M 211.18 101.71 C 213.41 99.63 213.01 104.21 210.94 103.29 C 211.00 102.89 211.12 102.11 211.18 101.71 Z" />
<path fill="#ffffff" opacity="1.00" d=" M 244.37 104.16 C 243.07 106.29 240.94 101.67 242.88 101.26 C 243.69 102.06 244.18 103.03 244.37 104.16 Z" />
<path fill="#ffffff" opacity="1.00" d=" M 226.11 102.26 C 228.81 102.98 230.71 105.10 232.70 106.92 L 231.14 107.01 C 231.46 107.85 232.10 109.51 232.42 110.34 C 233.40 109.95 234.37 109.54 235.33 109.11 C 235.85 110.00 236.36 110.90 236.84 111.81 C 236.30 111.36 235.21 110.47 234.67 110.03 C 234.32 110.96 233.99 111.90 233.67 112.84 C 232.25 113.28 230.80 113.55 229.34 113.79 C 228.61 112.82 227.88 111.86 227.14 110.90 C 228.03 109.14 228.98 107.38 230.50 106.09 C 228.54 105.47 227.27 103.83 226.11 102.26 Z" />
<path fill="#ffffff" opacity="1.00" d=" M 168.00 102.37 C 169.47 102.60 169.24 104.57 168.43 105.39 C 167.91 105.46 166.88 105.62 166.36 105.69 C 166.17 104.27 166.71 103.16 168.00 102.37 Z" />
<path fill="#ffffff" opacity="1.00" d=" M 191.16 103.21 C 191.83 103.74 191.83 103.74 191.16 103.21 Z" />
<path fill="#ffffff" opacity="1.00" d=" M 211.82 105.57 C 211.24 104.47 212.66 102.61 213.80 102.76 C 214.14 103.89 213.24 106.05 211.82 105.57 Z" />
<path fill="#ffffff" opacity="1.00" d=" M 213.02 108.58 C 214.23 106.41 214.88 103.77 217.05 102.29 C 217.97 105.19 217.25 107.99 214.97 110.00 L 214.41 108.41 L 213.02 108.58 Z" />
<path fill="#ffffff" opacity="1.00" d=" M 179.04 104.12 C 179.56 103.96 180.61 103.62 181.13 103.46 C 179.46 108.48 176.05 112.52 172.19 116.02 C 173.83 111.74 176.55 107.92 179.04 104.12 Z" />
<path fill="#ffffff" opacity="1.00" d=" M 201.61 108.04 C 202.83 106.54 204.04 104.93 206.06 104.43 C 205.32 105.75 204.54 107.03 203.70 108.29 C 203.60 108.39 203.40 108.61 203.30 108.72 C 202.77 109.15 201.70 110.00 201.17 110.43 C 201.34 111.10 201.51 111.76 201.69 112.44 C 201.11 113.59 200.56 114.75 200.01 115.92 C 198.53 116.84 197.11 117.92 195.32 118.08 C 196.60 115.72 198.33 113.65 200.14 111.68 C 199.23 111.24 198.34 110.78 197.48 110.24 C 198.86 109.51 200.22 108.74 201.61 108.04 Z" />
<path fill="#ffffff" opacity="1.00" d=" M 219.26 104.80 C 221.16 105.32 220.54 109.78 218.42 109.08 C 217.90 107.72 218.24 105.85 219.26 104.80 Z" />
<path fill="#ffffff" opacity="1.00" d=" M 222.16 104.43 C 222.94 105.46 224.09 105.44 225.22 105.26 C 225.57 106.74 225.90 108.21 226.25 109.69 C 225.61 109.31 224.32 108.55 223.68 108.17 C 224.40 109.83 225.58 111.20 226.82 112.50 C 225.76 112.92 224.71 113.36 223.66 113.79 C 222.88 111.76 223.44 108.85 221.19 107.70 C 221.52 106.61 221.84 105.52 222.16 104.43 Z" />
<path fill="#ffffff" opacity="1.00" d=" M 245.09 104.78 C 247.15 107.01 248.44 109.80 249.77 112.50 C 251.45 113.53 247.00 116.79 248.97 112.57 C 248.22 113.33 247.48 114.10 246.72 114.85 C 246.51 115.43 246.09 116.57 245.88 117.15 C 242.88 115.10 240.67 112.13 239.32 108.78 C 240.56 110.21 241.71 111.73 243.23 112.90 C 242.87 111.47 242.54 110.06 242.23 108.63 C 242.81 108.47 243.95 108.15 244.52 107.99 C 245.28 109.55 246.21 111.05 247.69 112.03 C 246.86 109.61 245.20 107.42 245.09 104.78 Z" />
<path fill="#ffffff" opacity="1.00" d=" M 189.36 106.36 C 189.66 106.66 189.66 106.66 189.36 106.36 Z" />
<path fill="#ffffff" opacity="1.00" d=" M 198.77 107.50 C 199.20 106.64 199.20 106.64 198.77 107.50 Z" />
<path fill="#ffffff" opacity="1.00" d=" M 195.99 110.12 C 196.15 109.44 196.45 108.08 196.60 107.40 L 198.77 107.50 C 197.69 108.68 196.86 110.04 196.30 111.53 L 195.85 111.93 C 195.69 112.17 195.36 112.65 195.19 112.89 C 194.29 113.77 194.29 113.77 195.19 112.89 C 195.36 112.65 195.69 112.17 195.85 111.93 C 199.94 111.81 195.43 115.57 194.41 116.90 C 194.58 117.36 194.92 118.26 195.08 118.71 C 192.28 117.06 190.84 120.48 188.75 121.68 C 189.60 119.88 190.76 118.27 191.69 116.53 C 192.45 116.30 193.21 116.08 193.97 115.85 C 193.42 115.67 192.32 115.30 191.77 115.11 L 191.82 114.36 C 192.96 112.20 196.71 110.54 193.50 107.69 L 195.99 110.12 Z" />
<path fill="#ffffff" opacity="1.00" d=" M 209.68 107.94 C 211.68 108.91 211.85 111.29 212.97 112.99 L 213.10 109.75 C 216.00 111.41 213.49 113.55 212.86 115.42 C 212.28 114.19 211.71 112.96 211.14 111.73 L 210.27 114.20 C 209.81 113.91 208.89 113.33 208.43 113.04 C 209.33 111.48 209.61 109.72 209.68 107.94 Z" />
<path fill="#ffffff" opacity="1.00" d=" M 255.17 110.38 C 256.81 109.94 258.29 112.27 257.83 113.72 C 256.84 113.44 255.97 112.87 255.21 112.02 C 255.20 111.61 255.18 110.79 255.17 110.38 Z" />
<path fill="#ffffff" opacity="1.00" d=" M 216.65 111.39 C 217.87 111.26 219.10 111.17 220.33 111.11 C 220.12 113.17 219.52 115.17 218.59 117.03 C 217.41 116.48 216.26 115.89 215.13 115.27 C 215.61 113.97 216.07 112.65 216.65 111.39 Z" />
<path fill="#ffffff" opacity="1.00" d=" M 201.82 116.20 C 202.81 114.88 203.62 113.39 204.85 112.26 C 206.37 111.37 206.26 113.75 206.91 114.51 C 206.04 115.60 205.17 116.70 204.29 117.78 C 203.47 117.26 202.64 116.73 201.82 116.20 Z" />
<path fill="#ffffff" opacity="1.00" d=" M 299.26 116.21 C 300.49 114.01 302.70 112.85 304.98 111.99 C 307.40 113.79 308.52 116.58 309.50 119.33 C 308.24 120.10 306.93 120.38 305.56 120.18 C 305.48 119.48 305.31 118.07 305.22 117.37 C 303.83 116.67 302.52 115.82 303.43 113.85 C 302.45 114.46 300.49 115.68 299.52 116.29 L 302.79 116.28 C 301.02 117.83 299.00 119.03 297.01 120.25 C 295.64 118.36 298.04 117.27 299.26 116.21 Z" />
<path fill="#ffffff" opacity="1.00" d=" M 227.44 114.24 C 228.91 115.22 230.39 116.21 231.78 117.31 C 231.55 120.50 227.75 117.47 226.23 116.69 L 227.41 116.53 C 227.42 115.95 227.43 114.81 227.44 114.24 Z" />
<path fill="#ffffff" opacity="1.00" d=" M 191.22 115.05 L 191.77 115.11 L 191.89 115.67 L 191.16 115.79 L 191.22 115.05 Z" />
<path fill="#ffffff" opacity="1.00" d=" M 186.95 117.34 C 187.98 116.17 189.74 116.13 191.16 115.79 C 190.95 117.43 186.13 120.79 186.95 117.34 Z" />
<path fill="#ffffff" opacity="1.00" d=" M 208.77 116.19 C 209.93 116.27 211.10 116.35 212.26 116.42 C 211.67 117.63 211.05 118.84 210.45 120.06 C 210.15 119.47 209.54 118.31 209.24 117.72 C 209.38 118.36 209.66 119.63 209.80 120.26 C 209.07 120.31 207.61 120.39 206.88 120.43 C 207.53 119.03 208.17 117.62 208.77 116.19 Z" />
<path fill="#ffffff" opacity="1.00" d=" M 297.51 123.44 C 297.19 119.70 301.67 118.94 304.43 118.18 C 303.04 119.60 299.69 120.72 302.04 123.32 L 299.96 121.90 L 301.43 124.99 C 300.45 124.60 298.49 123.83 297.51 123.44 Z" />
<path fill="#ffffff" opacity="1.00" d=" M 264.42 119.15 C 265.46 117.58 267.69 119.55 266.70 120.93 C 265.66 122.45 263.35 120.54 264.42 119.15 Z" />
<path fill="#ffffff" opacity="1.00" d=" M 199.99 122.98 C 201.27 121.93 202.44 120.60 204.15 120.28 C 204.17 120.81 204.23 121.87 204.26 122.40 C 203.69 123.08 203.12 123.76 202.56 124.45 C 201.94 124.11 200.71 123.43 200.10 123.09 C 199.52 123.70 198.36 124.91 197.78 125.52 C 194.93 125.54 197.03 121.83 198.39 120.90 C 198.79 121.42 199.59 122.46 199.99 122.98 Z" />
<path fill="#ffffff" opacity="1.00" d=" M 219.73 119.69 C 223.13 120.73 225.91 123.25 227.19 126.58 C 224.77 125.92 222.55 124.75 220.31 123.67 C 220.73 123.35 221.58 122.70 222.00 122.38 C 221.44 121.71 220.30 120.36 219.73 119.69 Z" />
<path fill="#ffffff" opacity="1.00" d=" M 232.11 120.39 C 234.02 121.53 236.23 122.54 237.10 124.74 C 234.97 123.88 233.20 122.43 232.11 120.39 Z" />
<path fill="#ffffff" opacity="1.00" d=" M 260.68 119.92 C 260.89 120.29 261.31 121.02 261.53 121.38 C 262.91 125.33 267.49 125.08 270.84 124.21 C 270.59 125.19 270.34 126.18 270.11 127.17 C 268.80 127.37 267.50 127.61 266.22 127.86 C 264.23 126.72 260.53 125.78 261.36 122.82 C 261.12 121.85 260.90 120.89 260.68 119.92 Z" />
<path fill="#ffffff" opacity="1.00" d=" M 250.19 119.99 C 250.69 121.37 251.18 123.08 249.45 123.78 C 251.07 123.84 252.13 122.68 253.13 121.58 C 253.54 123.56 252.94 126.07 254.76 127.51 L 254.21 125.15 C 255.57 125.55 256.94 125.98 258.30 126.42 C 261.70 128.09 258.22 131.02 257.18 133.13 C 256.55 132.55 255.29 131.38 254.66 130.79 C 254.63 130.42 254.58 129.68 254.55 129.32 L 253.54 130.65 C 252.98 130.09 251.85 128.97 251.29 128.41 C 251.30 128.96 251.32 130.05 251.33 130.60 L 251.68 131.21 C 251.78 131.59 251.98 132.35 252.08 132.74 C 252.70 133.15 253.95 133.99 254.57 134.41 C 253.62 134.53 251.71 134.78 250.76 134.90 C 251.21 135.32 252.11 136.17 252.55 136.59 C 251.33 136.51 250.12 136.43 248.90 136.35 C 249.43 135.87 250.48 134.89 251.01 134.40 C 250.32 134.34 248.96 134.20 248.28 134.13 L 247.17 132.68 L 249.54 131.73 C 248.58 131.27 247.60 130.88 246.62 130.50 C 247.89 129.66 250.43 127.99 251.71 127.15 C 250.19 127.61 247.17 128.54 245.65 129.01 C 247.15 127.53 248.85 126.29 250.55 125.06 C 247.16 125.14 248.49 121.19 250.19 119.99 Z" />
<path fill="#ffffff" opacity="1.00" d=" M 304.92 121.85 C 306.36 121.57 311.32 118.36 309.85 121.86 C 309.16 122.13 307.76 122.66 307.06 122.93 C 307.41 123.09 307.76 123.24 308.11 123.39 C 308.80 123.24 310.17 122.93 310.86 122.78 C 311.91 123.53 312.36 124.83 313.11 125.84 C 310.81 125.46 308.40 125.28 306.47 126.87 C 307.39 126.73 309.22 126.45 310.14 126.31 C 311.18 126.39 313.26 126.53 314.30 126.61 C 313.52 127.32 311.96 128.75 311.18 129.47 C 314.74 127.47 314.80 130.29 315.07 132.59 L 316.15 131.71 C 316.24 132.42 316.42 133.84 316.51 134.55 L 317.77 134.36 C 317.35 136.02 316.97 137.73 319.02 138.55 C 318.85 139.16 318.52 140.37 318.35 140.98 L 320.01 141.01 C 320.72 143.17 321.18 145.40 321.83 147.57 C 321.68 148.49 321.58 149.42 321.55 150.36 C 321.98 149.61 322.41 148.87 322.84 148.12 C 323.34 149.07 324.33 150.98 324.82 151.93 C 323.89 153.02 323.00 154.14 322.16 155.30 C 322.87 154.84 324.31 153.93 325.02 153.48 C 325.32 156.30 325.60 159.19 326.68 161.85 C 325.85 164.14 327.22 169.06 323.59 168.80 C 323.41 169.41 323.06 170.64 322.89 171.26 C 323.48 170.66 324.66 169.47 325.25 168.88 C 324.79 170.82 326.12 171.84 327.53 172.71 C 328.84 175.84 330.41 178.86 331.88 181.92 C 330.13 180.11 329.02 177.82 328.24 175.46 C 326.99 174.31 325.79 173.12 324.59 171.92 C 322.78 173.54 320.84 175.00 318.85 176.38 C 318.58 175.74 318.06 174.46 317.80 173.82 C 318.33 173.77 319.39 173.68 319.92 173.63 C 319.55 173.45 318.81 173.10 318.45 172.92 C 318.69 172.53 319.18 171.75 319.42 171.37 C 318.14 170.20 316.92 168.98 315.76 167.70 C 313.65 168.55 309.62 171.47 308.48 168.13 C 310.75 166.77 313.22 165.80 315.68 164.85 C 316.21 165.15 317.26 165.75 317.78 166.06 C 318.07 165.59 318.65 164.67 318.95 164.21 C 319.21 164.94 319.45 165.69 319.67 166.45 L 321.70 166.49 C 321.60 165.82 321.39 164.49 321.28 163.82 C 321.87 163.80 323.04 163.76 323.62 163.74 C 323.61 165.14 323.61 166.54 323.62 167.94 C 326.80 167.19 326.47 161.73 323.80 160.30 L 323.85 158.56 C 323.02 159.76 322.64 161.73 320.71 161.39 C 318.73 163.15 316.05 161.87 313.71 162.45 C 314.98 161.57 316.25 160.70 317.51 159.80 C 317.94 160.71 318.46 160.87 319.06 160.29 C 319.36 159.89 319.97 159.11 320.27 158.72 C 320.64 159.26 321.37 160.33 321.74 160.87 C 322.02 159.77 322.30 158.67 322.61 157.58 C 319.88 157.33 317.72 155.09 314.90 155.34 C 315.60 154.33 317.02 153.57 316.59 152.12 C 316.07 150.22 317.85 149.26 318.99 148.14 C 318.39 148.19 317.19 148.30 316.59 148.35 C 316.67 146.28 316.68 144.21 316.74 142.14 L 314.33 142.63 C 314.41 143.15 314.57 144.20 314.65 144.73 C 314.09 144.59 312.96 144.32 312.40 144.18 C 312.46 145.06 312.57 146.82 312.62 147.69 C 311.76 148.20 310.90 148.70 310.04 149.20 C 309.77 147.59 309.56 145.97 309.37 144.35 C 309.89 144.41 310.94 144.51 311.46 144.57 L 311.50 143.16 C 312.09 143.37 313.26 143.79 313.84 144.00 L 313.65 142.92 C 314.27 142.35 315.51 141.22 316.12 140.66 C 313.44 140.18 310.77 139.62 308.08 139.20 C 308.63 137.37 309.03 135.49 309.58 133.65 C 311.15 132.60 313.08 132.39 314.84 131.81 C 314.17 131.50 313.51 131.19 312.85 130.91 C 311.18 132.10 309.67 132.22 309.08 129.95 C 307.81 130.54 306.56 131.15 305.32 131.81 C 305.79 131.13 306.73 129.76 307.20 129.08 C 305.06 130.06 304.22 129.55 304.67 127.56 C 303.57 127.90 302.46 128.21 301.35 128.51 C 303.29 126.74 305.95 125.75 306.59 122.89 L 304.92 121.85 Z" />
<path fill="#ffffff" opacity="1.00" d=" M 191.22 123.27 C 191.81 123.86 191.81 123.86 191.22 123.27 Z" />
<path fill="#ffffff" opacity="1.00" d=" M 178.79 126.32 C 178.72 125.69 178.59 124.42 178.52 123.79 C 179.39 125.49 180.38 127.13 181.49 128.70 C 181.40 127.69 181.23 125.68 181.15 124.67 C 182.67 126.61 182.47 128.95 182.27 131.25 C 180.27 129.05 178.11 127.01 175.82 125.11 C 176.56 125.41 178.05 126.02 178.79 126.32 Z" />
<path fill="#ffffff" opacity="1.00" d=" M 188.88 123.84 C 190.59 125.53 192.13 127.38 193.78 129.12 C 192.96 127.40 192.19 125.65 191.47 123.89 C 193.56 125.63 195.61 127.73 194.40 130.61 C 191.67 129.19 189.50 126.93 188.88 123.84 Z" />
<path fill="#ffffff" opacity="1.00" d=" M 184.86 127.12 C 187.79 130.58 192.60 132.07 194.34 136.56 C 193.79 136.46 192.68 136.26 192.13 136.16 C 192.27 136.65 192.56 137.63 192.70 138.11 C 191.23 136.81 189.94 135.27 188.29 134.19 C 188.43 134.92 188.72 136.39 188.86 137.12 C 187.18 134.82 185.41 132.54 184.25 129.92 C 185.27 131.06 186.22 132.25 187.09 133.51 C 187.63 132.91 188.17 132.31 188.72 131.71 C 187.21 130.38 185.68 128.99 184.86 127.12 M 190.00 133.00 C 190.66 133.69 190.66 133.69 190.00 133.00 C 189.36 132.34 189.36 132.34 190.00 133.00 Z" />
<path fill="#ffffff" opacity="1.00" d=" M 222.88 126.99 C 224.80 127.63 226.70 128.47 228.17 129.92 C 225.99 129.85 224.15 128.70 222.88 126.99 Z" />
<path fill="#ffffff" opacity="1.00" d=" M 173.89 127.92 C 175.31 128.51 176.69 129.17 178.06 129.88 L 177.61 127.57 C 179.55 129.63 181.28 131.88 183.05 134.07 C 183.69 134.54 183.82 135.08 183.46 135.70 C 179.91 133.61 175.91 131.74 173.89 127.92 Z" />
<path fill="#ffffff" opacity="1.00" d=" M 211.26 128.28 C 215.25 127.98 217.85 131.39 220.99 133.24 C 221.50 132.88 222.02 132.53 222.53 132.17 C 220.88 131.11 218.46 130.21 218.69 127.84 C 219.83 128.36 220.98 128.91 222.11 129.48 C 222.58 130.39 223.06 131.29 223.57 132.18 C 222.35 134.39 220.02 135.54 218.24 137.22 C 215.04 137.88 212.16 135.84 210.20 133.51 C 210.65 133.67 211.56 133.98 212.01 134.13 C 213.73 134.22 215.49 134.30 216.94 135.36 C 217.58 134.90 218.23 134.44 218.87 133.98 C 216.09 132.38 212.65 131.47 211.26 128.28 Z" />
<path fill="#ffffff" opacity="1.00" d=" M 197.02 129.05 C 200.34 130.46 203.15 133.05 205.32 135.90 C 202.16 134.23 198.73 132.35 197.02 129.05 Z" />
<path fill="#ffffff" opacity="1.00" d=" M 232.96 129.27 C 234.16 129.80 235.13 130.61 235.89 131.69 L 236.89 131.04 C 236.78 131.77 236.54 133.24 236.43 133.97 C 236.98 134.02 238.08 134.12 238.63 134.17 C 238.96 132.80 237.77 131.86 236.89 131.04 C 236.63 130.50 236.12 129.42 235.86 128.88 C 238.50 132.80 244.53 133.75 245.16 139.05 C 244.34 138.68 242.71 137.95 241.89 137.58 C 241.51 137.99 241.13 138.40 240.75 138.82 L 243.90 140.67 C 240.99 141.78 239.25 139.11 236.92 138.15 C 233.99 137.07 232.09 134.47 230.55 131.90 C 233.22 133.05 234.89 135.52 237.15 137.23 C 240.49 139.01 239.76 134.18 239.68 132.82 C 239.10 133.67 237.93 135.38 237.34 136.24 C 236.01 133.83 234.40 131.60 232.96 129.27 Z" />
<path fill="#ffffff" opacity="1.00" d=" M 169.80 130.12 C 172.38 131.53 174.87 133.08 177.36 134.65 C 177.68 134.53 178.32 134.29 178.64 134.18 C 180.74 136.33 184.32 137.58 184.78 140.90 C 180.58 138.02 176.35 135.20 171.87 132.77 C 174.66 136.30 179.26 137.88 181.63 141.85 C 178.59 141.27 175.75 139.92 173.61 137.67 C 173.40 137.95 172.97 138.50 172.76 138.78 C 170.56 138.52 169.31 136.03 168.05 134.39 C 169.92 135.23 171.58 136.45 173.28 137.60 C 172.57 134.91 171.10 132.54 169.80 130.12 Z" />
<path fill="#ffffff" opacity="1.00" d=" M 259.34 129.89 L 262.28 129.04 C 262.23 130.25 262.13 131.46 261.98 132.67 C 261.17 133.39 260.37 134.12 259.58 134.86 C 258.93 134.77 257.62 134.58 256.97 134.48 C 257.52 133.42 258.63 131.28 259.19 130.21 L 260.44 132.86 C 260.16 132.12 259.61 130.64 259.34 129.89 Z" />
<path fill="#ffffff" opacity="1.00" d=" M 260.84 136.55 C 261.74 134.53 262.14 130.75 265.10 130.86 C 266.04 131.41 267.94 132.51 268.88 133.06 C 267.65 133.88 266.29 134.54 265.29 135.65 C 268.56 136.68 269.08 130.49 272.63 133.28 C 272.58 132.71 272.46 131.58 272.41 131.01 C 273.68 132.35 274.91 133.72 276.13 135.13 C 275.15 135.81 274.19 136.52 273.24 137.23 L 272.73 137.80 C 272.60 138.99 272.10 139.63 271.22 139.71 C 270.99 139.39 270.51 138.74 270.28 138.41 C 269.15 140.70 266.95 142.49 264.25 141.72 C 265.05 140.42 265.90 139.16 266.66 137.84 C 265.11 138.44 263.75 139.42 262.34 140.28 C 262.74 140.72 263.53 141.61 263.93 142.06 C 262.56 143.11 261.19 144.17 259.84 145.24 C 258.93 145.05 257.11 144.67 256.19 144.48 C 258.70 141.97 261.29 139.53 264.53 137.99 C 263.97 137.58 262.83 136.76 262.27 136.34 C 262.76 135.81 263.75 134.75 264.24 134.22 C 263.39 134.80 261.69 135.97 260.84 136.55 Z" />
<path fill="#ffffff" opacity="1.00" d=" M 197.10 132.10 C 198.31 133.40 200.92 134.33 199.08 136.74 L 200.75 135.20 L 200.25 136.46 C 203.28 136.87 205.20 139.60 207.75 141.03 C 207.63 142.50 207.53 143.97 207.43 145.45 C 202.01 143.46 197.84 138.90 194.91 134.09 C 196.29 135.49 197.49 137.02 198.77 138.52 C 199.91 135.85 198.22 134.07 197.10 132.10 M 200.36 138.38 C 201.72 140.98 204.95 141.76 207.16 143.48 C 205.71 140.99 202.58 140.09 200.36 138.38 C 200.18 138.17 200.18 138.17 200.36 138.38 Z" />
<path fill="#ffffff" opacity="1.00" d=" M 184.94 136.19 C 187.47 137.86 189.65 139.99 191.89 142.03 C 188.80 141.35 186.30 138.98 184.94 136.19 Z" />
<path fill="#ffffff" opacity="1.00" d=" M 222.36 135.95 C 223.54 134.89 225.98 136.47 225.46 137.98 C 224.33 138.83 221.94 137.37 222.36 135.95 Z" />
<path fill="#ffffff" opacity="1.00" d=" M 251.20 141.21 C 252.96 139.34 254.76 137.43 257.06 136.20 C 256.14 137.81 254.93 139.24 253.32 140.20 C 253.91 140.60 254.51 141.01 255.11 141.43 C 255.41 138.79 258.61 137.73 260.55 136.37 C 259.50 138.35 258.93 140.68 257.28 142.28 C 256.22 143.16 254.97 144.93 253.59 143.51 C 253.50 142.90 253.32 141.66 253.22 141.05 L 251.20 141.21 Z" />
<path fill="#ffffff" opacity="1.00" d=" M 211.83 138.50 C 213.13 138.04 214.84 138.96 215.36 140.21 C 214.65 141.81 211.03 140.09 211.83 138.50 Z" />
<path fill="#ffffff" opacity="1.00" d=" M 228.94 139.20 C 230.18 140.15 231.55 141.06 232.16 142.60 C 232.62 141.99 233.08 141.39 233.54 140.78 C 236.22 143.09 238.06 148.24 242.23 147.18 L 241.38 144.60 C 242.34 145.49 242.49 146.82 243.09 147.92 C 244.77 148.25 246.39 148.84 247.53 150.21 C 247.99 150.23 248.93 150.26 249.39 150.28 C 250.66 151.16 251.97 151.98 253.32 152.74 C 253.21 153.09 253.01 153.78 252.91 154.12 L 254.42 152.89 L 255.99 155.28 C 256.47 154.88 256.96 154.47 257.44 154.06 C 255.66 153.16 253.84 152.40 251.99 151.69 C 252.91 151.55 254.75 151.29 255.66 151.16 C 256.72 152.22 257.79 153.26 258.89 154.28 C 258.80 154.93 258.61 156.24 258.52 156.89 C 261.40 158.04 264.86 158.94 266.31 162.01 C 264.93 161.66 263.48 161.33 262.43 160.29 C 262.55 160.89 262.78 162.10 262.89 162.70 C 261.42 161.96 260.01 161.14 258.56 160.36 C 256.23 158.42 254.75 155.22 251.56 154.55 C 253.68 157.36 256.24 159.80 258.86 162.14 C 259.42 163.04 259.99 163.95 260.56 164.86 C 259.74 164.38 258.93 163.91 258.11 163.44 L 257.90 165.13 C 257.29 164.82 256.06 164.21 255.44 163.90 L 255.85 165.70 L 254.06 165.08 L 255.16 167.43 C 254.53 167.11 253.26 166.47 252.63 166.15 C 252.50 166.78 252.25 168.03 252.12 168.66 C 250.59 167.41 248.55 167.48 246.69 167.33 C 247.70 167.85 248.73 168.34 249.79 168.79 C 248.77 169.82 247.78 170.88 246.82 171.97 C 244.94 171.12 243.09 170.23 241.24 169.31 C 242.48 170.46 243.78 171.56 245.35 172.23 C 243.75 174.13 241.21 174.80 238.91 175.41 C 239.70 174.63 240.53 173.89 241.40 173.19 L 240.57 172.13 C 239.34 173.43 238.40 174.98 237.12 176.23 C 234.45 177.65 231.55 178.60 229.03 180.28 C 228.19 180.37 226.50 180.55 225.66 180.64 C 226.41 181.47 227.20 182.26 228.01 183.04 C 226.41 182.69 224.81 182.35 223.21 182.04 L 223.71 183.81 C 219.32 183.75 215.52 181.28 212.03 178.88 C 212.23 178.25 212.64 176.99 212.84 176.36 C 211.07 176.83 209.56 175.63 207.98 175.11 C 205.76 173.36 203.42 171.81 201.12 170.20 C 205.23 170.42 208.46 173.56 211.75 175.75 C 213.17 175.85 214.56 175.87 216.00 176.03 C 214.86 176.65 213.69 177.18 212.53 177.75 C 214.04 178.30 215.46 179.03 216.79 179.94 C 217.14 179.42 217.50 178.90 217.86 178.38 C 219.77 179.89 221.65 182.08 224.35 181.94 C 220.23 178.98 215.62 176.49 212.62 172.25 C 213.03 171.66 213.44 171.07 213.86 170.50 C 216.76 172.95 220.22 174.61 223.26 176.90 C 222.03 174.79 219.80 173.67 217.76 172.50 C 217.54 171.28 217.54 170.06 217.76 168.85 C 218.31 169.04 219.42 169.41 219.98 169.60 C 219.45 168.47 218.66 166.66 217.27 166.64 C 215.00 167.56 213.49 164.89 211.18 165.30 C 207.95 163.56 204.32 161.96 202.20 158.83 C 205.31 159.47 207.81 161.58 210.46 163.20 C 212.73 163.07 214.77 164.03 216.47 165.49 C 217.00 165.40 218.05 165.24 218.58 165.15 C 224.13 168.80 229.40 173.03 235.45 175.80 C 234.71 174.11 232.92 173.49 231.55 172.47 C 225.87 168.78 220.40 164.72 214.47 161.43 C 213.94 160.44 214.77 159.80 215.56 159.37 C 214.05 158.65 213.18 157.15 212.12 155.93 C 217.69 157.54 221.05 162.69 225.61 165.95 C 224.61 164.80 223.61 163.65 222.64 162.48 C 219.64 156.70 212.48 155.63 208.90 150.34 C 210.14 150.14 211.26 150.30 212.27 150.82 L 212.56 151.40 L 213.01 151.74 C 213.71 151.94 215.10 152.35 215.80 152.55 L 215.51 153.25 C 217.36 153.41 218.79 154.65 220.34 155.54 C 219.40 153.50 217.25 152.57 215.61 151.22 L 214.42 151.79 L 214.03 150.85 L 213.79 150.01 C 215.10 148.27 217.64 150.54 219.45 150.47 C 220.15 151.50 220.86 152.55 221.61 153.56 C 221.05 152.08 220.59 150.57 220.28 149.02 C 224.74 153.14 229.51 156.93 234.79 159.93 C 233.16 158.55 231.51 157.20 229.76 155.98 C 229.99 155.30 231.00 154.43 230.21 153.78 C 229.48 152.87 228.62 154.22 227.96 154.54 C 225.25 152.05 222.57 149.54 219.61 147.36 C 218.23 146.21 216.90 144.99 215.65 143.71 L 218.99 145.08 C 218.68 144.32 218.08 142.80 217.78 142.04 C 224.61 147.23 231.80 152.10 237.90 158.16 C 239.16 158.81 240.43 159.47 241.82 159.79 C 243.59 161.20 245.32 162.69 247.28 163.84 C 245.01 161.49 242.17 159.83 239.70 157.71 C 239.27 157.66 238.41 157.56 237.98 157.51 C 236.56 155.84 235.23 154.07 234.21 152.13 L 233.56 152.79 C 229.89 149.33 225.02 147.18 222.12 142.95 C 223.83 143.60 225.42 144.52 226.95 145.54 L 226.21 143.25 L 226.56 143.21 C 228.79 145.46 231.12 147.70 233.94 149.23 C 232.52 147.52 230.94 145.92 229.80 144.00 C 233.06 145.72 235.51 148.58 238.62 150.56 C 240.07 151.60 240.05 153.23 238.37 153.97 C 239.50 153.78 240.64 153.60 241.78 153.42 C 245.59 156.69 249.83 159.40 252.71 163.65 C 252.71 163.37 252.72 162.82 252.72 162.55 C 248.94 159.57 246.64 154.81 242.00 152.98 C 239.88 150.57 236.80 149.20 234.98 146.49 C 233.31 143.75 229.99 142.38 228.94 139.20 Z" />
<path fill="#ffffff" opacity="1.00" d=" M 170.42 139.92 C 171.61 140.24 172.80 140.58 173.99 140.93 L 174.80 141.14 C 175.45 141.85 176.76 143.28 177.41 143.99 C 177.34 143.26 177.20 141.79 177.13 141.06 L 179.44 142.22 C 178.65 142.92 177.88 143.64 177.13 144.37 C 174.73 143.15 172.30 141.89 170.42 139.92 Z" />
<path fill="#ffffff" opacity="1.00" d=" M 270.83 140.11 C 270.93 140.01 271.13 139.81 271.22 139.71 C 271.13 139.81 270.93 140.01 270.83 140.11 Z" />
<path fill="#ffffff" opacity="1.00" d=" M 269.42 140.37 L 270.83 140.11 L 271.90 140.67 C 269.69 142.87 267.78 145.32 265.86 147.76 C 266.69 146.25 268.25 146.00 269.55 146.54 C 267.83 148.89 265.03 150.42 263.74 153.04 L 265.41 153.18 L 265.95 153.51 C 265.46 154.28 264.50 155.82 264.02 156.58 C 263.69 155.11 262.40 153.80 262.44 152.24 C 263.72 150.53 265.31 149.00 266.03 146.94 C 263.86 147.78 262.48 149.80 260.39 150.79 C 262.79 146.83 266.60 144.02 269.42 140.37 Z" />
<path fill="#ffffff" opacity="1.00" d=" M 298.52 143.62 C 298.70 143.22 299.07 142.41 299.26 142.01 C 299.33 143.32 299.40 144.63 299.46 145.95 L 301.08 146.80 C 299.56 146.54 298.09 146.13 296.67 145.56 C 297.45 146.55 299.00 148.53 299.78 149.52 C 298.20 148.83 296.50 148.03 295.50 146.56 C 294.47 144.76 296.35 144.35 297.77 144.63 L 297.25 143.30 L 298.52 143.62 Z" />
<path fill="#ffffff" opacity="1.00" d=" M 162.00 143.34 C 165.59 144.18 168.60 146.38 171.76 148.15 C 171.36 148.19 170.55 148.25 170.14 148.29 L 170.82 149.74 C 167.60 149.32 164.35 148.68 161.69 146.71 C 163.60 147.22 165.56 147.36 167.54 147.46 C 165.64 146.15 163.64 144.97 162.00 143.34 Z" />
<path fill="#ffffff" opacity="1.00" d=" M 184.76 144.31 C 188.02 145.30 190.61 147.61 193.61 149.13 C 193.56 148.62 193.45 147.60 193.39 147.09 C 195.83 149.41 199.21 150.23 202.01 152.00 C 198.70 153.80 196.14 149.76 193.09 149.10 C 194.39 151.46 197.43 151.94 198.86 154.24 C 195.14 153.74 191.05 151.90 189.32 148.39 C 187.75 147.08 186.16 145.79 184.76 144.31 Z" />
<path fill="#ffffff" opacity="1.00" d=" M 191.43 144.22 C 192.21 144.51 193.78 145.08 194.57 145.37 C 195.38 144.93 196.18 144.49 196.99 144.03 C 199.03 145.50 201.14 146.85 203.40 147.97 C 202.42 146.59 201.23 145.42 199.84 144.45 L 199.87 143.77 C 201.07 144.58 202.27 145.40 203.49 146.20 C 203.57 147.33 203.66 148.46 203.76 149.59 C 199.02 149.83 195.15 146.71 191.43 144.22 Z" />
<path fill="#ffffff" opacity="1.00" d=" M 217.75 149.99 C 216.38 148.56 215.14 147.03 214.02 145.40 C 215.89 146.42 217.78 147.40 219.78 148.16 C 219.60 148.40 219.26 148.87 219.09 149.11 C 218.75 149.33 218.09 149.77 217.75 149.99 Z" />
<path fill="#ffffff" opacity="1.00" d=" M 186.46 149.41 C 186.41 149.13 186.31 148.57 186.25 148.29 C 189.14 152.50 194.64 153.02 198.09 156.40 C 196.05 156.24 193.98 156.07 191.99 156.63 C 190.21 155.76 188.60 154.63 187.21 153.22 C 187.92 153.27 189.35 153.36 190.06 153.41 C 188.90 152.03 187.71 150.70 186.46 149.41 Z" />
<path fill="#ffffff" opacity="1.00" d=" M 219.09 149.11 C 219.53 149.54 219.53 149.54 219.09 149.11 Z" />
<path fill="#ffffff" opacity="1.00" d=" M 162.05 149.07 C 164.25 149.91 166.44 150.77 168.69 151.48 C 169.04 151.92 169.74 152.79 170.09 153.23 C 169.85 153.61 169.37 154.36 169.13 154.73 C 168.20 154.66 166.33 154.52 165.40 154.45 C 165.25 155.57 164.96 156.64 164.53 157.67 C 164.55 156.38 164.58 155.09 164.62 153.80 C 165.42 153.37 166.21 152.94 167.00 152.50 C 166.21 152.48 164.63 152.44 163.83 152.42 C 163.39 151.58 162.50 149.91 162.05 149.07 Z" />
<path fill="#ffffff" opacity="1.00" d=" M 207.27 152.12 C 209.13 152.96 210.86 154.04 212.47 155.29 C 209.95 156.67 213.80 157.95 213.08 159.77 C 210.42 158.70 208.27 156.39 205.77 154.94 L 206.78 154.74 C 207.56 155.13 209.11 155.93 209.89 156.32 C 209.02 154.91 208.14 153.53 207.27 152.12 Z" />
<path fill="#ffffff" opacity="1.00" d=" M 206.78 154.74 C 206.05 154.14 206.05 154.14 206.78 154.74 Z" />
<path fill="#ffffff" opacity="1.00" d=" M 203.17 155.13 C 204.27 155.53 205.33 156.03 206.35 156.62 C 208.39 158.38 211.18 159.37 212.59 161.75 C 208.89 160.71 205.23 158.45 203.17 155.13 Z" />
<path fill="#ffffff" opacity="1.00" d=" M 177.42 156.34 C 180.62 156.76 183.03 159.07 185.90 160.33 C 187.54 161.09 189.07 162.12 190.07 163.65 C 187.29 163.37 184.73 162.20 182.08 161.40 C 182.23 161.00 182.53 160.20 182.68 159.81 C 180.84 158.84 178.43 158.36 177.42 156.34 Z" />
<path fill="#ffffff" opacity="1.00" d=" M 289.89 157.16 C 290.98 157.79 292.07 158.42 293.19 159.00 C 293.92 160.20 294.80 161.39 294.93 162.84 C 294.03 162.49 292.22 161.78 291.32 161.43 L 293.70 164.32 L 292.80 164.91 C 291.59 163.45 290.37 162.00 289.12 160.59 C 289.86 160.57 291.35 160.53 292.09 160.51 C 291.37 159.38 290.63 158.26 289.89 157.16 Z" />
<path fill="#ffffff" opacity="1.00" d=" M 174.09 159.84 C 176.52 159.97 178.61 161.24 180.76 162.24 C 182.95 163.37 185.70 163.80 187.15 165.98 C 184.72 165.34 181.42 165.38 180.02 162.98 C 179.43 163.24 178.85 163.50 178.27 163.76 C 180.00 164.44 181.62 165.37 183.27 166.24 C 181.55 169.47 177.95 165.75 175.41 165.34 L 175.77 164.44 C 174.13 163.55 172.53 162.59 170.99 161.56 C 173.81 160.31 175.99 163.78 178.54 162.39 C 176.99 161.66 175.50 160.81 174.09 159.84 Z" />
<path fill="#ffffff" opacity="1.00" d=" M 202.59 162.20 C 205.90 163.53 208.82 165.74 212.29 166.68 L 212.88 166.96 C 214.14 167.75 216.16 168.37 216.22 170.14 C 213.75 170.14 211.65 168.14 209.10 168.63 C 207.30 166.52 204.65 165.52 202.27 164.24 C 202.35 163.73 202.51 162.71 202.59 162.20 Z" />
<path fill="#ffffff" opacity="1.00" d=" M 214.24 162.14 C 214.87 162.75 214.87 162.75 214.24 162.14 Z" />
<path fill="#ffffff" opacity="1.00" d=" M 287.84 164.30 C 287.84 163.26 287.89 162.23 288.02 161.21 C 289.36 162.76 290.72 164.29 292.06 165.86 C 291.00 165.47 288.89 164.69 287.84 164.30 Z" />
<path fill="#ffffff" opacity="1.00" d=" M 200.71 166.30 C 202.97 167.13 205.11 168.24 207.27 169.28 C 207.34 169.88 207.47 171.08 207.54 171.68 C 205.30 169.86 202.36 168.80 200.71 166.30 Z" />
<path fill="#ffffff" opacity="1.00" d=" M 327.47 166.63 C 329.67 167.08 331.51 168.44 332.71 170.32 C 333.93 171.52 335.16 172.75 336.03 174.25 C 334.89 173.36 333.84 172.38 332.88 171.32 C 332.61 171.65 332.06 172.31 331.78 172.64 C 331.29 172.38 330.31 171.86 329.82 171.60 C 330.50 171.07 331.20 170.57 331.92 170.09 C 329.94 169.61 328.51 168.29 327.47 166.63 Z" />
<path fill="#ffffff" opacity="1.00" d=" M 176.30 168.26 C 176.81 168.92 176.81 168.92 176.30 168.26 Z" />
<path fill="#ffffff" opacity="1.00" d=" M 217.76 168.85 C 217.40 168.43 217.40 168.43 217.76 168.85 Z" />
<path fill="#ffffff" opacity="1.00" d=" M 257.73 175.79 C 263.08 173.71 267.44 169.38 273.12 168.15 C 270.82 169.45 268.34 170.47 266.39 172.31 C 260.83 176.37 254.83 179.81 249.31 183.92 C 249.13 183.51 248.78 182.68 248.61 182.26 C 247.27 183.46 245.93 184.65 244.56 185.82 C 244.52 184.65 244.66 183.47 244.33 182.34 L 243.46 184.37 C 241.54 184.38 240.05 186.19 238.14 185.84 C 238.15 185.61 238.17 185.15 238.18 184.92 C 240.49 183.44 242.76 181.88 245.26 180.71 C 244.84 180.43 244.43 180.16 244.02 179.89 C 240.67 182.91 235.75 184.60 233.74 188.83 C 234.38 188.22 235.65 187.00 236.29 186.40 L 236.86 187.01 C 237.34 187.76 237.99 188.38 238.83 188.70 C 239.57 187.98 241.03 186.56 241.77 185.85 C 241.72 186.68 241.62 188.34 241.57 189.17 C 242.02 187.78 242.45 186.39 242.87 184.99 C 243.64 185.95 244.42 186.91 245.19 187.89 C 244.18 188.79 243.17 189.69 242.18 190.61 C 242.06 190.71 241.84 190.91 241.72 191.01 L 241.70 191.37 C 240.30 192.05 238.94 192.85 237.93 194.06 C 238.72 193.56 240.30 192.56 241.09 192.06 C 241.56 192.71 242.03 193.35 242.50 193.99 C 239.51 197.71 234.66 195.17 230.74 196.49 L 229.16 195.16 C 228.90 195.91 228.38 197.42 228.12 198.18 C 227.17 197.91 226.75 197.01 226.29 196.23 C 224.98 198.00 222.92 198.83 220.87 199.43 L 220.86 200.94 L 223.73 199.45 C 223.45 200.33 223.17 201.21 222.89 202.10 C 219.84 203.12 218.07 206.29 214.85 206.98 C 214.79 206.55 214.67 205.69 214.61 205.26 C 213.06 204.31 211.50 203.38 209.93 202.49 C 211.55 203.76 212.90 205.26 213.97 206.99 L 211.86 207.58 L 210.78 208.81 C 211.85 208.41 213.99 207.62 215.06 207.22 C 213.37 208.81 211.59 210.29 209.78 211.73 C 208.65 211.50 207.51 211.28 206.37 211.07 L 206.82 213.14 C 204.99 212.72 202.97 211.01 201.44 212.87 C 202.64 213.18 203.82 213.55 204.99 213.97 C 204.55 214.57 203.67 215.77 203.23 216.37 C 205.49 215.10 207.10 212.88 209.56 211.93 C 207.37 214.94 205.16 217.94 202.75 220.78 C 200.57 217.86 195.96 218.13 194.19 214.60 C 197.74 215.09 200.66 219.10 204.26 217.85 C 201.14 215.93 197.69 214.61 194.57 212.71 C 194.83 209.17 191.14 206.92 188.14 206.20 C 188.12 206.01 188.08 205.63 188.06 205.45 L 192.80 206.99 L 192.67 203.96 C 189.98 202.41 186.71 201.70 184.52 199.36 L 188.60 200.26 C 185.46 199.16 185.21 196.42 185.17 193.69 C 186.66 194.54 188.09 195.49 189.38 196.64 C 189.97 196.59 191.16 196.51 191.75 196.47 C 193.41 197.81 195.04 199.29 197.06 200.10 C 194.66 198.36 192.37 196.08 189.43 195.38 C 187.85 193.90 184.69 190.93 183.10 189.45 C 184.78 190.27 188.12 191.91 189.79 192.73 C 189.78 192.25 189.77 191.29 189.76 190.80 C 188.42 190.01 187.14 189.14 185.88 188.23 C 184.20 186.48 182.00 185.16 180.89 182.94 C 184.44 184.63 187.11 187.64 190.47 189.63 C 189.52 187.62 187.33 186.55 186.41 184.56 L 188.69 185.32 C 188.73 184.94 188.81 184.16 188.85 183.77 C 189.33 184.10 190.29 184.78 190.78 185.12 C 189.66 187.12 192.04 189.21 193.70 189.90 L 193.62 189.34 C 193.40 188.75 192.96 187.57 192.74 186.99 C 196.57 189.39 199.70 193.20 204.08 194.88 C 203.61 193.65 202.83 192.59 201.78 191.80 C 201.70 190.36 200.70 189.34 199.81 188.34 C 199.56 188.70 199.05 189.41 198.80 189.77 C 194.59 187.23 191.10 183.41 187.28 180.25 L 187.82 179.83 L 188.36 179.42 C 189.39 180.30 190.43 181.17 191.47 182.06 C 191.92 181.36 192.36 180.67 192.81 179.98 C 193.60 180.85 195.18 182.59 195.98 183.45 C 196.46 182.99 196.93 182.53 197.41 182.06 C 194.86 180.25 192.66 178.00 190.13 176.16 L 190.67 175.67 C 191.64 175.96 193.59 176.54 194.57 176.83 C 193.24 175.64 191.94 174.44 190.89 173.00 C 193.18 173.43 194.88 175.09 196.60 176.54 L 196.39 177.67 L 197.51 177.31 C 198.07 179.42 198.50 182.14 201.55 180.10 L 199.65 182.16 L 202.71 180.79 L 200.88 183.29 C 201.42 182.88 202.49 182.06 203.03 181.65 C 203.94 184.14 205.56 186.07 208.42 186.02 C 212.30 189.61 216.21 193.17 220.05 196.80 C 218.98 195.00 217.55 193.44 216.12 191.93 C 216.71 191.48 217.31 191.04 217.90 190.60 C 218.93 192.59 220.77 193.92 222.36 195.41 C 222.30 195.76 222.16 196.46 222.10 196.81 L 223.90 196.47 C 222.05 194.95 222.41 192.56 221.87 190.50 L 221.92 191.65 C 219.74 192.24 218.40 190.01 216.72 189.06 C 216.09 189.65 215.46 190.24 214.84 190.84 C 214.52 190.16 213.87 188.80 213.55 188.12 L 214.02 186.82 C 213.47 186.96 212.36 187.24 211.81 187.39 C 207.34 185.16 204.05 181.28 199.87 178.65 L 200.89 178.05 L 201.66 177.63 C 206.15 180.58 210.21 185.26 216.04 184.95 C 215.29 184.33 213.78 183.11 213.03 182.50 C 214.88 182.90 216.43 183.98 217.94 185.06 C 220.35 185.75 222.67 186.70 224.88 187.89 C 225.10 188.61 225.55 190.06 225.78 190.78 C 225.23 192.32 224.67 193.87 224.25 195.46 C 226.24 193.91 226.43 191.19 227.47 189.06 C 228.79 187.27 230.03 189.87 231.06 190.60 L 230.50 189.28 L 231.78 189.75 C 231.69 188.35 231.65 186.95 231.51 185.55 C 230.36 186.98 228.88 187.90 227.08 188.29 C 230.44 184.69 235.04 182.57 239.09 179.85 C 241.13 178.28 243.81 178.25 246.24 177.79 C 246.36 178.27 246.61 179.21 246.73 179.69 C 248.03 177.46 250.69 176.81 252.71 175.45 L 252.46 174.75 C 254.11 174.28 255.71 173.67 257.31 173.05 C 257.42 173.73 257.63 175.10 257.73 175.79 M 245.75 181.30 C 246.22 181.57 246.70 181.83 247.18 182.09 C 249.01 180.60 250.94 179.23 252.65 177.59 C 250.28 178.70 248.20 180.35 245.75 181.30 M 207.76 193.02 C 207.71 191.69 207.08 190.56 205.94 189.88 C 202.99 187.61 200.52 184.72 197.15 183.03 C 200.00 186.97 204.09 189.87 207.76 193.02 M 233.93 184.99 C 233.31 185.60 233.31 185.60 233.93 184.99 C 234.55 184.34 234.55 184.34 233.93 184.99 M 189.66 204.63 C 191.53 205.87 195.27 208.36 197.14 209.61 C 197.24 210.09 197.44 211.06 197.54 211.55 L 195.79 211.57 C 197.58 212.42 199.36 213.32 201.27 213.91 C 199.98 212.96 198.57 212.24 197.04 211.74 C 198.61 211.04 200.47 210.97 201.80 209.78 L 198.09 210.77 L 198.69 209.42 C 195.79 207.66 193.05 205.42 189.66 204.63 M 208.34 208.31 C 208.21 209.46 208.78 210.14 210.04 210.35 C 210.14 209.95 210.33 209.13 210.43 208.72 C 209.91 208.62 208.86 208.41 208.34 208.31 Z" />
<path fill="#ffffff" opacity="1.00" d=" M 216.22 170.14 C 216.59 170.56 216.59 170.56 216.22 170.14 Z" />
<path fill="#ffffff" opacity="1.00" d=" M 184.56 171.93 C 186.83 170.23 188.46 174.43 190.96 173.88 L 189.84 175.37 L 187.10 174.57 C 188.44 175.99 189.85 177.34 191.47 178.46 C 191.37 178.62 191.17 178.95 191.07 179.11 C 190.82 179.20 190.34 179.38 190.10 179.47 C 189.51 178.80 188.32 177.46 187.73 176.79 L 187.15 177.71 C 187.23 177.08 187.41 175.82 187.49 175.20 C 186.46 174.17 185.00 173.41 184.56 171.93 Z" />
<path fill="#ffffff" opacity="1.00" d=" M 208.17 171.92 C 207.96 171.18 208.29 170.83 209.14 170.87 C 210.31 171.66 212.36 172.48 212.39 174.07 C 210.77 173.97 209.56 172.60 208.17 171.92 Z" />
<path fill="#ffffff" opacity="1.00" d=" M 268.91 173.83 C 270.98 173.16 272.83 171.96 274.87 171.19 C 268.68 175.91 260.50 178.35 255.34 184.29 C 253.90 184.58 252.66 185.39 251.40 186.10 L 251.17 187.01 C 248.58 188.61 245.57 190.03 243.85 192.61 C 243.28 191.95 242.72 191.28 242.18 190.61 C 244.19 189.85 245.87 188.44 245.76 186.10 C 246.21 186.23 247.11 186.50 247.56 186.63 L 247.12 185.32 L 248.80 185.55 C 255.48 181.62 261.34 176.08 268.91 173.83 Z" />
<path fill="#ffffff" opacity="1.00" d=" M 292.58 171.27 C 294.16 169.88 295.28 172.95 293.87 173.78 C 292.25 175.00 291.21 172.13 292.58 171.27 Z" />
<path fill="#ffffff" opacity="1.00" d=" M 295.74 170.43 C 296.71 171.10 297.68 171.79 298.64 172.49 C 299.41 171.85 300.96 170.57 301.73 169.92 C 301.64 170.48 301.44 171.59 301.34 172.14 C 302.66 172.53 303.50 173.58 304.36 174.58 C 304.69 174.41 305.35 174.07 305.68 173.90 C 306.39 174.88 307.88 175.53 307.91 176.90 C 306.82 176.88 305.79 176.59 304.83 176.02 L 305.61 177.59 L 303.50 177.54 L 303.95 175.72 C 302.97 176.96 301.95 178.18 300.91 179.38 C 300.61 178.85 300.01 177.80 299.71 177.27 C 299.13 178.09 298.60 178.94 298.03 179.77 C 297.21 178.41 295.34 177.17 296.33 175.41 C 297.90 175.30 300.54 179.27 299.79 175.24 L 298.91 173.14 C 298.38 173.37 297.33 173.83 296.80 174.06 C 296.42 172.86 296.07 171.64 295.74 170.43 Z" />
<path fill="#ffffff" opacity="1.00" d=" M 271.53 180.40 C 274.42 177.96 274.96 173.29 278.87 172.00 C 276.98 175.24 274.21 177.83 272.19 180.97 C 270.70 183.03 269.70 185.60 267.38 186.90 C 268.31 184.49 269.54 182.11 271.53 180.40 Z" />
<path fill="#ffffff" opacity="1.00" d=" M 282.30 173.20 C 282.73 173.02 283.59 172.65 284.02 172.46 C 282.58 177.79 279.25 182.41 278.09 187.80 C 277.86 187.80 277.39 187.80 277.16 187.80 C 278.15 185.17 279.17 182.54 280.45 180.03 C 280.42 177.61 281.42 175.39 282.30 173.20 Z" />
<path fill="#ffffff" opacity="1.00" d=" M 199.08 173.10 C 201.06 174.07 202.81 175.55 205.02 176.02 C 204.86 176.82 204.69 177.63 204.47 178.43 C 202.60 176.73 200.39 175.31 199.08 173.10 Z" />
<path fill="#ffffff" opacity="1.00" d=" M 290.70 173.20 C 291.17 174.19 291.63 175.17 292.10 176.17 C 293.02 175.67 293.96 175.20 294.91 174.75 C 295.32 177.46 292.89 179.08 290.63 177.71 C 290.68 176.20 290.71 174.70 290.70 173.20 Z" />
<path fill="#ffffff" opacity="1.00" d=" M 189.84 175.37 C 190.05 175.44 190.46 175.59 190.67 175.67 C 190.46 175.59 190.05 175.44 189.84 175.37 Z" />
<path fill="#ffffff" opacity="1.00" d=" M 196.90 175.58 C 197.83 174.53 201.01 176.57 200.89 178.05 C 199.21 178.64 197.72 176.83 196.90 175.58 Z" />
<path fill="#ffffff" opacity="1.00" d=" M 227.44 184.19 C 233.22 180.03 239.87 177.33 246.37 174.54 C 244.88 176.50 242.45 177.19 240.38 178.33 C 236.37 180.52 232.47 183.03 228.30 184.86 L 227.44 184.19 Z" />
<path fill="#ffffff" opacity="1.00" d=" M 276.28 180.38 C 276.90 178.29 277.39 175.72 279.73 174.90 C 278.96 176.93 278.02 179.00 276.28 180.38 Z" />
<path fill="#ffffff" opacity="1.00" d=" M 313.56 176.90 C 314.69 176.41 315.84 175.93 316.98 175.44 C 318.05 177.01 316.24 177.77 315.29 178.72 C 314.86 178.26 314.00 177.35 313.56 176.90 Z" />
<path fill="#ffffff" opacity="1.00" d=" M 317.02 179.28 C 319.68 177.98 322.02 176.13 324.69 174.85 C 324.77 176.53 324.80 178.22 324.78 179.91 C 323.95 180.18 323.13 180.47 322.31 180.76 C 323.53 182.06 325.89 183.64 323.88 185.67 L 323.11 185.03 C 322.93 184.86 322.59 184.50 322.42 184.33 C 322.78 186.60 321.81 188.93 319.30 187.19 L 319.04 187.66 C 319.58 187.81 320.65 188.12 321.18 188.28 C 320.17 189.64 319.12 190.96 318.11 192.31 C 316.85 192.53 315.59 192.73 314.34 192.94 L 314.29 190.93 C 313.67 192.27 313.23 193.68 313.17 195.17 C 311.38 195.19 308.12 193.29 309.04 196.80 C 308.29 196.83 306.80 196.88 306.05 196.91 C 304.91 195.78 303.77 194.65 302.64 193.53 C 301.97 196.02 302.13 199.14 303.87 201.19 C 303.54 199.52 301.85 197.79 303.16 196.17 C 304.95 195.88 305.65 198.16 306.90 199.01 C 305.18 201.12 302.98 202.78 301.32 204.94 L 300.95 203.26 C 300.45 203.96 299.96 204.67 299.47 205.38 C 298.42 205.91 297.38 206.49 296.29 206.94 C 294.63 205.45 293.34 203.54 293.45 201.21 C 294.82 201.19 296.19 201.27 297.47 201.84 C 297.43 202.55 297.35 203.97 297.31 204.68 C 297.92 203.69 298.99 203.09 299.64 202.16 C 296.87 202.18 296.35 199.75 295.61 197.55 C 297.71 197.01 299.53 195.80 301.46 194.85 C 301.36 194.16 301.17 192.77 301.08 192.07 C 302.07 192.32 303.06 192.58 304.05 192.85 C 303.87 191.90 303.51 190.00 303.33 189.05 C 304.72 189.28 307.50 189.73 308.89 189.96 C 308.23 190.53 307.58 191.11 306.94 191.70 C 308.51 191.26 312.32 190.51 310.32 193.91 C 311.25 192.47 312.25 191.08 313.21 189.65 C 314.83 189.78 316.47 189.95 318.10 190.05 C 316.88 189.45 315.50 189.32 314.17 189.25 C 315.07 187.71 315.09 185.67 316.40 184.37 C 316.04 184.21 315.32 183.89 314.97 183.73 C 315.68 182.26 316.37 180.78 317.02 179.28 Z" />
<path fill="#ffffff" opacity="1.00" d=" M 184.09 176.33 C 185.42 176.19 186.56 177.58 187.22 178.62 L 187.18 179.22 L 186.59 179.34 C 185.44 178.85 183.84 177.72 184.09 176.33 Z" />
<path fill="#ffffff" opacity="1.00" d=" M 270.81 176.39 C 270.75 176.64 270.63 177.15 270.57 177.40 C 263.33 181.04 257.27 186.42 251.64 192.15 C 249.41 192.29 248.06 194.20 246.55 195.56 L 249.34 194.64 L 249.34 196.29 C 246.49 196.73 243.62 196.75 240.75 196.66 C 243.57 193.89 247.08 191.73 249.33 188.46 C 249.79 189.49 250.15 190.55 250.50 191.64 C 252.24 189.24 254.63 187.47 257.01 185.76 C 261.56 182.56 265.65 178.63 270.81 176.39 Z" />
<path fill="#ffffff" opacity="1.00" d=" M 204.85 178.50 C 205.90 178.23 206.97 178.09 208.05 178.21 C 209.47 179.80 211.23 181.07 212.44 182.87 C 209.47 182.29 207.36 179.98 204.85 178.50 Z" />
<path fill="#ffffff" opacity="1.00" d=" M 305.07 178.51 C 306.99 177.85 309.03 177.76 311.04 177.52 C 312.37 179.11 313.75 180.89 313.78 183.07 C 314.45 186.10 312.04 188.52 310.85 191.04 C 310.44 190.39 310.03 189.76 309.62 189.12 C 308.09 189.16 305.66 189.92 304.74 188.23 C 304.52 186.82 304.54 185.36 303.89 184.05 C 304.56 182.27 304.72 180.37 305.07 178.51 Z" />
<path fill="#ffffff" opacity="1.00" d=" M 187.18 179.22 L 187.82 179.21 L 187.82 179.83 L 187.19 179.85 L 187.18 179.22 Z" />
<path fill="#ffffff" opacity="1.00" d=" M 191.07 179.11 C 191.53 179.54 191.53 179.54 191.07 179.11 Z" />
<path fill="#ffffff" opacity="1.00" d=" M 182.22 180.34 C 183.55 180.17 184.22 180.81 184.24 182.26 C 182.84 182.37 182.17 181.73 182.22 180.34 Z" />
<path fill="#ffffff" opacity="1.00" d=" M 186.28 181.28 C 185.53 180.52 185.53 180.52 186.28 181.28 Z" />
<path fill="#ffffff" opacity="1.00" d=" M 294.94 181.81 C 295.15 181.28 295.57 180.22 295.78 179.69 C 295.73 181.58 295.65 183.48 295.57 185.37 C 293.41 185.95 291.87 185.11 292.57 182.66 C 293.16 182.45 294.34 182.02 294.94 181.81 Z" />
<path fill="#ffffff" opacity="1.00" d=" M 297.37 181.31 C 298.74 180.45 300.88 179.24 301.76 181.40 C 300.73 182.10 297.89 181.97 298.16 183.78 C 298.86 185.03 300.33 185.25 301.61 185.49 C 301.40 187.04 301.19 188.58 300.97 190.12 C 299.93 188.89 298.72 187.85 297.55 186.77 C 297.21 185.01 297.37 183.12 297.37 181.31 Z" />
<path fill="#ffffff" opacity="1.00" d=" M 186.28 181.28 C 186.50 181.48 186.93 181.90 187.15 182.10 C 186.93 181.90 186.50 181.48 186.28 181.28 Z" />
<path fill="#ffffff" opacity="1.00" d=" M 184.24 182.26 C 184.44 182.46 184.83 182.84 185.03 183.04 C 184.83 182.84 184.44 182.46 184.24 182.26 Z" />
<path fill="#ffffff" opacity="1.00" d=" M 187.15 182.10 C 187.40 182.34 187.90 182.81 188.14 183.05 C 187.90 182.81 187.40 182.34 187.15 182.10 Z" />
<path fill="#ffffff" opacity="1.00" d=" M 185.03 183.04 L 185.75 183.13 L 185.83 183.85 L 185.11 183.76 L 185.03 183.04 Z" />
<path fill="#ffffff" opacity="1.00" d=" M 188.14 183.05 C 188.32 183.23 188.67 183.59 188.85 183.77 C 188.67 183.59 188.32 183.23 188.14 183.05 Z" />
<path fill="#ffffff" opacity="1.00" d=" M 185.83 183.85 C 185.97 184.02 186.27 184.38 186.41 184.56 C 186.27 184.38 185.97 184.02 185.83 183.85 Z" />
<path fill="#ffffff" opacity="1.00" d=" M 226.73 184.88 C 227.12 184.88 227.91 184.87 228.30 184.86 C 228.06 185.16 227.57 185.76 227.32 186.06 L 226.59 185.69 L 226.73 184.88 Z" />
<path fill="#ffffff" opacity="1.00" d=" M 253.09 186.06 L 253.75 186.15 L 253.61 186.80 L 252.90 186.75 L 253.09 186.06 Z" />
<path fill="#ffffff" opacity="1.00" d=" M 251.17 187.01 C 251.60 186.94 252.47 186.81 252.90 186.75 C 252.43 187.31 251.49 188.45 251.01 189.01 C 251.05 188.51 251.13 187.51 251.17 187.01 Z" />
<path fill="#ffffff" opacity="1.00" d=" M 253.03 193.10 C 254.10 191.03 257.58 190.37 259.02 192.36 C 260.39 191.96 261.48 192.16 261.66 193.76 C 267.27 195.48 272.31 199.87 278.34 199.52 C 279.76 200.59 281.07 202.20 283.07 201.66 C 282.46 201.94 281.86 202.23 281.28 202.54 C 282.69 202.42 284.11 202.27 285.53 202.22 C 287.03 200.30 289.37 202.68 291.24 201.28 C 293.34 203.04 293.04 206.74 295.91 207.56 C 294.46 209.31 292.24 209.99 290.22 210.84 C 289.07 210.80 286.77 210.73 285.61 210.69 C 284.85 209.33 284.70 207.76 284.40 206.27 C 284.35 208.00 284.39 209.74 284.40 211.48 C 281.89 210.64 279.27 210.31 276.65 210.09 C 276.65 209.64 276.66 208.74 276.66 208.28 C 275.55 209.10 274.42 209.89 273.26 210.63 C 273.33 209.09 273.47 207.55 273.68 206.02 C 273.26 207.04 272.84 208.06 272.40 209.07 C 269.56 207.26 267.12 204.80 264.01 203.42 C 260.75 202.03 258.24 199.43 255.53 197.25 C 258.93 194.72 259.09 200.37 261.54 199.57 C 262.96 196.61 259.25 198.28 258.11 196.68 C 258.57 196.01 259.51 194.66 259.98 193.99 C 258.25 195.37 256.46 196.68 254.57 197.83 C 253.51 197.32 252.45 196.80 251.38 196.32 C 251.38 195.80 251.37 194.74 251.36 194.22 C 251.91 193.84 252.47 193.47 253.03 193.10 M 270.47 205.30 C 271.18 205.76 271.18 205.76 270.47 205.30 Z" />
<path fill="#ffffff" opacity="1.00" d=" M 285.11 196.73 C 286.08 197.17 287.05 197.68 287.99 198.19 L 288.94 196.33 C 289.01 197.15 289.15 198.78 289.21 199.60 C 288.02 199.21 286.82 198.83 285.63 198.46 L 286.42 200.48 C 282.97 201.77 284.36 198.46 285.11 196.73 Z" />
<path fill="#ffffff" opacity="1.00" d=" M 290.22 199.61 C 289.53 198.31 289.85 197.48 291.17 197.12 C 291.85 198.38 291.54 199.21 290.22 199.61 Z" />
<path fill="#ffffff" opacity="1.00" d=" M 293.14 196.80 C 294.43 197.27 295.05 199.32 294.68 200.60 C 294.30 200.48 293.54 200.23 293.17 200.11 C 292.25 198.98 292.24 197.88 293.14 196.80 Z" />
<path fill="#ffffff" opacity="1.00" d=" M 224.40 200.95 C 223.43 200.04 223.61 199.34 224.94 198.85 C 226.07 199.65 225.90 200.35 224.40 200.95 Z" />
</g>
</svg>
