<?xml version="1.0" encoding="UTF-8" ?>
<!DOCTYPE svg PUBLIC "-//W3C//DTD SVG 1.1//EN" "http://www.w3.org/Graphics/SVG/1.1/DTD/svg11.dtd">
<svg width="512pt" height="256pt" viewBox="0 0 512 256" version="1.1" xmlns="http://www.w3.org/2000/svg">
<g id="#ffffffff">
<path fill="#ffffff" opacity="1.00" d=" M 195.02 19.13 C 198.06 16.34 202.34 16.57 206.13 15.79 C 207.95 15.19 209.01 17.34 210.37 18.08 L 210.31 16.15 C 210.86 16.25 211.97 16.45 212.53 16.55 C 212.54 18.45 212.60 20.35 212.76 22.25 C 213.17 21.37 213.43 20.44 213.55 19.48 C 214.41 19.31 216.12 18.98 216.97 18.81 C 216.26 21.13 214.81 23.07 213.00 24.64 C 210.08 23.69 207.28 22.23 204.16 22.06 C 202.85 20.56 201.82 18.83 200.50 17.34 C 200.09 19.19 202.29 20.37 202.02 22.27 C 200.67 20.88 199.50 19.32 198.05 18.03 C 198.70 19.77 199.77 21.35 200.10 23.20 C 197.95 22.51 196.56 20.65 195.02 19.13 M 207.83 17.69 C 207.21 19.02 207.46 19.99 208.58 20.61 C 209.26 19.20 209.01 18.23 207.83 17.69 Z" />
<path fill="#ffffff" opacity="1.00" d=" M 213.06 16.22 C 214.94 16.80 216.81 16.88 218.67 16.45 L 218.73 17.54 C 221.75 17.04 224.37 18.61 227.09 19.61 L 227.47 20.71 C 228.09 20.58 229.33 20.33 229.95 20.21 C 228.82 21.59 227.33 22.60 226.05 23.83 C 228.88 22.25 232.10 22.12 235.23 21.59 C 232.77 24.50 228.64 25.29 225.45 27.25 L 225.70 27.89 L 228.10 27.39 C 227.63 29.49 225.30 29.66 223.82 30.67 L 224.80 27.89 C 223.55 28.42 222.31 28.95 221.07 29.48 C 221.19 28.98 221.45 27.97 221.58 27.46 C 219.67 28.66 218.55 28.32 218.20 26.44 C 217.69 26.56 216.66 26.79 216.15 26.91 L 216.86 25.42 C 216.07 25.34 214.50 25.20 213.71 25.13 C 215.38 23.66 216.56 21.78 217.96 20.07 C 218.62 20.23 219.95 20.54 220.62 20.70 C 221.76 22.92 223.80 19.27 225.46 19.95 C 225.57 20.52 225.78 21.68 225.89 22.25 L 226.71 19.85 C 223.95 19.25 221.09 19.47 218.29 19.61 L 218.90 18.25 C 217.03 18.42 215.15 18.49 213.28 18.63 L 213.06 16.22 Z" />
<path fill="#ffffff" opacity="1.00" d=" M 184.15 21.93 C 185.74 21.01 187.39 20.14 189.11 19.48 C 189.79 20.25 190.45 21.04 191.08 21.86 C 190.50 21.66 189.36 21.25 188.78 21.04 C 187.96 21.34 187.14 21.63 186.33 21.92 C 185.90 22.43 185.05 23.47 184.63 23.98 C 185.24 26.63 187.04 28.96 186.91 31.82 C 185.26 28.99 182.16 25.22 184.15 21.93 Z" />
<path fill="#ffffff" opacity="1.00" d=" M 190.87 19.72 C 191.73 19.26 193.45 18.35 194.31 17.90 C 192.90 20.20 196.09 20.73 196.00 22.74 C 194.78 22.60 193.56 22.47 192.34 22.35 C 192.59 21.64 192.85 20.93 193.11 20.22 L 190.87 19.72 Z" />
<path fill="#ffffff" opacity="1.00" d=" M 311.25 21.06 C 315.83 20.36 321.33 20.95 324.34 24.90 C 325.19 25.43 326.06 25.94 326.93 26.43 C 327.77 28.69 326.55 30.87 325.55 32.85 C 325.29 34.77 325.39 36.71 325.43 38.64 C 325.18 38.64 324.66 38.65 324.40 38.65 C 324.28 34.66 325.23 30.81 326.41 27.04 C 325.65 27.17 324.15 27.44 323.40 27.57 C 323.52 28.15 323.76 29.32 323.87 29.90 C 321.25 29.09 319.03 25.65 316.11 26.73 L 316.36 24.73 C 316.25 25.29 316.03 26.41 315.93 26.97 L 314.21 26.17 C 313.73 26.28 312.76 26.52 312.28 26.63 C 313.88 27.86 315.50 27.96 317.15 26.94 L 316.33 28.94 L 317.33 29.16 C 317.35 28.59 317.38 27.46 317.39 26.90 C 319.35 28.74 324.31 29.48 322.02 33.06 C 318.67 32.20 315.67 30.44 312.50 29.12 C 312.54 28.67 312.61 27.76 312.65 27.30 C 309.83 24.80 306.01 24.28 302.65 22.84 L 302.45 24.00 C 305.28 24.88 309.31 24.58 310.55 27.84 C 307.98 27.39 305.52 26.56 302.98 26.02 C 304.16 26.79 305.35 27.52 306.55 28.28 C 307.69 28.97 308.91 29.56 310.14 30.10 C 309.86 30.55 309.29 31.44 309.01 31.89 C 310.24 31.61 311.47 31.34 312.71 31.08 C 315.39 33.84 319.82 34.50 322.00 37.72 C 317.68 36.16 313.15 35.10 309.15 32.78 C 307.67 32.36 306.20 31.87 304.81 31.23 C 305.82 31.31 307.86 31.46 308.88 31.54 L 308.14 30.13 L 306.86 30.46 C 303.53 26.59 297.77 27.52 293.42 25.54 C 293.53 26.19 293.74 27.50 293.85 28.15 C 293.44 27.66 292.62 26.69 292.22 26.20 C 291.11 29.65 290.20 33.25 288.02 36.21 C 286.64 38.10 286.49 40.90 284.28 42.11 C 286.92 37.69 288.36 32.74 290.10 27.93 C 291.22 26.83 292.35 25.75 293.48 24.65 C 295.23 24.49 296.99 24.32 298.76 24.38 L 298.43 23.48 C 302.43 21.50 306.89 21.42 311.25 21.06 Z" />
<path fill="#ffffff" opacity="1.00" d=" M 235.84 23.86 C 236.66 23.33 236.66 23.33 235.84 23.86 Z" />
<path fill="#ffffff" opacity="1.00" d=" M 234.39 25.04 C 234.56 24.69 234.90 24.00 235.07 23.65 L 235.84 23.86 C 235.66 24.22 235.29 24.93 235.10 25.28 L 234.39 25.04 Z" />
<path fill="#ffffff" opacity="1.00" d=" M 176.74 28.67 C 178.01 27.11 179.70 26.01 181.47 25.10 C 182.81 27.87 185.04 30.70 184.29 33.95 C 186.63 38.38 189.10 42.79 192.70 46.33 C 194.20 48.59 196.80 50.13 197.77 52.69 C 193.83 50.96 191.66 47.11 189.00 43.97 C 187.09 41.76 186.07 39.02 184.78 36.45 C 184.21 35.05 182.83 33.72 183.77 32.06 L 182.13 32.73 C 182.30 32.27 182.63 31.34 182.79 30.87 C 181.41 30.16 180.77 28.93 180.87 27.20 C 179.49 27.69 178.12 28.19 176.74 28.67 Z" />
<path fill="#ffffff" opacity="1.00" d=" M 228.17 27.08 C 230.19 26.27 232.24 25.46 234.39 25.04 C 234.02 25.29 233.27 25.80 232.89 26.05 C 231.29 26.68 230.35 27.85 230.09 29.54 C 231.49 29.23 232.55 29.62 233.27 30.70 L 231.30 29.91 L 231.61 31.62 C 230.85 31.56 229.33 31.44 228.56 31.38 C 229.28 34.71 224.86 33.76 224.25 31.50 C 225.59 30.40 227.17 29.65 228.70 28.86 C 228.57 28.41 228.30 27.53 228.17 27.08 Z" />
<path fill="#ffffff" opacity="1.00" d=" M 233.67 27.47 C 235.07 26.59 236.59 25.40 238.36 25.65 C 240.84 26.79 242.78 28.80 244.98 30.38 L 244.37 31.36 C 246.75 31.12 247.71 33.49 249.20 34.82 C 246.86 35.54 244.71 37.42 242.16 36.24 C 243.07 35.89 244.90 35.20 245.81 34.85 C 244.72 34.62 243.63 34.41 242.54 34.21 L 242.61 35.61 L 241.71 35.42 C 241.21 36.45 240.44 37.18 239.40 37.63 L 239.43 38.34 L 236.42 38.54 C 236.92 37.85 237.91 36.48 238.40 35.79 C 237.89 39.04 235.22 36.72 235.85 35.24 C 238.02 32.88 242.03 33.04 243.62 30.17 C 242.78 30.69 241.10 31.74 240.26 32.26 C 239.48 31.92 238.70 31.57 237.93 31.21 L 239.84 30.64 C 240.27 30.23 241.13 29.42 241.56 29.02 C 238.96 28.42 237.00 30.96 234.62 31.55 C 235.42 31.72 237.02 32.07 237.82 32.24 C 237.40 33.49 235.71 33.93 234.85 34.93 C 232.05 36.39 229.04 37.46 225.95 38.15 C 225.83 37.76 225.59 36.99 225.47 36.61 C 227.08 36.25 228.70 35.96 230.34 35.75 C 230.01 35.28 229.34 34.36 229.01 33.90 C 230.62 32.89 233.47 33.04 233.95 30.83 C 235.61 29.23 238.53 28.78 239.28 26.43 C 238.14 26.87 237.00 27.31 235.87 27.76 C 234.64 28.22 233.42 28.66 232.20 29.13 C 232.37 28.36 232.72 26.82 232.89 26.05 L 233.67 27.47 Z" />
<path fill="#ffffff" opacity="1.00" d=" M 310.42 27.04 C 311.12 27.66 311.12 27.66 310.42 27.04 Z" />
<path fill="#ffffff" opacity="1.00" d=" M 189.32 28.16 C 189.62 28.19 190.22 28.25 190.52 28.28 C 192.33 34.17 196.61 38.93 198.55 44.77 C 193.30 40.82 192.54 33.55 189.32 28.16 Z" />
<path fill="#ffffff" opacity="1.00" d=" M 173.66 29.28 C 174.43 30.43 174.85 31.70 174.63 33.10 C 178.78 35.72 180.59 40.57 183.85 44.06 C 185.66 46.40 188.72 48.45 188.43 51.73 C 189.28 52.73 190.31 53.60 190.90 54.80 C 186.79 53.33 184.89 48.81 180.62 47.56 C 182.40 49.13 183.91 50.91 185.15 52.89 C 182.20 50.92 179.61 48.46 176.99 46.08 C 176.11 41.45 170.25 38.95 170.06 33.90 C 172.97 36.81 174.78 40.62 177.90 43.36 L 177.11 44.87 L 178.60 44.12 C 179.45 45.14 180.53 45.92 181.59 46.70 L 181.26 47.44 C 182.90 47.70 184.25 48.54 185.32 49.95 C 185.57 49.34 185.81 48.73 186.06 48.12 C 182.11 44.95 179.55 40.43 176.58 36.40 C 176.13 36.44 175.23 36.52 174.78 36.55 C 175.00 34.56 173.23 33.43 172.09 32.08 C 172.61 31.15 173.14 30.22 173.66 29.28 Z" />
<path fill="#ffffff" opacity="1.00" d=" M 293.62 28.69 C 297.84 28.18 302.35 28.81 306.13 30.87 C 303.92 30.89 301.73 30.77 299.54 30.49 L 300.43 31.62 C 305.60 32.95 309.40 37.13 314.43 38.79 C 316.42 39.54 319.01 39.64 320.06 41.80 C 311.26 39.52 302.70 36.40 294.09 33.49 C 294.25 33.01 294.58 32.03 294.74 31.54 L 293.29 31.51 C 293.38 30.80 293.54 29.39 293.62 28.69 Z" />
<path fill="#ffffff" opacity="1.00" d=" M 178.40 32.32 C 179.53 32.92 180.69 33.63 181.15 34.92 C 183.09 38.71 185.46 42.25 188.00 45.67 C 183.08 42.97 181.02 37.04 178.40 32.32 Z" />
<path fill="#ffffff" opacity="1.00" d=" M 186.91 32.89 C 189.57 35.08 190.63 38.56 192.94 41.08 C 189.48 39.82 187.98 36.12 186.91 32.89 Z" />
<path fill="#ffffff" opacity="1.00" d=" M 291.31 36.93 C 293.37 33.37 296.98 36.41 299.80 37.19 C 305.90 39.88 311.68 43.25 317.88 45.69 C 318.10 45.91 318.54 46.35 318.76 46.57 C 312.61 45.34 307.06 42.20 301.51 39.41 C 301.37 39.59 301.07 39.95 300.92 40.13 C 301.81 40.57 303.59 41.44 304.48 41.88 C 304.05 42.46 303.63 43.04 303.20 43.62 C 299.82 40.36 294.85 39.92 291.31 36.93 Z" />
<path fill="#ffffff" opacity="1.00" d=" M 233.78 36.80 L 234.63 36.46 C 234.74 36.78 234.95 37.44 235.05 37.77 L 234.49 38.22 L 233.71 37.73 L 233.78 36.80 Z" />
<path fill="#ffffff" opacity="1.00" d=" M 245.82 37.44 C 246.13 37.09 246.76 36.38 247.08 36.03 C 247.59 37.16 248.49 37.86 249.77 38.13 L 249.11 35.46 C 249.96 36.12 251.66 37.42 252.51 38.07 C 252.47 39.59 251.09 40.18 249.82 40.45 C 250.60 40.56 252.16 40.78 252.94 40.89 C 252.91 41.21 252.87 41.85 252.84 42.17 C 251.36 43.00 249.76 42.83 248.24 42.25 C 247.76 43.15 247.30 44.06 246.87 44.98 C 247.46 44.71 248.65 44.18 249.24 43.91 C 250.83 43.57 252.37 43.01 253.99 42.83 L 254.90 43.41 C 251.77 44.90 249.43 47.45 246.59 49.34 C 246.91 48.56 247.55 47.01 247.87 46.23 C 246.61 47.12 245.38 48.03 244.16 48.96 L 244.48 47.02 C 240.13 49.01 235.55 51.56 230.59 50.87 C 233.05 47.94 237.81 50.02 240.79 47.83 C 242.77 46.27 244.96 45.04 247.15 43.81 C 246.04 44.06 243.81 44.55 242.69 44.79 C 242.59 43.95 242.40 42.27 242.30 41.43 C 243.72 41.69 245.14 41.72 246.59 41.53 C 246.53 40.88 246.42 39.59 246.36 38.95 C 245.78 39.41 244.61 40.34 244.03 40.81 C 243.39 40.05 242.75 39.29 242.12 38.54 L 244.41 38.51 L 244.49 37.53 L 245.82 37.44 Z" />
<path fill="#ffffff" opacity="1.00" d=" M 167.12 41.98 C 167.66 41.06 168.20 40.15 168.71 39.22 C 169.01 39.47 169.60 39.97 169.90 40.22 C 169.51 41.03 169.13 41.85 168.76 42.68 C 169.93 43.57 171.10 44.47 172.31 45.31 C 172.02 44.45 171.45 42.74 171.16 41.88 C 172.21 43.81 175.24 45.15 174.50 47.75 L 175.57 47.18 C 178.30 50.58 182.89 52.07 185.27 55.77 C 181.83 54.45 179.01 51.97 176.46 49.37 C 176.21 49.69 175.69 50.35 175.43 50.67 C 173.42 47.01 168.98 45.72 167.12 41.98 Z" />
<path fill="#ffffff" opacity="1.00" d=" M 252.94 40.89 C 251.72 39.66 254.34 38.14 254.82 39.72 C 254.35 40.01 253.41 40.60 252.94 40.89 Z" />
<path fill="#ffffff" opacity="1.00" d=" M 290.27 39.57 C 290.61 39.39 291.28 39.04 291.62 38.86 C 294.71 40.45 297.95 41.80 300.85 43.75 C 300.66 44.54 300.27 46.10 300.07 46.89 L 301.70 46.14 L 301.49 47.86 C 302.07 47.67 303.23 47.30 303.80 47.11 L 303.03 48.95 L 304.66 48.26 L 304.63 50.05 C 305.54 49.59 306.21 48.83 306.83 48.05 C 306.64 48.83 306.27 50.41 306.09 51.19 C 310.77 50.92 314.17 54.28 318.12 56.16 C 318.20 56.50 318.36 57.18 318.44 57.52 C 313.08 57.71 309.64 52.79 304.99 51.01 C 301.18 49.05 297.62 46.60 293.57 45.14 C 293.30 45.46 292.77 46.10 292.50 46.42 L 290.90 44.33 C 290.40 44.84 289.89 45.36 289.39 45.87 C 291.91 46.84 292.78 50.10 295.62 50.46 C 294.98 49.78 293.70 48.43 293.07 47.76 C 293.72 47.42 294.38 47.09 295.04 46.75 C 297.76 50.37 302.56 51.76 305.87 54.85 C 302.90 54.48 299.53 55.11 297.57 52.24 C 297.09 53.00 296.61 53.76 296.11 54.51 C 293.67 50.82 289.83 48.19 286.95 44.80 C 288.25 44.97 288.83 43.70 289.66 43.00 L 288.18 42.37 L 288.49 41.46 C 292.31 43.00 296.03 44.78 299.88 46.25 C 297.43 43.15 293.14 42.28 290.27 39.57 Z" />
<path fill="#ffffff" opacity="1.00" d=" M 227.64 42.83 C 230.34 40.80 233.73 40.00 236.96 39.26 C 235.59 42.57 230.76 42.26 227.64 42.83 Z" />
<path fill="#ffffff" opacity="1.00" d=" M 241.73 40.23 C 241.98 40.72 241.98 40.72 241.73 40.23 Z" />
<path fill="#ffffff" opacity="1.00" d=" M 253.99 42.83 C 253.54 40.75 257.40 40.92 255.63 42.89 C 255.22 42.88 254.40 42.85 253.99 42.83 Z" />
<path fill="#ffffff" opacity="1.00" d=" M 234.30 44.64 C 237.04 44.05 239.70 43.18 242.41 42.47 C 241.73 43.29 241.00 44.04 240.21 44.73 C 237.82 44.14 235.57 45.15 233.33 45.80 C 233.57 45.51 234.06 44.93 234.30 44.64 Z" />
<path fill="#ffffff" opacity="1.00" d=" M 248.30 50.33 C 250.62 47.15 254.26 44.66 257.86 43.38 C 260.54 45.04 257.16 45.92 255.78 46.73 C 255.16 49.43 250.06 49.35 251.73 52.53 C 250.45 53.15 249.16 53.78 247.72 53.76 C 246.67 51.75 245.07 52.59 243.63 53.57 C 243.29 56.25 239.91 56.07 237.97 57.03 C 236.97 57.63 236.06 56.82 235.19 56.41 C 237.74 54.94 241.24 54.86 242.94 52.19 C 244.73 51.57 246.52 50.96 248.30 50.33 Z" />
<path fill="#ffffff" opacity="1.00" d=" M 304.91 44.83 C 304.77 44.15 304.48 42.81 304.34 42.13 C 309.54 46.21 316.16 47.65 321.47 51.55 C 318.50 52.65 316.35 50.44 313.92 49.40 C 310.83 48.03 308.02 46.14 304.91 44.83 Z" />
<path fill="#ffffff" opacity="1.00" d=" M 161.93 44.17 C 163.54 44.90 165.01 45.88 166.30 47.10 C 166.75 46.85 167.66 46.35 168.11 46.10 C 167.71 46.49 166.92 47.26 166.52 47.65 C 167.94 48.67 169.18 49.88 170.24 51.28 C 170.60 50.81 171.32 49.87 171.67 49.40 C 172.51 50.12 173.34 50.84 174.17 51.56 C 174.29 52.56 174.63 53.51 175.01 54.44 C 177.66 56.23 181.36 56.99 182.90 60.05 C 179.05 58.40 175.44 56.28 172.46 53.32 L 172.93 52.39 C 168.18 51.90 164.75 47.64 161.93 44.17 Z" />
<path fill="#ffffff" opacity="1.00" d=" M 254.54 49.35 C 256.01 48.22 257.47 47.07 258.97 45.97 C 259.15 46.47 259.51 47.47 259.69 47.96 C 260.03 47.43 260.70 46.35 261.04 45.81 C 262.64 48.26 259.91 50.28 260.24 52.81 C 255.26 56.89 249.13 58.99 243.25 61.39 C 246.84 57.03 253.57 57.03 257.12 52.51 C 254.87 53.07 252.94 54.39 250.75 55.11 C 251.83 53.85 253.42 53.32 254.89 52.66 L 253.95 51.89 C 255.72 52.01 258.45 50.95 258.53 48.95 C 257.31 48.25 256.11 49.81 255.04 50.24 L 254.54 49.35 Z" />
<path fill="#ffffff" opacity="1.00" d=" M 161.02 47.00 C 166.03 50.10 169.45 55.17 174.62 58.04 C 174.14 60.18 172.12 58.17 170.87 58.15 C 171.94 60.51 175.23 60.59 176.72 62.73 C 174.01 62.78 171.08 61.86 168.84 63.90 C 172.70 65.47 177.05 66.01 180.46 68.57 C 180.53 68.83 180.68 69.33 180.76 69.58 C 176.24 67.98 172.05 65.58 167.51 64.04 L 167.67 65.78 C 164.38 64.82 161.06 63.90 157.94 62.47 C 157.72 62.16 157.30 61.53 157.09 61.22 C 159.96 61.61 162.56 62.98 165.32 63.81 C 163.03 61.36 159.19 60.81 157.46 57.79 C 160.53 58.57 162.80 61.08 165.86 61.82 L 165.61 62.17 C 166.59 62.72 167.62 63.16 168.70 63.48 C 168.69 63.00 168.69 62.04 168.69 61.56 L 168.07 61.05 L 167.26 60.89 C 166.91 61.12 166.21 61.59 165.86 61.82 L 166.91 59.40 C 162.90 60.40 159.90 56.68 156.79 54.74 C 158.13 54.64 159.47 54.50 160.81 54.33 L 160.29 55.40 C 162.21 55.65 163.30 57.50 164.87 58.45 C 166.38 58.53 167.88 58.77 169.38 59.02 C 168.05 57.07 165.57 56.65 163.81 55.23 C 162.27 54.01 160.91 52.56 159.42 51.27 C 159.87 51.02 160.75 50.52 161.19 50.27 C 163.24 52.19 165.87 56.06 169.03 54.30 C 166.32 52.17 161.45 50.88 161.02 47.00 Z" />
<path fill="#ffffff" opacity="1.00" d=" M 284.60 47.32 C 287.46 50.45 292.71 52.13 293.39 56.68 L 294.57 56.42 L 294.23 57.92 L 295.64 57.33 L 295.22 58.99 L 296.85 58.21 C 296.61 58.65 296.12 59.51 295.87 59.95 C 299.04 62.64 302.52 64.94 306.23 66.82 C 307.13 67.23 307.70 67.93 307.93 68.92 C 306.28 68.37 304.62 67.77 303.16 66.81 C 297.96 62.35 292.14 58.64 287.47 53.56 C 286.14 52.14 284.69 50.84 283.29 49.51 C 283.62 48.96 284.28 47.87 284.60 47.32 Z" />
<path fill="#ffffff" opacity="1.00" d=" M 277.16 53.07 C 277.98 50.73 280.16 49.51 282.14 48.26 C 280.71 50.06 279.55 52.46 277.16 53.07 Z" />
<path fill="#ffffff" opacity="1.00" d=" M 262.42 51.06 C 260.20 52.00 261.14 47.91 262.88 49.36 C 262.76 49.78 262.54 50.63 262.42 51.06 Z" />
<path fill="#ffffff" opacity="1.00" d=" M 252.29 51.88 C 251.54 50.61 254.13 49.40 255.04 50.24 C 254.77 50.65 254.23 51.48 253.95 51.89 C 253.54 51.89 252.70 51.88 252.29 51.88 Z" />
<path fill="#ffffff" opacity="1.00" d=" M 281.37 50.54 C 283.37 51.10 285.11 52.28 286.33 53.97 L 287.47 53.56 L 286.99 54.72 C 291.10 58.08 294.01 62.68 298.37 65.77 C 301.48 68.16 305.23 69.54 309.01 70.49 C 308.85 70.79 308.53 71.38 308.37 71.68 C 302.31 70.48 296.94 66.83 292.58 62.56 C 289.34 58.10 284.56 54.90 281.37 50.54 Z" />
<path fill="#ffffff" opacity="1.00" d=" M 262.20 54.25 C 262.06 52.62 262.77 51.36 264.32 50.45 L 265.71 51.70 L 264.09 53.84 C 264.90 53.73 266.51 53.52 267.32 53.41 C 265.24 55.22 263.46 57.86 260.59 58.40 C 260.88 57.79 261.47 56.56 261.77 55.94 C 260.68 55.98 259.74 56.37 258.92 57.12 C 259.34 57.44 260.17 58.08 260.59 58.40 L 261.39 58.79 C 260.19 59.05 259.00 59.30 257.81 59.54 C 254.08 62.17 249.68 63.48 245.30 64.54 C 245.33 64.20 245.39 63.52 245.42 63.18 C 248.43 61.24 252.45 61.57 255.24 59.19 C 257.49 57.46 259.73 55.68 262.20 54.25 Z" />
<path fill="#ffffff" opacity="1.00" d=" M 279.28 54.14 C 283.86 56.90 287.25 61.20 290.67 65.22 L 290.04 67.01 L 292.31 65.89 C 291.37 66.66 290.38 67.36 289.44 68.12 C 291.35 67.20 292.94 67.47 294.23 68.95 C 297.86 71.27 301.89 72.96 305.54 75.21 C 305.26 76.15 304.83 77.03 304.48 77.95 C 300.96 77.29 297.93 75.38 294.56 74.35 L 294.68 73.42 C 293.18 73.86 291.94 73.45 290.96 72.22 L 295.33 73.19 C 292.44 70.89 289.17 68.78 287.33 65.47 L 287.84 63.36 L 286.25 64.71 C 285.77 63.88 285.27 63.06 284.77 62.24 C 284.26 61.47 283.24 59.92 282.73 59.15 C 281.94 60.03 281.27 61.44 282.42 62.37 C 283.90 64.12 284.83 66.28 286.42 67.94 C 286.58 70.12 286.53 72.30 286.36 74.47 C 287.29 75.94 288.53 77.37 290.32 76.23 C 292.38 77.69 294.85 78.27 297.23 79.02 C 294.41 76.12 289.71 75.35 288.10 71.24 C 290.61 73.60 293.28 75.73 296.34 77.35 C 298.84 78.34 301.48 78.89 304.13 79.30 L 304.30 80.25 C 302.15 80.34 299.93 80.15 297.88 80.97 C 295.43 80.39 293.08 79.36 291.14 77.71 C 290.53 78.05 289.93 78.41 289.35 78.79 C 289.84 79.38 290.81 80.55 291.29 81.13 C 291.00 81.49 290.43 82.19 290.14 82.55 C 291.53 82.60 292.63 83.44 293.75 84.17 C 293.47 83.60 292.90 82.46 292.62 81.89 C 294.44 80.89 296.92 85.30 298.74 82.31 C 299.98 83.40 301.39 84.78 300.46 86.56 C 300.88 86.69 301.71 86.94 302.12 87.06 C 301.99 88.75 300.13 89.75 298.69 90.26 C 299.70 91.18 300.85 91.92 301.99 92.67 C 302.71 92.59 304.16 92.43 304.89 92.35 C 303.98 91.32 301.94 90.78 302.09 89.18 C 302.77 88.90 304.13 88.34 304.82 88.07 C 304.99 88.85 305.32 90.43 305.49 91.21 C 305.71 89.55 307.01 88.67 308.51 88.20 L 308.59 90.95 C 308.76 89.95 308.91 88.95 309.03 87.94 C 306.88 88.96 304.98 88.13 303.10 86.99 C 303.02 86.55 302.87 85.67 302.79 85.23 L 301.12 85.50 L 301.39 83.42 C 303.32 83.86 305.96 83.29 306.94 85.52 C 307.62 85.40 308.31 85.28 309.00 85.16 C 310.31 86.47 311.59 87.80 312.86 89.16 C 312.10 91.26 311.28 93.47 311.90 95.76 C 313.11 94.96 313.71 93.60 314.53 92.46 L 315.18 94.66 C 315.88 93.62 315.86 92.34 315.59 91.14 L 313.95 91.69 C 314.36 90.27 314.99 88.94 315.91 87.78 C 317.11 89.14 318.35 90.48 319.51 91.89 C 319.44 91.24 319.29 89.96 319.22 89.31 L 320.48 89.07 L 321.38 91.29 C 321.05 91.83 320.40 92.92 320.07 93.46 C 319.66 93.33 318.83 93.08 318.41 92.96 C 320.34 96.15 315.49 95.49 314.24 97.15 L 313.87 95.17 C 312.77 96.49 312.98 98.19 313.23 99.76 C 314.11 100.76 314.76 101.88 315.17 103.14 C 313.88 102.32 312.61 101.46 311.37 100.57 L 311.53 102.26 C 310.36 102.42 309.19 102.57 308.03 102.74 C 308.31 101.09 308.76 99.41 310.28 98.47 C 309.03 96.19 306.56 95.50 304.23 94.90 C 302.98 93.99 301.50 93.95 300.08 94.39 C 298.62 93.60 296.95 93.68 295.35 93.58 C 295.34 93.76 295.32 94.12 295.31 94.30 C 297.63 94.33 300.18 94.37 301.90 96.18 C 301.72 96.53 301.37 97.23 301.19 97.58 L 299.81 96.46 C 299.35 96.41 298.44 96.31 297.99 96.26 C 299.54 98.02 301.68 99.03 303.88 99.75 C 304.30 100.35 305.14 101.54 305.56 102.14 C 304.71 102.19 303.02 102.28 302.18 102.32 C 304.42 102.81 306.65 103.64 307.76 105.83 C 306.80 107.27 305.81 108.71 304.69 110.04 C 304.65 109.20 304.58 107.52 304.54 106.68 C 302.28 107.80 303.32 112.48 306.02 110.09 C 304.01 112.99 307.34 114.25 308.07 116.64 C 307.49 116.94 306.34 117.55 305.77 117.86 C 305.61 117.46 305.29 116.67 305.13 116.27 C 302.24 117.23 299.25 116.56 296.31 116.72 C 294.57 114.77 293.64 111.75 290.77 111.18 C 294.16 111.78 297.68 111.04 300.99 112.10 C 299.88 111.21 299.58 110.44 300.09 109.81 L 301.79 109.90 C 301.81 107.17 296.94 108.04 295.17 108.60 C 296.31 108.67 298.59 108.82 299.74 108.90 C 298.59 110.02 296.33 111.36 295.13 109.51 L 293.91 109.93 C 293.99 109.49 294.15 108.60 294.23 108.16 C 293.49 107.18 292.34 106.72 290.77 106.78 C 291.03 106.19 291.55 105.01 291.81 104.43 C 292.17 104.42 292.91 104.40 293.28 104.39 L 293.09 102.94 C 293.93 103.01 295.60 103.15 296.44 103.22 L 296.77 102.54 C 298.28 102.08 299.36 104.63 301.27 103.83 C 300.88 103.44 300.12 102.66 299.73 102.27 C 299.05 99.63 294.70 101.10 295.19 97.99 C 295.91 98.11 297.34 98.36 298.06 98.49 C 296.06 97.68 293.55 97.61 292.28 95.62 C 287.59 94.51 283.12 97.11 278.47 97.34 L 278.43 98.62 C 279.13 98.49 280.53 98.23 281.23 98.10 C 280.77 98.52 279.85 99.38 279.39 99.80 C 280.23 99.74 281.91 99.61 282.75 99.55 C 282.32 100.18 281.46 101.44 281.03 102.07 C 281.88 101.80 283.58 101.27 284.43 101.00 C 284.05 101.67 283.28 103.00 282.89 103.67 C 283.61 103.34 285.03 102.68 285.75 102.35 L 285.81 105.59 C 284.79 105.90 283.89 106.42 283.11 107.15 C 284.38 107.18 286.92 107.25 288.20 107.28 C 286.04 108.02 283.86 108.67 281.76 109.55 C 281.23 110.45 280.69 111.34 280.13 112.22 C 277.73 112.78 275.34 113.39 272.94 113.91 C 272.46 111.83 271.51 109.38 274.93 109.84 C 274.39 110.43 273.33 111.62 272.79 112.21 C 273.76 111.47 276.40 111.29 275.34 109.37 C 278.25 109.88 280.92 108.19 283.73 107.75 C 281.34 106.36 278.78 108.18 276.45 108.78 C 275.68 106.45 275.49 106.42 275.88 108.69 C 275.06 108.35 273.43 107.66 272.62 107.32 C 272.65 107.81 272.73 108.79 272.76 109.28 C 271.00 108.71 268.67 109.17 267.50 107.42 L 266.68 107.75 C 266.29 107.20 265.51 106.09 265.12 105.54 C 265.37 104.87 265.62 104.20 265.88 103.53 C 264.27 104.03 263.38 103.33 263.20 101.43 C 262.42 101.74 260.86 102.36 260.08 102.68 L 258.18 101.17 C 259.49 99.39 261.55 98.47 263.18 97.04 C 262.05 97.51 259.77 98.43 258.63 98.89 C 259.81 96.96 261.82 95.95 263.63 94.77 C 263.24 94.45 262.45 93.83 262.05 93.52 C 263.75 91.64 265.87 90.24 267.97 88.87 C 266.77 86.43 264.86 88.54 263.51 89.27 C 261.56 90.37 260.55 92.40 259.34 94.17 C 260.45 95.88 259.11 97.40 258.26 98.86 C 256.78 97.85 255.28 96.84 253.53 96.38 C 250.73 94.64 248.20 91.91 244.81 91.49 C 244.12 88.83 242.00 86.24 243.12 83.40 C 245.91 84.39 246.35 86.98 246.48 89.62 C 247.03 89.64 248.13 89.66 248.68 89.67 C 248.21 88.52 247.76 87.38 247.31 86.23 C 248.46 86.42 249.62 86.62 250.79 86.73 C 252.68 87.44 254.33 88.49 255.85 89.76 C 258.82 88.26 262.09 87.48 265.07 86.03 C 262.53 82.29 260.67 86.68 257.94 86.45 C 255.78 87.26 254.49 85.54 253.19 84.18 C 252.08 84.93 250.72 84.96 250.22 83.52 C 250.00 83.43 249.55 83.26 249.32 83.17 C 249.36 83.75 249.42 84.91 249.45 85.49 L 248.15 85.50 C 248.21 84.57 248.33 82.72 248.39 81.79 C 247.69 81.81 246.29 81.85 245.59 81.88 C 245.55 81.40 245.47 80.46 245.43 79.98 L 245.29 81.44 C 244.67 81.71 243.42 82.23 242.79 82.49 C 242.36 81.91 241.93 81.31 241.52 80.71 C 243.26 79.81 244.96 77.94 247.11 78.69 C 247.35 78.40 247.85 77.83 248.09 77.54 C 251.60 79.60 254.22 84.46 258.79 83.49 C 260.29 82.44 262.15 81.69 263.05 80.00 C 263.83 80.87 266.46 81.27 265.80 82.70 C 265.29 82.93 264.26 83.40 263.75 83.64 C 264.35 84.66 266.09 87.18 266.72 84.34 C 268.69 83.41 267.59 86.64 266.06 85.81 L 266.95 87.39 C 267.53 87.51 268.68 87.76 269.25 87.89 C 269.05 85.29 271.93 85.48 273.55 84.66 C 272.96 83.31 271.95 82.44 270.53 82.05 C 270.55 82.59 270.59 83.67 270.61 84.21 C 269.08 81.96 267.17 80.02 265.36 78.00 C 267.13 77.39 268.89 77.21 270.23 78.70 C 269.74 78.27 268.75 77.42 268.25 77.00 C 268.61 73.26 272.29 76.60 274.03 77.12 C 272.96 78.35 271.56 79.16 270.17 79.93 C 271.14 80.76 272.24 81.32 273.48 81.60 C 274.03 82.20 274.66 84.95 275.62 83.85 L 275.54 83.28 C 275.10 80.80 279.21 80.09 280.87 78.84 C 280.06 78.82 279.24 78.81 278.43 78.80 C 278.49 77.97 278.61 76.31 278.67 75.48 C 282.47 76.30 285.83 81.01 289.88 77.76 C 287.73 77.54 285.58 77.36 283.44 77.05 C 284.07 76.49 284.70 75.93 285.34 75.38 L 283.23 76.15 L 283.36 73.09 C 283.19 73.83 282.87 75.30 282.70 76.03 C 281.86 74.48 280.88 73.03 278.97 73.14 C 276.76 70.82 274.03 69.01 272.18 66.36 C 272.70 66.38 273.75 66.40 274.28 66.42 C 273.59 65.29 273.43 64.11 273.79 62.87 L 271.80 61.82 C 272.58 61.61 274.15 61.20 274.94 60.99 C 276.20 62.42 279.75 65.67 276.05 66.50 C 277.00 67.84 279.70 68.88 278.34 70.87 C 279.85 71.49 281.43 71.89 283.08 72.05 C 282.26 70.69 281.46 69.32 280.66 67.95 C 281.30 67.86 282.57 67.67 283.20 67.57 C 281.95 67.50 280.69 67.60 279.46 67.41 C 277.96 66.91 278.43 65.13 278.14 63.93 C 278.64 64.44 279.63 65.46 280.13 65.97 C 280.97 64.67 281.93 63.34 281.73 61.70 L 279.26 63.78 C 278.93 62.34 278.56 60.92 278.15 59.51 C 279.51 59.83 280.93 59.91 282.30 59.54 C 281.19 57.81 279.73 56.21 279.28 54.14 M 295.52 71.25 C 297.96 73.26 301.53 77.38 305.09 75.21 C 301.72 74.36 298.61 72.78 295.52 71.25 M 248.75 89.12 C 249.33 90.51 250.82 91.12 251.66 92.32 C 252.25 92.39 253.43 92.54 254.01 92.62 C 252.31 91.38 251.01 89.32 248.75 89.12 M 315.29 90.03 L 315.30 90.68 L 315.94 90.67 L 315.94 90.02 L 315.29 90.03 M 310.13 95.82 C 309.69 96.78 310.55 98.97 311.79 98.48 C 312.40 97.51 311.43 95.13 310.13 95.82 Z" />
<path fill="#ffffff" opacity="1.00" d=" M 201.14 55.28 C 202.21 56.10 203.29 56.99 203.83 58.28 C 204.77 57.84 205.71 57.40 206.66 56.99 C 207.50 58.05 208.31 59.13 209.09 60.23 C 208.55 60.19 207.47 60.09 206.93 60.04 L 207.25 58.66 C 206.34 59.07 205.56 60.05 204.47 59.80 C 203.13 58.48 201.96 56.97 201.14 55.28 Z" />
<path fill="#ffffff" opacity="1.00" d=" M 270.73 54.87 C 272.19 54.76 273.65 54.62 275.12 54.44 C 277.20 55.82 279.11 57.45 280.38 59.65 C 279.13 59.20 277.86 58.73 276.91 57.77 C 276.91 58.73 276.92 60.67 276.93 61.63 C 275.97 60.68 275.04 59.72 274.12 58.75 C 273.62 58.81 272.62 58.94 272.13 59.00 C 271.45 57.69 270.99 56.32 270.73 54.87 Z" />
<path fill="#ffffff" opacity="1.00" d=" M 296.60 54.19 C 297.46 54.44 299.17 54.93 300.03 55.18 C 300.68 55.82 301.36 56.43 302.06 57.01 C 302.94 57.34 303.84 57.63 304.75 57.86 C 305.27 57.05 306.31 55.43 306.83 54.62 C 306.67 55.74 306.36 57.99 306.20 59.12 C 306.60 58.69 307.40 57.82 307.81 57.38 C 310.07 58.63 312.33 59.91 314.78 60.79 C 314.56 61.10 314.14 61.71 313.92 62.01 C 311.78 61.33 309.75 60.32 307.54 59.86 C 309.63 62.24 312.81 63.01 315.21 64.94 C 307.90 63.74 301.84 59.16 296.60 54.19 Z" />
<path fill="#ffffff" opacity="1.00" d=" M 320.52 60.35 C 321.96 58.74 322.85 56.79 323.51 54.76 C 323.54 57.05 323.64 59.37 323.25 61.65 C 325.03 63.93 320.60 65.09 320.86 67.41 L 320.42 66.95 C 319.41 68.00 318.29 68.95 317.04 69.72 C 317.57 67.74 319.17 66.41 320.65 65.13 L 318.43 64.94 C 319.29 63.86 320.19 62.82 321.12 61.79 C 320.97 61.43 320.67 60.71 320.52 60.35 Z" />
<path fill="#ffffff" opacity="1.00" d=" M 257.85 62.84 C 261.64 61.07 264.23 57.65 267.50 55.15 C 270.26 55.61 267.73 57.79 266.79 58.59 C 262.44 62.38 257.24 65.04 251.92 67.18 C 251.48 67.14 250.60 67.05 250.17 67.01 C 249.67 67.22 248.69 67.63 248.19 67.84 C 248.25 67.48 248.37 66.75 248.43 66.38 C 251.42 64.83 254.85 64.39 257.85 62.84 Z" />
<path fill="#ffffff" opacity="1.00" d=" M 198.20 57.71 C 199.79 58.77 201.46 59.90 202.17 61.77 C 201.76 61.57 200.95 61.16 200.55 60.96 C 199.06 63.41 196.35 61.62 194.20 61.78 C 194.54 61.01 195.23 59.48 195.57 58.72 C 196.72 59.40 197.87 60.09 199.02 60.77 C 198.74 59.75 198.46 58.73 198.20 57.71 Z" />
<path fill="#ffffff" opacity="1.00" d=" M 250.32 69.74 C 256.82 67.08 262.90 63.49 268.85 59.78 C 269.04 61.96 268.06 63.88 266.58 65.45 C 267.44 65.11 269.16 64.43 270.02 64.09 C 267.58 67.65 263.07 68.97 260.77 72.64 C 257.98 73.83 255.22 76.16 252.01 75.50 C 252.40 75.24 253.18 74.72 253.56 74.46 L 253.33 73.31 C 254.98 73.91 256.55 72.96 258.11 72.60 L 257.89 71.31 L 258.57 71.81 C 259.03 71.61 259.93 71.20 260.39 71.00 L 261.01 70.65 L 260.89 70.04 C 260.76 70.28 260.51 70.76 260.39 71.00 C 259.76 71.08 258.52 71.23 257.89 71.31 C 256.53 72.34 254.88 72.85 253.21 73.08 C 255.50 71.23 258.10 69.73 260.98 69.04 C 263.53 67.61 266.13 65.91 266.79 62.79 C 261.39 65.39 256.63 70.10 250.39 70.40 C 250.37 70.23 250.34 69.91 250.32 69.74 Z" />
<path fill="#ffffff" opacity="1.00" d=" M 188.93 62.55 L 190.48 62.79 L 190.76 61.28 C 192.21 62.47 194.64 62.72 195.58 64.43 C 193.24 65.20 191.20 63.00 188.93 62.55 Z" />
<path fill="#ffffff" opacity="1.00" d=" M 219.25 62.30 C 224.69 64.72 227.00 72.78 233.78 72.28 L 233.30 73.61 C 234.29 73.56 236.28 73.45 237.27 73.39 C 235.61 74.65 233.56 75.11 231.59 75.65 C 229.32 72.65 226.49 70.14 223.92 67.42 C 222.33 65.74 220.12 64.55 219.25 62.30 Z" />
<path fill="#ffffff" opacity="1.00" d=" M 155.82 64.18 C 158.60 64.58 161.26 65.48 163.87 66.45 L 163.26 67.68 C 164.08 67.77 165.72 67.96 166.54 68.05 C 166.60 68.75 166.73 70.16 166.79 70.87 C 163.09 69.82 159.22 71.09 155.45 70.45 C 155.94 69.39 157.57 68.37 156.04 67.16 C 157.40 67.29 160.13 67.55 161.49 67.68 C 160.06 65.72 156.64 66.64 155.82 64.18 Z" />
<path fill="#ffffff" opacity="1.00" d=" M 320.86 67.41 C 321.67 66.66 322.50 64.80 323.84 65.30 C 324.61 66.81 320.46 70.44 320.86 67.41 Z" />
<path fill="#ffffff" opacity="1.00" d=" M 203.99 67.80 C 207.73 67.05 211.48 68.21 215.18 68.68 C 217.62 68.84 219.62 70.34 221.70 71.45 C 224.23 72.75 224.86 75.79 226.60 77.84 L 224.90 79.25 C 225.53 79.32 226.81 79.47 227.44 79.54 C 227.41 81.00 227.42 82.46 227.39 83.92 C 226.64 83.43 225.14 82.45 224.38 81.96 C 225.50 83.67 228.25 84.71 227.70 87.13 C 227.15 88.48 228.69 91.40 226.43 91.57 C 226.44 92.20 226.47 93.47 226.48 94.11 C 224.27 91.46 224.32 87.84 222.73 84.88 C 222.87 84.09 223.16 82.51 223.30 81.72 C 222.63 80.71 221.98 79.68 221.35 78.64 C 222.36 75.87 218.84 75.03 217.19 73.76 C 217.86 72.96 218.53 72.14 219.18 71.32 C 217.91 72.06 216.45 73.29 214.94 72.26 C 211.98 70.73 208.49 71.71 205.44 70.57 C 204.42 71.51 202.69 72.11 202.96 73.86 L 201.77 73.88 C 202.09 71.77 201.20 68.52 203.99 67.80 Z" />
<path fill="#ffffff" opacity="1.00" d=" M 167.34 68.10 C 168.25 68.36 169.05 68.80 169.74 69.42 C 173.78 69.28 177.26 71.60 180.79 73.24 C 180.21 73.69 179.04 74.58 178.46 75.03 C 174.98 74.19 171.73 72.61 168.31 71.57 C 169.09 70.04 168.73 69.04 167.21 68.57 L 167.34 68.10 M 169.20 70.11 C 169.54 71.26 170.38 71.51 171.72 70.84 L 171.80 70.23 C 171.15 70.20 169.85 70.14 169.20 70.11 M 171.72 70.84 L 171.63 71.47 C 174.18 71.88 176.93 74.71 179.40 73.20 C 176.91 72.60 174.16 69.73 171.72 70.84 Z" />
<path fill="#ffffff" opacity="1.00" d=" M 266.34 72.95 C 265.98 70.28 269.30 69.79 271.13 68.97 C 270.52 70.95 268.51 71.86 267.12 73.21 C 265.68 74.26 264.50 76.36 262.41 75.20 C 262.80 78.28 258.50 79.59 256.02 79.65 C 257.41 77.22 262.21 77.53 261.51 74.13 C 262.31 74.36 263.91 74.81 264.71 75.04 L 262.83 72.84 L 265.01 73.86 L 264.25 71.98 C 264.78 72.22 265.82 72.71 266.34 72.95 Z" />
<path fill="#ffffff" opacity="1.00" d=" M 310.22 75.28 C 315.86 72.62 321.90 71.03 327.98 69.86 C 331.25 71.75 329.47 76.66 329.13 79.76 L 327.80 79.04 C 327.25 80.04 326.68 81.02 326.11 81.99 L 325.01 80.06 C 324.48 79.94 323.43 79.70 322.91 79.58 C 324.48 77.97 326.20 76.51 327.91 75.05 C 327.21 73.76 326.36 72.52 325.09 71.74 C 325.49 72.80 325.90 73.86 326.30 74.92 C 324.01 77.08 321.45 79.71 318.14 79.98 C 318.92 79.10 319.72 78.24 320.54 77.40 L 319.89 75.11 C 320.50 75.29 321.72 75.67 322.33 75.85 L 321.13 73.67 C 321.89 73.89 323.42 74.33 324.19 74.55 C 322.14 72.18 317.32 74.03 317.10 77.04 C 316.56 76.68 315.49 75.95 314.95 75.59 C 314.02 77.38 313.31 79.40 311.60 80.60 C 310.81 81.81 309.81 82.85 308.62 83.66 C 308.94 80.83 309.61 78.06 310.22 75.28 Z" />
<path fill="#ffffff" opacity="1.00" d=" M 207.31 72.36 C 208.79 72.92 210.29 73.64 211.86 72.85 C 214.32 75.63 218.81 76.59 219.55 80.72 C 215.78 79.55 213.74 75.93 210.22 74.30 C 208.70 74.41 207.39 74.09 207.31 72.36 Z" />
<path fill="#ffffff" opacity="1.00" d=" M 155.14 72.42 C 156.10 72.41 158.03 72.41 158.99 72.41 C 158.96 73.07 158.89 74.37 158.86 75.03 C 158.99 74.29 159.25 72.81 159.37 72.07 C 159.92 72.46 161.01 73.26 161.56 73.65 L 161.48 72.36 C 164.16 72.28 166.89 72.30 169.47 73.18 C 170.84 76.13 166.91 75.25 165.27 75.53 C 163.04 79.71 157.70 80.17 154.00 82.60 C 155.60 79.69 159.09 79.20 161.36 77.08 C 158.49 77.31 155.93 79.08 152.98 78.72 C 154.21 77.81 155.51 77.01 156.80 76.20 C 156.28 75.95 155.24 75.45 154.72 75.20 C 155.21 75.10 156.21 74.92 156.71 74.83 C 156.32 74.22 155.53 73.02 155.14 72.42 Z" />
<path fill="#ffffff" opacity="1.00" d=" M 270.67 74.97 C 272.18 71.94 275.12 74.25 276.99 75.58 C 274.83 77.36 272.75 75.88 270.67 74.97 Z" />
<path fill="#ffffff" opacity="1.00" d=" M 276.26 72.97 C 276.98 73.60 276.98 73.60 276.26 72.97 Z" />
<path fill="#ffffff" opacity="1.00" d=" M 169.52 75.11 C 170.37 73.68 172.86 74.91 173.60 75.69 C 172.47 76.36 169.96 76.77 169.52 75.11 Z" />
<path fill="#ffffff" opacity="1.00" d=" M 202.00 73.88 C 206.78 74.55 210.09 78.54 213.35 81.73 C 211.41 80.60 209.16 80.52 206.99 80.30 C 207.57 81.11 208.16 81.92 208.76 82.73 C 209.36 82.62 209.96 82.52 210.57 82.42 C 211.03 82.76 211.95 83.45 212.41 83.80 C 213.64 84.67 214.96 85.41 216.19 86.30 C 213.10 85.97 209.93 84.78 206.82 85.55 C 207.73 85.64 209.55 85.82 210.46 85.92 C 210.38 86.40 210.23 87.38 210.15 87.86 C 211.02 87.74 212.75 87.48 213.62 87.35 C 213.61 87.76 213.60 88.58 213.60 88.98 C 215.27 88.47 216.93 87.92 218.58 87.31 C 218.66 87.62 218.81 88.23 218.89 88.53 C 216.94 89.20 216.08 91.04 215.20 92.73 C 214.01 93.05 213.50 91.10 212.63 90.50 C 209.97 88.98 207.34 87.32 205.29 85.00 C 205.31 83.01 203.43 81.84 202.84 80.08 C 202.17 78.08 202.07 75.96 202.00 73.88 Z" />
<path fill="#ffffff" opacity="1.00" d=" M 316.73 79.81 C 314.40 78.70 317.88 76.14 319.29 76.14 C 319.25 77.61 317.81 78.94 316.73 79.81 Z" />
<path fill="#ffffff" opacity="1.00" d=" M 171.28 77.00 C 173.90 77.11 175.70 79.21 176.71 81.43 C 176.15 81.45 175.03 81.49 174.47 81.51 C 174.57 82.37 174.75 84.09 174.84 84.95 C 172.67 83.64 170.36 81.30 167.68 82.80 C 167.56 83.03 167.31 83.49 167.19 83.72 C 169.69 84.67 172.31 85.64 174.02 87.83 C 171.65 87.48 169.63 86.07 167.46 85.17 L 167.49 86.43 C 169.74 87.26 173.11 88.34 172.56 91.45 C 171.39 91.51 170.10 91.22 169.13 92.05 C 169.72 92.58 170.89 93.64 171.48 94.17 C 169.27 95.03 166.83 94.33 165.81 92.13 C 164.44 92.08 160.70 94.22 161.14 91.61 C 162.73 91.19 164.36 90.95 165.97 90.58 C 166.51 88.71 168.63 89.56 170.04 89.56 C 168.85 88.89 167.79 88.03 166.83 87.07 C 166.60 90.62 161.93 89.32 159.87 90.85 C 160.18 90.39 160.80 89.47 161.11 89.00 C 161.59 88.82 162.56 88.45 163.04 88.27 L 162.10 87.67 C 161.85 88.01 161.36 88.67 161.11 89.00 C 160.10 89.31 159.10 89.63 158.11 89.96 C 158.61 90.47 160.51 91.05 159.51 92.04 C 156.85 93.08 154.59 94.88 152.10 96.25 C 152.89 94.55 153.60 92.81 154.05 90.99 C 158.06 88.76 162.10 86.12 166.77 85.66 C 166.41 85.15 165.69 84.15 165.33 83.64 C 161.62 84.21 158.49 86.88 154.94 88.11 C 155.65 87.11 156.38 86.05 157.61 85.64 C 160.68 84.29 163.63 82.27 167.10 82.19 C 167.06 81.81 166.97 81.06 166.92 80.69 C 162.03 80.21 158.73 85.01 154.06 85.67 C 157.45 81.86 162.62 80.42 167.33 78.94 C 167.83 80.00 168.37 81.05 168.94 82.08 L 170.35 80.39 L 170.22 78.98 C 171.58 79.50 174.29 80.53 175.65 81.04 C 174.56 80.03 172.37 78.01 171.28 77.00 Z" />
<path fill="#ffffff" opacity="1.00" d=" M 229.94 80.18 C 232.18 81.38 234.48 83.04 233.72 86.00 C 231.21 85.11 230.59 82.42 229.94 80.18 Z" />
<path fill="#ffffff" opacity="1.00" d=" M 321.42 81.42 C 321.80 81.81 321.80 81.81 321.42 81.42 Z" />
<path fill="#ffffff" opacity="1.00" d=" M 321.15 80.13 C 324.66 78.39 325.21 82.49 327.61 83.53 C 327.19 84.40 326.36 86.13 325.94 87.00 C 324.84 85.98 323.73 84.98 322.63 83.98 C 323.01 83.54 323.40 83.12 323.80 82.70 L 321.15 80.13 Z" />
<path fill="#ffffff" opacity="1.00" d=" M 240.96 82.20 C 240.94 83.41 240.89 84.62 240.81 85.83 C 241.59 87.27 242.45 88.67 243.45 89.97 C 243.25 90.45 242.85 91.42 242.65 91.91 C 241.76 89.69 240.18 88.11 237.92 87.36 C 239.49 88.38 240.50 89.83 240.94 91.70 L 238.40 90.21 C 237.69 91.75 235.29 92.67 236.40 94.71 C 239.73 93.54 243.27 93.39 246.77 93.26 C 247.00 93.76 247.47 94.74 247.71 95.23 C 251.39 94.40 250.61 98.76 249.09 100.54 C 247.40 99.55 246.76 98.14 247.17 96.33 C 244.90 99.12 241.68 100.21 238.24 100.90 C 238.51 104.04 241.91 101.55 243.25 103.79 C 244.87 103.55 246.48 103.28 248.11 103.07 C 248.00 105.10 246.70 106.65 244.64 105.38 C 244.51 105.73 244.24 106.42 244.10 106.77 C 242.28 105.87 240.51 104.88 238.71 103.97 C 239.41 106.39 241.22 108.25 243.26 109.59 C 242.52 110.47 241.75 111.31 240.95 112.13 C 239.53 109.25 238.72 106.13 237.38 103.21 C 237.59 101.84 238.80 99.98 236.12 99.61 C 237.36 97.46 240.11 97.61 242.19 96.80 C 243.55 98.25 244.92 96.62 246.18 96.13 C 243.45 93.87 240.77 97.22 237.87 96.60 C 237.08 95.99 236.33 95.35 235.60 94.68 C 235.33 93.09 234.93 91.53 234.53 89.97 C 236.78 87.46 238.28 84.33 240.96 82.20 Z" />
<path fill="#ffffff" opacity="1.00" d=" M 318.34 83.23 C 318.70 83.02 319.43 82.60 319.79 82.39 C 321.61 84.45 324.75 85.46 325.42 88.36 C 324.72 88.11 323.33 87.60 322.63 87.35 C 322.85 88.28 323.29 90.13 323.51 91.06 C 322.28 90.00 320.35 89.37 319.77 87.72 L 320.04 87.11 C 320.62 87.16 321.79 87.26 322.38 87.31 C 322.05 86.04 321.30 85.06 320.14 84.38 C 319.36 85.36 318.49 86.24 317.51 87.02 C 317.25 86.32 316.72 84.92 316.46 84.23 C 316.93 83.98 317.87 83.48 318.34 83.23 Z" />
<path fill="#ffffff" opacity="1.00" d=" M 318.68 88.59 C 318.22 88.23 318.22 88.23 318.68 88.59 Z" />
<path fill="#ffffff" opacity="1.00" d=" M 318.68 88.59 L 319.33 88.69 L 319.22 89.31 C 319.09 89.13 318.81 88.77 318.68 88.59 Z" />
<path fill="#ffffff" opacity="1.00" d=" M 215.35 93.24 C 217.34 92.39 218.13 89.99 220.21 89.35 C 219.51 90.81 218.77 92.25 217.98 93.66 L 219.76 93.42 C 220.00 93.67 220.47 94.18 220.71 94.43 C 221.69 94.81 222.68 95.18 223.68 95.53 L 223.47 96.50 C 223.95 96.37 224.93 96.11 225.41 95.97 C 225.07 98.47 226.48 101.59 224.67 103.70 C 222.63 101.05 220.46 98.44 219.18 95.31 C 217.36 96.06 216.45 94.31 215.35 93.24 Z" />
<path fill="#ffffff" opacity="1.00" d=" M 159.29 97.26 C 160.33 94.96 162.00 92.91 164.72 92.68 C 161.77 94.29 162.50 97.64 162.62 100.38 C 159.57 104.00 155.26 106.46 152.62 110.42 L 153.96 110.75 C 156.02 107.36 159.36 104.96 162.46 102.60 C 161.27 106.67 157.64 109.02 154.81 111.87 C 153.55 113.40 151.41 112.31 149.75 112.42 C 150.76 112.01 151.79 111.67 152.85 111.39 C 150.98 108.74 153.94 107.24 155.42 105.52 C 154.42 106.04 152.42 107.09 151.43 107.61 C 151.07 106.79 150.70 105.98 150.33 105.17 C 153.04 102.23 156.27 99.86 159.29 97.26 M 155.75 101.14 C 156.14 101.53 156.53 101.93 156.93 102.33 C 158.48 99.99 161.94 99.49 162.42 96.36 C 160.46 98.29 158.64 100.60 155.75 101.14 M 153.02 105.21 C 153.78 104.63 155.32 103.48 156.08 102.90 C 154.90 102.04 152.08 103.76 153.02 105.21 Z" />
<path fill="#ffffff" opacity="1.00" d=" M 158.69 93.32 C 158.95 93.96 159.47 95.24 159.73 95.88 C 156.63 97.45 153.97 99.76 150.80 101.20 C 152.36 97.63 156.21 96.11 158.69 93.32 Z" />
<path fill="#ffffff" opacity="1.00" d=" M 323.52 96.76 C 322.83 94.90 325.02 94.51 326.03 93.70 C 325.42 94.51 324.21 96.12 323.60 96.93 C 326.42 94.17 326.37 97.86 327.32 99.16 C 325.37 100.16 323.69 101.88 321.37 101.94 C 322.09 102.45 322.81 102.96 323.53 103.49 L 323.48 104.01 C 323.53 104.38 323.63 105.12 323.67 105.49 C 324.67 104.99 325.68 104.49 326.69 103.99 C 326.85 104.21 327.17 104.64 327.34 104.85 L 327.45 104.19 L 326.69 103.99 C 326.74 103.59 326.84 102.79 326.89 102.39 C 325.74 102.66 324.62 103.03 323.53 103.49 C 323.78 101.62 325.84 100.89 326.97 99.62 C 328.14 102.61 331.14 104.66 331.52 107.96 C 333.30 109.93 334.87 112.08 336.40 114.26 C 335.90 114.42 334.88 114.74 334.38 114.90 C 332.42 118.54 327.71 117.88 324.94 120.62 C 327.01 116.86 331.76 115.22 333.43 111.27 C 330.20 112.71 328.50 116.13 325.29 117.63 C 326.92 116.11 328.14 114.37 328.95 112.40 C 328.17 112.74 326.62 113.43 325.85 113.77 C 325.07 115.65 323.67 117.14 321.85 118.05 C 322.69 116.58 324.00 115.49 325.12 114.25 L 323.13 114.64 C 324.21 113.79 325.39 112.46 324.00 111.27 L 325.55 111.82 C 325.75 111.15 326.15 109.81 326.35 109.14 C 326.99 109.90 326.12 110.91 326.39 111.77 C 327.97 112.01 328.81 110.04 330.08 109.41 C 329.18 109.04 328.29 108.67 327.43 108.23 L 329.11 107.68 C 329.37 107.23 329.89 106.31 330.16 105.85 C 327.68 107.03 325.23 108.29 322.99 109.89 C 322.35 111.10 321.11 111.67 319.88 112.09 C 320.80 110.99 321.95 110.12 323.05 109.20 L 320.74 109.05 C 321.02 108.73 321.58 108.08 321.87 107.75 C 322.12 107.12 322.63 105.86 322.89 105.24 C 321.53 105.67 320.17 106.14 318.83 106.64 C 319.56 106.22 321.00 105.38 321.72 104.96 C 320.73 104.09 319.45 103.64 318.13 103.61 C 320.92 102.40 322.50 100.00 324.08 97.54 C 323.54 97.34 322.45 96.94 321.90 96.75 L 323.52 96.76 Z" />
<path fill="#ffffff" opacity="1.00" d=" M 166.22 94.89 C 167.72 94.11 171.51 95.36 169.96 97.48 C 168.58 97.69 166.87 96.01 166.22 94.89 Z" />
<path fill="#ffffff" opacity="1.00" d=" M 303.61 99.03 C 303.63 98.02 302.51 95.19 304.64 96.04 C 305.85 96.84 307.98 96.99 308.32 98.62 C 306.92 99.87 305.21 99.77 303.61 99.03 Z" />
<path fill="#ffffff" opacity="1.00" d=" M 166.09 96.54 C 168.47 97.54 169.39 99.97 170.39 102.15 L 168.54 101.48 C 168.72 102.21 169.08 103.67 169.26 104.41 C 167.70 103.19 166.21 101.93 164.77 100.59 C 165.74 99.46 166.18 98.11 166.09 96.54 Z" />
<path fill="#ffffff" opacity="1.00" d=" M 286.03 104.19 C 288.17 101.40 285.09 99.13 285.39 96.38 C 287.87 97.28 291.90 96.27 293.10 99.16 C 293.93 100.12 295.64 100.74 295.51 102.23 C 292.30 102.78 288.89 102.11 286.03 104.19 Z" />
<path fill="#ffffff" opacity="1.00" d=" M 251.22 101.21 C 252.25 100.11 253.34 99.05 254.50 98.07 C 254.90 98.87 255.32 99.67 255.73 100.47 C 254.60 101.56 253.37 103.14 254.72 104.59 C 255.52 102.80 256.89 101.96 258.84 102.08 C 258.16 102.81 256.78 104.26 256.09 104.98 C 257.22 104.37 258.34 103.75 259.47 103.13 L 259.27 104.65 C 260.01 104.44 261.49 104.02 262.22 103.80 C 262.84 106.20 259.33 105.91 259.39 107.57 C 260.61 107.27 261.72 106.58 262.71 105.49 C 262.81 107.18 262.67 108.87 261.98 110.43 C 262.50 110.25 263.54 109.88 264.06 109.70 C 264.76 109.89 266.16 110.27 266.85 110.46 C 267.35 113.85 263.27 113.46 261.18 112.91 C 261.30 112.09 261.54 110.46 261.66 109.65 C 259.17 110.84 259.36 106.54 257.16 106.89 C 254.67 107.39 253.15 105.33 251.29 104.15 C 252.06 103.44 252.85 102.73 253.61 102.01 L 251.22 101.21 Z" />
<path fill="#ffffff" opacity="1.00" d=" M 226.71 105.15 C 224.30 104.00 227.43 100.86 227.70 99.33 C 227.69 101.14 228.48 103.96 226.71 105.15 Z" />
<path fill="#ffffff" opacity="1.00" d=" M 163.28 107.42 C 163.88 105.74 164.97 104.30 165.54 102.61 C 166.58 103.65 167.65 104.67 168.69 105.72 C 167.55 105.81 166.45 106.10 165.48 106.71 C 166.13 107.28 167.44 108.41 168.09 108.97 C 167.99 109.67 167.79 111.08 167.69 111.78 C 164.99 112.30 164.89 108.81 163.28 107.42 Z" />
<path fill="#ffffff" opacity="1.00" d=" M 310.29 105.13 C 312.82 104.33 312.07 108.67 310.00 108.25 C 308.59 107.73 308.89 105.45 310.29 105.13 Z" />
<path fill="#ffffff" opacity="1.00" d=" M 227.14 106.03 C 227.69 105.76 228.78 105.22 229.33 104.96 C 229.09 106.73 230.72 107.66 231.63 108.88 C 231.52 108.15 231.30 106.70 231.19 105.97 C 232.11 106.36 233.95 107.13 234.86 107.52 C 234.23 108.60 233.61 109.69 232.99 110.78 C 234.25 109.75 235.42 108.60 236.94 107.93 C 236.71 108.93 236.27 110.94 236.05 111.95 C 236.64 111.58 237.82 110.83 238.41 110.45 C 237.74 113.50 240.34 115.29 241.36 117.79 C 239.75 118.22 241.36 119.69 240.74 120.68 C 239.93 121.08 239.09 121.42 238.23 121.70 C 239.36 122.98 240.43 124.37 241.19 125.93 C 240.24 125.27 238.34 123.97 237.39 123.31 C 238.34 124.95 239.36 126.59 240.45 128.15 L 239.38 128.86 C 239.98 131.02 241.02 133.08 241.15 135.36 C 238.31 133.68 237.71 129.54 237.32 126.49 L 236.50 126.53 C 236.41 125.93 236.23 124.74 236.13 124.15 C 236.49 123.04 237.13 121.92 236.61 120.75 C 238.24 119.91 238.58 118.08 239.11 116.49 C 238.01 115.34 237.15 113.83 235.54 113.33 C 231.89 112.09 229.34 109.04 227.14 106.03 Z" />
<path fill="#ffffff" opacity="1.00" d=" M 157.78 112.70 C 156.42 110.56 159.41 108.38 161.12 107.96 C 162.08 109.78 158.98 110.86 159.86 112.78 C 157.21 115.76 154.03 118.26 150.82 120.60 C 152.40 117.39 155.52 115.38 157.78 112.70 Z" />
<path fill="#ffffff" opacity="1.00" d=" M 222.39 112.31 C 223.68 110.73 224.63 108.50 226.81 108.00 C 225.66 110.19 224.66 114.96 221.33 112.99 L 222.69 114.78 L 222.40 115.48 C 221.88 115.46 220.84 115.42 220.32 115.40 L 220.46 116.64 L 218.44 116.67 C 219.15 117.43 219.87 118.17 220.62 118.90 C 220.35 119.24 219.80 119.91 219.52 120.24 L 219.67 121.68 L 218.36 121.33 C 219.57 124.04 217.32 126.90 214.97 128.13 C 215.49 125.96 217.09 124.34 218.34 122.58 C 217.50 122.97 215.82 123.76 214.98 124.16 C 216.02 122.49 217.22 120.91 218.35 119.30 C 217.96 119.12 217.19 118.77 216.80 118.59 C 217.14 118.00 217.82 116.82 218.16 116.23 C 219.50 114.86 220.54 113.05 222.39 112.31 Z" />
<path fill="#ffffff" opacity="1.00" d=" M 246.13 109.93 C 245.12 107.09 251.93 108.03 248.92 110.51 C 248.22 110.36 246.83 110.07 246.13 109.93 Z" />
<path fill="#ffffff" opacity="1.00" d=" M 251.26 108.18 C 253.41 109.79 254.81 112.35 255.72 114.85 C 254.80 114.33 253.69 112.19 252.65 113.69 C 251.34 115.85 249.97 112.40 251.17 111.40 L 251.87 110.98 L 252.51 110.48 C 252.20 109.90 251.57 108.75 251.26 108.18 Z" />
<path fill="#ffffff" opacity="1.00" d=" M 283.09 110.38 C 285.96 109.84 288.95 109.99 291.73 108.95 C 290.77 109.97 289.90 111.14 288.56 111.69 L 288.52 112.28 C 286.61 112.63 284.43 113.14 283.23 114.82 C 283.73 115.81 284.23 116.79 284.75 117.77 C 286.84 117.20 288.89 116.34 291.07 116.16 C 291.20 116.80 291.46 118.09 291.59 118.74 C 290.66 118.67 288.80 118.53 287.87 118.46 C 288.58 119.18 289.46 119.56 290.51 119.58 L 290.51 120.79 C 291.39 120.64 293.14 120.33 294.02 120.18 C 293.80 119.70 293.36 118.75 293.14 118.28 C 293.56 118.36 294.41 118.54 294.83 118.62 C 295.10 118.20 295.64 117.35 295.91 116.93 C 296.54 117.58 297.17 118.22 297.81 118.85 C 299.96 116.73 303.27 117.41 305.86 118.21 C 305.72 118.98 305.42 120.52 305.27 121.29 C 304.74 121.08 303.69 120.65 303.17 120.44 C 303.26 120.67 303.43 121.13 303.52 121.36 C 304.10 121.55 305.24 121.92 305.82 122.11 C 305.68 122.57 305.41 123.49 305.28 123.95 C 304.03 124.50 302.88 124.30 301.82 123.35 C 302.73 124.64 303.98 125.61 305.30 126.45 C 304.64 127.69 303.66 128.49 302.36 128.83 C 300.62 126.96 295.99 124.67 295.14 128.47 C 297.56 126.33 300.16 128.41 301.44 130.66 L 301.10 129.08 C 301.63 129.16 302.70 129.34 303.23 129.43 C 303.68 129.14 304.59 128.55 305.04 128.26 C 305.35 130.86 307.21 132.89 307.68 135.46 C 310.94 138.31 313.78 142.45 312.28 146.98 C 312.55 148.98 313.06 150.93 313.68 152.85 C 312.90 152.26 312.31 151.28 311.32 151.07 C 310.86 151.43 309.94 152.14 309.48 152.50 C 309.67 154.22 309.89 155.95 310.12 157.67 C 309.65 157.59 308.72 157.43 308.26 157.35 C 309.36 160.02 308.72 162.88 308.35 165.64 C 306.65 165.57 304.63 165.83 303.72 164.01 C 304.83 164.31 307.06 164.91 308.17 165.21 C 307.38 164.17 305.81 162.10 305.02 161.06 C 304.33 161.28 302.97 161.73 302.28 161.95 C 301.13 159.50 303.44 157.50 304.90 155.86 C 304.84 154.61 304.77 153.36 304.68 152.11 C 305.37 152.83 306.20 153.28 307.18 153.46 C 307.31 152.89 307.57 151.73 307.71 151.15 C 308.27 151.41 309.39 151.94 309.95 152.21 L 308.89 150.03 L 309.34 149.39 L 310.02 148.97 C 311.57 147.18 310.98 144.31 311.48 142.06 C 309.43 140.35 307.35 138.66 305.04 137.32 C 303.64 137.55 302.24 137.78 300.91 138.26 C 302.12 138.95 303.47 139.17 304.84 139.01 C 305.33 139.58 306.30 140.73 306.78 141.30 C 305.98 141.36 304.36 141.47 303.56 141.53 C 303.49 142.73 303.46 143.94 303.48 145.15 C 300.70 144.80 297.84 144.46 296.96 141.30 C 298.09 140.00 299.28 138.74 300.41 137.43 C 298.26 138.73 296.14 140.17 293.63 140.68 C 292.62 138.98 290.95 139.94 289.49 140.32 C 289.66 139.83 289.98 138.86 290.15 138.37 C 287.49 138.91 285.87 137.01 286.72 134.53 C 284.55 137.23 280.54 134.09 278.06 136.08 C 276.67 136.71 275.54 137.74 274.35 138.66 L 274.37 137.50 L 275.35 136.45 C 275.09 136.15 274.57 135.57 274.30 135.27 C 275.15 134.42 276.02 133.59 276.87 132.73 C 279.27 132.49 281.81 132.88 284.07 131.86 C 283.79 131.50 283.24 130.77 282.96 130.41 C 281.16 131.74 278.89 131.48 276.78 131.60 C 276.53 130.94 276.04 129.62 275.79 128.96 L 277.54 129.62 C 277.52 128.79 277.48 127.12 277.45 126.29 C 280.21 125.68 282.28 123.54 285.09 123.11 C 285.63 122.14 286.50 121.63 287.70 121.55 L 287.68 121.09 C 285.64 122.12 281.58 121.29 281.19 124.25 C 278.85 125.11 276.42 125.89 273.89 125.48 C 275.47 124.27 276.86 122.86 277.96 121.19 C 277.37 121.25 276.20 121.37 275.61 121.43 C 276.53 119.70 278.06 118.63 280.21 118.21 C 278.43 117.62 273.59 119.07 273.84 115.84 C 277.12 114.41 280.61 113.08 283.09 110.38 M 291.18 121.99 C 293.03 123.43 295.35 123.42 297.56 123.55 L 297.67 122.45 C 298.29 122.42 299.53 122.35 300.15 122.31 C 297.43 120.17 294.07 119.84 291.18 121.99 Z" />
<path fill="#ffffff" opacity="1.00" d=" M 242.35 111.10 C 242.70 111.12 243.39 111.16 243.74 111.19 C 244.48 111.32 245.95 111.60 246.69 111.73 C 246.69 112.43 246.69 113.82 246.69 114.52 C 246.91 114.60 247.36 114.76 247.59 114.84 L 246.84 113.68 C 247.03 113.32 247.42 112.61 247.61 112.25 C 249.48 111.19 249.53 114.39 250.00 115.53 C 248.35 115.36 246.66 115.11 245.12 115.91 C 243.79 114.84 239.96 112.82 242.35 111.10 Z" />
<path fill="#ffffff" opacity="1.00" d=" M 163.87 115.92 C 163.71 114.47 162.38 113.27 162.69 111.75 C 164.84 110.45 166.48 112.78 167.36 114.41 C 166.97 115.04 166.21 116.29 165.83 116.92 C 166.05 118.40 168.08 120.92 164.89 120.29 C 165.43 122.93 166.17 125.52 167.18 128.02 L 165.22 127.14 C 165.70 129.69 168.85 132.90 166.54 135.32 C 167.81 130.03 162.00 127.67 161.08 123.07 C 162.12 123.48 164.21 124.29 165.26 124.70 C 163.77 123.19 162.30 121.71 161.05 120.01 C 162.07 120.55 164.12 121.61 165.14 122.14 C 163.33 120.62 162.06 118.66 162.30 116.31 C 162.70 116.21 163.48 116.02 163.87 115.92 Z" />
<path fill="#ffffff" opacity="1.00" d=" M 262.03 113.74 C 264.19 113.65 266.36 113.66 268.53 113.63 L 268.84 114.77 C 269.23 114.64 270.01 114.38 270.41 114.25 C 269.69 116.09 271.00 117.28 272.20 118.45 C 269.88 118.31 267.72 118.83 265.73 120.02 C 266.56 120.47 267.38 120.91 268.22 121.35 L 268.43 119.60 C 270.70 119.88 272.99 120.02 275.24 119.50 C 272.33 122.05 268.18 122.06 264.90 123.99 C 264.78 124.39 264.55 125.19 264.44 125.60 C 261.17 127.55 257.58 128.97 253.84 129.69 C 254.27 129.25 255.14 128.38 255.58 127.95 C 255.46 127.52 255.22 126.67 255.10 126.24 C 256.07 125.81 257.05 125.39 258.03 124.96 L 257.31 126.68 C 257.83 126.62 258.89 126.50 259.41 126.44 L 259.26 125.62 C 260.48 124.90 262.97 125.00 263.03 123.11 C 260.86 123.84 259.07 125.57 256.41 124.55 C 257.79 123.16 259.88 122.66 261.09 121.08 C 259.80 121.49 258.55 121.98 257.29 122.44 L 257.39 123.21 C 255.41 123.18 253.88 124.46 252.34 125.50 C 251.80 125.12 250.73 124.36 250.19 123.98 C 250.88 123.75 251.57 123.52 252.27 123.30 C 255.12 121.30 258.58 120.02 262.01 119.55 L 263.34 120.93 C 265.38 119.95 265.46 117.66 265.46 115.69 C 263.73 115.99 262.59 115.34 262.03 113.74 M 264.58 120.88 C 262.76 121.02 262.53 124.39 264.64 122.79 C 265.78 122.45 266.34 120.43 264.58 120.88 Z" />
<path fill="#ffffff" opacity="1.00" d=" M 284.58 115.19 C 285.12 115.05 286.20 114.75 286.75 114.61 C 287.59 116.01 284.32 116.97 284.58 115.19 Z" />
<path fill="#ffffff" opacity="1.00" d=" M 257.51 115.17 C 258.62 115.26 259.22 115.85 259.31 116.93 C 259.95 116.93 261.24 116.93 261.88 116.92 C 260.88 117.21 259.86 117.48 258.86 117.76 C 255.06 119.65 250.50 119.54 246.87 121.96 C 248.81 118.29 253.66 116.81 257.55 116.35 L 257.51 115.17 Z" />
<path fill="#ffffff" opacity="1.00" d=" M 328.92 122.18 C 330.99 119.16 334.27 117.30 336.54 114.45 C 337.38 116.28 339.03 117.45 340.46 118.77 C 341.86 119.41 343.46 120.03 343.47 121.86 L 345.10 120.68 C 344.81 121.48 344.23 123.08 343.94 123.88 C 343.49 123.21 343.05 122.55 342.61 121.89 C 341.57 123.77 339.83 124.15 338.30 122.57 C 338.87 121.66 340.02 119.84 340.59 118.93 C 338.86 119.66 337.34 120.74 336.03 122.17 C 336.85 120.69 337.66 119.21 338.47 117.73 C 337.56 117.92 335.75 118.31 334.84 118.50 L 333.43 119.03 C 334.14 119.43 334.90 119.75 335.69 120.00 C 335.63 121.02 335.51 122.04 335.61 123.06 C 334.19 125.27 333.02 127.78 330.78 129.31 C 331.19 128.75 332.00 127.62 332.40 127.06 C 331.77 126.18 330.91 125.43 329.83 125.21 C 330.31 124.88 331.27 124.23 331.76 123.90 C 332.14 124.59 332.54 125.29 332.95 125.98 C 335.37 123.26 333.59 121.94 332.18 120.44 C 331.36 120.87 329.73 121.74 328.92 122.18 Z" />
<path fill="#ffffff" opacity="1.00" d=" M 154.31 119.17 C 156.30 118.14 157.63 116.27 159.39 114.94 C 159.01 115.81 158.26 117.56 157.88 118.43 C 158.05 119.14 158.40 120.54 158.57 121.25 C 156.56 121.34 155.54 122.12 156.51 124.05 C 157.17 123.50 158.48 122.41 159.13 121.86 C 158.56 122.49 157.41 123.76 156.84 124.40 C 157.31 124.62 158.26 125.05 158.74 125.27 C 156.99 126.50 155.48 128.03 153.97 129.53 C 156.18 131.38 159.32 130.71 161.93 131.54 C 160.56 132.89 158.70 132.16 157.06 131.90 C 157.07 132.27 157.10 133.01 157.11 133.38 C 159.09 133.81 161.13 133.70 163.13 134.01 C 163.74 135.18 162.58 136.10 162.16 137.09 C 159.79 136.23 157.57 135.04 155.35 133.86 C 156.76 133.24 155.42 132.01 155.26 131.12 C 154.03 130.48 152.81 129.83 151.59 129.18 C 151.50 128.81 151.31 128.05 151.21 127.68 C 153.00 126.85 154.70 125.88 156.42 124.94 C 156.00 124.43 155.58 123.92 155.17 123.41 C 154.54 123.97 153.27 125.11 152.63 125.67 L 150.88 125.28 L 153.36 123.76 C 152.94 123.42 152.51 123.09 152.09 122.77 C 148.30 125.59 152.00 120.52 153.29 120.07 C 153.65 120.91 154.01 121.75 154.36 122.59 C 154.78 122.05 155.60 120.97 156.01 120.42 C 155.44 120.00 154.88 119.59 154.31 119.17 Z" />
<path fill="#ffffff" opacity="1.00" d=" M 313.04 115.65 C 315.56 116.85 316.95 119.51 317.87 122.02 C 315.55 120.56 314.55 117.82 313.04 115.65 Z" />
<path fill="#ffffff" opacity="1.00" d=" M 220.35 126.35 C 223.06 123.98 225.57 121.39 228.13 118.86 C 227.22 121.55 224.85 123.31 223.32 125.61 L 222.52 125.37 C 222.43 126.49 222.31 127.60 222.17 128.72 C 221.65 129.11 220.60 129.88 220.07 130.27 C 219.80 132.02 221.62 133.63 220.30 135.30 C 221.06 137.16 221.47 139.13 221.76 141.12 C 218.96 139.19 217.18 136.24 215.17 133.58 C 216.11 132.75 217.05 131.93 217.99 131.11 C 217.39 129.62 217.62 128.16 219.68 128.43 L 219.30 127.23 L 221.26 127.89 L 220.35 126.35 Z" />
<path fill="#ffffff" opacity="1.00" d=" M 240.90 120.27 C 241.58 119.64 242.25 118.99 242.93 118.35 C 244.05 119.78 245.22 121.17 246.39 122.57 C 245.76 123.37 245.10 124.15 244.44 124.92 C 244.76 125.43 245.41 126.45 245.74 126.96 C 244.03 125.70 242.23 124.07 241.34 122.21 C 242.53 121.95 243.45 123.33 244.63 123.00 C 244.28 121.52 242.30 120.55 240.90 120.27 Z" />
<path fill="#ffffff" opacity="1.00" d=" M 365.61 123.77 C 367.29 122.85 368.47 120.98 370.44 120.56 C 371.86 121.48 372.52 123.21 373.66 124.45 C 373.65 124.95 373.64 125.97 373.63 126.48 L 372.17 126.39 C 372.30 127.05 372.56 128.36 372.68 129.02 C 371.89 128.71 370.30 128.08 369.50 127.77 C 369.93 128.68 370.77 130.48 371.19 131.39 C 367.99 132.16 368.85 128.89 368.48 126.89 L 371.03 128.08 C 369.47 126.68 368.48 124.77 367.52 122.97 C 367.53 124.59 367.90 126.25 367.51 127.87 C 366.89 127.10 365.64 125.57 365.02 124.81 C 364.80 128.75 369.97 130.67 368.90 134.65 C 365.58 135.84 362.73 137.99 359.49 139.35 C 358.10 139.88 356.70 140.40 355.29 140.84 C 352.39 136.64 353.35 131.47 353.94 126.77 C 351.76 128.59 351.66 131.62 351.11 134.19 C 350.69 134.61 349.85 135.46 349.43 135.88 C 349.47 132.47 350.46 129.21 352.26 126.34 C 354.13 126.64 356.02 126.59 357.91 126.39 C 356.05 127.92 357.92 131.18 355.57 132.09 C 355.75 130.80 356.11 128.23 356.29 126.94 C 353.69 128.81 353.57 132.26 354.49 135.04 C 355.72 136.40 356.84 137.86 358.06 139.23 C 357.88 137.56 357.64 135.90 357.36 134.24 L 359.11 134.43 C 359.28 135.85 359.84 137.17 360.74 138.28 C 362.05 136.01 359.66 134.27 358.76 132.39 C 358.59 130.30 358.41 128.21 358.21 126.12 C 360.69 125.40 363.16 124.62 365.61 123.77 M 369.18 122.22 C 368.69 123.66 370.52 125.60 371.90 125.69 C 372.43 124.38 370.67 121.75 369.18 122.22 M 362.20 125.05 C 362.91 127.43 363.92 129.77 363.99 132.30 C 364.45 132.38 365.38 132.55 365.84 132.63 C 366.34 132.99 367.34 133.69 367.84 134.05 C 365.70 131.21 365.17 127.07 362.20 125.05 M 359.98 126.30 C 359.92 129.00 360.54 131.67 360.37 134.38 C 361.19 135.26 362.05 136.11 362.96 136.91 C 363.09 133.40 363.63 128.26 359.98 126.30 Z" />
<path fill="#ffffff" opacity="1.00" d=" M 343.77 124.59 C 344.65 123.69 345.48 122.75 346.27 121.76 L 346.48 123.26 C 347.66 123.73 348.82 124.27 349.98 124.82 C 349.81 125.51 349.49 126.89 349.33 127.57 L 347.80 126.97 C 348.43 128.45 348.76 130.00 347.45 131.15 C 347.50 130.50 347.61 129.18 347.66 128.53 C 344.19 129.67 348.25 125.82 348.20 124.62 L 346.91 124.45 C 346.59 125.29 345.97 126.96 345.65 127.79 L 344.47 125.27 C 344.07 126.38 342.80 127.38 343.13 128.65 C 343.92 128.64 344.71 128.52 345.50 128.29 C 344.93 128.98 343.80 130.34 343.23 131.02 C 342.89 130.40 342.55 129.78 342.22 129.15 L 341.04 130.89 C 341.66 129.44 342.33 128.03 342.98 126.60 L 340.76 126.93 C 340.35 125.02 342.23 123.97 343.77 124.59 Z" />
<path fill="#ffffff" opacity="1.00" d=" M 267.43 125.49 C 268.26 123.23 271.56 124.25 273.46 123.47 L 273.57 124.68 C 272.78 124.73 271.19 124.83 270.39 124.88 C 270.58 126.10 270.74 127.32 270.89 128.55 C 269.68 128.57 268.59 128.94 267.64 129.66 C 268.37 129.57 269.82 129.39 270.55 129.30 C 270.30 129.82 269.79 130.87 269.54 131.39 C 267.18 131.53 264.96 132.47 262.69 133.01 C 264.11 131.97 265.62 131.06 267.21 130.29 C 263.62 129.98 261.22 133.87 257.41 132.81 C 257.40 132.11 257.38 130.71 257.37 130.00 C 258.25 130.20 260.02 130.59 260.90 130.78 L 260.06 129.07 C 263.07 128.24 265.88 126.42 269.12 126.78 C 270.14 126.34 270.26 125.87 269.48 125.38 L 268.92 125.68 C 268.55 125.63 267.80 125.54 267.43 125.49 Z" />
<path fill="#ffffff" opacity="1.00" d=" M 258.44 125.20 C 259.08 125.86 259.08 125.86 258.44 125.20 Z" />
<path fill="#ffffff" opacity="1.00" d=" M 338.73 124.98 C 339.10 124.98 339.83 124.98 340.20 124.98 C 339.75 126.37 339.12 129.24 337.35 129.15 C 337.07 127.67 338.05 126.23 338.73 124.98 Z" />
<path fill="#ffffff" opacity="1.00" d=" M 234.37 126.07 C 235.56 128.25 236.30 130.66 236.78 133.09 L 236.95 133.91 C 238.32 135.82 239.30 137.97 240.22 140.14 C 239.39 139.59 237.74 138.49 236.92 137.94 C 238.34 142.67 240.21 147.24 241.67 151.95 C 243.81 156.68 248.55 159.31 251.97 163.00 C 255.23 165.58 258.47 168.21 261.72 170.81 C 261.02 169.70 259.63 167.47 258.94 166.35 C 260.09 167.07 262.41 168.51 263.56 169.23 L 263.28 166.84 C 264.75 169.70 266.87 172.29 269.56 174.08 C 268.93 174.69 268.33 175.34 267.78 176.02 C 269.21 175.91 270.42 175.12 271.46 174.18 L 268.22 172.14 L 270.82 172.84 C 271.08 173.17 271.59 173.83 271.84 174.16 C 272.92 174.89 274.96 175.58 273.88 177.37 L 273.01 175.21 C 272.21 176.44 271.46 177.72 270.61 178.92 C 261.99 172.78 253.60 166.26 245.97 158.94 C 245.54 159.06 244.69 159.31 244.27 159.44 C 241.63 153.76 239.07 148.02 237.17 142.04 C 236.58 140.58 236.23 139.02 236.43 137.44 L 235.53 137.40 C 235.47 136.81 235.34 135.64 235.27 135.05 C 234.22 134.11 233.92 133.21 234.37 132.35 L 234.98 131.86 C 235.91 129.93 234.26 128.06 234.37 126.07 Z" />
<path fill="#ffffff" opacity="1.00" d=" M 324.91 129.80 C 324.19 128.76 325.64 126.90 326.81 127.23 C 327.25 128.29 326.20 130.23 324.91 129.80 Z" />
<path fill="#ffffff" opacity="1.00" d=" M 325.35 132.55 C 326.49 130.55 327.59 128.46 329.42 126.99 C 329.45 128.08 329.50 130.28 329.53 131.38 C 329.09 131.72 328.23 132.41 327.80 132.75 C 328.50 132.59 329.90 132.28 330.60 132.12 L 330.27 134.11 C 330.63 133.57 331.35 132.49 331.71 131.95 C 331.71 133.63 332.05 135.35 332.82 136.86 C 333.51 135.04 333.41 132.69 335.01 131.28 C 334.77 132.09 334.30 133.70 334.06 134.50 C 338.19 131.88 335.51 142.45 333.54 137.51 L 332.44 138.46 C 332.02 137.64 331.61 136.82 331.20 136.00 L 330.17 136.36 L 330.46 134.22 C 329.94 134.35 328.90 134.61 328.37 134.74 L 329.35 132.90 L 327.04 133.94 L 326.89 132.13 C 326.51 132.24 325.74 132.45 325.35 132.55 Z" />
<path fill="#ffffff" opacity="1.00" d=" M 330.15 130.19 C 330.82 130.86 330.82 130.86 330.15 130.19 Z" />
<path fill="#ffffff" opacity="1.00" d=" M 243.14 133.44 C 243.90 133.78 245.40 134.45 246.16 134.78 C 246.60 134.10 247.03 133.43 247.47 132.75 C 248.52 133.79 249.32 134.96 248.30 136.33 L 248.01 136.88 C 246.55 137.13 245.52 134.54 244.21 133.97 C 243.57 137.66 251.21 139.59 247.48 143.12 L 249.26 143.85 C 247.08 147.07 244.63 141.97 242.25 141.30 C 242.38 139.75 242.52 138.19 242.71 136.65 L 244.70 137.47 C 244.31 136.46 243.53 134.45 243.14 133.44 M 245.74 141.29 C 246.00 139.97 245.40 139.13 243.96 138.76 C 243.74 140.09 244.33 140.93 245.74 141.29 Z" />
<path fill="#ffffff" opacity="1.00" d=" M 338.57 134.61 C 339.83 134.48 340.75 133.57 341.78 132.92 C 340.92 133.96 338.93 136.08 341.85 136.14 C 341.72 137.33 341.47 139.72 341.35 140.91 C 343.00 140.51 343.64 139.48 343.25 137.84 C 343.58 138.43 344.25 139.62 344.58 140.21 C 342.72 141.27 340.69 141.59 338.58 141.29 C 337.82 140.52 337.06 139.75 336.29 139.00 C 337.03 138.36 337.86 138.24 338.76 138.65 L 338.28 137.37 L 339.64 137.57 C 339.72 136.96 339.87 135.74 339.95 135.13 C 339.43 135.69 338.38 136.82 337.86 137.38 C 336.60 136.89 338.69 135.55 338.57 134.61 Z" />
<path fill="#ffffff" opacity="1.00" d=" M 262.28 135.52 C 265.11 133.49 269.10 134.76 272.38 134.42 C 269.93 136.76 266.32 138.27 262.94 137.47 C 260.72 137.84 258.45 139.80 256.21 138.35 L 256.62 139.36 C 256.13 139.74 255.13 140.49 254.64 140.87 C 255.80 140.75 256.89 140.40 257.90 139.82 C 262.04 139.75 266.16 139.54 270.15 138.31 C 267.79 142.10 261.90 140.56 258.85 143.78 L 259.64 141.07 C 256.55 142.31 253.58 143.85 250.98 145.94 C 251.54 145.14 252.64 143.54 253.20 142.74 L 250.06 143.63 C 250.37 142.96 250.97 141.62 251.28 140.95 C 250.01 139.61 250.59 138.34 252.33 137.41 C 252.56 138.63 252.24 139.87 252.49 141.10 C 253.31 140.50 254.94 139.30 255.76 138.70 C 254.64 138.63 254.02 138.07 253.90 137.02 C 256.71 136.59 259.36 135.16 262.28 135.52 Z" />
<path fill="#ffffff" opacity="1.00" d=" M 281.34 136.38 C 281.96 135.41 286.10 135.63 284.84 137.62 C 282.37 140.15 279.82 142.70 276.83 144.61 L 275.03 144.12 L 275.96 146.25 C 275.61 145.76 274.90 144.78 274.55 144.29 C 273.73 145.20 272.78 145.98 271.81 146.72 C 270.32 146.43 268.63 146.51 268.03 148.17 C 266.64 148.76 265.31 149.47 264.18 150.49 C 263.38 149.77 262.60 149.03 261.85 148.27 C 261.23 149.15 260.62 150.04 260.03 150.93 C 259.16 151.20 257.42 151.74 256.56 152.01 C 257.43 150.40 259.61 149.30 258.63 147.17 C 256.84 146.82 255.45 148.56 253.91 149.21 C 253.24 148.46 251.33 147.78 252.60 146.61 C 254.47 146.07 256.57 146.73 258.50 146.04 C 257.56 145.29 256.58 144.59 255.64 143.84 C 256.21 144.06 257.35 144.50 257.92 144.72 L 257.81 142.22 C 258.76 143.06 259.00 144.17 258.51 145.53 C 260.91 143.45 264.05 142.84 267.04 142.11 C 267.81 142.29 269.34 142.65 270.11 142.82 C 268.23 145.41 264.52 145.47 261.96 147.13 L 262.82 144.73 C 261.93 145.07 260.15 145.76 259.26 146.10 C 259.90 146.65 260.53 147.22 261.17 147.79 C 264.25 147.56 267.00 145.58 270.17 146.36 C 271.68 145.47 273.21 144.60 274.60 143.54 C 275.58 143.58 276.57 143.67 277.56 143.59 C 277.60 142.98 277.66 141.77 277.70 141.16 C 278.13 140.95 279.01 140.53 279.44 140.32 C 278.70 140.33 277.22 140.36 276.48 140.37 C 276.54 139.56 276.66 137.93 276.72 137.12 L 277.86 137.56 L 280.04 136.40 C 280.55 136.83 281.07 137.27 281.60 137.70 C 281.54 137.37 281.41 136.71 281.34 136.38 M 260.37 148.36 C 260.66 148.66 260.66 148.66 260.37 148.36 Z" />
<path fill="#ffffff" opacity="1.00" d=" M 347.25 136.19 C 347.36 138.00 347.72 139.77 348.10 141.54 C 347.28 141.70 345.63 142.03 344.81 142.20 C 344.71 140.74 344.62 139.28 344.52 137.82 C 345.44 137.29 346.35 136.75 347.25 136.19 Z" />
<path fill="#ffffff" opacity="1.00" d=" M 350.16 136.17 C 350.41 136.27 350.90 136.49 351.14 136.60 C 351.89 138.30 352.42 140.10 352.76 141.94 C 350.29 141.36 348.25 138.42 350.16 136.17 Z" />
<path fill="#ffffff" opacity="1.00" d=" M 215.66 139.92 C 215.40 138.54 214.27 136.78 215.82 135.69 C 217.67 137.95 219.73 140.03 221.59 142.29 C 220.30 145.88 217.49 140.81 215.66 139.92 Z" />
<path fill="#ffffff" opacity="1.00" d=" M 226.02 139.57 C 226.39 139.55 227.13 139.51 227.50 139.49 C 228.77 141.10 230.69 142.26 231.67 144.08 C 231.31 144.85 230.59 146.38 230.23 147.14 C 232.21 148.63 235.20 149.64 235.55 152.46 C 234.87 152.43 233.52 152.39 232.84 152.36 C 233.41 152.46 234.54 152.67 235.11 152.77 C 235.78 153.92 236.45 155.08 237.11 156.25 C 236.89 156.61 236.45 157.33 236.23 157.70 L 238.80 160.27 C 234.73 160.40 232.49 156.95 229.58 154.93 C 230.03 154.50 230.48 154.07 230.95 153.65 C 232.25 155.31 234.17 156.37 236.10 157.15 C 234.73 155.34 232.83 154.12 230.85 153.10 C 229.79 152.13 228.67 151.21 227.47 150.43 L 228.29 149.83 C 229.23 150.21 231.11 150.98 232.05 151.37 C 229.21 148.73 226.98 145.55 224.25 142.82 C 225.90 142.77 227.55 142.64 229.20 142.43 C 228.40 141.71 226.82 140.28 226.02 139.57 M 229.43 143.43 C 229.80 143.80 229.80 143.80 229.43 143.43 Z" />
<path fill="#ffffff" opacity="1.00" d=" M 229.14 138.98 C 230.48 138.87 231.07 139.51 230.91 140.90 C 229.55 141.01 228.96 140.37 229.14 138.98 Z" />
<path fill="#ffffff" opacity="1.00" d=" M 285.44 137.44 C 285.61 138.27 285.77 139.10 285.94 139.93 C 284.34 140.77 283.61 141.84 283.73 143.16 C 284.25 143.24 285.28 143.39 285.80 143.47 C 285.00 143.84 283.82 146.91 283.32 145.51 L 282.98 144.95 C 282.47 145.06 281.46 145.29 280.95 145.41 C 280.76 145.07 280.37 144.38 280.17 144.04 C 281.92 141.84 283.88 139.80 285.44 137.44 Z" />
<path fill="#ffffff" opacity="1.00" d=" M 215.69 141.03 C 217.34 142.10 218.92 143.29 220.54 144.41 C 220.70 148.09 223.99 150.61 227.22 151.72 C 228.78 151.94 229.36 153.19 229.59 154.59 C 224.06 153.60 219.52 149.46 215.84 145.42 C 216.55 145.75 217.96 146.42 218.66 146.75 L 219.47 146.79 C 217.97 145.05 216.23 143.35 215.69 141.03 Z" />
<path fill="#ffffff" opacity="1.00" d=" M 242.36 142.16 C 244.36 143.23 245.66 145.18 247.56 146.39 C 249.13 147.40 251.00 148.26 251.49 150.27 C 249.25 149.40 247.40 147.71 245.01 147.23 C 243.95 145.66 242.10 144.27 242.36 142.16 Z" />
<path fill="#ffffff" opacity="1.00" d=" M 304.82 143.13 C 306.22 143.05 306.71 143.65 306.30 144.93 C 304.89 146.06 303.11 144.21 304.82 143.13 Z" />
<path fill="#ffffff" opacity="1.00" d=" M 212.55 143.73 C 214.10 144.89 213.81 146.98 214.22 148.68 C 214.51 151.18 215.65 153.48 215.97 155.98 C 215.03 154.85 214.13 153.69 213.19 152.58 C 212.78 151.28 212.41 149.98 212.08 148.66 C 211.47 149.37 210.24 150.78 209.62 151.49 C 209.85 149.41 209.97 147.34 210.09 145.25 C 210.66 145.38 211.81 145.65 212.39 145.78 L 212.55 143.73 Z" />
<path fill="#ffffff" opacity="1.00" d=" M 277.33 146.01 C 279.64 146.35 281.00 148.27 282.14 150.11 C 282.97 149.12 283.81 148.12 284.65 147.13 C 285.27 148.56 285.36 150.51 287.19 150.94 C 286.35 152.02 285.52 153.10 284.70 154.19 C 284.17 154.27 283.11 154.44 282.58 154.53 C 281.34 151.38 278.57 149.16 277.33 146.01 Z" />
<path fill="#ffffff" opacity="1.00" d=" M 301.88 149.65 C 300.95 148.19 299.97 146.77 299.05 145.31 C 301.04 145.68 303.06 145.94 305.01 146.52 C 304.89 147.28 304.65 148.79 304.52 149.54 C 303.64 149.58 302.75 149.61 301.88 149.65 Z" />
<path fill="#ffffff" opacity="1.00" d=" M 206.76 149.86 C 207.31 148.83 207.92 147.85 208.60 146.92 C 208.95 149.41 208.72 152.02 206.85 153.89 C 206.03 154.42 205.11 154.71 204.11 154.76 C 204.70 153.07 205.34 151.40 205.83 149.67 C 206.06 149.72 206.53 149.81 206.76 149.86 Z" />
<path fill="#ffffff" opacity="1.00" d=" M 224.30 147.41 C 225.80 146.74 227.42 148.30 228.37 149.34 L 228.29 149.83 C 226.88 150.09 223.52 149.43 224.30 147.41 Z" />
<path fill="#ffffff" opacity="1.00" d=" M 290.74 147.31 C 290.94 147.31 291.34 147.33 291.54 147.33 C 290.70 149.41 290.93 152.53 288.16 153.13 C 289.08 151.22 290.00 149.30 290.74 147.31 Z" />
<path fill="#ffffff" opacity="1.00" d=" M 245.66 148.08 C 248.14 149.79 250.80 151.27 253.07 153.28 L 253.00 154.08 L 252.78 154.89 C 252.38 156.86 257.09 157.08 255.30 159.71 C 256.76 160.73 258.19 161.73 259.61 162.83 C 259.92 160.76 258.30 159.07 258.06 157.07 L 256.69 157.32 C 256.73 156.14 256.46 155.04 255.88 154.03 C 256.50 153.82 257.74 153.40 258.36 153.19 C 258.92 152.45 259.48 151.69 260.03 150.93 C 260.93 151.13 261.80 151.42 262.63 151.83 L 259.73 153.37 C 260.71 153.32 262.67 153.23 263.65 153.18 C 263.23 153.63 262.39 154.55 261.97 155.00 C 261.58 155.32 260.81 155.95 260.42 156.26 L 261.07 156.51 C 262.45 155.92 264.65 156.83 263.55 158.75 C 262.80 159.09 261.29 159.77 260.54 160.11 C 260.99 160.46 261.46 160.81 261.93 161.15 C 263.87 159.33 265.80 157.49 267.87 155.83 C 267.60 156.18 267.04 156.89 266.77 157.25 C 268.84 159.46 265.85 161.07 264.54 162.68 C 264.08 162.48 263.16 162.09 262.70 161.90 C 261.47 162.50 260.25 163.14 259.21 164.05 C 257.04 162.54 254.53 161.22 253.21 158.82 C 251.50 157.68 249.73 156.26 249.10 154.22 C 249.77 154.33 251.11 154.57 251.78 154.68 C 251.60 153.31 249.71 153.80 248.82 153.42 C 247.73 151.69 244.67 150.48 245.66 148.08 Z" />
<path fill="#ffffff" opacity="1.00" d=" M 264.99 152.82 C 262.52 150.91 267.07 149.47 268.67 149.00 C 268.63 150.52 268.64 152.04 268.68 153.56 C 267.37 154.27 266.09 155.03 264.83 155.82 C 264.31 155.21 263.80 154.61 263.28 154.02 C 265.35 153.79 267.11 152.92 268.55 151.43 L 265.85 151.55 L 264.99 152.82 Z" />
<path fill="#ffffff" opacity="1.00" d=" M 217.73 149.82 C 221.03 151.20 223.87 153.50 227.27 154.74 C 230.43 156.89 233.47 159.28 237.04 160.76 C 238.69 161.98 240.02 163.49 240.69 165.47 C 245.55 170.64 250.00 176.20 254.00 182.07 C 254.16 182.52 254.47 183.43 254.63 183.89 C 254.86 183.76 255.32 183.52 255.54 183.40 C 255.34 184.02 254.95 185.27 254.75 185.89 C 251.49 184.54 249.75 181.03 248.08 178.10 C 248.50 177.38 248.91 176.66 249.33 175.95 C 243.88 171.66 239.95 165.16 233.81 161.69 C 233.34 161.34 233.34 161.34 233.81 161.69 C 235.33 163.78 237.28 165.49 239.36 167.01 C 238.90 169.10 240.46 170.48 241.62 171.95 C 238.40 171.81 237.34 167.22 234.07 167.71 L 234.50 166.84 C 230.37 165.14 229.09 160.09 225.20 158.03 C 222.96 156.82 222.91 153.67 220.63 152.53 C 219.51 151.80 218.30 151.10 217.73 149.82 M 231.95 163.06 C 232.70 163.75 232.70 163.75 231.95 163.06 C 231.21 162.40 231.21 162.40 231.95 163.06 Z" />
<path fill="#ffffff" opacity="1.00" d=" M 256.23 152.02 C 255.52 155.81 252.22 150.04 255.88 149.88 C 255.86 150.39 255.84 150.90 255.81 151.41 L 256.23 152.02 Z" />
<path fill="#ffffff" opacity="1.00" d=" M 291.68 151.89 C 292.16 151.61 293.13 151.05 293.61 150.77 C 293.93 151.32 294.58 152.42 294.90 152.97 C 293.98 153.87 291.55 153.47 291.68 151.89 Z" />
<path fill="#ffffff" opacity="1.00" d=" M 273.81 151.09 C 275.51 151.21 277.13 151.79 278.71 152.41 C 280.00 154.11 281.15 155.92 282.56 157.52 C 283.80 158.81 286.30 159.31 286.02 161.53 C 283.12 160.84 280.83 158.93 278.43 157.31 C 278.42 156.85 278.41 155.95 278.41 155.50 C 276.62 154.34 274.92 152.93 273.81 151.09 Z" />
<path fill="#ffffff" opacity="1.00" d=" M 196.15 158.06 C 198.87 156.58 200.07 153.31 203.04 152.18 C 201.31 157.01 195.92 158.77 193.15 162.85 C 195.65 161.60 197.74 159.69 200.17 158.30 C 199.55 159.26 198.31 161.19 197.70 162.16 C 198.52 161.70 200.17 160.79 200.99 160.34 C 202.95 162.03 200.99 164.54 199.30 165.54 C 199.86 165.59 200.98 165.68 201.55 165.72 L 201.41 166.39 C 200.11 167.84 198.96 169.40 197.93 171.07 C 200.22 169.37 202.49 167.36 203.93 164.90 C 203.47 164.99 202.55 165.17 202.09 165.26 L 201.58 163.86 L 203.61 164.37 C 202.34 162.91 202.43 161.35 203.86 159.69 C 204.04 161.14 204.39 162.53 204.92 163.87 C 206.08 165.22 207.24 166.57 208.47 167.87 C 209.20 167.28 209.94 166.70 210.68 166.11 C 210.26 166.79 209.42 168.16 209.00 168.85 C 209.67 168.75 211.00 168.55 211.66 168.46 C 211.42 169.28 211.20 170.11 210.98 170.94 C 212.00 172.72 212.14 175.75 209.41 175.86 C 209.48 176.55 209.64 177.93 209.71 178.62 C 208.43 179.56 207.76 177.66 206.88 177.11 L 206.70 180.39 L 205.58 181.11 C 204.84 178.11 207.17 175.61 206.58 172.61 C 205.67 174.30 205.57 177.00 203.05 176.88 C 203.44 176.45 204.21 175.57 204.60 175.13 L 204.35 173.28 C 203.89 173.26 202.97 173.22 202.51 173.20 C 200.64 171.66 200.86 169.85 203.16 167.76 C 202.09 168.91 199.94 171.20 198.86 172.35 C 197.58 170.81 194.57 169.27 199.08 167.10 L 195.74 169.07 C 196.49 167.65 197.62 166.42 198.01 164.82 C 196.47 165.34 194.78 168.94 193.43 166.52 C 192.12 166.57 190.82 166.62 189.52 166.66 L 190.74 163.94 C 189.13 165.19 187.16 165.18 185.29 165.58 C 185.32 165.24 185.37 164.57 185.40 164.23 C 184.41 164.46 182.44 164.93 181.46 165.16 C 183.46 162.98 186.48 162.38 188.93 160.86 C 191.15 159.43 193.97 159.56 196.15 158.06 M 209.00 177.14 C 208.95 175.52 208.75 173.92 208.40 172.34 C 207.08 172.85 207.07 177.28 209.00 177.14 Z" />
<path fill="#ffffff" opacity="1.00" d=" M 298.36 153.37 C 299.07 152.54 300.18 152.63 301.15 152.55 C 301.23 153.76 301.31 154.98 301.39 156.19 C 300.31 155.43 297.67 155.21 298.36 153.37 Z" />
<path fill="#ffffff" opacity="1.00" d=" M 222.77 159.07 C 221.33 157.57 218.93 156.46 218.40 154.36 C 219.46 155.01 220.62 155.41 221.87 155.56 C 223.20 157.16 224.27 159.43 226.61 159.63 C 226.84 160.22 227.32 161.38 227.56 161.97 C 225.94 161.01 224.40 159.98 222.77 159.07 Z" />
<path fill="#ffffff" opacity="1.00" d=" M 283.40 156.72 C 284.10 155.55 284.91 154.46 285.70 153.35 C 287.80 153.34 289.97 153.40 291.76 154.64 C 292.79 154.19 293.83 153.74 294.88 153.30 C 293.99 154.87 293.32 156.52 292.88 158.26 C 294.10 157.18 295.12 155.90 296.17 154.66 C 296.15 157.18 294.60 159.12 293.18 161.04 C 294.52 160.47 295.87 159.89 297.21 159.30 C 297.33 158.45 297.56 156.73 297.68 155.88 C 298.17 157.23 298.61 158.59 299.09 159.95 C 298.10 163.13 294.77 162.57 292.20 163.32 C 290.86 162.25 289.51 162.72 288.18 163.50 C 288.62 162.67 289.06 161.83 289.50 161.00 C 288.29 160.10 287.00 158.90 287.39 157.26 C 286.92 157.53 285.97 158.06 285.50 158.32 C 285.62 157.74 285.86 156.58 285.98 155.99 C 285.34 156.18 284.05 156.54 283.40 156.72 Z" />
<path fill="#ffffff" opacity="1.00" d=" M 273.05 155.18 C 273.76 156.13 274.71 156.64 275.89 156.72 C 274.48 158.64 273.06 160.54 271.65 162.46 L 270.79 161.64 C 271.20 161.09 272.02 159.98 272.43 159.43 C 269.25 159.16 268.97 164.51 265.47 163.15 C 267.63 160.28 270.81 158.66 273.99 157.20 C 273.75 156.69 273.28 155.68 273.05 155.18 Z" />
<path fill="#ffffff" opacity="1.00" d=" M 217.55 159.09 C 218.26 158.79 219.66 158.18 220.37 157.87 C 221.56 159.03 221.28 160.82 222.21 162.12 L 222.12 159.59 C 223.85 160.99 225.83 161.98 227.78 163.01 C 228.83 164.33 229.71 165.85 231.33 166.58 L 230.67 167.00 C 230.32 167.10 229.62 167.29 229.27 167.38 L 228.99 167.88 L 230.12 167.96 L 229.50 169.42 L 231.00 168.89 L 231.01 169.81 L 232.40 170.16 L 231.48 171.26 C 231.09 170.86 230.33 170.07 229.95 169.67 C 229.50 170.07 229.05 170.48 228.61 170.88 C 231.51 172.63 234.12 174.81 236.53 177.17 L 237.56 176.40 L 236.77 177.58 C 238.51 178.80 240.21 180.07 241.89 181.37 C 241.50 181.63 240.70 182.15 240.31 182.42 C 242.00 183.89 241.84 186.40 243.39 188.07 C 240.10 186.44 236.58 184.86 234.49 181.68 C 231.68 177.36 225.51 177.57 222.33 173.77 C 222.47 173.38 222.73 172.59 222.87 172.19 C 226.20 174.88 230.12 176.88 234.20 178.16 C 229.34 174.18 223.05 172.47 218.28 168.32 C 218.03 167.98 217.53 167.31 217.28 166.97 C 221.30 168.60 224.78 171.33 228.95 172.66 C 226.65 169.43 222.92 167.48 219.37 165.90 C 219.88 165.38 220.39 164.86 220.89 164.33 C 222.88 166.06 225.51 167.09 227.08 169.25 C 227.58 168.83 228.07 168.40 228.56 167.97 C 225.40 166.66 222.87 163.96 219.50 163.22 C 219.49 162.56 219.47 161.24 219.46 160.58 C 218.98 160.21 218.03 159.46 217.55 159.09 Z" />
<path fill="#ffffff" opacity="1.00" d=" M 272.06 163.13 C 273.78 161.48 275.42 159.75 276.81 157.82 C 276.43 159.64 275.67 163.30 275.30 165.13 C 276.51 163.04 277.78 160.98 279.13 158.97 C 279.21 160.01 279.06 161.06 278.66 162.03 C 276.20 162.19 277.79 166.05 279.84 165.71 C 279.45 167.20 279.04 168.67 278.61 170.15 C 277.47 169.31 275.56 169.02 275.40 167.32 C 275.12 167.28 274.58 167.20 274.30 167.16 C 273.90 166.70 273.09 165.79 272.68 165.34 C 272.52 164.78 272.21 163.68 272.06 163.13 Z" />
<path fill="#ffffff" opacity="1.00" d=" M 172.96 164.70 C 178.06 164.38 182.20 160.93 187.15 160.05 C 185.41 161.90 182.79 162.36 180.56 163.37 C 175.21 165.59 169.60 167.02 164.05 168.61 C 165.60 165.63 170.01 165.58 172.96 164.70 Z" />
<path fill="#ffffff" opacity="1.00" d=" M 216.18 161.43 C 217.25 161.41 218.15 161.86 218.90 162.79 C 219.22 163.71 218.91 164.22 217.98 164.33 C 216.91 163.58 216.32 162.62 216.18 161.43 Z" />
<path fill="#ffffff" opacity="1.00" d=" M 267.64 164.27 C 268.66 163.36 269.72 162.49 270.79 161.64 C 271.03 162.31 271.52 163.65 271.77 164.31 C 271.05 164.76 270.34 165.21 269.63 165.67 L 269.90 164.16 C 269.34 164.19 268.21 164.24 267.64 164.27 Z" />
<path fill="#ffffff" opacity="1.00" d=" M 281.16 167.21 C 281.52 165.94 281.42 164.32 282.85 163.65 C 282.48 164.84 282.08 166.02 281.64 167.19 C 281.94 167.72 282.53 168.79 282.83 169.33 L 281.38 169.58 C 280.86 169.96 279.84 170.70 279.32 171.07 C 279.90 169.77 280.52 168.48 281.16 167.21 Z" />
<path fill="#ffffff" opacity="1.00" d=" M 201.55 165.72 C 201.68 165.61 201.95 165.38 202.09 165.26 C 201.95 165.38 201.68 165.61 201.55 165.72 Z" />
<path fill="#ffffff" opacity="1.00" d=" M 302.24 168.60 C 302.69 167.72 303.16 166.85 303.64 165.99 C 304.03 167.69 305.98 169.55 304.03 171.15 C 303.42 170.31 302.83 169.46 302.24 168.60 Z" />
<path fill="#ffffff" opacity="1.00" d=" M 230.67 167.00 C 231.77 167.09 232.72 167.58 233.52 168.47 C 233.96 168.42 234.85 168.31 235.29 168.25 C 237.25 170.68 239.85 172.65 241.36 175.42 C 239.00 175.27 237.78 173.13 236.08 171.83 C 234.26 170.34 232.34 168.99 230.54 167.49 L 230.67 167.00 Z" />
<path fill="#ffffff" opacity="1.00" d=" M 285.25 167.67 C 285.77 167.99 285.77 167.99 285.25 167.67 Z" />
<path fill="#ffffff" opacity="1.00" d=" M 287.00 167.69 L 288.25 167.87 C 287.26 169.91 286.38 172.01 285.72 174.18 C 284.04 173.10 282.65 171.35 280.49 171.31 C 281.40 170.50 283.21 168.88 284.12 168.08 C 284.64 168.98 285.17 169.89 285.70 170.79 C 286.03 170.02 286.67 168.46 287.00 167.69 Z" />
<path fill="#ffffff" opacity="1.00" d=" M 298.80 171.25 C 299.16 170.58 299.87 169.24 300.22 168.57 L 301.77 169.96 C 301.41 170.37 300.70 171.19 300.34 171.59 C 301.33 172.15 302.25 172.80 303.10 173.55 L 303.36 172.40 C 304.02 172.49 305.35 172.66 306.01 172.75 C 305.62 173.39 305.23 174.02 304.85 174.66 C 303.18 173.74 301.72 175.34 300.22 175.83 C 297.85 175.66 295.47 175.58 293.14 176.05 C 293.51 174.51 294.06 173.03 294.61 171.56 L 295.61 171.52 L 295.60 169.98 C 296.40 170.29 298.00 170.93 298.80 171.25 M 299.16 173.18 C 298.50 174.51 298.93 174.93 300.46 174.43 C 301.09 173.06 300.65 172.64 299.16 173.18 Z" />
<path fill="#ffffff" opacity="1.00" d=" M 231.48 171.26 C 233.01 170.45 234.22 171.87 235.25 172.75 C 237.28 174.86 239.61 176.61 241.85 178.48 C 240.05 178.93 238.85 177.29 237.56 176.40 C 235.58 174.63 233.50 172.98 231.48 171.26 Z" />
<path fill="#ffffff" opacity="1.00" d=" M 287.31 174.72 C 286.91 172.04 289.90 169.75 292.54 170.03 L 290.89 172.04 C 291.44 172.09 292.54 172.19 293.09 172.24 L 292.19 174.42 L 292.77 176.06 C 290.97 175.51 289.03 175.50 287.31 174.72 Z" />
<path fill="#ffffff" opacity="1.00" d=" M 221.08 177.62 C 221.88 177.10 222.69 176.58 223.49 176.06 C 226.68 177.68 229.67 179.61 232.57 181.67 L 232.43 182.58 L 233.63 182.37 L 233.43 183.56 L 234.27 183.53 C 236.92 186.76 241.37 187.83 243.88 191.13 L 242.70 191.02 C 242.41 191.66 242.13 192.31 241.84 192.95 C 243.19 193.50 244.08 194.73 244.94 195.86 C 242.07 195.26 240.23 192.70 237.83 191.23 L 238.75 190.57 C 239.48 191.11 240.94 192.17 241.66 192.71 C 241.55 192.11 241.33 190.91 241.22 190.32 C 239.10 189.22 237.21 187.79 235.40 186.26 C 234.14 185.27 232.80 184.37 231.49 183.45 C 229.24 180.50 225.67 179.10 222.67 177.10 C 222.27 177.23 221.48 177.49 221.08 177.62 Z" />
<path fill="#ffffff" opacity="1.00" d=" M 280.39 180.65 C 280.27 178.64 281.64 176.86 283.12 175.66 C 284.52 176.95 282.23 179.44 281.35 180.87 C 282.38 183.81 279.78 186.45 277.47 187.89 C 277.46 187.56 277.44 186.89 277.43 186.56 C 278.59 185.02 279.73 183.47 280.84 181.90 C 280.40 181.67 279.51 181.22 279.06 180.99 C 279.39 180.90 280.06 180.73 280.39 180.65 Z" />
<path fill="#ffffff" opacity="1.00" d=" M 218.73 179.12 C 220.26 179.48 221.80 179.81 223.39 179.71 C 226.20 183.59 231.24 184.07 234.61 187.24 L 235.40 186.26 L 235.42 187.91 L 235.81 188.54 L 235.97 189.06 C 235.58 188.87 234.80 188.50 234.41 188.31 C 233.63 188.05 233.06 188.25 232.70 188.90 C 233.57 189.43 235.32 190.49 236.20 191.02 C 236.14 190.53 236.02 189.55 235.97 189.06 L 236.49 189.13 C 237.20 189.41 238.62 189.99 239.33 190.28 L 238.75 190.57 C 237.91 190.98 237.07 191.41 236.26 191.87 C 239.98 193.61 242.91 196.62 245.74 199.52 C 245.43 199.59 244.82 199.73 244.51 199.80 C 242.56 198.45 240.68 197.00 239.02 195.31 C 236.29 196.71 234.52 193.33 232.53 192.03 C 232.84 190.38 231.78 189.22 230.61 188.23 C 231.42 187.91 232.24 187.59 233.06 187.26 C 231.98 186.72 229.83 185.63 228.76 185.08 C 229.06 185.74 229.65 187.06 229.95 187.72 L 228.28 187.25 C 229.37 188.70 230.25 190.27 230.92 191.96 C 228.25 190.28 225.73 188.36 223.50 186.13 C 222.46 185.28 220.34 185.39 220.26 183.69 C 217.97 184.08 216.54 182.09 215.13 180.67 C 216.21 180.77 217.43 180.76 218.02 181.89 C 218.54 181.63 219.57 181.12 220.09 180.86 L 218.22 183.08 C 219.13 182.83 220.94 182.35 221.84 182.11 L 221.20 183.80 C 222.37 183.89 223.49 183.74 224.56 183.36 C 223.62 182.37 222.59 181.49 221.56 180.60 C 220.47 180.37 219.53 179.88 218.73 179.12 Z" />
<path fill="#ffffff" opacity="1.00" d=" M 260.35 180.90 C 261.69 180.20 262.47 182.21 263.28 182.93 C 264.12 183.42 264.00 185.41 262.74 184.52 C 261.74 183.59 260.05 182.44 260.35 180.90 Z" />
<path fill="#ffffff" opacity="1.00" d=" M 250.90 185.00 C 252.26 185.88 253.50 186.93 254.72 188.01 C 255.09 187.41 255.46 186.82 255.83 186.22 C 256.62 189.46 260.13 190.41 261.92 192.92 C 260.15 192.84 258.40 192.56 256.69 192.20 C 257.74 193.24 258.72 194.34 259.64 195.51 C 258.22 194.92 256.56 194.30 256.21 192.59 C 255.60 192.42 254.37 192.07 253.76 191.89 C 254.66 191.35 255.57 190.81 256.46 190.23 C 254.01 189.33 251.71 187.56 250.90 185.00 Z" />
<path fill="#ffffff" opacity="1.00" d=" M 219.39 187.26 C 220.79 187.14 221.84 188.50 223.07 189.03 C 223.16 189.90 222.72 190.28 221.74 190.17 C 220.81 189.51 219.03 188.61 219.39 187.26 Z" />
<path fill="#ffffff" opacity="1.00" d=" M 215.76 187.81 C 220.05 189.12 222.98 193.10 226.85 194.80 C 226.62 193.64 225.89 192.87 224.64 192.50 C 224.55 191.03 224.89 189.59 225.44 188.24 C 227.27 189.88 228.98 191.94 231.47 192.58 C 231.75 193.82 231.87 195.27 233.18 195.89 C 237.19 198.70 241.20 201.55 245.25 204.29 C 245.65 204.69 245.65 204.69 245.25 204.29 C 245.13 203.56 244.89 202.11 244.77 201.38 C 245.89 204.28 249.98 204.61 250.67 207.85 C 249.20 203.48 247.83 205.88 246.43 206.91 C 249.01 207.54 250.81 209.59 252.90 211.07 C 254.44 212.35 256.39 213.25 257.40 215.07 C 254.74 214.21 252.46 212.50 250.55 210.50 C 245.13 205.75 239.26 201.59 233.15 197.78 L 234.00 199.92 L 232.33 200.80 C 234.32 201.86 236.97 201.09 238.51 203.00 C 237.57 202.70 235.69 202.08 234.75 201.77 C 235.36 202.52 236.59 204.02 237.20 204.77 C 240.43 207.34 243.89 209.58 247.43 211.69 C 247.57 211.96 247.85 212.51 247.99 212.78 C 246.11 212.10 244.25 210.81 242.24 211.94 C 239.76 211.18 238.44 208.87 236.93 206.99 C 234.85 205.15 232.91 203.18 231.21 200.99 C 230.92 199.98 230.48 199.05 229.89 198.20 C 228.89 197.50 227.92 196.77 226.95 196.06 C 223.53 193.74 219.93 191.71 216.57 189.33 C 216.37 188.95 215.96 188.19 215.76 187.81 Z" />
<path fill="#ffffff" opacity="1.00" d=" M 277.44 196.18 C 278.99 193.40 279.40 189.56 282.59 187.92 C 282.25 189.13 281.84 190.32 281.39 191.50 C 279.84 194.89 280.02 200.47 275.59 201.44 C 276.33 199.59 277.52 198.00 278.78 196.49 C 278.45 196.41 277.77 196.26 277.44 196.18 Z" />
<path fill="#ffffff" opacity="1.00" d=" M 216.17 193.56 C 216.47 193.55 217.08 193.54 217.38 193.53 C 220.95 196.63 224.49 199.81 228.54 202.28 C 230.77 205.34 233.35 208.11 235.84 210.96 C 238.77 212.30 240.42 215.13 242.44 217.50 C 241.47 217.88 240.51 218.26 239.56 218.68 C 243.57 220.82 246.88 224.18 248.26 228.59 C 246.43 227.89 245.31 226.26 244.03 224.89 C 244.54 225.89 245.56 227.90 246.07 228.90 C 245.31 228.68 243.79 228.24 243.03 228.02 C 242.51 226.32 241.44 223.70 239.20 224.26 C 238.14 224.69 237.53 223.69 236.80 223.18 C 236.68 226.03 239.32 227.83 239.84 230.48 L 238.33 230.90 C 238.38 231.40 238.49 232.40 238.54 232.90 C 236.76 230.82 234.54 228.97 233.63 226.29 C 233.87 226.00 234.35 225.42 234.60 225.12 C 232.70 223.38 231.06 221.35 229.95 219.02 C 232.16 220.49 232.98 223.23 235.25 224.62 C 234.96 220.59 230.67 218.63 230.20 214.80 C 229.90 214.47 229.29 213.81 228.98 213.48 C 229.30 214.53 229.94 216.63 230.26 217.67 C 226.94 214.65 224.87 210.51 221.40 207.64 C 219.39 206.04 217.72 204.09 216.20 202.03 C 218.29 202.60 219.13 204.87 220.80 206.09 C 223.47 208.11 226.05 210.25 228.32 212.73 C 228.96 212.68 230.23 212.58 230.87 212.53 C 227.70 210.21 224.89 207.46 222.28 204.54 C 222.71 204.33 223.56 203.92 223.98 203.71 C 224.21 206.09 226.46 207.18 228.59 207.38 C 229.63 208.66 230.68 209.93 231.80 211.15 C 233.08 211.62 234.30 212.23 235.52 212.87 C 232.56 208.91 228.60 205.81 225.92 201.64 C 225.41 202.07 224.90 202.50 224.39 202.94 L 227.26 204.72 L 225.57 204.73 L 223.98 203.71 C 222.64 202.29 221.18 200.99 220.01 199.43 C 221.21 199.88 222.24 200.58 223.11 201.51 C 223.57 201.02 224.03 200.52 224.49 200.03 C 221.28 198.49 218.92 195.73 216.17 193.56 M 236.60 213.14 L 237.53 215.99 C 236.48 215.61 234.37 214.84 233.32 214.46 C 234.44 216.69 236.07 218.66 236.94 221.03 C 237.17 222.11 238.39 223.88 239.69 223.06 C 239.71 221.22 238.13 219.62 238.36 217.66 L 239.26 217.92 C 239.56 217.26 239.85 216.60 240.15 215.94 C 238.95 215.02 237.76 214.09 236.60 213.14 M 236.84 228.98 L 236.56 229.75 C 236.87 230.01 237.51 230.53 237.83 230.79 L 238.16 230.11 C 237.83 229.83 237.17 229.27 236.84 228.98 C 236.69 228.48 236.38 227.46 236.23 226.95 C 234.20 226.12 235.25 230.15 236.84 228.98 Z" />
<path fill="#ffffff" opacity="1.00" d=" M 275.24 204.03 C 279.05 201.44 280.65 196.92 283.76 193.65 C 283.31 196.39 282.05 198.81 279.75 200.45 C 280.32 200.73 281.48 201.29 282.06 201.57 C 279.76 203.52 277.35 205.32 275.00 207.20 C 276.39 207.87 277.78 208.56 279.09 209.40 C 277.65 210.73 276.14 211.97 274.71 213.30 C 275.27 213.46 276.39 213.77 276.94 213.93 C 274.76 215.00 272.57 216.13 270.18 216.67 C 270.56 214.90 272.33 214.23 273.71 213.41 C 273.38 213.13 272.71 212.58 272.37 212.31 C 273.01 211.62 274.29 210.23 274.93 209.53 C 273.99 209.23 273.03 209.32 272.10 209.57 C 272.83 207.40 276.80 206.87 275.24 204.03 Z" />
<path fill="#ffffff" opacity="1.00" d=" M 238.51 203.00 C 238.81 203.83 238.81 203.83 238.51 203.00 Z" />
<path fill="#ffffff" opacity="1.00" d=" M 241.47 213.13 C 242.46 212.39 244.44 213.85 243.83 215.00 C 242.81 215.54 240.91 214.31 241.47 213.13 Z" />
<path fill="#ffffff" opacity="1.00" d=" M 243.71 217.08 C 244.05 217.33 244.72 217.85 245.06 218.11 L 244.72 218.76 C 244.38 218.50 243.70 217.98 243.36 217.72 L 243.71 217.08 Z" />
<path fill="#ffffff" opacity="1.00" d=" M 269.60 220.93 C 268.76 219.49 270.83 218.26 272.09 218.61 C 273.83 219.59 270.72 221.91 269.60 220.93 Z" />
<path fill="#ffffff" opacity="1.00" d=" M 267.32 225.63 C 266.62 224.09 269.89 222.23 270.51 223.97 C 270.26 225.22 268.47 226.51 267.32 225.63 Z" />
<path fill="#ffffff" opacity="1.00" d=" M 239.34 225.12 C 241.09 225.31 241.83 227.01 243.03 228.02 C 244.47 229.83 246.21 231.53 246.88 233.81 L 245.17 233.47 L 242.76 231.37 C 243.62 233.51 245.54 235.03 246.26 237.25 C 244.18 236.03 241.87 233.80 242.68 231.13 L 241.31 231.55 C 241.54 230.86 241.77 230.18 242.00 229.50 C 240.98 228.13 240.11 226.63 239.34 225.12 Z" />
</g>
</svg>
