<?xml version="1.0" encoding="UTF-8" ?>
<!DOCTYPE svg PUBLIC "-//W3C//DTD SVG 1.1//EN" "http://www.w3.org/Graphics/SVG/1.1/DTD/svg11.dtd">
<svg width="512pt" height="256pt" viewBox="0 0 512 256" version="1.1" xmlns="http://www.w3.org/2000/svg">
<g id="#ffffffff">
<path fill="#ffffff" opacity="1.00" d=" M 197.34 19.32 C 199.17 16.11 201.44 12.92 204.49 10.73 C 205.04 13.62 203.57 16.03 201.77 18.11 C 201.38 19.61 200.98 21.11 200.55 22.60 C 199.34 24.76 198.49 27.19 196.37 28.68 L 196.86 26.01 L 195.46 25.28 C 195.48 26.64 195.65 28.01 195.47 29.36 C 193.30 32.54 191.07 35.68 188.91 38.86 C 187.97 39.75 187.11 42.36 185.58 39.97 C 186.26 39.71 187.62 39.20 188.30 38.95 C 187.66 38.17 187.01 37.39 186.36 36.62 C 185.72 38.57 185.22 40.57 185.48 42.65 L 184.12 42.04 C 183.23 45.49 179.63 49.04 183.35 52.42 L 180.26 50.04 C 177.82 47.39 181.68 44.24 181.89 41.29 C 182.17 40.90 182.73 40.13 183.01 39.74 C 183.58 38.43 183.66 36.50 185.48 36.37 C 186.70 32.05 190.47 29.48 193.22 26.17 C 194.96 24.35 197.07 22.54 196.82 19.73 C 197.27 20.37 198.16 21.64 198.60 22.28 C 198.00 22.66 196.81 23.41 196.21 23.79 C 196.43 24.37 196.87 25.53 197.09 26.11 C 198.25 24.76 199.41 23.41 200.59 22.06 C 199.52 21.13 198.39 20.26 197.34 19.32 M 202.32 14.81 C 202.91 14.03 202.91 14.03 202.32 14.81 M 200.12 20.07 C 201.05 18.46 202.19 16.68 202.32 14.81 C 200.66 15.35 198.64 19.08 200.12 20.07 M 190.71 32.33 C 190.99 32.74 190.99 32.74 190.71 32.33 M 188.00 36.01 C 188.64 36.61 188.64 36.61 188.00 36.01 Z" />
<path fill="#ffffff" opacity="1.00" d=" M 156.72 16.28 C 156.46 14.63 157.11 13.93 158.68 14.20 C 158.95 15.83 158.29 16.53 156.72 16.28 Z" />
<path fill="#ffffff" opacity="1.00" d=" M 162.48 15.95 C 163.17 16.75 163.95 17.51 164.45 18.46 C 165.42 22.72 166.09 27.06 167.51 31.20 C 167.93 33.20 168.45 35.19 168.70 37.22 C 169.37 38.97 169.98 40.72 170.63 42.48 C 169.39 41.95 168.06 40.72 166.76 41.84 C 165.47 42.03 164.69 41.29 164.40 39.62 C 165.04 39.66 166.31 39.75 166.95 39.79 L 166.87 39.41 C 166.37 39.34 165.38 39.20 164.88 39.13 C 163.95 35.83 163.22 32.43 163.39 28.98 C 162.85 27.47 162.35 25.95 161.86 24.44 C 162.49 24.40 163.76 24.34 164.40 24.30 L 162.71 23.73 C 162.46 21.14 162.40 18.55 162.48 15.95 Z" />
<path fill="#ffffff" opacity="1.00" d=" M 157.08 16.92 L 159.28 16.71 C 159.16 21.36 159.36 26.01 160.31 30.58 C 160.54 35.90 163.54 40.46 166.00 45.01 C 163.62 44.34 161.84 42.57 160.18 40.84 C 159.12 40.31 159.58 39.15 159.56 38.27 C 158.80 36.87 158.18 35.42 157.71 33.91 C 157.63 35.79 157.47 37.67 157.16 39.53 C 154.20 38.80 154.46 34.16 150.73 34.95 C 151.85 36.46 152.99 37.97 154.14 39.47 C 153.70 40.32 153.27 41.16 152.84 41.99 C 152.36 40.98 151.88 39.98 151.39 38.98 C 150.20 37.43 148.91 35.85 148.65 33.84 L 151.41 34.99 C 150.49 31.88 149.26 28.82 149.19 25.53 C 149.60 25.64 150.42 25.85 150.83 25.96 C 152.54 29.60 154.97 32.89 156.31 36.72 C 156.91 35.25 157.34 33.73 157.76 32.21 C 157.40 31.79 156.67 30.96 156.31 30.54 C 157.15 30.77 158.83 31.23 159.67 31.46 C 159.13 30.89 158.06 29.73 157.52 29.16 C 156.78 29.41 156.06 29.66 155.33 29.92 C 155.51 28.63 155.69 27.34 155.86 26.05 C 157.03 26.67 158.22 27.28 159.40 27.89 C 157.93 26.23 156.24 24.67 155.79 22.39 C 156.37 22.21 157.55 21.84 158.14 21.66 L 156.23 21.82 L 156.26 19.09 L 157.93 19.53 C 157.71 18.88 157.29 17.58 157.08 16.92 Z" />
<path fill="#ffffff" opacity="1.00" d=" M 283.59 50.73 C 285.80 44.51 280.69 38.70 281.74 32.54 C 282.57 33.16 283.41 33.79 284.24 34.43 L 282.24 34.54 C 282.40 35.44 282.70 37.25 282.86 38.15 C 283.27 37.35 284.10 35.74 284.51 34.94 C 284.75 35.77 284.99 36.61 285.23 37.44 C 284.79 38.39 283.90 40.29 283.46 41.24 C 284.04 40.51 285.20 39.04 285.78 38.30 C 288.74 44.29 290.42 52.34 297.20 55.16 C 298.29 52.01 298.99 48.62 301.25 46.04 C 300.61 46.48 299.32 47.38 298.68 47.83 C 299.88 44.47 297.98 40.89 299.64 37.64 C 297.13 37.55 299.03 34.91 299.09 33.65 C 299.65 34.72 300.17 35.82 300.68 36.92 C 301.22 38.57 301.78 40.26 301.87 42.01 C 301.55 41.28 300.90 39.81 300.57 39.07 C 300.40 40.77 300.24 42.48 299.97 44.16 C 300.43 43.92 301.35 43.43 301.81 43.19 C 303.04 45.17 303.12 47.55 303.48 49.78 L 301.66 48.02 C 300.37 51.06 298.70 53.92 297.05 56.77 C 296.39 56.74 295.08 56.69 294.43 56.66 C 294.66 58.76 294.57 60.85 294.18 62.93 C 292.18 60.78 292.00 58.72 293.62 56.75 C 292.29 53.15 289.80 50.12 288.52 46.50 C 287.93 46.50 286.76 46.51 286.18 46.51 C 286.68 45.62 287.19 44.73 287.70 43.84 C 286.79 42.64 285.86 41.45 284.73 40.44 C 284.51 44.59 285.20 48.69 285.14 52.83 C 284.61 52.14 284.09 51.44 283.59 50.73 Z" />
<path fill="#ffffff" opacity="1.00" d=" M 337.43 53.75 C 338.12 48.30 338.82 42.72 340.50 37.50 C 341.04 39.57 341.50 41.66 341.94 43.76 C 341.40 43.61 340.32 43.31 339.77 43.16 C 340.33 44.58 340.92 45.99 341.58 47.37 C 340.65 48.03 339.70 48.68 338.76 49.32 C 339.06 49.62 339.65 50.20 339.94 50.50 C 339.40 51.21 338.32 52.64 337.79 53.36 C 340.75 53.04 340.61 50.00 341.68 48.04 C 341.47 52.90 341.80 57.85 341.50 62.68 C 340.86 63.09 339.57 63.91 338.92 64.32 C 339.88 62.10 341.83 59.96 340.94 57.37 C 339.11 56.67 339.89 59.30 339.24 60.24 C 338.78 62.33 336.49 62.63 334.78 63.04 C 335.72 59.96 335.76 56.58 337.43 53.75 Z" />
<path fill="#ffffff" opacity="1.00" d=" M 314.69 45.82 C 315.21 43.59 316.15 41.48 317.80 39.86 C 317.00 47.64 317.14 56.60 311.35 62.62 L 311.34 59.82 C 308.56 61.57 309.53 64.84 309.64 67.54 C 305.40 64.72 302.70 59.96 302.57 54.85 C 301.91 54.44 301.25 54.04 300.58 53.67 C 301.91 52.79 302.59 51.34 303.42 50.04 C 304.25 54.06 304.66 58.92 308.80 61.03 C 310.61 58.50 311.98 55.72 313.50 53.02 C 312.72 50.56 314.14 48.18 314.69 45.82 M 307.15 63.19 C 307.65 63.85 307.65 63.85 307.15 63.19 Z" />
<path fill="#ffffff" opacity="1.00" d=" M 167.95 43.73 C 168.80 43.39 169.65 43.06 170.51 42.73 C 171.78 47.67 175.67 51.67 176.05 56.81 C 176.97 55.59 177.71 54.24 177.89 52.70 C 178.12 51.96 178.59 50.49 178.82 49.75 C 179.75 50.83 180.66 51.92 181.55 53.04 L 178.53 51.64 C 177.98 54.48 176.89 57.57 178.51 60.28 C 179.34 59.96 181.01 59.31 181.84 58.99 C 180.85 59.74 179.77 60.32 178.59 60.72 C 178.61 62.53 178.58 64.34 178.35 66.14 C 176.86 64.96 176.92 63.01 176.57 61.34 C 175.97 61.38 174.77 61.46 174.17 61.50 C 174.42 59.76 174.65 58.01 174.87 56.27 C 174.61 56.86 174.10 58.03 173.84 58.62 L 172.61 58.67 C 173.12 56.73 173.61 54.78 173.76 52.77 C 172.82 54.64 172.47 56.91 170.65 58.21 C 169.94 55.85 170.81 53.82 172.16 51.96 C 171.03 52.97 169.90 53.98 168.73 54.93 C 169.16 52.40 170.77 50.41 172.72 48.85 C 171.85 48.18 170.98 47.50 170.13 46.81 C 170.88 48.41 170.56 49.81 169.19 51.02 C 169.27 50.41 169.42 49.19 169.50 48.58 C 167.97 47.88 166.57 47.08 168.89 46.07 C 167.69 45.09 167.38 44.31 167.95 43.73 Z" />
<path fill="#ffffff" opacity="1.00" d=" M 265.68 43.89 C 266.50 43.51 268.15 42.76 268.97 42.38 C 270.28 43.61 271.53 44.88 272.84 46.11 C 271.97 46.70 271.11 47.30 270.25 47.90 C 271.75 48.39 273.32 48.66 274.89 48.90 C 276.45 51.11 278.41 52.97 280.70 54.42 C 282.68 51.80 284.86 53.86 285.67 56.15 C 284.93 56.98 284.25 57.86 283.64 58.79 C 281.79 56.99 280.24 54.77 277.40 54.33 C 278.78 56.30 280.21 58.32 282.44 59.41 L 281.78 60.02 L 281.27 60.40 C 281.72 60.43 282.64 60.49 283.09 60.52 L 283.64 62.59 C 283.79 61.98 284.09 60.76 284.24 60.15 C 285.49 61.11 285.95 62.88 286.91 64.14 C 286.48 62.11 285.35 60.12 285.34 58.06 C 286.39 57.43 287.45 58.48 288.40 58.87 C 288.85 61.39 289.74 63.80 290.75 66.14 C 290.68 64.94 290.61 63.73 290.54 62.53 C 288.40 60.81 289.55 57.73 289.21 55.36 C 289.63 54.56 290.04 53.75 290.46 52.95 C 290.99 55.35 291.48 57.76 292.05 60.16 C 292.34 61.41 292.63 62.67 292.96 63.92 C 293.48 66.07 294.39 68.34 293.29 70.48 C 292.68 69.59 291.48 67.81 290.87 66.92 C 291.25 69.10 292.28 70.98 294.52 71.61 C 294.61 71.22 294.79 70.43 294.88 70.03 C 295.32 68.13 296.48 70.46 297.01 71.00 C 298.04 72.35 298.99 73.75 300.07 75.07 C 299.56 74.01 299.02 72.97 298.43 71.95 C 298.54 70.43 298.66 68.91 298.71 67.39 C 298.15 69.02 296.65 68.76 295.38 68.20 C 295.09 67.39 294.50 65.77 294.20 64.95 C 295.34 63.97 295.72 62.70 295.34 61.13 L 297.79 61.15 L 297.73 63.30 C 298.07 62.38 298.38 61.46 298.71 60.53 L 295.80 60.90 C 296.87 59.10 298.39 57.81 300.37 57.02 C 300.75 59.92 302.30 63.09 300.97 65.91 L 300.56 66.37 C 300.47 68.67 300.49 71.01 301.21 73.23 C 301.48 71.53 301.28 69.70 302.16 68.16 C 303.07 68.37 303.73 68.96 304.14 69.94 C 302.82 67.23 301.57 64.34 302.02 61.25 C 303.04 62.85 304.01 64.56 305.53 65.76 C 306.44 67.14 307.31 68.55 308.33 69.86 C 308.72 69.44 309.50 68.58 309.89 68.15 C 310.50 70.47 311.15 72.78 311.83 75.08 C 312.60 73.38 312.21 71.59 312.03 69.82 C 312.56 68.56 313.34 67.42 314.00 66.22 C 313.35 66.85 312.06 68.11 311.41 68.74 C 310.18 64.74 312.80 61.36 315.30 58.61 C 314.43 63.05 315.20 67.53 315.54 71.98 C 314.12 73.67 312.28 75.18 311.81 77.45 C 313.39 75.73 314.81 73.88 315.87 71.79 C 316.46 73.35 317.05 74.91 317.64 76.47 C 317.21 78.58 317.03 80.73 316.78 82.86 C 315.31 80.89 314.18 78.69 312.67 76.74 C 313.07 80.38 316.86 83.06 315.97 86.90 C 314.72 92.13 314.27 98.10 309.87 101.84 C 307.89 99.62 309.21 96.56 310.27 94.24 C 311.42 94.18 311.16 95.91 311.59 96.64 C 312.81 93.98 314.10 91.30 313.57 88.27 C 312.47 89.65 312.90 93.50 310.39 92.77 C 308.83 90.63 308.35 87.92 307.94 85.35 C 309.51 85.50 311.09 85.65 312.68 85.68 C 311.05 85.53 309.12 84.27 311.55 83.41 C 310.35 83.25 309.16 83.02 308.00 82.72 C 308.81 83.83 308.64 84.89 307.50 85.89 C 308.53 90.13 309.02 94.56 308.39 98.89 C 308.10 99.90 307.09 100.07 306.42 99.32 C 306.44 98.46 306.49 96.73 306.51 95.86 C 306.30 97.78 305.40 100.39 307.78 101.32 C 307.38 103.14 304.91 102.76 303.58 103.44 C 303.59 103.26 303.61 102.90 303.62 102.72 C 302.28 103.00 300.93 103.26 299.59 103.51 C 299.73 99.19 297.18 95.30 297.61 90.98 C 297.84 89.64 296.91 88.63 296.22 87.62 C 296.36 86.66 296.63 84.74 296.76 83.78 C 296.34 85.28 296.00 86.80 295.59 88.31 C 297.01 93.14 298.75 97.91 299.20 102.96 C 296.18 102.76 293.15 102.87 290.14 102.59 C 287.56 100.81 286.23 97.68 283.94 95.55 C 285.43 94.76 286.75 95.72 287.91 96.61 C 287.73 96.21 287.36 95.39 287.18 94.99 C 284.09 93.62 283.81 89.86 282.67 87.09 L 281.69 87.76 C 280.67 83.96 279.74 79.75 276.89 76.87 C 277.71 79.22 278.85 81.44 280.00 83.64 C 279.25 85.59 279.64 87.68 280.18 89.64 C 280.39 89.23 280.80 88.41 281.01 88.00 C 283.10 89.05 283.96 92.83 283.50 95.18 C 282.35 93.81 281.21 92.44 280.06 91.08 C 279.22 91.27 278.38 91.47 277.53 91.53 C 276.77 90.51 277.96 89.54 278.19 88.56 C 277.10 87.61 276.01 86.67 274.91 85.73 C 275.07 85.27 275.39 84.36 275.55 83.90 C 274.75 83.58 273.16 82.93 272.37 82.61 C 272.84 83.11 273.79 84.11 274.26 84.61 C 274.43 85.90 274.59 87.20 274.74 88.50 C 271.52 84.86 271.06 79.78 269.41 75.38 L 268.90 75.33 C 266.82 73.52 264.81 71.52 263.87 68.84 C 266.06 69.61 266.71 72.05 268.20 73.59 C 268.13 70.52 265.40 68.72 264.10 66.20 C 263.91 66.86 263.53 68.18 263.34 68.84 L 261.90 67.69 L 263.04 66.53 C 259.54 66.88 258.62 62.52 258.21 59.86 C 265.68 63.30 269.92 70.76 274.88 76.90 C 274.37 74.28 271.40 72.13 272.30 69.34 C 271.39 68.97 269.58 68.24 268.67 67.87 C 270.36 67.78 272.05 67.71 273.75 67.65 L 273.56 66.57 L 274.61 66.82 C 274.51 65.61 274.75 64.48 275.34 63.45 C 274.46 66.29 276.68 66.75 278.69 67.29 C 278.63 68.42 278.58 69.55 278.55 70.68 C 278.09 70.64 277.18 70.57 276.72 70.53 L 277.12 71.78 L 278.61 71.10 C 277.89 74.08 280.36 76.41 281.57 78.82 C 281.40 77.81 281.07 75.79 280.90 74.78 C 281.39 74.61 282.37 74.26 282.86 74.09 C 281.55 73.13 280.27 72.14 278.99 71.14 C 279.44 70.83 280.33 70.19 280.78 69.88 C 279.92 67.11 278.66 64.46 278.52 61.51 C 280.91 63.74 281.83 66.94 283.26 69.78 C 283.05 67.63 282.73 65.50 282.47 63.37 L 281.50 64.00 C 280.54 62.36 279.64 60.70 278.75 59.03 L 277.07 60.47 C 276.70 58.45 277.22 55.65 274.55 55.23 C 273.49 53.58 272.73 51.77 272.16 49.90 C 270.89 48.85 269.62 47.80 268.38 46.72 C 268.91 46.37 269.97 45.66 270.49 45.31 C 268.61 45.80 267.00 45.33 265.68 43.89 M 274.21 51.45 C 273.42 52.45 274.74 54.37 275.96 53.80 C 276.77 52.82 275.36 50.99 274.21 51.45 M 260.76 63.96 C 260.33 65.27 262.42 66.35 263.49 65.81 C 263.71 64.60 261.82 63.39 260.76 63.96 Z" />
<path fill="#ffffff" opacity="1.00" d=" M 154.07 44.78 C 154.65 44.73 155.81 44.64 156.39 44.59 C 156.11 48.96 158.62 53.05 157.77 57.45 C 156.34 54.05 156.21 50.28 155.29 46.73 C 154.88 46.08 154.47 45.43 154.07 44.78 Z" />
<path fill="#ffffff" opacity="1.00" d=" M 163.17 45.85 C 164.40 45.01 166.19 46.91 165.70 48.18 C 164.47 49.01 162.69 47.11 163.17 45.85 Z" />
<path fill="#ffffff" opacity="1.00" d=" M 254.32 54.32 C 256.11 52.08 257.44 49.39 259.84 47.71 C 258.61 53.36 255.39 58.39 251.76 62.82 C 248.40 65.17 245.66 68.30 243.60 71.87 L 247.12 69.13 C 247.50 68.53 248.27 67.34 248.66 66.74 C 249.27 66.31 250.48 65.47 251.09 65.04 C 249.48 67.76 247.35 70.09 245.31 72.48 L 244.66 72.29 C 243.78 74.45 242.55 76.46 241.09 78.27 C 241.78 76.16 242.48 74.05 243.15 71.93 C 241.03 73.06 238.92 75.92 236.24 74.53 C 235.33 76.09 233.64 77.67 234.44 79.64 C 235.40 81.26 235.95 83.06 236.76 84.76 C 237.56 82.98 238.55 81.26 239.94 79.87 C 237.93 85.36 233.60 89.45 230.11 93.99 C 231.33 90.77 233.42 87.99 235.94 85.66 C 234.77 85.63 233.60 85.58 232.44 85.51 C 230.67 87.98 228.71 90.31 226.99 92.82 C 226.26 92.62 224.79 92.22 224.06 92.02 C 222.55 93.51 221.04 95.01 219.52 96.49 C 218.40 98.63 216.82 100.55 214.67 101.70 C 212.18 100.62 216.76 99.17 217.50 98.73 C 216.67 98.28 215.84 97.84 215.00 97.41 C 216.68 96.52 218.20 95.36 218.79 93.48 C 219.76 91.71 222.34 90.43 221.70 88.14 L 222.49 89.31 C 224.85 86.05 227.30 82.86 229.86 79.75 C 230.92 79.00 230.62 77.92 229.60 77.32 L 230.84 75.47 C 231.74 76.34 232.91 76.82 233.91 75.75 C 233.34 75.16 232.77 74.59 232.19 74.03 C 240.61 68.76 248.23 62.19 254.32 54.32 Z" />
<path fill="#ffffff" opacity="1.00" d=" M 159.42 49.92 C 160.78 52.35 160.63 55.22 160.93 57.90 C 161.28 57.83 161.97 57.68 162.32 57.60 C 162.38 62.16 164.42 66.42 166.71 70.27 C 166.92 67.52 166.30 64.83 165.63 62.19 C 165.82 62.10 166.20 61.92 166.40 61.83 C 167.10 64.50 168.09 67.08 168.85 69.73 C 169.23 69.72 169.99 69.69 170.37 69.67 C 170.43 70.75 170.49 71.83 170.55 72.90 C 173.03 77.15 176.19 81.05 180.26 83.87 C 182.23 85.50 184.85 86.58 185.98 89.00 C 182.21 86.53 178.52 83.84 175.24 80.73 C 171.31 75.99 166.11 72.20 163.57 66.43 C 162.46 63.83 160.51 61.64 159.65 58.93 C 159.28 55.95 159.31 52.92 159.42 49.92 Z" />
<path fill="#ffffff" opacity="1.00" d=" M 286.40 50.68 C 286.62 50.42 287.06 49.90 287.27 49.63 C 287.38 50.54 287.60 52.35 287.71 53.25 C 287.94 54.61 288.39 57.31 288.61 58.67 C 287.20 57.30 286.07 55.70 284.96 54.09 C 287.31 54.38 287.03 51.96 286.40 50.68 Z" />
<path fill="#ffffff" opacity="1.00" d=" M 179.26 53.57 C 180.17 53.47 182.00 53.28 182.91 53.19 C 183.32 58.47 184.10 63.84 186.31 68.70 C 187.11 70.48 187.56 72.38 187.87 74.29 C 187.01 73.67 186.18 73.02 185.36 72.35 L 183.19 72.99 C 183.68 72.22 184.66 70.67 185.14 69.90 C 184.50 70.44 183.22 71.54 182.57 72.09 C 182.55 71.16 182.51 69.31 182.49 68.38 L 183.84 68.53 C 183.84 68.19 183.85 67.52 183.85 67.18 C 183.42 67.47 182.57 68.05 182.14 68.34 C 182.39 65.92 182.40 63.49 182.10 61.08 C 182.38 60.52 182.92 59.40 183.20 58.84 L 181.56 58.89 C 181.70 58.38 181.98 57.36 182.11 56.84 C 181.09 57.23 180.08 57.61 179.06 58.00 C 179.66 57.49 180.85 56.48 181.44 55.97 C 180.90 55.37 179.80 54.17 179.26 53.57 Z" />
<path fill="#ffffff" opacity="1.00" d=" M 317.10 54.48 C 321.50 58.63 321.49 65.05 323.47 70.37 C 324.36 74.12 324.99 77.92 325.64 81.72 C 330.44 76.80 332.20 69.90 334.43 63.60 C 335.22 63.37 336.81 62.89 337.60 62.65 C 338.60 63.97 339.52 65.40 337.02 65.58 C 337.06 65.95 337.12 66.69 337.16 67.05 C 338.35 66.45 339.35 65.40 340.66 65.04 C 341.91 67.40 341.30 69.92 339.73 71.95 L 339.37 72.03 C 339.49 71.43 339.74 70.22 339.86 69.62 C 340.05 68.80 340.41 67.16 340.60 66.34 C 339.01 66.83 337.85 68.08 336.41 68.84 C 335.73 70.73 337.12 74.03 339.39 73.43 L 339.85 73.47 C 339.07 77.13 337.25 80.54 334.94 83.46 C 333.60 83.47 332.27 83.55 330.94 83.68 C 331.13 84.21 331.51 85.27 331.70 85.80 C 329.29 87.13 325.82 88.58 326.42 92.05 C 327.77 91.40 328.69 90.36 329.16 88.91 C 330.57 87.94 331.99 86.96 333.51 86.15 C 330.96 89.63 327.22 92.16 325.43 96.21 C 325.69 90.82 326.06 85.31 324.11 80.15 C 322.17 82.63 320.27 85.15 318.69 87.88 L 320.73 87.27 C 319.56 88.65 318.55 90.15 317.54 91.65 C 317.44 92.40 317.25 93.90 317.15 94.65 C 318.23 93.45 319.24 92.19 320.32 90.99 C 320.07 93.15 318.75 94.82 317.31 96.32 C 316.11 97.83 315.01 99.40 313.96 101.02 C 314.50 101.38 315.58 102.09 316.12 102.45 C 314.57 104.63 311.64 104.46 309.69 106.08 C 308.19 106.73 306.60 107.23 305.32 108.27 C 304.27 108.51 302.17 108.99 301.13 109.24 C 301.76 108.53 303.03 107.11 303.67 106.40 C 303.15 106.01 302.12 105.22 301.60 104.83 C 303.94 104.52 306.30 104.19 308.57 103.52 C 309.39 103.70 310.21 103.88 311.03 104.06 C 312.39 99.95 316.29 96.46 316.07 92.06 C 316.99 88.93 316.78 85.05 319.85 83.13 C 319.50 83.01 318.80 82.77 318.45 82.65 C 319.06 77.75 319.13 72.76 318.48 67.86 C 318.91 67.58 319.77 67.02 320.20 66.74 L 321.22 65.90 C 320.55 65.74 319.23 65.43 318.57 65.27 C 318.59 64.88 318.65 64.09 318.67 63.69 L 319.89 63.98 C 319.65 61.97 319.39 59.95 318.48 58.12 C 318.22 58.63 317.71 59.66 317.45 60.18 C 317.50 58.27 317.24 56.37 317.10 54.48 M 321.17 69.24 C 320.47 72.79 318.23 77.34 320.60 80.55 L 321.15 81.04 C 322.88 81.05 323.28 78.94 324.29 77.92 C 323.56 76.21 322.88 74.46 322.14 72.75 C 321.92 71.53 323.55 68.25 321.17 69.24 M 333.50 75.69 C 333.86 76.19 334.58 77.18 334.94 77.68 C 333.65 78.40 332.30 78.96 330.94 79.54 C 331.79 79.33 333.49 78.92 334.34 78.72 C 333.57 79.77 332.02 81.88 331.25 82.93 C 335.00 82.01 337.34 78.98 339.02 75.73 C 337.80 75.85 336.59 75.85 335.40 75.74 C 335.37 74.81 335.47 73.88 335.70 72.95 C 335.05 73.89 333.60 74.52 333.50 75.69 Z" />
<path fill="#ffffff" opacity="1.00" d=" M 274.74 58.54 L 276.20 58.42 C 276.38 59.86 276.65 61.29 276.93 62.72 C 277.30 63.41 278.04 64.79 278.41 65.48 C 275.84 64.14 275.31 61.09 274.74 58.54 Z" />
<path fill="#ffffff" opacity="1.00" d=" M 278.37 61.01 C 278.73 61.31 278.73 61.31 278.37 61.01 Z" />
<path fill="#ffffff" opacity="1.00" d=" M 180.53 72.25 C 178.00 71.50 178.36 68.76 178.42 66.70 C 179.20 68.52 179.91 70.37 180.53 72.25 Z" />
<path fill="#ffffff" opacity="1.00" d=" M 182.26 77.38 C 183.16 76.27 184.05 75.16 184.97 74.07 C 184.10 75.96 183.58 77.85 185.83 78.93 C 185.18 80.29 184.51 81.65 183.82 82.99 C 182.67 81.33 182.45 79.33 182.26 77.38 Z" />
<path fill="#ffffff" opacity="1.00" d=" M 187.53 74.54 C 190.31 77.49 192.01 81.29 195.05 84.03 C 199.39 89.83 205.56 95.47 213.25 95.42 C 217.23 92.05 220.73 88.16 224.16 84.24 C 223.48 85.63 222.68 86.95 221.70 88.14 C 219.16 91.03 216.90 94.34 213.52 96.31 C 213.40 98.15 211.84 97.55 210.61 97.31 C 210.59 97.71 210.56 98.52 210.54 98.92 C 208.05 96.46 204.81 95.07 201.56 93.93 C 202.16 95.24 202.78 96.54 203.40 97.84 C 204.21 97.36 205.39 96.84 206.04 97.94 C 207.61 99.75 210.08 100.57 211.25 102.75 C 209.12 101.88 206.35 101.48 205.80 98.74 C 205.27 99.35 204.76 99.98 204.25 100.61 C 202.67 99.55 201.14 98.43 199.59 97.34 C 195.49 94.86 197.17 89.49 194.71 85.85 C 192.58 84.46 191.53 82.06 190.41 79.88 C 190.02 80.07 189.24 80.46 188.84 80.65 C 188.11 82.06 187.34 83.44 186.58 84.83 C 183.77 82.81 186.79 79.15 189.45 79.29 C 188.77 77.72 188.10 76.15 187.53 74.54 M 198.35 91.49 C 197.97 93.18 199.04 95.32 200.22 96.50 C 201.62 95.42 199.97 91.68 198.35 91.49 Z" />
<path fill="#ffffff" opacity="1.00" d=" M 236.15 76.42 C 237.63 76.42 238.90 75.66 240.23 75.10 C 239.37 77.10 238.28 78.97 236.98 80.73 C 235.46 79.70 234.35 77.83 236.15 76.42 Z" />
<path fill="#ffffff" opacity="1.00" d=" M 226.17 82.28 C 226.03 80.88 227.51 79.34 228.82 78.97 C 229.03 80.36 227.53 82.06 226.17 82.28 Z" />
<path fill="#ffffff" opacity="1.00" d=" M 186.80 87.14 C 186.88 85.91 186.77 83.91 188.55 84.35 C 190.08 84.59 191.00 85.63 191.00 87.20 C 191.80 86.20 193.10 86.13 194.24 85.86 C 193.26 87.51 193.55 88.94 195.09 90.13 C 195.38 91.43 195.66 92.73 195.95 94.04 C 194.01 92.90 192.17 91.54 191.09 89.51 C 187.97 90.00 189.79 86.24 189.24 84.62 C 188.63 85.25 187.41 86.51 186.80 87.14 Z" />
<path fill="#ffffff" opacity="1.00" d=" M 333.30 85.26 C 333.81 85.88 333.81 85.88 333.30 85.26 Z" />
<path fill="#ffffff" opacity="1.00" d=" M 281.01 88.00 C 278.80 88.27 280.62 84.48 281.26 87.24 L 281.01 88.00 Z" />
<path fill="#ffffff" opacity="1.00" d=" M 236.83 88.88 C 241.33 87.95 245.72 90.05 249.95 91.34 C 255.58 93.02 259.13 97.99 262.39 102.52 C 262.14 102.73 261.65 103.17 261.40 103.39 C 262.41 104.35 263.45 105.29 264.52 106.20 C 267.02 106.26 269.27 107.39 271.66 108.03 C 270.98 107.27 269.61 105.76 268.93 105.00 C 267.94 105.06 265.96 105.18 264.97 105.24 C 266.44 103.21 268.89 103.79 270.98 104.04 C 274.22 104.48 277.54 105.18 280.79 104.43 C 285.77 103.27 290.86 104.68 295.89 104.26 C 298.21 103.81 300.22 105.21 302.28 106.01 C 301.72 106.33 300.60 106.99 300.05 107.32 C 297.11 106.41 293.97 106.93 291.01 106.11 C 291.60 106.59 292.78 107.56 293.37 108.04 C 292.36 108.20 290.34 108.52 289.33 108.68 C 289.24 108.18 289.04 107.17 288.95 106.67 C 284.81 105.54 280.68 107.17 276.61 107.82 C 276.11 107.21 275.11 105.97 274.60 105.36 C 273.71 106.16 272.79 106.95 272.00 107.86 C 271.73 109.90 272.36 111.91 272.62 113.92 C 273.44 112.82 274.08 111.62 274.55 110.32 C 275.50 111.84 275.32 113.68 275.53 115.39 C 276.42 115.86 277.32 116.34 278.22 116.83 C 278.24 117.33 278.29 118.33 278.31 118.82 C 278.68 119.44 279.43 120.67 279.80 121.29 C 285.00 126.31 291.04 130.42 297.69 133.25 C 303.84 139.36 310.00 145.93 313.15 154.20 C 312.33 153.38 310.69 151.72 309.88 150.89 C 310.33 152.36 311.23 155.31 311.68 156.79 C 309.46 157.20 308.67 154.95 308.12 153.39 C 307.80 153.39 307.14 153.41 306.81 153.41 C 305.86 154.72 304.89 156.00 303.92 157.29 C 302.83 155.67 301.93 153.95 301.19 152.15 C 300.86 152.24 300.21 152.41 299.88 152.50 C 299.27 152.04 298.06 151.12 297.45 150.66 L 297.99 153.24 C 297.23 152.58 296.46 151.93 295.72 151.27 C 294.09 153.15 293.22 150.44 292.13 149.51 C 292.17 150.24 292.23 151.70 292.26 152.43 C 291.16 151.93 290.07 151.42 289.00 150.88 C 290.07 149.59 288.89 148.34 288.30 147.17 C 288.52 146.90 288.96 146.35 289.17 146.08 L 287.04 145.27 C 287.61 144.59 288.16 143.90 288.70 143.20 C 287.19 141.18 289.85 140.05 290.69 138.47 C 289.91 138.19 288.34 137.62 287.56 137.33 C 287.43 138.41 288.65 138.85 288.72 139.80 C 287.97 140.40 287.22 141.00 286.46 141.59 C 287.76 142.94 286.52 144.51 285.76 145.76 C 283.99 147.73 285.92 148.93 288.02 148.51 C 287.77 149.36 287.28 151.06 287.04 151.90 C 284.79 151.56 282.49 149.78 283.34 147.30 C 283.22 146.96 282.99 146.29 282.88 145.95 C 282.66 144.02 281.01 142.90 279.86 141.54 C 278.16 142.22 275.83 142.34 275.12 144.38 C 276.05 144.03 277.90 143.31 278.83 142.95 C 280.53 144.20 282.51 145.42 281.58 147.84 C 279.12 149.19 276.22 150.46 274.68 152.89 C 273.87 155.33 270.95 153.65 269.65 152.71 C 271.13 152.38 272.62 152.07 274.13 151.80 C 272.36 151.51 271.23 150.44 270.75 148.59 C 272.64 148.60 274.53 148.55 276.43 148.44 C 274.79 147.59 272.96 147.28 271.17 146.94 C 273.71 144.94 275.71 142.37 277.82 139.94 C 275.41 140.65 273.14 141.68 271.06 143.06 L 272.92 139.68 C 271.83 140.50 269.67 142.14 268.58 142.96 C 269.30 141.88 270.09 140.84 270.91 139.82 C 272.23 138.83 273.55 137.85 274.90 136.91 L 274.46 140.32 C 274.91 139.38 275.29 138.42 275.60 137.43 C 278.09 136.08 280.62 134.83 283.06 133.39 C 282.46 133.45 281.25 133.58 280.65 133.64 C 279.13 134.59 277.57 135.49 276.04 136.41 C 274.63 136.26 273.45 136.98 272.28 137.61 L 272.47 134.93 C 271.58 136.04 269.46 137.28 271.02 138.78 C 270.23 139.42 268.67 140.69 267.89 141.33 C 268.08 140.60 268.48 139.13 268.68 138.40 C 267.85 139.14 266.19 140.62 265.37 141.36 C 264.04 137.24 267.74 134.71 270.89 133.18 C 270.66 132.77 270.20 131.94 269.98 131.52 C 272.59 129.99 275.47 129.04 278.29 127.97 C 275.06 126.76 271.61 128.61 269.87 131.38 C 269.31 131.44 268.18 131.55 267.62 131.60 C 267.11 134.65 264.45 137.43 261.33 137.74 C 261.94 138.47 262.55 139.21 263.16 139.95 C 262.21 140.93 261.05 141.46 259.70 141.56 C 260.81 142.90 261.88 144.28 262.99 145.63 C 263.80 144.53 264.72 143.54 265.76 142.67 C 263.92 145.87 261.82 149.01 258.80 151.22 C 258.97 149.44 260.15 148.08 261.39 146.90 C 260.98 146.47 260.57 146.04 260.16 145.61 L 259.36 147.13 L 258.09 147.20 C 257.83 146.65 257.31 145.55 257.05 145.00 C 254.80 145.59 253.47 147.67 251.80 149.11 C 252.38 149.76 252.96 150.41 253.55 151.06 C 255.12 151.20 256.68 151.47 258.21 151.88 C 257.72 152.12 256.75 152.62 256.26 152.86 C 256.39 154.46 256.79 156.28 255.50 157.55 C 256.42 156.23 254.41 149.97 254.45 155.22 C 253.42 156.10 252.49 157.09 251.66 158.17 C 251.42 156.79 251.45 155.40 251.64 154.02 C 251.00 154.23 249.71 154.66 249.07 154.88 C 249.35 153.36 249.96 151.99 250.90 150.78 C 250.21 150.97 248.82 151.34 248.13 151.53 C 248.35 152.28 248.58 153.03 248.80 153.78 C 247.13 155.76 245.71 157.93 244.24 160.06 C 243.79 156.93 245.94 154.73 247.84 152.60 C 247.20 152.61 245.93 152.64 245.29 152.66 L 245.56 150.92 C 244.73 151.50 243.05 152.67 242.21 153.25 C 243.03 151.94 243.94 150.68 244.83 149.42 C 246.84 149.37 248.84 149.30 250.85 149.26 C 252.96 146.94 256.18 144.74 255.41 141.15 C 255.86 140.81 256.74 140.11 257.19 139.77 C 256.78 139.34 256.36 138.93 255.95 138.51 L 255.61 139.62 C 254.11 139.50 252.68 139.79 251.33 140.49 C 251.44 140.99 251.67 141.99 251.78 142.49 L 250.34 142.37 L 250.55 143.62 C 249.88 143.62 248.54 143.64 247.87 143.64 C 248.39 141.97 249.61 141.07 251.44 141.03 C 250.21 139.64 248.53 140.74 247.09 140.88 C 247.34 140.36 247.84 139.33 248.09 138.81 C 248.34 138.41 248.84 137.60 249.10 137.20 C 249.17 137.56 249.31 138.27 249.38 138.63 L 250.75 138.23 L 250.30 140.03 C 253.93 139.19 256.81 136.92 259.28 134.23 C 257.24 135.21 255.18 136.18 252.95 136.58 C 252.37 136.18 251.22 135.40 250.65 135.00 C 250.54 134.54 250.33 133.62 250.22 133.16 C 251.37 136.23 254.16 133.85 256.24 133.16 C 257.67 132.01 259.27 131.10 261.17 131.21 C 260.55 132.06 259.92 132.90 259.28 133.73 C 260.14 133.95 261.86 134.40 262.73 134.62 C 262.60 135.31 262.35 136.67 262.22 137.35 C 264.26 136.00 265.77 134.06 267.22 132.12 C 266.28 132.53 264.41 133.34 263.47 133.75 C 263.05 132.81 262.63 131.88 262.18 130.96 C 264.26 128.88 266.76 127.35 269.28 125.89 C 266.94 126.24 264.22 129.07 262.29 126.53 C 260.74 126.22 259.21 125.82 257.76 125.22 C 260.33 123.60 262.85 121.14 266.12 121.34 C 267.87 121.70 269.44 122.67 271.27 122.74 C 269.92 121.94 268.52 121.24 267.18 120.44 C 265.40 120.74 263.64 121.12 261.89 121.50 C 261.70 120.83 261.34 119.48 261.16 118.81 C 260.38 119.48 259.63 120.17 258.89 120.88 C 259.54 121.15 260.83 121.68 261.48 121.95 C 259.92 122.31 257.19 125.82 256.00 123.98 C 255.90 123.49 255.72 122.49 255.63 121.99 C 254.60 121.96 253.57 121.93 252.55 121.91 C 252.32 121.02 251.85 119.24 251.62 118.35 C 252.34 117.74 253.09 117.13 253.72 116.40 C 251.85 115.38 250.14 114.11 248.81 112.44 C 249.01 113.04 249.43 114.24 249.63 114.84 C 248.54 115.44 247.46 116.06 246.41 116.72 C 245.34 116.54 243.21 116.18 242.15 116.00 C 245.24 114.75 246.65 111.43 249.62 110.10 C 249.85 109.79 250.32 109.15 250.55 108.84 C 249.41 108.55 248.57 107.90 248.03 106.87 C 249.02 106.50 250.02 106.14 251.03 105.80 C 248.67 105.67 247.31 103.95 246.77 101.74 C 250.61 102.68 253.87 104.96 257.09 107.14 C 257.03 107.56 256.91 108.40 256.85 108.81 C 254.85 107.91 252.84 106.97 250.89 105.99 L 252.55 108.42 C 251.77 108.93 251.01 109.44 250.26 109.97 C 250.81 110.45 251.92 111.41 252.48 111.90 L 251.30 113.73 C 254.64 113.69 258.10 113.37 261.16 115.09 C 260.01 115.71 258.85 116.32 257.70 116.96 C 260.99 116.66 263.72 114.55 267.07 114.52 C 266.49 112.05 266.33 109.51 265.81 107.03 C 265.51 107.46 264.90 108.32 264.60 108.74 C 262.89 106.31 260.14 104.88 258.58 102.33 C 257.92 101.62 257.27 100.90 256.62 100.17 C 255.25 99.43 252.17 99.74 252.99 97.41 C 253.88 97.18 255.65 96.71 256.54 96.47 C 254.65 95.21 252.81 96.06 251.15 97.23 C 248.06 96.41 244.84 96.67 241.72 96.15 C 240.87 96.18 239.17 96.25 238.32 96.29 L 238.43 97.73 C 237.60 97.47 236.76 97.21 235.94 96.95 C 235.49 94.22 235.09 91.28 236.83 88.88 M 237.41 90.95 C 237.40 91.33 237.38 92.09 237.37 92.47 L 238.18 92.42 C 238.19 92.03 238.20 91.27 238.20 90.89 L 237.41 90.95 M 268.33 113.18 C 269.19 112.04 269.25 110.81 268.49 109.50 C 267.00 109.50 267.34 112.48 268.33 113.18 M 271.37 115.04 C 269.93 115.77 269.88 116.40 271.22 116.91 C 272.69 116.17 272.74 115.55 271.37 115.04 M 267.22 116.25 C 267.81 116.80 267.81 116.80 267.22 116.25 M 264.22 130.68 C 263.39 132.04 265.71 132.42 266.32 131.47 C 267.92 129.95 264.87 129.42 264.22 130.68 M 258.25 137.50 C 258.53 137.76 258.53 137.76 258.25 137.50 M 260.63 139.88 C 261.33 140.46 261.33 140.46 260.63 139.88 Z" />
<path fill="#ffffff" opacity="1.00" d=" M 220.18 98.30 C 221.54 96.13 223.30 94.26 225.31 92.68 C 225.58 93.41 226.11 94.85 226.38 95.58 C 225.98 96.10 225.58 96.62 225.19 97.15 C 225.43 97.68 225.90 98.76 226.14 99.30 C 224.32 98.20 222.22 98.25 220.18 98.30 Z" />
<path fill="#ffffff" opacity="1.00" d=" M 228.18 101.31 C 228.36 100.06 228.58 98.83 228.82 97.60 C 231.96 97.84 234.71 99.99 237.94 99.56 C 240.80 99.56 244.88 99.50 245.92 102.83 C 245.31 104.39 244.77 105.98 244.21 107.57 L 245.56 109.15 C 243.50 109.17 241.52 108.75 239.63 107.90 C 240.18 108.67 241.27 110.23 241.82 111.00 L 240.09 110.09 C 240.05 110.85 239.98 112.35 239.94 113.10 L 238.98 111.54 C 238.31 112.35 237.71 113.22 237.10 114.08 C 236.89 114.18 236.48 114.38 236.27 114.48 C 235.16 113.91 233.94 114.13 233.08 115.01 C 233.18 116.89 233.74 118.64 234.77 120.25 C 232.74 121.47 230.64 122.58 228.60 123.79 C 228.50 122.60 228.41 121.41 228.25 120.23 C 228.22 117.18 230.81 114.09 229.04 111.22 C 228.12 112.65 227.25 114.11 226.47 115.61 C 225.32 117.27 223.41 118.64 223.37 120.84 L 222.44 120.53 C 222.33 121.04 222.13 122.07 222.03 122.58 C 222.85 122.53 224.48 122.42 225.29 122.36 C 223.21 123.89 221.88 125.87 222.60 128.52 L 221.17 128.70 C 221.85 129.56 222.53 130.41 223.21 131.27 C 223.00 128.79 223.58 126.43 224.83 124.30 L 226.71 124.51 C 226.28 126.69 225.76 128.86 225.35 131.05 C 223.79 131.74 223.42 133.20 223.45 134.77 C 221.32 137.51 219.28 140.37 216.63 142.65 C 217.79 139.31 221.85 137.46 222.28 134.03 C 220.57 134.29 219.48 135.89 218.10 136.75 C 217.34 135.91 216.62 135.04 215.82 134.24 C 214.38 134.69 213.10 135.54 211.74 136.17 C 213.73 134.50 214.99 132.34 214.83 129.66 C 212.85 130.14 212.66 132.17 212.37 133.83 L 211.24 133.28 C 211.41 133.65 211.76 134.39 211.93 134.76 C 210.72 135.76 209.51 136.76 208.29 137.75 C 207.93 135.89 206.73 132.99 209.20 132.09 C 210.29 128.33 212.11 124.73 214.93 121.97 C 215.78 124.89 212.59 126.94 212.15 129.72 C 216.28 129.39 215.98 124.14 218.27 121.61 C 220.48 121.94 221.17 119.57 221.98 118.12 C 221.21 117.57 220.44 117.04 219.67 116.52 L 219.30 118.24 L 218.80 116.45 L 220.51 116.27 C 219.75 115.18 219.11 113.97 219.57 112.55 C 216.39 109.02 211.52 111.73 207.57 109.98 C 207.65 109.21 207.82 107.67 207.90 106.91 C 206.97 107.53 206.01 108.11 205.04 108.66 C 203.10 106.25 201.36 103.68 199.68 101.08 C 202.40 103.08 205.52 104.55 208.72 105.58 L 208.35 107.30 C 208.89 106.80 209.99 105.80 210.54 105.29 C 211.04 105.86 212.05 107.00 212.55 107.56 L 212.69 105.46 C 212.98 105.47 213.56 105.50 213.86 105.52 C 213.52 107.11 212.68 108.55 212.31 110.12 C 214.07 109.42 214.88 107.45 216.36 106.34 C 218.19 106.69 219.97 107.28 221.80 107.70 C 221.56 108.05 221.08 108.77 220.84 109.13 C 220.10 108.46 219.34 107.81 218.59 107.16 C 218.12 107.80 217.18 109.09 216.72 109.74 C 218.47 110.14 224.61 111.95 220.35 113.88 C 221.07 114.72 221.79 115.56 222.49 116.43 C 223.97 114.68 225.56 113.03 227.22 111.44 C 226.81 110.98 226.00 110.08 225.59 109.62 C 228.01 110.51 230.26 111.77 232.51 113.02 C 233.70 111.97 235.01 112.05 236.46 113.24 L 235.18 111.44 C 236.65 110.71 238.12 109.95 239.60 109.22 C 236.91 108.76 235.35 106.16 232.81 105.37 C 230.05 104.47 227.39 103.35 224.76 102.16 C 225.90 101.88 227.04 101.62 228.18 101.31 M 230.51 102.23 L 232.03 103.89 C 235.25 104.65 238.03 106.93 241.22 107.38 C 238.87 104.20 234.25 103.08 230.51 102.23 Z" />
<path fill="#ffffff" opacity="1.00" d=" M 256.31 103.78 C 257.87 104.76 259.35 105.87 260.88 106.92 C 260.61 107.42 260.07 108.42 259.80 108.92 L 262.29 108.27 L 261.22 109.99 C 260.63 110.24 259.45 110.75 258.85 111.00 C 259.76 111.45 261.57 112.35 262.48 112.80 C 262.04 113.40 261.60 114.00 261.17 114.60 C 259.98 113.36 258.54 112.56 256.84 112.19 C 257.68 111.41 258.52 110.63 259.37 109.85 C 258.79 108.73 258.22 107.61 257.66 106.49 C 257.19 105.59 256.74 104.69 256.31 103.78 Z" />
<path fill="#ffffff" opacity="1.00" d=" M 229.09 106.11 C 231.16 105.87 235.70 107.59 234.02 109.99 C 231.91 109.40 230.59 107.53 229.09 106.11 Z" />
<path fill="#ffffff" opacity="1.00" d=" M 308.94 107.18 C 309.52 107.82 309.52 107.82 308.94 107.18 Z" />
<path fill="#ffffff" opacity="1.00" d=" M 275.41 108.68 C 279.76 109.11 284.85 106.79 288.39 110.35 C 287.37 110.38 285.33 110.44 284.30 110.47 C 282.88 112.32 281.27 114.04 279.25 115.25 C 279.29 114.68 279.38 113.56 279.42 112.99 C 278.90 112.45 277.87 111.36 277.35 110.82 C 279.41 110.42 282.06 111.10 283.42 109.02 C 280.66 109.57 277.95 110.76 275.10 109.95 C 275.18 109.63 275.33 109.00 275.41 108.68 Z" />
<path fill="#ffffff" opacity="1.00" d=" M 262.09 110.10 C 263.40 109.93 263.94 110.56 263.72 111.99 C 262.32 112.20 261.78 111.57 262.09 110.10 Z" />
<path fill="#ffffff" opacity="1.00" d=" M 177.87 112.91 C 178.44 113.31 179.58 114.12 180.15 114.53 C 180.56 114.04 180.97 113.55 181.39 113.06 C 183.58 114.08 185.63 115.36 187.19 117.24 C 186.58 117.93 185.99 118.63 185.41 119.34 C 185.89 120.68 186.34 122.03 186.77 123.39 C 185.28 122.07 184.02 120.52 182.91 118.88 C 182.74 117.51 182.57 116.14 182.40 114.78 C 181.42 115.02 180.45 115.27 179.48 115.53 C 178.92 114.66 178.37 113.79 177.87 112.91 M 184.80 117.33 C 185.02 117.70 185.02 117.70 184.80 117.33 Z" />
<path fill="#ffffff" opacity="1.00" d=" M 207.21 113.60 C 209.89 113.71 212.55 113.40 215.19 112.99 C 215.62 113.95 216.05 114.91 216.48 115.87 C 216.20 116.25 215.63 117.01 215.35 117.39 C 213.67 118.49 211.98 119.57 210.27 120.62 C 210.12 119.61 209.96 118.59 209.80 117.58 C 208.28 117.54 206.77 117.42 205.27 117.21 C 205.41 117.64 205.70 118.48 205.84 118.91 C 204.06 118.49 202.26 118.12 200.43 118.13 C 203.32 119.11 206.57 118.97 209.11 120.84 C 206.71 121.35 204.42 122.17 202.13 123.04 C 202.40 122.56 202.92 121.61 203.18 121.13 C 201.05 121.25 198.91 121.43 196.77 121.40 C 196.76 120.54 196.75 118.82 196.74 117.96 C 195.94 118.09 194.36 118.34 193.56 118.47 C 193.50 120.08 192.38 122.54 194.74 122.99 C 193.96 123.35 192.34 126.11 192.44 123.95 C 192.87 122.16 190.70 122.40 189.75 121.72 L 191.72 121.45 L 191.79 119.65 L 190.78 119.60 C 189.24 117.54 187.41 115.73 185.77 113.76 C 187.39 114.45 188.95 115.28 190.61 115.90 C 191.70 116.62 192.79 117.36 193.89 118.09 C 194.56 115.56 197.09 116.50 198.76 117.29 C 199.24 117.44 200.20 117.73 200.67 117.88 L 200.33 116.27 C 201.85 116.37 203.37 116.58 204.90 116.50 C 205.78 115.77 206.62 114.98 207.48 114.21 L 207.21 113.60 M 210.40 114.28 C 209.38 116.33 213.77 117.76 213.88 115.27 C 213.42 113.93 211.51 113.87 210.40 114.28 Z" />
<path fill="#ffffff" opacity="1.00" d=" M 246.70 117.08 C 248.24 116.42 249.94 115.49 251.69 115.78 C 252.26 118.21 248.09 118.33 246.70 117.08 Z" />
<path fill="#ffffff" opacity="1.00" d=" M 234.96 121.31 C 236.37 119.06 238.92 118.24 241.20 117.22 C 242.50 117.79 243.80 118.38 245.08 119.01 C 244.08 120.99 245.74 122.03 247.08 123.13 C 245.64 122.85 244.21 122.48 242.86 121.92 C 243.10 121.44 243.59 120.48 243.83 119.99 C 240.54 120.02 238.08 121.90 235.37 123.42 C 235.77 123.68 236.56 124.20 236.96 124.46 C 236.33 125.05 235.69 125.65 235.06 126.25 C 234.00 126.69 232.91 127.12 231.88 127.61 C 231.45 127.03 230.60 125.88 230.18 125.30 C 231.17 124.08 232.18 122.88 233.18 121.66 C 233.62 121.57 234.52 121.40 234.96 121.31 Z" />
<path fill="#ffffff" opacity="1.00" d=" M 202.81 125.85 C 204.70 125.22 206.36 124.11 208.07 123.10 C 206.74 124.72 205.27 126.24 203.99 127.89 C 205.09 127.50 207.30 126.73 208.40 126.34 C 205.76 129.26 202.41 131.38 199.48 133.99 C 199.36 132.88 198.96 131.89 198.26 131.02 C 199.64 129.91 201.07 128.87 202.60 127.98 C 202.66 127.45 202.76 126.39 202.81 125.85 Z" />
<path fill="#ffffff" opacity="1.00" d=" M 250.61 122.21 C 251.25 122.83 251.89 123.46 252.51 124.10 C 253.27 123.90 254.03 123.91 254.79 124.13 C 254.64 125.53 252.89 125.83 252.06 126.69 C 250.82 125.48 249.87 124.03 250.61 122.21 Z" />
<path fill="#ffffff" opacity="1.00" d=" M 187.44 124.23 C 188.85 123.79 189.36 124.26 188.97 125.62 C 187.55 126.05 187.04 125.58 187.44 124.23 Z" />
<path fill="#ffffff" opacity="1.00" d=" M 242.10 123.96 C 243.06 122.81 246.12 123.88 244.87 125.46 C 243.90 126.50 241.02 125.53 242.10 123.96 Z" />
<path fill="#ffffff" opacity="1.00" d=" M 247.44 124.20 C 249.57 124.36 249.06 127.90 249.98 129.47 C 247.71 130.52 245.48 131.63 243.29 132.84 C 243.43 132.51 243.70 131.86 243.83 131.54 C 241.41 131.39 240.22 129.42 239.48 127.37 C 241.90 129.11 245.74 129.92 247.62 126.93 C 247.57 126.25 247.48 124.88 247.44 124.20 Z" />
<path fill="#ffffff" opacity="1.00" d=" M 232.31 128.69 C 232.77 126.75 235.60 127.10 236.97 126.15 L 236.49 127.83 L 234.23 130.13 C 235.16 130.03 237.03 129.84 237.96 129.74 C 237.50 130.76 237.06 131.85 235.97 132.37 C 235.78 131.87 235.40 130.88 235.20 130.38 C 233.93 130.67 231.99 130.60 232.31 128.69 Z" />
<path fill="#ffffff" opacity="1.00" d=" M 255.51 126.49 C 256.15 126.46 257.43 126.39 258.07 126.36 C 258.73 127.77 259.46 129.15 260.25 130.50 C 257.51 131.07 254.92 132.45 252.17 132.82 C 250.05 129.35 257.23 130.08 255.51 126.49 Z" />
<path fill="#ffffff" opacity="1.00" d=" M 223.21 138.57 C 224.87 135.64 227.28 133.24 229.76 131.01 C 229.64 131.54 229.42 132.62 229.30 133.16 C 227.03 135.17 227.82 138.95 224.86 140.41 C 225.35 139.26 226.34 136.95 226.83 135.79 L 223.21 138.57 Z" />
<path fill="#ffffff" opacity="1.00" d=" M 201.86 133.32 C 202.35 133.10 203.32 132.67 203.81 132.46 C 203.98 133.86 203.38 134.37 202.02 134.00 L 201.86 133.32 Z" />
<path fill="#ffffff" opacity="1.00" d=" M 237.33 132.83 C 238.12 133.75 238.93 134.68 239.72 135.62 C 240.01 135.61 240.60 135.60 240.89 135.59 L 241.04 136.51 C 242.96 136.38 244.65 136.98 246.11 138.28 L 243.64 139.63 C 242.94 137.68 241.32 138.84 240.16 139.58 L 240.70 136.75 L 239.28 138.23 C 238.65 137.35 238.00 136.47 237.34 135.61 C 237.34 134.92 237.33 133.52 237.33 132.83 Z" />
<path fill="#ffffff" opacity="1.00" d=" M 201.23 133.95 L 202.02 134.00 C 201.70 134.76 201.07 136.28 200.76 137.04 C 201.66 136.49 203.48 135.39 204.39 134.83 C 203.62 136.71 202.18 138.50 202.58 140.65 C 201.06 140.02 199.80 141.08 198.48 141.66 C 198.52 140.39 198.66 139.13 198.79 137.87 C 199.85 136.73 201.00 135.57 201.23 133.95 Z" />
<path fill="#ffffff" opacity="1.00" d=" M 214.77 136.35 C 216.09 136.56 217.41 136.75 218.74 136.93 C 217.38 138.52 216.38 140.90 214.06 141.25 C 214.79 140.06 215.57 138.90 216.30 137.71 C 214.25 136.61 213.32 139.37 211.80 140.15 C 212.67 138.80 213.72 137.57 214.77 136.35 Z" />
<path fill="#ffffff" opacity="1.00" d=" M 207.20 137.24 C 207.90 137.87 207.90 137.87 207.20 137.24 Z" />
<path fill="#ffffff" opacity="1.00" d=" M 204.68 143.07 C 205.75 140.07 208.84 138.50 211.25 136.72 C 209.64 139.34 207.48 141.71 204.68 143.07 Z" />
<path fill="#ffffff" opacity="1.00" d=" M 229.46 138.30 C 231.89 137.47 230.02 142.42 228.30 141.53 C 227.61 140.42 228.55 138.97 229.46 138.30 Z" />
<path fill="#ffffff" opacity="1.00" d=" M 235.45 143.63 C 235.92 142.52 236.40 141.40 236.88 140.30 C 237.84 141.17 238.81 142.03 239.74 142.95 C 239.14 143.73 237.95 145.27 237.36 146.05 L 237.23 143.82 C 236.78 143.77 235.89 143.68 235.45 143.63 Z" />
<path fill="#ffffff" opacity="1.00" d=" M 251.38 144.15 C 251.74 144.86 251.74 144.86 251.38 144.15 Z" />
<path fill="#ffffff" opacity="1.00" d=" M 237.23 148.11 C 238.35 146.58 239.39 144.84 241.25 144.11 C 241.30 144.63 241.40 145.69 241.45 146.22 C 240.49 147.83 239.58 149.48 238.65 151.11 C 238.18 150.10 237.71 149.10 237.23 148.11 Z" />
<path fill="#ffffff" opacity="1.00" d=" M 242.21 147.28 C 242.79 147.86 242.79 147.86 242.21 147.28 Z" />
<path fill="#ffffff" opacity="1.00" d=" M 280.70 150.14 C 281.23 148.75 282.79 149.93 283.23 150.75 C 284.01 151.32 284.46 152.03 284.57 152.86 C 283.03 153.18 280.88 151.72 280.70 150.14 Z" />
<path fill="#ffffff" opacity="1.00" d=" M 217.27 149.99 C 220.31 148.70 217.01 153.37 217.27 149.99 Z" />
<path fill="#ffffff" opacity="1.00" d=" M 279.33 152.93 C 279.33 152.42 279.34 151.38 279.34 150.87 C 281.52 150.54 283.05 155.21 280.01 153.23 C 279.84 153.16 279.50 153.01 279.33 152.93 Z" />
<path fill="#ffffff" opacity="1.00" d=" M 276.22 152.11 C 277.31 152.08 278.35 152.35 279.33 152.93 C 279.50 153.01 279.84 153.16 280.01 153.23 C 280.57 153.64 281.69 154.45 282.25 154.86 C 281.19 156.81 279.24 155.94 278.14 154.89 L 277.57 154.37 L 276.77 154.02 C 276.64 153.54 276.36 152.59 276.22 152.11 Z" />
<path fill="#ffffff" opacity="1.00" d=" M 257.94 152.85 C 259.56 152.25 260.10 152.78 259.55 154.45 C 257.91 155.02 257.37 154.49 257.94 152.85 Z" />
<path fill="#ffffff" opacity="1.00" d=" M 254.75 159.87 C 257.96 158.97 260.26 156.42 263.08 154.78 C 261.57 156.64 260.12 158.55 258.50 160.31 C 255.36 160.81 252.97 162.96 250.60 164.90 C 250.03 164.44 249.46 163.99 248.90 163.54 L 247.95 165.44 C 247.04 162.56 250.19 163.45 251.85 162.74 C 253.21 162.27 253.78 160.81 254.75 159.87 Z" />
<path fill="#ffffff" opacity="1.00" d=" M 274.63 157.62 C 274.64 156.38 274.41 155.02 275.39 154.04 C 275.85 155.01 276.76 156.94 277.22 157.91 L 277.45 157.86 C 278.58 157.46 279.67 156.97 280.79 156.55 C 280.62 158.33 279.99 159.96 278.90 161.46 C 277.06 161.30 275.21 161.29 273.37 161.21 C 273.78 160.01 274.20 158.81 274.63 157.62 Z" />
<path fill="#ffffff" opacity="1.00" d=" M 307.10 155.36 C 310.61 155.47 305.43 158.24 307.10 155.36 Z" />
<path fill="#ffffff" opacity="1.00" d=" M 294.21 158.59 C 294.10 156.62 295.54 156.34 297.13 156.42 C 297.89 157.06 298.68 157.70 299.48 158.31 C 299.53 158.90 299.64 160.09 299.69 160.68 C 297.38 160.45 295.03 160.34 292.74 160.78 C 290.11 162.71 286.68 163.58 284.83 166.44 C 284.37 166.56 283.46 166.80 283.00 166.92 C 283.24 165.14 283.28 163.35 283.57 161.58 C 283.95 160.02 285.77 159.88 286.97 159.26 C 288.54 159.67 290.11 160.05 291.70 160.42 C 291.74 159.88 291.82 158.82 291.85 158.29 C 292.44 158.36 293.62 158.51 294.21 158.59 M 295.27 157.93 C 295.60 161.24 298.12 156.17 295.27 157.93 Z" />
<path fill="#ffffff" opacity="1.00" d=" M 264.27 157.15 C 265.84 157.44 267.37 157.91 268.93 158.30 C 272.22 159.90 270.41 164.99 274.31 165.91 C 273.07 167.11 271.72 168.19 270.32 169.19 C 270.33 168.53 270.34 167.22 270.34 166.56 C 269.65 167.22 268.25 168.54 267.55 169.20 C 266.95 166.72 268.00 164.43 269.07 162.27 C 268.39 162.40 267.04 162.66 266.36 162.79 C 266.40 161.98 266.47 160.37 266.50 159.57 C 266.01 161.46 264.83 162.60 262.99 162.98 C 263.58 162.14 264.77 160.46 265.36 159.62 C 264.54 159.80 262.90 160.15 262.08 160.33 C 262.63 159.53 263.72 157.94 264.27 157.15 Z" />
<path fill="#ffffff" opacity="1.00" d=" M 250.92 158.27 C 254.39 158.16 249.53 161.23 250.92 158.27 Z" />
<path fill="#ffffff" opacity="1.00" d=" M 214.42 164.16 C 216.01 163.13 217.60 162.07 219.23 161.09 C 218.92 161.51 218.32 162.36 218.02 162.79 C 216.22 164.49 214.24 166.05 211.98 167.09 C 212.64 166.52 213.97 165.37 214.64 164.79 C 213.80 164.31 212.95 163.83 212.11 163.37 C 212.83 162.86 214.29 161.85 215.01 161.34 C 214.86 162.04 214.57 163.46 214.42 164.16 Z" />
<path fill="#ffffff" opacity="1.00" d=" M 218.02 162.79 C 219.37 162.64 220.71 162.44 222.05 162.19 C 220.20 164.41 218.46 166.73 216.55 168.91 C 215.37 166.26 217.69 164.84 219.38 163.35 L 218.02 162.79 Z" />
<path fill="#ffffff" opacity="1.00" d=" M 272.88 161.46 C 275.94 161.64 278.51 163.30 279.63 166.18 C 276.45 166.63 274.78 163.37 272.88 161.46 Z" />
<path fill="#ffffff" opacity="1.00" d=" M 287.90 163.85 C 290.77 163.01 293.58 161.97 296.52 161.35 L 296.51 163.58 C 295.99 163.54 294.94 163.47 294.42 163.43 C 294.39 164.04 294.34 165.26 294.32 165.86 C 295.37 165.23 296.43 164.61 297.50 163.99 L 297.52 165.55 C 298.53 165.57 299.54 165.59 300.56 165.62 L 300.44 164.33 C 302.28 164.92 304.16 165.46 306.07 165.84 C 306.60 166.41 307.68 167.56 308.21 168.13 C 308.57 167.32 308.65 166.50 308.45 165.66 L 308.52 165.05 C 310.03 163.76 309.68 167.82 309.86 168.81 C 310.85 168.87 312.83 168.99 313.82 169.04 L 313.79 170.42 C 312.12 170.51 310.47 170.59 308.82 170.66 C 308.76 170.19 308.65 169.25 308.59 168.78 C 306.26 168.32 303.93 167.80 301.61 167.31 C 302.33 170.15 299.19 171.51 297.77 168.85 L 299.79 168.75 L 300.06 168.07 C 296.97 168.45 293.82 168.27 290.80 169.09 C 291.82 169.10 293.88 169.12 294.91 169.13 L 294.09 170.41 C 295.39 170.30 296.37 170.81 297.04 171.95 L 296.30 170.10 C 300.65 170.50 305.28 171.52 308.16 175.11 C 307.30 176.24 306.76 177.70 305.31 178.22 C 302.38 179.23 299.28 178.07 296.27 178.34 C 296.28 178.62 296.31 179.18 296.33 179.46 C 299.93 178.95 303.07 181.79 306.82 180.70 C 306.73 181.17 306.56 182.12 306.47 182.59 C 307.43 182.63 309.33 182.71 310.28 182.75 C 309.26 184.91 306.50 184.41 304.89 183.34 C 303.14 183.35 301.39 183.36 299.64 183.48 C 300.83 183.90 302.04 184.29 303.27 184.63 C 302.28 185.64 301.29 186.63 300.30 187.63 C 297.86 186.53 295.09 187.27 292.69 186.07 C 292.33 187.20 291.89 188.28 291.37 189.33 C 289.22 189.99 286.95 189.83 284.74 189.99 C 284.45 189.01 284.17 188.03 283.89 187.05 C 286.15 187.37 288.65 189.33 290.81 187.82 C 290.83 187.55 290.85 187.02 290.86 186.75 C 287.99 183.90 285.20 180.97 282.40 178.05 C 281.69 177.30 281.14 176.45 280.75 175.50 C 279.52 175.20 278.33 174.73 277.29 174.02 C 274.83 173.53 272.45 172.76 270.21 171.65 L 269.79 171.83 C 268.60 171.64 267.64 170.99 266.92 169.88 C 269.05 169.64 271.21 169.55 273.36 169.40 C 273.77 170.33 274.19 171.24 274.64 172.16 C 274.43 171.44 274.03 170.00 273.83 169.29 L 276.99 169.67 C 276.79 170.26 276.41 171.46 276.21 172.06 C 277.28 171.38 278.35 170.70 279.42 170.02 C 279.37 170.60 279.28 171.76 279.24 172.35 C 280.63 172.20 281.49 172.79 281.81 174.10 C 284.27 175.34 290.21 174.55 288.94 178.76 C 288.55 178.63 287.76 178.36 287.37 178.22 C 287.57 178.63 287.95 179.45 288.14 179.85 L 286.32 179.49 C 288.75 179.52 290.45 181.28 292.05 182.89 C 292.77 182.74 294.22 182.43 294.94 182.28 C 294.74 183.10 294.34 184.75 294.14 185.58 C 295.82 185.00 297.53 184.47 299.23 183.94 C 296.62 182.94 294.87 180.78 293.65 178.35 C 292.37 177.20 291.43 175.75 290.72 174.20 C 291.49 174.59 293.04 175.37 293.82 175.76 C 293.65 175.00 293.49 174.25 293.34 173.50 C 292.74 173.50 291.56 173.51 290.97 173.52 C 290.30 172.66 289.62 171.81 288.94 170.97 C 288.21 169.33 287.43 167.71 286.64 166.10 L 288.22 165.85 C 288.14 165.35 287.98 164.35 287.90 163.85 M 294.56 173.43 L 294.35 174.27 C 297.66 174.54 301.20 173.82 304.29 175.38 C 303.38 175.44 301.57 175.57 300.66 175.63 C 301.29 176.19 302.56 177.32 303.20 177.89 C 304.78 178.38 305.16 176.69 305.81 175.68 C 306.48 173.96 304.25 173.15 303.43 172.03 C 300.46 172.44 297.51 172.93 294.56 173.43 Z" />
<path fill="#ffffff" opacity="1.00" d=" M 308.73 162.79 C 310.26 162.44 311.80 162.11 313.35 161.81 C 314.61 163.51 314.36 165.81 315.67 167.46 C 316.64 168.44 316.30 169.85 316.37 171.08 C 315.84 170.73 314.79 170.03 314.26 169.68 L 314.90 167.82 C 314.17 167.60 312.73 167.16 312.00 166.94 C 312.72 165.89 313.45 164.85 314.18 163.81 C 312.33 163.61 310.49 163.38 308.73 162.79 Z" />
<path fill="#ffffff" opacity="1.00" d=" M 219.98 169.28 C 218.35 168.54 220.51 165.73 221.84 166.57 C 222.41 167.72 221.12 169.15 219.98 169.28 Z" />
<path fill="#ffffff" opacity="1.00" d=" M 284.03 167.71 C 285.50 168.00 285.94 169.21 286.17 170.54 C 287.13 171.94 288.08 173.36 289.00 174.80 C 286.44 174.55 283.82 173.08 285.14 170.17 C 284.86 169.55 284.30 168.33 284.03 167.71 Z" />
<path fill="#ffffff" opacity="1.00" d=" M 307.65 172.61 C 308.74 172.56 309.83 172.53 310.93 172.52 C 311.83 172.15 313.63 171.41 314.53 171.04 L 314.77 172.00 C 315.53 173.19 316.20 174.42 316.88 175.65 C 315.48 175.96 314.08 176.30 312.70 176.69 C 314.33 176.63 315.96 176.52 317.59 176.37 C 316.95 178.09 316.35 179.83 315.67 181.53 C 313.72 181.83 311.87 180.10 309.90 179.99 C 310.65 178.96 311.40 177.94 312.17 176.93 C 311.33 177.01 309.64 177.16 308.80 177.24 C 310.08 174.77 312.87 175.02 315.22 175.04 L 315.17 174.18 C 312.58 174.11 310.07 173.46 307.65 172.61 Z" />
<path fill="#ffffff" opacity="1.00" d=" M 270.13 173.08 C 272.23 172.87 272.67 175.36 273.50 176.73 C 273.80 176.59 274.42 176.32 274.72 176.18 C 273.23 177.28 274.79 178.28 275.49 179.30 C 274.73 179.74 273.94 180.12 273.13 180.45 C 271.03 178.67 269.52 176.31 267.65 174.32 L 269.30 174.54 C 269.51 174.17 269.93 173.44 270.13 173.08 Z" />
<path fill="#ffffff" opacity="1.00" d=" M 263.92 178.99 C 264.78 178.69 265.65 178.42 266.53 178.16 L 266.00 179.69 C 268.76 178.49 270.26 181.17 271.82 182.86 C 268.82 182.67 265.69 181.57 263.92 178.99 Z" />
<path fill="#ffffff" opacity="1.00" d=" M 311.18 181.14 C 314.36 179.65 311.35 184.34 311.18 181.14 Z" />
<path fill="#ffffff" opacity="1.00" d=" M 280.20 183.87 C 281.39 183.27 282.58 182.65 283.78 182.05 C 283.17 182.66 281.94 183.88 281.32 184.49 C 283.26 185.49 284.79 184.32 286.28 183.20 C 285.40 185.05 283.53 185.91 281.84 186.88 C 281.29 185.87 280.74 184.87 280.20 183.87 Z" />
<path fill="#ffffff" opacity="1.00" d=" M 308.92 185.66 C 310.48 183.27 313.42 182.84 315.98 182.42 C 315.26 185.41 311.16 184.75 308.92 185.66 Z" />
<path fill="#ffffff" opacity="1.00" d=" M 273.14 185.17 C 275.11 186.57 277.29 188.10 277.56 190.76 C 275.43 189.50 274.15 187.35 273.14 185.17 Z" />
<path fill="#ffffff" opacity="1.00" d=" M 305.02 185.82 C 305.90 184.97 308.74 185.65 307.46 187.12 C 306.41 188.47 302.58 187.31 305.02 185.82 Z" />
<path fill="#ffffff" opacity="1.00" d=" M 234.19 192.90 C 234.84 190.61 234.90 187.02 238.00 186.79 C 236.84 188.90 235.54 190.92 234.19 192.90 Z" />
<path fill="#ffffff" opacity="1.00" d=" M 271.01 186.73 C 273.37 188.62 274.11 191.46 273.46 194.37 C 272.49 191.87 271.62 189.34 271.01 186.73 Z" />
<path fill="#ffffff" opacity="1.00" d=" M 275.24 191.17 C 275.87 191.47 277.12 192.06 277.75 192.36 C 277.98 193.67 278.23 194.98 278.48 196.30 C 278.07 196.28 277.26 196.24 276.85 196.22 C 276.83 197.04 276.80 198.67 276.78 199.49 C 275.77 198.57 274.77 197.66 273.78 196.75 C 273.43 198.23 273.27 199.76 273.43 201.27 C 271.09 202.07 271.05 205.24 269.50 206.98 L 268.55 205.01 C 267.55 206.33 266.58 207.66 265.61 208.99 C 265.13 208.04 264.65 207.09 264.16 206.14 C 263.35 207.70 262.52 209.32 261.09 210.40 C 262.31 208.39 263.21 205.91 265.22 204.55 C 266.41 204.58 267.60 204.60 268.80 204.50 C 269.77 203.13 270.59 201.52 272.21 200.80 C 272.69 199.06 273.18 197.33 273.71 195.60 C 274.31 195.53 275.50 195.38 276.09 195.31 C 275.81 193.92 275.53 192.54 275.24 191.17 Z" />
<path fill="#ffffff" opacity="1.00" d=" M 238.24 197.46 C 238.51 195.82 239.38 194.46 240.92 193.77 C 240.37 194.54 239.81 195.31 239.25 196.07 C 240.51 201.52 235.68 205.99 236.18 211.49 L 234.55 211.69 C 234.56 210.64 234.60 208.55 234.61 207.51 C 233.79 208.47 233.25 209.57 233.22 210.85 C 232.98 210.43 232.50 209.57 232.26 209.14 C 232.70 208.43 233.58 207.02 234.02 206.31 C 233.30 205.67 232.57 205.03 231.85 204.41 C 232.18 203.85 232.83 202.72 233.16 202.16 C 233.78 203.32 234.79 204.33 236.23 203.65 C 236.51 202.21 237.02 200.87 237.77 199.61 C 237.70 199.09 237.56 198.05 237.50 197.54 L 238.24 197.46 Z" />
<path fill="#ffffff" opacity="1.00" d=" M 238.58 214.39 C 236.77 210.48 238.26 206.25 240.32 202.79 C 239.72 206.64 239.76 210.65 238.58 214.39 Z" />
<path fill="#ffffff" opacity="1.00" d=" M 251.67 216.79 C 253.85 216.66 253.84 214.16 254.75 212.69 C 254.44 215.53 253.79 218.33 253.24 221.13 C 252.82 221.25 251.99 221.48 251.57 221.59 C 251.24 224.15 251.52 226.72 251.56 229.28 C 249.63 225.11 251.97 221.02 251.67 216.79 Z" />
<path fill="#ffffff" opacity="1.00" d=" M 234.23 214.05 C 234.89 214.60 234.89 214.60 234.23 214.05 Z" />
<path fill="#ffffff" opacity="1.00" d=" M 241.72 223.68 C 242.14 223.57 242.99 223.36 243.41 223.25 C 243.21 226.54 243.37 229.83 243.69 233.11 C 243.21 231.73 242.73 230.36 242.26 228.98 C 242.07 230.01 241.70 232.07 241.52 233.10 C 241.29 229.96 241.87 226.83 241.72 223.68 Z" />
<path fill="#ffffff" opacity="1.00" d=" M 247.75 224.39 C 247.92 224.31 248.26 224.16 248.43 224.09 C 248.65 224.84 249.09 226.34 249.30 227.09 C 249.11 227.79 248.73 229.18 248.54 229.88 C 249.75 231.02 250.57 232.41 251.00 234.05 C 248.67 233.92 248.12 231.62 247.42 229.84 C 247.64 228.02 248.05 226.22 247.75 224.39 Z" />
<path fill="#ffffff" opacity="1.00" d=" M 250.86 229.89 C 252.03 230.36 252.30 231.30 251.66 232.73 L 251.14 232.70 C 251.07 232.00 250.93 230.60 250.86 229.89 Z" />
</g>
</svg>
