<?xml version="1.0" encoding="UTF-8" ?>
<!DOCTYPE svg PUBLIC "-//W3C//DTD SVG 1.1//EN" "http://www.w3.org/Graphics/SVG/1.1/DTD/svg11.dtd">
<svg width="512pt" height="256pt" viewBox="0 0 512 256" version="1.1" xmlns="http://www.w3.org/2000/svg">
<g id="#ffffffff">
<path fill="#ffffff" opacity="1.00" d=" M 233.31 14.16 C 234.90 14.82 235.71 16.23 235.90 17.89 C 236.52 18.97 237.18 20.03 237.83 21.09 C 238.55 21.75 239.22 22.47 239.83 23.23 C 239.94 24.35 238.67 24.97 238.14 25.83 C 237.21 25.11 235.34 23.69 234.41 22.97 C 235.03 22.35 235.65 21.74 236.28 21.12 C 234.50 20.22 232.44 17.47 230.41 19.33 L 231.69 18.45 C 230.86 17.69 230.04 16.91 229.24 16.11 C 230.76 16.90 232.14 17.91 233.52 18.92 C 233.87 18.40 234.56 17.38 234.90 16.86 C 234.72 15.79 233.84 15.06 233.31 14.16 Z" />
<path fill="#ffffff" opacity="1.00" d=" M 240.90 17.61 C 243.49 20.32 245.53 23.61 248.97 25.41 C 248.33 23.98 247.63 22.57 247.10 21.09 C 252.24 25.54 255.92 32.03 262.37 34.71 C 262.00 33.61 261.63 32.50 261.26 31.40 C 264.92 33.38 267.80 36.55 271.64 38.23 C 270.73 38.78 269.83 39.31 268.91 39.82 C 269.89 40.52 271.86 41.92 272.85 42.61 L 272.01 38.49 L 274.16 40.79 C 274.07 40.46 273.90 39.80 273.82 39.47 C 278.67 39.08 281.20 44.29 285.75 45.02 C 285.30 43.78 284.83 42.55 284.35 41.32 C 286.87 43.50 288.79 46.28 291.42 48.34 C 293.11 49.71 294.87 51.08 296.05 52.95 C 297.00 53.77 298.67 54.34 298.38 55.92 C 298.00 58.46 294.74 59.70 295.45 62.54 C 295.33 65.37 301.06 66.37 298.64 69.57 C 301.18 70.86 301.36 75.14 305.04 74.59 C 303.42 72.20 300.57 70.52 300.17 67.47 C 299.28 65.36 296.23 64.49 296.14 62.08 C 296.70 60.59 298.14 61.20 298.59 62.38 C 299.32 63.54 300.61 64.05 301.78 64.65 C 300.17 63.11 297.64 61.55 298.55 58.91 C 299.09 57.25 301.02 58.84 302.12 58.79 C 302.04 62.01 306.04 62.16 307.52 64.43 C 306.57 65.77 305.28 69.06 308.41 67.12 C 309.18 68.42 309.96 69.72 310.85 70.94 C 309.78 68.47 308.43 66.15 307.21 63.76 C 306.27 61.71 303.87 60.98 302.97 58.88 C 301.85 58.31 300.74 57.69 299.56 57.25 C 300.00 55.02 298.02 53.77 296.71 52.40 C 296.17 51.17 295.58 49.95 295.02 48.73 C 296.37 48.79 297.58 49.35 298.24 50.59 C 300.23 53.57 302.84 56.04 305.29 58.64 C 305.29 57.90 305.28 56.42 305.28 55.68 C 307.39 58.04 307.88 61.58 310.56 63.42 C 313.02 65.09 312.33 68.62 313.80 70.97 C 314.24 70.57 315.14 69.77 315.58 69.37 C 317.52 72.62 315.25 77.50 318.78 79.74 C 319.22 82.53 319.42 85.36 319.83 88.16 C 318.81 88.85 317.79 89.53 316.81 90.26 C 317.58 89.99 319.13 89.44 319.90 89.17 C 319.67 92.22 322.29 94.58 322.12 97.66 C 321.41 97.92 319.98 98.44 319.27 98.69 C 320.24 100.37 320.41 102.28 320.55 104.17 C 321.35 102.60 320.79 99.66 323.08 99.43 C 322.90 100.41 322.56 102.36 322.39 103.34 C 323.23 104.34 324.07 105.35 324.94 106.33 C 325.22 107.98 325.53 109.75 324.15 111.01 C 323.53 110.69 322.29 110.04 321.68 109.71 C 321.42 112.25 321.13 114.93 322.66 117.17 C 322.61 116.62 322.52 115.51 322.47 114.95 C 322.78 114.36 323.39 113.18 323.70 112.58 C 326.33 113.39 324.72 116.23 324.97 118.10 C 323.16 120.55 321.12 118.78 319.71 116.98 C 319.65 118.03 319.54 120.11 319.48 121.15 C 318.67 120.39 317.87 119.62 317.08 118.85 C 317.27 117.55 317.48 116.26 317.72 114.98 C 317.21 115.49 316.20 116.50 315.70 117.01 C 314.39 115.25 315.96 113.05 316.68 111.39 C 317.27 112.19 318.46 113.79 319.05 114.59 C 319.06 113.78 319.09 112.16 319.10 111.35 C 319.63 111.48 320.69 111.73 321.22 111.86 C 320.96 110.02 319.80 109.28 318.03 109.60 C 317.13 109.95 315.35 110.66 314.45 111.01 C 314.72 110.44 315.26 109.29 315.53 108.71 C 315.05 108.71 314.08 108.71 313.60 108.71 C 313.62 109.27 313.65 110.39 313.67 110.95 C 309.18 110.28 308.92 105.58 307.09 102.31 C 307.64 102.32 308.76 102.32 309.32 102.32 C 309.61 103.65 310.04 104.96 310.64 106.19 C 310.54 105.16 310.35 103.10 310.26 102.07 L 312.81 102.08 C 313.29 103.23 311.95 106.28 313.76 106.61 C 315.29 105.31 314.49 102.88 314.96 101.11 C 314.36 101.31 313.14 101.71 312.54 101.91 C 312.33 101.48 311.92 100.61 311.72 100.18 L 311.25 99.74 L 310.79 99.43 C 309.54 99.75 308.27 99.71 307.00 99.59 C 305.94 96.94 304.93 93.99 302.42 92.33 C 303.43 95.23 305.46 97.65 306.21 100.66 C 305.03 99.46 304.03 98.13 303.20 96.68 C 302.83 96.40 302.09 95.83 301.72 95.55 C 303.77 100.82 307.81 104.96 310.15 110.12 C 310.39 111.35 310.35 112.86 311.72 113.41 C 311.99 114.30 312.26 115.20 312.54 116.09 C 312.50 114.52 312.47 112.96 312.45 111.39 C 313.30 111.33 315.01 111.20 315.87 111.14 C 315.20 113.62 314.07 116.23 315.59 118.65 L 317.02 118.18 C 316.82 119.12 316.42 121.01 316.22 121.96 L 317.09 119.84 C 318.34 121.35 319.08 123.07 318.79 125.07 C 319.00 124.60 319.42 123.66 319.63 123.19 L 321.37 123.37 C 321.08 124.68 321.21 125.93 321.77 127.10 C 321.77 125.53 321.60 123.98 321.50 122.42 L 320.16 122.93 C 320.20 122.02 320.27 120.19 320.30 119.28 C 321.19 119.58 322.95 120.17 323.84 120.47 C 323.59 121.09 323.10 122.31 322.85 122.93 C 323.69 122.28 324.52 121.62 325.37 120.99 C 325.19 122.94 325.08 124.90 325.16 126.87 C 324.68 126.76 323.70 126.55 323.21 126.45 C 323.21 126.71 323.21 127.23 323.21 127.49 L 324.99 127.43 L 324.18 129.40 C 323.73 129.42 322.83 129.46 322.37 129.49 C 323.00 130.54 323.61 131.61 324.20 132.70 C 321.65 131.42 319.98 133.53 318.25 135.03 C 317.37 133.16 316.54 131.27 315.67 129.39 C 314.73 129.40 313.78 129.40 312.84 129.41 C 315.34 129.40 317.83 131.84 316.22 134.35 C 313.14 132.56 309.35 134.88 306.44 133.08 C 308.10 131.97 309.83 130.89 311.79 130.40 C 311.36 129.44 310.95 128.48 310.51 127.53 C 305.57 125.10 302.26 119.93 296.95 117.98 C 298.76 119.67 300.92 120.98 302.46 122.97 C 299.26 122.64 296.15 121.85 293.08 120.94 C 293.90 120.33 294.73 119.73 295.58 119.14 C 293.82 118.23 292.76 116.55 291.55 115.07 C 291.19 115.42 290.49 116.13 290.14 116.49 C 289.35 116.17 288.56 115.84 287.78 115.52 C 287.28 115.58 286.28 115.70 285.78 115.76 C 285.62 114.61 285.44 113.45 285.25 112.31 C 286.03 111.68 286.81 111.06 287.59 110.43 C 287.17 108.88 286.76 107.33 286.35 105.78 C 284.17 105.88 283.10 103.86 281.50 102.80 C 279.07 102.16 276.54 101.90 274.10 101.28 C 272.77 99.02 271.09 96.98 269.13 95.23 C 270.61 97.76 273.78 99.64 273.72 102.77 C 268.48 100.92 266.95 95.14 263.22 91.57 C 261.22 92.45 260.88 90.58 260.31 89.20 C 261.28 87.85 262.32 86.53 264.04 87.77 C 263.44 87.00 262.25 85.46 261.65 84.69 C 267.31 85.97 267.24 93.88 273.05 95.01 C 272.32 93.26 270.41 92.64 268.90 91.82 C 270.54 90.96 272.23 89.98 274.15 89.98 C 274.53 92.27 276.84 93.07 278.79 93.52 C 279.89 95.21 280.90 96.95 281.95 98.68 C 278.30 99.42 276.62 95.08 273.60 93.93 C 274.92 95.61 275.88 98.31 278.31 98.54 C 278.51 99.01 278.91 99.97 279.11 100.44 C 280.45 100.40 281.85 100.30 283.13 99.83 C 285.60 100.56 288.06 101.57 289.62 103.75 C 289.03 104.17 287.84 105.00 287.25 105.42 L 287.22 106.43 C 289.76 106.25 290.73 108.94 292.74 109.87 C 292.97 109.50 293.42 108.77 293.65 108.40 C 295.73 111.28 296.40 108.84 296.85 107.11 C 296.34 106.92 295.33 106.56 294.82 106.37 C 294.72 105.49 294.52 103.74 294.41 102.87 C 296.55 104.49 298.67 106.17 300.59 108.05 C 301.25 107.65 301.89 107.24 302.54 106.82 C 304.03 109.47 306.49 111.12 309.09 112.53 C 308.76 112.18 308.09 111.48 307.76 111.13 C 307.80 109.79 307.10 108.73 306.24 107.80 C 304.31 103.62 300.86 100.61 298.05 97.09 C 298.44 96.48 300.36 95.69 299.20 94.90 C 298.37 94.18 297.48 93.56 296.52 93.04 C 296.59 92.57 296.74 91.62 296.81 91.14 L 295.82 91.88 C 294.39 91.36 293.05 90.49 291.81 89.28 C 292.40 91.16 294.02 92.36 295.21 93.83 C 297.46 96.45 299.10 99.53 301.38 102.13 C 300.89 102.57 300.41 103.00 299.93 103.44 C 299.15 100.39 296.13 98.06 293.59 96.40 C 294.46 98.27 296.97 99.82 296.36 102.25 C 295.76 101.92 294.57 101.28 293.97 100.95 L 294.46 102.86 C 293.61 102.79 291.92 102.64 291.08 102.56 C 289.84 101.10 285.63 100.40 288.07 98.03 C 287.00 97.37 285.63 97.12 284.81 96.13 C 284.57 93.11 281.15 91.94 279.03 90.27 C 280.24 92.03 282.82 93.03 283.19 95.24 C 280.68 96.58 279.87 93.41 277.91 92.67 C 276.49 92.16 275.61 91.02 275.11 89.65 C 274.74 89.63 273.99 89.60 273.61 89.59 C 273.42 88.19 273.08 86.83 272.60 85.50 C 273.47 85.50 275.21 85.50 276.08 85.49 C 274.51 84.97 272.92 84.19 271.22 84.56 C 271.16 83.51 271.48 82.46 271.34 81.42 C 269.59 80.47 268.33 78.56 266.31 78.20 C 267.42 79.26 268.29 80.47 268.94 81.86 C 266.79 80.57 264.88 78.94 262.68 77.74 C 262.62 77.24 262.49 76.24 262.42 75.73 C 259.59 74.72 257.12 70.81 253.97 72.24 L 254.74 70.49 C 251.69 70.54 249.84 67.53 246.95 66.98 C 244.74 66.44 242.70 65.41 240.74 64.30 L 242.05 63.70 C 243.61 63.69 245.17 63.80 246.72 63.96 C 248.51 64.97 250.35 65.91 252.05 67.08 C 253.84 67.95 255.61 68.84 257.24 70.00 C 258.40 70.46 259.59 70.85 260.80 71.16 L 258.22 69.85 C 258.80 69.39 259.39 68.93 259.98 68.47 C 262.27 69.96 264.57 71.44 266.79 73.04 C 267.01 72.67 267.46 71.94 267.69 71.58 C 270.60 73.87 273.62 76.04 276.33 78.59 C 276.88 77.81 277.39 77.01 277.94 76.23 C 275.84 74.18 273.63 72.22 271.79 69.91 C 270.40 67.94 268.56 66.20 265.97 66.31 C 264.54 65.41 263.13 64.49 261.72 63.58 C 261.68 63.06 261.61 62.01 261.57 61.49 L 263.17 61.60 C 262.02 61.36 259.52 57.97 259.18 59.66 L 259.24 60.47 L 259.36 61.07 C 258.15 60.76 256.94 60.47 255.72 60.19 C 259.16 63.63 263.51 66.11 268.07 67.76 C 269.58 67.97 270.03 69.35 270.47 70.60 C 271.23 71.58 271.97 72.57 272.70 73.57 C 269.20 72.21 266.61 69.10 262.83 68.27 C 257.52 65.06 251.90 62.41 246.15 60.12 C 245.10 59.47 242.98 58.81 243.28 57.27 C 244.56 56.82 245.91 57.63 247.21 57.66 C 244.75 56.33 242.17 55.24 239.58 54.22 C 239.92 55.08 240.93 55.83 240.67 56.83 C 239.42 57.74 237.99 56.51 236.77 56.17 C 239.25 57.87 241.65 59.89 244.82 60.00 C 246.13 60.63 247.45 61.21 248.80 61.76 L 248.61 62.74 C 249.10 62.67 250.09 62.54 250.58 62.48 C 253.41 64.62 256.61 66.32 258.96 69.06 C 254.23 69.07 251.24 64.70 246.78 63.75 C 242.87 62.99 239.36 61.07 235.71 59.59 C 233.74 58.77 233.84 56.03 232.03 55.01 C 230.67 54.08 229.17 53.40 227.68 52.73 C 228.82 55.24 231.10 56.77 233.26 58.31 L 232.59 59.73 C 229.11 56.65 225.46 53.79 221.43 51.47 C 219.64 50.57 219.01 48.62 218.17 46.95 L 218.65 48.96 C 216.93 48.45 215.02 48.46 213.54 47.36 C 214.44 47.40 216.26 47.48 217.16 47.52 C 215.13 44.56 210.87 43.47 209.75 39.78 C 213.19 40.95 215.56 43.90 218.82 45.41 C 221.92 46.83 223.19 51.00 226.64 51.59 C 225.14 50.50 224.08 48.69 225.59 47.10 C 229.37 49.73 232.97 53.28 237.55 54.33 L 235.48 52.90 C 236.59 51.84 237.94 51.29 239.49 51.35 C 239.51 50.93 239.54 50.09 239.56 49.67 C 239.07 49.58 238.11 49.39 237.62 49.30 C 237.77 51.61 236.32 50.66 235.10 50.01 C 233.81 49.11 232.48 48.27 231.12 47.49 L 232.44 50.46 C 230.07 48.88 227.89 47.05 225.72 45.22 C 225.19 46.16 224.66 47.10 224.12 48.04 C 221.24 44.18 215.86 42.67 213.92 38.11 C 211.35 37.67 208.71 37.53 206.24 36.63 C 206.39 35.96 206.69 34.62 206.84 33.94 C 205.19 33.44 203.58 32.83 201.95 32.28 C 202.60 31.19 203.22 30.09 203.80 28.97 C 205.13 29.41 206.47 29.82 207.82 30.22 C 207.34 29.59 206.37 28.32 205.89 27.69 C 206.88 28.32 207.88 28.98 208.73 29.80 C 208.67 30.88 208.19 31.56 207.28 31.84 C 206.44 31.70 204.27 30.15 204.14 31.71 C 205.05 33.06 206.82 33.17 208.16 33.90 C 211.27 35.49 214.70 36.88 216.45 40.14 L 216.71 38.06 C 219.25 39.95 220.91 43.13 224.03 44.15 C 223.08 42.21 221.27 41.00 219.59 39.75 L 219.88 39.00 C 222.09 40.61 224.50 41.87 226.88 43.19 C 226.58 42.79 225.96 41.98 225.65 41.57 C 227.47 40.91 225.82 37.69 224.36 40.01 C 222.58 38.70 220.63 37.52 219.40 35.63 C 217.99 35.01 216.64 33.97 215.03 34.05 C 215.46 34.71 216.33 36.03 216.77 36.69 C 214.90 36.05 213.03 35.40 211.17 34.77 C 211.39 34.56 211.83 34.16 212.05 33.96 C 212.44 33.85 213.21 33.63 213.60 33.52 L 212.92 32.88 L 210.98 32.03 L 212.33 31.75 C 212.86 31.72 213.92 31.66 214.45 31.64 C 214.42 31.25 214.35 30.46 214.31 30.07 C 214.68 30.08 215.43 30.10 215.80 30.11 C 218.42 32.97 222.25 34.71 225.91 35.64 C 226.63 35.87 228.07 36.32 228.79 36.55 L 228.41 38.32 L 229.20 37.78 C 229.25 37.37 229.36 36.53 229.41 36.12 C 229.70 36.18 230.28 36.29 230.57 36.35 L 228.39 35.35 C 229.21 34.72 230.00 34.05 230.78 33.36 C 227.73 35.13 226.18 32.06 224.52 30.17 C 224.52 29.71 224.51 28.79 224.51 28.34 C 222.06 27.21 219.38 26.37 217.26 24.67 L 216.90 23.99 C 216.50 23.95 215.69 23.86 215.29 23.82 L 215.96 22.10 C 215.19 22.20 213.64 22.39 212.87 22.49 C 213.35 22.23 214.31 21.72 214.79 21.46 L 214.06 19.86 C 216.53 20.64 218.97 21.52 221.25 22.76 C 222.71 19.33 222.86 23.26 222.42 24.82 C 222.18 23.33 217.20 21.76 218.56 23.97 C 221.39 25.09 223.96 26.81 226.90 27.65 C 227.11 28.04 227.54 28.80 227.76 29.19 C 228.86 30.25 229.94 31.45 231.45 31.91 L 231.36 31.41 C 231.28 30.85 231.12 29.74 231.05 29.18 C 233.65 29.96 234.45 33.72 237.66 33.84 C 237.45 33.39 237.03 32.48 236.82 32.02 C 237.61 31.80 239.20 31.35 239.99 31.12 L 239.50 32.44 C 239.92 31.71 240.35 30.99 240.78 30.27 C 241.61 30.97 243.27 32.37 244.10 33.07 C 243.71 30.16 239.14 30.79 239.06 27.90 C 242.57 26.97 244.30 31.30 247.13 32.60 C 246.84 31.10 245.34 30.55 244.33 29.64 C 243.61 27.70 240.64 27.94 240.11 26.12 C 241.66 23.68 244.23 27.03 246.04 27.52 C 244.35 25.28 241.26 24.54 240.11 21.89 C 238.54 21.19 236.74 20.15 237.17 17.98 C 238.90 18.60 240.38 19.62 241.60 21.04 C 241.42 20.18 241.07 18.47 240.90 17.61 M 216.47 22.17 L 216.44 22.80 L 217.08 22.83 L 217.11 22.20 L 216.47 22.17 M 248.26 32.23 C 248.85 32.79 248.85 32.79 248.26 32.23 M 221.25 35.25 C 221.54 35.54 221.54 35.54 221.25 35.25 M 267.26 59.26 C 267.85 59.82 267.85 59.82 267.26 59.26 M 261.70 72.14 C 263.20 74.90 266.38 76.00 268.83 77.67 C 267.20 74.95 264.43 73.46 261.70 72.14 M 277.66 82.44 C 277.87 83.72 279.50 84.86 280.75 84.81 C 280.75 83.52 278.95 81.87 277.66 82.44 M 301.98 95.05 C 301.29 91.54 298.31 88.98 296.20 86.21 C 297.30 89.51 299.46 92.80 301.98 95.05 M 287.31 94.66 L 287.11 95.64 C 288.98 97.25 290.85 98.93 293.05 100.09 C 291.41 98.01 289.27 96.42 287.31 94.66 M 297.90 108.28 C 298.21 109.26 298.73 110.10 299.47 110.80 L 299.33 111.51 C 300.06 111.63 301.51 111.89 302.23 112.01 C 301.83 112.12 301.03 112.33 300.63 112.44 C 298.94 117.28 293.35 113.30 290.29 112.28 C 291.77 113.68 294.12 113.75 295.57 115.29 C 297.15 117.03 299.54 117.11 301.68 117.61 C 301.56 117.06 301.30 115.94 301.17 115.39 L 303.03 116.02 L 302.64 114.10 C 303.26 114.65 303.87 115.20 304.49 115.75 L 302.85 116.43 C 303.66 116.89 304.48 117.34 305.30 117.79 C 305.46 116.57 305.63 115.35 305.80 114.13 C 305.52 113.60 304.95 112.53 304.67 111.99 C 303.56 111.27 302.49 110.52 301.43 109.74 C 300.25 109.26 299.07 108.77 297.90 108.28 Z" />
<path fill="#ffffff" opacity="1.00" d=" M 224.90 19.02 C 229.64 21.56 234.72 23.77 238.90 27.21 L 239.06 27.90 L 238.48 28.28 C 236.56 27.95 235.23 26.24 233.58 25.31 C 230.79 23.09 226.59 22.47 224.90 19.02 Z" />
<path fill="#ffffff" opacity="1.00" d=" M 229.92 20.79 C 228.47 20.45 229.06 18.32 230.41 19.33 C 231.48 19.89 232.56 20.41 233.67 20.91 C 233.67 21.20 233.67 21.80 233.66 22.10 C 232.35 21.87 231.10 21.43 229.92 20.79 Z" />
<path fill="#ffffff" opacity="1.00" d=" M 210.94 25.64 C 210.77 25.02 210.44 23.79 210.27 23.18 C 211.20 24.01 212.13 24.83 213.07 25.66 C 215.02 25.85 216.97 25.99 218.91 26.29 L 218.20 27.06 C 217.16 27.23 216.12 27.44 215.09 27.70 C 218.91 29.62 222.77 31.63 225.93 34.57 C 222.00 35.07 219.73 30.06 215.80 30.11 L 216.14 29.70 C 214.41 27.99 211.92 27.33 209.56 27.35 L 209.38 26.66 C 207.42 26.64 206.03 25.29 204.73 24.02 C 206.87 24.22 209.01 24.63 210.94 25.64 Z" />
<path fill="#ffffff" opacity="1.00" d=" M 223.62 25.22 C 222.89 24.20 223.20 23.73 224.56 23.81 C 225.69 24.43 226.10 25.19 225.79 26.10 C 225.24 25.88 224.16 25.44 223.62 25.22 Z" />
<path fill="#ffffff" opacity="1.00" d=" M 233.25 30.34 C 232.42 26.88 228.08 26.76 226.07 24.24 C 229.03 22.99 230.83 25.64 233.14 26.72 C 234.79 27.80 236.91 28.19 238.34 29.53 L 238.10 30.13 C 237.75 30.23 237.07 30.45 236.73 30.56 C 236.75 30.92 236.80 31.66 236.82 32.02 C 235.47 32.64 234.02 31.32 233.25 30.34 Z" />
<path fill="#ffffff" opacity="1.00" d=" M 218.20 27.06 C 220.16 25.49 220.25 29.32 218.25 27.96 L 218.20 27.06 Z" />
<path fill="#ffffff" opacity="1.00" d=" M 227.46 26.66 C 228.69 26.74 229.38 27.41 229.51 28.68 C 227.98 28.95 227.30 28.27 227.46 26.66 Z" />
<path fill="#ffffff" opacity="1.00" d=" M 221.16 29.07 C 221.51 29.03 222.20 28.95 222.55 28.91 L 222.55 29.86 L 221.65 30.30 C 221.53 29.99 221.28 29.37 221.16 29.07 Z" />
<path fill="#ffffff" opacity="1.00" d=" M 238.10 30.13 C 238.56 30.58 238.56 30.58 238.10 30.13 Z" />
<path fill="#ffffff" opacity="1.00" d=" M 212.05 33.96 C 211.47 33.47 211.47 33.47 212.05 33.96 Z" />
<path fill="#ffffff" opacity="1.00" d=" M 227.45 34.45 C 227.79 34.80 227.79 34.80 227.45 34.45 Z" />
<path fill="#ffffff" opacity="1.00" d=" M 192.74 39.75 C 194.57 39.62 196.39 39.41 198.21 39.23 C 199.58 39.74 199.18 41.87 200.26 42.78 C 200.36 41.88 200.40 40.97 200.36 40.06 C 202.42 39.02 204.32 40.84 205.74 42.12 C 204.85 42.08 203.07 42.01 202.18 41.97 C 203.74 43.19 202.93 45.48 204.67 46.53 C 204.66 46.81 204.65 47.35 204.64 47.62 C 202.85 46.91 201.03 46.21 199.49 45.02 C 196.12 46.94 192.23 44.57 188.61 45.37 L 188.42 44.70 C 186.54 44.43 184.78 43.71 183.04 43.01 C 187.49 41.84 192.41 43.72 196.68 45.16 C 198.16 44.62 199.60 44.00 201.04 43.36 C 199.79 43.52 198.55 43.70 197.31 43.91 C 199.47 40.09 194.94 40.78 192.74 39.75 Z" />
<path fill="#ffffff" opacity="1.00" d=" M 205.87 42.49 C 208.64 43.92 210.97 46.02 213.55 47.75 C 212.63 48.95 210.86 49.68 211.23 51.57 C 211.81 51.51 212.98 51.38 213.56 51.31 L 213.21 52.51 C 215.99 50.98 213.43 54.55 215.31 55.25 C 215.48 54.21 215.67 53.18 215.76 52.13 C 214.62 51.51 213.87 50.50 213.68 49.21 C 214.46 49.80 216.03 50.99 216.81 51.59 C 216.91 50.98 217.12 49.76 217.22 49.16 C 219.87 50.40 221.76 53.09 224.31 54.66 C 227.19 56.97 230.09 59.27 233.26 61.19 C 233.26 60.47 233.26 59.03 233.26 58.31 C 233.76 58.73 234.75 59.57 235.24 59.99 C 235.00 60.31 234.52 60.96 234.28 61.28 C 235.55 62.13 236.78 63.03 237.99 63.97 C 238.52 63.78 239.04 63.58 239.57 63.38 C 238.54 62.55 236.47 60.89 235.43 60.06 C 238.17 60.64 240.67 61.90 243.09 63.28 L 242.05 63.70 C 241.20 64.00 240.38 64.35 239.58 64.74 C 241.27 65.55 242.98 66.35 244.71 67.07 C 247.38 68.89 250.27 70.33 253.08 71.92 C 252.30 72.33 250.75 73.13 249.97 73.53 C 248.08 72.99 246.09 71.40 244.17 72.77 C 244.98 73.00 246.60 73.46 247.40 73.69 L 247.77 76.04 C 246.10 75.16 244.47 74.21 242.92 73.12 C 244.64 72.27 244.04 69.46 241.86 69.48 C 242.80 69.53 244.67 69.64 245.61 69.69 C 243.53 68.13 241.28 66.73 238.76 66.00 C 237.82 65.60 236.87 65.21 235.93 64.83 L 237.99 66.23 C 235.06 68.09 231.56 65.26 229.44 63.30 C 229.46 64.45 230.06 65.49 230.39 66.59 C 230.62 66.46 231.08 66.20 231.31 66.06 C 233.14 66.75 234.87 67.66 236.23 69.08 C 236.85 68.28 237.45 67.46 238.03 66.63 C 241.04 66.77 241.69 69.89 241.48 72.28 C 238.33 71.48 235.21 70.57 232.40 68.87 C 229.01 68.23 225.46 67.98 222.07 68.91 C 220.36 69.33 219.03 67.93 217.66 67.20 C 219.03 67.40 221.77 67.78 223.14 67.97 C 220.95 65.98 217.82 65.39 215.80 63.20 C 219.29 62.36 222.06 65.17 225.01 66.51 C 223.88 65.53 222.67 64.62 221.41 63.82 C 222.25 63.24 223.12 62.71 224.00 62.19 C 222.30 61.46 219.56 57.44 218.79 61.25 L 221.85 60.80 C 219.67 64.11 216.74 60.71 214.14 59.86 C 215.08 59.30 216.02 58.73 216.93 58.11 C 216.18 58.46 214.67 59.17 213.91 59.52 L 214.66 57.41 C 213.39 56.63 212.15 55.74 211.32 54.47 C 209.97 52.35 207.06 51.93 205.95 49.59 C 204.99 51.22 203.31 51.47 201.82 51.96 C 202.05 52.47 202.50 53.50 202.73 54.01 C 199.43 54.91 195.96 54.67 192.66 53.94 L 191.98 52.71 C 194.71 52.35 197.49 52.34 200.20 51.82 C 197.25 48.20 191.76 49.85 187.68 49.36 C 187.31 48.92 186.56 48.04 186.18 47.60 C 189.83 48.07 193.49 47.59 197.14 47.56 C 200.34 48.25 203.41 49.77 206.79 49.33 C 208.09 50.10 209.36 50.91 210.64 51.72 C 210.67 50.95 210.71 49.41 210.74 48.65 C 207.83 48.07 205.94 45.37 205.87 42.49 Z" />
<path fill="#ffffff" opacity="1.00" d=" M 175.76 49.51 C 178.60 46.49 182.84 46.23 186.68 47.03 C 184.58 48.89 181.50 48.31 179.20 49.64 C 181.43 49.78 183.64 49.09 185.87 49.32 C 185.35 49.74 184.30 50.59 183.78 51.02 C 186.59 51.39 190.77 48.71 192.05 52.38 C 187.56 53.06 183.50 55.56 178.99 56.01 C 178.45 55.75 177.36 55.22 176.82 54.95 C 178.83 54.47 180.85 54.05 182.89 53.70 L 182.82 53.26 C 180.57 53.39 178.31 53.43 176.07 53.68 C 176.26 54.36 176.64 55.71 176.83 56.39 C 176.48 55.90 175.78 54.91 175.43 54.42 C 174.01 54.81 172.59 55.23 171.15 55.50 C 172.41 54.02 174.51 53.75 175.91 52.42 C 174.87 52.46 172.79 52.55 171.75 52.60 C 173.47 50.81 176.74 51.97 178.12 50.07 C 177.53 49.93 176.35 49.65 175.76 49.51 Z" />
<path fill="#ffffff" opacity="1.00" d=" M 233.69 50.82 C 232.90 50.12 232.90 50.12 233.69 50.82 Z" />
<path fill="#ffffff" opacity="1.00" d=" M 233.69 50.82 C 234.52 51.47 234.52 51.47 233.69 50.82 Z" />
<path fill="#ffffff" opacity="1.00" d=" M 202.84 53.10 C 205.63 53.93 208.60 54.41 211.10 56.00 C 211.30 58.23 211.86 60.41 212.79 62.46 C 209.32 60.25 204.20 59.98 201.99 56.27 C 203.13 56.58 205.43 57.20 206.57 57.51 C 205.34 56.03 204.07 54.58 202.84 53.10 Z" />
<path fill="#ffffff" opacity="1.00" d=" M 177.09 58.32 C 181.80 56.13 187.05 55.53 192.18 55.08 C 191.23 56.13 190.14 57.04 189.04 57.92 C 193.02 57.67 197.93 55.83 201.21 59.01 C 202.28 59.37 203.35 59.75 204.42 60.13 C 204.45 60.51 204.50 61.28 204.53 61.66 L 204.95 61.21 L 205.62 60.69 C 207.50 63.29 210.24 64.96 212.72 66.89 C 211.71 66.86 210.72 66.74 209.74 66.50 C 209.48 64.10 206.67 63.85 204.81 64.20 C 202.83 63.68 201.78 62.07 200.81 60.40 L 200.56 59.32 C 196.86 59.71 193.87 62.73 189.94 61.80 C 191.65 60.30 194.01 60.29 196.11 59.76 C 195.84 59.50 195.31 58.97 195.05 58.70 C 192.38 59.57 189.69 60.42 187.06 61.42 C 186.67 61.33 185.87 61.15 185.47 61.06 C 185.48 61.83 185.51 63.36 185.53 64.13 C 181.20 64.70 177.57 67.46 173.51 68.90 L 173.58 67.18 C 172.89 67.59 171.51 68.40 170.81 68.81 C 170.73 68.49 170.57 67.85 170.48 67.53 C 169.85 67.54 168.58 67.56 167.95 67.57 C 169.40 66.62 170.96 65.81 172.64 65.35 C 171.24 62.64 174.84 62.33 176.35 61.04 C 176.48 61.55 176.74 62.57 176.87 63.08 C 180.11 62.24 183.11 59.95 186.59 60.49 L 186.56 59.25 C 187.06 59.33 188.05 59.49 188.55 59.58 L 188.51 57.25 C 187.76 57.55 186.27 58.14 185.53 58.43 C 184.35 56.53 181.66 58.09 180.14 58.69 C 181.76 58.74 183.38 58.70 185.01 58.57 C 182.70 60.05 180.05 60.78 177.54 61.82 C 177.41 61.24 177.30 60.65 177.20 60.07 C 177.65 59.86 178.55 59.44 179.00 59.22 C 178.52 59.00 177.56 58.55 177.09 58.32 Z" />
<path fill="#ffffff" opacity="1.00" d=" M 212.30 58.13 L 212.89 57.55 C 213.09 57.89 213.47 58.57 213.67 58.91 L 213.06 59.51 C 212.87 59.17 212.49 58.48 212.30 58.13 Z" />
<path fill="#ffffff" opacity="1.00" d=" M 198.14 61.21 C 198.29 61.31 202.21 60.99 200.37 61.92 C 200.06 62.11 199.46 62.49 199.16 62.67 C 199.81 62.66 201.12 62.62 201.78 62.60 C 202.08 65.04 201.05 67.11 198.48 67.81 C 198.57 67.15 198.76 65.84 198.85 65.18 C 196.51 65.62 194.15 65.88 191.78 65.87 C 193.06 63.20 196.80 64.53 198.39 63.02 C 198.33 62.57 198.20 61.66 198.14 61.21 Z" />
<path fill="#ffffff" opacity="1.00" d=" M 259.36 61.07 L 260.05 60.88 C 261.18 61.72 260.96 62.06 259.39 61.93 L 259.36 61.07 Z" />
<path fill="#ffffff" opacity="1.00" d=" M 182.12 67.21 C 184.09 66.68 186.01 65.98 187.93 65.27 C 186.32 66.59 184.47 67.70 182.33 67.77 C 182.11 68.63 181.91 69.49 181.72 70.36 L 185.47 68.29 L 183.50 71.94 C 184.72 71.33 185.93 70.70 187.13 70.05 C 188.82 69.46 186.34 68.34 186.04 67.78 L 187.63 68.74 C 187.98 68.10 188.67 66.83 189.02 66.20 C 188.88 66.90 188.58 68.30 188.44 69.00 C 191.27 68.02 194.18 67.30 197.05 66.44 C 197.55 66.94 198.05 67.43 198.55 67.93 C 196.15 68.39 193.92 69.41 191.74 70.46 C 190.62 69.60 189.71 69.78 189.01 70.99 L 188.43 70.65 L 187.42 71.32 L 187.64 72.39 C 185.73 70.64 183.41 73.29 181.29 73.45 C 180.11 74.27 178.91 75.04 177.69 75.79 C 176.20 76.62 174.76 77.74 172.93 77.62 L 173.74 76.32 L 175.49 75.90 C 175.57 75.16 175.75 73.69 175.83 72.96 C 174.85 73.14 172.89 73.50 171.91 73.69 C 174.06 71.44 177.52 71.24 180.31 70.19 C 180.08 69.63 179.85 69.07 179.63 68.52 C 180.47 68.10 181.30 67.66 182.12 67.21 Z" />
<path fill="#ffffff" opacity="1.00" d=" M 205.43 66.24 C 205.87 66.27 206.74 66.34 207.18 66.37 L 207.17 67.08 C 206.74 67.05 205.87 66.99 205.44 66.97 L 205.43 66.24 Z" />
<path fill="#ffffff" opacity="1.00" d=" M 207.43 67.57 C 209.57 66.90 211.78 67.80 213.96 67.72 C 215.62 68.33 218.83 68.41 218.91 70.72 C 215.00 71.59 211.31 68.16 207.43 67.57 Z" />
<path fill="#ffffff" opacity="1.00" d=" M 189.98 73.28 C 193.71 71.79 197.24 69.66 201.26 69.02 C 199.35 71.74 195.76 72.24 192.93 73.59 C 190.27 74.09 188.88 76.59 186.96 78.20 C 188.18 78.41 190.93 81.53 190.57 78.51 C 195.93 79.34 200.51 74.66 205.69 75.37 L 206.21 75.86 C 206.61 76.00 207.41 76.29 207.80 76.44 C 207.65 76.90 207.33 77.83 207.17 78.30 C 206.67 78.39 205.68 78.57 205.18 78.66 C 203.22 80.69 201.60 83.26 198.79 84.21 C 199.13 84.58 199.48 84.94 199.84 85.31 C 201.58 83.68 203.63 82.44 205.65 81.21 C 204.03 84.01 201.69 86.61 198.58 87.75 C 198.40 89.26 197.87 90.65 196.97 91.90 C 196.36 91.10 195.75 90.30 195.13 89.50 L 197.48 89.46 L 195.65 88.62 L 196.00 87.87 L 197.69 89.22 C 197.64 87.68 198.02 86.22 198.83 84.84 C 197.37 85.82 195.90 86.77 194.41 87.70 C 194.06 87.31 193.35 86.52 193.00 86.12 C 190.62 88.09 188.25 90.09 185.86 92.05 C 186.06 91.35 186.44 89.94 186.63 89.23 C 184.38 90.82 181.81 92.83 181.79 95.86 C 180.60 97.71 179.37 99.53 178.33 101.47 C 177.77 101.57 176.66 101.75 176.11 101.85 C 177.01 100.21 177.91 98.57 178.80 96.92 C 177.90 97.67 176.10 99.16 175.19 99.91 C 175.30 99.25 175.52 97.94 175.62 97.28 C 173.95 98.05 172.34 98.93 170.68 99.72 C 172.18 97.84 174.64 97.15 176.26 95.39 C 178.20 93.73 179.41 91.04 182.06 90.39 C 185.79 88.66 189.22 86.20 192.06 83.22 C 193.86 81.20 196.69 80.73 199.06 79.68 C 198.91 80.45 198.76 81.22 198.61 81.99 C 200.92 80.60 202.41 78.26 204.87 77.08 C 200.80 76.75 197.22 79.34 193.17 79.27 C 189.32 82.14 186.70 86.80 181.95 88.52 C 181.55 84.70 186.65 84.02 188.32 81.13 C 185.49 82.93 182.46 84.66 180.45 87.41 C 179.08 91.48 175.62 94.49 172.12 96.77 C 173.28 91.94 178.03 89.50 180.39 85.40 C 181.89 82.60 185.00 81.28 187.65 79.83 C 187.09 79.41 186.54 78.99 185.99 78.58 C 183.79 80.44 180.92 81.69 179.16 83.98 C 178.43 87.27 175.05 88.64 173.20 91.18 C 171.19 94.02 168.81 96.85 165.56 98.27 C 166.20 98.68 166.85 99.08 167.52 99.48 C 167.21 102.42 165.24 104.36 162.83 105.81 C 161.63 105.69 160.42 105.59 159.22 105.53 C 161.25 104.00 162.97 101.98 165.30 100.91 C 164.90 100.48 164.50 100.06 164.10 99.64 C 163.54 100.26 162.42 101.49 161.86 102.10 L 159.78 100.37 L 161.15 103.28 C 160.14 102.84 159.15 102.39 158.13 101.97 C 158.69 101.22 159.80 99.70 160.36 98.94 L 157.61 99.95 C 158.38 97.99 159.57 97.66 161.19 98.98 L 159.99 97.06 L 161.58 96.46 C 161.67 97.84 161.15 99.77 162.94 100.32 L 161.98 97.81 L 164.17 99.27 L 163.97 98.19 C 166.58 96.35 169.29 94.65 171.86 92.76 C 171.42 92.36 170.53 91.56 170.09 91.16 C 168.71 92.77 167.29 94.33 165.83 95.86 C 165.43 95.25 165.03 94.65 164.64 94.05 C 167.03 92.31 169.94 91.20 171.90 88.91 C 174.38 86.11 177.82 84.45 180.38 81.74 C 179.38 81.22 178.38 80.71 177.43 80.12 C 178.45 79.69 180.50 78.83 181.52 78.40 C 181.09 77.60 180.66 76.80 180.23 76.01 C 182.74 74.89 185.22 73.71 187.64 72.39 C 187.98 72.04 188.66 71.34 189.01 70.99 C 189.40 70.93 190.18 70.81 190.57 70.75 L 190.76 71.70 L 189.15 71.35 L 189.98 73.28 L 188.90 72.75 C 187.08 74.34 185.16 75.95 182.64 76.26 C 183.14 76.57 183.65 76.87 184.16 77.16 C 186.34 75.90 188.60 74.79 190.89 73.76 L 189.98 73.28 M 189.85 86.65 C 192.70 86.12 194.93 84.13 196.97 82.22 C 194.32 83.04 191.18 84.00 189.85 86.65 Z" />
<path fill="#ffffff" opacity="1.00" d=" M 202.95 68.84 C 203.74 68.82 205.32 68.79 206.11 68.78 C 206.19 70.06 202.74 70.14 202.95 68.84 Z" />
<path fill="#ffffff" opacity="1.00" d=" M 222.09 71.52 C 229.06 68.52 237.46 72.28 241.64 78.26 C 241.27 80.63 240.06 82.87 237.87 84.01 C 238.42 82.15 239.53 80.55 240.71 79.04 C 237.89 75.96 234.45 73.66 230.86 71.60 C 228.65 71.79 224.68 69.23 224.20 72.50 C 223.49 72.17 222.79 71.85 222.09 71.52 Z" />
<path fill="#ffffff" opacity="1.00" d=" M 196.31 72.88 C 198.60 71.98 200.81 70.91 203.12 70.07 C 201.04 73.55 196.76 74.20 193.61 76.31 C 192.90 76.42 191.50 76.63 190.80 76.74 C 192.05 74.76 194.41 74.05 196.31 72.88 Z" />
<path fill="#ffffff" opacity="1.00" d=" M 202.01 73.56 C 205.52 72.20 209.32 72.07 212.97 71.32 C 212.75 71.69 212.31 72.44 212.09 72.81 C 208.80 73.68 205.36 74.99 202.01 73.56 Z" />
<path fill="#ffffff" opacity="1.00" d=" M 255.92 73.30 C 257.21 73.00 257.87 73.53 257.90 74.89 C 256.37 75.20 255.71 74.67 255.92 73.30 Z" />
<path fill="#ffffff" opacity="1.00" d=" M 272.70 73.57 C 272.86 73.72 273.19 74.03 273.35 74.18 L 272.72 74.12 L 272.70 73.57 Z" />
<path fill="#ffffff" opacity="1.00" d=" M 216.02 74.84 C 216.72 74.76 217.43 74.69 218.14 74.62 C 219.73 77.14 222.55 78.20 224.93 79.76 C 221.90 79.86 219.12 78.53 216.30 77.63 C 216.23 76.93 216.09 75.54 216.02 74.84 Z" />
<path fill="#ffffff" opacity="1.00" d=" M 251.20 73.60 C 253.63 74.05 255.83 75.29 257.53 77.08 C 257.62 76.53 257.80 75.44 257.90 74.89 C 258.51 74.85 259.73 74.76 260.34 74.71 C 261.85 76.67 262.58 79.51 265.34 80.11 C 264.94 80.64 264.53 81.16 264.13 81.68 C 262.28 80.02 260.43 78.36 258.64 76.63 C 258.64 77.30 258.62 78.64 258.62 79.31 C 256.53 80.37 253.99 81.51 252.38 79.09 C 252.52 79.79 252.80 81.21 252.94 81.92 L 250.62 80.35 C 250.27 80.33 249.56 80.31 249.21 80.29 C 249.70 80.70 250.68 81.52 251.17 81.93 C 249.75 81.85 248.42 81.35 247.16 80.73 C 246.57 81.15 245.39 81.99 244.80 82.41 C 245.35 81.00 246.83 80.65 247.98 79.93 C 248.60 78.84 249.42 77.94 250.61 77.46 L 250.00 75.43 C 252.64 76.88 255.19 78.62 258.21 79.26 C 256.43 76.61 252.31 76.78 251.20 73.60 Z" />
<path fill="#ffffff" opacity="1.00" d=" M 273.35 74.18 C 274.20 75.05 274.20 75.05 273.35 74.18 Z" />
<path fill="#ffffff" opacity="1.00" d=" M 174.25 79.19 C 175.20 78.73 176.15 78.27 177.11 77.83 C 176.26 81.34 172.32 82.31 169.77 84.29 C 168.76 83.69 167.75 83.09 166.75 82.49 C 169.03 80.98 171.46 79.47 174.25 79.19 Z" />
<path fill="#ffffff" opacity="1.00" d=" M 227.69 77.80 C 229.92 78.80 232.07 80.02 234.50 80.51 C 234.38 80.86 234.16 81.56 234.05 81.91 C 235.14 82.33 236.09 82.96 236.92 83.80 C 233.19 83.34 229.19 81.49 227.69 77.80 Z" />
<path fill="#ffffff" opacity="1.00" d=" M 239.58 84.53 C 241.14 82.96 241.91 80.62 244.01 79.63 C 243.46 81.23 242.76 82.79 242.59 84.49 C 241.38 85.90 240.13 87.30 239.10 88.84 C 241.12 87.64 243.84 85.92 243.69 83.24 C 244.52 83.56 246.20 84.19 247.03 84.51 C 247.49 84.21 248.40 83.61 248.86 83.31 C 246.78 85.36 244.80 87.51 243.17 89.95 C 243.26 89.23 243.42 87.80 243.50 87.08 C 242.02 88.65 240.46 90.13 238.84 91.55 C 239.72 91.91 241.48 92.63 242.36 92.99 C 242.54 92.58 242.90 91.76 243.08 91.35 L 243.89 91.95 C 244.26 92.21 245.01 92.75 245.39 93.02 C 245.09 93.30 244.48 93.88 244.18 94.17 C 238.89 98.60 234.51 104.42 228.06 107.22 L 227.83 107.79 C 224.09 109.97 221.24 113.43 218.73 116.89 C 222.95 115.38 224.76 110.70 228.48 108.34 L 227.83 107.79 L 228.98 107.70 C 230.01 107.16 231.07 106.66 232.15 106.21 L 230.56 108.13 C 227.89 111.03 224.89 113.60 222.16 116.45 L 221.50 116.15 C 220.81 121.71 215.39 124.95 212.26 129.17 C 211.91 128.49 211.55 127.80 211.20 127.12 C 210.28 128.82 209.02 130.20 207.41 131.24 C 208.25 129.66 209.23 128.13 209.67 126.37 C 208.34 127.76 207.05 129.18 205.69 130.55 C 204.04 130.86 202.41 131.31 200.78 131.72 C 203.72 129.12 206.10 125.26 210.04 124.22 C 210.53 123.28 211.20 122.51 212.06 121.91 L 211.10 123.79 C 211.93 123.65 212.76 123.52 213.60 123.40 C 213.66 123.78 213.80 124.56 213.86 124.95 L 213.03 125.05 C 212.70 125.55 212.05 126.55 211.72 127.05 C 212.94 127.48 214.39 126.26 213.86 124.95 C 215.64 124.44 216.70 122.60 216.96 120.86 C 215.68 121.48 214.58 122.39 213.60 123.40 C 214.48 120.95 217.17 119.67 217.83 117.12 C 216.67 117.32 215.52 117.44 214.37 117.67 C 211.18 120.72 207.50 123.69 203.11 124.69 C 205.42 122.13 208.70 120.80 211.44 118.78 C 210.80 118.69 209.52 118.52 208.89 118.43 C 212.12 116.74 214.94 114.36 218.27 112.82 C 220.51 111.94 221.98 109.92 223.33 108.02 C 220.73 109.50 218.24 111.19 215.58 112.56 C 214.92 112.37 214.26 112.19 213.60 112.02 C 207.98 116.01 203.03 121.05 196.78 124.09 C 201.39 118.51 208.67 115.88 213.53 110.53 C 215.37 108.60 217.54 106.98 219.13 104.81 C 220.00 105.05 220.87 105.30 221.74 105.55 C 219.09 107.18 216.64 109.11 214.54 111.41 C 219.52 109.44 223.15 105.13 228.13 103.07 C 228.56 103.30 229.43 103.76 229.86 103.99 C 232.81 101.09 236.76 99.32 238.92 95.61 C 235.73 96.74 233.65 100.88 229.89 100.53 C 228.33 100.30 227.53 101.71 226.58 102.66 C 225.81 102.18 225.05 101.69 224.28 101.20 C 227.23 99.16 229.96 96.77 232.17 93.93 C 227.96 96.08 225.08 100.00 221.17 102.60 C 222.46 102.59 223.75 102.49 225.04 102.48 C 224.30 103.21 222.83 104.68 222.10 105.41 C 221.57 104.52 221.05 103.64 220.49 102.77 C 220.15 103.28 219.47 104.30 219.13 104.81 C 218.41 105.16 216.96 105.85 216.24 106.20 C 215.90 105.50 215.55 104.81 215.21 104.13 C 212.84 108.16 207.98 109.52 205.35 113.29 C 202.93 115.42 200.17 117.62 196.84 117.97 C 201.80 113.90 207.35 110.55 212.25 106.40 C 214.61 103.33 217.13 100.41 220.02 97.81 C 221.53 96.35 223.08 94.85 225.09 94.07 C 224.41 96.47 221.71 97.35 220.85 99.62 C 222.85 98.05 224.53 96.14 226.31 94.34 C 226.60 94.65 227.20 95.26 227.50 95.57 C 231.94 92.34 235.70 88.37 239.58 84.53 M 216.36 103.18 C 216.97 103.61 217.58 104.05 218.20 104.49 C 218.50 102.54 221.05 102.06 220.98 99.95 C 219.42 101.00 217.93 102.14 216.36 103.18 M 217.87 119.46 C 218.56 120.01 218.56 120.01 217.87 119.46 M 210.24 126.49 C 210.55 126.77 210.55 126.77 210.24 126.49 Z" />
<path fill="#ffffff" opacity="1.00" d=" M 260.26 81.08 C 261.76 81.61 263.15 82.90 264.86 82.31 L 264.86 85.02 C 264.02 84.82 262.32 84.43 261.47 84.23 C 261.48 84.87 261.52 86.16 261.53 86.80 C 260.17 85.39 257.47 84.68 257.22 82.52 C 257.89 82.60 259.23 82.75 259.90 82.83 C 259.99 82.39 260.17 81.52 260.26 81.08 Z" />
<path fill="#ffffff" opacity="1.00" d=" M 175.15 84.15 C 174.62 82.96 175.08 82.18 176.53 81.82 C 177.08 83.01 176.62 83.79 175.15 84.15 Z" />
<path fill="#ffffff" opacity="1.00" d=" M 222.10 82.33 C 225.02 82.21 227.18 84.31 228.90 86.40 C 229.83 85.89 230.39 84.98 231.02 84.17 C 232.19 84.78 233.34 85.42 234.49 86.08 C 233.08 86.67 231.47 85.78 230.11 86.71 L 232.18 87.69 C 230.80 88.97 229.42 90.25 228.08 91.58 C 227.59 91.44 226.60 91.17 226.11 91.03 L 226.68 93.09 C 225.02 92.16 223.37 91.18 222.03 89.83 C 222.82 89.80 224.41 89.73 225.20 89.70 C 225.27 89.21 225.41 88.21 225.48 87.71 L 226.82 87.28 C 226.73 86.71 226.55 85.56 226.46 84.98 C 224.70 84.67 223.16 83.76 222.10 82.33 Z" />
<path fill="#ffffff" opacity="1.00" d=" M 265.38 84.92 C 264.54 83.28 266.22 82.36 266.94 81.22 C 270.28 82.80 271.21 86.39 273.12 89.22 C 271.53 88.77 270.02 88.12 268.59 87.27 C 269.14 87.76 270.22 88.73 270.76 89.22 C 267.96 92.73 263.74 83.14 268.58 85.56 C 268.61 85.22 268.67 84.54 268.70 84.20 C 267.87 84.38 266.21 84.74 265.38 84.92 Z" />
<path fill="#ffffff" opacity="1.00" d=" M 207.63 86.93 C 209.10 85.59 210.68 84.38 212.24 83.16 C 213.10 83.71 213.97 84.26 214.84 84.80 C 212.17 87.23 209.32 89.48 206.28 91.40 L 205.95 90.99 C 206.42 88.22 210.02 87.92 211.34 85.72 C 211.37 85.64 211.44 85.47 211.47 85.38 L 211.34 85.72 C 210.11 86.14 208.87 86.54 207.63 86.93 Z" />
<path fill="#ffffff" opacity="1.00" d=" M 172.79 83.67 C 173.50 84.03 174.22 84.41 174.93 84.79 C 173.13 85.79 171.40 86.89 169.57 87.82 L 169.52 88.37 L 168.31 88.23 L 168.19 89.21 C 165.37 91.87 162.84 95.20 158.87 96.16 C 159.94 94.91 161.25 93.90 162.33 92.67 C 162.49 92.52 162.80 92.24 162.96 92.09 C 163.47 91.25 163.47 91.25 162.96 92.09 C 162.80 92.24 162.49 92.52 162.33 92.67 C 161.65 92.81 160.30 93.09 159.62 93.23 C 163.28 89.13 168.41 86.86 172.79 83.67 Z" />
<path fill="#ffffff" opacity="1.00" d=" M 247.38 88.12 C 250.15 87.18 252.78 85.87 254.90 83.81 C 254.03 85.63 253.20 87.47 252.31 89.29 L 251.84 90.12 C 251.45 89.81 250.66 89.19 250.27 88.88 C 250.47 89.38 250.86 90.36 251.05 90.85 C 249.60 89.67 248.60 91.14 247.49 91.73 C 247.47 90.52 247.43 89.32 247.38 88.12 Z" />
<path fill="#ffffff" opacity="1.00" d=" M 256.26 84.38 C 257.51 84.27 259.53 85.77 259.35 87.13 C 257.96 87.51 255.96 85.84 256.26 84.38 Z" />
<path fill="#ffffff" opacity="1.00" d=" M 205.27 94.33 C 209.00 91.45 212.47 87.88 216.98 86.26 C 214.73 89.87 210.62 91.71 207.70 94.71 C 206.05 96.06 205.53 98.55 203.32 99.23 C 203.97 99.64 204.62 100.05 205.28 100.46 L 205.79 100.77 C 201.71 104.03 197.24 106.83 193.50 110.48 C 191.40 113.65 192.21 118.42 188.98 120.94 C 190.07 117.01 191.02 112.81 193.43 109.44 C 196.60 106.69 199.98 104.17 203.51 101.91 C 203.05 101.42 202.59 100.93 202.14 100.44 C 200.65 101.94 199.04 103.43 196.96 104.02 C 198.04 101.70 200.24 100.19 202.34 98.88 C 201.90 98.30 201.47 97.73 201.04 97.16 C 198.60 99.45 195.99 101.54 193.50 103.77 C 193.17 103.72 192.53 103.62 192.21 103.57 C 192.87 102.77 193.54 101.98 194.20 101.19 C 196.61 99.28 198.55 96.74 201.31 95.30 C 201.59 94.92 202.16 94.18 202.44 93.80 C 203.03 92.97 203.81 92.43 204.78 92.19 C 204.26 93.59 200.97 94.89 202.70 96.42 C 203.91 98.16 207.42 96.19 205.27 94.33 Z" />
<path fill="#ffffff" opacity="1.00" d=" M 255.47 87.68 C 256.01 87.11 256.01 87.11 255.47 87.68 Z" />
<path fill="#ffffff" opacity="1.00" d=" M 253.03 89.28 C 253.64 88.88 254.86 88.08 255.47 87.68 C 255.38 88.28 255.20 89.48 255.11 90.08 C 256.13 89.35 257.13 88.60 258.18 87.89 C 257.60 89.49 256.77 90.97 255.84 92.39 C 254.55 92.73 253.30 93.22 252.07 93.73 C 250.76 92.35 251.34 89.52 253.68 90.52 L 253.03 89.28 Z" />
<path fill="#ffffff" opacity="1.00" d=" M 185.69 98.68 C 187.53 95.29 190.61 92.83 193.11 89.95 C 192.62 92.36 189.21 94.64 191.22 97.01 C 189.11 95.42 187.59 98.23 185.69 98.68 Z" />
<path fill="#ffffff" opacity="1.00" d=" M 192.32 99.51 C 195.17 96.55 198.28 93.85 201.45 91.25 C 201.70 91.89 202.19 93.16 202.44 93.80 L 201.27 92.12 C 197.95 94.38 196.27 98.10 193.35 100.73 L 192.32 99.51 Z" />
<path fill="#ffffff" opacity="1.00" d=" M 205.28 100.46 C 209.07 97.00 213.33 94.12 217.33 90.92 C 218.22 91.73 219.18 92.46 220.17 93.16 L 220.64 93.43 C 219.02 93.77 217.66 94.57 216.79 96.02 L 216.03 96.10 L 216.17 97.00 C 217.65 95.79 219.16 94.62 220.71 93.50 C 220.54 94.58 220.19 96.74 220.02 97.81 L 219.46 97.04 C 217.78 98.52 216.07 99.98 214.55 101.63 C 213.71 100.34 215.17 98.19 213.12 97.80 C 213.87 96.67 214.77 95.65 215.43 94.46 C 215.64 94.30 216.06 93.99 216.27 93.83 C 216.29 93.76 216.34 93.61 216.37 93.53 L 216.27 93.83 C 216.06 93.99 215.64 94.30 215.43 94.46 C 212.67 95.83 210.42 98.05 207.57 99.29 L 208.04 99.80 C 207.35 99.97 205.97 100.30 205.28 100.46 Z" />
<path fill="#ffffff" opacity="1.00" d=" M 193.99 92.25 C 194.82 91.98 195.17 92.33 195.04 93.31 C 194.85 94.20 192.38 96.69 192.35 94.65 C 192.76 94.05 193.58 92.85 193.99 92.25 Z" />
<path fill="#ffffff" opacity="1.00" d=" M 243.03 97.00 C 244.25 96.30 245.21 94.12 246.70 94.39 C 246.74 95.94 245.50 97.37 244.22 98.13 C 243.31 98.20 242.92 97.83 243.03 97.00 Z" />
<path fill="#ffffff" opacity="1.00" d=" M 244.57 100.90 C 244.80 97.65 248.07 95.42 250.67 93.85 C 250.25 94.55 249.42 95.95 249.01 96.65 C 249.92 96.40 251.75 95.91 252.66 95.67 C 252.75 97.33 252.02 98.64 250.48 99.61 C 249.76 99.12 249.00 98.71 248.21 98.38 L 247.75 98.75 L 247.39 99.22 C 247.67 99.91 248.05 100.56 248.53 101.15 C 247.13 101.84 244.92 102.01 245.08 104.07 C 245.52 103.73 246.42 103.06 246.87 102.73 C 247.97 101.89 249.07 101.06 250.12 100.15 C 253.51 97.71 257.57 96.16 261.46 95.03 C 261.09 95.55 260.34 96.58 259.97 97.10 C 259.51 97.23 258.60 97.49 258.14 97.62 C 257.27 98.44 256.37 99.23 255.44 99.99 C 256.55 102.67 253.02 104.25 250.85 103.44 C 249.02 102.92 247.24 104.79 247.18 106.51 C 248.67 105.94 250.06 105.00 251.74 105.11 C 251.07 105.94 249.74 107.58 249.07 108.40 C 247.53 107.59 245.57 109.02 245.33 110.59 C 246.85 110.51 247.96 109.31 249.07 108.40 C 252.50 106.21 255.16 102.93 259.06 101.45 C 258.02 101.09 256.98 100.72 255.95 100.34 C 257.30 99.29 258.79 98.36 259.97 97.10 C 260.41 97.03 261.29 96.89 261.73 96.82 C 261.03 97.85 261.05 100.34 263.08 99.53 L 262.95 100.80 C 263.96 100.49 264.98 100.20 266.01 99.94 C 264.89 102.28 262.23 103.04 260.43 104.72 L 262.62 104.22 C 262.52 104.94 262.32 106.38 262.22 107.10 C 264.21 105.62 266.12 104.01 268.24 102.71 C 267.68 103.97 266.69 104.96 265.81 106.00 L 265.11 106.01 L 265.22 107.18 L 264.27 107.25 C 261.00 110.01 257.74 112.78 254.21 115.21 C 254.52 114.25 255.16 112.33 255.48 111.37 C 253.63 111.99 254.40 114.03 254.06 115.43 L 253.21 114.05 C 251.82 115.21 250.35 116.23 248.79 117.13 C 249.13 117.64 249.47 118.14 249.82 118.65 C 253.64 116.67 257.16 114.21 260.55 111.59 C 261.20 110.86 263.80 109.98 263.75 111.57 C 262.15 113.01 260.56 114.47 259.09 116.05 C 261.46 114.44 263.62 111.65 266.82 112.39 L 266.42 114.35 C 266.73 113.96 267.35 113.20 267.67 112.82 L 269.21 113.03 L 266.60 111.02 C 267.97 111.15 270.70 111.43 272.07 111.57 C 269.39 114.76 265.12 115.74 261.79 118.03 C 261.57 118.49 261.14 119.40 260.92 119.85 C 261.78 119.45 262.65 119.05 263.52 118.64 C 265.40 115.50 269.72 114.60 272.96 113.90 L 273.77 115.44 C 271.84 116.19 269.86 116.85 267.81 117.21 C 266.84 118.09 265.86 118.97 264.91 119.87 C 267.24 119.21 269.59 118.57 272.00 118.19 C 269.64 120.85 265.69 120.76 262.93 122.86 C 259.29 125.70 255.13 127.73 251.16 130.05 C 250.26 128.63 252.17 127.88 252.86 126.98 C 255.60 124.56 259.30 123.62 262.07 121.22 C 260.13 121.69 257.84 121.87 256.47 123.48 C 254.08 125.97 251.07 127.72 248.44 129.93 C 246.81 129.54 245.24 129.75 243.73 130.58 C 245.99 127.85 249.15 126.16 251.64 123.68 C 253.24 122.97 254.80 122.16 256.36 121.35 C 257.60 120.29 258.95 119.33 259.98 118.05 C 258.39 117.60 256.66 117.12 255.09 117.93 C 253.47 118.90 251.80 119.78 250.10 120.60 C 250.32 121.66 250.62 122.71 251.10 123.68 C 248.86 124.43 246.69 125.41 244.69 126.67 C 239.33 128.39 238.93 135.94 234.09 138.16 C 234.44 137.58 235.14 136.42 235.49 135.85 C 235.04 135.45 234.60 135.05 234.15 134.66 C 233.91 136.52 232.00 137.33 230.68 138.33 C 231.94 135.00 234.62 132.55 236.92 129.93 C 240.42 126.23 242.88 121.38 248.02 119.62 C 248.18 119.10 248.49 118.06 248.64 117.54 C 246.93 118.47 245.16 119.26 243.36 119.99 C 243.70 119.11 244.37 117.34 244.71 116.45 C 243.19 118.48 239.00 119.13 239.31 122.27 L 238.28 122.14 C 238.25 122.69 238.20 123.78 238.18 124.32 C 236.10 126.95 234.09 129.67 231.64 131.97 C 231.12 131.72 230.08 131.23 229.56 130.98 C 229.05 134.12 226.59 136.34 224.57 138.61 C 224.12 138.71 223.23 138.90 222.79 138.99 C 224.77 135.94 227.39 133.38 229.47 130.40 L 230.86 130.97 L 230.49 129.09 C 230.75 128.91 231.28 128.55 231.55 128.37 C 231.67 127.80 231.91 126.67 232.03 126.10 C 232.57 126.81 233.11 127.52 233.68 128.21 C 234.45 126.96 235.29 125.76 236.20 124.61 C 234.19 123.21 236.89 121.73 237.77 120.61 C 237.64 120.11 237.39 119.10 237.26 118.60 C 239.03 116.97 241.02 115.55 242.55 113.67 C 242.62 112.21 242.90 110.80 243.39 109.44 C 243.53 109.35 243.80 109.18 243.93 109.09 C 244.12 108.95 244.50 108.67 244.69 108.53 L 244.20 108.53 L 243.93 109.09 C 243.80 109.18 243.53 109.35 243.39 109.44 C 241.86 110.45 240.19 111.40 238.31 111.46 C 237.15 112.24 236.31 113.26 235.80 114.52 C 235.37 113.67 234.96 112.81 234.57 111.94 L 236.20 112.06 L 236.17 111.37 C 238.47 109.28 240.56 106.99 242.80 104.84 C 241.87 103.16 243.69 101.62 243.26 99.88 L 244.57 100.90 M 259.67 100.21 C 259.95 100.74 259.95 100.74 259.67 100.21 M 244.57 105.36 C 243.08 106.08 242.92 106.76 244.08 107.40 C 245.58 106.66 245.74 105.98 244.57 105.36 M 241.46 108.27 C 242.09 108.86 242.09 108.86 241.46 108.27 M 244.05 111.04 C 244.66 111.74 244.66 111.74 244.05 111.04 M 240.21 128.02 C 240.94 127.31 240.94 127.31 240.21 128.02 M 237.99 130.83 C 239.20 130.70 239.99 129.96 240.34 128.63 L 240.21 128.02 C 238.97 127.95 237.46 129.61 237.99 130.83 M 231.48 129.24 C 231.77 129.56 231.77 129.56 231.48 129.24 M 237.49 130.76 C 236.48 131.68 235.68 132.77 235.08 134.03 C 235.42 134.04 236.10 134.05 236.44 134.05 C 237.62 133.21 238.14 132.13 237.99 130.83 L 237.49 130.76 Z" />
<path fill="#ffffff" opacity="1.00" d=" M 162.27 96.30 C 162.81 96.22 163.90 96.07 164.45 96.00 C 164.80 97.71 160.99 98.34 162.27 96.30 Z" />
<path fill="#ffffff" opacity="1.00" d=" M 190.93 97.06 C 193.28 97.72 190.11 100.51 189.61 101.88 C 189.42 101.45 189.05 100.58 188.86 100.15 C 187.78 101.29 186.68 102.47 185.08 102.82 C 186.48 106.04 183.42 109.03 182.42 111.95 C 181.82 111.39 181.22 110.82 180.64 110.25 C 183.00 106.21 184.83 101.83 188.07 98.37 C 188.61 99.02 189.15 99.68 189.71 100.33 L 189.26 98.18 L 190.49 98.68 C 190.60 98.27 190.82 97.46 190.93 97.06 Z" />
<path fill="#ffffff" opacity="1.00" d=" M 282.75 96.46 C 284.10 96.55 284.74 97.35 284.67 98.86 C 283.33 98.70 282.70 97.90 282.75 96.46 Z" />
<path fill="#ffffff" opacity="1.00" d=" M 208.81 100.66 C 210.22 99.71 211.37 98.13 213.12 97.80 C 213.68 99.38 212.65 101.70 210.83 101.76 L 210.30 101.59 L 209.88 101.09 C 208.40 100.33 206.08 102.90 206.63 104.69 C 206.03 104.40 205.43 104.11 204.84 103.81 C 205.94 102.55 207.90 101.66 208.04 99.80 L 208.81 100.66 Z" />
<path fill="#ffffff" opacity="1.00" d=" M 240.54 99.27 C 241.75 98.84 242.14 99.20 241.74 100.37 C 240.86 101.37 239.97 101.56 239.05 100.93 C 239.43 100.51 240.17 99.68 240.54 99.27 Z" />
<path fill="#ffffff" opacity="1.00" d=" M 267.05 99.70 C 268.52 99.32 270.68 101.38 270.54 102.85 C 269.01 103.11 267.06 101.20 267.05 99.70 Z" />
<path fill="#ffffff" opacity="1.00" d=" M 166.24 104.41 C 167.49 103.33 167.02 100.85 168.86 100.50 C 171.59 101.59 167.18 105.25 166.24 104.41 Z" />
<path fill="#ffffff" opacity="1.00" d=" M 310.35 101.05 C 310.79 101.44 310.79 101.44 310.35 101.05 Z" />
<path fill="#ffffff" opacity="1.00" d=" M 238.07 101.32 C 238.53 101.83 238.98 102.36 239.44 102.88 C 239.05 103.43 238.26 104.54 237.86 105.09 C 238.48 104.53 239.70 103.40 240.31 102.84 C 240.56 103.22 240.79 103.62 241.00 104.03 C 238.86 106.67 237.14 109.67 234.57 111.94 C 232.53 113.58 230.70 116.64 227.69 115.08 C 226.87 116.33 226.35 117.72 226.00 119.16 C 224.02 121.77 221.79 124.18 219.80 126.79 C 217.80 129.37 217.07 132.63 215.36 135.38 C 213.73 137.40 212.60 140.25 209.93 141.08 C 212.14 136.91 215.09 133.18 217.55 129.15 C 217.51 128.66 217.42 127.68 217.38 127.19 C 220.11 123.40 223.40 120.11 226.49 116.67 C 225.77 116.73 224.33 116.85 223.62 116.90 C 226.06 114.41 228.51 111.91 231.08 109.54 L 230.56 108.13 L 231.56 109.22 C 234.09 106.91 236.65 104.50 238.07 101.32 Z" />
<path fill="#ffffff" opacity="1.00" d=" M 296.95 102.33 C 298.40 102.12 299.10 102.71 299.03 104.10 L 298.25 104.19 C 297.92 103.73 297.28 102.80 296.95 102.33 Z" />
<path fill="#ffffff" opacity="1.00" d=" M 184.11 112.15 C 185.90 109.14 186.63 105.51 188.99 102.85 C 188.38 104.66 186.97 106.36 187.59 108.37 C 185.92 111.06 185.81 114.67 183.57 116.89 C 183.56 115.31 183.14 113.56 184.11 112.15 Z" />
<path fill="#ffffff" opacity="1.00" d=" M 211.27 103.31 C 211.48 103.39 211.92 103.55 212.13 103.63 C 208.31 107.96 202.99 110.56 197.84 112.95 C 198.24 111.13 200.25 110.69 201.57 109.72 C 204.97 107.83 207.77 105.03 211.27 103.31 Z" />
<path fill="#ffffff" opacity="1.00" d=" M 166.16 114.42 C 168.38 110.77 170.75 107.03 173.98 104.19 C 172.94 105.86 171.71 107.40 170.62 109.04 C 174.07 108.70 175.80 105.43 178.80 104.17 C 177.44 105.96 174.87 107.56 176.70 109.95 C 177.25 109.18 178.34 107.65 178.89 106.88 C 178.36 107.92 177.80 108.93 177.20 109.92 C 177.27 110.53 177.43 111.74 177.51 112.35 C 176.72 115.93 174.62 118.98 172.88 122.15 C 172.17 123.33 171.65 124.74 170.27 125.30 C 170.87 123.54 171.55 121.81 172.14 120.05 C 171.46 120.47 170.09 121.32 169.41 121.75 C 170.09 119.58 171.28 117.64 172.56 115.80 C 172.11 115.48 171.66 115.16 171.21 114.84 C 170.38 116.45 169.33 117.94 168.03 119.21 C 167.94 117.16 169.42 115.58 170.25 113.84 L 168.08 115.11 C 167.60 114.93 166.64 114.59 166.16 114.42 M 175.27 109.03 C 174.09 110.95 172.91 112.87 171.73 114.79 C 172.53 114.50 174.13 113.91 174.93 113.61 L 174.01 116.22 C 175.79 114.19 177.38 111.40 175.27 109.03 Z" />
<path fill="#ffffff" opacity="1.00" d=" M 267.01 105.91 C 267.91 105.33 268.81 104.76 269.71 104.18 L 269.29 105.47 C 269.60 105.61 270.21 105.87 270.51 106.00 C 269.24 107.33 268.88 109.14 268.53 110.87 C 266.46 111.28 264.63 110.21 263.11 108.93 C 263.99 108.90 265.76 108.84 266.64 108.81 C 267.76 108.08 267.76 106.92 267.01 105.91 Z" />
<path fill="#ffffff" opacity="1.00" d=" M 271.94 107.28 C 274.73 105.66 277.94 105.18 281.01 104.38 C 281.02 106.50 278.58 105.51 277.23 105.93 C 275.90 106.48 274.87 107.51 273.91 108.54 L 275.67 108.50 C 275.19 109.13 274.23 110.39 273.75 111.02 L 276.01 110.12 C 275.88 110.56 275.61 111.43 275.47 111.86 C 277.10 112.55 278.74 113.20 280.44 113.68 C 280.48 114.63 280.50 115.58 280.49 116.53 C 277.25 118.55 273.34 119.82 271.03 123.02 C 269.09 124.81 266.54 125.77 264.39 127.26 C 264.18 126.83 263.77 125.95 263.56 125.51 C 260.81 127.35 258.08 129.53 254.67 129.91 C 257.31 126.56 261.42 124.75 265.26 123.04 C 265.37 123.59 265.60 124.69 265.72 125.24 L 265.70 123.57 C 266.19 123.62 267.16 123.72 267.65 123.77 L 267.47 122.71 C 269.93 123.43 270.36 120.93 271.41 119.42 C 273.24 116.90 277.43 117.43 279.19 115.05 C 277.87 114.67 276.53 114.40 275.23 113.99 C 274.61 112.57 273.69 111.31 272.51 110.31 L 273.31 110.38 C 272.84 109.35 272.37 108.33 271.94 107.28 Z" />
<path fill="#ffffff" opacity="1.00" d=" M 299.03 104.10 L 299.68 104.05 C 300.09 104.64 300.93 105.82 301.34 106.41 C 300.78 106.01 299.67 105.23 299.12 104.83 L 299.03 104.10 Z" />
<path fill="#ffffff" opacity="1.00" d=" M 301.77 104.24 C 302.79 103.33 304.51 105.25 303.78 106.32 C 303.28 105.80 302.27 104.76 301.77 104.24 Z" />
<path fill="#ffffff" opacity="1.00" d=" M 291.07 105.06 C 292.40 104.52 293.82 105.58 294.82 106.37 C 294.82 106.64 294.83 107.19 294.83 107.46 C 293.54 107.61 291.02 106.56 291.07 105.06 Z" />
<path fill="#ffffff" opacity="1.00" d=" M 304.32 107.21 C 304.91 107.85 304.91 107.85 304.32 107.21 Z" />
<path fill="#ffffff" opacity="1.00" d=" M 281.95 109.22 C 283.54 108.70 284.06 109.25 283.52 110.87 C 281.89 111.43 281.37 110.87 281.95 109.22 Z" />
<path fill="#ffffff" opacity="1.00" d=" M 188.36 109.78 C 189.57 110.46 188.38 112.90 187.83 113.93 L 187.38 113.90 C 186.43 112.60 187.27 110.72 188.36 109.78 Z" />
<path fill="#ffffff" opacity="1.00" d=" M 269.23 109.96 C 269.87 110.65 269.87 110.65 269.23 109.96 Z" />
<path fill="#ffffff" opacity="1.00" d=" M 318.48 110.19 C 319.13 110.87 319.13 110.87 318.48 110.19 Z" />
<path fill="#ffffff" opacity="1.00" d=" M 228.48 122.07 C 232.57 118.55 236.13 114.40 240.63 111.36 C 241.23 111.88 241.82 112.41 242.42 112.95 C 238.57 114.42 235.73 117.28 232.86 120.07 C 233.15 120.63 233.44 121.18 233.74 121.73 L 235.11 119.72 L 237.26 118.51 C 236.00 120.84 234.18 122.82 232.08 124.43 C 232.11 123.55 232.18 121.79 232.21 120.91 C 230.09 125.33 226.76 128.98 223.17 132.25 C 219.98 135.27 218.12 139.45 214.82 142.34 C 216.03 139.29 218.21 136.75 219.93 133.98 C 221.54 131.06 224.74 129.61 226.42 126.74 L 224.34 127.20 C 225.48 125.77 226.60 124.33 227.77 122.94 C 227.51 123.77 227.00 125.43 226.74 126.27 C 226.40 126.64 226.40 126.64 226.74 126.27 C 227.90 125.42 229.06 124.56 230.20 123.69 C 229.62 123.15 229.05 122.61 228.48 122.07 Z" />
<path fill="#ffffff" opacity="1.00" d=" M 174.58 123.61 C 176.57 119.79 179.06 116.28 181.96 113.10 C 181.85 114.22 181.37 115.12 180.53 115.79 C 180.20 118.63 179.60 121.55 177.86 123.90 C 175.34 126.96 174.84 131.03 173.25 134.57 C 172.95 134.44 172.35 134.17 172.04 134.04 C 173.43 131.41 173.63 128.38 174.92 125.72 C 174.81 125.01 174.69 124.31 174.58 123.61 Z" />
<path fill="#ffffff" opacity="1.00" d=" M 186.41 113.00 L 187.38 113.90 C 187.56 115.56 187.69 117.22 187.76 118.88 L 186.60 118.66 C 186.49 119.18 186.28 120.21 186.17 120.73 L 186.36 120.66 C 186.94 120.18 188.10 119.22 188.68 118.74 C 188.70 121.46 186.94 122.93 184.63 123.80 C 183.76 122.11 183.17 120.34 183.27 118.43 L 184.59 118.85 C 185.16 116.89 185.77 114.94 186.41 113.00 Z" />
<path fill="#ffffff" opacity="1.00" d=" M 232.47 116.11 C 231.45 115.10 233.46 113.45 234.50 114.03 C 233.99 114.55 232.97 115.59 232.47 116.11 Z" />
<path fill="#ffffff" opacity="1.00" d=" M 188.21 115.53 L 188.95 115.49 C 188.95 115.91 188.96 116.75 188.96 117.16 L 188.22 117.20 C 188.21 116.79 188.21 115.95 188.21 115.53 Z" />
<path fill="#ffffff" opacity="1.00" d=" M 280.04 124.03 C 281.41 121.78 282.35 118.95 284.86 117.70 C 283.65 121.25 281.44 124.31 279.68 127.59 L 278.66 127.45 C 280.89 128.85 280.33 132.72 277.13 131.55 C 276.94 131.96 276.58 132.80 276.39 133.22 C 275.52 133.64 273.77 134.47 272.89 134.88 C 275.45 131.38 278.12 127.94 280.04 124.03 Z" />
<path fill="#ffffff" opacity="1.00" d=" M 287.24 117.55 C 289.32 117.95 291.36 118.87 293.54 118.52 C 293.30 119.66 293.05 120.80 292.79 121.94 L 293.99 122.22 L 293.72 123.36 C 292.37 122.51 290.29 121.85 291.59 119.90 C 290.09 119.26 288.01 119.24 287.24 117.55 Z" />
<path fill="#ffffff" opacity="1.00" d=" M 255.20 119.56 C 256.05 118.93 256.05 118.93 255.20 119.56 Z" />
<path fill="#ffffff" opacity="1.00" d=" M 251.44 120.99 C 252.66 120.38 253.91 119.90 255.20 119.56 C 254.55 120.85 253.53 121.79 252.15 122.37 C 251.18 122.21 250.94 121.75 251.44 120.99 Z" />
<path fill="#ffffff" opacity="1.00" d=" M 278.64 120.16 C 278.98 120.17 279.66 120.19 280.01 120.20 C 279.25 124.29 275.30 126.79 274.54 130.77 C 273.74 131.95 272.93 133.13 272.21 134.36 C 271.16 135.78 269.87 137.05 269.20 138.72 C 268.23 138.27 266.03 137.89 266.96 136.33 C 271.15 131.86 273.27 126.03 276.65 121.02 C 276.60 121.71 276.50 123.09 276.46 123.78 C 277.76 122.98 278.32 121.59 278.64 120.16 Z" />
<path fill="#ffffff" opacity="1.00" d=" M 281.66 126.12 C 283.31 123.94 284.98 121.75 287.01 119.89 C 286.33 122.40 284.96 124.66 283.18 126.55 C 282.85 126.69 282.20 126.99 281.87 127.14 C 281.82 126.88 281.71 126.37 281.66 126.12 Z" />
<path fill="#ffffff" opacity="1.00" d=" M 212.06 121.91 C 212.76 121.46 212.76 121.46 212.06 121.91 Z" />
<path fill="#ffffff" opacity="1.00" d=" M 178.12 134.07 C 178.50 129.32 180.05 124.47 182.88 120.64 C 183.10 121.50 183.54 123.20 183.76 124.06 C 182.70 126.42 182.07 128.92 181.52 131.44 C 181.03 131.45 180.05 131.48 179.57 131.49 C 179.10 132.36 178.62 133.22 178.12 134.07 Z" />
<path fill="#ffffff" opacity="1.00" d=" M 189.73 123.56 C 190.17 123.14 191.07 122.31 191.51 121.89 C 191.62 123.18 191.85 125.76 191.96 127.06 L 190.44 126.35 C 190.52 127.21 190.67 128.93 190.74 129.79 L 188.95 129.41 C 189.59 129.79 190.22 130.18 190.86 130.56 C 190.46 130.50 189.67 130.38 189.27 130.32 C 189.40 131.97 188.07 132.95 187.12 134.03 C 187.40 130.43 188.56 126.95 189.73 123.56 Z" />
<path fill="#ffffff" opacity="1.00" d=" M 287.57 123.57 C 288.12 123.61 289.23 123.70 289.78 123.74 C 289.76 123.85 289.71 124.08 289.69 124.19 C 286.61 126.37 283.91 129.30 281.59 132.28 C 280.92 130.84 281.38 129.28 281.61 127.79 C 284.36 127.88 285.47 124.86 287.57 123.57 Z" />
<path fill="#ffffff" opacity="1.00" d=" M 183.40 130.49 C 183.66 127.93 184.78 125.56 185.84 123.25 L 187.05 123.79 C 186.13 126.35 185.37 128.98 185.02 131.68 C 184.47 131.30 183.93 130.90 183.40 130.49 Z" />
<path fill="#ffffff" opacity="1.00" d=" M 269.93 128.45 C 270.13 126.83 271.22 124.10 272.94 123.84 C 272.99 125.51 271.54 128.07 269.93 128.45 Z" />
<path fill="#ffffff" opacity="1.00" d=" M 298.00 124.25 C 300.95 124.62 303.22 126.80 305.90 127.91 C 304.41 126.60 302.89 125.30 301.58 123.80 C 305.74 123.23 308.87 127.15 311.22 130.06 C 310.28 130.12 308.41 130.24 307.48 130.30 C 306.74 130.94 306.01 131.58 305.27 132.21 C 304.72 132.43 303.61 132.89 303.06 133.11 C 301.95 132.48 300.82 131.88 299.77 131.16 C 300.32 130.30 300.88 129.45 301.46 128.61 L 304.49 129.29 C 302.47 127.44 299.55 126.61 298.00 124.25 Z" />
<path fill="#ffffff" opacity="1.00" d=" M 286.40 129.51 C 289.07 127.68 291.84 125.77 295.12 125.26 C 292.29 128.53 287.55 129.34 284.76 132.68 C 282.37 135.53 279.11 137.79 277.74 141.39 L 277.46 141.50 C 277.53 141.47 277.67 141.42 277.74 141.39 C 278.86 140.56 279.78 139.55 280.50 138.36 L 281.29 139.65 L 280.87 137.46 L 282.31 138.54 C 282.68 135.73 285.79 134.36 287.36 132.19 C 288.00 130.94 289.09 131.36 289.54 132.50 C 291.00 131.55 292.46 130.56 294.09 129.88 C 292.80 131.61 291.03 133.93 288.65 133.66 C 289.31 135.37 287.20 136.22 286.35 137.34 C 283.45 139.63 282.16 143.29 279.30 145.61 L 278.88 144.33 L 279.90 143.58 C 279.93 142.97 279.98 141.74 280.01 141.12 C 278.64 142.38 277.45 143.84 276.76 145.59 C 276.24 144.60 275.76 143.59 275.25 142.60 C 274.70 144.80 272.85 146.28 271.87 148.27 C 270.26 147.12 267.92 148.23 266.63 146.24 C 265.97 146.70 264.65 147.63 263.99 148.09 C 264.41 144.97 267.99 143.51 268.54 140.39 L 268.76 141.38 C 270.09 140.03 271.26 138.52 271.89 136.71 C 272.75 136.35 274.47 135.63 275.33 135.27 C 274.02 137.26 272.55 139.16 270.59 140.53 C 270.01 141.25 269.43 141.97 268.86 142.70 L 271.37 142.33 C 270.75 143.05 269.52 144.50 268.90 145.23 C 269.18 145.58 269.46 145.94 269.76 146.30 C 270.56 145.03 271.41 143.80 272.30 142.59 C 273.56 145.02 274.78 141.87 276.05 141.15 C 278.29 136.35 282.17 132.60 286.40 129.51 Z" />
<path fill="#ffffff" opacity="1.00" d=" M 281.87 127.14 C 281.44 127.56 281.44 127.56 281.87 127.14 Z" />
<path fill="#ffffff" opacity="1.00" d=" M 265.71 130.64 C 266.62 129.42 268.46 126.97 269.38 125.75 C 268.59 127.49 267.01 130.97 266.23 132.71 L 269.32 128.75 C 269.67 129.23 270.03 129.72 270.39 130.21 C 269.15 133.34 264.13 135.81 266.15 139.54 C 264.20 139.73 262.09 139.21 260.22 139.86 C 258.71 142.19 257.68 144.97 255.42 146.71 C 257.11 143.71 258.73 140.56 261.25 138.15 C 262.43 136.05 265.07 133.67 263.33 131.20 C 262.44 133.82 260.89 136.42 258.56 137.99 C 258.25 136.17 259.79 135.00 260.66 133.66 C 262.00 131.86 263.28 130.01 264.39 128.06 C 264.80 128.93 265.24 129.79 265.71 130.64 Z" />
<path fill="#ffffff" opacity="1.00" d=" M 238.08 137.77 C 239.64 135.05 242.01 132.92 243.66 130.25 C 243.75 130.72 243.94 131.66 244.03 132.13 C 242.59 131.85 241.68 133.48 241.85 134.72 C 240.71 135.88 239.76 137.37 238.08 137.77 Z" />
<path fill="#ffffff" opacity="1.00" d=" M 247.70 132.36 C 248.68 131.49 249.47 129.31 251.16 130.05 L 249.87 130.98 C 250.15 131.58 250.43 132.17 250.72 132.76 C 251.53 132.29 253.16 131.35 253.98 130.87 C 249.01 136.17 245.18 142.36 240.24 147.68 L 239.95 145.93 L 239.23 146.19 L 240.08 147.55 C 237.78 146.98 237.11 149.80 235.32 150.51 C 237.14 147.55 239.01 143.35 242.66 142.50 L 242.63 141.70 C 245.77 139.83 247.00 136.07 249.69 133.70 C 249.11 133.40 248.53 133.11 247.96 132.82 C 247.76 133.25 247.38 134.09 247.19 134.51 C 246.52 133.92 245.85 133.32 245.18 132.74 C 244.58 134.36 243.44 135.67 242.39 137.00 C 242.26 136.43 241.99 135.29 241.85 134.72 L 242.46 134.93 C 242.86 134.39 243.68 133.29 244.09 132.75 L 244.03 132.13 C 245.25 132.22 246.47 132.30 247.70 132.36 Z" />
<path fill="#ffffff" opacity="1.00" d=" M 255.29 135.40 C 257.32 133.40 258.66 130.64 261.32 129.38 C 260.04 132.61 258.21 135.83 255.80 138.32 C 256.68 138.81 257.59 139.25 258.46 139.77 C 257.08 140.80 255.65 142.76 254.13 140.91 C 253.05 143.64 251.78 146.68 249.00 148.06 C 250.18 145.20 251.76 142.50 253.82 140.18 C 253.01 140.48 251.41 141.09 250.60 141.39 C 251.01 140.65 251.82 139.15 252.23 138.40 C 253.71 141.66 256.46 137.36 255.29 135.40 Z" />
<path fill="#ffffff" opacity="1.00" d=" M 326.97 138.12 C 337.76 135.09 348.41 130.96 359.71 130.24 L 359.78 130.70 C 348.09 131.96 336.75 135.41 326.04 140.18 C 326.78 140.62 327.54 141.07 328.30 141.51 C 331.14 141.69 334.82 139.48 337.15 141.58 C 333.77 142.12 330.38 142.59 327.03 143.23 C 326.48 142.27 325.92 141.32 325.33 140.39 C 325.88 139.63 326.42 138.87 326.97 138.12 Z" />
<path fill="#ffffff" opacity="1.00" d=" M 288.51 137.37 C 290.70 135.07 293.19 133.08 295.74 131.19 C 296.59 132.05 297.47 132.89 298.38 133.70 L 296.24 133.16 L 296.64 136.41 C 298.09 135.32 299.53 134.19 301.06 133.19 C 300.32 135.56 294.95 136.47 298.42 138.83 C 298.15 142.39 295.20 144.27 292.34 145.77 C 291.93 145.95 291.11 146.30 290.71 146.48 C 292.07 144.65 294.03 143.40 295.48 141.65 C 294.38 141.81 292.17 142.14 291.06 142.31 C 291.29 141.73 291.74 140.56 291.97 139.98 C 291.47 140.30 290.47 140.96 289.97 141.29 L 291.39 142.98 C 288.73 141.17 286.71 144.64 284.05 144.19 L 284.98 146.17 L 283.23 145.08 C 284.41 147.02 283.03 148.91 282.26 150.67 C 282.91 150.60 284.19 150.46 284.83 150.39 C 283.55 151.58 282.32 152.82 280.99 153.93 C 280.57 153.05 280.38 152.15 280.43 151.21 L 280.64 150.77 L 280.28 150.48 L 279.23 150.47 C 279.72 149.01 281.09 148.20 282.11 147.16 C 281.49 147.14 280.24 147.11 279.61 147.09 C 281.79 144.41 284.64 142.44 287.36 140.37 C 287.66 140.56 288.28 140.95 288.59 141.15 C 291.09 139.01 293.48 136.73 296.13 134.76 C 295.81 134.39 295.49 134.03 295.17 133.67 C 293.23 135.67 291.13 137.51 288.99 139.30 C 288.87 138.82 288.63 137.85 288.51 137.37 M 293.36 139.65 C 294.78 139.71 296.70 138.06 296.54 136.60 C 295.20 136.67 293.04 138.22 293.36 139.65 Z" />
<path fill="#ffffff" opacity="1.00" d=" M 254.54 133.85 C 255.02 133.22 255.02 133.22 254.54 133.85 Z" />
<path fill="#ffffff" opacity="1.00" d=" M 279.26 132.34 C 279.53 132.82 279.80 133.30 280.07 133.79 C 278.45 136.48 276.12 138.73 274.85 141.62 C 272.56 139.81 274.43 137.23 275.57 135.37 L 276.17 135.40 C 277.20 134.38 278.23 133.36 279.26 132.34 Z" />
<path fill="#ffffff" opacity="1.00" d=" M 242.29 148.36 C 245.98 143.23 249.60 137.85 254.54 133.85 C 253.25 135.76 251.66 137.43 250.15 139.16 C 248.14 142.57 246.11 146.11 243.21 148.84 L 242.29 148.36 Z" />
<path fill="#ffffff" opacity="1.00" d=" M 183.59 139.40 C 185.12 138.37 185.94 136.73 186.70 135.13 C 185.96 136.44 186.12 139.54 188.21 138.50 C 188.77 137.61 189.34 136.72 189.92 135.85 C 189.24 139.30 186.77 141.95 185.20 145.00 C 184.06 147.69 181.05 148.70 179.44 151.04 C 178.61 146.79 180.57 142.93 183.29 139.78 L 183.08 142.63 C 183.65 141.91 184.78 140.47 185.35 139.75 C 185.41 140.29 185.54 141.36 185.60 141.90 C 185.90 141.56 186.50 140.88 186.81 140.54 C 186.14 139.59 185.07 139.21 183.59 139.40 Z" />
<path fill="#ffffff" opacity="1.00" d=" M 303.02 138.42 C 303.83 137.52 304.44 136.25 305.71 135.93 C 306.91 136.72 308.16 136.91 309.46 136.51 C 310.59 136.80 311.73 137.06 312.88 137.30 C 313.63 138.80 314.32 140.32 315.01 141.86 L 312.91 141.46 C 313.39 138.96 310.22 138.92 308.90 139.93 C 309.09 139.42 309.46 138.38 309.65 137.86 C 309.34 138.16 308.73 138.74 308.43 139.03 C 307.35 136.02 304.43 138.34 305.18 140.65 C 304.47 139.89 303.73 139.16 303.02 138.42 Z" />
<path fill="#ffffff" opacity="1.00" d=" M 314.16 137.31 C 316.46 137.20 318.74 137.88 320.58 136.09 C 320.68 136.70 320.88 137.91 320.98 138.52 L 322.36 138.77 C 322.32 137.92 322.25 136.21 322.22 135.36 C 323.36 136.66 324.55 141.20 321.59 140.52 C 321.92 142.81 321.90 145.18 320.99 147.34 C 320.71 146.76 320.14 145.61 319.86 145.03 C 319.05 146.09 319.06 148.96 316.88 147.43 C 316.50 143.98 316.56 140.09 314.16 137.31 Z" />
<path fill="#ffffff" opacity="1.00" d=" M 258.56 137.99 C 258.24 137.95 258.24 137.95 258.56 137.99 Z" />
<path fill="#ffffff" opacity="1.00" d=" M 236.80 142.37 C 237.93 141.23 238.95 139.99 240.18 138.95 C 238.69 141.54 236.87 143.92 235.25 146.43 C 234.10 146.41 232.96 146.39 231.82 146.38 C 232.54 145.54 233.33 144.76 234.35 144.29 C 233.88 142.48 235.83 142.89 236.80 142.37 Z" />
<path fill="#ffffff" opacity="1.00" d=" M 266.55 137.63 C 267.22 138.54 267.88 139.46 268.54 140.39 C 266.69 141.54 265.59 143.51 264.03 144.99 C 264.18 144.05 264.47 142.17 264.62 141.23 L 265.64 141.74 C 265.87 140.71 266.32 138.65 266.55 137.63 Z" />
<path fill="#ffffff" opacity="1.00" d=" M 164.83 146.16 C 166.12 144.23 167.30 142.03 169.47 140.96 C 170.01 144.05 168.47 146.91 166.29 148.97 C 166.07 148.27 165.62 146.87 165.40 146.17 L 164.83 146.16 Z" />
<path fill="#ffffff" opacity="1.00" d=" M 174.42 143.23 C 174.73 142.95 175.36 142.38 175.68 142.10 C 178.55 143.39 176.68 145.40 175.66 147.30 C 176.38 146.73 177.83 145.57 178.55 145.00 C 178.16 145.72 177.39 147.18 177.00 147.90 C 175.86 150.74 174.90 153.67 173.50 156.40 C 172.96 156.36 171.87 156.28 171.32 156.25 C 171.10 157.81 172.25 160.37 170.21 161.16 C 170.31 160.20 170.50 158.29 170.59 157.34 L 169.00 157.74 C 169.31 156.76 169.62 155.77 169.93 154.79 C 169.77 154.24 169.46 153.16 169.31 152.62 C 168.78 152.65 167.74 152.71 167.22 152.74 C 168.16 150.83 169.13 148.94 170.13 147.07 C 170.61 147.27 171.57 147.68 172.05 147.88 C 172.40 146.08 172.45 144.04 174.42 143.23 M 174.15 144.79 C 174.75 145.51 174.75 145.51 174.15 144.79 Z" />
<path fill="#ffffff" opacity="1.00" d=" M 313.42 143.67 C 313.96 143.26 315.04 142.42 315.59 142.01 C 315.60 144.46 316.08 146.90 315.70 149.35 C 315.51 148.50 315.14 146.80 314.96 145.94 C 314.61 146.38 313.92 147.25 313.58 147.69 C 312.10 147.58 310.75 147.07 309.65 146.06 C 309.61 146.82 309.53 148.34 309.49 149.10 C 308.28 148.42 304.98 145.93 307.66 145.13 C 308.02 145.50 308.73 146.24 309.09 146.61 C 309.87 145.28 311.07 144.95 312.67 145.64 C 312.53 145.03 312.26 143.81 312.12 143.20 L 313.42 143.67 Z" />
<path fill="#ffffff" opacity="1.00" d=" M 192.07 151.01 C 192.65 148.36 194.23 146.13 195.90 144.04 C 194.76 146.33 194.73 149.97 192.07 151.01 Z" />
<path fill="#ffffff" opacity="1.00" d=" M 292.34 145.77 C 295.22 145.98 297.48 143.71 300.17 143.03 C 298.12 146.72 293.45 149.09 289.31 149.01 C 290.24 147.81 291.14 146.33 292.91 146.64 L 292.34 145.77 Z" />
<path fill="#ffffff" opacity="1.00" d=" M 224.16 149.80 C 225.10 148.01 225.66 145.54 227.83 144.90 C 226.95 146.76 225.91 148.62 224.16 149.80 Z" />
<path fill="#ffffff" opacity="1.00" d=" M 278.34 144.85 L 279.30 145.61 C 277.97 147.16 276.87 148.98 275.14 150.12 C 275.58 148.03 277.08 146.48 278.34 144.85 Z" />
<path fill="#ffffff" opacity="1.00" d=" M 254.20 154.25 C 256.25 151.46 258.04 148.32 260.81 146.17 C 259.27 149.38 255.88 151.60 255.04 155.07 L 254.65 155.04 L 254.44 155.34 C 254.37 155.43 254.21 155.63 254.14 155.72 C 253.38 156.48 252.69 157.30 252.07 158.17 C 253.81 159.82 252.03 160.96 250.66 161.95 L 250.98 159.85 C 249.77 160.81 248.64 161.86 247.33 162.68 C 248.97 159.49 251.42 156.49 254.20 154.25 Z" />
<path fill="#ffffff" opacity="1.00" d=" M 274.04 145.75 C 274.54 146.11 275.04 146.48 275.54 146.85 C 272.89 149.50 271.68 153.23 268.56 155.50 C 265.15 158.03 263.27 162.65 259.09 164.01 C 259.49 163.36 260.29 162.06 260.68 161.42 C 260.90 161.45 261.34 161.50 261.56 161.53 C 261.90 161.12 262.59 160.31 262.93 159.90 L 261.67 157.12 L 263.73 159.08 C 264.71 157.75 265.73 156.45 266.77 155.16 C 266.31 155.06 265.38 154.88 264.92 154.79 C 265.95 153.71 266.93 152.58 267.94 151.47 L 266.28 150.30 C 268.16 150.72 269.57 148.44 271.41 149.48 C 270.11 150.64 268.87 151.87 267.69 153.16 C 268.41 153.62 269.30 155.02 269.69 152.78 C 271.32 150.57 273.37 148.49 274.04 145.75 Z" />
<path fill="#ffffff" opacity="1.00" d=" M 299.12 145.88 L 300.59 146.07 C 299.84 147.97 298.43 149.75 298.66 151.90 C 297.79 151.93 297.04 151.62 296.40 150.99 L 297.83 154.36 L 295.12 152.54 C 296.64 153.69 294.71 154.37 293.71 154.78 C 293.85 154.97 294.14 155.37 294.28 155.57 C 295.37 153.80 298.86 154.35 299.35 156.53 L 297.60 151.80 L 299.62 153.87 C 299.43 151.80 299.52 149.63 300.78 147.90 C 302.53 149.81 304.24 151.81 305.50 154.09 C 307.06 155.06 308.61 156.04 310.16 157.03 C 309.89 158.60 309.55 160.15 309.19 161.70 L 307.47 161.60 C 307.57 160.97 307.77 159.71 307.87 159.08 L 307.39 159.19 C 307.44 163.45 303.66 166.20 301.24 169.22 C 303.35 165.03 305.84 160.78 306.87 156.22 C 306.49 156.37 305.74 156.67 305.37 156.82 L 305.15 156.11 C 305.06 155.79 304.89 155.13 304.80 154.81 L 303.89 154.54 C 303.19 158.18 300.11 160.42 298.42 163.53 C 297.19 165.79 294.28 167.07 294.34 169.94 C 293.96 171.63 292.73 174.92 290.43 173.41 C 290.05 173.87 289.28 174.79 288.89 175.25 C 288.10 172.55 288.71 169.63 291.86 168.92 C 291.66 169.76 291.26 171.44 291.06 172.28 C 293.21 170.52 294.00 167.76 295.68 165.62 C 296.84 163.83 298.53 162.13 298.03 159.73 C 296.29 161.53 294.98 163.79 292.85 165.18 C 295.07 162.08 293.99 157.69 298.21 155.77 C 295.64 156.31 293.26 158.60 290.74 156.59 C 288.33 156.87 286.24 158.86 283.81 159.42 C 284.18 158.97 284.93 158.07 285.30 157.62 C 285.10 157.31 284.68 156.70 284.48 156.39 C 286.22 155.17 291.03 155.18 289.17 152.07 C 289.68 151.90 290.70 151.57 291.21 151.40 C 292.12 148.12 296.43 147.45 299.12 145.88 Z" />
<path fill="#ffffff" opacity="1.00" d=" M 324.41 147.13 C 326.88 147.94 329.51 147.57 332.05 148.06 C 339.13 149.28 346.00 151.44 352.95 153.22 C 354.09 153.57 355.47 153.60 356.27 154.64 C 349.42 153.18 342.77 150.91 335.93 149.44 C 332.76 149.11 329.53 149.61 326.42 148.72 L 325.80 149.53 C 325.49 150.95 324.91 152.27 323.28 152.54 C 323.42 153.10 323.70 154.23 323.84 154.79 C 328.85 158.37 334.70 160.43 340.17 163.15 C 342.28 164.19 344.47 165.08 346.74 165.71 C 346.75 165.96 346.78 166.45 346.79 166.70 C 342.87 165.09 338.95 163.46 335.17 161.54 C 331.41 159.59 327.13 158.83 323.56 156.46 C 322.33 156.88 321.11 157.32 319.93 157.84 L 321.81 158.83 C 321.16 159.06 319.86 159.53 319.21 159.76 C 319.31 160.35 319.51 161.54 319.61 162.13 C 317.18 161.77 317.87 158.41 316.78 156.73 C 320.08 156.53 321.31 153.46 323.46 151.53 C 323.35 151.14 323.14 150.34 323.04 149.94 C 323.33 149.71 323.92 149.24 324.22 149.00 C 324.27 148.53 324.36 147.60 324.41 147.13 Z" />
<path fill="#ffffff" opacity="1.00" d=" M 185.45 148.27 L 186.01 148.40 C 185.46 149.63 184.89 150.85 184.31 152.06 C 184.90 152.52 185.48 152.98 186.07 153.45 L 187.03 151.71 C 186.29 153.97 185.64 156.28 184.54 158.40 L 184.78 154.59 C 184.08 155.45 182.67 157.17 181.96 158.02 C 182.19 154.49 183.96 151.39 185.45 148.27 M 184.25 154.25 C 184.53 154.53 184.53 154.53 184.25 154.25 Z" />
<path fill="#ffffff" opacity="1.00" d=" M 263.64 151.97 C 261.77 151.03 265.70 146.12 266.40 149.13 C 265.77 150.38 264.85 151.32 263.64 151.97 Z" />
<path fill="#ffffff" opacity="1.00" d=" M 182.34 148.93 L 183.05 148.94 C 183.00 149.35 182.91 150.19 182.86 150.60 L 182.10 150.65 C 182.16 150.22 182.28 149.36 182.34 148.93 Z" />
<path fill="#ffffff" opacity="1.00" d=" M 181.57 150.71 L 182.10 150.65 C 182.62 151.95 181.91 154.71 180.33 154.70 C 180.08 153.32 180.77 151.81 181.57 150.71 Z" />
<path fill="#ffffff" opacity="1.00" d=" M 258.03 153.29 C 258.66 152.45 258.66 152.45 258.03 153.29 Z" />
<path fill="#ffffff" opacity="1.00" d=" M 176.62 153.51 C 177.22 153.45 178.41 153.35 179.01 153.29 C 178.47 155.39 179.11 158.51 176.74 159.59 C 176.76 158.71 176.79 156.95 176.81 156.07 C 176.01 157.83 175.65 159.98 173.66 160.87 C 174.24 158.27 175.44 155.87 176.62 153.51 Z" />
<path fill="#ffffff" opacity="1.00" d=" M 211.44 156.77 C 213.32 156.26 213.83 154.29 214.85 152.87 C 214.64 154.82 213.68 156.55 212.29 157.90 C 212.39 158.32 212.59 159.16 212.69 159.58 L 210.87 159.31 C 211.48 160.89 212.10 162.49 212.85 164.03 C 212.54 160.97 215.22 159.09 216.91 156.97 C 215.72 159.57 214.45 162.12 213.28 164.72 C 211.90 163.80 208.85 163.69 210.81 160.93 C 210.11 161.70 208.72 163.23 208.02 163.99 C 208.67 162.59 209.03 160.82 210.58 160.10 C 210.53 159.71 210.44 158.93 210.40 158.53 L 211.94 158.61 C 211.82 158.15 211.57 157.23 211.44 156.77 Z" />
<path fill="#ffffff" opacity="1.00" d=" M 242.41 154.62 C 243.53 154.34 244.61 153.92 245.70 153.53 C 244.70 154.61 244.24 156.70 242.42 156.50 C 243.77 158.94 240.26 158.55 238.98 158.89 C 238.84 158.56 238.57 157.92 238.43 157.60 C 237.81 158.14 236.58 159.23 235.96 159.78 C 236.79 158.46 237.71 157.20 238.64 155.95 L 238.52 157.61 L 240.09 157.55 C 240.33 156.89 240.80 155.57 241.03 154.91 L 243.04 156.40 L 242.41 154.62 Z" />
<path fill="#ffffff" opacity="1.00" d=" M 255.04 155.07 C 255.79 154.62 257.28 153.73 258.03 153.29 C 257.88 153.76 257.57 154.71 257.42 155.19 L 256.93 155.67 L 256.88 156.22 C 256.66 156.39 256.20 156.72 255.97 156.89 C 255.51 156.60 254.59 156.01 254.14 155.72 C 254.21 155.63 254.37 155.43 254.44 155.34 L 254.67 155.41 L 255.04 155.07 Z" />
<path fill="#ffffff" opacity="1.00" d=" M 258.41 155.56 C 259.20 154.55 260.10 153.65 261.12 152.88 C 258.70 156.24 256.30 159.87 252.76 162.16 C 253.10 160.07 254.98 158.94 256.32 157.54 L 255.97 156.89 L 256.70 156.92 L 256.88 156.22 L 257.57 155.87 L 257.42 155.19 L 258.41 155.56 Z" />
<path fill="#ffffff" opacity="1.00" d=" M 272.00 158.02 C 273.60 156.28 275.18 154.52 277.06 153.09 C 276.05 155.11 274.05 156.41 273.07 158.45 L 272.66 158.75 L 272.89 159.35 L 272.22 159.24 L 271.77 159.81 L 271.11 160.17 L 270.98 160.89 L 270.20 161.19 L 270.04 161.99 L 269.15 162.08 L 268.72 162.98 C 268.48 163.22 268.02 163.70 267.79 163.95 C 267.77 164.02 267.72 164.17 267.70 164.25 L 267.79 163.95 L 268.34 163.88 L 268.72 162.98 L 269.59 162.77 L 270.04 161.99 L 270.78 161.64 L 270.98 160.89 L 271.68 160.54 L 271.77 159.81 L 272.45 159.87 L 272.89 159.35 L 273.35 158.92 L 273.07 158.45 C 273.81 158.44 275.29 158.43 276.03 158.42 C 272.23 160.51 270.24 164.62 266.65 166.98 C 266.15 166.59 265.64 166.20 265.15 165.82 C 264.18 167.54 262.71 169.01 260.71 169.44 C 262.11 166.73 264.34 164.51 267.09 163.20 C 268.65 161.40 270.29 159.67 272.00 158.02 Z" />
<path fill="#ffffff" opacity="1.00" d=" M 282.51 155.69 C 281.74 154.58 283.62 153.08 284.61 153.96 C 285.37 155.11 283.49 156.46 282.51 155.69 Z" />
<path fill="#ffffff" opacity="1.00" d=" M 315.32 159.99 C 314.57 158.37 313.12 155.74 315.51 154.76 C 316.01 158.17 316.74 161.55 317.41 164.93 C 315.33 164.18 316.20 161.60 315.32 159.99 Z" />
<path fill="#ffffff" opacity="1.00" d=" M 290.40 156.55 C 291.33 157.19 292.20 157.91 293.00 158.72 C 290.43 160.61 287.89 162.61 285.01 164.04 C 285.61 163.24 286.81 161.62 287.41 160.81 C 285.90 161.28 284.38 161.70 282.82 161.98 C 283.28 161.58 284.19 160.78 284.64 160.38 L 284.60 159.80 C 286.92 159.57 288.56 157.79 290.40 156.55 Z" />
<path fill="#ffffff" opacity="1.00" d=" M 296.23 172.10 C 299.41 166.91 300.03 159.96 305.15 156.11 C 305.31 159.90 302.39 162.82 300.62 165.91 C 299.12 167.95 298.92 171.15 296.23 172.10 Z" />
<path fill="#ffffff" opacity="1.00" d=" M 311.82 157.40 C 314.05 159.05 313.79 162.03 314.35 164.45 C 313.77 164.42 312.60 164.36 312.02 164.32 C 311.85 164.77 311.52 165.68 311.35 166.13 C 311.53 163.22 311.66 160.31 311.82 157.40 Z" />
<path fill="#ffffff" opacity="1.00" d=" M 160.77 169.03 C 162.10 165.66 164.20 162.48 166.96 160.08 C 166.42 163.71 163.28 166.52 160.77 169.03 Z" />
<path fill="#ffffff" opacity="1.00" d=" M 222.41 160.33 C 224.51 159.14 223.95 163.20 222.62 163.69 C 220.92 163.75 221.56 161.05 222.41 160.33 Z" />
<path fill="#ffffff" opacity="1.00" d=" M 168.45 161.05 C 168.33 162.59 168.18 164.14 168.47 165.67 C 166.39 168.61 163.95 171.26 161.39 173.78 C 161.49 173.16 161.69 171.92 161.79 171.29 C 161.38 171.33 160.57 171.39 160.16 171.43 C 162.43 169.20 164.53 166.80 166.32 164.17 L 167.74 165.22 C 167.44 163.75 167.68 162.36 168.45 161.05 Z" />
<path fill="#ffffff" opacity="1.00" d=" M 277.67 169.01 C 279.74 167.26 281.79 165.47 283.94 163.81 C 282.79 165.67 281.33 167.29 279.74 168.77 C 278.74 170.67 277.90 172.77 276.11 174.09 C 271.91 177.25 269.03 181.72 266.42 186.19 C 266.38 183.79 268.39 181.99 269.51 180.04 C 271.89 177.12 274.14 173.97 277.19 171.71 C 276.86 171.42 276.54 171.13 276.22 170.85 C 273.57 173.06 270.31 174.53 268.18 177.32 C 264.94 181.50 261.07 185.20 258.22 189.67 C 257.97 189.66 257.47 189.65 257.23 189.64 C 259.98 185.78 263.14 182.22 266.31 178.69 C 266.33 178.13 266.37 177.00 266.39 176.44 C 268.92 174.17 271.47 171.90 274.16 169.82 C 274.69 169.80 275.76 169.76 276.29 169.74 C 276.30 168.41 276.31 167.08 276.38 165.75 C 277.05 165.54 278.38 165.11 279.04 164.90 C 278.09 166.08 276.59 167.39 277.67 169.01 Z" />
<path fill="#ffffff" opacity="1.00" d=" M 303.74 170.23 C 304.52 167.76 305.98 165.55 307.94 163.86 C 307.47 166.42 306.38 169.24 303.74 170.23 Z" />
<path fill="#ffffff" opacity="1.00" d=" M 165.42 173.99 C 168.51 171.05 171.59 168.11 174.73 165.22 C 174.09 167.58 172.07 169.35 171.95 171.87 C 172.96 171.04 173.75 170.00 174.53 168.96 C 174.54 169.62 174.56 170.93 174.58 171.58 C 172.37 175.43 169.84 179.30 166.15 181.86 C 166.95 179.89 168.19 178.16 169.71 176.70 C 170.77 175.50 171.84 174.27 172.41 172.75 C 170.05 174.59 168.26 177.03 165.91 178.88 C 165.18 179.83 164.44 180.78 163.71 181.74 C 163.65 180.64 163.57 179.53 163.47 178.43 C 164.46 177.08 166.25 175.87 165.42 173.99 Z" />
<path fill="#ffffff" opacity="1.00" d=" M 271.05 170.05 C 271.42 168.38 273.45 166.40 275.26 166.38 C 275.38 168.04 272.69 170.12 271.05 170.05 Z" />
<path fill="#ffffff" opacity="1.00" d=" M 189.35 169.46 C 191.76 168.50 194.28 167.91 196.86 167.66 C 193.98 170.40 189.87 171.69 186.08 172.61 C 185.86 170.58 187.98 170.10 189.35 169.46 Z" />
<path fill="#ffffff" opacity="1.00" d=" M 242.48 167.80 C 246.84 169.90 250.98 173.36 252.95 177.84 C 251.58 176.92 250.38 175.80 249.30 174.57 L 248.66 175.95 C 249.59 172.66 245.12 171.42 243.41 169.29 L 242.78 170.80 C 242.70 170.05 242.56 168.55 242.48 167.80 Z" />
<path fill="#ffffff" opacity="1.00" d=" M 247.53 168.39 C 248.95 168.07 251.24 169.46 250.76 171.08 C 249.30 171.84 247.48 169.74 247.53 168.39 Z" />
<path fill="#ffffff" opacity="1.00" d=" M 178.07 172.70 C 179.99 171.75 181.94 170.84 183.95 170.11 C 182.70 172.13 180.40 173.10 178.07 172.70 Z" />
<path fill="#ffffff" opacity="1.00" d=" M 240.88 170.06 C 241.35 170.24 242.30 170.61 242.78 170.80 C 245.03 172.15 246.83 174.09 248.66 175.95 C 248.77 176.07 249.01 176.32 249.13 176.45 C 247.83 176.29 246.53 176.15 245.23 176.01 C 247.68 177.87 250.07 179.87 251.65 182.57 C 248.44 181.39 246.06 178.79 243.02 177.30 C 243.54 177.03 244.57 176.51 245.09 176.25 C 244.57 176.32 243.52 176.45 243.00 176.52 C 241.10 175.28 239.92 173.34 238.21 171.92 C 240.64 171.31 242.60 174.65 245.04 175.02 C 243.87 173.17 242.15 171.82 240.88 170.06 Z" />
<path fill="#ffffff" opacity="1.00" d=" M 181.53 175.48 C 180.43 173.02 184.93 172.62 186.03 171.09 C 185.80 171.83 185.32 173.31 185.08 174.05 C 185.91 172.77 186.92 172.62 188.09 173.60 C 185.91 175.17 184.04 177.27 181.41 178.10 C 182.60 178.78 183.85 179.35 184.92 180.23 L 182.15 179.55 L 183.51 181.11 C 182.72 181.35 181.15 181.82 180.37 182.05 C 181.02 182.56 181.68 183.06 182.34 183.57 L 179.01 182.98 L 180.70 185.21 C 180.10 184.68 179.49 184.17 178.89 183.66 C 176.42 186.21 173.88 188.71 170.98 190.76 C 171.51 188.94 172.89 187.58 174.58 186.76 C 173.64 186.25 172.68 185.77 171.72 185.29 C 173.42 183.60 176.13 182.52 176.59 179.95 L 177.68 180.85 C 175.63 179.04 178.47 178.09 179.66 176.94 C 179.90 177.10 180.39 177.42 180.63 177.58 C 180.93 176.88 181.23 176.18 181.53 175.48 M 183.18 174.18 C 183.73 174.83 183.73 174.83 183.18 174.18 M 176.71 183.48 L 177.34 183.53 C 178.66 182.64 181.22 181.72 181.05 179.82 C 179.39 180.53 177.24 181.64 176.71 183.48 M 175.84 184.21 C 175.27 184.73 175.27 184.73 175.84 184.21 C 176.06 184.03 176.49 183.66 176.71 183.48 C 176.49 183.66 176.06 184.03 175.84 184.21 Z" />
<path fill="#ffffff" opacity="1.00" d=" M 194.94 173.71 C 196.86 172.69 199.09 172.52 201.20 172.16 C 198.22 177.72 191.30 178.04 186.65 181.53 C 185.85 182.81 184.93 184.00 184.06 185.22 C 183.46 184.88 182.88 184.54 182.29 184.20 C 183.57 183.33 184.83 182.44 186.07 181.53 L 184.97 180.34 C 188.17 177.94 191.84 176.25 194.94 173.71 Z" />
<path fill="#ffffff" opacity="1.00" d=" M 171.23 180.68 C 173.24 177.98 176.25 176.31 178.77 174.14 C 178.96 174.47 179.36 175.13 179.55 175.46 C 176.69 177.06 174.35 179.55 171.23 180.68 Z" />
<path fill="#ffffff" opacity="1.00" d=" M 187.77 176.03 C 187.74 174.69 189.73 173.80 190.86 174.24 C 190.98 175.56 188.88 176.50 187.77 176.03 Z" />
<path fill="#ffffff" opacity="1.00" d=" M 201.59 175.73 C 202.67 175.27 203.77 174.82 204.89 174.45 C 203.41 175.84 201.33 176.44 200.08 178.10 C 198.54 179.26 196.36 179.80 195.69 181.84 C 195.75 180.70 195.80 179.56 195.85 178.43 C 197.82 177.66 199.75 176.77 201.59 175.73 Z" />
<path fill="#ffffff" opacity="1.00" d=" M 202.70 178.74 C 205.35 177.10 208.34 176.23 211.35 175.57 C 211.34 175.71 211.31 175.99 211.29 176.13 C 207.48 177.26 204.58 180.18 200.87 181.53 L 199.73 181.56 C 198.47 182.48 197.24 183.43 196.03 184.41 C 195.59 183.95 195.16 183.48 194.73 183.02 C 197.91 182.73 200.01 180.12 202.70 178.74 Z" />
<path fill="#ffffff" opacity="1.00" d=" M 187.77 176.03 C 187.51 179.48 184.75 174.93 187.77 176.03 Z" />
<path fill="#ffffff" opacity="1.00" d=" M 235.38 177.48 C 234.83 175.93 236.75 175.90 237.71 176.43 C 239.55 177.17 241.44 178.00 242.78 179.53 L 243.74 179.13 L 243.37 180.48 C 246.01 180.34 248.12 182.46 249.01 184.77 C 247.36 183.76 244.44 183.60 244.34 181.17 C 242.44 181.57 240.45 181.59 238.86 180.34 C 239.76 180.47 241.57 180.73 242.48 180.87 C 241.52 177.94 237.63 178.83 235.38 177.48 M 242.46 180.17 C 243.09 180.86 243.09 180.86 242.46 180.17 Z" />
<path fill="#ffffff" opacity="1.00" d=" M 227.55 179.22 C 230.46 176.80 232.51 180.00 232.89 182.54 C 231.70 184.13 230.27 185.90 228.17 186.15 L 229.57 185.09 C 228.76 184.38 227.89 183.74 227.03 183.12 C 228.64 182.31 230.05 180.76 232.06 181.15 C 230.74 180.12 229.11 179.68 227.55 179.22 M 230.33 182.68 C 230.76 182.98 230.76 182.98 230.33 182.68 Z" />
<path fill="#ffffff" opacity="1.00" d=" M 187.15 183.08 C 189.83 181.36 192.45 179.54 195.14 177.83 C 195.20 178.64 195.32 180.26 195.38 181.06 C 193.91 181.71 192.38 182.20 190.81 182.52 C 191.59 183.82 191.60 185.05 190.84 186.21 C 190.67 186.34 190.34 186.60 190.18 186.74 C 184.20 190.18 181.29 196.99 175.84 200.95 C 176.56 199.42 177.61 198.10 178.62 196.76 C 177.88 196.16 177.16 195.55 176.48 194.90 C 177.32 194.81 179.00 194.64 179.84 194.56 L 179.40 193.14 L 181.01 194.09 L 180.42 192.36 L 181.90 192.94 L 181.81 191.97 C 184.95 189.79 187.11 186.39 190.61 184.73 C 189.78 184.32 188.91 184.00 188.01 183.76 L 187.35 183.69 C 187.30 183.53 187.20 183.23 187.15 183.08 Z" />
<path fill="#ffffff" opacity="1.00" d=" M 200.87 181.53 C 203.99 182.42 206.89 178.96 209.98 178.30 L 209.64 179.91 L 208.51 179.89 C 206.13 181.82 203.20 184.00 200.08 184.07 L 200.00 183.42 C 200.22 182.95 200.66 182.00 200.87 181.53 Z" />
<path fill="#ffffff" opacity="1.00" d=" M 206.77 182.46 C 209.07 181.17 211.54 180.19 213.99 179.21 C 212.13 180.98 209.52 182.89 206.95 183.00 L 206.77 182.46 Z" />
<path fill="#ffffff" opacity="1.00" d=" M 203.94 187.06 C 207.73 184.18 212.38 182.00 217.26 182.59 C 215.37 184.68 212.23 184.74 209.89 186.17 C 207.30 187.64 204.42 188.39 201.66 189.46 C 200.86 188.38 201.97 187.36 202.43 186.42 C 200.76 187.49 199.14 188.63 197.49 189.73 C 198.05 189.85 199.19 190.09 199.75 190.21 C 198.23 191.45 196.58 192.62 195.47 194.28 C 198.62 193.48 200.70 190.72 203.63 189.45 C 205.45 189.28 207.29 189.55 209.12 189.58 C 211.42 188.17 213.77 186.84 216.26 185.78 C 217.63 185.58 218.97 185.26 220.34 185.02 C 218.98 187.35 216.03 187.78 213.97 189.28 C 211.90 190.23 210.31 192.19 208.13 192.80 C 207.82 191.72 207.92 190.68 208.41 189.66 C 207.02 190.77 207.46 192.56 207.54 194.10 C 207.21 194.33 206.57 194.80 206.25 195.03 C 204.35 196.09 201.44 197.09 201.35 199.64 L 200.54 199.07 C 199.27 200.56 197.91 201.99 196.56 203.43 C 196.07 202.84 194.60 201.59 195.99 200.99 C 199.10 198.49 202.23 196.00 205.33 193.49 C 205.44 192.85 205.65 191.57 205.76 190.93 C 202.59 193.28 199.75 196.06 196.42 198.21 C 194.69 199.21 193.57 201.86 191.23 201.27 C 191.82 203.65 189.32 205.39 188.80 207.57 C 188.45 207.05 188.11 206.53 187.78 206.01 C 189.37 204.80 190.60 203.26 190.65 201.19 C 189.92 201.76 188.45 202.91 187.72 203.49 C 187.46 206.45 185.23 208.49 183.57 210.75 C 183.48 210.47 183.28 209.90 183.18 209.62 C 183.94 208.49 185.47 206.24 186.24 205.12 L 182.70 207.06 C 183.19 206.51 184.16 205.39 184.65 204.84 C 183.77 204.03 182.88 203.23 182.01 202.42 C 181.06 202.99 180.08 203.52 179.09 204.00 C 181.45 201.07 184.12 198.40 186.73 195.70 C 187.00 196.35 187.54 197.63 187.81 198.28 C 187.07 199.80 185.46 200.85 184.39 202.15 C 184.88 202.60 185.38 203.05 185.89 203.51 C 188.23 199.79 192.06 197.41 194.90 194.10 C 192.16 193.77 190.51 196.14 188.13 196.95 C 188.63 196.02 189.13 195.09 189.65 194.17 C 188.51 194.50 187.45 195.05 186.36 195.49 C 188.38 192.20 192.21 190.69 195.29 188.55 C 195.00 188.36 194.43 187.96 194.14 187.76 C 194.03 185.65 197.25 185.17 198.51 183.78 C 198.90 183.86 199.69 184.00 200.08 184.07 L 200.19 184.66 C 199.81 184.93 199.05 185.47 198.67 185.74 C 197.79 186.13 195.28 186.32 196.02 187.76 C 197.29 188.54 198.99 187.13 198.67 185.74 C 201.75 186.10 203.87 182.18 206.95 183.00 L 207.13 183.65 C 205.86 184.86 204.04 185.30 202.56 186.19 C 203.01 186.48 203.47 186.77 203.94 187.06 M 192.68 199.42 C 194.10 199.23 194.74 198.47 194.62 197.15 C 193.21 197.23 192.57 197.99 192.68 199.42 M 191.85 200.25 C 191.26 200.74 191.26 200.74 191.85 200.25 L 192.58 200.17 L 192.68 199.42 C 192.48 199.63 192.06 200.04 191.85 200.25 Z" />
<path fill="#ffffff" opacity="1.00" d=" M 237.10 182.35 C 239.29 182.58 241.52 182.76 243.62 183.45 C 245.14 184.52 246.53 185.81 248.27 186.57 C 247.30 188.39 245.30 186.48 243.80 186.71 C 243.46 187.12 242.77 187.95 242.43 188.36 L 244.75 187.83 L 244.68 189.21 C 244.08 189.10 242.87 188.90 242.26 188.80 C 241.16 188.46 240.07 188.10 238.99 187.70 C 239.46 187.28 242.92 187.22 241.46 185.80 C 240.64 185.78 239.00 185.75 238.18 185.73 L 238.17 185.45 C 239.48 185.30 240.77 185.06 242.06 184.74 C 240.45 183.89 238.22 183.98 237.10 182.35 Z" />
<path fill="#ffffff" opacity="1.00" d=" M 194.17 183.46 C 194.29 183.98 194.53 185.03 194.65 185.55 C 193.71 186.32 192.80 187.11 191.91 187.94 C 191.06 188.76 190.50 189.75 190.23 190.91 C 186.46 191.01 189.69 188.16 190.18 186.74 L 190.55 186.53 L 190.84 186.21 C 192.21 185.61 193.33 184.69 194.17 183.46 Z" />
<path fill="#ffffff" opacity="1.00" d=" M 180.24 186.02 C 182.06 185.54 183.96 185.53 185.82 185.36 C 185.42 186.17 184.65 186.54 183.53 186.47 C 182.82 187.74 182.11 189.01 181.28 190.21 C 181.47 189.49 181.86 188.06 182.06 187.35 C 181.98 187.27 181.83 187.12 181.76 187.05 L 182.06 187.35 C 180.65 188.19 179.29 189.11 177.86 189.92 C 178.51 188.54 179.24 187.18 180.24 186.02 Z" />
<path fill="#ffffff" opacity="1.00" d=" M 221.25 187.16 C 222.19 186.53 223.27 186.65 224.31 186.96 C 221.11 191.42 213.72 191.37 211.54 196.90 C 215.53 194.47 219.48 191.92 223.74 189.97 C 224.02 191.07 224.34 192.17 224.72 193.25 C 226.47 193.22 228.12 193.70 229.59 194.64 L 229.16 197.72 C 228.42 196.86 227.84 195.87 227.32 194.87 C 226.60 195.05 225.16 195.41 224.44 195.60 C 224.42 196.25 224.36 197.56 224.33 198.21 C 224.68 197.79 225.38 196.95 225.72 196.52 C 226.53 196.97 227.33 197.43 228.13 197.89 C 226.33 200.66 221.81 200.69 221.03 204.06 C 224.43 202.47 227.15 199.80 230.49 198.12 C 230.43 198.67 230.31 199.76 230.25 200.30 C 231.77 200.65 232.42 202.06 230.99 203.03 C 229.06 205.08 226.98 206.99 224.92 208.91 C 225.04 205.31 229.47 204.16 230.21 200.83 C 228.12 202.15 226.22 203.76 224.73 205.73 C 222.12 204.56 220.94 208.54 219.25 209.64 C 221.26 209.05 222.39 207.22 223.74 205.77 L 224.39 206.58 C 220.23 210.57 217.27 215.55 213.55 219.91 C 213.60 216.45 216.12 214.03 218.45 211.81 C 218.03 211.48 217.61 211.15 217.19 210.83 C 214.40 213.54 211.74 216.37 209.91 219.85 L 212.24 219.27 C 211.69 220.43 211.12 221.58 210.56 222.73 C 209.48 222.57 208.41 222.44 207.33 222.32 C 208.74 220.02 210.22 217.78 211.95 215.70 C 212.06 212.95 214.77 211.45 215.88 209.14 C 211.28 210.00 209.85 214.47 206.84 217.30 C 208.31 212.19 213.11 209.08 217.13 206.02 C 216.82 205.53 216.20 204.56 215.89 204.08 C 216.69 204.21 218.27 204.48 219.07 204.62 C 220.01 207.29 220.26 202.84 220.76 201.96 C 220.57 202.33 220.18 203.07 219.98 203.44 C 219.14 203.43 217.46 203.39 216.62 203.38 C 218.42 201.20 221.16 200.20 223.01 198.10 C 219.91 199.12 217.54 201.48 214.69 202.97 C 214.61 203.98 214.53 205.00 214.45 206.02 C 210.09 208.85 207.07 213.09 204.62 217.58 C 204.18 217.63 203.29 217.73 202.85 217.77 C 202.13 219.03 201.44 220.35 200.31 221.30 C 200.80 219.64 201.34 218.01 201.93 216.39 C 200.31 216.79 199.28 221.95 197.35 219.85 C 198.94 216.09 202.32 213.50 204.06 209.84 C 204.63 210.12 205.21 210.39 205.79 210.67 C 204.81 212.34 202.41 214.21 203.91 216.38 C 205.40 214.02 206.48 211.41 208.09 209.13 C 206.82 209.28 205.55 209.42 204.28 209.55 C 205.99 206.59 207.43 203.20 210.47 201.34 C 214.20 198.93 217.55 195.78 221.77 194.25 C 221.91 193.79 222.17 192.86 222.31 192.39 C 218.91 194.05 215.66 196.03 212.78 198.49 C 212.33 198.15 211.41 197.46 210.95 197.12 C 208.71 199.22 206.39 201.24 204.17 203.37 C 204.30 202.43 204.55 200.55 204.67 199.61 C 207.35 197.45 210.33 195.68 212.95 193.44 L 211.08 192.43 C 214.51 190.74 217.74 188.67 221.25 187.16 M 209.24 205.18 C 210.55 205.41 211.11 204.81 210.94 203.37 C 209.63 203.16 209.06 203.77 209.24 205.18 M 212.19 204.31 C 212.83 205.02 212.83 205.02 212.19 204.31 M 206.20 207.01 C 206.85 207.67 206.85 207.67 206.20 207.01 Z" />
<path fill="#ffffff" opacity="1.00" d=" M 241.56 189.76 C 244.09 189.34 247.92 189.13 247.94 192.65 C 245.68 192.01 243.45 191.19 241.56 189.76 Z" />
<path fill="#ffffff" opacity="1.00" d=" M 210.25 193.25 C 210.56 193.56 210.56 193.56 210.25 193.25 Z" />
<path fill="#ffffff" opacity="1.00" d=" M 172.23 197.73 C 173.45 196.46 174.71 195.22 175.99 194.01 L 176.38 195.50 L 174.54 195.81 C 175.21 196.65 175.89 197.48 176.56 198.32 C 175.46 198.92 174.35 199.49 173.23 200.03 C 173.62 199.57 174.38 198.63 174.77 198.16 C 174.13 198.06 172.86 197.84 172.23 197.73 Z" />
<path fill="#ffffff" opacity="1.00" d=" M 208.14 194.75 C 208.76 194.23 208.76 194.23 208.14 194.75 Z" />
<path fill="#ffffff" opacity="1.00" d=" M 206.25 195.03 C 206.72 194.96 207.66 194.82 208.14 194.75 C 207.62 195.30 206.60 196.40 206.09 196.95 C 206.13 196.47 206.21 195.51 206.25 195.03 Z" />
<path fill="#ffffff" opacity="1.00" d=" M 245.10 196.19 C 248.74 197.32 251.78 199.95 255.66 200.46 L 255.31 201.40 C 257.13 201.13 258.82 202.08 259.26 203.90 C 261.59 205.74 264.93 205.81 267.58 207.14 C 267.00 207.48 266.42 207.82 265.84 208.15 C 263.88 207.14 261.85 206.25 259.89 205.26 C 259.55 205.68 258.87 206.54 258.53 206.96 C 258.37 206.51 258.06 205.61 257.90 205.16 C 256.58 205.20 255.52 206.19 254.33 206.67 C 254.42 206.14 254.60 205.09 254.70 204.57 L 252.94 204.62 C 253.73 203.99 255.32 202.73 256.11 202.10 C 255.16 202.22 253.25 202.45 252.30 202.56 C 252.36 201.91 252.47 200.61 252.52 199.96 C 249.76 199.58 246.29 199.18 245.10 196.19 Z" />
<path fill="#ffffff" opacity="1.00" d=" M 203.10 197.69 C 203.56 198.08 204.02 198.47 204.48 198.87 C 203.45 199.75 201.41 201.51 200.39 202.39 L 203.55 200.79 C 202.81 202.29 201.74 203.57 200.63 204.80 C 200.08 205.32 198.96 206.35 198.41 206.86 L 197.98 202.37 L 200.27 203.93 C 199.71 203.24 199.14 202.55 198.57 201.88 C 199.55 201.20 200.48 200.45 201.35 199.64 C 201.79 199.15 202.66 198.18 203.10 197.69 Z" />
<path fill="#ffffff" opacity="1.00" d=" M 197.33 202.97 C 197.85 204.57 197.87 206.24 198.09 207.91 L 195.65 205.85 C 196.37 206.91 197.15 207.93 197.91 208.96 L 198.95 207.05 C 199.84 206.54 200.40 205.79 200.63 204.80 C 201.48 204.45 203.19 203.74 204.04 203.38 C 201.82 206.67 198.80 209.29 196.45 212.47 C 195.30 213.73 194.69 215.61 192.91 216.15 C 194.22 213.97 195.02 210.91 197.55 209.94 C 196.33 209.02 195.12 208.08 194.07 206.97 C 193.03 208.43 192.40 210.43 190.57 211.12 C 191.39 211.78 192.24 212.41 193.08 213.06 L 191.14 212.45 L 191.45 214.27 C 190.99 213.60 190.54 212.93 190.09 212.27 L 188.96 213.93 C 189.55 210.82 191.96 208.42 194.03 206.16 C 195.14 205.10 196.24 204.03 197.33 202.97 Z" />
<path fill="#ffffff" opacity="1.00" d=" M 185.74 210.75 C 185.23 209.57 186.78 207.06 188.11 208.06 C 187.81 209.47 187.02 210.36 185.74 210.75 Z" />
<path fill="#ffffff" opacity="1.00" d=" M 267.41 210.78 C 267.62 210.15 268.04 208.91 268.25 208.29 C 269.83 209.46 271.54 210.45 273.27 211.39 C 273.15 211.70 272.90 212.32 272.78 212.62 C 271.06 211.84 269.46 210.33 267.41 210.78 Z" />
<path fill="#ffffff" opacity="1.00" d=" M 222.99 213.97 C 224.23 213.67 225.46 212.98 226.77 213.24 C 226.19 214.49 225.45 215.66 224.77 216.85 L 223.31 215.98 C 223.95 217.32 223.66 218.38 222.44 219.17 L 222.87 217.06 C 222.37 217.15 221.37 217.32 220.87 217.41 L 220.86 215.98 L 223.07 217.12 L 221.82 214.78 L 224.20 216.01 L 222.99 213.97 Z" />
<path fill="#ffffff" opacity="1.00" d=" M 243.93 214.10 C 247.19 215.54 250.66 216.71 253.25 219.27 C 253.60 219.31 254.32 219.39 254.67 219.42 C 258.07 221.15 261.43 223.14 264.00 226.01 C 262.05 225.48 260.47 224.17 258.72 223.23 C 255.71 222.47 253.33 220.22 250.19 219.71 C 250.19 219.49 250.19 219.06 250.19 218.84 C 249.20 218.33 249.20 218.33 250.19 218.84 L 249.93 219.25 L 250.19 219.71 L 250.60 220.84 C 251.75 222.50 254.19 223.69 253.81 226.01 C 250.88 221.73 246.78 218.42 243.93 214.10 Z" />
<path fill="#ffffff" opacity="1.00" d=" M 227.19 215.71 C 228.06 215.68 228.84 215.94 229.53 216.49 C 229.82 216.28 230.41 215.84 230.70 215.62 C 232.47 216.99 234.69 218.07 235.46 220.36 C 233.90 218.93 232.18 218.35 230.31 218.61 C 229.24 217.67 228.19 216.72 227.19 215.71 Z" />
<path fill="#ffffff" opacity="1.00" d=" M 232.43 215.62 C 233.36 215.29 235.22 214.62 236.14 214.29 C 236.44 216.63 238.23 215.53 239.65 215.04 C 242.14 216.62 244.43 218.55 246.08 221.04 C 242.91 220.69 241.01 217.61 238.00 217.17 C 238.35 217.76 239.05 218.94 239.39 219.53 C 238.97 221.17 239.97 222.56 240.67 223.96 C 241.12 223.55 242.02 222.71 242.47 222.29 C 244.99 222.67 247.69 222.31 250.03 223.48 C 247.25 223.42 244.40 223.03 241.77 224.19 C 242.39 225.40 243.07 226.60 243.68 227.82 C 241.89 226.74 239.57 225.62 239.48 223.24 C 237.47 220.40 235.16 217.78 232.43 215.62 Z" />
<path fill="#ffffff" opacity="1.00" d=" M 253.09 215.69 C 255.45 215.73 258.38 215.90 259.48 218.44 C 263.20 218.32 268.61 218.33 269.95 222.62 C 268.26 221.76 266.67 220.72 265.01 219.82 C 260.90 219.22 255.73 219.59 253.09 215.69 Z" />
</g>
</svg>
