<?xml version="1.0" encoding="UTF-8" ?>
<!DOCTYPE svg PUBLIC "-//W3C//DTD SVG 1.1//EN" "http://www.w3.org/Graphics/SVG/1.1/DTD/svg11.dtd">
<svg width="512pt" height="256pt" viewBox="0 0 512 256" version="1.1" xmlns="http://www.w3.org/2000/svg">
<g id="#ffffffff">
<path fill="#ffffff" opacity="1.00" d=" M 206.92 23.74 C 210.14 21.79 213.72 23.62 217.15 23.20 C 220.79 24.30 224.67 24.81 227.89 27.00 C 227.82 26.51 227.70 25.52 227.63 25.03 L 228.88 25.10 C 228.68 26.02 228.29 27.88 228.10 28.81 C 228.71 28.70 229.93 28.48 230.54 28.37 L 231.20 29.18 C 229.41 30.45 227.84 31.99 226.10 33.31 L 225.99 34.00 L 225.01 34.03 L 224.81 35.85 L 224.17 35.65 L 223.63 36.21 C 222.72 37.41 222.72 37.41 223.63 36.21 C 223.92 36.12 224.51 35.94 224.81 35.85 C 227.85 33.73 230.76 31.44 233.55 29.01 C 237.10 30.86 231.82 33.14 231.09 35.26 C 229.94 34.03 228.52 34.44 227.49 35.61 C 226.56 36.31 225.65 37.02 224.74 37.74 C 224.51 38.05 224.05 38.65 223.82 38.95 L 223.26 39.12 C 223.01 39.41 222.53 39.99 222.29 40.29 C 218.85 43.92 214.64 46.89 211.93 51.16 C 210.51 53.38 210.63 56.56 208.35 58.15 C 208.30 56.71 208.50 55.28 208.74 53.86 C 206.18 56.73 206.34 61.03 206.47 64.64 C 208.49 65.44 208.76 62.11 209.68 60.95 C 209.25 66.25 209.70 71.52 211.39 76.58 C 208.32 76.17 209.70 71.56 209.39 69.39 C 208.53 69.38 206.80 69.35 205.94 69.34 C 206.33 71.88 206.96 74.38 207.52 76.89 C 206.17 76.45 205.50 75.23 205.02 73.98 C 206.27 70.24 204.47 66.47 204.60 62.65 L 205.56 62.59 C 204.86 58.10 206.86 53.78 208.03 49.53 C 206.02 50.91 205.58 53.51 203.60 54.91 C 203.37 56.33 203.10 57.75 202.62 59.12 C 202.28 57.51 202.36 55.87 202.67 54.27 C 202.53 53.78 202.24 52.80 202.10 52.31 C 203.30 49.79 203.50 46.95 204.27 44.29 C 199.71 50.70 199.88 59.21 202.54 66.37 C 200.92 67.37 199.33 68.44 198.12 69.94 C 197.50 66.94 197.13 63.87 196.13 60.96 C 194.70 57.27 195.94 53.22 195.12 49.42 C 195.75 49.55 197.00 49.80 197.63 49.93 C 197.64 48.70 197.67 47.47 197.71 46.24 C 196.85 48.28 194.81 50.10 192.45 49.55 C 193.11 53.07 191.17 57.31 194.03 60.14 C 196.56 63.74 195.23 68.72 197.94 72.20 C 197.60 72.26 196.92 72.40 196.58 72.46 C 196.78 73.39 196.54 74.14 195.86 74.71 C 193.15 73.19 190.23 71.42 186.98 72.31 C 184.97 73.52 182.78 74.35 180.45 74.67 C 176.22 71.04 178.80 64.80 175.56 60.61 C 173.38 57.54 172.49 53.74 170.11 50.83 C 169.51 47.55 168.90 44.27 168.55 40.94 C 168.07 39.35 168.15 37.70 168.46 36.09 C 167.63 36.43 166.81 36.78 165.99 37.13 C 166.25 38.07 166.76 39.96 167.02 40.90 C 166.36 40.55 165.03 39.85 164.37 39.51 L 164.86 37.83 C 164.64 38.47 164.19 39.75 163.97 40.39 C 167.24 39.36 164.88 43.56 164.96 45.05 C 165.34 44.10 166.29 40.73 167.27 43.02 C 168.53 48.22 167.93 54.11 171.37 58.60 C 175.28 60.87 175.78 66.00 177.46 69.84 C 177.03 72.19 179.15 74.78 177.83 76.91 C 177.29 75.78 176.77 74.64 176.26 73.49 C 175.73 73.47 174.69 73.41 174.16 73.38 C 173.71 71.91 173.23 70.45 172.80 68.98 L 172.05 69.31 C 173.10 67.93 171.57 66.47 170.20 66.35 C 170.37 67.47 170.56 69.29 172.05 69.31 C 172.54 72.35 174.15 75.05 174.95 78.00 C 171.33 77.68 172.66 72.60 170.71 70.33 C 168.96 68.30 168.33 65.22 165.84 63.91 C 165.60 62.94 165.31 61.98 164.96 61.04 C 165.38 60.91 166.22 60.64 166.64 60.51 C 164.72 57.52 163.62 54.13 162.28 50.88 C 162.42 54.30 163.60 57.53 165.34 60.45 L 164.96 61.04 C 164.48 60.78 163.51 60.27 163.02 60.01 C 161.22 55.53 160.18 50.79 158.48 46.28 C 158.81 49.10 159.65 51.87 160.45 54.60 C 160.02 55.39 159.60 56.18 159.17 56.96 C 157.92 53.03 157.22 48.68 154.79 45.27 C 155.87 50.55 157.80 55.71 160.29 60.49 L 160.60 58.25 C 161.41 58.83 162.22 59.42 163.02 60.01 C 162.93 60.37 162.73 61.09 162.63 61.45 L 162.33 62.43 L 161.66 61.09 C 160.75 61.89 159.53 61.38 158.45 61.49 C 158.98 62.57 160.05 64.72 160.59 65.80 C 158.96 65.00 157.82 63.36 157.87 61.52 L 157.32 62.53 C 155.26 57.79 153.34 52.83 151.60 48.03 C 153.29 46.58 154.98 45.13 156.50 43.49 C 156.76 43.85 157.29 44.57 157.56 44.92 C 158.41 44.81 160.10 44.58 160.95 44.47 L 159.95 46.90 C 161.02 45.92 161.16 44.36 161.83 43.13 C 162.54 46.33 163.69 49.40 165.01 52.39 C 165.96 55.96 167.44 59.44 169.99 62.18 C 172.67 65.26 173.27 69.85 176.05 72.66 C 174.76 68.63 174.24 64.05 171.17 60.89 C 169.23 58.25 167.87 55.18 166.71 52.12 L 165.50 52.17 C 164.54 48.47 162.76 44.93 162.78 41.02 C 162.32 41.14 161.39 41.38 160.93 41.50 L 161.48 43.11 C 159.97 43.42 157.36 44.61 157.79 41.94 C 161.22 40.97 162.96 37.70 165.69 35.71 C 168.45 33.35 172.04 32.38 175.11 30.52 C 175.07 32.08 175.17 33.64 175.65 35.14 C 175.83 33.47 175.60 31.80 175.31 30.16 C 178.44 29.27 181.68 28.36 184.31 26.35 C 185.15 26.29 186.83 26.16 187.66 26.10 C 186.10 28.36 183.60 29.60 181.07 30.45 C 180.83 31.02 180.35 32.16 180.11 32.74 C 179.50 32.24 178.88 31.77 178.24 31.33 C 177.11 36.13 175.63 41.02 176.13 46.03 C 176.22 49.09 177.56 52.13 176.34 55.14 C 174.14 48.41 172.69 41.47 172.68 34.36 C 172.26 34.24 171.42 34.00 171.00 33.88 C 171.03 38.90 172.12 43.85 172.62 48.83 C 171.21 52.09 174.82 54.58 175.17 57.73 C 176.78 57.62 178.43 57.62 179.85 56.71 C 181.63 61.77 183.59 66.84 183.90 72.26 C 185.86 72.55 186.68 71.83 186.35 70.11 C 184.52 67.38 184.49 63.98 183.37 60.97 C 182.75 59.03 181.49 57.33 181.14 55.30 C 182.13 55.75 183.68 55.71 184.05 56.99 C 186.22 61.01 186.90 65.58 188.03 69.95 L 187.56 71.62 C 188.66 71.60 190.87 71.57 191.98 71.55 C 189.65 64.47 186.03 57.54 186.48 49.86 C 185.81 46.52 186.51 42.56 189.37 40.42 C 189.62 39.12 189.02 37.46 190.97 37.14 L 190.68 36.00 C 192.73 34.57 193.53 32.08 194.94 30.12 C 195.24 30.14 195.85 30.18 196.15 30.20 C 195.94 31.77 195.14 33.16 194.52 34.59 C 193.82 35.16 193.82 35.16 194.52 34.59 C 196.93 32.16 198.53 29.02 201.26 26.91 C 200.90 26.44 200.54 25.97 200.17 25.50 C 199.10 27.27 198.01 29.14 196.15 30.20 C 195.52 28.50 197.42 27.57 197.81 26.14 C 194.04 27.76 192.61 32.37 190.37 35.56 L 189.84 34.59 C 190.66 37.15 187.53 37.53 186.56 39.37 C 186.22 40.79 186.30 42.26 186.15 43.71 C 182.70 46.21 185.20 50.72 183.51 54.05 C 182.18 48.32 183.49 42.58 184.65 36.96 C 182.29 40.63 181.82 44.97 181.02 49.14 L 180.01 49.81 C 179.58 45.82 181.07 42.05 181.72 38.18 C 178.45 43.07 178.46 49.14 179.47 54.73 C 179.09 54.63 178.33 54.42 177.95 54.32 C 177.78 50.74 176.65 47.21 177.39 43.63 C 174.30 41.55 178.55 37.91 177.54 35.01 C 178.31 34.58 179.11 34.31 179.97 34.21 C 180.15 35.83 179.40 37.41 179.22 39.00 C 179.90 37.00 182.95 34.52 180.22 32.84 C 181.58 30.40 184.22 29.12 186.84 28.52 L 187.11 27.33 C 187.58 27.50 188.53 27.86 189.00 28.04 C 188.82 27.44 188.47 26.25 188.29 25.66 C 191.42 25.31 194.52 24.70 197.67 24.51 L 198.14 24.93 C 199.44 25.00 200.70 24.40 201.93 23.11 C 201.80 23.88 201.55 25.42 201.42 26.19 C 202.08 25.55 203.38 24.27 204.04 23.62 C 205.82 22.82 206.70 24.96 207.49 26.10 C 205.59 26.76 204.90 27.94 205.43 29.64 L 204.50 28.82 C 201.93 32.75 197.95 35.86 196.64 40.53 C 195.95 42.81 195.02 44.99 194.24 47.24 C 196.12 46.14 196.14 43.77 196.82 41.94 C 198.39 37.03 202.05 33.34 205.43 29.64 C 206.77 28.13 207.71 25.97 209.91 25.54 C 209.75 26.16 209.42 27.40 209.26 28.02 C 210.33 26.98 211.34 25.86 212.27 24.69 C 211.29 24.92 209.33 25.38 208.35 25.61 C 207.99 25.14 207.28 24.21 206.92 23.74 M 207.76 31.28 C 207.65 30.77 207.43 29.75 207.32 29.24 C 206.46 30.48 205.86 31.87 205.09 33.16 C 204.66 33.41 203.81 33.91 203.39 34.16 C 204.24 34.81 205.71 36.02 203.93 36.70 C 202.07 36.16 200.54 37.89 200.22 39.59 C 200.66 39.50 201.54 39.32 201.98 39.23 C 202.16 43.78 198.59 47.32 198.53 51.83 C 198.02 51.73 197.00 51.52 196.50 51.42 C 196.58 54.26 196.39 57.11 196.73 59.93 C 197.38 61.76 198.86 63.12 199.77 64.82 C 198.86 60.92 200.08 56.97 200.08 53.04 C 199.91 48.02 202.14 43.35 203.64 38.67 C 205.18 36.82 207.12 34.81 206.34 32.13 C 206.91 32.19 208.05 32.32 208.62 32.38 C 211.11 30.00 213.13 27.07 215.95 24.95 C 212.71 26.29 211.11 30.00 207.76 31.28 M 217.20 39.21 C 217.85 39.86 217.85 39.86 217.20 39.21 M 218.21 41.25 C 218.95 41.69 218.95 41.69 218.21 41.25 M 187.79 54.95 C 189.90 61.23 191.99 67.53 194.52 73.65 C 194.96 68.64 193.57 63.56 191.37 59.04 C 190.50 55.07 191.90 51.09 191.76 47.10 C 190.61 49.66 190.03 52.39 189.45 55.12 C 189.32 50.84 188.87 46.28 190.66 42.27 C 187.77 45.80 187.43 50.58 187.79 54.95 M 157.27 58.80 C 157.75 59.07 157.75 59.07 157.27 58.80 M 177.21 58.03 C 179.19 63.05 180.32 68.35 180.57 73.74 C 181.23 73.32 182.55 72.49 183.21 72.07 C 180.63 68.04 180.06 63.22 178.70 58.72 L 177.21 58.03 Z" />
<path fill="#ffffff" opacity="1.00" d=" M 207.76 31.28 C 207.37 31.69 207.37 31.69 207.76 31.28 Z" />
<path fill="#ffffff" opacity="1.00" d=" M 294.23 31.06 C 295.87 31.74 297.71 33.66 299.52 32.34 C 303.15 33.05 306.89 32.02 310.58 32.34 C 311.64 32.91 312.65 33.75 313.93 33.77 C 317.08 33.84 319.38 36.47 322.50 36.77 C 324.22 38.00 325.33 39.93 327.28 40.90 L 326.24 37.79 C 326.87 38.37 327.51 38.96 328.15 39.55 C 330.32 39.44 331.03 41.86 332.30 43.14 C 335.28 44.23 337.96 46.19 340.45 48.17 C 340.39 48.82 340.27 50.14 340.21 50.79 C 341.40 53.05 342.86 55.45 342.01 58.16 C 340.97 56.59 340.20 54.87 339.43 53.16 C 338.47 55.36 336.60 59.64 339.52 60.91 C 339.57 59.85 339.67 57.73 339.72 56.67 C 342.07 58.91 341.15 62.22 340.97 65.06 C 340.73 66.44 340.86 68.04 339.77 69.08 C 339.13 67.80 338.48 66.53 337.82 65.27 C 337.37 65.71 336.45 66.60 336.00 67.04 C 334.25 62.53 334.82 57.57 333.29 53.01 C 333.08 52.06 332.20 51.53 331.57 50.88 C 331.59 53.11 332.14 56.46 328.78 55.75 C 329.18 53.53 328.62 51.66 327.11 50.15 C 327.61 53.88 328.84 57.44 329.70 61.09 C 329.49 59.38 329.31 57.67 329.15 55.97 C 332.87 57.43 331.38 63.26 330.98 66.47 C 329.95 63.47 327.18 61.36 326.90 58.08 C 325.55 51.17 322.34 44.75 317.93 39.29 C 317.06 38.33 316.68 37.10 316.32 35.88 C 315.77 35.75 314.68 35.49 314.13 35.36 C 317.89 39.40 320.02 44.54 322.81 49.22 C 324.98 56.91 329.05 64.49 327.76 72.68 C 326.48 74.36 328.43 77.06 325.86 77.96 C 326.22 78.00 326.93 78.07 327.28 78.11 C 326.53 79.62 324.38 81.57 326.46 83.01 C 325.59 83.33 323.86 83.95 322.99 84.27 C 322.66 83.63 321.98 82.34 321.64 81.70 C 322.67 78.52 323.73 75.33 323.90 71.96 C 324.09 71.69 324.48 71.14 324.68 70.86 C 324.53 72.04 324.22 74.40 324.07 75.58 L 325.78 75.51 C 325.56 71.27 328.32 66.62 325.08 62.90 C 322.98 64.49 326.18 67.66 323.56 69.14 C 323.36 67.21 323.24 65.27 323.22 63.33 C 319.15 62.45 323.45 67.60 320.67 68.81 C 320.61 67.32 320.59 65.82 320.62 64.32 C 320.09 64.43 319.02 64.63 318.49 64.73 C 317.61 59.90 314.19 56.33 311.37 52.56 L 309.91 52.33 C 313.16 52.49 310.96 56.54 308.96 55.38 C 308.27 55.77 307.48 57.66 306.75 56.19 C 306.77 55.40 306.82 53.82 306.84 53.03 L 304.90 54.69 L 305.59 51.81 C 303.01 53.34 304.86 55.75 306.19 57.54 C 302.17 54.53 298.97 50.59 295.09 47.39 C 298.13 51.48 301.94 54.90 305.29 58.72 L 305.79 59.19 C 306.06 60.19 308.96 64.15 307.50 60.54 L 307.78 59.60 C 310.04 61.77 311.43 64.66 313.56 66.95 L 311.42 66.52 C 310.27 69.31 308.87 65.10 307.78 64.43 L 308.61 63.85 C 307.83 63.53 306.26 62.89 305.48 62.57 C 306.41 63.90 307.35 65.22 308.31 66.54 C 307.68 66.34 306.42 65.96 305.79 65.77 C 305.32 65.37 305.32 65.37 305.79 65.77 C 307.22 66.78 307.80 68.13 307.54 69.83 C 307.07 69.45 306.14 68.68 305.67 68.29 C 305.44 68.02 304.98 67.49 304.74 67.22 C 304.26 66.85 303.29 66.10 302.80 65.73 C 302.25 65.14 302.25 65.14 302.80 65.73 C 302.91 66.24 303.12 67.27 303.22 67.79 C 302.38 68.40 301.35 66.83 300.31 67.53 C 301.64 68.87 302.99 70.26 303.79 72.02 L 301.47 72.51 L 301.77 71.73 C 300.67 70.71 299.91 69.42 298.96 68.27 C 298.63 67.73 297.97 66.65 297.64 66.11 L 296.69 66.38 L 296.56 65.64 L 295.80 65.49 L 295.92 64.18 C 294.20 62.71 291.91 61.75 290.86 59.65 C 290.47 60.06 290.08 60.46 289.70 60.87 C 290.94 61.76 292.06 62.80 293.13 63.88 C 292.38 63.69 290.88 63.30 290.13 63.11 C 291.62 65.20 293.60 66.84 295.32 68.73 C 295.55 68.98 296.02 69.49 296.26 69.74 C 297.79 70.94 299.22 74.16 301.53 71.88 L 299.98 73.67 C 300.78 74.19 301.02 74.90 300.70 75.81 C 299.78 75.39 297.92 74.55 297.00 74.14 C 297.49 74.88 298.49 76.37 298.98 77.11 L 297.93 77.54 C 296.12 75.58 292.91 74.27 292.54 71.42 L 291.46 71.36 C 286.02 67.51 280.60 63.63 275.46 59.39 C 273.44 58.62 271.37 57.03 269.14 57.99 C 267.87 56.13 266.82 54.12 266.23 51.94 C 270.57 52.16 272.09 57.85 276.45 57.63 C 273.69 55.79 271.39 53.37 268.91 51.19 C 268.87 49.07 272.83 46.51 272.70 50.15 C 272.63 50.53 272.48 51.29 272.41 51.67 C 275.20 55.00 278.26 58.30 282.08 60.46 C 282.20 61.40 282.33 62.34 282.47 63.27 C 285.40 64.72 287.64 67.14 290.16 69.17 C 289.43 66.13 286.35 64.55 284.11 62.68 C 281.48 57.30 274.70 54.84 272.99 49.05 C 276.18 48.77 276.29 52.12 278.40 53.58 C 282.07 56.78 285.24 61.04 289.82 62.91 C 284.87 58.29 279.82 53.73 275.37 48.63 C 273.56 48.68 271.63 48.66 272.12 46.23 C 272.75 46.52 274.00 47.09 274.63 47.38 L 273.92 45.35 C 275.05 44.42 276.06 43.35 277.07 42.27 C 277.67 43.14 278.87 44.86 279.47 45.72 C 279.53 44.90 279.66 43.26 279.72 42.44 C 278.69 41.51 277.77 40.48 276.96 39.35 C 277.72 39.46 279.24 39.70 280.00 39.81 C 280.35 39.41 281.07 38.60 281.42 38.19 L 281.15 37.14 C 282.92 37.86 284.64 38.73 286.07 40.02 C 285.80 39.37 285.25 38.07 284.98 37.42 C 286.15 36.14 288.70 35.69 288.26 33.42 C 290.66 33.68 291.69 36.51 294.21 36.55 C 296.26 36.56 296.71 38.81 297.65 40.19 C 297.42 38.51 297.86 36.80 299.61 36.20 C 298.66 35.67 297.78 33.77 296.56 34.56 C 295.00 37.27 290.92 34.78 289.68 32.80 C 291.74 32.85 293.81 32.97 295.87 33.18 C 295.46 32.65 294.64 31.59 294.23 31.06 M 282.41 39.18 C 282.93 39.90 282.93 39.90 282.41 39.18 M 312.38 42.77 C 314.99 47.16 318.09 51.28 319.99 56.07 C 321.14 57.96 321.14 60.46 322.68 62.09 C 323.27 59.01 321.35 56.40 320.42 53.63 C 319.04 49.33 316.44 44.90 312.38 42.77 M 279.84 44.81 C 280.51 45.37 281.84 46.47 282.50 47.03 C 282.09 47.56 281.70 48.11 281.31 48.66 C 281.85 48.56 282.92 48.36 283.45 48.26 C 284.87 49.23 286.31 50.22 287.92 50.87 C 286.25 48.06 282.37 47.37 281.12 44.30 L 279.84 44.81 M 278.51 49.56 C 281.15 52.00 284.22 54.09 286.21 57.15 C 286.54 56.83 286.87 56.50 287.21 56.18 C 285.27 54.68 283.44 53.03 281.77 51.24 C 280.65 50.21 279.48 49.24 278.31 48.28 C 278.36 48.60 278.46 49.24 278.51 49.56 M 310.21 48.38 C 310.84 49.06 310.84 49.06 310.21 48.38 M 305.42 48.56 C 304.72 50.03 308.47 54.11 309.23 52.01 C 307.54 51.32 307.40 48.28 305.42 48.56 M 293.68 50.04 C 294.17 52.02 296.72 53.89 298.60 54.73 C 297.92 52.74 295.76 50.63 293.68 50.04 M 315.59 51.33 C 315.22 54.91 318.82 52.84 315.59 51.33 M 297.02 56.09 C 298.08 57.11 298.08 57.11 297.02 56.09 C 295.99 55.05 295.99 55.05 297.02 56.09 M 299.23 55.24 C 299.84 55.87 299.84 55.87 299.23 55.24 M 316.10 56.38 C 316.83 56.97 316.83 56.97 316.10 56.38 M 288.37 58.37 C 288.65 58.66 288.65 58.66 288.37 58.37 M 297.17 62.90 C 297.40 63.16 297.86 63.68 298.09 63.94 L 298.03 63.20 L 297.17 62.90 C 296.01 61.89 296.01 61.89 297.17 62.90 M 299.46 65.46 C 299.79 65.79 299.79 65.79 299.46 65.46 Z" />
<path fill="#ffffff" opacity="1.00" d=" M 228.23 39.45 C 231.49 37.15 233.74 33.75 236.95 31.39 C 238.10 32.43 239.99 33.25 239.57 35.10 C 238.45 35.93 237.31 36.72 236.15 37.49 C 236.09 36.28 236.75 35.25 237.17 34.18 C 236.13 34.83 235.07 35.46 233.99 36.03 C 234.29 36.58 234.89 37.68 235.19 38.23 C 233.12 41.06 230.41 43.43 228.35 46.29 C 227.53 47.40 226.13 47.30 224.92 47.34 C 224.52 50.19 221.33 50.77 219.24 52.00 C 219.72 51.21 220.22 50.43 220.75 49.67 C 221.25 48.85 221.75 48.03 222.24 47.19 C 224.71 45.00 227.19 42.79 229.72 40.66 C 229.35 40.36 228.60 39.75 228.23 39.45 Z" />
<path fill="#ffffff" opacity="1.00" d=" M 227.49 35.61 C 228.41 35.60 230.25 35.57 231.16 35.56 C 230.21 36.90 225.06 39.06 228.44 40.74 C 225.90 42.08 223.72 44.13 221.97 46.39 C 220.98 44.97 219.65 45.36 218.82 46.72 C 218.65 47.02 218.32 47.62 218.15 47.91 L 217.37 48.09 L 217.33 48.70 C 217.53 48.51 217.94 48.11 218.15 47.91 C 218.32 47.62 218.65 47.02 218.82 46.72 C 219.88 46.91 220.82 47.34 221.65 48.02 L 220.12 48.23 C 217.05 51.78 215.23 56.27 213.99 60.76 C 211.34 60.08 213.96 56.97 213.81 55.13 C 212.23 56.44 212.53 59.13 210.44 59.86 C 210.58 58.96 210.88 57.16 211.02 56.26 C 213.06 52.06 215.47 47.99 218.83 44.70 L 219.03 44.29 C 221.12 43.34 222.32 41.11 224.59 40.45 C 225.58 39.05 226.63 37.66 228.08 36.68 L 227.49 35.61 Z" />
<path fill="#ffffff" opacity="1.00" d=" M 240.28 36.10 C 245.98 35.46 250.57 39.71 254.43 43.37 C 254.26 43.72 253.91 44.41 253.73 44.76 C 256.26 48.07 261.18 50.16 260.82 55.00 C 259.04 54.02 258.74 51.90 257.66 50.35 C 256.18 49.16 254.59 48.10 253.32 46.66 C 252.12 49.75 248.98 51.35 247.39 54.19 C 243.08 57.24 238.16 59.35 233.49 61.80 C 233.23 60.73 232.92 59.67 232.58 58.62 C 237.87 55.31 242.67 51.29 247.94 47.93 C 248.05 48.44 248.26 49.44 248.37 49.94 C 249.74 48.32 251.30 46.89 253.07 45.71 C 252.54 42.75 249.98 41.18 247.56 39.82 L 247.15 42.11 C 246.44 41.83 245.74 41.56 245.03 41.29 C 245.54 40.74 246.54 39.65 247.04 39.10 L 245.81 38.54 C 245.47 38.87 244.78 39.54 244.44 39.87 C 243.50 39.65 242.56 39.53 241.60 39.50 C 242.36 39.99 243.11 40.48 243.86 40.98 C 242.94 41.06 241.09 41.24 240.17 41.33 C 240.21 41.92 240.30 43.12 240.35 43.72 C 239.54 42.45 236.90 40.86 237.80 43.72 C 234.61 45.07 232.62 48.25 228.99 48.82 C 229.28 49.37 229.85 50.46 230.14 51.01 L 228.36 50.20 C 228.29 50.60 228.15 51.39 228.08 51.79 L 226.58 51.50 C 226.59 53.11 224.88 53.84 224.35 55.23 C 223.56 56.00 222.64 56.49 221.58 56.70 C 221.34 58.15 220.34 59.25 219.50 60.40 C 218.79 60.54 217.36 60.83 216.64 60.97 C 217.12 58.17 218.56 55.48 220.82 53.72 C 221.38 54.04 222.50 54.69 223.06 55.01 C 222.61 54.58 221.70 53.73 221.24 53.30 C 223.37 51.79 225.07 49.42 227.84 49.10 C 232.14 44.93 236.04 40.33 240.28 36.10 M 246.05 49.50 C 244.34 52.76 240.56 54.19 238.11 56.85 C 241.41 55.70 243.70 52.88 246.84 51.45 C 246.98 50.66 246.72 50.01 246.05 49.50 Z" />
<path fill="#ffffff" opacity="1.00" d=" M 244.10 41.33 C 245.41 42.15 246.07 44.55 244.23 45.20 C 240.96 46.51 238.23 48.60 235.65 50.94 C 235.87 51.14 236.31 51.54 236.52 51.74 C 238.59 49.15 242.34 48.78 244.13 45.85 C 244.66 45.73 245.71 45.49 246.24 45.38 C 246.26 44.65 246.31 43.21 246.33 42.49 C 247.80 42.64 248.79 43.43 249.31 44.87 C 246.17 46.75 243.10 48.87 240.54 51.51 C 237.09 53.15 234.52 56.09 231.06 57.71 C 230.88 57.25 230.50 56.32 230.32 55.86 C 230.41 56.57 230.59 57.97 230.68 58.67 C 228.75 58.59 227.29 57.64 226.48 55.94 C 231.52 51.03 237.76 47.11 243.44 42.79 L 244.10 41.33 Z" />
<path fill="#ffffff" opacity="1.00" d=" M 247.94 47.93 C 248.80 47.35 248.80 47.35 247.94 47.93 Z" />
<path fill="#ffffff" opacity="1.00" d=" M 249.14 53.94 C 251.29 53.04 252.43 50.22 254.96 50.27 C 252.60 53.21 249.81 56.10 246.16 57.38 L 247.16 58.56 L 246.46 58.00 C 246.05 58.14 245.25 58.44 244.84 58.58 C 242.76 59.51 240.65 60.44 239.00 62.07 C 236.93 62.62 235.04 63.68 233.12 64.57 C 235.65 60.92 239.96 59.75 243.69 57.84 C 245.19 56.15 246.95 54.62 249.14 53.94 Z" />
<path fill="#ffffff" opacity="1.00" d=" M 341.45 50.94 C 341.96 50.51 342.48 50.09 343.01 49.67 C 343.51 51.72 343.86 53.79 344.07 55.88 C 344.69 54.79 345.31 53.70 345.97 52.63 C 346.93 54.70 346.26 57.56 348.53 58.84 C 348.62 61.27 348.37 63.70 348.13 66.12 C 347.19 68.30 346.60 70.60 345.93 72.86 L 344.53 72.96 C 344.56 72.29 344.62 70.95 344.65 70.27 C 343.36 70.41 341.96 71.01 340.77 70.13 L 342.37 69.23 C 342.47 64.86 342.26 60.48 342.66 56.13 C 343.14 54.30 341.91 52.61 341.45 50.94 M 344.60 60.64 C 344.23 63.20 342.88 65.58 343.13 68.22 C 343.35 67.54 343.79 66.19 344.01 65.52 C 344.68 65.47 346.00 65.38 346.67 65.33 C 346.71 65.11 346.80 64.67 346.84 64.45 L 345.34 64.67 C 345.79 61.49 345.76 58.28 345.98 55.08 C 344.78 56.69 345.03 58.78 344.60 60.64 Z" />
<path fill="#ffffff" opacity="1.00" d=" M 151.98 57.06 C 152.06 54.42 148.86 52.18 150.60 49.66 C 153.41 53.61 154.16 58.80 157.32 62.53 C 156.96 63.32 156.59 64.10 156.21 64.88 C 155.63 64.00 154.49 62.23 153.91 61.35 C 154.71 63.67 155.99 65.78 157.04 67.99 C 156.36 67.60 155.00 66.83 154.32 66.44 C 153.97 66.05 153.26 65.26 152.91 64.86 C 151.90 60.40 149.45 56.54 147.56 52.44 C 147.83 52.15 148.37 51.57 148.65 51.28 C 149.77 53.20 150.65 55.26 151.98 57.06 Z" />
<path fill="#ffffff" opacity="1.00" d=" M 252.46 55.35 C 253.82 54.32 255.38 53.59 256.98 53.02 C 256.07 55.13 254.16 56.43 252.15 57.39 L 252.70 58.33 C 254.73 57.18 256.61 55.59 258.92 55.02 C 256.18 58.50 251.85 59.70 247.96 61.38 C 248.24 59.36 250.51 59.38 251.98 58.88 L 251.93 58.27 C 248.45 59.57 251.16 55.82 252.46 55.35 Z" />
<path fill="#ffffff" opacity="1.00" d=" M 262.73 53.47 C 263.17 53.40 264.06 53.25 264.50 53.17 C 265.03 54.80 265.58 56.43 265.93 58.11 C 264.67 57.69 263.89 56.86 263.57 55.61 C 263.19 55.93 262.43 56.57 262.06 56.89 C 262.28 55.75 262.50 54.61 262.73 53.47 Z" />
<path fill="#ffffff" opacity="1.00" d=" M 145.97 54.43 C 146.44 54.61 147.39 54.96 147.86 55.13 C 148.32 56.24 148.77 57.34 149.21 58.45 L 150.26 58.45 C 150.17 59.08 150.00 60.35 149.91 60.99 C 147.58 60.04 146.58 56.76 145.97 54.43 Z" />
<path fill="#ffffff" opacity="1.00" d=" M 331.98 58.97 C 331.87 57.41 330.10 54.04 333.06 54.18 C 333.49 58.10 334.72 62.03 333.67 65.98 C 331.81 64.26 332.95 61.20 331.98 58.97 Z" />
<path fill="#ffffff" opacity="1.00" d=" M 312.91 59.05 C 311.58 58.63 311.78 54.86 313.33 56.65 C 313.23 57.25 313.01 58.45 312.91 59.05 Z" />
<path fill="#ffffff" opacity="1.00" d=" M 339.37 56.37 C 339.65 56.66 339.65 56.66 339.37 56.37 Z" />
<path fill="#ffffff" opacity="1.00" d=" M 160.36 57.36 C 160.66 57.66 160.66 57.66 160.36 57.36 Z" />
<path fill="#ffffff" opacity="1.00" d=" M 140.45 63.19 C 140.66 61.41 141.32 59.68 142.39 58.23 C 142.82 59.15 143.49 59.76 144.39 60.08 C 144.76 59.34 145.50 57.85 145.87 57.10 C 147.61 60.16 149.47 63.21 150.27 66.68 L 152.05 66.45 C 150.69 65.05 149.12 63.05 149.91 60.99 C 151.52 61.37 151.93 63.62 152.91 64.86 C 153.52 66.19 154.03 67.78 155.82 67.69 C 155.48 69.66 155.39 71.67 155.23 73.66 C 157.75 74.76 158.37 78.26 161.38 78.56 C 160.35 76.61 158.83 74.96 156.98 73.76 C 156.78 72.23 156.08 70.65 156.33 69.12 C 157.65 68.57 158.19 70.34 158.97 71.02 C 160.32 72.40 160.99 74.23 161.29 76.11 C 161.65 76.30 162.36 76.70 162.71 76.89 C 162.19 79.43 163.63 81.75 165.02 83.73 C 164.72 82.14 164.23 80.60 163.57 79.12 C 164.32 79.17 165.83 79.27 166.59 79.32 L 166.75 80.46 C 167.01 80.66 167.51 81.05 167.77 81.25 C 167.65 80.42 167.41 78.76 167.29 77.93 C 168.34 79.04 169.03 80.41 169.99 81.59 C 169.54 81.56 168.64 81.52 168.20 81.49 C 168.69 84.65 164.34 83.29 163.57 85.71 L 162.46 86.30 C 162.53 86.70 162.67 87.49 162.75 87.89 C 160.97 86.88 157.58 86.93 158.16 84.07 L 160.14 84.10 C 158.30 82.53 160.01 81.14 161.65 80.44 C 160.92 79.90 160.14 79.52 159.30 79.30 C 159.05 79.69 158.56 80.48 158.32 80.87 C 157.51 80.26 156.71 79.66 155.91 79.05 C 156.68 80.61 157.64 82.05 158.74 83.40 C 155.71 84.77 153.90 80.63 152.22 78.83 C 153.13 76.19 150.62 74.32 148.91 72.79 C 148.76 72.25 148.47 71.17 148.32 70.63 L 147.49 71.35 C 145.29 68.46 142.31 66.33 139.25 64.45 C 139.15 64.14 138.95 63.54 138.86 63.24 L 140.45 63.19 M 141.12 63.19 C 141.81 63.87 141.81 63.87 141.12 63.19 M 156.10 76.30 L 155.85 76.88 C 156.25 77.17 157.06 77.75 157.47 78.04 L 157.74 77.43 C 157.33 77.15 156.51 76.58 156.10 76.30 Z" />
<path fill="#ffffff" opacity="1.00" d=" M 224.96 57.42 C 225.52 57.90 226.09 58.39 226.66 58.88 C 223.62 60.06 222.47 64.12 219.11 64.49 C 220.80 61.93 222.94 59.72 224.96 57.42 Z" />
<path fill="#ffffff" opacity="1.00" d=" M 247.16 58.56 C 247.85 58.27 249.22 57.69 249.90 57.40 C 249.72 59.53 247.35 59.93 245.92 60.97 C 245.53 62.36 245.34 64.86 243.25 63.85 C 242.87 63.59 242.11 63.06 241.73 62.80 L 243.89 62.50 C 243.34 62.14 242.25 61.41 241.71 61.04 C 242.72 60.72 244.74 60.09 245.75 59.77 L 244.84 58.58 C 245.42 58.58 246.58 58.57 247.16 58.56 Z" />
<path fill="#ffffff" opacity="1.00" d=" M 310.82 61.03 C 310.11 60.33 308.41 58.97 309.33 57.92 C 310.00 58.42 311.34 59.43 312.01 59.94 C 312.17 60.85 311.77 61.22 310.82 61.03 Z" />
<path fill="#ffffff" opacity="1.00" d=" M 220.30 67.99 C 221.58 63.98 225.11 61.13 228.71 59.22 C 228.79 59.65 228.94 60.51 229.02 60.93 L 228.06 60.26 C 227.31 61.16 226.56 62.05 225.81 62.94 L 225.03 63.05 L 224.97 63.81 C 224.67 64.04 224.06 64.51 223.76 64.75 C 222.73 65.95 221.94 67.55 220.30 67.99 Z" />
<path fill="#ffffff" opacity="1.00" d=" M 307.78 59.60 C 307.10 59.05 307.10 59.05 307.78 59.60 Z" />
<path fill="#ffffff" opacity="1.00" d=" M 313.43 62.58 C 313.47 60.97 313.68 59.32 314.84 58.10 C 315.18 60.85 318.23 64.63 315.61 66.96 C 315.38 66.21 314.92 64.70 314.69 63.95 C 314.35 64.16 313.67 64.58 313.33 64.79 C 312.83 64.13 311.83 62.82 311.33 62.16 C 311.85 62.26 312.91 62.47 313.43 62.58 Z" />
<path fill="#ffffff" opacity="1.00" d=" M 230.59 59.66 C 231.43 60.02 232.28 60.38 233.13 60.75 C 232.75 61.42 231.98 62.77 231.59 63.45 C 230.62 61.09 228.58 63.74 227.22 64.13 L 227.83 62.18 L 229.26 61.92 L 229.02 60.93 L 230.51 60.97 L 230.59 59.66 Z" />
<path fill="#ffffff" opacity="1.00" d=" M 350.50 59.93 C 351.20 62.11 351.33 64.39 351.14 66.66 C 351.59 65.76 352.13 64.92 352.76 64.13 C 353.86 65.45 353.01 67.33 353.21 68.84 L 355.21 68.04 C 354.95 72.26 352.04 75.44 349.80 78.78 C 348.88 80.03 347.97 81.50 346.30 81.77 C 345.52 83.38 344.73 85.05 343.31 86.22 C 343.97 86.64 344.64 87.07 345.30 87.50 C 345.08 85.66 347.12 85.03 348.34 84.28 C 348.51 83.96 348.84 83.31 349.00 82.99 C 350.51 81.02 352.49 79.38 353.49 77.05 C 354.51 75.21 354.96 72.85 356.91 71.70 C 357.26 72.75 357.61 73.80 357.95 74.85 C 356.66 76.65 355.51 78.54 354.71 80.60 C 354.09 80.39 352.83 79.95 352.20 79.73 C 351.66 80.77 351.07 81.77 350.42 82.75 C 349.61 83.70 350.96 84.25 351.55 84.75 C 349.14 87.35 346.52 89.77 344.36 92.59 C 343.84 93.59 342.54 93.07 341.70 93.16 C 342.37 91.59 343.56 90.01 345.39 89.77 C 344.26 88.95 343.02 88.30 341.75 87.73 C 341.28 88.94 340.40 89.69 339.10 89.98 C 339.62 88.72 341.01 87.69 340.85 86.25 C 340.00 86.82 338.29 87.96 337.43 88.53 C 337.11 86.33 340.29 85.24 339.23 83.22 L 341.38 84.01 C 338.99 81.32 341.20 81.12 343.18 81.38 C 344.43 79.82 345.69 78.28 347.06 76.82 L 346.55 80.02 C 348.61 77.88 349.83 75.10 351.87 72.94 C 352.94 71.89 353.44 69.75 351.87 68.83 C 350.45 71.15 350.23 74.71 347.68 76.01 L 347.78 73.69 C 346.84 74.60 346.09 75.68 345.80 76.97 L 345.19 77.04 C 343.91 78.55 343.27 80.92 341.01 81.26 C 342.83 78.24 344.76 75.26 347.08 72.60 C 349.22 68.68 348.89 64.04 350.50 59.93 M 348.18 72.22 C 348.74 72.86 348.74 72.86 348.18 72.22 M 348.05 85.94 C 348.75 85.25 348.75 85.25 348.05 85.94 M 346.97 87.04 C 346.25 87.74 346.25 87.74 346.97 87.04 C 347.24 86.77 347.78 86.22 348.05 85.94 C 347.78 86.22 347.24 86.77 346.97 87.04 Z" />
<path fill="#ffffff" opacity="1.00" d=" M 162.63 61.45 C 163.54 62.44 164.53 63.46 165.84 63.91 C 167.13 68.80 170.42 73.04 170.84 78.16 C 169.76 76.95 169.47 75.03 168.22 74.08 C 167.94 75.04 167.70 76.01 167.50 76.99 C 167.44 75.54 166.98 74.30 166.13 73.27 C 166.19 74.02 166.30 75.54 166.36 76.29 C 164.52 75.89 164.21 73.73 163.07 72.52 C 163.29 73.38 163.73 75.10 163.95 75.96 C 161.95 76.03 160.05 72.20 162.49 71.50 C 162.73 69.47 156.82 71.06 158.68 68.01 L 160.15 67.00 L 160.11 69.03 L 161.67 69.93 L 160.37 67.59 L 160.77 66.58 C 162.63 67.60 163.15 69.99 164.36 71.66 C 166.26 70.25 166.69 72.70 168.02 73.35 C 167.23 68.98 163.85 65.63 162.63 61.45 Z" />
<path fill="#ffffff" opacity="1.00" d=" M 216.03 62.70 C 216.48 62.57 217.40 62.32 217.86 62.19 C 218.00 63.97 216.51 65.27 216.58 67.02 C 215.95 70.54 217.98 73.71 218.17 77.18 C 216.76 75.21 215.34 76.55 214.45 77.77 C 214.36 76.30 214.47 74.85 214.76 73.41 C 214.26 73.42 213.27 73.43 212.77 73.43 C 211.85 70.59 211.75 67.51 211.87 64.54 C 212.04 64.35 212.39 63.96 212.56 63.76 C 212.24 65.91 212.05 69.39 215.35 68.70 C 215.52 66.69 215.77 64.69 216.03 62.70 Z" />
<path fill="#ffffff" opacity="1.00" d=" M 239.00 62.07 C 239.54 62.24 240.61 62.57 241.15 62.74 C 240.60 64.25 237.90 63.80 239.00 62.07 Z" />
<path fill="#ffffff" opacity="1.00" d=" M 161.36 63.36 C 161.66 63.66 161.66 63.66 161.36 63.36 Z" />
<path fill="#ffffff" opacity="1.00" d=" M 226.54 64.49 C 226.71 64.40 227.05 64.22 227.22 64.13 C 227.05 64.22 226.71 64.40 226.54 64.49 Z" />
<path fill="#ffffff" opacity="1.00" d=" M 256.92 62.97 C 258.85 64.29 260.49 65.97 261.87 67.85 C 259.26 68.24 257.89 64.96 256.92 62.97 Z" />
<path fill="#ffffff" opacity="1.00" d=" M 260.28 63.02 C 261.40 62.22 263.69 64.57 262.08 65.24 C 260.69 65.03 260.09 64.29 260.28 63.02 Z" />
<path fill="#ffffff" opacity="1.00" d=" M 226.07 64.99 C 226.19 64.86 226.43 64.62 226.54 64.49 C 226.43 64.62 226.19 64.86 226.07 64.99 Z" />
<path fill="#ffffff" opacity="1.00" d=" M 229.02 64.21 L 229.78 64.11 L 229.62 64.89 L 228.73 65.12 L 229.02 64.21 Z" />
<path fill="#ffffff" opacity="1.00" d=" M 236.56 63.70 C 237.55 64.08 238.54 64.47 239.53 64.88 C 239.03 65.01 238.03 65.28 237.53 65.41 L 237.57 66.79 C 236.94 66.57 235.67 66.13 235.04 65.91 L 235.33 66.96 C 233.02 67.40 231.51 69.50 229.71 70.85 C 229.18 70.71 228.11 70.43 227.58 70.29 C 227.07 69.64 226.55 69.00 226.03 68.36 L 225.53 69.93 C 225.07 69.07 224.61 68.21 224.14 67.37 C 224.02 69.76 221.57 71.32 219.57 72.21 C 220.53 70.38 221.84 68.76 223.23 67.24 C 223.74 66.52 224.74 65.09 225.25 64.37 C 225.45 64.53 225.86 64.84 226.07 64.99 C 226.04 66.32 226.84 66.64 227.95 66.12 C 228.22 66.99 228.51 67.85 228.81 68.71 C 229.18 67.25 230.09 66.14 231.52 65.37 C 232.20 65.54 232.88 65.71 233.56 65.87 C 234.56 65.16 235.57 64.44 236.56 63.70 Z" />
<path fill="#ffffff" opacity="1.00" d=" M 235.32 69.90 C 237.73 68.04 240.92 66.63 241.82 63.47 C 242.63 64.52 243.18 65.80 242.68 67.12 C 240.44 66.86 238.91 68.93 237.62 70.36 C 241.20 69.42 244.84 68.50 247.97 66.45 C 245.69 69.58 241.73 70.73 238.22 71.87 C 236.93 70.50 235.36 71.46 234.04 72.19 C 232.50 73.17 230.62 72.72 228.91 72.78 C 230.49 71.54 232.12 70.33 233.43 68.79 L 233.99 69.12 C 234.33 69.32 234.99 69.71 235.32 69.90 Z" />
<path fill="#ffffff" opacity="1.00" d=" M 270.20 66.45 C 271.62 65.40 273.03 64.32 274.43 63.22 L 274.59 65.63 L 272.76 65.15 L 272.11 66.77 C 272.80 66.69 274.18 66.52 274.87 66.43 C 273.66 68.52 272.24 70.50 270.30 71.96 C 270.71 70.67 270.65 69.43 270.10 68.23 C 270.58 67.83 271.52 67.03 272.00 66.63 C 271.55 66.58 270.65 66.50 270.20 66.45 Z" />
<path fill="#ffffff" opacity="1.00" d=" M 136.84 66.81 C 137.25 66.41 138.07 65.62 138.48 65.23 L 139.42 65.59 C 139.89 67.01 137.55 68.20 136.84 66.81 Z" />
<path fill="#ffffff" opacity="1.00" d=" M 156.89 65.08 C 158.25 64.28 159.54 66.96 158.68 68.01 L 158.18 68.02 C 157.86 67.28 157.21 65.81 156.89 65.08 Z" />
<path fill="#ffffff" opacity="1.00" d=" M 162.78 65.89 C 162.34 65.38 162.34 65.38 162.78 65.89 Z" />
<path fill="#ffffff" opacity="1.00" d=" M 227.81 65.53 L 228.73 65.12 L 228.61 66.01 L 227.95 66.12 L 227.81 65.53 Z" />
<path fill="#ffffff" opacity="1.00" d=" M 293.98 64.86 C 294.44 65.02 295.35 65.33 295.80 65.49 C 296.02 65.72 296.47 66.16 296.69 66.38 C 296.86 66.86 297.19 67.80 297.35 68.28 C 295.81 68.15 294.30 66.23 293.98 64.86 Z" />
<path fill="#ffffff" opacity="1.00" d=" M 160.77 66.58 C 160.11 65.99 160.11 65.99 160.77 66.58 Z" />
<path fill="#ffffff" opacity="1.00" d=" M 162.78 65.89 C 163.11 66.44 163.75 67.53 164.08 68.07 L 163.25 67.76 C 163.13 67.29 162.90 66.36 162.78 65.89 Z" />
<path fill="#ffffff" opacity="1.00" d=" M 136.81 68.13 C 138.36 67.83 139.89 67.39 141.37 66.83 C 143.20 69.15 147.08 69.98 147.79 73.03 C 145.59 73.47 144.45 70.45 142.23 70.64 C 140.10 71.00 138.54 68.93 136.81 68.13 Z" />
<path fill="#ffffff" opacity="1.00" d=" M 235.33 66.96 C 238.15 66.23 235.54 70.11 233.99 69.12 C 234.33 68.58 234.99 67.50 235.33 66.96 Z" />
<path fill="#ffffff" opacity="1.00" d=" M 308.24 67.24 C 308.58 67.58 308.58 67.58 308.24 67.24 Z" />
<path fill="#ffffff" opacity="1.00" d=" M 164.08 68.07 C 164.77 68.96 164.77 68.96 164.08 68.07 Z" />
<path fill="#ffffff" opacity="1.00" d=" M 297.35 68.28 L 298.11 68.44 L 298.23 69.23 L 297.46 69.09 L 297.35 68.28 Z" />
<path fill="#ffffff" opacity="1.00" d=" M 303.22 67.79 C 303.34 67.96 303.56 68.32 303.67 68.50 C 303.56 68.32 303.34 67.96 303.22 67.79 Z" />
<path fill="#ffffff" opacity="1.00" d=" M 311.22 67.77 C 312.59 67.71 313.15 68.37 312.92 69.75 C 311.54 69.82 310.98 69.16 311.22 67.77 Z" />
<path fill="#ffffff" opacity="1.00" d=" M 136.57 68.31 C 137.29 69.39 138.27 70.75 136.88 71.78 L 141.03 70.87 L 138.44 73.44 C 139.86 71.80 142.01 71.33 143.34 73.34 C 145.35 73.00 147.21 74.04 148.41 75.61 C 151.47 78.33 153.18 82.36 156.97 84.27 L 154.81 84.75 C 158.48 84.66 158.52 89.29 161.13 91.04 C 160.29 90.75 158.59 90.19 157.74 89.91 C 158.22 90.59 159.17 91.95 159.64 92.63 L 159.55 92.92 C 158.02 92.10 156.56 91.05 154.80 90.81 C 155.73 93.95 159.31 94.95 160.62 97.75 C 157.93 96.28 156.16 93.08 152.66 93.57 C 154.20 95.29 156.00 96.73 157.65 98.35 C 158.02 100.33 156.26 101.62 155.29 103.08 C 153.19 105.68 151.84 108.83 149.77 111.40 C 149.34 110.17 148.86 108.95 148.33 107.76 C 144.37 106.90 140.53 105.60 136.65 104.45 C 136.49 104.76 136.17 105.38 136.02 105.70 C 139.61 106.52 144.55 106.18 146.23 110.24 L 144.09 112.00 C 147.78 110.34 146.90 112.27 146.07 113.98 L 145.05 113.17 L 144.02 115.09 L 141.80 116.90 C 142.79 117.20 144.78 117.81 145.77 118.12 L 146.78 115.13 L 148.09 117.37 L 146.40 118.16 C 148.79 121.79 146.68 126.08 146.61 130.01 C 144.03 127.97 147.17 124.27 147.43 121.63 C 146.01 120.64 144.78 119.41 143.44 118.32 C 139.00 119.02 134.48 118.73 130.02 118.34 C 130.13 118.64 130.36 119.24 130.47 119.55 C 133.12 119.17 135.80 119.08 138.47 118.93 C 138.88 120.55 139.75 122.02 139.92 123.70 C 138.04 122.71 136.21 121.54 134.04 121.33 C 139.46 124.74 144.68 129.43 147.49 135.32 C 153.15 138.79 155.48 145.40 156.73 151.55 C 155.82 151.98 154.91 152.42 154.00 152.87 C 153.00 152.44 149.20 153.48 150.36 151.51 C 152.14 151.09 153.99 151.05 155.80 151.39 C 155.67 150.52 155.41 148.79 155.28 147.93 C 154.66 148.38 153.42 149.30 152.80 149.76 C 152.66 149.35 152.39 148.53 152.25 148.11 C 149.04 147.84 145.81 147.60 142.60 147.94 L 142.03 148.96 C 144.49 149.40 146.97 149.67 149.47 149.60 L 149.66 151.70 C 148.08 151.54 146.50 151.37 144.93 151.20 C 145.44 151.65 146.46 152.55 146.96 153.00 C 143.97 152.74 141.03 152.17 138.08 151.62 C 138.13 149.16 140.62 150.59 141.92 151.04 C 141.83 150.22 141.66 148.57 141.57 147.75 C 140.30 147.47 139.04 147.12 137.80 146.71 C 139.21 145.92 140.63 146.97 141.99 147.30 C 145.19 147.63 148.41 147.12 151.51 146.33 C 152.28 146.69 153.84 147.42 154.61 147.78 C 153.93 146.09 153.23 144.42 152.71 142.68 C 148.34 145.01 142.08 146.90 137.90 143.26 C 140.70 143.60 143.53 143.78 146.29 144.37 C 148.36 143.48 151.18 142.39 151.28 139.78 L 150.26 139.06 C 149.24 140.52 147.86 141.47 146.12 141.91 C 146.67 140.28 147.83 139.16 149.59 138.54 C 148.09 134.91 144.75 139.24 142.40 139.71 L 142.41 137.43 C 143.87 138.11 145.01 136.82 146.11 136.12 C 145.10 136.35 143.10 136.82 142.10 137.05 C 142.70 135.91 147.06 133.64 143.78 132.37 C 143.64 133.89 142.76 135.01 141.16 135.73 C 141.79 134.61 143.05 132.38 143.68 131.27 C 142.80 131.99 141.04 133.42 140.16 134.14 C 140.32 134.59 140.63 135.50 140.78 135.96 L 139.50 136.77 C 141.61 133.14 136.75 134.32 138.62 136.54 C 138.96 138.10 140.70 138.35 141.89 138.99 C 140.04 139.44 138.23 139.98 136.43 140.59 C 136.34 140.26 136.16 139.58 136.07 139.25 C 137.37 139.40 138.34 138.84 138.99 137.57 C 138.56 134.74 134.35 138.09 135.06 135.21 C 136.36 134.65 137.75 134.42 139.12 134.11 C 140.10 132.81 141.11 131.53 142.23 130.35 C 140.62 128.17 138.60 126.25 136.35 124.74 C 136.05 125.51 134.74 130.10 133.82 128.02 C 132.14 125.87 136.50 124.18 134.33 122.35 C 132.36 124.93 130.10 127.59 127.11 128.97 C 125.34 129.20 124.88 128.39 125.73 126.55 L 124.13 127.02 L 123.84 125.81 C 122.44 126.10 121.57 125.06 120.64 124.23 L 120.49 123.54 C 117.11 124.72 114.82 121.95 114.00 119.05 C 115.17 117.73 116.64 116.74 118.22 115.97 C 119.27 116.26 120.32 116.55 121.37 116.83 C 121.99 116.99 123.23 117.32 123.85 117.48 C 123.46 118.09 122.67 119.31 122.28 119.92 C 124.54 119.38 126.01 116.58 128.58 117.66 C 127.51 115.41 123.77 117.83 123.44 114.82 C 124.09 114.55 125.38 114.00 126.03 113.72 C 125.45 113.27 124.29 112.35 123.72 111.90 C 127.28 110.54 130.98 109.57 134.62 108.43 C 134.83 108.08 135.26 107.37 135.48 107.01 C 131.90 107.90 128.68 109.90 125.04 110.59 C 122.60 110.57 123.41 107.34 125.35 107.32 C 128.06 106.00 131.17 106.36 133.98 105.39 C 131.06 105.81 128.12 106.16 125.16 106.01 L 125.15 104.07 C 131.40 103.55 137.81 101.10 143.97 103.65 C 142.11 102.12 138.88 102.22 137.78 99.99 C 137.97 99.80 138.37 99.41 138.57 99.22 C 141.69 100.28 145.41 99.54 148.06 101.72 C 147.88 101.46 147.51 100.96 147.33 100.71 C 140.71 98.57 133.91 96.70 126.88 97.61 L 126.59 99.04 C 130.26 98.79 133.93 97.98 137.62 98.57 C 137.15 99.48 136.74 100.41 136.37 101.37 C 132.79 102.02 129.16 102.38 125.55 102.84 L 124.10 101.77 C 124.73 101.36 125.98 100.55 126.60 100.15 C 127.40 100.26 128.99 100.50 129.79 100.61 C 128.20 99.97 126.45 99.98 124.77 99.74 C 126.07 97.74 125.77 95.25 126.75 93.13 C 126.77 93.88 126.81 95.37 126.84 96.12 C 130.45 94.29 134.34 96.65 138.11 95.69 C 134.91 94.40 131.49 93.73 128.02 93.98 C 128.24 92.93 128.46 91.89 128.68 90.85 C 128.24 90.93 127.35 91.09 126.91 91.18 C 127.46 90.13 128.57 88.02 129.12 86.97 C 129.61 87.66 130.09 88.35 130.56 89.05 C 131.46 88.85 133.25 88.47 134.14 88.28 C 137.38 88.84 140.34 91.11 143.74 90.37 C 141.72 94.46 146.43 92.87 148.01 94.56 C 147.06 93.47 145.57 93.23 144.51 92.33 C 142.84 91.20 146.99 90.31 144.87 89.60 C 142.61 90.13 140.34 89.52 138.10 89.16 C 137.46 88.52 136.78 87.95 136.04 87.44 C 133.64 88.11 131.13 87.44 129.00 86.29 C 129.46 85.31 130.37 83.34 130.83 82.35 C 131.54 82.57 133.97 83.36 132.21 84.08 C 131.80 84.26 130.97 84.63 130.55 84.82 C 131.97 85.82 133.24 85.41 134.36 83.60 L 134.96 85.85 C 134.81 84.74 134.66 83.63 134.50 82.52 C 133.44 82.44 132.42 82.22 131.42 81.86 C 132.17 77.05 134.45 72.65 136.57 68.31 M 134.91 75.56 C 138.42 75.65 140.79 78.67 144.10 79.34 C 145.75 80.21 147.12 81.52 148.72 82.48 C 145.93 77.80 140.62 75.73 136.16 73.03 C 135.85 73.67 135.22 74.93 134.91 75.56 M 134.10 76.96 C 134.09 77.44 134.07 78.39 134.07 78.87 C 140.00 81.03 145.76 83.93 150.89 87.66 C 148.86 84.77 146.03 82.26 142.48 81.54 C 139.15 81.01 137.34 77.69 134.10 76.96 M 146.22 76.81 C 147.90 78.58 150.04 80.40 150.31 82.98 C 150.22 84.28 151.07 86.11 152.74 85.45 C 152.78 85.77 152.87 86.40 152.91 86.72 C 153.12 85.96 153.34 85.21 153.56 84.46 C 150.22 82.66 150.25 77.34 146.22 76.81 M 152.18 95.18 C 152.35 95.99 152.67 97.62 152.84 98.43 C 151.21 98.37 149.67 97.83 148.20 97.22 C 150.00 98.50 152.38 102.91 147.97 102.22 C 148.54 102.84 149.68 104.10 150.25 104.73 C 148.57 104.63 146.91 104.48 145.25 104.27 C 146.95 105.83 149.05 106.83 151.12 107.81 C 150.90 107.02 150.68 106.24 150.46 105.46 C 152.73 104.53 155.27 102.36 155.68 99.81 L 153.72 99.48 L 153.06 97.58 L 155.64 99.62 L 156.18 99.21 L 156.97 98.44 C 155.37 97.36 153.77 96.28 152.18 95.18 M 156.18 99.21 C 156.88 99.91 156.88 99.91 156.18 99.21 M 132.18 113.39 C 132.25 113.67 132.40 114.21 132.48 114.48 C 134.96 113.94 137.47 113.55 140.02 113.50 C 137.43 112.86 134.73 112.26 132.18 113.39 M 115.44 118.33 C 115.81 119.57 115.88 121.13 117.25 121.73 C 119.04 121.98 121.02 122.03 122.18 123.68 C 122.99 122.72 123.82 121.79 124.66 120.87 C 122.21 121.18 119.75 119.37 117.52 121.12 C 118.35 119.41 120.02 118.35 121.26 116.98 C 119.32 117.42 117.38 117.87 115.44 118.33 M 125.28 122.20 C 125.32 123.32 126.00 124.30 126.33 125.36 C 126.07 122.59 128.24 121.32 129.85 119.64 C 128.28 120.22 125.96 120.33 125.28 122.20 M 129.89 120.75 C 129.59 121.36 128.98 122.57 128.68 123.18 C 128.95 123.57 129.49 124.35 129.77 124.74 L 130.61 125.87 C 131.63 124.39 132.79 123.03 134.03 121.73 C 132.62 121.49 131.25 121.16 129.89 120.75 M 128.68 123.18 C 127.94 123.85 127.94 123.85 128.68 123.18 M 126.28 126.93 C 127.42 126.73 130.15 126.33 129.77 124.74 C 128.32 123.77 126.46 125.62 126.28 126.93 Z" />
<path fill="#ffffff" opacity="1.00" d=" M 298.23 69.23 C 298.80 69.80 298.80 69.80 298.23 69.23 Z" />
<path fill="#ffffff" opacity="1.00" d=" M 303.67 68.50 C 305.04 68.77 305.67 69.56 305.56 70.89 C 304.12 70.79 303.48 69.99 303.67 68.50 Z" />
<path fill="#ffffff" opacity="1.00" d=" M 330.46 68.01 C 331.56 70.52 330.43 73.75 328.40 75.47 C 329.67 75.73 330.91 76.16 332.07 76.77 C 331.04 78.09 328.93 78.96 329.16 80.91 C 328.13 80.89 327.10 80.76 326.17 80.31 L 327.54 79.09 L 327.23 77.05 L 329.07 77.75 C 328.64 77.07 328.24 76.38 327.87 75.67 C 329.52 73.44 329.65 70.58 330.46 68.01 Z" />
<path fill="#ffffff" opacity="1.00" d=" M 165.24 70.24 C 165.58 70.58 165.58 70.58 165.24 70.24 Z" />
<path fill="#ffffff" opacity="1.00" d=" M 260.61 71.19 C 260.49 72.53 260.42 73.87 260.40 75.21 C 262.04 75.44 262.81 76.41 262.69 78.12 C 262.89 77.69 263.29 76.82 263.48 76.38 L 264.71 76.72 L 264.47 75.13 L 267.03 75.17 C 267.28 76.60 265.44 79.39 267.58 79.96 C 267.41 79.19 267.08 77.63 266.91 76.86 C 267.54 77.15 268.79 77.74 269.41 78.03 C 269.03 76.44 268.66 74.87 268.42 73.25 C 269.95 73.73 269.53 75.64 270.10 76.77 C 270.75 76.19 271.45 75.71 272.21 75.31 C 273.48 78.93 274.00 82.82 275.72 86.28 C 274.71 86.48 273.68 86.60 272.65 86.64 C 271.81 85.18 270.97 83.72 270.11 82.27 C 270.31 84.07 270.14 86.07 271.41 87.56 C 270.98 88.38 270.55 89.20 270.12 90.02 C 270.01 87.66 266.84 82.71 265.55 87.41 C 266.05 87.42 267.05 87.43 267.55 87.44 C 267.76 90.29 267.93 93.17 267.52 96.02 C 267.12 94.26 266.81 92.49 266.49 90.72 C 265.30 91.91 265.44 93.66 265.27 95.20 C 264.75 95.40 263.71 95.78 263.18 95.98 C 263.98 91.94 265.32 88.01 265.67 83.90 L 263.69 84.66 C 263.73 85.27 263.81 86.49 263.85 87.10 C 262.75 85.92 261.93 85.90 261.38 87.04 C 264.43 90.32 261.39 94.68 260.87 98.36 L 259.65 98.70 C 258.49 94.69 262.53 91.64 261.93 87.90 C 261.46 88.44 260.54 89.52 260.07 90.06 C 260.13 89.47 260.26 88.29 260.32 87.70 C 259.74 86.00 257.37 86.39 257.16 88.12 C 253.91 84.43 253.63 79.24 251.22 75.06 C 252.69 75.65 252.79 77.63 254.46 78.01 C 254.36 76.43 254.95 74.50 253.27 73.59 C 254.39 73.53 255.52 73.43 256.64 73.28 C 256.56 74.48 256.50 75.69 256.45 76.90 L 258.19 76.85 C 258.16 75.54 258.14 74.22 258.13 72.90 C 259.19 72.66 260.02 72.09 260.61 71.19 M 259.89 76.91 C 259.75 79.80 259.17 83.07 260.28 85.80 C 260.47 85.70 260.83 85.49 261.02 85.39 C 260.54 82.74 261.72 78.90 259.89 76.91 M 255.25 80.26 C 253.64 83.13 258.52 80.72 255.25 80.26 Z" />
<path fill="#ffffff" opacity="1.00" d=" M 319.46 71.01 C 322.58 72.82 320.53 77.51 320.60 80.45 L 319.39 80.45 C 318.60 81.24 317.98 82.16 317.55 83.20 C 315.63 81.84 317.40 79.30 317.39 77.46 C 317.91 77.14 318.95 76.50 319.46 76.18 C 319.57 74.46 319.54 72.73 319.46 71.01 Z" />
<path fill="#ffffff" opacity="1.00" d=" M 330.72 75.16 C 331.20 73.69 332.27 71.55 334.01 71.47 C 334.49 72.77 332.78 73.82 332.27 74.90 C 331.88 74.97 331.11 75.10 330.72 75.16 Z" />
<path fill="#ffffff" opacity="1.00" d=" M 333.00 78.93 C 333.08 76.17 335.84 73.76 337.94 72.13 C 337.22 74.72 335.24 76.66 333.92 78.94 C 333.69 78.94 333.23 78.93 333.00 78.93 Z" />
<path fill="#ffffff" opacity="1.00" d=" M 235.11 73.02 C 237.00 73.22 238.59 76.38 240.37 74.13 C 240.35 74.46 240.30 75.12 240.28 75.45 C 240.33 76.65 240.37 77.85 240.40 79.06 C 239.02 78.19 238.18 76.27 236.35 76.35 L 236.91 75.42 C 236.15 74.74 235.56 73.93 235.11 73.02 Z" />
<path fill="#ffffff" opacity="1.00" d=" M 244.30 73.45 C 246.71 73.58 247.28 76.61 249.17 77.66 L 248.47 74.82 C 250.00 75.54 250.24 76.59 249.21 77.98 L 250.79 77.10 C 251.80 80.72 254.93 83.65 254.55 87.60 C 253.00 87.11 251.39 86.40 250.61 84.88 C 248.58 81.70 244.97 79.67 244.08 75.75 L 248.97 80.27 L 248.49 77.17 L 247.42 77.69 C 246.37 76.28 245.27 74.91 244.30 73.45 Z" />
<path fill="#ffffff" opacity="1.00" d=" M 284.41 79.89 C 285.75 77.69 285.97 74.71 287.90 72.95 C 287.51 74.64 286.29 76.29 287.23 78.02 C 286.44 78.88 285.70 79.91 284.41 79.89 Z" />
<path fill="#ffffff" opacity="1.00" d=" M 334.92 80.06 C 337.12 77.50 338.75 74.22 341.91 72.70 C 342.65 75.92 339.08 78.02 338.53 81.06 C 337.31 83.18 336.13 86.74 333.37 86.83 C 333.80 86.10 334.25 85.37 334.71 84.65 C 335.85 82.94 336.80 81.12 337.78 79.31 L 337.45 79.01 C 335.17 81.94 332.98 85.14 329.83 87.18 C 330.85 84.38 333.31 82.49 334.92 80.06 Z" />
<path fill="#ffffff" opacity="1.00" d=" M 290.57 74.25 C 290.73 74.35 291.06 74.56 291.22 74.67 C 291.16 75.51 291.04 77.20 290.98 78.04 C 290.28 79.59 289.57 81.13 288.85 82.67 C 287.97 82.19 287.09 81.73 286.21 81.28 C 286.62 78.41 289.02 76.51 290.57 74.25 Z" />
<path fill="#ffffff" opacity="1.00" d=" M 231.18 74.88 C 231.57 74.91 232.35 74.97 232.74 75.00 L 232.24 76.48 C 234.64 75.94 235.55 78.76 236.17 80.47 C 236.85 80.11 238.22 79.39 238.91 79.03 L 239.09 80.66 L 237.36 80.12 C 237.93 82.48 235.34 82.47 233.95 83.27 C 231.32 82.01 231.37 78.53 230.05 76.29 L 232.29 77.01 C 232.01 76.48 231.46 75.41 231.18 74.88 Z" />
<path fill="#ffffff" opacity="1.00" d=" M 274.55 75.21 C 276.76 75.72 274.97 79.22 277.24 79.79 L 277.26 77.89 C 277.81 79.63 278.43 81.37 278.59 83.22 C 281.15 82.44 279.53 79.68 279.41 77.91 C 281.51 78.94 282.15 81.73 282.39 83.88 L 282.92 83.97 C 283.00 83.27 283.16 81.87 283.24 81.16 L 283.89 81.25 C 283.75 82.11 283.47 83.84 283.33 84.71 L 284.59 84.48 C 284.56 85.53 284.50 87.64 284.46 88.69 C 284.98 88.35 286.00 87.68 286.51 87.34 C 286.00 89.94 287.52 92.23 288.18 94.64 C 288.25 95.44 288.81 96.80 287.51 96.88 C 285.39 95.79 283.85 94.01 284.16 91.47 C 283.69 91.57 282.76 91.76 282.29 91.86 L 283.20 89.10 C 279.87 92.37 279.83 88.40 279.71 85.95 C 279.36 90.17 276.32 88.13 276.30 85.82 C 275.82 82.26 273.84 78.86 274.55 75.21 Z" />
<path fill="#ffffff" opacity="1.00" d=" M 180.90 77.22 C 182.66 75.87 184.93 76.63 186.95 76.49 C 184.17 77.90 180.93 78.26 178.44 80.27 C 175.40 81.78 174.81 85.93 171.65 87.14 C 173.07 82.56 177.22 79.87 180.90 77.22 Z" />
<path fill="#ffffff" opacity="1.00" d=" M 187.93 76.29 C 190.99 76.29 194.10 76.47 197.00 77.57 C 200.69 78.48 203.43 81.38 206.97 82.70 C 206.39 82.66 205.22 82.59 204.64 82.55 C 201.93 80.55 197.96 80.66 195.90 77.77 C 193.26 77.25 190.45 77.35 187.93 76.29 Z" />
<path fill="#ffffff" opacity="1.00" d=" M 236.38 77.27 L 237.06 77.33 L 237.18 78.11 L 236.43 77.98 L 236.38 77.27 Z" />
<path fill="#ffffff" opacity="1.00" d=" M 291.26 79.59 C 292.89 82.19 294.92 78.78 294.56 76.92 C 294.88 77.68 295.50 79.20 295.81 79.96 C 294.59 81.30 293.34 82.60 292.16 83.97 C 294.59 83.74 294.99 80.49 297.26 80.09 C 297.82 81.24 298.18 82.42 298.36 83.65 C 299.95 82.65 300.23 84.53 300.76 85.43 C 299.93 86.06 299.10 86.70 298.26 87.32 L 299.26 84.73 C 297.69 86.12 295.73 86.73 293.83 87.45 C 292.80 86.32 291.91 84.73 290.18 84.78 C 290.33 83.02 290.47 81.22 291.26 79.59 Z" />
<path fill="#ffffff" opacity="1.00" d=" M 356.68 79.68 C 357.57 78.39 358.06 76.59 359.83 76.21 C 359.13 77.81 358.35 79.36 357.48 80.87 C 356.60 81.82 355.77 83.05 356.07 84.41 C 355.14 84.54 354.21 84.65 353.28 84.76 L 355.00 82.39 C 354.21 82.49 352.62 82.69 351.83 82.80 C 352.83 80.89 355.93 81.88 356.68 79.68 Z" />
<path fill="#ffffff" opacity="1.00" d=" M 226.92 78.27 C 227.56 78.29 228.84 78.31 229.48 78.32 C 229.78 79.79 230.21 81.24 230.75 82.64 C 229.90 82.36 229.05 82.08 228.20 81.82 C 227.64 80.69 227.20 79.50 226.92 78.27 Z" />
<path fill="#ffffff" opacity="1.00" d=" M 237.18 78.11 C 237.77 78.77 237.77 78.77 237.18 78.11 Z" />
<path fill="#ffffff" opacity="1.00" d=" M 243.40 79.29 C 245.13 79.49 246.93 81.45 246.98 83.18 C 246.45 83.15 245.39 83.10 244.86 83.07 C 244.91 81.60 243.87 80.48 243.40 79.29 Z" />
<path fill="#ffffff" opacity="1.00" d=" M 332.04 78.69 C 332.28 78.75 332.76 78.87 333.00 78.93 C 333.18 81.52 330.57 83.05 328.68 84.26 C 329.28 82.13 330.80 80.47 332.04 78.69 Z" />
<path fill="#ffffff" opacity="1.00" d=" M 222.81 79.85 C 223.76 80.52 224.42 81.51 225.12 82.42 C 223.50 82.61 221.92 83.04 220.40 83.68 C 221.09 84.17 222.46 85.15 223.15 85.64 L 221.29 85.80 C 221.83 87.48 223.90 87.30 225.16 88.12 C 226.01 88.89 224.80 89.72 224.43 90.29 C 222.32 93.30 217.40 92.77 215.95 96.29 C 215.49 95.89 215.03 95.49 214.58 95.08 C 213.31 96.11 212.02 97.12 210.74 98.13 C 210.18 97.10 209.61 96.09 208.91 95.16 C 210.01 94.47 211.07 93.72 212.10 92.94 C 211.89 93.74 211.45 95.35 211.24 96.16 C 212.70 95.20 213.86 92.86 215.97 93.46 C 216.85 92.42 217.76 91.39 218.73 90.43 C 218.17 88.77 218.76 87.33 220.50 86.11 C 217.93 88.79 216.14 84.11 219.57 85.67 C 219.19 84.72 218.82 83.77 218.47 82.81 C 220.15 82.23 219.96 79.86 222.14 80.17 C 222.37 80.69 222.83 81.73 223.06 82.25 C 223.00 81.65 222.87 80.45 222.81 79.85 Z" />
<path fill="#ffffff" opacity="1.00" d=" M 357.48 80.87 C 358.32 80.26 360.01 79.04 360.86 78.44 C 360.07 81.59 358.50 85.35 355.46 86.81 C 355.62 86.21 355.92 85.01 356.07 84.41 C 357.71 84.40 358.40 82.05 357.48 80.87 Z" />
<path fill="#ffffff" opacity="1.00" d=" M 246.98 83.18 C 247.17 82.98 247.54 82.57 247.72 82.36 C 248.58 84.46 250.03 86.24 251.36 88.06 C 250.57 88.25 249.00 88.64 248.21 88.83 L 248.12 87.51 C 246.81 89.31 245.24 88.87 243.76 87.24 C 243.71 87.83 243.61 89.02 243.56 89.62 C 240.69 88.64 242.97 86.55 243.52 84.92 L 244.18 86.32 C 244.48 84.35 246.62 84.85 246.98 83.18 Z" />
<path fill="#ffffff" opacity="1.00" d=" M 357.96 86.30 C 358.87 85.09 359.78 83.88 360.82 82.78 L 359.78 86.72 C 360.59 85.83 362.20 84.04 363.01 83.15 C 362.97 85.24 361.33 86.78 360.50 88.57 L 362.52 87.69 C 362.30 88.49 362.08 89.29 361.87 90.09 L 360.11 88.66 L 361.02 91.05 L 358.89 89.18 L 359.79 92.09 L 357.94 90.66 C 360.03 94.09 354.25 94.99 353.35 97.63 C 354.36 97.54 356.38 97.37 357.39 97.29 C 358.33 94.16 362.22 92.91 365.08 91.97 C 363.31 95.08 358.82 95.11 357.18 98.39 C 359.82 97.47 362.07 94.95 365.05 95.17 C 361.76 97.19 358.49 99.87 354.66 100.54 C 354.74 103.36 350.33 103.13 349.90 105.87 C 354.14 103.36 358.45 100.97 363.03 99.13 C 364.30 99.50 365.86 99.37 366.88 100.36 C 360.46 101.80 353.83 104.62 349.28 109.46 C 348.61 109.56 347.28 109.74 346.61 109.83 C 349.96 107.83 344.44 106.94 346.17 105.37 C 348.30 102.62 351.28 100.61 354.25 98.86 C 353.88 98.41 353.50 97.97 353.13 97.53 C 351.37 99.41 349.31 100.97 347.09 102.28 L 346.95 102.80 C 346.60 103.09 345.90 103.67 345.55 103.96 C 345.26 103.89 344.69 103.74 344.40 103.66 C 346.58 99.48 351.67 98.04 354.28 94.23 C 355.81 92.03 357.46 89.90 359.20 87.86 C 358.68 87.97 357.65 88.19 357.13 88.30 L 356.80 87.21 L 358.67 87.71 L 357.96 86.30 Z" />
<path fill="#ffffff" opacity="1.00" d=" M 178.21 91.49 C 181.11 90.43 180.01 87.11 181.60 85.07 C 181.14 89.28 180.33 93.55 181.70 97.70 C 179.97 96.89 179.46 95.05 178.77 93.44 C 177.81 92.12 176.81 90.82 176.04 89.37 C 176.57 88.27 177.09 87.16 177.60 86.04 C 177.81 87.86 178.00 89.67 178.21 91.49 Z" />
<path fill="#ffffff" opacity="1.00" d=" M 306.67 87.33 C 305.96 86.61 306.16 84.87 307.53 85.40 C 308.74 86.74 309.82 88.20 310.73 89.77 C 311.08 87.59 309.26 86.23 308.34 84.52 C 311.73 85.61 315.37 85.10 318.76 86.19 C 320.27 86.21 321.71 86.58 322.96 87.46 C 328.67 86.89 334.29 88.78 338.87 92.16 C 339.09 92.61 339.53 93.52 339.75 93.97 C 337.80 94.25 337.10 92.05 335.91 90.94 C 334.95 90.56 333.99 90.17 333.04 89.77 C 328.74 88.64 324.37 88.09 319.99 87.36 C 316.57 88.54 312.90 89.19 310.03 91.59 C 308.86 90.21 307.68 88.84 306.67 87.33 Z" />
<path fill="#ffffff" opacity="1.00" d=" M 208.32 89.48 C 209.52 87.48 211.29 85.66 213.86 86.30 C 212.15 87.61 210.80 89.99 208.32 89.48 Z" />
<path fill="#ffffff" opacity="1.00" d=" M 253.61 90.97 C 252.95 89.13 254.03 88.07 255.87 88.14 C 257.19 89.89 254.30 91.01 253.58 92.40 C 251.56 92.84 250.52 94.54 249.61 96.23 C 249.28 96.01 248.63 95.59 248.31 95.38 C 246.77 97.52 246.10 100.90 243.30 101.72 C 244.45 98.40 247.46 95.91 247.78 92.29 C 250.31 93.29 251.23 90.40 252.52 88.92 C 252.79 89.43 253.34 90.46 253.61 90.97 Z" />
<path fill="#ffffff" opacity="1.00" d=" M 272.23 89.56 C 271.96 83.99 275.41 90.15 276.77 91.22 C 279.65 90.93 279.38 96.10 282.32 94.64 C 284.15 96.85 285.86 99.16 287.75 101.32 C 286.97 101.82 286.20 102.33 285.44 102.86 C 288.35 102.94 287.84 106.84 288.91 108.86 C 286.20 107.89 285.90 104.72 284.35 102.64 C 284.35 102.05 284.33 100.88 284.32 100.29 C 283.87 99.51 282.97 97.94 282.51 97.16 C 282.24 97.58 281.69 98.40 281.42 98.81 C 279.82 96.38 276.43 95.75 275.27 93.10 C 274.83 93.45 273.95 94.14 273.51 94.49 C 273.54 93.99 273.60 92.99 273.64 92.49 C 270.91 93.64 270.08 90.53 271.93 89.06 L 272.75 91.40 C 273.02 90.95 273.55 90.05 273.81 89.60 L 272.23 89.56 Z" />
<path fill="#ffffff" opacity="1.00" d=" M 304.75 87.27 C 306.30 89.13 307.96 90.98 308.86 93.28 C 307.62 92.71 305.94 91.75 305.47 93.74 C 304.26 92.62 303.52 91.24 303.23 89.61 L 304.65 89.70 C 304.68 89.09 304.73 87.88 304.75 87.27 Z" />
<path fill="#ffffff" opacity="1.00" d=" M 350.37 90.40 C 352.11 90.97 353.46 89.72 354.86 88.91 C 351.52 93.36 347.88 97.87 342.88 100.49 C 343.43 99.56 344.55 97.68 345.10 96.74 C 343.80 97.50 342.53 98.29 341.19 98.96 C 342.31 96.53 344.22 94.67 346.97 94.42 C 348.15 93.12 349.29 91.78 350.37 90.40 Z" />
<path fill="#ffffff" opacity="1.00" d=" M 244.60 91.92 C 244.37 92.85 243.89 94.70 243.66 95.62 C 244.54 94.78 246.31 93.09 247.20 92.25 L 246.91 94.04 C 244.99 95.71 244.34 98.29 242.53 100.05 C 242.12 98.91 241.73 97.79 241.34 96.66 C 242.45 95.09 243.47 93.47 244.60 91.92 Z" />
<path fill="#ffffff" opacity="1.00" d=" M 257.34 93.75 C 258.16 93.13 259.01 92.54 259.88 91.98 C 259.22 94.52 258.56 97.07 257.95 99.63 C 253.92 99.44 251.33 103.33 247.81 104.57 L 247.65 105.99 C 247.29 105.93 246.58 105.83 246.23 105.77 C 247.13 104.09 248.65 102.57 248.43 100.53 L 249.65 100.59 L 249.28 99.23 C 249.75 99.35 250.70 99.58 251.17 99.69 L 251.30 97.70 L 252.80 96.97 C 252.52 97.81 251.98 99.49 251.70 100.33 C 254.06 98.25 254.27 94.68 256.27 92.26 L 257.34 93.75 Z" />
<path fill="#ffffff" opacity="1.00" d=" M 185.63 100.60 C 183.62 99.72 183.70 95.49 185.44 94.01 C 185.65 96.18 186.18 98.44 185.63 100.60 Z" />
<path fill="#ffffff" opacity="1.00" d=" M 192.16 104.11 C 189.00 102.15 191.15 97.67 191.68 94.80 C 191.82 96.75 191.16 98.98 192.58 100.61 L 193.55 100.37 C 194.08 102.50 195.72 104.61 194.75 106.85 C 192.15 107.04 193.36 103.35 192.35 101.75 C 192.30 102.34 192.21 103.52 192.16 104.11 Z" />
<path fill="#ffffff" opacity="1.00" d=" M 219.22 96.64 C 220.52 96.04 221.80 95.43 223.09 94.81 C 225.18 94.94 226.16 95.94 226.05 97.81 C 226.54 97.11 227.02 96.41 227.51 95.71 C 228.02 96.48 229.06 98.03 229.58 98.80 C 228.92 98.68 227.62 98.44 226.97 98.33 L 227.56 100.69 C 227.22 100.52 226.53 100.19 226.19 100.02 C 225.55 96.78 221.72 97.38 219.27 97.43 C 219.26 97.23 219.24 96.84 219.22 96.64 Z" />
<path fill="#ffffff" opacity="1.00" d=" M 304.34 95.62 C 305.00 95.20 306.32 94.37 306.99 93.96 L 305.94 95.73 C 308.99 98.00 310.93 101.41 313.77 103.93 C 311.83 103.50 310.01 102.69 308.28 101.73 C 308.77 99.01 305.58 97.65 304.34 95.62 Z" />
<path fill="#ffffff" opacity="1.00" d=" M 213.64 97.25 C 213.97 97.80 213.97 97.80 213.64 97.25 Z" />
<path fill="#ffffff" opacity="1.00" d=" M 282.92 103.79 C 280.42 104.11 280.00 100.81 279.28 99.00 C 280.80 100.33 282.42 101.74 282.92 103.79 Z" />
<path fill="#ffffff" opacity="1.00" d=" M 221.40 101.15 C 222.72 101.50 223.88 101.27 224.87 100.48 C 225.64 101.05 226.06 101.82 226.15 102.79 C 225.53 102.77 224.31 102.73 223.70 102.71 C 223.68 103.11 223.64 103.91 223.62 104.31 C 222.74 104.27 221.85 104.23 220.97 104.22 C 220.82 103.73 220.53 102.75 220.38 102.26 C 221.15 102.73 221.88 103.30 222.75 103.60 C 222.20 102.83 221.75 102.02 221.40 101.15 Z" />
<path fill="#ffffff" opacity="1.00" d=" M 298.10 101.85 C 299.12 101.27 300.13 100.68 301.14 100.08 C 302.00 100.84 304.24 101.47 303.15 102.98 C 301.10 102.64 299.21 103.36 297.31 103.99 C 297.51 103.46 297.91 102.39 298.10 101.85 Z" />
<path fill="#ffffff" opacity="1.00" d=" M 227.14 106.82 C 227.36 103.74 230.43 102.05 232.35 100.02 C 232.67 100.60 233.31 101.75 233.64 102.33 C 233.00 102.99 232.53 103.76 232.24 104.64 L 233.89 104.37 C 233.62 108.66 229.49 111.16 226.61 113.85 C 224.38 112.80 222.40 114.84 220.34 115.39 C 220.70 114.69 221.42 113.29 221.78 112.59 C 221.17 112.64 219.94 112.74 219.33 112.79 C 219.57 111.03 219.44 109.25 219.29 107.49 C 220.79 107.53 222.28 107.55 223.78 107.58 C 223.39 107.91 222.61 108.56 222.22 108.89 C 222.96 110.44 224.13 110.91 225.73 110.28 L 226.01 111.93 C 228.33 111.22 231.13 110.00 231.12 107.13 C 231.30 106.92 231.65 106.50 231.82 106.29 C 231.28 106.47 230.21 106.82 229.67 106.99 C 230.16 105.66 230.63 104.32 231.07 102.97 C 229.76 104.25 228.55 105.64 227.14 106.82 Z" />
<path fill="#ffffff" opacity="1.00" d=" M 329.77 106.65 C 333.06 105.73 334.76 102.33 337.82 100.93 C 337.80 101.35 337.75 102.21 337.73 102.63 C 334.24 103.62 332.20 106.71 330.22 109.48 C 328.48 111.82 325.63 112.60 322.98 113.42 C 321.42 114.37 319.95 113.22 318.75 112.30 C 317.99 112.95 317.14 113.43 316.20 113.74 C 316.98 112.33 317.99 111.05 319.78 111.29 C 321.02 109.56 322.59 107.69 324.85 107.38 C 324.72 106.91 324.46 105.97 324.34 105.51 L 325.81 105.78 C 325.75 105.09 325.62 103.70 325.56 103.01 C 325.82 103.36 326.35 104.06 326.62 104.42 C 326.96 104.51 327.65 104.71 328.00 104.81 C 326.90 107.44 325.31 109.85 324.43 112.56 C 326.77 111.15 328.20 108.79 329.77 106.65 M 323.75 108.91 C 322.92 109.65 322.92 109.65 323.75 108.91 L 324.45 108.83 L 324.46 108.17 C 324.28 108.36 323.93 108.72 323.75 108.91 Z" />
<path fill="#ffffff" opacity="1.00" d=" M 196.13 102.51 C 197.59 102.11 198.81 104.56 197.93 105.66 C 196.37 106.38 195.06 103.57 196.13 102.51 Z" />
<path fill="#ffffff" opacity="1.00" d=" M 350.21 109.12 C 354.63 106.54 358.95 103.46 364.00 102.25 C 365.07 102.44 366.65 102.25 367.07 103.59 C 361.29 103.94 356.92 108.24 351.98 110.78 C 351.39 110.22 350.80 109.67 350.21 109.12 Z" />
<path fill="#ffffff" opacity="1.00" d=" M 273.28 103.16 C 275.40 103.52 275.07 106.49 277.09 107.16 C 276.96 106.17 276.72 105.22 276.36 104.29 C 276.65 104.30 277.22 104.31 277.50 104.31 C 277.47 105.05 277.40 106.53 277.37 107.26 C 278.44 108.27 279.22 109.70 280.71 110.16 L 280.32 110.58 L 280.71 110.96 L 281.02 110.58 L 280.71 110.16 C 280.62 109.61 280.45 108.51 280.36 107.95 C 281.83 109.36 282.53 111.29 283.19 113.17 C 283.10 110.77 285.03 111.20 286.67 111.49 C 286.65 113.60 286.23 115.71 284.94 117.42 C 283.70 115.34 282.21 111.52 279.23 111.94 C 278.64 110.47 276.86 110.26 276.00 109.05 C 274.68 107.30 273.93 105.22 273.28 103.16 Z" />
<path fill="#ffffff" opacity="1.00" d=" M 256.77 111.59 C 258.75 109.48 259.79 106.17 262.63 105.12 C 262.54 107.24 261.27 109.05 261.15 111.17 C 262.35 108.94 263.16 106.53 264.20 104.23 C 266.18 107.74 263.35 111.09 260.71 113.14 C 260.26 111.27 258.94 110.75 256.77 111.59 Z" />
<path fill="#ffffff" opacity="1.00" d=" M 284.03 110.35 C 282.25 110.57 281.49 106.49 283.41 106.48 C 283.98 107.73 284.19 109.03 284.03 110.35 Z" />
<path fill="#ffffff" opacity="1.00" d=" M 298.45 106.68 C 299.86 106.71 301.28 106.73 302.70 106.72 C 302.64 107.12 302.54 107.91 302.48 108.31 C 301.82 108.58 300.50 109.14 299.84 109.42 C 299.36 108.51 298.91 107.59 298.45 106.68 Z" />
<path fill="#ffffff" opacity="1.00" d=" M 361.12 107.00 C 363.16 105.94 366.81 105.83 367.18 108.78 C 362.88 108.98 358.87 110.61 355.08 112.51 C 355.65 112.48 356.78 112.41 357.35 112.37 C 359.71 111.21 362.36 110.96 364.93 110.56 C 364.80 111.04 364.55 112.02 364.42 112.51 C 365.87 112.88 367.33 113.23 368.80 113.52 C 368.84 113.85 368.91 114.52 368.95 114.86 C 367.64 114.31 366.33 113.80 365.01 113.32 C 366.44 115.64 369.60 116.56 371.07 119.17 C 368.60 120.25 365.93 119.25 363.36 119.51 C 363.39 119.78 363.44 120.32 363.46 120.59 C 364.38 120.40 365.30 120.20 366.23 120.01 C 367.54 120.64 368.89 121.46 370.45 121.08 C 370.14 121.66 369.54 122.83 369.24 123.42 C 370.03 124.15 370.66 125.00 371.13 125.98 C 368.71 126.19 367.65 124.00 366.69 122.24 C 365.99 122.33 364.58 122.51 363.87 122.61 C 364.44 122.80 365.56 123.18 366.13 123.37 C 366.83 125.97 370.15 126.54 371.51 128.82 C 370.67 128.94 368.99 129.19 368.15 129.31 C 368.82 129.97 370.17 131.31 370.84 131.98 C 368.14 132.53 370.43 134.40 370.80 135.70 C 367.87 135.54 364.75 135.79 362.31 137.59 C 363.38 137.58 364.44 137.54 365.51 137.48 L 365.24 136.51 C 367.21 136.16 370.04 135.36 370.69 138.12 C 364.25 140.71 356.65 141.64 351.53 146.67 L 350.75 146.30 C 351.90 143.54 355.19 141.38 358.00 140.02 C 356.27 140.59 354.54 140.60 352.82 140.07 C 354.46 138.62 356.18 137.22 358.10 136.14 C 355.48 135.83 353.64 137.72 351.54 138.89 C 352.03 139.48 352.52 140.07 353.02 140.66 C 352.18 141.26 351.35 141.86 350.52 142.46 L 349.00 142.10 C 351.75 143.82 348.60 145.25 347.75 146.69 C 347.03 148.15 345.63 148.16 344.56 147.07 C 344.19 147.19 343.46 147.43 343.09 147.55 C 344.54 144.96 346.96 143.14 349.18 141.26 C 349.54 141.38 350.25 141.61 350.61 141.73 C 350.84 140.59 351.11 139.46 351.40 138.34 C 349.24 140.01 347.06 141.67 344.82 143.22 C 345.26 140.31 349.00 137.39 352.08 137.62 C 354.42 135.43 357.34 133.80 360.55 133.40 C 360.57 132.62 360.59 131.84 360.62 131.07 C 360.78 134.52 356.21 133.44 353.99 134.46 C 353.03 133.29 351.73 132.98 350.08 133.52 C 351.09 130.79 355.06 130.71 357.11 128.80 C 360.47 129.33 363.43 126.43 366.75 128.52 C 366.36 126.79 364.53 127.03 363.26 126.67 C 360.87 128.08 357.27 129.05 354.84 128.05 C 354.64 126.58 355.95 125.59 356.63 124.45 C 354.70 124.21 352.75 123.95 350.81 124.15 C 350.66 125.21 350.50 126.27 350.36 127.33 C 348.95 127.77 347.97 128.66 347.42 130.00 C 349.45 129.32 351.60 127.30 353.81 128.52 C 349.32 129.71 347.05 134.09 343.26 136.38 C 342.89 135.33 342.48 134.30 342.05 133.28 C 343.60 130.92 345.20 128.26 348.16 127.57 C 348.74 126.93 349.89 125.65 350.46 125.01 C 347.37 124.75 345.29 127.04 342.62 127.99 L 342.63 125.45 C 343.27 125.50 344.56 125.60 345.20 125.65 C 344.53 125.51 343.18 125.23 342.51 125.09 C 342.78 124.39 343.33 122.99 343.61 122.29 C 344.09 122.40 345.05 122.62 345.53 122.73 L 345.76 120.46 C 344.22 120.58 342.69 120.71 341.16 120.86 C 342.09 120.16 342.75 119.28 342.69 118.06 C 343.53 118.17 345.21 118.40 346.05 118.52 C 344.96 117.48 343.60 117.00 341.99 117.08 C 342.95 116.20 343.51 115.14 343.67 113.89 C 342.87 113.11 342.33 112.20 342.05 111.14 C 344.34 110.85 344.03 113.42 344.59 114.90 C 347.54 115.82 346.52 119.68 349.15 120.88 C 348.36 120.71 346.80 120.37 346.02 120.20 L 346.42 122.49 C 349.53 122.61 352.54 123.37 355.58 124.01 C 354.04 122.64 353.46 121.02 353.83 119.16 C 352.27 118.48 350.65 117.96 349.03 117.49 C 351.10 118.00 352.56 116.42 353.99 115.20 C 353.02 115.40 351.06 115.81 350.08 116.01 C 349.85 113.95 348.94 112.07 348.60 110.03 C 349.72 110.93 350.88 111.89 352.37 112.08 C 354.71 109.54 358.08 108.44 361.12 107.00 M 343.70 134.08 C 345.10 134.01 346.86 132.38 346.77 130.93 C 345.38 130.86 343.47 132.62 343.70 134.08 Z" />
<path fill="#ffffff" opacity="1.00" d=" M 242.71 111.51 C 241.90 109.57 244.52 108.81 245.73 107.90 C 244.89 109.36 244.09 110.86 242.87 112.05 C 243.05 113.05 243.43 115.07 243.62 116.08 C 244.89 114.74 246.13 113.36 247.41 112.03 L 247.82 112.82 L 246.36 113.60 C 246.71 114.34 247.06 115.07 247.43 115.81 C 246.88 116.38 245.77 117.53 245.22 118.10 C 245.84 118.59 246.46 119.09 247.08 119.59 C 247.56 117.66 249.24 116.43 250.42 114.96 C 252.01 118.46 249.03 121.07 246.48 122.93 C 246.82 121.21 245.00 120.46 244.13 119.33 C 242.20 121.83 239.70 123.84 237.85 126.41 L 239.60 126.39 C 238.00 128.61 236.23 130.92 235.52 133.59 C 233.85 133.91 233.63 134.91 234.85 136.58 C 232.43 136.40 233.94 139.70 233.33 140.90 L 235.05 140.07 C 235.70 140.59 236.43 142.62 237.44 141.59 C 237.57 140.88 237.83 139.46 237.96 138.75 C 238.71 139.01 239.12 139.53 239.19 140.31 C 238.91 144.57 239.29 148.86 238.80 153.11 C 238.14 152.05 237.54 150.97 236.95 149.89 C 236.94 147.51 237.07 145.13 237.64 142.82 C 237.18 142.92 236.25 143.12 235.79 143.23 C 235.48 146.58 235.12 149.94 235.34 153.32 C 234.79 153.68 233.69 154.40 233.15 154.76 C 233.33 155.34 233.70 156.52 233.89 157.11 C 231.49 155.26 233.91 151.42 230.83 150.06 C 230.71 152.78 230.81 155.50 230.65 158.22 C 229.23 157.32 228.93 155.55 228.97 154.01 C 228.94 150.67 228.95 147.33 229.00 143.99 C 228.94 141.77 230.65 139.63 229.07 137.46 C 229.55 137.48 230.52 137.52 231.00 137.54 C 228.50 134.61 231.30 130.97 232.69 128.24 C 232.46 128.27 232.00 128.33 231.77 128.36 C 231.15 131.39 228.06 133.35 228.15 136.60 C 226.76 137.41 227.88 138.34 228.83 138.85 C 226.38 145.03 228.00 151.70 227.55 158.12 C 226.16 155.61 225.99 152.40 224.38 149.87 C 224.75 151.34 224.38 152.58 223.27 153.59 C 223.37 151.69 222.51 150.21 221.02 149.14 C 221.46 145.67 220.12 142.15 221.31 138.77 C 222.63 133.99 223.78 128.70 227.30 125.02 C 227.35 125.78 227.46 127.30 227.52 128.06 C 228.96 126.22 229.24 121.77 232.29 122.50 C 232.46 121.77 232.81 120.31 232.98 119.59 C 233.78 120.35 234.00 121.46 234.39 122.46 C 235.20 120.50 235.76 118.30 237.63 117.08 L 237.71 115.78 C 236.05 117.10 234.73 118.96 232.53 119.40 C 233.02 115.79 238.18 115.66 238.62 112.45 C 237.56 113.57 236.29 114.36 234.81 114.81 C 235.97 112.80 238.01 111.65 239.74 110.20 L 239.16 112.57 C 240.05 112.31 241.82 111.78 242.71 111.51 M 245.49 115.24 C 245.77 115.56 245.77 115.56 245.49 115.24 M 242.37 118.17 L 242.38 118.82 C 242.54 118.64 242.86 118.29 243.01 118.11 L 242.37 118.17 Z" />
<path fill="#ffffff" opacity="1.00" d=" M 272.13 108.83 C 273.11 109.96 273.77 111.31 274.36 112.68 C 277.08 111.12 277.84 115.37 279.82 116.25 C 279.68 115.45 279.41 113.84 279.27 113.04 C 281.79 115.09 282.83 118.32 282.77 121.50 C 280.22 121.55 276.10 117.28 274.46 120.65 C 272.11 120.47 269.76 120.31 267.41 120.30 C 268.00 118.55 266.45 117.94 265.34 117.13 C 265.63 116.36 266.19 114.82 266.48 114.05 C 264.74 115.32 265.34 117.74 265.21 119.60 L 264.09 118.84 C 263.69 119.53 262.89 120.90 262.48 121.59 C 261.25 121.48 259.76 120.44 259.04 122.00 C 257.92 125.07 257.62 129.04 254.63 130.95 L 255.00 128.30 C 252.42 132.64 250.29 126.66 253.45 125.25 C 252.72 125.71 251.24 126.64 250.51 127.10 C 250.64 126.60 250.91 125.60 251.05 125.10 C 251.69 124.46 252.34 123.82 252.99 123.18 L 252.29 122.78 C 251.44 125.02 249.46 124.51 247.61 124.09 C 248.79 122.41 249.99 120.74 251.24 119.09 C 252.18 118.10 253.08 117.06 253.99 116.04 C 253.33 118.18 252.11 120.08 251.06 122.06 C 252.21 121.96 252.84 121.38 252.96 120.31 C 254.70 119.01 255.96 115.17 258.53 116.71 C 258.98 116.35 259.87 115.61 260.32 115.24 C 260.28 116.51 260.76 117.65 261.50 118.63 C 262.73 116.63 263.22 112.58 266.41 113.62 C 266.45 112.20 267.01 111.05 268.08 110.17 C 268.36 110.62 268.91 111.50 269.19 111.94 C 269.24 111.30 269.35 110.01 269.40 109.36 L 271.40 109.24 L 271.07 111.38 L 272.78 111.87 C 272.62 111.11 272.29 109.59 272.13 108.83 M 275.15 113.31 L 274.84 114.01 C 275.16 114.28 275.78 114.84 276.10 115.11 C 276.04 114.69 275.94 113.85 275.88 113.42 L 275.15 113.31 M 276.10 115.11 C 275.49 118.47 279.37 116.25 276.10 115.11 Z" />
<path fill="#ffffff" opacity="1.00" d=" M 311.96 110.70 C 313.82 110.59 315.82 110.69 317.18 109.15 C 316.07 110.98 314.85 112.75 313.59 114.48 C 312.30 114.22 311.05 113.80 309.87 113.21 C 310.56 112.37 311.25 111.53 311.96 110.70 Z" />
<path fill="#ffffff" opacity="1.00" d=" M 365.24 110.68 C 366.15 110.10 367.94 110.11 368.47 111.19 C 368.16 112.87 364.57 112.54 365.24 110.68 Z" />
<path fill="#ffffff" opacity="1.00" d=" M 286.66 118.04 C 286.49 115.74 285.80 111.53 289.47 112.28 C 289.41 115.02 289.42 117.77 289.53 120.51 L 287.92 120.15 C 288.03 119.47 288.25 118.10 288.36 117.41 L 286.66 118.04 Z" />
<path fill="#ffffff" opacity="1.00" d=" M 199.35 119.57 C 202.39 117.90 205.08 115.67 208.11 113.97 C 208.53 114.09 209.38 114.34 209.81 114.46 C 207.73 116.13 206.02 118.17 203.99 119.88 C 204.06 120.71 204.34 121.48 204.82 122.17 C 204.13 122.11 202.75 121.98 202.06 121.91 C 203.82 123.78 201.28 124.46 200.47 125.62 C 198.00 128.01 196.53 131.69 193.10 132.91 C 194.33 129.89 196.55 126.97 199.44 125.39 C 199.64 122.84 203.42 121.86 202.92 119.03 C 202.59 117.25 201.70 120.28 200.91 120.17 L 200.04 120.12 L 199.35 119.57 Z" />
<path fill="#ffffff" opacity="1.00" d=" M 192.37 120.28 C 194.47 118.29 197.45 118.16 200.02 117.11 C 196.41 120.79 191.95 123.64 186.90 124.83 C 186.32 123.79 185.68 122.80 184.80 122.01 C 186.88 120.68 188.82 119.15 191.02 118.03 C 190.78 120.52 187.89 121.23 186.10 122.29 C 188.45 124.06 190.43 121.39 192.37 120.28 Z" />
<path fill="#ffffff" opacity="1.00" d=" M 140.25 119.18 L 140.91 119.18 L 140.91 119.82 L 140.25 119.82 L 140.25 119.18 Z" />
<path fill="#ffffff" opacity="1.00" d=" M 286.83 122.12 C 284.42 126.80 281.20 117.24 285.75 117.99 C 285.51 118.96 285.03 120.91 284.79 121.88 C 285.29 121.41 286.28 120.49 286.78 120.02 C 287.89 121.85 289.73 123.53 289.40 125.88 L 290.45 125.51 C 291.04 127.14 291.82 128.71 292.11 130.44 C 290.09 129.85 290.18 127.94 290.27 126.27 C 289.17 126.51 286.56 127.03 286.99 124.98 C 286.95 124.27 286.87 122.84 286.83 122.12 Z" />
<path fill="#ffffff" opacity="1.00" d=" M 191.95 125.89 C 194.17 123.55 196.77 121.57 199.47 119.83 L 200.04 120.12 L 200.13 120.69 C 197.50 122.46 195.28 125.82 191.95 125.89 Z" />
<path fill="#ffffff" opacity="1.00" d=" M 141.01 121.88 C 144.72 119.39 147.16 125.20 143.61 127.06 C 143.31 125.08 142.17 123.44 141.01 121.88 Z" />
<path fill="#ffffff" opacity="1.00" d=" M 217.38 127.83 C 218.11 125.67 218.20 122.19 221.07 121.85 C 220.68 123.62 219.82 125.26 218.59 126.59 C 218.37 128.49 219.73 129.13 221.31 128.40 C 220.29 130.20 219.30 132.03 218.14 133.75 C 218.77 133.74 220.05 133.72 220.68 133.71 C 219.70 134.70 219.39 136.03 219.16 137.37 C 218.02 139.65 216.37 141.64 214.92 143.72 C 215.70 143.59 217.27 143.34 218.05 143.22 C 217.74 143.60 217.12 144.35 216.81 144.73 C 215.69 147.16 213.72 149.04 212.38 151.34 C 214.05 149.46 216.79 150.14 218.50 148.46 C 217.82 149.58 217.17 150.72 216.51 151.86 C 216.25 151.54 215.75 150.91 215.50 150.60 C 212.90 153.39 211.59 157.53 208.10 159.35 L 208.98 157.19 C 208.49 157.18 207.50 157.16 207.01 157.15 C 209.93 153.42 212.70 149.53 215.71 145.85 C 215.11 145.44 214.52 145.03 213.93 144.62 L 213.24 146.36 C 211.66 144.52 214.09 142.91 215.04 141.55 C 214.53 140.69 214.02 139.84 213.51 138.99 C 215.35 136.13 217.79 133.44 218.75 130.15 C 215.93 129.51 216.99 135.69 213.39 133.83 C 214.70 131.81 216.21 129.93 217.38 127.83 Z" />
<path fill="#ffffff" opacity="1.00" d=" M 276.59 122.55 C 279.36 121.78 275.12 127.17 276.32 127.68 C 278.01 126.28 279.50 123.38 282.15 123.56 C 281.99 124.41 281.66 126.10 281.49 126.95 C 281.95 126.24 282.87 124.82 283.32 124.11 C 283.78 124.35 284.70 124.84 285.16 125.09 C 284.76 125.89 283.97 127.50 283.57 128.31 L 286.19 126.44 C 285.89 128.01 286.47 128.81 287.93 128.85 C 289.20 130.06 289.94 131.52 290.13 133.23 C 288.39 132.10 286.10 131.02 285.70 128.72 C 283.22 128.20 281.07 129.04 278.95 130.22 C 278.80 129.75 278.49 128.80 278.33 128.32 C 277.89 130.06 277.53 131.78 276.06 133.01 C 276.36 133.70 276.96 135.08 277.26 135.77 C 279.43 136.68 281.26 138.73 278.66 140.61 L 276.99 140.80 C 277.30 140.04 277.91 138.52 278.22 137.76 C 275.20 140.38 274.90 135.90 275.47 133.90 C 274.72 130.11 275.54 126.23 276.59 122.55 Z" />
<path fill="#ffffff" opacity="1.00" d=" M 262.18 124.19 C 265.17 121.69 268.78 124.47 271.81 125.45 C 272.68 127.29 273.17 129.31 273.14 131.36 C 270.59 133.10 270.45 127.36 267.87 127.61 C 267.79 127.00 267.62 125.79 267.54 125.18 C 266.00 126.87 259.92 127.81 262.18 124.19 Z" />
<path fill="#ffffff" opacity="1.00" d=" M 241.03 131.09 C 241.98 129.42 242.49 127.48 243.78 126.02 C 242.99 130.57 240.55 134.62 239.83 139.18 C 237.68 136.53 239.84 133.62 241.03 131.09 Z" />
<path fill="#ffffff" opacity="1.00" d=" M 242.80 133.37 C 244.25 130.76 245.96 128.32 247.89 126.05 C 248.24 128.68 246.30 130.58 244.97 132.59 L 246.85 132.59 C 246.35 135.06 245.58 137.47 244.67 139.82 C 244.15 139.23 243.63 138.64 243.12 138.06 C 243.76 136.42 244.38 134.77 245.03 133.14 C 244.47 133.20 243.35 133.31 242.80 133.37 Z" />
<path fill="#ffffff" opacity="1.00" d=" M 196.97 140.31 C 197.78 135.33 200.20 130.59 203.88 127.12 C 201.70 132.15 199.80 137.32 197.03 142.06 C 196.57 145.53 196.32 149.27 194.12 152.19 C 193.61 148.01 196.24 144.32 196.97 140.31 Z" />
<path fill="#ffffff" opacity="1.00" d=" M 135.39 131.46 C 135.91 129.59 137.67 128.61 139.24 127.75 C 138.81 129.43 137.43 130.44 136.18 131.50 C 137.15 133.43 134.29 133.56 133.33 134.52 C 132.34 134.04 130.72 133.91 131.18 132.40 C 132.50 131.78 133.92 131.42 135.39 131.46 Z" />
<path fill="#ffffff" opacity="1.00" d=" M 257.95 130.41 C 257.22 127.76 260.98 127.80 260.49 130.42 C 259.86 130.42 258.59 130.41 257.95 130.41 Z" />
<path fill="#ffffff" opacity="1.00" d=" M 128.08 131.86 C 128.64 130.30 130.13 128.81 131.91 129.15 C 132.28 131.04 129.49 131.54 128.08 131.86 Z" />
<path fill="#ffffff" opacity="1.00" d=" M 235.23 139.08 C 236.50 135.54 238.24 132.21 239.84 128.82 C 239.97 131.98 236.95 135.08 238.88 138.03 L 237.45 137.36 C 237.30 137.98 236.99 139.21 236.83 139.83 C 236.43 139.64 235.63 139.27 235.23 139.08 Z" />
<path fill="#ffffff" opacity="1.00" d=" M 246.35 138.34 C 247.61 136.07 248.27 133.56 248.83 131.05 C 250.21 132.36 251.95 133.04 253.86 132.66 C 253.03 134.41 252.27 136.26 253.84 137.85 C 254.41 135.63 254.97 133.24 256.78 131.64 C 257.46 132.56 258.10 133.51 258.72 134.48 C 259.28 134.49 260.40 134.52 260.96 134.54 L 260.31 136.45 C 260.78 136.55 261.74 136.75 262.21 136.85 C 261.52 138.76 259.92 139.41 259.12 137.07 C 258.79 137.43 258.12 138.14 257.79 138.50 C 256.88 137.86 255.93 137.27 254.92 136.82 C 254.62 137.29 254.02 138.22 253.72 138.68 C 252.99 138.21 252.28 137.72 251.58 137.21 C 251.25 139.47 252.89 141.29 252.28 143.56 C 253.41 145.19 254.58 146.77 255.79 148.35 C 254.51 149.72 253.64 147.35 252.32 147.26 C 250.42 145.03 251.46 141.71 251.24 139.03 C 249.15 140.23 250.40 143.29 249.99 145.28 C 249.37 145.26 248.76 145.24 248.14 145.22 C 248.53 142.43 248.29 139.09 250.39 136.91 C 251.08 135.00 250.40 133.41 249.05 132.07 C 248.27 134.07 248.01 136.12 248.27 138.21 C 247.79 138.24 246.83 138.31 246.35 138.34 Z" />
<path fill="#ffffff" opacity="1.00" d=" M 258.69 131.80 C 259.68 131.58 260.91 130.47 261.81 130.86 C 262.58 133.59 259.11 134.77 258.69 131.80 Z" />
<path fill="#ffffff" opacity="1.00" d=" M 262.75 131.77 C 263.19 131.74 264.09 131.68 264.53 131.65 C 264.48 133.47 264.01 137.08 261.11 135.57 C 261.81 134.39 263.08 133.33 262.75 131.77 Z" />
<path fill="#ffffff" opacity="1.00" d=" M 267.18 130.97 C 267.52 132.39 268.11 133.71 268.94 134.91 C 269.76 134.22 271.38 132.82 272.20 132.13 C 272.60 134.80 271.86 138.84 268.28 137.97 L 268.74 136.11 C 268.04 136.33 266.66 136.76 265.97 136.98 C 264.11 135.33 266.64 132.83 267.18 130.97 Z" />
<path fill="#ffffff" opacity="1.00" d=" M 124.25 132.65 C 128.18 135.01 130.69 139.22 133.37 142.83 C 133.15 143.55 132.71 144.99 132.49 145.71 C 133.02 145.61 134.07 145.43 134.59 145.33 C 133.99 147.95 133.73 150.63 133.71 153.31 C 135.48 155.72 134.53 159.78 137.35 161.56 C 139.42 162.71 140.95 164.65 143.05 165.74 C 145.54 166.34 148.00 167.15 150.17 168.55 C 149.32 168.71 147.63 169.02 146.78 169.18 C 144.13 168.11 141.58 166.75 140.00 164.26 C 139.49 164.93 138.99 165.61 138.49 166.30 L 139.32 164.39 C 136.30 165.40 135.14 161.89 134.00 159.93 C 134.89 157.83 134.30 155.91 132.22 154.19 C 134.22 157.29 131.05 157.90 130.12 159.87 C 128.97 158.74 131.08 157.47 130.93 156.30 C 128.83 156.81 128.02 156.22 128.48 154.54 C 128.08 153.61 127.48 152.85 126.68 152.27 C 126.08 149.18 124.11 146.38 124.39 143.16 C 122.77 139.78 123.73 136.15 124.25 132.65 Z" />
<path fill="#ffffff" opacity="1.00" d=" M 283.78 133.33 C 285.80 132.61 287.88 133.05 289.93 133.27 C 292.14 135.68 293.69 138.59 294.76 141.67 C 292.03 140.21 291.60 136.36 288.46 135.46 C 286.37 136.52 284.95 134.91 283.78 133.33 Z" />
<path fill="#ffffff" opacity="1.00" d=" M 350.24 135.15 C 350.86 135.75 350.86 135.75 350.24 135.15 Z" />
<path fill="#ffffff" opacity="1.00" d=" M 282.84 137.61 C 283.13 137.04 283.72 135.92 284.01 135.36 C 285.22 136.03 286.50 136.66 287.43 137.74 C 287.40 137.24 287.33 136.26 287.30 135.77 C 289.59 137.52 291.73 139.62 292.58 142.46 C 288.65 142.97 285.43 140.18 282.84 137.61 Z" />
<path fill="#ffffff" opacity="1.00" d=" M 263.82 137.15 C 264.89 138.66 264.12 140.39 263.64 141.95 C 261.36 141.13 263.68 138.69 263.82 137.15 Z" />
<path fill="#ffffff" opacity="1.00" d=" M 246.07 138.17 C 247.41 139.73 247.90 143.18 245.38 143.70 C 245.53 141.85 245.81 140.00 246.07 138.17 Z" />
<path fill="#ffffff" opacity="1.00" d=" M 266.23 140.42 L 266.95 140.39 C 266.92 140.84 266.85 141.72 266.81 142.17 L 266.10 142.20 C 266.13 141.75 266.20 140.86 266.23 140.42 Z" />
<path fill="#ffffff" opacity="1.00" d=" M 281.41 139.57 C 284.52 139.36 287.44 141.41 289.01 143.98 C 289.69 145.42 291.66 145.94 291.76 147.70 C 289.42 147.42 288.23 145.47 286.93 143.75 C 286.78 145.88 288.09 147.61 288.92 149.45 C 286.94 148.80 284.89 148.27 283.23 146.96 C 283.49 147.65 284.01 149.03 284.28 149.71 C 283.48 149.56 281.89 149.25 281.10 149.10 C 280.37 147.38 279.56 145.68 278.78 143.99 C 278.46 144.72 278.16 145.46 277.88 146.20 C 281.45 148.99 280.57 154.03 281.02 158.03 C 281.48 159.88 279.66 161.00 278.07 161.13 C 278.41 159.16 277.80 156.70 279.35 155.14 C 279.30 153.31 279.27 151.48 279.46 149.66 C 278.06 148.62 276.50 148.45 274.90 149.07 C 274.63 145.11 278.33 143.58 281.43 142.54 C 281.32 142.22 281.10 141.58 280.98 141.26 L 283.62 142.65 L 281.41 139.57 Z" />
<path fill="#ffffff" opacity="1.00" d=" M 196.64 150.99 C 197.74 147.51 196.98 142.69 200.29 140.37 C 199.71 143.80 198.62 147.11 197.75 150.47 L 196.64 150.99 Z" />
<path fill="#ffffff" opacity="1.00" d=" M 255.87 141.30 C 256.98 141.39 258.10 141.48 259.22 141.57 C 260.80 143.76 264.16 145.37 266.53 143.17 C 266.67 145.37 268.02 147.49 267.13 149.70 C 264.92 149.48 262.72 149.22 260.51 149.26 C 260.87 146.56 260.41 142.73 257.63 141.57 C 258.25 143.92 259.61 145.97 260.49 148.21 C 259.42 148.67 258.49 150.73 257.22 149.73 C 255.88 147.73 255.05 145.44 253.95 143.31 C 254.65 143.44 256.04 143.70 256.74 143.83 C 256.53 143.20 256.09 141.93 255.87 141.30 Z" />
<path fill="#ffffff" opacity="1.00" d=" M 361.71 142.54 C 364.04 140.03 368.36 139.24 371.53 140.14 C 370.81 140.92 369.38 142.48 368.66 143.26 C 369.29 143.38 370.56 143.61 371.19 143.72 C 368.93 144.64 365.82 144.44 365.31 147.84 C 366.84 147.08 369.92 145.55 371.45 144.78 L 370.59 146.78 C 370.19 147.01 369.39 147.47 368.99 147.70 C 369.69 147.73 371.11 147.79 371.82 147.82 C 371.44 148.25 370.67 149.11 370.29 149.53 C 370.83 149.65 371.93 149.89 372.47 150.01 C 370.81 153.21 367.71 155.12 365.09 157.43 C 366.29 156.91 367.51 156.42 368.67 155.80 C 368.87 156.31 369.29 157.33 369.50 157.84 L 371.26 156.66 L 372.29 156.82 C 371.03 157.90 369.75 158.93 368.44 159.95 L 368.05 160.24 L 368.15 160.76 C 367.60 160.89 366.50 161.16 365.95 161.29 C 366.33 160.71 367.08 159.55 367.46 158.96 C 367.57 158.76 367.80 158.35 367.92 158.14 L 367.34 158.26 L 367.46 158.96 C 365.71 159.01 363.85 160.07 363.21 161.74 C 363.67 161.77 364.60 161.84 365.06 161.87 C 363.96 164.26 360.94 165.54 359.02 167.43 C 359.37 165.73 360.32 163.99 359.78 162.22 C 359.51 162.27 358.96 162.35 358.69 162.40 C 356.70 166.58 353.30 169.88 350.31 173.36 L 350.87 173.79 C 349.48 174.18 348.10 174.54 346.71 174.89 C 350.83 169.69 355.19 164.63 360.25 160.31 C 361.49 159.69 362.30 158.67 362.68 157.25 C 361.95 157.28 360.49 157.34 359.75 157.37 C 354.81 161.23 352.02 167.20 346.91 170.85 C 346.67 169.37 345.94 167.89 346.18 166.37 C 348.63 163.76 351.08 161.11 353.98 158.99 L 352.22 161.83 C 354.10 162.14 355.06 160.24 356.38 159.28 C 358.33 157.27 361.00 156.18 362.99 154.23 C 361.02 154.88 359.06 155.62 357.01 156.01 C 357.51 151.72 362.51 151.37 364.30 148.05 C 362.91 149.17 361.41 149.88 359.80 150.17 C 359.78 149.63 359.73 148.56 359.70 148.03 C 358.72 149.04 357.58 149.81 356.14 149.87 C 356.64 148.59 357.17 147.31 357.67 146.02 C 358.05 146.11 358.80 146.29 359.18 146.38 C 359.28 145.79 359.48 144.63 359.59 144.04 C 358.02 145.77 355.61 146.30 353.93 147.87 C 352.38 149.35 350.90 150.91 349.27 152.29 C 349.03 152.55 348.57 153.06 348.34 153.31 C 347.71 153.73 346.46 154.57 345.84 154.99 C 346.56 153.23 347.76 151.76 349.20 150.56 L 348.58 149.54 L 349.55 150.23 C 351.21 148.66 352.97 147.20 354.71 145.71 C 356.86 144.47 359.07 140.99 361.71 142.54 Z" />
<path fill="#ffffff" opacity="1.00" d=" M 266.91 144.00 C 267.33 141.53 268.47 140.79 270.32 141.79 C 270.22 142.44 270.01 143.74 269.91 144.39 C 271.13 144.59 272.70 144.14 273.51 145.36 C 273.42 146.65 272.74 147.77 272.16 148.89 C 271.25 148.87 269.43 148.85 268.51 148.83 C 268.40 147.20 269.87 144.01 266.91 144.00 Z" />
<path fill="#ffffff" opacity="1.00" d=" M 240.49 147.69 C 243.97 148.66 241.85 144.10 243.60 142.72 C 243.89 144.76 244.07 146.80 244.28 148.85 C 244.86 148.66 246.02 148.30 246.60 148.12 L 246.68 149.34 L 248.05 149.18 C 246.36 151.55 248.29 154.33 248.61 156.80 C 245.03 156.55 245.36 153.21 243.36 151.43 C 243.38 153.22 243.39 155.01 243.41 156.80 C 242.12 156.66 242.44 155.42 242.36 154.49 C 241.85 154.56 240.82 154.68 240.31 154.75 C 240.54 152.40 240.61 150.05 240.49 147.69 Z" />
<path fill="#ffffff" opacity="1.00" d=" M 350.09 146.29 L 350.75 146.30 L 350.69 147.00 L 349.99 147.01 L 350.09 146.29 Z" />
<path fill="#ffffff" opacity="1.00" d=" M 401.24 146.00 C 402.48 146.11 403.48 147.47 404.74 146.80 C 407.63 145.60 411.98 147.11 411.09 151.03 C 410.47 150.34 409.24 148.95 408.63 148.25 C 408.40 148.42 407.93 148.76 407.69 148.93 L 407.16 148.79 C 406.46 147.73 404.91 148.64 405.46 149.82 L 404.45 149.92 L 403.45 151.15 L 403.93 149.66 C 403.11 149.67 401.47 149.69 400.65 149.70 C 401.37 152.59 405.50 152.13 406.15 154.86 C 405.24 153.75 403.72 153.24 402.69 154.47 C 400.62 154.47 398.86 151.79 396.61 152.41 C 397.07 155.60 402.01 154.45 402.02 157.72 C 400.07 156.78 398.12 155.84 396.26 154.72 C 393.63 153.98 391.28 152.52 388.83 151.34 C 390.36 151.47 391.37 150.87 391.85 149.57 C 394.39 150.08 396.99 150.71 398.80 152.74 C 399.42 152.07 400.06 151.40 400.69 150.73 C 399.08 150.78 397.56 150.46 396.11 149.77 C 395.90 149.34 395.48 148.48 395.27 148.05 C 395.95 148.16 397.30 148.39 397.98 148.50 L 398.04 146.68 C 398.37 147.15 399.03 148.09 399.36 148.56 C 400.54 148.22 401.75 147.80 402.57 146.82 L 401.24 146.00 Z" />
<path fill="#ffffff" opacity="1.00" d=" M 349.28 147.13 L 349.99 147.01 L 350.00 147.73 L 349.30 147.83 L 349.28 147.13 Z" />
<path fill="#ffffff" opacity="1.00" d=" M 348.58 147.29 L 349.30 147.83 L 349.94 148.33 L 348.58 149.54 C 346.75 150.92 345.71 153.62 343.17 153.81 C 344.20 151.09 346.94 149.59 348.58 147.29 Z" />
<path fill="#ffffff" opacity="1.00" d=" M 345.52 155.24 C 348.85 155.03 351.52 152.19 354.01 150.10 C 353.45 152.52 350.97 153.66 349.39 155.34 C 347.66 156.58 346.41 158.80 344.15 159.05 C 344.60 157.77 345.06 156.51 345.52 155.24 Z" />
<path fill="#ffffff" opacity="1.00" d=" M 358.21 150.02 C 358.61 150.05 359.40 150.13 359.80 150.17 L 359.77 150.91 C 359.37 150.88 358.57 150.81 358.16 150.78 L 358.21 150.02 Z" />
<path fill="#ffffff" opacity="1.00" d=" M 196.29 155.04 C 196.64 153.69 196.24 151.91 197.56 151.01 C 197.16 154.47 196.11 157.85 197.15 161.34 C 197.64 160.30 198.61 158.21 199.10 157.16 C 199.34 164.50 199.01 172.29 202.47 179.00 C 202.85 179.97 203.20 180.95 203.54 181.95 C 203.25 181.84 202.67 181.63 202.38 181.53 C 200.15 178.18 200.27 173.89 198.92 170.23 C 197.63 168.45 198.03 166.20 197.97 164.15 C 197.50 164.15 196.55 164.15 196.08 164.15 C 195.85 161.12 195.74 158.05 196.29 155.04 Z" />
<path fill="#ffffff" opacity="1.00" d=" M 345.09 163.92 C 348.79 159.20 353.23 155.09 357.22 150.63 L 358.16 150.78 L 358.94 151.41 C 356.12 153.08 353.42 155.13 352.33 158.35 C 350.07 160.26 348.34 164.24 345.09 163.92 Z" />
<path fill="#ffffff" opacity="1.00" d=" M 407.06 151.20 C 409.22 150.40 409.37 155.47 407.11 153.73 C 407.10 153.10 407.07 151.83 407.06 151.20 Z" />
<path fill="#ffffff" opacity="1.00" d=" M 263.54 157.92 C 264.31 156.36 263.88 153.99 265.59 152.98 C 265.46 153.98 265.21 155.97 265.08 156.97 C 266.42 155.41 267.49 153.58 269.19 152.37 C 268.54 155.45 269.04 159.42 266.80 161.86 L 266.87 160.19 C 265.56 160.53 264.29 160.40 263.07 159.80 C 262.94 160.07 262.67 160.62 262.53 160.89 C 262.38 159.83 261.96 158.90 261.28 158.09 C 261.88 157.03 262.17 155.90 262.14 154.70 L 263.38 154.76 C 263.42 155.55 263.50 157.13 263.54 157.92 Z" />
<path fill="#ffffff" opacity="1.00" d=" M 385.45 152.88 C 388.18 152.72 390.81 153.47 393.29 154.55 C 392.31 155.23 389.30 154.84 390.72 156.80 C 388.18 156.39 385.57 156.38 383.09 155.67 C 383.19 155.35 383.39 154.72 383.49 154.40 C 384.34 154.67 386.03 155.20 386.87 155.47 C 386.66 154.48 386.18 153.62 385.45 152.88 Z" />
<path fill="#ffffff" opacity="1.00" d=" M 209.83 159.25 C 212.05 157.13 213.89 154.66 216.06 152.49 C 217.55 154.83 214.98 156.27 213.93 157.92 C 214.35 158.30 215.17 159.06 215.58 159.44 C 215.25 159.56 214.61 159.80 214.29 159.92 C 214.32 160.39 214.39 161.32 214.42 161.79 C 212.40 164.76 211.89 169.31 208.38 170.90 C 209.56 168.20 211.06 165.68 212.64 163.20 C 213.62 162.49 213.69 161.73 212.84 160.91 C 212.79 161.48 212.69 162.62 212.64 163.20 L 211.30 162.87 C 210.21 164.82 208.89 167.10 206.44 167.47 C 207.63 165.23 209.16 163.19 211.00 161.43 C 210.78 161.02 210.34 160.20 210.12 159.79 L 209.83 159.25 Z" />
<path fill="#ffffff" opacity="1.00" d=" M 260.42 154.08 C 262.61 154.30 260.07 158.80 258.51 157.66 C 258.11 156.27 259.15 154.63 260.42 154.08 Z" />
<path fill="#ffffff" opacity="1.00" d=" M 270.02 161.38 C 270.38 158.88 270.88 156.40 271.59 153.98 C 272.70 156.44 271.46 158.99 271.19 161.49 L 270.02 161.38 Z" />
<path fill="#ffffff" opacity="1.00" d=" M 274.21 153.68 C 275.50 154.74 275.82 156.19 275.16 158.03 C 275.56 157.26 276.38 155.73 276.78 154.96 C 276.76 156.92 276.71 158.89 276.68 160.86 C 275.88 160.58 275.10 160.30 274.31 160.02 L 274.49 161.40 L 272.33 161.65 C 272.91 158.98 273.46 156.31 274.21 153.68 Z" />
<path fill="#ffffff" opacity="1.00" d=" M 282.84 159.61 C 281.27 158.95 281.15 154.92 282.50 154.26 C 282.91 155.80 284.32 158.35 282.84 159.61 Z" />
<path fill="#ffffff" opacity="1.00" d=" M 368.49 155.20 C 369.27 154.17 370.26 153.84 371.47 154.18 C 371.62 155.38 369.69 156.50 368.67 155.80 L 368.49 155.20 Z" />
<path fill="#ffffff" opacity="1.00" d=" M 285.24 157.72 C 284.05 157.40 283.48 155.03 284.87 154.63 C 286.34 154.73 286.99 157.63 285.24 157.72 Z" />
<path fill="#ffffff" opacity="1.00" d=" M 139.53 157.92 C 140.56 157.39 141.60 156.87 142.62 156.32 C 146.43 158.83 150.92 159.66 155.20 160.92 C 154.66 161.28 153.58 161.98 153.04 162.34 C 153.50 162.75 154.42 163.56 154.88 163.97 C 149.08 164.30 144.18 160.88 139.53 157.92 M 140.70 157.51 C 144.17 159.21 148.20 162.58 152.19 161.40 C 151.48 161.29 150.07 161.07 149.37 160.96 C 148.37 159.00 145.74 159.00 144.06 157.82 C 143.22 157.74 141.54 157.59 140.70 157.51 Z" />
<path fill="#ffffff" opacity="1.00" d=" M 353.80 158.77 C 353.71 157.47 355.42 155.76 356.71 155.85 C 357.03 157.27 355.24 159.20 353.80 158.77 Z" />
<path fill="#ffffff" opacity="1.00" d=" M 378.10 157.46 C 381.21 156.71 384.44 156.82 387.57 157.42 L 387.46 159.72 C 385.42 159.31 383.42 158.77 381.47 158.09 C 381.60 158.82 381.86 160.28 381.99 161.01 C 381.17 161.08 379.53 161.22 378.72 161.29 C 381.80 163.60 386.24 161.61 389.89 162.27 C 391.44 161.68 391.76 163.22 390.80 163.96 C 389.41 162.10 386.99 162.77 385.04 162.69 C 380.36 163.08 375.65 163.07 371.00 163.75 C 368.88 165.07 366.94 166.63 365.06 168.26 L 365.93 169.98 L 364.35 168.95 C 358.70 172.55 356.54 181.11 349.24 181.89 C 351.71 177.17 357.18 175.09 360.03 170.65 C 359.52 170.11 359.02 169.58 358.53 169.04 C 359.42 168.38 361.21 167.06 362.10 166.40 C 362.59 167.00 363.08 167.59 363.58 168.19 C 363.55 167.42 363.50 165.88 363.47 165.11 C 364.95 164.04 366.38 162.90 367.80 161.75 L 368.15 160.76 L 368.62 160.46 L 368.44 159.95 C 369.60 159.75 370.77 159.48 371.92 159.22 C 370.48 160.94 368.92 162.56 367.48 164.27 C 369.02 162.94 370.84 161.93 372.91 161.96 C 374.42 159.34 377.40 159.65 380.03 159.73 C 380.49 159.15 380.97 158.57 381.46 158.00 C 380.62 157.86 378.94 157.60 378.10 157.46 Z" />
<path fill="#ffffff" opacity="1.00" d=" M 392.38 157.81 C 391.40 155.16 396.67 157.31 397.07 158.97 L 394.15 158.39 C 394.58 159.53 395.29 160.42 396.30 161.06 C 395.51 160.95 393.93 160.74 393.14 160.64 C 393.10 159.53 393.83 158.69 394.36 157.81 L 392.38 157.81 Z" />
<path fill="#ffffff" opacity="1.00" d=" M 206.29 163.52 C 206.36 161.83 208.44 159.82 210.12 159.79 C 210.14 161.39 207.93 163.77 206.29 163.52 Z" />
<path fill="#ffffff" opacity="1.00" d=" M 290.88 160.86 C 292.21 160.52 292.30 163.85 291.01 163.71 C 290.98 163.00 290.91 161.57 290.88 160.86 Z" />
<path fill="#ffffff" opacity="1.00" d=" M 365.06 161.87 C 365.28 161.72 365.73 161.44 365.95 161.29 C 365.73 161.44 365.28 161.72 365.06 161.87 Z" />
<path fill="#ffffff" opacity="1.00" d=" M 382.32 168.41 C 382.64 167.71 383.29 166.30 383.62 165.59 C 384.53 165.67 386.35 165.84 387.26 165.92 C 387.26 168.74 384.11 167.83 382.32 168.41 Z" />
<path fill="#ffffff" opacity="1.00" d=" M 365.80 169.69 C 368.73 167.29 373.31 168.85 376.40 166.28 L 376.57 167.42 C 377.45 167.48 379.23 167.60 380.11 167.66 C 378.96 169.41 376.65 168.31 374.97 168.71 C 371.91 169.03 368.93 170.30 365.80 169.69 Z" />
<path fill="#ffffff" opacity="1.00" d=" M 283.22 168.18 C 283.87 168.25 285.16 168.39 285.81 168.46 C 285.12 170.19 284.48 171.94 283.92 173.72 C 283.59 173.32 282.92 172.54 282.58 172.15 C 281.35 174.03 281.69 177.63 278.95 178.16 C 279.84 174.62 282.20 171.68 283.22 168.18 Z" />
<path fill="#ffffff" opacity="1.00" d=" M 347.01 177.20 C 350.63 173.99 354.35 170.87 358.03 167.72 C 357.32 169.17 357.04 170.74 358.20 172.00 C 354.35 174.21 351.30 177.47 347.66 179.95 C 347.50 179.26 347.17 177.89 347.01 177.20 Z" />
<path fill="#ffffff" opacity="1.00" d=" M 372.96 171.49 C 376.20 170.51 379.61 170.18 382.99 170.36 C 379.94 171.94 376.28 172.07 372.96 171.49 Z" />
<path fill="#ffffff" opacity="1.00" d=" M 196.20 171.24 C 196.53 171.24 197.20 171.25 197.54 171.25 C 197.97 177.29 201.35 182.49 203.19 188.12 L 201.43 188.26 C 202.47 190.83 204.19 193.23 204.11 196.12 C 203.61 195.86 202.60 195.34 202.09 195.08 C 201.62 193.77 201.13 192.47 200.68 191.16 L 199.08 191.91 C 198.96 189.76 199.82 188.45 201.67 187.99 C 200.13 185.50 199.54 182.51 197.73 180.18 C 197.64 178.98 197.19 177.93 196.37 177.05 C 198.12 175.29 196.65 173.19 196.20 171.24 Z" />
<path fill="#ffffff" opacity="1.00" d=" M 204.56 176.52 C 204.78 176.46 205.22 176.36 205.44 176.31 C 205.51 177.17 205.67 178.89 205.74 179.75 C 206.57 178.93 207.34 178.06 208.12 177.19 C 208.50 178.50 208.87 179.80 209.27 181.11 C 208.35 179.86 207.54 179.65 206.84 180.49 C 207.34 182.35 208.52 183.97 208.87 185.90 C 205.85 184.01 205.34 179.76 204.56 176.52 Z" />
<path fill="#ffffff" opacity="1.00" d=" M 274.34 175.87 C 274.66 176.27 275.30 177.05 275.62 177.44 L 276.45 176.39 C 276.80 176.34 277.50 176.25 277.84 176.20 C 277.22 177.37 276.25 177.92 274.92 177.57 C 274.16 183.59 274.11 189.86 276.32 195.59 C 276.80 199.86 278.08 203.93 279.55 207.95 C 278.96 207.50 277.79 206.61 277.20 206.16 C 277.93 208.00 279.94 211.71 276.46 211.88 C 276.37 207.72 274.39 203.83 274.45 199.63 C 273.90 198.89 273.35 198.14 272.82 197.40 C 273.40 197.48 274.56 197.63 275.14 197.71 C 274.11 192.68 271.78 187.55 273.48 182.38 C 274.38 180.33 274.60 178.08 274.34 175.87 Z" />
<path fill="#ffffff" opacity="1.00" d=" M 215.61 179.21 C 215.89 178.96 216.44 178.46 216.72 178.21 C 216.12 186.40 219.66 193.92 222.66 201.31 C 224.02 204.35 226.46 207.11 226.41 210.59 L 224.45 210.62 C 225.65 207.35 221.46 207.85 221.21 205.06 C 220.80 204.87 219.98 204.49 219.57 204.31 C 220.45 206.74 221.58 209.08 222.73 211.41 C 223.30 212.87 224.22 214.17 225.04 215.51 C 225.41 216.05 226.16 217.13 226.53 217.67 C 226.16 217.13 225.41 216.05 225.04 215.51 C 224.96 214.48 224.80 212.44 224.73 211.42 C 226.46 214.51 228.58 217.45 229.80 220.81 C 228.51 220.25 227.40 218.59 225.92 219.82 C 222.03 213.22 218.12 206.38 216.23 198.91 C 217.54 200.62 218.13 202.73 219.03 204.67 C 219.49 204.06 219.94 203.45 220.39 202.83 C 218.65 198.56 215.86 194.62 215.06 190.03 L 215.89 191.74 C 216.47 191.09 217.05 190.43 217.62 189.78 C 216.08 186.45 216.68 182.67 215.61 179.21 M 217.90 193.74 C 216.71 197.26 220.69 195.48 217.90 193.74 C 219.52 190.77 214.52 192.86 217.90 193.74 M 219.30 197.21 C 219.83 197.86 219.83 197.86 219.30 197.21 Z" />
<path fill="#ffffff" opacity="1.00" d=" M 359.67 178.86 C 364.68 178.82 369.89 180.95 374.59 178.34 C 374.72 178.65 374.97 179.26 375.09 179.57 C 370.19 182.50 364.19 181.51 359.14 179.58 C 359.27 179.40 359.53 179.04 359.67 178.86 Z" />
<path fill="#ffffff" opacity="1.00" d=" M 194.49 180.68 C 194.84 180.55 195.52 180.30 195.86 180.17 C 197.19 183.72 199.93 187.97 198.22 191.78 C 196.77 188.10 196.65 184.06 194.49 180.68 Z" />
<path fill="#ffffff" opacity="1.00" d=" M 358.11 182.51 C 361.01 182.20 363.94 181.57 366.87 181.93 C 364.35 183.71 360.91 183.46 358.11 182.51 Z" />
<path fill="#ffffff" opacity="1.00" d=" M 370.72 183.28 C 370.72 183.60 370.72 184.24 370.72 184.57 C 368.62 185.97 364.68 185.35 364.16 188.29 C 360.45 187.82 356.07 189.02 352.93 186.54 C 351.60 185.94 349.19 186.32 349.02 184.43 C 353.69 186.65 359.10 186.61 364.20 186.48 L 364.78 185.72 C 366.87 185.28 369.10 184.77 370.72 183.28 Z" />
<path fill="#ffffff" opacity="1.00" d=" M 223.47 187.50 C 222.86 186.60 223.53 184.75 224.60 185.92 C 225.63 188.87 226.19 192.04 227.98 194.67 C 228.16 192.19 227.54 189.76 227.38 187.30 C 227.63 187.32 228.11 187.34 228.36 187.36 C 228.43 190.46 228.55 193.57 228.20 196.66 L 229.38 196.41 C 229.33 197.92 229.46 199.42 230.12 200.81 C 231.11 204.12 233.22 207.32 232.86 210.86 C 229.77 207.70 229.61 202.88 228.33 198.85 C 225.83 195.50 225.10 191.27 223.47 187.50 Z" />
<path fill="#ffffff" opacity="1.00" d=" M 264.37 185.62 C 265.09 187.42 265.57 189.32 266.53 191.03 C 267.97 195.52 267.21 200.31 268.11 204.89 C 268.57 208.83 269.00 212.78 269.25 216.74 C 268.70 216.35 268.19 215.92 267.71 215.45 C 266.64 211.71 267.43 207.79 267.45 203.99 C 266.39 199.41 266.00 194.72 264.99 190.14 C 264.29 188.74 264.42 187.13 264.37 185.62 Z" />
<path fill="#ffffff" opacity="1.00" d=" M 235.30 187.08 C 235.93 187.56 236.32 188.19 236.48 188.96 C 237.30 192.92 238.51 196.82 238.83 200.87 C 240.85 206.36 242.53 212.07 243.80 217.79 C 239.85 213.17 239.90 206.57 237.87 201.11 C 236.71 196.51 234.90 191.87 235.30 187.08 Z" />
<path fill="#ffffff" opacity="1.00" d=" M 195.69 190.32 C 197.85 192.04 198.50 194.86 199.57 197.27 C 199.73 197.85 200.06 198.99 200.22 199.57 C 197.80 197.14 196.80 193.52 195.69 190.32 Z" />
<path fill="#ffffff" opacity="1.00" d=" M 199.34 192.02 C 199.73 192.38 199.73 192.38 199.34 192.02 Z" />
<path fill="#ffffff" opacity="1.00" d=" M 259.27 192.02 C 259.71 192.23 260.58 192.64 261.01 192.84 C 261.50 195.06 262.54 197.16 262.47 199.48 L 263.45 199.54 C 263.55 201.28 262.81 203.42 264.26 204.81 C 264.02 206.85 265.45 209.55 263.37 210.95 C 262.56 208.26 262.20 205.45 262.29 202.65 C 260.70 199.31 260.36 195.54 259.27 192.02 Z" />
<path fill="#ffffff" opacity="1.00" d=" M 199.23 192.93 C 201.68 195.12 202.64 198.49 203.99 201.41 C 202.76 200.70 201.82 199.40 200.31 199.26 C 200.45 198.72 200.71 197.65 200.84 197.11 L 199.57 197.27 C 199.49 196.19 199.32 194.02 199.23 192.93 Z" />
<path fill="#ffffff" opacity="1.00" d=" M 240.13 199.01 C 240.46 199.09 241.12 199.25 241.45 199.33 C 242.27 202.24 242.96 205.19 243.67 208.13 L 242.28 207.46 C 241.55 204.65 240.75 201.85 240.13 199.01 Z" />
<path fill="#ffffff" opacity="1.00" d=" M 279.94 210.73 C 281.38 212.61 283.18 214.34 283.86 216.68 C 281.56 215.55 280.51 213.08 279.94 210.73 Z" />
<path fill="#ffffff" opacity="1.00" d=" M 277.57 217.84 C 278.45 217.56 279.12 217.03 279.60 216.26 C 279.15 219.09 280.15 221.89 280.32 224.72 C 278.06 223.34 278.12 220.13 277.57 217.84 Z" />
<path fill="#ffffff" opacity="1.00" d=" M 277.77 227.16 C 275.12 226.15 275.07 221.07 277.36 220.14 C 277.40 222.48 277.60 224.82 277.77 227.16 Z" />
</g>
</svg>
