<?xml version="1.0" encoding="UTF-8" ?>
<!DOCTYPE svg PUBLIC "-//W3C//DTD SVG 1.1//EN" "http://www.w3.org/Graphics/SVG/1.1/DTD/svg11.dtd">
<svg width="512pt" height="256pt" viewBox="0 0 512 256" version="1.1" xmlns="http://www.w3.org/2000/svg">
<g id="#ffffffff">
<path fill="#ffffff" opacity="1.00" d=" M 163.59 18.33 C 165.24 16.10 166.46 13.58 168.02 11.29 C 168.41 11.31 169.19 11.35 169.58 11.37 C 170.90 16.19 169.14 21.05 167.98 25.70 C 166.72 24.35 165.10 23.47 163.64 22.38 L 163.21 22.53 C 162.35 22.97 161.49 23.39 160.63 23.78 C 162.58 22.91 161.24 19.33 163.71 19.31 L 164.10 21.11 L 165.22 21.09 C 164.58 20.22 164.04 19.30 163.59 18.33 Z" />
<path fill="#ffffff" opacity="1.00" d=" M 146.86 13.26 C 149.44 15.15 149.44 18.40 149.77 21.28 C 147.34 21.54 145.67 23.46 143.94 24.96 C 142.90 24.03 142.62 22.87 143.12 21.47 C 144.57 21.96 145.82 20.88 145.87 19.47 L 145.48 19.46 C 144.90 19.82 143.73 20.55 143.14 20.92 C 143.70 18.06 145.08 15.51 146.86 13.26 Z" />
<path fill="#ffffff" opacity="1.00" d=" M 321.14 14.63 C 327.41 22.38 328.43 33.62 326.23 43.15 C 326.17 46.43 326.76 49.70 326.92 52.99 C 327.44 55.52 326.22 58.17 327.68 60.55 C 326.25 60.72 324.84 61.00 323.65 61.85 C 324.66 61.65 326.66 61.27 327.66 61.07 C 329.27 64.42 325.22 65.80 323.72 68.13 C 324.42 67.83 325.81 67.24 326.51 66.95 C 327.10 66.85 328.64 65.52 328.75 66.77 C 328.79 69.24 328.44 71.78 329.25 74.17 C 327.03 74.36 325.00 75.44 322.80 75.60 C 322.61 74.00 322.98 72.47 323.90 71.01 C 322.51 69.10 322.14 66.81 322.10 64.50 C 322.65 64.52 323.74 64.54 324.29 64.56 C 323.27 64.04 322.24 63.55 321.21 63.07 C 321.75 61.82 322.40 60.61 323.08 59.42 C 322.43 59.44 321.13 59.48 320.49 59.50 C 320.65 58.91 320.97 57.73 321.14 57.14 C 321.86 56.87 323.31 56.31 324.04 56.04 C 323.29 55.78 321.79 55.26 321.03 55.00 L 320.33 54.51 C 321.05 54.23 322.47 53.69 323.18 53.41 C 322.45 53.44 320.98 53.49 320.25 53.52 C 320.39 52.08 320.94 50.75 321.67 49.53 C 318.76 49.51 319.78 46.75 319.84 44.86 C 321.41 45.52 323.05 46.00 324.70 46.45 C 323.48 45.42 322.21 44.39 321.29 43.07 C 322.28 43.09 324.25 43.14 325.23 43.16 C 324.18 42.96 323.10 42.87 322.05 42.76 C 321.68 41.94 320.96 40.30 320.60 39.48 C 321.08 39.53 322.05 39.65 322.53 39.70 C 319.13 37.38 322.21 33.22 321.79 29.96 C 322.56 24.80 320.73 19.76 321.14 14.63 Z" />
<path fill="#ffffff" opacity="1.00" d=" M 143.24 26.13 C 145.07 24.58 146.52 22.46 148.82 21.57 C 149.17 22.30 149.86 23.75 150.20 24.48 C 147.09 25.19 144.99 28.04 145.25 31.22 C 145.44 30.81 145.82 30.00 146.00 29.59 L 146.22 29.78 C 146.50 28.43 146.89 27.11 147.40 25.82 C 150.14 25.94 149.76 29.00 149.69 30.95 C 148.97 31.11 147.54 31.42 146.83 31.58 C 147.95 31.58 149.08 31.56 150.20 31.51 C 149.63 36.74 148.12 41.82 147.38 47.02 C 146.91 47.12 145.95 47.33 145.48 47.43 C 146.36 50.91 146.02 54.71 145.21 58.18 C 147.02 61.39 150.00 63.62 153.73 63.94 C 152.57 64.98 151.86 66.25 151.62 67.74 C 154.10 66.00 155.18 62.51 156.88 59.92 C 156.72 58.32 156.60 56.73 156.48 55.14 C 156.76 55.19 157.33 55.31 157.62 55.36 C 157.55 58.31 157.73 61.40 156.18 64.03 C 156.25 64.49 156.40 65.42 156.47 65.88 C 155.08 66.56 153.41 66.97 152.85 68.70 L 154.80 68.35 C 154.87 68.91 155.01 70.03 155.08 70.59 C 156.79 69.12 158.33 67.47 159.63 65.63 C 162.41 65.84 162.97 63.25 162.65 61.03 C 161.02 59.85 160.21 58.03 159.47 56.23 C 161.99 57.07 162.88 59.63 163.76 61.89 C 165.39 60.79 167.18 59.83 168.47 58.30 C 166.75 58.78 165.03 59.30 163.28 59.66 L 164.10 57.90 C 164.59 57.78 165.58 57.53 166.07 57.41 C 165.48 57.32 164.30 57.13 163.72 57.04 C 164.08 56.63 164.81 55.82 165.17 55.41 C 164.52 55.38 163.23 55.32 162.58 55.29 C 163.53 54.76 165.43 53.70 166.38 53.16 C 165.06 53.25 163.74 53.40 162.49 53.85 C 160.29 53.73 159.23 51.96 158.74 49.99 C 159.65 50.45 161.48 51.38 162.39 51.85 C 161.31 50.56 160.13 49.37 159.00 48.13 C 159.64 47.94 160.93 47.55 161.57 47.36 C 160.37 44.31 163.39 45.70 165.09 45.79 C 163.60 44.76 161.65 44.18 160.96 42.31 C 161.44 42.20 162.41 41.98 162.89 41.88 C 161.60 41.83 160.31 41.77 159.03 41.70 C 158.46 40.46 157.57 39.42 156.61 38.47 C 156.92 33.51 158.43 28.74 159.99 24.06 C 163.00 23.50 161.98 26.46 160.39 27.59 C 160.67 28.74 159.64 30.79 161.29 31.10 C 161.02 28.33 163.96 26.91 164.05 24.16 C 167.61 23.56 167.61 28.79 166.39 31.07 C 165.68 31.20 164.97 31.36 164.28 31.55 C 164.65 31.55 165.39 31.54 165.77 31.53 C 166.02 33.66 165.73 35.66 164.89 37.55 C 164.28 37.26 163.05 36.69 162.44 36.40 C 161.14 35.16 163.44 34.52 164.21 33.99 C 161.83 34.19 160.44 32.21 158.84 30.80 C 159.33 32.16 160.06 33.54 159.63 35.03 C 161.21 36.54 162.97 37.80 164.91 38.80 C 165.87 40.19 165.73 41.67 164.72 42.93 C 164.99 43.23 165.54 43.82 165.81 44.12 C 165.64 49.13 167.31 53.95 169.32 58.47 C 170.19 60.27 170.33 62.19 169.30 64.01 L 170.96 62.94 C 171.37 64.77 172.00 66.74 170.07 67.92 C 170.67 67.70 171.88 67.26 172.48 67.04 C 173.30 68.30 174.18 69.52 175.13 70.69 C 172.17 73.39 169.63 76.48 167.31 79.73 C 166.98 78.78 166.67 77.83 166.36 76.88 C 168.55 75.71 169.61 73.36 171.06 71.48 L 169.33 71.46 C 169.41 70.83 169.57 69.58 169.65 68.96 C 169.38 69.50 168.85 70.59 168.58 71.13 C 167.47 71.19 166.36 71.27 165.26 71.36 C 166.70 70.50 167.82 69.34 168.61 67.86 C 167.69 68.06 165.84 68.45 164.92 68.64 C 167.68 67.23 168.11 64.38 166.56 61.94 C 165.74 62.28 164.09 62.96 163.27 63.29 C 164.65 63.84 166.05 64.33 167.45 64.83 L 164.65 66.96 C 164.15 66.06 163.63 65.18 163.10 64.30 C 159.12 68.75 155.05 73.17 152.51 78.67 C 155.27 78.82 155.91 76.00 156.62 73.96 L 157.63 74.80 C 157.43 74.30 157.03 73.29 156.82 72.79 C 157.60 72.83 159.14 72.91 159.91 72.95 C 160.24 70.74 161.55 69.00 163.34 67.73 C 163.34 68.73 163.35 69.72 163.38 70.72 L 162.65 70.04 C 162.81 73.76 158.23 74.95 157.11 78.23 L 156.03 78.19 L 158.13 79.15 C 154.26 81.25 150.64 77.64 147.51 75.76 C 145.80 75.81 144.23 75.18 143.23 73.74 C 143.89 72.59 144.61 71.46 145.36 70.36 C 145.47 71.34 145.68 73.31 145.78 74.29 C 147.02 73.20 147.48 71.57 148.12 70.11 L 146.00 71.48 C 146.10 70.72 146.32 69.19 146.42 68.43 C 146.09 68.91 145.41 69.86 145.08 70.34 C 144.11 68.84 143.11 67.37 142.08 65.92 L 142.13 67.88 C 144.17 68.37 143.97 70.89 143.30 72.36 C 141.56 70.56 140.02 68.55 137.96 67.09 C 138.84 68.44 141.05 69.07 140.59 71.06 C 140.55 73.26 141.51 76.27 138.70 77.03 C 138.75 74.32 138.81 71.22 135.68 70.23 C 134.88 72.22 135.59 74.02 136.60 75.72 C 136.39 75.83 135.97 76.04 135.75 76.15 C 135.40 74.36 134.33 73.35 132.56 73.12 C 132.98 75.54 133.36 77.97 133.47 80.43 C 128.18 83.70 123.80 88.46 117.91 90.69 C 115.73 90.75 113.79 89.09 112.27 87.68 C 112.67 86.41 114.67 87.62 115.66 87.64 C 116.88 90.19 119.35 89.15 121.35 88.35 C 121.33 87.47 121.31 86.58 121.28 85.70 C 119.15 84.55 116.81 83.65 114.72 85.30 C 116.90 85.04 119.08 85.66 119.29 88.17 C 118.72 87.85 117.57 87.21 117.00 86.89 C 116.45 86.81 115.37 86.64 114.82 86.55 C 112.84 86.57 110.85 86.22 109.45 84.68 C 113.30 84.54 116.15 80.78 119.82 80.96 C 119.77 82.01 119.20 82.66 118.09 82.91 C 119.68 83.27 121.24 83.76 122.81 84.21 C 122.75 84.97 122.61 86.50 122.54 87.27 C 125.96 84.55 129.43 81.89 133.12 79.55 C 132.32 77.84 131.49 76.14 130.53 74.52 C 130.57 75.77 130.66 78.27 130.71 79.53 C 129.76 78.76 128.81 77.99 127.87 77.22 C 127.71 77.82 127.39 79.02 127.23 79.62 C 125.21 80.72 124.43 78.94 123.52 77.82 L 123.74 79.68 C 122.27 79.73 120.76 80.11 119.37 79.47 C 121.19 78.42 122.85 77.12 124.44 75.75 C 125.32 76.42 126.34 76.71 127.50 76.60 C 126.67 76.08 125.83 75.56 124.99 75.06 C 129.97 71.38 136.84 69.47 139.50 63.33 C 140.00 63.41 141.00 63.55 141.49 63.62 C 141.59 62.93 141.79 61.56 141.89 60.87 C 141.39 61.17 140.40 61.78 139.90 62.08 C 139.72 61.00 139.34 58.83 139.15 57.74 C 139.85 57.96 141.24 58.41 141.93 58.63 C 141.07 58.09 140.20 57.58 139.32 57.10 C 138.78 51.23 139.86 45.27 142.62 40.04 C 142.12 35.41 142.86 30.75 143.24 26.13 M 143.98 37.19 C 144.81 38.45 148.00 38.46 148.71 37.03 C 147.76 35.62 144.88 35.79 143.98 37.19 M 163.28 49.25 C 163.89 49.81 163.89 49.81 163.28 49.25 M 142.72 65.47 C 144.30 65.62 145.89 65.69 147.48 65.75 C 147.61 64.98 147.88 63.45 148.02 62.68 C 146.21 63.52 144.31 64.24 142.72 65.47 M 148.10 69.35 C 149.42 68.54 151.37 66.52 151.11 64.73 C 149.17 64.71 148.36 67.76 148.10 69.35 M 150.19 69.42 C 150.62 70.12 150.62 70.12 150.19 69.42 M 149.02 71.45 C 149.18 71.79 149.50 72.45 149.66 72.79 L 147.56 72.83 L 147.66 75.44 C 148.50 74.51 150.18 72.64 151.02 71.70 L 149.93 76.64 C 150.93 75.80 151.40 74.58 151.98 73.45 C 153.19 72.89 154.40 72.25 155.24 71.18 C 154.42 71.65 152.76 72.59 151.93 73.07 C 152.30 72.26 153.03 70.66 153.40 69.85 C 152.10 70.77 150.62 71.38 149.02 71.45 Z" />
<path fill="#ffffff" opacity="1.00" d=" M 275.81 38.84 C 276.18 38.75 276.91 38.57 277.28 38.47 C 279.95 45.41 286.67 49.79 289.24 56.77 C 290.48 60.85 292.16 64.76 293.64 68.76 C 292.64 70.61 291.68 72.48 290.65 74.31 C 290.22 73.32 289.37 71.34 288.94 70.36 L 290.68 70.53 C 290.67 70.37 290.65 70.06 290.64 69.91 C 290.21 69.83 289.37 69.69 288.94 69.62 C 287.33 66.18 286.51 62.45 285.15 58.92 C 285.71 59.07 286.83 59.38 287.39 59.53 C 287.44 58.90 287.55 57.63 287.61 56.99 C 287.52 57.45 287.34 58.36 287.26 58.82 C 286.65 58.77 285.45 58.68 284.85 58.64 L 282.67 56.37 C 283.58 56.49 285.39 56.73 286.30 56.85 C 285.46 54.66 281.36 54.57 282.48 51.76 C 282.25 52.29 281.79 53.36 281.56 53.89 C 280.81 52.63 280.08 51.37 279.34 50.12 L 281.10 49.44 C 280.53 49.52 279.40 49.70 278.83 49.79 C 276.24 46.76 275.51 42.72 275.81 38.84 M 287.91 61.59 C 286.08 64.54 291.19 62.00 287.91 61.59 Z" />
<path fill="#ffffff" opacity="1.00" d=" M 155.99 39.08 C 156.77 40.12 157.31 41.34 157.36 42.67 C 158.58 44.10 159.79 45.55 161.01 46.99 C 159.92 46.44 157.75 45.33 156.67 44.77 C 156.83 47.94 157.20 51.10 157.41 54.27 L 156.23 53.20 C 156.17 48.49 156.33 43.78 155.99 39.08 Z" />
<path fill="#ffffff" opacity="1.00" d=" M 179.02 52.79 C 181.66 52.44 181.01 56.35 181.80 57.98 C 181.11 58.40 179.72 59.24 179.02 59.66 C 178.97 57.38 178.27 55.02 179.02 52.79 Z" />
<path fill="#ffffff" opacity="1.00" d=" M 179.24 59.90 C 179.94 59.52 181.33 58.75 182.02 58.36 C 182.22 59.63 182.61 62.17 182.80 63.44 C 182.30 63.38 181.31 63.26 180.81 63.20 L 181.63 65.13 C 182.16 64.48 182.69 63.83 183.25 63.20 C 184.74 66.67 183.06 69.46 180.35 71.42 C 179.70 67.61 179.64 63.74 179.24 59.90 Z" />
<path fill="#ffffff" opacity="1.00" d=" M 229.97 66.10 C 230.14 64.82 230.85 64.08 232.10 63.88 C 232.77 65.11 233.58 66.40 233.18 67.88 C 232.57 72.63 232.77 77.42 232.75 82.20 C 232.57 83.82 234.25 85.52 232.98 86.98 C 234.13 90.99 235.95 94.89 235.75 99.16 C 236.46 101.75 236.94 104.42 238.12 106.86 C 242.13 110.80 246.78 114.15 252.18 115.87 C 251.22 117.23 249.48 118.19 249.13 119.92 C 250.71 119.62 250.96 117.41 252.68 117.23 C 252.10 118.79 251.81 120.39 251.83 122.03 C 251.04 122.84 250.23 123.63 249.41 124.41 L 249.63 122.33 C 249.15 122.42 248.19 122.61 247.71 122.70 L 247.13 122.06 L 246.69 121.35 L 246.60 120.35 C 245.25 121.10 244.28 120.68 243.70 119.10 C 243.26 118.97 242.39 118.72 241.95 118.59 C 242.77 117.66 243.20 115.52 244.84 116.14 C 245.01 116.51 245.36 117.24 245.53 117.60 C 245.86 116.84 248.68 115.98 246.90 115.26 C 246.07 114.94 245.25 114.62 244.42 114.30 C 243.24 115.59 241.93 116.75 240.62 117.91 C 240.60 116.65 240.59 115.39 240.57 114.14 C 240.10 114.22 239.15 114.39 238.68 114.47 C 238.38 113.04 237.84 111.70 237.31 110.35 C 235.11 104.10 234.79 97.36 233.24 90.94 C 230.79 87.56 230.96 82.91 228.28 79.79 C 228.52 82.20 228.86 84.65 228.33 87.06 C 227.89 90.75 228.86 94.44 228.57 98.14 C 228.33 97.90 227.85 97.42 227.61 97.18 C 227.16 86.81 226.59 76.10 229.97 66.10 Z" />
<path fill="#ffffff" opacity="1.00" d=" M 339.42 68.34 C 340.30 68.49 341.17 68.69 342.04 68.93 C 340.39 73.33 336.85 76.59 334.78 80.75 C 333.02 84.08 330.86 87.21 329.64 90.79 C 329.37 90.64 328.83 90.35 328.56 90.21 C 328.62 91.36 328.63 92.52 328.60 93.68 C 327.39 93.18 326.23 92.58 325.09 91.97 C 325.78 93.17 327.28 94.23 326.93 95.79 C 325.62 95.71 324.66 94.49 323.36 94.41 C 323.73 94.97 324.49 96.10 324.86 96.66 C 325.40 96.62 326.49 96.53 327.03 96.49 C 326.31 98.57 325.45 100.61 324.43 102.56 C 323.60 101.18 322.50 100.10 321.13 99.33 C 321.60 100.84 322.48 102.04 323.78 102.92 C 321.91 105.63 319.51 107.95 316.72 109.71 C 315.76 110.04 314.81 110.38 313.86 110.73 C 313.76 110.19 313.57 109.11 313.47 108.57 C 312.23 107.37 309.95 103.77 309.24 107.22 L 310.03 109.70 L 308.09 107.94 C 307.78 108.22 307.16 108.76 306.85 109.03 C 307.71 110.98 308.82 112.80 309.69 114.75 C 307.98 113.54 307.29 111.54 306.13 109.90 C 305.24 110.14 304.47 110.62 303.83 111.32 C 304.23 112.02 305.03 113.40 305.43 114.10 C 304.81 113.67 303.58 112.82 302.96 112.39 C 299.79 112.29 302.66 115.97 304.19 116.18 C 303.82 116.71 303.46 117.24 303.11 117.78 C 301.88 117.24 299.54 113.45 298.30 116.10 C 298.91 117.50 299.68 118.83 300.25 120.26 C 298.78 119.70 298.40 118.10 297.62 116.93 C 297.39 117.39 296.94 118.30 296.72 118.76 L 295.48 118.42 C 295.52 119.09 295.61 120.43 295.65 121.10 C 295.36 120.76 294.78 120.08 294.50 119.74 C 293.01 121.14 291.48 122.49 289.95 123.83 C 291.06 124.93 292.15 126.05 293.17 127.25 C 292.47 127.39 291.08 127.67 290.38 127.80 C 289.91 126.84 289.42 125.89 288.91 124.95 C 288.03 125.42 287.18 125.94 286.35 126.49 C 284.80 125.56 283.00 124.49 282.45 122.65 C 283.97 122.17 285.34 124.79 286.71 125.56 C 296.08 116.34 306.45 108.17 316.38 99.57 C 314.74 99.01 313.07 99.13 311.47 99.72 C 310.79 100.06 310.13 100.42 309.48 100.79 L 311.66 101.35 C 311.66 101.72 311.66 102.45 311.65 102.82 C 309.47 102.45 307.03 101.30 305.87 99.46 L 306.20 99.00 L 306.70 99.11 C 307.39 98.74 307.98 98.26 308.48 97.65 C 308.56 97.46 308.73 97.08 308.81 96.89 C 308.07 96.07 307.26 95.28 306.27 94.80 C 306.27 96.20 306.25 97.60 306.20 99.00 L 305.42 99.25 C 304.82 98.80 303.60 97.91 302.99 97.47 C 302.32 97.47 301.66 97.49 301.00 97.50 C 303.21 99.17 305.45 100.81 307.56 102.62 L 307.13 103.36 C 306.52 103.09 305.29 102.54 304.68 102.27 C 304.48 102.21 304.08 102.10 303.88 102.05 C 303.57 101.20 303.57 101.20 303.88 102.05 L 304.21 102.46 L 304.68 102.27 L 305.08 103.95 L 306.04 104.05 L 305.82 105.68 C 300.86 103.09 300.18 97.07 297.76 92.61 C 299.76 93.52 301.10 95.31 302.66 96.78 C 302.70 96.16 302.79 94.90 302.83 94.28 C 303.20 94.00 303.96 93.44 304.33 93.16 C 301.83 94.95 300.13 92.36 298.17 91.16 C 299.18 89.82 300.13 88.44 301.23 87.16 C 304.29 86.36 302.56 89.54 301.48 90.66 C 301.82 90.51 302.51 90.21 302.85 90.06 L 302.43 91.62 C 303.22 90.93 304.03 90.25 304.85 89.57 C 305.76 92.95 309.20 94.55 310.70 97.51 C 313.15 97.34 315.47 98.20 317.85 98.58 C 321.95 95.28 322.89 89.61 326.30 85.69 C 324.31 85.02 323.46 87.13 322.26 88.17 C 322.51 84.50 322.76 80.83 323.51 77.23 L 324.63 77.78 C 324.72 77.13 324.82 76.49 324.92 75.84 C 326.28 75.69 327.65 75.49 329.00 75.23 C 328.99 76.15 328.97 78.00 328.96 78.92 C 327.81 81.23 326.44 83.41 324.99 85.54 L 326.61 85.04 C 330.96 79.54 333.04 72.04 339.42 68.34 M 324.00 81.62 C 325.04 82.26 326.93 80.62 325.95 79.60 C 324.87 79.00 323.20 80.56 324.00 81.62 M 324.25 84.24 C 324.91 84.91 324.91 84.91 324.25 84.24 M 311.63 105.41 C 312.30 105.43 313.65 105.47 314.33 105.49 C 314.87 106.65 315.43 107.80 316.01 108.94 C 318.11 107.13 320.09 105.17 322.23 103.39 C 321.04 101.84 319.63 100.49 318.17 99.20 C 315.88 101.16 313.87 103.41 311.63 105.41 Z" />
<path fill="#ffffff" opacity="1.00" d=" M 184.65 68.18 C 184.85 68.80 185.25 70.06 185.45 70.68 C 185.02 70.98 184.15 71.56 183.71 71.85 C 184.23 71.72 185.27 71.47 185.78 71.35 C 187.47 77.45 190.39 83.14 193.16 88.81 C 194.91 92.49 198.19 94.96 201.79 96.66 C 201.83 96.94 201.91 97.50 201.95 97.78 C 200.75 98.77 199.41 99.54 198.11 100.38 C 197.22 98.35 195.90 96.50 193.33 97.65 C 194.68 96.69 195.67 95.47 196.31 93.99 C 195.71 94.55 194.51 95.68 193.92 96.25 C 192.86 94.97 193.05 93.76 194.48 92.60 C 193.45 90.85 192.19 89.26 190.84 87.76 C 191.40 89.67 189.68 90.14 188.61 90.96 C 191.08 86.98 189.13 82.71 187.42 78.89 C 185.83 77.99 185.58 76.24 185.56 74.58 C 184.06 76.40 185.02 79.71 182.14 80.34 C 182.10 77.49 182.23 74.62 185.06 73.26 C 183.70 73.90 182.36 74.58 181.04 75.29 C 180.96 72.35 183.06 70.36 184.65 68.18 Z" />
<path fill="#ffffff" opacity="1.00" d=" M 295.51 68.94 C 298.33 73.41 295.16 78.76 295.00 83.55 C 294.57 82.67 293.73 80.91 293.31 80.03 C 293.35 80.81 293.40 81.60 293.44 82.38 C 293.84 83.20 294.62 84.83 295.02 85.64 L 293.39 85.35 C 294.19 88.65 292.76 91.81 291.71 94.88 C 289.69 97.54 286.94 99.50 284.50 101.74 L 284.93 100.79 C 283.88 100.73 282.83 100.66 281.78 100.58 C 281.18 99.08 281.45 96.88 279.58 96.26 C 279.41 99.26 279.67 102.25 280.05 105.22 C 279.30 104.28 277.79 102.39 277.03 101.45 C 277.80 103.25 277.70 104.90 276.71 106.41 C 276.06 104.41 275.53 102.38 275.23 100.31 L 274.92 99.78 C 274.95 99.51 275.00 98.97 275.03 98.70 C 281.35 95.34 288.81 91.49 290.51 83.86 C 290.96 78.58 292.69 73.44 295.51 68.94 M 290.59 91.76 C 293.76 93.12 292.14 87.76 292.18 86.19 C 290.16 86.59 288.72 90.33 290.59 91.76 M 286.66 97.28 C 286.52 96.35 286.24 94.50 286.10 93.57 C 282.82 93.07 283.29 98.64 284.76 100.60 C 286.90 98.34 289.20 96.23 291.43 94.06 C 290.42 92.83 289.04 91.79 288.88 90.05 C 286.72 92.06 288.50 95.09 286.66 97.28 Z" />
<path fill="#ffffff" opacity="1.00" d=" M 165.08 71.64 C 165.81 71.68 167.29 71.77 168.02 71.81 C 166.52 73.36 164.91 74.80 163.18 76.11 C 163.09 74.33 163.72 72.78 165.08 71.64 Z" />
<path fill="#ffffff" opacity="1.00" d=" M 175.59 71.75 C 176.67 72.90 177.60 74.18 178.64 75.37 C 179.63 76.69 181.37 77.79 180.63 79.68 L 181.46 79.34 C 181.62 80.17 181.92 81.85 182.07 82.69 C 183.38 81.07 184.63 79.41 186.01 77.85 C 185.89 78.63 185.65 80.20 185.54 80.99 L 186.54 81.76 C 185.51 82.86 185.06 85.15 183.03 84.60 C 183.56 86.29 184.09 87.97 184.55 89.68 C 182.98 88.50 181.19 87.47 180.21 85.71 C 179.69 85.99 178.65 86.56 178.13 86.84 C 176.79 85.37 177.00 82.61 179.54 83.47 C 179.21 82.87 178.88 82.27 178.55 81.67 C 177.99 81.45 176.86 81.01 176.30 80.79 C 175.73 81.05 174.61 81.58 174.05 81.85 C 174.73 82.57 175.41 83.29 176.10 84.01 C 175.75 84.61 175.05 85.82 174.70 86.42 C 173.28 85.09 171.84 83.77 170.28 82.61 C 171.16 81.70 172.05 80.80 172.92 79.87 C 173.53 79.18 174.16 78.51 174.80 77.85 L 174.81 77.05 C 173.96 77.49 172.27 78.36 171.42 78.79 C 170.57 76.51 176.52 75.25 173.67 73.32 C 174.15 72.93 175.11 72.14 175.59 71.75 Z" />
<path fill="#ffffff" opacity="1.00" d=" M 160.85 74.70 C 163.14 76.94 165.93 78.77 167.55 81.61 C 166.65 82.41 165.78 83.24 164.94 84.10 C 166.39 83.40 167.78 82.56 169.21 81.83 C 168.94 84.01 166.86 85.03 165.60 86.59 C 162.87 84.77 160.94 81.10 157.44 80.97 C 158.27 80.10 159.08 79.21 159.90 78.32 L 157.49 78.36 C 158.60 77.13 159.74 75.93 160.85 74.70 Z" />
<path fill="#ffffff" opacity="1.00" d=" M 357.64 94.45 C 360.98 88.64 363.19 82.04 367.95 77.17 C 368.71 80.35 367.27 83.46 366.30 86.42 C 363.99 90.84 361.71 95.29 359.83 99.92 C 359.41 99.17 359.01 98.42 358.62 97.67 C 359.79 101.24 356.93 103.72 355.02 106.32 C 353.60 105.62 351.77 105.20 351.26 103.48 C 353.41 100.49 356.11 97.86 357.64 94.45 Z" />
<path fill="#ffffff" opacity="1.00" d=" M 169.03 79.34 C 170.43 78.75 170.88 79.18 170.37 80.62 C 168.97 81.25 168.52 80.82 169.03 79.34 Z" />
<path fill="#ffffff" opacity="1.00" d=" M 297.27 78.89 C 298.28 80.24 299.22 81.63 300.02 83.12 C 299.50 83.65 298.47 84.73 297.96 85.27 C 298.63 84.86 299.96 84.05 300.63 83.64 C 300.71 84.20 300.86 85.31 300.93 85.87 C 299.59 87.40 298.16 91.89 295.77 90.26 C 296.03 86.44 297.18 82.74 297.27 78.89 Z" />
<path fill="#ffffff" opacity="1.00" d=" M 122.78 81.05 C 122.96 79.07 127.43 80.12 126.75 82.06 C 125.34 82.28 124.02 81.95 122.78 81.05 Z" />
<path fill="#ffffff" opacity="1.00" d=" M 121.17 82.15 L 121.68 81.61 L 122.48 82.06 L 122.47 83.05 L 121.66 83.46 C 121.54 83.13 121.29 82.48 121.17 82.15 Z" />
<path fill="#ffffff" opacity="1.00" d=" M 92.92 88.60 C 93.53 85.83 96.46 85.01 98.88 84.50 C 102.14 83.91 105.72 82.90 108.81 84.74 C 107.60 85.48 106.34 86.12 105.03 86.64 L 106.22 87.98 L 108.07 86.11 L 107.14 88.63 C 107.69 89.23 108.78 90.43 109.33 91.03 C 107.72 90.44 106.11 89.85 104.51 89.26 C 104.09 88.28 104.14 86.98 103.38 86.20 C 103.42 86.61 103.51 87.41 103.55 87.81 C 99.99 87.61 96.27 86.98 92.92 88.60 Z" />
<path fill="#ffffff" opacity="1.00" d=" M 169.97 84.00 C 171.50 84.31 172.27 85.94 173.43 86.87 L 173.78 87.95 C 174.51 87.52 175.97 86.64 176.70 86.20 C 176.87 86.55 177.22 87.25 177.39 87.60 L 177.99 87.92 C 178.22 88.39 178.69 89.33 178.92 89.80 L 177.27 88.99 L 177.29 90.20 C 176.75 91.18 176.24 92.17 175.77 93.19 C 174.92 93.36 174.07 93.54 173.23 93.70 C 173.86 92.62 175.12 90.45 175.75 89.36 C 172.42 96.00 170.10 88.83 166.74 87.85 C 167.82 86.57 168.81 85.21 169.97 84.00 Z" />
<path fill="#ffffff" opacity="1.00" d=" M 108.08 88.20 C 108.40 87.14 107.54 85.19 108.99 84.88 C 110.84 85.51 111.08 87.96 111.56 89.61 C 112.46 90.20 113.37 90.80 114.18 91.53 C 111.52 91.78 108.83 91.12 108.08 88.20 Z" />
<path fill="#ffffff" opacity="1.00" d=" M 370.86 88.56 C 374.23 90.53 372.39 95.95 371.97 99.04 C 371.34 98.06 370.74 97.07 370.15 96.07 C 370.37 97.66 370.60 99.24 370.93 100.81 C 369.16 103.45 367.52 106.21 365.26 108.46 C 361.81 111.48 359.14 115.48 354.73 117.25 C 356.46 113.80 360.54 112.43 362.22 109.07 C 359.60 111.06 357.08 113.17 354.41 115.09 C 354.47 114.30 354.59 112.72 354.65 111.92 C 353.36 116.16 348.93 117.91 344.90 118.41 C 342.16 118.10 339.76 119.83 337.79 121.53 L 338.04 119.73 L 339.69 119.61 C 338.42 116.47 336.62 120.56 335.04 121.37 C 326.84 121.40 319.25 125.17 311.45 127.28 C 311.77 126.62 312.41 125.29 312.74 124.63 C 311.57 123.98 310.71 123.04 310.16 121.80 C 309.81 122.40 309.11 123.60 308.76 124.20 C 308.00 124.33 306.46 124.59 305.70 124.72 L 306.16 123.12 C 304.62 124.58 303.86 128.00 300.96 126.56 C 301.62 123.12 305.08 122.06 307.91 120.98 C 309.11 120.37 310.37 120.21 311.70 120.51 C 311.90 120.08 312.29 119.21 312.48 118.77 C 314.55 118.80 315.94 117.01 317.70 116.17 C 319.54 114.52 321.16 112.64 322.84 110.83 C 322.41 110.75 321.56 110.58 321.13 110.50 C 321.59 109.96 322.53 108.89 322.99 108.36 L 321.99 107.41 C 323.88 105.39 326.02 103.48 326.86 100.75 C 328.13 98.75 327.83 96.09 329.38 94.27 C 329.56 96.82 329.19 99.41 329.80 101.92 C 330.49 104.76 329.89 107.96 331.43 110.57 C 336.43 111.50 341.85 109.93 346.14 107.20 C 346.55 107.79 346.97 108.38 347.39 108.97 L 345.51 110.24 C 346.24 109.94 347.72 109.34 348.46 109.04 C 348.61 109.76 348.92 111.19 349.08 111.90 C 347.41 111.63 345.66 111.05 344.12 112.09 C 342.87 112.64 341.59 111.42 340.34 111.26 C 340.43 111.84 340.61 113.00 340.69 113.58 C 336.56 114.15 332.76 116.37 328.47 115.75 C 328.17 115.41 327.55 114.71 327.24 114.36 C 324.49 116.12 322.61 120.17 319.13 120.18 C 318.44 120.96 317.05 122.53 316.35 123.31 C 318.94 122.53 321.58 121.88 324.13 120.96 C 324.85 120.84 326.30 120.60 327.03 120.48 C 325.53 120.51 324.02 120.59 322.53 120.60 C 322.32 118.72 324.33 117.99 325.74 117.61 C 329.00 117.62 332.23 117.17 335.48 117.02 C 335.20 117.75 334.65 119.20 334.37 119.93 C 334.83 119.17 335.28 118.41 335.73 117.64 C 339.94 115.47 344.89 114.94 349.41 113.50 L 350.04 114.02 C 350.20 114.18 350.50 114.50 350.66 114.66 C 350.57 114.32 350.41 113.63 350.33 113.28 C 353.98 110.04 358.87 108.53 362.00 104.64 C 362.33 106.26 362.80 107.86 363.48 109.37 C 363.95 108.34 364.41 107.30 364.87 106.26 C 364.45 106.56 363.61 107.16 363.19 107.46 C 362.96 106.70 362.50 105.17 362.27 104.41 C 366.42 99.93 369.77 94.67 370.86 88.56 M 327.59 112.00 C 326.64 112.57 325.70 113.16 324.84 113.86 C 326.72 112.84 330.04 112.70 330.09 110.02 C 329.24 110.67 328.41 111.33 327.59 112.00 Z" />
<path fill="#ffffff" opacity="1.00" d=" M 178.11 91.00 C 180.24 92.01 182.28 93.23 184.31 94.44 C 184.81 94.10 185.81 93.42 186.31 93.09 C 187.07 95.88 188.26 98.53 189.47 101.16 C 187.47 99.58 185.13 97.95 185.55 95.05 L 185.39 95.13 C 184.89 97.67 183.76 96.51 182.73 95.25 C 181.53 95.69 180.41 96.29 179.23 96.77 C 179.55 96.02 180.20 94.52 180.53 93.77 C 178.93 94.47 177.41 94.26 175.95 93.12 C 176.49 92.59 177.57 91.53 178.11 91.00 Z" />
<path fill="#ffffff" opacity="1.00" d=" M 297.49 95.10 C 298.16 99.00 300.76 101.97 302.86 105.16 C 302.97 107.11 301.25 106.22 300.15 106.03 C 297.44 105.74 296.04 103.02 293.77 101.81 C 294.32 102.84 294.94 103.82 295.64 104.76 C 295.62 105.28 295.58 106.30 295.56 106.82 C 294.56 106.58 293.66 106.12 292.85 105.45 C 292.82 106.32 292.75 108.07 292.71 108.94 L 292.27 109.06 C 291.96 107.24 292.60 104.42 290.27 103.73 C 291.19 106.74 290.60 109.87 290.21 112.91 C 292.62 111.38 295.17 109.95 298.00 109.35 C 293.12 113.61 285.98 114.26 281.89 119.58 C 284.56 116.96 281.08 114.86 280.43 112.42 C 279.97 113.53 279.45 114.61 278.97 115.71 L 280.43 115.31 C 280.87 116.70 281.32 118.09 281.78 119.47 C 280.25 119.54 278.68 119.70 277.25 119.04 C 276.21 112.60 281.50 107.11 287.13 105.04 C 288.21 104.23 289.29 103.40 290.38 102.59 C 293.61 101.28 297.96 99.28 297.49 95.10 M 297.04 100.27 C 294.27 101.35 297.76 104.03 299.32 104.33 C 300.15 103.18 297.56 101.41 297.04 100.27 M 287.44 106.12 C 287.79 107.50 287.68 108.86 286.62 109.92 C 286.83 111.37 287.04 112.83 287.24 114.28 C 287.81 114.00 288.94 113.44 289.51 113.15 C 289.53 111.58 289.60 110.01 289.68 108.44 L 288.27 108.49 C 288.38 107.92 288.60 106.80 288.72 106.23 C 288.40 106.20 287.76 106.15 287.44 106.12 M 286.90 114.77 C 286.31 114.63 285.14 114.33 284.56 114.18 C 284.62 112.71 284.59 111.23 284.45 109.76 C 282.29 111.90 283.20 118.00 286.90 114.77 M 278.20 117.62 C 278.92 118.09 278.92 118.09 278.20 117.62 Z" />
<path fill="#ffffff" opacity="1.00" d=" M 203.10 98.07 C 204.39 97.73 205.33 99.23 206.44 99.67 C 210.20 102.08 214.45 103.54 218.67 104.92 C 218.74 105.13 218.89 105.56 218.97 105.78 L 218.73 106.32 C 218.38 107.36 218.01 108.40 217.62 109.43 C 218.12 110.61 218.58 111.79 219.02 112.99 C 216.74 112.74 212.88 112.58 212.19 109.99 C 213.62 109.33 215.04 110.24 216.01 111.24 L 216.47 109.74 C 215.98 109.46 214.99 108.91 214.50 108.63 C 214.51 107.63 214.52 105.65 214.52 104.65 C 213.37 106.02 213.53 107.92 213.08 109.54 C 212.03 107.70 211.37 105.69 211.41 103.56 C 210.52 103.45 209.63 103.34 208.74 103.23 C 208.59 103.77 208.28 104.84 208.13 105.38 C 205.30 106.72 206.81 101.92 206.70 100.62 C 205.61 101.98 204.43 103.31 203.81 104.96 L 203.35 105.65 C 201.91 104.38 200.49 103.08 198.93 101.97 C 199.18 101.30 199.43 100.63 199.68 99.96 L 200.76 100.53 C 201.49 99.67 202.27 98.85 203.10 98.07 M 202.37 102.52 C 203.04 103.21 203.04 103.21 202.37 102.52 Z" />
<path fill="#ffffff" opacity="1.00" d=" M 262.15 108.13 C 265.32 104.53 269.80 102.55 273.53 99.64 L 273.84 100.18 C 273.76 101.07 273.59 102.86 273.50 103.75 L 274.48 103.41 C 274.56 105.20 274.73 106.99 274.91 108.78 L 274.40 108.78 C 274.24 107.15 274.32 105.29 272.45 104.66 C 272.33 106.77 272.33 108.89 272.24 111.00 C 271.81 111.11 270.93 111.34 270.50 111.45 C 270.59 110.12 270.68 108.79 270.78 107.47 L 269.18 107.74 C 269.20 106.86 269.25 105.09 269.28 104.21 C 266.73 106.01 262.88 107.35 262.53 110.90 L 261.54 110.30 C 261.44 111.73 261.00 113.04 260.22 114.24 C 260.76 114.94 261.83 116.34 262.36 117.04 C 262.88 115.53 262.85 113.92 262.82 112.35 C 263.69 113.59 264.21 115.02 264.73 116.43 C 263.66 116.88 262.61 117.39 261.53 117.81 C 261.47 117.28 261.34 116.24 261.28 115.72 C 259.84 115.67 258.71 115.06 257.88 113.87 C 256.30 115.34 254.86 117.48 252.38 116.95 L 252.54 116.01 C 256.73 114.80 259.04 110.85 262.15 108.13 Z" />
<path fill="#ffffff" opacity="1.00" d=" M 317.52 101.58 C 317.96 101.93 318.83 102.61 319.26 102.96 C 319.26 103.37 319.26 104.19 319.26 104.60 C 317.92 104.81 317.25 102.64 317.52 101.58 Z" />
<path fill="#ffffff" opacity="1.00" d=" M 307.13 103.36 C 309.92 101.53 307.84 106.64 307.13 103.36 Z" />
<path fill="#ffffff" opacity="1.00" d=" M 347.40 106.52 C 348.36 105.52 349.46 105.09 350.70 105.22 L 351.20 105.68 C 352.04 106.28 352.91 106.87 353.77 107.47 C 353.29 107.94 352.32 108.89 351.83 109.36 C 350.51 108.96 349.19 108.60 347.87 108.27 C 347.75 107.83 347.52 106.95 347.40 106.52 Z" />
<path fill="#ffffff" opacity="1.00" d=" M 204.24 106.12 C 204.41 106.01 204.73 105.78 204.89 105.67 C 206.78 105.38 208.71 106.60 209.50 108.24 C 209.37 108.48 209.12 108.96 208.99 109.20 C 207.29 108.35 205.77 107.22 204.24 106.12 Z" />
<path fill="#ffffff" opacity="1.00" d=" M 221.20 106.79 C 221.14 106.40 221.04 105.63 220.98 105.24 C 223.91 105.86 226.84 106.78 229.47 108.23 C 229.30 108.77 228.95 109.84 228.78 110.38 C 229.02 110.72 229.52 111.40 229.77 111.74 C 229.19 111.59 228.02 111.29 227.43 111.14 C 227.96 112.73 228.50 114.36 228.63 116.06 C 227.55 114.85 226.65 113.50 225.67 112.23 C 225.58 110.86 225.51 109.49 225.50 108.13 C 225.12 108.05 224.36 107.89 223.98 107.81 C 223.80 110.53 224.55 113.15 224.93 115.81 C 223.57 114.95 222.85 113.60 223.13 111.91 C 222.74 111.80 221.97 111.57 221.58 111.46 L 222.05 114.34 C 220.55 112.22 217.88 110.45 218.41 107.50 C 219.00 107.46 220.19 107.36 220.78 107.31 C 220.86 108.45 221.01 110.74 221.09 111.88 C 222.08 110.51 222.65 108.94 221.65 107.38 L 221.20 106.79 Z" />
<path fill="#ffffff" opacity="1.00" d=" M 302.18 119.02 C 304.45 118.26 306.11 116.46 308.05 115.14 C 306.93 117.32 305.34 119.21 303.94 121.21 C 303.26 120.55 302.68 119.82 302.18 119.02 Z" />
<path fill="#ffffff" opacity="1.00" d=" M 219.12 118.40 C 219.79 118.08 220.47 117.76 221.16 117.46 C 225.29 119.02 229.40 120.68 233.19 122.97 C 232.95 123.42 232.47 124.32 232.23 124.77 L 234.05 123.14 C 234.16 124.43 234.25 126.77 235.54 124.57 C 236.95 125.31 238.30 126.19 239.44 127.32 C 243.59 128.12 247.70 130.36 249.57 134.31 C 249.38 135.34 249.21 136.37 249.07 137.41 C 247.25 138.00 245.70 137.42 244.79 135.75 C 248.17 136.62 247.37 133.61 245.35 132.56 C 245.79 132.51 246.66 132.40 247.10 132.34 C 245.11 129.57 241.72 129.29 238.61 129.43 C 236.78 130.70 234.92 131.92 233.01 133.07 C 233.42 131.55 236.21 129.19 233.31 128.69 L 233.08 131.08 C 232.75 130.29 232.09 128.71 231.76 127.92 C 230.99 128.59 229.68 131.34 229.00 128.80 C 227.23 128.34 227.61 126.24 226.99 124.95 C 225.82 123.18 223.98 121.79 223.54 119.61 C 222.67 119.27 220.93 118.60 220.05 118.26 C 220.79 121.46 222.80 124.10 223.84 127.17 C 224.54 129.47 225.78 131.53 226.98 133.59 C 229.82 135.04 232.16 140.69 235.65 137.30 C 236.19 137.69 236.74 138.08 237.30 138.47 C 237.44 139.80 237.63 141.13 237.81 142.46 C 236.20 141.02 235.02 141.12 234.26 142.77 C 233.76 142.65 232.75 142.41 232.24 142.28 L 232.33 144.69 C 232.91 144.61 234.06 144.46 234.64 144.38 C 234.44 144.68 234.04 145.29 233.84 145.59 C 232.97 145.92 232.10 146.25 231.24 146.58 C 230.26 145.89 229.30 145.20 228.34 144.49 C 229.11 144.08 230.66 143.26 231.43 142.84 C 230.58 142.76 228.87 142.58 228.02 142.50 C 228.50 141.80 229.00 141.11 229.53 140.45 C 228.22 139.06 226.91 137.67 225.60 136.29 C 226.58 136.52 228.55 136.98 229.53 137.21 C 227.90 135.99 226.12 135.02 224.34 134.07 C 223.78 132.41 223.23 130.74 222.75 129.05 C 221.27 125.60 220.40 121.93 219.12 118.40 Z" />
<path fill="#ffffff" opacity="1.00" d=" M 347.85 119.80 C 350.37 118.30 352.91 116.81 355.70 115.86 C 353.84 118.24 350.91 119.86 347.85 119.80 Z" />
<path fill="#ffffff" opacity="1.00" d=" M 272.31 128.48 C 275.87 126.70 275.72 120.64 280.62 121.08 L 281.24 121.81 C 280.79 122.54 279.90 123.99 279.45 124.72 C 281.27 123.35 282.51 123.65 283.16 125.62 C 280.61 128.45 277.15 131.02 277.30 135.28 C 276.21 133.33 278.08 128.16 274.31 129.63 C 273.81 129.34 272.81 128.76 272.31 128.48 Z" />
<path fill="#ffffff" opacity="1.00" d=" M 265.49 123.97 C 268.22 122.79 270.90 124.54 271.93 127.13 C 271.29 126.82 270.02 126.20 269.39 125.90 C 268.71 126.40 268.03 126.91 267.35 127.42 C 267.66 127.81 268.27 128.59 268.57 128.98 C 267.33 129.31 266.07 129.55 264.79 129.72 C 264.13 130.19 262.79 131.13 262.12 131.60 L 264.80 132.03 C 263.52 133.36 262.25 134.71 260.86 135.93 C 260.68 138.89 258.80 140.79 256.40 142.26 C 253.87 140.68 257.05 136.89 258.96 135.90 C 259.98 134.67 260.82 133.17 262.50 132.69 C 261.46 131.92 260.46 130.67 258.87 131.47 C 258.71 133.50 256.60 133.78 255.10 134.28 C 255.58 132.45 255.89 130.58 255.67 128.69 C 256.07 128.31 256.86 127.56 257.26 127.19 C 257.85 127.36 259.04 127.71 259.63 127.88 C 259.38 128.64 258.87 130.14 258.61 130.90 C 259.53 130.74 261.36 130.42 262.27 130.27 C 262.69 129.95 263.53 129.31 263.95 128.99 C 263.90 128.63 263.81 127.91 263.76 127.55 C 265.02 126.77 265.60 125.57 265.49 123.97 Z" />
<path fill="#ffffff" opacity="1.00" d=" M 300.99 123.06 C 302.69 125.33 299.27 126.93 298.86 129.05 L 299.61 128.63 L 300.22 128.11 C 302.34 127.32 304.52 126.02 306.86 126.47 C 307.29 126.02 308.15 125.11 308.58 124.66 C 309.46 125.03 310.32 125.42 311.18 125.84 C 309.04 126.87 307.37 128.51 306.01 130.42 C 308.30 129.84 310.60 129.23 312.98 129.26 C 316.48 128.26 319.79 126.63 323.38 125.94 C 323.16 126.32 322.73 127.09 322.51 127.47 C 313.48 129.51 304.81 132.74 296.02 135.55 C 296.72 134.49 298.14 132.35 298.84 131.28 C 297.83 131.88 295.81 133.08 294.80 133.68 C 297.29 130.32 297.58 125.72 300.99 123.06 M 305.29 127.95 C 303.14 130.74 308.41 128.78 305.29 127.95 Z" />
<path fill="#ffffff" opacity="1.00" d=" M 280.84 128.82 C 281.76 128.10 282.70 127.39 283.64 126.69 C 285.41 128.46 287.73 129.50 289.55 131.22 C 290.38 131.24 292.03 131.27 292.86 131.29 C 291.26 132.59 289.46 133.65 287.72 134.76 L 289.15 132.03 C 287.03 133.03 284.96 131.75 283.99 129.84 C 283.20 129.58 281.63 129.07 280.84 128.82 Z" />
<path fill="#ffffff" opacity="1.00" d=" M 273.03 132.23 C 273.56 130.14 275.93 132.18 275.31 133.59 C 274.44 134.98 272.54 133.61 273.03 132.23 Z" />
<path fill="#ffffff" opacity="1.00" d=" M 260.82 139.26 C 262.48 136.45 264.53 133.53 267.71 132.36 C 266.13 134.19 264.32 135.84 263.40 138.14 C 263.94 138.76 264.48 139.39 265.01 140.03 C 266.98 138.15 269.48 137.80 272.07 137.99 C 271.30 136.96 270.47 135.97 269.73 134.92 C 271.38 135.31 272.91 136.07 274.41 136.85 C 274.89 135.92 275.38 135.01 275.90 134.12 L 276.44 135.79 C 279.42 134.28 279.91 138.35 281.24 140.03 C 280.09 139.41 278.95 138.77 277.83 138.11 C 277.18 139.49 275.91 141.18 274.51 139.46 C 272.17 137.05 268.57 139.39 267.13 141.65 C 267.69 141.68 268.80 141.75 269.36 141.78 L 269.49 142.87 C 270.06 142.72 271.21 142.43 271.79 142.28 C 271.53 142.65 271.02 143.37 270.76 143.73 C 269.92 143.53 269.07 143.32 268.23 143.12 C 268.23 143.48 268.23 144.21 268.24 144.57 C 270.24 144.58 272.25 144.56 274.26 144.78 C 273.16 146.27 270.38 147.18 271.47 149.52 C 272.57 152.59 267.90 148.72 267.53 151.24 C 266.61 151.89 265.73 149.52 264.86 149.03 C 262.30 148.78 259.75 149.14 257.48 150.40 C 256.73 151.91 256.19 154.06 254.02 153.93 C 256.66 149.54 257.86 143.42 262.60 140.90 C 261.99 140.37 261.39 139.82 260.82 139.26 Z" />
<path fill="#ffffff" opacity="1.00" d=" M 284.06 135.03 C 285.15 134.45 286.32 134.04 287.55 133.81 C 287.50 134.70 287.46 135.59 287.41 136.48 C 286.25 136.07 283.59 137.15 284.06 135.03 Z" />
<path fill="#ffffff" opacity="1.00" d=" M 290.26 135.28 C 293.27 135.63 294.81 138.13 295.55 140.81 C 295.04 142.25 294.66 143.72 294.38 145.21 C 293.16 143.32 292.89 141.16 293.30 138.97 C 292.33 137.70 291.21 136.56 290.26 135.28 Z" />
<path fill="#ffffff" opacity="1.00" d=" M 282.23 144.59 C 284.94 144.03 286.15 141.42 287.89 139.59 L 287.39 141.98 C 288.90 141.35 290.39 140.67 291.97 140.20 C 290.38 141.87 288.45 143.15 286.78 144.71 C 287.68 144.55 289.49 144.22 290.39 144.06 L 289.16 145.78 C 290.10 145.67 291.99 145.46 292.94 145.35 C 291.61 146.89 290.30 148.45 289.11 150.09 C 291.20 149.48 292.68 147.98 293.47 145.94 C 297.76 148.67 304.01 151.94 302.67 158.01 C 301.69 156.66 301.46 154.99 301.24 153.39 C 300.85 153.82 300.08 154.67 299.69 155.10 L 298.75 155.08 C 299.20 154.06 299.65 153.03 300.09 152.00 C 299.27 152.17 297.65 152.51 296.83 152.68 C 295.85 150.96 294.45 149.44 292.45 148.97 C 292.33 149.40 292.09 150.27 291.96 150.70 L 293.98 151.81 C 291.84 152.64 288.88 152.21 287.94 154.93 C 287.48 154.23 287.03 153.53 286.58 152.84 C 286.07 153.21 285.04 153.97 284.53 154.34 C 285.77 154.59 287.00 154.90 288.23 155.24 C 290.11 153.76 292.34 152.82 294.57 152.01 C 295.16 152.62 296.32 153.84 296.90 154.45 C 295.43 155.71 291.95 159.19 290.37 156.31 C 288.14 157.51 286.02 158.90 284.08 160.52 L 285.21 157.70 C 284.70 157.73 283.67 157.78 283.16 157.81 L 284.43 155.52 C 283.74 155.95 282.36 156.83 281.67 157.27 C 282.67 157.90 283.03 159.05 281.85 159.73 C 279.05 162.04 276.62 165.51 272.92 166.21 C 274.35 164.17 276.25 162.47 277.41 160.25 C 278.54 159.91 279.67 159.59 280.82 159.30 L 280.46 157.49 C 279.18 158.56 277.69 159.33 276.11 159.82 C 278.23 158.58 279.13 156.70 278.79 154.19 L 276.95 154.80 C 278.78 152.89 279.85 150.56 280.29 147.96 C 278.72 146.79 278.65 144.81 278.85 143.05 C 279.70 144.71 280.96 145.98 282.63 146.83 L 282.23 144.59 M 293.24 154.27 C 293.93 154.76 293.93 154.76 293.24 154.27 M 279.36 156.70 C 280.73 157.66 281.66 154.41 279.99 154.50 C 279.83 155.05 279.52 156.15 279.36 156.70 Z" />
<path fill="#ffffff" opacity="1.00" d=" M 249.69 141.71 C 250.22 141.64 251.29 141.50 251.82 141.43 C 250.00 143.53 248.93 146.71 246.05 147.50 C 246.67 145.99 248.02 144.43 246.99 142.77 C 247.66 142.51 249.01 141.98 249.69 141.71 Z" />
<path fill="#ffffff" opacity="1.00" d=" M 253.42 146.31 C 252.66 143.90 254.73 142.83 256.52 144.14 C 256.54 148.19 252.01 148.88 249.25 150.61 C 249.66 149.86 250.09 149.12 250.56 148.40 C 250.02 146.09 251.46 145.87 253.42 146.31 Z" />
<path fill="#ffffff" opacity="1.00" d=" M 232.14 148.73 C 234.16 147.48 236.03 145.52 238.57 145.56 C 237.60 147.40 236.63 149.24 235.45 150.95 C 235.29 150.39 234.97 149.27 234.81 148.71 C 234.14 148.71 232.81 148.73 232.14 148.73 Z" />
<path fill="#ffffff" opacity="1.00" d=" M 250.27 153.19 C 251.42 151.27 252.70 149.05 255.21 148.76 C 254.05 150.64 252.76 153.02 250.27 153.19 Z" />
<path fill="#ffffff" opacity="1.00" d=" M 262.09 150.38 C 263.45 149.43 265.51 151.65 263.82 152.62 C 262.41 153.66 260.45 151.40 262.09 150.38 Z" />
<path fill="#ffffff" opacity="1.00" d=" M 237.70 151.12 C 237.98 153.23 236.39 154.86 235.38 156.54 C 234.15 158.13 233.33 160.23 231.36 161.05 C 233.52 157.76 234.90 153.95 237.70 151.12 Z" />
<path fill="#ffffff" opacity="1.00" d=" M 266.26 152.34 C 267.98 152.27 267.12 154.73 265.81 154.58 C 264.11 154.61 264.98 152.23 266.26 152.34 Z" />
<path fill="#ffffff" opacity="1.00" d=" M 271.15 154.55 C 270.81 153.18 271.34 152.65 272.74 152.97 C 273.06 154.31 272.53 154.84 271.15 154.55 Z" />
<path fill="#ffffff" opacity="1.00" d=" M 252.71 158.10 C 253.85 156.65 255.24 155.42 256.64 154.22 C 257.63 156.86 260.34 157.57 262.86 157.16 C 263.82 159.26 261.00 159.66 259.68 160.43 C 257.53 159.08 254.82 159.58 252.71 158.10 M 255.25 157.33 C 255.93 157.84 255.93 157.84 255.25 157.33 Z" />
<path fill="#ffffff" opacity="1.00" d=" M 270.60 159.81 C 271.66 157.78 272.24 155.24 274.70 154.48 C 274.62 156.34 274.59 158.20 274.52 160.07 C 272.47 162.45 270.15 164.57 268.25 167.07 C 267.67 167.53 266.51 168.45 265.93 168.92 C 265.14 168.22 264.34 167.51 263.58 166.79 C 261.51 165.91 259.59 164.74 257.75 163.46 C 259.88 163.61 262.06 163.68 264.06 162.79 C 264.48 162.90 265.32 163.14 265.74 163.25 C 267.05 162.94 268.35 162.63 269.65 162.31 C 269.89 160.00 267.98 158.26 268.21 155.96 C 269.45 156.94 270.09 158.34 270.60 159.81 M 265.27 165.28 C 263.84 168.21 268.61 165.41 265.27 165.28 Z" />
<path fill="#ffffff" opacity="1.00" d=" M 297.04 155.32 C 299.61 157.62 301.92 160.19 304.41 162.58 C 308.04 165.70 312.45 167.80 315.87 171.18 C 317.04 173.03 317.93 175.05 319.01 176.96 C 317.76 177.65 316.46 178.29 315.05 178.55 L 315.44 179.53 C 314.28 179.24 313.12 178.96 311.95 178.72 C 310.49 181.11 307.49 182.03 306.09 184.54 C 306.85 184.48 308.37 184.35 309.13 184.28 C 308.79 186.16 307.64 187.43 305.81 187.94 C 305.79 185.95 304.34 184.56 303.34 183.00 C 306.16 182.23 308.78 180.81 310.64 178.49 C 308.59 176.76 306.24 174.65 303.35 175.60 C 303.70 174.84 304.07 174.08 304.44 173.32 C 307.02 173.85 309.34 175.09 311.40 176.72 C 311.88 177.36 312.38 178.00 312.88 178.64 C 313.56 178.36 314.93 177.80 315.61 177.52 C 316.58 176.15 316.44 174.52 316.34 172.93 C 313.38 170.19 309.32 169.25 305.37 169.59 C 304.05 171.24 302.76 172.92 301.30 174.45 C 301.46 173.55 301.77 171.73 301.92 170.83 C 298.16 170.79 299.63 174.98 299.39 177.22 C 299.31 179.57 301.33 180.92 302.97 182.19 C 300.67 184.36 297.90 180.67 297.31 178.56 L 296.50 178.64 C 295.62 177.10 292.98 177.83 293.26 175.53 C 294.73 176.11 296.29 176.40 297.84 176.06 C 295.42 175.83 292.78 174.89 292.92 171.75 L 294.72 172.35 C 294.58 171.56 294.30 169.98 294.15 169.18 C 294.81 169.32 296.12 169.60 296.77 169.74 L 296.36 168.09 C 297.75 168.59 299.06 169.47 300.56 169.70 C 300.54 168.69 300.52 167.67 300.50 166.66 C 299.56 165.73 298.78 164.66 298.23 163.46 L 297.11 163.52 C 297.33 162.81 297.56 162.11 297.79 161.41 C 296.32 161.43 294.85 161.44 293.38 161.44 L 293.76 162.73 L 292.76 162.56 C 291.63 163.47 290.48 164.36 289.29 165.19 C 288.45 162.71 290.56 162.28 292.47 161.78 C 290.93 161.54 289.40 161.36 287.86 161.22 C 287.53 160.34 287.20 159.46 286.88 158.58 C 288.49 158.06 290.60 155.94 291.44 158.64 C 293.22 157.40 295.08 156.26 297.04 155.32 M 304.54 167.29 C 304.55 168.89 308.31 168.76 308.51 167.44 C 307.39 166.77 305.58 166.24 304.54 167.29 Z" />
<path fill="#ffffff" opacity="1.00" d=" M 239.80 163.76 C 241.20 160.62 243.56 158.08 245.70 155.43 C 245.61 156.80 245.55 158.17 245.53 159.55 C 244.72 160.41 243.91 161.28 243.12 162.18 C 242.01 162.70 240.91 163.24 239.80 163.76 Z" />
<path fill="#ffffff" opacity="1.00" d=" M 264.50 160.41 C 264.66 159.01 263.30 156.25 265.51 156.18 C 266.21 157.54 266.63 159.02 266.90 160.53 C 266.30 160.50 265.10 160.44 264.50 160.41 Z" />
<path fill="#ffffff" opacity="1.00" d=" M 234.22 161.00 C 236.59 160.19 235.04 163.70 233.54 163.61 C 231.74 163.56 233.32 161.29 234.22 161.00 Z" />
<path fill="#ffffff" opacity="1.00" d=" M 244.63 162.63 C 245.42 162.14 246.23 161.67 247.04 161.22 C 245.83 163.94 243.54 165.85 241.26 167.66 C 241.26 167.36 241.27 166.77 241.28 166.47 C 242.39 165.19 243.50 163.90 244.63 162.63 Z" />
<path fill="#ffffff" opacity="1.00" d=" M 276.72 167.95 C 277.94 164.72 280.90 162.56 283.04 159.94 C 284.76 161.87 290.13 163.99 285.42 166.59 C 285.16 166.26 284.64 165.59 284.38 165.26 C 284.46 166.30 284.55 167.34 284.63 168.38 C 285.18 168.46 286.28 168.61 286.84 168.68 C 286.68 168.44 286.38 167.96 286.23 167.72 C 287.77 167.74 289.09 166.93 290.48 166.39 C 290.23 166.84 289.74 167.74 289.49 168.19 C 288.03 169.04 286.62 169.96 285.20 170.87 C 284.19 170.01 283.02 169.58 281.69 169.58 C 282.21 168.88 283.25 167.47 283.77 166.77 C 281.85 166.94 280.22 167.67 278.90 168.97 C 279.17 168.27 279.72 166.87 280.00 166.16 C 280.20 165.66 280.20 165.66 280.00 166.16 C 279.18 166.61 277.54 167.50 276.72 167.95 Z" />
<path fill="#ffffff" opacity="1.00" d=" M 225.30 174.08 C 227.57 170.45 230.73 167.49 234.14 164.94 C 233.61 166.84 232.57 168.54 231.10 169.86 C 231.85 169.64 233.35 169.19 234.09 168.97 C 232.08 172.05 230.01 175.24 226.69 177.07 C 226.87 177.43 227.23 178.16 227.42 178.53 C 224.97 179.42 223.15 181.29 221.15 182.87 C 221.39 182.18 221.88 180.81 222.13 180.13 C 221.39 180.36 219.91 180.82 219.17 181.05 C 221.01 178.54 223.80 176.85 225.30 174.08 M 226.01 176.14 L 226.75 176.22 C 227.96 174.47 229.57 172.93 230.21 170.85 C 228.48 172.31 226.95 174.05 226.01 176.14 M 223.06 179.14 C 222.32 179.75 222.32 179.75 223.06 179.14 C 224.33 179.17 227.02 177.63 226.01 176.14 C 224.63 176.13 223.26 177.85 223.06 179.14 Z" />
<path fill="#ffffff" opacity="1.00" d=" M 249.18 165.92 C 249.57 165.84 250.35 165.67 250.74 165.59 C 249.59 168.98 247.39 171.85 245.89 175.07 C 245.35 176.40 244.35 177.44 243.05 178.05 C 244.42 173.67 247.56 170.19 249.18 165.92 Z" />
<path fill="#ffffff" opacity="1.00" d=" M 292.69 166.88 C 292.45 165.72 290.66 163.50 294.05 164.48 C 295.40 164.68 296.14 166.01 297.17 166.77 C 296.50 166.92 295.15 167.23 294.48 167.38 C 292.80 168.79 291.04 170.11 289.07 171.09 C 289.59 169.18 291.34 168.16 292.69 166.88 Z" />
<path fill="#ffffff" opacity="1.00" d=" M 253.78 170.56 C 254.89 169.69 256.00 168.82 257.12 167.95 C 257.06 170.37 256.36 172.66 254.60 174.38 L 253.31 172.53 C 251.85 174.79 251.43 177.98 248.89 179.34 C 248.80 178.32 248.67 177.30 248.50 176.29 C 247.72 177.56 246.89 178.79 245.99 179.97 C 246.46 176.12 249.06 172.99 250.71 169.57 C 250.80 170.45 251.00 172.20 251.09 173.08 C 252.63 173.29 253.06 171.52 253.78 170.56 M 250.33 174.45 C 250.64 174.77 250.64 174.77 250.33 174.45 Z" />
<path fill="#ffffff" opacity="1.00" d=" M 239.72 170.15 C 242.37 169.10 239.90 174.78 237.98 173.73 C 237.33 172.35 239.02 171.16 239.72 170.15 Z" />
<path fill="#ffffff" opacity="1.00" d=" M 268.48 170.32 C 270.13 171.82 272.50 171.21 274.43 172.02 C 275.80 172.01 276.78 172.84 277.55 173.91 C 274.24 175.40 270.65 175.91 267.07 175.29 C 267.70 173.68 268.58 172.11 268.48 170.32 Z" />
<path fill="#ffffff" opacity="1.00" d=" M 234.70 177.35 C 235.21 177.39 236.24 177.46 236.75 177.50 C 236.47 178.34 235.90 180.01 235.62 180.85 L 238.27 179.44 C 237.62 180.62 236.92 181.77 236.19 182.90 C 236.37 184.23 236.43 185.74 235.14 186.59 C 235.23 185.60 235.41 183.61 235.50 182.61 C 233.87 184.66 232.62 187.09 230.52 188.72 C 231.31 186.10 232.55 183.65 234.01 181.34 L 231.96 181.64 C 232.90 180.23 233.82 178.80 234.70 177.35 Z" />
<path fill="#ffffff" opacity="1.00" d=" M 285.67 180.46 C 287.11 179.51 289.29 178.84 288.50 176.63 C 290.69 177.88 293.14 178.63 295.15 180.20 C 293.53 180.94 291.82 181.48 290.13 182.02 C 290.61 182.82 291.58 184.41 292.06 185.21 L 293.05 183.79 C 294.76 184.51 297.00 183.67 298.14 185.49 C 295.86 186.53 293.42 186.10 291.05 185.71 C 289.96 184.10 289.75 181.27 288.19 180.36 C 287.15 182.57 289.38 184.49 290.08 186.43 C 286.81 186.04 283.71 184.71 282.82 181.27 L 284.91 181.35 C 284.89 180.81 284.84 179.72 284.82 179.18 C 285.04 179.50 285.46 180.14 285.67 180.46 Z" />
<path fill="#ffffff" opacity="1.00" d=" M 260.88 180.27 C 261.39 179.58 261.91 178.91 262.44 178.25 C 262.11 179.34 261.75 180.42 261.42 181.51 L 260.46 181.08 C 260.85 182.87 260.28 184.63 259.92 186.36 C 257.20 186.36 259.08 182.43 258.65 180.73 C 259.21 180.62 260.32 180.38 260.88 180.27 Z" />
<path fill="#ffffff" opacity="1.00" d=" M 263.46 182.55 C 264.54 181.23 264.97 179.57 265.53 178.00 L 265.37 179.65 C 266.00 179.59 267.26 179.46 267.89 179.39 C 266.35 181.84 265.06 184.55 262.83 186.47 C 262.98 185.15 263.19 183.85 263.46 182.55 Z" />
<path fill="#ffffff" opacity="1.00" d=" M 316.27 182.74 C 316.70 181.06 317.62 179.64 319.06 178.64 C 318.83 181.43 318.16 184.20 318.33 187.02 C 316.25 187.62 313.84 190.32 311.72 188.71 C 313.69 187.47 316.52 187.30 317.74 185.10 C 317.37 184.51 316.64 183.33 316.27 182.74 Z" />
<path fill="#ffffff" opacity="1.00" d=" M 229.35 181.34 C 231.02 181.42 229.83 183.78 228.71 183.82 C 227.02 183.75 228.21 181.37 229.35 181.34 Z" />
<path fill="#ffffff" opacity="1.00" d=" M 214.94 192.91 C 217.32 188.27 220.87 184.56 225.28 181.81 C 225.06 182.49 224.61 183.83 224.39 184.50 C 224.32 186.56 223.68 188.52 223.13 190.49 C 217.82 192.24 217.22 198.67 213.18 201.83 C 213.75 205.22 210.66 207.40 208.95 209.88 L 210.96 209.34 C 210.55 210.14 210.14 210.96 209.75 211.77 L 208.41 210.96 C 209.35 213.57 206.57 215.30 205.01 216.91 C 205.64 215.16 206.82 213.70 208.09 212.37 C 207.30 212.50 205.74 212.76 204.95 212.88 C 207.80 210.05 209.35 206.08 212.69 203.74 C 211.85 203.28 211.01 202.83 210.18 202.39 C 212.39 198.91 216.02 196.63 217.90 192.95 C 219.41 190.64 221.35 188.63 222.73 186.23 C 219.37 187.57 218.43 191.88 214.94 192.91 Z" />
<path fill="#ffffff" opacity="1.00" d=" M 299.18 185.27 C 299.87 185.79 299.87 185.79 299.18 185.27 Z" />
<path fill="#ffffff" opacity="1.00" d=" M 230.50 194.82 C 233.62 192.25 236.67 189.58 239.95 187.23 C 239.18 189.23 237.66 190.75 235.77 191.72 C 234.84 193.26 233.91 194.86 232.39 195.90 C 229.45 198.49 229.58 202.74 227.03 205.60 C 226.73 205.13 226.12 204.19 225.82 203.73 C 223.42 205.32 222.04 208.00 219.92 209.92 C 220.82 206.60 222.76 203.48 225.83 201.79 C 227.47 199.52 228.23 196.60 230.50 194.82 Z" />
<path fill="#ffffff" opacity="1.00" d=" M 250.81 190.39 C 251.71 189.05 252.84 187.90 254.11 186.90 C 252.05 192.46 245.92 196.01 245.06 201.93 C 249.04 200.02 250.58 195.18 253.55 192.08 C 253.33 192.89 252.89 194.51 252.68 195.32 L 255.25 193.30 C 252.21 200.65 249.33 208.07 246.36 215.45 C 245.45 218.00 246.70 221.66 244.23 223.43 C 244.63 221.60 244.56 220.02 244.01 218.69 C 243.56 218.93 242.66 219.41 242.21 219.65 C 242.44 218.43 242.31 217.26 241.83 216.15 C 241.34 216.31 240.37 216.63 239.88 216.79 C 240.48 215.32 241.00 213.82 241.47 212.30 L 243.36 213.08 C 243.02 212.12 242.34 210.21 242.00 209.25 C 242.33 209.95 242.97 211.36 243.30 212.06 C 243.81 211.22 244.34 210.39 244.90 209.58 C 244.81 212.13 244.00 214.56 243.48 217.04 L 244.04 217.31 C 245.75 216.35 245.59 213.94 246.10 212.28 C 247.08 206.49 251.68 202.22 252.23 196.24 C 249.40 198.68 249.23 202.78 246.76 205.51 L 246.73 202.69 C 245.77 204.34 244.85 206.01 243.89 207.66 C 243.16 207.69 241.69 207.76 240.96 207.79 C 241.51 206.14 242.17 204.53 242.97 202.98 C 245.17 198.97 246.71 194.50 250.06 191.23 C 249.29 191.44 247.75 191.86 246.98 192.07 C 247.73 190.89 248.48 189.71 249.21 188.52 C 249.73 189.14 250.26 189.77 250.81 190.39 M 243.11 203.89 L 242.56 204.66 C 242.83 207.24 245.30 204.19 243.11 203.89 M 241.78 213.51 L 241.41 214.36 C 242.73 216.26 244.15 212.61 241.78 213.51 Z" />
<path fill="#ffffff" opacity="1.00" d=" M 284.18 187.17 C 285.61 186.93 287.77 189.15 287.09 190.57 C 285.41 191.09 283.61 188.68 284.18 187.17 Z" />
<path fill="#ffffff" opacity="1.00" d=" M 239.99 195.90 C 240.87 193.63 241.35 190.53 244.01 189.69 C 243.55 191.83 242.59 193.80 241.77 195.82 C 241.67 197.66 241.53 199.52 241.08 201.32 C 240.67 200.69 239.86 199.41 239.46 198.78 C 239.11 201.06 238.68 203.32 238.31 205.60 C 237.87 205.60 237.00 205.60 236.56 205.60 C 236.51 204.54 236.42 202.41 236.37 201.35 L 237.36 201.64 C 236.63 199.12 239.29 197.96 239.99 195.90 Z" />
<path fill="#ffffff" opacity="1.00" d=" M 291.90 191.31 C 293.56 192.25 294.97 191.65 296.14 190.34 C 297.62 190.50 299.12 190.61 300.58 190.94 C 301.75 191.94 300.15 192.86 299.61 193.60 C 297.57 195.53 294.81 193.20 292.43 193.38 C 292.30 192.86 292.03 191.82 291.90 191.31 Z" />
<path fill="#ffffff" opacity="1.00" d=" M 302.27 192.21 C 305.63 192.42 308.99 193.27 312.27 191.96 C 311.25 193.81 309.90 195.43 308.58 197.05 C 308.47 196.24 308.26 194.61 308.16 193.80 C 306.72 193.71 305.30 193.55 303.89 193.31 C 302.89 193.90 301.88 194.46 300.86 195.02 C 301.24 194.03 301.71 193.10 302.27 192.21 Z" />
<path fill="#ffffff" opacity="1.00" d=" M 223.98 196.23 C 224.68 194.51 226.09 193.12 227.96 192.80 C 226.82 194.13 225.61 195.40 224.60 196.84 C 223.98 196.73 222.74 196.53 222.12 196.43 C 223.32 198.54 221.36 199.98 220.33 201.46 C 218.31 203.77 216.84 206.48 215.03 208.94 C 213.48 210.99 212.91 213.99 210.31 215.04 C 211.74 210.78 215.12 207.51 216.21 203.13 C 217.52 200.29 218.72 197.13 221.49 195.38 C 222.44 194.68 223.18 195.88 223.98 196.23 Z" />
<path fill="#ffffff" opacity="1.00" d=" M 234.20 198.12 C 234.96 197.15 235.79 196.22 236.88 195.59 C 235.51 199.24 233.71 202.71 232.51 206.43 C 232.09 206.68 231.24 207.17 230.82 207.42 C 231.32 204.64 232.81 202.07 232.67 199.19 C 233.05 198.92 233.81 198.39 234.20 198.12 Z" />
<path fill="#ffffff" opacity="1.00" d=" M 254.69 201.43 C 254.58 199.31 254.59 197.23 256.01 195.48 C 256.49 195.93 257.45 196.84 257.93 197.29 C 254.93 202.13 253.80 207.66 252.38 213.08 C 251.98 215.55 251.75 218.09 252.33 220.55 C 251.63 220.17 250.91 220.02 250.16 220.09 C 249.36 221.80 250.26 223.60 250.53 225.32 C 249.97 225.00 248.87 224.35 248.32 224.02 C 248.49 225.96 248.66 227.91 248.83 229.86 C 248.26 229.67 247.14 229.28 246.57 229.08 C 246.27 230.70 247.86 233.55 245.40 234.03 C 245.41 232.14 245.46 230.25 245.46 228.36 L 246.68 228.72 C 246.39 227.01 246.42 225.27 247.49 223.83 C 248.73 221.70 248.76 219.03 250.35 217.10 C 251.36 211.77 252.34 206.36 254.69 201.43 Z" />
<path fill="#ffffff" opacity="1.00" d=" M 281.99 207.29 C 283.78 204.03 285.54 199.83 289.74 199.28 C 289.10 201.00 288.02 202.48 286.90 203.91 C 284.67 207.87 284.06 212.35 283.50 216.79 C 283.87 220.00 284.64 223.17 284.77 226.41 C 282.79 224.77 283.16 221.81 282.30 219.59 C 281.78 219.98 280.74 220.76 280.22 221.15 C 280.40 219.06 280.54 216.97 280.68 214.88 C 281.05 214.36 281.80 213.32 282.17 212.81 C 282.39 212.26 282.82 211.18 283.04 210.63 L 282.29 210.98 C 282.26 211.44 282.20 212.35 282.17 212.81 C 281.44 213.30 279.97 214.28 279.24 214.76 C 280.22 212.41 281.35 210.12 282.54 207.87 C 283.82 207.17 284.87 206.12 285.55 204.82 C 284.66 205.43 282.88 206.67 281.99 207.29 Z" />
<path fill="#ffffff" opacity="1.00" d=" M 279.15 205.69 C 280.35 203.87 281.58 202.02 283.31 200.64 C 282.91 202.93 281.40 204.75 280.12 206.60 C 280.42 207.35 280.72 208.10 281.02 208.86 L 279.39 208.06 C 279.81 211.91 276.52 214.89 275.40 218.43 C 275.13 218.47 274.60 218.55 274.33 218.59 C 274.29 215.86 275.94 213.51 277.20 211.21 C 278.40 209.88 279.63 207.20 276.90 207.04 C 276.06 209.67 274.85 212.17 273.45 214.54 C 272.73 213.83 272.50 212.84 273.09 211.93 C 274.17 209.00 275.48 206.15 277.10 203.48 C 277.37 204.73 277.48 206.22 279.15 205.69 Z" />
<path fill="#ffffff" opacity="1.00" d=" M 258.44 201.89 C 261.54 208.65 257.67 215.98 259.11 222.96 L 257.54 222.29 C 257.43 223.12 257.22 224.78 257.12 225.61 C 259.96 225.30 258.23 228.18 257.46 229.19 C 257.44 228.34 257.40 226.65 257.39 225.80 C 253.27 226.22 256.07 231.32 252.98 232.33 C 253.49 229.84 254.48 227.48 255.49 225.15 C 255.50 223.90 255.51 222.66 255.52 221.41 C 256.00 221.49 256.97 221.64 257.46 221.71 C 257.57 220.19 257.74 218.69 257.89 217.18 C 257.36 214.31 256.09 210.14 258.61 207.98 C 258.52 205.95 258.41 203.92 258.44 201.89 Z" />
<path fill="#ffffff" opacity="1.00" d=" M 289.78 212.32 C 289.62 209.91 288.78 207.60 288.76 205.18 C 292.64 208.11 296.23 211.42 300.06 214.46 C 299.01 214.48 296.91 214.53 295.86 214.56 C 294.04 213.04 293.00 209.98 290.23 210.14 C 291.49 212.36 293.51 214.30 293.95 216.92 C 292.55 216.08 290.68 215.24 290.80 213.21 C 290.40 213.82 290.01 214.43 289.61 215.05 C 290.40 215.98 290.79 217.05 290.79 218.26 C 289.50 216.47 288.46 214.52 287.30 212.65 C 288.12 212.52 288.94 212.41 289.78 212.32 Z" />
<path fill="#ffffff" opacity="1.00" d=" M 245.14 208.30 C 245.79 208.86 245.79 208.86 245.14 208.30 Z" />
<path fill="#ffffff" opacity="1.00" d=" M 268.58 208.33 C 268.88 208.32 269.47 208.30 269.77 208.29 C 268.44 211.56 267.64 215.01 267.08 218.48 C 268.18 217.31 269.26 216.12 270.29 214.89 C 270.00 218.32 271.22 221.71 270.64 225.13 C 270.17 222.83 270.11 220.48 269.68 218.18 C 268.83 220.83 268.51 223.60 268.27 226.37 C 268.88 226.35 270.09 226.32 270.70 226.31 C 271.32 228.36 272.04 230.39 272.83 232.39 C 271.08 231.44 270.67 229.34 270.06 227.63 C 268.36 226.07 268.67 230.25 268.28 231.38 C 267.88 229.33 267.80 227.23 267.72 225.15 C 264.56 219.96 267.53 213.74 268.58 208.33 Z" />
<path fill="#ffffff" opacity="1.00" d=" M 221.34 221.68 C 223.16 218.01 223.14 212.89 226.82 210.50 C 226.24 212.77 225.66 215.05 224.61 217.15 C 225.04 217.56 225.48 217.97 225.92 218.38 L 227.00 216.37 C 227.53 218.12 226.04 219.32 225.29 220.67 L 224.48 218.59 C 223.47 219.65 222.42 220.69 221.34 221.68 Z" />
<path fill="#ffffff" opacity="1.00" d=" M 261.34 213.36 C 261.89 213.36 262.99 213.35 263.55 213.35 C 263.65 217.17 263.67 220.98 263.41 224.80 C 263.19 224.82 262.75 224.87 262.53 224.90 C 262.53 222.82 262.46 220.68 261.26 218.89 C 261.29 217.05 261.33 215.20 261.34 213.36 Z" />
<path fill="#ffffff" opacity="1.00" d=" M 241.40 220.84 C 242.12 224.71 245.11 229.53 242.06 232.93 C 239.98 232.87 240.72 230.07 240.27 228.74 C 242.63 226.99 240.76 223.37 241.40 220.84 Z" />
<path fill="#ffffff" opacity="1.00" d=" M 276.61 221.96 C 277.97 224.63 277.97 227.83 279.43 230.51 C 280.34 231.78 279.89 233.30 278.46 233.92 C 279.01 235.00 279.53 236.10 280.00 237.23 C 277.05 234.89 275.79 231.10 274.84 227.60 C 275.69 228.70 277.40 230.90 278.25 232.00 C 277.53 228.69 276.28 225.40 276.61 221.96 Z" />
<path fill="#ffffff" opacity="1.00" d=" M 283.29 229.24 C 281.85 231.21 279.43 225.85 281.50 225.48 C 282.65 226.28 283.23 227.86 283.29 229.24 Z" />
</g>
</svg>
