<?xml version="1.0" encoding="UTF-8" ?>
<!DOCTYPE svg PUBLIC "-//W3C//DTD SVG 1.1//EN" "http://www.w3.org/Graphics/SVG/1.1/DTD/svg11.dtd">
<svg width="512pt" height="256pt" viewBox="0 0 512 256" version="1.1" xmlns="http://www.w3.org/2000/svg">
<g id="#ffffffff">
<path fill="#ffffff" opacity="1.00" d=" M 232.20 23.01 C 233.04 23.80 233.35 24.79 233.14 25.97 L 234.79 25.04 C 234.73 25.72 234.59 27.07 234.53 27.75 C 236.87 27.51 234.75 23.29 238.07 23.44 L 237.26 25.84 L 239.20 25.18 C 237.87 27.18 238.45 30.81 235.89 31.71 C 235.79 31.03 235.60 29.67 235.51 28.99 C 235.36 30.40 235.69 32.04 234.35 32.98 C 234.76 32.71 235.58 32.16 235.99 31.89 C 239.25 31.06 239.34 27.05 239.98 24.38 C 240.96 25.29 241.44 26.59 242.26 27.64 C 243.03 27.46 243.72 27.06 244.34 26.46 C 245.11 26.39 246.63 26.27 247.40 26.21 C 245.71 29.30 244.55 32.63 243.25 35.90 C 245.88 32.49 247.64 28.50 250.36 25.16 C 251.00 23.77 252.13 24.42 252.52 25.58 C 253.52 24.68 254.55 23.78 255.60 22.92 C 255.59 23.54 255.58 24.79 255.58 25.41 C 254.57 26.23 253.90 27.81 252.34 27.57 C 253.42 29.08 253.46 30.95 253.30 32.72 C 251.42 35.45 250.11 38.59 248.86 41.65 C 246.72 40.03 249.22 38.27 248.93 36.24 C 250.11 34.09 251.48 32.05 252.93 30.06 L 252.29 28.71 L 251.08 30.31 C 250.60 30.37 249.65 30.48 249.17 30.54 C 249.37 31.01 249.75 31.95 249.95 32.42 C 247.12 38.83 242.99 44.95 242.27 52.06 C 243.48 49.58 243.91 46.80 245.31 44.41 C 246.01 43.29 246.93 42.37 248.06 41.67 C 247.52 42.59 246.44 44.45 245.89 45.37 C 246.94 45.69 247.90 46.23 248.59 47.10 L 246.85 47.95 C 247.19 48.07 247.85 48.32 248.18 48.44 C 251.41 43.55 253.22 37.77 256.84 33.14 C 257.21 33.22 257.94 33.39 258.31 33.47 C 261.71 28.36 266.72 24.64 272.38 22.32 C 270.70 23.89 267.33 27.05 265.65 28.62 L 267.37 28.62 C 269.14 25.21 272.68 24.85 275.95 24.25 C 274.57 25.75 272.90 27.08 272.27 29.09 C 274.15 28.45 275.61 27.08 277.18 25.93 C 275.50 27.75 276.18 30.29 274.64 31.99 C 272.44 30.12 271.38 33.38 269.37 33.76 C 269.35 34.08 269.31 34.72 269.28 35.04 C 270.50 34.35 271.69 33.63 272.87 32.89 L 271.28 35.93 C 273.88 34.24 275.85 31.79 278.37 30.01 C 278.94 32.19 278.08 34.14 276.34 35.49 L 276.68 32.10 C 274.75 34.13 272.94 36.30 270.78 38.09 C 271.11 38.50 271.45 38.91 271.79 39.32 L 273.23 36.97 L 275.08 36.51 C 272.56 38.59 272.84 42.30 270.25 44.22 C 266.23 44.65 265.01 49.48 263.89 52.77 C 263.49 52.70 262.68 52.57 262.27 52.50 C 261.94 54.24 260.85 55.04 259.00 54.92 C 259.88 53.24 260.76 51.56 261.61 49.87 C 260.56 50.96 259.75 52.25 259.00 53.55 C 258.45 53.06 257.91 52.58 257.37 52.09 C 255.87 54.18 253.37 55.87 253.51 58.74 L 252.75 58.56 C 251.94 60.60 249.90 61.83 249.19 63.92 C 250.83 62.56 252.06 60.78 253.40 59.14 L 254.09 59.38 C 253.80 56.59 256.78 55.69 259.04 56.11 C 258.20 57.81 257.27 59.45 256.38 61.12 C 257.99 59.38 258.88 57.13 259.92 55.03 C 260.39 55.45 261.33 56.30 261.80 56.72 C 261.96 56.10 262.28 54.87 262.45 54.25 L 263.61 54.56 L 264.09 54.07 C 264.87 52.89 266.02 51.59 265.03 50.09 C 266.23 48.72 267.54 47.34 267.90 45.48 C 268.45 45.45 269.57 45.38 270.13 45.35 C 270.72 44.20 273.93 40.60 274.13 43.36 C 273.78 43.73 273.10 44.49 272.76 44.87 C 270.76 47.14 268.69 49.37 267.07 51.94 C 269.97 49.30 272.45 46.25 274.99 43.27 C 275.10 42.90 275.34 42.16 275.45 41.79 L 276.61 41.52 C 275.69 40.96 274.81 40.35 273.94 39.72 C 276.94 39.68 278.51 36.74 280.62 35.05 L 280.51 37.10 C 281.62 36.13 282.70 35.13 283.84 34.19 C 283.44 34.94 282.64 36.46 282.24 37.21 C 282.79 37.58 283.34 37.95 283.89 38.32 C 284.17 36.69 285.45 35.56 286.86 34.89 C 286.01 37.81 283.65 39.89 282.40 42.61 C 281.27 43.88 278.49 44.76 279.58 46.95 C 277.96 47.30 277.08 48.59 276.63 50.09 C 275.56 50.53 274.64 51.24 273.66 51.82 C 272.38 51.92 272.73 50.16 272.44 49.38 C 271.71 52.00 268.81 53.23 268.27 55.96 C 269.64 55.26 269.54 53.22 271.02 52.70 C 272.22 52.60 272.80 53.90 273.58 54.60 C 272.65 53.06 274.75 52.16 275.87 52.17 C 277.78 53.25 276.22 55.49 276.32 57.15 C 275.99 57.39 275.33 57.86 275.00 58.10 C 276.60 57.53 277.48 55.97 277.87 54.40 C 278.35 53.61 279.30 52.02 279.78 51.22 L 280.79 51.40 C 281.45 54.66 278.00 56.55 278.02 59.70 C 280.45 57.32 280.75 53.84 281.90 50.82 C 283.10 50.21 284.52 49.23 283.08 47.58 C 286.00 47.86 287.54 45.10 289.17 43.23 C 288.32 43.39 286.61 43.69 285.75 43.84 C 286.22 43.06 287.16 41.49 287.63 40.71 C 286.05 40.85 285.14 42.31 284.09 43.30 C 281.22 40.58 287.01 40.31 287.27 37.84 C 288.06 39.56 288.96 41.23 289.83 42.91 C 290.33 42.14 291.31 40.60 291.80 39.83 C 291.10 41.33 289.70 44.33 289.00 45.83 L 292.51 43.80 L 292.63 41.45 C 294.67 42.03 295.65 41.03 296.65 39.53 C 296.06 40.70 296.15 41.73 296.94 42.62 C 296.58 42.55 295.84 42.40 295.48 42.33 C 296.13 44.68 294.03 43.44 292.91 43.38 C 293.35 43.57 294.22 43.95 294.66 44.14 C 293.83 44.90 293.01 45.66 292.20 46.42 L 292.28 46.91 C 292.08 47.06 291.70 47.36 291.50 47.50 C 291.70 47.36 292.08 47.06 292.28 46.91 C 292.97 47.13 293.67 47.37 294.36 47.65 L 292.28 49.47 C 292.17 49.63 291.95 49.93 291.84 50.09 L 292.31 49.99 L 292.28 49.47 C 292.93 49.33 294.24 49.05 294.90 48.91 L 294.73 49.47 C 294.02 50.20 292.58 51.68 291.86 52.42 C 294.18 50.98 296.65 49.78 299.23 48.88 L 300.07 50.54 L 298.42 50.21 L 298.64 51.58 C 298.18 51.54 297.25 51.46 296.79 51.42 L 296.25 52.28 C 295.25 52.77 294.24 53.24 293.24 53.70 C 293.43 54.11 293.81 54.93 294.01 55.34 L 294.78 55.02 L 295.63 54.65 L 295.44 53.66 C 295.99 53.41 297.08 52.90 297.63 52.65 C 298.61 52.21 299.61 51.80 300.63 51.41 L 300.61 50.52 C 302.36 49.98 301.71 48.78 299.89 49.21 L 300.22 48.35 L 301.27 48.57 C 301.80 47.75 302.54 47.23 303.51 47.01 C 302.41 48.68 302.76 50.97 301.06 52.30 C 300.64 52.63 299.80 53.29 299.38 53.62 C 298.90 53.81 297.95 54.20 297.47 54.39 C 295.96 54.90 294.76 56.05 293.26 56.59 C 293.25 56.96 293.22 57.69 293.21 58.05 C 294.54 57.42 295.86 56.73 297.28 56.30 C 297.47 56.05 297.85 55.56 298.03 55.31 L 299.65 55.75 L 299.54 54.23 C 300.05 54.38 301.06 54.67 301.57 54.81 L 301.35 53.52 C 303.00 53.46 304.15 52.13 305.60 51.50 C 305.33 51.78 304.79 52.34 304.52 52.62 C 304.54 53.12 304.57 54.13 304.59 54.63 C 304.04 54.54 302.94 54.37 302.38 54.29 L 302.61 55.80 C 302.05 55.65 300.94 55.35 300.38 55.20 L 300.71 56.84 C 300.18 56.68 299.11 56.36 298.57 56.20 L 298.64 57.70 L 297.57 57.33 L 297.14 58.31 C 296.69 58.63 295.80 59.27 295.36 59.59 L 294.64 59.38 C 294.16 60.07 293.19 61.44 292.71 62.12 C 294.34 61.26 296.42 61.04 297.82 59.74 C 300.20 58.14 302.92 56.40 305.89 57.78 L 305.30 56.05 L 306.17 56.05 C 306.18 56.48 306.20 57.34 306.21 57.77 L 307.99 57.49 C 307.55 58.55 306.73 58.88 305.51 58.49 C 304.76 59.64 303.71 59.91 302.37 59.31 L 302.70 60.80 C 301.95 61.28 300.46 62.23 299.71 62.71 C 302.03 62.51 304.76 62.23 306.66 60.67 C 308.02 60.16 309.38 59.61 310.75 59.08 C 309.54 62.10 306.13 62.43 303.52 63.57 C 302.30 64.28 301.06 64.95 299.91 65.76 C 300.49 65.64 301.65 65.41 302.23 65.30 C 304.24 64.35 306.88 63.83 308.83 65.21 C 305.21 64.93 302.06 66.91 299.08 68.66 C 301.56 67.92 304.04 67.18 306.48 66.31 L 306.42 67.78 C 307.19 67.67 308.73 67.46 309.50 67.36 C 309.61 68.47 309.73 69.58 309.85 70.69 C 309.13 70.71 307.70 70.74 306.98 70.75 C 306.07 71.62 305.15 72.48 304.22 73.33 C 302.05 73.56 299.16 73.70 297.89 75.74 C 302.82 74.79 308.24 72.12 313.08 74.53 C 311.34 74.81 309.60 75.10 307.86 75.40 C 308.00 75.71 308.27 76.34 308.41 76.66 C 310.66 76.77 312.91 76.22 315.17 76.47 C 312.23 77.10 309.35 78.02 306.39 78.58 L 306.71 79.66 C 303.38 80.02 300.09 79.38 297.29 77.51 L 297.51 76.50 C 296.02 76.65 294.53 76.59 293.08 76.25 L 294.28 77.75 L 292.28 77.45 C 292.37 78.85 292.47 80.25 292.60 81.65 C 291.93 81.53 290.58 81.30 289.91 81.18 C 290.67 81.77 291.42 82.36 292.18 82.96 C 291.47 82.79 290.04 82.46 289.33 82.30 L 289.43 84.21 C 289.20 83.67 288.74 82.61 288.51 82.07 C 287.44 82.74 286.32 83.37 285.04 83.27 C 285.14 82.19 285.34 80.02 285.44 78.94 C 284.21 79.88 283.08 80.90 282.04 82.03 L 283.56 82.96 L 283.32 83.90 L 281.32 84.50 C 282.26 84.54 284.13 84.63 285.07 84.67 L 284.09 85.69 L 282.18 85.48 C 282.31 86.53 282.57 88.63 282.70 89.68 C 283.31 89.65 284.53 89.58 285.14 89.55 C 284.53 89.77 283.32 90.22 282.71 90.45 L 284.57 92.21 C 284.63 92.96 284.76 94.45 284.82 95.20 C 284.08 94.69 282.60 93.67 281.86 93.16 C 282.47 94.23 283.42 95.01 284.31 95.83 C 284.92 96.87 285.53 97.91 286.11 98.98 C 284.17 98.98 281.78 100.52 280.20 98.94 C 280.68 97.71 280.71 96.44 280.30 95.14 C 279.20 94.21 278.15 93.24 277.11 92.26 C 277.90 92.33 279.50 92.47 280.29 92.54 C 279.88 90.72 278.68 89.27 277.91 87.62 C 278.81 87.68 280.61 87.80 281.50 87.86 L 281.87 85.39 C 280.35 85.36 278.83 85.33 277.32 85.30 C 277.02 84.26 276.74 83.19 275.99 82.38 L 275.13 84.50 C 273.90 82.77 276.21 81.90 277.10 80.84 C 277.72 80.40 278.96 79.52 279.59 79.08 C 279.48 79.39 279.28 80.00 279.18 80.31 C 278.84 80.79 278.16 81.75 277.82 82.24 L 278.06 82.61 L 278.60 82.67 L 279.16 82.37 L 279.74 81.97 C 281.41 80.79 283.12 79.69 284.87 78.64 C 284.18 78.31 282.82 77.64 282.13 77.31 C 284.10 76.31 286.08 75.36 288.08 74.43 C 287.40 74.37 286.04 74.23 285.36 74.16 C 283.42 75.69 281.42 77.15 279.20 78.26 C 279.63 77.59 280.47 76.26 280.90 75.59 C 279.68 75.17 278.47 74.74 277.26 74.31 C 280.59 70.83 285.07 68.98 289.21 66.95 C 288.28 67.14 286.40 67.53 285.46 67.72 L 284.34 65.44 C 285.06 65.34 286.50 65.15 287.22 65.06 C 286.18 64.34 285.15 63.61 284.12 62.89 C 284.29 62.33 284.63 61.22 284.79 60.66 C 282.70 62.01 280.51 63.26 278.74 65.05 C 279.74 64.63 281.72 63.78 282.71 63.36 L 281.02 66.06 L 282.34 66.63 C 282.34 66.88 282.34 67.37 282.33 67.62 C 282.60 67.46 283.12 67.14 283.38 66.98 L 284.38 66.38 C 284.38 66.94 284.40 68.06 284.41 68.62 C 280.88 70.66 276.36 72.42 275.08 76.71 C 275.78 76.71 277.18 76.71 277.88 76.71 C 277.56 78.07 277.26 79.44 277.10 80.84 L 276.53 79.38 C 275.60 80.93 274.45 82.59 272.43 82.58 C 272.43 84.26 273.11 86.86 270.56 86.65 C 270.51 87.26 270.40 88.49 270.34 89.11 L 268.43 88.19 C 268.41 88.89 268.35 90.29 268.32 91.00 C 267.25 91.89 266.19 92.78 265.08 93.62 C 265.08 90.69 265.09 87.75 265.30 84.83 C 264.34 83.40 264.41 81.73 264.53 80.10 C 264.32 80.21 263.89 80.43 263.67 80.54 C 263.60 81.36 263.47 83.01 263.40 83.83 C 262.04 83.11 260.39 82.14 260.17 80.45 C 260.24 78.96 261.27 77.74 261.56 76.29 L 263.11 77.57 L 262.51 75.41 C 262.97 75.40 263.88 75.39 264.34 75.38 C 264.34 74.68 264.35 73.28 264.36 72.58 C 262.82 72.90 261.29 73.27 259.82 73.81 C 258.45 72.97 257.33 73.34 256.46 74.93 C 255.63 74.51 254.80 74.10 253.97 73.69 C 255.19 72.26 256.54 70.95 257.93 69.69 L 256.71 68.01 L 259.26 69.14 L 257.35 66.86 L 259.80 67.77 L 259.58 66.83 C 262.35 65.45 265.12 63.96 267.31 61.71 C 269.24 64.52 266.08 65.60 264.13 66.63 C 265.54 66.10 266.95 65.54 268.44 65.24 L 268.30 64.29 L 269.65 64.68 L 269.61 63.56 C 270.81 63.46 272.02 63.36 273.23 63.26 C 273.40 62.61 273.75 61.33 273.92 60.69 C 272.21 61.42 270.56 62.31 269.00 63.32 L 269.36 61.84 L 267.56 61.59 C 267.56 61.27 267.56 60.64 267.57 60.33 C 266.25 61.33 265.20 63.96 263.23 62.90 C 263.37 60.71 266.00 59.38 266.61 57.19 C 265.29 58.42 264.65 60.36 262.85 61.03 C 262.26 62.04 261.70 63.06 261.14 64.09 C 259.39 65.01 257.77 66.14 256.18 67.30 L 256.97 68.83 L 254.93 67.92 L 255.87 69.90 L 254.08 69.15 C 255.71 71.44 252.05 72.51 251.68 74.66 C 251.11 74.08 250.55 73.49 250.01 72.90 C 250.50 72.28 251.49 71.03 251.98 70.41 L 250.07 70.42 L 248.98 69.54 C 249.89 69.47 251.73 69.32 252.64 69.25 C 252.68 69.04 252.77 68.63 252.81 68.42 C 251.93 68.58 250.17 68.90 249.29 69.06 C 249.71 68.20 250.57 66.48 250.99 65.63 C 248.58 67.02 247.19 69.63 245.94 72.02 C 246.54 71.39 247.74 70.12 248.35 69.49 C 248.46 70.25 248.70 71.78 248.82 72.54 L 247.83 72.49 C 247.10 72.97 245.64 73.93 244.92 74.41 C 245.85 74.38 247.71 74.32 248.64 74.29 C 248.45 75.60 247.64 75.92 246.22 75.28 L 246.72 76.77 C 244.23 79.25 242.08 82.11 239.13 84.10 C 237.52 86.01 236.15 88.13 234.26 89.82 C 235.14 89.72 236.89 89.52 237.77 89.43 C 235.13 90.22 233.84 93.03 231.13 93.65 C 231.98 92.72 233.68 90.85 234.53 89.92 C 232.72 90.92 231.02 92.05 229.26 93.13 C 230.12 93.73 230.97 94.36 231.82 94.99 C 230.88 95.30 229.00 95.90 228.06 96.21 L 228.27 96.61 C 229.81 96.00 232.06 96.50 232.91 94.69 C 233.57 95.07 234.22 95.45 234.88 95.84 C 232.16 97.96 228.27 99.99 225.00 98.27 L 225.60 97.29 C 224.84 96.92 224.13 96.49 223.45 96.01 C 224.74 94.58 225.91 93.05 227.18 91.60 L 225.24 91.54 C 225.57 91.31 226.22 90.85 226.54 90.62 C 228.52 89.25 230.63 87.84 231.68 85.57 C 229.87 86.67 227.83 87.02 225.76 86.70 C 229.25 83.13 233.84 80.73 237.03 76.88 C 237.69 77.18 238.35 77.48 239.01 77.79 C 237.07 79.98 234.58 81.52 232.23 83.21 C 232.94 83.72 233.65 84.23 234.34 84.78 L 232.33 85.99 L 232.97 87.28 C 233.94 86.46 234.89 85.62 235.84 84.78 C 235.70 84.14 235.41 82.87 235.27 82.24 C 236.92 80.54 238.48 78.75 240.20 77.11 C 241.29 76.37 239.73 75.56 239.32 74.96 C 240.74 74.61 241.77 73.56 242.07 72.11 L 240.17 72.69 L 239.77 72.03 L 241.16 71.58 C 241.79 70.66 243.06 68.81 243.70 67.89 C 241.79 69.45 238.95 68.97 237.29 70.86 L 240.97 69.59 C 239.40 71.66 237.82 73.72 236.25 75.78 L 235.64 73.65 C 233.25 77.08 230.50 80.42 226.89 82.62 C 227.23 81.25 228.37 80.34 229.20 79.27 C 229.69 77.97 231.59 77.59 231.71 76.21 C 230.97 75.80 230.20 75.45 229.42 75.14 C 229.56 75.79 229.84 77.08 229.98 77.73 L 228.56 77.50 C 228.57 77.93 228.59 78.78 228.61 79.20 C 226.80 79.16 225.72 80.54 224.57 81.65 C 223.39 81.33 221.77 81.52 221.13 80.22 C 221.89 79.72 222.48 79.10 222.89 78.35 C 222.27 78.43 221.02 78.58 220.40 78.65 L 220.63 76.96 C 219.97 78.11 219.31 79.26 218.69 80.43 C 218.04 80.16 216.75 79.61 216.10 79.34 C 217.86 75.86 220.69 72.91 221.82 69.13 C 218.69 72.50 217.25 77.13 214.01 80.43 L 214.50 78.68 L 212.13 77.60 L 214.48 77.37 C 214.77 76.60 215.34 75.07 215.63 74.31 C 214.50 74.20 213.38 74.06 212.26 73.89 C 212.69 73.16 213.55 71.71 213.98 70.98 C 213.03 71.16 212.20 71.57 211.50 72.22 C 211.78 74.25 210.34 75.95 210.26 77.89 C 210.66 79.76 209.70 81.40 208.97 83.03 C 206.59 81.21 207.68 77.81 209.56 76.05 C 208.20 74.86 206.96 73.53 205.88 72.08 C 205.65 68.96 205.32 65.84 204.63 62.78 C 205.37 62.32 206.12 61.85 206.87 61.40 C 206.32 61.51 205.21 61.73 204.66 61.83 C 204.54 60.68 204.30 58.37 204.19 57.22 L 205.87 57.06 C 205.49 56.93 204.71 56.68 204.33 56.55 C 203.95 53.87 203.57 51.19 203.30 48.50 L 204.37 48.45 C 204.40 47.96 204.47 46.98 204.51 46.49 L 203.61 46.58 C 203.60 43.98 202.30 41.39 200.34 39.73 C 200.41 42.33 199.83 44.86 199.32 47.39 C 199.85 47.45 200.90 47.57 201.42 47.63 C 200.67 49.09 199.83 50.50 199.05 51.94 C 200.21 51.26 201.26 50.07 202.75 50.44 C 201.14 51.85 200.90 53.24 202.05 54.62 C 201.66 55.30 200.87 56.65 200.47 57.32 C 201.06 57.38 202.23 57.49 202.82 57.55 C 202.80 57.79 202.78 58.28 202.76 58.52 L 201.70 58.42 C 200.82 61.52 198.51 64.01 196.71 66.60 C 196.85 62.46 195.93 58.33 196.53 54.21 C 196.32 54.23 195.89 54.26 195.67 54.27 C 196.11 57.53 195.08 61.03 196.42 64.11 C 194.39 65.63 196.97 67.27 196.59 69.03 C 196.43 73.72 198.09 78.17 199.55 82.54 C 201.35 86.85 205.01 89.74 208.88 92.12 C 211.25 94.14 214.31 95.49 216.15 98.04 C 213.07 97.36 210.78 94.62 207.58 94.40 C 207.95 94.06 208.70 93.38 209.07 93.03 C 206.92 91.83 204.80 90.60 202.77 89.20 C 201.01 90.39 201.11 92.14 201.77 94.00 C 200.97 93.67 200.18 93.33 199.39 93.00 C 197.89 94.62 194.64 92.74 194.25 90.84 C 193.23 89.37 192.38 87.77 191.91 86.03 C 193.05 86.09 194.16 86.31 195.22 86.68 C 195.83 88.35 195.26 90.84 197.56 91.49 L 197.32 89.23 L 197.62 89.15 C 198.00 89.52 198.76 90.25 199.15 90.62 C 199.98 89.70 200.91 88.88 201.89 88.12 C 200.85 86.57 199.59 85.31 197.72 84.95 C 195.55 83.39 193.85 81.08 191.16 80.32 C 189.97 78.97 188.25 78.21 187.13 76.81 C 185.92 74.72 184.76 72.54 182.89 70.97 C 184.17 73.38 185.96 75.52 186.83 78.16 C 188.27 78.82 191.26 79.46 190.56 81.56 C 189.94 81.51 188.70 81.42 188.08 81.37 C 188.88 82.23 189.65 83.11 190.40 84.01 C 189.66 83.89 188.18 83.65 187.44 83.53 C 187.83 86.79 191.13 88.84 192.27 91.92 C 190.30 91.78 188.34 91.57 186.40 91.20 C 186.48 91.76 186.65 92.88 186.74 93.44 L 183.56 93.16 C 184.40 93.77 186.07 95.01 186.90 95.62 C 185.56 95.47 184.22 95.33 182.88 95.19 L 182.30 97.75 L 183.86 97.41 C 186.16 99.44 188.40 101.75 189.66 104.59 C 190.14 105.39 188.79 106.84 187.90 106.45 C 185.92 105.82 185.00 108.19 183.34 108.75 C 182.97 111.16 179.58 110.38 179.22 112.57 C 178.79 112.57 177.93 112.59 177.51 112.59 C 177.18 113.60 176.87 114.61 176.55 115.62 C 175.21 115.26 173.87 115.28 172.53 115.68 C 173.35 114.69 174.40 114.20 175.67 114.23 C 175.40 112.68 175.17 111.09 176.40 109.87 L 173.03 111.88 C 173.38 110.72 174.09 108.39 174.45 107.22 C 176.67 107.75 178.87 106.94 181.00 106.40 C 178.91 105.78 174.05 108.65 175.37 104.38 C 175.94 104.32 177.08 104.21 177.65 104.16 C 176.83 102.49 175.12 103.76 173.84 103.75 C 173.94 101.47 176.99 102.01 176.51 99.74 L 177.85 99.34 C 177.62 97.65 176.32 96.15 176.68 94.40 C 176.10 93.62 175.52 92.85 174.95 92.07 C 175.72 92.23 177.28 92.54 178.06 92.69 C 177.04 91.60 175.95 90.59 174.77 89.68 L 175.54 88.67 C 175.56 88.13 175.60 87.05 175.62 86.52 C 172.63 87.39 173.50 85.06 174.69 83.78 L 174.19 85.61 C 177.99 85.11 180.54 88.98 184.02 90.07 C 183.09 88.96 182.08 87.92 181.09 86.87 C 179.47 86.23 177.88 85.53 176.27 84.87 C 177.01 84.49 178.48 83.72 179.21 83.34 C 178.73 83.12 177.78 82.68 177.31 82.45 L 178.01 80.73 C 177.53 81.06 176.58 81.74 176.11 82.07 C 176.18 81.26 176.34 79.62 176.41 78.80 C 176.96 80.28 178.04 80.93 179.66 80.76 L 179.23 79.23 C 179.88 79.28 181.19 79.40 181.85 79.45 L 180.86 81.42 C 181.72 81.10 183.46 80.45 184.33 80.13 C 184.58 80.66 185.08 81.73 185.33 82.26 C 185.35 81.53 185.37 80.06 185.39 79.33 C 184.87 79.47 183.83 79.75 183.31 79.88 L 183.61 78.34 C 183.01 78.53 181.80 78.93 181.19 79.12 L 181.45 77.52 C 180.10 77.54 178.75 77.56 177.41 77.60 L 177.62 76.47 C 177.05 76.37 175.90 76.17 175.33 76.07 C 176.47 72.97 179.29 77.25 181.33 75.99 C 180.17 74.55 177.46 74.28 177.61 72.05 L 177.24 72.25 C 177.36 72.84 177.61 74.02 177.73 74.61 C 176.10 74.29 175.47 71.66 173.61 72.43 C 173.31 72.01 172.70 71.18 172.40 70.76 C 172.43 71.52 172.47 73.03 172.50 73.79 C 171.51 72.73 170.59 71.62 169.86 70.37 L 171.76 71.51 C 171.78 70.64 171.83 68.89 171.85 68.01 C 171.21 66.65 170.53 65.31 170.03 63.89 C 172.11 65.24 173.00 68.12 173.49 70.42 L 176.47 70.77 C 175.41 68.83 173.46 67.12 173.38 64.78 L 174.69 64.26 C 174.21 62.88 173.68 61.52 173.27 60.12 C 174.99 61.82 175.85 64.38 175.44 66.78 L 176.93 66.52 C 176.75 67.00 176.39 67.96 176.21 68.44 C 179.18 68.68 179.55 72.61 182.02 73.92 C 180.94 71.06 177.98 68.83 178.55 65.52 L 177.73 65.36 C 176.60 62.70 176.21 59.87 176.28 56.99 C 176.84 57.15 177.97 57.49 178.53 57.66 C 178.52 58.96 178.50 60.26 178.47 61.56 L 179.56 61.53 C 179.55 62.22 179.55 63.60 179.54 64.29 C 180.07 64.66 181.11 65.40 181.64 65.77 L 181.34 66.96 C 181.77 66.89 182.61 66.75 183.03 66.67 C 182.69 66.25 182.02 65.39 181.68 64.96 C 181.63 64.34 181.53 63.09 181.48 62.47 L 180.27 62.53 C 180.39 61.68 180.63 59.97 180.75 59.11 L 179.54 59.75 C 179.68 57.31 176.40 54.34 178.82 52.41 C 179.24 53.33 180.07 55.17 180.49 56.10 C 180.49 54.33 180.50 52.56 180.51 50.80 C 181.07 51.04 182.19 51.51 182.75 51.74 C 182.65 50.65 182.46 48.46 182.36 47.37 C 182.92 47.54 184.05 47.87 184.62 48.04 C 184.58 47.34 184.52 45.94 184.48 45.24 C 185.15 46.21 185.84 47.16 186.56 48.09 C 186.72 46.48 187.36 45.13 188.49 44.06 C 188.44 43.39 188.35 42.05 188.30 41.39 C 190.52 42.88 191.26 40.37 192.51 39.05 C 192.33 40.85 190.58 41.84 190.33 43.57 C 192.02 44.35 194.30 44.66 195.53 42.72 L 193.58 42.30 C 193.39 42.07 193.02 41.62 192.84 41.39 C 193.48 41.46 194.76 41.60 195.40 41.67 C 195.19 40.02 195.71 38.46 196.33 36.96 C 196.65 37.39 197.30 38.26 197.63 38.69 C 199.10 36.83 201.03 35.34 202.19 33.24 L 202.25 35.89 C 204.36 35.13 207.91 34.52 206.41 31.39 C 206.82 31.73 207.66 32.39 208.08 32.72 C 208.33 31.99 208.82 30.52 209.06 29.78 C 209.92 30.68 211.63 32.47 212.48 33.37 L 210.32 28.81 C 212.81 31.64 213.85 27.56 214.40 25.57 C 214.50 26.43 214.69 28.15 214.78 29.01 C 216.09 28.26 216.57 26.73 217.59 25.68 L 218.04 28.21 C 218.36 27.70 219.00 26.69 219.32 26.18 C 219.86 26.33 220.94 26.62 221.48 26.76 C 221.46 26.15 221.43 24.93 221.42 24.32 C 222.28 24.95 224.06 24.98 223.62 26.57 L 225.88 26.61 C 225.78 25.98 225.59 24.71 225.49 24.08 C 226.64 24.17 227.38 24.74 227.72 25.80 C 228.90 25.48 229.93 24.86 230.79 23.95 C 230.76 24.54 230.71 25.74 230.68 26.33 L 232.76 26.66 C 232.62 25.75 232.34 23.92 232.20 23.01 M 264.07 39.08 C 263.36 39.68 263.36 39.68 264.07 39.08 C 264.72 38.41 264.72 38.41 264.07 39.08 M 281.12 38.67 C 279.73 41.80 277.36 44.76 274.71 46.94 C 274.58 47.49 274.30 48.58 274.16 49.13 C 275.61 47.92 276.76 46.39 277.86 44.87 C 279.13 43.11 280.52 41.44 282.18 40.03 C 281.82 39.58 281.47 39.12 281.12 38.67 M 269.23 40.82 C 269.10 43.11 271.59 40.49 270.96 39.39 L 270.38 39.18 C 270.09 39.59 269.52 40.41 269.23 40.82 M 189.21 42.59 L 188.97 43.42 C 189.69 46.39 191.56 42.49 189.21 42.59 M 191.40 44.70 C 190.31 45.60 190.12 47.40 190.02 48.70 C 192.08 48.36 193.70 46.14 191.40 44.70 M 264.90 73.23 C 264.67 74.83 264.51 76.43 264.44 78.05 C 264.78 78.66 265.46 79.89 265.79 80.51 C 266.16 80.49 266.89 80.47 267.26 80.46 C 266.90 77.68 270.41 76.10 269.24 73.37 L 270.53 73.78 L 270.62 72.78 C 272.05 71.19 273.52 69.63 274.90 68.00 C 271.29 69.31 269.04 74.17 264.90 73.23 M 271.30 73.27 C 271.71 74.47 271.30 75.39 270.06 76.02 C 269.94 76.92 269.84 77.81 269.77 78.71 C 269.97 81.56 266.83 83.55 267.63 86.50 L 266.22 86.30 C 266.02 86.81 265.61 87.84 265.40 88.35 L 266.96 88.10 L 267.72 86.82 C 267.93 87.04 268.33 87.47 268.53 87.69 C 268.60 85.42 269.77 83.47 270.64 81.44 L 271.55 81.67 C 271.74 81.16 272.12 80.14 272.30 79.63 C 270.72 78.34 270.86 77.65 272.72 77.56 L 271.92 75.52 C 272.49 75.91 273.65 76.70 274.22 77.09 C 274.56 76.27 275.24 74.62 275.57 73.80 C 274.51 72.63 272.67 73.55 271.30 73.27 M 243.18 76.62 C 243.78 76.49 244.99 76.24 245.60 76.11 C 245.65 74.55 242.36 75.28 243.18 76.62 M 231.48 89.78 C 232.60 90.32 234.14 88.74 233.65 87.60 C 232.48 86.69 231.05 88.70 231.48 89.78 Z" />
<path fill="#ffffff" opacity="1.00" d=" M 259.12 23.37 C 259.67 24.04 260.23 24.71 260.81 25.36 L 262.01 23.48 L 260.83 27.21 C 262.33 25.65 263.96 24.24 265.73 22.98 C 265.39 23.54 264.71 24.66 264.37 25.21 C 262.71 26.96 261.07 28.74 259.55 30.60 C 259.21 30.25 258.53 29.56 258.19 29.21 C 257.31 30.08 257.08 31.12 257.48 32.34 C 255.33 32.19 254.65 34.91 253.93 36.39 C 253.34 35.92 252.76 35.45 252.18 34.99 C 253.57 33.25 254.26 30.87 256.27 29.68 L 256.02 28.72 L 256.78 28.55 L 256.89 27.69 C 257.39 27.61 258.40 27.44 258.91 27.35 C 259.01 26.26 258.46 25.82 257.29 26.03 L 256.89 25.56 C 257.55 24.75 258.29 24.02 259.12 23.37 Z" />
<path fill="#ffffff" opacity="1.00" d=" M 253.82 28.99 C 254.74 27.93 255.75 25.99 257.29 26.03 C 257.19 26.45 256.99 27.28 256.89 27.69 C 256.67 27.95 256.23 28.47 256.02 28.72 L 255.32 29.50 C 254.45 30.11 253.95 29.94 253.82 28.99 Z" />
<path fill="#ffffff" opacity="1.00" d=" M 251.18 39.71 C 249.58 36.97 254.67 38.35 251.18 39.71 Z" />
<path fill="#ffffff" opacity="1.00" d=" M 250.45 39.85 L 251.18 39.71 C 251.06 40.19 250.83 41.14 250.71 41.62 L 249.98 41.75 C 250.09 41.28 250.33 40.33 250.45 39.85 Z" />
<path fill="#ffffff" opacity="1.00" d=" M 248.98 45.17 C 247.02 45.28 248.64 41.61 249.98 41.75 C 249.73 42.61 249.23 44.31 248.98 45.17 Z" />
<path fill="#ffffff" opacity="1.00" d=" M 293.40 46.42 C 295.66 45.04 297.82 43.50 300.12 42.21 C 300.37 45.33 296.11 45.57 294.37 47.45 L 293.40 46.42 Z" />
<path fill="#ffffff" opacity="1.00" d=" M 283.07 42.68 L 284.09 43.30 C 284.50 43.44 285.34 43.71 285.75 43.84 C 286.03 46.05 283.29 46.90 281.96 48.19 C 280.32 49.77 278.63 51.29 276.99 52.87 L 277.29 49.95 C 277.43 47.28 282.49 47.31 281.40 44.22 C 281.82 43.83 282.65 43.06 283.07 42.68 Z" />
<path fill="#ffffff" opacity="1.00" d=" M 294.90 48.91 C 295.52 48.23 295.52 48.23 294.90 48.91 Z" />
<path fill="#ffffff" opacity="1.00" d=" M 280.79 51.40 C 281.22 50.60 281.22 50.60 280.79 51.40 Z" />
<path fill="#ffffff" opacity="1.00" d=" M 257.27 54.36 C 257.74 54.93 257.74 54.93 257.27 54.36 Z" />
<path fill="#ffffff" opacity="1.00" d=" M 197.15 67.23 C 198.40 65.45 199.17 62.98 201.39 62.17 C 201.21 64.19 201.97 66.46 200.58 68.22 C 200.80 68.36 201.26 68.64 201.49 68.78 C 200.34 70.74 199.33 72.78 197.99 74.62 C 197.60 72.17 197.53 69.68 197.15 67.23 Z" />
<path fill="#ffffff" opacity="1.00" d=" M 283.30 64.92 L 283.94 64.85 L 284.00 65.48 L 283.36 65.55 L 283.30 64.92 Z" />
<path fill="#ffffff" opacity="1.00" d=" M 205.27 73.27 C 206.34 75.16 208.53 76.90 207.13 79.25 C 205.71 78.65 205.12 77.65 205.34 76.26 C 204.91 76.07 204.04 75.68 203.61 75.48 C 204.03 74.93 204.85 73.82 205.27 73.27 Z" />
<path fill="#ffffff" opacity="1.00" d=" M 212.27 76.97 C 212.06 75.29 212.63 74.44 213.95 74.42 C 213.98 75.95 213.42 76.79 212.27 76.97 Z" />
<path fill="#ffffff" opacity="1.00" d=" M 248.24 79.27 C 249.62 78.06 250.71 76.02 252.80 76.12 C 252.17 76.68 251.54 77.23 250.90 77.78 C 250.59 80.73 248.44 82.71 246.32 84.52 L 245.32 84.33 L 245.64 85.69 L 244.59 85.42 C 243.54 88.84 239.84 90.35 238.05 93.32 C 237.44 92.92 236.83 92.53 236.23 92.13 C 237.23 90.95 238.28 89.80 239.31 88.65 C 239.06 86.62 241.05 85.53 242.23 84.23 C 243.52 83.16 244.61 81.63 246.38 81.36 C 246.50 80.27 247.12 79.57 248.24 79.27 Z" />
<path fill="#ffffff" opacity="1.00" d=" M 178.26 78.14 C 178.92 78.81 178.92 78.81 178.26 78.14 Z" />
<path fill="#ffffff" opacity="1.00" d=" M 254.14 77.99 C 256.14 78.42 256.44 80.89 257.36 82.36 L 258.51 81.72 C 257.10 83.95 260.36 86.46 260.82 88.79 C 260.01 88.42 258.40 87.68 257.60 87.31 C 257.93 88.39 258.58 90.55 258.91 91.63 L 257.31 91.67 C 255.86 87.68 253.74 83.97 251.98 80.11 C 252.89 80.68 254.70 81.84 255.60 82.42 C 254.72 81.08 254.20 79.59 254.14 77.99 Z" />
<path fill="#ffffff" opacity="1.00" d=" M 257.11 78.30 C 258.98 78.67 260.24 81.67 260.38 83.45 C 259.91 83.02 258.98 82.15 258.51 81.72 C 258.22 80.54 256.55 79.60 257.11 78.30 Z" />
<path fill="#ffffff" opacity="1.00" d=" M 211.29 78.80 C 212.27 79.48 213.04 80.39 213.82 81.28 C 215.04 81.43 216.25 81.56 217.47 81.68 C 217.74 82.14 218.27 83.05 218.53 83.51 C 218.17 84.88 217.85 86.26 217.55 87.64 L 216.66 87.30 C 215.96 88.23 215.07 88.95 213.99 89.44 C 214.42 87.59 215.01 85.68 214.37 83.80 C 213.92 84.72 213.00 86.57 212.55 87.49 C 212.62 86.45 212.78 84.35 212.86 83.31 C 212.25 83.48 211.03 83.84 210.42 84.01 C 210.66 82.27 210.95 80.53 211.29 78.80 Z" />
<path fill="#ffffff" opacity="1.00" d=" M 293.86 79.29 C 296.23 77.58 295.46 81.60 293.60 80.02 L 293.86 79.29 Z" />
<path fill="#ffffff" opacity="1.00" d=" M 201.97 83.26 C 199.94 83.27 199.95 79.57 202.04 79.63 C 203.53 80.12 203.14 82.62 201.97 83.26 Z" />
<path fill="#ffffff" opacity="1.00" d=" M 190.56 81.56 L 190.96 81.22 C 192.32 81.32 193.10 82.03 193.31 83.33 C 192.02 83.57 191.04 83.11 190.37 81.96 L 190.56 81.56 Z" />
<path fill="#ffffff" opacity="1.00" d=" M 296.40 81.53 C 299.05 80.76 301.85 81.28 304.55 81.45 L 304.59 83.03 C 305.13 82.65 306.22 81.90 306.77 81.52 C 308.05 82.12 309.40 82.42 310.81 82.42 L 311.02 83.18 C 306.53 83.70 302.01 84.07 297.50 83.52 L 297.48 85.61 C 301.36 85.56 305.19 85.68 308.89 86.91 C 308.23 87.73 307.12 88.09 306.11 87.83 C 303.37 87.42 300.60 87.31 297.84 87.51 C 302.40 88.71 307.02 89.73 311.65 90.70 C 311.66 90.98 311.67 91.55 311.67 91.83 C 309.40 90.88 306.98 90.38 304.57 89.94 C 304.58 90.53 304.62 91.71 304.64 92.30 C 306.34 92.26 308.05 92.30 309.76 92.34 C 309.74 92.68 309.69 93.36 309.67 93.70 C 307.83 93.41 305.96 93.27 304.11 93.14 C 304.28 93.73 304.63 94.92 304.81 95.51 C 301.68 94.24 298.25 93.97 294.94 93.54 C 297.06 90.84 301.48 94.20 303.17 91.38 C 298.63 91.03 294.46 93.41 289.92 92.58 C 290.91 93.22 292.07 93.45 293.21 93.73 C 294.73 95.15 298.68 94.48 297.33 97.74 L 298.59 98.16 C 298.55 98.53 298.45 99.27 298.40 99.64 C 298.95 99.49 300.05 99.18 300.60 99.02 L 300.49 100.46 C 301.84 100.47 303.19 100.48 304.54 100.49 L 304.46 101.52 C 305.71 101.59 306.96 101.63 308.22 101.66 C 307.50 101.42 306.06 100.93 305.34 100.68 L 305.25 99.11 C 306.57 99.88 307.99 100.36 309.50 100.54 L 309.36 101.72 C 309.88 101.64 310.91 101.48 311.43 101.40 L 311.55 102.23 C 313.48 102.06 314.63 102.83 314.99 104.54 C 314.38 104.50 313.16 104.42 312.55 104.38 L 313.07 106.68 C 312.43 106.28 311.17 105.48 310.53 105.08 L 310.93 107.07 C 308.86 106.52 306.85 105.84 304.87 105.05 C 305.45 109.96 312.76 107.36 313.91 111.65 C 314.55 111.58 315.83 111.45 316.47 111.39 C 316.41 111.83 316.29 112.71 316.22 113.15 C 317.66 113.37 319.04 113.87 320.27 114.66 C 317.16 114.43 314.04 114.46 310.97 115.03 C 311.97 116.57 315.49 115.97 315.25 118.14 C 313.22 118.67 311.56 116.56 309.50 117.31 L 309.53 116.04 C 308.99 116.22 307.93 116.58 307.39 116.76 L 307.51 115.42 C 305.80 115.15 303.33 116.29 302.29 114.44 C 300.41 114.45 298.53 114.57 296.66 114.66 C 296.59 114.32 296.45 113.66 296.38 113.33 C 293.87 114.10 291.39 113.92 289.34 112.17 C 290.10 111.29 291.41 110.26 290.62 108.94 C 289.15 108.29 286.78 109.05 286.05 107.18 C 285.55 107.49 284.55 108.11 284.05 108.42 C 283.40 108.00 282.11 107.15 281.46 106.73 C 281.50 107.41 281.57 108.78 281.61 109.46 C 278.96 110.41 276.35 111.47 273.89 112.85 C 275.31 112.79 276.61 112.38 277.80 111.61 C 278.51 112.04 279.22 112.48 279.92 112.92 C 277.87 112.94 276.17 113.75 274.84 115.35 C 276.44 115.36 278.03 115.31 279.63 115.22 C 279.91 113.29 281.67 113.41 283.12 113.21 C 283.49 112.96 284.21 112.45 284.57 112.20 C 284.58 112.70 284.60 113.70 284.61 114.20 C 283.26 114.64 281.94 115.14 280.63 115.63 C 280.15 116.91 278.83 117.30 277.73 117.86 C 277.68 117.39 277.56 116.45 277.50 115.97 L 275.43 115.63 C 275.40 116.86 275.39 118.10 275.40 119.34 C 274.03 118.77 273.08 119.18 272.54 120.57 L 271.31 120.42 L 271.51 121.71 C 270.13 122.18 270.11 123.68 269.69 124.85 C 267.43 123.09 265.20 121.28 263.16 119.26 C 262.83 121.95 266.82 122.43 267.50 124.96 C 268.88 126.14 271.00 126.76 271.76 128.51 C 269.95 130.84 266.49 129.96 265.00 127.71 L 265.71 129.83 L 263.45 129.17 C 264.16 131.84 269.22 132.09 268.40 135.05 C 265.95 136.68 265.63 131.67 263.22 132.17 C 262.46 130.74 261.67 129.32 260.94 127.87 C 263.29 127.01 265.57 124.49 268.19 127.04 C 267.02 125.20 263.17 121.79 261.09 123.81 C 260.09 122.96 259.80 122.11 260.21 121.26 C 261.18 120.35 261.60 119.06 261.94 117.81 C 260.61 117.97 257.98 116.94 258.21 119.39 C 256.22 118.73 256.21 116.50 255.42 114.93 C 254.60 115.16 253.78 115.40 252.97 115.66 C 253.58 118.24 255.38 120.17 257.02 122.14 C 259.10 122.55 259.67 124.73 260.79 126.21 C 259.97 126.24 258.32 126.30 257.50 126.32 C 257.61 128.19 255.97 128.41 254.97 127.21 C 255.03 127.56 255.14 128.24 255.20 128.58 L 257.05 128.36 C 256.45 129.14 255.26 130.70 254.67 131.48 C 254.30 133.39 254.48 135.32 254.70 137.23 C 254.24 137.29 253.34 137.41 252.89 137.47 C 252.13 139.17 250.46 140.27 249.89 142.13 L 248.28 141.04 C 249.94 143.74 246.61 143.56 245.29 144.68 L 245.87 146.34 C 245.31 146.41 244.19 146.55 243.63 146.62 C 244.51 147.22 245.51 147.49 246.61 147.44 C 244.56 150.54 245.92 154.69 245.48 158.24 C 245.72 157.52 246.20 156.07 246.44 155.34 C 246.38 152.17 246.36 148.90 247.66 145.94 C 248.13 146.17 249.08 146.62 249.56 146.85 C 249.48 145.48 249.71 143.68 251.00 142.94 C 251.19 143.48 251.58 144.56 251.77 145.10 C 253.05 144.31 253.17 143.30 252.15 142.06 L 253.91 142.47 C 253.24 142.08 252.57 141.69 251.91 141.31 C 252.42 141.43 253.44 141.67 253.95 141.79 C 257.11 141.64 253.27 137.30 256.43 137.00 C 256.40 135.44 256.37 133.88 256.31 132.32 C 257.20 132.40 258.98 132.56 259.87 132.64 C 258.16 130.26 260.24 129.19 262.22 130.40 C 262.30 131.51 262.32 132.62 262.29 133.74 C 261.58 133.68 260.16 133.55 259.45 133.49 C 259.39 135.40 258.38 136.93 256.69 137.80 C 257.35 139.52 256.77 142.06 258.66 143.08 C 258.40 142.39 257.89 141.00 257.63 140.31 C 260.00 139.74 261.98 141.98 263.55 143.50 C 266.11 143.24 268.75 143.13 270.68 145.25 C 269.34 146.24 267.72 145.50 266.24 145.45 C 266.70 146.26 267.63 147.87 268.10 148.68 C 270.62 144.97 272.00 151.60 275.16 151.11 C 275.26 151.79 275.48 153.16 275.58 153.84 C 273.21 150.90 271.94 153.68 269.88 154.42 C 268.10 153.91 267.17 152.20 265.97 150.95 C 265.34 152.40 264.67 153.86 264.48 155.46 L 263.10 155.61 L 264.00 157.41 C 262.65 157.26 261.30 157.10 259.96 156.93 C 262.55 156.94 263.94 160.79 266.55 158.79 C 265.92 158.72 264.65 158.58 264.02 158.52 C 264.64 156.69 265.27 154.87 265.78 153.02 C 267.51 152.90 269.49 154.89 268.71 156.63 C 267.91 158.20 267.11 159.84 265.86 161.11 C 266.20 161.65 266.54 162.19 266.89 162.72 L 268.71 161.07 C 268.57 161.62 268.29 162.72 268.15 163.28 C 268.44 163.86 269.02 165.03 269.30 165.62 C 271.59 163.65 273.96 161.78 276.30 159.89 C 277.07 159.12 278.15 159.28 279.13 159.39 C 277.42 160.88 275.62 162.26 273.69 163.45 L 275.97 163.87 C 272.75 165.75 269.49 168.36 269.03 172.34 C 270.53 170.82 270.90 168.61 272.21 166.97 C 274.58 166.38 276.95 165.18 276.71 162.32 C 278.23 162.95 279.76 164.14 281.49 163.57 C 282.52 163.57 283.56 163.57 284.60 163.57 C 286.03 165.23 287.99 166.22 290.05 166.91 C 288.78 164.73 287.08 162.87 285.30 161.11 C 283.22 161.51 279.59 162.67 278.97 159.60 C 279.97 159.56 281.96 159.49 282.95 159.45 C 282.24 158.76 281.29 158.45 280.31 158.59 C 279.26 158.83 278.70 157.85 278.00 157.31 C 276.85 157.57 275.72 158.07 274.52 157.97 C 274.50 157.72 274.47 157.22 274.45 156.97 C 274.31 156.69 274.03 156.14 273.88 155.87 C 273.69 155.43 273.29 154.57 273.09 154.14 C 274.69 153.88 276.09 154.96 277.60 155.31 L 275.58 154.18 C 276.05 153.54 276.52 152.91 277.01 152.28 C 276.54 151.99 275.62 151.40 275.16 151.11 L 272.98 149.68 C 273.25 149.51 273.79 149.18 274.06 149.01 C 274.64 149.10 275.80 149.27 276.38 149.35 C 277.17 150.27 277.98 151.17 278.80 152.06 C 280.01 152.90 281.18 153.79 282.36 154.67 C 283.35 155.41 284.34 156.14 285.33 156.86 L 282.44 156.74 C 283.34 158.29 286.45 162.79 287.69 159.25 C 288.10 159.92 288.51 160.59 288.93 161.26 C 287.54 163.26 290.25 165.01 291.34 166.22 C 292.00 163.75 291.42 161.51 290.19 159.38 C 291.50 159.93 293.58 160.28 293.72 162.02 C 293.85 163.44 291.71 164.15 292.35 165.59 C 294.14 167.66 296.33 169.42 297.38 172.04 C 295.86 171.11 294.39 170.16 292.88 169.23 C 294.18 171.61 296.20 173.69 299.20 172.60 C 297.27 170.13 295.02 167.86 294.08 164.78 C 295.08 163.72 295.98 162.57 296.61 161.26 C 298.41 161.07 299.74 161.66 300.59 163.04 L 301.60 162.78 L 301.25 163.25 C 302.02 164.88 303.21 166.32 304.52 167.56 L 305.26 167.45 C 305.60 165.23 302.86 164.21 301.60 162.78 C 299.20 159.60 296.35 156.79 293.73 153.80 C 293.64 154.65 293.46 156.35 293.37 157.19 C 291.67 157.48 289.97 157.79 288.27 158.06 C 286.93 156.94 285.54 155.86 284.18 154.77 C 284.39 153.93 284.39 153.08 284.16 152.26 L 282.46 152.70 C 279.25 150.74 276.14 148.62 273.21 146.27 C 273.42 146.96 273.85 148.32 274.06 149.01 C 272.42 148.79 273.11 146.66 272.23 145.74 C 270.99 143.91 268.74 143.26 267.28 141.72 C 266.78 138.37 262.61 137.50 262.04 134.13 C 264.48 136.30 267.66 137.46 269.92 139.85 C 269.78 140.40 269.50 141.49 269.36 142.03 C 270.15 142.39 271.74 143.12 272.54 143.48 C 272.21 142.70 271.56 141.14 271.23 140.36 C 274.12 139.43 275.39 142.81 275.82 145.05 C 277.38 147.03 280.20 147.27 282.24 148.65 C 283.75 150.30 285.55 151.64 287.57 152.62 C 287.17 152.90 286.38 153.47 285.98 153.76 C 287.18 154.71 288.41 155.64 289.75 156.40 L 290.34 156.79 C 291.05 156.24 291.45 155.45 291.53 154.41 L 292.32 154.81 C 292.29 153.28 291.96 151.66 292.72 150.25 C 295.45 152.77 299.49 153.93 303.09 154.68 C 303.02 154.20 302.87 153.24 302.80 152.76 C 298.50 152.72 294.90 149.64 290.65 149.40 C 289.98 145.51 283.66 147.08 283.93 142.49 L 283.23 145.45 C 285.51 146.85 287.68 148.56 290.36 149.16 C 289.85 149.54 289.33 149.91 288.82 150.28 C 290.39 150.42 291.13 151.38 291.02 153.14 C 290.84 153.35 290.47 153.78 290.29 154.00 C 288.85 151.00 283.98 150.88 283.52 147.57 C 280.90 146.29 278.56 144.47 275.97 143.09 C 275.23 141.86 274.46 140.64 273.65 139.45 C 273.06 139.51 271.87 139.62 271.27 139.68 C 270.33 138.58 269.00 137.61 269.09 136.00 C 270.80 136.22 271.50 137.95 272.66 138.98 C 273.93 137.88 274.43 136.27 274.60 134.64 C 271.81 136.01 272.78 132.26 272.82 130.89 C 273.27 130.66 274.16 130.21 274.60 129.99 L 274.25 131.45 C 275.83 131.59 277.26 133.21 278.88 132.15 C 278.07 133.40 278.40 134.32 279.89 134.91 C 279.65 133.96 279.41 133.01 279.17 132.07 C 279.51 131.99 280.18 131.83 280.52 131.75 C 285.13 133.65 290.02 134.99 294.02 138.08 C 290.91 134.09 285.78 132.26 281.45 129.85 C 277.73 129.30 274.17 127.34 272.46 123.87 C 274.76 124.56 276.52 126.50 278.96 126.78 C 282.82 127.65 286.37 129.47 290.03 130.91 C 288.64 129.56 286.85 128.78 285.15 127.93 C 285.33 127.53 285.69 126.73 285.87 126.33 C 284.79 125.94 284.18 125.20 284.03 124.11 C 285.71 124.81 287.29 125.80 289.06 126.29 C 289.54 125.74 291.38 124.10 291.61 125.62 C 291.50 126.67 292.43 127.33 293.16 127.92 C 295.03 128.88 291.90 129.64 291.46 129.87 C 292.08 130.00 293.32 130.25 293.94 130.38 C 293.85 131.75 293.70 133.12 293.35 134.46 C 293.50 134.87 293.80 135.71 293.95 136.13 C 294.89 136.23 296.77 136.42 297.71 136.51 C 297.31 136.93 296.51 137.75 296.11 138.17 L 295.59 138.40 C 295.54 138.99 295.45 140.16 295.41 140.74 C 295.80 140.73 296.59 140.70 296.98 140.68 L 297.90 140.58 C 298.51 141.78 298.97 143.20 300.38 143.71 C 304.89 146.02 308.96 149.33 314.12 150.13 C 309.91 146.40 304.56 144.16 299.49 141.84 C 299.49 141.41 299.51 140.57 299.51 140.15 L 298.32 140.96 C 297.70 139.12 298.30 137.38 299.92 136.35 C 301.69 138.50 304.86 138.78 306.59 141.04 L 304.87 142.00 C 306.51 141.26 308.25 141.24 309.96 141.72 C 309.44 141.09 309.14 140.30 309.59 139.54 C 311.04 140.39 312.47 141.55 314.25 141.55 C 314.88 142.49 315.51 143.42 316.14 144.36 C 314.04 143.40 311.92 142.39 309.69 141.77 C 311.87 144.02 314.86 145.17 317.86 145.80 C 316.98 147.22 315.15 146.68 313.90 146.11 C 311.62 145.09 309.39 143.93 307.02 143.11 C 309.52 145.15 312.22 146.95 314.88 148.77 C 314.46 149.62 314.01 150.45 313.59 151.29 L 314.86 152.12 C 311.50 150.99 308.59 148.87 305.21 147.82 C 302.81 147.02 300.23 145.01 297.75 147.17 L 301.71 147.58 L 301.37 148.85 C 302.97 147.02 304.05 149.03 305.23 149.75 C 307.01 151.20 309.55 151.20 311.29 152.76 C 308.64 153.02 306.22 151.96 303.76 151.20 C 304.32 152.30 305.23 152.97 306.50 153.20 C 305.25 153.75 304.04 154.37 302.91 155.11 C 304.72 155.29 306.54 155.44 308.37 155.57 C 309.35 156.88 310.54 158.02 311.76 159.12 C 312.60 159.50 313.40 159.97 314.15 160.53 L 313.04 161.27 L 312.20 159.58 C 311.55 159.99 310.90 160.41 310.26 160.83 C 313.24 161.19 314.76 163.49 315.48 166.18 C 312.99 165.14 311.34 162.86 308.87 161.84 C 310.50 164.38 313.04 166.10 315.48 167.79 L 315.27 169.28 C 315.54 169.66 316.07 170.43 316.34 170.82 L 315.00 171.60 C 315.46 172.00 316.40 172.79 316.86 173.19 C 316.32 173.57 315.23 174.33 314.69 174.71 C 313.55 174.19 312.43 173.68 311.31 173.15 C 311.57 173.74 312.09 174.92 312.34 175.51 C 311.37 175.40 309.41 175.19 308.44 175.08 C 309.06 174.54 309.69 174.02 310.34 173.52 L 306.98 174.05 L 308.75 171.65 C 308.09 172.29 307.42 172.92 306.75 173.55 C 306.20 173.17 305.09 172.41 304.53 172.04 L 304.75 171.48 C 304.70 171.62 304.59 171.90 304.53 172.04 C 305.98 173.05 307.15 175.36 309.34 174.27 C 308.11 176.75 305.27 175.01 303.61 176.78 C 302.43 175.82 301.29 174.81 300.25 173.71 C 300.31 174.89 300.75 175.90 301.59 176.72 C 299.38 179.04 297.66 176.08 295.91 175.09 C 296.72 177.07 298.76 178.11 299.85 179.76 C 299.24 179.91 298.03 180.22 297.42 180.37 L 299.82 180.02 L 299.84 182.51 C 300.37 180.82 300.56 179.06 300.78 177.32 C 302.43 177.22 304.05 177.38 305.64 177.80 C 307.89 176.42 310.90 177.38 312.91 175.49 C 314.09 176.27 315.42 176.67 316.84 176.68 C 317.06 178.41 317.42 180.14 318.43 181.61 C 317.61 182.94 316.49 184.66 318.27 185.88 C 318.59 185.24 319.22 183.96 319.54 183.32 C 321.99 186.95 320.38 192.14 317.40 194.97 C 317.44 194.24 317.51 192.77 317.54 192.03 C 315.97 191.76 315.54 190.19 315.50 188.78 C 313.80 189.46 314.11 191.95 312.14 192.16 C 310.45 193.20 308.60 192.50 306.83 192.21 C 308.27 193.83 310.33 194.61 312.24 195.53 C 312.34 194.77 312.53 193.26 312.62 192.50 L 315.21 192.31 C 313.99 194.13 311.18 195.77 313.67 198.01 C 314.67 197.09 315.68 196.17 316.71 195.26 C 314.57 199.70 311.73 204.72 306.66 206.14 C 307.77 204.06 309.77 202.70 311.39 201.04 C 311.23 199.47 309.32 198.77 308.42 197.58 C 303.94 196.20 300.89 192.01 296.15 191.14 C 293.17 189.73 291.16 192.66 289.14 194.26 C 289.33 193.02 288.79 191.12 290.21 190.42 C 293.02 188.41 296.12 186.92 299.40 185.85 C 299.35 186.35 299.24 187.34 299.19 187.84 L 300.50 187.37 C 300.72 187.73 301.15 188.45 301.37 188.80 C 301.34 188.29 301.27 187.26 301.23 186.74 C 303.38 186.21 303.78 183.74 304.95 182.16 C 303.87 183.73 302.45 184.94 300.61 185.51 C 300.18 185.20 299.32 184.58 298.90 184.27 C 294.77 185.07 292.04 188.28 288.50 190.17 C 287.41 186.47 290.18 184.09 292.07 181.43 C 293.27 182.23 293.43 183.66 293.33 184.99 C 293.78 184.42 294.69 183.29 295.14 182.72 C 295.88 182.29 297.39 181.33 296.49 180.38 C 295.61 181.59 294.27 182.32 292.87 181.44 C 294.82 180.82 297.42 178.38 294.43 177.29 C 293.35 178.28 292.57 179.96 290.82 179.61 C 290.95 181.23 289.92 182.14 288.53 182.69 C 288.20 184.26 287.88 185.93 285.85 185.57 C 287.08 182.89 286.56 179.03 290.13 178.16 C 290.88 178.25 292.38 178.43 293.12 178.52 C 292.57 177.90 291.47 176.64 290.92 176.02 C 289.32 176.91 286.82 176.22 285.86 178.08 C 285.75 180.48 285.56 182.87 285.19 185.25 C 284.26 187.26 281.64 187.19 279.76 187.55 C 279.38 185.02 280.23 182.36 282.49 180.99 C 282.49 179.50 282.45 178.00 282.44 176.51 C 281.77 176.56 280.43 176.65 279.76 176.69 C 280.66 175.15 281.59 173.61 282.73 172.23 C 282.51 172.31 282.06 172.47 281.83 172.55 C 281.04 173.79 280.36 175.27 278.94 175.92 C 277.41 174.58 278.05 171.74 275.29 171.86 C 276.11 174.08 275.52 176.62 278.21 177.80 L 275.60 177.58 C 275.49 178.29 275.27 179.72 275.16 180.44 C 275.66 179.83 276.64 178.63 277.14 178.02 C 277.73 180.39 276.81 182.74 276.66 185.10 C 278.45 183.59 278.05 180.80 278.33 178.69 L 279.29 178.53 C 279.82 184.08 279.44 189.69 278.64 195.15 C 277.82 194.36 276.57 193.83 276.30 192.61 C 275.56 192.34 274.84 192.01 274.16 191.64 L 275.14 191.48 C 275.72 189.85 276.49 187.93 276.87 185.97 C 276.36 186.72 275.33 188.22 274.81 188.96 C 273.71 187.78 273.02 185.84 274.07 184.41 C 274.16 183.82 274.33 182.65 274.41 182.06 C 273.76 183.31 273.89 185.48 272.24 185.83 C 271.99 184.90 271.77 183.98 271.59 183.05 C 271.46 184.00 271.21 185.89 271.09 186.84 C 271.53 186.72 272.42 186.48 272.87 186.36 C 271.44 188.60 273.59 190.17 273.64 192.20 L 272.96 193.02 C 271.24 190.97 270.21 188.50 268.76 186.28 L 267.46 186.35 C 267.50 185.57 267.56 184.01 267.60 183.22 C 266.88 183.47 266.17 183.72 265.46 183.96 C 264.44 181.24 267.79 179.23 265.97 176.75 C 265.41 177.77 264.80 178.77 264.13 179.73 C 264.17 179.01 264.26 177.57 264.30 176.85 C 262.78 176.92 262.21 178.36 261.29 179.28 L 261.82 177.05 C 260.33 177.53 258.84 177.98 257.34 178.40 C 258.23 180.08 256.11 180.38 255.25 181.15 C 255.38 180.61 255.66 179.54 255.80 179.00 C 255.44 179.03 254.72 179.08 254.37 179.10 L 254.57 180.24 C 253.33 180.74 253.03 181.75 253.67 183.27 C 250.72 186.34 248.83 190.18 246.62 193.77 C 246.52 194.33 246.32 195.46 246.22 196.02 C 244.48 196.49 242.95 198.10 241.04 197.51 C 242.27 195.04 247.05 193.25 244.95 189.92 L 246.64 190.75 C 245.09 187.91 249.22 186.45 250.09 184.03 C 247.67 185.56 246.18 188.11 244.54 190.39 L 244.69 191.63 C 242.71 191.10 241.99 193.50 240.70 194.45 C 240.60 193.78 240.40 192.43 240.30 191.76 L 241.75 191.80 L 241.46 190.42 L 242.41 190.55 C 245.01 184.94 250.46 181.90 254.28 177.29 C 255.58 177.57 256.89 177.81 258.21 178.00 C 258.16 177.28 258.07 175.85 258.02 175.14 L 257.45 174.63 C 256.92 172.57 257.58 170.38 257.75 168.30 C 258.60 169.12 259.36 170.02 260.04 171.00 C 258.01 171.22 257.72 171.94 259.18 173.15 L 259.48 173.71 C 260.34 173.22 260.60 172.36 260.27 171.14 C 262.64 172.68 263.16 168.20 265.14 167.94 C 264.88 169.08 264.36 171.34 264.11 172.47 L 265.35 172.56 C 265.47 170.91 265.48 169.27 265.42 167.63 C 266.10 165.98 267.39 164.65 268.14 163.03 C 267.54 163.53 266.34 164.54 265.74 165.04 C 264.50 162.96 263.67 160.45 261.50 159.12 C 260.83 160.58 260.26 162.07 259.80 163.60 L 261.34 163.86 L 262.07 160.69 C 264.00 162.65 263.58 165.37 261.43 167.03 L 260.50 166.45 C 260.50 165.87 260.50 164.70 260.49 164.12 C 260.06 164.40 259.19 164.96 258.75 165.24 C 258.31 161.12 258.92 156.99 258.63 152.87 C 255.47 154.46 257.90 158.87 257.54 161.65 L 256.41 161.52 C 256.42 163.31 256.54 165.10 256.62 166.88 C 255.49 167.50 255.20 168.77 254.69 169.84 C 257.60 173.13 251.49 174.28 250.89 176.96 L 253.00 176.62 C 251.86 178.85 249.74 180.30 247.96 181.96 C 245.33 183.97 243.80 187.01 242.02 189.72 C 241.54 189.09 241.08 188.45 240.63 187.81 C 240.31 188.24 239.68 189.10 239.37 189.53 L 239.63 190.01 C 236.32 190.16 235.65 194.26 233.40 196.08 C 233.12 195.90 232.55 195.54 232.27 195.37 C 236.44 190.46 241.17 185.92 244.03 180.05 C 245.45 177.15 248.09 174.72 248.59 171.46 L 249.55 171.55 C 249.65 169.09 250.31 166.65 250.05 164.18 L 248.39 164.70 C 248.26 163.88 247.99 162.25 247.86 161.43 C 247.78 162.26 247.62 163.92 247.54 164.75 L 246.37 164.27 C 246.92 165.58 246.96 167.41 248.71 167.62 C 248.32 168.72 247.94 169.83 247.56 170.94 L 247.28 170.81 C 247.33 170.17 247.43 168.88 247.48 168.24 C 244.67 168.04 245.65 164.33 243.25 163.75 C 243.93 165.53 244.49 167.61 243.12 169.24 L 242.42 166.50 L 241.57 165.66 C 242.85 168.01 242.39 169.77 240.21 170.95 C 240.34 170.02 240.61 168.16 240.75 167.23 C 240.34 167.34 239.51 167.55 239.10 167.65 C 238.81 166.58 238.28 165.67 237.51 164.90 C 238.07 165.95 238.43 167.05 238.61 168.22 C 237.79 168.38 236.16 168.71 235.35 168.88 C 235.43 167.48 235.49 166.08 235.55 164.68 C 233.74 162.89 232.16 160.73 232.01 158.10 C 231.92 158.84 231.83 159.58 231.74 160.32 C 232.56 161.76 233.46 163.15 234.61 164.36 C 234.23 164.67 233.47 165.28 233.09 165.59 L 234.78 165.27 C 234.70 166.07 234.53 167.68 234.45 168.49 L 232.99 168.34 C 233.37 168.88 234.12 169.98 234.50 170.53 C 231.96 169.60 231.47 172.30 229.48 172.77 C 229.45 172.03 229.39 170.56 229.36 169.83 C 227.90 171.57 228.74 173.00 230.55 173.88 C 228.96 176.72 228.53 180.95 225.07 182.17 C 226.16 180.34 227.39 178.59 228.39 176.70 C 226.41 177.40 225.36 180.03 223.46 180.60 C 223.44 180.19 223.39 179.37 223.37 178.96 C 222.41 179.49 220.48 180.56 219.52 181.10 C 219.81 183.42 219.44 185.72 218.92 187.98 L 218.22 187.80 C 218.33 185.46 218.24 183.11 218.35 180.78 C 220.42 180.73 221.20 178.54 220.16 176.94 C 221.61 176.67 223.07 176.60 224.56 176.75 C 223.81 176.14 223.05 175.53 222.30 174.94 C 223.95 174.88 224.86 173.91 225.04 172.02 C 223.48 173.46 221.87 174.84 220.16 176.09 L 220.41 173.32 L 221.86 173.55 C 221.46 172.11 220.68 170.38 218.80 172.01 L 219.65 173.47 L 217.05 173.59 C 217.60 172.12 218.61 171.14 220.06 170.66 L 219.18 169.04 C 219.89 169.14 221.29 169.34 222.00 169.44 C 220.35 167.52 219.53 164.81 217.67 163.24 C 217.89 161.30 216.20 159.10 217.64 157.38 C 217.65 156.96 217.69 156.10 217.71 155.68 C 216.02 155.62 215.19 154.60 215.23 152.63 C 216.20 152.30 217.12 151.87 217.99 151.33 C 217.28 151.48 215.86 151.78 215.15 151.93 C 214.72 148.30 217.17 145.61 217.88 142.30 C 220.81 136.85 224.59 131.90 227.78 126.58 C 227.33 126.51 226.42 126.35 225.96 126.28 L 225.53 125.29 L 225.47 125.26 C 226.02 127.26 224.43 128.84 223.59 130.48 C 219.81 135.93 217.65 142.26 214.87 148.23 C 214.36 147.24 213.86 146.25 213.32 145.29 C 213.37 147.50 214.94 149.26 215.04 151.49 C 214.36 151.47 212.99 151.44 212.31 151.42 C 212.34 151.65 212.39 152.12 212.42 152.35 L 213.88 152.25 C 213.58 153.12 213.00 154.88 212.71 155.75 C 214.35 160.40 215.00 165.75 218.39 169.53 C 217.34 171.84 215.21 173.46 213.17 174.86 C 213.22 172.74 215.05 171.35 216.01 169.63 C 215.04 169.86 213.10 170.33 212.13 170.56 C 212.39 168.65 211.89 166.67 212.62 164.83 C 213.20 165.60 214.34 167.15 214.92 167.93 C 214.32 166.66 213.86 165.07 212.44 164.49 L 212.50 163.52 L 211.42 163.61 C 210.36 162.51 209.16 159.58 207.42 162.51 C 207.37 161.88 207.25 160.64 207.20 160.02 L 205.37 159.11 C 206.31 162.00 207.77 164.69 208.60 167.62 C 209.26 166.94 210.02 166.44 210.87 166.12 C 211.16 166.75 211.75 168.02 212.05 168.65 C 211.11 168.53 209.22 168.28 208.27 168.16 L 208.44 169.43 L 207.13 169.55 C 207.94 171.48 208.75 173.42 209.63 175.32 C 210.71 176.69 210.08 179.84 212.45 179.68 C 212.84 180.88 213.22 182.07 213.58 183.28 C 212.89 183.86 212.37 184.58 212.04 185.43 L 213.45 185.47 C 214.49 187.51 215.35 192.47 211.65 191.55 C 211.56 188.81 211.21 186.07 211.55 183.33 L 210.44 183.61 C 210.45 182.96 210.45 181.67 210.45 181.03 C 209.84 179.75 209.78 178.18 208.75 177.15 C 208.49 176.64 207.97 175.64 207.71 175.14 C 207.17 173.21 206.38 171.35 205.40 169.61 C 205.36 170.61 205.27 172.61 205.23 173.61 C 203.86 172.42 205.01 170.29 203.60 169.17 C 203.69 168.73 203.87 167.85 203.96 167.42 C 203.41 167.48 202.32 167.60 201.78 167.66 C 201.70 165.07 201.77 162.48 201.57 159.89 C 201.34 163.12 200.06 167.58 203.43 169.60 C 202.95 169.51 202.00 169.34 201.52 169.25 C 202.02 171.17 198.36 171.55 198.60 169.33 L 197.21 169.02 C 197.38 169.97 197.72 171.88 197.88 172.83 C 197.21 171.70 196.30 171.32 195.17 171.68 C 195.37 170.80 195.77 169.05 195.97 168.17 L 194.33 168.43 C 194.60 167.17 195.13 164.65 195.40 163.39 C 194.57 164.52 192.91 166.80 192.08 167.94 C 192.43 166.97 193.15 165.05 193.50 164.08 C 192.74 164.64 191.20 165.75 190.43 166.31 C 190.19 164.46 188.80 162.84 189.85 160.90 C 188.94 161.59 187.13 162.95 186.23 163.64 C 186.98 162.31 187.77 161.01 188.60 159.73 L 186.72 159.86 C 186.63 159.41 186.45 158.50 186.36 158.05 C 185.99 158.96 185.64 159.87 185.30 160.80 C 182.46 161.13 183.46 158.02 184.73 157.05 C 183.73 156.05 184.28 153.22 185.97 154.22 C 186.15 154.92 186.51 156.33 186.69 157.03 C 187.15 156.32 187.63 155.62 188.11 154.92 C 187.16 152.90 190.20 151.47 190.86 149.66 L 188.26 152.69 L 188.31 148.75 C 187.09 151.20 184.73 152.78 182.90 154.73 L 182.87 152.29 L 181.79 152.40 C 181.92 154.08 179.28 154.58 180.78 152.69 C 178.89 150.48 186.10 147.18 179.97 148.51 L 180.79 147.01 C 179.16 146.79 177.90 147.73 176.61 148.48 C 177.10 147.49 177.55 146.49 177.91 145.44 C 179.71 144.04 178.09 141.93 179.23 140.19 C 178.01 140.67 176.75 140.85 175.45 140.73 C 174.40 140.92 172.31 141.29 171.26 141.47 C 172.35 139.80 173.40 138.09 174.42 136.37 C 175.42 139.33 178.41 135.71 175.87 134.04 L 177.75 134.79 L 177.21 133.19 L 178.24 133.47 C 179.38 130.91 182.17 130.94 183.84 132.95 C 183.38 133.41 182.47 134.33 182.02 134.79 C 183.36 134.02 184.59 132.95 184.74 131.28 L 187.05 131.29 L 183.86 134.91 L 186.26 134.13 L 185.93 133.32 C 187.33 132.65 188.14 131.27 189.21 130.22 C 191.10 127.96 194.14 127.17 196.07 124.93 C 195.43 126.44 194.81 127.96 194.19 129.49 C 197.43 126.29 201.68 124.00 204.02 120.00 C 204.47 119.71 205.38 119.13 205.83 118.85 C 204.80 121.88 203.87 125.77 200.41 126.83 C 199.81 128.82 201.35 129.77 203.26 129.69 C 201.86 131.40 199.95 132.57 198.28 133.97 C 198.14 133.26 197.87 131.84 197.74 131.14 L 197.58 133.92 L 195.69 133.51 C 196.37 133.99 197.05 134.47 197.73 134.96 C 196.05 135.57 193.46 136.32 193.34 138.54 C 192.51 138.10 191.68 137.66 190.85 137.24 C 191.35 136.66 192.34 135.50 192.84 134.92 C 191.32 135.51 191.10 138.07 189.18 137.59 C 189.09 137.89 188.91 138.48 188.82 138.77 L 189.47 137.69 C 190.43 138.05 191.39 138.42 192.36 138.80 C 192.04 142.31 189.05 141.28 186.97 142.00 C 187.26 142.27 187.83 142.80 188.11 143.07 L 188.09 142.03 C 189.06 142.26 190.04 142.48 191.03 142.68 C 191.25 140.41 193.55 139.41 195.00 137.99 C 198.69 134.69 203.35 131.95 204.83 126.89 C 204.51 126.82 203.88 126.67 203.56 126.60 L 203.31 125.30 C 206.30 122.59 210.49 120.59 212.22 116.87 C 210.00 118.12 208.09 119.83 205.96 121.22 C 208.06 118.25 210.87 115.91 212.74 112.73 L 214.61 112.49 C 213.33 111.20 211.68 110.16 211.00 108.40 C 211.69 108.49 213.07 108.66 213.76 108.74 L 213.40 107.53 C 214.72 107.77 215.85 107.52 216.79 106.76 C 217.74 106.46 218.69 106.15 219.64 105.83 L 217.97 104.78 C 217.81 104.35 217.48 103.51 217.32 103.08 C 216.80 103.20 215.76 103.44 215.23 103.56 C 215.20 103.27 215.14 102.68 215.10 102.39 L 216.90 102.77 C 216.67 102.13 216.22 100.84 215.99 100.20 L 217.59 100.58 C 217.51 100.06 217.33 99.03 217.24 98.51 C 220.24 98.25 223.59 97.63 226.03 99.85 C 223.69 100.42 221.56 101.40 219.64 102.80 C 222.78 101.76 226.17 101.46 229.01 103.41 C 229.27 102.81 229.80 101.60 230.06 100.99 L 231.89 101.64 C 231.65 101.24 231.17 100.43 230.93 100.02 L 229.30 100.60 L 228.42 100.44 C 229.28 99.06 230.55 98.75 232.25 99.53 C 233.29 98.61 234.31 97.67 235.31 96.70 C 237.23 98.71 238.55 101.30 240.76 103.01 C 239.53 100.84 237.79 99.02 236.11 97.20 C 236.75 95.16 238.57 94.24 240.60 94.55 L 240.34 93.33 C 242.99 90.97 243.36 95.83 245.80 95.96 C 245.05 94.49 244.17 93.09 243.08 91.85 C 244.57 91.12 245.93 90.24 245.27 88.37 C 245.58 88.60 246.20 89.06 246.51 89.29 C 248.33 92.03 249.51 97.85 253.93 96.23 L 253.11 97.81 C 253.44 97.82 254.08 97.82 254.40 97.83 C 254.40 96.74 254.41 95.66 254.41 94.58 L 256.00 94.45 C 255.62 93.91 254.87 92.82 254.50 92.28 C 253.26 89.26 252.27 94.04 250.31 93.62 C 249.44 91.79 248.51 89.98 247.56 88.20 C 247.84 87.56 248.13 86.92 248.41 86.28 C 248.83 87.47 249.47 88.56 250.22 89.58 C 250.26 89.88 250.34 90.46 250.38 90.75 C 251.50 90.59 252.60 90.36 253.71 90.12 L 251.37 89.38 C 251.41 88.42 251.51 86.49 251.55 85.53 C 254.86 87.20 254.47 91.55 257.07 93.85 C 256.86 95.98 255.05 98.80 257.97 100.12 L 254.72 99.43 C 255.04 100.91 256.44 100.67 257.59 100.48 C 260.00 98.49 259.32 92.98 263.39 93.66 C 262.71 94.40 261.35 95.89 260.67 96.63 L 262.55 96.45 C 262.57 96.98 262.59 98.04 262.61 98.58 L 261.37 98.30 L 261.58 99.60 L 260.37 99.39 C 260.38 99.99 260.40 101.17 260.41 101.77 C 260.94 101.62 262.01 101.31 262.54 101.16 C 262.59 101.81 262.68 103.12 262.72 103.77 C 262.94 102.94 263.38 101.29 263.60 100.46 L 265.80 100.17 C 265.74 100.60 265.64 101.47 265.59 101.91 C 266.51 101.09 267.43 100.26 268.28 99.37 L 270.73 101.07 L 268.78 97.87 L 271.95 99.66 C 267.52 96.90 271.57 96.24 273.48 96.29 C 273.51 97.06 273.57 98.58 273.60 99.35 L 274.92 97.65 L 276.92 97.49 C 275.23 98.99 273.50 100.46 272.12 102.27 L 274.66 102.70 L 274.54 101.47 C 275.77 101.40 276.99 101.33 278.22 101.28 C 277.41 102.62 275.90 103.16 274.61 103.88 C 274.50 104.40 274.29 105.45 274.18 105.98 C 275.45 104.24 277.26 103.19 279.43 103.08 C 278.65 103.99 277.83 104.88 277.01 105.76 C 277.53 105.75 278.59 105.72 279.11 105.71 C 279.02 107.38 277.26 107.51 276.17 108.22 C 274.70 108.40 273.42 109.02 273.04 110.55 C 273.55 110.48 274.58 110.34 275.09 110.27 C 275.68 110.05 276.86 109.60 277.44 109.38 L 277.64 108.37 C 278.08 108.44 278.97 108.58 279.42 108.66 L 279.52 107.68 C 280.42 107.01 281.41 106.61 282.50 106.49 C 282.54 104.68 283.70 103.26 284.68 101.85 C 286.76 101.97 287.09 99.33 288.19 98.04 C 287.22 97.32 286.65 96.39 286.47 95.24 L 284.97 95.75 C 285.23 94.81 285.75 92.94 286.01 92.00 L 287.50 92.76 C 287.51 91.21 287.84 89.61 287.23 88.13 C 287.81 87.93 288.97 87.52 289.55 87.31 L 289.47 88.33 C 289.83 88.47 290.55 88.77 290.92 88.92 C 291.79 89.46 292.75 89.82 293.79 89.99 L 293.78 89.43 C 293.35 89.29 292.50 89.00 292.08 88.86 C 291.92 88.54 291.59 87.89 291.43 87.56 C 289.71 86.67 287.81 86.21 285.87 86.23 C 286.30 84.06 289.12 85.15 290.64 84.50 C 292.96 84.42 294.66 82.83 296.40 81.53 M 299.17 102.18 C 299.74 102.81 299.74 102.81 299.17 102.18 M 297.21 103.55 C 297.03 104.74 298.04 106.17 299.18 106.55 C 299.27 106.08 299.44 105.13 299.52 104.66 C 298.93 103.79 298.16 103.42 297.21 103.55 M 224.35 105.58 C 224.57 106.76 224.80 107.94 225.22 109.06 C 224.33 108.82 223.44 108.59 222.55 108.37 C 221.96 108.73 220.79 109.46 220.21 109.82 L 220.95 111.65 C 221.47 110.97 222.49 109.59 223.01 108.91 C 223.33 109.49 223.98 110.67 224.31 111.25 C 223.28 112.14 221.71 112.70 221.42 114.18 C 221.73 115.08 222.30 115.85 222.74 116.69 L 224.18 114.93 C 226.34 116.92 222.55 117.74 223.80 119.81 C 221.79 118.33 221.06 121.71 221.68 122.85 L 220.50 122.43 C 220.34 122.75 220.03 123.39 219.88 123.71 C 219.01 126.88 214.90 127.41 214.13 130.55 C 215.48 129.77 217.06 129.61 218.46 128.95 C 217.41 126.42 220.23 125.38 220.79 123.31 C 222.17 122.81 223.62 122.55 225.05 122.23 L 224.31 124.12 C 224.78 123.79 225.70 123.12 226.17 122.78 L 224.69 120.83 L 226.79 122.04 C 227.42 121.17 228.06 120.31 228.72 119.46 C 228.60 120.53 228.35 122.66 228.23 123.72 C 230.75 123.68 233.05 123.38 235.21 121.78 C 234.27 123.43 232.58 124.80 232.63 126.86 L 231.58 126.22 C 232.49 128.06 229.82 129.27 230.90 131.13 C 230.02 131.76 228.27 133.01 227.39 133.63 C 227.64 132.70 228.15 130.82 228.40 129.89 C 226.10 130.26 225.60 132.59 227.43 134.00 C 227.44 135.26 227.44 136.52 227.47 137.79 C 228.46 137.47 229.45 137.12 230.25 136.44 L 228.07 136.85 C 228.09 133.78 231.41 132.95 233.08 130.93 C 233.23 131.58 233.52 132.89 233.67 133.55 L 231.77 133.37 C 232.14 135.56 235.14 134.67 234.69 132.60 C 235.19 132.61 236.19 132.63 236.69 132.64 C 236.37 131.88 235.72 130.35 235.40 129.59 C 235.10 129.49 234.51 129.30 234.21 129.21 C 234.80 127.43 234.73 125.57 234.82 123.72 C 235.46 124.12 236.74 124.90 237.38 125.29 C 236.55 126.48 235.72 127.66 234.89 128.84 C 236.63 129.09 238.04 128.54 239.11 127.18 C 238.41 128.92 237.07 130.40 236.84 132.31 C 238.00 134.20 238.24 129.93 239.73 130.48 C 241.64 131.38 241.57 128.83 242.25 127.70 C 240.16 126.61 237.25 125.44 236.91 122.80 C 237.58 122.41 238.93 121.63 239.61 121.24 C 238.37 124.93 242.36 126.74 245.18 127.70 C 244.53 127.82 243.24 128.08 242.59 128.21 C 242.72 129.28 242.41 130.16 241.67 130.86 C 240.78 133.53 240.36 136.68 237.56 138.11 C 238.01 138.47 238.47 138.83 238.92 139.18 C 239.61 137.62 240.62 135.16 242.64 135.13 C 242.32 136.16 241.96 137.18 241.55 138.18 C 243.47 138.04 244.68 136.95 245.20 134.92 C 245.07 135.76 244.81 137.44 244.69 138.28 C 245.96 137.64 247.19 136.90 248.54 136.44 C 249.48 134.49 250.03 132.27 251.62 130.71 C 252.50 129.08 249.93 129.48 249.16 129.18 C 249.42 129.86 249.95 131.22 250.22 131.90 L 248.32 131.15 C 248.71 132.81 248.60 134.44 247.98 136.04 C 247.64 135.43 246.96 134.21 246.61 133.60 L 245.79 135.96 C 245.43 134.98 245.17 133.97 245.00 132.94 C 244.22 133.81 243.30 134.19 242.24 134.07 C 242.42 132.85 243.17 132.31 244.46 132.47 C 244.16 130.73 244.50 129.11 246.62 129.41 C 246.65 128.44 246.73 126.50 246.77 125.53 C 247.41 126.14 247.98 126.81 248.51 127.53 C 250.26 126.83 251.99 126.07 253.63 125.13 C 253.41 126.99 253.21 128.87 253.04 130.74 L 253.62 130.75 C 253.80 129.09 253.96 127.41 254.30 125.77 C 255.79 125.07 257.53 126.04 259.10 125.88 C 257.51 122.45 253.90 120.93 251.70 118.01 C 250.61 116.54 248.27 117.08 246.92 117.86 C 247.66 118.01 249.16 118.32 249.90 118.47 C 249.87 118.78 249.79 119.39 249.75 119.70 C 248.68 119.22 247.63 118.75 246.55 118.34 L 246.46 117.32 C 242.61 117.77 238.66 118.98 235.93 121.87 C 235.77 118.15 232.85 121.56 231.21 122.03 C 231.49 120.68 231.53 119.32 231.32 117.95 C 232.94 117.37 233.45 115.11 235.38 115.33 L 235.54 114.42 C 237.05 114.49 238.55 114.54 240.07 114.56 C 239.36 113.63 238.37 113.32 237.11 113.62 C 237.21 113.13 237.43 112.16 237.54 111.68 C 238.16 111.61 239.41 111.47 240.04 111.40 C 241.97 112.88 244.25 111.40 246.43 111.64 L 246.27 112.80 L 248.41 112.58 L 248.33 110.96 C 249.00 112.35 251.57 112.06 251.41 113.55 C 252.74 114.00 254.11 114.38 255.52 114.58 C 251.68 110.61 256.76 111.38 258.75 111.41 C 260.67 112.95 258.76 115.47 256.47 115.01 C 257.05 115.69 257.63 116.38 258.20 117.08 C 259.27 117.00 260.30 116.74 261.29 116.29 C 263.10 116.73 264.85 118.28 266.72 117.18 L 266.71 119.48 C 267.14 118.70 267.99 117.13 268.42 116.35 C 269.71 117.34 271.68 117.86 271.80 119.80 C 272.45 119.41 273.75 118.61 274.40 118.21 L 274.81 116.31 C 273.92 116.44 272.15 116.70 271.26 116.84 C 271.35 116.25 271.53 115.07 271.62 114.48 C 269.56 114.52 267.62 113.83 265.68 113.28 C 266.61 111.60 268.67 111.28 270.08 110.14 C 268.20 110.60 266.52 111.59 264.77 112.38 C 261.63 109.75 257.44 109.58 254.21 107.12 L 255.02 108.86 C 253.62 108.51 252.22 108.26 250.79 108.11 C 250.55 108.54 250.06 109.41 249.81 109.84 L 249.53 108.06 C 246.92 109.44 244.03 109.80 241.16 110.17 C 240.30 109.83 239.43 109.50 238.58 109.17 C 237.79 110.43 236.23 110.41 234.98 110.79 C 233.27 111.38 231.70 108.95 230.09 110.06 C 230.65 110.23 231.76 110.59 232.31 110.76 L 232.84 111.56 C 231.36 113.19 230.26 115.71 227.42 114.86 C 228.17 115.85 228.90 116.85 229.61 117.88 C 229.10 118.14 228.09 118.66 227.58 118.93 L 226.86 120.39 C 226.18 119.76 225.52 119.11 224.87 118.46 L 226.54 118.65 C 227.10 116.33 227.09 113.90 224.92 112.41 C 225.91 112.51 227.87 112.71 228.86 112.81 C 228.69 112.18 228.37 110.90 228.21 110.27 C 226.99 110.49 225.76 110.73 224.56 110.97 L 224.34 109.52 C 224.92 109.52 226.08 109.52 226.67 109.52 C 227.11 108.02 226.53 107.24 224.92 107.18 C 225.99 106.23 227.12 105.31 228.00 104.15 C 226.77 104.60 225.57 105.12 224.35 105.58 M 292.28 106.56 L 296.11 108.04 C 294.64 109.20 292.95 109.85 291.07 109.52 L 291.57 110.46 L 291.19 111.62 C 291.87 111.62 293.22 111.62 293.90 111.61 C 293.46 111.18 292.57 110.30 292.12 109.86 C 295.12 110.02 297.37 112.10 299.26 114.20 C 299.41 113.46 299.72 111.97 299.87 111.22 C 299.35 111.29 298.31 111.43 297.79 111.50 C 297.11 111.10 295.73 110.30 295.05 109.90 C 295.46 109.61 296.28 109.02 296.69 108.73 C 295.90 107.18 294.65 105.13 292.28 106.56 M 245.00 132.94 C 246.28 133.13 247.74 131.40 247.41 130.15 C 245.96 129.22 244.46 131.66 245.00 132.94 M 239.47 132.23 C 239.77 132.58 239.77 132.58 239.47 132.23 M 250.59 136.24 C 251.87 135.54 252.63 133.97 253.43 132.77 C 252.06 131.12 250.08 134.90 250.59 136.24 M 236.68 134.41 L 236.28 134.71 C 235.65 135.01 234.39 135.63 233.76 135.93 L 233.56 137.42 L 236.58 135.44 C 235.55 137.36 233.56 138.77 233.02 140.95 C 235.84 138.97 237.91 136.14 240.02 133.46 C 238.82 133.51 237.71 133.82 236.68 134.41 M 274.26 138.83 C 277.78 139.93 278.32 144.36 282.17 144.92 C 282.55 143.92 282.96 142.92 283.39 141.94 L 281.40 142.71 L 281.53 141.64 C 279.64 140.61 276.57 140.10 276.07 137.75 C 275.46 138.11 274.86 138.47 274.26 138.83 M 236.72 139.27 C 235.92 140.50 234.99 141.64 233.96 142.69 C 235.82 142.10 238.15 143.61 239.67 141.94 L 238.94 141.53 L 238.25 141.60 C 236.72 142.48 237.02 140.08 236.72 139.27 M 258.47 144.17 C 258.74 145.67 259.36 147.05 259.86 148.48 C 259.41 148.59 258.49 148.81 258.03 148.92 L 258.21 149.39 C 258.64 149.44 259.49 149.55 259.92 149.60 L 259.49 151.61 C 260.01 151.55 261.06 151.44 261.58 151.39 C 261.24 150.08 260.88 148.78 260.51 147.49 C 259.48 146.59 259.46 145.08 258.47 144.17 M 265.14 146.99 C 266.02 149.04 267.59 150.65 269.35 151.96 C 270.10 151.95 270.61 151.60 270.87 150.91 C 268.08 150.89 267.74 147.31 265.14 146.99 M 302.61 149.24 C 302.97 149.81 302.97 149.81 302.61 149.24 M 261.23 154.17 C 261.77 154.83 261.77 154.83 261.23 154.17 M 296.05 154.03 C 298.83 157.03 300.36 160.99 303.79 163.44 L 303.42 161.08 C 305.38 161.47 306.82 162.79 308.21 164.13 C 307.93 162.98 306.21 161.42 307.99 160.47 L 307.40 159.35 C 308.06 159.17 309.38 158.81 310.04 158.63 C 309.69 155.51 306.44 156.29 306.32 158.84 C 304.57 158.28 302.84 157.68 301.12 157.06 L 301.56 159.11 C 300.65 158.53 300.30 157.69 300.52 156.57 C 298.97 155.83 297.52 154.87 296.05 154.03 M 241.43 158.24 C 241.52 159.97 241.33 161.99 242.88 163.18 C 242.74 161.54 242.51 159.92 242.33 158.28 C 242.10 158.27 241.66 158.25 241.43 158.24 M 249.87 169.74 L 250.60 171.99 L 251.73 172.86 L 250.14 174.82 C 252.75 174.51 254.31 171.54 254.51 169.19 C 253.02 170.73 251.47 170.92 249.87 169.74 M 225.51 174.84 C 226.09 176.14 228.38 175.25 228.10 173.95 C 227.33 173.16 224.93 173.29 225.51 174.84 M 262.12 176.73 C 262.15 176.02 262.20 174.59 262.23 173.88 C 260.92 173.72 260.68 177.15 262.12 176.73 M 284.75 174.44 C 284.05 176.23 283.29 178.00 282.68 179.83 C 285.25 179.58 284.61 176.13 285.70 174.34 C 285.46 174.37 284.99 174.41 284.75 174.44 M 303.05 187.44 C 303.60 187.55 304.72 187.78 305.28 187.90 C 304.76 188.82 304.28 189.76 303.84 190.73 C 304.99 190.09 306.15 189.43 307.46 189.15 C 307.32 187.57 308.19 186.69 309.73 186.37 L 309.52 184.08 C 306.96 184.36 304.80 185.60 303.05 187.44 Z" />
<path fill="#ffffff" opacity="1.00" d=" M 221.66 88.21 C 221.81 86.54 219.83 83.32 222.52 82.98 C 222.50 83.58 222.48 84.77 222.46 85.37 L 223.74 85.45 C 223.99 88.80 222.13 92.03 219.42 93.87 C 219.94 91.94 219.95 89.52 221.66 88.21 Z" />
<path fill="#ffffff" opacity="1.00" d=" M 261.63 91.10 C 261.86 88.92 259.91 85.38 263.18 84.82 C 263.23 85.48 263.35 86.81 263.40 87.48 L 264.50 87.51 C 264.33 88.94 264.12 90.36 263.85 91.77 C 263.29 91.61 262.18 91.27 261.63 91.10 Z" />
<path fill="#ffffff" opacity="1.00" d=" M 274.83 85.14 L 276.05 85.21 C 274.12 87.76 273.02 91.73 269.40 92.23 C 269.94 90.52 270.69 88.90 271.54 87.33 L 272.62 87.60 L 272.63 86.47 C 273.15 86.46 274.20 86.46 274.73 86.46 L 274.83 85.14 Z" />
<path fill="#ffffff" opacity="1.00" d=" M 260.20 88.92 C 263.39 89.39 258.69 91.93 260.20 88.92 Z" />
<path fill="#ffffff" opacity="1.00" d=" M 188.34 93.16 C 191.01 96.50 194.39 99.16 197.35 102.23 C 197.69 102.00 198.38 101.53 198.73 101.30 C 199.74 102.27 200.75 103.26 201.79 104.22 C 203.48 105.59 200.90 105.36 199.93 105.69 L 199.23 105.58 C 198.96 105.49 198.42 105.30 198.15 105.20 C 197.93 105.60 197.50 106.41 197.28 106.81 C 196.48 105.73 195.48 105.36 194.26 105.70 C 192.85 103.51 190.40 102.13 189.55 99.58 C 188.54 97.59 188.51 95.33 188.34 93.16 M 189.88 97.29 C 189.35 98.34 190.84 100.00 191.98 99.64 C 192.86 98.50 191.03 96.95 189.88 97.29 M 194.05 102.08 C 194.52 102.58 195.46 103.58 195.93 104.08 C 196.77 104.16 197.13 103.77 196.98 102.93 C 195.75 101.98 194.92 100.61 193.65 99.73 C 193.03 100.44 193.16 101.22 194.05 102.08 Z" />
<path fill="#ffffff" opacity="1.00" d=" M 264.25 99.64 C 263.85 96.02 268.20 95.94 269.76 93.30 C 270.08 96.01 267.56 97.82 265.99 99.66 L 264.25 99.64 Z" />
<path fill="#ffffff" opacity="1.00" d=" M 204.39 96.75 C 203.45 95.61 203.05 94.28 204.74 93.57 C 205.35 94.56 206.00 95.53 206.68 96.48 C 204.83 98.67 209.41 99.81 207.53 101.73 C 205.52 101.06 203.94 98.93 204.39 96.75 Z" />
<path fill="#ffffff" opacity="1.00" d=" M 275.21 96.31 C 275.00 94.88 275.53 94.24 276.81 94.39 C 277.03 95.86 276.50 96.51 275.21 96.31 Z" />
<path fill="#ffffff" opacity="1.00" d=" M 305.14 94.92 C 306.94 94.35 309.57 94.97 311.11 95.94 C 309.87 97.22 306.06 96.26 305.14 94.92 Z" />
<path fill="#ffffff" opacity="1.00" d=" M 297.80 97.01 C 298.70 94.76 301.72 96.64 303.55 96.62 L 303.42 97.46 C 304.56 97.34 306.84 97.10 307.98 96.98 C 306.43 99.13 302.58 97.31 302.11 100.16 C 301.10 98.62 299.70 97.30 297.80 97.01 Z" />
<path fill="#ffffff" opacity="1.00" d=" M 210.32 97.39 C 211.61 97.05 213.94 99.38 213.05 100.68 C 211.43 100.91 210.20 98.82 210.32 97.39 Z" />
<path fill="#ffffff" opacity="1.00" d=" M 257.32 97.54 L 257.95 97.57 L 257.93 98.20 L 257.29 98.18 L 257.32 97.54 Z" />
<path fill="#ffffff" opacity="1.00" d=" M 307.94 99.02 C 308.00 96.93 312.19 97.47 313.59 98.12 C 312.63 99.65 309.61 98.98 307.94 99.02 Z" />
<path fill="#ffffff" opacity="1.00" d=" M 303.67 99.19 L 304.32 99.17 L 304.33 99.82 L 303.69 99.83 L 303.67 99.19 Z" />
<path fill="#ffffff" opacity="1.00" d=" M 228.42 100.44 C 227.92 100.81 227.92 100.81 228.42 100.44 Z" />
<path fill="#ffffff" opacity="1.00" d=" M 208.52 103.27 C 208.48 103.65 208.39 104.41 208.35 104.79 C 209.66 104.85 210.68 104.35 211.40 103.30 C 211.32 104.27 211.25 105.23 211.18 106.20 C 209.56 108.23 208.22 110.48 206.63 112.53 C 206.02 112.53 204.79 112.53 204.18 112.53 C 205.45 116.26 203.04 119.57 200.90 122.33 L 201.63 118.18 L 199.88 118.96 C 201.20 116.74 201.82 114.25 202.69 111.85 C 203.53 110.46 202.09 108.63 203.55 107.46 C 203.05 109.59 204.92 110.69 206.24 111.81 C 206.32 109.45 206.70 107.11 208.26 105.25 L 206.10 105.43 C 206.91 104.71 207.71 104.00 208.52 103.27 Z" />
<path fill="#ffffff" opacity="1.00" d=" M 187.12 108.27 C 188.34 108.27 189.56 108.26 190.78 108.25 L 190.43 109.72 C 191.63 109.58 192.73 109.18 193.73 108.50 L 193.59 109.56 C 194.46 109.51 196.20 109.42 197.06 109.37 C 195.34 110.50 193.31 110.99 191.40 111.67 L 191.70 113.02 C 191.10 112.79 189.90 112.32 189.30 112.09 L 189.64 113.92 C 189.06 113.71 187.88 113.29 187.30 113.08 L 187.93 116.14 C 187.29 115.55 186.01 114.38 185.36 113.79 L 185.94 116.87 C 185.11 114.81 183.41 115.94 182.02 116.06 C 182.77 116.77 185.81 118.41 183.01 119.08 C 182.58 119.24 181.71 119.55 181.27 119.70 C 181.27 119.99 181.27 120.57 181.28 120.86 C 181.73 120.74 182.65 120.50 183.11 120.38 C 183.54 118.45 185.26 118.12 186.97 118.39 C 187.65 121.33 184.21 120.37 182.80 121.41 C 184.09 121.41 186.68 121.40 187.97 121.40 C 186.91 122.04 184.79 123.31 183.73 123.95 C 184.05 124.59 184.38 125.24 184.71 125.89 C 186.47 123.92 188.45 122.15 190.69 120.75 C 190.53 121.54 190.20 123.12 190.04 123.90 C 190.74 123.36 192.15 122.27 192.86 121.72 C 192.20 120.94 191.14 120.63 190.33 120.04 C 192.93 119.66 194.68 117.40 197.17 116.66 C 196.82 117.79 196.15 118.67 195.15 119.30 C 195.54 119.72 196.32 120.58 196.70 121.01 L 194.05 120.21 C 194.19 121.41 194.21 122.65 194.78 123.74 L 195.58 122.10 L 196.88 122.80 C 198.04 121.43 198.76 119.29 200.76 118.98 C 200.00 120.76 198.30 122.29 198.54 124.36 C 198.06 124.97 197.12 126.20 196.64 126.82 C 196.20 125.59 196.13 124.29 196.06 123.00 C 194.49 124.24 192.95 125.50 191.33 126.66 C 191.77 125.69 192.65 123.76 193.09 122.79 C 190.69 124.99 187.64 126.70 186.05 129.66 C 185.66 129.84 184.89 130.19 184.51 130.37 L 184.87 128.22 C 183.78 129.02 182.66 129.76 181.48 130.42 C 180.59 127.49 184.37 127.11 183.50 124.10 C 182.30 126.05 179.60 127.08 179.32 129.55 L 178.53 129.39 C 178.47 131.09 175.97 131.74 176.65 133.56 C 174.58 133.54 174.01 136.34 171.96 136.79 C 172.78 134.72 174.54 133.23 175.45 131.22 C 173.66 131.64 172.62 133.30 170.91 133.82 C 171.23 133.41 171.85 132.58 172.17 132.17 C 170.13 129.85 172.78 128.52 174.35 127.09 L 175.41 129.22 L 175.72 124.77 L 173.81 125.68 C 174.13 123.58 176.36 122.82 177.93 121.81 C 177.72 121.42 177.31 120.66 177.10 120.27 C 178.47 119.17 181.28 118.90 180.58 116.39 L 179.13 116.62 C 179.15 116.36 179.19 115.85 179.21 115.60 C 180.35 115.01 181.56 114.63 182.83 114.47 C 182.65 113.87 182.30 112.69 182.12 112.10 C 182.78 112.32 184.10 112.76 184.76 112.98 C 182.66 110.69 186.41 109.88 187.80 110.30 C 187.63 109.79 187.29 108.78 187.12 108.27 M 174.24 129.45 C 174.61 129.77 174.61 129.77 174.24 129.45 Z" />
<path fill="#ffffff" opacity="1.00" d=" M 279.88 111.11 L 280.38 110.56 L 281.21 110.94 L 281.25 111.84 L 280.44 112.29 C 280.30 112.00 280.02 111.40 279.88 111.11 Z" />
<path fill="#ffffff" opacity="1.00" d=" M 192.61 113.82 C 192.68 112.55 193.45 112.08 194.91 112.42 C 194.82 113.70 194.06 114.17 192.61 113.82 Z" />
<path fill="#ffffff" opacity="1.00" d=" M 234.31 112.60 C 234.90 112.67 236.07 112.82 236.65 112.89 C 236.90 114.51 233.56 114.02 234.31 112.60 Z" />
<path fill="#ffffff" opacity="1.00" d=" M 224.36 113.36 C 224.67 113.67 224.67 113.67 224.36 113.36 Z" />
<path fill="#ffffff" opacity="1.00" d=" M 259.72 114.31 C 261.66 112.19 261.70 116.63 259.65 115.14 L 259.72 114.31 Z" />
<path fill="#ffffff" opacity="1.00" d=" M 288.51 115.27 C 289.52 116.11 290.53 116.97 291.54 117.83 C 291.35 116.69 291.14 115.55 290.91 114.42 C 291.94 116.14 294.16 116.35 295.96 116.48 L 295.17 117.92 C 296.77 117.55 299.33 117.87 298.53 115.37 C 299.89 115.38 301.25 115.40 302.63 115.41 L 302.43 116.94 C 302.99 116.72 304.12 116.29 304.68 116.08 L 304.44 117.76 C 305.32 117.57 307.09 117.20 307.98 117.01 L 306.92 119.13 L 308.71 118.08 C 308.73 118.57 308.78 119.54 308.80 120.02 L 309.68 119.82 C 309.55 119.29 309.28 118.21 309.15 117.67 C 311.53 118.66 314.48 118.59 316.42 120.47 C 312.47 120.59 308.43 121.15 304.85 119.06 C 303.87 120.77 302.00 120.38 301.00 118.92 L 303.65 118.57 C 302.52 118.03 301.39 117.47 300.28 116.91 C 300.15 119.16 301.27 122.56 304.25 121.20 L 303.22 122.57 C 306.15 124.99 307.02 129.30 310.76 130.89 C 308.83 128.98 306.94 127.00 305.50 124.68 C 305.93 123.05 305.29 122.34 303.58 122.54 C 304.00 121.69 304.42 120.84 304.86 119.99 C 306.19 120.99 307.52 122.03 308.79 123.12 C 309.62 123.79 311.28 125.13 312.10 125.80 L 311.36 123.22 C 312.88 123.68 314.80 123.30 315.97 124.57 C 314.96 124.49 312.95 124.32 311.94 124.24 L 312.51 126.23 C 314.91 127.09 316.97 128.67 319.12 130.03 C 319.19 130.43 319.35 131.24 319.43 131.65 C 320.77 131.03 321.87 132.04 322.96 132.60 C 322.06 132.53 320.27 132.39 319.37 132.33 L 319.54 133.66 C 318.16 133.14 316.81 132.53 315.58 131.72 C 314.09 131.99 312.96 131.05 311.77 130.34 C 313.45 132.15 317.49 132.71 316.17 136.00 C 317.32 136.54 318.43 137.15 319.56 137.75 L 319.38 138.81 C 317.03 138.64 314.57 138.69 312.54 137.30 C 311.94 133.62 307.26 132.96 305.01 130.44 C 306.78 132.93 309.94 133.74 311.99 135.84 C 311.84 136.30 311.55 137.21 311.41 137.67 C 313.16 138.59 314.90 139.68 316.96 139.65 C 317.84 140.56 318.77 141.45 319.61 142.41 C 317.84 141.67 315.94 141.32 314.19 140.57 C 313.79 140.65 313.00 140.82 312.60 140.90 L 312.51 139.59 C 311.11 139.17 308.80 139.96 308.07 138.43 C 308.23 137.99 308.55 137.12 308.71 136.69 C 306.54 135.18 304.66 133.08 302.06 132.32 C 303.76 134.24 306.76 135.32 307.23 138.09 C 306.94 139.61 305.09 138.26 304.24 138.32 C 301.55 136.72 298.70 134.73 295.59 134.35 L 295.85 133.11 L 294.51 133.74 L 294.08 130.71 C 296.66 132.17 299.31 133.50 301.92 134.93 C 300.92 133.96 299.76 133.06 299.35 131.67 C 297.27 131.38 294.01 130.87 293.90 128.21 L 296.17 128.66 C 295.25 127.94 294.26 127.31 293.24 126.75 C 293.38 126.42 293.66 125.77 293.80 125.45 L 292.16 126.41 L 292.67 124.50 C 290.29 123.45 287.94 122.33 285.56 121.29 C 285.00 122.79 284.15 122.93 283.13 121.83 C 283.72 121.51 284.91 120.88 285.50 120.57 L 288.11 120.90 L 286.17 119.41 C 284.50 116.71 283.29 119.46 282.02 120.29 C 281.91 119.37 280.90 118.08 282.10 117.51 C 283.70 117.42 285.31 117.49 286.92 117.71 L 286.25 115.96 C 286.90 116.40 288.20 117.27 288.85 117.71 L 288.51 115.27 M 294.21 118.66 C 293.77 118.18 292.89 117.21 292.45 116.73 C 291.28 117.64 293.12 119.47 294.21 118.66 Z" />
<path fill="#ffffff" opacity="1.00" d=" M 188.27 120.12 C 187.93 118.89 189.22 116.83 190.60 117.71 C 190.87 118.79 189.28 120.46 188.27 120.12 Z" />
<path fill="#ffffff" opacity="1.00" d=" M 243.36 118.86 C 246.21 116.98 243.76 122.16 243.36 118.86 Z" />
<path fill="#ffffff" opacity="1.00" d=" M 240.20 120.09 C 242.19 118.03 242.10 122.44 240.10 120.89 L 240.20 120.09 Z" />
<path fill="#ffffff" opacity="1.00" d=" M 222.39 121.45 C 222.14 119.60 225.39 120.32 224.73 121.76 C 224.15 121.68 222.98 121.52 222.39 121.45 Z" />
<path fill="#ffffff" opacity="1.00" d=" M 242.99 120.90 C 244.52 120.01 245.36 122.43 243.70 122.79 C 242.32 123.54 241.45 121.28 242.99 120.90 Z" />
<path fill="#ffffff" opacity="1.00" d=" M 273.38 120.77 C 277.40 121.99 280.96 124.54 284.10 127.25 C 280.22 125.77 275.23 125.00 273.38 120.77 Z" />
<path fill="#ffffff" opacity="1.00" d=" M 248.74 124.72 C 249.56 123.70 251.26 122.13 252.62 123.00 C 252.91 124.48 248.80 127.20 248.74 124.72 Z" />
<path fill="#ffffff" opacity="1.00" d=" M 288.27 124.33 L 288.94 124.35 L 288.92 125.00 L 288.25 124.99 L 288.27 124.33 Z" />
<path fill="#ffffff" opacity="1.00" d=" M 203.56 126.60 C 202.85 127.30 202.85 127.30 203.56 126.60 Z" />
<path fill="#ffffff" opacity="1.00" d=" M 295.72 135.10 L 296.37 135.16 L 296.31 135.81 L 295.66 135.75 L 295.72 135.10 Z" />
<path fill="#ffffff" opacity="1.00" d=" M 260.83 138.09 C 262.86 137.36 264.36 139.65 266.10 140.33 C 266.24 141.37 265.88 142.28 265.01 143.05 C 263.45 141.55 261.96 139.95 260.83 138.09 Z" />
<path fill="#ffffff" opacity="1.00" d=" M 291.02 153.14 C 291.53 153.58 291.53 153.58 291.02 153.14 Z" />
<path fill="#ffffff" opacity="1.00" d=" M 289.44 154.44 C 289.80 154.80 289.80 154.80 289.44 154.44 Z" />
<path fill="#ffffff" opacity="1.00" d=" M 213.60 154.63 C 217.74 154.41 216.42 159.88 216.53 162.42 C 213.42 160.83 214.89 157.19 213.60 154.63 Z" />
<path fill="#ffffff" opacity="1.00" d=" M 268.21 158.64 C 269.47 157.63 270.78 156.69 272.21 155.94 L 272.65 157.91 L 273.93 156.79 L 273.28 160.02 C 272.82 159.90 271.90 159.65 271.44 159.53 L 271.22 161.03 C 270.47 160.43 268.96 159.24 268.21 158.64 Z" />
<path fill="#ffffff" opacity="1.00" d=" M 208.33 162.21 C 209.47 161.68 210.85 163.74 209.99 164.69 C 208.77 165.15 207.49 163.22 208.33 162.21 Z" />
<path fill="#ffffff" opacity="1.00" d=" M 211.36 164.36 C 211.67 164.67 211.67 164.67 211.36 164.36 Z" />
<path fill="#ffffff" opacity="1.00" d=" M 218.21 166.22 C 215.85 166.13 217.96 162.36 218.48 165.30 L 218.21 166.22 Z" />
<path fill="#ffffff" opacity="1.00" d=" M 264.06 164.52 C 264.62 164.98 265.18 165.43 265.75 165.89 C 264.01 167.62 262.42 169.50 260.66 171.22 C 260.57 169.24 259.93 167.34 259.60 165.41 L 260.50 166.45 C 260.97 167.18 261.42 167.91 261.86 168.66 C 262.41 167.63 263.51 165.56 264.06 164.52 Z" />
<path fill="#ffffff" opacity="1.00" d=" M 218.21 166.22 C 221.45 167.47 217.70 169.90 218.21 166.22 Z" />
<path fill="#ffffff" opacity="1.00" d=" M 173.24 169.16 C 174.11 169.74 174.97 170.34 175.82 170.96 C 176.66 170.38 177.50 169.81 178.34 169.24 L 178.40 170.44 C 179.14 170.49 180.63 170.60 181.37 170.66 C 181.56 171.94 181.45 173.42 182.63 174.29 L 182.40 171.82 C 184.19 172.91 185.49 174.69 187.37 175.66 C 187.79 176.52 188.22 177.37 188.67 178.22 C 188.55 177.21 188.31 175.18 188.19 174.17 C 188.95 174.26 190.46 174.43 191.22 174.51 C 192.26 175.94 193.29 177.36 194.19 178.89 C 193.36 178.41 191.69 177.46 190.86 176.98 C 191.75 179.41 194.36 181.09 194.46 183.77 L 196.76 183.85 C 196.63 183.14 196.38 181.74 196.25 181.03 C 197.93 182.97 197.64 186.77 200.71 187.13 C 200.04 184.41 199.01 181.81 198.20 179.14 C 199.64 179.98 200.84 181.35 202.58 181.53 L 202.24 184.01 C 203.15 183.48 204.05 182.94 204.95 182.39 C 206.08 185.29 207.65 188.01 208.57 190.99 C 209.34 192.31 208.20 193.29 207.16 193.88 C 206.46 192.94 206.11 191.82 206.13 190.52 C 205.10 192.10 205.09 193.86 206.11 195.79 C 203.00 193.62 202.34 189.41 199.24 187.16 C 200.00 191.38 203.68 194.24 204.53 198.37 C 204.12 199.15 203.34 199.75 203.26 200.69 C 202.44 199.46 201.20 198.62 199.97 197.86 C 199.67 199.13 203.39 202.08 200.51 201.75 C 196.19 197.43 192.34 192.35 187.13 189.11 C 189.41 191.21 191.63 193.38 193.87 195.53 L 193.49 196.52 C 190.76 198.27 192.12 193.63 189.44 194.48 L 189.40 193.62 C 184.84 192.01 182.03 187.56 177.62 185.76 C 178.70 184.73 179.97 185.68 181.13 186.04 C 181.26 184.79 181.40 183.56 181.58 182.33 L 179.95 182.89 C 180.16 182.29 180.58 181.08 180.79 180.48 C 179.43 180.66 178.54 180.05 178.11 178.66 C 177.68 178.60 176.83 178.48 176.40 178.42 C 176.39 178.69 176.36 179.24 176.34 179.52 L 177.64 179.28 L 177.34 180.67 L 178.70 180.14 L 178.38 181.61 L 179.76 181.26 L 179.87 184.42 L 177.88 183.53 L 175.96 183.98 C 177.44 181.86 174.60 180.43 173.00 179.82 L 174.91 181.07 C 174.23 181.55 173.55 182.04 172.88 182.52 C 173.62 182.74 175.11 183.17 175.85 183.38 L 175.40 184.78 L 176.74 184.26 C 177.09 185.38 177.41 186.51 177.71 187.65 L 178.83 187.15 C 178.79 187.94 178.71 189.54 178.67 190.34 L 176.69 187.74 C 176.37 191.45 181.18 192.75 184.02 193.92 C 182.29 191.99 177.29 191.68 179.41 188.06 C 182.61 190.24 185.65 192.63 188.49 195.26 C 188.93 195.35 189.83 195.55 190.27 195.65 C 191.56 198.01 194.37 199.09 195.67 201.50 C 195.38 201.78 194.78 202.34 194.48 202.62 C 196.26 203.88 197.03 206.19 199.05 207.16 L 198.83 207.90 L 197.00 206.71 C 197.08 207.27 197.23 208.39 197.31 208.95 L 196.33 208.98 L 196.91 207.50 C 196.12 207.41 194.53 207.22 193.74 207.12 C 194.41 207.93 195.75 209.55 196.42 210.36 C 195.43 209.87 193.46 208.88 192.47 208.39 C 192.94 209.53 193.42 210.68 193.91 211.82 C 192.72 210.77 191.53 209.71 190.12 208.97 C 190.22 208.55 190.41 207.73 190.51 207.31 C 188.87 205.97 187.10 204.72 185.04 204.12 C 186.68 205.68 189.19 206.26 190.26 208.38 C 189.52 208.47 188.06 208.64 187.32 208.72 C 189.80 209.08 190.34 211.75 192.00 213.20 C 189.85 212.78 188.73 210.66 187.25 209.29 C 186.47 212.60 187.33 213.96 189.83 213.38 C 190.28 214.25 190.72 215.13 191.14 216.02 C 190.58 215.55 189.48 214.61 188.92 214.15 L 188.86 216.15 L 188.42 215.78 C 189.78 213.22 183.85 213.73 186.97 210.87 L 185.06 211.92 L 185.93 209.58 L 184.62 210.47 C 183.75 209.35 182.83 208.26 181.90 207.19 C 180.44 207.71 178.89 207.75 177.36 207.65 L 177.60 205.54 L 178.40 204.73 C 177.63 204.70 176.08 204.63 175.31 204.60 L 175.18 202.03 L 178.38 203.52 C 177.41 201.64 175.64 200.66 174.04 199.47 L 175.96 199.51 C 175.55 198.78 174.71 197.31 174.30 196.58 C 172.58 196.34 171.04 195.43 169.34 195.12 L 169.90 196.80 C 167.22 196.95 164.13 195.49 164.23 192.39 C 165.49 194.56 167.73 194.77 169.95 194.73 C 169.88 194.44 169.72 193.87 169.64 193.58 C 168.00 193.37 164.85 194.19 165.59 191.41 C 165.88 189.71 163.57 189.86 162.57 189.14 C 163.76 188.02 164.36 185.02 166.39 187.01 C 165.85 185.89 165.50 184.73 165.35 183.51 C 165.00 183.16 164.31 182.47 163.97 182.12 C 164.74 182.21 166.29 182.39 167.06 182.48 C 166.63 181.97 165.77 180.94 165.33 180.43 C 165.69 180.40 166.41 180.33 166.76 180.29 C 166.68 179.77 166.52 178.71 166.44 178.19 C 166.97 178.33 168.04 178.61 168.58 178.75 C 169.47 177.01 166.11 170.96 170.49 175.25 C 169.94 173.66 168.22 172.82 167.96 171.11 C 170.26 173.06 172.44 175.15 174.83 176.99 C 173.24 175.16 171.77 173.24 170.72 171.05 C 172.40 171.70 174.12 172.26 175.87 172.73 C 174.97 171.55 174.09 170.36 173.24 169.16 M 174.77 173.88 C 177.16 174.76 178.61 177.07 180.45 178.72 C 181.81 178.47 183.19 178.33 184.57 178.45 C 184.50 177.52 184.43 176.59 184.37 175.66 C 183.34 175.61 182.31 175.54 181.28 175.47 C 181.42 176.19 181.71 177.65 181.85 178.38 C 179.57 176.83 177.65 174.83 175.94 172.69 C 175.55 173.08 175.15 173.48 174.77 173.88 M 203.61 185.17 C 203.88 185.96 204.42 187.54 204.69 188.33 C 205.45 188.94 206.23 189.54 207.01 190.13 C 206.45 187.80 205.45 185.60 204.96 183.26 C 204.50 183.89 204.05 184.53 203.61 185.17 M 203.41 188.08 C 203.33 187.25 203.16 185.57 203.08 184.74 C 201.74 184.34 202.19 187.96 203.41 188.08 M 196.35 190.43 C 197.71 192.80 199.35 194.99 200.97 197.18 C 201.43 198.25 202.63 197.62 203.40 197.38 C 200.89 195.96 198.85 193.03 198.44 190.18 C 197.92 190.24 196.87 190.37 196.35 190.43 M 174.93 192.16 C 174.90 192.45 174.84 193.01 174.81 193.30 C 175.55 193.86 178.17 193.60 177.65 192.36 C 176.97 192.31 175.61 192.21 174.93 192.16 M 176.23 197.25 C 176.92 197.78 176.92 197.78 176.23 197.25 Z" />
<path fill="#ffffff" opacity="1.00" d=" M 242.99 169.53 C 243.91 169.27 244.93 169.00 245.74 169.69 C 245.74 170.75 245.74 172.87 245.74 173.93 L 244.35 173.59 C 244.35 173.80 244.34 174.22 244.34 174.43 L 245.84 174.14 C 244.27 179.18 241.64 183.97 237.70 187.56 C 237.61 186.58 237.43 184.61 237.35 183.63 L 238.38 183.51 C 238.16 181.70 238.96 179.63 237.86 178.03 C 237.75 178.92 237.53 180.72 237.42 181.61 L 236.03 181.30 C 237.14 184.09 237.54 187.98 234.80 189.98 C 233.94 191.25 233.07 192.53 231.93 193.58 C 232.47 190.38 232.71 187.17 232.18 183.94 C 232.45 184.74 232.99 186.34 233.25 187.14 C 235.44 185.01 234.34 181.71 235.00 179.02 C 234.49 177.00 234.88 174.68 236.28 173.10 C 236.50 171.66 236.74 170.22 237.00 168.78 C 238.43 171.32 239.30 174.09 239.54 177.00 C 240.24 174.99 238.22 170.65 241.72 171.13 C 241.73 173.81 241.50 176.48 241.39 179.16 C 243.14 176.85 242.27 173.85 242.32 171.20 L 243.97 171.36 L 242.99 169.53 Z" />
<path fill="#ffffff" opacity="1.00" d=" M 201.20 171.83 C 201.92 172.44 201.92 172.44 201.20 171.83 Z" />
<path fill="#ffffff" opacity="1.00" d=" M 231.61 171.60 L 233.77 170.77 L 233.34 172.51 C 233.80 172.80 234.70 173.40 235.16 173.69 L 233.51 172.89 C 232.73 174.76 233.27 177.58 230.92 178.39 C 231.41 178.42 232.39 178.48 232.88 178.52 C 232.66 180.13 232.44 181.75 232.40 183.38 C 231.67 185.45 230.18 186.34 227.96 186.04 C 228.46 185.04 229.47 183.04 229.98 182.04 C 229.82 181.63 229.50 180.81 229.34 180.39 C 230.40 177.55 231.29 174.63 231.61 171.60 Z" />
<path fill="#ffffff" opacity="1.00" d=" M 214.46 176.41 C 216.02 175.35 217.66 174.43 219.47 173.87 C 219.58 174.30 219.81 175.15 219.92 175.58 C 219.47 175.55 218.56 175.49 218.10 175.46 C 217.56 177.60 215.40 178.56 213.76 179.73 C 213.94 178.90 214.29 177.24 214.46 176.41 Z" />
<path fill="#ffffff" opacity="1.00" d=" M 280.00 177.62 C 281.00 178.47 281.24 179.71 280.70 181.32 L 280.25 181.24 C 280.19 180.33 280.06 178.52 280.00 177.62 Z" />
<path fill="#ffffff" opacity="1.00" d=" M 263.46 178.76 L 264.13 179.73 C 263.72 181.71 262.94 183.58 262.30 185.50 L 261.14 185.38 C 261.14 185.76 261.14 186.53 261.14 186.91 C 261.67 186.50 262.74 185.69 263.27 185.28 C 262.57 187.03 261.72 188.72 261.09 190.51 C 260.34 190.08 258.12 191.56 257.97 190.09 C 258.56 188.36 259.60 186.81 259.93 184.98 C 259.04 187.86 256.47 189.38 254.41 191.33 C 253.51 192.82 252.82 194.43 252.14 196.04 C 253.21 194.82 253.98 193.38 254.52 191.86 C 255.29 191.50 256.09 191.27 256.92 191.16 C 257.21 191.81 257.78 193.13 258.07 193.78 C 255.87 192.30 255.21 194.96 254.19 196.14 C 252.99 197.87 252.24 199.87 252.17 201.99 C 253.17 199.57 254.25 197.15 256.10 195.21 L 255.44 199.24 C 256.14 198.39 256.48 197.41 256.45 196.29 L 257.65 196.62 L 257.46 195.68 C 258.64 194.48 260.70 193.62 260.55 191.66 C 261.80 191.13 262.63 190.14 263.04 188.70 C 264.97 190.85 266.76 188.67 267.86 187.00 C 268.36 189.34 271.40 191.09 270.62 193.62 L 272.19 192.88 L 271.31 194.80 L 272.93 193.93 C 273.48 195.16 273.64 196.50 273.68 197.84 L 274.92 197.83 C 274.61 198.18 273.99 198.89 273.68 199.24 C 273.36 197.63 272.77 196.14 271.92 194.75 L 271.05 197.00 C 269.40 195.61 268.04 193.57 268.62 191.32 C 267.44 191.81 266.27 191.79 265.10 191.27 C 267.88 191.80 266.02 195.55 268.56 196.18 C 269.20 197.37 269.95 198.49 270.74 199.60 L 272.05 199.54 C 271.60 200.46 270.81 200.86 269.69 200.74 C 268.93 202.76 265.08 206.45 264.93 201.46 C 265.69 201.55 267.20 201.72 267.96 201.81 C 268.09 200.70 267.84 199.73 267.22 198.90 L 267.36 201.70 C 266.69 201.14 266.02 200.57 265.36 200.00 C 265.73 198.52 265.40 197.17 264.55 195.99 L 264.98 197.49 C 263.93 197.66 262.93 197.96 261.97 198.39 L 263.59 198.46 C 263.56 198.93 263.50 199.89 263.46 200.36 L 264.61 200.40 C 264.59 201.36 264.55 203.28 264.54 204.24 C 262.74 205.22 262.03 207.96 259.59 207.47 C 260.40 210.63 257.68 213.18 258.14 216.35 C 259.81 214.85 259.57 211.47 262.66 212.19 C 259.74 215.76 259.59 221.40 255.45 223.87 C 255.84 223.05 256.63 221.41 257.02 220.59 C 256.31 220.90 254.89 221.54 254.18 221.85 C 254.95 220.52 255.88 219.30 256.61 217.94 C 255.87 213.85 258.03 209.97 259.80 206.42 C 260.37 206.43 261.52 206.43 262.09 206.44 C 261.56 206.27 260.50 205.94 259.97 205.77 C 260.30 204.92 260.97 203.23 261.30 202.38 C 261.34 201.80 261.44 200.64 261.49 200.06 C 260.66 201.70 259.97 203.41 259.33 205.14 C 256.40 207.08 256.59 211.15 255.92 214.23 C 255.32 213.46 254.71 212.69 254.10 211.93 C 254.30 212.63 254.70 214.04 254.90 214.75 L 253.36 214.34 C 253.35 214.92 253.34 216.08 253.34 216.65 C 251.05 216.84 251.36 213.45 252.44 212.37 C 252.42 211.75 252.38 210.52 252.36 209.90 C 251.72 211.25 251.45 212.74 251.05 214.17 C 250.15 213.68 249.25 213.19 248.37 212.68 C 249.04 211.23 249.72 209.80 250.42 208.37 C 250.63 206.72 253.14 208.12 253.20 206.27 C 253.35 205.74 253.64 204.67 253.79 204.14 C 252.60 204.66 252.62 206.00 252.31 207.08 C 251.88 206.89 251.02 206.52 250.59 206.33 C 249.97 207.90 249.47 210.67 247.07 209.99 C 247.32 209.24 247.82 207.74 248.07 206.98 C 247.03 204.84 249.37 202.84 249.83 200.76 C 250.16 200.33 250.83 199.48 251.16 199.05 C 250.42 199.62 248.92 200.76 248.17 201.33 C 248.33 200.47 248.64 198.73 248.80 197.86 C 246.65 198.07 246.87 200.53 245.03 200.97 L 245.82 202.70 L 244.36 202.37 C 243.87 203.96 243.38 205.55 243.00 207.17 C 242.04 206.82 240.77 205.95 241.78 204.82 C 242.69 202.92 243.22 200.89 243.72 198.86 C 247.77 196.78 248.08 191.83 250.59 188.53 C 252.40 186.59 254.00 184.47 255.72 182.44 C 256.99 182.47 258.27 182.48 259.56 182.45 C 260.19 181.45 260.93 180.54 261.78 179.72 C 261.78 180.42 261.78 181.84 261.79 182.54 L 261.19 182.39 L 261.06 183.00 L 261.67 183.15 L 261.79 182.54 L 262.99 182.84 C 263.11 181.82 263.35 179.78 263.46 178.76 M 249.94 194.18 C 252.60 191.69 254.59 188.59 257.14 185.98 C 257.75 184.90 259.62 183.71 258.18 182.53 C 255.46 186.38 250.49 189.17 249.94 194.18 Z" />
<path fill="#ffffff" opacity="1.00" d=" M 222.55 190.52 C 219.72 191.67 218.18 184.85 221.37 185.14 C 221.02 186.96 220.96 189.40 222.73 190.55 C 222.69 189.68 222.60 187.94 222.56 187.07 C 224.64 187.80 223.29 190.28 223.51 191.85 C 223.27 191.52 222.79 190.85 222.55 190.52 Z" />
<path fill="#ffffff" opacity="1.00" d=" M 263.27 185.28 C 264.00 184.76 264.00 184.76 263.27 185.28 Z" />
<path fill="#ffffff" opacity="1.00" d=" M 263.80 188.81 C 263.97 187.75 266.75 182.93 267.28 185.98 C 266.62 187.25 265.27 188.69 263.80 188.81 Z" />
<path fill="#ffffff" opacity="1.00" d=" M 227.63 186.52 C 228.85 186.43 230.07 186.35 231.29 186.26 C 230.64 186.88 229.34 188.12 228.69 188.75 C 228.58 189.76 228.35 191.79 228.23 192.80 L 230.31 192.35 C 229.69 192.97 228.98 193.46 228.17 193.80 C 227.59 194.56 227.01 195.31 226.40 196.06 C 226.32 192.81 227.50 189.73 227.63 186.52 Z" />
<path fill="#ffffff" opacity="1.00" d=" M 283.44 188.57 C 284.89 188.70 286.20 188.51 286.69 186.95 C 286.74 191.21 289.29 195.52 286.08 199.40 C 288.52 198.84 289.04 196.22 290.08 194.36 C 291.46 196.20 291.63 198.54 292.09 200.72 L 294.15 200.04 C 294.14 200.92 294.37 201.99 295.39 201.24 C 297.45 202.59 299.53 203.92 301.73 205.04 L 301.14 206.03 C 300.53 205.81 299.32 205.37 298.72 205.16 C 299.16 206.32 300.37 206.45 301.38 206.82 C 302.19 205.32 303.37 205.16 304.91 206.35 C 303.19 207.61 301.19 208.37 299.18 209.01 C 297.64 211.42 296.06 213.81 294.22 216.00 C 294.29 215.28 294.42 213.84 294.49 213.12 C 292.79 214.24 290.92 214.99 289.09 215.83 C 289.11 215.47 289.15 214.73 289.17 214.37 C 292.08 215.01 293.84 212.02 296.50 211.42 C 296.85 210.94 297.55 209.97 297.89 209.49 C 296.96 209.38 295.08 209.15 294.14 209.04 C 294.32 208.40 294.68 207.12 294.86 206.48 C 293.35 207.45 291.66 207.89 289.87 207.67 C 290.32 207.28 291.23 206.52 291.69 206.13 C 290.30 204.95 288.94 203.72 287.69 202.39 C 287.58 201.12 289.61 200.85 290.31 199.98 C 289.12 199.71 287.93 199.44 286.74 199.18 C 286.73 199.57 286.69 200.33 286.68 200.72 C 286.31 200.63 285.59 200.44 285.23 200.35 C 285.45 201.24 285.90 203.01 286.12 203.89 C 284.48 202.82 283.48 200.52 281.36 200.44 L 281.50 198.57 C 281.02 199.36 280.54 200.15 280.06 200.94 L 279.13 197.23 L 281.04 198.03 C 280.93 197.36 280.69 196.02 280.58 195.35 L 282.32 195.35 C 282.56 196.58 282.88 197.80 283.26 199.00 C 283.22 197.77 283.22 196.53 283.41 195.32 L 282.32 195.22 C 282.34 194.80 282.39 193.98 282.41 193.57 L 280.97 193.57 C 281.28 191.86 282.18 190.72 283.67 190.14 C 283.61 189.74 283.50 188.96 283.44 188.57 Z" />
<path fill="#ffffff" opacity="1.00" d=" M 305.65 186.91 L 306.84 186.66 C 307.05 187.85 306.53 188.26 305.28 187.90 L 305.65 186.91 Z" />
<path fill="#ffffff" opacity="1.00" d=" M 239.63 190.01 C 240.03 189.89 240.83 189.64 241.23 189.52 C 241.14 191.36 239.26 192.72 239.13 194.69 C 238.90 194.68 238.43 194.68 238.20 194.68 C 239.02 193.19 238.21 191.21 239.63 190.01 Z" />
<path fill="#ffffff" opacity="1.00" d=" M 258.36 192.36 C 258.67 192.67 258.67 192.67 258.36 192.36 Z" />
<path fill="#ffffff" opacity="1.00" d=" M 295.39 193.06 C 297.67 194.07 300.96 194.07 302.28 196.36 C 301.76 196.29 300.71 196.16 300.18 196.09 L 301.06 198.68 C 300.25 198.00 298.63 196.62 297.83 195.94 C 298.31 196.62 299.28 197.98 299.77 198.66 C 296.27 199.81 296.42 195.23 295.39 193.06 Z" />
<path fill="#ffffff" opacity="1.00" d=" M 256.19 194.98 L 256.82 194.98 L 256.83 195.61 L 256.19 195.62 L 256.19 194.98 Z" />
<path fill="#ffffff" opacity="1.00" d=" M 193.49 196.52 L 194.17 196.62 L 194.15 197.34 L 193.44 197.19 L 193.49 196.52 Z" />
<path fill="#ffffff" opacity="1.00" d=" M 237.14 195.15 C 237.65 195.81 238.17 196.48 238.69 197.14 C 237.13 199.05 236.77 202.33 234.08 203.07 C 234.92 200.36 236.24 197.83 237.14 195.15 Z" />
<path fill="#ffffff" opacity="1.00" d=" M 194.15 197.34 C 194.79 197.94 194.79 197.94 194.15 197.34 Z" />
<path fill="#ffffff" opacity="1.00" d=" M 264.22 198.21 C 264.87 198.86 264.87 198.86 264.22 198.21 Z" />
<path fill="#ffffff" opacity="1.00" d=" M 276.15 199.28 C 276.52 198.96 277.25 198.31 277.62 197.99 C 278.39 200.77 278.23 203.79 279.31 206.48 C 279.63 206.61 280.27 206.88 280.59 207.01 C 280.74 205.01 280.66 203.00 280.51 201.00 C 280.99 201.07 281.94 201.20 282.42 201.26 C 282.42 203.93 282.33 206.62 282.66 209.28 C 283.86 207.38 284.28 205.19 283.94 202.72 C 284.57 203.61 285.19 204.51 285.82 205.42 C 285.49 206.39 284.83 208.35 284.50 209.32 C 285.08 209.34 286.23 209.37 286.81 209.38 C 286.54 209.69 286.01 210.31 285.74 210.62 C 283.61 208.62 280.36 209.53 277.79 208.36 C 278.23 210.27 278.55 212.21 278.58 214.18 C 277.10 212.37 274.84 209.24 277.34 207.29 C 276.08 204.81 276.87 201.92 276.15 199.28 Z" />
<path fill="#ffffff" opacity="1.00" d=" M 199.06 203.04 C 197.31 204.03 194.82 199.32 196.96 199.10 C 197.83 200.32 198.53 201.64 199.06 203.04 Z" />
<path fill="#ffffff" opacity="1.00" d=" M 241.15 197.89 C 241.58 198.69 242.01 199.49 242.44 200.30 C 241.03 201.54 240.54 203.42 239.78 205.07 C 239.39 205.23 238.62 205.55 238.23 205.71 C 238.23 202.84 240.37 200.55 241.15 197.89 Z" />
<path fill="#ffffff" opacity="1.00" d=" M 274.18 204.49 C 271.27 204.16 274.92 200.39 275.46 203.19 C 275.14 203.51 274.50 204.17 274.18 204.49 Z" />
<path fill="#ffffff" opacity="1.00" d=" M 197.30 203.90 C 197.84 204.01 198.92 204.24 199.46 204.35 L 199.86 205.08 C 198.81 205.90 197.95 205.51 197.30 203.90 Z" />
<path fill="#ffffff" opacity="1.00" d=" M 266.40 213.41 C 266.99 212.22 267.79 211.15 268.94 210.44 C 268.95 215.01 266.45 219.29 264.34 223.26 C 264.32 222.61 264.30 221.30 264.28 220.65 C 261.74 221.32 263.12 226.30 259.94 225.88 L 258.12 224.81 C 258.92 224.45 260.51 223.73 261.30 223.36 L 258.40 223.82 C 261.38 220.61 264.35 217.31 266.40 213.41 Z" />
<path fill="#ffffff" opacity="1.00" d=" M 271.56 210.92 C 273.46 212.59 271.12 215.16 270.97 217.18 C 269.29 217.78 271.51 221.18 272.09 219.14 C 273.35 216.99 273.93 214.56 274.26 212.11 C 274.86 212.24 276.04 212.50 276.63 212.63 C 276.32 213.35 275.70 214.80 275.39 215.53 L 274.54 215.38 C 274.13 217.13 272.07 218.84 273.31 220.66 C 272.02 220.61 270.74 220.57 269.46 220.54 C 270.80 222.94 267.62 224.14 265.80 223.69 C 266.59 222.50 267.46 221.37 268.37 220.28 C 269.52 217.18 270.22 213.94 271.56 210.92 Z" />
<path fill="#ffffff" opacity="1.00" d=" M 180.87 212.42 L 181.65 212.13 C 184.04 215.32 186.84 218.20 188.87 221.64 C 187.82 220.92 186.82 220.13 185.69 219.56 C 185.28 219.31 185.28 219.31 185.69 219.56 C 185.62 220.91 188.40 223.10 185.25 222.62 C 186.04 223.64 186.63 224.76 187.01 225.98 C 185.85 225.30 185.15 224.16 184.39 223.10 C 184.56 222.67 184.90 221.82 185.07 221.39 C 183.50 219.97 183.10 218.18 183.77 216.22 C 183.00 214.84 181.79 213.72 180.87 212.42 Z" />
<path fill="#ffffff" opacity="1.00" d=" M 281.42 213.14 C 281.46 213.58 281.56 214.44 281.60 214.87 C 282.16 214.78 283.27 214.60 283.82 214.51 L 284.12 215.43 C 281.90 214.46 282.05 217.53 281.54 218.78 C 281.11 218.33 280.24 217.44 279.81 216.99 C 280.60 215.82 281.01 214.47 281.42 213.14 Z" />
<path fill="#ffffff" opacity="1.00" d=" M 186.17 215.23 C 186.76 215.91 186.76 215.91 186.17 215.23 Z" />
<path fill="#ffffff" opacity="1.00" d=" M 253.76 218.37 C 253.54 216.86 254.03 215.70 255.23 214.90 C 255.51 216.43 255.02 217.59 253.76 218.37 Z" />
<path fill="#ffffff" opacity="1.00" d=" M 276.93 215.33 C 278.29 215.57 279.64 217.75 279.38 219.10 C 277.89 218.91 276.51 216.76 276.93 215.33 Z" />
<path fill="#ffffff" opacity="1.00" d=" M 273.28 223.96 C 273.42 221.37 274.49 218.96 275.80 216.76 C 275.48 219.10 275.77 222.72 273.28 223.96 Z" />
<path fill="#ffffff" opacity="1.00" d=" M 263.16 225.49 C 263.38 224.96 263.82 223.89 264.04 223.36 C 265.55 223.59 264.31 226.63 263.16 225.49 Z" />
</g>
</svg>
