<?xml version="1.0" encoding="UTF-8" ?>
<!DOCTYPE svg PUBLIC "-//W3C//DTD SVG 1.1//EN" "http://www.w3.org/Graphics/SVG/1.1/DTD/svg11.dtd">
<svg width="512pt" height="256pt" viewBox="0 0 512 256" version="1.1" xmlns="http://www.w3.org/2000/svg">
<g id="#ffffffff">
<path fill="#ffffff" opacity="1.00" d=" M 241.57 10.88 C 243.00 13.30 243.11 16.41 245.83 18.02 C 245.46 16.69 244.72 14.03 244.36 12.69 C 244.74 13.24 245.50 14.34 245.88 14.88 C 246.63 14.50 248.14 13.74 248.89 13.35 L 248.43 11.90 C 250.29 13.09 251.17 14.94 251.11 17.15 C 251.55 18.86 251.99 20.57 252.58 22.24 C 251.97 22.30 250.75 22.42 250.14 22.48 L 250.64 20.59 L 249.62 20.47 C 249.62 18.24 249.69 15.96 248.90 13.83 C 248.19 15.34 247.62 16.90 247.08 18.48 L 248.28 18.19 C 247.92 19.96 248.60 21.47 249.58 22.86 C 250.30 26.06 250.59 29.38 251.76 32.46 C 251.63 29.78 250.80 27.20 250.10 24.64 C 251.80 22.80 254.07 24.25 253.50 26.61 C 255.31 24.83 256.03 22.60 256.08 20.06 C 255.32 17.57 253.93 13.32 257.23 12.06 C 257.37 13.43 257.52 14.80 257.68 16.17 C 259.18 18.91 258.44 22.14 258.39 25.10 C 258.63 24.28 259.10 22.63 259.33 21.81 C 260.94 23.71 262.11 27.58 258.31 27.53 L 258.32 27.82 C 259.02 27.68 260.43 27.39 261.14 27.24 C 261.61 32.60 261.03 37.99 261.51 43.33 C 261.92 38.88 261.70 34.40 261.66 29.93 C 261.44 27.09 261.60 23.80 259.36 21.65 C 259.41 19.89 259.54 18.13 259.66 16.37 L 258.22 16.66 C 258.92 14.77 259.56 12.86 259.96 10.87 C 260.07 15.32 262.86 19.21 262.33 23.74 L 262.79 23.79 C 262.51 20.55 262.54 17.30 262.39 14.06 C 262.96 14.26 264.10 14.66 264.67 14.86 C 264.67 18.75 264.25 22.64 264.64 26.53 C 265.91 25.34 265.33 23.63 265.40 22.12 C 265.52 19.25 266.11 16.41 266.82 13.62 C 267.85 17.81 267.99 22.19 268.34 26.47 L 269.49 26.53 C 269.05 24.61 268.63 22.67 268.27 20.72 C 270.73 20.16 271.51 17.41 273.45 16.05 C 273.37 16.68 273.21 17.96 273.13 18.60 C 274.52 18.45 275.91 18.42 277.31 18.51 C 277.52 18.87 277.94 19.59 278.15 19.95 C 278.73 20.15 279.89 20.54 280.46 20.73 L 279.98 19.47 C 281.11 19.49 282.24 19.46 283.38 19.44 C 282.82 20.08 281.70 21.37 281.13 22.02 L 284.01 21.17 C 283.13 24.26 280.22 27.54 282.68 30.58 C 284.09 27.66 285.66 24.83 286.66 21.71 C 286.70 24.91 284.07 27.77 285.67 30.96 L 285.02 30.85 C 284.71 33.02 284.37 35.18 283.76 37.29 C 284.60 35.51 285.60 33.76 285.77 31.75 C 286.03 31.12 286.55 29.85 286.81 29.22 C 288.99 30.78 288.15 33.14 287.29 35.14 C 288.61 33.30 289.69 31.30 290.55 29.21 C 290.98 30.42 291.43 31.63 291.88 32.83 C 291.01 34.43 290.11 36.02 289.17 37.57 C 289.82 37.04 290.49 36.52 291.16 36.01 C 291.71 34.79 292.27 33.59 292.90 32.41 C 295.51 31.85 293.72 34.02 293.73 34.99 C 293.81 36.38 293.98 37.86 292.75 38.83 C 292.58 39.39 292.25 40.49 292.09 41.04 C 293.17 39.26 294.96 35.45 296.86 38.76 C 296.47 37.91 296.07 37.06 295.70 36.21 C 296.32 35.73 297.57 34.75 298.19 34.26 C 298.42 35.38 298.63 36.52 298.79 37.66 L 300.43 37.19 C 299.19 39.23 297.92 41.24 296.58 43.22 C 294.91 43.81 293.64 44.95 293.23 46.74 L 292.12 46.71 C 292.50 47.67 292.89 48.64 293.37 49.57 L 293.10 47.02 L 294.18 47.60 C 297.72 44.40 300.15 39.71 304.97 38.19 C 303.54 39.92 302.11 41.63 300.60 43.28 C 301.69 43.51 303.88 43.96 304.98 44.19 C 304.16 43.59 303.32 43.01 302.47 42.46 C 302.96 42.09 303.94 41.34 304.43 40.97 C 304.99 42.08 305.15 43.83 306.93 43.66 C 306.21 44.06 304.77 44.85 304.05 45.24 L 303.57 45.51 L 303.73 45.99 L 304.19 45.79 L 304.05 45.24 C 305.34 45.06 307.91 44.69 309.20 44.50 C 307.95 47.03 304.62 46.62 302.43 47.85 C 302.39 46.96 302.30 45.19 302.26 44.30 C 301.60 45.58 301.41 46.93 301.70 48.36 C 301.27 48.39 300.41 48.46 299.98 48.49 C 300.15 48.79 300.50 49.39 300.67 49.69 C 303.26 48.12 306.23 47.43 309.03 46.33 C 309.84 46.03 311.47 45.43 312.28 45.13 C 312.94 46.01 313.58 46.90 314.21 47.80 C 313.51 47.76 312.11 47.67 311.41 47.63 L 311.45 48.75 C 311.07 48.66 310.29 48.48 309.90 48.39 C 309.95 51.20 306.20 50.26 305.52 52.67 C 309.02 52.00 312.48 51.15 316.01 50.65 C 315.58 51.43 314.73 52.99 314.31 53.76 C 313.88 53.64 313.03 53.38 312.60 53.25 C 312.49 53.87 312.26 55.11 312.15 55.72 C 313.95 55.66 315.76 55.46 315.85 53.24 C 316.03 53.23 316.41 53.22 316.59 53.21 C 316.56 53.82 316.50 55.03 316.47 55.63 L 315.21 55.41 C 315.19 55.78 315.17 56.52 315.15 56.89 C 315.78 56.74 317.02 56.44 317.64 56.29 C 317.63 56.83 317.59 57.91 317.57 58.45 C 315.72 58.42 313.87 58.45 312.02 58.42 L 314.05 59.05 C 312.95 59.71 311.90 60.64 310.53 60.56 C 310.58 60.99 310.70 61.85 310.75 62.28 C 311.03 62.51 311.58 62.98 311.85 63.22 L 312.23 63.58 C 313.35 63.30 314.43 62.90 313.22 61.81 C 313.47 60.90 313.82 60.04 314.28 59.21 C 316.29 59.65 318.30 60.18 320.31 60.65 C 320.39 61.69 320.48 62.73 320.58 63.77 C 320.01 63.18 318.87 62.01 318.30 61.42 C 318.37 62.86 318.45 64.30 318.53 65.75 C 320.84 66.35 323.32 66.33 325.54 67.26 L 323.05 67.47 C 323.29 68.17 323.78 69.57 324.03 70.26 C 323.11 69.96 321.27 69.34 320.35 69.03 L 320.63 71.68 C 322.01 71.74 323.39 71.85 324.77 71.96 C 324.25 72.54 323.20 73.70 322.68 74.28 C 324.36 74.50 326.09 74.67 327.80 74.64 C 327.17 74.95 325.92 75.56 325.29 75.87 C 326.92 76.53 328.62 77.21 330.19 78.05 C 330.64 79.69 329.67 81.87 331.29 83.02 C 331.11 83.62 330.94 84.22 330.77 84.81 C 326.78 84.79 322.74 85.15 318.85 84.00 C 318.11 83.98 316.22 82.22 317.84 82.09 C 318.32 82.20 319.28 82.41 319.77 82.52 C 322.32 81.82 324.94 82.74 327.54 82.53 C 328.16 81.74 328.79 80.94 329.42 80.15 C 328.89 80.52 327.82 81.27 327.29 81.64 C 323.35 81.79 319.17 82.15 315.60 80.14 L 314.96 80.32 L 317.15 81.14 C 316.17 81.61 315.19 82.08 314.22 82.55 C 315.18 82.95 317.10 83.75 318.06 84.15 C 317.57 84.46 316.58 85.08 316.08 85.39 L 318.17 85.66 C 317.02 86.59 315.78 87.39 314.48 88.06 C 315.23 88.24 316.73 88.59 317.49 88.76 C 317.68 89.90 317.85 91.03 318.01 92.18 C 318.21 91.40 318.41 90.63 318.62 89.86 C 318.24 89.11 317.48 87.63 317.09 86.89 C 318.17 87.40 320.32 88.42 321.39 88.93 C 321.50 90.47 321.51 92.09 322.44 93.40 C 322.45 91.99 322.36 90.58 322.25 89.18 C 324.24 91.92 328.01 90.10 330.79 90.17 L 330.90 91.84 C 329.04 91.91 327.18 91.97 325.32 92.04 L 325.38 93.70 C 327.39 93.50 329.41 93.30 331.44 93.13 C 331.10 93.58 330.41 94.48 330.07 94.94 C 330.70 94.78 331.95 94.46 332.58 94.30 L 332.56 95.45 C 333.79 95.40 335.03 95.38 336.27 95.40 C 335.61 95.62 334.30 96.06 333.64 96.27 C 333.47 96.81 333.13 97.87 332.96 98.41 C 330.40 98.60 327.84 98.46 325.28 98.43 C 325.28 98.10 325.27 97.43 325.27 97.10 C 324.82 99.28 322.79 98.86 321.57 97.79 C 322.03 97.31 322.94 96.35 323.40 95.87 C 321.02 94.93 318.61 94.02 316.57 92.44 C 314.34 94.22 313.35 90.83 312.12 89.52 C 310.01 89.90 308.02 89.20 306.79 87.44 L 306.21 88.07 C 305.54 88.54 304.62 90.79 303.85 89.17 C 303.23 87.00 302.35 84.90 301.68 82.75 C 303.11 83.53 304.54 84.40 305.64 85.66 C 305.35 83.33 302.40 83.14 300.74 82.11 C 301.94 84.26 302.63 86.63 303.36 88.98 L 301.21 88.52 C 301.23 88.65 301.28 88.93 301.30 89.06 C 302.85 89.34 303.92 90.64 304.39 92.07 C 304.88 94.05 302.49 94.46 301.41 95.46 C 302.55 95.44 303.70 95.33 304.85 95.39 C 304.69 96.91 304.55 98.42 304.42 99.94 C 304.56 99.31 304.85 98.04 304.99 97.41 C 305.45 97.39 306.36 97.35 306.82 97.33 L 305.97 95.33 C 306.44 95.31 307.37 95.28 307.84 95.27 C 308.22 96.85 308.44 98.47 308.90 100.05 C 308.78 98.41 308.56 96.79 308.23 95.19 L 310.42 95.21 C 309.40 94.86 308.36 94.53 307.41 94.02 C 307.45 93.19 307.52 91.53 307.56 90.69 C 308.01 90.43 308.92 89.90 309.37 89.63 C 309.41 90.41 309.50 91.96 309.55 92.73 L 310.82 92.10 C 311.02 91.47 311.41 90.21 311.61 89.58 C 312.50 90.85 313.37 92.14 314.23 93.44 C 316.80 92.99 318.12 94.10 318.20 96.78 C 317.54 96.64 316.24 96.37 315.58 96.23 C 316.69 97.53 317.54 98.99 318.15 100.60 C 317.34 100.34 315.72 99.83 314.91 99.58 C 315.82 100.85 316.96 101.92 318.24 102.82 L 318.71 100.25 C 320.34 102.31 320.73 105.20 323.37 106.45 C 323.02 105.59 322.33 103.87 321.98 103.01 C 324.04 104.60 326.24 105.98 328.46 107.35 C 326.66 108.14 325.29 106.71 323.84 106.01 C 323.70 106.34 323.42 107.00 323.28 107.33 C 324.07 107.44 325.66 107.67 326.46 107.78 C 325.48 108.97 324.24 109.89 323.02 110.80 C 321.13 109.92 319.28 108.97 317.40 108.08 C 317.55 107.53 317.70 106.97 317.85 106.43 C 316.45 104.87 315.28 103.14 313.82 101.65 C 314.02 103.45 314.57 105.17 315.19 106.86 C 314.48 106.48 313.05 105.72 312.34 105.33 L 311.92 105.29 C 313.96 108.03 316.69 110.15 319.62 111.86 C 319.57 112.66 319.46 114.24 319.41 115.03 C 318.31 114.26 317.20 113.50 316.07 112.76 C 316.69 113.47 317.91 114.88 318.52 115.59 C 315.78 116.29 313.86 114.64 311.91 113.11 C 313.24 115.09 314.49 117.88 317.52 116.48 C 316.89 117.34 315.62 119.05 314.99 119.91 C 314.04 119.16 313.07 118.44 312.09 117.74 C 313.03 118.87 314.01 119.97 314.93 121.13 C 312.31 120.49 309.70 119.80 307.04 119.31 C 309.31 120.71 311.79 121.71 314.17 122.90 C 314.95 124.87 315.39 126.97 316.12 128.97 C 314.60 129.08 313.09 129.27 311.60 129.54 C 313.29 129.75 314.98 129.60 316.68 129.52 C 316.70 130.13 316.74 131.37 316.76 131.98 C 315.73 132.47 314.73 132.98 313.75 133.56 C 315.09 133.51 316.42 133.41 317.76 133.28 C 318.38 134.22 319.01 135.15 319.65 136.08 C 318.72 135.75 316.85 135.10 315.92 134.77 C 316.45 135.32 317.51 136.41 318.04 136.95 C 318.77 137.24 320.24 137.80 320.97 138.08 C 319.70 140.28 317.66 139.06 315.81 138.68 C 318.31 140.36 321.94 140.51 323.40 143.47 L 320.23 143.47 L 320.46 142.09 C 319.21 142.46 317.98 142.82 316.75 143.24 C 317.51 143.21 319.01 143.14 319.77 143.10 L 319.43 144.58 C 320.18 144.55 321.68 144.50 322.43 144.48 C 323.26 145.62 324.10 146.76 324.93 147.91 C 322.91 147.46 320.96 146.79 318.94 146.37 C 321.76 147.60 324.69 148.58 327.38 150.10 C 326.56 150.12 324.93 150.18 324.12 150.21 C 325.40 151.39 326.67 152.60 327.88 153.86 C 326.84 153.84 324.76 153.79 323.72 153.76 C 325.92 155.39 329.15 156.10 329.99 159.06 C 331.34 162.65 334.27 165.20 336.91 167.83 C 335.49 167.82 334.38 167.23 333.58 166.05 L 333.34 167.50 C 331.05 166.90 326.47 169.19 327.12 165.24 L 325.67 166.04 C 325.62 165.24 325.52 163.62 325.47 162.82 C 324.25 164.54 323.75 166.63 323.34 168.66 C 319.84 168.86 316.85 171.18 313.52 172.18 C 313.50 173.63 313.83 175.36 311.91 175.70 C 311.68 177.17 311.39 178.62 311.05 180.06 C 310.44 179.19 309.84 178.33 309.23 177.48 C 307.94 179.95 306.70 182.48 304.89 184.62 C 305.13 183.60 305.59 181.55 305.82 180.53 C 305.01 181.21 303.40 182.57 302.59 183.25 C 303.19 181.48 303.88 179.75 304.55 178.01 C 303.71 178.47 302.02 179.39 301.17 179.85 C 301.23 179.45 301.34 178.64 301.39 178.24 C 300.90 178.27 299.91 178.31 299.41 178.34 C 299.70 177.72 300.29 176.49 300.58 175.88 L 297.88 176.57 C 299.00 173.63 301.31 171.50 303.12 169.01 C 300.99 170.58 299.36 172.68 297.46 174.50 C 297.49 173.79 297.55 172.35 297.57 171.63 L 295.16 171.84 C 296.54 170.36 298.01 168.96 299.34 167.43 C 297.22 168.20 294.85 168.60 293.33 170.44 C 293.34 169.43 293.53 168.43 293.64 167.43 C 292.94 168.02 291.54 169.21 290.83 169.80 L 292.52 169.08 C 292.53 170.47 291.69 172.33 293.62 172.90 C 292.19 173.53 290.68 174.13 289.25 174.72 C 290.00 173.64 290.95 172.73 291.92 171.85 C 291.51 171.82 290.69 171.74 290.27 171.71 L 290.48 170.77 C 289.83 170.32 288.51 169.40 287.85 168.95 C 289.01 168.13 290.19 167.33 291.37 166.51 C 289.56 166.60 287.74 166.58 285.94 166.51 C 287.41 163.51 292.63 162.57 291.47 158.61 C 291.14 159.22 290.50 160.44 290.18 161.05 C 288.74 162.38 287.32 163.75 285.92 165.14 C 285.54 164.38 284.76 162.87 284.37 162.12 C 287.10 161.65 289.21 159.42 290.18 156.91 C 288.13 158.69 286.17 160.62 283.70 161.82 C 283.39 159.07 283.70 156.31 284.46 153.66 C 285.96 152.74 287.18 151.48 288.15 150.00 C 288.61 150.70 289.08 151.39 289.55 152.08 C 291.23 150.39 292.92 148.71 294.66 147.07 C 294.66 146.78 294.65 146.19 294.65 145.90 C 293.07 147.25 291.48 148.61 290.06 150.13 C 288.93 149.66 287.77 149.20 286.63 148.81 C 288.59 147.67 290.55 146.50 292.35 145.11 C 293.83 144.04 295.26 142.89 296.45 141.51 C 295.79 141.98 294.47 142.94 293.81 143.42 C 293.38 142.84 292.93 142.28 292.51 141.70 C 290.80 143.11 288.64 143.42 286.53 143.73 C 285.92 144.68 285.40 145.68 284.97 146.73 C 287.83 145.92 290.33 144.26 292.45 142.20 C 292.43 142.93 292.38 144.38 292.35 145.11 C 289.74 145.21 287.79 147.60 285.25 147.79 C 285.01 147.39 284.52 146.59 284.28 146.19 C 283.84 146.47 282.97 147.03 282.54 147.31 C 283.36 151.26 281.59 155.09 281.86 159.01 C 281.15 159.52 279.73 160.55 279.02 161.07 C 279.58 159.90 280.19 158.76 280.82 157.63 C 280.06 157.52 278.54 157.28 277.78 157.17 L 277.55 158.04 L 279.91 158.35 C 278.92 159.01 277.96 159.69 276.97 160.34 L 278.91 161.76 C 277.21 163.10 275.47 163.23 274.24 161.50 C 274.37 159.97 276.42 159.64 277.21 158.53 C 276.47 158.15 274.98 157.39 274.24 157.00 C 274.17 156.78 274.03 156.33 273.96 156.11 L 275.65 157.39 C 275.71 156.36 275.84 154.30 275.91 153.27 C 275.04 153.36 273.30 153.53 272.43 153.62 C 272.25 154.27 271.89 155.57 271.71 156.22 C 271.25 154.68 270.75 153.15 270.20 151.63 C 269.52 152.74 268.86 153.85 268.21 154.98 C 268.68 163.00 263.46 169.50 260.78 176.65 C 258.83 180.28 256.48 183.73 255.41 187.75 C 255.60 185.11 255.61 182.45 255.36 179.81 L 254.11 179.69 L 253.56 179.40 C 255.69 175.13 258.66 171.17 259.52 166.36 C 260.19 166.21 261.55 165.93 262.23 165.78 C 261.49 165.80 260.00 165.85 259.26 165.87 C 261.41 163.60 262.59 160.69 264.12 158.02 C 263.65 157.84 262.70 157.47 262.22 157.29 C 263.21 155.67 263.83 153.80 265.28 152.50 C 264.72 153.73 263.59 156.21 263.03 157.44 L 265.34 157.84 C 265.07 154.51 265.87 151.37 266.89 148.25 C 267.81 147.07 268.22 145.63 268.65 144.23 L 266.66 144.96 C 268.65 139.47 264.53 144.44 262.65 144.65 L 262.70 143.28 C 261.83 143.40 260.10 143.64 259.24 143.76 L 261.79 140.89 L 257.58 142.92 C 258.04 142.09 258.52 141.25 259.00 140.42 C 260.29 140.59 261.86 140.21 262.67 141.53 C 263.65 141.53 265.61 141.54 266.59 141.55 L 266.44 140.37 C 266.94 140.45 267.94 140.61 268.43 140.70 C 268.40 140.06 268.34 138.79 268.31 138.15 C 269.25 139.42 270.12 140.73 271.08 141.99 C 271.40 142.21 272.04 142.65 272.36 142.87 C 272.43 143.48 272.56 144.70 272.62 145.31 C 272.16 145.00 271.25 144.37 270.79 144.06 C 269.15 143.70 268.87 145.92 267.89 146.75 C 269.96 146.12 271.75 147.34 273.66 147.81 L 273.54 148.96 C 274.47 148.59 276.33 147.84 277.26 147.47 C 276.65 148.19 275.43 149.64 274.83 150.36 L 276.62 150.41 C 276.57 151.12 276.47 152.56 276.42 153.28 C 276.80 153.48 277.55 153.87 277.93 154.07 C 280.64 156.42 281.22 151.13 279.59 149.66 L 279.10 152.83 C 278.86 152.81 278.38 152.78 278.14 152.76 C 277.90 151.98 277.44 150.42 277.21 149.65 L 278.17 149.50 C 278.38 148.22 278.66 146.96 279.02 145.71 C 279.67 147.09 280.30 148.48 280.91 149.89 C 281.14 148.61 281.36 147.33 281.58 146.05 L 282.22 146.65 C 282.86 145.67 284.65 145.36 284.76 144.15 C 283.71 143.72 282.63 143.39 281.51 143.16 C 281.34 142.16 281.23 141.16 281.17 140.15 C 280.39 138.83 279.63 137.50 278.88 136.17 C 279.58 136.24 280.97 136.39 281.66 136.46 L 281.31 137.91 C 281.51 137.88 281.89 137.82 282.09 137.79 C 282.78 136.05 284.09 134.68 285.15 133.17 C 287.08 131.94 289.06 130.76 291.13 129.77 L 291.40 129.62 C 293.05 128.94 294.63 128.11 296.13 127.13 C 294.29 127.63 292.55 128.41 290.73 128.97 L 290.88 129.31 C 289.41 129.93 286.48 131.17 285.01 131.80 C 285.75 130.88 287.22 129.05 287.95 128.13 L 287.37 128.13 C 286.59 128.94 285.80 129.75 285.03 130.56 L 283.47 129.86 C 284.67 128.78 285.89 127.73 287.15 126.73 L 286.34 125.85 C 287.46 125.63 288.57 125.37 289.68 125.07 C 289.07 124.52 288.47 123.98 287.87 123.44 C 287.30 124.18 286.72 124.93 286.14 125.67 C 284.90 124.08 283.59 122.56 282.27 121.04 C 282.40 120.44 282.66 119.23 282.79 118.63 L 280.55 119.04 C 280.80 117.33 281.12 115.28 278.57 115.84 L 280.58 116.59 C 279.86 117.74 279.14 118.91 278.44 120.08 C 276.30 117.58 272.87 115.50 273.49 111.70 C 272.97 111.78 271.91 111.94 271.39 112.01 C 271.05 108.03 267.17 105.00 268.53 100.80 C 267.72 101.31 266.11 102.33 265.30 102.84 C 265.90 104.86 266.69 106.82 267.58 108.73 C 266.84 109.50 266.13 110.30 265.45 111.12 C 266.54 114.37 267.52 117.80 267.06 121.27 C 265.37 119.41 265.17 116.85 264.23 114.64 C 263.54 112.56 262.38 110.38 263.45 108.14 L 265.54 110.98 C 265.29 107.88 264.73 104.82 264.23 101.75 C 262.91 100.74 260.25 98.72 258.93 97.71 C 263.21 101.77 262.61 107.63 262.64 112.92 C 263.45 115.74 266.20 118.44 264.74 121.45 C 262.56 118.19 261.57 114.08 258.25 111.67 C 258.93 115.32 262.33 117.81 262.49 121.64 C 261.92 121.41 260.77 120.94 260.20 120.70 C 259.68 121.02 258.65 121.65 258.13 121.96 C 254.63 119.23 253.64 114.61 250.59 111.48 C 250.71 110.92 250.94 109.78 251.06 109.21 C 248.97 109.85 246.97 109.40 245.26 108.14 C 246.59 106.93 247.77 105.59 248.76 104.08 C 247.27 104.38 245.78 104.66 244.29 104.92 C 243.77 105.19 242.72 105.73 242.20 106.01 C 242.59 107.51 243.17 108.96 243.88 110.35 C 242.95 111.20 242.02 112.04 241.09 112.88 L 240.51 112.14 C 242.44 111.71 241.70 110.39 241.49 109.34 C 239.44 111.97 235.29 111.32 234.11 114.95 C 235.38 114.47 236.64 113.97 237.89 113.43 C 238.60 114.38 239.33 115.33 240.03 116.29 C 239.08 115.55 238.12 114.82 237.16 114.10 C 233.95 117.02 230.73 119.92 227.62 122.94 C 227.18 122.14 226.75 121.34 226.28 120.55 C 225.34 121.84 224.34 123.08 223.27 124.25 C 223.00 124.87 222.46 126.10 222.20 126.72 C 223.04 126.21 224.72 125.18 225.57 124.66 C 225.24 128.30 218.61 128.28 220.59 132.34 C 219.85 132.33 218.37 132.32 217.63 132.31 C 218.44 132.58 220.05 133.14 220.86 133.42 L 218.71 134.76 C 219.43 134.72 220.88 134.65 221.61 134.62 L 220.59 135.45 L 220.18 136.13 L 219.77 136.76 C 218.39 137.78 216.82 138.49 215.37 139.40 C 213.83 140.51 212.37 142.30 210.24 141.77 C 210.78 140.50 212.24 140.04 213.26 139.24 C 213.98 138.46 216.11 138.50 215.84 137.13 C 214.26 136.53 212.11 138.78 211.01 137.27 C 212.48 135.29 216.52 136.08 216.89 133.30 C 213.76 134.16 211.29 137.06 207.78 136.50 C 209.47 134.08 212.85 133.86 214.78 131.63 C 215.78 131.21 216.78 130.80 217.79 130.40 L 217.44 129.93 C 219.07 128.93 220.61 127.79 222.30 126.87 C 221.61 125.99 220.90 125.12 220.21 124.24 L 218.53 126.57 L 217.46 124.06 C 218.40 123.85 220.27 123.43 221.21 123.21 C 221.98 121.65 224.12 119.49 221.13 119.17 C 220.11 120.78 218.91 122.25 217.75 123.76 L 215.47 122.64 C 216.61 123.97 218.05 125.10 218.33 127.01 C 216.79 125.80 215.07 124.92 213.19 124.41 C 214.08 123.70 214.96 122.99 215.83 122.27 C 218.17 120.40 220.32 118.29 222.21 115.95 C 219.43 117.40 217.20 119.62 214.82 121.60 L 215.83 122.27 C 211.98 122.02 210.30 127.57 206.15 127.20 C 209.47 123.53 213.89 121.07 217.35 117.55 C 220.14 114.25 223.70 111.67 226.06 108.00 C 221.64 109.43 219.00 113.74 214.61 115.29 C 214.61 114.77 214.60 113.71 214.60 113.18 C 212.78 115.13 209.95 114.60 207.62 115.36 C 206.99 116.75 206.01 117.68 204.68 118.15 C 205.06 118.62 205.45 119.08 205.83 119.55 C 206.77 118.58 207.72 117.64 208.69 116.71 L 208.28 119.61 C 209.58 118.49 210.93 117.45 212.34 116.49 C 208.96 119.81 205.89 124.50 200.88 125.24 C 198.24 125.69 196.43 127.93 193.97 128.87 C 195.57 125.96 198.60 124.29 201.41 122.77 C 200.98 122.38 200.55 121.99 200.12 121.61 C 198.32 122.72 196.45 123.72 194.61 124.78 C 194.11 124.62 193.10 124.29 192.60 124.13 C 192.72 123.67 192.97 122.76 193.09 122.30 C 190.22 121.98 187.51 122.74 184.83 123.65 C 187.76 121.04 191.74 120.17 194.85 117.82 C 193.79 117.72 191.68 117.52 190.62 117.43 C 193.68 115.75 196.85 114.29 199.90 112.59 C 202.09 111.41 204.33 109.99 206.94 110.22 C 204.66 114.03 200.20 115.37 196.78 117.87 C 198.47 117.62 200.13 117.19 201.76 116.67 C 201.71 117.25 201.61 118.40 201.56 118.98 C 206.96 114.79 213.07 111.26 217.62 106.14 C 214.55 107.57 212.07 110.06 208.99 111.41 C 208.59 111.26 207.80 110.97 207.40 110.82 C 210.02 109.26 212.39 107.32 214.94 105.67 C 214.38 105.59 213.27 105.44 212.71 105.36 L 212.26 104.70 C 212.62 104.27 213.35 103.40 213.72 102.96 C 212.60 103.60 211.43 104.74 210.07 103.94 L 209.30 103.25 C 209.79 103.02 210.77 102.56 211.26 102.33 C 211.43 102.01 211.78 101.36 211.96 101.04 C 213.40 99.52 215.18 98.42 216.91 97.28 C 214.35 98.13 211.88 99.25 209.31 100.10 L 209.77 98.09 C 204.76 99.86 199.53 100.56 194.32 101.41 L 194.53 99.84 C 196.60 99.59 198.62 99.01 200.52 98.15 C 198.16 98.62 194.37 97.36 193.60 100.63 C 193.53 99.76 193.40 98.03 193.34 97.16 C 192.50 97.24 190.82 97.39 189.98 97.47 C 188.59 97.39 187.20 97.40 185.81 97.40 C 185.42 97.05 184.64 96.34 184.25 95.98 C 187.81 94.78 191.56 93.98 194.85 92.08 C 192.35 92.24 189.89 92.70 187.40 92.86 C 189.53 91.47 192.02 90.77 194.15 89.38 C 191.85 89.31 189.19 91.46 187.05 89.74 C 186.21 89.42 185.37 89.10 184.54 88.77 C 186.92 88.26 189.29 87.66 191.70 87.27 C 191.70 87.08 191.71 86.70 191.71 86.51 C 189.02 87.04 186.28 87.29 183.53 87.11 C 182.88 85.31 181.60 84.11 179.71 83.50 C 184.28 83.49 188.84 83.39 193.41 83.36 C 193.74 82.87 194.42 81.90 194.75 81.41 C 197.68 81.43 200.59 81.15 203.45 80.54 L 202.98 79.39 C 207.97 79.94 214.02 76.61 218.08 81.00 C 216.33 81.61 214.61 82.26 212.89 82.93 C 211.23 83.66 209.43 83.75 207.65 83.80 L 209.18 85.17 C 208.14 84.90 206.08 84.35 205.04 84.08 C 205.27 84.75 205.71 86.08 205.94 86.74 C 204.99 87.76 201.54 87.74 202.64 89.80 C 204.08 88.38 206.50 87.49 206.43 85.08 C 207.23 85.21 208.84 85.46 209.64 85.58 L 209.44 84.77 C 213.06 83.63 216.63 82.34 220.29 81.28 C 219.18 80.52 218.07 79.78 216.96 79.04 C 219.33 78.65 221.70 78.01 224.14 78.08 C 223.36 79.27 222.39 80.30 221.27 81.17 C 222.60 80.46 223.93 79.72 225.40 79.32 C 225.10 79.18 224.49 78.89 224.19 78.75 C 224.39 77.87 225.04 77.36 226.15 77.21 C 222.25 77.83 218.31 76.91 214.39 77.36 C 214.91 76.70 215.44 76.05 215.99 75.41 C 218.91 75.56 221.83 75.56 224.76 75.64 L 224.03 74.33 C 227.73 74.37 231.58 74.91 235.05 73.26 C 234.40 73.04 233.10 72.59 232.45 72.37 L 233.21 73.45 C 229.89 73.47 226.57 73.58 223.25 73.43 C 223.43 73.83 223.80 74.62 223.98 75.02 C 222.45 74.81 220.92 74.59 219.39 74.40 L 219.51 73.71 C 218.10 73.63 216.69 73.54 215.29 73.45 C 215.28 72.58 215.26 70.85 215.25 69.98 C 215.91 70.37 217.23 71.15 217.89 71.54 C 221.38 71.66 224.88 71.68 228.37 71.56 C 225.19 70.72 221.90 70.44 218.62 70.35 C 217.20 69.94 215.78 69.52 214.36 69.12 L 214.86 70.87 C 212.42 70.26 209.91 70.13 207.41 70.16 C 207.35 69.52 207.23 68.25 207.17 67.61 C 208.99 67.63 210.81 67.57 212.64 67.54 L 212.22 66.24 C 214.21 66.42 216.21 66.63 218.22 66.72 C 216.24 66.14 214.17 65.81 212.34 64.82 C 212.43 64.43 212.60 63.67 212.69 63.28 C 212.19 63.79 211.19 64.81 210.69 65.32 C 210.50 64.43 210.14 62.66 209.95 61.78 L 210.38 62.66 C 215.74 61.95 220.80 64.72 226.10 65.21 C 226.64 65.03 227.18 64.86 227.73 64.69 C 223.78 64.27 219.90 62.91 216.18 61.67 C 217.28 59.96 220.20 61.44 222.07 61.32 C 220.25 60.85 218.40 60.56 216.52 60.47 C 217.56 59.51 218.55 58.50 219.51 57.46 C 221.13 58.62 224.70 58.78 224.81 61.30 L 225.95 62.02 C 225.93 59.15 223.19 57.10 220.40 57.47 C 219.88 55.91 218.57 56.69 217.65 57.34 C 216.16 56.90 214.66 56.49 213.17 56.06 L 213.03 56.57 C 214.63 56.95 216.24 57.34 217.85 57.73 C 217.58 58.21 217.04 59.17 216.76 59.64 C 213.14 57.78 209.20 56.73 205.30 55.60 L 205.75 54.49 C 203.86 53.64 201.99 52.73 200.10 51.86 C 199.63 50.93 199.17 49.99 198.72 49.06 C 200.13 49.68 201.54 50.30 202.96 50.92 C 202.81 50.30 202.51 49.06 202.36 48.44 C 207.00 51.13 211.39 55.15 217.11 54.73 C 213.06 52.90 208.93 51.19 205.11 48.88 C 205.48 48.66 206.23 48.23 206.61 48.01 C 211.09 50.58 216.18 51.71 220.76 54.05 L 220.53 51.71 C 217.28 50.86 214.25 48.65 210.74 49.37 C 207.66 48.23 204.52 46.75 203.40 43.40 C 205.81 44.61 210.32 43.22 210.70 46.67 C 212.18 47.10 213.66 47.54 215.15 47.91 C 212.74 46.27 210.44 44.34 207.64 43.39 C 206.17 42.84 204.57 41.93 204.89 40.09 C 209.10 41.01 212.58 43.60 216.54 45.11 C 213.28 42.13 209.02 40.56 205.59 37.76 C 205.61 35.89 203.95 34.91 202.80 33.71 C 203.86 33.61 204.92 33.44 206.00 33.38 C 207.59 34.19 208.72 35.69 210.09 36.82 C 212.22 38.00 214.05 39.63 216.10 40.93 C 214.57 39.09 212.59 37.72 210.71 36.25 C 207.83 33.83 205.38 30.96 203.41 27.75 C 205.11 29.89 208.88 29.80 210.04 32.43 C 210.23 32.44 210.60 32.47 210.78 32.48 C 212.01 33.89 213.32 35.24 214.91 36.24 C 213.71 34.69 212.32 33.27 211.02 31.81 L 211.91 31.76 C 212.74 31.72 213.58 31.65 214.42 31.53 C 212.12 29.08 209.43 26.88 207.74 23.94 C 210.55 25.15 212.40 27.70 214.47 29.84 L 215.57 28.70 C 213.96 31.00 216.77 32.04 217.91 33.39 C 217.32 32.02 215.85 30.69 216.99 29.17 L 217.41 28.64 C 216.67 26.04 213.72 24.48 212.17 22.28 C 213.29 22.37 214.41 22.53 215.53 22.75 C 218.96 25.49 220.96 29.71 224.76 32.05 C 224.66 32.40 224.46 33.12 224.36 33.48 L 226.55 32.93 L 225.49 34.72 L 226.56 33.92 C 227.56 36.00 228.72 38.04 230.42 39.63 C 231.14 40.64 232.59 42.68 233.31 43.70 C 232.56 43.38 231.07 42.74 230.32 42.42 C 231.55 43.41 232.91 47.02 234.64 44.77 C 235.26 45.11 236.49 45.78 237.10 46.12 C 234.36 42.92 231.66 39.67 229.04 36.37 C 230.44 36.17 231.83 36.50 233.22 36.67 C 233.30 37.44 233.45 38.99 233.53 39.76 C 236.18 42.28 238.51 45.31 241.86 46.94 C 238.20 43.15 234.45 39.35 232.37 34.40 C 230.76 34.44 229.16 34.61 227.58 34.96 C 227.96 32.81 227.05 32.00 224.84 32.55 C 225.33 30.89 226.01 29.30 226.48 27.64 C 225.83 26.42 224.93 25.35 223.88 24.46 C 224.42 25.29 225.50 26.96 226.04 27.80 C 225.22 27.62 223.57 27.26 222.75 27.09 C 223.81 28.48 225.50 29.72 224.97 31.80 C 222.47 29.21 220.35 26.30 218.19 23.43 C 218.29 22.74 218.50 21.37 218.61 20.68 C 218.28 20.41 217.64 19.88 217.31 19.62 C 217.73 19.03 218.56 17.85 218.97 17.26 C 219.19 18.19 219.39 19.12 219.59 20.06 C 219.94 19.61 220.62 18.72 220.97 18.27 C 220.97 21.14 223.37 21.85 225.68 22.49 C 225.33 22.79 224.64 23.38 224.30 23.68 C 224.95 23.56 226.27 23.32 226.92 23.20 C 226.01 21.16 224.77 19.24 224.17 17.07 C 224.83 16.31 225.56 15.62 226.28 14.91 L 226.06 16.48 L 230.11 16.96 C 229.68 16.22 228.83 14.74 228.40 14.00 C 229.30 14.57 230.19 15.16 231.09 15.74 C 231.88 17.86 232.68 19.97 233.49 22.08 C 233.63 19.55 233.14 16.86 234.01 14.41 C 234.59 14.41 235.74 14.42 236.32 14.43 C 236.66 18.27 238.48 21.69 240.40 24.95 L 240.25 22.32 C 243.69 21.49 241.80 26.66 243.58 28.35 C 244.89 22.35 240.81 16.91 241.57 10.88 M 272.43 19.16 C 272.48 21.03 272.65 22.99 271.85 24.74 C 270.79 27.70 272.31 30.96 271.04 33.89 C 270.31 35.96 269.58 38.04 269.04 40.18 C 268.54 39.69 267.55 38.73 267.05 38.24 C 267.47 38.89 268.31 40.19 268.73 40.84 C 267.37 41.97 267.35 43.71 267.22 45.35 C 268.38 43.36 269.59 41.38 270.03 39.09 C 270.88 35.73 272.90 32.59 272.48 28.99 L 273.76 29.75 C 274.27 28.71 274.80 27.68 275.36 26.66 C 277.82 25.54 279.89 20.59 276.22 19.93 C 275.68 21.57 275.25 23.23 274.92 24.92 C 273.47 23.26 273.34 21.11 273.35 19.02 C 273.12 19.05 272.66 19.12 272.43 19.16 M 280.36 22.21 L 280.74 23.66 L 279.55 23.46 C 279.56 24.05 279.56 25.22 279.56 25.81 C 279.77 25.83 280.18 25.86 280.39 25.88 C 280.92 24.67 281.46 23.46 281.98 22.23 C 281.57 22.23 280.77 22.22 280.36 22.21 M 228.82 26.17 C 230.18 27.82 231.45 29.55 232.96 31.08 C 234.59 29.55 231.37 28.10 230.97 26.53 C 230.43 26.44 229.36 26.26 228.82 26.17 M 266.76 27.40 C 266.77 28.00 266.79 29.18 266.80 29.78 C 268.28 30.15 268.27 26.73 266.76 27.40 M 278.72 33.83 C 278.37 33.34 277.68 32.36 277.33 31.87 C 277.51 33.31 277.63 34.75 277.66 36.20 C 277.78 36.08 278.01 35.83 278.13 35.70 C 279.29 33.71 280.80 31.94 282.51 30.40 L 281.26 28.89 C 280.32 30.49 279.36 32.08 278.72 33.83 M 215.35 33.02 C 215.70 33.33 215.70 33.33 215.35 33.02 M 234.69 34.78 C 236.47 38.48 239.19 41.72 242.46 44.20 C 240.35 40.71 237.67 37.56 234.69 34.78 M 219.02 40.00 C 219.72 40.59 219.72 40.59 219.02 40.00 C 218.36 39.36 218.36 39.36 219.02 40.00 M 236.54 48.78 C 237.36 49.74 238.15 50.73 238.93 51.73 C 239.25 51.56 239.87 51.23 240.18 51.06 L 237.93 49.71 C 239.55 48.52 241.16 49.85 242.16 51.14 L 244.82 52.12 C 243.10 50.56 241.49 48.91 239.76 47.38 C 238.75 47.99 237.68 48.49 236.54 48.78 M 295.17 51.51 C 296.47 52.20 298.66 49.37 297.12 48.60 C 295.93 48.83 294.74 50.28 295.17 51.51 M 304.44 49.61 C 304.26 50.89 304.99 52.86 303.01 52.86 C 302.12 54.04 301.20 55.20 300.36 56.41 C 301.98 55.41 303.57 54.35 305.19 53.34 C 305.05 51.73 305.85 50.39 306.72 49.11 C 306.15 49.24 305.01 49.48 304.44 49.61 M 298.01 52.59 C 299.41 52.90 299.95 52.37 299.64 51.00 C 298.27 50.70 297.73 51.23 298.01 52.59 M 249.37 53.96 C 249.57 55.34 251.48 56.40 252.73 55.73 C 253.76 53.95 250.17 52.02 249.37 53.96 M 316.18 77.50 C 315.41 79.26 319.56 80.17 319.70 78.30 C 319.09 77.13 317.22 76.74 316.18 77.50 M 238.39 87.47 C 237.37 87.51 235.45 89.63 237.38 89.80 C 238.91 90.05 241.11 86.37 238.39 87.47 M 278.26 93.24 C 277.46 94.34 278.52 97.26 280.09 96.23 C 280.92 95.11 279.79 92.33 278.26 93.24 M 218.62 105.55 C 220.33 105.85 222.21 103.81 222.67 102.34 C 221.02 102.44 218.73 103.75 218.62 105.55 M 279.06 102.31 C 278.28 103.51 278.55 104.27 279.88 104.59 C 280.66 103.38 280.38 102.62 279.06 102.31 M 294.86 106.36 C 294.90 105.12 294.54 104.06 293.78 103.18 C 291.80 103.43 294.00 108.98 294.86 106.36 M 305.22 106.26 C 305.86 106.80 305.86 106.80 305.22 106.26 M 304.20 108.02 C 304.27 108.80 304.42 110.38 304.49 111.17 C 305.35 112.29 305.96 113.57 306.49 114.88 L 306.92 114.98 C 306.76 113.88 306.61 112.79 306.48 111.69 C 305.69 110.48 304.99 109.22 304.20 108.02 M 313.73 111.70 C 314.37 111.91 315.64 112.33 316.27 112.54 C 316.45 109.95 310.88 107.87 313.73 111.70 M 309.33 113.83 C 308.81 115.38 309.37 115.99 311.00 115.67 C 311.52 114.09 310.96 113.48 309.33 113.83 M 199.97 118.79 C 198.21 120.49 195.34 120.75 193.79 122.42 L 193.92 123.10 C 196.73 123.40 198.53 120.24 201.27 119.75 C 200.84 119.43 200.41 119.11 199.97 118.79 M 203.41 119.25 C 203.05 119.62 202.31 120.34 201.94 120.71 C 202.45 120.74 203.47 120.79 203.98 120.82 C 203.84 120.43 203.56 119.64 203.41 119.25 M 228.03 119.34 C 228.40 119.77 228.40 119.77 228.03 119.34 M 311.23 123.29 C 311.90 123.79 311.90 123.79 311.23 123.29 M 284.27 136.12 C 284.63 137.17 284.98 138.23 285.35 139.29 C 284.52 139.47 282.87 139.85 282.04 140.04 C 282.09 140.24 282.18 140.63 282.22 140.82 C 282.68 140.89 283.61 141.01 284.07 141.08 C 284.67 141.86 285.23 142.69 285.81 143.51 C 286.77 143.02 288.69 142.06 289.65 141.57 C 288.52 140.78 287.38 140.02 286.23 139.28 C 287.54 138.15 288.88 137.03 290.09 135.79 C 288.51 136.77 287.04 137.92 285.58 139.06 C 285.61 138.35 285.68 136.93 285.72 136.22 C 285.36 136.19 284.63 136.14 284.27 136.12 M 293.85 152.97 C 292.58 153.73 291.16 153.73 289.78 153.28 C 288.49 154.53 287.19 155.78 285.98 157.11 C 287.70 155.99 289.32 154.72 291.16 153.82 C 291.26 154.82 291.46 156.81 291.56 157.80 C 292.74 157.09 293.95 156.38 295.13 155.65 L 292.76 155.09 C 293.89 153.98 295.20 153.09 296.60 152.37 C 298.43 151.38 300.26 150.37 302.02 149.26 C 299.12 150.06 296.31 151.20 293.85 152.97 M 262.66 165.79 L 264.34 165.81 C 265.91 162.27 268.11 158.85 267.97 154.80 C 265.02 157.81 264.04 161.96 262.66 165.79 Z" />
<path fill="#ffffff" opacity="1.00" d=" M 252.57 16.59 C 252.71 14.62 251.04 12.03 253.19 10.72 C 253.77 13.09 254.35 15.46 254.81 17.87 C 254.25 17.55 253.13 16.91 252.57 16.59 Z" />
<path fill="#ffffff" opacity="1.00" d=" M 238.41 14.18 C 239.58 15.45 240.68 16.78 241.69 18.18 C 241.15 19.33 240.60 20.48 240.04 21.63 C 238.93 19.29 238.19 16.79 238.41 14.18 Z" />
<path fill="#ffffff" opacity="1.00" d=" M 269.47 15.71 C 271.02 15.64 270.59 19.22 269.14 19.10 C 268.59 17.92 268.70 16.79 269.47 15.71 Z" />
<path fill="#ffffff" opacity="1.00" d=" M 302.59 14.93 C 303.15 18.35 303.26 21.84 304.30 25.17 C 304.48 22.95 304.70 20.74 304.88 18.52 C 305.48 17.94 306.08 17.37 306.69 16.80 C 306.61 19.39 306.32 21.96 306.34 24.55 C 307.30 22.68 307.80 20.62 308.36 18.60 C 309.13 18.61 309.91 18.61 310.69 18.60 C 310.50 19.38 310.13 20.94 309.95 21.72 C 310.78 21.49 312.46 21.03 313.29 20.80 C 312.04 22.80 310.77 24.78 309.52 26.78 C 310.01 26.52 310.98 26.00 311.46 25.74 C 312.56 24.20 313.78 22.76 315.13 21.43 C 315.56 22.59 315.99 23.74 316.42 24.90 C 317.08 24.74 318.39 24.42 319.05 24.26 C 318.33 24.74 317.61 25.22 316.90 25.70 C 316.07 25.05 315.24 24.41 314.41 23.78 C 314.44 24.35 314.51 25.50 314.54 26.07 C 313.18 26.99 311.89 28.01 310.63 29.05 C 310.19 28.17 309.74 27.29 309.26 26.43 L 308.07 29.21 C 307.78 29.08 307.21 28.81 306.92 28.67 C 306.44 29.33 305.48 30.65 304.99 31.30 C 304.79 30.30 304.38 28.29 304.18 27.28 C 303.46 27.60 302.76 27.92 302.05 28.24 C 303.19 29.45 304.32 30.68 305.43 31.93 C 303.80 31.14 300.55 29.56 298.93 28.77 C 300.53 30.66 302.45 32.31 304.25 34.02 C 302.27 33.41 300.29 32.79 298.27 32.34 L 298.66 31.80 C 297.17 31.53 295.69 31.19 294.22 30.90 C 295.16 30.31 296.12 29.77 297.10 29.25 C 294.06 27.36 291.44 24.90 288.80 22.51 C 289.92 22.92 292.17 23.74 293.29 24.15 C 292.83 23.15 291.91 21.17 291.45 20.18 C 292.09 20.80 293.35 22.04 293.99 22.66 C 294.24 21.28 294.72 19.95 295.25 18.65 C 294.93 18.37 294.29 17.81 293.98 17.52 C 294.29 17.47 294.92 17.37 295.24 17.32 C 295.54 18.48 295.86 19.63 296.18 20.78 C 296.50 20.12 297.14 18.78 297.46 18.12 C 298.06 18.46 299.27 19.14 299.87 19.48 C 299.74 18.68 299.49 17.08 299.37 16.28 C 299.57 16.31 299.99 16.38 300.19 16.41 C 300.20 17.32 300.21 19.14 300.21 20.05 L 302.10 18.96 C 302.22 17.95 302.47 15.94 302.59 14.93 Z" />
<path fill="#ffffff" opacity="1.00" d=" M 252.88 17.14 C 254.59 18.71 256.72 20.48 254.89 22.86 C 251.83 23.03 253.55 18.76 252.88 17.14 Z" />
<path fill="#ffffff" opacity="1.00" d=" M 211.67 23.95 C 213.20 24.49 215.14 26.22 215.16 27.99 C 213.84 28.63 211.74 25.35 211.67 23.95 Z" />
<path fill="#ffffff" opacity="1.00" d=" M 272.98 27.46 C 272.03 26.48 273.16 24.50 274.49 24.86 C 275.77 25.79 274.48 28.60 272.98 27.46 Z" />
<path fill="#ffffff" opacity="1.00" d=" M 287.71 25.94 C 289.93 23.66 292.30 27.51 294.57 27.89 C 294.11 28.52 293.65 29.16 293.20 29.80 C 291.40 28.46 289.54 27.23 287.71 25.94 Z" />
<path fill="#ffffff" opacity="1.00" d=" M 312.79 27.93 C 314.76 27.68 316.73 27.42 318.69 27.11 C 318.54 27.45 318.24 28.14 318.10 28.48 C 318.82 29.48 319.53 30.48 320.24 31.50 C 317.74 30.47 315.12 29.77 312.47 29.31 C 312.55 28.96 312.71 28.27 312.79 27.93 Z" />
<path fill="#ffffff" opacity="1.00" d=" M 225.24 28.24 C 225.58 28.58 225.58 28.58 225.24 28.24 Z" />
<path fill="#ffffff" opacity="1.00" d=" M 193.55 28.80 C 194.52 29.57 195.47 30.36 196.42 31.17 C 195.74 31.25 194.40 31.41 193.73 31.48 C 195.15 32.91 196.59 34.33 197.98 35.79 C 197.78 34.95 197.36 33.27 197.15 32.43 C 197.71 32.52 198.84 32.69 199.40 32.77 L 199.11 33.75 L 200.40 33.65 C 200.34 34.13 200.21 35.09 200.15 35.57 L 201.69 35.22 C 201.66 36.15 201.60 38.02 201.57 38.95 C 202.11 38.89 203.20 38.78 203.75 38.72 C 203.17 39.95 202.56 41.16 201.85 42.32 C 201.68 42.92 201.34 44.11 201.17 44.71 C 200.55 43.90 199.92 43.09 199.30 42.29 C 198.68 43.07 197.44 44.64 196.82 45.43 C 196.59 43.10 195.86 40.89 195.36 38.62 C 194.05 37.11 192.90 35.35 191.24 34.20 C 191.97 36.05 193.27 37.63 193.79 39.58 L 194.50 39.36 C 194.61 41.38 194.72 43.41 194.27 45.40 C 193.27 43.91 192.31 42.39 191.23 40.95 C 191.26 39.85 191.31 38.74 191.37 37.64 C 189.64 35.57 187.89 33.49 185.79 31.79 C 186.47 34.20 188.69 35.51 190.42 37.09 C 190.52 38.45 190.61 39.83 190.71 41.20 C 191.60 42.99 192.43 44.83 192.85 46.80 C 189.84 46.17 189.66 42.41 186.92 41.25 C 187.78 43.38 189.64 45.18 189.75 47.56 C 188.72 49.12 186.50 48.51 184.95 49.03 C 182.21 46.96 179.65 42.46 175.76 43.53 C 178.68 47.17 184.46 48.75 184.58 54.19 C 183.13 54.67 181.81 55.57 180.28 55.77 C 180.65 55.17 181.05 54.59 181.48 54.03 C 178.81 53.40 176.42 51.96 174.58 49.94 C 175.71 50.31 177.97 51.04 179.10 51.41 C 177.48 49.72 175.87 48.05 174.21 46.42 C 175.33 46.72 177.57 47.33 178.69 47.64 C 177.82 46.70 176.08 44.82 175.21 43.88 C 175.69 42.94 176.14 41.99 176.56 41.03 C 179.63 42.57 183.26 43.62 185.08 46.83 C 186.31 46.66 187.57 46.68 188.80 46.49 C 186.53 43.94 184.20 41.44 181.71 39.10 C 188.26 41.58 183.07 36.73 181.73 35.39 L 183.82 34.38 C 182.88 34.39 181.00 34.41 180.06 34.42 C 180.59 33.56 181.13 32.71 181.68 31.85 C 182.83 32.63 184.02 33.35 185.24 34.01 L 183.63 30.18 C 185.05 30.92 186.52 31.61 188.13 31.84 C 188.46 32.06 189.12 32.50 189.46 32.72 C 192.33 33.74 187.77 28.58 189.00 28.54 C 190.41 29.95 191.72 31.46 193.02 32.97 C 192.76 32.25 192.24 30.80 191.98 30.07 L 194.58 31.23 L 193.55 28.80 Z" />
<path fill="#ffffff" opacity="1.00" d=" M 211.91 31.76 C 211.19 31.11 211.19 31.11 211.91 31.76 Z" />
<path fill="#ffffff" opacity="1.00" d=" M 314.72 31.82 C 316.43 32.48 318.12 33.21 319.80 33.95 C 319.06 34.59 317.57 35.88 316.82 36.52 C 319.00 34.93 319.22 36.98 319.79 38.07 C 318.65 38.61 317.53 39.13 316.42 39.70 C 317.02 40.17 318.22 41.11 318.81 41.58 C 317.54 41.11 316.32 40.45 315.29 39.56 C 314.94 38.45 315.97 37.67 316.39 36.77 L 314.55 35.96 L 316.94 36.15 C 315.83 34.90 314.67 33.62 314.72 31.82 Z" />
<path fill="#ffffff" opacity="1.00" d=" M 165.50 34.81 C 164.79 33.66 166.92 33.40 167.67 33.41 L 168.10 33.91 C 169.10 35.21 170.79 33.41 172.07 33.44 C 169.95 34.96 167.65 36.21 165.50 37.68 C 167.11 37.25 170.33 36.39 171.94 35.96 L 170.19 37.61 C 169.48 37.88 168.07 38.43 167.36 38.71 C 168.54 38.67 169.71 38.62 170.89 38.57 L 170.75 40.01 C 169.37 40.16 168.00 40.39 166.65 40.70 C 167.82 40.67 170.15 40.60 171.32 40.56 C 169.20 41.47 170.50 45.04 168.00 45.12 C 162.39 46.05 156.95 47.64 151.35 48.59 L 151.20 46.73 C 153.30 46.40 155.89 46.75 157.30 44.77 C 154.78 44.08 152.25 43.45 149.76 42.68 C 150.54 42.52 152.11 42.20 152.89 42.04 C 154.70 42.59 156.59 42.82 158.48 42.88 C 156.29 41.72 153.93 40.97 151.66 40.03 C 154.24 39.09 157.66 39.79 159.01 42.35 C 160.18 42.45 161.34 42.54 162.51 42.64 L 162.52 40.83 C 161.36 40.58 160.24 40.25 159.13 39.84 C 157.09 38.95 154.92 38.05 153.65 36.12 C 156.08 36.70 158.40 37.67 160.74 38.54 L 160.34 39.58 C 161.54 39.63 162.73 39.68 163.93 39.72 C 163.48 39.33 162.58 38.53 162.12 38.14 C 163.20 37.02 164.91 36.53 165.83 35.29 L 165.50 34.81 Z" />
<path fill="#ffffff" opacity="1.00" d=" M 179.48 36.14 C 180.77 35.95 182.60 37.27 182.55 38.64 C 182.15 38.51 181.34 38.25 180.94 38.12 C 180.57 37.63 179.84 36.63 179.48 36.14 Z" />
<path fill="#ffffff" opacity="1.00" d=" M 177.59 38.22 C 178.43 38.20 180.10 38.15 180.94 38.12 L 179.33 38.56 C 181.03 39.99 184.48 40.77 184.40 43.44 L 184.36 44.46 C 181.92 42.59 179.64 40.52 177.59 38.22 Z" />
<path fill="#ffffff" opacity="1.00" d=" M 184.40 43.44 C 185.01 44.10 185.01 44.10 184.40 43.44 Z" />
<path fill="#ffffff" opacity="1.00" d=" M 167.85 47.49 C 168.33 47.06 169.28 46.20 169.76 45.77 C 169.39 46.27 168.67 47.28 168.31 47.78 C 168.92 51.85 163.93 51.37 161.27 51.99 C 161.35 52.52 161.52 53.57 161.61 54.10 C 159.15 55.18 156.58 55.99 154.11 57.07 C 152.74 56.83 151.36 56.59 149.99 56.38 C 151.02 55.39 151.95 54.04 153.64 54.51 L 153.72 52.43 C 152.61 52.50 150.40 52.63 149.29 52.70 C 151.03 50.98 153.57 51.48 155.77 51.42 L 155.35 50.46 C 156.60 50.47 157.86 50.49 159.12 50.49 C 159.27 47.23 163.59 48.97 165.63 48.53 L 165.52 47.54 C 166.11 47.53 167.27 47.50 167.85 47.49 Z" />
<path fill="#ffffff" opacity="1.00" d=" M 162.96 56.48 C 166.04 57.23 168.64 55.42 171.09 53.86 C 170.01 55.05 168.87 56.19 167.83 57.42 L 171.74 55.85 C 170.84 58.62 168.20 59.63 165.80 60.72 L 165.33 57.36 C 163.96 59.09 162.76 60.93 161.73 62.87 C 161.60 62.68 161.32 62.30 161.18 62.11 C 159.51 63.68 157.07 63.86 155.05 64.79 C 153.20 65.59 151.30 66.24 149.39 66.83 C 150.53 64.99 152.57 64.28 154.64 64.19 L 154.71 63.27 C 152.98 63.22 150.75 64.33 149.55 62.51 L 151.92 62.52 C 151.80 61.96 151.54 60.84 151.41 60.28 C 151.96 60.39 153.06 60.62 153.61 60.74 L 153.43 59.54 C 154.23 59.53 155.84 59.52 156.65 59.51 L 156.53 58.82 C 158.80 58.45 160.95 57.61 162.96 56.48 M 155.22 62.45 C 155.45 65.80 158.16 60.84 155.22 62.45 Z" />
<path fill="#ffffff" opacity="1.00" d=" M 174.97 54.36 C 176.54 54.52 178.11 54.71 179.68 54.93 C 177.08 56.50 179.71 57.52 181.38 58.13 L 181.16 55.96 C 182.51 56.27 183.89 56.56 185.22 56.95 C 183.38 59.03 180.98 60.07 178.20 59.77 L 178.96 58.55 C 177.24 59.07 175.56 59.12 174.51 57.52 C 175.48 57.46 177.40 57.33 178.36 57.26 C 177.22 56.30 176.07 55.36 174.97 54.36 Z" />
<path fill="#ffffff" opacity="1.00" d=" M 194.40 54.52 C 195.86 55.05 197.32 55.58 198.78 56.13 C 200.27 56.48 201.77 56.74 203.29 56.92 C 201.59 55.86 198.58 55.85 199.06 53.10 C 201.30 54.04 203.50 55.07 205.73 56.04 C 208.82 57.10 211.39 59.54 214.75 59.77 C 215.07 60.27 215.71 61.26 216.03 61.76 C 214.04 61.91 211.82 59.52 209.88 60.87 C 208.30 61.97 206.46 60.94 204.88 60.41 C 201.21 58.67 196.50 58.51 194.40 54.52 Z" />
<path fill="#ffffff" opacity="1.00" d=" M 179.67 62.47 C 182.97 60.28 186.23 58.05 189.63 56.03 C 189.79 58.87 189.16 61.64 188.48 64.37 C 187.27 64.70 184.72 63.48 184.92 65.69 C 184.58 68.33 181.95 69.66 180.42 71.58 C 179.47 71.50 178.53 71.42 177.60 71.34 L 177.89 70.60 C 176.39 70.05 174.97 69.29 173.73 68.28 C 175.93 67.52 178.07 66.57 180.35 66.02 C 179.65 66.99 178.93 67.94 178.18 68.87 C 178.47 69.32 179.04 70.23 179.33 70.68 C 179.67 69.40 180.14 68.16 180.80 67.01 C 183.15 66.73 184.94 65.01 184.79 62.53 C 183.09 62.45 181.38 62.43 179.67 62.47 Z" />
<path fill="#ffffff" opacity="1.00" d=" M 191.89 58.17 C 194.18 58.18 196.42 58.69 198.38 59.93 C 198.03 60.02 197.33 60.21 196.98 60.30 C 195.09 60.17 193.44 59.19 191.89 58.17 Z" />
<path fill="#ffffff" opacity="1.00" d=" M 197.16 62.31 C 197.39 61.92 197.85 61.14 198.08 60.75 C 198.59 61.14 198.77 61.70 198.63 62.43 C 199.81 62.54 201.00 62.67 202.19 62.80 C 200.93 62.65 200.20 62.05 199.98 61.01 C 200.73 61.01 202.25 61.01 203.00 61.01 C 204.92 61.84 207.05 62.22 208.84 63.31 C 208.68 64.42 207.08 64.12 206.31 64.54 C 207.99 64.58 209.51 65.25 210.79 66.35 C 207.12 66.78 203.64 65.21 199.99 65.26 C 197.57 65.38 195.20 64.92 192.86 64.39 C 192.70 63.83 192.40 62.73 192.24 62.18 C 193.88 62.27 195.52 62.36 197.16 62.31 Z" />
<path fill="#ffffff" opacity="1.00" d=" M 153.61 67.86 C 155.79 67.03 157.86 65.95 160.06 65.19 C 160.23 65.72 160.55 66.76 160.72 67.29 C 158.78 68.88 156.02 67.87 154.08 69.42 C 152.75 69.70 151.15 70.36 150.73 68.52 C 151.40 68.54 152.75 68.59 153.42 68.62 L 153.61 67.86 Z" />
<path fill="#ffffff" opacity="1.00" d=" M 171.60 68.00 C 172.42 66.96 173.29 65.96 174.17 64.98 C 174.98 65.14 176.61 65.48 177.43 65.64 C 175.51 66.49 173.57 67.28 171.60 68.00 Z" />
<path fill="#ffffff" opacity="1.00" d=" M 187.17 68.55 C 193.26 65.41 200.30 67.50 206.84 67.17 L 206.90 68.63 C 206.11 68.59 204.52 68.50 203.72 68.45 C 204.89 68.85 206.05 69.24 207.22 69.63 C 205.54 69.50 203.86 69.32 202.19 69.16 L 202.64 70.47 C 200.17 70.62 197.70 70.77 195.23 70.88 L 195.40 71.79 C 199.98 71.84 204.59 71.91 209.15 71.34 C 210.84 70.87 212.33 72.02 213.84 72.59 C 210.23 73.07 206.60 73.51 202.95 73.37 L 204.04 74.85 L 202.34 74.33 L 202.56 75.22 C 200.73 75.39 198.80 75.59 197.31 76.81 C 199.39 76.88 201.48 76.73 203.56 76.60 L 203.40 75.19 C 203.95 75.36 205.05 75.71 205.61 75.88 L 205.30 74.53 C 208.17 74.50 211.04 74.45 213.90 74.25 C 214.10 74.80 214.49 75.91 214.68 76.47 C 210.57 76.85 206.93 79.35 202.69 78.89 C 202.77 79.25 202.94 79.98 203.02 80.34 C 199.89 79.86 195.31 82.46 193.23 79.18 C 192.50 79.35 191.03 79.69 190.30 79.86 L 190.19 77.35 C 192.42 77.18 194.65 76.96 196.88 76.76 L 196.90 76.35 C 194.88 76.42 192.84 76.43 190.89 75.84 C 190.04 76.10 188.36 76.61 187.52 76.86 L 187.45 75.86 C 185.94 75.69 184.67 75.00 183.82 73.75 C 184.70 73.74 186.46 73.73 187.34 73.72 C 187.33 73.40 187.31 72.74 187.30 72.42 C 190.03 72.68 192.66 72.09 195.02 70.68 C 193.71 70.69 191.09 70.71 189.78 70.72 L 189.59 68.94 C 189.57 69.50 189.53 70.63 189.51 71.19 C 188.06 70.96 186.62 70.73 185.18 70.50 C 185.96 70.13 186.73 69.77 187.51 69.41 L 187.17 68.55 Z" />
<path fill="#ffffff" opacity="1.00" d=" M 151.62 74.17 C 152.62 70.33 157.30 69.60 160.38 68.06 C 158.75 71.45 154.65 72.45 151.62 74.17 Z" />
<path fill="#ffffff" opacity="1.00" d=" M 156.44 74.37 C 156.92 74.06 157.87 73.43 158.34 73.12 C 158.99 73.67 159.65 74.21 160.32 74.74 C 160.33 76.02 160.33 77.30 160.35 78.57 L 159.42 78.21 C 160.51 82.36 155.43 84.14 152.18 84.40 C 153.30 83.02 154.43 81.64 155.55 80.25 C 154.46 80.60 152.27 81.31 151.18 81.66 C 151.51 80.70 151.83 79.74 152.14 78.78 C 153.05 78.57 154.87 78.15 155.78 77.94 C 154.78 77.29 153.76 76.69 152.73 76.12 C 153.92 75.92 155.01 75.53 156.01 74.93 L 156.44 74.37 M 157.35 75.38 C 157.65 75.67 157.65 75.67 157.35 75.38 Z" />
<path fill="#ffffff" opacity="1.00" d=" M 181.57 80.77 C 185.80 79.90 190.09 80.63 194.36 80.62 C 193.83 83.29 190.97 82.31 189.13 82.57 C 186.55 82.56 183.49 82.92 181.57 80.77 Z" />
<path fill="#ffffff" opacity="1.00" d=" M 322.09 88.91 C 320.80 87.58 318.00 86.87 318.26 84.61 C 320.60 86.20 323.50 85.99 326.16 86.62 C 326.92 88.18 327.93 87.01 328.84 86.46 C 330.36 87.30 332.06 87.62 333.72 88.08 C 330.43 89.47 326.77 89.21 323.31 89.80 C 323.42 89.01 323.63 87.43 323.74 86.64 C 323.33 87.21 322.50 88.34 322.09 88.91 Z" />
<path fill="#ffffff" opacity="1.00" d=" M 156.53 90.44 C 157.16 91.17 157.16 91.17 156.53 90.44 Z" />
<path fill="#ffffff" opacity="1.00" d=" M 163.98 97.93 C 167.62 95.09 171.53 92.63 175.27 89.91 C 174.00 92.15 170.65 92.87 170.40 95.63 L 170.08 95.22 L 169.66 95.58 C 169.85 95.59 170.21 95.62 170.40 95.63 C 171.37 95.23 173.33 94.43 174.31 94.03 C 173.31 94.78 172.27 95.47 171.22 96.16 C 169.58 97.67 167.67 99.01 166.85 101.18 C 166.46 100.96 165.69 100.51 165.31 100.29 C 166.33 99.36 167.42 98.50 168.58 97.73 C 168.46 97.49 168.24 97.02 168.13 96.78 C 168.59 96.44 168.59 96.44 168.13 96.78 C 164.61 98.40 162.26 101.80 158.74 103.53 C 159.34 103.63 160.54 103.82 161.14 103.92 C 159.90 105.97 156.93 105.97 155.08 107.37 C 152.98 108.32 151.23 110.34 148.76 110.19 C 150.42 108.36 152.88 107.52 154.40 105.56 L 154.58 105.56 L 154.65 105.50 C 154.59 105.51 154.47 105.54 154.40 105.56 C 153.70 105.57 152.31 105.61 151.61 105.62 C 153.13 104.65 154.71 103.76 156.34 102.97 C 157.18 100.68 158.76 98.89 161.15 98.17 C 161.86 98.11 163.27 97.99 163.98 97.93 M 155.93 104.09 C 156.55 104.80 156.55 104.80 155.93 104.09 Z" />
<path fill="#ffffff" opacity="1.00" d=" M 157.86 91.02 C 158.56 91.67 158.56 91.67 157.86 91.02 Z" />
<path fill="#ffffff" opacity="1.00" d=" M 305.20 93.63 C 304.43 92.68 304.91 90.68 306.32 90.74 C 307.20 91.58 306.57 94.02 305.20 93.63 Z" />
<path fill="#ffffff" opacity="1.00" d=" M 159.87 96.90 C 161.22 94.38 164.67 93.55 167.09 92.06 C 165.15 94.19 162.89 96.60 159.87 96.90 Z" />
<path fill="#ffffff" opacity="1.00" d=" M 151.76 95.01 C 153.20 90.48 159.14 93.42 162.34 92.34 C 161.17 92.93 158.81 94.09 157.64 94.67 C 157.54 95.30 157.35 96.54 157.25 97.16 C 154.30 98.67 151.42 100.34 148.41 101.74 C 148.26 99.32 149.98 97.97 151.83 96.87 C 153.25 95.87 156.07 95.64 155.77 93.38 C 154.45 93.98 153.12 94.52 151.76 95.01 Z" />
<path fill="#ffffff" opacity="1.00" d=" M 158.06 97.94 C 158.67 97.26 158.67 97.26 158.06 97.94 Z" />
<path fill="#ffffff" opacity="1.00" d=" M 173.61 97.30 C 177.02 94.97 175.16 100.39 172.67 99.87 C 170.83 99.59 172.87 97.67 173.61 97.30 Z" />
<path fill="#ffffff" opacity="1.00" d=" M 157.34 97.91 L 158.06 97.94 C 157.84 98.09 157.41 98.41 157.19 98.57 L 157.34 97.91 Z" />
<path fill="#ffffff" opacity="1.00" d=" M 319.62 98.06 C 321.05 98.74 322.51 99.35 323.94 100.05 L 324.37 100.47 C 326.66 101.73 328.99 103.13 331.74 102.51 L 331.64 104.53 C 326.85 104.77 323.34 101.37 319.13 99.95 C 319.29 99.32 319.46 98.69 319.62 98.06 Z" />
<path fill="#ffffff" opacity="1.00" d=" M 151.40 102.17 C 151.90 100.16 155.29 99.14 157.19 98.57 C 156.19 100.52 153.49 101.78 151.40 102.17 Z" />
<path fill="#ffffff" opacity="1.00" d=" M 325.80 100.18 C 325.38 99.77 325.27 99.27 325.46 98.68 C 328.77 100.13 332.53 100.00 335.94 98.96 C 335.14 100.60 334.47 102.29 333.79 103.98 C 333.30 102.90 332.88 101.80 332.33 100.75 C 330.15 102.71 327.83 101.24 325.80 100.18 Z" />
<path fill="#ffffff" opacity="1.00" d=" M 189.32 100.48 C 192.25 98.86 189.55 103.83 189.32 100.48 Z" />
<path fill="#ffffff" opacity="1.00" d=" M 205.10 100.22 C 206.00 99.93 207.81 99.36 208.72 99.07 L 208.48 100.41 C 210.38 99.51 210.98 103.40 208.80 102.85 C 206.84 103.54 204.90 104.26 203.03 105.15 C 201.49 105.43 199.97 105.75 198.47 106.17 C 199.46 106.36 201.43 106.75 202.41 106.95 C 198.77 109.20 194.56 110.21 190.54 111.58 C 190.42 110.54 190.31 109.50 190.20 108.46 C 191.03 108.50 192.69 108.57 193.52 108.60 L 193.40 107.72 C 194.79 107.46 196.17 107.14 197.48 106.59 C 195.86 106.52 194.25 106.57 192.64 106.60 L 192.57 107.77 C 191.89 107.63 190.54 107.36 189.86 107.23 C 190.11 106.77 190.61 105.85 190.85 105.39 C 188.88 105.52 186.90 105.50 184.93 105.45 C 186.55 104.70 188.22 104.09 189.85 103.39 C 190.93 103.89 192.02 104.41 193.12 104.88 C 196.26 101.62 200.80 100.75 205.10 100.22 Z" />
<path fill="#ffffff" opacity="1.00" d=" M 166.85 101.18 C 167.52 101.14 168.86 101.07 169.54 101.03 C 169.16 101.53 168.41 102.53 168.04 103.03 C 166.22 103.91 164.41 104.92 163.34 106.71 C 162.52 107.02 160.18 107.98 160.25 106.46 C 161.32 105.77 162.51 105.16 163.10 103.96 C 164.57 103.38 166.13 102.70 166.85 101.18 Z" />
<path fill="#ffffff" opacity="1.00" d=" M 161.14 103.92 C 160.80 101.98 163.77 101.90 163.10 103.96 C 162.61 103.95 161.63 103.93 161.14 103.92 Z" />
<path fill="#ffffff" opacity="1.00" d=" M 330.23 107.60 C 332.37 105.75 334.69 104.12 336.72 102.13 C 336.25 103.51 336.28 104.91 336.72 106.30 C 334.44 108.59 331.93 110.74 328.98 112.11 C 329.53 110.47 330.73 109.24 331.88 108.03 C 332.24 107.85 332.95 107.50 333.31 107.32 L 330.23 107.60 Z" />
<path fill="#ffffff" opacity="1.00" d=" M 166.88 106.72 C 168.61 105.29 170.30 103.74 172.38 102.82 C 169.18 106.22 164.86 108.21 161.28 111.14 C 161.57 111.67 162.15 112.74 162.44 113.27 C 159.36 113.08 157.54 116.63 154.87 117.88 C 156.27 114.43 160.13 113.24 162.02 110.17 L 159.90 110.33 L 156.79 111.91 C 157.19 111.31 157.99 110.10 158.39 109.50 C 161.11 108.25 163.83 106.92 166.22 105.08 L 166.88 106.72 Z" />
<path fill="#ffffff" opacity="1.00" d=" M 203.83 107.09 C 205.07 105.17 207.92 103.29 210.07 103.94 L 210.26 104.59 C 208.96 105.60 207.55 106.45 206.21 107.40 C 205.62 107.32 204.42 107.17 203.83 107.09 Z" />
<path fill="#ffffff" opacity="1.00" d=" M 210.05 106.97 C 209.78 105.74 211.74 104.59 212.71 105.36 L 212.81 105.90 C 212.15 107.10 211.23 107.45 210.05 106.97 Z" />
<path fill="#ffffff" opacity="1.00" d=" M 158.43 106.01 C 158.85 106.98 158.99 108.15 157.85 108.68 C 155.41 110.15 153.34 112.62 150.26 112.59 C 151.50 110.50 154.43 109.82 155.08 107.37 L 155.45 108.34 C 156.19 107.76 157.68 106.60 158.43 106.01 Z" />
<path fill="#ffffff" opacity="1.00" d=" M 162.44 113.27 C 165.29 110.68 169.17 109.94 171.92 107.15 C 170.16 109.47 167.91 111.40 165.35 112.78 L 165.67 113.72 L 163.89 113.13 C 164.05 113.55 164.38 114.39 164.54 114.81 C 164.27 114.55 163.73 114.02 163.46 113.76 C 161.60 116.23 159.16 118.16 156.90 120.23 C 158.36 117.63 160.02 115.09 162.44 113.27 Z" />
<path fill="#ffffff" opacity="1.00" d=" M 207.17 108.87 C 206.82 107.53 208.94 106.27 210.05 106.97 L 210.04 107.52 C 209.29 108.56 208.33 109.01 207.17 108.87 Z" />
<path fill="#ffffff" opacity="1.00" d=" M 329.65 114.34 C 331.77 112.20 334.18 110.36 336.69 108.69 C 336.62 109.29 336.48 110.48 336.41 111.08 C 335.06 111.93 333.73 112.84 332.39 113.71 L 332.60 114.75 C 331.87 114.64 330.39 114.44 329.65 114.34 Z" />
<path fill="#ffffff" opacity="1.00" d=" M 188.65 115.90 C 191.72 111.80 197.49 111.02 201.97 109.12 L 201.05 110.79 C 197.02 112.72 192.87 114.44 188.65 115.90 Z" />
<path fill="#ffffff" opacity="1.00" d=" M 154.96 111.82 C 155.60 112.14 156.24 112.46 156.88 112.79 C 154.95 113.79 153.04 114.84 150.99 115.58 C 152.25 114.27 153.63 113.08 154.96 111.82 Z" />
<path fill="#ffffff" opacity="1.00" d=" M 268.51 111.89 C 271.66 113.47 269.87 117.25 270.45 120.02 C 270.13 120.44 269.49 121.29 269.18 121.71 C 268.52 118.48 268.29 115.18 268.51 111.89 Z" />
<path fill="#ffffff" opacity="1.00" d=" M 168.38 118.73 C 170.86 116.99 172.87 114.71 175.25 112.85 C 173.03 116.30 169.50 118.60 166.78 121.62 C 168.97 122.60 170.26 120.41 171.80 119.30 C 171.86 120.82 170.26 121.61 170.05 123.02 C 169.96 124.40 172.30 125.09 171.58 126.49 C 167.30 127.70 165.23 132.02 161.80 134.52 C 160.88 133.63 158.70 133.28 159.48 131.54 C 160.04 127.74 164.73 126.31 166.43 123.05 C 164.03 123.02 162.62 125.65 160.53 125.77 C 161.24 122.95 158.50 124.85 157.32 125.65 C 157.47 124.82 157.59 124.00 157.70 123.17 C 157.23 123.06 156.29 122.84 155.82 122.73 C 157.92 121.35 159.85 119.73 161.63 117.97 C 161.51 118.77 161.26 120.36 161.13 121.16 C 163.08 119.56 165.15 118.10 167.21 116.62 C 167.50 117.15 168.09 118.20 168.38 118.73 M 164.70 120.12 C 163.40 120.85 162.40 121.85 161.70 123.11 C 162.15 123.04 163.06 122.89 163.52 122.82 C 164.07 122.38 165.17 121.51 165.73 121.08 C 166.01 120.22 165.67 119.90 164.70 120.12 Z" />
<path fill="#ffffff" opacity="1.00" d=" M 245.62 113.47 C 245.76 114.04 246.05 115.20 246.19 115.77 C 247.57 115.74 248.72 114.92 249.88 114.29 C 250.31 115.01 250.62 115.78 250.81 116.61 C 252.21 118.27 253.63 119.93 255.19 121.46 C 253.79 121.83 252.62 122.63 251.77 123.81 C 249.41 122.27 247.03 120.74 244.73 119.12 C 245.63 117.37 245.31 115.34 245.62 113.47 M 246.76 118.00 C 248.28 119.14 249.73 120.37 251.17 121.61 C 251.56 121.12 251.95 120.64 252.35 120.17 C 250.57 119.16 248.97 117.84 247.77 116.17 C 247.43 116.78 247.09 117.39 246.76 118.00 Z" />
<path fill="#ffffff" opacity="1.00" d=" M 333.31 115.81 C 333.64 115.09 334.31 113.65 334.64 112.92 C 335.64 114.62 337.06 115.19 338.89 114.62 C 337.67 115.56 336.44 116.52 335.31 117.56 C 336.24 117.48 338.10 117.31 339.04 117.23 C 337.71 118.09 336.05 118.64 335.23 120.08 C 334.65 120.54 333.50 121.47 332.93 121.93 C 333.80 122.11 335.55 122.48 336.43 122.66 C 336.46 123.27 336.52 124.49 336.55 125.10 C 335.38 125.09 334.22 125.08 333.06 125.07 C 331.76 127.03 331.15 130.73 328.05 129.58 C 328.10 129.80 328.20 130.25 328.25 130.48 L 329.90 130.27 L 329.30 132.84 C 328.23 132.22 327.18 131.59 326.13 130.96 C 325.83 130.10 325.52 129.24 325.21 128.39 C 327.15 128.08 328.00 126.44 328.85 124.88 C 328.64 124.55 328.23 123.87 328.02 123.53 C 329.28 123.06 331.81 122.13 333.07 121.67 L 329.11 120.84 C 331.05 120.71 333.02 120.69 334.84 119.92 C 332.67 120.07 330.53 120.43 328.37 120.59 C 329.03 119.09 329.98 117.62 329.54 115.90 C 330.60 116.27 331.67 116.64 332.74 117.00 L 332.04 115.13 L 333.31 115.81 Z" />
<path fill="#ffffff" opacity="1.00" d=" M 162.91 116.69 C 164.50 116.02 165.03 116.46 164.50 118.02 C 163.29 118.33 162.76 117.89 162.91 116.69 Z" />
<path fill="#ffffff" opacity="1.00" d=" M 271.66 116.03 C 272.72 116.59 273.74 117.22 274.68 117.98 C 275.15 120.02 273.44 121.78 272.89 123.64 C 270.59 121.70 271.55 118.58 271.66 116.03 Z" />
<path fill="#ffffff" opacity="1.00" d=" M 235.87 116.09 C 237.58 116.47 239.16 117.30 240.31 118.64 C 240.63 118.38 241.27 117.87 241.59 117.61 C 243.98 119.45 246.34 121.32 248.82 123.05 C 247.57 123.37 246.36 123.80 245.19 124.33 C 242.89 120.64 237.28 120.39 235.87 116.09 Z" />
<path fill="#ffffff" opacity="1.00" d=" M 233.98 119.20 C 235.65 120.17 237.48 120.94 238.86 122.34 C 240.59 122.94 242.31 123.59 244.03 124.24 C 244.55 125.01 245.05 125.79 245.55 126.58 C 243.98 125.93 242.40 125.31 240.82 124.70 C 241.36 125.56 242.43 127.27 242.97 128.13 C 241.84 127.75 239.60 126.99 238.48 126.61 C 239.74 122.63 236.56 126.01 237.15 127.45 C 237.78 127.51 239.04 127.64 239.67 127.71 C 239.55 128.19 239.32 129.14 239.20 129.62 L 241.06 129.38 C 241.68 129.14 242.93 128.68 243.56 128.45 L 243.27 126.09 C 243.83 126.54 244.95 127.44 245.51 127.89 C 245.61 126.67 245.70 125.46 245.78 124.25 C 246.64 123.77 251.39 125.45 248.91 126.56 C 246.34 126.61 247.96 128.45 248.42 129.44 C 246.46 129.71 244.49 129.98 242.51 129.88 L 242.42 130.53 C 241.90 130.46 240.86 130.34 240.34 130.27 C 240.48 131.79 240.84 133.62 238.99 134.22 C 236.00 134.46 233.08 135.27 230.28 136.33 C 229.46 135.94 228.66 135.53 227.86 135.11 C 230.98 134.30 234.06 133.35 237.09 132.24 C 232.96 132.09 229.11 135.22 225.05 133.60 C 225.84 132.79 227.41 131.16 228.20 130.35 C 227.39 130.58 225.77 131.05 224.97 131.28 C 225.68 128.67 228.52 129.95 230.46 129.70 C 229.44 129.39 228.40 129.12 227.37 128.89 C 227.01 127.84 226.67 126.79 226.33 125.75 C 228.37 124.06 230.68 123.16 233.34 123.84 C 232.45 123.04 231.57 122.24 230.69 121.45 C 232.09 121.39 233.50 121.34 234.92 121.31 C 234.68 120.78 234.21 119.73 233.98 119.20 Z" />
<path fill="#ffffff" opacity="1.00" d=" M 276.39 119.49 C 278.61 120.66 279.38 123.07 277.08 124.68 C 276.37 124.63 274.96 124.52 274.25 124.47 C 274.90 122.78 275.58 121.11 276.39 119.49 Z" />
<path fill="#ffffff" opacity="1.00" d=" M 318.71 119.80 L 317.93 121.54 C 318.73 121.49 320.31 121.40 321.11 121.35 C 320.85 122.79 320.02 123.94 318.83 124.75 C 318.13 123.73 317.31 122.82 316.38 122.01 C 317.15 121.27 317.93 120.53 318.71 119.80 Z" />
<path fill="#ffffff" opacity="1.00" d=" M 279.90 121.09 C 282.17 122.76 284.82 124.59 285.28 127.61 C 284.26 126.77 283.29 125.88 282.37 124.95 C 281.45 125.64 280.49 126.28 279.54 126.92 C 279.62 125.64 280.67 124.94 281.50 124.16 C 281.10 123.40 280.30 121.86 279.90 121.09 Z" />
<path fill="#ffffff" opacity="1.00" d=" M 169.09 131.97 C 172.13 128.91 175.47 126.12 179.05 123.73 C 175.41 127.60 172.05 131.73 168.89 136.00 C 168.42 136.38 167.91 136.56 167.35 136.53 C 169.24 135.27 168.15 133.09 167.43 131.48 C 166.44 133.61 164.53 134.94 162.56 136.05 C 163.99 133.24 166.55 131.29 168.32 128.73 C 169.05 128.32 170.50 127.49 171.23 127.07 C 171.28 128.39 167.65 130.57 169.09 131.97 Z" />
<path fill="#ffffff" opacity="1.00" d=" M 208.76 129.41 C 210.86 127.85 213.14 126.57 215.48 125.38 C 216.09 126.12 216.71 126.86 217.32 127.61 L 215.78 127.18 C 215.15 128.39 214.04 129.18 213.00 130.00 C 213.23 130.53 213.69 131.59 213.91 132.12 C 211.72 133.09 209.53 134.07 207.37 135.11 C 206.87 135.19 205.87 135.35 205.37 135.43 C 205.54 134.57 205.71 133.72 205.88 132.87 C 208.03 131.79 210.20 130.75 212.36 129.71 L 212.98 128.74 C 213.37 128.61 214.16 128.35 214.55 128.22 L 214.55 127.47 C 214.11 127.60 213.21 127.86 212.76 128.00 L 212.98 128.74 C 211.55 128.83 210.14 129.05 208.76 129.41 Z" />
<path fill="#ffffff" opacity="1.00" d=" M 333.51 126.87 C 333.89 125.19 336.71 125.82 337.01 127.26 C 336.64 128.92 333.77 128.34 333.51 126.87 Z" />
<path fill="#ffffff" opacity="1.00" d=" M 263.26 128.16 C 264.94 127.79 266.69 127.53 268.37 128.02 C 267.83 128.61 267.51 131.67 269.22 130.56 L 269.93 130.30 L 270.69 130.11 C 270.41 130.86 270.14 131.62 269.86 132.37 C 267.54 132.00 265.22 132.28 262.98 132.96 C 261.97 132.21 260.96 131.47 259.98 130.69 C 262.41 131.20 264.86 131.71 267.36 131.16 C 265.97 130.17 264.56 129.24 263.26 128.16 Z" />
<path fill="#ffffff" opacity="1.00" d=" M 278.32 128.39 C 278.63 128.55 279.24 128.88 279.55 129.05 C 280.15 128.76 281.37 128.18 281.97 127.89 C 281.46 128.39 280.44 129.40 279.93 129.90 C 280.59 130.22 281.92 130.86 282.58 131.18 C 282.35 132.64 282.46 134.08 282.93 135.50 C 280.96 134.78 279.15 133.73 277.45 132.52 C 278.33 131.27 278.76 129.90 278.32 128.39 Z" />
<path fill="#ffffff" opacity="1.00" d=" M 223.24 129.25 C 223.91 129.81 223.91 129.81 223.24 129.25 Z" />
<path fill="#ffffff" opacity="1.00" d=" M 336.53 133.23 C 334.68 132.27 330.66 131.00 333.25 128.56 C 334.02 128.86 335.54 129.44 336.30 129.74 C 336.37 130.90 336.45 132.06 336.53 133.23 Z" />
<path fill="#ffffff" opacity="1.00" d=" M 321.71 130.58 C 322.54 129.47 325.20 130.10 324.35 131.73 C 323.58 132.81 322.63 133.08 321.50 132.55 C 321.55 132.06 321.66 131.07 321.71 130.58 Z" />
<path fill="#ffffff" opacity="1.00" d=" M 198.35 131.60 C 198.99 131.63 200.27 131.69 200.92 131.72 C 200.50 132.72 200.08 133.72 199.68 134.73 C 196.90 136.43 194.42 138.81 191.12 139.45 C 193.45 136.72 197.00 135.46 199.31 132.71 C 195.56 134.51 192.28 137.60 187.89 137.64 C 189.26 136.36 191.03 135.44 191.86 133.67 C 192.67 133.17 193.48 132.66 194.30 132.16 C 194.36 132.54 194.49 133.28 194.56 133.65 C 195.88 133.12 197.22 132.62 198.57 132.16 L 198.35 131.60 Z" />
<path fill="#ffffff" opacity="1.00" d=" M 225.30 131.94 C 223.85 134.93 221.82 130.17 224.97 131.28 L 225.30 131.94 Z" />
<path fill="#ffffff" opacity="1.00" d=" M 240.81 133.97 C 242.22 131.77 244.64 131.00 247.17 131.10 C 245.16 132.30 243.03 133.28 240.81 133.97 Z" />
<path fill="#ffffff" opacity="1.00" d=" M 243.00 136.37 C 244.39 134.12 247.34 134.29 249.59 133.54 C 251.01 133.50 251.61 135.09 252.76 135.69 C 254.26 137.09 256.13 137.95 257.85 139.03 C 256.62 140.01 255.11 142.56 254.07 139.96 C 253.65 139.63 252.82 138.97 252.41 138.64 L 250.96 138.64 C 249.93 139.02 248.91 139.40 247.88 139.77 C 247.33 140.54 246.77 141.31 246.22 142.07 C 245.92 141.46 245.34 140.25 245.05 139.64 C 243.78 140.53 242.50 141.41 241.22 142.28 L 243.55 142.48 C 243.59 143.39 243.63 144.29 243.68 145.20 C 241.68 146.97 239.86 148.92 237.79 150.61 C 237.07 150.72 235.63 150.95 234.91 151.06 L 235.68 152.64 L 234.49 151.99 C 230.23 154.92 226.71 159.27 221.56 160.62 C 224.87 157.14 229.10 154.75 232.82 151.75 C 235.40 150.00 237.33 147.52 239.84 145.70 C 238.96 143.94 238.09 142.18 237.28 140.39 C 237.06 140.96 236.62 142.12 236.39 142.69 L 234.55 141.90 C 234.86 142.49 235.48 143.69 235.79 144.28 C 236.83 144.79 237.84 145.37 238.79 146.05 L 236.54 146.00 L 236.58 147.68 C 236.18 147.58 235.37 147.39 234.97 147.29 C 234.63 148.43 233.99 149.38 233.05 150.13 C 228.11 153.80 222.98 157.31 218.47 161.52 C 215.00 165.82 212.07 171.16 206.25 172.60 C 208.69 169.26 213.65 168.53 214.84 164.17 C 212.19 165.98 209.67 168.19 206.51 169.07 C 208.08 166.36 211.32 165.46 213.77 163.78 C 216.16 162.51 217.77 160.28 219.05 157.97 C 220.20 156.97 221.38 156.01 222.42 154.90 C 221.11 155.20 219.90 155.73 218.78 156.48 C 217.70 155.84 216.62 155.20 215.55 154.55 L 217.31 154.67 C 217.31 154.05 217.32 152.82 217.32 152.21 C 214.51 153.45 211.75 154.83 209.10 156.39 L 210.02 157.43 C 208.80 156.53 206.84 157.29 206.73 158.84 C 207.95 159.11 208.96 158.79 209.78 157.88 L 210.02 157.43 C 211.37 156.94 212.71 156.44 214.10 156.04 C 211.61 157.49 209.25 159.82 206.14 159.47 C 206.44 159.94 207.03 160.88 207.33 161.35 L 210.45 160.63 C 208.31 162.35 205.89 163.66 203.62 165.19 C 201.76 165.51 199.93 165.61 198.45 164.22 C 201.03 162.93 203.62 161.63 206.41 160.87 C 205.94 160.51 205.47 160.15 205.01 159.81 C 203.28 160.91 201.46 161.87 199.64 162.81 C 199.49 162.40 199.20 161.56 199.05 161.14 C 201.37 160.17 203.62 159.05 205.85 157.89 C 205.85 157.71 205.86 157.37 205.86 157.20 C 205.36 157.22 204.36 157.25 203.85 157.27 C 204.16 156.30 204.77 154.35 205.08 153.37 C 202.96 156.37 199.27 157.61 195.98 158.87 C 195.36 158.73 194.12 158.43 193.50 158.28 C 196.89 156.93 200.43 155.65 203.18 153.15 L 203.85 154.33 C 204.03 153.49 204.20 152.66 204.38 151.82 C 207.50 151.37 210.01 147.88 213.26 148.88 C 215.17 148.39 217.07 147.89 218.99 147.42 C 217.52 147.12 216.07 146.78 214.63 146.41 C 216.97 145.47 219.52 145.06 221.68 143.71 C 221.38 144.59 221.09 145.47 220.79 146.35 C 220.01 146.50 218.47 146.82 217.69 146.98 C 220.51 147.89 222.06 144.99 224.67 144.72 C 224.30 143.81 223.09 143.57 222.38 142.96 C 224.83 144.39 227.51 143.00 230.09 143.16 C 229.20 145.27 226.13 145.21 224.69 146.97 C 227.41 145.79 230.16 144.71 232.96 143.75 C 232.53 143.51 231.67 143.03 231.24 142.79 C 231.23 142.60 231.21 142.23 231.20 142.05 C 235.15 141.12 238.52 138.28 242.67 138.24 C 242.57 137.83 242.37 137.02 242.27 136.61 L 243.00 136.37 M 248.79 135.65 C 247.26 136.70 245.58 137.55 243.78 138.06 C 245.80 141.13 249.20 137.91 251.64 137.26 C 250.70 136.70 249.75 136.17 248.79 135.65 M 239.75 142.44 C 240.49 143.03 240.49 143.03 239.75 142.44 M 228.22 147.19 C 225.37 149.49 222.03 151.20 218.44 151.96 C 218.23 152.84 218.02 153.72 217.81 154.60 C 218.52 154.25 219.94 153.54 220.65 153.19 L 220.18 152.32 L 221.63 152.64 L 221.44 151.82 C 223.06 151.30 224.46 150.34 225.96 149.57 C 229.90 150.19 232.65 146.52 235.58 144.50 C 233.04 145.17 230.63 146.19 228.22 147.19 M 213.80 149.76 C 210.90 148.76 208.54 151.81 205.84 152.52 C 205.41 153.60 205.13 154.74 205.44 155.90 C 205.95 155.53 206.96 154.79 207.47 154.42 C 207.58 154.79 207.81 155.55 207.93 155.93 L 208.34 156.50 C 212.93 153.09 217.71 149.95 223.15 148.08 C 219.96 148.47 217.06 151.20 213.80 149.76 Z" />
<path fill="#ffffff" opacity="1.00" d=" M 322.21 134.74 C 323.42 133.87 324.62 133.00 325.83 132.13 C 327.11 132.90 328.39 133.69 329.69 134.45 L 329.21 135.81 C 330.35 135.42 331.50 135.01 332.65 134.60 C 333.66 135.24 334.67 135.87 335.70 136.50 C 335.34 137.24 334.98 137.98 334.62 138.72 C 333.24 138.23 331.87 137.71 330.50 137.24 C 330.49 136.84 330.46 136.02 330.45 135.62 C 328.78 136.45 327.42 137.69 326.70 139.43 C 326.19 139.06 325.16 138.30 324.65 137.92 C 325.19 139.06 325.78 140.18 326.34 141.32 L 325.53 142.27 C 325.51 142.90 325.47 144.17 325.45 144.80 C 324.05 141.96 322.33 139.29 320.99 136.42 C 321.75 136.51 323.28 136.68 324.04 136.77 C 323.58 136.26 322.67 135.25 322.21 134.74 Z" />
<path fill="#ffffff" opacity="1.00" d=" M 224.11 139.58 C 228.52 137.95 232.94 136.25 237.51 135.13 C 239.17 135.61 240.90 135.64 242.61 135.71 C 238.12 137.82 233.59 140.05 228.80 141.43 L 229.65 139.50 C 227.86 140.44 225.92 140.39 224.11 139.58 Z" />
<path fill="#ffffff" opacity="1.00" d=" M 225.00 136.56 C 224.42 134.87 228.91 135.44 228.03 137.13 C 227.27 136.99 225.76 136.70 225.00 136.56 Z" />
<path fill="#ffffff" opacity="1.00" d=" M 192.20 142.31 C 194.92 140.58 197.55 138.70 200.39 137.18 C 199.03 139.75 196.21 141.00 193.73 142.21 C 194.12 142.52 194.52 142.83 194.92 143.13 C 195.77 142.62 197.47 141.59 198.32 141.07 L 198.59 142.60 C 200.24 141.72 202.09 140.43 203.82 141.98 C 201.06 144.70 197.63 146.61 194.15 148.26 C 194.33 147.77 194.68 146.81 194.85 146.32 C 196.52 145.58 197.89 144.38 199.06 142.99 C 196.33 144.13 193.88 146.18 190.75 145.95 C 191.32 145.55 192.46 144.75 193.03 144.35 C 193.14 143.88 193.36 142.95 193.47 142.48 L 192.20 142.31 Z" />
<path fill="#ffffff" opacity="1.00" d=" M 329.84 140.86 C 330.93 140.49 332.04 140.16 333.17 139.87 C 333.54 141.44 333.88 143.02 334.27 144.60 C 332.59 143.70 329.99 143.16 329.84 140.86 Z" />
<path fill="#ffffff" opacity="1.00" d=" M 236.40 143.11 C 236.84 143.43 236.84 143.43 236.40 143.11 Z" />
<path fill="#ffffff" opacity="1.00" d=" M 246.56 143.70 C 247.31 143.31 248.83 142.55 249.59 142.16 C 249.66 142.93 249.80 144.48 249.87 145.25 C 249.98 144.76 250.22 143.79 250.34 143.31 C 252.02 143.81 253.72 144.27 255.44 144.65 C 255.83 145.11 256.62 146.04 257.02 146.51 C 257.55 146.21 258.61 145.61 259.14 145.31 C 259.31 146.68 259.44 148.05 259.52 149.43 C 257.14 151.49 254.28 149.96 251.77 149.12 C 251.68 148.40 251.49 146.96 251.40 146.24 C 251.18 146.26 250.74 146.30 250.53 146.31 L 251.14 148.53 C 249.42 145.93 246.55 147.79 244.25 147.89 C 245.59 146.80 246.79 145.58 246.56 143.70 Z" />
<path fill="#ffffff" opacity="1.00" d=" M 328.68 144.41 C 329.61 144.91 330.55 145.43 331.50 145.91 L 330.90 147.03 C 331.65 146.86 333.16 146.53 333.92 146.37 C 333.48 146.62 332.61 147.13 332.18 147.38 C 332.21 147.85 332.29 148.79 332.33 149.26 C 330.85 148.43 329.40 147.57 327.91 146.80 C 328.71 147.70 329.55 148.57 330.40 149.44 C 330.88 151.23 331.46 153.00 332.03 154.76 C 331.61 154.55 330.78 154.12 330.36 153.91 C 329.32 151.84 328.11 149.88 326.83 147.97 C 327.45 146.79 328.07 145.60 328.68 144.41 Z" />
<path fill="#ffffff" opacity="1.00" d=" M 203.52 147.84 C 205.01 146.88 206.44 145.83 207.98 144.93 C 206.85 146.19 205.61 147.35 204.53 148.65 L 204.39 148.81 C 204.49 148.80 204.70 148.77 204.80 148.75 L 204.53 148.65 C 206.76 149.48 208.40 147.45 210.36 146.87 C 208.97 148.47 206.94 149.18 204.97 149.76 C 203.42 150.68 201.77 151.43 200.16 152.22 C 196.93 152.60 193.83 153.76 190.56 153.79 C 191.73 153.12 192.96 152.56 194.23 152.08 C 197.43 150.89 200.52 149.41 203.80 148.45 L 203.52 147.84 Z" />
<path fill="#ffffff" opacity="1.00" d=" M 259.66 148.93 C 260.37 147.80 261.13 146.71 261.90 145.62 C 262.98 146.61 265.30 146.92 265.03 148.81 C 264.59 150.77 263.44 152.35 262.00 153.71 C 261.48 152.93 260.44 151.37 259.92 150.59 L 261.53 150.71 C 261.58 150.07 261.68 148.79 261.73 148.15 C 261.21 148.34 260.18 148.73 259.66 148.93 Z" />
<path fill="#ffffff" opacity="1.00" d=" M 285.25 147.79 C 284.92 148.41 284.92 148.41 285.25 147.79 Z" />
<path fill="#ffffff" opacity="1.00" d=" M 234.84 155.60 C 237.67 153.22 239.82 150.08 242.92 148.00 C 243.62 150.05 241.91 151.33 240.77 152.63 C 238.89 154.55 236.99 156.48 234.84 158.11 C 235.13 158.66 235.42 159.22 235.71 159.77 C 239.15 155.85 243.13 152.46 246.85 148.82 C 243.31 151.89 247.98 152.69 249.75 153.68 C 247.80 155.92 243.96 157.03 244.58 160.66 C 242.25 164.21 239.07 167.11 235.70 169.65 C 233.24 172.22 231.00 175.04 228.06 177.11 C 229.38 174.85 230.70 172.57 231.74 170.16 L 232.47 170.80 C 231.61 167.00 236.29 165.12 239.39 164.59 C 238.72 164.59 237.39 164.57 236.73 164.56 C 236.02 164.70 234.61 164.98 233.90 165.11 C 234.65 163.72 235.41 162.32 236.18 160.94 C 233.84 162.99 231.52 165.04 229.13 167.02 C 227.38 168.35 225.85 170.19 223.52 170.43 C 226.53 166.48 230.69 163.48 234.82 160.77 C 234.23 160.46 233.63 160.16 233.04 159.86 C 231.89 160.89 230.65 161.77 229.30 162.49 L 228.59 162.34 L 228.39 161.71 C 229.16 161.17 230.69 160.10 231.46 159.56 L 230.67 158.72 C 232.24 159.36 233.93 157.97 234.35 156.48 C 232.76 156.33 231.68 157.75 230.67 158.72 C 227.62 161.43 224.20 163.68 220.62 165.61 C 223.66 161.07 228.68 158.59 232.80 155.19 C 233.31 155.29 234.33 155.50 234.84 155.60 M 246.03 154.95 C 246.51 154.48 246.51 154.48 246.03 154.95 M 245.37 154.30 C 243.07 157.53 239.17 159.57 237.70 163.35 C 240.92 161.20 243.08 157.81 246.48 155.88 C 246.36 155.65 246.14 155.18 246.03 154.95 C 245.86 154.79 245.53 154.46 245.37 154.30 Z" />
<path fill="#ffffff" opacity="1.00" d=" M 284.56 152.43 C 284.20 150.99 285.68 149.71 286.63 148.81 L 286.92 149.29 C 286.74 150.88 285.95 151.92 284.56 152.43 Z" />
<path fill="#ffffff" opacity="1.00" d=" M 191.36 156.82 C 194.36 154.18 198.38 152.67 202.41 153.21 C 198.93 154.90 195.43 157.33 191.36 156.82 Z" />
<path fill="#ffffff" opacity="1.00" d=" M 245.84 163.43 C 247.18 160.67 248.02 157.19 251.09 155.80 C 250.04 157.83 248.76 159.72 247.54 161.64 C 248.89 162.12 249.86 160.96 250.80 160.17 C 251.14 160.80 251.47 161.43 251.80 162.07 C 252.95 159.98 254.12 157.90 255.55 155.99 C 256.48 160.22 253.97 163.85 251.79 167.21 C 251.81 167.85 251.84 169.14 251.85 169.79 C 248.95 174.66 246.49 179.82 242.97 184.30 C 243.51 182.02 244.21 179.78 245.03 177.59 C 244.28 178.09 242.77 179.09 242.02 179.59 C 241.44 180.24 240.86 180.90 240.28 181.55 C 239.56 182.39 238.82 183.22 238.05 184.01 C 240.10 179.10 242.81 174.52 245.06 169.70 C 246.07 169.66 247.08 169.58 248.10 169.48 C 247.02 171.59 245.96 173.72 244.81 175.79 C 245.12 176.31 245.43 176.83 245.76 177.36 C 247.02 173.77 249.32 170.73 251.26 167.50 C 250.49 167.55 248.97 167.66 248.21 167.71 C 249.41 165.95 250.58 164.17 251.82 162.43 C 249.94 161.53 248.82 163.52 248.19 164.97 C 247.94 163.97 247.66 162.98 247.35 162.00 C 246.42 164.07 245.17 165.95 243.74 167.70 C 240.78 171.51 239.32 176.27 236.19 179.96 C 236.43 176.04 239.11 172.90 240.50 169.39 C 237.52 172.79 234.55 176.27 230.89 178.97 C 232.75 175.78 235.16 172.95 237.35 169.99 C 239.23 167.48 242.09 165.93 243.88 163.34 C 244.37 163.36 245.35 163.41 245.84 163.43 Z" />
<path fill="#ffffff" opacity="1.00" d=" M 201.86 158.11 C 202.17 157.82 202.79 157.23 203.10 156.94 L 203.85 157.27 L 203.57 158.01 C 203.14 158.04 202.29 158.09 201.86 158.11 Z" />
<path fill="#ffffff" opacity="1.00" d=" M 214.03 158.72 C 215.44 158.20 216.85 157.68 218.27 157.18 C 215.64 159.29 213.16 161.60 210.28 163.36 L 210.38 164.32 C 209.63 163.94 208.88 163.56 208.14 163.18 C 209.44 162.46 210.74 161.75 212.05 161.04 C 212.74 160.30 213.40 159.52 214.03 158.72 Z" />
<path fill="#ffffff" opacity="1.00" d=" M 200.24 158.26 C 200.65 158.22 201.46 158.15 201.86 158.11 C 201.60 158.43 201.07 159.06 200.81 159.37 L 200.12 159.03 L 200.24 158.26 Z" />
<path fill="#ffffff" opacity="1.00" d=" M 256.32 165.37 C 258.04 162.84 258.54 158.80 261.83 157.81 C 260.53 161.52 258.44 165.01 258.39 169.05 C 255.75 175.76 249.77 180.78 248.71 188.16 C 248.14 186.51 247.27 184.61 247.88 182.86 C 248.82 181.64 249.90 180.41 249.83 178.74 L 250.38 178.99 C 251.49 178.33 252.18 177.35 252.44 176.05 L 253.06 175.44 C 252.88 175.05 252.52 174.28 252.35 173.89 L 253.55 174.50 C 254.41 172.76 255.32 171.05 256.23 169.34 L 253.50 169.64 C 253.89 169.26 254.69 168.50 255.08 168.12 C 255.49 167.20 255.90 166.28 256.32 165.37 Z" />
<path fill="#ffffff" opacity="1.00" d=" M 275.99 163.95 C 278.54 162.63 280.88 160.98 283.32 159.48 C 282.81 160.29 281.78 161.92 281.26 162.73 C 282.01 162.62 283.50 162.41 284.25 162.30 C 284.37 164.18 284.66 166.08 285.67 167.71 C 285.11 168.09 283.99 168.86 283.42 169.24 C 284.35 169.27 286.21 169.34 287.14 169.37 C 285.37 171.44 283.62 173.75 280.79 174.33 C 281.16 172.98 282.17 172.06 283.16 171.17 C 280.88 172.33 276.45 171.82 280.78 168.36 L 277.31 170.26 C 278.16 169.29 279.85 167.36 280.70 166.40 L 276.71 168.37 L 277.70 165.56 C 274.40 166.19 274.52 169.49 273.99 172.06 L 272.29 170.32 L 272.73 173.86 C 274.39 173.16 275.92 172.23 277.28 171.04 C 275.93 173.03 274.61 175.04 273.41 177.12 C 275.42 176.24 277.35 175.19 279.19 173.97 L 277.24 177.05 C 277.76 177.00 278.80 176.90 279.31 176.85 C 277.98 179.42 276.32 181.88 274.11 183.78 C 271.84 181.42 275.71 179.95 276.55 177.98 C 274.45 179.29 272.47 180.84 270.11 181.66 C 269.60 182.66 269.12 183.66 268.63 184.66 C 268.16 184.26 267.22 183.46 266.74 183.06 C 266.37 184.42 266.03 185.80 265.66 187.16 C 265.57 186.36 265.38 184.76 265.29 183.96 C 263.97 185.54 262.81 187.24 261.49 188.82 C 261.96 186.77 263.24 184.87 262.86 182.67 L 261.81 185.73 C 261.44 184.89 261.08 184.04 260.71 183.20 C 258.33 184.00 258.96 186.59 261.41 186.47 C 260.67 187.16 259.94 187.85 259.21 188.54 L 259.07 187.99 C 258.48 186.95 257.58 186.77 256.36 187.45 C 256.75 187.06 257.52 186.29 257.91 185.90 C 261.11 178.53 264.77 171.36 268.32 164.16 C 268.32 167.61 267.19 170.94 265.39 173.84 C 265.58 173.80 265.98 173.73 266.17 173.69 C 266.97 171.74 267.97 169.89 269.10 168.12 C 269.49 166.94 269.91 165.78 270.37 164.63 C 270.45 165.55 270.61 167.38 270.69 168.30 C 271.35 168.77 272.67 169.71 273.33 170.19 C 274.24 168.12 275.19 166.06 275.99 163.95 M 270.02 168.84 C 268.39 171.90 273.33 169.10 270.02 168.84 Z" />
<path fill="#ffffff" opacity="1.00" d=" M 228.23 162.71 C 228.32 162.62 228.50 162.43 228.59 162.34 C 228.50 162.43 228.32 162.62 228.23 162.71 Z" />
<path fill="#ffffff" opacity="1.00" d=" M 227.46 162.83 L 228.23 162.71 C 227.13 165.67 223.20 167.31 220.56 169.14 C 221.92 166.22 225.09 164.82 227.46 162.83 Z" />
<path fill="#ffffff" opacity="1.00" d=" M 203.97 167.10 C 203.95 165.31 206.47 164.31 207.97 163.86 C 207.89 164.18 207.74 164.81 207.67 165.13 C 206.50 165.77 205.45 167.47 203.97 167.10 Z" />
<path fill="#ffffff" opacity="1.00" d=" M 229.13 167.02 C 230.80 166.60 232.32 165.78 233.90 165.11 L 234.06 165.55 C 233.31 167.02 230.93 167.81 231.67 169.79 C 229.79 168.93 229.09 169.54 229.55 171.63 C 228.13 171.67 226.72 171.73 225.31 171.80 C 227.04 170.37 228.78 168.94 230.50 167.48 L 229.13 167.02 Z" />
<path fill="#ffffff" opacity="1.00" d=" M 324.39 167.65 C 323.91 166.22 327.29 165.63 326.78 167.33 C 326.18 167.41 324.99 167.57 324.39 167.65 Z" />
<path fill="#ffffff" opacity="1.00" d=" M 334.32 168.62 C 335.64 168.12 336.91 170.19 336.99 171.36 C 335.69 171.77 334.37 169.80 334.32 168.62 Z" />
<path fill="#ffffff" opacity="1.00" d=" M 287.76 170.93 C 288.41 171.64 289.04 172.38 289.68 173.11 C 288.19 173.29 286.89 173.87 285.80 174.85 C 284.64 175.12 282.32 175.66 281.16 175.93 C 283.30 174.19 285.56 172.59 287.76 170.93 Z" />
<path fill="#ffffff" opacity="1.00" d=" M 247.94 179.66 C 249.64 176.36 251.26 172.87 253.78 170.09 C 253.42 171.04 252.70 172.94 252.35 173.89 C 252.37 174.43 252.41 175.51 252.44 176.05 L 251.81 175.76 C 250.80 176.50 250.14 177.50 249.83 178.74 C 249.26 180.10 248.63 180.40 247.94 179.66 Z" />
<path fill="#ffffff" opacity="1.00" d=" M 326.56 171.49 C 327.91 172.35 328.48 173.78 328.78 175.28 C 330.44 177.05 330.80 179.51 330.56 181.85 C 330.51 184.43 327.97 182.71 326.67 182.43 C 326.49 181.91 326.12 180.88 325.93 180.36 C 323.92 178.26 321.89 176.16 319.92 174.02 C 322.00 174.94 324.25 174.18 325.95 172.92 L 325.02 174.53 L 328.02 174.79 C 327.66 173.97 326.93 172.32 326.56 171.49 M 324.99 175.48 C 325.54 175.80 326.65 176.44 327.21 176.76 C 328.21 175.51 325.61 174.34 324.99 175.48 Z" />
<path fill="#ffffff" opacity="1.00" d=" M 334.39 171.73 C 336.66 172.32 337.38 174.81 338.69 176.48 C 338.68 175.51 338.67 173.59 338.66 172.62 C 340.07 175.11 340.41 177.97 340.65 180.76 C 337.53 178.59 336.44 174.76 334.39 171.73 Z" />
<path fill="#ffffff" opacity="1.00" d=" M 207.46 178.15 C 208.88 175.73 211.34 174.15 213.78 172.93 C 212.61 175.56 209.98 177.03 207.46 178.15 Z" />
<path fill="#ffffff" opacity="1.00" d=" M 330.11 173.23 C 330.98 173.47 331.86 173.65 332.76 173.78 C 333.04 173.56 333.59 173.12 333.87 172.89 C 335.17 174.88 333.93 176.74 332.94 178.50 C 331.71 176.90 330.83 175.10 330.11 173.23 Z" />
<path fill="#ffffff" opacity="1.00" d=" M 288.22 174.48 C 288.55 174.77 288.55 174.77 288.22 174.48 Z" />
<path fill="#ffffff" opacity="1.00" d=" M 294.54 173.96 C 295.89 173.94 296.56 176.18 296.05 177.26 C 294.66 177.36 294.16 175.02 294.54 173.96 Z" />
<path fill="#ffffff" opacity="1.00" d=" M 292.10 175.38 C 292.49 175.65 293.25 176.19 293.63 176.46 C 292.95 179.25 290.23 180.54 287.98 181.90 C 287.50 181.66 286.53 181.18 286.05 180.94 L 287.32 180.34 C 286.42 178.85 285.54 177.33 284.79 175.75 C 287.09 175.21 287.80 177.14 288.82 178.43 C 289.82 177.32 290.96 176.34 292.10 175.38 Z" />
<path fill="#ffffff" opacity="1.00" d=" M 213.41 176.33 C 214.67 176.44 215.92 176.53 217.19 176.61 C 215.01 178.57 213.08 180.88 210.48 182.33 C 211.38 181.11 212.33 179.93 213.34 178.80 C 211.46 179.50 209.79 180.68 208.02 181.60 C 209.00 179.10 211.54 178.01 213.41 176.33 Z" />
<path fill="#ffffff" opacity="1.00" d=" M 316.67 177.52 C 316.52 177.02 316.23 176.03 316.08 175.54 C 318.52 176.89 320.42 178.94 322.44 180.82 C 321.87 179.43 321.33 178.04 320.82 176.64 C 322.72 178.25 324.28 180.21 325.78 182.19 C 324.14 181.44 322.52 181.46 320.95 182.24 C 319.26 182.43 317.94 180.91 316.41 180.39 L 316.78 179.34 L 314.18 179.68 C 314.80 179.14 316.05 178.06 316.67 177.52 M 317.32 179.34 C 317.78 179.43 318.69 179.60 319.15 179.68 C 320.49 177.96 316.02 177.35 317.32 179.34 Z" />
<path fill="#ffffff" opacity="1.00" d=" M 332.10 184.05 C 331.98 181.13 332.67 177.19 336.39 177.34 C 339.18 179.24 335.72 179.98 334.34 181.19 C 333.87 182.31 333.48 183.47 333.20 184.66 C 332.93 184.51 332.37 184.20 332.10 184.05 Z" />
<path fill="#ffffff" opacity="1.00" d=" M 294.36 178.41 C 295.31 179.01 296.22 179.68 297.16 180.32 C 295.82 180.40 294.45 180.15 293.16 180.58 C 292.88 182.17 295.09 181.90 295.90 182.51 C 293.69 184.09 291.63 186.00 288.95 186.75 C 290.24 185.25 291.63 183.85 292.95 182.38 L 288.45 184.19 C 289.78 181.64 292.79 180.76 294.36 178.41 Z" />
<path fill="#ffffff" opacity="1.00" d=" M 280.53 181.44 C 281.34 180.52 282.18 179.63 283.07 178.78 C 281.87 180.84 279.53 182.70 281.41 185.20 C 282.12 184.68 283.53 183.65 284.24 183.13 C 283.12 186.56 280.27 188.91 278.17 191.71 C 280.27 189.53 283.21 190.54 283.94 193.23 C 284.99 192.16 286.04 191.09 287.09 190.03 C 287.16 190.42 287.30 191.20 287.37 191.59 C 287.93 191.62 289.06 191.67 289.62 191.70 C 288.70 192.58 287.78 193.47 286.86 194.35 C 285.43 194.05 284.15 194.34 283.01 195.21 C 284.26 195.35 288.06 196.08 285.85 197.91 L 284.20 199.73 C 284.84 199.58 286.12 199.26 286.76 199.11 C 287.93 197.25 290.12 196.94 292.03 196.24 C 292.14 196.85 292.38 198.08 292.49 198.70 C 293.14 198.52 294.45 198.16 295.10 197.98 C 294.63 201.47 291.36 203.51 289.21 206.00 C 288.50 205.82 287.08 205.47 286.37 205.30 C 286.35 204.57 286.30 203.12 286.27 202.39 C 285.11 202.78 283.95 203.14 282.78 203.50 C 283.61 202.39 284.55 201.40 285.61 200.51 C 284.36 199.94 283.05 200.06 281.86 200.70 C 281.81 200.37 281.71 199.70 281.67 199.37 C 280.98 199.46 279.60 199.65 278.91 199.74 C 279.90 198.56 281.38 198.56 282.80 198.51 C 282.32 197.69 281.91 196.84 281.51 195.98 C 280.45 196.96 279.37 197.92 278.29 198.87 C 278.34 198.24 278.45 196.99 278.50 196.36 C 277.43 195.93 276.35 195.52 275.27 195.13 C 275.83 194.35 276.40 193.58 276.97 192.81 L 275.13 192.72 C 276.82 190.86 278.64 189.11 280.11 187.06 C 278.34 188.35 276.68 189.78 274.85 190.97 C 273.69 187.45 278.39 185.98 279.55 183.09 C 277.63 184.40 276.08 186.37 273.72 186.95 C 275.55 184.62 277.59 182.45 279.39 180.09 C 279.67 180.43 280.24 181.10 280.53 181.44 Z" />
<path fill="#ffffff" opacity="1.00" d=" M 251.28 184.01 C 250.95 182.27 252.63 180.42 254.11 179.69 C 254.16 180.96 253.03 184.18 251.28 184.01 Z" />
<path fill="#ffffff" opacity="1.00" d=" M 297.79 184.83 C 298.40 183.03 299.98 182.03 301.43 180.99 C 301.15 181.91 300.59 183.74 300.31 184.65 C 298.94 186.76 298.27 189.21 297.32 191.52 L 299.30 191.58 C 298.83 192.05 297.90 192.99 297.44 193.46 C 296.81 194.12 296.20 194.78 295.61 195.46 L 295.54 197.81 C 294.97 197.31 293.82 196.30 293.25 195.80 C 292.70 194.62 293.86 193.93 294.67 193.40 C 293.16 193.71 292.38 192.62 291.72 191.40 C 293.53 189.89 295.43 188.48 297.14 186.83 C 294.92 187.88 292.90 189.27 290.73 190.39 C 290.67 189.75 290.56 188.49 290.50 187.86 C 292.54 186.13 294.78 184.63 296.55 182.61 C 296.86 183.16 297.48 184.27 297.79 184.83 Z" />
<path fill="#ffffff" opacity="1.00" d=" M 316.78 180.86 C 317.69 181.90 318.61 182.94 319.53 184.00 C 317.77 186.08 316.72 188.61 315.40 190.97 C 313.35 188.38 312.26 185.01 308.75 183.91 C 310.61 183.28 312.53 183.68 314.31 184.40 L 311.51 184.55 C 312.49 185.89 313.70 186.96 315.14 187.76 C 314.46 185.16 316.74 183.36 316.78 180.86 Z" />
<path fill="#ffffff" opacity="1.00" d=" M 237.91 196.71 C 238.70 192.52 240.26 188.54 242.13 184.73 C 242.27 186.97 241.63 189.49 243.41 191.26 C 243.00 193.67 242.58 196.71 240.37 198.12 C 240.70 195.92 241.40 193.81 242.25 191.77 C 241.62 190.53 240.42 191.72 240.32 192.65 C 240.04 194.28 239.14 195.63 237.91 196.71 Z" />
<path fill="#ffffff" opacity="1.00" d=" M 245.89 193.79 C 248.70 192.59 249.28 189.18 250.98 186.92 C 249.80 191.68 247.93 196.22 246.43 200.88 C 245.11 201.03 245.32 199.27 244.81 198.47 C 245.33 196.95 245.60 195.36 245.89 193.79 Z" />
<path fill="#ffffff" opacity="1.00" d=" M 283.85 188.61 C 284.85 186.26 287.29 188.48 285.24 189.86 C 284.22 190.13 283.76 189.72 283.85 188.61 Z" />
<path fill="#ffffff" opacity="1.00" d=" M 337.46 191.05 C 338.78 189.59 339.98 187.94 341.76 187.00 C 340.15 191.73 334.49 193.34 333.39 198.36 C 332.71 197.03 332.01 195.63 332.10 194.08 C 332.29 192.12 334.53 191.97 335.87 191.06 L 334.16 190.47 C 335.01 190.15 335.86 189.84 336.72 189.52 C 336.90 189.90 337.28 190.67 337.46 191.05 Z" />
<path fill="#ffffff" opacity="1.00" d=" M 192.36 188.14 C 195.21 187.74 192.04 192.00 190.46 190.75 C 189.86 189.54 191.45 188.58 192.36 188.14 Z" />
<path fill="#ffffff" opacity="1.00" d=" M 247.07 187.76 C 249.09 188.36 248.04 192.92 246.24 192.94 C 245.69 191.21 246.73 189.43 247.07 187.76 Z" />
<path fill="#ffffff" opacity="1.00" d=" M 321.10 193.99 C 321.23 191.88 321.67 189.82 322.55 187.89 C 322.55 190.72 322.14 193.53 321.26 196.22 C 321.48 197.01 321.70 197.81 321.92 198.61 C 320.84 199.37 319.78 200.17 318.73 200.97 C 318.17 198.28 318.61 195.52 321.10 193.99 Z" />
<path fill="#ffffff" opacity="1.00" d=" M 329.18 188.41 C 331.17 188.01 331.37 191.14 329.80 191.75 C 328.16 191.97 327.46 188.76 329.18 188.41 Z" />
<path fill="#ffffff" opacity="1.00" d=" M 189.83 195.88 C 192.67 193.64 194.77 190.59 197.83 188.61 C 197.32 189.57 196.81 190.53 196.30 191.49 C 196.64 191.96 197.33 192.91 197.67 193.38 L 198.90 193.68 C 197.66 196.37 195.20 198.06 192.75 199.55 C 192.15 198.85 191.56 198.16 190.97 197.47 L 192.53 197.53 L 192.63 195.46 C 191.93 195.56 190.53 195.77 189.83 195.88 Z" />
<path fill="#ffffff" opacity="1.00" d=" M 257.86 192.27 C 257.52 190.81 258.01 190.17 259.32 190.35 C 259.64 191.82 259.15 192.46 257.86 192.27 Z" />
<path fill="#ffffff" opacity="1.00" d=" M 297.00 196.23 C 297.77 193.61 300.43 191.98 301.93 189.73 C 301.77 190.94 301.60 192.15 301.42 193.37 C 301.55 196.23 300.08 198.04 296.99 198.79 L 299.81 194.76 C 299.05 195.65 298.11 196.14 297.00 196.23 Z" />
<path fill="#ffffff" opacity="1.00" d=" M 309.35 189.77 C 310.58 191.32 311.65 192.98 312.89 194.53 C 310.74 195.28 308.19 191.80 309.35 189.77 Z" />
<path fill="#ffffff" opacity="1.00" d=" M 317.18 193.20 C 317.65 192.00 318.18 190.82 318.79 189.69 C 318.68 191.07 318.52 192.45 318.33 193.82 L 319.50 193.25 C 318.99 194.51 318.48 195.78 317.98 197.04 C 316.03 196.50 315.36 194.36 317.18 193.20 Z" />
<path fill="#ffffff" opacity="1.00" d=" M 324.96 189.93 C 325.10 190.36 325.39 191.21 325.54 191.64 L 327.33 191.40 C 325.10 193.34 323.92 196.13 321.81 198.16 C 322.39 195.24 324.24 192.81 324.96 189.93 Z" />
<path fill="#ffffff" opacity="1.00" d=" M 249.08 200.48 C 249.20 197.42 250.04 194.33 251.88 191.86 C 251.64 194.89 250.73 197.91 249.08 200.48 Z" />
<path fill="#ffffff" opacity="1.00" d=" M 255.88 194.94 C 258.16 194.98 259.92 193.83 261.25 192.06 C 261.39 192.76 261.67 194.17 261.81 194.87 L 260.17 194.03 L 260.71 195.76 L 259.24 195.31 C 259.60 196.46 258.79 198.33 260.45 198.82 C 260.01 200.75 259.57 202.69 259.20 204.64 C 258.72 204.56 257.76 204.39 257.28 204.31 C 257.25 201.22 259.08 198.00 257.86 195.04 C 256.97 198.06 256.38 201.15 255.88 204.26 C 255.57 203.10 254.97 200.79 254.67 199.63 C 254.40 200.16 253.87 201.21 253.60 201.74 L 252.41 201.27 C 253.44 200.17 254.58 199.18 255.70 198.17 C 255.48 196.91 255.17 195.66 254.59 194.52 C 254.59 195.55 254.57 197.61 254.57 198.65 C 253.99 198.89 252.85 199.38 252.28 199.63 C 252.31 198.80 252.37 197.15 252.41 196.32 L 254.04 196.46 C 253.85 196.06 253.47 195.26 253.28 194.86 C 254.28 194.47 255.17 193.92 255.98 193.20 C 255.95 193.64 255.90 194.50 255.88 194.94 Z" />
<path fill="#ffffff" opacity="1.00" d=" M 304.94 193.31 C 306.32 195.75 308.25 197.86 309.33 200.47 C 307.23 199.71 306.95 197.09 305.25 196.12 C 304.97 196.50 304.42 197.26 304.14 197.63 C 304.74 198.12 305.93 199.08 306.52 199.56 C 305.82 200.35 305.11 201.12 304.37 201.87 L 306.44 201.31 C 305.28 203.30 303.33 204.93 303.03 207.34 C 302.11 209.60 300.13 210.87 297.95 211.73 C 299.06 209.40 301.23 207.52 301.20 204.74 C 299.23 206.36 298.92 209.23 295.77 208.61 C 296.52 209.07 297.27 209.53 298.03 210.01 C 296.62 210.46 295.33 210.17 294.16 209.14 C 295.25 207.40 296.42 205.73 297.53 204.01 C 298.41 204.36 299.30 204.71 300.19 205.06 C 300.23 204.31 300.32 202.79 300.36 202.03 L 300.92 202.22 C 301.61 201.14 302.33 200.07 302.98 198.96 C 301.84 199.99 300.78 201.11 299.73 202.23 C 299.40 201.45 298.75 199.90 298.42 199.12 C 299.96 197.74 301.70 196.41 301.91 194.15 L 303.53 194.88 C 303.82 194.75 304.40 194.50 304.69 194.37 L 304.94 193.31 Z" />
<path fill="#ffffff" opacity="1.00" d=" M 313.98 196.41 C 311.76 196.34 313.47 192.97 314.98 194.29 L 315.25 195.11 C 314.93 195.44 314.30 196.09 313.98 196.41 Z" />
<path fill="#ffffff" opacity="1.00" d=" M 202.07 195.05 C 201.53 196.06 200.90 197.01 200.29 197.98 L 201.99 198.52 C 201.13 198.45 200.27 198.37 199.42 198.30 C 196.51 201.06 193.50 203.71 190.52 206.39 C 189.11 207.79 187.95 206.34 186.88 205.42 C 188.84 204.07 190.47 202.01 192.86 201.42 C 196.70 200.72 199.29 197.51 202.07 195.05 Z" />
<path fill="#ffffff" opacity="1.00" d=" M 297.00 196.23 C 296.52 196.61 296.52 196.61 297.00 196.23 Z" />
<path fill="#ffffff" opacity="1.00" d=" M 328.12 195.36 L 329.48 195.49 C 329.46 196.18 329.41 197.55 329.39 198.23 C 329.50 197.72 329.72 196.69 329.83 196.18 L 331.25 196.25 C 331.00 197.58 330.71 198.90 330.38 200.21 C 328.92 200.32 327.67 201.10 326.37 201.68 L 326.51 199.76 C 325.23 200.81 323.88 201.81 322.16 201.88 C 323.97 199.54 326.56 197.89 328.12 195.36 Z" />
<path fill="#ffffff" opacity="1.00" d=" M 262.26 202.47 C 262.12 200.74 260.14 196.47 263.61 197.24 C 263.37 199.03 263.06 200.83 262.26 202.47 Z" />
<path fill="#ffffff" opacity="1.00" d=" M 314.99 196.90 C 317.10 194.75 319.90 200.19 316.80 199.34 C 316.34 198.73 315.44 197.51 314.99 196.90 Z" />
<path fill="#ffffff" opacity="1.00" d=" M 192.31 205.63 C 195.35 203.57 198.18 201.21 201.01 198.87 C 199.85 202.39 196.69 204.97 193.63 206.75 C 193.30 206.47 192.64 205.91 192.31 205.63 Z" />
<path fill="#ffffff" opacity="1.00" d=" M 288.48 207.13 C 291.91 204.84 294.19 201.01 298.46 200.05 C 297.00 202.68 295.40 205.24 293.92 207.86 C 293.45 207.10 293.00 206.34 292.56 205.57 L 292.91 207.59 C 291.50 207.72 290.12 207.96 288.76 208.33 L 288.48 207.13 Z" />
<path fill="#ffffff" opacity="1.00" d=" M 326.02 201.51 C 326.60 202.13 327.17 202.76 327.74 203.39 C 326.79 205.61 326.09 208.13 324.09 209.68 L 324.98 205.92 C 323.97 207.06 322.99 208.23 321.93 209.32 C 322.13 207.55 322.31 205.77 322.45 203.99 L 323.78 205.84 C 324.62 204.45 325.46 203.05 326.02 201.51 Z" />
<path fill="#ffffff" opacity="1.00" d=" M 332.27 202.55 C 333.54 201.66 335.20 203.72 333.96 204.71 C 332.72 205.58 330.85 203.48 332.27 202.55 Z" />
<path fill="#ffffff" opacity="1.00" d=" M 307.52 202.74 C 309.51 203.69 305.57 208.24 304.32 206.52 C 305.25 205.18 306.29 203.81 307.52 202.74 Z" />
<path fill="#ffffff" opacity="1.00" d=" M 330.48 203.03 C 330.80 204.06 331.14 205.10 331.47 206.13 C 330.28 206.80 329.11 207.50 327.93 208.19 C 327.88 207.37 327.77 205.74 327.71 204.93 C 328.63 204.30 329.56 203.67 330.48 203.03 Z" />
<path fill="#ffffff" opacity="1.00" d=" M 196.43 207.23 C 197.56 206.13 198.64 204.98 199.68 203.80 C 199.52 204.59 199.21 206.17 199.05 206.96 C 200.17 206.20 201.28 205.42 202.37 204.63 C 202.92 204.99 203.47 205.35 204.02 205.72 C 204.22 206.82 204.42 207.91 204.64 209.01 C 203.14 210.91 201.57 212.76 199.77 214.39 C 199.43 216.06 198.42 217.71 199.18 219.46 C 198.92 220.86 199.29 222.21 200.17 223.31 C 199.08 224.91 197.90 226.47 196.45 227.77 C 197.06 226.39 197.80 225.04 198.73 223.84 C 198.19 223.36 197.65 222.87 197.12 222.39 C 196.06 224.11 194.63 225.55 193.08 226.85 C 193.49 225.82 193.95 224.82 194.42 223.83 C 193.86 223.75 192.73 223.59 192.17 223.51 C 193.81 221.35 195.77 219.45 197.43 217.29 L 197.87 217.87 C 198.06 217.12 198.45 215.64 198.64 214.90 C 196.28 217.56 193.45 219.64 190.25 221.16 C 190.94 220.13 192.33 218.07 193.02 217.04 C 192.01 217.39 190.00 218.09 188.99 218.44 C 189.68 217.70 190.37 216.96 191.04 216.21 C 192.92 213.59 195.90 212.03 197.67 209.30 C 194.34 209.97 192.64 213.07 189.73 214.44 C 192.21 212.23 194.15 209.56 196.43 207.23 Z" />
<path fill="#ffffff" opacity="1.00" d=" M 238.57 209.97 C 238.65 208.63 238.77 207.33 238.95 206.01 C 239.02 206.58 239.16 207.72 239.23 208.29 L 240.42 209.04 C 240.50 209.46 240.65 210.30 240.73 210.72 C 241.72 210.18 242.72 209.66 243.74 209.18 C 242.82 211.65 242.01 214.23 240.50 216.41 C 239.78 216.44 239.06 216.46 238.35 216.45 C 238.83 214.92 239.29 213.38 239.72 211.84 C 238.39 213.31 237.17 214.89 235.80 216.33 C 236.44 214.06 237.40 211.89 238.00 209.60 L 238.57 209.97 Z" />
<path fill="#ffffff" opacity="1.00" d=" M 311.32 206.19 C 313.70 207.68 310.01 211.55 307.87 211.50 C 308.92 209.67 310.07 207.90 311.32 206.19 Z" />
<path fill="#ffffff" opacity="1.00" d=" M 313.76 210.95 C 314.64 208.80 316.36 207.19 318.07 205.68 C 317.25 207.87 316.05 210.04 313.76 210.95 Z" />
<path fill="#ffffff" opacity="1.00" d=" M 318.14 209.27 C 318.01 207.67 319.68 206.29 321.09 205.86 C 321.73 207.41 319.79 209.93 318.14 209.27 Z" />
<path fill="#ffffff" opacity="1.00" d=" M 208.92 207.93 C 208.67 209.32 208.22 210.66 207.65 211.95 C 207.83 212.41 208.20 213.31 208.38 213.76 C 206.98 215.59 205.27 217.14 203.65 218.78 C 202.71 218.37 201.77 217.98 200.84 217.58 C 204.28 215.05 207.58 212.14 208.92 207.93 Z" />
<path fill="#ffffff" opacity="1.00" d=" M 292.37 208.37 C 292.65 208.65 292.65 208.65 292.37 208.37 Z" />
<path fill="#ffffff" opacity="1.00" d=" M 304.45 211.71 C 304.15 210.39 306.04 208.92 307.29 209.20 C 307.85 210.61 305.77 212.25 304.45 211.71 Z" />
<path fill="#ffffff" opacity="1.00" d=" M 322.11 213.33 C 324.05 212.31 325.93 211.17 327.87 210.15 C 325.54 212.69 322.65 214.61 319.62 216.23 C 319.12 215.65 318.62 215.08 318.12 214.51 C 317.38 215.60 316.39 216.40 315.15 216.91 C 315.25 216.48 315.46 215.61 315.56 215.17 C 316.74 214.60 317.81 213.86 318.75 212.93 C 319.11 213.54 319.47 214.16 319.85 214.77 C 320.45 213.88 321.65 212.10 322.25 211.21 C 322.22 211.74 322.14 212.80 322.11 213.33 Z" />
<path fill="#ffffff" opacity="1.00" d=" M 249.57 220.15 C 249.09 217.62 249.56 214.43 251.81 212.84 C 251.51 215.37 251.00 218.00 249.57 220.15 Z" />
<path fill="#ffffff" opacity="1.00" d=" M 258.71 213.24 C 258.85 213.28 259.13 213.35 259.27 213.38 C 259.04 217.20 259.22 221.46 256.61 224.57 L 257.00 221.22 L 254.54 223.25 C 255.13 220.13 256.14 217.10 256.66 213.96 C 256.75 214.58 256.93 215.81 257.03 216.43 C 257.45 215.63 258.29 214.04 258.71 213.24 Z" />
<path fill="#ffffff" opacity="1.00" d=" M 268.75 213.19 C 268.92 213.13 269.27 213.00 269.45 212.93 C 269.96 216.09 271.12 219.32 269.82 222.47 C 268.20 219.62 268.91 216.29 268.75 213.19 Z" />
<path fill="#ffffff" opacity="1.00" d=" M 280.57 213.32 C 281.13 214.38 281.70 215.43 282.30 216.48 C 280.96 217.30 279.71 218.39 278.08 218.59 L 278.06 220.13 C 276.92 218.12 276.05 215.96 275.48 213.72 C 276.77 214.76 277.95 215.88 279.21 216.97 C 279.73 215.78 280.18 214.55 280.57 213.32 Z" />
<path fill="#ffffff" opacity="1.00" d=" M 203.89 223.73 C 206.11 220.75 209.07 218.40 211.11 215.27 C 211.32 216.03 211.74 217.56 211.95 218.32 C 210.80 220.27 209.61 222.21 208.49 224.18 C 208.43 223.48 208.30 222.06 208.24 221.35 C 206.51 221.43 205.37 223.00 203.89 223.73 Z" />
<path fill="#ffffff" opacity="1.00" d=" M 224.75 214.68 C 224.39 217.73 225.04 221.49 222.38 223.68 L 222.03 220.52 C 220.92 222.81 220.22 225.30 218.74 227.40 C 219.00 224.95 219.33 222.36 221.20 220.54 C 221.22 219.85 221.26 218.48 221.29 217.79 C 221.87 219.03 222.45 220.28 223.02 221.53 C 223.75 219.28 224.16 216.96 224.75 214.68 Z" />
<path fill="#ffffff" opacity="1.00" d=" M 209.61 227.08 C 210.75 224.26 211.92 221.00 214.85 219.57 C 214.67 220.22 214.33 221.51 214.15 222.16 C 214.37 225.14 213.02 227.87 212.18 230.65 C 211.75 230.61 210.89 230.52 210.46 230.48 C 210.66 230.19 211.06 229.62 211.26 229.33 C 211.83 227.86 212.41 226.39 213.00 224.92 C 212.15 225.46 210.45 226.54 209.61 227.08 Z" />
<path fill="#ffffff" opacity="1.00" d=" M 210.26 237.95 L 211.03 237.86 C 211.06 238.27 211.11 239.09 211.14 239.50 L 210.35 239.60 C 210.33 239.19 210.29 238.36 210.26 237.95 Z" />
</g>
</svg>
