<?xml version="1.0" encoding="UTF-8" ?>
<!DOCTYPE svg PUBLIC "-//W3C//DTD SVG 1.1//EN" "http://www.w3.org/Graphics/SVG/1.1/DTD/svg11.dtd">
<svg width="512pt" height="256pt" viewBox="0 0 512 256" version="1.1" xmlns="http://www.w3.org/2000/svg">
<g id="#ffffffff">
<path fill="#ffffff" opacity="1.00" d=" M 246.64 22.15 C 247.01 22.12 247.74 22.06 248.11 22.03 C 248.63 24.45 248.90 26.92 249.52 29.33 C 249.79 27.15 248.63 24.48 251.04 23.13 C 251.31 24.73 251.57 26.32 251.82 27.92 L 252.97 27.82 C 252.56 25.73 252.09 23.66 251.73 21.56 C 252.94 23.53 253.60 25.90 255.41 27.45 C 254.53 25.26 255.24 23.12 256.63 21.42 C 257.10 23.92 257.29 26.45 257.62 28.97 C 258.89 26.87 257.76 24.31 258.38 22.03 C 258.72 22.66 259.40 23.91 259.75 24.53 C 260.62 24.45 262.37 24.29 263.24 24.21 C 263.28 24.75 263.35 25.84 263.39 26.38 C 263.94 25.77 265.04 24.55 265.59 23.94 C 266.51 25.75 266.80 27.73 266.67 29.74 C 266.84 29.73 267.17 29.72 267.33 29.72 C 267.46 29.06 267.71 27.73 267.84 27.07 C 268.84 25.61 269.78 24.11 270.90 22.74 C 270.59 24.07 270.26 25.39 269.90 26.71 C 270.37 26.58 271.30 26.31 271.77 26.18 C 270.80 28.67 270.01 31.23 269.30 33.80 C 270.36 32.81 271.31 31.64 272.73 31.13 L 272.15 30.32 L 273.29 30.45 C 274.13 28.65 274.02 24.94 277.00 26.71 C 275.24 29.39 275.25 32.51 276.78 35.36 C 276.90 33.51 276.43 31.70 276.30 29.87 C 277.32 28.92 278.39 28.03 279.53 27.21 C 278.94 30.65 277.48 33.83 276.40 37.11 C 278.11 35.25 279.61 33.23 281.18 31.26 C 281.29 31.93 281.52 33.29 281.63 33.96 C 282.49 33.59 284.22 32.86 285.08 32.49 C 284.42 34.79 283.86 37.11 283.17 39.39 C 284.23 38.25 285.23 37.07 286.27 35.91 C 286.74 36.85 287.18 37.80 287.64 38.76 L 289.39 38.21 C 288.56 39.48 287.73 40.73 286.89 41.98 C 288.07 41.50 290.42 40.54 291.60 40.06 C 291.50 41.01 291.30 42.92 291.20 43.88 C 290.71 43.76 289.73 43.53 289.24 43.42 C 291.39 45.48 294.86 42.35 296.51 45.14 C 294.36 45.52 292.26 46.00 290.16 46.55 L 290.38 44.69 C 289.20 45.50 288.01 46.29 286.81 47.07 C 287.70 47.24 289.48 47.59 290.37 47.76 C 291.91 46.42 295.92 44.75 295.69 48.28 C 296.54 50.29 293.83 51.20 292.29 50.86 C 291.95 50.88 291.62 50.95 291.28 51.07 C 292.67 51.44 293.94 52.12 295.21 52.80 C 295.54 53.02 296.21 53.47 296.55 53.70 C 299.92 53.51 303.30 52.81 306.69 53.26 L 306.37 52.38 C 308.14 52.57 309.91 52.76 311.67 53.05 L 311.88 55.93 C 309.88 55.55 307.53 55.90 306.06 54.18 C 306.27 54.67 306.68 55.65 306.89 56.15 C 304.84 56.48 302.85 56.14 300.97 55.33 C 299.33 55.51 297.67 55.56 296.03 55.59 C 302.21 57.10 308.69 56.99 314.97 56.18 C 314.45 56.97 313.94 57.76 313.43 58.55 C 311.56 58.58 309.70 58.62 307.85 58.75 C 306.06 59.29 304.25 58.75 302.46 58.57 C 303.87 60.26 306.11 59.20 307.97 59.50 C 309.81 59.83 311.55 60.55 313.34 61.09 C 313.41 60.89 313.54 60.49 313.61 60.29 C 313.57 61.07 313.47 62.63 313.43 63.41 C 314.35 63.90 315.27 64.39 316.20 64.88 C 316.24 67.79 317.69 70.39 319.54 72.57 L 317.00 72.37 C 317.43 72.50 318.29 72.74 318.72 72.86 C 318.65 73.94 318.59 75.02 318.52 76.10 C 319.62 76.68 320.73 77.27 321.82 77.90 C 321.21 78.24 320.01 78.92 319.40 79.26 C 320.76 80.03 322.15 80.79 323.48 81.60 C 322.99 82.77 322.51 83.94 322.05 85.12 L 320.26 83.78 C 320.63 83.37 321.36 82.56 321.73 82.15 C 319.70 80.23 317.44 82.19 315.63 83.30 C 314.83 82.48 314.02 81.67 313.21 80.86 L 315.85 80.27 C 314.94 80.31 313.14 80.38 312.23 80.42 C 311.43 79.45 311.02 78.27 311.40 77.04 C 313.81 78.35 316.36 79.57 319.17 79.52 C 315.64 77.67 311.51 77.16 308.25 74.79 C 307.05 73.70 305.81 72.62 304.27 72.06 C 305.65 73.91 307.37 75.51 309.24 76.86 C 310.61 77.51 308.93 78.35 308.39 78.82 C 309.45 79.69 310.50 80.64 311.89 80.94 C 312.75 81.83 313.58 82.75 314.44 83.65 C 316.45 83.98 318.27 83.34 319.73 81.95 C 319.71 82.87 319.65 84.72 319.63 85.64 C 321.28 85.48 322.93 85.29 324.59 85.20 C 324.27 85.89 323.64 87.28 323.33 87.97 L 325.90 87.23 C 325.65 87.60 325.15 88.36 324.90 88.73 C 326.52 89.93 328.12 91.38 327.84 93.59 C 325.11 92.69 322.24 92.36 319.44 93.11 C 322.73 93.75 326.11 93.84 329.39 94.57 C 329.44 95.36 329.52 96.94 329.56 97.74 C 330.09 97.68 331.14 97.58 331.67 97.52 C 331.70 97.75 331.78 98.20 331.82 98.43 C 327.96 98.86 324.07 98.80 320.22 98.38 C 320.23 98.61 320.25 99.08 320.26 99.32 C 322.54 99.44 324.82 99.65 327.10 99.87 C 328.24 100.19 329.39 100.48 330.55 100.76 C 330.56 100.87 330.57 101.07 330.58 101.18 C 329.98 101.21 328.77 101.29 328.17 101.32 C 328.67 101.92 329.67 103.11 330.17 103.71 C 329.39 103.77 327.84 103.89 327.06 103.95 C 325.14 103.39 323.12 103.26 321.14 103.23 L 321.18 101.66 C 321.91 101.65 323.37 101.63 324.10 101.62 C 321.82 101.50 319.62 100.97 317.45 100.33 C 317.50 99.41 317.59 97.56 317.63 96.64 C 316.22 97.37 316.38 98.80 316.53 100.13 C 316.47 100.72 316.36 101.92 316.31 102.52 C 317.95 100.48 319.59 102.22 321.10 102.90 L 318.39 103.69 C 323.71 104.15 329.45 104.81 333.64 108.47 C 331.56 107.88 329.51 107.24 327.36 106.97 C 328.72 108.18 330.45 108.66 332.16 109.11 C 331.31 109.72 330.46 110.34 329.61 110.95 C 330.40 110.77 331.97 110.40 332.75 110.21 C 332.97 110.92 333.42 112.33 333.64 113.04 C 331.99 113.27 327.00 109.79 328.63 114.05 C 327.20 113.46 325.77 112.90 324.34 112.35 L 324.45 111.68 C 322.77 111.55 321.09 111.39 319.41 111.35 C 320.40 111.99 321.46 112.51 322.58 112.91 L 322.40 113.64 C 323.18 113.56 324.75 113.42 325.53 113.34 L 325.37 114.72 C 325.78 114.65 326.58 114.52 326.99 114.45 C 328.20 115.24 329.45 115.96 330.70 116.69 C 329.08 117.67 329.42 118.74 330.80 119.78 C 329.63 119.63 328.46 119.49 327.30 119.38 C 325.84 118.64 324.34 117.92 322.85 117.27 C 325.23 121.67 329.87 123.57 334.02 125.85 C 330.39 125.10 326.63 125.02 323.07 124.16 L 325.28 123.13 C 323.11 120.95 318.88 120.38 318.23 117.10 C 316.55 117.70 314.47 118.82 314.05 116.21 C 313.15 115.08 313.04 113.68 313.46 112.32 C 314.24 112.79 315.80 113.73 316.58 114.20 C 316.40 113.79 316.04 112.96 315.86 112.55 L 316.07 111.99 C 316.48 111.80 317.30 111.43 317.71 111.24 C 315.21 109.07 312.79 106.79 310.06 104.91 C 311.42 106.51 312.88 108.04 314.68 109.17 C 312.88 109.76 312.23 110.95 312.87 112.75 C 311.96 112.63 311.07 112.46 310.19 112.24 C 310.87 112.89 311.60 113.51 312.37 114.08 C 312.40 114.75 312.45 116.11 312.48 116.78 L 312.79 116.64 C 313.83 118.51 315.81 118.57 317.71 118.59 C 318.21 119.16 319.20 120.29 319.69 120.86 C 318.78 120.80 316.96 120.68 316.05 120.62 L 316.29 120.13 L 315.79 119.94 L 315.58 120.43 L 316.05 120.62 C 317.46 121.95 319.07 123.06 320.68 124.13 C 322.56 125.15 324.73 126.24 325.21 128.59 C 322.09 126.91 318.75 125.73 315.30 124.99 C 315.96 124.44 316.63 123.88 317.30 123.33 C 316.07 122.25 314.84 121.17 313.46 120.29 L 316.10 124.72 C 311.41 122.87 310.75 117.20 307.22 113.99 C 307.46 115.33 308.15 116.63 307.96 118.02 L 307.57 118.35 C 307.09 118.03 306.13 117.40 305.65 117.08 C 306.95 119.37 308.16 121.71 309.14 124.16 C 308.46 123.68 307.09 122.72 306.41 122.24 C 305.96 122.73 305.06 123.71 304.61 124.20 C 304.32 122.46 303.80 120.64 304.58 118.95 C 304.40 118.46 304.03 117.47 303.84 116.98 L 303.56 116.45 C 302.75 116.52 301.96 116.65 301.18 116.82 C 300.83 116.68 300.12 116.38 299.77 116.23 C 299.39 116.33 298.64 116.53 298.26 116.63 C 298.04 116.18 297.61 115.30 297.39 114.85 C 297.46 115.62 297.60 117.14 297.66 117.90 L 294.80 117.05 C 294.23 116.31 293.67 115.58 293.09 114.85 C 291.95 114.36 290.86 113.78 289.71 113.32 C 289.44 112.81 288.90 111.78 288.62 111.26 C 288.51 111.73 288.28 112.66 288.17 113.12 C 287.50 112.64 286.17 111.66 285.50 111.17 L 285.01 108.48 C 285.46 108.43 286.36 108.34 286.82 108.30 C 286.98 108.72 287.32 109.58 287.49 110.00 C 288.14 109.83 289.46 109.48 290.11 109.31 C 284.77 106.22 283.33 99.24 283.44 93.55 C 282.30 91.04 280.52 88.72 279.93 86.01 C 281.35 82.97 279.02 79.99 277.71 77.36 C 277.56 77.80 277.28 78.67 277.13 79.11 C 276.95 79.31 276.59 79.71 276.41 79.91 C 275.61 77.72 274.10 75.94 272.62 74.18 C 272.64 74.68 272.67 75.67 272.69 76.16 C 269.34 76.33 270.70 71.20 269.48 68.99 C 269.54 69.69 269.68 71.10 269.74 71.80 C 269.17 72.49 268.66 73.22 268.21 74.00 L 268.37 74.58 C 271.30 76.87 273.04 80.17 274.92 83.29 C 273.73 83.90 272.49 84.43 271.27 84.96 C 271.15 84.24 270.92 82.80 270.80 82.09 C 271.26 83.86 269.56 87.62 272.40 87.83 C 271.36 85.59 273.78 84.44 275.41 85.94 C 275.88 88.43 276.53 90.90 276.92 93.42 C 277.11 94.52 277.31 95.62 277.52 96.72 C 278.91 97.36 278.63 95.71 278.01 95.07 C 275.41 89.67 276.59 82.84 272.58 78.06 C 272.99 77.44 273.40 76.82 273.82 76.20 C 275.20 80.33 278.04 83.75 279.37 87.90 C 280.52 90.56 280.15 93.86 282.54 95.90 C 282.69 97.64 283.72 99.35 283.15 101.10 C 281.80 100.65 281.20 99.10 280.11 98.26 C 280.44 99.43 280.77 100.62 280.84 101.85 L 278.90 101.87 L 280.40 102.16 C 279.93 103.95 280.78 105.56 282.62 105.94 L 282.12 108.05 C 283.05 108.65 283.99 109.24 284.94 109.83 C 284.83 110.12 284.62 110.72 284.51 111.02 C 285.46 111.62 286.40 112.23 287.34 112.85 L 287.77 113.21 L 287.66 114.13 C 289.01 114.10 290.18 114.59 291.10 115.58 C 291.52 115.73 292.35 116.01 292.77 116.15 C 292.64 116.55 292.38 117.33 292.25 117.73 C 292.43 118.16 292.79 119.03 292.97 119.46 C 293.69 119.46 295.10 118.72 295.21 119.94 C 294.45 122.78 291.05 123.51 289.20 125.52 C 289.86 125.48 291.19 125.40 291.86 125.36 C 290.34 128.66 285.63 129.43 285.24 133.32 C 286.15 134.94 285.50 136.36 284.25 137.57 C 285.11 138.04 285.95 138.52 286.79 139.02 L 284.11 138.27 L 282.88 138.66 C 282.68 139.25 282.29 140.43 282.09 141.02 C 281.34 140.17 280.58 139.32 279.85 138.47 C 280.48 138.70 281.73 139.16 282.36 139.39 L 282.89 137.83 C 282.33 137.58 281.21 137.08 280.65 136.83 C 283.54 134.31 285.93 131.33 287.29 127.68 C 285.55 129.12 283.83 130.51 282.01 131.82 C 280.59 133.50 279.29 135.53 277.07 136.24 L 280.15 131.82 C 279.25 132.52 277.43 133.92 276.52 134.63 C 276.11 133.95 275.71 133.28 275.29 132.62 C 274.67 134.00 273.65 134.84 272.21 135.13 C 273.74 132.84 275.72 130.91 277.58 128.89 C 277.93 127.47 278.33 126.07 278.62 124.64 C 277.97 125.88 277.50 127.22 276.97 128.52 C 274.46 129.01 273.07 131.20 271.25 132.75 C 272.50 131.07 273.48 129.25 274.19 127.30 C 273.07 128.29 270.81 130.27 269.69 131.26 C 271.01 128.73 272.98 126.50 273.67 123.66 C 271.61 125.24 270.69 127.70 269.91 130.07 C 269.42 129.59 268.42 128.63 267.93 128.16 C 268.39 129.44 268.88 130.72 269.41 131.98 C 269.40 132.87 269.39 134.64 269.38 135.53 L 267.82 135.24 L 268.86 133.60 C 267.93 133.56 266.05 133.46 265.12 133.41 C 265.25 134.09 265.52 135.45 265.65 136.13 C 263.82 134.49 261.46 133.82 259.11 133.29 C 259.28 132.84 259.61 131.93 259.78 131.47 L 258.08 132.60 L 258.69 130.28 L 257.24 130.89 C 257.23 130.24 257.19 128.93 257.18 128.28 C 255.12 128.86 253.16 130.86 250.93 129.93 C 249.21 129.16 246.69 129.13 246.41 126.69 C 247.38 127.04 249.32 127.73 250.30 128.08 C 249.80 127.71 248.81 126.98 248.31 126.61 C 248.33 125.97 248.37 124.69 248.39 124.04 C 247.16 124.89 245.94 125.73 244.70 126.55 C 244.58 125.35 244.46 124.15 244.37 122.95 C 243.81 122.76 242.68 122.38 242.12 122.19 C 241.91 122.47 241.50 123.01 241.29 123.29 C 243.07 125.01 244.28 127.57 247.00 127.97 C 244.49 131.28 240.21 132.14 236.32 131.16 C 237.15 130.11 237.99 129.08 238.84 128.05 C 237.58 128.73 236.34 129.46 235.04 130.05 C 234.18 129.39 233.34 128.73 232.52 128.05 C 232.41 128.42 232.18 129.18 232.07 129.56 C 232.77 129.88 234.17 130.53 234.87 130.85 C 233.51 131.97 231.99 132.87 230.52 133.83 C 226.45 133.15 222.28 133.33 219.13 136.39 C 219.73 136.72 220.94 137.39 221.54 137.72 C 220.24 138.38 218.94 139.03 217.63 139.67 C 216.51 139.41 215.51 139.87 214.52 140.31 C 215.53 140.44 217.53 140.70 218.53 140.82 C 216.55 142.09 214.48 143.17 212.42 144.28 C 209.07 144.76 204.23 144.96 203.99 149.40 C 203.55 148.99 203.12 148.57 202.70 148.15 C 204.05 147.45 204.65 146.35 204.50 144.87 C 205.17 144.50 206.50 143.75 207.17 143.37 C 206.13 143.38 204.05 143.39 203.01 143.40 C 202.80 142.36 202.59 141.33 202.38 140.29 C 201.72 140.69 200.40 141.49 199.74 141.89 C 202.06 138.77 204.60 135.71 207.90 133.57 C 211.22 131.26 214.32 128.23 218.30 127.14 C 218.80 127.29 219.81 127.57 220.32 127.71 C 219.41 128.50 218.42 129.17 217.35 129.73 C 218.74 130.14 220.12 130.56 221.53 130.92 C 220.99 131.11 219.91 131.48 219.38 131.66 L 219.63 132.73 L 218.30 132.30 L 218.28 134.59 C 219.60 134.13 220.92 133.70 222.26 133.30 C 222.82 132.56 223.38 131.82 223.95 131.08 C 223.51 131.00 222.64 130.84 222.21 130.75 C 222.31 130.28 222.51 129.35 222.62 128.88 C 222.44 127.62 222.30 126.36 222.15 125.11 C 221.71 124.30 220.51 122.50 222.23 122.17 C 223.96 121.21 225.84 120.58 227.67 119.85 L 227.61 119.11 L 225.60 120.19 C 225.54 119.36 225.40 117.69 225.33 116.86 C 227.35 116.93 229.34 116.75 231.31 116.32 C 231.46 117.02 231.75 118.41 231.90 119.11 C 230.93 119.66 229.96 120.21 229.00 120.77 C 230.20 120.33 231.39 119.86 232.59 119.42 L 232.20 118.63 C 233.33 118.55 234.46 118.46 235.59 118.36 C 235.75 118.73 236.08 119.46 236.24 119.83 C 237.13 120.11 238.92 120.67 239.81 120.95 L 237.02 121.75 L 236.02 121.32 L 235.18 120.80 C 234.94 120.62 234.45 120.24 234.20 120.06 L 235.35 121.63 C 232.92 120.57 232.10 121.61 232.32 123.69 C 233.50 123.92 234.38 123.56 234.98 122.63 C 236.76 122.33 238.51 121.90 240.26 121.43 C 240.19 119.46 241.89 118.61 243.31 117.70 C 241.58 117.45 240.62 116.10 240.11 114.55 C 242.06 112.93 243.97 111.24 245.80 109.48 L 245.88 111.11 L 247.56 110.04 C 247.66 110.49 247.87 111.39 247.98 111.84 L 250.76 109.56 L 249.09 112.76 L 251.80 112.39 L 251.29 111.35 L 252.70 111.48 C 252.07 110.43 251.47 109.37 250.88 108.31 C 249.73 108.92 248.58 109.51 247.42 110.09 C 247.52 108.51 247.62 106.94 247.70 105.37 C 252.91 106.10 243.74 102.06 249.61 101.45 C 251.01 102.37 252.40 103.28 253.85 104.11 C 253.28 105.03 252.72 105.95 252.15 106.87 C 253.94 105.40 255.96 105.02 257.68 106.84 C 255.01 109.36 252.55 112.12 250.78 115.35 C 254.61 115.00 252.59 118.32 250.84 119.49 C 252.01 119.38 253.19 119.30 254.38 119.45 C 253.98 118.92 253.20 117.87 252.81 117.34 C 257.06 116.85 258.08 121.76 260.74 124.05 C 259.53 121.12 257.93 118.38 256.27 115.70 C 256.23 115.08 256.15 113.85 256.11 113.23 C 255.66 113.05 254.77 112.68 254.32 112.49 C 255.70 110.69 257.06 108.87 258.41 107.04 C 259.61 107.42 260.80 107.80 262.01 108.16 C 262.86 109.92 263.05 111.81 262.55 113.72 C 260.96 112.02 260.63 109.58 259.54 107.59 C 259.57 108.76 259.62 111.09 259.65 112.26 C 258.78 112.89 257.93 113.55 257.10 114.23 C 260.89 116.97 261.38 122.18 264.46 125.62 L 264.93 126.10 C 265.55 127.10 266.13 128.12 266.74 129.13 C 266.57 128.48 266.24 127.19 266.07 126.54 C 266.39 125.77 266.69 125.00 266.96 124.21 C 266.18 124.74 265.38 124.88 264.54 124.61 C 262.41 121.62 261.98 117.57 261.05 114.06 C 261.69 114.81 262.98 116.30 263.62 117.05 C 263.59 116.27 263.55 114.71 263.52 113.93 C 266.19 115.81 266.60 119.21 266.54 122.21 C 269.75 121.25 268.03 124.95 269.43 126.32 C 269.36 125.35 269.23 123.42 269.17 122.45 L 271.56 123.43 C 270.38 122.79 269.21 122.15 268.02 121.55 C 268.96 120.54 269.91 119.52 270.86 118.51 L 270.71 120.75 C 271.25 120.59 272.34 120.26 272.88 120.10 C 272.74 121.03 272.47 122.89 272.34 123.82 C 273.54 122.01 274.61 120.13 275.58 118.18 C 274.29 118.39 273.02 118.60 271.73 118.79 C 270.29 114.73 268.40 110.84 266.27 107.10 C 267.70 107.72 269.09 108.49 270.65 108.78 C 271.03 109.09 271.79 109.70 272.17 110.00 C 271.76 108.96 271.36 107.93 270.95 106.89 C 270.66 105.17 270.20 103.48 269.53 101.86 C 269.83 104.06 270.31 106.23 270.70 108.43 C 267.47 108.04 267.81 104.69 267.53 102.42 C 267.21 103.53 266.89 104.64 266.57 105.75 C 265.56 104.70 264.84 103.18 263.16 103.06 C 264.77 106.83 267.37 110.07 269.11 113.77 C 269.28 115.60 269.35 117.44 269.46 119.28 C 266.83 118.04 268.47 114.17 265.25 113.43 L 264.68 113.69 C 264.90 110.22 263.66 106.91 262.16 103.86 C 261.74 104.59 260.91 106.03 260.49 106.76 C 259.43 105.83 258.35 104.94 257.23 104.10 C 257.65 102.86 258.11 101.64 258.59 100.42 C 257.73 101.14 256.88 101.86 256.03 102.58 C 254.73 102.54 253.42 102.54 252.13 102.55 L 253.65 100.95 C 252.98 101.10 251.63 101.39 250.95 101.54 L 251.73 98.65 C 253.71 97.57 255.71 96.54 257.79 95.66 L 257.51 97.70 C 258.66 97.70 259.82 97.71 260.98 97.73 C 262.13 99.46 263.59 100.93 265.28 102.15 C 264.79 101.33 263.82 99.69 263.33 98.88 C 263.60 98.23 264.14 96.95 264.41 96.31 C 265.18 96.30 265.95 96.31 266.73 96.36 C 267.23 95.32 267.78 94.25 267.86 93.07 C 267.57 92.67 266.99 91.86 266.70 91.45 C 265.54 91.42 264.39 91.49 263.25 91.51 C 262.88 91.81 262.13 92.42 261.76 92.73 C 260.76 93.36 259.76 93.98 258.78 94.63 C 259.28 94.54 260.27 94.38 260.77 94.30 C 261.76 93.40 262.92 92.85 264.23 92.65 C 267.10 92.79 264.33 94.64 263.45 95.48 C 261.81 97.82 258.97 95.81 256.95 95.25 C 254.85 95.57 253.28 97.33 251.73 98.65 L 251.32 99.02 C 249.86 100.29 248.37 101.52 246.88 102.74 C 246.10 104.09 245.01 105.20 243.92 106.28 L 243.52 103.81 C 242.14 104.81 240.75 105.80 239.41 106.85 C 238.81 106.90 237.62 107.00 237.02 107.05 C 237.18 106.57 237.50 105.61 237.66 105.13 C 235.48 105.76 233.92 107.52 232.00 108.64 C 231.58 108.09 230.73 106.98 230.31 106.43 C 232.12 104.38 233.57 101.89 236.22 100.79 C 234.27 100.57 232.54 101.67 230.71 102.08 C 230.67 101.34 230.58 99.84 230.54 99.09 L 232.65 99.70 L 231.38 98.36 C 230.63 98.73 229.15 99.47 228.40 99.84 C 228.42 99.27 228.46 98.13 228.48 97.56 C 227.40 97.18 226.32 96.81 225.25 96.45 L 225.53 95.86 C 223.88 94.79 223.09 93.18 223.17 91.05 C 224.23 91.71 225.26 92.43 226.29 93.15 C 225.97 92.25 225.67 91.35 225.37 90.46 C 224.73 90.60 224.10 90.75 223.47 90.89 C 223.72 90.10 223.98 89.31 224.24 88.52 C 226.15 87.68 228.11 86.96 230.03 86.15 C 227.55 86.70 225.17 87.66 222.78 88.49 C 222.99 85.59 226.33 85.58 227.81 83.65 C 228.47 83.33 229.78 82.69 230.43 82.37 L 228.14 82.91 C 228.47 82.04 229.11 80.28 229.43 79.41 C 230.38 80.05 231.10 80.93 231.79 81.84 C 233.13 80.47 234.60 79.24 236.04 77.97 C 234.36 78.85 232.70 79.78 231.00 80.59 C 231.53 79.35 232.15 78.15 232.95 77.06 C 232.20 77.34 231.46 77.66 230.74 78.01 C 228.85 79.21 227.01 80.51 225.19 81.80 C 225.69 80.46 226.43 79.27 227.41 78.23 C 226.71 77.92 226.00 77.63 225.29 77.37 C 224.41 78.07 223.51 78.76 222.63 79.45 L 224.15 79.72 C 224.85 81.32 225.32 83.15 227.02 84.06 C 226.09 84.46 225.15 84.68 224.18 84.72 C 223.32 83.67 222.84 82.36 222.26 81.15 C 221.05 80.17 219.78 79.28 218.44 78.51 C 217.91 77.60 217.38 76.69 216.86 75.79 C 217.81 75.04 218.45 73.63 219.80 73.54 C 222.36 73.26 223.59 70.60 225.62 69.33 C 225.21 72.00 224.06 74.44 223.26 76.99 C 224.83 75.26 226.18 73.35 227.60 71.49 C 227.25 71.31 226.54 70.95 226.18 70.77 C 225.99 69.32 227.84 68.82 228.53 67.82 C 227.40 68.25 226.26 68.68 225.13 69.11 C 225.23 68.61 225.45 67.61 225.56 67.11 C 227.00 66.52 228.00 65.33 229.01 64.19 C 228.16 64.28 226.48 64.45 225.64 64.53 C 226.57 63.71 227.51 62.88 228.47 62.09 C 228.32 61.61 228.01 60.66 227.86 60.18 L 229.54 61.16 C 228.13 58.30 231.75 58.14 233.10 56.72 C 235.21 56.71 237.41 56.72 239.24 55.48 C 236.97 55.51 234.71 55.70 232.44 55.71 C 232.45 54.83 232.48 53.08 232.49 52.21 C 234.31 52.33 236.13 52.48 237.95 52.63 C 235.58 51.21 233.45 49.41 230.95 48.23 C 228.09 47.04 226.94 43.83 225.43 41.37 C 226.27 41.77 227.94 42.56 228.78 42.96 C 228.33 42.28 227.42 40.92 226.97 40.24 C 225.57 40.35 224.18 40.46 222.78 40.57 C 223.42 41.00 224.69 41.86 225.33 42.29 L 225.01 43.65 C 222.73 41.50 220.35 39.44 218.41 36.97 L 217.74 38.36 C 218.80 35.42 215.93 34.59 214.89 36.79 C 214.29 34.14 212.86 31.85 211.10 29.82 C 212.70 29.20 214.31 28.58 215.90 27.94 C 214.78 28.44 213.88 29.18 213.20 30.16 C 214.03 31.87 215.07 33.46 216.12 35.03 C 215.69 33.29 215.01 31.62 214.41 29.94 L 216.42 30.78 C 216.53 29.80 216.75 27.83 216.86 26.85 C 218.36 28.91 219.47 31.26 221.23 33.15 C 220.45 34.33 219.65 35.51 218.86 36.69 L 220.38 36.31 C 220.63 36.80 221.13 37.79 221.39 38.29 C 221.41 37.19 221.46 35.00 221.48 33.90 C 222.57 35.57 223.49 37.36 224.61 39.01 C 224.66 38.44 224.76 37.30 224.81 36.72 L 224.83 36.44 C 225.97 37.51 227.31 38.34 228.79 38.82 C 228.75 39.93 228.71 41.05 228.67 42.17 C 230.33 44.58 232.05 47.00 234.43 48.77 C 234.48 46.98 234.54 45.20 234.49 43.41 C 234.18 44.15 233.54 45.62 233.23 46.36 C 232.17 44.57 231.14 42.77 230.14 40.95 C 231.37 39.63 232.48 35.42 229.18 36.60 L 228.31 35.83 C 228.29 36.50 228.25 37.85 228.23 38.52 C 227.38 37.37 226.54 36.21 225.71 35.05 C 226.05 34.53 226.73 33.49 227.07 32.97 C 226.42 32.68 225.13 32.09 224.49 31.80 C 224.60 33.44 224.80 35.08 224.81 36.72 L 224.37 36.82 C 224.00 36.49 223.26 35.83 222.89 35.50 C 223.69 33.39 224.61 31.33 225.15 29.13 L 223.30 29.79 L 223.69 28.15 L 221.99 28.72 C 222.01 28.44 222.06 27.86 222.08 27.58 C 223.93 28.05 225.81 28.39 227.70 28.74 C 227.59 27.76 227.38 25.81 227.28 24.84 C 227.63 25.57 228.32 27.02 228.67 27.75 C 229.03 27.06 229.74 25.70 230.10 25.01 C 230.92 28.33 231.56 31.77 233.45 34.70 C 233.71 31.26 232.77 27.88 232.32 24.49 C 233.46 25.75 235.17 25.73 236.60 24.97 C 237.38 25.50 238.95 26.56 239.73 27.10 C 239.43 25.98 238.82 23.73 238.52 22.61 C 240.30 24.21 241.91 25.98 243.38 27.87 C 243.61 26.25 243.90 24.63 244.27 23.03 C 246.97 27.45 247.74 32.76 249.47 37.61 C 250.87 38.91 252.45 39.96 254.08 40.95 C 254.62 42.47 254.94 44.92 257.04 44.84 C 256.07 43.17 254.89 41.64 253.92 39.98 C 246.77 37.03 248.16 28.28 246.64 22.15 M 243.78 33.39 C 243.04 34.44 244.64 36.13 245.75 35.61 C 246.43 34.53 244.96 32.77 243.78 33.39 M 231.80 40.24 L 231.47 40.91 C 231.80 41.14 232.48 41.58 232.82 41.81 L 233.16 41.13 C 232.82 40.91 232.14 40.46 231.80 40.24 M 234.11 61.00 C 235.34 60.23 235.33 59.49 234.08 58.79 C 232.85 59.58 232.86 60.32 234.11 61.00 M 302.94 61.14 C 301.75 62.55 303.44 64.21 303.66 65.69 C 305.19 66.17 306.74 66.59 308.30 66.98 C 306.45 65.78 304.67 64.48 303.06 62.99 C 303.84 62.77 305.39 62.32 306.17 62.10 C 305.10 61.74 304.03 61.42 302.94 61.14 M 290.98 81.69 C 291.89 84.36 293.31 86.83 294.86 89.18 C 294.59 86.31 293.39 83.39 290.98 81.69 M 235.07 88.07 C 236.09 88.65 237.13 89.21 238.17 89.77 C 237.68 90.30 236.70 91.36 236.21 91.89 C 237.13 93.43 242.87 91.54 239.05 93.97 C 237.86 96.04 236.64 93.41 235.46 92.94 C 235.99 93.85 236.50 94.78 237.01 95.71 C 238.13 95.08 239.26 94.44 240.40 93.82 C 239.60 91.63 242.01 90.07 241.23 87.94 L 239.46 90.45 C 238.55 89.39 237.84 88.20 237.30 86.91 C 236.74 87.20 235.63 87.78 235.07 88.07 M 318.41 91.01 C 319.56 91.46 320.74 91.43 321.97 90.92 C 323.16 90.92 324.07 90.59 324.70 89.94 C 322.84 89.19 319.61 89.42 318.41 91.01 M 229.20 96.19 C 229.82 96.74 229.82 96.74 229.20 96.19 M 275.06 104.82 C 276.03 108.70 277.13 112.56 278.46 116.34 C 279.12 116.42 280.44 116.60 281.10 116.68 C 280.04 118.72 278.74 120.62 277.55 122.58 L 277.05 121.55 C 276.99 122.28 276.89 123.72 276.83 124.44 C 278.90 122.20 280.55 119.63 282.11 117.03 C 278.93 115.54 276.39 111.49 278.16 108.09 C 280.10 110.09 280.95 113.22 283.04 115.28 C 282.48 112.58 280.54 110.21 280.67 107.39 C 279.85 107.09 279.06 106.74 278.25 106.46 C 277.96 106.77 277.37 107.40 277.08 107.71 C 276.58 106.99 275.57 105.54 275.06 104.82 M 316.32 104.61 C 316.39 106.00 316.43 107.39 316.45 108.78 C 316.76 108.83 317.36 108.92 317.66 108.96 C 317.54 108.37 317.31 107.19 317.19 106.59 C 317.63 106.59 318.52 106.57 318.96 106.56 C 318.07 105.91 317.19 105.26 316.32 104.61 M 320.48 106.33 C 320.80 107.61 321.60 107.89 322.87 107.15 C 322.55 105.86 321.76 105.59 320.48 106.33 M 321.25 108.54 C 320.54 109.76 322.54 111.03 323.47 110.09 C 324.13 108.91 322.14 107.68 321.25 108.54 M 274.91 122.94 C 274.32 123.64 274.32 123.64 274.91 122.94 C 275.44 122.59 276.51 121.90 277.05 121.55 C 278.28 118.67 273.93 121.29 274.91 122.94 M 276.83 124.44 C 276.08 124.81 276.08 124.81 276.83 124.44 M 277.79 131.01 C 277.24 131.67 277.24 131.67 277.79 131.01 C 278.66 130.37 278.66 130.37 277.79 131.01 Z" />
<path fill="#ffffff" opacity="1.00" d=" M 296.53 25.07 C 297.39 26.92 298.16 28.85 299.60 30.36 C 299.45 29.13 299.14 26.69 298.99 25.46 C 299.35 26.01 300.06 27.10 300.41 27.64 C 300.86 27.16 301.75 26.18 302.19 25.69 C 302.08 27.50 302.47 29.39 301.89 31.14 C 299.90 31.63 297.84 31.70 295.84 32.12 C 294.17 32.55 297.52 33.79 297.37 34.16 C 296.85 34.23 295.79 34.36 295.27 34.42 C 295.28 35.57 295.28 36.73 295.27 37.88 C 294.54 37.83 293.07 37.71 292.34 37.66 C 292.40 37.31 292.53 36.62 292.59 36.28 L 290.17 35.95 L 291.87 34.78 C 290.21 33.41 289.42 31.40 288.63 29.47 C 289.82 30.35 292.21 32.11 293.40 32.99 C 292.82 31.70 291.66 29.11 291.08 27.82 C 291.80 28.87 292.40 29.98 292.90 31.16 C 293.74 30.95 294.58 30.72 295.42 30.46 C 294.11 29.66 293.48 28.42 293.54 26.73 C 294.87 28.26 296.15 29.84 297.21 31.58 C 297.64 30.92 298.08 30.25 298.51 29.58 L 296.88 29.70 C 296.76 28.16 296.65 26.61 296.53 25.07 Z" />
<path fill="#ffffff" opacity="1.00" d=" M 306.17 29.19 C 304.86 27.85 307.43 26.60 308.34 27.76 C 309.68 29.12 307.11 30.28 306.17 29.19 Z" />
<path fill="#ffffff" opacity="1.00" d=" M 220.24 28.39 C 221.92 28.78 223.47 31.82 222.54 33.47 C 220.84 34.10 221.62 31.01 220.67 30.28 C 220.56 29.81 220.35 28.86 220.24 28.39 Z" />
<path fill="#ffffff" opacity="1.00" d=" M 203.25 34.62 C 204.71 33.96 206.17 33.29 207.62 32.60 C 207.46 33.32 207.15 34.77 207.00 35.50 C 208.43 34.96 209.89 34.44 211.43 34.27 C 211.32 37.25 212.85 39.80 214.19 42.33 C 213.09 41.92 211.99 41.51 210.89 41.10 C 210.56 39.45 210.16 37.81 209.48 36.26 C 209.54 38.51 209.87 40.74 210.03 42.97 C 208.77 41.63 207.61 40.17 206.25 38.91 C 205.26 37.47 204.27 36.03 203.25 34.62 Z" />
<path fill="#ffffff" opacity="1.00" d=" M 314.60 36.55 C 315.45 35.56 316.37 34.61 317.29 33.67 C 316.77 34.56 315.71 36.34 315.19 37.23 C 315.80 37.57 316.41 37.92 317.02 38.26 C 316.33 39.31 315.64 40.36 314.95 41.41 C 315.11 41.72 315.43 42.35 315.59 42.66 C 314.57 43.96 313.09 45.17 313.68 47.02 C 312.63 47.65 311.58 48.26 310.51 48.86 C 311.47 46.66 311.77 44.01 313.81 42.44 C 313.65 41.16 314.11 40.02 314.94 39.04 C 314.86 38.20 314.75 37.38 314.60 36.55 Z" />
<path fill="#ffffff" opacity="1.00" d=" M 202.51 34.74 C 202.48 35.75 202.40 37.78 202.37 38.79 L 203.71 38.08 L 202.05 41.57 C 202.86 40.99 204.49 39.84 205.31 39.26 C 205.44 40.29 205.56 41.33 205.66 42.37 C 204.93 42.37 203.45 42.38 202.71 42.38 C 202.70 45.09 199.55 44.68 197.76 44.67 L 197.59 46.51 C 196.31 45.30 195.15 43.98 194.01 42.64 C 194.65 42.33 195.94 41.72 196.58 41.42 C 195.85 42.72 196.18 43.64 197.56 44.20 C 197.48 43.57 197.32 42.32 197.24 41.70 L 196.58 41.42 C 196.14 41.17 195.25 40.66 194.80 40.41 C 195.85 40.45 196.89 40.51 197.94 40.58 L 197.51 39.86 C 198.82 39.60 200.10 39.21 201.31 38.64 C 201.61 37.66 202.21 35.72 202.51 34.74 Z" />
<path fill="#ffffff" opacity="1.00" d=" M 212.43 35.48 C 213.80 36.44 215.08 37.52 216.42 38.54 C 216.57 39.02 216.88 39.98 217.03 40.46 C 217.66 39.79 218.30 39.14 218.95 38.51 C 219.32 39.38 220.05 41.12 220.41 41.99 C 216.78 43.91 214.62 39.34 212.46 37.24 L 212.43 35.48 Z" />
<path fill="#ffffff" opacity="1.00" d=" M 186.82 43.59 C 186.83 42.38 186.16 40.44 188.09 40.84 C 189.76 40.15 190.02 42.14 190.70 43.16 C 189.13 43.59 187.54 43.99 186.09 44.75 C 185.74 44.38 185.39 44.00 185.05 43.63 L 186.82 43.59 Z" />
<path fill="#ffffff" opacity="1.00" d=" M 178.48 48.88 C 179.67 48.43 180.96 48.54 182.22 48.47 C 181.49 49.39 180.43 49.84 179.33 50.15 C 180.99 53.10 177.30 52.84 175.64 52.15 C 176.55 53.25 177.45 54.35 178.31 55.49 C 175.60 56.58 172.82 55.84 170.10 55.29 C 171.12 54.48 172.16 53.70 173.18 52.90 C 174.01 52.01 174.81 51.11 175.56 50.16 C 176.53 49.73 177.50 49.31 178.48 48.88 Z" />
<path fill="#ffffff" opacity="1.00" d=" M 183.57 49.26 C 184.80 49.76 186.02 50.27 187.26 50.73 C 187.58 51.28 188.22 52.39 188.54 52.95 C 187.35 53.77 186.18 54.61 185.01 55.44 C 183.82 54.30 182.28 53.44 181.51 51.93 C 183.16 50.83 184.60 52.61 186.15 52.94 C 185.38 52.23 184.60 51.53 183.82 50.85 C 183.76 50.45 183.63 49.65 183.57 49.26 Z" />
<path fill="#ffffff" opacity="1.00" d=" M 187.35 48.65 C 188.57 47.30 191.13 49.22 190.45 50.81 C 189.24 52.02 186.76 50.19 187.35 48.65 Z" />
<path fill="#ffffff" opacity="1.00" d=" M 297.10 50.28 C 299.88 48.80 302.86 49.85 305.53 51.03 C 303.81 51.29 302.08 51.51 300.35 51.68 L 300.94 52.86 C 299.05 53.85 295.58 52.94 297.10 50.28 Z" />
<path fill="#ffffff" opacity="1.00" d=" M 214.04 59.20 C 213.01 56.15 215.09 53.28 216.88 50.99 C 216.01 53.57 217.03 58.03 214.04 59.20 Z" />
<path fill="#ffffff" opacity="1.00" d=" M 205.55 51.62 C 206.75 52.97 206.81 54.48 205.74 56.13 L 207.52 54.39 C 208.38 56.13 209.23 57.88 210.01 59.66 C 208.82 59.65 207.63 59.63 206.45 59.61 C 204.66 58.51 202.78 57.59 200.95 56.59 L 202.94 56.64 C 202.76 56.13 202.41 55.13 202.24 54.63 C 203.44 54.65 204.64 54.63 205.86 54.64 C 205.78 53.89 205.63 52.38 205.55 51.62 Z" />
<path fill="#ffffff" opacity="1.00" d=" M 208.80 52.51 C 209.90 52.56 211.01 52.59 212.12 52.59 C 212.47 54.67 212.97 56.73 213.20 58.83 C 211.51 56.88 210.27 54.61 208.80 52.51 Z" />
<path fill="#ffffff" opacity="1.00" d=" M 213.30 52.19 C 213.86 52.77 213.86 52.77 213.30 52.19 Z" />
<path fill="#ffffff" opacity="1.00" d=" M 179.51 54.26 C 180.98 54.70 182.39 55.29 183.74 56.05 C 183.78 56.75 183.85 58.15 183.89 58.84 C 183.47 58.35 182.63 57.37 182.21 56.88 C 182.11 57.66 181.90 59.22 181.79 60.00 C 181.58 57.90 182.24 55.26 179.51 54.26 Z" />
<path fill="#ffffff" opacity="1.00" d=" M 230.12 56.06 C 232.92 53.96 230.58 59.33 230.12 56.06 Z" />
<path fill="#ffffff" opacity="1.00" d=" M 174.01 58.50 C 174.79 58.03 175.58 57.56 176.37 57.10 L 176.23 58.75 L 177.55 58.30 C 177.53 60.21 177.52 62.12 177.52 64.03 C 176.52 62.99 171.82 62.84 173.61 60.73 C 174.57 60.98 176.49 61.48 177.45 61.73 C 176.59 60.92 174.87 59.31 174.01 58.50 Z" />
<path fill="#ffffff" opacity="1.00" d=" M 169.31 63.07 C 170.42 60.96 172.02 58.45 174.81 59.92 L 173.61 60.73 C 173.27 60.96 172.59 61.42 172.25 61.65 C 173.68 62.85 175.89 63.59 175.96 65.82 C 173.20 66.49 171.49 64.09 169.31 63.07 Z" />
<path fill="#ffffff" opacity="1.00" d=" M 193.57 60.76 C 195.45 61.21 197.31 61.74 199.13 62.40 C 198.41 65.19 195.65 66.56 193.19 67.53 C 193.75 68.15 194.30 68.77 194.86 69.39 C 193.57 69.05 192.28 68.70 190.99 68.40 C 191.66 67.07 192.37 65.73 193.71 64.93 C 193.26 64.40 192.35 63.35 191.90 62.82 C 192.91 63.16 194.93 63.84 195.94 64.18 C 195.34 63.33 194.16 61.62 193.57 60.76 Z" />
<path fill="#ffffff" opacity="1.00" d=" M 166.55 64.83 C 167.34 64.69 168.90 64.42 169.68 64.28 L 169.64 65.04 C 171.24 66.37 172.76 67.80 174.25 69.27 C 171.39 69.13 169.29 70.65 167.68 72.86 C 166.09 71.50 163.99 68.05 167.75 67.58 L 167.65 69.68 C 167.82 69.68 168.18 69.69 168.35 69.70 C 168.35 69.12 168.33 67.95 168.33 67.37 C 167.95 67.51 167.19 67.79 166.81 67.93 C 166.75 67.15 166.62 65.60 166.55 64.83 Z" />
<path fill="#ffffff" opacity="1.00" d=" M 161.60 71.05 C 161.80 71.18 162.20 71.46 162.39 71.59 C 162.92 72.40 163.46 73.21 164.01 74.02 C 163.51 76.14 162.70 78.22 160.44 78.95 C 160.48 79.23 160.54 79.79 160.58 80.07 C 159.60 80.64 159.50 81.66 159.45 82.65 C 159.04 83.86 158.63 85.08 158.27 86.31 C 156.02 86.93 153.75 87.43 151.47 87.91 C 152.01 86.57 152.52 85.21 152.96 83.84 C 153.96 83.00 154.95 82.15 155.92 81.27 C 155.80 80.13 155.71 78.99 155.63 77.86 C 157.49 76.02 159.04 72.22 162.39 74.09 C 162.40 73.01 162.14 71.99 161.60 71.05 Z" />
<path fill="#ffffff" opacity="1.00" d=" M 164.78 77.83 C 166.17 75.34 168.17 73.48 170.86 72.48 C 171.31 72.92 172.20 73.79 172.65 74.23 C 172.34 74.41 171.72 74.77 171.41 74.95 C 171.41 76.88 171.08 78.79 170.37 80.59 C 168.50 79.69 166.63 78.78 164.78 77.83 Z" />
<path fill="#ffffff" opacity="1.00" d=" M 180.50 74.72 C 180.97 74.61 181.92 74.38 182.39 74.27 C 182.38 75.64 182.45 77.01 182.52 78.38 C 181.79 78.90 181.06 79.42 180.33 79.94 L 180.91 78.03 L 179.48 78.52 C 179.53 77.40 179.57 76.28 179.60 75.15 L 180.80 75.91 L 180.50 74.72 Z" />
<path fill="#ffffff" opacity="1.00" d=" M 187.31 78.62 C 188.82 77.64 190.37 76.60 192.28 76.87 C 191.79 77.23 190.82 77.96 190.33 78.33 C 190.68 79.52 191.03 80.70 191.39 81.89 C 191.02 82.33 190.28 83.22 189.91 83.66 C 188.73 83.58 187.53 83.54 186.35 83.49 C 187.35 82.61 188.38 81.77 189.44 80.96 C 188.74 80.16 188.02 79.39 187.31 78.62 Z" />
<path fill="#ffffff" opacity="1.00" d=" M 201.86 77.48 C 202.72 76.22 205.70 77.03 204.47 78.71 C 203.68 80.16 200.58 79.12 201.86 77.48 Z" />
<path fill="#ffffff" opacity="1.00" d=" M 216.23 77.34 C 218.37 76.76 216.74 80.84 215.91 78.33 L 216.23 77.34 Z" />
<path fill="#ffffff" opacity="1.00" d=" M 212.86 78.20 C 214.52 79.07 216.17 79.96 217.75 80.99 C 218.12 80.35 218.50 79.71 218.87 79.08 C 220.85 81.22 222.74 83.46 224.29 85.95 C 221.46 84.80 219.06 82.45 215.88 82.30 C 215.72 81.96 215.41 81.26 215.25 80.92 C 215.32 81.93 215.39 82.94 215.46 83.96 C 216.27 84.60 217.07 85.25 217.86 85.92 C 217.57 85.17 217.00 83.69 216.71 82.94 C 218.41 84.00 220.10 85.11 221.79 86.20 C 221.63 87.62 221.50 89.04 221.40 90.47 C 219.03 89.88 216.73 89.09 214.40 88.36 L 214.31 87.69 C 213.60 87.72 212.18 87.78 211.47 87.81 C 210.02 86.49 208.84 84.94 207.94 83.21 C 208.53 83.28 209.71 83.42 210.30 83.49 C 210.64 82.96 211.32 81.89 211.66 81.36 C 212.57 81.75 214.39 82.53 215.30 82.92 C 214.52 81.32 213.68 79.77 212.86 78.20 Z" />
<path fill="#ffffff" opacity="1.00" d=" M 277.13 79.11 L 277.86 79.26 C 277.90 79.68 277.99 80.53 278.03 80.95 L 277.29 80.79 C 277.25 80.37 277.17 79.53 277.13 79.11 Z" />
<path fill="#ffffff" opacity="1.00" d=" M 162.57 79.50 C 164.82 80.46 166.77 83.21 165.49 85.62 C 164.73 85.19 163.20 84.32 162.44 83.89 C 162.48 82.43 162.53 80.97 162.57 79.50 Z" />
<path fill="#ffffff" opacity="1.00" d=" M 200.98 79.82 C 201.49 80.03 202.52 80.43 203.04 80.64 C 203.26 82.50 200.12 81.14 200.98 79.82 Z" />
<path fill="#ffffff" opacity="1.00" d=" M 170.20 84.36 C 169.19 83.54 165.55 80.59 169.02 80.61 C 170.48 82.34 171.48 84.37 172.61 86.32 C 170.51 86.56 167.73 88.80 166.31 86.13 C 167.61 85.55 168.91 84.96 170.20 84.36 Z" />
<path fill="#ffffff" opacity="1.00" d=" M 198.66 81.15 C 200.26 79.81 202.55 83.82 200.17 84.25 C 198.67 84.30 197.98 82.29 198.66 81.15 Z" />
<path fill="#ffffff" opacity="1.00" d=" M 278.03 80.95 C 281.05 81.63 276.69 84.04 278.03 80.95 Z" />
<path fill="#ffffff" opacity="1.00" d=" M 191.80 81.94 C 192.99 82.48 194.18 83.03 195.37 83.58 C 195.88 83.48 196.90 83.28 197.41 83.18 C 197.60 83.79 197.96 85.02 198.15 85.63 C 196.85 84.06 194.45 85.18 193.40 83.56 C 192.83 84.60 192.22 85.61 191.58 86.60 C 191.14 85.04 191.22 83.49 191.80 81.94 Z" />
<path fill="#ffffff" opacity="1.00" d=" M 227.48 82.24 C 227.77 82.57 227.77 82.57 227.48 82.24 Z" />
<path fill="#ffffff" opacity="1.00" d=" M 160.10 87.83 C 161.47 87.08 162.88 86.40 164.34 85.85 C 163.71 86.69 163.07 87.54 162.43 88.37 C 162.05 88.50 161.29 88.74 160.92 88.87 C 158.81 90.48 159.69 93.27 159.28 95.53 C 157.88 95.46 156.48 95.42 155.09 95.41 C 154.21 94.22 151.23 93.35 153.18 91.66 C 153.02 90.86 152.87 90.06 152.72 89.26 C 153.18 89.34 154.10 89.50 154.56 89.58 C 155.33 88.93 156.87 87.64 157.65 86.99 C 157.57 87.68 157.42 89.07 157.35 89.76 C 158.31 89.18 159.22 88.53 160.10 87.83 Z" />
<path fill="#ffffff" opacity="1.00" d=" M 202.23 87.88 C 205.76 87.52 209.07 91.08 212.29 88.46 C 215.92 89.29 220.70 89.31 222.37 93.29 C 222.95 96.11 219.27 93.84 217.87 94.31 C 215.53 94.88 213.27 95.75 210.99 96.53 C 208.14 94.87 204.50 94.73 201.99 92.63 L 201.38 92.85 C 201.31 92.14 201.18 90.72 201.11 90.01 L 202.71 90.39 C 202.59 89.76 202.35 88.51 202.23 87.88 Z" />
<path fill="#ffffff" opacity="1.00" d=" M 166.66 91.73 C 168.39 91.02 170.18 90.43 172.01 90.04 C 172.44 91.99 174.62 93.85 173.49 95.89 C 174.38 95.50 176.16 94.72 177.05 94.33 C 174.58 97.96 172.72 101.99 168.86 104.41 C 168.49 103.99 168.13 103.57 167.78 103.15 C 168.43 102.62 169.73 101.56 170.38 101.02 C 169.13 101.61 167.91 102.27 166.73 103.01 L 166.72 101.29 L 165.55 99.98 C 167.86 99.29 170.27 98.69 172.31 97.35 C 169.80 97.96 167.42 99.01 164.98 99.82 C 165.71 96.17 169.50 95.79 172.23 94.31 C 170.07 94.70 167.99 95.44 165.82 95.78 C 166.74 94.50 167.82 93.36 168.91 92.23 C 168.35 92.11 167.22 91.86 166.66 91.73 Z" />
<path fill="#ffffff" opacity="1.00" d=" M 162.32 93.51 C 163.62 93.22 164.92 92.90 166.23 92.59 C 165.80 93.77 165.35 94.94 164.91 96.12 C 164.48 96.49 163.61 97.23 163.17 97.61 C 162.48 97.56 161.09 97.46 160.39 97.41 C 161.00 96.09 161.66 94.80 162.32 93.51 Z" />
<path fill="#ffffff" opacity="1.00" d=" M 201.38 94.79 C 203.40 95.85 205.69 95.38 207.87 95.46 C 207.80 95.90 207.67 96.78 207.60 97.22 C 209.00 97.46 210.39 97.87 211.59 98.67 C 211.63 98.15 211.72 97.12 211.77 96.61 C 215.13 96.09 218.46 95.02 221.91 95.34 C 221.27 96.13 220.60 96.89 219.90 97.62 C 217.61 97.11 215.33 97.69 213.35 98.85 C 217.56 99.31 221.39 97.28 225.32 96.19 C 224.55 98.41 222.72 99.67 220.44 99.74 L 220.56 100.69 C 220.03 100.58 218.96 100.36 218.42 100.25 L 218.61 101.33 C 214.65 102.78 211.11 105.15 206.93 105.98 C 205.74 105.06 204.38 104.47 202.94 104.10 C 203.12 103.66 203.49 102.79 203.67 102.35 C 203.08 102.48 201.91 102.73 201.33 102.85 C 201.39 102.04 201.53 100.43 201.60 99.62 C 203.50 99.53 205.41 99.45 207.31 99.23 C 204.71 98.70 201.76 97.78 199.45 99.92 L 201.35 97.00 L 201.38 94.79 Z" />
<path fill="#ffffff" opacity="1.00" d=" M 154.99 100.54 C 156.97 100.10 158.94 99.63 160.92 99.18 C 162.14 100.12 163.47 100.90 164.89 101.50 L 164.59 102.16 C 165.46 102.78 166.31 103.42 167.15 104.08 C 167.88 106.37 170.58 106.22 172.32 107.38 C 172.78 106.08 173.24 104.77 173.71 103.46 L 174.39 103.51 C 174.81 102.35 175.24 101.20 175.68 100.05 C 176.85 101.98 178.53 104.28 176.19 106.14 C 178.37 107.09 180.08 108.84 179.73 111.41 C 180.11 112.49 180.47 113.57 180.84 114.66 C 179.92 115.04 179.01 115.43 178.09 115.82 C 178.19 115.40 178.39 114.56 178.49 114.14 C 176.52 114.29 174.07 115.07 172.76 112.96 L 174.24 112.42 C 174.57 111.39 175.22 109.34 175.55 108.31 C 174.75 108.32 173.15 108.34 172.35 108.36 L 171.75 107.97 C 169.58 107.21 167.94 109.18 166.14 109.98 C 164.48 111.14 162.38 110.43 160.51 110.48 C 159.56 109.14 158.63 107.79 157.69 106.44 C 157.61 105.78 157.46 104.46 157.39 103.81 C 155.55 103.71 155.51 101.84 154.99 100.54 Z" />
<path fill="#ffffff" opacity="1.00" d=" M 220.47 101.32 C 221.94 100.35 223.43 99.40 224.89 98.40 C 225.80 99.43 227.01 99.60 228.29 99.38 L 228.31 99.88 C 228.92 100.43 229.41 101.06 229.78 101.76 C 228.70 102.13 227.60 102.46 226.49 102.77 C 225.64 103.48 224.79 104.19 223.96 104.93 C 225.97 103.87 228.04 102.92 230.25 102.33 C 228.74 104.55 226.64 106.23 224.90 108.24 C 226.75 107.28 228.15 105.71 229.56 104.23 L 230.67 104.61 C 229.31 105.94 229.23 107.74 229.22 109.50 C 229.80 109.49 230.97 109.47 231.56 109.46 C 231.56 110.19 231.56 111.65 231.56 112.37 L 229.50 112.32 C 229.89 112.91 230.68 114.09 231.08 114.68 C 232.41 113.94 233.71 113.13 235.01 112.32 C 234.40 112.37 233.18 112.45 232.57 112.49 C 232.33 111.88 231.84 110.67 231.60 110.06 C 233.15 108.72 234.68 107.35 236.18 105.95 C 236.39 106.23 236.81 106.77 237.02 107.05 C 237.27 107.53 237.76 108.49 238.01 108.97 L 237.34 107.57 C 239.22 107.36 240.76 106.29 242.26 105.23 C 244.49 107.23 242.05 108.53 240.67 109.92 C 241.70 108.91 242.86 108.59 244.14 108.97 L 244.28 109.54 C 242.31 111.29 240.78 113.96 237.96 114.38 C 235.67 114.88 234.12 116.85 232.32 118.20 C 231.72 116.94 231.13 115.67 230.55 114.40 C 228.14 114.11 225.88 115.10 223.92 116.41 C 221.44 116.44 218.95 116.44 216.47 116.58 C 218.47 115.12 220.14 113.35 221.48 111.26 L 217.53 113.03 C 218.11 112.20 219.27 110.55 219.85 109.72 C 219.78 109.21 219.64 108.19 219.57 107.68 C 216.74 108.76 215.68 106.40 216.47 103.95 C 215.81 104.34 214.48 105.11 213.82 105.50 C 214.73 104.51 215.70 103.59 216.67 102.66 C 217.95 102.25 219.20 101.76 220.47 101.32 Z" />
<path fill="#ffffff" opacity="1.00" d=" M 283.15 101.10 C 284.59 101.58 284.49 103.67 285.49 104.69 C 285.49 105.12 285.49 105.99 285.49 106.43 C 283.66 105.99 283.48 103.56 282.82 102.11 C 282.90 101.86 283.07 101.35 283.15 101.10 Z" />
<path fill="#ffffff" opacity="1.00" d=" M 281.23 102.37 L 282.05 102.23 C 284.06 104.08 279.51 104.27 281.23 102.37 Z" />
<path fill="#ffffff" opacity="1.00" d=" M 198.92 103.51 C 199.96 103.47 202.03 103.38 203.06 103.34 L 202.33 104.18 C 203.53 104.98 204.63 105.93 205.54 107.06 C 206.18 107.55 206.82 108.04 207.46 108.52 C 209.42 107.20 211.53 106.13 213.56 104.93 L 213.82 105.50 C 214.18 106.29 214.58 107.07 215.01 107.83 L 213.10 108.88 C 213.15 108.30 213.24 107.12 213.29 106.54 C 207.47 108.91 202.61 113.01 196.83 115.44 C 197.39 114.79 198.52 113.50 199.08 112.86 C 198.53 112.69 197.43 112.35 196.88 112.18 C 198.55 111.38 200.20 110.55 201.85 109.70 C 203.04 109.29 204.22 108.84 205.37 108.31 C 202.67 108.13 200.28 109.46 197.85 110.40 C 197.59 109.71 197.08 108.34 196.82 107.65 C 198.36 107.28 199.90 106.90 201.41 106.42 C 200.38 106.45 198.32 106.51 197.29 106.54 L 197.67 104.25 C 198.23 104.45 199.36 104.85 199.93 105.05 L 198.92 103.51 Z" />
<path fill="#ffffff" opacity="1.00" d=" M 245.94 105.25 C 248.13 105.29 246.22 109.99 244.14 108.97 L 244.13 108.44 C 244.73 107.37 245.33 106.31 245.94 105.25 Z" />
<path fill="#ffffff" opacity="1.00" d=" M 210.26 109.30 C 210.76 109.09 211.77 108.66 212.28 108.45 C 212.02 109.04 211.50 110.21 211.25 110.80 C 212.92 110.18 214.34 109.05 215.89 108.19 C 215.68 108.85 215.26 110.17 215.05 110.83 C 215.62 110.82 216.75 110.81 217.32 110.80 C 215.91 112.46 214.44 114.07 212.92 115.64 C 214.75 114.23 216.76 113.04 219.14 112.77 C 216.94 115.15 214.54 117.33 212.15 119.53 C 211.54 119.50 210.31 119.45 209.70 119.42 C 209.33 119.82 208.60 120.62 208.23 121.02 C 205.92 122.50 203.43 123.93 202.00 126.39 C 204.99 125.25 207.07 122.70 209.70 121.01 C 208.39 123.16 206.36 124.86 205.32 127.18 C 203.83 127.18 202.74 128.25 201.55 128.96 C 200.07 129.53 198.63 130.19 197.23 130.93 C 197.39 129.77 197.51 128.60 197.59 127.43 C 198.68 126.77 199.75 126.09 200.82 125.41 C 200.54 124.28 200.03 123.28 199.30 122.39 C 202.35 121.58 204.59 118.31 207.70 118.29 L 208.22 118.80 C 209.00 119.27 209.55 118.84 209.87 117.51 C 209.51 117.36 208.80 117.06 208.44 116.91 C 208.32 115.45 207.74 114.18 206.69 113.12 C 207.09 112.97 207.88 112.68 208.28 112.53 C 207.93 111.07 208.43 110.11 209.80 109.67 L 210.26 109.30 Z" />
<path fill="#ffffff" opacity="1.00" d=" M 316.07 111.99 C 315.55 111.56 315.55 111.56 316.07 111.99 Z" />
<path fill="#ffffff" opacity="1.00" d=" M 162.07 113.01 C 164.10 112.54 166.15 112.19 168.18 111.72 C 169.06 112.02 170.82 112.63 171.70 112.93 C 170.16 113.91 168.57 114.80 166.99 115.69 C 168.61 115.20 170.23 114.68 171.90 114.35 C 171.08 116.09 169.59 117.31 168.18 118.55 C 166.70 118.64 165.23 118.72 163.76 118.81 C 163.16 117.82 162.57 116.84 161.97 115.86 C 162.55 115.38 163.12 114.90 163.70 114.43 C 163.29 114.07 162.48 113.37 162.07 113.01 Z" />
<path fill="#ffffff" opacity="1.00" d=" M 197.99 119.06 C 200.71 116.99 203.64 115.22 206.57 113.47 C 207.55 117.12 204.24 118.31 201.75 119.77 C 200.50 119.49 199.25 119.24 197.99 119.06 Z" />
<path fill="#ffffff" opacity="1.00" d=" M 253.17 114.17 C 253.80 114.79 253.80 114.79 253.17 114.17 Z" />
<path fill="#ffffff" opacity="1.00" d=" M 239.86 114.85 C 240.47 115.61 240.60 116.47 240.24 117.43 C 239.58 117.47 238.26 117.53 237.61 117.56 C 236.77 116.40 238.96 115.28 239.86 114.85 Z" />
<path fill="#ffffff" opacity="1.00" d=" M 173.79 118.38 C 175.62 118.25 177.45 118.09 179.29 118.01 C 179.68 118.94 180.04 119.88 180.36 120.85 C 179.66 121.12 178.26 121.67 177.56 121.94 L 178.00 122.37 C 177.09 122.43 175.27 122.56 174.36 122.62 C 175.01 123.26 176.32 124.53 176.97 125.16 C 176.21 126.09 175.43 127.01 174.79 128.04 C 175.46 128.93 176.21 129.76 176.96 130.59 C 176.80 128.60 177.76 127.52 179.83 127.36 L 179.35 126.28 C 179.85 126.34 180.85 126.45 181.35 126.51 L 181.47 125.20 C 181.89 125.27 182.72 125.40 183.14 125.47 C 183.23 125.98 183.42 127.01 183.51 127.52 C 183.40 128.22 183.18 129.60 183.07 130.30 C 180.29 131.16 177.42 131.78 174.56 130.96 C 174.58 133.37 175.52 138.36 171.13 137.09 C 172.23 137.66 173.36 138.18 174.51 138.67 C 173.80 139.03 172.40 139.74 171.70 140.09 C 170.59 138.89 169.87 137.42 169.17 135.97 C 170.56 135.03 171.96 134.10 173.27 133.05 C 171.18 133.50 168.18 136.69 167.61 132.98 C 168.03 132.66 168.86 132.00 169.28 131.67 C 169.33 128.52 169.98 125.48 171.50 122.71 C 172.10 122.69 173.30 122.64 173.89 122.62 C 174.56 121.96 175.21 121.28 175.85 120.60 L 173.41 120.79 C 173.51 120.18 173.70 118.98 173.79 118.38 Z" />
<path fill="#ffffff" opacity="1.00" d=" M 213.22 119.08 C 215.11 117.59 217.35 117.20 219.70 117.35 L 219.53 119.48 L 218.99 119.63 C 217.26 121.86 215.89 124.40 213.78 126.30 C 213.37 126.23 212.56 126.08 212.15 126.01 C 211.51 125.41 209.19 124.78 210.50 123.64 C 211.94 122.54 213.67 121.81 214.94 120.45 C 214.36 119.99 213.79 119.53 213.22 119.08 Z" />
<path fill="#ffffff" opacity="1.00" d=" M 219.81 121.68 C 220.36 120.16 220.92 118.62 221.67 117.18 C 224.23 115.90 224.66 118.91 225.42 120.42 C 223.56 120.88 221.70 121.37 219.81 121.68 Z" />
<path fill="#ffffff" opacity="1.00" d=" M 307.96 118.02 L 308.41 117.71 C 310.04 119.65 311.33 121.85 312.44 124.13 C 311.86 123.85 310.69 123.28 310.10 123.00 C 309.30 121.41 307.48 119.97 307.96 118.02 Z" />
<path fill="#ffffff" opacity="1.00" d=" M 163.31 120.02 C 165.32 118.41 168.61 119.49 167.91 122.36 C 167.13 122.27 165.56 122.10 164.78 122.02 L 165.99 120.43 C 165.32 120.33 163.98 120.12 163.31 120.02 Z" />
<path fill="#ffffff" opacity="1.00" d=" M 191.95 119.79 C 192.47 119.55 193.50 119.06 194.02 118.81 C 194.22 120.43 194.74 123.56 191.79 122.72 C 191.60 124.40 191.42 126.10 191.50 127.80 C 190.04 130.56 189.01 133.53 189.37 136.72 C 192.03 136.92 193.72 133.41 196.54 134.38 C 196.51 136.54 197.87 137.05 199.68 136.32 C 198.83 138.39 195.70 139.22 195.96 142.10 L 199.30 140.23 C 198.98 140.65 198.34 141.49 198.02 141.90 C 196.65 143.44 195.05 144.74 193.44 146.02 C 193.67 144.36 193.97 142.72 194.40 141.09 C 192.79 142.22 191.22 143.39 189.66 144.56 L 189.28 141.92 C 188.33 143.67 181.95 147.34 186.77 142.27 C 186.41 142.04 185.69 141.56 185.33 141.33 L 188.91 138.34 C 183.66 138.40 184.12 144.12 184.34 147.74 C 185.71 148.42 186.63 146.58 187.85 146.28 C 188.10 148.80 185.07 149.83 183.93 151.65 C 183.40 150.93 182.87 150.23 182.33 149.52 L 183.10 151.99 L 180.46 151.17 C 181.24 151.83 182.01 152.49 182.77 153.16 C 180.71 152.65 178.67 152.07 176.66 151.42 C 177.77 150.21 179.16 149.34 180.69 148.77 C 180.23 148.59 179.30 148.23 178.84 148.05 L 178.84 147.44 C 179.45 147.05 180.66 146.26 181.26 145.86 C 178.61 146.42 176.35 148.14 173.66 148.51 C 173.64 146.90 175.15 146.18 176.10 145.17 L 173.60 145.43 C 174.36 144.81 175.89 143.58 176.65 142.96 C 176.55 142.67 176.35 142.08 176.25 141.79 C 178.07 140.66 179.76 139.35 181.47 138.05 L 181.73 140.96 C 184.70 139.15 184.73 136.02 184.80 132.90 C 185.35 132.70 186.45 132.30 187.00 132.09 C 186.62 131.71 185.86 130.95 185.47 130.57 C 187.83 130.33 189.28 128.37 189.77 126.20 L 190.57 126.39 C 189.47 123.79 193.21 122.21 191.95 119.79 Z" />
<path fill="#ffffff" opacity="1.00" d=" M 295.07 121.49 C 297.43 122.43 299.02 120.61 299.14 118.40 C 299.37 119.02 299.81 120.26 300.04 120.89 C 300.18 120.54 300.48 119.84 300.63 119.49 C 301.74 119.16 302.89 119.15 304.09 119.46 C 303.22 122.42 300.60 124.14 298.71 126.38 C 300.56 125.52 302.19 124.29 303.83 123.09 C 304.07 124.45 304.31 125.81 304.57 127.16 L 302.69 126.25 C 302.59 128.07 302.21 129.73 300.08 130.16 C 301.09 133.88 305.39 131.93 308.03 133.24 L 308.94 133.34 C 308.81 133.79 308.55 134.67 308.42 135.12 C 308.10 134.66 307.46 133.76 307.14 133.31 C 305.63 135.15 303.23 135.02 301.19 134.33 C 300.05 135.07 299.16 136.10 299.14 137.54 C 300.12 136.96 302.70 135.79 302.82 137.66 C 301.16 139.00 298.94 139.43 296.85 139.17 C 297.26 138.77 298.06 137.99 298.47 137.59 C 298.53 136.57 298.59 135.54 298.66 134.52 C 299.33 134.40 300.68 134.15 301.35 134.03 C 299.62 133.01 297.69 132.56 295.73 132.29 C 297.05 131.64 298.37 131.00 299.71 130.37 L 299.36 127.64 C 296.59 130.45 292.93 132.33 290.66 135.62 C 289.11 136.14 287.59 136.92 285.91 136.76 C 286.94 135.44 287.96 134.10 288.94 132.74 C 289.54 129.62 292.36 127.78 294.53 125.75 C 293.88 125.31 292.03 125.53 292.27 124.38 C 293.29 123.50 294.19 122.51 295.07 121.49 M 289.54 132.67 C 289.91 133.32 290.36 133.92 290.89 134.45 C 292.63 131.64 294.91 129.24 297.03 126.72 C 293.65 127.28 291.59 130.23 289.54 132.67 Z" />
<path fill="#ffffff" opacity="1.00" d=" M 210.40 122.07 C 209.08 120.32 213.74 119.02 212.80 121.39 C 212.20 121.56 211.00 121.90 210.40 122.07 Z" />
<path fill="#ffffff" opacity="1.00" d=" M 296.37 120.36 C 296.66 120.66 296.66 120.66 296.37 120.36 Z" />
<path fill="#ffffff" opacity="1.00" d=" M 214.97 126.48 C 216.15 123.91 217.88 121.65 220.18 119.96 C 219.81 120.99 219.09 123.03 218.72 124.06 L 220.43 123.17 L 220.67 126.49 C 220.06 126.49 218.84 126.50 218.23 126.50 C 217.21 126.86 216.18 127.04 215.14 127.04 L 214.97 126.48 Z" />
<path fill="#ffffff" opacity="1.00" d=" M 162.84 125.47 C 164.40 123.91 166.40 123.20 168.57 123.16 C 167.48 127.30 166.56 131.47 165.86 135.69 C 164.50 135.52 164.27 133.31 163.41 132.34 C 163.72 131.86 164.33 130.91 164.63 130.43 L 163.62 130.59 C 163.59 129.40 163.54 128.22 163.48 127.04 C 164.36 126.50 165.24 125.96 166.12 125.42 C 165.30 125.43 163.66 125.45 162.84 125.47 Z" />
<path fill="#ffffff" opacity="1.00" d=" M 197.29 124.11 C 198.09 122.69 198.91 122.68 199.75 124.08 C 198.95 125.62 198.13 125.62 197.29 124.11 Z" />
<path fill="#ffffff" opacity="1.00" d=" M 304.47 127.32 C 305.29 126.15 306.09 124.97 306.93 123.81 C 307.48 124.94 308.00 126.10 308.53 127.25 C 307.07 128.27 305.61 130.95 303.62 129.44 C 303.74 129.13 303.98 128.50 304.10 128.18 C 304.54 128.06 305.41 127.81 305.85 127.69 L 304.47 127.32 Z" />
<path fill="#ffffff" opacity="1.00" d=" M 312.44 124.13 C 312.35 124.29 312.16 124.62 312.07 124.78 C 312.16 124.62 312.35 124.29 312.44 124.13 Z" />
<path fill="#ffffff" opacity="1.00" d=" M 205.32 127.18 C 206.77 126.27 208.27 124.60 210.13 125.60 C 209.48 126.18 208.19 127.33 207.54 127.90 L 207.61 128.91 L 206.02 128.19 C 206.71 129.50 207.40 130.82 208.32 132.00 C 206.76 132.88 205.24 133.86 203.58 134.54 C 204.60 133.12 205.86 131.88 206.69 130.32 C 205.01 131.53 203.43 132.87 201.83 134.18 C 201.75 132.91 201.68 131.63 201.62 130.35 C 202.87 129.31 204.09 128.24 205.32 127.18 Z" />
<path fill="#ffffff" opacity="1.00" d=" M 312.07 124.78 C 314.74 124.71 317.05 126.50 319.72 126.72 C 321.12 127.80 322.53 128.88 323.92 129.99 C 322.55 130.62 321.14 131.22 320.15 132.39 C 317.94 131.14 315.51 130.09 313.77 128.20 C 312.92 127.55 313.91 126.68 314.21 126.04 L 312.07 124.78 M 314.19 127.92 C 316.07 128.76 317.94 129.68 319.71 130.75 C 320.29 130.52 320.88 130.31 321.47 130.10 C 319.53 129.16 317.62 128.15 315.90 126.85 C 315.32 127.20 314.75 127.56 314.19 127.92 Z" />
<path fill="#ffffff" opacity="1.00" d=" M 210.96 127.90 C 212.32 127.35 213.68 125.75 215.14 127.04 L 215.44 127.57 C 213.67 129.04 211.44 129.89 209.75 131.49 C 209.21 130.65 208.71 129.79 208.23 128.91 C 208.73 128.76 209.73 128.45 210.23 128.30 L 210.96 127.90 Z" />
<path fill="#ffffff" opacity="1.00" d=" M 310.63 128.00 C 314.06 130.81 318.30 132.74 321.06 136.30 L 319.49 136.30 C 319.61 137.02 319.85 138.45 319.96 139.17 C 317.56 137.51 315.41 135.53 313.33 133.50 C 313.68 133.14 314.40 132.41 314.76 132.04 C 313.26 130.82 311.67 129.66 310.63 128.00 Z" />
<path fill="#ffffff" opacity="1.00" d=" M 246.34 129.94 C 248.64 130.63 251.17 130.92 253.05 132.56 C 251.73 133.03 250.40 133.48 249.08 133.92 C 249.58 134.82 250.09 135.71 250.63 136.60 C 250.09 139.38 247.83 140.94 245.44 142.10 C 246.05 142.62 246.66 143.13 247.29 143.64 C 247.55 143.95 248.09 144.57 248.35 144.87 C 247.16 146.48 247.64 148.26 248.09 150.05 C 244.36 152.80 240.00 154.55 235.88 156.64 C 240.23 156.63 243.36 153.04 247.18 151.41 C 247.37 154.65 243.93 155.40 241.80 156.85 C 238.87 158.32 236.77 160.94 233.97 162.59 C 235.32 162.04 236.63 161.27 238.09 161.07 C 237.93 161.62 237.60 162.73 237.44 163.29 L 237.30 163.89 C 238.00 165.07 238.76 166.22 239.48 167.39 C 240.27 167.25 241.06 167.18 241.86 167.17 C 241.57 168.47 240.99 169.68 240.14 170.79 C 242.30 169.37 244.44 167.89 246.72 166.66 C 246.65 167.40 246.51 168.88 246.44 169.62 C 246.04 169.53 245.24 169.34 244.84 169.24 C 244.49 170.34 243.86 171.25 242.96 171.97 C 240.02 174.01 237.12 176.10 234.22 178.18 L 234.31 179.37 L 233.32 179.18 C 232.63 179.39 231.95 179.60 231.27 179.82 C 232.22 178.61 233.16 177.39 234.08 176.16 C 233.04 176.55 230.98 177.33 229.94 177.72 C 229.83 177.05 229.60 175.71 229.49 175.03 C 225.47 175.12 227.81 179.66 227.07 182.09 C 226.72 181.64 226.04 180.75 225.70 180.30 L 223.81 181.36 C 224.05 179.23 222.71 176.48 224.73 174.95 C 224.00 175.64 223.16 175.95 222.20 175.89 C 222.44 174.23 223.97 173.07 225.01 171.87 L 225.91 176.18 C 226.63 173.96 225.94 171.35 227.65 169.47 C 226.85 169.18 224.46 170.05 225.45 168.42 C 226.68 168.14 227.75 168.81 228.83 169.27 C 231.25 167.55 233.88 166.18 236.30 164.47 C 235.12 164.99 233.97 165.58 232.84 166.19 C 231.54 167.07 230.23 167.93 228.94 168.82 C 228.50 168.18 228.07 167.54 227.64 166.90 C 229.51 165.66 231.40 164.43 233.10 162.94 C 230.53 164.12 228.13 165.64 225.81 167.24 L 227.55 164.64 L 227.62 162.77 C 227.00 163.32 225.76 164.40 225.15 164.95 C 225.24 164.24 225.44 162.82 225.54 162.11 C 225.67 162.24 225.94 162.50 226.07 162.63 C 226.48 159.42 230.62 159.04 232.94 157.46 C 232.24 157.60 231.55 157.74 230.86 157.90 C 229.00 159.09 227.08 160.22 225.04 161.06 C 225.56 159.60 226.13 158.15 226.73 156.72 C 228.38 155.79 230.00 154.79 231.63 153.79 L 231.25 156.20 C 231.96 155.39 232.66 154.57 233.36 153.75 L 234.11 153.82 C 236.07 153.98 237.68 152.67 239.44 152.03 L 239.36 151.71 C 241.97 151.15 244.26 149.65 246.25 147.92 C 243.33 149.15 240.62 150.81 237.66 151.95 C 238.45 150.45 239.62 149.21 240.71 147.93 C 241.31 146.41 242.61 145.45 243.83 144.46 C 245.10 142.14 242.84 140.04 242.11 137.94 C 241.67 137.60 240.78 136.92 240.34 136.58 C 239.01 136.86 237.61 137.88 236.21 137.43 C 239.93 135.04 244.59 135.64 248.46 133.68 C 245.94 133.67 243.42 133.88 240.91 133.51 C 242.59 131.44 247.34 133.83 246.34 129.94 Z" />
<path fill="#ffffff" opacity="1.00" d=" M 175.91 135.84 C 174.20 132.12 180.42 131.19 182.98 131.38 C 182.19 134.42 178.79 135.83 175.91 135.84 Z" />
<path fill="#ffffff" opacity="1.00" d=" M 230.56 136.52 C 232.16 134.04 235.00 132.98 237.36 131.42 C 237.84 132.27 238.31 133.12 238.79 133.96 C 237.39 135.06 235.96 136.14 234.54 137.20 C 234.55 136.75 234.57 135.85 234.59 135.40 C 233.44 135.92 232.28 136.41 231.11 136.85 C 231.18 137.33 231.31 138.27 231.38 138.74 C 232.26 138.55 234.01 138.17 234.89 137.97 C 232.69 139.72 231.96 142.49 230.99 145.00 C 231.48 145.49 232.46 146.46 232.95 146.95 C 231.87 147.78 229.72 149.44 228.65 150.28 C 229.67 150.02 231.72 149.51 232.74 149.25 C 231.45 150.82 230.29 152.54 228.70 153.85 C 226.90 154.49 225.03 154.87 223.21 155.43 L 223.87 154.33 C 222.88 154.49 220.89 154.80 219.90 154.96 C 220.97 154.13 222.06 153.33 223.16 152.54 C 222.59 152.38 221.44 152.06 220.87 151.90 C 222.90 150.58 225.09 149.49 227.05 148.05 C 224.43 148.99 222.19 150.97 219.26 150.91 C 220.52 147.95 224.37 148.07 226.07 145.53 L 226.57 146.20 C 226.93 145.95 227.66 145.45 228.02 145.20 C 227.54 145.29 226.56 145.45 226.07 145.53 C 223.88 146.37 221.60 148.27 219.14 147.38 C 219.59 146.92 220.49 146.00 220.94 145.54 C 222.74 144.96 224.64 144.61 226.32 143.68 C 225.96 143.61 225.24 143.46 224.89 143.38 L 224.31 143.49 C 223.53 143.66 222.75 143.67 221.96 143.50 C 221.67 139.83 226.55 140.44 226.87 137.25 C 228.09 137.00 229.33 136.76 230.56 136.52 Z" />
<path fill="#ffffff" opacity="1.00" d=" M 256.86 132.80 C 257.92 132.57 259.86 134.06 259.11 135.15 C 257.95 135.49 256.04 133.98 256.86 132.80 Z" />
<path fill="#ffffff" opacity="1.00" d=" M 270.29 132.99 C 270.91 133.66 270.91 133.66 270.29 132.99 Z" />
<path fill="#ffffff" opacity="1.00" d=" M 328.33 139.07 C 330.13 137.37 329.61 134.75 330.32 132.59 C 330.62 135.27 330.53 138.01 331.21 140.65 C 330.27 140.08 329.21 139.52 328.33 139.07 Z" />
<path fill="#ffffff" opacity="1.00" d=" M 254.50 133.55 C 255.47 134.63 256.40 135.74 257.32 136.86 C 256.37 137.14 255.42 137.41 254.48 137.69 C 254.48 136.31 254.49 134.93 254.50 133.55 Z" />
<path fill="#ffffff" opacity="1.00" d=" M 302.16 135.74 C 302.72 134.26 305.41 135.05 306.15 136.11 C 305.46 137.51 302.94 136.58 302.16 135.74 Z" />
<path fill="#ffffff" opacity="1.00" d=" M 223.79 139.70 C 223.05 138.13 225.13 135.66 226.78 135.96 C 226.74 137.44 225.14 139.28 223.79 139.70 Z" />
<path fill="#ffffff" opacity="1.00" d=" M 259.61 137.55 C 260.42 138.36 260.80 139.36 260.76 140.55 C 261.48 140.49 262.94 140.39 263.67 140.33 C 263.54 139.66 263.28 138.32 263.15 137.65 C 263.39 138.16 263.89 139.17 264.13 139.67 C 264.84 139.56 266.25 139.34 266.96 139.23 C 266.51 139.58 265.62 140.29 265.18 140.64 C 265.25 141.39 265.38 142.88 265.44 143.63 C 264.90 143.62 263.82 143.60 263.28 143.59 C 262.47 145.45 260.25 145.62 258.72 146.57 C 258.80 145.60 258.94 143.68 259.02 142.71 C 257.90 144.22 257.73 146.92 255.26 146.90 C 255.95 144.63 256.76 142.41 257.52 140.17 C 258.01 140.36 258.99 140.75 259.48 140.94 C 259.51 140.09 259.58 138.39 259.61 137.55 Z" />
<path fill="#ffffff" opacity="1.00" d=" M 303.74 138.54 C 305.29 138.44 306.83 138.68 308.33 139.06 C 307.90 139.13 307.05 139.27 306.62 139.34 C 306.60 142.53 303.78 144.32 301.53 146.07 C 301.20 145.34 300.55 143.88 300.23 143.15 C 298.17 144.92 295.62 145.57 292.96 145.33 C 294.22 144.60 295.50 143.93 296.80 143.26 C 296.39 142.78 295.57 141.83 295.16 141.36 C 297.83 140.49 300.55 139.75 303.33 139.36 C 302.32 140.42 300.30 142.53 299.29 143.59 C 301.72 142.86 303.91 141.20 303.74 138.54 Z" />
<path fill="#ffffff" opacity="1.00" d=" M 308.07 142.39 C 308.81 140.14 310.83 138.77 313.08 138.31 C 311.59 140.15 309.69 141.60 308.06 143.30 C 310.55 142.30 313.02 141.19 315.53 140.24 C 315.62 140.92 315.79 142.28 315.87 142.96 C 314.09 143.87 312.28 144.72 310.65 145.89 C 312.52 145.45 314.21 144.50 315.85 143.53 C 316.50 144.03 317.15 144.54 317.81 145.05 L 314.85 145.73 C 316.50 145.70 318.15 145.69 319.80 145.69 C 321.10 146.45 322.61 146.49 324.09 146.54 C 323.40 148.95 325.41 148.34 326.85 148.25 C 327.56 149.70 328.36 151.14 329.53 152.28 C 331.85 154.31 332.00 157.66 333.89 160.00 C 333.09 159.79 331.49 159.37 330.69 159.16 C 332.28 160.53 333.88 161.89 335.40 163.35 C 333.76 163.37 332.13 163.40 330.50 163.44 C 330.51 163.95 330.52 164.97 330.53 165.48 C 330.94 165.41 331.77 165.26 332.18 165.19 C 332.97 164.97 334.55 164.54 335.34 164.32 C 335.57 165.61 335.73 166.91 335.83 168.22 C 336.76 169.04 337.70 169.85 338.65 170.65 C 337.62 171.37 337.21 172.33 337.42 173.56 C 337.01 173.70 336.20 173.99 335.79 174.13 C 336.49 174.37 337.88 174.87 338.58 175.11 C 341.18 178.24 344.64 180.70 346.45 184.44 C 343.83 184.04 340.57 182.87 338.53 185.31 C 339.75 184.93 340.98 184.54 342.20 184.12 C 342.31 184.65 342.54 185.72 342.65 186.25 L 342.95 184.23 C 344.65 184.66 346.34 185.17 348.04 185.68 C 347.87 188.12 349.16 190.04 350.64 191.82 C 348.24 190.26 346.18 188.23 344.68 185.79 C 344.56 187.30 344.59 188.81 344.57 190.33 C 344.12 189.74 343.22 188.57 342.77 187.98 C 340.67 189.13 339.17 191.01 337.44 192.61 C 338.06 191.32 338.69 190.03 339.33 188.75 C 337.42 190.07 335.65 191.59 333.90 193.10 C 334.62 193.29 336.08 193.67 336.81 193.85 C 334.10 194.50 331.03 194.90 329.68 197.72 C 330.75 199.18 330.60 200.90 330.03 202.54 C 329.33 201.34 328.64 200.13 327.82 199.01 L 327.98 200.96 C 327.15 200.76 325.50 200.37 324.67 200.17 C 325.02 198.78 325.39 197.39 325.69 195.98 C 327.07 195.17 328.49 194.35 329.58 193.14 C 327.15 193.93 324.86 195.06 322.56 196.15 C 322.56 194.63 322.50 193.10 322.40 191.58 C 321.21 191.64 320.03 191.67 318.86 191.66 C 320.32 191.35 321.79 191.03 323.25 190.69 C 322.08 190.60 319.73 190.42 318.55 190.33 L 318.56 189.57 C 314.52 189.41 320.12 187.71 320.59 186.25 C 319.45 186.35 317.17 186.54 316.03 186.64 C 316.54 186.02 317.56 184.78 318.07 184.17 L 314.53 184.72 C 315.49 182.95 316.96 181.55 318.41 180.17 C 317.19 180.40 314.76 180.86 313.54 181.09 C 315.21 179.68 317.01 178.45 318.78 177.18 C 317.81 177.44 315.87 177.96 314.91 178.22 C 315.17 177.59 315.69 176.35 315.95 175.73 C 315.08 175.98 313.35 176.48 312.48 176.73 C 312.98 175.89 313.97 174.23 314.47 173.40 C 312.91 174.10 311.37 174.81 309.74 175.31 L 314.06 171.62 C 312.28 172.23 308.72 173.44 306.94 174.04 C 308.40 173.00 309.96 172.07 311.22 170.76 C 310.33 170.73 308.56 170.66 307.67 170.63 C 309.01 168.64 313.21 168.27 312.36 165.27 C 313.49 164.50 314.62 163.73 315.77 162.99 C 315.36 162.35 314.95 161.72 314.55 161.09 C 314.58 161.55 314.65 162.48 314.68 162.94 C 313.38 163.59 312.31 164.55 311.33 165.60 L 310.02 164.91 L 311.29 167.38 C 309.26 164.98 307.12 167.58 305.06 168.08 C 305.83 167.20 307.38 165.43 308.15 164.55 C 307.49 164.55 306.19 164.55 305.54 164.55 C 308.45 162.44 311.76 160.73 314.17 158.01 C 312.62 158.52 311.32 159.52 310.12 160.59 C 309.35 159.85 308.62 159.08 307.86 158.35 L 310.03 161.43 L 305.27 159.84 L 306.36 160.92 C 305.60 160.90 304.07 160.86 303.31 160.84 C 304.11 160.15 304.91 159.45 305.72 158.75 C 308.41 156.85 311.77 156.21 314.45 154.35 C 311.94 154.95 309.49 155.80 307.11 156.77 L 307.69 155.45 C 306.05 154.48 304.84 152.31 305.55 150.45 C 304.05 150.61 302.55 150.72 301.07 150.92 C 302.36 151.57 303.69 152.16 304.97 152.85 C 303.61 154.06 302.20 155.21 300.74 156.28 C 299.91 155.23 299.10 154.18 298.36 153.07 C 298.00 152.88 297.27 152.50 296.90 152.32 C 299.90 150.65 302.19 147.59 305.74 147.09 L 303.86 146.38 C 305.27 145.06 306.70 143.76 308.07 142.39 M 330.21 161.24 C 330.87 161.78 330.87 161.78 330.21 161.24 M 320.64 179.23 C 319.57 179.29 318.21 181.68 319.96 181.66 C 321.05 181.63 322.49 179.04 320.64 179.23 M 330.00 193.04 C 330.02 194.64 332.49 193.54 332.68 192.50 C 332.63 190.79 330.17 191.93 330.00 193.04 M 328.21 196.24 C 328.77 196.86 328.77 196.86 328.21 196.24 Z" />
<path fill="#ffffff" opacity="1.00" d=" M 237.38 139.33 C 237.66 139.95 237.78 140.66 237.74 141.48 C 238.27 141.57 239.33 141.75 239.85 141.84 C 240.54 142.26 241.23 142.67 241.93 143.08 C 239.46 145.80 238.12 149.82 235.14 151.86 C 235.25 151.29 235.46 150.16 235.57 149.59 C 235.88 149.21 236.49 148.46 236.80 148.08 C 235.31 149.03 233.86 150.03 232.38 150.99 C 233.77 148.99 233.56 146.64 233.58 144.36 C 234.38 143.97 235.98 143.20 236.79 142.82 C 235.89 142.33 234.99 141.86 234.09 141.41 C 235.19 140.72 236.37 140.16 237.38 139.33 Z" />
<path fill="#ffffff" opacity="1.00" d=" M 315.23 139.19 C 315.73 139.90 315.73 139.90 315.23 139.19 Z" />
<path fill="#ffffff" opacity="1.00" d=" M 168.41 139.95 C 168.80 141.79 171.07 144.52 168.88 145.80 C 167.51 147.75 166.54 144.70 165.45 144.03 C 166.39 142.64 167.37 141.27 168.41 139.95 Z" />
<path fill="#ffffff" opacity="1.00" d=" M 316.82 143.11 C 317.28 139.78 319.56 141.58 321.18 141.93 C 321.88 143.04 323.30 145.27 324.00 146.39 C 321.59 145.31 319.19 144.25 316.82 143.11 Z" />
<path fill="#ffffff" opacity="1.00" d=" M 202.41 150.70 C 209.02 148.56 214.73 144.52 221.03 141.68 C 221.37 146.03 216.01 146.07 213.64 148.63 C 212.84 149.21 212.04 149.79 211.23 150.35 C 211.40 149.61 211.74 148.13 211.91 147.38 C 209.27 148.76 205.70 149.59 205.06 152.99 C 206.54 152.07 208.00 151.10 209.44 150.10 L 209.65 152.72 C 209.08 152.58 207.95 152.29 207.38 152.15 L 207.78 153.30 C 204.83 153.59 201.35 156.16 198.72 153.71 C 198.15 153.58 197.01 153.31 196.43 153.18 C 197.34 155.13 195.91 156.53 194.88 157.89 C 194.00 157.36 193.12 156.85 192.23 156.35 C 193.36 155.08 194.56 153.88 195.77 152.68 C 195.66 152.13 195.43 151.03 195.32 150.48 C 196.31 150.18 197.27 149.84 198.26 149.52 C 197.27 149.59 195.28 149.74 194.28 149.81 C 196.47 147.86 198.90 146.22 201.19 144.40 C 201.31 145.10 201.54 146.50 201.65 147.20 C 200.59 148.40 199.67 149.72 198.95 151.16 C 200.18 150.38 201.30 149.46 202.30 148.40 C 202.33 148.98 202.39 150.13 202.41 150.70 Z" />
<path fill="#ffffff" opacity="1.00" d=" M 323.23 142.06 C 324.13 142.59 325.03 143.13 325.92 143.68 L 326.59 142.30 C 327.00 142.85 327.42 143.42 327.84 143.98 C 327.16 144.32 325.81 145.00 325.14 145.34 C 324.50 144.25 323.86 143.16 323.23 142.06 Z" />
<path fill="#ffffff" opacity="1.00" d=" M 190.56 144.89 C 193.11 142.49 193.02 148.30 190.52 146.30 C 190.53 145.95 190.55 145.24 190.56 144.89 Z" />
<path fill="#ffffff" opacity="1.00" d=" M 188.01 151.98 C 189.83 149.94 192.01 148.29 194.16 146.62 C 194.29 147.24 194.55 148.47 194.69 149.09 C 194.29 149.57 193.49 150.54 193.10 151.02 C 192.09 150.25 190.45 150.09 190.17 151.67 C 190.82 151.65 192.13 151.62 192.78 151.61 C 191.99 152.26 190.40 153.57 189.60 154.22 C 189.07 153.47 188.54 152.73 188.01 151.98 Z" />
<path fill="#ffffff" opacity="1.00" d=" M 279.96 147.60 C 281.46 148.17 282.82 149.04 284.27 149.75 C 282.73 151.75 280.60 152.91 278.07 152.09 C 277.85 151.50 277.41 150.33 277.19 149.75 C 278.91 150.42 280.76 152.11 282.21 149.91 C 281.48 149.18 277.89 149.12 279.96 147.60 Z" />
<path fill="#ffffff" opacity="1.00" d=" M 176.17 149.90 C 175.69 148.48 177.74 147.68 178.84 148.05 L 179.02 148.52 C 178.32 149.74 177.37 150.21 176.17 149.90 Z" />
<path fill="#ffffff" opacity="1.00" d=" M 214.66 150.32 C 215.37 149.51 215.37 149.51 214.66 150.32 Z" />
<path fill="#ffffff" opacity="1.00" d=" M 249.34 150.43 C 250.83 149.62 252.33 148.84 253.87 148.11 C 253.18 148.97 251.82 150.68 251.13 151.54 C 253.10 149.08 257.51 154.30 256.93 149.62 C 257.07 150.33 257.35 151.74 257.49 152.44 L 258.59 151.35 C 258.67 152.45 258.71 153.56 258.86 154.66 C 258.17 153.72 257.36 152.89 256.42 152.22 C 256.84 153.16 257.29 154.07 257.78 154.98 C 258.35 155.43 259.48 156.34 260.04 156.79 C 258.40 157.22 256.77 157.64 255.20 158.27 C 253.64 159.40 251.81 159.74 249.91 159.72 C 249.52 159.04 248.73 157.68 248.34 157.00 C 248.93 156.33 249.55 155.68 250.17 155.03 C 247.20 154.30 249.32 152.99 250.51 152.21 C 250.11 151.61 249.73 151.02 249.34 150.43 Z" />
<path fill="#ffffff" opacity="1.00" d=" M 214.66 150.32 C 214.26 150.73 214.26 150.73 214.66 150.32 Z" />
<path fill="#ffffff" opacity="1.00" d=" M 211.91 150.25 C 212.64 151.25 213.33 152.27 214.03 153.30 C 214.12 152.93 214.31 152.20 214.41 151.83 C 215.17 151.40 216.68 150.54 217.44 150.11 C 217.61 150.69 217.95 151.86 218.11 152.44 C 217.24 153.17 216.39 153.92 215.56 154.69 C 216.36 155.00 217.97 155.61 218.77 155.92 C 216.60 156.84 214.29 157.56 212.37 158.99 C 215.76 158.48 218.69 156.48 222.10 156.04 C 219.48 159.18 215.24 162.10 210.92 161.38 L 210.25 161.53 C 208.45 162.67 207.31 158.92 208.37 157.98 C 208.99 158.22 210.24 158.68 210.86 158.92 L 209.88 157.21 C 210.67 157.19 212.24 157.16 213.03 157.14 C 212.76 156.63 212.23 155.62 211.97 155.12 C 211.38 154.60 210.79 154.08 210.21 153.55 C 210.64 152.73 211.49 151.08 211.91 150.25 Z" />
<path fill="#ffffff" opacity="1.00" d=" M 181.42 153.99 C 182.97 153.35 184.50 152.62 186.09 152.09 C 185.42 152.60 184.07 153.61 183.40 154.12 C 184.01 154.61 184.62 155.10 185.24 155.59 C 184.05 156.56 182.85 157.49 181.61 158.40 C 182.74 158.85 183.88 159.23 185.03 159.66 C 184.07 160.65 183.09 161.60 182.09 162.53 C 181.33 161.27 180.57 159.99 179.27 159.22 C 179.72 158.86 180.62 158.16 181.08 157.81 L 180.96 156.95 C 181.62 156.72 182.94 156.25 183.60 156.02 C 182.86 155.35 182.14 154.67 181.42 153.99 Z" />
<path fill="#ffffff" opacity="1.00" d=" M 262.49 154.91 C 265.62 153.71 269.04 154.82 272.17 155.48 L 270.12 155.85 C 271.19 156.59 272.33 157.23 273.47 157.89 C 272.35 158.62 271.24 159.33 270.12 160.05 C 269.17 158.02 268.03 155.93 265.44 156.27 C 264.70 155.93 263.23 155.25 262.49 154.91 Z" />
<path fill="#ffffff" opacity="1.00" d=" M 181.04 154.97 C 181.02 155.47 180.98 156.46 180.96 156.95 C 180.58 156.99 179.82 157.08 179.44 157.12 C 179.84 156.58 180.64 155.51 181.04 154.97 Z" />
<path fill="#ffffff" opacity="1.00" d=" M 200.29 155.65 C 202.31 155.56 204.21 154.87 206.19 154.53 C 207.16 155.44 208.25 156.20 209.40 156.88 C 207.89 157.96 206.37 159.03 204.73 159.90 C 203.36 160.55 201.97 160.59 200.56 160.02 C 202.21 158.82 204.12 158.05 206.02 157.33 C 206.13 156.97 206.34 156.25 206.45 155.89 C 204.46 156.75 202.36 157.24 200.28 157.76 C 200.28 157.23 200.29 156.17 200.29 155.65 Z" />
<path fill="#ffffff" opacity="1.00" d=" M 242.94 157.45 C 244.15 156.57 245.37 155.71 246.59 154.86 C 246.62 156.24 246.68 157.62 246.78 159.00 C 246.40 159.38 245.65 160.12 245.27 160.49 C 249.57 160.94 244.83 163.88 245.64 166.20 C 244.10 166.28 242.57 166.38 241.05 166.50 C 241.95 164.98 243.02 163.59 244.04 162.17 C 242.30 163.52 240.95 166.57 238.12 164.41 C 239.23 160.83 243.47 160.07 246.01 157.76 L 243.13 158.56 L 242.85 158.11 L 242.94 157.45 Z" />
<path fill="#ffffff" opacity="1.00" d=" M 303.03 155.75 C 305.12 153.75 304.87 158.16 302.90 156.55 L 303.03 155.75 Z" />
<path fill="#ffffff" opacity="1.00" d=" M 195.11 160.25 C 196.50 158.54 197.86 156.69 199.99 155.84 C 199.28 157.46 198.40 159.00 197.49 160.52 C 196.90 160.45 195.71 160.32 195.11 160.25 Z" />
<path fill="#ffffff" opacity="1.00" d=" M 285.47 157.01 C 285.71 157.11 286.19 157.31 286.43 157.40 C 286.08 158.81 285.73 160.21 285.40 161.62 L 286.67 161.55 C 286.45 162.03 286.02 163.00 285.80 163.49 C 288.53 162.16 288.23 164.42 288.39 166.01 C 288.87 166.44 289.84 167.32 290.32 167.76 C 288.26 167.63 286.19 167.56 284.18 167.15 C 284.10 164.86 284.44 162.59 284.83 160.35 C 282.78 163.45 279.27 162.72 276.15 162.55 C 276.41 161.46 276.68 160.38 276.98 159.30 C 278.82 159.36 281.14 160.47 282.61 158.86 C 284.57 160.05 285.42 159.12 285.47 157.01 Z" />
<path fill="#ffffff" opacity="1.00" d=" M 297.19 157.89 C 297.65 157.65 298.57 157.16 299.03 156.91 C 299.68 157.61 300.33 158.30 300.99 159.00 C 300.75 160.04 300.49 161.08 300.21 162.11 C 299.42 161.68 298.64 161.23 297.87 160.78 C 297.70 160.06 297.36 158.61 297.19 157.89 Z" />
<path fill="#ffffff" opacity="1.00" d=" M 218.47 159.93 C 220.57 158.74 222.62 157.48 224.88 156.60 C 224.27 157.52 223.04 159.36 222.43 160.27 L 225.06 160.39 C 222.08 165.03 217.28 167.76 212.53 170.23 C 213.65 170.73 214.77 171.26 215.89 171.80 C 215.09 172.28 213.49 173.24 212.69 173.72 C 213.23 173.61 214.31 173.39 214.85 173.28 C 216.37 171.96 218.02 170.81 219.69 169.70 L 219.61 169.40 C 219.12 169.42 218.14 169.44 217.65 169.45 C 218.79 166.55 222.08 165.02 224.38 163.11 C 223.82 164.83 223.12 166.50 222.29 168.10 C 222.90 167.86 224.11 167.37 224.72 167.13 L 224.64 169.12 C 221.30 170.72 218.92 173.69 216.07 175.96 C 215.54 175.77 214.49 175.40 213.97 175.21 C 213.02 176.47 212.04 177.69 210.99 178.86 C 210.87 178.33 210.62 177.25 210.50 176.72 C 211.08 176.43 212.25 175.84 212.83 175.55 C 211.58 175.52 210.33 175.48 209.09 175.43 C 210.26 173.98 211.55 172.60 212.34 170.89 C 210.83 171.45 209.65 174.88 207.99 173.20 C 208.76 169.71 212.49 168.32 214.94 166.17 C 211.86 167.28 209.20 169.21 206.63 171.18 C 206.06 168.43 206.84 165.87 208.34 163.56 C 209.69 163.04 211.02 162.44 212.35 161.86 C 212.35 162.73 212.34 164.46 212.33 165.33 C 212.72 165.24 213.49 165.06 213.88 164.97 C 213.80 164.51 213.64 163.60 213.56 163.14 C 214.81 162.31 216.02 161.44 217.20 160.53 C 217.79 161.24 218.26 162.05 218.90 162.73 C 219.99 161.84 219.18 160.73 218.47 159.93 Z" />
<path fill="#ffffff" opacity="1.00" d=" M 239.86 159.62 C 240.60 158.54 241.60 158.04 242.85 158.11 C 242.74 159.36 241.92 160.11 240.40 160.36 L 239.76 160.19 L 239.86 159.62 Z" />
<path fill="#ffffff" opacity="1.00" d=" M 252.70 160.67 C 254.96 159.64 257.14 158.23 259.75 158.29 C 258.32 159.44 256.85 160.52 255.33 161.52 C 255.45 161.82 255.70 162.41 255.83 162.71 L 253.19 161.90 C 256.58 164.24 251.54 165.95 249.66 165.64 C 250.88 164.79 252.19 164.09 253.52 163.43 L 253.63 163.12 C 252.88 163.13 251.38 163.14 250.64 163.15 C 251.32 162.32 252.01 161.49 252.70 160.67 Z" />
<path fill="#ffffff" opacity="1.00" d=" M 202.04 161.84 C 203.94 160.72 205.97 159.83 208.03 159.03 C 209.83 164.44 204.83 161.84 202.52 163.16 L 206.22 163.19 L 203.99 165.24 C 205.08 164.45 206.26 163.79 207.51 163.27 C 207.63 165.74 204.67 166.59 203.01 167.81 C 203.18 166.99 203.51 165.34 203.68 164.52 L 202.59 164.61 C 202.45 163.92 202.18 162.53 202.04 161.84 Z" />
<path fill="#ffffff" opacity="1.00" d=" M 238.15 160.37 C 238.56 160.32 239.36 160.24 239.76 160.19 L 239.65 161.16 C 239.26 161.14 238.48 161.09 238.09 161.07 L 238.15 160.37 Z" />
<path fill="#ffffff" opacity="1.00" d=" M 256.47 165.05 C 257.38 163.33 258.56 160.75 261.00 161.55 C 262.29 161.57 261.57 163.04 261.71 163.85 L 262.72 163.16 C 262.48 165.10 262.71 167.15 261.98 169.02 C 260.34 168.86 259.30 167.55 258.11 166.58 C 257.70 166.20 256.88 165.43 256.47 165.05 Z" />
<path fill="#ffffff" opacity="1.00" d=" M 306.36 160.92 C 307.53 160.72 308.04 161.14 307.88 162.15 C 307.28 162.30 306.06 162.58 305.45 162.73 C 305.68 162.27 306.13 161.37 306.36 160.92 Z" />
<path fill="#ffffff" opacity="1.00" d=" M 182.39 165.96 C 183.47 164.19 185.12 162.87 186.65 161.52 C 187.15 163.70 185.97 165.39 184.82 167.02 C 186.12 165.84 187.56 164.90 189.42 165.24 C 188.17 167.11 186.72 168.93 184.34 169.21 L 184.74 167.85 C 183.56 167.64 182.78 167.01 182.39 165.96 Z" />
<path fill="#ffffff" opacity="1.00" d=" M 207.51 163.27 C 207.80 163.19 207.80 163.19 207.51 163.27 Z" />
<path fill="#ffffff" opacity="1.00" d=" M 189.44 167.18 C 191.73 166.84 192.14 167.70 190.67 169.76 C 191.32 169.35 192.63 168.54 193.29 168.13 L 193.64 170.27 C 191.90 170.51 190.15 170.62 188.40 170.71 C 188.45 170.16 188.56 169.08 188.61 168.54 L 189.64 168.53 L 189.44 167.18 Z" />
<path fill="#ffffff" opacity="1.00" d=" M 307.60 168.02 C 308.30 168.59 308.30 168.59 307.60 168.02 Z" />
<path fill="#ffffff" opacity="1.00" d=" M 216.31 171.31 C 215.00 170.54 216.43 168.27 217.65 169.45 C 217.32 169.92 216.65 170.84 216.31 171.31 Z" />
<path fill="#ffffff" opacity="1.00" d=" M 247.93 170.05 C 248.15 169.74 248.59 169.12 248.81 168.81 L 248.07 172.00 C 248.81 171.45 250.29 170.35 251.03 169.80 C 250.07 171.09 248.44 172.58 250.00 174.15 L 251.40 171.30 C 251.45 172.10 251.55 173.69 251.60 174.49 C 252.51 173.42 253.39 172.32 254.25 171.21 C 255.01 172.99 256.13 172.86 257.39 171.56 C 258.48 171.29 259.57 170.97 260.66 170.66 C 259.87 172.04 259.04 173.40 258.23 174.78 L 262.00 174.51 C 260.60 175.33 259.06 175.83 257.45 175.99 L 257.58 177.45 C 257.04 178.39 255.95 180.26 255.40 181.19 C 257.73 179.43 259.87 177.43 262.09 175.53 C 263.17 175.67 264.25 175.75 265.35 175.62 L 264.04 176.78 C 264.52 176.89 265.46 177.11 265.93 177.22 L 264.41 177.02 L 264.56 178.47 L 263.30 178.41 C 262.82 179.75 262.37 181.09 261.97 182.45 C 261.43 181.78 260.90 181.10 260.38 180.42 L 258.85 182.74 C 258.52 182.14 258.20 181.53 257.88 180.93 L 259.75 180.10 C 260.18 179.89 261.04 179.45 261.48 179.24 C 261.09 178.28 260.41 177.96 259.43 178.28 C 259.51 178.73 259.67 179.65 259.75 180.10 L 258.55 179.82 C 257.74 180.41 256.12 181.61 255.30 182.20 C 256.12 182.60 256.94 182.99 257.77 183.36 C 257.34 184.06 256.47 185.46 256.03 186.17 C 257.24 185.25 258.32 184.18 259.36 183.08 C 259.87 182.87 260.91 182.47 261.43 182.27 C 260.71 183.65 260.04 185.06 259.40 186.49 C 255.96 189.31 254.00 195.18 248.82 194.85 C 250.13 193.62 251.50 192.44 252.74 191.14 C 251.58 189.86 250.07 191.23 248.80 191.51 C 250.10 188.57 252.75 186.63 255.24 184.78 C 254.91 184.47 254.57 184.16 254.24 183.86 C 251.59 186.94 248.25 189.31 245.17 191.92 C 245.87 190.69 246.60 189.47 247.32 188.25 C 245.38 188.42 243.43 188.57 241.49 188.71 C 242.77 186.17 245.37 184.85 247.39 183.00 C 248.20 182.41 247.17 181.81 246.61 181.54 C 247.92 181.01 249.10 180.25 250.14 179.27 C 250.69 179.83 251.25 180.40 251.82 180.96 L 249.98 182.24 C 247.71 186.93 251.82 181.70 252.97 180.96 C 254.25 179.67 255.60 178.40 256.46 176.78 C 255.24 177.70 254.10 178.69 253.02 179.77 C 252.42 179.19 251.83 178.62 251.23 178.06 C 253.85 176.06 258.30 175.79 258.94 171.93 C 255.48 172.58 253.10 175.07 250.89 177.57 C 250.12 176.61 248.92 175.73 249.38 174.24 C 248.66 175.53 247.89 176.81 247.02 178.00 C 245.75 178.83 244.52 179.69 243.31 180.60 L 245.78 181.59 C 243.90 183.06 242.12 184.65 240.32 186.21 L 240.85 184.46 C 239.19 184.77 237.59 184.54 236.07 183.78 C 238.65 181.54 240.93 178.99 243.32 176.56 L 242.23 175.64 C 241.02 177.76 239.39 179.56 237.75 181.34 C 237.13 180.50 236.57 179.62 236.00 178.76 L 236.00 179.97 L 234.40 180.06 L 237.84 181.89 L 231.49 181.58 C 232.20 181.03 233.61 179.92 234.31 179.37 C 236.33 177.84 238.43 176.43 240.68 175.26 C 240.90 175.32 241.34 175.44 241.57 175.50 C 242.75 172.81 245.64 171.62 247.93 170.05 M 247.75 171.33 C 248.00 171.72 248.00 171.72 247.75 171.33 M 244.73 174.28 C 244.00 174.97 244.00 174.97 244.73 174.28 C 245.49 173.65 245.49 173.65 244.73 174.28 M 247.00 174.86 C 247.69 174.22 247.69 174.22 247.00 174.86 M 246.31 175.77 C 246.48 175.54 246.83 175.09 247.00 174.86 C 246.83 175.09 246.48 175.54 246.31 175.77 M 244.08 178.08 C 245.46 177.99 246.20 177.22 246.31 175.77 C 244.90 175.93 244.16 176.70 244.08 178.08 M 243.23 181.19 C 243.89 181.80 243.89 181.80 243.23 181.19 Z" />
<path fill="#ffffff" opacity="1.00" d=" M 214.53 178.51 C 217.54 174.93 221.04 171.44 225.34 169.50 C 224.43 171.18 223.47 172.83 222.46 174.45 C 222.23 174.51 221.76 174.63 221.52 174.69 L 222.26 176.76 L 221.02 177.05 L 219.63 176.32 C 219.70 176.89 219.85 178.02 219.92 178.58 C 218.12 178.48 216.32 178.39 214.53 178.51 Z" />
<path fill="#ffffff" opacity="1.00" d=" M 202.60 174.70 C 201.35 174.05 201.42 173.37 202.80 172.68 C 204.02 173.34 203.95 174.02 202.60 174.70 Z" />
<path fill="#ffffff" opacity="1.00" d=" M 305.21 175.50 C 306.03 175.88 306.86 176.24 307.70 176.59 C 307.47 176.91 307.00 177.57 306.76 177.90 C 309.07 179.61 311.12 181.82 310.59 184.96 C 312.17 186.99 313.81 188.96 315.29 191.06 C 314.83 191.56 313.92 192.55 313.46 193.05 C 313.15 192.31 312.53 190.84 312.22 190.10 C 311.27 191.02 310.54 192.30 309.27 192.78 C 309.04 190.89 309.62 189.10 310.91 187.69 L 308.64 188.17 C 308.65 187.68 308.68 186.70 308.69 186.21 C 308.21 186.28 307.24 186.42 306.75 186.50 C 306.50 184.48 305.86 182.32 307.44 180.63 C 306.55 180.99 304.79 181.72 303.91 182.08 C 304.65 181.12 306.14 179.20 306.89 178.24 C 305.90 178.39 303.93 178.69 302.95 178.84 C 302.62 178.01 302.29 177.18 301.97 176.36 C 302.89 176.41 304.75 176.51 305.68 176.55 L 305.21 175.50 Z" />
<path fill="#ffffff" opacity="1.00" d=" M 220.48 177.24 C 220.77 177.57 220.77 177.57 220.48 177.24 Z" />
<path fill="#ffffff" opacity="1.00" d=" M 221.96 178.00 C 222.63 178.65 222.63 178.65 221.96 178.00 Z" />
<path fill="#ffffff" opacity="1.00" d=" M 247.02 178.00 C 248.74 177.01 249.15 180.11 247.32 180.01 C 247.25 179.51 247.09 178.50 247.02 178.00 Z" />
<path fill="#ffffff" opacity="1.00" d=" M 314.91 178.22 C 314.40 178.90 314.40 178.90 314.91 178.22 Z" />
<path fill="#ffffff" opacity="1.00" d=" M 266.71 179.77 C 267.10 180.69 267.47 181.61 267.86 182.53 C 266.63 182.48 265.42 182.44 264.20 182.40 C 264.40 183.85 264.58 185.31 264.73 186.78 C 265.42 185.81 266.10 184.86 266.79 183.90 C 266.60 185.49 266.41 187.08 266.29 188.69 C 266.14 188.52 265.86 188.19 265.71 188.03 C 265.21 189.01 264.19 190.97 263.69 191.96 C 263.50 191.73 263.11 191.27 262.92 191.04 C 263.15 189.66 263.70 188.32 263.76 186.92 C 262.27 188.19 261.00 189.95 260.70 191.92 L 261.21 192.26 C 260.24 192.76 259.17 192.81 258.14 192.53 C 258.79 191.76 260.10 190.21 260.75 189.44 L 258.83 189.25 L 258.46 187.80 L 260.31 187.64 C 260.18 187.14 259.92 186.14 259.79 185.64 L 261.63 187.54 L 261.68 186.00 L 262.04 185.09 L 262.58 184.67 L 263.41 184.76 C 263.02 182.56 264.46 180.61 266.85 181.47 L 266.71 179.77 Z" />
<path fill="#ffffff" opacity="1.00" d=" M 214.36 181.58 C 217.20 181.36 220.34 180.49 222.63 182.74 C 221.32 184.84 220.07 187.02 218.19 188.68 C 216.13 186.92 213.13 184.73 214.36 181.58 Z" />
<path fill="#ffffff" opacity="1.00" d=" M 234.34 182.18 C 236.05 180.64 236.52 184.56 234.52 183.09 L 234.34 182.18 Z" />
<path fill="#ffffff" opacity="1.00" d=" M 271.86 182.37 C 273.10 182.75 273.32 183.56 272.49 184.81 C 271.24 184.42 271.03 183.61 271.86 182.37 Z" />
<path fill="#ffffff" opacity="1.00" d=" M 224.10 182.35 C 224.16 182.92 224.29 184.06 224.35 184.63 C 225.66 183.37 227.58 183.30 229.22 182.72 L 228.12 186.20 C 226.53 184.57 223.95 186.54 224.26 188.49 C 225.05 188.52 225.85 188.44 226.66 188.48 C 226.03 189.31 224.76 190.96 224.13 191.79 C 223.66 191.07 222.73 189.63 222.26 188.91 C 222.31 186.59 222.79 184.31 224.10 182.35 Z" />
<path fill="#ffffff" opacity="1.00" d=" M 225.45 192.54 C 226.95 189.26 229.19 186.40 230.90 183.24 C 231.66 184.58 232.49 185.89 233.09 187.32 C 233.79 188.96 233.46 190.69 232.88 192.31 C 231.60 192.48 230.32 192.65 229.05 192.84 L 229.95 191.09 C 228.45 191.58 226.95 192.06 225.45 192.54 Z" />
<path fill="#ffffff" opacity="1.00" d=" M 277.65 185.13 C 279.27 184.64 280.54 183.66 281.45 182.19 C 281.48 183.14 281.56 185.04 281.59 185.99 C 283.07 185.70 284.43 185.13 285.66 184.28 C 285.62 184.89 285.52 186.11 285.48 186.71 C 286.00 186.72 287.05 186.74 287.57 186.75 C 287.53 187.44 287.45 188.84 287.40 189.54 C 288.74 189.78 290.13 189.99 291.45 190.35 C 290.63 190.36 288.98 190.38 288.16 190.39 C 288.33 190.95 288.68 192.06 288.86 192.62 C 288.42 192.55 287.53 192.42 287.09 192.36 C 286.53 193.46 285.96 194.57 285.39 195.67 C 284.98 195.68 284.17 195.69 283.76 195.70 C 283.79 195.06 283.86 193.78 283.90 193.14 L 283.27 193.19 C 283.28 194.03 283.30 195.71 283.31 196.56 C 282.87 196.47 281.98 196.29 281.54 196.21 C 281.10 197.83 280.70 199.51 279.71 200.91 C 279.35 201.89 279.00 202.87 278.65 203.86 C 277.80 201.84 277.25 199.72 277.34 197.51 C 276.42 198.59 275.54 199.70 274.67 200.82 C 274.60 200.00 274.47 198.35 274.40 197.52 C 273.28 198.64 272.19 199.79 271.06 200.90 C 270.06 198.85 270.28 196.62 270.61 194.44 C 269.81 195.87 269.29 197.42 268.91 199.01 C 268.38 199.40 267.33 200.18 266.80 200.56 C 266.41 199.99 265.63 198.84 265.25 198.27 L 263.95 198.66 C 264.78 196.65 265.61 194.64 266.58 192.69 C 266.11 192.98 265.19 193.58 264.73 193.88 C 262.99 193.34 264.95 191.02 265.37 190.00 L 266.65 191.73 C 267.73 189.29 268.50 186.72 269.76 184.37 L 271.68 184.66 C 269.99 187.00 268.49 189.52 267.94 192.40 C 270.45 191.05 270.47 187.92 271.46 185.58 C 271.88 186.17 272.72 187.36 273.14 187.95 C 273.82 186.91 274.50 185.88 275.19 184.85 C 276.98 187.19 277.46 190.01 276.54 192.80 C 276.79 192.83 277.28 192.89 277.53 192.92 C 277.36 190.32 277.24 187.71 277.65 185.13 Z" />
<path fill="#ffffff" opacity="1.00" d=" M 297.00 188.08 C 300.69 188.21 302.81 191.35 305.11 193.77 C 304.49 194.46 303.27 195.84 302.66 196.53 C 303.98 195.90 305.28 195.23 306.55 194.50 C 306.70 194.94 307.00 195.81 307.16 196.25 C 305.51 196.37 302.32 199.57 302.23 196.25 C 301.92 196.32 301.31 196.45 301.01 196.51 C 300.99 193.15 297.58 191.33 297.00 188.08 Z" />
<path fill="#ffffff" opacity="1.00" d=" M 258.16 189.33 L 258.83 189.25 L 258.86 189.93 L 258.19 190.01 L 258.16 189.33 Z" />
<path fill="#ffffff" opacity="1.00" d=" M 255.83 192.71 C 256.17 191.32 256.95 190.42 258.19 190.01 C 258.61 191.28 257.24 193.09 255.97 193.26 L 255.83 192.71 Z" />
<path fill="#ffffff" opacity="1.00" d=" M 261.21 192.26 C 261.64 191.96 262.49 191.35 262.92 191.04 C 264.27 193.23 259.84 195.68 261.21 192.26 Z" />
<path fill="#ffffff" opacity="1.00" d=" M 234.71 191.59 C 235.86 192.43 236.97 193.32 238.02 194.29 L 239.05 191.34 C 239.72 193.64 240.09 196.12 238.91 198.32 C 238.47 197.50 237.59 195.87 237.16 195.05 C 236.88 195.07 236.33 195.11 236.06 195.14 C 235.72 195.88 235.04 197.36 234.70 198.10 C 233.91 197.63 233.13 197.16 232.35 196.70 C 233.11 194.98 233.90 193.28 234.71 191.59 Z" />
<path fill="#ffffff" opacity="1.00" d=" M 311.03 194.00 C 313.08 193.30 315.10 192.55 317.12 191.77 C 316.60 192.53 315.57 194.05 315.05 194.81 C 316.34 195.14 317.65 195.42 318.99 195.63 C 316.90 196.15 314.63 196.47 313.37 198.50 C 314.69 198.26 317.34 197.79 318.66 197.55 C 318.63 198.59 318.56 200.68 318.52 201.73 C 316.27 202.94 313.95 204.02 311.55 204.89 C 310.86 203.74 310.16 202.60 309.44 201.48 C 308.74 201.53 307.35 201.63 306.65 201.68 C 307.21 201.02 308.32 199.71 308.88 199.05 C 307.35 200.20 305.07 201.20 303.74 198.80 C 305.36 198.41 306.93 195.70 308.77 196.97 C 311.11 198.47 313.29 195.65 315.43 195.02 C 313.10 195.34 310.93 196.33 308.58 196.52 C 308.99 195.99 309.80 194.93 310.21 194.40 L 311.03 194.00 Z" />
<path fill="#ffffff" opacity="1.00" d=" M 242.35 193.29 C 242.95 193.27 244.15 193.23 244.76 193.21 L 244.54 194.07 C 245.71 194.62 246.83 195.26 247.92 195.98 C 247.40 196.51 246.36 197.59 245.84 198.13 C 245.72 198.93 245.47 200.54 245.35 201.34 C 243.70 200.85 243.49 199.35 243.34 197.90 C 240.93 197.45 241.27 194.78 242.35 193.29 Z" />
<path fill="#ffffff" opacity="1.00" d=" M 255.32 193.26 L 255.97 193.26 L 255.96 193.92 L 255.31 193.91 L 255.32 193.26 Z" />
<path fill="#ffffff" opacity="1.00" d=" M 338.41 193.00 C 341.50 191.82 338.01 196.37 338.41 193.00 Z" />
<path fill="#ffffff" opacity="1.00" d=" M 342.13 192.87 C 342.99 193.52 343.57 194.74 344.75 194.87 C 345.10 194.48 345.80 193.70 346.15 193.31 C 348.14 194.21 350.32 194.68 352.19 195.83 C 353.12 197.35 353.22 199.24 353.84 200.90 C 353.82 201.63 353.78 203.10 353.75 203.84 C 352.48 204.24 351.20 204.63 349.91 204.96 C 351.13 203.97 352.45 203.11 353.60 202.03 C 353.19 200.89 352.41 200.21 351.28 199.97 C 349.12 202.22 347.94 205.55 344.85 206.77 C 345.42 205.14 346.80 204.08 348.00 202.93 C 348.40 200.28 347.74 197.54 345.47 195.93 C 345.06 197.41 346.76 199.95 347.25 201.86 C 345.71 204.09 343.47 205.26 340.92 203.86 C 339.31 204.92 337.80 206.37 335.74 205.40 C 335.99 205.59 336.48 205.96 336.72 206.15 C 336.59 206.99 336.33 208.67 336.19 209.51 C 334.90 209.13 333.62 208.68 332.33 208.31 C 332.46 207.43 332.72 205.68 332.85 204.80 C 333.76 203.97 334.68 203.14 335.64 202.37 C 336.43 200.17 338.85 199.98 340.72 199.28 C 339.72 197.45 340.71 195.34 342.90 195.16 C 342.71 194.59 342.32 193.45 342.13 192.87 Z" />
<path fill="#ffffff" opacity="1.00" d=" M 256.72 194.09 C 257.13 194.11 257.94 194.15 258.35 194.17 L 258.05 195.76 C 258.85 195.68 260.45 195.52 261.25 195.44 C 259.95 195.89 258.62 196.24 257.29 196.58 C 257.36 197.32 257.49 198.80 257.56 199.54 C 256.24 202.31 256.01 206.07 253.11 207.70 C 252.01 206.14 256.45 203.17 253.23 202.93 C 253.79 201.48 254.35 200.04 254.91 198.60 C 254.11 199.51 253.40 200.50 252.65 201.45 C 252.63 203.41 252.88 205.42 252.21 207.32 C 251.00 206.11 249.80 204.91 248.60 203.72 C 250.33 201.68 250.70 199.00 251.51 196.55 C 253.12 194.75 255.63 196.37 257.64 196.34 L 256.72 194.09 Z" />
<path fill="#ffffff" opacity="1.00" d=" M 292.58 194.42 C 292.95 194.55 293.71 194.82 294.09 194.96 C 294.60 196.03 295.13 197.09 295.67 198.15 C 294.34 199.70 292.98 201.86 290.59 201.54 C 290.83 200.84 291.30 199.43 291.53 198.73 C 291.95 198.64 292.79 198.47 293.21 198.39 L 291.39 198.36 C 291.78 197.05 292.18 195.73 292.58 194.42 Z" />
<path fill="#ffffff" opacity="1.00" d=" M 263.32 195.26 C 265.31 194.79 263.71 199.02 262.33 198.56 C 261.63 197.44 262.35 195.96 263.32 195.26 Z" />
<path fill="#ffffff" opacity="1.00" d=" M 246.99 199.03 C 247.57 197.37 248.47 196.02 250.49 196.12 C 249.63 198.26 248.63 200.35 247.93 202.56 L 245.91 202.75 C 246.18 201.82 246.72 199.96 246.99 199.03 Z" />
<path fill="#ffffff" opacity="1.00" d=" M 259.55 198.21 C 260.20 199.83 260.87 201.43 261.56 203.05 C 261.92 202.34 262.65 200.92 263.01 200.21 C 265.33 202.30 263.63 205.28 262.63 207.59 C 262.21 209.01 260.85 209.62 259.48 209.77 C 259.27 210.11 258.85 210.79 258.64 211.13 C 258.55 210.64 258.36 209.67 258.27 209.18 C 257.42 209.34 255.73 209.65 254.89 209.81 C 256.64 206.03 258.47 202.25 259.55 198.21 Z" />
<path fill="#ffffff" opacity="1.00" d=" M 281.77 200.80 C 281.02 199.51 281.26 198.65 282.51 198.24 C 283.24 199.55 282.99 200.40 281.77 200.80 Z" />
<path fill="#ffffff" opacity="1.00" d=" M 291.61 202.70 C 293.13 201.51 294.58 200.22 296.11 199.05 C 297.29 200.85 297.94 203.57 300.76 202.76 C 299.83 203.90 298.90 205.05 298.02 206.23 C 295.36 207.69 292.71 209.19 289.94 210.44 C 290.41 209.61 291.36 207.96 291.83 207.13 C 291.55 206.96 290.99 206.61 290.70 206.44 C 291.34 205.27 291.64 204.02 291.61 202.70 M 294.49 203.95 C 294.99 203.71 295.98 203.23 296.48 202.99 C 296.40 201.27 293.40 202.74 294.49 203.95 Z" />
<path fill="#ffffff" opacity="1.00" d=" M 266.31 204.75 C 266.66 203.34 266.99 201.93 267.45 200.55 C 267.43 201.23 267.41 202.59 267.39 203.26 C 268.79 203.32 270.20 203.52 271.57 203.83 C 270.81 205.75 270.03 207.66 269.30 209.59 C 267.92 208.44 266.45 208.21 265.01 209.40 C 265.30 207.82 265.30 206.10 266.31 204.75 M 267.42 205.18 C 268.06 205.84 268.06 205.84 267.42 205.18 Z" />
<path fill="#ffffff" opacity="1.00" d=" M 275.85 203.25 C 275.99 203.31 276.27 203.43 276.41 203.49 C 276.06 204.64 275.60 205.76 275.48 206.97 C 274.16 210.95 278.20 205.28 277.38 208.59 C 278.87 208.02 280.09 209.91 281.63 210.26 C 281.76 211.72 281.37 213.16 281.19 214.60 C 279.58 214.10 277.98 213.47 276.28 213.42 C 275.36 212.88 274.45 212.35 273.53 211.83 C 273.52 210.11 273.54 208.40 273.50 206.69 C 273.28 207.25 272.83 208.38 272.61 208.94 C 272.34 208.92 271.80 208.88 271.53 208.86 C 272.33 207.22 272.92 205.49 273.51 203.77 C 273.61 204.55 273.82 206.10 273.92 206.87 C 275.13 206.02 275.77 204.81 275.85 203.25 Z" />
<path fill="#ffffff" opacity="1.00" d=" M 300.64 205.45 C 301.31 204.66 301.97 203.86 302.64 203.07 L 302.24 204.50 C 303.00 204.31 306.38 205.09 304.46 206.42 C 303.26 207.64 301.71 208.44 300.27 209.34 C 300.41 208.04 300.53 206.74 300.64 205.45 M 301.66 205.46 C 302.47 205.99 302.47 205.99 301.66 205.46 Z" />
<path fill="#ffffff" opacity="1.00" d=" M 318.46 204.80 C 319.01 204.39 319.57 203.98 320.14 203.59 C 320.98 205.62 321.48 207.77 321.80 209.95 C 322.45 211.18 323.15 212.38 324.01 213.49 C 324.14 213.87 324.40 214.62 324.53 214.99 C 320.17 213.50 319.77 208.52 318.46 204.80 Z" />
<path fill="#ffffff" opacity="1.00" d=" M 327.11 204.57 C 328.52 205.31 329.99 205.95 331.51 206.44 C 331.20 208.90 333.65 209.77 335.62 209.96 C 337.05 211.11 338.71 211.68 340.55 211.48 C 338.79 213.60 337.34 215.96 335.67 218.15 C 334.80 217.80 333.94 217.44 333.08 217.09 C 331.04 216.06 329.14 214.77 327.04 213.85 C 326.61 212.47 326.19 211.08 325.79 209.69 C 328.00 211.55 330.30 213.28 332.67 214.94 C 333.48 214.20 334.29 213.46 335.11 212.73 C 331.41 211.22 329.42 207.60 327.11 204.57 Z" />
<path fill="#ffffff" opacity="1.00" d=" M 309.27 205.87 C 311.52 205.52 313.72 204.94 315.95 204.50 L 313.29 205.91 C 314.12 207.85 315.33 209.57 316.82 211.06 C 315.90 211.64 315.06 212.54 313.92 212.59 C 312.00 210.64 310.44 208.34 309.27 205.87 Z" />
<path fill="#ffffff" opacity="1.00" d=" M 347.78 208.96 C 347.78 208.38 347.78 207.23 347.78 206.65 C 349.02 207.50 350.24 208.37 351.44 209.28 C 350.59 209.26 348.89 209.23 348.04 209.21 C 348.53 209.68 349.51 210.60 350.00 211.07 C 348.63 212.47 346.31 213.34 346.42 215.70 C 345.22 219.36 339.41 213.82 340.92 219.49 C 338.30 216.32 343.07 214.94 344.61 212.82 L 345.23 213.00 C 345.86 211.57 346.48 210.13 347.10 208.70 L 347.78 208.96 Z" />
<path fill="#ffffff" opacity="1.00" d=" M 291.08 211.87 C 293.24 210.23 295.54 208.77 297.61 207.00 C 297.49 207.68 297.25 209.03 297.13 209.70 L 300.05 209.22 C 298.62 210.74 297.06 212.10 295.36 213.30 C 295.84 213.56 296.33 213.81 296.82 214.07 C 298.08 212.14 300.06 210.95 302.11 210.02 C 303.44 209.08 304.76 208.11 306.23 207.38 C 305.00 209.30 303.50 211.03 302.23 212.92 C 302.69 213.90 303.34 214.78 304.17 215.54 C 303.85 216.35 303.54 217.17 303.26 218.00 C 302.10 218.45 301.15 219.20 300.40 220.26 L 298.88 219.08 C 299.73 218.50 300.58 217.91 301.42 217.32 C 299.94 217.35 298.47 217.42 297.00 217.53 L 296.83 216.13 L 294.86 216.54 L 295.86 214.64 C 294.63 214.60 293.41 214.52 292.20 214.41 C 292.33 214.00 292.60 213.18 292.73 212.77 C 292.32 212.55 291.49 212.10 291.08 211.87 Z" />
<path fill="#ffffff" opacity="1.00" d=" M 302.83 213.50 C 304.69 211.96 306.07 208.75 309.02 209.51 C 307.67 211.80 305.89 214.15 302.83 213.50 Z" />
<path fill="#ffffff" opacity="1.00" d=" M 316.61 215.27 C 313.77 214.27 315.58 213.49 317.23 212.80 C 316.40 216.13 319.96 217.53 320.58 220.43 C 321.94 221.03 323.23 221.76 324.47 222.59 C 325.69 222.87 326.91 223.14 328.14 223.40 C 328.41 224.51 328.62 225.63 328.91 226.75 C 327.46 226.11 325.99 225.49 324.49 225.02 L 324.49 224.12 C 324.11 224.25 323.33 224.51 322.94 224.64 C 322.02 223.71 320.99 222.92 319.86 222.27 C 319.86 221.85 319.85 221.00 319.85 220.58 C 317.47 220.81 317.35 218.73 317.32 216.97 L 316.20 216.83 C 316.31 216.44 316.51 215.66 316.61 215.27 Z" />
<path fill="#ffffff" opacity="1.00" d=" M 307.64 213.25 C 311.16 215.73 307.21 218.69 306.05 221.11 C 304.87 223.02 302.76 220.63 301.53 220.10 C 301.97 219.57 302.83 218.53 303.26 218.00 C 304.33 216.79 305.41 215.59 306.51 214.40 L 306.78 217.36 C 307.46 216.08 307.75 214.72 307.64 213.25 Z" />
<path fill="#ffffff" opacity="1.00" d=" M 312.55 215.70 C 312.76 217.07 312.95 218.43 313.16 219.80 C 312.35 221.54 311.63 223.34 310.66 225.00 C 310.22 224.68 309.36 224.05 308.92 223.73 C 306.22 222.83 306.90 220.46 308.06 218.46 C 309.38 218.19 310.71 218.13 312.06 218.16 C 312.19 217.55 312.43 216.32 312.55 215.70 Z" />
<path fill="#ffffff" opacity="1.00" d=" M 335.03 221.35 C 335.66 220.95 336.30 220.55 336.94 220.15 C 336.41 223.16 333.57 225.00 330.99 226.16 C 331.94 224.26 333.30 222.59 335.03 221.35 Z" />
<path fill="#ffffff" opacity="1.00" d=" M 340.60 219.86 C 341.25 220.55 341.25 220.55 340.60 219.86 Z" />
<path fill="#ffffff" opacity="1.00" d=" M 313.79 226.92 C 310.19 225.64 314.28 221.30 314.40 219.09 C 315.86 221.17 316.74 225.97 313.79 226.92 Z" />
<path fill="#ffffff" opacity="1.00" d=" M 316.05 222.19 C 317.34 222.80 318.63 223.43 319.91 224.08 C 320.29 224.92 320.67 225.76 321.06 226.60 C 318.88 226.58 316.15 227.28 315.64 224.30 L 317.62 224.87 C 317.23 224.20 316.45 222.86 316.05 222.19 Z" />
</g>
</svg>
