<?xml version="1.0" encoding="UTF-8" ?>
<!DOCTYPE svg PUBLIC "-//W3C//DTD SVG 1.1//EN" "http://www.w3.org/Graphics/SVG/1.1/DTD/svg11.dtd">
<svg width="512pt" height="256pt" viewBox="0 0 512 256" version="1.1" xmlns="http://www.w3.org/2000/svg">
<g id="#ffffffff">
<path fill="#ffffff" opacity="1.00" d=" M 314.55 27.95 C 313.83 26.03 317.06 25.66 317.19 27.58 C 317.38 29.30 315.21 28.81 314.55 27.95 Z" />
<path fill="#ffffff" opacity="1.00" d=" M 313.37 29.37 C 313.65 29.66 313.65 29.66 313.37 29.37 Z" />
<path fill="#ffffff" opacity="1.00" d=" M 314.13 32.31 C 315.43 31.26 316.80 30.27 318.10 29.20 C 318.68 30.84 319.34 32.46 320.00 34.07 C 320.93 33.90 321.87 33.72 322.82 33.55 C 322.19 34.27 321.55 34.99 320.94 35.71 C 321.60 35.96 322.94 36.44 323.61 36.68 C 323.38 38.96 323.44 41.50 321.24 42.83 C 321.92 42.74 323.29 42.57 323.98 42.48 C 323.13 46.24 319.34 48.60 315.62 47.38 C 317.41 46.25 319.29 45.30 321.15 44.30 C 320.49 44.39 319.19 44.57 318.54 44.66 C 318.42 44.06 318.18 42.85 318.06 42.24 C 319.18 41.52 320.31 40.81 321.43 40.07 C 320.58 40.22 318.88 40.53 318.03 40.68 C 320.51 37.84 319.47 33.96 317.51 31.20 C 317.20 32.28 316.58 34.43 316.27 35.51 C 315.57 34.43 314.83 33.38 314.13 32.31 Z" />
<path fill="#ffffff" opacity="1.00" d=" M 312.14 30.53 C 312.60 30.98 313.07 31.42 313.54 31.87 C 310.59 35.25 307.88 39.14 307.30 43.71 L 306.47 42.90 C 306.91 45.24 306.90 47.89 304.07 48.41 C 304.68 46.91 305.35 45.44 306.04 43.97 L 304.81 43.18 C 303.86 44.84 302.78 46.43 301.43 47.80 C 301.46 47.11 301.51 45.72 301.54 45.02 C 301.23 44.95 300.61 44.81 300.30 44.73 C 300.37 45.56 300.50 47.21 300.57 48.04 C 299.24 47.06 298.55 44.78 296.56 44.91 C 296.56 45.60 296.56 46.98 296.56 47.68 C 294.11 48.70 291.53 49.42 289.24 50.80 C 291.51 50.88 293.52 54.02 295.79 52.82 C 296.08 52.15 296.67 50.80 296.96 50.13 C 297.70 50.88 298.56 51.57 299.00 52.56 C 298.06 53.11 297.11 53.63 296.15 54.13 L 295.71 54.67 C 297.23 56.07 298.90 57.30 300.54 58.57 C 299.29 59.25 298.06 59.93 296.84 60.66 C 296.17 60.07 295.50 59.49 294.83 58.91 C 295.51 58.75 296.88 58.43 297.57 58.27 C 292.18 53.66 285.49 51.07 279.34 47.71 L 278.40 46.22 C 277.94 46.67 277.01 47.58 276.55 48.04 C 274.21 46.51 271.81 45.08 269.50 43.52 C 263.65 42.29 257.71 41.43 251.96 39.76 C 251.38 39.95 250.23 40.34 249.65 40.53 C 248.74 39.25 248.27 37.73 247.73 36.28 C 250.50 36.97 253.12 38.16 255.93 38.74 L 255.95 39.26 C 257.65 39.49 259.33 39.89 260.92 40.56 C 263.03 39.35 264.65 41.35 266.19 42.52 L 266.01 41.26 C 267.47 42.06 269.08 42.58 270.76 42.64 C 276.06 44.02 280.70 46.99 285.60 49.33 C 286.29 49.58 287.67 50.08 288.36 50.32 C 290.28 48.24 292.73 46.80 295.19 45.44 C 296.02 44.52 296.81 43.45 298.10 43.13 C 304.21 41.01 309.28 36.31 312.14 30.53 Z" />
<path fill="#ffffff" opacity="1.00" d=" M 313.58 33.62 C 314.88 35.00 316.32 36.50 316.26 38.58 L 315.21 38.56 C 314.95 39.23 314.43 40.58 314.17 41.25 C 313.17 41.33 312.18 41.48 311.21 41.68 C 311.98 41.89 313.54 42.31 314.32 42.53 C 313.69 44.84 313.27 47.21 312.36 49.43 C 310.51 47.60 311.51 44.87 311.06 42.60 C 311.01 40.92 312.41 39.79 313.32 38.55 C 313.39 37.32 313.52 34.85 313.58 33.62 Z" />
<path fill="#ffffff" opacity="1.00" d=" M 176.04 37.74 C 177.80 36.21 180.25 36.46 182.42 36.27 C 185.05 39.01 187.66 41.80 189.95 44.83 C 189.20 45.15 188.44 45.46 187.69 45.78 C 187.45 45.22 186.98 44.11 186.74 43.55 C 185.87 42.56 185.06 41.52 184.27 40.47 C 182.21 39.34 179.76 37.95 177.46 39.34 C 171.76 43.66 168.14 50.27 167.29 57.36 C 167.85 61.07 169.06 64.88 172.46 66.94 C 172.44 68.61 172.43 70.29 172.40 71.97 C 171.12 71.13 169.42 70.52 169.24 68.76 C 168.10 64.98 165.22 61.32 166.39 57.22 L 165.47 57.61 C 166.30 52.51 167.47 46.90 171.54 43.35 C 173.09 41.52 174.20 39.31 176.04 37.74 Z" />
<path fill="#ffffff" opacity="1.00" d=" M 244.48 37.96 C 244.88 37.41 245.70 36.30 246.11 35.74 C 246.14 37.37 248.15 40.21 244.61 39.96 C 246.29 41.71 248.09 43.36 249.58 45.29 C 245.52 45.61 244.99 41.37 242.32 39.50 C 241.50 39.08 240.04 36.90 242.02 36.89 C 242.64 37.16 243.86 37.69 244.48 37.96 Z" />
<path fill="#ffffff" opacity="1.00" d=" M 236.92 38.05 C 237.77 37.84 238.62 37.62 239.47 37.41 C 240.04 38.22 240.61 39.03 241.19 39.83 C 238.75 40.66 236.37 41.64 234.11 42.85 C 233.53 42.12 232.97 41.38 232.42 40.63 C 232.99 40.33 234.14 39.73 234.72 39.43 L 234.91 40.55 C 235.61 39.74 236.27 38.90 236.92 38.05 Z" />
<path fill="#ffffff" opacity="1.00" d=" M 231.74 43.26 C 230.21 42.61 230.07 41.82 231.31 40.89 C 232.35 41.55 232.49 42.34 231.74 43.26 Z" />
<path fill="#ffffff" opacity="1.00" d=" M 241.47 40.44 C 243.75 42.22 245.87 44.21 247.76 46.40 C 249.34 45.33 250.58 45.78 251.42 47.36 C 249.48 47.87 247.54 48.39 245.65 49.09 C 245.80 47.89 246.30 46.49 245.04 45.69 C 244.54 46.57 243.53 48.33 243.02 49.22 C 242.89 48.25 242.62 46.31 242.48 45.34 C 242.22 45.31 241.70 45.27 241.44 45.25 L 241.65 46.34 C 241.02 46.66 239.75 47.30 239.12 47.62 C 240.86 47.14 242.32 47.43 242.96 49.19 C 241.93 49.28 240.90 49.38 239.87 49.47 C 238.98 48.46 238.08 47.47 237.13 46.51 C 236.76 48.33 239.06 51.90 236.14 52.23 C 235.96 51.54 235.59 50.16 235.41 49.46 C 233.24 50.14 232.27 47.55 230.96 46.32 C 232.58 45.58 234.30 45.24 236.07 45.55 C 235.78 45.12 235.22 44.24 234.93 43.81 C 236.88 43.79 238.72 43.15 240.53 42.47 C 241.12 42.98 242.32 43.99 242.92 44.50 C 242.56 43.48 241.83 41.45 241.47 40.44 Z" />
<path fill="#ffffff" opacity="1.00" d=" M 213.30 52.09 C 217.90 49.18 222.40 46.10 227.10 43.33 C 228.49 42.22 229.72 43.65 230.68 44.54 C 225.34 44.42 221.35 48.01 217.59 51.29 C 219.51 50.54 221.35 49.58 223.18 48.62 C 222.95 49.60 222.49 51.58 222.26 52.56 C 223.07 52.50 224.71 52.36 225.53 52.29 C 224.33 53.30 222.99 54.47 221.65 52.88 C 221.20 53.21 220.31 53.86 219.86 54.19 C 218.79 53.53 217.55 53.30 216.32 53.12 C 215.34 52.70 214.33 52.36 213.30 52.09 Z" />
<path fill="#ffffff" opacity="1.00" d=" M 257.14 44.36 C 257.79 44.41 259.07 44.52 259.72 44.57 C 259.68 45.08 259.60 46.11 259.56 46.62 C 259.05 46.62 258.02 46.63 257.50 46.64 C 257.41 46.07 257.23 44.93 257.14 44.36 Z" />
<path fill="#ffffff" opacity="1.00" d=" M 262.21 44.27 C 264.73 44.93 267.19 45.80 269.69 46.52 C 269.95 46.90 270.46 47.66 270.71 48.04 C 270.41 48.34 269.82 48.95 269.52 49.25 C 269.25 48.74 268.70 47.71 268.43 47.20 C 267.99 47.67 267.12 48.63 266.68 49.10 C 265.59 48.27 264.69 47.22 263.80 46.20 C 263.40 46.25 262.59 46.37 262.18 46.43 C 262.19 45.89 262.20 44.81 262.21 44.27 Z" />
<path fill="#ffffff" opacity="1.00" d=" M 188.49 46.29 C 189.59 46.60 190.68 46.91 191.78 47.24 C 192.76 49.17 193.78 51.10 195.19 52.77 C 196.30 55.82 199.95 56.21 202.35 57.89 C 201.18 56.52 200.01 55.16 198.95 53.71 C 201.50 54.05 203.79 55.26 205.88 56.71 C 204.91 58.14 203.95 59.57 203.02 61.02 C 200.99 59.26 198.69 57.87 196.24 56.77 C 195.10 55.51 193.90 54.30 192.71 53.10 C 192.63 52.61 192.48 51.64 192.41 51.15 C 190.92 49.69 189.63 48.04 188.49 46.29 Z" />
<path fill="#ffffff" opacity="1.00" d=" M 225.08 47.07 C 228.46 47.19 223.45 50.02 225.08 47.07 Z" />
<path fill="#ffffff" opacity="1.00" d=" M 253.47 46.95 C 254.86 46.51 255.34 47.00 254.91 48.40 C 253.53 48.84 253.05 48.36 253.47 46.95 Z" />
<path fill="#ffffff" opacity="1.00" d=" M 174.04 49.85 C 175.72 50.35 177.39 50.88 179.06 51.40 C 178.48 52.13 178.69 54.08 177.34 53.71 C 176.30 52.37 175.17 51.11 174.04 49.85 Z" />
<path fill="#ffffff" opacity="1.00" d=" M 319.66 51.29 C 321.92 50.34 324.23 49.53 326.66 49.15 C 325.50 50.57 324.04 51.55 322.27 52.10 C 322.11 52.38 321.80 52.94 321.64 53.22 C 322.71 52.96 324.86 52.44 325.94 52.18 C 325.42 52.83 324.38 54.11 323.86 54.75 C 323.63 55.86 323.39 56.96 323.12 58.06 C 323.76 59.29 324.39 60.53 325.00 61.78 C 323.07 61.79 320.99 62.02 319.40 60.71 L 321.46 60.68 C 321.58 59.32 321.79 57.98 321.93 56.63 C 321.68 56.25 321.20 55.49 320.96 55.12 C 319.77 54.92 318.59 54.73 317.41 54.54 C 317.56 54.09 317.87 53.18 318.02 52.72 L 315.54 52.48 C 316.42 51.97 317.30 51.49 318.19 51.00 C 318.49 51.63 319.07 52.89 319.36 53.51 C 320.17 53.07 320.96 52.60 321.75 52.11 L 319.66 51.29 Z" />
<path fill="#ffffff" opacity="1.00" d=" M 230.87 51.87 C 231.64 51.52 233.18 50.82 233.95 50.48 C 234.52 51.16 235.65 52.54 236.22 53.22 L 233.74 54.24 C 235.43 54.27 237.09 53.90 238.77 53.75 C 238.00 55.13 237.65 57.04 235.84 57.41 C 233.80 55.96 232.45 53.77 230.87 51.87 Z" />
<path fill="#ffffff" opacity="1.00" d=" M 305.99 51.67 L 306.75 51.97 C 306.87 52.38 307.10 53.20 307.22 53.61 C 306.45 54.87 304.41 54.08 304.66 52.64 C 304.99 52.40 305.65 51.91 305.99 51.67 Z" />
<path fill="#ffffff" opacity="1.00" d=" M 203.36 61.41 C 206.04 58.02 209.11 54.96 212.67 52.49 C 214.33 53.84 216.10 55.02 218.46 54.68 C 216.31 56.58 213.87 58.11 211.26 59.28 C 209.64 58.96 208.01 58.65 206.39 58.33 C 206.60 58.99 207.02 60.29 207.24 60.95 L 205.13 61.35 C 206.37 62.27 207.62 63.18 208.86 64.09 C 208.94 63.46 209.10 62.19 209.18 61.56 C 209.74 61.60 210.85 61.69 211.41 61.74 C 211.91 58.75 214.84 57.52 217.44 56.91 C 217.69 56.54 218.18 55.79 218.43 55.41 L 220.32 55.75 C 218.50 57.86 216.81 60.11 215.63 62.64 C 214.30 62.98 212.98 63.33 211.66 63.64 C 211.66 64.08 211.65 64.95 211.65 65.38 C 213.47 63.31 216.34 62.94 218.62 61.56 L 219.44 62.89 C 218.26 63.36 217.07 63.81 215.88 64.25 L 216.14 64.86 C 214.73 65.26 213.37 65.79 212.01 66.31 C 210.77 65.06 209.00 64.89 207.40 64.43 C 205.89 63.68 204.72 62.40 203.36 61.41 Z" />
<path fill="#ffffff" opacity="1.00" d=" M 226.89 54.88 C 227.93 54.21 229.00 53.58 230.10 53.00 C 230.69 54.13 231.21 55.30 231.66 56.50 C 231.00 56.13 229.69 55.39 229.04 55.01 C 228.96 55.55 228.81 56.61 228.73 57.14 C 228.11 56.39 227.50 55.63 226.89 54.88 Z" />
<path fill="#ffffff" opacity="1.00" d=" M 301.66 53.16 C 302.71 52.26 304.21 53.87 303.99 54.94 C 302.94 55.52 300.74 54.52 301.66 53.16 Z" />
<path fill="#ffffff" opacity="1.00" d=" M 177.88 54.69 C 181.27 54.38 185.63 54.55 187.48 57.95 C 185.70 57.61 183.95 57.14 182.23 56.60 C 180.13 57.76 178.31 56.06 176.72 54.87 L 177.88 54.69 Z" />
<path fill="#ffffff" opacity="1.00" d=" M 303.99 54.94 C 304.38 54.96 305.16 54.99 305.54 55.00 L 305.77 55.79 C 305.35 55.75 304.50 55.68 304.08 55.65 L 303.99 54.94 Z" />
<path fill="#ffffff" opacity="1.00" d=" M 221.66 56.07 C 223.09 55.14 223.12 57.26 222.09 57.72 C 221.16 58.38 220.55 60.29 219.19 59.98 C 218.98 58.41 220.49 56.96 221.66 56.07 Z" />
<path fill="#ffffff" opacity="1.00" d=" M 281.08 56.28 C 282.11 58.10 283.19 59.89 284.09 61.79 C 282.15 61.62 280.20 61.34 278.47 60.40 C 279.33 59.02 280.23 57.67 281.08 56.28 Z" />
<path fill="#ffffff" opacity="1.00" d=" M 300.75 54.80 C 302.33 56.08 305.57 56.48 305.56 59.01 C 304.63 59.17 302.78 59.49 301.85 59.65 C 302.26 57.90 301.89 56.28 300.75 54.80 Z" />
<path fill="#ffffff" opacity="1.00" d=" M 173.82 57.50 C 174.93 57.51 176.04 57.53 177.15 57.56 C 178.45 58.44 179.86 59.15 181.06 60.17 L 181.18 60.89 L 181.00 61.69 C 178.34 60.79 176.05 59.15 173.82 57.50 Z" />
<path fill="#ffffff" opacity="1.00" d=" M 188.08 61.23 C 187.90 60.67 187.55 59.54 187.37 58.98 C 189.15 60.91 191.72 62.32 192.55 64.95 C 189.59 63.12 185.88 64.20 183.06 62.28 C 183.09 62.00 183.17 61.45 183.20 61.17 C 184.76 60.49 186.48 61.03 188.08 61.23 Z" />
<path fill="#ffffff" opacity="1.00" d=" M 254.91 59.58 C 256.01 60.70 256.95 61.96 257.83 63.26 C 258.11 63.50 258.68 63.96 258.96 64.20 C 257.93 64.55 256.91 64.93 255.90 65.33 C 255.50 64.55 255.11 63.76 254.73 62.97 L 257.31 64.08 C 256.42 62.62 255.62 61.12 254.91 59.58 Z" />
<path fill="#ffffff" opacity="1.00" d=" M 300.38 60.31 C 302.74 59.28 302.61 62.60 300.43 62.45 C 298.01 63.46 298.42 60.43 300.38 60.31 Z" />
<path fill="#ffffff" opacity="1.00" d=" M 261.61 62.05 C 261.99 61.85 262.76 61.44 263.15 61.24 C 263.35 62.56 263.95 63.47 264.97 63.99 C 265.28 63.67 265.91 63.03 266.23 62.70 C 266.78 63.04 267.89 63.71 268.44 64.05 C 270.19 64.24 272.39 64.11 272.25 66.61 L 271.38 65.96 L 270.71 65.33 C 270.08 64.98 268.81 64.29 268.18 63.95 C 268.56 65.60 268.94 67.25 269.31 68.90 C 268.43 67.96 267.55 67.02 266.68 66.08 C 266.32 66.32 265.59 66.81 265.23 67.05 C 263.63 65.69 262.57 63.88 261.61 62.05 Z" />
<path fill="#ffffff" opacity="1.00" d=" M 259.53 61.89 C 260.94 61.35 262.10 63.76 261.71 64.94 C 260.32 65.37 259.06 63.09 259.53 61.89 Z" />
<path fill="#ffffff" opacity="1.00" d=" M 288.96 64.11 C 287.70 63.47 287.74 62.76 289.06 62.00 C 290.29 62.62 290.26 63.33 288.96 64.11 Z" />
<path fill="#ffffff" opacity="1.00" d=" M 301.63 62.83 C 304.82 62.29 307.98 63.67 311.18 63.76 C 309.88 64.57 308.56 65.34 307.22 66.08 C 307.44 67.74 307.81 69.37 308.18 71.01 C 305.05 70.33 302.59 68.24 300.02 66.48 C 301.07 66.50 303.15 66.54 304.19 66.55 C 303.19 65.37 298.75 64.58 301.63 62.83 Z" />
<path fill="#ffffff" opacity="1.00" d=" M 318.25 63.47 C 318.96 63.42 320.37 63.32 321.08 63.26 C 320.49 63.70 319.32 64.56 318.73 64.99 C 319.88 64.88 322.18 64.66 323.33 64.55 C 323.72 64.91 324.50 65.63 324.89 65.99 C 322.01 66.00 319.17 65.66 316.32 65.34 C 316.04 65.06 315.48 64.51 315.19 64.23 C 316.07 64.36 317.81 64.62 318.69 64.76 L 318.25 63.47 Z" />
<path fill="#ffffff" opacity="1.00" d=" M 322.70 63.16 C 325.85 61.86 322.65 66.45 322.70 63.16 Z" />
<path fill="#ffffff" opacity="1.00" d=" M 290.12 65.55 C 290.27 64.57 292.70 63.08 292.80 64.72 C 292.63 65.75 290.20 67.36 290.12 65.55 Z" />
<path fill="#ffffff" opacity="1.00" d=" M 216.14 64.86 C 217.67 64.02 218.17 66.49 216.76 66.93 C 215.19 67.88 214.90 65.37 216.14 64.86 Z" />
<path fill="#ffffff" opacity="1.00" d=" M 292.90 65.86 C 293.47 66.51 293.47 66.51 292.90 65.86 Z" />
<path fill="#ffffff" opacity="1.00" d=" M 315.05 67.47 C 318.05 67.70 321.05 67.61 324.05 67.50 C 324.96 68.37 325.88 69.22 326.81 70.08 C 322.88 69.87 319.17 68.41 315.24 68.26 C 315.19 68.06 315.10 67.67 315.05 67.47 Z" />
<path fill="#ffffff" opacity="1.00" d=" M 184.44 71.21 C 184.38 70.72 184.26 69.73 184.19 69.24 C 186.57 70.16 188.98 71.03 191.30 72.10 C 190.59 72.19 189.18 72.36 188.47 72.45 L 188.73 73.91 C 188.34 73.91 187.55 73.93 187.16 73.94 C 187.25 73.28 187.43 71.97 187.52 71.32 C 185.23 71.54 182.97 72.16 180.66 72.10 C 181.60 71.87 183.50 71.43 184.44 71.21 Z" />
<path fill="#ffffff" opacity="1.00" d=" M 208.54 70.18 C 211.72 68.89 214.92 70.12 217.93 71.27 C 216.13 72.37 214.59 74.44 212.22 74.10 C 212.07 74.37 211.75 74.92 211.60 75.19 C 213.10 75.29 214.64 75.44 216.14 75.62 C 214.78 76.55 213.43 77.50 212.26 78.67 C 209.85 79.52 207.38 80.22 204.85 80.66 C 206.91 78.69 209.01 76.55 211.76 75.61 C 210.56 75.25 209.34 74.95 208.12 74.68 C 208.17 73.84 208.27 72.15 208.31 71.30 C 209.09 71.43 210.63 71.67 211.40 71.79 C 210.69 71.39 209.26 70.58 208.54 70.18 Z" />
<path fill="#ffffff" opacity="1.00" d=" M 314.33 70.12 C 315.25 70.64 316.17 71.15 317.09 71.67 C 317.44 71.40 318.14 70.85 318.49 70.58 C 320.67 71.35 322.90 71.98 325.11 72.67 C 324.19 73.21 323.26 73.75 322.34 74.30 C 321.37 73.71 320.39 73.13 319.42 72.55 C 317.63 72.27 315.86 71.86 314.10 71.48 C 314.16 71.14 314.28 70.46 314.33 70.12 Z" />
<path fill="#ffffff" opacity="1.00" d=" M 297.78 71.27 C 301.17 71.17 304.50 72.07 307.03 74.44 C 303.43 74.99 300.00 74.22 297.78 71.27 Z" />
<path fill="#ffffff" opacity="1.00" d=" M 306.77 71.63 C 307.83 70.91 310.32 71.93 309.71 73.39 C 308.64 74.17 306.23 73.06 306.77 71.63 Z" />
<path fill="#ffffff" opacity="1.00" d=" M 169.50 72.89 C 172.79 74.60 176.56 75.38 179.62 77.54 C 176.35 78.38 172.99 79.03 169.60 78.62 C 170.48 77.01 172.22 77.38 173.73 77.41 C 173.80 77.24 173.94 76.91 174.01 76.75 C 171.86 76.31 170.37 74.84 169.50 72.89 Z" />
<path fill="#ffffff" opacity="1.00" d=" M 289.30 79.02 C 288.24 77.23 287.68 73.96 290.16 73.13 C 290.35 73.99 290.53 74.85 290.70 75.71 C 291.36 75.63 292.67 75.45 293.33 75.37 C 291.97 76.53 291.16 78.56 289.30 79.02 Z" />
<path fill="#ffffff" opacity="1.00" d=" M 305.96 75.73 C 308.89 74.30 311.14 77.29 313.31 78.76 L 311.22 79.03 C 312.12 79.77 313.01 80.50 313.91 81.26 C 315.95 82.76 318.45 83.88 319.75 86.18 C 321.40 88.24 322.72 90.54 323.84 92.94 C 322.30 92.99 320.77 93.03 319.24 93.07 L 319.47 94.15 C 317.01 94.38 314.83 93.75 313.48 91.54 C 315.34 91.81 317.91 90.45 319.27 92.48 C 319.68 91.83 320.10 91.19 320.51 90.54 C 320.07 90.37 319.17 90.04 318.72 89.87 C 318.70 88.60 318.64 87.33 318.62 86.07 C 317.27 85.93 315.92 85.79 314.58 85.65 C 313.29 82.99 311.51 80.61 309.91 78.13 C 307.79 81.78 304.94 84.93 302.66 88.48 C 300.79 91.15 299.47 94.31 296.76 96.27 C 296.85 93.50 299.17 91.74 300.71 89.71 C 303.16 86.56 305.14 83.04 307.95 80.17 C 307.73 79.19 307.49 78.22 307.32 77.24 C 306.98 76.86 306.30 76.11 305.96 75.73 Z" />
<path fill="#ffffff" opacity="1.00" d=" M 186.82 77.98 C 187.92 77.55 189.02 77.11 190.12 76.66 C 192.04 76.74 193.97 76.73 195.89 76.77 C 195.10 78.76 193.79 80.43 191.73 81.31 C 192.02 80.49 192.60 78.85 192.89 78.03 L 192.58 78.39 C 191.53 79.05 190.46 79.67 189.39 80.29 L 189.45 78.43 C 188.57 78.27 187.70 78.12 186.82 77.98 Z" />
<path fill="#ffffff" opacity="1.00" d=" M 291.13 78.93 C 292.30 77.87 293.48 76.84 294.72 75.86 C 294.65 78.34 293.40 80.45 291.98 82.39 C 291.77 81.52 291.34 79.79 291.13 78.93 Z" />
<path fill="#ffffff" opacity="1.00" d=" M 237.23 78.41 C 238.66 81.84 239.48 85.49 241.08 88.86 C 242.31 92.09 244.48 94.96 245.05 98.43 C 242.76 97.01 241.65 94.43 241.13 91.89 C 240.12 87.31 237.26 83.22 237.23 78.41 Z" />
<path fill="#ffffff" opacity="1.00" d=" M 170.57 81.23 C 171.62 80.90 172.72 80.78 173.82 80.65 C 173.47 82.58 173.14 84.52 172.84 86.47 L 174.54 86.25 C 174.15 87.41 173.76 88.56 173.36 89.72 C 174.32 89.74 176.25 89.77 177.21 89.79 C 176.05 90.54 174.88 91.27 173.72 92.01 C 173.60 91.44 173.38 90.32 173.26 89.76 C 172.28 88.69 171.34 87.58 170.44 86.44 L 172.93 85.85 C 171.82 85.34 170.68 84.89 169.54 84.46 C 169.86 83.37 170.21 82.30 170.57 81.23 Z" />
<path fill="#ffffff" opacity="1.00" d=" M 294.53 84.69 C 295.47 83.11 296.41 81.48 297.85 80.30 C 299.79 81.04 296.56 82.23 296.60 83.06 C 297.16 83.61 297.74 84.16 298.32 84.71 C 297.37 84.71 295.48 84.69 294.53 84.69 Z" />
<path fill="#ffffff" opacity="1.00" d=" M 318.03 80.32 C 320.33 80.68 322.64 81.26 324.44 82.83 C 321.79 83.81 319.82 81.94 318.03 80.32 Z" />
<path fill="#ffffff" opacity="1.00" d=" M 205.20 84.43 C 206.50 82.89 208.60 83.38 210.36 83.20 C 210.34 83.69 210.31 84.67 210.29 85.16 C 208.35 86.58 205.99 86.85 203.65 86.94 C 203.50 88.70 201.81 88.93 200.44 89.22 C 200.41 89.71 200.35 90.68 200.31 91.17 C 199.42 91.44 197.62 91.97 196.72 92.24 C 197.15 92.63 198.02 93.39 198.45 93.77 C 197.16 94.87 195.87 95.96 194.48 96.93 C 194.35 97.45 194.10 98.48 193.97 99.00 C 191.85 99.49 189.69 99.47 187.58 98.95 C 189.47 97.55 191.39 96.10 192.31 93.85 C 193.76 94.28 195.21 94.71 196.67 95.13 C 195.90 94.26 195.13 93.38 194.38 92.50 C 197.41 91.22 198.50 86.79 202.15 86.96 C 202.21 85.18 203.84 84.90 205.20 84.43 Z" />
<path fill="#ffffff" opacity="1.00" d=" M 267.65 85.72 C 267.64 85.01 267.63 83.59 267.63 82.88 C 267.89 83.60 268.42 85.05 268.68 85.78 C 270.21 85.67 271.75 85.54 273.29 85.44 C 271.99 86.97 270.64 88.46 269.30 89.96 C 268.19 88.55 267.11 87.12 266.07 85.68 L 267.65 85.72 Z" />
<path fill="#ffffff" opacity="1.00" d=" M 297.20 87.05 C 298.19 86.28 299.17 85.52 300.18 84.78 C 299.15 86.55 298.03 88.26 296.84 89.92 C 296.12 89.75 294.69 89.39 293.98 89.21 C 295.00 87.69 296.05 86.19 297.15 84.73 L 297.20 87.05 Z" />
<path fill="#ffffff" opacity="1.00" d=" M 229.88 86.87 C 232.34 87.96 234.88 89.29 236.28 91.72 C 233.01 92.10 231.21 89.38 229.88 86.87 Z" />
<path fill="#ffffff" opacity="1.00" d=" M 288.41 88.22 C 290.18 88.87 287.79 92.12 286.37 91.47 C 285.81 90.14 287.12 88.53 288.41 88.22 Z" />
<path fill="#ffffff" opacity="1.00" d=" M 313.41 88.48 C 314.43 87.64 316.78 88.93 316.08 90.27 C 315.00 91.21 312.68 89.88 313.41 88.48 Z" />
<path fill="#ffffff" opacity="1.00" d=" M 266.40 89.96 C 267.78 89.53 268.28 90.01 267.91 91.41 C 266.53 91.85 266.03 91.36 266.40 89.96 Z" />
<path fill="#ffffff" opacity="1.00" d=" M 174.83 94.95 C 175.58 93.78 176.37 92.59 177.60 91.86 C 178.06 92.26 178.96 93.04 179.42 93.43 C 177.91 94.01 176.40 94.57 174.83 94.95 Z" />
<path fill="#ffffff" opacity="1.00" d=" M 177.83 94.61 C 178.33 94.93 179.33 95.59 179.84 95.92 C 179.85 96.58 179.88 97.91 179.89 98.57 C 180.56 99.60 180.32 100.78 180.20 101.91 C 179.69 102.14 178.65 102.61 178.13 102.85 C 177.65 100.14 177.05 97.32 177.83 94.61 Z" />
<path fill="#ffffff" opacity="1.00" d=" M 185.26 95.77 C 186.49 95.41 187.73 95.08 188.97 94.76 C 188.99 95.34 189.02 96.51 189.04 97.10 C 186.99 97.63 185.00 98.31 182.99 98.95 C 183.74 97.89 184.51 96.83 185.26 95.77 Z" />
<path fill="#ffffff" opacity="1.00" d=" M 301.49 99.04 C 305.12 95.06 311.47 96.00 316.36 96.38 C 311.37 97.12 306.53 98.83 301.49 99.04 Z" />
<path fill="#ffffff" opacity="1.00" d=" M 211.24 98.23 C 212.78 97.65 214.38 97.42 216.01 97.31 C 214.92 98.43 213.81 99.62 212.30 100.15 C 210.39 101.49 207.83 102.30 207.09 104.76 C 205.46 105.52 203.81 106.25 202.15 106.92 C 201.16 108.66 198.62 111.79 201.76 112.96 C 201.74 112.52 201.71 111.65 201.69 111.21 C 201.61 110.95 201.44 110.42 201.36 110.15 C 202.16 109.83 202.99 109.55 203.84 109.32 L 204.17 109.69 C 204.40 110.04 204.87 110.74 205.11 111.09 C 202.51 111.08 202.17 112.78 202.63 114.95 C 201.51 115.11 200.40 115.29 199.29 115.46 C 199.42 116.04 199.67 117.20 199.80 117.78 C 199.33 117.70 198.39 117.53 197.92 117.44 C 195.87 120.58 192.66 122.74 189.28 124.24 C 188.93 122.14 189.53 120.50 191.48 119.70 L 190.19 118.96 C 190.53 118.56 191.22 117.75 191.57 117.34 C 191.24 117.09 190.57 116.58 190.24 116.32 C 190.73 116.00 191.72 115.36 192.22 115.05 L 191.25 113.77 C 193.98 113.34 195.37 110.96 196.73 108.83 C 198.99 107.67 200.95 103.49 203.75 105.47 C 205.01 104.89 206.27 104.34 207.54 103.80 C 207.53 103.09 207.50 101.68 207.49 100.97 C 208.81 100.43 210.14 99.92 211.50 99.45 C 211.44 99.14 211.31 98.53 211.24 98.23 Z" />
<path fill="#ffffff" opacity="1.00" d=" M 315.77 97.99 C 318.42 97.75 321.09 97.32 323.76 97.65 C 323.61 98.39 323.31 99.88 323.17 100.62 C 320.56 100.72 317.95 100.87 315.36 101.17 L 315.27 99.49 C 315.99 99.53 317.42 99.61 318.14 99.65 C 317.52 99.51 316.29 99.22 315.67 99.08 L 315.77 97.99 Z" />
<path fill="#ffffff" opacity="1.00" d=" M 184.69 100.66 C 184.16 99.36 186.25 98.35 187.27 98.96 C 187.80 100.19 185.65 101.28 184.69 100.66 Z" />
<path fill="#ffffff" opacity="1.00" d=" M 194.48 102.79 C 195.65 100.86 197.46 101.38 199.19 102.17 C 198.67 102.79 198.15 103.40 197.63 104.02 L 197.69 102.43 C 196.89 102.52 195.28 102.70 194.48 102.79 Z" />
<path fill="#ffffff" opacity="1.00" d=" M 226.00 102.46 C 231.45 102.30 236.91 100.45 242.34 101.69 C 238.22 103.33 233.61 102.15 229.29 102.50 C 229.36 103.22 229.51 104.65 229.58 105.37 C 231.23 105.71 232.93 106.04 234.32 107.09 C 233.58 107.13 232.11 107.22 231.37 107.27 C 231.41 108.27 231.45 109.27 231.48 110.28 C 233.90 109.18 236.37 108.19 238.89 107.34 C 238.98 107.65 239.17 108.28 239.27 108.59 C 237.34 109.45 235.42 110.33 233.53 111.27 C 232.21 112.41 230.83 113.48 229.36 114.42 C 230.65 113.91 231.41 114.30 231.63 115.59 C 230.20 116.75 228.62 117.69 227.08 118.69 C 225.50 118.34 223.90 118.13 222.31 117.97 L 222.63 119.52 L 219.41 119.03 C 220.33 118.06 221.26 117.09 222.18 116.12 C 221.49 116.27 220.12 116.58 219.43 116.73 C 219.29 117.65 219.16 118.57 219.04 119.50 C 214.41 118.34 211.51 123.39 207.53 124.88 C 210.85 120.99 215.62 118.74 219.59 115.60 C 219.48 114.34 219.41 113.09 219.39 111.83 C 220.96 110.94 222.83 110.18 223.44 108.31 C 224.97 106.92 226.72 105.87 228.83 105.69 C 228.61 104.82 228.40 103.95 228.20 103.07 C 225.12 103.34 222.00 103.30 218.96 103.91 C 215.16 104.85 211.61 106.78 207.65 107.02 C 209.39 105.37 211.65 104.45 213.99 104.06 C 217.98 103.41 221.94 102.49 226.00 102.46 Z" />
<path fill="#ffffff" opacity="1.00" d=" M 265.00 101.06 C 267.65 101.07 268.95 103.34 269.88 105.49 C 267.75 104.63 265.93 103.19 265.00 101.06 Z" />
<path fill="#ffffff" opacity="1.00" d=" M 300.03 102.53 C 304.29 101.55 308.87 100.53 313.14 102.01 C 311.96 102.28 309.62 102.82 308.44 103.09 C 310.99 103.99 313.59 104.79 316.03 105.97 C 315.38 106.36 314.08 107.13 313.43 107.52 L 314.26 106.35 C 312.22 105.51 308.35 106.28 308.03 103.32 C 307.92 103.29 307.70 103.22 307.59 103.19 L 307.87 105.33 C 306.58 104.61 305.30 103.90 304.02 103.20 C 302.65 103.25 301.27 103.17 300.03 102.53 Z" />
<path fill="#ffffff" opacity="1.00" d=" M 322.60 101.74 C 324.50 99.18 324.51 103.40 325.20 104.60 C 323.66 104.53 320.53 103.65 322.60 101.74 Z" />
<path fill="#ffffff" opacity="1.00" d=" M 180.85 102.39 C 182.02 102.50 183.20 102.60 184.37 102.71 C 184.50 104.32 184.61 105.93 184.72 107.55 C 185.80 106.35 186.89 105.16 188.05 104.02 C 189.65 103.87 191.26 103.72 192.86 103.60 C 191.95 104.56 190.12 106.47 189.20 107.42 C 190.22 106.91 192.24 105.88 193.25 105.36 C 193.69 105.07 194.57 104.48 195.01 104.18 C 195.25 105.32 195.41 106.48 195.58 107.63 C 194.34 107.54 193.10 107.43 191.87 107.32 C 191.63 108.72 191.46 110.13 191.33 111.54 C 191.01 111.71 190.38 112.04 190.06 112.21 C 187.45 112.36 185.58 114.23 183.96 116.06 C 185.58 115.49 187.08 113.36 188.91 114.16 C 189.66 116.46 186.16 117.30 184.96 118.85 C 186.30 118.20 187.64 117.58 189.01 117.00 C 188.61 117.65 187.82 118.95 187.42 119.61 L 185.66 120.29 C 186.27 120.68 186.88 121.06 187.50 121.43 C 186.66 124.92 186.26 128.48 185.93 132.05 C 187.74 133.94 187.30 136.56 186.91 138.89 C 188.59 141.92 188.93 145.38 189.08 148.79 C 187.81 148.09 185.26 146.69 183.98 145.99 C 185.20 145.84 186.42 145.72 187.65 145.62 C 186.27 144.91 185.15 143.83 184.01 142.82 C 184.73 142.75 186.17 142.60 186.88 142.53 C 186.35 142.43 185.29 142.23 184.76 142.13 C 184.16 136.13 183.60 130.14 183.35 124.12 C 184.48 119.08 181.53 114.03 181.46 108.93 C 180.12 106.91 179.55 104.58 180.85 102.39 Z" />
<path fill="#ffffff" opacity="1.00" d=" M 314.24 101.96 C 316.30 101.94 318.43 101.30 320.47 101.74 C 320.66 102.07 321.02 102.72 321.20 103.05 C 319.65 105.72 316.19 102.84 314.24 101.96 Z" />
<path fill="#ffffff" opacity="1.00" d=" M 316.38 104.89 C 319.18 105.56 321.65 107.06 324.30 108.12 C 323.54 107.52 322.00 106.34 321.23 105.74 C 322.45 105.22 323.61 104.16 325.06 104.76 C 325.30 105.39 325.77 106.64 326.01 107.27 C 326.57 108.11 327.13 108.95 327.70 109.80 C 326.18 109.65 324.67 109.59 323.15 109.62 C 320.77 108.25 318.29 106.90 316.38 104.89 Z" />
<path fill="#ffffff" opacity="1.00" d=" M 303.16 106.43 C 306.58 106.47 310.23 105.95 313.43 107.52 C 314.94 108.26 316.38 109.17 317.66 110.27 C 315.32 109.65 313.13 108.05 310.59 108.58 C 312.72 110.15 314.98 111.52 317.30 112.79 L 317.59 111.65 C 319.67 111.54 321.73 111.28 323.80 111.02 C 323.37 111.39 322.50 112.14 322.07 112.51 C 323.10 112.96 324.14 113.43 325.18 113.90 C 324.81 115.87 323.80 118.04 325.59 119.64 C 324.39 119.95 323.20 120.32 322.11 120.92 L 324.45 121.03 C 324.81 122.41 325.23 123.78 325.62 125.15 C 324.49 124.54 323.37 123.91 322.29 123.24 C 321.10 122.96 319.91 122.70 318.72 122.47 C 318.05 120.31 317.18 118.22 316.36 116.12 C 317.36 116.76 319.37 118.04 320.38 118.68 C 321.10 117.02 321.54 115.25 321.98 113.51 C 321.17 113.84 319.55 114.52 318.74 114.85 C 316.08 113.66 313.22 112.90 310.64 111.56 C 310.49 110.98 310.18 109.84 310.03 109.27 C 307.68 108.46 305.32 107.65 303.16 106.43 Z" />
<path fill="#ffffff" opacity="1.00" d=" M 208.30 113.36 C 210.10 111.37 212.63 110.33 215.08 109.39 C 213.72 111.01 209.92 111.49 210.24 113.76 C 210.59 113.99 211.30 114.47 211.65 114.70 C 210.33 115.92 208.87 116.98 207.30 117.88 C 206.32 119.17 205.31 120.44 204.27 121.70 C 204.95 121.82 206.32 122.07 207.00 122.20 C 206.13 122.34 204.41 122.61 203.55 122.75 C 203.61 123.56 203.74 125.18 203.81 125.99 C 201.70 127.40 199.80 129.09 198.25 131.10 C 198.50 129.29 198.67 127.47 198.72 125.65 C 199.91 124.77 201.11 123.91 202.27 122.99 C 198.21 123.95 194.73 126.30 191.12 128.29 L 191.32 127.58 C 191.19 125.51 191.66 123.68 193.62 122.62 C 194.21 122.29 195.39 121.64 195.98 121.31 L 196.01 122.52 C 195.50 123.06 194.49 124.14 193.98 124.68 C 196.60 123.39 199.13 121.87 201.99 121.13 C 202.20 121.46 202.63 122.11 202.85 122.44 L 202.48 120.14 C 201.48 120.83 200.30 121.92 199.00 120.77 C 199.94 120.23 201.82 119.17 202.76 118.64 C 202.36 118.25 201.57 117.46 201.17 117.07 C 204.16 118.67 206.41 115.88 208.94 114.74 C 208.78 114.40 208.46 113.71 208.30 113.36 Z" />
<path fill="#ffffff" opacity="1.00" d=" M 300.39 109.22 C 302.34 110.01 304.40 110.83 305.74 112.56 C 308.16 114.33 309.08 117.19 308.62 120.10 C 307.40 120.19 306.19 120.31 304.98 120.44 C 306.05 120.61 307.12 120.75 308.21 120.86 C 306.58 123.00 304.05 124.10 301.43 124.35 C 301.55 123.89 301.79 122.97 301.91 122.51 C 300.82 123.78 299.54 124.54 298.17 123.06 C 296.49 121.50 296.50 119.06 295.86 117.02 C 298.19 115.66 300.66 114.43 303.36 114.00 C 302.30 114.70 301.22 115.37 300.11 116.00 C 300.17 116.90 300.29 118.71 300.35 119.61 C 301.20 119.59 302.90 119.53 303.75 119.50 C 304.45 118.06 304.98 116.55 305.54 115.05 L 304.04 114.77 C 304.35 114.31 304.96 113.39 305.27 112.92 C 304.01 112.37 302.76 111.82 301.51 111.25 C 301.39 111.69 301.15 112.57 301.02 113.00 C 300.78 111.74 300.57 110.48 300.39 109.22 Z" />
<path fill="#ffffff" opacity="1.00" d=" M 231.71 118.61 C 233.97 117.66 236.41 117.51 238.82 117.82 C 238.34 118.41 237.36 119.57 236.87 120.15 C 238.36 120.74 239.88 121.26 241.42 121.72 C 243.08 119.96 242.52 118.23 241.02 116.65 C 242.60 117.37 244.14 118.14 245.69 118.91 C 245.47 119.61 245.02 121.01 244.80 121.71 C 244.29 121.75 243.27 121.81 242.76 121.84 C 243.83 122.21 244.89 122.54 245.97 122.87 C 245.25 123.86 244.52 124.84 243.76 125.80 C 243.07 124.93 242.41 124.05 241.73 123.18 C 241.68 124.46 241.87 125.83 241.16 126.99 C 240.42 126.05 239.70 125.09 239.02 124.10 C 238.33 124.91 237.85 125.90 236.91 126.47 C 235.55 125.66 234.00 125.11 232.83 124.03 C 232.00 122.35 232.02 120.41 231.71 118.61 Z" />
<path fill="#ffffff" opacity="1.00" d=" M 197.44 120.37 C 200.54 118.89 197.23 123.72 197.44 120.37 Z" />
<path fill="#ffffff" opacity="1.00" d=" M 216.89 121.55 C 218.69 120.92 220.48 120.28 222.29 119.71 C 221.88 120.28 221.06 121.42 220.65 121.99 L 223.04 121.15 C 221.69 124.58 219.63 129.05 215.05 128.09 C 216.33 126.95 217.73 125.96 219.12 124.97 C 218.28 125.17 216.58 125.57 215.74 125.76 C 216.11 124.36 216.50 122.95 216.89 121.55 Z" />
<path fill="#ffffff" opacity="1.00" d=" M 246.41 120.07 C 249.56 122.07 250.09 125.81 251.27 129.02 C 250.40 130.64 251.64 132.12 251.98 133.67 C 251.39 134.96 250.73 136.22 250.09 137.48 C 248.86 136.88 247.64 136.28 246.45 135.59 C 245.81 136.18 245.15 136.76 244.47 137.33 C 244.20 137.07 243.66 136.56 243.39 136.30 C 243.42 136.84 243.49 137.91 243.52 138.45 C 241.65 141.81 240.05 145.53 237.01 148.02 C 237.87 143.48 240.09 139.36 241.93 135.16 C 238.10 137.38 239.39 144.13 234.71 145.01 C 234.67 144.33 234.58 142.97 234.53 142.29 C 233.33 143.12 232.84 144.24 234.43 145.94 C 233.58 145.66 231.87 145.10 231.01 144.82 L 230.67 144.43 C 229.50 145.36 228.31 146.25 227.01 146.98 C 227.46 146.02 227.92 145.07 228.41 144.13 C 227.90 144.03 226.89 143.82 226.38 143.72 L 228.32 140.58 L 225.96 141.77 C 224.30 139.10 227.08 137.53 228.94 136.16 C 228.58 136.92 227.85 138.43 227.49 139.19 C 229.06 138.10 230.72 137.17 232.47 136.39 C 232.16 138.49 230.20 140.12 230.30 142.27 C 231.06 141.54 232.59 140.09 233.35 139.36 C 233.65 138.48 233.95 137.61 234.26 136.73 L 234.80 138.94 C 237.04 137.76 239.11 136.27 241.41 135.20 C 243.07 134.59 244.73 134.00 246.37 133.32 C 247.10 133.32 248.56 133.32 249.29 133.31 C 249.40 131.63 249.48 129.95 250.18 128.40 C 249.08 125.55 247.51 122.92 246.41 120.07 M 234.22 138.94 C 234.81 139.59 234.81 139.59 234.22 138.94 Z" />
<path fill="#ffffff" opacity="1.00" d=" M 294.36 121.38 C 294.73 121.58 295.48 121.96 295.86 122.15 C 296.31 123.14 296.77 124.12 297.24 125.10 C 296.53 124.93 295.12 124.59 294.41 124.42 C 294.39 126.90 295.06 129.28 295.89 131.60 C 297.90 133.55 298.48 137.44 301.73 137.65 C 302.03 137.86 302.65 138.29 302.95 138.51 C 302.30 138.54 301.00 138.62 300.34 138.66 C 300.82 139.10 301.78 139.98 302.26 140.42 C 302.06 140.77 301.66 141.47 301.46 141.83 C 300.56 140.57 299.68 139.29 298.85 137.99 C 297.33 135.96 295.86 133.90 294.61 131.70 C 293.99 128.29 293.12 124.77 294.36 121.38 Z" />
<path fill="#ffffff" opacity="1.00" d=" M 313.36 122.13 C 314.06 122.86 316.53 122.96 315.63 124.34 C 313.99 125.31 312.19 125.94 310.43 126.62 C 311.37 125.11 312.34 123.60 313.36 122.13 Z" />
<path fill="#ffffff" opacity="1.00" d=" M 224.16 128.75 C 224.84 126.81 225.49 124.82 226.81 123.21 C 227.51 125.04 228.23 126.87 228.93 128.71 C 228.36 129.08 227.23 129.83 226.67 130.20 C 226.72 129.72 226.81 128.75 226.85 128.26 C 226.18 128.39 224.83 128.63 224.16 128.75 Z" />
<path fill="#ffffff" opacity="1.00" d=" M 228.92 122.91 C 231.42 124.47 233.22 127.16 236.15 127.95 C 238.68 128.92 241.42 128.47 244.05 128.31 C 244.25 128.60 244.67 129.16 244.87 129.44 C 242.88 129.53 240.92 130.02 238.93 130.09 C 234.82 129.08 230.73 126.95 228.92 122.91 Z" />
<path fill="#ffffff" opacity="1.00" d=" M 303.70 126.48 C 305.49 125.42 307.20 124.21 308.99 123.14 C 308.67 124.01 308.36 124.89 308.04 125.76 C 305.55 126.19 303.17 127.05 300.91 128.17 C 300.63 127.55 300.07 126.32 299.79 125.70 C 300.77 125.90 302.72 126.29 303.70 126.48 Z" />
<path fill="#ffffff" opacity="1.00" d=" M 318.60 125.07 C 319.19 125.33 320.37 125.86 320.96 126.12 L 320.30 123.80 C 321.86 124.54 323.46 125.28 325.02 126.06 C 324.57 128.60 324.36 131.17 324.11 133.73 C 321.48 132.53 318.83 131.22 316.81 129.09 C 318.02 129.24 320.42 129.54 321.63 129.69 C 320.70 128.09 319.63 126.59 318.60 125.07 Z" />
<path fill="#ffffff" opacity="1.00" d=" M 207.65 125.52 C 208.49 126.87 209.34 128.22 210.20 129.56 C 209.44 130.01 207.92 130.92 207.16 131.38 C 207.65 131.62 208.62 132.10 209.10 132.34 C 208.50 132.88 207.90 133.42 207.30 133.95 C 207.00 132.77 206.73 131.59 206.48 130.40 C 206.21 130.33 205.67 130.17 205.40 130.09 C 206.65 128.82 207.79 127.44 207.65 125.52 Z" />
<path fill="#ffffff" opacity="1.00" d=" M 191.47 130.81 C 191.01 129.67 192.64 128.02 193.77 128.66 C 194.22 129.81 192.60 131.45 191.47 130.81 Z" />
<path fill="#ffffff" opacity="1.00" d=" M 193.96 134.69 C 198.36 134.84 199.95 130.42 203.45 128.85 C 201.72 131.31 199.35 133.21 197.13 135.22 C 195.95 136.02 194.79 136.84 193.63 137.67 L 196.65 137.31 C 195.69 138.18 193.76 139.92 192.80 140.79 L 195.05 140.26 L 195.28 141.63 L 193.48 141.96 C 194.30 142.71 195.15 143.43 196.00 144.16 C 195.41 144.42 194.23 144.94 193.64 145.20 C 194.38 145.75 195.15 146.27 195.93 146.79 C 195.26 147.32 194.60 147.86 193.94 148.41 C 193.26 147.75 192.57 147.11 191.88 146.48 C 192.44 145.78 193.57 144.38 194.13 143.68 C 193.41 143.71 191.98 143.78 191.27 143.82 L 193.18 140.94 L 190.75 141.76 C 191.09 141.28 191.76 140.31 192.10 139.83 C 191.90 139.44 191.51 138.66 191.31 138.27 C 192.16 137.06 193.03 135.85 193.96 134.69 Z" />
<path fill="#ffffff" opacity="1.00" d=" M 219.84 129.64 C 220.81 130.61 222.28 130.75 223.38 131.54 C 221.57 132.32 219.80 133.19 218.13 134.25 C 220.80 134.09 223.47 134.10 226.15 134.16 C 224.06 135.15 221.82 135.96 220.15 137.63 C 222.47 136.82 224.66 135.70 226.99 134.91 C 225.86 137.14 223.49 138.14 221.73 139.76 C 219.62 141.65 217.36 143.42 214.68 144.42 C 215.59 143.12 216.69 141.97 217.73 140.77 C 218.95 140.24 219.59 139.06 220.32 138.03 C 217.72 138.95 215.24 140.23 212.52 140.79 C 213.52 139.47 214.96 138.67 216.36 137.85 C 215.95 136.66 216.59 135.64 217.16 134.65 C 215.24 135.45 213.25 136.07 211.23 136.55 C 212.58 135.12 213.96 133.71 215.06 132.07 C 216.71 131.39 218.33 130.61 219.84 129.64 Z" />
<path fill="#ffffff" opacity="1.00" d=" M 297.43 129.79 C 299.11 130.35 300.78 130.97 302.44 131.61 C 304.05 130.42 305.25 132.29 306.51 132.92 C 307.67 133.66 308.81 134.40 309.93 135.21 C 310.48 134.83 311.02 134.44 311.57 134.05 C 311.90 134.40 312.55 135.11 312.87 135.46 C 312.30 136.13 311.73 136.80 311.17 137.49 C 310.40 137.10 308.85 136.32 308.08 135.93 C 307.92 136.52 307.59 137.71 307.43 138.30 C 309.17 139.66 310.69 141.27 312.00 143.05 C 308.53 142.93 304.12 139.86 305.53 136.01 C 302.73 134.07 299.15 132.95 297.43 129.79 M 307.22 135.23 C 307.86 135.86 307.86 135.86 307.22 135.23 Z" />
<path fill="#ffffff" opacity="1.00" d=" M 239.34 132.16 C 240.64 132.74 240.63 133.42 239.30 134.18 C 238.01 133.58 238.02 132.91 239.34 132.16 Z" />
<path fill="#ffffff" opacity="1.00" d=" M 313.44 133.54 C 314.19 132.95 314.93 132.36 315.69 131.77 C 316.80 133.28 317.90 134.80 318.96 136.35 L 317.11 136.47 C 318.78 138.33 320.33 140.43 318.63 142.82 C 316.14 142.46 314.05 141.13 312.06 139.68 C 315.79 140.08 315.43 135.37 313.44 133.54 M 315.52 141.30 C 317.07 141.41 316.81 139.01 316.17 138.23 C 314.59 138.12 313.73 140.88 315.52 141.30 Z" />
<path fill="#ffffff" opacity="1.00" d=" M 330.84 132.54 C 331.05 134.51 331.16 136.49 331.46 138.46 C 330.44 140.74 329.86 143.16 329.45 145.61 C 329.00 145.97 328.10 146.69 327.64 147.05 C 327.67 147.72 327.73 149.07 327.76 149.74 C 327.34 149.55 326.50 149.17 326.08 148.99 C 327.81 147.15 328.15 144.85 327.53 142.45 C 326.55 142.58 324.60 142.84 323.62 142.97 C 324.26 142.18 324.92 141.40 325.58 140.62 C 327.05 140.96 328.54 141.25 330.04 141.50 C 329.05 139.83 327.87 138.28 326.14 137.34 C 326.15 137.07 326.17 136.53 326.18 136.26 C 327.19 137.24 328.21 138.21 329.24 139.17 C 329.28 138.48 329.36 137.09 329.40 136.40 C 330.49 135.41 330.96 134.13 330.84 132.54 Z" />
<path fill="#ffffff" opacity="1.00" d=" M 278.65 134.60 C 279.18 134.58 280.23 134.55 280.76 134.53 C 280.37 135.68 279.99 136.83 279.55 137.97 C 278.08 137.49 276.68 136.82 275.27 136.22 C 276.44 135.93 277.62 135.67 278.81 135.46 L 278.65 134.60 Z" />
<path fill="#ffffff" opacity="1.00" d=" M 320.49 133.67 C 321.61 134.86 325.18 135.49 323.49 137.50 C 323.10 138.96 321.46 137.22 320.55 137.22 C 320.54 136.03 320.52 134.85 320.49 133.67 Z" />
<path fill="#ffffff" opacity="1.00" d=" M 242.81 142.06 C 243.50 140.06 245.05 138.51 246.24 136.81 C 245.90 139.06 247.47 140.53 248.82 142.02 C 248.16 143.09 247.53 144.18 246.79 145.20 C 245.26 144.45 243.81 143.47 242.81 142.06 Z" />
<path fill="#ffffff" opacity="1.00" d=" M 279.65 140.17 C 281.05 139.60 282.46 139.06 283.87 138.48 C 284.08 139.56 284.32 140.64 284.45 141.74 C 282.69 142.01 281.22 140.72 279.65 140.17 Z" />
<path fill="#ffffff" opacity="1.00" d=" M 275.57 139.65 C 275.46 139.82 275.22 140.18 275.11 140.35 C 276.27 141.00 277.44 141.68 278.59 142.39 C 279.60 142.73 280.61 143.11 281.61 143.52 C 277.47 143.66 273.35 143.62 269.35 142.40 C 270.19 141.70 271.06 141.01 271.93 140.33 C 273.14 140.12 274.36 139.89 275.57 139.65 Z" />
<path fill="#ffffff" opacity="1.00" d=" M 249.99 144.53 C 251.12 143.58 252.29 142.68 253.50 141.82 C 253.57 143.11 253.63 144.41 253.68 145.71 C 252.44 145.33 251.21 144.94 249.99 144.53 Z" />
<path fill="#ffffff" opacity="1.00" d=" M 315.18 143.24 C 316.33 142.60 318.85 143.68 317.52 145.12 C 316.25 146.73 312.69 144.37 315.18 143.24 Z" />
<path fill="#ffffff" opacity="1.00" d=" M 264.45 147.80 C 265.64 145.94 267.52 144.80 269.41 143.76 C 270.72 144.42 272.04 145.03 273.40 145.59 C 276.91 145.07 280.50 145.31 283.95 146.10 C 283.76 147.59 282.84 148.77 281.84 149.80 L 284.00 149.14 L 283.32 151.17 C 284.06 150.46 284.84 149.81 285.57 149.09 C 285.03 147.83 284.62 146.52 284.34 145.18 C 286.24 145.45 287.84 146.60 289.57 147.35 C 289.37 147.59 288.96 148.07 288.76 148.31 C 289.78 149.54 290.78 150.79 291.81 152.02 C 290.92 153.94 289.88 156.15 287.69 156.85 C 286.87 157.31 284.99 157.20 285.27 158.65 C 287.36 158.54 288.71 156.51 290.49 155.60 C 291.48 155.77 293.46 156.11 294.45 156.28 C 292.85 157.46 291.69 159.07 290.65 160.73 C 291.78 160.49 292.92 160.25 294.06 160.01 C 292.76 161.23 291.31 162.36 290.58 164.05 C 291.16 163.67 292.31 162.91 292.88 162.53 C 293.40 162.91 294.45 163.66 294.97 164.04 C 295.11 164.47 295.40 165.34 295.54 165.77 C 294.78 165.99 293.28 166.43 292.53 166.65 C 292.57 166.37 292.66 165.82 292.70 165.54 C 291.41 165.83 290.11 166.07 288.82 166.32 C 290.01 167.29 291.13 168.36 291.78 169.79 C 290.53 169.48 289.29 169.16 288.06 168.83 C 288.27 168.30 288.71 167.25 288.92 166.72 C 284.29 168.38 279.73 166.87 275.16 165.97 C 272.73 165.13 271.18 168.13 268.71 167.34 C 269.30 167.81 270.49 168.77 271.08 169.24 C 269.96 169.89 268.81 170.49 267.67 171.09 C 266.92 170.41 265.42 169.05 264.66 168.37 C 265.83 167.41 267.16 166.78 268.65 166.49 C 268.14 165.96 267.11 164.88 266.59 164.34 C 267.08 164.11 268.04 163.63 268.53 163.40 C 268.01 162.25 267.53 161.10 267.05 159.94 C 268.17 159.12 269.20 158.20 270.20 157.23 C 269.62 156.60 268.47 155.33 267.89 154.70 C 268.84 154.37 270.74 153.70 271.69 153.37 C 271.64 154.21 271.55 155.89 271.50 156.73 C 272.35 157.15 273.21 157.57 274.07 157.99 C 273.40 157.30 272.73 156.62 272.06 155.95 C 272.51 155.09 272.94 154.23 273.37 153.36 L 275.39 154.09 C 274.52 153.25 273.65 152.42 272.77 151.61 C 272.08 152.30 271.37 152.98 270.64 153.64 C 270.34 150.85 271.13 148.12 271.56 145.39 C 269.21 146.25 266.86 147.12 264.45 147.80 Z" />
<path fill="#ffffff" opacity="1.00" d=" M 303.44 146.19 C 304.32 145.73 305.20 145.27 306.08 144.81 C 306.76 145.73 307.44 146.65 308.10 147.60 C 308.86 148.51 309.61 149.43 310.35 150.37 C 307.36 150.36 305.42 148.06 303.44 146.19 Z" />
<path fill="#ffffff" opacity="1.00" d=" M 228.32 152.55 C 230.88 149.94 234.00 148.00 236.89 145.80 C 235.63 147.91 234.36 150.01 232.96 152.03 C 231.41 152.18 229.86 152.37 228.32 152.55 Z" />
<path fill="#ffffff" opacity="1.00" d=" M 313.62 145.76 C 314.51 146.63 315.55 147.40 316.23 148.47 C 315.89 149.65 315.41 150.79 315.00 151.95 C 314.58 149.87 314.13 147.81 313.62 145.76 Z" />
<path fill="#ffffff" opacity="1.00" d=" M 299.90 147.02 C 302.05 148.24 304.07 149.70 306.28 150.84 C 307.85 151.92 309.50 152.92 310.90 154.24 C 311.69 155.97 313.63 158.00 311.99 159.80 C 312.65 160.43 313.97 161.70 314.63 162.33 C 312.84 161.76 311.14 160.96 309.41 160.24 C 307.97 159.03 306.54 157.81 305.30 156.39 C 307.73 156.70 309.80 158.03 311.74 159.44 C 311.48 158.96 310.95 157.98 310.69 157.50 C 309.61 156.58 308.58 155.63 307.56 154.66 C 306.53 154.40 305.52 154.09 304.54 153.73 C 303.39 151.22 301.52 149.21 299.90 147.02 Z" />
<path fill="#ffffff" opacity="1.00" d=" M 185.58 147.79 C 188.70 148.01 189.38 150.63 189.88 153.21 C 191.81 152.18 193.83 151.22 196.06 151.05 C 194.59 152.25 192.98 153.25 191.37 154.24 C 191.28 156.68 189.46 157.08 187.72 155.77 C 181.89 158.88 177.54 163.92 172.31 167.81 C 176.53 162.29 182.21 158.09 188.06 154.44 C 188.24 153.77 188.42 153.10 188.61 152.43 C 185.67 154.18 186.60 149.23 185.58 147.79 Z" />
<path fill="#ffffff" opacity="1.00" d=" M 239.02 155.43 C 240.10 154.68 241.20 153.96 242.29 153.23 L 242.39 154.90 C 243.19 154.78 244.78 154.53 245.57 154.40 C 242.47 156.68 239.29 158.86 236.04 160.90 C 236.98 159.05 238.07 157.28 239.02 155.43 Z" />
<path fill="#ffffff" opacity="1.00" d=" M 183.85 163.62 C 187.60 159.95 192.01 157.06 196.42 154.25 C 196.51 154.53 196.68 155.08 196.77 155.35 C 192.00 157.38 188.57 161.52 183.85 163.62 Z" />
<path fill="#ffffff" opacity="1.00" d=" M 237.35 164.22 C 239.82 159.52 245.78 159.73 250.01 157.49 C 246.29 160.51 242.16 163.33 237.35 164.22 Z" />
<path fill="#ffffff" opacity="1.00" d=" M 191.71 158.85 C 193.11 159.06 194.40 159.66 195.68 160.26 C 195.43 161.49 195.18 162.71 194.89 163.93 C 193.59 162.40 192.14 160.87 191.71 158.85 Z" />
<path fill="#ffffff" opacity="1.00" d=" M 295.51 161.04 C 295.86 159.72 297.13 159.31 298.21 158.79 C 298.38 160.18 298.52 161.59 298.61 163.00 C 297.11 163.31 296.17 162.24 295.51 161.04 Z" />
<path fill="#ffffff" opacity="1.00" d=" M 304.71 160.15 C 306.97 160.47 307.97 162.58 308.98 164.36 C 308.44 164.25 307.34 164.03 306.80 163.91 C 306.78 164.32 306.73 165.13 306.71 165.53 C 305.92 165.25 304.33 164.68 303.53 164.40 C 304.98 166.31 306.64 168.07 307.95 170.09 C 304.33 169.22 302.96 165.32 300.56 162.89 C 302.38 162.43 304.23 162.51 306.06 162.83 L 305.65 162.28 L 305.18 161.75 C 305.06 161.35 304.83 160.55 304.71 160.15 Z" />
<path fill="#ffffff" opacity="1.00" d=" M 200.90 162.30 C 201.92 161.93 202.94 161.54 203.96 161.16 C 204.46 163.05 205.81 164.43 207.16 165.76 C 206.74 166.35 205.89 167.53 205.46 168.12 C 204.32 166.98 203.22 165.80 202.11 164.64 L 204.85 163.90 C 203.57 163.28 202.23 162.78 200.90 162.30 Z" />
<path fill="#ffffff" opacity="1.00" d=" M 232.77 163.48 C 233.58 163.05 234.39 162.62 235.20 162.20 C 234.89 162.75 234.27 163.86 233.97 164.41 C 234.15 164.81 234.51 165.62 234.70 166.02 C 233.65 166.35 232.62 166.68 231.58 167.02 C 231.98 165.84 232.38 164.66 232.77 163.48 Z" />
<path fill="#ffffff" opacity="1.00" d=" M 310.63 161.96 C 312.27 162.78 314.01 163.55 315.16 165.06 C 314.04 166.37 312.25 166.39 310.71 166.78 C 310.72 165.17 310.67 163.56 310.63 161.96 Z" />
<path fill="#ffffff" opacity="1.00" d=" M 316.08 167.29 C 321.81 164.79 327.88 162.62 334.19 162.39 C 327.32 164.38 320.11 165.66 313.82 169.24 C 313.67 170.77 314.34 172.15 315.12 173.42 C 323.19 171.81 331.52 172.43 339.71 172.54 C 339.69 172.82 339.65 173.36 339.63 173.63 C 331.59 171.89 323.51 173.65 315.50 174.56 C 315.68 175.04 316.02 176.00 316.19 176.48 C 316.84 176.14 318.13 175.47 318.77 175.13 C 318.82 175.49 318.92 176.21 318.97 176.57 C 318.07 176.69 316.25 176.94 315.35 177.06 C 315.41 178.70 315.50 180.33 315.63 181.97 C 312.55 180.99 312.15 177.30 309.17 176.23 C 309.24 175.67 309.38 174.54 309.45 173.97 C 310.33 174.83 311.21 175.69 312.09 176.56 C 312.85 175.64 313.66 174.75 314.46 173.86 L 312.40 173.76 C 312.29 171.87 312.20 169.98 312.00 168.10 C 313.36 167.91 314.80 167.88 316.08 167.29 Z" />
<path fill="#ffffff" opacity="1.00" d=" M 240.87 163.45 C 241.03 163.46 241.33 163.46 241.49 163.46 L 241.20 165.16 C 243.31 164.83 245.33 164.15 247.34 163.46 C 246.88 163.96 245.98 164.95 245.53 165.45 C 245.47 165.86 245.37 166.68 245.32 167.09 C 242.52 169.16 239.85 171.73 236.30 172.40 C 234.67 173.59 232.94 173.82 231.44 172.26 C 234.85 168.76 239.66 168.36 244.21 167.64 C 243.79 167.10 242.95 166.02 242.53 165.48 C 237.82 169.80 240.59 165.16 240.87 163.45 Z" />
<path fill="#ffffff" opacity="1.00" d=" M 239.00 164.50 C 240.98 165.33 236.60 168.25 235.25 167.71 C 235.14 165.94 237.65 165.14 239.00 164.50 Z" />
<path fill="#ffffff" opacity="1.00" d=" M 244.99 168.91 C 248.76 167.70 252.40 166.17 255.70 163.95 C 255.35 164.44 254.64 165.43 254.29 165.93 C 254.61 166.67 255.25 168.15 255.57 168.89 C 256.09 168.86 257.13 168.79 257.65 168.76 C 257.14 170.30 256.39 171.71 254.73 172.31 C 255.13 172.61 255.54 172.90 255.95 173.19 C 257.32 170.68 258.70 173.36 260.02 174.01 C 263.37 175.62 265.26 179.45 269.13 180.06 C 271.68 180.61 273.89 181.98 276.03 183.41 C 278.01 183.76 277.81 180.88 278.78 179.81 C 276.97 178.25 275.26 176.60 273.42 175.09 C 270.40 174.44 267.31 174.01 264.38 172.94 C 263.57 171.75 262.75 170.57 261.94 169.40 C 263.27 167.86 264.62 166.34 266.10 164.93 C 265.33 166.44 264.44 167.88 263.59 169.34 C 265.28 170.36 266.56 171.86 267.56 173.56 C 270.17 173.08 272.82 172.78 275.44 172.31 C 275.37 173.27 275.31 174.22 275.26 175.18 C 276.92 173.32 278.99 173.52 281.03 174.46 C 280.68 175.50 280.31 176.53 279.95 177.56 C 280.86 177.48 282.68 177.32 283.60 177.24 C 282.51 179.44 280.67 181.00 278.80 182.50 C 279.66 182.66 281.36 182.98 282.21 183.15 C 281.02 183.28 279.81 183.36 278.62 183.41 C 279.56 184.93 278.63 187.33 276.69 187.00 C 275.14 185.18 273.64 183.33 272.07 181.55 C 269.57 182.22 267.11 182.05 265.23 180.10 C 262.59 180.06 262.30 177.42 261.84 175.44 C 259.57 176.44 257.57 178.31 258.50 181.01 C 258.20 181.05 257.59 181.12 257.28 181.16 L 257.61 178.66 C 256.02 180.20 254.68 181.99 252.93 183.35 C 254.45 180.85 256.04 178.38 257.55 175.87 C 256.80 175.73 255.30 175.46 254.55 175.33 C 254.33 174.92 253.90 174.10 253.68 173.69 C 252.48 173.19 251.32 172.61 250.17 172.02 C 250.61 170.95 251.48 168.82 251.92 167.76 C 249.44 169.05 247.37 171.33 244.42 171.53 C 243.71 172.51 242.99 173.49 242.31 174.49 L 244.90 173.94 C 245.11 174.47 245.53 175.54 245.74 176.07 C 246.21 175.52 247.16 174.41 247.63 173.86 C 247.63 175.05 247.61 176.25 247.56 177.44 C 245.91 178.93 244.06 180.23 242.80 182.10 C 245.22 180.82 247.50 179.29 249.78 177.76 C 250.80 176.73 251.99 178.48 252.99 178.54 C 251.64 179.92 250.24 181.25 248.73 182.46 C 247.75 180.72 246.77 181.81 246.39 183.20 C 245.04 183.28 243.70 183.38 242.36 183.50 L 242.99 182.23 C 241.87 182.49 239.63 183.01 238.50 183.27 C 240.38 181.53 242.52 180.13 244.53 178.56 L 241.33 179.31 C 241.44 178.73 241.67 177.57 241.78 176.99 L 239.75 177.76 C 240.14 176.17 240.28 174.31 242.06 173.62 C 242.22 171.67 242.94 169.57 244.99 168.91 M 278.21 176.29 C 276.54 179.16 281.64 176.46 278.21 176.29 Z" />
<path fill="#ffffff" opacity="1.00" d=" M 197.55 166.44 C 203.30 169.08 209.15 171.48 214.85 174.23 C 217.75 175.16 220.70 176.12 223.16 177.98 C 224.19 177.85 225.22 177.72 226.26 177.58 C 227.71 178.83 229.17 180.06 230.60 181.35 C 227.07 180.85 223.69 178.90 220.06 179.64 C 215.90 179.77 212.03 182.93 207.84 181.06 C 212.08 178.73 217.00 179.32 221.53 178.13 C 212.13 173.92 201.32 175.18 191.77 171.38 C 199.37 172.19 206.76 174.58 214.42 174.91 C 209.03 171.63 202.26 170.83 197.55 166.44 Z" />
<path fill="#ffffff" opacity="1.00" d=" M 290.70 167.84 C 292.74 167.65 294.79 167.58 296.84 167.50 C 297.17 168.37 297.52 169.25 297.88 170.13 C 296.07 172.73 293.12 173.86 290.64 175.63 C 287.99 178.91 286.39 182.92 284.13 186.47 C 286.61 184.85 288.50 182.48 291.01 180.89 C 289.84 183.89 287.44 186.14 285.27 188.43 C 283.84 191.22 282.46 194.53 279.14 195.44 C 279.46 194.05 281.02 192.42 279.27 191.20 C 280.01 190.42 281.49 188.86 282.23 188.09 L 277.36 189.92 C 279.24 186.87 283.36 186.19 284.81 182.77 C 285.42 180.62 286.27 178.53 286.67 176.32 C 287.88 174.59 289.29 172.76 291.56 172.57 C 293.29 172.01 295.13 171.71 296.77 170.87 C 295.38 168.90 292.62 169.02 290.70 167.84 Z" />
<path fill="#ffffff" opacity="1.00" d=" M 273.11 167.76 C 274.20 166.76 276.83 168.21 275.88 169.67 C 274.72 170.79 272.18 169.30 273.11 167.76 Z" />
<path fill="#ffffff" opacity="1.00" d=" M 277.32 168.44 C 278.41 167.48 281.14 168.37 280.67 170.00 C 279.60 170.91 276.78 170.06 277.32 168.44 Z" />
<path fill="#ffffff" opacity="1.00" d=" M 284.39 168.98 C 285.76 167.47 287.95 170.62 285.95 171.26 C 284.55 171.07 284.04 170.31 284.39 168.98 Z" />
<path fill="#ffffff" opacity="1.00" d=" M 299.93 169.97 C 301.01 171.05 304.18 171.94 303.17 173.82 C 302.50 174.02 301.17 174.41 300.51 174.61 C 301.09 175.31 302.25 176.71 302.83 177.42 C 303.41 179.65 300.57 178.17 299.51 178.96 C 301.52 179.65 303.69 179.86 305.81 179.74 C 305.14 178.32 304.22 177.03 303.54 175.61 C 305.84 176.88 308.01 178.35 309.98 180.08 C 309.00 180.57 307.99 181.01 306.97 181.39 C 306.80 181.96 306.45 183.11 306.28 183.69 C 305.51 183.08 304.74 182.47 303.98 181.87 L 304.00 181.06 L 303.05 181.00 C 303.39 181.69 304.07 183.08 304.40 183.78 C 301.91 183.44 299.34 183.12 297.63 181.09 C 298.40 179.26 299.29 177.41 301.20 176.52 C 300.19 175.65 299.17 174.81 298.18 173.93 C 298.88 172.67 299.46 171.35 299.93 169.97 Z" />
<path fill="#ffffff" opacity="1.00" d=" M 236.37 176.36 C 237.53 175.42 238.23 175.64 238.49 177.01 C 237.33 177.93 236.62 177.72 236.37 176.36 Z" />
<path fill="#ffffff" opacity="1.00" d=" M 229.00 177.77 C 231.78 177.62 234.57 177.55 237.35 177.78 C 235.04 179.65 230.95 180.77 229.00 177.77 Z" />
<path fill="#ffffff" opacity="1.00" d=" M 231.11 183.26 C 234.50 181.72 237.68 179.55 241.41 178.90 C 237.17 181.54 232.39 183.24 228.42 186.33 C 226.55 187.52 224.61 188.62 222.57 189.48 C 224.55 186.42 227.99 184.88 231.11 183.26 Z" />
<path fill="#ffffff" opacity="1.00" d=" M 296.14 182.29 C 299.49 182.63 294.45 185.13 296.14 182.29 Z" />
<path fill="#ffffff" opacity="1.00" d=" M 312.23 181.57 C 313.30 180.86 314.99 182.45 314.49 183.57 C 313.39 184.24 311.69 182.75 312.23 181.57 Z" />
<path fill="#ffffff" opacity="1.00" d=" M 315.48 182.30 C 322.00 183.05 328.18 185.65 334.34 187.80 C 330.69 187.70 327.36 186.11 323.92 185.08 C 321.11 184.14 318.16 183.59 315.48 182.30 Z" />
<path fill="#ffffff" opacity="1.00" d=" M 233.51 186.85 C 234.39 185.28 235.87 184.24 237.34 183.27 C 237.48 184.43 237.64 185.59 237.80 186.75 C 233.01 188.68 228.29 190.80 223.49 192.70 C 226.48 190.20 230.28 188.99 233.51 186.85 Z" />
<path fill="#ffffff" opacity="1.00" d=" M 308.98 182.70 C 310.79 184.01 312.49 185.47 314.16 186.96 C 313.86 187.63 313.26 188.97 312.96 189.64 C 311.50 188.69 310.08 187.67 308.72 186.59 C 309.44 186.55 310.88 186.47 311.59 186.43 C 310.70 185.19 309.81 183.97 308.98 182.70 Z" />
<path fill="#ffffff" opacity="1.00" d=" M 235.12 189.65 C 237.41 188.40 240.00 188.39 242.53 188.46 C 243.05 189.25 243.57 190.05 244.09 190.85 C 241.24 191.49 236.56 193.27 235.12 189.65 Z" />
<path fill="#ffffff" opacity="1.00" d=" M 252.95 191.59 C 254.23 190.63 255.58 189.76 257.02 189.06 C 255.46 190.83 253.53 192.21 251.69 193.67 C 251.17 193.02 250.71 192.34 250.20 191.69 C 249.04 192.82 247.48 193.26 245.98 193.69 C 247.38 191.89 249.37 190.76 251.35 189.72 C 251.87 190.34 252.41 190.97 252.95 191.59 Z" />
<path fill="#ffffff" opacity="1.00" d=" M 286.17 191.74 C 287.03 190.90 287.94 190.10 288.84 189.30 C 289.17 190.50 289.47 191.69 289.79 192.90 C 288.58 192.52 287.35 192.19 286.17 191.74 Z" />
<path fill="#ffffff" opacity="1.00" d=" M 307.77 192.03 C 312.90 192.67 318.47 195.27 320.85 200.14 C 318.79 198.50 317.10 196.36 314.67 195.24 C 312.40 194.09 309.74 193.73 307.77 192.03 Z" />
<path fill="#ffffff" opacity="1.00" d=" M 236.03 197.03 C 238.65 195.38 241.50 194.05 244.55 193.41 C 242.39 195.98 238.99 196.80 236.11 198.27 C 232.21 199.94 228.90 202.79 224.85 204.12 C 228.21 201.21 232.31 199.40 236.03 197.03 Z" />
<path fill="#ffffff" opacity="1.00" d=" M 269.46 199.28 C 271.45 197.54 273.95 196.59 276.34 195.55 C 275.35 196.88 274.29 198.14 273.19 199.38 C 271.95 199.36 270.70 199.32 269.46 199.28 Z" />
<path fill="#ffffff" opacity="1.00" d=" M 239.91 202.94 C 242.72 199.78 246.82 198.35 250.53 196.58 C 247.87 199.80 243.66 201.30 239.91 202.94 Z" />
<path fill="#ffffff" opacity="1.00" d=" M 251.71 201.04 C 253.02 199.44 254.63 198.13 256.36 197.00 C 255.49 199.01 253.62 200.18 251.71 201.04 Z" />
<path fill="#ffffff" opacity="1.00" d=" M 267.43 202.72 C 271.74 201.96 275.58 199.80 279.56 198.08 C 278.30 200.80 275.17 201.52 272.58 202.36 C 269.49 202.96 266.76 204.57 263.82 205.58 C 264.80 204.38 265.67 202.78 267.43 202.72 Z" />
<path fill="#ffffff" opacity="1.00" d=" M 284.27 199.41 C 287.95 198.16 291.34 201.14 294.56 202.55 C 296.38 204.00 299.55 203.35 300.33 205.99 C 294.51 204.84 290.25 200.15 284.27 199.41 Z" />
<path fill="#ffffff" opacity="1.00" d=" M 281.34 200.48 C 283.38 200.92 280.91 203.97 279.65 202.85 C 278.91 201.77 280.22 200.42 281.34 200.48 Z" />
<path fill="#ffffff" opacity="1.00" d=" M 250.53 207.92 C 254.83 205.08 260.11 204.32 264.48 201.56 C 264.21 204.19 261.88 205.05 259.67 205.53 C 256.41 204.86 254.10 209.08 250.53 207.92 Z" />
<path fill="#ffffff" opacity="1.00" d=" M 241.24 209.19 C 243.33 206.83 245.29 204.12 248.38 202.99 C 246.47 206.01 243.40 207.97 240.72 210.24 L 241.20 208.06 L 238.29 209.07 C 239.23 208.01 240.22 206.99 241.22 205.99 L 241.24 209.19 Z" />
<path fill="#ffffff" opacity="1.00" d=" M 272.64 206.89 C 274.09 205.55 275.84 204.58 277.86 204.59 C 277.88 205.99 276.87 207.05 276.24 208.21 C 275.34 207.88 273.54 207.22 272.64 206.89 Z" />
<path fill="#ffffff" opacity="1.00" d=" M 279.72 205.20 C 281.16 205.39 282.60 205.56 284.04 205.73 C 283.70 207.40 283.31 209.07 282.87 210.73 C 281.75 208.92 280.74 207.06 279.72 205.20 Z" />
<path fill="#ffffff" opacity="1.00" d=" M 272.98 211.41 C 273.58 210.80 274.19 210.19 274.80 209.59 C 275.55 210.18 276.30 210.79 277.06 211.37 L 278.05 209.40 C 278.48 210.55 278.90 211.71 279.31 212.87 C 277.06 213.02 274.88 212.63 272.98 211.41 Z" />
<path fill="#ffffff" opacity="1.00" d=" M 245.77 216.94 C 247.13 214.83 248.97 213.12 250.83 211.47 C 252.28 213.21 253.76 214.94 254.89 216.92 C 252.96 216.17 251.24 215.01 249.51 213.92 C 248.30 214.97 247.08 216.01 245.77 216.94 Z" />
<path fill="#ffffff" opacity="1.00" d=" M 281.95 213.03 C 283.53 212.54 284.07 213.12 283.56 214.76 C 281.95 215.24 281.42 214.66 281.95 213.03 Z" />
<path fill="#ffffff" opacity="1.00" d=" M 255.23 217.26 C 256.63 216.76 257.09 217.21 256.60 218.62 C 255.18 219.11 254.72 218.65 255.23 217.26 Z" />
<path fill="#ffffff" opacity="1.00" d=" M 257.01 220.86 C 256.19 219.81 257.67 217.97 258.85 218.62 C 259.65 219.63 258.12 221.42 257.01 220.86 Z" />
<path fill="#ffffff" opacity="1.00" d=" M 294.06 218.14 C 295.46 217.00 297.31 219.46 295.75 220.45 C 294.31 221.62 292.60 219.17 294.06 218.14 Z" />
<path fill="#ffffff" opacity="1.00" d=" M 261.00 219.17 C 262.18 219.91 263.38 220.62 264.58 221.35 C 264.14 221.82 263.71 222.29 263.28 222.77 C 262.56 222.20 261.97 221.45 261.14 221.05 C 259.74 222.45 258.43 223.94 256.91 225.22 C 258.10 223.09 259.58 221.14 261.00 219.17 Z" />
<path fill="#ffffff" opacity="1.00" d=" M 266.65 222.69 C 268.40 222.57 270.12 222.91 271.85 223.14 C 271.63 223.58 271.20 224.48 270.98 224.92 C 269.58 224.17 266.89 224.80 266.65 222.69 Z" />
<path fill="#ffffff" opacity="1.00" d=" M 279.30 224.07 C 280.27 221.17 282.79 222.56 284.12 224.18 C 282.51 224.17 280.89 224.11 279.30 224.07 Z" />
</g>
</svg>
