<?xml version="1.0" encoding="UTF-8" ?>
<!DOCTYPE svg PUBLIC "-//W3C//DTD SVG 1.1//EN" "http://www.w3.org/Graphics/SVG/1.1/DTD/svg11.dtd">
<svg width="512pt" height="256pt" viewBox="0 0 512 256" version="1.1" xmlns="http://www.w3.org/2000/svg">
<g id="#ffffffff">
<path fill="#ffffff" opacity="1.00" d=" M 223.90 16.57 C 226.48 13.22 230.17 9.91 234.52 9.44 C 233.59 12.12 232.22 14.59 230.83 17.04 C 229.86 15.80 229.38 14.00 227.60 13.62 C 227.31 15.72 229.32 16.68 230.60 17.85 C 229.74 18.77 228.85 19.67 227.95 20.54 C 226.60 19.77 225.90 18.23 224.90 17.10 L 226.78 16.89 L 226.84 16.15 C 226.10 16.25 224.63 16.46 223.90 16.57 M 231.53 11.78 C 232.28 12.24 232.28 12.24 231.53 11.78 Z" />
<path fill="#ffffff" opacity="1.00" d=" M 223.11 19.11 C 223.16 18.60 223.25 17.57 223.30 17.05 C 223.65 17.61 224.36 18.73 224.72 19.29 C 224.32 19.24 223.51 19.15 223.11 19.11 Z" />
<path fill="#ffffff" opacity="1.00" d=" M 281.29 17.52 C 282.72 17.93 282.96 18.91 282.00 20.43 C 283.32 18.50 285.04 19.77 286.20 20.74 C 289.07 22.84 290.91 25.98 293.60 28.28 C 295.92 30.14 297.30 32.81 298.42 35.51 C 298.32 37.46 298.53 39.41 298.60 41.37 C 298.89 44.90 298.66 48.44 298.00 51.93 C 299.56 59.32 296.17 66.35 293.52 73.04 C 292.00 77.73 288.27 81.56 283.85 83.60 C 284.16 81.25 284.78 78.94 285.75 76.77 C 286.20 76.78 287.10 76.80 287.54 76.80 C 287.44 74.47 289.20 72.37 287.73 70.02 C 288.88 71.45 290.59 71.74 292.32 71.83 C 291.36 71.12 290.39 70.44 289.39 69.81 C 289.50 68.59 289.59 67.36 289.66 66.14 C 291.20 67.04 292.72 67.93 294.25 68.87 L 293.63 65.52 C 291.84 65.39 290.70 63.96 289.42 62.92 C 290.43 62.17 291.50 61.49 292.49 60.71 C 292.16 59.40 290.77 56.90 293.52 57.15 C 293.48 56.68 293.39 55.73 293.35 55.25 L 293.70 54.75 C 293.90 54.38 294.29 53.64 294.48 53.27 C 294.76 53.63 295.30 54.37 295.58 54.74 C 296.17 54.93 297.35 55.31 297.94 55.50 C 296.76 53.30 295.13 51.39 293.91 49.22 C 294.92 49.85 295.91 50.50 296.91 51.15 C 296.73 48.93 296.53 46.70 296.33 44.48 L 298.19 44.63 C 297.45 43.27 296.67 41.93 295.85 40.63 C 295.30 39.64 294.75 38.65 294.22 37.66 C 294.80 35.99 295.77 34.40 295.91 32.62 C 293.45 29.65 290.74 26.90 288.10 24.09 L 287.29 25.19 L 287.55 24.44 C 287.04 23.97 286.01 23.05 285.49 22.58 L 285.40 22.05 L 284.86 21.79 L 284.80 21.13 L 284.22 20.78 L 283.69 20.33 L 283.19 20.67 L 283.62 21.15 L 284.22 20.78 L 284.18 21.48 L 284.86 21.79 L 285.00 22.33 L 285.49 22.58 C 285.57 23.77 286.16 24.64 287.29 25.19 C 289.54 27.93 291.48 31.02 292.28 34.53 C 290.06 32.93 289.63 30.04 288.02 27.97 C 286.31 25.12 283.77 22.98 281.56 20.56 L 281.77 18.26 L 279.80 19.65 C 280.26 18.92 280.76 18.21 281.29 17.52 M 295.33 58.95 C 296.50 61.27 297.65 57.43 297.08 56.32 C 295.80 55.54 295.10 58.01 295.33 58.95 Z" />
<path fill="#ffffff" opacity="1.00" d=" M 296.59 16.67 C 296.86 17.08 297.38 17.89 297.65 18.30 C 302.50 22.95 303.42 30.14 306.12 36.06 C 306.66 38.25 307.11 40.47 307.67 42.66 C 307.14 42.67 306.07 42.69 305.54 42.69 C 305.53 40.43 305.36 38.16 305.32 35.90 L 303.72 36.83 C 303.34 40.28 305.62 44.37 303.53 47.37 C 301.95 43.04 302.11 38.29 300.41 33.99 C 299.72 30.84 297.79 27.81 298.46 24.51 C 296.85 22.17 295.76 19.55 296.59 16.67 M 296.97 18.68 C 297.96 22.10 299.32 25.42 300.14 28.90 C 302.31 25.50 299.90 20.83 296.97 18.68 M 300.50 29.54 C 301.34 31.95 302.01 34.42 302.74 36.87 C 304.16 34.48 303.53 31.76 302.80 29.27 C 302.02 29.33 301.25 29.41 300.50 29.54 Z" />
<path fill="#ffffff" opacity="1.00" d=" M 220.26 17.56 C 221.24 18.02 222.19 18.54 223.11 19.11 C 223.73 21.00 225.64 20.67 227.25 20.67 C 226.57 22.15 225.95 23.66 225.22 25.11 C 222.56 27.11 221.09 30.15 219.52 32.99 C 219.02 36.08 218.47 39.16 218.42 42.31 C 218.11 42.48 217.49 42.84 217.17 43.01 C 217.52 39.62 218.73 36.40 218.98 32.99 C 219.16 28.57 223.16 26.04 225.43 22.71 C 224.15 21.85 222.81 21.08 221.51 20.25 C 220.54 20.31 218.98 19.56 218.71 20.99 C 219.05 21.44 219.71 22.35 220.05 22.80 C 221.17 22.66 222.30 22.75 223.33 23.27 L 221.31 23.01 C 221.38 23.64 221.53 24.91 221.60 25.55 C 220.81 25.41 220.03 25.24 219.27 25.04 C 218.45 24.04 217.62 23.06 216.75 22.12 L 216.00 21.90 C 215.96 22.49 215.87 23.65 215.82 24.24 C 216.97 24.91 218.09 25.64 219.17 26.42 C 218.36 27.25 217.94 29.04 216.51 28.87 C 215.73 28.01 214.17 26.30 213.39 25.44 C 214.29 25.87 216.10 26.73 217.01 27.16 C 215.90 25.97 214.96 24.65 214.12 23.26 C 213.58 25.01 212.31 26.32 211.15 27.66 C 211.76 28.22 212.97 29.32 213.58 29.88 L 213.98 26.92 C 214.42 28.57 214.46 30.40 213.30 31.78 C 212.15 30.67 210.94 29.63 209.67 28.67 C 209.05 32.95 214.18 31.96 216.43 33.86 L 214.07 34.50 C 214.87 35.24 215.67 35.99 216.46 36.74 C 214.00 37.33 211.49 35.95 209.85 34.21 C 210.68 34.32 212.36 34.56 213.20 34.68 C 211.88 33.53 210.58 32.36 209.28 31.20 C 206.94 36.31 206.14 41.85 205.83 47.41 C 206.82 49.65 206.41 52.06 205.40 54.20 C 205.29 53.05 205.09 50.74 204.98 49.59 C 201.41 52.97 205.48 56.85 207.19 60.03 C 209.10 62.71 205.93 65.33 206.12 68.06 C 206.72 70.26 207.68 72.36 207.91 74.66 C 210.50 73.46 212.63 71.64 213.94 69.07 C 216.42 67.46 214.38 64.05 216.01 61.94 C 217.75 58.96 219.10 55.74 221.24 53.02 C 224.11 50.17 227.85 48.13 230.20 44.79 L 230.43 45.28 C 231.28 44.91 232.97 44.17 233.82 43.80 C 231.16 46.94 227.69 49.17 224.22 51.27 C 220.97 55.38 216.63 59.46 216.53 65.08 C 216.39 67.60 215.73 70.45 217.31 72.69 C 219.54 74.82 221.38 77.32 222.92 79.99 C 220.08 79.62 219.58 74.44 216.08 77.10 L 218.72 74.26 L 217.37 74.46 C 216.86 74.89 215.83 75.75 215.32 76.18 C 214.58 74.94 213.81 73.68 213.44 72.27 C 212.16 73.96 210.41 75.04 208.29 75.32 C 209.78 77.23 211.41 79.10 212.19 81.46 C 212.89 81.13 214.30 80.48 215.01 80.15 C 214.56 81.05 214.09 81.94 213.63 82.83 C 216.83 86.47 220.30 89.88 223.03 93.91 C 225.75 97.76 230.30 99.50 233.49 102.83 C 233.63 104.98 231.82 108.32 235.47 108.06 L 235.24 106.09 C 235.91 106.17 237.27 106.34 237.95 106.42 C 237.44 106.68 236.43 107.20 235.93 107.46 C 235.48 108.11 234.59 109.40 234.15 110.05 C 234.76 110.48 235.37 110.91 235.99 111.34 C 237.21 109.21 239.52 107.98 241.08 106.10 C 241.48 106.26 242.26 106.58 242.66 106.74 C 242.35 106.32 241.73 105.48 241.42 105.06 C 243.16 104.69 244.92 104.38 246.60 103.80 L 245.91 102.30 C 247.62 102.15 249.32 101.88 251.01 101.54 C 249.11 101.54 247.22 101.60 245.32 101.54 C 245.47 102.12 245.76 103.27 245.90 103.84 C 244.96 103.78 243.06 103.68 242.11 103.62 C 243.40 102.30 245.08 101.33 245.98 99.67 C 250.92 98.96 256.17 98.02 260.98 99.91 C 262.26 100.67 263.82 99.99 265.08 100.68 L 265.50 101.30 C 266.49 101.80 267.59 101.95 268.81 101.76 L 268.80 101.54 C 268.21 101.17 265.35 100.87 266.65 99.89 C 268.70 100.62 270.45 100.11 271.87 98.35 L 271.26 100.43 C 271.98 100.59 273.43 100.92 274.15 101.08 C 271.81 103.95 275.70 106.81 278.01 108.02 C 282.06 109.36 283.42 114.45 281.73 118.09 C 281.69 116.56 281.73 115.02 281.86 113.49 C 280.54 111.75 278.98 110.22 277.27 108.88 C 277.29 109.52 277.32 110.80 277.34 111.45 C 276.47 111.49 274.74 111.57 273.87 111.61 C 275.33 112.61 276.92 112.49 278.26 111.29 C 278.79 112.30 279.32 113.31 279.84 114.33 C 278.58 114.73 277.36 116.29 276.01 115.85 C 275.79 115.33 275.36 114.29 275.14 113.77 C 269.88 112.72 264.60 113.95 259.87 116.32 C 260.18 115.63 260.80 114.24 261.11 113.55 C 260.11 113.56 258.11 113.58 257.11 113.60 C 257.50 112.86 258.29 111.38 258.68 110.64 C 259.91 110.30 261.17 109.98 262.24 109.26 C 261.22 109.49 259.18 109.94 258.16 110.16 C 258.26 109.34 258.46 107.69 258.55 106.87 C 257.23 107.80 255.93 108.77 254.66 109.76 C 253.71 109.61 252.76 109.46 251.81 109.31 C 251.32 108.91 250.34 108.10 249.85 107.70 C 252.19 106.16 254.73 104.94 257.14 103.51 C 255.73 104.11 254.30 104.70 252.75 104.40 L 252.82 105.24 C 251.82 105.83 250.86 106.47 249.93 107.15 C 246.45 107.10 242.98 107.23 239.94 109.22 C 241.08 109.83 242.23 110.48 243.54 110.68 L 243.21 111.40 C 246.32 113.27 250.40 114.65 252.09 118.07 C 250.69 119.51 249.56 117.32 248.30 116.91 C 246.60 116.16 244.69 116.06 242.90 115.60 C 240.31 116.36 237.64 117.08 235.42 118.69 C 237.57 116.08 237.05 111.46 241.38 110.98 C 240.49 110.53 239.61 110.07 238.73 109.63 C 238.24 110.12 237.28 111.10 236.79 111.60 C 235.18 111.65 233.58 111.82 232.00 112.14 C 231.31 111.25 230.62 110.37 229.93 109.49 C 230.98 107.63 232.05 105.78 233.08 103.91 C 227.49 98.88 221.13 94.37 217.20 87.80 C 214.17 84.15 211.11 80.53 208.04 76.92 C 207.72 76.02 207.50 75.11 207.37 74.17 C 204.21 71.00 205.67 66.56 206.62 62.82 C 206.04 59.45 203.57 56.90 202.11 53.92 C 201.84 52.37 202.33 50.83 202.54 49.30 C 203.97 48.65 204.04 46.88 202.15 46.45 C 202.51 45.93 203.24 44.88 203.61 44.36 L 204.32 44.53 C 206.74 39.13 207.24 33.12 209.63 27.72 C 210.64 24.93 213.42 23.50 215.58 21.70 C 217.20 20.72 218.78 18.52 220.94 19.82 L 220.26 17.56 M 231.92 108.42 C 231.68 109.78 232.27 110.31 233.67 110.01 C 233.88 108.67 233.30 108.15 231.92 108.42 Z" />
<path fill="#ffffff" opacity="1.00" d=" M 224.88 35.32 C 227.68 29.68 227.02 22.00 232.62 18.10 C 232.73 19.53 232.70 20.97 232.70 22.40 C 231.10 22.66 230.12 23.51 229.77 24.94 L 231.65 22.97 L 232.77 23.66 C 232.15 24.21 230.92 25.29 230.30 25.84 C 231.89 28.12 230.73 30.83 230.48 33.33 C 228.06 35.82 225.61 38.38 223.98 41.48 L 222.26 41.09 C 224.91 40.72 223.10 37.66 224.15 36.08 C 224.39 34.79 225.99 35.55 226.77 35.51 C 226.65 35.12 226.41 34.34 226.29 33.95 L 227.66 34.27 C 228.57 32.97 229.51 31.69 230.29 30.32 C 227.92 31.26 226.77 33.76 224.88 35.32 Z" />
<path fill="#ffffff" opacity="1.00" d=" M 320.17 18.56 C 323.61 18.57 318.71 21.52 320.17 18.56 Z" />
<path fill="#ffffff" opacity="1.00" d=" M 322.52 20.80 C 323.93 25.01 325.72 29.09 327.08 33.32 C 326.62 33.34 325.71 33.39 325.25 33.41 C 325.39 34.41 325.54 35.41 325.70 36.40 C 326.20 35.34 326.70 34.28 327.21 33.22 C 327.75 34.78 328.35 36.32 328.97 37.85 C 328.44 37.33 327.38 36.30 326.84 35.78 C 326.44 37.54 326.01 39.29 325.54 41.03 C 324.16 38.95 324.13 36.38 323.48 34.05 C 322.49 29.73 320.47 25.67 319.97 21.25 C 320.58 22.34 321.09 23.48 321.48 24.66 C 322.47 27.58 323.46 30.51 324.69 33.34 C 326.13 29.67 323.69 26.37 322.55 23.05 L 321.48 24.66 C 321.74 23.70 322.26 21.77 322.52 20.80 Z" />
<path fill="#ffffff" opacity="1.00" d=" M 344.05 30.73 C 341.81 29.73 340.60 26.91 343.60 25.83 C 345.58 30.56 345.83 35.76 347.81 40.49 C 347.24 40.99 346.67 41.48 346.10 41.97 C 349.16 45.96 349.74 51.53 347.41 56.00 C 348.61 52.29 348.22 48.58 347.12 44.90 C 346.54 45.09 345.38 45.48 344.81 45.68 C 344.34 43.73 343.80 41.80 343.41 39.83 C 341.86 38.31 340.11 36.94 339.05 35.00 C 341.78 35.56 344.04 38.10 345.00 40.58 C 345.50 40.06 346.00 39.54 346.51 39.01 C 345.33 37.56 344.85 35.34 342.81 34.82 C 342.59 33.25 342.36 31.69 342.14 30.13 L 344.05 30.73 Z" />
<path fill="#ffffff" opacity="1.00" d=" M 250.09 31.28 C 251.79 29.85 253.85 28.99 255.88 28.17 C 255.62 30.34 254.32 32.18 252.61 33.47 C 246.87 37.82 240.18 40.65 233.78 43.88 C 234.74 42.36 236.51 41.78 237.95 40.84 C 239.90 39.44 242.70 38.80 243.90 36.64 C 246.11 36.79 247.63 35.46 247.76 33.18 C 246.39 34.04 245.11 35.00 243.86 36.03 C 243.43 35.74 242.56 35.17 242.12 34.89 L 242.79 36.67 C 241.98 36.56 240.34 36.35 239.52 36.25 C 241.21 33.65 244.65 33.37 247.25 32.11 C 249.06 31.38 249.34 33.77 249.85 34.84 L 250.22 33.39 C 250.77 33.41 251.86 33.46 252.40 33.48 L 251.83 32.03 L 252.44 31.91 L 252.40 31.31 C 252.26 31.49 251.98 31.85 251.83 32.03 C 251.40 31.84 250.53 31.47 250.09 31.28 Z" />
<path fill="#ffffff" opacity="1.00" d=" M 279.52 28.53 C 281.20 28.64 282.92 28.78 284.43 29.58 C 283.24 29.46 280.84 29.22 279.64 29.10 C 281.13 31.51 284.18 31.30 286.21 32.89 C 287.64 33.94 289.12 34.95 290.75 35.69 C 291.50 36.78 292.22 37.88 292.94 38.99 C 292.41 40.99 293.03 42.94 293.96 44.71 C 294.42 44.16 295.35 43.06 295.81 42.51 C 295.86 44.47 295.91 46.43 295.99 48.39 C 294.85 47.12 293.78 45.79 292.69 44.49 C 292.09 48.46 292.66 53.42 289.83 56.59 C 287.72 55.90 285.83 54.68 283.84 53.73 C 283.76 54.35 283.60 55.61 283.52 56.24 C 283.39 55.18 283.27 54.12 283.17 53.06 C 285.42 53.54 287.61 54.25 289.75 55.10 C 290.71 53.19 291.89 51.27 291.68 49.03 C 291.64 44.62 293.21 39.13 289.16 35.93 C 286.87 33.00 282.49 33.09 280.24 30.30 L 279.21 30.50 C 279.29 30.00 279.45 29.02 279.52 28.53 Z" />
<path fill="#ffffff" opacity="1.00" d=" M 215.07 32.37 C 213.76 31.54 214.82 29.06 216.35 29.83 C 216.26 30.36 216.08 31.42 216.00 31.96 L 215.07 32.37 Z" />
<path fill="#ffffff" opacity="1.00" d=" M 230.35 34.33 C 231.47 36.11 233.40 36.86 235.45 36.80 C 235.52 37.45 235.64 38.75 235.71 39.40 C 232.89 38.78 231.64 41.66 230.02 43.32 C 230.32 41.29 231.39 39.55 232.55 37.91 C 231.81 38.11 230.33 38.52 229.59 38.72 C 229.61 39.20 229.65 40.16 229.67 40.64 C 228.79 40.58 227.01 40.48 226.13 40.43 C 227.42 38.32 228.94 36.37 230.35 34.33 Z" />
<path fill="#ffffff" opacity="1.00" d=" M 235.87 37.18 C 235.04 35.68 237.55 34.66 238.65 35.33 C 239.13 36.63 236.94 38.08 235.87 37.18 Z" />
<path fill="#ffffff" opacity="1.00" d=" M 210.38 37.16 C 211.89 37.22 214.35 37.54 215.13 38.93 C 213.68 40.08 210.77 38.83 210.38 37.16 Z" />
<path fill="#ffffff" opacity="1.00" d=" M 209.05 39.07 C 211.19 39.64 213.52 40.13 215.18 41.73 C 214.50 41.98 213.15 42.49 212.47 42.74 C 213.36 42.70 215.15 42.63 216.04 42.59 C 216.10 43.99 216.18 45.38 216.28 46.77 L 218.50 46.44 L 218.90 45.00 C 219.52 45.42 220.15 45.84 220.73 46.32 C 219.98 47.63 219.17 48.91 218.32 50.16 L 218.53 47.32 C 216.83 48.62 215.16 49.96 213.26 50.95 C 213.32 49.57 213.79 48.37 214.67 47.34 C 214.01 47.34 212.69 47.35 212.03 47.35 C 211.35 45.47 211.33 43.46 211.49 41.49 C 210.88 40.88 209.66 39.67 209.05 39.07 Z" />
<path fill="#ffffff" opacity="1.00" d=" M 324.98 46.85 C 325.84 44.30 327.49 42.08 329.01 39.87 C 329.65 43.04 327.53 45.50 326.29 48.15 C 327.35 47.02 328.26 45.77 329.28 44.60 C 329.97 47.16 329.68 49.80 329.83 52.40 C 329.38 52.52 328.49 52.76 328.05 52.87 C 327.52 53.44 326.45 54.58 325.92 55.15 C 326.18 55.56 326.44 55.97 326.72 56.39 C 327.53 55.48 329.15 53.66 329.96 52.76 C 329.58 53.64 328.81 55.42 328.43 56.31 C 325.14 59.00 323.94 63.03 320.67 65.70 L 323.11 65.16 C 322.64 66.14 322.25 67.14 321.83 68.13 C 320.91 66.97 319.94 65.84 318.75 64.95 C 318.61 65.09 318.32 65.38 318.18 65.52 C 319.07 66.72 319.78 68.05 320.38 69.42 C 321.00 69.74 321.62 70.07 322.24 70.39 L 320.01 70.11 L 320.43 71.66 C 320.24 71.69 319.85 71.74 319.66 71.77 C 319.16 68.63 317.09 65.94 314.40 64.31 C 318.82 64.58 322.36 61.59 324.31 57.86 C 324.58 54.19 326.28 50.59 324.98 46.85 Z" />
<path fill="#ffffff" opacity="1.00" d=" M 266.34 42.79 C 266.87 42.68 267.94 42.46 268.47 42.35 C 272.49 46.19 276.37 50.52 281.90 52.16 C 281.74 52.57 281.42 53.39 281.27 53.80 C 282.12 55.78 282.40 58.35 284.62 59.32 C 286.57 60.34 287.68 62.26 288.93 63.98 C 287.62 66.74 286.25 69.49 285.50 72.48 C 284.89 72.78 283.65 73.37 283.04 73.66 C 283.34 74.27 283.95 75.47 284.26 76.08 L 283.16 76.33 C 282.54 75.35 281.84 74.42 281.07 73.55 C 281.28 74.96 281.58 76.35 281.88 77.74 C 281.35 77.63 280.28 77.41 279.75 77.30 C 279.39 75.63 278.96 73.99 278.53 72.34 C 280.11 72.41 281.68 72.64 283.22 73.02 C 286.29 70.54 286.55 66.45 287.43 62.89 C 282.50 59.79 278.18 55.90 273.62 52.32 C 270.36 49.89 267.98 46.48 266.34 42.79 M 267.96 43.52 C 268.25 44.06 268.84 45.15 269.13 45.69 L 269.69 45.46 C 269.89 43.99 269.31 43.34 267.96 43.52 M 269.69 45.46 C 271.31 50.46 276.39 54.00 280.99 56.48 C 279.80 55.30 280.47 51.51 277.82 52.29 C 276.96 50.14 274.65 49.45 273.06 48.00 C 271.91 47.20 271.13 45.74 269.69 45.46 Z" />
<path fill="#ffffff" opacity="1.00" d=" M 230.20 44.79 C 228.16 46.32 227.85 42.11 230.02 43.32 C 230.07 43.69 230.16 44.43 230.20 44.79 Z" />
<path fill="#ffffff" opacity="1.00" d=" M 306.71 42.77 C 310.34 47.73 309.54 54.54 311.91 60.12 C 310.80 60.72 309.68 61.29 308.56 61.84 L 308.93 62.68 C 310.02 62.22 311.13 61.79 312.24 61.36 C 312.26 61.84 312.28 62.81 312.29 63.29 C 309.87 63.82 308.53 66.26 306.50 67.51 C 306.21 67.93 305.63 68.76 305.34 69.18 L 305.48 66.70 L 304.16 68.04 C 304.26 68.68 304.48 69.97 304.58 70.61 L 302.73 71.96 C 302.39 71.16 302.06 70.37 301.74 69.57 C 302.78 67.74 303.83 65.92 304.90 64.10 C 303.81 58.60 303.82 52.98 303.39 47.42 L 305.69 47.26 C 305.31 48.61 304.57 51.31 304.19 52.66 C 305.23 51.43 306.17 50.11 307.00 48.71 C 306.94 50.19 306.60 51.64 305.70 52.83 C 305.16 55.02 305.27 57.28 305.45 59.50 C 307.60 58.04 308.83 55.49 309.54 53.05 C 309.26 51.04 308.64 49.09 308.28 47.09 C 305.57 46.98 306.47 44.55 306.71 42.77 M 309.09 56.75 C 307.93 57.36 307.98 59.54 309.17 60.10 C 310.24 59.53 310.21 57.26 309.09 56.75 Z" />
<path fill="#ffffff" opacity="1.00" d=" M 210.72 48.42 C 211.39 48.36 212.74 48.25 213.41 48.19 C 212.47 49.28 211.51 50.35 210.56 51.44 C 212.46 52.43 211.45 54.11 211.02 55.56 C 211.46 55.46 212.33 55.27 212.77 55.17 C 212.76 55.83 212.73 57.14 212.72 57.80 C 212.34 57.73 211.58 57.59 211.19 57.52 C 210.18 60.53 208.60 57.48 207.70 56.20 C 207.85 54.15 211.96 53.00 209.91 50.97 C 210.11 50.33 210.52 49.06 210.72 48.42 Z" />
<path fill="#ffffff" opacity="1.00" d=" M 344.83 52.70 C 343.00 52.29 343.27 48.96 344.99 48.54 C 346.31 49.26 346.14 52.02 344.83 52.70 Z" />
<path fill="#ffffff" opacity="1.00" d=" M 340.53 53.80 C 341.60 52.74 342.18 51.33 342.94 50.05 C 342.85 51.82 342.74 53.59 342.68 55.36 C 341.89 55.73 341.11 56.10 340.33 56.49 C 340.39 55.59 340.45 54.69 340.53 53.80 Z" />
<path fill="#ffffff" opacity="1.00" d=" M 207.42 54.02 C 206.31 52.72 209.25 51.17 209.21 53.11 C 208.77 53.33 207.87 53.79 207.42 54.02 Z" />
<path fill="#ffffff" opacity="1.00" d=" M 253.42 55.67 C 255.23 57.18 256.82 58.92 258.30 60.76 C 260.45 63.49 263.61 65.10 266.34 67.15 C 265.48 67.15 263.75 67.15 262.88 67.15 C 265.89 69.66 268.79 72.29 271.89 74.69 C 272.50 74.02 273.09 73.32 273.66 72.60 C 272.94 72.22 271.52 71.46 270.81 71.07 L 273.25 71.19 C 272.02 69.43 269.75 69.02 268.02 67.94 C 271.05 68.26 276.51 68.78 275.52 73.14 C 275.71 72.52 276.10 71.27 276.29 70.65 C 277.25 71.69 278.07 72.84 278.64 74.15 C 277.28 74.42 275.93 74.69 274.58 74.96 L 274.33 73.61 C 273.67 74.40 273.22 75.52 272.20 75.90 C 269.76 73.65 266.84 72.04 264.22 70.01 C 263.75 73.23 261.41 77.21 264.49 79.87 C 264.40 77.81 264.37 75.75 264.37 73.69 C 265.47 75.56 265.76 77.72 265.40 79.84 C 265.48 80.92 268.03 84.02 265.84 83.83 C 265.16 82.94 263.79 81.17 263.11 80.28 C 263.52 82.71 263.20 85.39 264.65 87.55 L 262.55 87.40 C 262.73 81.67 260.11 75.00 263.70 69.93 C 261.88 68.38 259.79 66.95 258.72 64.74 C 259.48 65.30 261.00 66.41 261.76 66.97 C 261.17 62.64 256.20 60.54 253.63 57.40 C 254.28 60.88 257.94 62.52 258.79 65.81 C 256.58 64.16 254.93 61.94 253.53 59.60 C 253.49 58.29 253.45 56.98 253.42 55.67 Z" />
<path fill="#ffffff" opacity="1.00" d=" M 330.38 56.43 C 332.15 57.70 327.84 61.37 326.89 59.46 C 327.83 58.28 328.97 57.04 330.38 56.43 Z" />
<path fill="#ffffff" opacity="1.00" d=" M 333.28 61.25 C 333.91 59.28 334.24 56.31 336.69 55.88 C 336.19 58.44 335.65 60.98 334.99 63.50 C 334.18 63.52 332.54 63.54 331.73 63.55 C 332.24 62.78 332.76 62.02 333.28 61.25 Z" />
<path fill="#ffffff" opacity="1.00" d=" M 344.06 57.97 C 344.56 57.78 345.57 57.39 346.07 57.20 C 343.84 59.61 341.18 61.60 338.97 64.04 C 335.12 67.92 329.91 69.73 325.10 72.07 C 313.79 78.09 302.04 83.31 290.98 89.84 C 288.07 92.04 285.11 94.20 281.88 95.91 C 281.13 96.71 280.39 97.51 279.64 98.30 C 278.52 96.39 277.25 94.52 276.75 92.33 C 277.34 92.19 278.51 91.91 279.10 91.78 L 277.33 91.95 C 276.49 89.89 277.91 88.34 278.80 86.75 C 278.63 87.45 278.29 88.86 278.12 89.56 C 282.05 87.87 280.10 92.86 280.43 94.75 C 282.37 94.99 283.85 94.15 284.93 92.60 C 283.05 91.10 281.61 89.17 280.19 87.26 C 280.54 87.18 281.24 87.03 281.59 86.96 C 282.81 88.88 284.25 90.68 286.09 92.04 C 288.11 90.34 290.29 88.85 292.57 87.51 C 291.91 87.20 290.60 86.58 289.95 86.27 C 289.82 86.61 289.57 87.30 289.45 87.64 L 288.58 87.19 C 288.45 88.55 287.84 89.68 286.76 90.58 C 284.70 89.74 283.51 87.76 282.41 85.96 C 286.33 84.21 289.87 81.75 293.17 79.01 C 295.66 79.44 297.59 81.14 299.09 83.07 C 298.11 82.63 297.15 82.16 296.21 81.67 L 295.93 83.65 C 295.29 83.51 293.99 83.25 293.34 83.11 C 292.97 82.69 292.23 81.86 291.86 81.44 C 292.59 82.91 293.73 84.10 294.76 85.36 L 291.89 85.30 C 291.84 83.91 291.10 83.21 289.69 83.20 C 289.77 84.58 290.50 85.28 291.89 85.30 C 292.09 85.78 292.49 86.75 292.70 87.23 C 299.16 85.45 304.50 81.24 310.73 78.90 C 308.50 76.34 305.78 74.31 302.89 72.55 C 305.63 71.20 307.76 69.05 310.09 67.15 C 311.51 65.97 313.42 66.44 314.57 67.74 C 314.43 67.10 314.17 65.82 314.03 65.17 C 315.60 66.29 316.65 67.92 316.97 69.80 C 317.38 71.03 317.79 72.26 318.21 73.49 L 316.69 73.54 C 316.51 72.21 316.35 70.87 316.20 69.53 C 315.67 69.99 314.61 70.89 314.08 71.34 C 314.66 72.88 315.93 74.03 316.88 75.36 C 320.13 73.86 323.23 72.03 326.57 70.72 C 333.17 67.70 339.13 63.29 344.06 57.97 M 309.97 68.77 C 310.67 71.35 311.66 73.84 312.85 76.24 C 310.66 74.95 308.99 73.00 306.99 71.46 L 307.20 72.43 C 308.39 74.54 309.75 76.54 311.03 78.60 C 312.75 77.65 314.52 76.79 316.35 76.07 C 315.84 75.01 314.97 74.36 313.75 74.12 C 312.26 72.50 311.13 70.62 309.97 68.77 M 280.11 95.27 C 280.55 96.13 280.55 96.13 280.11 95.27 Z" />
<path fill="#ffffff" opacity="1.00" d=" M 328.22 61.31 C 329.36 60.97 330.51 60.60 331.63 60.19 C 330.92 62.48 330.61 65.04 328.66 66.67 C 328.01 65.95 327.23 65.54 326.30 65.43 C 326.99 64.08 327.64 62.71 328.22 61.31 Z" />
<path fill="#ffffff" opacity="1.00" d=" M 242.11 66.02 C 242.57 65.89 243.49 65.63 243.95 65.49 C 241.56 69.60 239.12 74.07 239.61 79.01 C 239.43 85.75 241.91 92.09 244.37 98.24 C 243.99 98.31 243.23 98.46 242.85 98.53 C 242.01 100.34 241.00 102.05 240.08 103.82 C 239.15 102.31 238.28 100.73 236.71 99.77 C 236.52 100.59 236.14 102.24 235.95 103.06 C 235.63 100.09 234.17 97.02 236.66 94.26 L 233.00 98.28 C 231.48 95.86 234.02 94.29 235.36 92.65 C 236.64 93.80 237.98 94.89 239.27 96.04 C 240.43 96.57 241.57 97.13 242.73 97.67 C 241.14 95.92 239.22 94.50 237.72 92.67 C 238.29 92.48 239.43 92.09 240.01 91.89 C 239.43 91.84 238.28 91.73 237.70 91.68 L 237.88 90.20 C 238.42 89.97 239.49 89.52 240.03 89.29 L 237.94 89.60 C 237.85 88.49 237.77 87.37 237.70 86.26 L 238.77 86.48 C 238.30 86.00 237.38 85.05 236.91 84.57 C 237.18 86.82 237.66 89.11 236.75 91.29 C 235.58 87.42 235.13 83.44 235.87 79.43 L 237.40 79.36 C 237.42 80.08 237.47 81.50 237.49 82.22 C 238.03 79.55 236.89 76.85 237.42 74.21 C 238.79 71.38 240.48 68.72 242.11 66.02 Z" />
<path fill="#ffffff" opacity="1.00" d=" M 301.01 71.25 C 302.29 72.75 303.82 73.99 305.29 75.29 C 304.51 75.99 303.75 76.71 302.98 77.40 L 302.15 76.12 C 301.45 75.91 300.06 75.48 299.36 75.27 C 299.89 73.92 300.45 72.58 301.01 71.25 Z" />
<path fill="#ffffff" opacity="1.00" d=" M 297.89 74.73 C 299.65 75.81 304.21 77.46 301.87 79.75 L 299.28 78.46 C 299.83 79.43 300.91 81.37 301.46 82.34 C 299.80 81.07 298.25 79.68 296.68 78.32 C 294.68 77.25 297.33 75.77 297.89 74.73 Z" />
<path fill="#ffffff" opacity="1.00" d=" M 274.12 76.13 C 275.52 75.22 276.67 75.59 277.59 77.27 C 278.66 77.89 279.74 78.50 280.89 79.00 C 281.75 80.65 282.40 82.41 282.74 84.25 C 280.83 82.14 279.74 79.35 277.31 77.71 C 276.34 77.19 274.06 77.78 274.12 76.13 Z" />
<path fill="#ffffff" opacity="1.00" d=" M 305.02 78.35 C 305.31 78.66 305.31 78.66 305.02 78.35 Z" />
<path fill="#ffffff" opacity="1.00" d=" M 217.93 81.38 C 219.75 79.86 221.94 81.13 223.93 81.43 L 223.25 82.70 L 225.08 82.46 C 224.70 83.28 223.94 84.93 223.56 85.75 C 222.32 85.91 221.54 85.36 221.22 84.11 C 220.64 84.22 219.49 84.45 218.92 84.57 C 219.40 83.77 220.37 82.17 220.85 81.38 C 220.12 81.38 218.66 81.38 217.93 81.38 Z" />
<path fill="#ffffff" opacity="1.00" d=" M 224.74 83.88 C 227.73 85.19 230.44 87.46 231.90 90.43 C 230.35 91.78 228.74 93.13 226.52 92.97 L 226.22 90.12 L 227.58 90.53 L 227.28 88.96 C 227.73 89.08 228.64 89.33 229.10 89.45 L 228.81 88.54 L 227.15 88.91 C 229.14 83.93 225.53 88.51 226.81 89.63 C 225.95 89.60 224.23 89.56 223.37 89.54 C 224.79 87.95 224.41 85.79 224.74 83.88 Z" />
<path fill="#ffffff" opacity="1.00" d=" M 264.26 89.18 L 265.52 90.29 L 266.10 92.61 C 266.53 91.51 267.40 89.29 267.84 88.18 C 268.01 89.59 268.36 92.41 268.54 93.82 C 269.12 93.85 270.29 93.92 270.87 93.95 C 272.80 92.51 274.72 91.05 276.79 89.80 C 276.78 90.93 276.74 93.19 276.72 94.32 C 276.02 93.90 274.63 93.08 273.94 92.67 C 275.36 94.49 276.59 96.44 277.71 98.46 C 275.68 97.58 275.04 99.36 274.11 100.56 C 273.07 98.80 272.01 97.06 270.94 95.33 C 271.67 95.55 273.13 95.98 273.87 96.19 C 273.56 95.64 272.93 94.53 272.62 93.97 C 271.53 94.81 270.34 95.52 269.47 96.60 C 267.47 96.35 265.47 96.05 263.62 95.21 C 263.66 96.26 263.72 98.35 263.76 99.39 L 262.63 99.66 C 262.76 96.68 262.64 93.70 262.41 90.72 C 263.17 91.26 264.70 92.32 265.46 92.86 C 265.16 91.94 264.56 90.10 264.26 89.18 Z" />
<path fill="#ffffff" opacity="1.00" d=" M 232.09 90.51 C 232.70 90.80 233.92 91.39 234.53 91.68 C 232.86 93.34 232.50 97.58 229.38 96.49 C 229.70 96.03 230.36 95.12 230.68 94.66 C 230.34 93.08 231.41 91.83 232.09 90.51 Z" />
<path fill="#ffffff" opacity="1.00" d=" M 194.75 99.06 C 194.92 96.29 196.62 92.30 200.06 93.20 C 199.04 93.95 197.97 94.66 196.91 95.35 C 196.75 96.19 196.44 97.87 196.28 98.71 L 197.87 98.20 C 197.70 99.10 197.37 100.90 197.20 101.81 C 197.86 101.63 199.19 101.28 199.86 101.10 C 199.18 102.44 198.47 103.75 197.82 105.10 C 198.53 104.44 199.94 103.11 200.65 102.44 C 200.61 103.21 200.52 104.75 200.48 105.52 L 202.49 105.05 C 201.59 106.88 198.83 109.01 201.16 110.96 C 201.26 109.96 201.46 107.96 201.55 106.96 C 203.23 107.34 203.23 109.18 203.87 110.42 L 202.56 110.47 C 202.37 111.87 202.18 113.27 202.00 114.67 C 198.39 110.22 194.68 105.04 194.75 99.06 Z" />
<path fill="#ffffff" opacity="1.00" d=" M 202.34 93.38 C 208.20 94.99 213.72 97.64 218.60 101.26 C 222.44 104.25 223.42 110.22 228.40 111.81 C 228.40 114.08 229.19 116.22 229.80 118.37 L 228.48 118.31 C 228.61 119.54 228.63 120.78 228.53 122.02 C 227.36 119.96 226.40 117.78 225.24 115.71 C 225.25 118.22 226.38 120.54 226.51 123.03 C 225.71 125.03 224.60 121.81 225.07 120.85 C 224.26 122.16 223.85 123.95 222.11 124.28 C 222.68 122.42 223.38 120.56 224.62 119.03 C 224.60 116.58 222.70 113.22 225.04 111.40 C 222.07 108.78 220.68 104.92 217.74 102.29 C 213.56 98.03 207.62 96.36 202.24 94.18 C 202.26 93.98 202.32 93.58 202.34 93.38 Z" />
<path fill="#ffffff" opacity="1.00" d=" M 266.27 97.60 C 267.55 97.23 270.10 97.46 270.70 98.62 C 269.50 99.27 265.62 99.84 266.27 97.60 Z" />
<path fill="#ffffff" opacity="1.00" d=" M 273.96 102.90 C 274.50 101.71 275.48 100.52 276.69 99.99 L 276.96 100.46 C 276.61 101.11 275.91 102.41 275.56 103.07 C 275.16 103.03 274.36 102.95 273.96 102.90 Z" />
<path fill="#ffffff" opacity="1.00" d=" M 210.46 103.38 L 210.75 103.32 C 209.24 106.11 212.32 106.24 212.93 104.32 C 212.78 105.10 212.47 106.65 212.31 107.42 L 213.76 107.56 C 212.32 109.50 213.06 113.36 209.61 112.71 C 210.32 110.76 211.00 108.81 211.66 106.85 C 210.47 107.81 209.91 109.20 209.40 110.59 C 208.88 110.91 207.85 111.55 207.33 111.87 C 207.63 112.32 208.24 113.22 208.54 113.67 C 207.43 114.67 208.39 115.85 208.80 116.83 L 209.75 114.61 C 210.14 116.34 210.38 118.11 210.50 119.89 C 208.58 119.67 207.35 118.75 208.37 116.32 C 208.01 116.50 207.29 116.88 206.93 117.06 C 206.69 117.83 206.23 119.36 206.00 120.12 C 210.89 121.31 215.28 123.88 219.09 127.12 C 221.15 127.21 222.86 128.44 224.55 129.48 C 224.24 129.72 223.63 130.22 223.32 130.46 C 218.26 127.37 213.30 124.01 207.69 121.97 C 205.21 121.22 203.67 119.16 202.91 116.77 C 203.43 116.74 204.48 116.68 205.00 116.65 C 205.05 116.24 205.14 115.41 205.19 115.00 C 204.33 115.15 202.61 115.46 201.74 115.61 C 203.34 112.36 206.41 109.54 205.69 105.59 C 205.23 106.23 204.30 107.51 203.84 108.15 L 203.26 106.04 C 203.64 105.64 204.38 104.85 204.76 104.45 C 205.22 104.44 206.16 104.42 206.62 104.41 C 206.58 105.02 206.49 106.26 206.45 106.87 C 207.30 105.91 208.13 104.94 208.96 103.96 L 208.11 106.62 C 210.38 107.55 210.35 104.89 210.46 103.38 M 207.53 108.71 C 207.23 109.22 206.63 110.24 206.33 110.76 C 207.61 111.90 208.71 109.40 207.53 108.71 Z" />
<path fill="#ffffff" opacity="1.00" d=" M 214.23 109.44 C 216.06 110.15 214.53 114.13 212.71 113.56 C 212.05 112.21 213.18 110.30 214.23 109.44 Z" />
<path fill="#ffffff" opacity="1.00" d=" M 220.23 113.84 C 220.26 113.00 221.98 110.11 222.34 112.32 C 222.57 114.40 222.75 116.48 223.08 118.54 L 221.87 118.25 C 221.79 116.79 221.61 115.33 221.34 113.89 C 220.31 114.71 219.28 115.54 218.26 116.38 C 219.00 115.18 219.57 113.90 219.51 112.46 L 220.23 113.84 Z" />
<path fill="#ffffff" opacity="1.00" d=" M 229.20 112.20 C 230.84 112.23 231.16 115.06 230.70 116.34 C 229.27 116.21 228.98 113.44 229.20 112.20 Z" />
<path fill="#ffffff" opacity="1.00" d=" M 267.60 114.76 C 269.79 113.65 272.25 114.15 274.56 114.51 C 274.64 114.80 274.81 115.38 274.90 115.67 C 274.40 115.73 273.39 115.86 272.89 115.92 L 272.67 116.83 C 274.20 116.73 275.73 116.62 277.26 116.50 C 277.60 117.20 278.27 118.58 278.61 119.27 C 275.93 119.41 273.20 119.83 270.74 120.94 C 269.76 121.22 269.49 122.03 269.54 122.96 C 270.88 119.85 274.88 119.76 277.65 120.68 C 278.09 120.27 278.52 119.87 278.96 119.46 C 278.86 121.44 279.57 123.04 281.11 124.25 C 281.19 123.35 281.37 121.56 281.46 120.67 C 282.01 123.79 282.59 127.01 285.38 128.99 C 284.87 129.90 284.43 130.86 284.27 131.91 C 285.24 131.50 286.21 131.08 287.19 130.66 C 289.48 134.22 293.61 136.51 294.51 140.93 C 296.76 144.72 297.49 149.59 294.77 153.36 C 292.80 153.41 291.46 154.82 291.03 156.68 L 289.79 156.60 C 289.78 154.64 289.71 152.69 289.50 150.74 C 289.39 151.76 289.18 153.79 289.07 154.81 C 288.46 154.21 287.85 153.62 287.25 153.03 C 286.42 151.12 284.07 151.36 282.52 150.42 C 282.02 149.43 281.62 148.40 281.30 147.35 C 279.57 145.78 277.98 144.07 276.34 142.42 C 276.81 142.10 277.77 141.45 278.24 141.12 C 277.19 140.65 276.05 140.38 274.93 140.15 C 276.21 143.00 277.79 146.20 280.66 147.73 C 280.99 148.93 281.32 150.14 281.66 151.35 C 283.76 152.93 280.83 154.54 281.16 156.52 C 281.67 156.55 282.71 156.61 283.22 156.64 C 283.47 157.38 283.97 158.85 284.21 159.58 C 284.41 156.93 284.38 154.27 284.52 151.62 C 286.10 153.36 285.31 155.92 285.88 158.00 L 287.10 154.08 C 287.81 155.04 288.55 155.99 289.30 156.93 C 288.83 158.07 288.48 159.25 288.25 160.46 C 285.54 161.56 283.18 160.33 281.07 158.65 C 281.67 160.04 282.27 161.43 282.89 162.82 C 280.91 161.43 278.92 160.05 276.80 158.88 C 277.24 157.77 276.24 155.51 277.82 155.18 C 278.53 156.72 278.76 158.58 280.22 159.68 C 280.52 157.27 280.55 154.84 280.49 152.42 L 279.40 153.29 C 277.95 154.68 276.42 152.60 274.92 152.40 C 274.46 151.22 274.99 149.13 272.95 149.24 C 274.38 148.25 275.52 146.85 276.07 145.20 C 274.87 145.66 273.79 147.54 272.40 146.18 C 272.32 145.59 272.17 144.40 272.09 143.81 C 271.92 142.54 272.65 141.47 273.18 140.39 C 272.28 140.22 270.48 139.89 269.58 139.72 C 267.75 141.36 265.41 143.46 266.40 146.26 C 264.97 145.38 263.81 144.20 262.86 142.85 C 261.70 144.51 261.28 147.04 258.84 147.35 C 259.23 145.31 260.48 143.52 260.65 141.42 C 261.03 141.36 261.78 141.23 262.16 141.17 C 261.02 140.56 259.94 139.85 258.90 139.11 C 257.62 140.52 256.47 142.05 255.17 143.45 C 255.01 139.51 257.77 136.37 260.31 133.69 C 262.89 133.15 263.96 130.23 266.05 128.81 C 264.19 129.46 262.02 132.87 260.27 131.23 C 260.68 130.64 261.51 129.45 261.92 128.85 C 260.81 129.76 259.70 130.67 258.59 131.58 C 257.89 130.83 257.08 130.24 256.15 129.82 C 256.77 128.83 257.42 127.85 257.88 126.77 C 259.24 126.14 260.60 125.53 261.97 124.92 L 260.07 127.83 C 261.77 127.20 263.50 126.60 265.21 125.95 C 266.45 126.57 267.32 127.63 268.16 128.71 C 268.38 128.15 268.82 127.03 269.04 126.47 C 265.49 127.98 266.96 123.90 266.59 121.90 C 265.06 121.72 263.52 121.64 261.98 121.65 C 263.08 120.58 264.50 119.96 265.90 119.37 C 265.34 118.55 264.78 117.74 264.23 116.92 C 263.39 117.42 261.72 118.40 260.88 118.90 C 262.63 117.04 264.47 115.20 266.79 114.06 C 267.41 114.76 268.02 115.46 268.64 116.16 C 267.86 116.41 266.29 116.90 265.51 117.14 C 266.97 117.00 268.43 116.82 269.88 116.60 C 269.31 116.14 268.17 115.22 267.60 114.76 M 277.86 141.81 C 279.95 143.31 282.09 145.58 284.92 145.22 C 283.99 144.05 283.04 142.91 282.07 141.79 C 281.02 141.79 278.91 141.80 277.86 141.81 Z" />
<path fill="#ffffff" opacity="1.00" d=" M 241.23 120.51 C 242.40 118.96 244.68 116.72 246.11 119.32 C 246.12 121.43 243.99 119.50 242.90 119.42 C 242.48 119.69 241.65 120.24 241.23 120.51 Z" />
<path fill="#ffffff" opacity="1.00" d=" M 256.35 123.24 C 257.16 121.81 259.74 123.07 258.48 124.48 C 257.62 125.69 255.06 124.68 256.35 123.24 Z" />
<path fill="#ffffff" opacity="1.00" d=" M 238.76 128.67 C 236.79 128.77 235.74 126.05 236.96 124.59 C 238.33 125.97 239.93 127.09 241.73 127.85 C 243.30 127.49 244.90 127.31 246.52 127.31 L 246.19 126.10 C 247.93 126.79 249.55 126.08 251.17 125.44 C 252.83 126.31 252.32 128.23 251.70 129.57 L 251.04 127.75 C 250.10 128.35 249.15 128.95 248.21 129.54 C 247.68 129.15 246.62 128.38 246.09 127.99 C 245.37 129.52 244.68 131.23 242.66 131.21 C 242.67 130.58 242.70 129.32 242.71 128.69 C 242.05 129.53 241.40 130.38 240.75 131.23 C 240.08 130.38 239.42 129.52 238.76 128.67 Z" />
<path fill="#ffffff" opacity="1.00" d=" M 231.25 134.79 C 230.30 133.48 230.71 132.10 231.46 130.84 C 231.40 131.53 231.29 132.91 231.23 133.60 L 232.11 133.66 C 232.29 135.05 232.50 136.45 232.76 137.84 C 233.71 142.38 236.43 146.20 238.14 150.41 C 238.61 150.00 239.08 149.60 239.56 149.20 C 239.43 147.85 239.54 146.51 239.87 145.18 C 241.00 145.84 242.14 146.48 243.36 147.00 C 243.41 147.98 243.47 148.95 243.54 149.93 C 243.10 149.81 242.23 149.57 241.79 149.45 C 240.83 150.76 238.16 151.78 239.90 153.83 C 238.61 152.79 237.02 151.94 236.54 150.24 L 236.37 150.14 C 236.41 151.42 236.31 152.69 236.06 153.94 C 236.28 154.67 236.52 155.40 236.76 156.14 C 236.07 156.28 234.70 156.58 234.01 156.73 C 233.13 155.49 232.32 154.19 231.80 152.76 C 231.43 153.13 231.06 153.50 230.70 153.87 C 231.17 154.73 232.11 156.46 232.58 157.32 C 230.28 156.72 229.38 154.36 228.33 152.51 C 229.73 152.10 231.19 150.79 232.67 151.70 C 234.33 149.33 232.52 147.05 232.41 144.58 C 231.99 144.51 231.15 144.36 230.73 144.29 C 229.15 141.07 228.19 137.56 227.44 134.06 C 231.05 136.52 229.47 141.95 233.07 144.24 C 233.99 141.02 231.76 137.96 231.25 134.79 Z" />
<path fill="#ffffff" opacity="1.00" d=" M 221.81 133.43 C 222.00 133.12 222.38 132.51 222.57 132.20 C 222.80 133.51 223.02 134.82 223.25 136.13 C 222.95 137.49 222.69 138.85 222.43 140.21 C 222.86 141.00 223.29 141.79 223.72 142.58 C 223.32 142.73 222.50 143.03 222.10 143.18 C 221.27 141.08 219.84 139.19 220.30 136.78 C 221.50 136.00 222.01 134.88 221.81 133.43 Z" />
<path fill="#ffffff" opacity="1.00" d=" M 244.82 133.74 C 244.81 133.36 244.80 132.60 244.80 132.22 L 245.31 132.31 C 244.68 135.97 247.55 132.30 248.85 131.98 C 246.75 134.88 244.28 137.49 242.01 140.26 C 242.20 139.49 242.57 137.96 242.75 137.19 L 241.17 137.90 C 241.40 135.92 242.12 134.39 243.87 133.44 L 244.82 133.74 Z" />
<path fill="#ffffff" opacity="1.00" d=" M 252.89 131.85 C 253.07 132.11 253.44 132.64 253.62 132.91 C 252.37 135.64 251.15 138.39 250.16 141.23 C 252.20 138.87 253.59 136.01 255.81 133.80 C 256.40 133.77 257.59 133.73 258.18 133.70 C 257.26 134.62 256.26 135.47 255.25 136.28 C 254.62 136.82 253.37 137.89 252.74 138.42 C 253.30 138.49 254.40 138.63 254.95 138.70 C 254.19 140.35 253.47 142.01 252.79 143.68 C 250.47 143.23 248.10 143.16 245.77 143.50 C 247.39 140.60 249.29 137.87 251.33 135.25 C 251.84 134.11 252.36 132.98 252.89 131.85 Z" />
<path fill="#ffffff" opacity="1.00" d=" M 249.28 134.51 C 249.88 134.00 249.88 134.00 249.28 134.51 Z" />
<path fill="#ffffff" opacity="1.00" d=" M 248.25 134.63 L 249.28 134.51 C 248.12 137.60 246.74 140.65 244.64 143.23 C 241.68 139.66 246.47 137.25 248.25 134.63 Z" />
<path fill="#ffffff" opacity="1.00" d=" M 218.61 139.74 C 219.79 140.86 220.90 142.06 222.10 143.18 C 222.80 146.41 224.46 149.74 227.55 151.25 L 226.81 151.28 C 227.18 152.02 227.92 153.50 228.28 154.23 C 224.44 151.11 222.74 146.19 219.58 142.46 C 218.50 144.22 219.65 146.09 219.93 147.91 C 218.97 146.95 218.04 145.92 217.62 144.60 C 218.83 143.30 218.21 141.33 218.61 139.74 Z" />
<path fill="#ffffff" opacity="1.00" d=" M 228.54 147.83 C 229.61 145.21 225.01 142.76 227.45 140.74 C 228.80 143.26 229.92 145.89 230.92 148.57 L 229.60 149.16 C 229.70 148.58 229.88 147.43 229.97 146.85 L 228.54 147.83 Z" />
<path fill="#ffffff" opacity="1.00" d=" M 258.21 140.19 C 259.99 142.15 258.84 144.57 258.55 146.85 C 256.91 146.58 255.28 146.32 253.66 146.05 C 254.43 143.21 258.59 143.72 258.21 140.19 Z" />
<path fill="#ffffff" opacity="1.00" d=" M 267.54 145.55 C 265.80 144.75 268.95 140.12 270.03 141.76 C 269.39 143.10 268.74 144.62 267.54 145.55 Z" />
<path fill="#ffffff" opacity="1.00" d=" M 262.14 145.16 C 262.80 145.81 262.80 145.81 262.14 145.16 Z" />
<path fill="#ffffff" opacity="1.00" d=" M 216.00 146.15 C 217.08 147.29 218.04 148.53 219.06 149.73 C 217.91 151.14 216.87 152.96 214.83 153.06 C 215.47 151.53 216.55 150.30 217.81 149.25 C 217.13 148.26 216.52 147.22 216.00 146.15 Z" />
<path fill="#ffffff" opacity="1.00" d=" M 264.36 144.99 C 265.91 146.02 266.24 147.38 265.35 149.09 C 267.71 148.90 268.60 146.67 269.99 145.15 L 270.11 145.95 C 269.94 146.59 269.60 147.87 269.43 148.51 L 271.40 148.01 C 271.38 149.70 271.34 151.38 271.27 153.06 C 271.79 152.44 272.83 151.18 273.35 150.55 C 273.41 151.58 273.53 153.65 273.58 154.68 L 272.73 154.72 C 272.31 155.44 271.47 156.87 271.05 157.59 C 269.78 155.24 268.71 152.78 267.27 150.53 C 266.77 148.54 264.52 149.37 263.20 149.72 C 263.63 148.16 263.97 146.56 264.36 144.99 Z" />
<path fill="#ffffff" opacity="1.00" d=" M 261.41 148.99 C 260.30 148.04 260.35 147.25 261.56 146.61 C 262.69 147.54 262.64 148.33 261.41 148.99 Z" />
<path fill="#ffffff" opacity="1.00" d=" M 227.55 151.25 C 225.78 148.55 229.66 149.23 228.85 151.54 C 228.53 151.47 227.87 151.32 227.55 151.25 Z" />
<path fill="#ffffff" opacity="1.00" d=" M 255.27 149.13 C 256.00 148.92 257.47 148.50 258.20 148.29 C 258.49 151.13 255.80 155.20 259.20 156.92 C 260.77 154.76 259.66 152.16 259.40 149.79 C 262.43 150.46 261.21 154.16 261.07 156.37 C 261.56 156.80 262.53 157.67 263.02 158.10 C 263.01 157.19 263.00 155.36 262.99 154.45 C 263.54 155.14 264.65 156.52 265.20 157.20 C 265.60 156.35 266.41 154.63 266.81 153.77 C 267.35 155.92 267.54 158.13 267.88 160.32 C 266.40 159.73 265.80 158.57 266.10 156.83 C 265.75 157.53 265.03 158.94 264.67 159.64 L 264.01 159.96 C 261.91 162.80 261.66 156.99 260.69 156.03 C 260.10 157.32 260.00 158.74 260.33 160.13 L 259.19 160.44 C 258.69 158.99 258.20 157.55 257.72 156.10 C 257.30 156.28 256.44 156.63 256.01 156.81 C 256.28 156.18 256.83 154.91 257.11 154.28 L 255.26 154.59 C 255.22 152.77 255.23 150.95 255.27 149.13 Z" />
<path fill="#ffffff" opacity="1.00" d=" M 214.15 157.54 C 215.92 155.93 217.26 153.82 219.37 152.60 C 218.35 156.16 216.28 159.35 213.02 161.24 C 213.87 161.65 214.73 162.06 215.58 162.47 C 214.46 163.55 213.13 164.10 211.60 164.12 L 213.49 162.99 C 213.03 162.50 212.57 162.01 212.12 161.53 C 213.16 160.63 214.20 159.75 215.26 158.88 C 214.98 158.55 214.43 157.88 214.15 157.54 Z" />
<path fill="#ffffff" opacity="1.00" d=" M 272.79 155.82 C 273.05 154.52 275.00 155.96 275.89 155.75 C 275.74 156.54 275.43 158.13 275.28 158.92 C 274.12 158.21 271.09 157.87 272.79 155.82 Z" />
<path fill="#ffffff" opacity="1.00" d=" M 291.06 156.94 C 292.16 155.94 293.22 154.90 294.33 153.91 C 293.49 156.69 292.61 161.42 288.65 160.80 C 289.05 159.22 289.85 157.93 291.06 156.94 Z" />
<path fill="#ffffff" opacity="1.00" d=" M 248.22 156.70 C 248.85 156.52 250.10 156.17 250.72 156.00 C 251.86 158.27 253.16 160.46 254.20 162.79 L 252.11 161.60 L 252.23 164.23 C 251.66 163.25 251.48 162.20 251.66 161.08 C 251.23 161.23 250.37 161.53 249.94 161.68 C 249.52 159.97 248.85 158.33 248.22 156.70 Z" />
<path fill="#ffffff" opacity="1.00" d=" M 253.45 155.68 C 254.90 154.83 255.89 157.62 255.14 158.64 C 253.67 159.20 252.88 156.73 253.45 155.68 Z" />
<path fill="#ffffff" opacity="1.00" d=" M 243.04 161.68 C 242.35 160.08 239.89 156.81 243.33 156.52 C 243.31 157.10 243.29 158.25 243.27 158.83 L 244.23 158.94 L 244.08 160.56 L 245.44 160.32 C 245.15 159.45 244.57 157.70 244.28 156.83 C 245.15 158.04 245.96 159.31 246.76 160.58 L 244.99 160.45 C 246.19 162.00 247.41 163.55 248.37 165.27 C 247.19 164.53 246.01 163.79 244.84 163.06 L 244.67 162.73 L 244.52 162.39 L 244.16 162.35 L 244.35 162.67 L 244.67 162.73 C 244.72 163.27 244.83 164.34 244.88 164.88 L 244.32 164.56 L 243.80 164.08 C 243.26 163.86 242.18 163.42 241.64 163.20 C 241.05 161.92 239.08 160.62 240.10 159.10 C 241.11 159.93 242.05 160.83 243.04 161.68 Z" />
<path fill="#ffffff" opacity="1.00" d=" M 273.07 162.13 C 276.35 163.87 276.35 167.70 277.01 170.88 C 276.53 170.61 275.59 170.07 275.11 169.79 C 274.95 168.65 274.80 167.51 274.66 166.37 C 273.74 166.09 272.82 165.80 271.91 165.51 C 272.61 165.60 274.01 165.79 274.71 165.89 C 274.13 164.65 273.59 163.40 273.07 162.13 Z" />
<path fill="#ffffff" opacity="1.00" d=" M 228.31 165.33 C 227.98 163.90 228.48 163.30 229.78 163.52 C 230.12 164.98 229.62 165.58 228.31 165.33 Z" />
<path fill="#ffffff" opacity="1.00" d=" M 231.83 164.61 C 232.38 164.50 233.50 164.28 234.06 164.17 C 233.06 165.09 232.06 165.99 231.09 166.94 C 230.20 167.62 229.63 168.49 229.37 169.54 C 230.60 169.93 232.64 170.54 233.19 168.86 C 233.62 168.53 233.62 168.53 233.19 168.86 C 232.91 168.84 232.36 168.79 232.08 168.76 C 231.83 168.30 231.34 167.40 231.09 166.94 C 232.01 166.52 233.84 165.68 234.76 165.25 C 235.03 165.70 235.56 166.60 235.83 167.05 L 237.88 166.20 C 235.76 169.71 231.99 172.44 227.89 172.98 L 229.99 171.93 C 229.25 171.47 228.52 171.00 227.79 170.55 C 226.02 171.23 224.29 174.76 222.23 172.80 C 220.28 174.54 218.24 176.18 216.30 177.95 C 216.47 177.25 216.79 175.84 216.96 175.13 C 216.20 175.47 214.69 176.14 213.93 176.47 C 216.09 173.10 221.08 174.22 222.86 170.65 L 223.28 170.71 C 225.37 167.95 229.81 167.56 231.83 164.61 Z" />
<path fill="#ffffff" opacity="1.00" d=" M 184.77 169.01 C 182.60 167.96 185.19 166.57 186.32 166.42 C 187.29 167.25 188.28 168.08 189.27 168.90 L 189.39 166.88 C 190.62 167.61 192.49 170.50 192.78 167.23 C 193.38 167.72 194.57 168.68 195.16 169.17 C 195.16 168.64 195.16 167.58 195.16 167.06 L 195.92 167.24 C 195.66 168.51 195.40 169.78 195.15 171.05 C 193.51 170.71 191.88 170.38 190.24 170.05 L 190.33 171.50 C 188.42 170.81 186.46 170.15 184.77 169.01 Z" />
<path fill="#ffffff" opacity="1.00" d=" M 201.27 166.49 C 202.61 166.14 204.04 167.76 204.28 169.01 C 203.16 170.65 200.65 167.95 201.27 166.49 Z" />
<path fill="#ffffff" opacity="1.00" d=" M 177.11 167.36 C 181.48 166.81 185.49 169.31 188.09 172.64 C 185.37 172.27 182.76 171.32 180.00 171.24 C 181.56 171.69 183.11 172.19 184.64 172.74 C 184.02 173.20 182.78 174.13 182.16 174.60 C 179.44 173.20 175.88 172.89 173.92 170.39 C 173.41 172.47 172.08 174.24 170.23 175.34 C 170.19 174.82 170.10 173.76 170.06 173.24 C 170.28 172.82 170.73 171.98 170.95 171.56 C 169.96 172.10 168.92 172.53 167.91 173.01 C 167.38 173.20 166.32 173.58 165.79 173.77 C 167.82 174.05 169.31 175.00 170.24 176.63 C 169.70 176.60 168.62 176.56 168.07 176.54 C 167.60 178.98 165.50 180.30 163.13 179.58 C 163.24 180.64 163.36 181.73 164.00 182.62 L 164.90 180.19 L 165.87 180.75 C 166.65 181.59 166.97 182.63 166.84 183.86 C 165.94 184.34 165.06 184.84 164.17 185.34 C 164.38 184.77 164.78 183.63 164.98 183.06 C 164.40 183.20 163.23 183.48 162.65 183.62 L 163.04 183.14 C 161.30 182.64 159.53 182.10 157.84 183.08 C 159.69 182.04 160.13 180.00 160.71 178.14 C 159.89 178.35 158.26 178.77 157.44 178.99 L 157.41 177.23 C 155.33 177.89 153.29 179.37 151.02 178.76 C 150.86 179.29 150.53 180.35 150.36 180.87 C 152.62 180.40 154.89 179.76 156.63 178.17 C 157.98 179.53 157.03 181.06 156.49 182.49 C 155.22 183.14 153.96 183.80 152.67 184.40 C 151.15 184.82 149.22 186.39 147.75 185.12 C 150.19 183.65 153.14 183.06 155.26 181.07 C 152.91 181.58 150.67 182.51 148.67 183.84 C 148.53 183.05 148.24 181.47 148.10 180.68 L 150.56 181.30 C 149.38 179.53 147.98 177.82 145.62 177.74 C 147.61 174.87 150.61 178.32 153.23 176.89 C 152.41 176.78 150.77 176.58 149.95 176.48 C 149.35 176.06 148.14 175.21 147.53 174.79 C 147.89 174.31 148.61 173.35 148.97 172.87 C 154.55 172.18 160.33 171.93 165.86 173.12 C 164.50 172.26 163.15 171.38 162.11 170.16 C 163.64 170.75 165.12 171.44 166.63 172.10 L 166.37 170.40 C 168.31 170.39 170.38 170.24 171.98 171.58 C 173.01 170.59 174.17 169.74 175.49 169.16 C 176.24 169.30 177.74 169.57 178.49 169.71 L 178.43 170.60 C 179.09 170.53 180.42 170.39 181.08 170.32 C 180.78 168.25 178.63 168.11 177.11 167.36 Z" />
<path fill="#ffffff" opacity="1.00" d=" M 230.61 173.33 C 233.91 171.77 236.52 169.16 239.44 167.03 C 239.46 167.44 239.52 168.26 239.55 168.67 C 236.64 171.90 233.19 174.66 230.72 178.28 C 229.43 178.63 226.84 179.31 225.55 179.65 C 226.39 178.93 228.05 177.48 228.89 176.75 L 228.03 175.15 C 228.58 175.26 229.67 175.48 230.22 175.59 C 230.32 175.02 230.51 173.90 230.61 173.33 Z" />
<path fill="#ffffff" opacity="1.00" d=" M 267.45 168.07 C 267.84 168.94 268.20 169.82 268.54 170.71 L 270.96 170.92 L 270.00 168.45 C 271.41 169.70 272.70 171.07 274.05 172.41 C 273.82 171.50 273.36 169.67 273.13 168.76 C 275.27 171.27 276.20 174.48 277.47 177.47 L 274.58 176.23 C 275.22 177.18 276.50 179.09 277.13 180.05 C 276.73 180.17 275.91 180.43 275.51 180.56 C 275.96 181.62 276.86 183.75 277.31 184.81 C 273.58 183.41 272.16 179.54 269.44 176.98 C 269.69 177.82 269.94 178.65 270.21 179.49 C 271.92 181.15 273.61 182.85 275.54 184.28 C 275.61 186.13 275.64 187.98 275.65 189.83 C 275.06 189.66 273.90 189.32 273.31 189.14 C 273.58 190.56 276.21 192.70 273.88 193.88 L 274.10 191.96 L 273.28 192.00 L 274.18 195.47 C 271.19 191.46 269.15 186.80 266.17 182.76 C 264.44 179.17 263.58 175.27 262.29 171.52 C 262.01 172.25 261.44 173.70 261.16 174.42 C 261.28 173.60 261.51 171.97 261.63 171.15 L 260.08 171.89 C 260.07 171.12 260.05 169.59 260.04 168.82 C 260.31 169.28 260.85 170.20 261.12 170.65 C 263.35 170.83 265.59 170.71 267.82 170.80 C 267.73 170.12 267.55 168.76 267.45 168.07 M 266.78 180.12 L 266.42 180.81 C 266.74 181.02 267.38 181.46 267.70 181.67 L 268.05 180.97 C 267.73 180.76 267.10 180.33 266.78 180.12 Z" />
<path fill="#ffffff" opacity="1.00" d=" M 243.42 173.05 C 244.39 170.64 246.36 169.15 249.03 169.25 C 248.41 171.28 247.57 173.25 247.43 175.40 C 249.25 174.57 249.42 172.44 250.28 170.88 C 251.30 170.64 252.33 170.38 253.35 170.12 C 253.72 170.25 254.45 170.52 254.82 170.66 C 255.60 170.20 256.38 169.75 257.17 169.30 C 257.65 169.44 258.62 169.72 259.11 169.86 C 259.50 171.76 260.02 173.62 260.49 175.50 C 260.98 175.44 261.96 175.33 262.45 175.27 C 263.08 177.43 263.70 179.59 264.15 181.80 C 268.31 186.49 270.60 192.36 274.07 197.51 C 271.65 197.11 270.76 198.23 271.40 200.86 C 270.65 199.48 269.96 198.06 269.34 196.62 C 268.57 196.15 267.80 195.68 267.04 195.22 C 268.18 197.67 269.77 199.87 271.57 201.89 L 269.55 201.39 C 270.19 202.61 270.67 203.90 270.99 205.25 L 268.06 204.15 C 268.07 204.45 268.08 205.06 268.09 205.36 C 268.58 205.47 269.58 205.68 270.08 205.79 C 269.38 206.55 268.67 207.31 267.97 208.08 C 268.47 209.67 269.06 211.22 269.62 212.80 C 268.86 212.19 267.33 210.96 266.56 210.34 C 266.56 212.99 266.06 215.61 266.33 218.27 C 265.30 217.02 264.37 215.69 263.06 214.72 C 264.05 217.56 264.75 220.47 264.58 223.51 C 262.91 224.35 261.92 225.54 262.96 227.46 L 261.18 227.05 C 261.74 228.42 262.33 229.80 262.87 231.19 C 261.72 229.64 260.63 228.02 259.12 226.80 C 259.70 228.84 260.19 230.91 260.67 232.99 C 259.68 232.22 258.71 231.41 257.74 230.64 C 257.74 231.39 257.74 232.90 257.74 233.65 L 256.83 233.58 C 256.54 232.00 255.98 230.52 255.14 229.16 C 256.16 229.30 257.18 229.43 258.21 229.55 C 257.73 229.29 256.78 228.79 256.30 228.54 L 256.70 227.19 C 256.07 227.37 254.81 227.74 254.17 227.93 C 254.07 226.32 254.64 225.03 255.91 224.07 C 255.29 224.26 254.07 224.63 253.45 224.82 C 253.59 225.67 253.87 227.36 254.01 228.21 L 251.80 227.30 C 252.47 228.23 253.15 229.15 253.85 230.07 C 252.40 231.05 251.94 232.68 251.51 234.27 C 250.56 230.51 250.04 226.57 248.31 223.06 C 248.39 224.13 248.53 226.28 248.61 227.35 C 247.93 226.76 246.59 225.57 245.92 224.98 C 246.77 227.35 247.83 229.73 247.42 232.33 L 246.44 231.14 C 246.39 230.34 246.29 228.74 246.24 227.94 C 245.76 228.13 244.80 228.52 244.33 228.72 C 244.18 228.33 243.90 227.57 243.75 227.18 C 243.29 227.33 242.37 227.63 241.91 227.77 C 242.05 227.26 242.34 226.23 242.48 225.72 C 242.85 225.55 243.60 225.22 243.97 225.06 C 245.99 220.67 244.78 214.99 246.83 210.59 L 248.13 209.82 C 248.91 212.56 247.74 215.45 248.71 218.14 C 249.59 220.92 250.65 223.65 251.76 226.36 C 251.75 222.04 248.16 217.46 250.40 213.40 C 250.23 210.97 248.03 208.56 249.29 206.24 C 250.08 207.07 250.86 207.92 251.71 208.69 C 251.53 207.28 250.82 205.83 249.58 205.05 C 249.21 203.61 248.85 202.16 248.44 200.72 C 248.41 202.55 248.40 204.38 248.33 206.21 C 247.48 207.18 247.23 208.26 247.59 209.43 C 243.81 212.63 244.67 218.22 243.48 222.58 C 242.92 222.61 241.82 222.67 241.27 222.69 C 240.94 223.33 240.29 224.61 239.97 225.25 C 240.83 220.86 243.52 216.58 242.92 212.07 C 242.71 212.18 242.30 212.42 242.09 212.53 C 240.76 217.79 238.87 222.90 236.67 227.86 C 236.46 227.48 236.03 226.72 235.82 226.34 C 236.72 224.41 237.41 222.38 237.99 220.33 C 237.36 220.38 236.10 220.49 235.46 220.55 C 235.53 221.24 235.66 222.64 235.73 223.34 C 232.59 223.54 233.20 228.16 230.32 229.23 C 231.13 227.34 232.01 225.48 232.97 223.66 C 230.80 225.55 228.77 227.62 226.39 229.24 C 226.92 228.56 227.97 227.21 228.50 226.53 L 228.32 225.25 L 228.67 225.63 L 229.12 225.30 C 230.44 224.49 231.43 223.27 232.24 221.97 C 231.89 221.78 231.19 221.41 230.84 221.22 L 230.97 220.49 C 231.27 220.09 231.88 219.29 232.18 218.89 C 232.84 219.42 233.51 219.93 234.19 220.43 L 232.75 218.11 C 234.80 217.16 235.49 214.88 236.59 213.09 L 237.16 213.17 C 237.14 213.61 237.09 214.49 237.07 214.92 C 238.32 214.60 239.32 213.69 240.50 213.18 C 240.41 212.73 240.23 211.82 240.15 211.36 L 241.80 211.93 C 241.77 211.46 241.70 210.52 241.67 210.05 C 242.18 210.25 243.18 210.66 243.68 210.86 C 243.38 208.90 243.55 206.94 244.04 205.04 C 243.06 206.26 241.10 208.70 240.12 209.92 C 241.40 206.82 242.93 203.82 243.97 200.63 C 242.45 202.26 241.27 204.15 240.17 206.07 L 239.54 204.86 C 236.48 205.02 239.85 202.04 239.93 200.71 C 239.13 201.23 237.52 202.27 236.72 202.79 C 239.45 199.46 241.62 195.67 243.18 191.67 C 239.97 193.46 239.67 198.14 235.88 199.25 C 236.62 197.75 237.46 196.29 238.17 194.77 L 236.89 196.43 C 236.47 195.97 236.07 195.52 235.67 195.07 C 238.48 193.14 239.51 188.70 243.28 188.37 C 244.49 186.14 246.17 184.20 247.22 181.87 C 248.18 181.33 249.10 180.73 249.96 180.04 C 249.15 179.48 248.35 178.93 247.55 178.36 C 246.96 180.10 246.31 181.88 244.64 182.85 L 244.62 184.41 C 244.06 183.30 243.54 182.18 243.04 181.06 C 244.15 178.74 245.38 176.42 245.79 173.85 C 243.51 177.20 241.53 180.72 239.62 184.29 L 239.58 183.48 C 239.87 182.33 240.44 180.03 240.72 178.88 C 240.23 179.62 239.26 181.10 238.77 181.84 C 238.37 181.64 237.57 181.24 237.17 181.04 C 235.39 182.73 233.91 184.92 231.57 185.88 C 231.99 186.43 232.41 186.99 232.83 187.55 C 233.37 186.79 234.43 185.27 234.97 184.51 C 235.38 184.94 236.21 185.79 236.62 186.22 L 236.50 184.50 C 237.31 184.94 238.13 185.38 238.96 185.82 C 236.88 188.87 233.88 191.26 232.08 194.45 C 230.48 195.09 228.54 195.30 227.70 197.02 C 227.24 196.21 227.56 194.17 226.33 194.24 C 224.87 198.14 221.52 200.93 218.00 202.96 C 217.38 200.54 222.34 198.92 219.59 197.25 L 219.90 195.97 L 218.31 196.50 C 219.25 195.50 219.67 194.25 219.87 192.90 C 221.01 190.95 222.81 189.48 224.53 188.07 C 224.41 189.73 223.63 191.06 222.21 192.07 C 223.55 191.75 224.87 191.41 226.20 191.06 C 226.75 192.06 227.32 193.05 227.90 194.04 L 228.30 192.89 C 228.67 193.09 229.42 193.49 229.79 193.69 C 231.72 191.90 233.33 189.78 234.94 187.70 C 232.61 188.65 231.39 191.12 229.52 192.61 C 230.23 190.97 231.57 188.74 230.02 187.16 L 229.35 189.16 C 229.44 187.63 229.51 186.11 229.57 184.59 C 228.91 184.31 227.59 183.74 226.92 183.46 C 224.52 186.04 220.68 187.46 219.53 190.97 C 217.17 189.32 219.33 187.71 220.48 186.60 C 222.49 184.58 224.85 182.98 227.35 181.62 C 227.73 181.69 228.49 181.81 228.87 181.87 C 229.97 180.88 231.11 179.94 232.35 179.13 L 232.45 178.78 C 234.10 178.24 233.73 175.43 235.79 175.23 C 236.14 176.34 236.41 177.47 236.63 178.62 C 235.26 179.59 234.00 180.68 232.84 181.89 C 235.30 181.43 236.56 179.31 237.90 177.48 C 237.48 176.95 237.06 176.41 236.65 175.88 C 238.80 173.77 241.05 171.76 243.43 169.91 C 243.42 170.69 243.42 172.27 243.42 173.05 M 246.22 172.27 C 246.87 172.83 246.87 172.83 246.22 172.27 M 256.46 173.56 C 256.70 179.26 255.69 185.17 258.64 190.40 C 259.04 186.37 257.56 182.52 257.31 178.54 C 260.76 180.74 260.84 184.96 260.18 188.54 C 260.67 187.62 261.18 186.70 261.68 185.79 C 262.58 186.98 263.50 188.18 264.42 189.36 L 264.63 188.66 C 262.83 185.76 264.04 181.76 261.58 178.96 L 262.36 177.24 C 261.92 177.33 261.03 177.51 260.58 177.61 C 260.48 176.36 259.84 175.52 258.67 175.08 C 258.72 174.62 258.82 173.69 258.87 173.23 C 258.27 173.31 257.06 173.48 256.46 173.56 M 265.46 186.17 C 266.04 186.80 266.04 186.80 265.46 186.17 M 244.13 190.20 C 246.12 194.56 240.77 198.01 239.95 202.11 C 240.12 203.59 242.33 202.26 242.31 201.34 C 243.91 197.78 245.64 194.12 245.60 190.13 C 245.23 190.14 244.49 190.18 244.13 190.20 M 220.90 197.77 C 222.56 198.00 223.53 195.99 224.85 195.26 C 224.91 194.86 225.04 194.04 225.10 193.64 C 223.40 194.28 221.30 196.01 220.90 197.77 M 244.24 204.22 C 244.78 204.83 244.78 204.83 244.24 204.22 M 252.92 205.22 C 252.17 206.13 252.63 208.38 253.88 208.54 C 254.49 207.61 254.36 205.20 252.92 205.22 M 244.88 206.47 C 243.38 209.47 248.24 206.59 244.88 206.47 M 236.15 216.18 C 234.83 216.92 234.76 217.58 235.94 218.18 C 237.39 217.24 237.45 216.58 236.15 216.18 Z" />
<path fill="#ffffff" opacity="1.00" d=" M 207.45 173.69 C 207.66 173.30 208.08 172.51 208.28 172.12 C 208.39 173.32 208.51 174.52 208.64 175.72 C 206.37 176.69 204.18 177.83 201.90 178.77 C 202.47 178.07 203.60 176.67 204.17 175.97 C 203.08 176.08 200.89 176.30 199.80 176.41 C 201.20 175.38 203.02 175.53 204.66 175.30 C 204.54 174.83 204.31 173.89 204.20 173.42 C 205.01 173.49 206.64 173.62 207.45 173.69 Z" />
<path fill="#ffffff" opacity="1.00" d=" M 173.50 173.22 C 174.86 173.32 176.21 173.43 177.57 173.50 L 177.46 174.34 C 178.35 174.51 180.12 174.84 181.01 175.01 C 179.26 176.54 176.98 177.18 175.03 178.39 C 173.00 180.18 170.43 181.28 167.82 181.90 C 169.02 180.88 170.34 180.03 171.69 179.23 C 171.53 178.73 171.21 177.72 171.05 177.21 C 172.06 177.04 174.09 176.69 175.11 176.52 C 174.72 176.27 173.93 175.77 173.54 175.52 C 173.53 174.95 173.51 173.79 173.50 173.22 Z" />
<path fill="#ffffff" opacity="1.00" d=" M 257.36 175.43 C 258.55 175.89 258.82 176.83 258.18 178.24 C 257.00 177.79 256.72 176.85 257.36 175.43 Z" />
<path fill="#ffffff" opacity="1.00" d=" M 218.89 180.26 C 218.74 178.62 220.98 176.42 222.58 177.00 C 222.61 178.55 220.44 180.62 218.89 180.26 Z" />
<path fill="#ffffff" opacity="1.00" d=" M 239.58 183.48 C 239.33 183.68 239.33 183.68 239.58 183.48 Z" />
<path fill="#ffffff" opacity="1.00" d=" M 242.45 182.15 C 242.98 182.80 244.04 184.11 244.57 184.77 L 242.30 184.45 C 240.87 186.77 239.79 189.41 237.61 191.17 L 236.97 190.99 L 236.61 190.33 C 236.88 188.45 238.69 187.16 239.54 185.48 C 240.83 184.68 241.97 183.67 242.45 182.15 Z" />
<path fill="#ffffff" opacity="1.00" d=" M 152.67 184.40 C 153.80 184.85 155.05 185.11 156.05 185.86 C 155.02 186.31 150.07 187.99 153.86 187.89 C 154.26 187.77 155.06 187.52 155.46 187.40 C 157.07 186.53 158.71 185.70 160.39 184.97 C 159.03 188.04 155.73 189.57 153.44 191.87 C 153.28 191.44 152.97 190.59 152.82 190.16 C 151.93 190.06 151.07 190.20 150.23 190.58 C 151.54 189.61 152.78 188.53 151.25 186.92 C 151.88 186.59 153.14 185.95 153.77 185.62 L 152.67 184.40 Z" />
<path fill="#ffffff" opacity="1.00" d=" M 236.37 190.86 L 236.97 190.99 C 236.87 192.41 236.44 193.77 235.67 195.07 L 235.64 193.65 C 233.69 196.66 230.08 198.17 228.26 201.20 C 228.37 201.68 228.59 202.63 228.70 203.10 C 230.46 201.23 232.79 199.76 233.93 197.38 C 234.37 197.16 235.24 196.71 235.68 196.49 C 233.64 199.67 231.20 202.63 228.40 205.15 C 227.61 204.84 226.88 204.43 226.20 203.93 L 227.12 206.56 L 224.71 205.22 C 225.30 205.83 225.89 206.44 226.48 207.05 C 225.82 207.54 224.48 208.50 223.82 208.99 C 225.55 208.77 227.93 207.38 227.35 205.32 L 230.09 205.40 C 228.01 207.77 225.99 210.19 223.63 212.28 C 221.46 209.14 219.07 213.81 218.11 215.50 L 217.89 215.84 L 217.84 216.15 L 217.64 216.37 L 217.40 216.63 L 216.71 217.03 C 215.68 217.89 214.74 218.84 213.81 219.81 C 213.32 218.74 212.48 218.17 211.32 218.35 C 210.15 217.05 207.91 215.42 210.19 213.51 L 206.92 215.53 C 208.41 213.09 211.09 211.78 213.09 209.83 C 212.14 209.35 211.19 208.89 210.23 208.45 L 211.02 207.21 L 208.55 207.47 C 208.39 208.01 208.07 209.08 207.91 209.61 C 207.71 208.73 207.31 206.96 207.11 206.08 C 207.61 205.86 208.13 205.65 208.65 205.46 C 209.73 206.87 210.94 207.17 212.27 206.38 C 212.49 206.74 212.94 207.45 213.16 207.81 C 214.07 207.55 214.97 207.25 215.86 206.93 C 215.03 208.79 213.33 209.99 211.98 211.46 C 212.46 212.52 213.32 213.31 214.28 213.94 C 214.33 213.43 214.45 212.40 214.51 211.88 C 215.87 211.00 217.53 210.22 217.84 208.42 L 219.12 208.52 C 218.88 209.92 218.06 210.79 216.65 211.11 L 217.58 212.28 C 217.39 212.74 217.01 213.67 216.82 214.13 C 215.62 214.39 214.40 214.59 213.23 214.97 C 213.55 215.79 213.96 216.57 214.44 217.31 C 215.40 216.48 216.25 215.56 217.00 214.54 L 216.82 214.13 C 218.56 212.75 220.12 211.17 221.72 209.64 C 219.40 205.64 226.47 205.22 225.61 201.20 C 227.78 198.55 230.29 196.18 233.41 194.71 C 233.57 192.87 234.87 191.71 236.37 190.86 Z" />
<path fill="#ffffff" opacity="1.00" d=" M 167.33 194.36 C 169.03 193.28 171.02 193.65 172.91 193.75 C 172.03 194.32 171.15 194.90 170.28 195.49 L 169.28 195.31 L 169.48 196.75 C 169.06 196.64 168.22 196.44 167.80 196.34 C 167.10 198.32 165.43 199.66 163.93 201.02 C 164.43 199.99 165.43 197.92 165.93 196.89 C 164.89 197.63 162.81 199.11 161.77 199.84 C 162.62 197.91 164.31 195.96 166.68 196.51 L 166.47 195.24 L 167.72 195.66 L 167.33 194.36 Z" />
<path fill="#ffffff" opacity="1.00" d=" M 164.42 194.10 C 167.44 192.82 164.17 197.55 164.42 194.10 Z" />
<path fill="#ffffff" opacity="1.00" d=" M 166.25 201.42 C 165.63 200.16 167.43 198.07 168.73 198.80 C 169.11 200.05 167.51 201.80 166.25 201.42 Z" />
<path fill="#ffffff" opacity="1.00" d=" M 222.03 201.18 C 223.10 200.44 224.04 199.44 225.34 199.12 C 224.10 201.31 222.32 203.11 220.80 205.09 C 219.79 205.39 218.78 205.67 217.77 205.93 C 218.93 204.33 220.40 203.00 221.86 201.68 L 222.03 201.18 Z" />
<path fill="#ffffff" opacity="1.00" d=" M 233.31 202.03 C 234.03 203.53 235.17 204.28 236.96 203.52 C 236.52 205.40 236.04 207.28 235.19 209.02 C 235.55 208.67 236.27 207.96 236.64 207.61 C 237.13 207.31 238.11 206.70 238.60 206.40 C 237.51 208.94 236.00 211.26 234.72 213.70 C 232.94 217.90 228.38 220.02 226.67 224.29 C 226.59 224.37 226.44 224.52 226.36 224.60 L 226.48 224.50 L 226.67 224.29 L 227.51 223.87 L 228.12 222.95 L 229.69 222.39 C 229.55 223.12 229.26 224.57 229.12 225.30 L 228.75 224.92 L 228.32 225.25 C 226.79 226.61 224.95 227.14 222.80 226.87 C 225.91 224.07 226.94 219.90 229.59 216.73 L 229.78 215.29 C 228.92 216.31 227.18 218.36 226.32 219.38 C 225.44 220.23 224.55 221.07 223.63 221.88 L 224.48 219.25 C 223.81 219.38 222.47 219.63 221.80 219.76 C 222.54 219.36 224.03 218.54 224.78 218.14 C 224.00 217.48 223.22 216.83 222.44 216.20 C 224.02 215.23 225.28 213.45 227.39 213.69 L 224.72 215.08 C 225.12 215.54 225.52 216.00 225.92 216.47 C 228.64 214.07 231.30 210.98 230.31 207.07 C 231.30 205.38 232.34 203.72 233.31 202.03 Z" />
<path fill="#ffffff" opacity="1.00" d=" M 165.75 209.05 C 167.47 206.51 169.97 204.67 172.44 202.93 L 172.39 205.00 C 169.86 205.80 168.10 207.90 165.75 209.05 Z" />
<path fill="#ffffff" opacity="1.00" d=" M 167.72 210.08 C 168.62 208.65 170.26 206.36 172.12 206.70 C 171.87 208.16 169.05 211.15 167.72 210.08 Z" />
<path fill="#ffffff" opacity="1.00" d=" M 206.26 213.12 C 206.03 211.58 208.14 209.86 209.61 210.21 C 209.76 211.65 207.68 213.57 206.26 213.12 Z" />
<path fill="#ffffff" opacity="1.00" d=" M 237.16 213.17 C 235.45 210.18 240.37 212.50 237.16 213.17 Z" />
<path fill="#ffffff" opacity="1.00" d=" M 218.11 215.50 C 218.88 215.20 220.44 214.60 221.22 214.30 C 219.80 216.62 218.18 218.95 215.81 220.40 C 216.30 219.12 216.83 217.87 217.40 216.63 C 217.51 216.51 217.73 216.27 217.84 216.15 L 218.19 215.88 L 218.11 215.50 Z" />
<path fill="#ffffff" opacity="1.00" d=" M 230.23 221.61 C 230.38 221.51 230.69 221.32 230.84 221.22 C 230.69 221.32 230.38 221.51 230.23 221.61 Z" />
<path fill="#ffffff" opacity="1.00" d=" M 229.69 222.39 C 229.83 222.19 230.10 221.81 230.23 221.61 C 230.10 221.81 229.83 222.19 229.69 222.39 Z" />
<path fill="#ffffff" opacity="1.00" d=" M 250.11 234.71 C 248.65 234.72 248.51 231.18 249.95 231.31 C 250.66 232.45 250.71 233.58 250.11 234.71 Z" />
<path fill="#ffffff" opacity="1.00" d=" M 256.27 234.23 C 256.90 234.77 256.90 234.77 256.27 234.23 Z" />
<path fill="#ffffff" opacity="1.00" d=" M 259.22 236.26 C 259.78 236.84 259.78 236.84 259.22 236.26 Z" />
<path fill="#ffffff" opacity="1.00" d=" M 253.30 237.38 C 254.44 236.68 255.89 238.65 254.91 239.56 C 253.71 240.25 252.47 238.32 253.30 237.38 Z" />
</g>
</svg>
