<?xml version="1.0" encoding="UTF-8" ?>
<!DOCTYPE svg PUBLIC "-//W3C//DTD SVG 1.1//EN" "http://www.w3.org/Graphics/SVG/1.1/DTD/svg11.dtd">
<svg width="512pt" height="256pt" viewBox="0 0 512 256" version="1.1" xmlns="http://www.w3.org/2000/svg">
<g id="#ffffffff">
<path fill="#ffffff" opacity="1.00" d=" M 222.50 17.60 C 227.40 14.04 233.28 10.28 239.59 11.23 C 240.63 12.54 241.73 13.80 242.82 15.08 C 242.97 16.37 243.14 17.66 243.27 18.95 C 241.96 17.17 241.07 15.13 240.40 13.02 C 239.30 12.53 238.21 12.04 237.12 11.55 C 230.46 14.17 224.26 17.77 218.76 22.35 C 217.35 24.41 215.45 26.07 214.03 28.13 C 212.35 30.28 211.82 33.05 210.40 35.36 C 209.47 32.53 212.00 30.45 212.72 27.91 C 214.09 23.04 218.86 20.59 222.50 17.60 Z" />
<path fill="#ffffff" opacity="1.00" d=" M 228.00 19.22 C 229.71 17.62 230.88 15.30 233.41 14.88 C 233.31 17.67 230.51 19.23 228.00 19.22 Z" />
<path fill="#ffffff" opacity="1.00" d=" M 291.54 20.66 C 292.98 19.13 295.03 19.00 297.01 18.95 C 297.37 19.32 298.11 20.07 298.48 20.44 C 299.33 24.44 297.05 27.95 295.27 31.31 C 294.41 32.99 292.16 33.14 290.69 33.87 C 291.68 32.73 292.70 31.61 293.76 30.52 C 294.31 28.57 295.25 26.76 296.94 25.57 C 297.57 23.65 297.63 21.64 297.20 19.67 C 291.80 21.11 288.80 26.32 284.68 29.70 C 284.32 29.61 283.60 29.44 283.24 29.35 C 280.55 31.63 279.22 34.88 277.70 37.96 C 277.39 37.65 276.77 37.03 276.46 36.72 C 274.54 40.33 271.91 43.57 268.42 45.76 C 268.93 44.38 269.76 43.16 270.58 41.95 C 270.12 42.24 269.18 42.83 268.72 43.12 C 267.62 42.49 266.52 41.85 265.42 41.22 C 263.38 38.86 261.50 43.68 260.22 44.98 C 260.09 44.51 259.81 43.58 259.67 43.11 L 257.80 43.55 C 259.16 41.96 260.64 40.49 262.23 39.14 C 264.31 38.99 266.21 38.16 268.01 37.14 C 267.82 37.82 267.43 39.17 267.24 39.85 C 268.87 37.57 270.63 33.74 273.90 34.16 C 277.54 29.90 282.88 27.70 286.87 23.83 C 288.27 22.57 289.94 21.65 291.54 20.66 M 275.25 36.04 C 276.50 36.17 278.27 34.37 277.78 33.07 C 276.34 32.62 274.89 34.76 275.25 36.04 M 269.93 42.12 C 272.19 40.58 274.05 38.49 275.25 36.04 C 273.17 37.78 270.66 39.30 269.93 42.12 Z" />
<path fill="#ffffff" opacity="1.00" d=" M 242.46 25.16 C 244.06 24.68 244.56 25.27 243.95 26.93 C 242.35 27.39 241.86 26.80 242.46 25.16 Z" />
<path fill="#ffffff" opacity="1.00" d=" M 205.55 29.93 C 206.17 29.66 207.42 29.11 208.05 28.84 C 207.83 30.34 207.63 31.85 207.42 33.35 C 206.36 34.75 205.68 36.38 204.93 37.96 C 205.96 40.37 208.69 44.25 205.42 46.06 C 206.32 48.38 207.19 50.73 207.73 53.17 C 206.77 52.23 205.87 51.23 205.00 50.20 C 205.50 47.26 204.03 44.28 205.20 41.39 C 204.49 40.02 204.27 38.51 204.19 36.99 C 203.83 35.56 203.62 34.09 203.43 32.62 C 203.97 32.63 205.05 32.65 205.59 32.66 C 205.58 31.98 205.56 30.61 205.55 29.93 Z" />
<path fill="#ffffff" opacity="1.00" d=" M 218.62 31.51 C 219.41 31.07 220.20 30.62 220.99 30.18 C 221.23 30.53 221.71 31.23 221.95 31.58 L 220.14 31.62 C 220.39 32.34 220.91 33.77 221.16 34.49 C 218.57 34.55 220.23 38.14 217.44 37.88 L 216.50 36.53 L 218.83 36.55 C 218.11 35.70 217.38 34.86 216.65 34.02 C 217.33 33.20 217.98 32.36 218.62 31.51 Z" />
<path fill="#ffffff" opacity="1.00" d=" M 243.25 30.84 C 246.90 30.08 243.05 35.68 242.28 32.21 C 242.52 31.87 243.00 31.18 243.25 30.84 Z" />
<path fill="#ffffff" opacity="1.00" d=" M 242.14 34.21 C 245.30 32.69 242.26 37.49 242.14 34.21 Z" />
<path fill="#ffffff" opacity="1.00" d=" M 286.07 39.75 C 288.01 37.74 289.94 35.70 292.07 33.89 C 293.75 33.99 295.39 34.41 297.04 34.72 C 295.54 35.96 293.92 37.10 292.03 37.67 C 294.99 37.12 293.84 35.71 293.20 34.56 C 291.44 37.00 288.86 38.70 286.07 39.75 Z" />
<path fill="#ffffff" opacity="1.00" d=" M 200.53 34.95 C 203.38 36.60 202.17 40.61 202.59 43.34 C 200.37 41.16 200.96 37.77 200.53 34.95 Z" />
<path fill="#ffffff" opacity="1.00" d=" M 208.98 41.72 C 209.24 39.59 209.46 37.34 210.83 35.59 C 210.94 37.77 211.33 40.52 208.98 41.72 Z" />
<path fill="#ffffff" opacity="1.00" d=" M 240.98 36.60 C 242.95 36.03 244.22 36.93 244.91 38.76 C 243.40 40.05 241.82 41.31 239.89 41.91 C 240.65 40.33 241.96 39.18 243.26 38.06 C 242.69 38.00 241.56 37.88 240.99 37.83 L 240.98 36.60 Z" />
<path fill="#ffffff" opacity="1.00" d=" M 293.19 39.43 C 292.99 38.02 293.58 37.54 294.95 38.00 C 295.13 39.37 294.54 39.84 293.19 39.43 Z" />
<path fill="#ffffff" opacity="1.00" d=" M 202.12 50.74 C 201.49 46.67 198.98 42.98 199.34 38.78 C 200.45 44.13 203.30 48.85 204.77 54.05 C 203.48 53.31 202.79 52.01 202.12 50.74 Z" />
<path fill="#ffffff" opacity="1.00" d=" M 250.52 38.74 C 250.98 40.71 251.33 42.76 250.85 44.77 C 250.02 46.18 248.70 45.00 247.61 44.65 C 247.32 43.52 246.93 42.42 246.64 41.30 C 247.30 40.74 247.99 40.22 248.70 39.73 C 248.72 40.87 248.75 43.17 248.77 44.31 C 250.82 43.19 250.15 40.62 250.52 38.74 Z" />
<path fill="#ffffff" opacity="1.00" d=" M 252.00 45.15 C 251.69 43.30 252.86 40.55 253.89 39.22 C 254.40 41.13 253.79 43.67 252.54 45.21 L 252.00 45.15 Z" />
<path fill="#ffffff" opacity="1.00" d=" M 255.07 39.36 C 256.46 39.41 256.06 41.92 255.39 42.68 C 253.90 42.76 254.30 40.09 255.07 39.36 Z" />
<path fill="#ffffff" opacity="1.00" d=" M 292.43 43.27 C 293.21 41.86 294.43 40.85 295.75 39.96 C 295.86 40.76 296.10 42.34 296.21 43.13 C 295.52 43.26 294.13 43.54 293.44 43.67 C 294.25 43.68 295.87 43.70 296.68 43.70 C 296.42 44.35 295.89 45.64 295.63 46.29 C 294.04 47.65 292.46 49.10 290.40 49.68 C 289.37 49.97 288.33 50.21 287.29 50.39 C 287.45 49.31 287.62 48.23 287.76 47.15 C 289.15 46.74 290.54 46.37 291.96 46.03 C 292.08 45.34 292.31 43.96 292.43 43.27 Z" />
<path fill="#ffffff" opacity="1.00" d=" M 193.38 42.57 C 193.67 42.26 194.25 41.64 194.54 41.33 C 195.14 42.38 196.34 44.46 196.94 45.51 C 196.80 44.29 196.51 41.85 196.37 40.62 C 199.28 43.90 199.49 48.74 201.21 52.68 L 198.17 49.82 C 198.82 51.27 199.42 52.75 199.97 54.25 C 199.03 53.36 198.42 52.24 197.87 51.10 C 195.92 48.53 194.11 45.76 193.38 42.57 Z" />
<path fill="#ffffff" opacity="1.00" d=" M 243.45 41.25 C 246.01 40.89 242.76 45.69 241.29 45.05 C 240.89 43.55 242.25 42.02 243.45 41.25 Z" />
<path fill="#ffffff" opacity="1.00" d=" M 261.85 45.65 C 261.15 44.56 262.75 42.84 263.90 43.30 C 264.47 44.40 263.04 46.10 261.85 45.65 Z" />
<path fill="#ffffff" opacity="1.00" d=" M 188.67 46.44 C 189.49 45.76 189.89 43.77 191.24 44.39 C 193.15 46.78 194.42 49.60 195.49 52.45 C 194.34 51.86 192.04 50.68 190.89 50.09 C 192.25 51.77 193.78 53.36 195.00 55.16 C 191.57 53.05 189.17 49.64 186.78 46.47 C 188.44 46.73 189.26 48.21 189.73 49.65 C 190.71 49.95 191.69 50.23 192.68 50.51 C 191.33 49.15 190.03 47.78 188.67 46.44 Z" />
<path fill="#ffffff" opacity="1.00" d=" M 253.08 46.22 C 253.75 45.14 254.42 44.05 255.08 42.96 C 255.18 45.81 255.40 48.71 254.39 51.45 C 253.18 49.94 252.36 48.17 253.08 46.22 Z" />
<path fill="#ffffff" opacity="1.00" d=" M 252.00 45.15 C 253.42 48.25 248.70 45.34 252.00 45.15 Z" />
<path fill="#ffffff" opacity="1.00" d=" M 210.36 46.34 C 212.01 45.58 212.53 46.04 211.92 47.71 C 210.26 48.45 209.73 47.99 210.36 46.34 Z" />
<path fill="#ffffff" opacity="1.00" d=" M 232.73 49.30 C 230.83 47.51 234.34 46.22 235.31 45.06 C 234.25 46.58 233.99 48.10 235.37 49.45 C 235.89 49.04 236.92 48.21 237.44 47.80 C 237.06 48.35 236.32 49.43 235.94 49.97 C 235.06 51.97 234.74 55.03 232.06 55.31 C 232.76 53.78 233.52 52.28 234.30 50.79 C 234.34 50.72 234.40 50.59 234.44 50.52 L 234.30 50.79 C 233.72 51.16 232.54 51.91 231.96 52.29 C 232.32 51.32 232.57 50.32 232.73 49.30 Z" />
<path fill="#ffffff" opacity="1.00" d=" M 180.08 46.91 C 181.53 47.23 183.29 47.54 183.67 49.25 C 185.04 52.50 187.57 55.01 190.05 57.43 C 189.94 57.74 189.71 58.36 189.60 58.67 C 186.65 56.99 184.60 54.24 181.90 52.25 C 182.43 51.99 183.50 51.47 184.04 51.21 C 182.53 49.96 181.11 48.59 180.08 46.91 Z" />
<path fill="#ffffff" opacity="1.00" d=" M 237.24 51.33 C 238.04 50.38 238.84 49.42 239.67 48.49 L 239.40 50.81 C 240.02 50.43 241.27 49.68 241.89 49.31 C 240.89 51.58 239.56 53.70 237.65 55.31 C 237.78 53.96 237.64 52.62 237.24 51.33 Z" />
<path fill="#ffffff" opacity="1.00" d=" M 257.03 55.19 C 256.55 52.48 258.77 50.49 260.55 48.82 C 259.84 51.17 258.83 53.46 257.03 55.19 Z" />
<path fill="#ffffff" opacity="1.00" d=" M 185.01 48.86 C 188.39 51.06 191.00 54.28 192.76 57.89 C 190.44 57.21 189.12 55.11 187.53 53.47 C 186.42 52.11 184.70 50.89 185.01 48.86 Z" />
<path fill="#ffffff" opacity="1.00" d=" M 290.40 49.68 C 291.30 49.83 293.11 50.12 294.01 50.27 C 291.95 51.63 289.82 53.18 287.23 53.13 C 288.31 51.85 289.57 50.72 291.35 50.68 L 290.40 49.68 Z" />
<path fill="#ffffff" opacity="1.00" d=" M 169.79 51.12 C 170.52 51.25 171.99 51.53 172.72 51.66 C 173.52 52.43 174.31 53.20 175.10 53.97 C 175.60 53.79 176.58 53.43 177.07 53.24 C 177.76 54.99 177.51 56.86 177.49 58.68 C 175.82 57.51 174.17 56.31 172.53 55.10 L 172.75 57.08 C 171.48 56.06 170.23 55.01 169.09 53.84 C 170.44 54.21 171.79 54.59 173.14 54.97 C 172.06 53.65 170.92 52.38 169.79 51.12 Z" />
<path fill="#ffffff" opacity="1.00" d=" M 261.83 57.56 C 262.93 55.23 263.50 52.42 265.59 50.71 C 264.43 53.85 263.47 57.08 261.72 59.95 C 261.29 58.78 260.57 57.84 259.53 57.15 C 260.10 55.59 260.90 54.13 261.93 52.82 C 261.65 53.61 261.08 55.18 260.80 55.96 C 261.13 56.50 261.48 57.03 261.83 57.56 Z" />
<path fill="#ffffff" opacity="1.00" d=" M 210.35 55.75 C 210.84 53.99 212.27 52.73 213.81 51.84 C 213.62 53.55 212.79 57.03 210.35 55.75 Z" />
<path fill="#ffffff" opacity="1.00" d=" M 286.89 56.39 C 288.10 53.52 291.49 53.79 294.05 53.44 C 292.47 55.81 289.51 56.22 286.89 56.39 Z" />
<path fill="#ffffff" opacity="1.00" d=" M 180.59 52.84 C 184.23 54.74 186.44 58.27 189.24 61.12 C 188.27 61.74 187.31 62.37 186.40 63.06 C 188.05 63.66 189.07 65.00 189.79 66.52 C 185.86 65.61 182.39 63.32 179.47 60.61 C 181.14 61.13 182.75 61.80 184.32 62.59 C 183.95 61.88 183.21 60.45 182.84 59.73 C 183.78 60.17 185.35 61.51 186.15 60.14 C 184.91 59.38 183.87 57.52 182.33 57.65 C 182.46 58.17 182.71 59.21 182.84 59.73 L 182.64 61.14 C 181.37 59.76 180.11 58.13 180.76 56.17 L 183.20 57.30 C 182.55 56.19 181.25 53.95 180.59 52.84 Z" />
<path fill="#ffffff" opacity="1.00" d=" M 227.11 57.49 C 228.18 56.10 229.17 54.51 230.87 53.82 C 230.18 55.25 229.43 56.65 228.67 58.05 C 228.28 57.91 227.50 57.63 227.11 57.49 Z" />
<path fill="#ffffff" opacity="1.00" d=" M 264.99 60.91 C 266.64 59.31 268.24 57.65 269.67 55.84 L 269.16 57.82 C 269.84 57.62 271.20 57.21 271.88 57.01 C 269.88 58.94 268.32 61.24 266.92 63.63 C 266.27 62.73 265.63 61.82 264.99 60.91 Z" />
<path fill="#ffffff" opacity="1.00" d=" M 279.62 57.73 C 281.13 55.61 284.11 56.48 286.34 56.44 C 284.15 57.13 281.90 57.57 279.62 57.73 Z" />
<path fill="#ffffff" opacity="1.00" d=" M 281.88 60.68 C 285.11 57.43 289.59 56.36 294.05 56.43 C 292.35 57.78 290.66 59.15 289.04 60.58 C 294.42 59.69 290.50 63.92 288.75 65.25 C 291.67 65.02 290.53 67.61 290.65 69.26 C 290.38 70.85 290.17 72.44 289.96 74.03 C 289.46 73.83 288.46 73.44 287.96 73.25 C 286.29 76.63 283.99 79.63 281.88 82.74 C 281.92 80.45 283.11 78.52 284.01 76.50 L 282.75 75.65 C 283.82 73.61 283.49 70.66 285.95 69.58 C 285.80 70.65 285.49 72.79 285.34 73.86 L 287.57 73.54 C 287.35 72.68 286.92 70.95 286.71 70.09 C 286.44 69.37 284.70 68.60 285.64 67.85 C 287.74 66.16 288.29 63.51 288.68 60.98 C 286.51 62.40 285.25 65.80 282.36 65.71 L 282.73 66.05 L 280.85 64.94 L 281.57 67.82 L 280.08 67.48 C 280.39 68.42 281.02 70.31 281.33 71.25 C 278.04 71.29 281.89 74.48 281.33 71.25 C 282.15 69.88 282.98 68.50 284.05 67.30 C 282.87 71.22 280.96 74.86 279.00 78.44 C 278.08 77.93 277.17 77.43 276.26 76.93 C 277.03 74.82 277.83 72.74 278.67 70.66 C 277.70 71.57 275.76 73.40 274.79 74.31 C 275.61 72.02 277.13 70.10 278.32 68.00 C 279.72 66.14 281.02 64.21 282.44 62.36 C 282.61 62.96 282.96 64.15 283.13 64.75 C 283.78 63.07 287.26 61.95 286.47 60.03 C 284.96 60.36 283.43 61.35 281.88 60.68 Z" />
<path fill="#ffffff" opacity="1.00" d=" M 253.92 65.05 C 253.64 62.48 251.95 59.02 254.78 57.39 C 254.13 62.25 256.64 67.05 256.29 72.04 C 254.34 70.94 255.16 68.63 255.41 66.85 C 254.90 66.82 253.88 66.74 253.36 66.71 C 253.50 66.29 253.78 65.46 253.92 65.05 Z" />
<path fill="#ffffff" opacity="1.00" d=" M 167.94 60.34 C 172.25 62.03 177.37 62.86 180.61 66.37 C 179.86 66.86 179.11 67.35 178.37 67.84 C 180.37 68.58 182.13 69.80 183.56 71.37 C 182.83 71.89 182.12 72.42 181.41 72.96 L 183.20 73.31 L 182.85 74.46 C 178.87 74.29 176.36 71.02 173.02 69.40 L 171.13 70.57 L 172.22 69.32 C 170.96 68.78 169.67 68.23 168.83 67.11 C 173.31 68.17 177.50 70.03 181.44 72.40 C 181.26 72.02 180.91 71.27 180.74 70.89 C 176.92 67.90 171.89 67.37 168.02 64.42 C 168.03 64.15 168.06 63.61 168.08 63.34 C 171.60 64.58 175.12 65.89 178.49 67.53 C 178.30 67.09 177.92 66.22 177.73 65.79 C 173.86 65.35 171.11 62.28 167.94 60.34 Z" />
<path fill="#ffffff" opacity="1.00" d=" M 173.95 60.05 C 175.09 59.55 176.87 60.88 176.60 62.13 C 175.47 62.77 173.73 61.24 173.95 60.05 Z" />
<path fill="#ffffff" opacity="1.00" d=" M 273.91 63.89 C 273.19 62.82 274.59 60.91 275.81 61.40 C 276.38 62.47 275.13 64.23 273.91 63.89 Z" />
<path fill="#ffffff" opacity="1.00" d=" M 202.17 62.28 C 204.26 62.52 206.30 63.01 208.34 63.49 C 208.81 64.53 209.34 65.54 209.75 66.61 C 209.06 67.92 207.39 68.16 206.29 69.03 L 207.97 69.36 C 207.82 70.00 207.54 71.29 207.40 71.93 C 205.97 70.94 203.66 70.31 204.19 68.11 C 203.49 67.45 202.79 66.79 202.09 66.14 C 203.73 66.63 205.35 67.15 207.00 67.61 C 205.53 65.75 203.00 64.61 202.17 62.28 Z" />
<path fill="#ffffff" opacity="1.00" d=" M 269.91 65.10 C 269.79 63.72 271.42 61.81 272.82 61.94 C 272.96 63.33 271.37 65.35 269.91 65.10 Z" />
<path fill="#ffffff" opacity="1.00" d=" M 215.03 69.63 C 215.98 67.23 217.09 64.82 219.01 63.04 C 218.99 65.35 218.06 67.50 217.30 69.64 L 215.03 69.63 Z" />
<path fill="#ffffff" opacity="1.00" d=" M 271.35 66.82 C 271.02 65.54 272.60 63.75 273.91 63.89 C 274.46 65.26 272.78 67.21 271.35 66.82 Z" />
<path fill="#ffffff" opacity="1.00" d=" M 276.27 64.06 C 277.43 64.35 278.75 64.46 279.45 65.61 L 277.04 65.10 C 277.36 65.82 278.00 67.27 278.32 68.00 C 276.39 68.90 275.52 71.09 273.66 72.12 L 275.13 68.78 L 272.83 69.39 C 273.45 68.69 274.08 68.00 274.80 67.39 L 275.16 67.55 C 276.51 67.37 277.00 66.96 276.63 66.34 L 275.99 66.11 C 275.07 65.70 275.17 65.02 276.27 64.06 Z" />
<path fill="#ffffff" opacity="1.00" d=" M 181.67 64.36 C 184.10 65.55 187.62 66.52 187.81 69.76 C 185.41 68.45 181.84 67.69 181.67 64.36 Z" />
<path fill="#ffffff" opacity="1.00" d=" M 241.98 64.36 C 244.02 66.30 245.92 68.65 246.13 71.59 C 246.80 70.51 247.09 69.27 247.30 68.02 C 248.14 69.33 249.02 70.61 249.92 71.87 L 249.44 68.47 C 250.29 69.48 251.10 70.50 251.93 71.52 C 251.50 71.50 250.65 71.46 250.22 71.43 C 250.44 72.17 250.88 73.63 251.10 74.37 C 250.49 73.82 249.27 72.72 248.66 72.18 C 248.70 72.90 248.78 74.34 248.82 75.06 C 244.83 72.92 242.29 68.87 241.98 64.36 Z" />
<path fill="#ffffff" opacity="1.00" d=" M 217.35 72.55 C 218.93 70.84 219.44 68.45 221.03 66.75 C 220.73 67.51 220.13 69.02 219.83 69.77 C 220.13 70.47 220.45 71.16 220.78 71.85 C 222.01 69.88 223.02 67.58 225.15 66.40 C 224.28 68.07 223.23 69.63 222.18 71.19 C 222.39 72.45 222.41 73.73 222.21 75.00 L 223.14 75.28 L 222.88 73.88 L 224.00 74.01 L 223.78 72.76 L 226.04 72.72 C 225.04 73.76 224.04 74.80 223.04 75.83 L 225.21 75.94 C 224.82 76.44 224.03 77.46 223.64 77.96 C 223.08 77.28 222.52 76.60 221.97 75.92 C 220.94 76.51 219.92 77.11 218.90 77.71 C 218.26 76.97 217.62 76.24 216.95 75.53 L 215.92 77.23 C 216.35 75.84 216.80 74.45 217.27 73.07 C 216.60 73.32 215.26 73.82 214.60 74.07 C 215.28 72.49 216.06 70.89 217.51 69.85 L 216.88 72.91 C 217.49 72.92 218.11 72.93 218.73 72.94 C 218.40 73.95 218.33 74.98 218.52 76.03 C 219.05 74.95 220.11 72.79 220.64 71.72 C 219.54 72.00 218.44 72.28 217.35 72.55 Z" />
<path fill="#ffffff" opacity="1.00" d=" M 169.79 69.97 C 170.12 70.12 170.79 70.42 171.13 70.57 C 174.76 72.89 178.69 74.62 182.54 76.52 C 182.66 76.87 182.90 77.59 183.02 77.95 C 181.29 77.44 179.61 76.79 177.97 76.05 C 175.71 74.83 172.04 76.81 171.12 73.25 C 172.02 73.38 173.81 73.64 174.71 73.77 C 173.01 72.59 171.03 71.69 169.79 69.97 Z" />
<path fill="#ffffff" opacity="1.00" d=" M 239.32 72.43 C 240.01 72.83 240.70 73.24 241.39 73.65 C 241.57 75.73 243.81 78.55 241.02 79.78 C 240.29 77.76 239.70 75.68 239.73 73.51 L 238.65 73.48 C 238.73 75.12 239.54 76.84 238.79 78.44 C 238.46 77.06 237.95 75.76 237.27 74.54 C 237.01 76.76 237.35 78.98 237.73 81.17 C 236.88 80.58 236.02 79.99 235.18 79.40 C 234.96 80.14 234.54 81.62 234.32 82.36 C 234.30 81.48 234.25 79.70 234.22 78.81 C 233.16 80.52 232.34 82.77 230.05 83.07 C 230.74 80.48 232.53 78.42 234.10 76.32 C 234.47 76.70 235.21 77.47 235.58 77.86 C 235.52 75.86 235.50 73.85 235.55 71.85 C 236.06 72.59 237.08 74.07 237.59 74.80 C 238.16 74.01 238.74 73.22 239.32 72.43 Z" />
<path fill="#ffffff" opacity="1.00" d=" M 164.92 74.39 C 169.12 75.87 172.84 78.39 176.86 80.26 C 177.86 80.62 178.30 81.63 178.90 82.41 C 177.53 82.15 176.15 81.87 174.79 81.55 C 175.07 82.07 175.61 83.11 175.89 83.63 C 173.10 83.46 170.23 83.90 167.54 82.96 C 168.28 82.23 169.02 81.50 169.76 80.77 L 168.45 80.52 C 168.13 80.00 167.51 78.95 167.20 78.43 C 167.60 78.22 168.42 77.81 168.83 77.60 C 167.19 76.97 165.74 75.97 164.92 74.39 M 169.57 78.74 C 169.76 80.34 172.29 81.01 173.69 80.81 C 173.33 79.41 170.98 78.43 169.57 78.74 M 170.14 82.10 C 170.19 82.41 170.31 83.04 170.36 83.36 L 171.32 83.04 L 171.53 82.11 C 171.18 82.11 170.49 82.10 170.14 82.10 Z" />
<path fill="#ffffff" opacity="1.00" d=" M 289.33 74.49 C 289.88 75.22 290.44 75.95 291.02 76.68 L 292.09 74.49 C 292.33 77.26 288.73 78.83 289.52 81.64 L 291.08 81.51 C 291.38 81.19 291.97 80.56 292.26 80.24 C 293.07 81.02 293.81 81.88 293.08 83.05 C 292.54 84.21 292.05 85.39 291.55 86.57 C 290.54 87.91 290.02 89.92 288.06 90.19 C 288.92 88.67 289.60 87.09 290.10 85.45 C 288.28 85.42 287.97 87.71 286.97 88.79 C 286.88 88.18 286.69 86.94 286.59 86.32 L 284.99 86.70 C 285.74 85.08 286.07 83.07 287.53 81.90 L 288.13 81.87 C 287.77 83.11 287.48 84.37 287.26 85.64 C 288.49 85.02 290.20 83.65 289.42 82.11 C 289.10 82.05 288.45 81.93 288.13 81.87 L 287.86 81.21 C 288.15 79.33 289.69 78.06 290.74 76.61 C 290.03 76.76 288.62 77.04 287.92 77.18 C 288.27 76.51 288.97 75.17 289.33 74.49 M 290.87 82.42 L 290.45 83.23 C 290.77 83.35 291.42 83.59 291.74 83.71 L 292.23 83.15 L 291.78 82.38 L 290.87 82.42 Z" />
<path fill="#ffffff" opacity="1.00" d=" M 284.89 82.05 C 284.32 80.20 286.37 77.88 287.92 77.18 C 287.88 78.86 286.66 81.67 284.89 82.05 Z" />
<path fill="#ffffff" opacity="1.00" d=" M 228.88 79.38 C 229.67 78.76 231.25 77.52 232.03 76.91 C 230.89 79.24 229.34 81.33 227.50 83.15 C 227.31 82.54 226.94 81.33 226.75 80.72 C 225.61 81.36 224.49 82.01 223.35 82.63 C 223.97 81.52 224.60 80.43 225.25 79.34 C 226.46 79.35 227.67 79.36 228.88 79.38 Z" />
<path fill="#ffffff" opacity="1.00" d=" M 261.71 81.14 C 263.48 83.17 266.18 83.94 268.01 85.87 C 264.63 85.26 261.41 83.99 258.49 82.21 C 259.30 82.29 260.92 82.47 261.73 82.56 L 261.71 81.14 Z" />
<path fill="#ffffff" opacity="1.00" d=" M 283.27 84.59 C 282.59 83.63 283.69 81.68 284.89 82.05 C 285.67 83.03 284.58 85.21 283.27 84.59 Z" />
<path fill="#ffffff" opacity="1.00" d=" M 251.16 83.63 C 252.06 82.80 254.02 83.91 253.56 85.13 C 252.67 86.12 250.60 84.87 251.16 83.63 Z" />
<path fill="#ffffff" opacity="1.00" d=" M 255.29 83.78 C 256.29 81.54 262.15 86.40 258.14 86.02 C 257.19 85.30 255.82 84.91 255.29 83.78 Z" />
<path fill="#ffffff" opacity="1.00" d=" M 294.11 84.99 C 293.43 83.51 293.98 82.92 295.74 83.24 C 296.23 84.82 295.69 85.40 294.11 84.99 Z" />
<path fill="#ffffff" opacity="1.00" d=" M 293.44 92.75 C 292.55 89.52 296.41 87.28 298.07 84.90 C 297.30 87.44 295.22 89.31 294.48 91.87 C 295.49 91.08 297.50 89.51 298.51 88.72 C 297.57 91.84 295.24 94.24 292.73 96.19 C 292.95 95.04 293.19 93.89 293.44 92.75 Z" />
<path fill="#ffffff" opacity="1.00" d=" M 201.88 86.15 C 203.80 87.25 205.14 89.53 207.43 89.78 L 206.94 90.98 L 207.79 91.00 C 209.11 92.29 210.57 93.51 211.34 95.23 C 207.35 93.32 204.24 89.84 201.88 86.15 Z" />
<path fill="#ffffff" opacity="1.00" d=" M 249.97 86.11 C 252.83 84.37 250.50 89.38 249.97 86.11 Z" />
<path fill="#ffffff" opacity="1.00" d=" M 255.47 86.46 C 256.14 86.35 257.48 86.13 258.14 86.02 C 258.62 86.82 259.12 87.60 259.64 88.38 C 259.71 88.91 259.84 89.97 259.91 90.50 C 258.99 90.18 258.07 89.86 257.16 89.54 L 258.69 92.73 C 256.55 91.12 254.41 89.50 252.24 87.94 C 253.14 87.77 254.95 87.44 255.85 87.27 L 255.33 88.77 C 256.40 88.88 257.48 89.01 258.56 89.14 C 257.44 88.35 256.41 87.45 255.47 86.46 Z" />
<path fill="#ffffff" opacity="1.00" d=" M 289.13 93.57 C 290.41 91.08 291.22 87.45 293.80 86.18 C 294.04 89.20 291.02 91.48 289.13 93.57 Z" />
<path fill="#ffffff" opacity="1.00" d=" M 247.91 87.44 C 248.91 87.00 251.09 87.71 250.84 89.02 C 249.82 89.70 247.60 88.76 247.91 87.44 Z" />
<path fill="#ffffff" opacity="1.00" d=" M 182.55 88.18 C 183.52 87.23 185.48 87.93 185.71 89.25 C 185.46 91.23 181.69 89.86 182.55 88.18 Z" />
<path fill="#ffffff" opacity="1.00" d=" M 207.14 88.47 C 208.56 88.23 210.16 90.11 210.30 91.48 C 209.12 91.47 208.17 90.90 207.43 89.78 C 207.36 89.45 207.21 88.80 207.14 88.47 Z" />
<path fill="#ffffff" opacity="1.00" d=" M 197.16 90.39 C 199.79 91.53 201.81 94.06 204.85 94.06 L 203.29 94.53 C 204.98 95.38 206.68 96.55 207.45 98.35 C 205.92 98.24 205.03 96.89 203.88 96.08 C 201.70 94.12 198.83 92.90 197.16 90.39 Z" />
<path fill="#ffffff" opacity="1.00" d=" M 234.00 89.42 L 235.60 89.36 C 234.68 91.06 235.00 94.56 232.09 93.76 C 232.55 92.24 233.25 90.82 234.00 89.42 Z" />
<path fill="#ffffff" opacity="1.00" d=" M 247.93 89.98 C 250.99 88.42 248.22 93.22 247.93 89.98 Z" />
<path fill="#ffffff" opacity="1.00" d=" M 170.61 93.28 C 172.78 91.65 175.63 91.51 178.21 91.00 C 178.33 91.89 178.57 93.68 178.69 94.57 C 176.26 94.94 173.84 95.35 171.38 95.48 C 172.39 93.73 174.52 93.84 176.19 93.25 C 174.33 93.31 172.47 93.32 170.61 93.28 Z" />
<path fill="#ffffff" opacity="1.00" d=" M 238.52 95.03 C 239.94 93.64 241.35 92.23 242.86 90.94 C 242.60 92.17 242.28 93.39 241.90 94.59 C 241.06 94.70 239.36 94.92 238.52 95.03 Z" />
<path fill="#ffffff" opacity="1.00" d=" M 251.21 90.32 C 254.91 91.77 257.96 94.46 260.17 97.74 C 257.94 96.75 256.26 94.95 254.24 93.65 L 253.71 93.29 C 252.49 92.66 251.65 91.67 251.21 90.32 Z" />
<path fill="#ffffff" opacity="1.00" d=" M 204.06 92.48 C 205.37 92.41 206.19 93.07 206.53 94.48 L 205.82 94.62 L 204.85 94.06 C 204.65 93.67 204.25 92.88 204.06 92.48 Z" />
<path fill="#ffffff" opacity="1.00" d=" M 243.81 93.19 C 245.60 92.51 247.59 92.01 249.44 92.83 C 248.74 92.94 247.33 93.14 246.62 93.24 C 246.68 93.84 246.78 95.04 246.83 95.64 C 245.65 95.95 244.48 96.28 243.31 96.61 C 243.28 96.24 243.21 95.50 243.18 95.12 L 245.50 95.14 C 244.94 94.49 244.37 93.84 243.81 93.19 Z" />
<path fill="#ffffff" opacity="1.00" d=" M 195.18 92.87 C 196.04 93.74 196.90 94.61 197.75 95.49 C 198.41 95.48 199.74 95.45 200.40 95.43 C 203.92 98.56 207.77 101.33 211.71 103.90 C 211.12 104.50 210.54 105.10 209.95 105.70 C 208.98 104.74 208.00 103.79 207.03 102.83 C 206.61 103.13 206.19 103.43 205.78 103.74 C 206.44 104.09 207.77 104.78 208.44 105.13 L 208.82 106.46 C 204.82 105.06 201.55 102.34 198.31 99.72 C 195.78 98.39 192.41 97.82 190.92 95.14 C 192.69 95.86 194.29 96.91 195.88 97.96 C 195.63 96.27 195.40 94.57 195.18 92.87 M 197.78 95.81 C 199.03 98.04 201.26 99.43 203.05 101.19 C 203.43 100.87 203.82 100.55 204.20 100.23 C 202.07 98.73 200.05 97.08 197.78 95.81 Z" />
<path fill="#ffffff" opacity="1.00" d=" M 206.53 94.48 C 206.68 94.60 206.98 94.83 207.13 94.95 C 206.98 94.83 206.68 94.60 206.53 94.48 Z" />
<path fill="#ffffff" opacity="1.00" d=" M 248.81 94.37 C 249.43 94.56 250.66 94.94 251.28 95.13 C 252.02 94.76 253.50 94.02 254.24 93.65 L 253.95 94.52 C 254.13 95.07 254.47 96.18 254.65 96.73 C 257.22 97.52 260.64 98.38 261.43 101.35 C 259.43 101.12 257.86 98.77 256.05 98.96 C 255.93 99.61 255.68 100.93 255.56 101.59 C 254.00 100.73 252.44 99.88 250.89 99.02 C 249.22 99.56 247.46 99.98 246.02 98.68 C 247.36 98.31 248.69 97.92 249.98 97.42 C 251.63 98.01 253.24 99.28 255.09 98.74 C 253.73 96.63 249.97 97.05 248.81 94.37 M 252.19 95.18 C 252.76 95.78 252.76 95.78 252.19 95.18 Z" />
<path fill="#ffffff" opacity="1.00" d=" M 290.54 95.86 C 289.12 94.35 292.92 93.09 292.21 95.44 C 291.79 95.54 290.96 95.75 290.54 95.86 Z" />
<path fill="#ffffff" opacity="1.00" d=" M 207.13 94.95 C 208.51 94.47 210.58 96.02 209.83 97.50 C 208.53 97.86 206.97 96.19 207.13 94.95 Z" />
<path fill="#ffffff" opacity="1.00" d=" M 294.12 99.93 C 295.61 97.80 297.27 93.98 300.45 95.04 C 300.22 96.49 299.21 97.63 298.53 98.88 L 298.12 98.85 C 298.19 98.29 298.34 97.17 298.41 96.61 C 297.08 97.83 295.83 99.22 294.12 99.93 Z" />
<path fill="#ffffff" opacity="1.00" d=" M 168.20 96.42 C 171.71 97.03 175.16 95.83 178.60 95.31 L 177.83 97.20 C 178.43 97.30 179.63 97.50 180.22 97.60 C 175.90 98.97 171.59 100.41 167.19 101.53 C 168.06 100.35 168.94 99.18 169.81 98.00 C 169.40 97.60 168.60 96.81 168.20 96.42 Z" />
<path fill="#ffffff" opacity="1.00" d=" M 228.45 96.30 C 228.82 96.60 229.56 97.20 229.93 97.50 C 230.20 97.24 230.75 96.74 231.02 96.48 C 231.53 97.27 232.04 98.06 232.57 98.84 C 230.09 100.84 227.81 103.21 224.78 104.38 C 224.62 103.40 224.54 102.41 224.42 101.43 C 226.67 100.17 229.03 99.11 231.38 98.05 C 228.79 97.22 226.49 99.68 223.94 99.90 C 224.88 98.09 226.86 97.37 228.45 96.30 Z" />
<path fill="#ffffff" opacity="1.00" d=" M 261.19 98.75 C 258.35 97.19 261.91 96.43 262.96 95.74 C 264.32 97.48 265.63 99.32 266.20 101.50 C 264.69 100.38 263.41 98.97 262.10 97.65 C 262.14 98.22 262.22 99.36 262.26 99.93 C 261.99 99.63 261.46 99.05 261.19 98.75 Z" />
<path fill="#ffffff" opacity="1.00" d=" M 266.06 97.13 C 267.28 97.07 269.29 97.51 269.74 98.80 C 268.86 100.69 265.63 98.77 266.06 97.13 Z" />
<path fill="#ffffff" opacity="1.00" d=" M 296.31 102.79 C 298.33 100.65 300.17 98.33 302.45 96.44 L 300.88 98.89 C 301.41 98.99 302.49 99.19 303.02 99.29 C 301.60 100.45 300.25 101.70 299.01 103.05 C 300.41 102.46 301.80 101.83 303.21 101.26 C 303.27 103.22 301.38 103.92 299.94 104.69 C 300.52 104.66 301.69 104.62 302.28 104.60 C 302.07 105.37 301.64 106.92 301.43 107.69 C 300.83 107.36 300.24 107.02 299.65 106.69 C 299.94 104.60 297.44 104.00 296.31 102.79 Z" />
<path fill="#ffffff" opacity="1.00" d=" M 207.45 98.35 C 207.59 98.49 207.86 98.79 208.00 98.93 C 207.86 98.79 207.59 98.49 207.45 98.35 Z" />
<path fill="#ffffff" opacity="1.00" d=" M 235.24 100.90 C 235.02 99.37 237.28 98.10 238.65 98.40 C 239.18 99.89 236.55 101.54 235.24 100.90 Z" />
<path fill="#ffffff" opacity="1.00" d=" M 242.33 98.02 C 243.01 98.06 244.37 98.14 245.05 98.18 C 244.60 98.61 243.69 99.48 243.24 99.92 C 244.21 100.02 246.17 100.24 247.14 100.35 C 245.67 101.76 243.92 101.20 242.27 100.57 C 241.16 100.79 240.05 101.02 238.94 101.21 C 239.38 99.57 241.12 98.98 242.33 98.02 Z" />
<path fill="#ffffff" opacity="1.00" d=" M 208.00 98.93 L 208.65 98.69 C 208.98 99.15 209.64 100.09 209.96 100.56 C 208.65 100.88 208.00 100.34 208.00 98.93 Z" />
<path fill="#ffffff" opacity="1.00" d=" M 192.67 100.17 C 198.60 104.87 206.43 106.58 212.02 111.70 C 210.82 111.50 209.63 111.28 208.45 111.04 C 208.53 111.59 208.69 112.71 208.78 113.27 C 207.86 112.74 206.95 112.22 206.05 111.69 C 204.85 111.28 203.66 110.84 202.47 110.43 L 202.38 109.66 C 200.87 109.27 199.38 108.80 197.91 108.30 C 196.44 106.33 193.83 108.67 191.91 108.79 C 191.73 106.80 189.42 106.29 188.56 104.68 C 190.93 104.94 193.12 105.91 195.24 106.94 C 194.96 106.27 194.40 104.92 194.12 104.24 C 196.30 105.48 198.55 106.76 201.12 106.84 C 198.58 105.76 196.19 104.37 193.95 102.76 C 192.77 102.58 191.36 102.75 190.73 101.50 L 193.02 101.90 L 192.67 100.17 Z" />
<path fill="#ffffff" opacity="1.00" d=" M 245.97 102.33 C 248.36 101.58 250.83 101.10 253.35 101.10 C 252.28 101.48 251.20 101.83 250.12 102.16 C 249.16 104.07 247.77 105.73 245.77 106.61 C 245.77 105.18 245.84 103.75 245.97 102.33 Z" />
<path fill="#ffffff" opacity="1.00" d=" M 224.76 107.74 C 227.93 104.32 233.14 104.57 237.11 102.44 C 235.39 105.33 231.57 104.96 228.96 106.59 C 229.78 106.88 231.42 107.44 232.24 107.73 C 229.75 107.50 227.25 107.54 224.76 107.74 Z" />
<path fill="#ffffff" opacity="1.00" d=" M 239.16 101.49 C 240.58 101.42 242.01 101.38 243.44 101.39 C 241.30 102.72 242.66 104.61 243.44 106.11 C 242.20 107.08 240.88 107.94 239.49 108.68 C 240.45 107.03 241.47 105.36 241.24 103.38 C 240.79 103.72 239.88 104.41 239.42 104.76 C 239.36 103.94 239.22 102.31 239.16 101.49 Z" />
<path fill="#ffffff" opacity="1.00" d=" M 215.88 103.06 C 216.50 103.64 216.50 103.64 215.88 103.06 Z" />
<path fill="#ffffff" opacity="1.00" d=" M 175.50 104.99 C 177.58 103.38 177.31 107.20 175.40 105.89 L 175.50 104.99 Z" />
<path fill="#ffffff" opacity="1.00" d=" M 214.31 105.03 C 215.50 104.28 217.33 104.31 218.51 105.10 C 218.18 106.47 214.52 106.52 214.31 105.03 Z" />
<path fill="#ffffff" opacity="1.00" d=" M 237.64 106.28 C 241.56 105.49 236.97 110.19 235.24 108.55 C 234.89 107.22 236.71 106.66 237.64 106.28 Z" />
<path fill="#ffffff" opacity="1.00" d=" M 256.79 110.88 C 257.97 108.82 259.55 107.02 261.58 105.78 L 261.81 108.14 C 262.32 107.50 263.35 106.21 263.86 105.57 C 263.74 106.51 263.48 108.38 263.35 109.32 C 264.36 108.23 265.35 107.13 266.34 106.02 C 268.84 106.27 269.40 107.76 268.16 110.06 L 269.57 109.72 C 269.36 110.37 269.16 111.03 268.96 111.68 C 267.71 111.26 263.81 112.57 266.01 109.87 C 266.33 109.60 266.98 109.05 267.31 108.78 L 267.01 108.07 L 266.24 108.15 C 266.18 108.58 266.06 109.44 266.01 109.87 C 264.53 111.38 262.42 111.85 260.53 112.64 C 260.56 111.98 260.62 110.67 260.65 110.02 C 259.68 110.23 257.75 110.67 256.79 110.88 Z" />
<path fill="#ffffff" opacity="1.00" d=" M 270.19 106.30 C 271.79 105.74 272.32 106.27 271.78 107.91 C 270.16 108.48 269.63 107.94 270.19 106.30 Z" />
<path fill="#ffffff" opacity="1.00" d=" M 171.25 108.16 C 172.17 107.01 173.01 105.62 174.74 105.57 L 174.30 107.61 C 175.02 107.69 176.46 107.83 177.18 107.90 C 178.94 106.41 181.10 106.30 183.32 106.81 C 180.94 108.68 177.83 108.93 175.04 109.81 C 178.39 110.58 181.82 110.54 185.24 110.28 C 184.25 112.27 182.82 113.94 180.89 115.08 C 179.45 115.58 177.92 115.49 176.43 115.40 L 178.46 116.34 C 175.83 118.19 173.17 120.26 169.94 120.92 C 171.46 118.49 174.35 117.57 176.54 115.88 L 173.72 116.32 C 174.29 115.65 175.45 114.32 176.03 113.65 C 175.46 114.06 174.33 114.87 173.77 115.27 C 173.29 115.09 172.34 114.72 171.87 114.54 C 173.43 113.05 175.82 112.91 177.25 111.25 C 176.48 111.49 174.96 111.97 174.19 112.21 C 176.45 110.59 173.03 107.97 171.25 108.16 M 179.60 112.85 C 180.24 113.97 181.09 113.98 182.16 112.88 C 181.51 111.78 180.66 111.77 179.60 112.85 Z" />
<path fill="#ffffff" opacity="1.00" d=" M 239.09 110.74 C 240.99 109.35 243.05 108.19 245.17 107.16 C 245.66 108.07 246.18 108.96 246.72 109.84 C 245.70 109.57 244.56 108.80 243.59 109.72 C 242.09 110.08 240.59 110.43 239.09 110.74 Z" />
<path fill="#ffffff" opacity="1.00" d=" M 192.87 108.86 C 198.55 112.04 204.70 114.05 211.09 115.24 C 206.56 117.88 201.15 117.88 196.07 118.22 C 193.19 118.02 189.70 118.28 187.55 115.98 C 188.32 115.96 189.84 115.92 190.60 115.90 C 190.58 115.54 190.55 114.80 190.53 114.43 C 191.08 114.38 192.18 114.28 192.73 114.23 C 192.52 115.06 192.32 115.88 192.12 116.70 C 196.58 116.97 201.11 117.06 205.45 115.85 C 202.24 114.63 198.61 115.98 195.34 114.69 C 195.40 114.39 195.53 113.80 195.60 113.51 C 192.69 113.03 189.93 111.83 187.63 109.98 C 190.91 109.97 193.67 112.13 196.95 112.15 C 195.57 111.08 194.10 110.11 192.87 108.86 Z" />
<path fill="#ffffff" opacity="1.00" d=" M 237.20 110.62 C 237.00 109.22 237.58 108.73 238.95 109.13 C 239.15 110.52 238.57 111.01 237.20 110.62 Z" />
<path fill="#ffffff" opacity="1.00" d=" M 300.36 109.37 C 302.00 108.71 302.55 109.19 302.01 110.83 C 300.37 111.49 299.82 111.00 300.36 109.37 Z" />
<path fill="#ffffff" opacity="1.00" d=" M 215.07 112.41 C 216.25 110.77 218.94 109.86 220.46 111.54 C 218.68 111.91 216.89 112.24 215.07 112.41 Z" />
<path fill="#ffffff" opacity="1.00" d=" M 272.22 111.35 C 273.63 111.50 273.29 113.94 271.97 113.99 C 270.51 113.82 270.96 111.47 272.22 111.35 Z" />
<path fill="#ffffff" opacity="1.00" d=" M 291.70 110.37 C 295.20 109.18 291.92 113.68 294.93 114.04 C 294.37 114.94 293.81 115.83 293.25 116.72 L 294.67 116.70 C 293.87 118.54 292.08 120.18 292.45 122.36 C 291.92 122.32 290.86 122.26 290.33 122.23 C 290.11 120.48 289.84 118.70 290.52 117.02 C 290.27 116.49 289.78 115.41 289.53 114.87 C 290.51 113.52 291.86 112.23 291.70 110.37 M 291.28 115.25 C 291.78 115.83 291.78 115.83 291.28 115.25 Z" />
<path fill="#ffffff" opacity="1.00" d=" M 229.71 111.83 C 231.56 111.91 233.46 112.20 234.97 113.39 C 235.23 115.10 232.92 114.84 231.86 115.47 C 231.21 114.21 230.46 113.01 229.71 111.83 Z" />
<path fill="#ffffff" opacity="1.00" d=" M 210.94 118.78 C 215.84 116.73 220.74 114.40 225.97 113.03 C 224.95 114.02 223.90 114.97 222.86 115.93 C 219.86 117.06 216.35 117.29 213.87 119.45 C 215.74 119.24 217.57 118.77 219.40 118.34 C 215.83 121.34 210.75 121.48 206.34 122.20 C 207.81 122.96 209.49 123.10 211.09 123.45 C 207.56 124.46 204.32 126.28 200.80 127.30 C 195.68 127.24 190.74 128.65 185.83 129.94 C 186.67 127.20 190.42 128.05 192.24 126.17 C 190.48 126.43 188.74 126.81 187.00 127.17 C 186.78 126.68 186.35 125.70 186.13 125.21 C 189.58 124.56 193.17 125.82 196.47 124.34 C 199.37 123.29 202.45 124.04 205.44 123.56 C 205.07 122.77 204.70 121.98 204.32 121.20 C 206.82 121.85 209.21 120.51 210.94 118.78 Z" />
<path fill="#ffffff" opacity="1.00" d=" M 239.26 112.94 C 240.90 111.88 241.25 114.47 239.79 114.87 C 238.20 115.89 237.82 113.31 239.26 112.94 Z" />
<path fill="#ffffff" opacity="1.00" d=" M 260.10 114.14 C 262.94 114.24 266.11 113.54 268.62 115.23 C 268.79 115.80 269.12 116.95 269.28 117.52 C 269.11 119.40 269.29 121.85 266.97 122.45 C 265.48 123.51 263.76 122.10 262.21 121.93 C 260.39 119.68 259.89 116.97 260.10 114.14 M 263.90 118.10 C 265.08 119.68 267.00 119.05 268.52 118.37 C 267.67 117.24 266.73 116.18 265.82 115.11 C 265.09 116.05 264.45 117.05 263.90 118.10 Z" />
<path fill="#ffffff" opacity="1.00" d=" M 273.29 114.36 C 274.93 113.79 275.40 114.35 274.71 116.04 C 273.09 116.61 272.62 116.05 273.29 114.36 Z" />
<path fill="#ffffff" opacity="1.00" d=" M 301.21 114.22 C 302.69 112.92 304.18 115.67 302.74 116.61 C 301.24 117.84 299.81 115.19 301.21 114.22 Z" />
<path fill="#ffffff" opacity="1.00" d=" M 223.83 118.00 C 224.34 116.01 226.26 115.54 228.03 115.15 C 227.27 116.87 225.45 117.42 223.83 118.00 Z" />
<path fill="#ffffff" opacity="1.00" d=" M 255.76 116.29 C 256.57 115.53 257.50 114.97 258.62 114.78 C 256.47 118.22 260.13 120.81 262.18 123.18 C 263.60 123.77 265.12 124.08 266.61 124.52 C 266.31 125.02 266.02 125.53 265.73 126.04 C 264.34 125.21 262.92 124.45 261.54 123.62 C 258.64 122.09 257.92 118.56 255.76 116.29 Z" />
<path fill="#ffffff" opacity="1.00" d=" M 172.38 116.38 C 172.64 116.64 172.64 116.64 172.38 116.38 Z" />
<path fill="#ffffff" opacity="1.00" d=" M 273.18 116.74 C 277.62 114.99 278.09 121.22 282.01 121.55 C 281.15 122.01 280.29 122.49 279.45 122.98 C 281.05 122.78 282.65 122.55 284.25 122.30 C 285.29 124.45 285.92 126.73 285.57 129.13 C 284.52 128.60 281.93 128.76 282.34 127.01 C 282.80 126.55 283.70 125.64 284.16 125.19 C 283.30 125.46 281.58 126.00 280.72 126.27 C 279.80 125.44 278.88 124.60 278.32 123.48 C 276.01 122.42 275.98 119.81 275.71 117.65 C 275.08 117.43 273.82 116.97 273.18 116.74 Z" />
<path fill="#ffffff" opacity="1.00" d=" M 251.45 117.90 C 253.76 117.73 255.62 119.22 256.62 121.20 L 253.81 120.82 C 253.98 121.21 254.33 121.98 254.51 122.37 C 255.44 122.30 257.29 122.15 258.22 122.07 C 257.69 122.56 256.64 123.52 256.12 124.00 C 257.18 123.93 259.30 123.78 260.37 123.71 C 259.54 124.51 258.71 125.30 257.88 126.09 C 255.61 126.02 252.44 126.66 251.87 123.66 L 252.62 123.17 C 253.70 122.36 251.97 121.84 251.48 121.46 C 251.50 120.27 251.47 119.09 251.45 117.90 Z" />
<path fill="#ffffff" opacity="1.00" d=" M 180.07 119.44 C 183.10 117.57 180.51 122.58 180.07 119.44 Z" />
<path fill="#ffffff" opacity="1.00" d=" M 187.18 120.28 C 187.47 120.04 188.05 119.56 188.35 119.32 C 188.46 119.97 188.68 121.27 188.79 121.91 C 187.62 122.18 186.45 122.41 185.28 122.62 L 185.68 123.88 C 185.06 123.71 183.83 123.37 183.22 123.20 L 184.12 124.74 C 182.98 125.41 181.85 126.08 180.72 126.76 C 177.81 128.56 175.52 131.15 172.73 133.11 C 174.46 130.13 177.37 128.06 179.69 125.56 L 179.10 124.12 L 181.26 124.99 L 181.88 123.77 C 179.79 123.93 177.78 123.30 175.80 122.76 C 178.47 122.19 181.17 119.71 183.99 120.94 C 185.05 120.73 186.11 120.51 187.18 120.28 Z" />
<path fill="#ffffff" opacity="1.00" d=" M 190.71 121.70 C 192.01 121.49 193.31 121.27 194.61 121.05 C 194.54 122.25 194.48 123.44 194.44 124.64 C 192.55 124.42 190.67 124.21 188.79 123.96 C 189.43 123.21 190.07 122.45 190.71 121.70 Z" />
<path fill="#ffffff" opacity="1.00" d=" M 273.39 122.02 C 274.82 123.86 276.37 125.70 277.11 127.96 C 275.58 127.24 273.74 126.85 272.60 125.54 C 272.82 124.35 273.09 123.18 273.39 122.02 Z" />
<path fill="#ffffff" opacity="1.00" d=" M 174.41 125.34 C 175.11 124.54 175.95 124.22 176.93 124.38 C 176.92 124.88 176.92 125.88 176.91 126.38 C 176.12 127.35 173.33 126.94 174.41 125.34 Z" />
<path fill="#ffffff" opacity="1.00" d=" M 178.02 124.36 C 178.30 124.68 178.30 124.68 178.02 124.36 Z" />
<path fill="#ffffff" opacity="1.00" d=" M 290.98 123.45 C 292.67 123.83 294.33 124.31 295.97 124.88 C 296.09 126.60 297.47 128.84 295.42 129.96 C 295.53 130.92 295.74 132.84 295.84 133.80 C 294.32 131.91 294.26 129.64 295.03 127.43 C 292.32 128.04 293.01 124.26 290.98 123.45 Z" />
<path fill="#ffffff" opacity="1.00" d=" M 257.90 127.69 C 259.57 127.24 261.23 126.77 262.91 126.34 C 262.68 128.26 260.64 128.87 259.27 129.85 C 258.81 129.13 258.35 128.41 257.90 127.69 Z" />
<path fill="#ffffff" opacity="1.00" d=" M 188.44 135.28 C 194.13 132.22 200.01 129.50 205.93 126.91 C 203.39 129.86 200.17 132.14 196.56 133.60 C 194.70 133.51 193.05 134.29 191.45 135.14 C 191.03 136.17 190.63 137.20 190.24 138.24 C 190.37 139.42 191.77 139.84 192.63 140.40 L 191.79 138.07 L 194.48 139.21 C 194.39 138.74 191.00 137.63 192.93 137.03 C 194.37 136.43 195.82 135.85 197.28 135.29 C 198.48 134.60 199.69 133.93 200.92 133.28 C 200.20 135.34 198.67 136.85 196.77 137.85 C 194.93 139.53 192.95 141.02 190.97 142.52 L 194.25 141.65 C 192.16 143.98 189.49 145.65 186.71 147.04 C 187.32 146.42 188.53 145.16 189.13 144.53 C 188.60 144.27 187.53 143.73 186.99 143.46 C 187.93 142.63 189.03 142.16 190.28 142.06 C 189.46 140.75 188.77 139.33 187.61 138.28 C 188.10 137.34 188.37 136.33 188.44 135.28 Z" />
<path fill="#ffffff" opacity="1.00" d=" M 262.92 130.05 C 263.12 128.63 264.43 127.81 265.31 126.81 C 265.51 127.30 265.91 128.28 266.11 128.77 C 268.00 129.77 269.97 130.75 272.19 130.29 C 271.30 132.03 270.40 133.77 269.69 135.60 C 269.44 136.22 268.93 137.46 268.67 138.08 C 268.38 138.00 267.79 137.85 267.49 137.78 C 267.82 136.36 267.76 134.91 267.50 133.49 C 267.79 132.38 268.07 131.28 268.35 130.17 C 266.72 131.59 265.44 133.67 263.05 133.90 C 263.65 132.67 264.21 131.44 264.75 130.20 C 264.29 130.16 263.38 130.09 262.92 130.05 Z" />
<path fill="#ffffff" opacity="1.00" d=" M 195.12 129.04 C 196.53 128.40 198.98 126.82 199.88 129.02 C 195.51 129.87 192.00 132.98 187.58 133.63 C 189.52 131.32 192.60 130.54 195.12 129.04 Z" />
<path fill="#ffffff" opacity="1.00" d=" M 218.51 130.28 C 220.08 129.20 221.80 128.38 223.56 127.67 C 222.86 128.94 222.35 130.29 222.45 131.77 C 221.24 132.75 220.01 133.70 218.77 134.63 C 217.10 134.50 215.42 134.46 213.76 134.44 C 215.65 132.67 218.24 132.45 220.65 131.99 C 219.93 131.42 219.22 130.85 218.51 130.28 M 221.02 130.37 C 221.28 130.68 221.28 130.68 221.02 130.37 Z" />
<path fill="#ffffff" opacity="1.00" d=" M 300.16 129.31 C 301.38 128.87 302.67 130.90 301.85 131.88 C 300.56 132.37 299.58 130.31 300.16 129.31 Z" />
<path fill="#ffffff" opacity="1.00" d=" M 297.14 129.88 C 299.07 130.58 299.80 132.58 300.77 134.21 C 301.82 135.87 302.96 137.61 304.99 138.14 C 306.07 138.65 307.18 139.09 308.28 139.59 C 310.74 144.20 315.43 146.91 318.64 150.94 C 318.18 151.44 317.26 152.46 316.80 152.97 C 314.62 152.26 312.09 152.04 310.51 150.20 C 312.82 149.66 315.01 150.54 317.16 151.26 C 315.50 149.40 313.47 147.95 311.17 147.00 L 311.94 149.26 C 310.91 148.97 309.92 148.63 308.94 148.22 C 308.38 146.58 307.85 144.88 306.49 143.70 C 306.59 143.09 306.77 141.88 306.87 141.27 L 306.25 141.29 C 304.89 139.81 303.10 138.84 301.37 137.87 C 301.89 138.72 302.95 140.41 303.48 141.25 L 305.00 140.51 C 304.95 141.42 304.90 142.33 304.86 143.24 C 303.17 142.26 301.84 142.47 300.86 143.87 C 299.43 142.58 297.96 141.33 296.70 139.88 C 298.39 140.78 299.99 141.84 301.67 142.78 C 299.60 140.10 297.01 137.88 295.01 135.15 C 295.44 135.10 296.29 135.01 296.71 134.96 C 297.63 136.23 298.57 137.48 299.54 138.71 C 301.09 137.36 300.86 133.89 297.85 136.12 C 299.73 134.07 297.05 132.07 297.14 129.88 Z" />
<path fill="#ffffff" opacity="1.00" d=" M 213.56 132.65 C 215.99 133.42 211.49 136.33 210.98 134.34 C 211.55 133.36 212.41 132.79 213.56 132.65 Z" />
<path fill="#ffffff" opacity="1.00" d=" M 237.84 134.79 C 237.57 133.26 240.63 132.87 241.72 133.46 C 242.14 135.35 238.99 135.51 237.84 134.79 Z" />
<path fill="#ffffff" opacity="1.00" d=" M 272.53 132.10 C 273.84 135.00 272.82 138.66 270.83 141.04 C 270.64 139.79 270.44 138.55 270.23 137.32 C 270.97 135.56 271.72 133.82 272.53 132.10 Z" />
<path fill="#ffffff" opacity="1.00" d=" M 299.94 132.03 C 304.12 131.61 305.31 136.42 308.10 138.48 C 307.32 138.39 305.77 138.23 304.99 138.14 C 303.54 135.92 301.61 134.06 299.94 132.03 Z" />
<path fill="#ffffff" opacity="1.00" d=" M 213.27 138.45 C 212.83 136.69 216.22 134.09 217.36 135.59 C 216.43 136.84 214.89 138.48 213.27 138.45 Z" />
<path fill="#ffffff" opacity="1.00" d=" M 235.53 138.04 C 236.56 135.77 238.49 135.07 240.99 135.62 C 241.46 138.38 238.37 138.62 236.69 139.65 C 236.57 140.19 236.32 141.27 236.19 141.81 C 237.82 141.71 239.45 141.65 241.09 141.64 C 238.91 143.95 235.97 145.27 233.07 146.43 L 233.85 143.77 C 230.30 146.13 227.45 149.32 224.19 152.03 C 224.22 151.46 224.28 150.33 224.31 149.76 C 224.89 149.16 224.89 149.16 224.31 149.76 C 223.76 149.74 222.67 149.71 222.12 149.69 C 223.90 147.84 225.93 146.28 228.02 144.81 L 227.27 147.34 C 229.79 145.83 231.87 143.67 234.51 142.32 C 234.12 141.99 233.33 141.33 232.94 141.00 C 232.40 141.11 231.33 141.34 230.80 141.46 C 231.89 139.73 233.86 139.04 235.53 138.04 Z" />
<path fill="#ffffff" opacity="1.00" d=" M 277.46 136.46 C 280.38 135.84 276.95 140.50 275.48 139.02 C 275.06 137.78 276.45 136.82 277.46 136.46 Z" />
<path fill="#ffffff" opacity="1.00" d=" M 191.54 145.35 C 194.98 143.36 197.82 140.56 201.01 138.23 C 201.14 140.34 199.18 141.48 197.53 142.26 C 198.31 142.71 199.10 143.14 199.90 143.57 C 198.49 145.13 197.08 146.71 195.50 148.12 C 194.64 148.21 193.99 147.86 193.56 147.07 C 194.47 146.50 196.30 145.35 197.21 144.78 C 196.82 144.42 196.42 144.06 196.02 143.71 C 192.99 146.68 189.64 149.30 186.50 152.15 C 187.06 152.54 187.64 152.93 188.23 153.31 L 188.99 153.79 C 188.24 154.34 187.51 154.91 186.77 155.47 C 185.86 154.14 182.73 152.09 186.35 152.11 L 186.64 150.44 L 184.44 151.12 C 185.94 148.30 189.13 147.20 191.54 145.35 Z" />
<path fill="#ffffff" opacity="1.00" d=" M 218.38 141.06 C 220.24 139.82 222.10 138.50 224.31 137.97 C 223.57 140.76 217.91 140.58 219.94 143.86 C 218.96 144.31 217.99 144.76 217.02 145.21 C 217.45 146.02 217.88 146.85 218.29 147.68 C 219.02 147.38 219.74 147.05 220.45 146.69 L 218.17 145.56 C 220.36 144.54 222.30 142.33 224.90 142.55 C 225.70 142.07 226.50 141.60 227.31 141.14 C 225.81 143.68 222.98 144.95 221.03 147.09 C 218.46 149.07 217.17 152.24 214.44 154.04 C 214.32 151.95 217.98 151.03 216.62 148.93 C 215.20 150.48 214.03 152.45 211.94 153.20 C 213.04 151.11 216.12 149.76 215.82 147.19 C 215.11 147.23 214.41 147.39 213.74 147.66 C 213.57 146.97 213.23 145.58 213.06 144.89 C 213.77 144.21 214.48 143.55 215.21 142.89 C 216.46 144.41 217.92 143.91 219.10 142.56 C 218.92 142.18 218.56 141.43 218.38 141.06 M 214.74 145.32 C 214.97 145.71 214.97 145.71 214.74 145.32 Z" />
<path fill="#ffffff" opacity="1.00" d=" M 279.40 138.25 C 280.68 139.14 281.94 140.04 283.20 140.95 C 281.81 141.89 280.40 142.82 278.99 143.73 C 278.09 143.03 277.19 142.33 276.29 141.64 C 277.31 140.49 278.36 139.37 279.40 138.25 Z" />
<path fill="#ffffff" opacity="1.00" d=" M 210.32 139.37 C 211.26 140.48 209.64 143.92 207.96 143.76 C 207.21 142.13 208.97 140.17 210.32 139.37 Z" />
<path fill="#ffffff" opacity="1.00" d=" M 204.52 150.57 C 204.65 147.52 204.61 144.11 206.81 141.72 C 206.75 144.55 205.96 147.28 205.36 150.03 C 206.74 148.75 207.88 147.26 209.06 145.81 C 209.36 147.86 207.87 149.20 206.46 150.40 C 205.00 154.44 203.58 158.76 200.42 161.82 C 200.79 159.95 201.97 158.48 203.01 156.96 C 202.93 155.66 201.59 154.58 202.19 153.23 C 202.56 153.01 203.31 152.59 203.68 152.38 C 203.55 151.86 203.29 150.81 203.16 150.29 L 204.52 150.57 Z" />
<path fill="#ffffff" opacity="1.00" d=" M 254.39 141.94 C 255.84 142.35 258.32 141.55 258.54 143.76 C 260.13 143.19 261.76 142.68 263.37 142.16 C 263.44 142.89 263.58 144.34 263.65 145.07 C 263.19 144.84 262.28 144.38 261.83 144.15 C 260.31 144.40 258.78 144.65 257.24 144.67 C 256.22 143.84 255.31 142.87 254.39 141.94 Z" />
<path fill="#ffffff" opacity="1.00" d=" M 280.98 143.23 C 281.64 143.82 281.64 143.82 280.98 143.23 Z" />
<path fill="#ffffff" opacity="1.00" d=" M 303.33 143.96 C 304.70 143.51 305.27 143.98 305.05 145.37 C 303.68 145.82 303.11 145.35 303.33 143.96 Z" />
<path fill="#ffffff" opacity="1.00" d=" M 200.21 151.01 C 201.31 148.83 201.19 145.64 203.52 144.34 C 203.55 145.59 203.60 148.10 203.63 149.36 C 202.82 150.53 202.00 151.70 201.24 152.90 C 201.61 156.20 200.72 160.34 197.92 162.39 C 197.85 161.77 197.70 160.54 197.63 159.92 C 197.04 161.07 196.43 162.21 195.82 163.35 C 193.47 163.44 191.45 164.64 189.35 165.54 C 187.41 168.53 184.83 171.06 181.83 172.98 C 184.15 168.75 188.11 165.74 190.50 161.53 C 192.84 158.69 192.53 153.62 196.68 152.55 C 197.84 150.72 198.95 148.87 200.10 147.04 C 200.13 148.03 200.18 150.02 200.21 151.01 Z" />
<path fill="#ffffff" opacity="1.00" d=" M 269.33 149.88 C 268.97 148.30 271.49 147.04 272.82 147.55 C 273.08 149.02 270.63 150.48 269.33 149.88 Z" />
<path fill="#ffffff" opacity="1.00" d=" M 188.23 153.31 C 189.42 151.63 190.82 150.12 192.18 148.58 C 193.41 148.66 194.63 148.75 195.86 148.83 C 192.64 150.09 192.87 154.65 189.60 156.17 C 189.98 154.63 190.54 153.16 191.28 151.76 C 191.35 151.68 191.48 151.53 191.55 151.46 L 191.44 151.56 L 191.28 151.76 C 190.52 152.15 188.99 152.92 188.23 153.31 Z" />
<path fill="#ffffff" opacity="1.00" d=" M 241.49 149.46 C 242.10 148.58 244.47 147.99 244.61 149.50 C 244.37 151.25 240.32 151.78 241.49 149.46 Z" />
<path fill="#ffffff" opacity="1.00" d=" M 246.11 152.80 C 247.38 152.31 248.66 151.82 249.94 151.33 C 250.06 151.59 250.30 152.11 250.42 152.37 C 251.33 152.28 253.15 152.11 254.07 152.02 L 252.27 153.08 C 254.04 153.96 255.67 155.85 257.88 154.85 C 256.64 157.01 254.10 157.53 252.00 158.46 C 252.84 157.58 252.95 156.53 252.27 155.65 C 251.37 156.03 249.56 156.79 248.66 157.16 C 249.69 155.76 251.07 154.96 252.81 154.77 C 249.61 152.49 246.82 156.55 243.92 157.64 C 244.92 156.01 246.53 154.97 248.08 153.90 C 247.58 153.63 246.60 153.07 246.11 152.80 Z" />
<path fill="#ffffff" opacity="1.00" d=" M 317.51 152.46 C 321.24 152.29 322.64 156.55 325.27 158.53 C 325.68 158.60 326.49 158.73 326.89 158.80 C 326.71 161.87 329.63 163.40 331.53 165.26 C 333.90 167.03 335.11 169.91 337.56 171.58 C 340.44 173.65 343.40 175.81 345.39 178.80 C 346.19 183.81 342.46 187.95 339.05 191.11 C 335.99 194.46 331.95 196.64 328.71 199.78 C 327.32 201.24 325.37 201.87 323.59 202.70 C 323.67 202.09 323.82 200.87 323.89 200.27 L 323.15 200.07 C 323.25 200.69 323.43 201.92 323.53 202.53 L 321.42 202.50 C 321.60 200.72 321.74 198.94 321.85 197.17 C 320.61 196.80 319.31 196.15 318.01 196.78 C 319.01 197.81 320.06 198.83 321.10 199.83 C 318.44 199.89 315.78 199.86 313.12 199.86 L 312.98 198.43 C 312.07 198.73 310.23 199.33 309.31 199.64 C 309.69 198.59 310.45 196.49 310.83 195.44 C 311.26 195.63 312.14 196.02 312.57 196.22 C 312.87 196.93 313.19 197.63 313.53 198.33 C 314.50 196.46 314.60 194.45 313.71 192.50 C 314.25 192.51 315.32 192.54 315.86 192.55 C 315.80 192.20 315.68 191.48 315.62 191.13 C 313.41 191.36 312.39 193.77 313.93 195.71 C 312.72 195.45 311.51 195.21 310.31 195.00 C 309.55 196.86 308.85 199.26 306.40 199.39 C 306.62 198.84 307.05 197.74 307.26 197.18 C 308.15 195.86 308.55 194.33 308.60 192.74 C 310.37 191.37 311.92 189.72 313.15 187.84 C 310.51 190.70 306.86 191.76 303.68 193.81 C 302.14 193.51 301.34 192.06 300.37 191.02 C 299.79 191.60 298.55 191.79 298.45 192.69 C 299.28 193.70 300.21 194.64 301.10 195.61 L 301.25 193.59 C 302.74 194.56 304.22 195.57 305.74 196.51 L 305.57 194.32 L 308.20 194.31 C 307.96 195.03 307.50 196.46 307.26 197.18 C 306.42 197.78 305.58 198.37 304.74 198.96 C 304.24 198.16 303.74 197.37 303.22 196.60 L 301.75 199.43 C 301.67 198.53 301.50 196.72 301.42 195.82 C 301.36 196.40 301.24 197.58 301.19 198.17 C 299.97 197.56 299.05 196.64 298.07 195.77 C 295.67 197.33 293.42 199.11 291.31 201.03 C 291.03 197.61 295.56 197.13 297.25 194.76 C 296.81 194.36 296.38 193.96 295.95 193.58 C 294.21 195.05 292.39 196.43 290.66 197.91 L 290.09 197.98 L 290.19 199.12 L 289.32 199.36 C 287.25 200.35 285.25 201.49 283.24 202.59 C 283.92 202.69 285.29 202.90 285.98 203.01 L 286.95 203.23 C 286.23 203.69 284.80 204.61 284.09 205.07 C 283.84 204.56 283.35 203.52 283.10 203.01 C 282.50 203.22 281.30 203.64 280.70 203.85 C 280.87 202.75 281.39 201.86 282.27 201.19 C 284.76 199.01 287.12 196.56 290.18 195.16 C 291.23 193.72 292.50 192.47 293.82 191.28 C 294.66 191.42 295.50 191.57 296.34 191.74 C 297.12 191.38 297.90 191.02 298.70 190.68 C 297.01 188.84 297.52 187.08 298.98 185.49 C 297.12 186.05 295.76 185.55 294.91 183.97 C 295.51 183.73 296.72 183.26 297.33 183.02 C 297.78 181.46 298.35 179.93 298.96 178.43 C 297.29 178.73 295.63 179.01 293.96 179.25 C 294.92 178.54 295.09 177.68 294.46 176.69 C 293.68 175.44 295.90 175.54 296.53 174.99 C 296.65 175.46 296.90 176.39 297.02 176.86 L 297.40 177.45 C 297.91 177.44 298.94 177.42 299.46 177.41 L 298.96 179.19 L 300.61 178.46 C 300.63 178.89 300.67 179.77 300.69 180.21 C 301.45 180.08 302.96 179.83 303.72 179.71 C 303.20 182.31 298.96 181.70 299.55 184.73 C 301.04 183.67 303.45 183.51 304.17 181.57 C 304.75 182.51 305.29 183.47 305.85 184.42 C 304.36 184.72 302.86 185.03 301.38 185.36 C 301.88 187.04 302.27 188.76 302.52 190.51 C 303.53 189.95 304.17 190.88 304.71 191.61 C 306.88 189.83 309.35 188.49 311.55 186.76 C 311.54 185.80 311.26 184.98 310.68 184.28 L 310.08 183.76 C 309.42 182.27 311.02 181.62 311.91 180.82 C 311.94 181.32 312.00 182.32 312.02 182.82 C 314.89 181.22 316.98 184.73 319.86 184.43 C 319.09 185.34 318.31 186.27 317.55 187.20 C 319.04 187.17 320.54 187.19 322.03 187.26 C 320.41 188.49 318.39 188.85 316.45 189.26 C 320.60 189.26 322.89 193.29 322.29 197.06 C 322.98 196.95 324.38 196.72 325.07 196.60 C 325.04 197.46 324.97 199.18 324.94 200.03 C 325.81 199.60 326.68 199.16 327.56 198.73 C 329.25 197.16 331.16 195.84 333.09 194.59 C 332.49 194.00 331.89 193.40 331.31 192.80 C 334.64 193.85 336.85 191.25 338.97 189.25 C 341.41 187.18 341.12 183.31 343.78 181.45 C 343.84 180.96 343.96 179.97 344.02 179.48 C 342.73 179.09 341.47 178.64 340.17 178.30 C 338.93 176.91 337.76 175.30 335.85 174.84 C 337.73 176.72 339.91 178.27 341.78 180.17 C 337.25 180.94 331.23 182.10 328.20 177.60 C 328.15 176.67 328.04 174.83 327.99 173.91 C 329.48 174.80 329.78 176.57 330.49 178.01 L 330.24 175.22 C 331.37 175.87 332.46 176.72 333.86 176.62 C 334.35 176.94 335.33 177.57 335.82 177.88 C 333.75 175.95 331.90 173.79 330.22 171.51 C 332.95 171.40 335.35 172.79 337.77 173.83 L 337.87 173.43 C 334.71 171.15 332.61 167.46 328.99 165.89 C 326.57 163.70 324.72 161.00 322.54 158.59 C 320.28 158.68 318.65 156.90 316.83 155.85 C 317.33 155.60 318.34 155.09 318.85 154.83 C 318.52 154.24 317.85 153.06 317.51 152.46 M 317.13 194.94 C 315.67 198.05 320.37 195.04 317.13 194.94 Z" />
<path fill="#ffffff" opacity="1.00" d=" M 205.33 157.53 C 204.69 156.43 205.56 154.00 206.98 154.19 C 207.66 155.27 206.80 157.86 205.33 157.53 Z" />
<path fill="#ffffff" opacity="1.00" d=" M 216.14 154.25 C 216.85 154.82 216.85 154.82 216.14 154.25 Z" />
<path fill="#ffffff" opacity="1.00" d=" M 221.92 160.45 C 223.04 157.83 224.96 155.67 227.19 153.93 C 226.07 156.54 224.20 158.78 221.92 160.45 Z" />
<path fill="#ffffff" opacity="1.00" d=" M 257.29 158.12 C 257.97 155.29 260.85 154.68 263.20 154.07 C 262.46 156.75 259.55 157.32 257.29 158.12 Z" />
<path fill="#ffffff" opacity="1.00" d=" M 228.80 157.02 C 228.01 158.86 227.02 160.60 226.09 162.37 L 224.27 162.17 C 225.55 160.27 226.96 158.42 228.80 157.02 Z" />
<path fill="#ffffff" opacity="1.00" d=" M 289.14 159.22 C 289.12 157.79 291.39 156.99 292.60 157.34 C 292.93 158.86 290.31 159.84 289.14 159.22 Z" />
<path fill="#ffffff" opacity="1.00" d=" M 292.26 161.30 C 293.91 160.48 295.55 159.65 297.27 158.97 C 296.44 161.05 293.80 161.04 292.47 162.64 C 293.31 162.67 294.98 162.73 295.82 162.76 C 295.03 163.21 293.43 164.10 292.64 164.55 C 292.51 163.47 292.38 162.38 292.26 161.30 Z" />
<path fill="#ffffff" opacity="1.00" d=" M 289.07 161.90 C 288.82 160.60 290.93 159.63 292.01 160.13 C 292.26 161.44 290.13 162.37 289.07 161.90 Z" />
<path fill="#ffffff" opacity="1.00" d=" M 213.18 165.66 C 216.38 165.98 218.03 162.26 220.84 161.13 C 219.33 163.53 217.62 165.81 216.18 168.26 C 215.76 168.29 214.92 168.34 214.50 168.36 C 214.52 167.85 214.56 166.82 214.57 166.30 C 213.49 167.25 212.42 168.22 211.12 168.85 C 211.74 167.75 212.44 166.69 213.18 165.66 Z" />
<path fill="#ffffff" opacity="1.00" d=" M 228.99 162.18 C 229.61 162.80 229.61 162.80 228.99 162.18 Z" />
<path fill="#ffffff" opacity="1.00" d=" M 220.12 172.43 C 220.73 167.93 224.88 165.68 227.23 162.20 C 225.12 165.87 224.17 169.90 224.34 174.13 C 223.18 175.25 222.23 178.66 220.67 175.92 C 219.95 175.76 219.24 175.58 218.54 175.39 C 220.82 173.97 223.29 172.12 223.94 169.35 C 222.98 170.12 221.08 171.66 220.12 172.43 Z" />
<path fill="#ffffff" opacity="1.00" d=" M 192.06 172.25 C 194.34 169.69 196.80 167.30 199.34 165.01 C 199.96 165.50 200.58 165.98 201.21 166.47 L 202.27 164.89 C 200.70 168.99 197.18 172.03 193.89 174.81 C 193.28 173.95 192.67 173.09 192.06 172.25 M 198.07 166.69 C 197.13 168.61 195.57 170.09 193.68 171.08 C 194.07 171.51 194.47 171.95 194.87 172.38 C 196.30 170.79 197.85 169.30 199.52 167.97 C 199.04 167.54 198.55 167.11 198.07 166.69 Z" />
<path fill="#ffffff" opacity="1.00" d=" M 239.99 167.72 C 241.88 166.68 243.83 165.76 245.79 164.85 L 245.64 166.42 C 246.25 166.41 247.49 166.40 248.10 166.39 C 248.54 164.03 251.13 166.41 252.54 166.27 C 253.18 165.90 254.47 165.17 255.12 164.80 C 254.30 165.52 252.65 166.95 251.83 167.67 C 253.70 167.22 255.29 167.77 256.13 169.37 C 255.50 169.39 254.22 169.43 253.58 169.45 L 253.55 170.31 C 250.01 172.73 246.79 175.57 243.27 178.02 C 243.47 177.24 243.88 175.67 244.08 174.89 C 241.80 176.42 239.44 177.81 237.02 179.11 C 237.26 178.42 237.74 177.05 237.98 176.36 L 235.87 176.40 C 237.65 175.39 239.50 174.21 241.66 174.39 L 241.34 173.19 C 241.77 173.28 242.62 173.47 243.04 173.56 C 243.42 173.20 244.18 172.47 244.56 172.11 C 244.52 171.79 244.45 171.16 244.41 170.84 C 246.31 169.95 247.68 168.35 248.98 166.76 C 247.44 167.20 245.88 167.48 244.29 167.59 L 244.67 168.59 C 243.15 169.35 241.63 170.13 240.03 170.73 C 241.02 169.52 242.37 168.69 243.60 167.74 C 242.70 167.74 240.89 167.73 239.99 167.72 Z" />
<path fill="#ffffff" opacity="1.00" d=" M 301.59 165.42 C 304.23 166.56 298.57 169.05 298.10 166.97 C 298.58 165.60 300.35 165.43 301.59 165.42 Z" />
<path fill="#ffffff" opacity="1.00" d=" M 323.61 165.42 C 324.23 165.99 324.23 165.99 323.61 165.42 Z" />
<path fill="#ffffff" opacity="1.00" d=" M 202.46 173.41 C 203.27 170.60 205.24 168.26 207.92 167.05 C 205.41 170.64 202.95 174.42 199.46 177.14 C 199.91 177.46 200.36 177.78 200.82 178.09 C 201.70 176.69 202.93 175.73 204.50 175.21 C 203.11 178.78 199.59 180.79 196.77 183.13 C 197.12 181.54 197.96 180.40 199.29 179.72 C 198.59 179.23 197.88 178.76 197.18 178.30 C 198.91 176.64 200.61 174.94 202.46 173.41 Z" />
<path fill="#ffffff" opacity="1.00" d=" M 227.26 167.35 C 228.83 168.06 227.81 171.05 226.50 171.67 C 224.68 171.01 226.01 168.06 227.26 167.35 Z" />
<path fill="#ffffff" opacity="1.00" d=" M 325.96 168.12 C 326.34 167.12 328.81 165.84 329.09 167.40 C 328.61 168.25 326.33 169.51 325.96 168.12 Z" />
<path fill="#ffffff" opacity="1.00" d=" M 208.28 176.30 C 210.59 174.35 212.56 172.04 214.97 170.22 C 212.78 173.47 210.49 177.17 206.80 178.82 C 205.59 179.06 204.38 179.31 203.18 179.56 C 204.82 177.35 206.80 175.41 208.95 173.69 L 208.28 176.30 Z" />
<path fill="#ffffff" opacity="1.00" d=" M 261.83 171.85 C 263.78 171.26 265.76 170.76 267.73 170.22 C 267.74 170.50 267.76 171.07 267.76 171.36 C 264.81 171.74 261.98 172.70 259.19 173.70 C 258.98 172.24 260.92 172.36 261.83 171.85 Z" />
<path fill="#ffffff" opacity="1.00" d=" M 311.41 172.24 C 312.58 171.25 313.25 171.45 313.42 172.82 C 312.25 173.80 311.58 173.61 311.41 172.24 Z" />
<path fill="#ffffff" opacity="1.00" d=" M 329.05 174.24 C 327.36 172.73 330.82 171.18 330.56 173.69 C 330.18 173.83 329.43 174.10 329.05 174.24 Z" />
<path fill="#ffffff" opacity="1.00" d=" M 214.76 177.10 C 215.81 176.01 216.85 174.92 217.95 173.88 C 217.37 175.16 216.72 176.40 216.09 177.64 C 213.09 179.26 210.89 182.70 211.26 186.17 C 212.99 183.40 214.61 180.56 216.09 177.64 C 216.69 177.72 217.91 177.86 218.52 177.93 C 216.52 180.05 215.18 182.64 213.53 185.02 C 213.90 188.13 212.38 190.97 212.06 194.01 C 211.74 195.51 212.07 197.46 210.44 198.30 C 208.81 194.15 212.01 190.55 212.58 186.57 C 210.13 189.00 209.61 192.55 208.53 195.69 C 205.48 196.63 208.23 192.38 208.37 191.14 C 207.88 191.24 206.90 191.44 206.41 191.53 C 206.91 190.06 207.39 188.57 207.91 187.11 C 207.47 187.12 206.61 187.15 206.17 187.16 C 207.98 183.13 211.05 179.47 214.76 177.10 Z" />
<path fill="#ffffff" opacity="1.00" d=" M 250.44 175.49 C 252.73 174.63 255.75 172.88 257.97 174.10 L 258.37 174.63 C 258.97 174.62 260.17 174.59 260.77 174.58 L 260.27 175.93 C 259.50 175.71 257.95 175.28 257.17 175.07 L 257.73 177.04 C 257.11 176.81 255.87 176.34 255.25 176.11 C 255.11 177.26 255.13 178.49 255.74 179.52 C 256.58 176.39 258.16 178.13 259.40 178.79 C 255.69 179.58 253.22 182.76 250.58 185.22 C 253.00 184.84 254.86 183.14 256.86 181.87 L 257.24 183.33 C 258.00 182.91 258.77 182.50 259.53 182.10 C 260.51 183.06 261.64 183.89 262.79 184.64 C 260.13 186.87 257.01 188.48 253.69 189.47 C 253.51 190.22 253.17 191.73 253.00 192.49 C 253.49 192.56 254.46 192.70 254.95 192.77 C 251.97 194.16 248.97 195.67 245.67 196.08 C 246.94 194.50 248.86 193.88 250.70 193.24 C 250.56 192.57 250.43 191.91 250.33 191.24 C 251.24 190.92 252.16 190.61 253.08 190.30 C 251.28 190.26 249.49 190.30 247.70 190.31 C 251.45 189.26 254.42 186.58 257.19 183.95 C 252.36 187.25 246.40 186.86 240.95 188.27 C 238.95 188.68 237.91 186.27 236.61 185.33 C 241.16 185.62 245.73 185.73 250.26 185.19 C 250.05 182.49 252.39 181.18 253.92 179.41 C 251.86 180.05 249.84 180.78 247.72 181.16 C 248.21 180.77 249.21 179.99 249.71 179.59 C 249.57 179.21 249.30 178.44 249.16 178.06 C 249.58 177.20 250.01 176.35 250.44 175.49 Z" />
<path fill="#ffffff" opacity="1.00" d=" M 261.20 174.29 C 261.78 174.86 261.78 174.86 261.20 174.29 Z" />
<path fill="#ffffff" opacity="1.00" d=" M 258.98 177.28 C 262.04 176.35 265.32 176.44 268.48 176.48 C 268.46 177.08 268.40 178.29 268.37 178.90 C 269.06 178.79 270.42 178.57 271.11 178.46 C 270.51 180.14 268.61 180.19 267.27 180.89 L 267.72 179.23 C 266.64 179.48 264.47 179.99 263.39 180.25 C 263.77 179.69 264.54 178.59 264.92 178.03 C 264.12 178.30 263.32 178.57 262.53 178.84 C 261.35 178.32 260.15 177.82 258.98 177.28 Z" />
<path fill="#ffffff" opacity="1.00" d=" M 270.48 176.04 C 271.67 175.06 272.35 175.26 272.50 176.63 C 271.31 177.64 270.63 177.44 270.48 176.04 Z" />
<path fill="#ffffff" opacity="1.00" d=" M 280.62 177.72 C 282.70 177.84 284.79 177.78 286.85 177.45 C 286.23 179.16 285.68 180.89 285.23 182.65 C 283.56 182.55 281.65 180.92 280.11 182.05 C 279.39 182.88 277.95 184.55 277.23 185.38 C 278.32 185.12 280.50 184.61 281.59 184.35 L 281.50 186.01 C 281.78 185.65 282.33 184.95 282.61 184.59 C 285.60 183.87 289.00 181.11 291.97 182.66 C 289.28 184.03 286.25 184.53 283.49 185.75 C 283.99 186.29 284.50 186.83 285.04 187.35 C 287.28 185.90 289.85 185.12 292.31 184.13 C 291.07 185.43 289.79 186.70 288.61 188.05 C 290.87 187.51 293.13 186.99 295.38 186.39 C 295.02 187.66 294.76 188.96 294.59 190.28 C 292.18 191.50 289.86 193.10 287.04 193.13 C 287.10 192.61 287.21 191.56 287.27 191.04 C 286.12 191.49 284.96 191.93 283.80 192.35 C 284.48 191.24 285.17 190.14 285.86 189.04 C 284.77 189.38 283.78 189.97 282.91 190.70 C 282.49 189.61 282.07 188.52 281.68 187.42 C 280.90 187.78 279.34 188.50 278.56 188.86 C 279.01 188.12 279.90 186.64 280.35 185.90 C 278.68 186.47 277.04 187.05 275.37 187.59 C 275.55 187.01 275.92 185.86 276.11 185.29 C 273.67 185.27 271.23 185.06 268.83 184.65 C 271.02 183.21 273.59 182.22 276.24 182.72 C 278.19 183.14 279.33 181.10 280.79 180.21 C 280.75 179.59 280.66 178.34 280.62 177.72 Z" />
<path fill="#ffffff" opacity="1.00" d=" M 304.48 177.02 C 305.91 176.55 306.33 177.04 305.74 178.47 C 304.32 178.92 303.90 178.43 304.48 177.02 Z" />
<path fill="#ffffff" opacity="1.00" d=" M 241.31 178.44 C 243.27 179.32 238.90 182.60 238.40 180.43 C 238.65 179.14 240.12 178.51 241.31 178.44 Z" />
<path fill="#ffffff" opacity="1.00" d=" M 217.95 190.26 C 218.78 185.74 222.15 182.23 225.03 178.85 C 223.44 183.05 220.13 186.34 217.95 190.26 Z" />
<path fill="#ffffff" opacity="1.00" d=" M 306.60 181.57 C 303.37 182.28 305.46 179.00 307.01 178.21 C 308.28 178.62 309.54 179.06 310.81 179.53 C 310.70 181.33 306.78 182.44 308.11 183.77 L 308.78 184.20 C 308.98 184.54 309.40 185.24 309.61 185.58 L 311.10 185.91 C 309.02 189.70 304.57 188.15 301.97 185.91 C 303.23 184.96 305.74 185.53 306.39 183.77 C 306.45 183.03 306.46 182.29 306.60 181.57 Z" />
<path fill="#ffffff" opacity="1.00" d=" M 314.11 181.19 C 313.92 179.89 314.55 179.43 316.02 179.82 C 316.23 181.14 315.59 181.60 314.11 181.19 Z" />
<path fill="#ffffff" opacity="1.00" d=" M 228.48 180.10 C 229.23 180.65 230.01 181.17 230.79 181.68 C 226.71 186.13 225.14 192.10 221.93 197.12 C 221.11 196.46 220.28 195.83 219.43 195.22 C 219.37 197.55 220.32 199.71 220.89 201.92 C 220.40 201.50 219.42 200.66 218.93 200.25 C 219.19 201.87 219.32 203.58 220.11 205.06 C 220.20 206.99 220.20 208.92 220.14 210.85 C 219.02 209.76 218.59 208.34 218.85 206.61 C 218.47 206.50 217.70 206.27 217.32 206.16 C 217.17 203.91 216.72 201.70 216.56 199.47 C 217.19 197.80 218.03 196.22 218.71 194.58 C 219.11 194.18 219.90 193.39 220.30 192.99 C 220.81 193.96 221.33 194.93 221.87 195.90 C 222.50 190.97 226.40 187.52 228.14 183.05 C 228.18 182.95 228.26 182.77 228.29 182.68 L 228.57 182.55 C 228.50 182.58 228.36 182.65 228.29 182.68 L 228.11 182.77 L 228.14 183.05 C 224.81 184.57 223.72 188.46 221.23 190.94 C 222.29 186.57 225.98 183.63 228.48 180.10 Z" />
<path fill="#ffffff" opacity="1.00" d=" M 267.85 182.96 C 269.34 180.98 271.89 180.73 274.15 180.28 C 272.45 181.94 270.17 182.72 267.85 182.96 Z" />
<path fill="#ffffff" opacity="1.00" d=" M 318.24 180.40 C 319.46 181.14 319.37 181.80 317.95 182.38 C 316.73 181.63 316.83 180.97 318.24 180.40 Z" />
<path fill="#ffffff" opacity="1.00" d=" M 326.87 179.92 C 328.11 181.06 331.80 181.54 329.41 183.99 C 330.20 183.88 331.79 183.66 332.59 183.55 C 332.56 184.27 332.51 185.72 332.48 186.44 C 334.56 186.66 335.70 184.89 336.68 183.43 C 337.90 183.34 339.12 183.28 340.36 183.25 C 339.18 183.66 338.00 184.04 336.81 184.38 C 336.08 185.84 336.15 187.37 337.95 187.91 C 335.99 190.23 333.19 191.48 330.13 191.41 C 330.35 189.56 331.48 188.86 333.51 189.32 C 333.86 188.84 334.56 187.86 334.91 187.38 C 333.06 187.12 331.20 186.95 329.43 186.38 C 327.95 184.53 327.42 182.17 326.87 179.92 Z" />
<path fill="#ffffff" opacity="1.00" d=" M 324.05 181.20 C 325.90 180.38 327.29 184.46 325.12 184.73 C 323.70 184.39 323.17 182.27 324.05 181.20 Z" />
<path fill="#ffffff" opacity="1.00" d=" M 257.70 191.59 C 260.18 190.33 262.23 188.53 263.59 186.08 C 263.72 186.42 264.00 187.10 264.14 187.44 L 262.90 188.41 C 262.69 189.01 262.26 190.19 262.05 190.78 C 265.06 189.81 267.89 188.36 270.91 187.39 C 269.43 189.20 267.16 189.87 264.96 190.35 C 265.64 190.58 267.00 191.05 267.68 191.29 C 265.92 193.72 261.70 193.24 261.26 196.70 C 260.73 196.54 259.66 196.21 259.13 196.05 C 259.24 196.59 259.45 197.67 259.56 198.22 C 258.59 198.80 257.63 199.40 256.68 200.01 C 254.39 199.12 252.08 198.32 249.82 197.37 C 253.23 195.12 258.05 196.87 260.96 193.62 C 259.88 192.93 258.79 192.25 257.70 191.59 Z" />
<path fill="#ffffff" opacity="1.00" d=" M 228.20 192.97 C 228.92 191.13 228.96 188.75 230.90 187.68 C 229.36 194.37 229.23 201.31 227.36 207.89 C 228.53 210.71 229.98 213.47 230.28 216.56 L 231.50 216.62 C 231.42 214.24 231.49 211.85 231.79 209.49 C 231.32 209.45 230.39 209.37 229.92 209.32 C 229.98 205.20 229.83 201.06 230.18 196.95 C 230.62 196.22 231.12 194.69 232.14 195.67 C 231.82 200.02 231.49 204.36 231.24 208.71 L 232.54 208.49 L 232.50 209.34 C 233.01 210.06 233.53 210.78 234.04 211.50 C 233.51 211.49 232.47 211.46 231.94 211.44 C 232.16 213.17 232.38 214.90 232.61 216.62 C 232.04 216.65 230.88 216.70 230.30 216.73 C 231.32 219.63 233.51 221.86 235.06 224.47 C 235.50 224.45 236.39 224.42 236.83 224.41 C 238.07 226.88 239.43 229.29 240.56 231.83 C 240.08 231.23 239.13 230.03 238.66 229.43 L 237.29 229.95 L 237.82 229.31 C 237.65 228.90 237.33 228.08 237.16 227.67 C 236.84 227.19 236.19 226.24 235.87 225.77 C 235.97 226.20 236.19 227.07 236.30 227.51 L 237.16 227.67 L 236.63 228.32 C 236.80 228.72 237.13 229.54 237.29 229.95 C 237.51 230.65 237.94 232.07 238.16 232.78 C 234.32 228.38 232.27 222.81 228.73 218.21 C 227.46 212.83 225.57 207.41 227.06 201.84 C 226.61 202.66 225.70 204.31 225.24 205.13 C 224.83 202.64 225.14 200.12 225.83 197.71 C 225.48 197.63 224.80 197.45 224.45 197.36 C 225.48 194.44 226.14 191.29 228.16 188.85 C 228.17 189.88 228.19 191.94 228.20 192.97 M 227.01 197.57 C 228.17 196.61 228.26 194.64 227.77 193.32 C 226.54 193.60 225.65 196.92 227.01 197.57 M 226.26 200.16 C 226.78 200.77 226.78 200.77 226.26 200.16 Z" />
<path fill="#ffffff" opacity="1.00" d=" M 264.08 196.47 C 266.55 193.69 269.57 191.30 273.02 189.85 C 270.35 192.41 267.95 195.78 264.08 196.47 Z" />
<path fill="#ffffff" opacity="1.00" d=" M 240.76 192.59 C 242.85 191.46 245.07 190.55 247.45 190.25 L 247.51 191.65 L 249.83 191.44 C 249.17 193.72 247.02 193.70 245.02 193.70 C 244.96 190.87 241.99 194.62 240.76 192.59 Z" />
<path fill="#ffffff" opacity="1.00" d=" M 265.92 196.81 C 269.57 195.11 273.25 193.48 276.80 191.58 C 275.61 195.45 270.94 196.51 269.15 199.83 C 272.08 199.20 274.18 196.59 276.67 195.05 C 276.77 195.44 276.96 196.21 277.06 196.60 C 278.03 196.10 279.02 195.61 280.01 195.13 C 280.25 198.71 276.11 199.21 273.90 201.06 C 272.56 202.26 270.74 202.09 269.07 202.15 C 270.03 205.43 269.97 208.88 269.80 212.26 C 268.84 210.95 268.71 209.29 268.34 207.77 C 268.27 208.61 268.15 210.29 268.09 211.13 C 266.13 209.74 265.44 206.37 266.21 204.18 C 266.42 204.33 266.85 204.63 267.06 204.77 C 267.18 205.37 267.43 206.56 267.56 207.15 C 267.69 205.82 267.84 204.49 268.00 203.17 C 266.57 203.14 265.15 203.09 263.73 203.02 C 263.99 200.47 266.81 201.05 268.17 200.05 C 268.06 199.60 267.84 198.71 267.73 198.27 C 266.12 199.10 264.52 199.97 263.28 201.31 C 261.90 201.87 259.49 205.03 258.53 203.17 C 260.94 200.99 262.85 198.13 265.92 196.81 Z" />
<path fill="#ffffff" opacity="1.00" d=" M 277.34 199.31 C 280.41 197.68 283.00 195.30 286.09 193.71 C 284.97 195.30 283.55 196.83 283.47 198.89 C 282.62 199.23 281.76 199.57 280.91 199.90 C 280.45 200.96 279.99 202.01 279.51 203.06 C 279.55 202.41 279.64 201.11 279.69 200.46 C 278.02 201.53 276.21 202.33 274.21 202.45 C 274.99 201.17 275.96 199.98 277.34 199.31 Z" />
<path fill="#ffffff" opacity="1.00" d=" M 329.97 193.76 C 330.59 194.17 331.21 194.59 331.83 195.02 C 329.28 196.62 326.36 195.66 323.62 195.46 C 325.69 194.79 328.26 195.28 329.97 193.76 Z" />
<path fill="#ffffff" opacity="1.00" d=" M 232.68 199.95 C 232.94 197.97 231.97 195.04 234.18 193.93 C 234.24 198.12 234.71 202.31 235.71 206.39 C 237.03 204.95 235.54 203.24 235.26 201.68 C 234.28 199.49 234.80 197.10 235.16 194.84 C 236.64 196.20 236.48 198.22 236.58 200.04 C 236.47 204.60 238.76 208.69 239.76 213.04 C 237.54 211.19 238.27 207.73 236.10 205.83 C 236.20 210.36 237.71 214.67 238.60 219.07 C 236.37 215.88 235.54 211.84 234.72 208.08 C 232.27 206.21 232.97 202.65 232.68 199.95 Z" />
<path fill="#ffffff" opacity="1.00" d=" M 244.36 205.18 C 245.91 202.36 248.86 200.83 251.25 198.84 C 251.97 199.63 252.70 200.41 253.47 201.16 C 253.35 201.96 253.12 203.56 253.01 204.37 L 252.56 204.16 L 252.21 204.56 C 251.03 205.86 249.81 207.13 248.65 208.45 C 247.88 206.87 246.28 206.73 244.88 207.60 C 246.03 205.88 247.50 204.41 249.32 203.39 C 249.33 204.44 249.37 205.48 249.47 206.53 C 250.40 204.81 251.56 203.23 252.59 201.57 L 251.56 201.52 C 251.10 201.48 250.18 201.41 249.72 201.38 C 248.24 203.03 246.32 204.19 244.36 205.18 Z" />
<path fill="#ffffff" opacity="1.00" d=" M 290.02 201.94 C 292.85 201.86 294.65 199.55 296.70 197.94 L 295.76 200.42 C 296.45 200.25 297.83 199.93 298.52 199.76 C 297.64 200.98 296.71 202.16 295.78 203.34 C 295.20 203.31 294.04 203.25 293.46 203.21 C 292.48 204.41 291.51 205.63 290.55 206.85 C 291.86 206.14 294.47 204.74 295.78 204.03 C 295.02 205.49 293.98 206.77 293.03 208.11 C 293.51 207.66 294.47 206.77 294.95 206.33 L 295.48 207.52 C 295.68 206.23 295.92 204.95 296.20 203.68 C 300.18 205.61 296.85 207.31 295.73 208.96 C 295.46 209.27 294.92 209.88 294.65 210.19 C 293.07 209.76 291.52 209.30 289.94 208.93 C 289.94 208.41 289.96 207.37 289.96 206.85 C 289.59 207.19 288.84 207.87 288.47 208.21 C 289.06 206.33 287.20 206.48 285.95 206.07 C 286.18 204.08 288.70 203.27 290.02 201.94 M 289.22 205.26 C 289.81 205.85 289.81 205.85 289.22 205.26 Z" />
<path fill="#ffffff" opacity="1.00" d=" M 258.66 200.50 C 259.16 199.95 259.16 199.95 258.66 200.50 Z" />
<path fill="#ffffff" opacity="1.00" d=" M 298.84 202.26 C 298.88 201.09 299.55 200.20 300.86 199.57 L 301.10 201.20 C 301.57 201.11 302.52 200.92 303.00 200.83 L 303.00 201.93 L 302.27 201.79 C 302.27 202.79 302.26 204.79 302.26 205.79 C 301.23 205.26 300.22 204.69 299.25 204.08 C 299.79 203.44 300.88 202.16 301.42 201.52 C 300.78 201.70 299.49 202.08 298.84 202.26 Z" />
<path fill="#ffffff" opacity="1.00" d=" M 223.16 201.24 L 223.76 201.15 C 223.58 204.40 224.15 207.62 224.63 210.83 C 226.20 213.92 227.41 217.60 226.52 221.05 C 227.19 222.54 227.86 224.03 228.59 225.50 L 227.77 225.86 C 227.26 225.71 226.22 225.42 225.71 225.27 C 226.13 226.92 226.97 228.43 228.18 229.65 C 228.68 228.40 228.40 227.00 227.77 225.86 C 230.71 226.59 228.41 230.40 231.01 231.60 C 230.49 231.53 229.45 231.38 228.93 231.30 C 229.60 232.63 230.25 233.97 230.87 235.33 C 229.46 234.54 228.73 233.15 228.19 231.70 C 226.84 229.39 225.57 227.03 224.40 224.63 L 226.39 224.94 C 225.61 223.23 224.86 221.53 224.09 219.83 C 226.18 215.99 223.43 212.05 222.89 208.17 C 223.37 205.89 223.29 203.55 223.16 201.24 Z" />
<path fill="#ffffff" opacity="1.00" d=" M 253.01 204.37 C 254.77 202.90 256.29 201.00 258.66 200.50 C 256.78 202.85 254.45 204.78 252.30 206.86 C 252.27 206.29 252.23 205.14 252.21 204.56 C 252.41 204.51 252.81 204.42 253.01 204.37 Z" />
<path fill="#ffffff" opacity="1.00" d=" M 285.88 202.40 C 286.51 201.24 287.43 200.81 288.63 201.13 C 289.00 202.40 287.05 203.47 285.98 203.01 L 285.88 202.40 Z" />
<path fill="#ffffff" opacity="1.00" d=" M 304.24 201.18 C 307.07 202.16 310.00 202.72 313.00 202.85 C 313.21 203.78 313.63 205.64 313.84 206.57 C 315.03 205.70 315.46 204.30 315.85 202.94 C 317.35 204.12 319.18 203.30 320.87 203.25 C 320.22 205.65 318.19 207.07 316.21 208.34 L 315.89 206.52 C 315.26 207.50 314.68 208.51 314.11 209.52 C 313.67 209.19 312.80 208.53 312.36 208.20 C 311.86 208.50 310.85 209.08 310.34 209.38 C 310.54 210.76 310.70 212.14 310.84 213.53 C 309.56 212.06 308.75 209.56 306.26 210.60 C 306.80 208.29 307.81 206.15 308.72 203.98 C 307.56 204.81 306.49 205.75 305.53 206.80 C 305.72 207.68 306.11 209.43 306.31 210.31 C 305.58 210.55 304.13 211.03 303.40 211.27 C 303.68 209.53 304.17 207.85 304.77 206.20 C 302.51 205.13 302.91 202.85 304.24 201.18 M 311.27 204.24 C 311.80 204.84 311.80 204.84 311.27 204.24 Z" />
<path fill="#ffffff" opacity="1.00" d=" M 297.09 204.15 C 296.93 202.71 297.51 202.08 298.84 202.26 C 299.04 203.69 298.46 204.32 297.09 204.15 Z" />
<path fill="#ffffff" opacity="1.00" d=" M 261.99 203.70 C 265.86 205.41 265.27 210.63 266.64 214.02 L 265.13 213.23 C 264.30 209.98 263.33 206.77 261.99 203.70 Z" />
<path fill="#ffffff" opacity="1.00" d=" M 260.85 205.21 C 262.71 207.00 263.17 209.61 263.95 211.95 C 264.59 214.53 266.61 216.44 267.47 218.93 C 267.92 217.87 268.37 216.81 268.85 215.76 C 268.75 216.62 268.56 218.33 268.46 219.19 C 269.32 220.47 269.72 221.96 270.21 223.41 C 267.85 221.39 265.88 219.00 264.18 216.41 C 263.59 216.31 263.03 216.43 262.52 216.76 C 262.01 216.59 261.00 216.26 260.49 216.10 C 260.45 215.52 260.35 214.37 260.31 213.80 C 259.98 213.35 259.32 212.46 258.99 212.01 C 259.10 212.44 259.33 213.29 259.44 213.71 L 260.31 213.80 C 260.35 214.37 260.45 215.52 260.49 216.10 C 260.67 216.83 261.02 218.30 261.20 219.03 C 258.16 215.69 256.62 211.10 256.09 206.66 C 257.29 208.34 257.93 210.31 258.75 212.18 C 258.87 211.39 259.11 209.80 259.22 209.01 C 260.70 210.79 261.49 212.96 261.94 215.23 C 262.24 214.94 262.84 214.37 263.14 214.09 C 262.52 211.09 260.81 208.36 260.85 205.21 Z" />
<path fill="#ffffff" opacity="1.00" d=" M 299.22 205.17 C 300.49 205.70 301.77 206.23 303.01 206.86 C 302.24 207.33 300.69 208.28 299.92 208.76 C 301.22 208.23 302.48 207.62 303.77 207.06 C 303.16 208.35 302.55 209.65 301.94 210.94 C 301.49 211.13 300.59 211.49 300.14 211.67 C 300.10 211.26 300.03 210.44 300.00 210.03 C 299.16 210.57 298.30 211.03 297.38 210.34 C 296.86 210.66 295.82 211.29 295.30 211.61 C 295.41 210.95 295.62 209.62 295.73 208.96 C 298.13 209.39 298.23 206.54 299.22 205.17 Z" />
<path fill="#ffffff" opacity="1.00" d=" M 241.21 208.93 C 244.06 210.69 243.73 215.03 245.54 217.72 C 245.47 218.05 245.33 218.72 245.26 219.06 C 243.57 215.82 242.53 212.32 241.21 208.93 Z" />
<path fill="#ffffff" opacity="1.00" d=" M 249.95 210.03 C 250.35 209.70 251.14 209.02 251.54 208.68 C 252.07 211.63 252.80 214.53 253.27 217.49 C 250.59 216.02 250.78 212.59 249.95 210.03 Z" />
<path fill="#ffffff" opacity="1.00" d=" M 251.75 221.09 C 248.33 218.41 247.85 213.92 248.49 209.89 C 249.94 213.50 250.95 217.28 251.75 221.09 Z" />
<path fill="#ffffff" opacity="1.00" d=" M 312.01 209.71 C 313.75 209.12 314.86 213.31 313.14 213.90 C 311.70 213.21 311.39 211.04 312.01 209.71 Z" />
<path fill="#ffffff" opacity="1.00" d=" M 254.19 211.75 C 254.72 211.96 255.77 212.38 256.29 212.59 C 257.76 215.44 258.79 218.52 260.63 221.18 C 260.10 221.58 259.04 222.37 258.51 222.76 C 259.28 222.73 260.82 222.67 261.59 222.64 C 258.49 224.09 261.53 226.45 260.22 228.68 L 262.09 228.50 C 261.96 229.99 260.07 230.85 260.46 232.33 C 261.60 234.52 262.92 236.62 263.91 238.88 C 262.28 237.82 261.41 236.07 260.68 234.34 C 259.66 234.77 258.65 235.20 257.64 235.65 C 257.06 234.07 256.45 232.51 255.90 230.93 C 256.74 231.50 259.39 234.09 258.80 231.42 C 258.56 231.10 258.07 230.47 257.83 230.15 C 258.39 230.05 259.50 229.86 260.06 229.76 C 259.29 228.97 258.54 228.18 257.80 227.39 C 260.28 225.74 258.00 222.82 257.35 220.80 C 256.51 219.63 255.68 218.47 254.85 217.30 L 257.00 217.69 C 255.99 215.74 255.02 213.78 254.19 211.75 Z" />
<path fill="#ffffff" opacity="1.00" d=" M 228.98 222.56 C 230.45 222.74 231.33 225.01 231.18 226.38 C 229.71 226.32 228.50 223.90 228.98 222.56 Z" />
<path fill="#ffffff" opacity="1.00" d=" M 247.99 222.18 C 250.55 222.08 251.96 224.47 253.24 226.29 C 253.56 225.86 253.89 225.43 254.21 224.99 C 254.00 224.24 253.59 222.72 253.39 221.97 C 254.79 223.27 255.68 224.98 256.60 226.64 C 256.00 226.79 254.79 227.09 254.18 227.24 C 254.85 227.97 256.19 229.43 256.85 230.16 L 255.90 230.93 L 254.71 231.90 C 255.22 229.59 253.47 228.13 251.95 226.80 C 252.64 228.35 253.33 229.90 254.03 231.45 C 252.85 230.20 251.73 228.89 250.58 227.61 C 250.83 227.35 251.34 226.81 251.59 226.54 C 250.34 225.13 249.06 223.74 247.99 222.18 Z" />
<path fill="#ffffff" opacity="1.00" d=" M 261.59 222.64 C 262.17 222.15 262.17 222.15 261.59 222.64 Z" />
<path fill="#ffffff" opacity="1.00" d=" M 239.25 223.68 C 240.35 223.55 241.46 223.40 242.57 223.27 C 243.54 226.44 246.95 227.03 248.72 229.41 C 249.13 232.38 250.66 234.86 252.32 237.30 C 248.14 234.73 247.43 228.91 242.61 226.94 C 243.70 229.59 245.58 231.79 247.03 234.24 C 242.93 233.82 243.92 228.26 240.81 226.48 C 241.43 226.62 242.66 226.90 243.27 227.03 C 242.93 225.81 242.10 225.18 240.79 225.15 C 240.41 224.78 239.63 224.05 239.25 223.68 Z" />
<path fill="#ffffff" opacity="1.00" d=" M 261.73 223.72 C 263.43 223.52 264.87 226.11 264.53 227.64 C 262.93 227.79 261.13 225.25 261.73 223.72 Z" />
<path fill="#ffffff" opacity="1.00" d=" M 257.83 230.15 C 257.22 229.42 257.22 229.42 257.83 230.15 Z" />
<path fill="#ffffff" opacity="1.00" d=" M 254.34 232.16 C 254.90 232.75 254.90 232.75 254.34 232.16 Z" />
</g>
</svg>
