<?xml version="1.0" encoding="UTF-8" ?>
<!DOCTYPE svg PUBLIC "-//W3C//DTD SVG 1.1//EN" "http://www.w3.org/Graphics/SVG/1.1/DTD/svg11.dtd">
<svg width="512pt" height="256pt" viewBox="0 0 512 256" version="1.1" xmlns="http://www.w3.org/2000/svg">
<g id="#ffffffff">
<path fill="#ffffff" opacity="1.00" d=" M 168.40 18.07 C 170.59 16.29 170.48 12.67 173.05 11.01 C 174.90 10.34 174.88 13.01 175.02 14.07 C 175.81 17.58 172.56 15.00 171.81 13.76 C 172.25 14.78 172.71 15.78 173.20 16.78 L 174.66 16.05 C 174.69 16.75 174.76 18.16 174.80 18.86 C 174.54 19.29 174.02 20.15 173.76 20.58 C 173.66 23.74 173.55 26.90 173.53 30.07 C 171.83 28.45 170.63 26.41 169.11 24.64 C 169.31 25.99 169.60 27.33 169.88 28.66 C 168.86 30.02 169.28 31.18 170.59 32.11 C 169.90 33.07 169.54 34.14 169.54 35.33 C 169.15 35.33 168.38 35.32 167.99 35.32 C 168.94 36.43 169.89 37.55 170.83 38.68 L 168.88 38.47 C 169.93 39.78 171.12 40.96 172.16 42.27 C 170.54 41.70 169.47 40.17 167.80 39.68 C 168.50 41.65 169.80 43.30 171.54 44.45 C 171.58 45.76 171.58 47.06 171.55 48.36 C 170.74 46.04 169.97 43.82 167.41 42.89 C 166.63 42.00 166.05 41.00 165.67 39.89 C 165.01 40.12 163.71 40.60 163.06 40.84 C 163.79 36.06 163.24 30.90 165.76 26.57 C 167.28 24.37 167.27 21.65 168.02 19.18 C 169.06 21.65 170.08 24.22 171.91 26.23 C 172.39 23.90 168.81 21.85 170.52 19.80 C 169.78 19.26 169.07 18.68 168.40 18.07 Z" />
<path fill="#ffffff" opacity="1.00" d=" M 322.83 10.97 C 325.54 12.26 325.66 15.53 325.97 18.10 C 325.34 19.67 325.60 21.34 325.77 22.96 C 326.05 26.43 324.63 29.70 324.35 33.12 C 323.24 33.59 322.89 34.46 323.31 35.72 L 324.58 35.56 C 324.27 38.97 324.39 42.50 323.27 45.78 C 323.31 42.89 323.59 40.01 323.49 37.12 C 322.84 37.67 321.54 38.78 320.89 39.33 L 322.70 40.98 L 320.16 40.43 L 320.81 41.46 C 318.95 42.17 316.95 43.06 316.47 45.22 C 318.07 44.48 319.60 43.58 321.07 42.60 C 320.53 44.39 320.52 46.18 321.06 47.96 L 319.31 46.51 C 318.93 46.51 318.15 46.50 317.77 46.49 C 317.32 47.80 316.67 49.02 316.07 50.26 C 317.37 49.49 318.58 48.59 319.81 47.72 C 319.85 48.80 319.58 49.77 318.98 50.65 C 320.09 51.55 319.56 53.05 319.59 54.24 C 318.82 55.13 317.29 56.90 316.53 57.78 L 321.11 57.36 C 318.91 57.91 317.95 59.83 316.92 61.56 C 317.97 61.14 320.08 60.30 321.13 59.88 C 320.68 60.21 319.78 60.88 319.33 61.21 C 319.42 61.57 319.60 62.28 319.69 62.64 L 318.05 62.34 C 318.45 63.18 319.25 64.86 319.65 65.70 L 321.38 65.52 C 321.91 62.94 322.14 60.32 322.66 57.74 C 322.75 62.83 322.45 67.92 322.54 73.01 C 322.45 77.61 322.96 82.34 321.52 86.79 C 321.24 86.76 320.68 86.69 320.40 86.66 C 322.78 81.73 321.20 75.80 321.87 70.49 L 319.73 70.80 L 319.67 73.02 C 319.41 73.44 318.89 74.29 318.63 74.71 C 320.20 75.63 319.97 76.42 317.94 77.06 C 318.48 77.51 319.57 78.40 320.11 78.84 C 319.17 83.22 318.43 87.66 316.72 91.83 C 316.27 93.08 315.00 92.78 314.12 92.26 C 314.95 94.15 316.13 96.75 314.10 98.37 C 313.24 97.02 312.33 95.73 311.55 94.34 C 310.74 95.36 309.45 98.51 312.20 95.91 C 313.30 97.65 314.46 99.72 313.26 101.74 C 312.31 102.28 311.32 102.73 310.29 103.08 C 311.54 104.90 309.93 105.83 308.63 106.76 L 308.78 107.69 C 308.08 107.51 306.68 107.15 305.98 106.97 C 306.86 107.46 307.54 108.16 308.00 109.07 C 308.56 110.55 309.95 108.28 310.71 108.32 L 310.07 107.33 C 313.04 108.70 312.45 105.99 312.27 104.16 C 312.98 105.48 313.70 106.81 314.42 108.13 C 314.42 103.41 315.89 98.55 318.55 94.65 L 317.61 93.50 C 318.02 93.25 318.84 92.74 319.24 92.48 C 319.34 90.86 319.94 89.35 320.69 87.94 C 321.14 95.11 314.63 100.73 315.60 107.85 C 317.76 108.32 320.05 109.01 322.23 108.23 C 322.53 109.09 323.11 110.81 323.41 111.66 C 322.61 111.57 321.00 111.39 320.20 111.30 L 320.37 112.58 C 319.64 112.54 318.18 112.46 317.44 112.42 L 317.24 114.36 C 318.03 114.36 319.62 114.37 320.42 114.38 C 319.56 115.51 318.11 115.44 316.87 115.71 C 316.74 114.29 316.60 112.88 316.45 111.47 C 315.64 111.80 314.02 112.48 313.20 112.82 C 313.27 112.04 313.41 110.49 313.49 109.72 C 313.00 110.75 312.72 111.83 312.65 112.98 C 312.27 112.86 311.51 112.63 311.13 112.52 C 311.30 113.07 311.64 114.18 311.82 114.73 C 311.30 114.61 310.26 114.37 309.74 114.25 C 309.46 115.80 308.57 116.22 307.05 115.54 C 307.96 114.57 309.35 114.01 309.85 112.71 C 308.19 112.16 306.48 112.65 304.84 112.95 C 305.40 112.02 306.52 110.15 307.08 109.22 C 305.38 110.36 304.27 112.10 303.84 114.09 C 303.26 113.65 302.09 112.76 301.51 112.32 C 301.47 113.43 301.39 115.65 301.35 116.76 C 302.40 116.62 304.50 116.33 305.55 116.19 C 304.89 117.56 303.22 117.25 302.12 117.96 C 299.55 119.33 297.41 121.34 294.91 122.82 C 295.55 120.87 297.51 120.02 299.03 118.88 L 297.67 116.59 L 300.46 118.43 C 300.48 116.93 300.52 115.44 300.55 113.95 L 300.06 115.71 C 299.58 115.60 298.63 115.38 298.15 115.27 L 299.08 116.76 C 296.02 114.98 295.09 118.81 293.49 120.54 C 291.80 122.13 290.42 124.33 288.07 125.00 C 292.01 121.05 294.50 116.16 296.50 111.00 C 300.08 107.51 303.74 103.98 306.22 99.58 C 306.58 99.61 307.30 99.66 307.66 99.69 C 307.49 99.45 307.14 98.96 306.96 98.71 C 309.90 94.81 311.35 90.05 312.50 85.37 C 313.16 85.29 314.49 85.14 315.15 85.06 C 314.36 84.90 312.76 84.58 311.97 84.41 C 314.03 80.88 313.07 76.97 312.49 73.20 C 311.04 71.97 309.64 70.23 307.53 70.41 L 307.58 69.45 C 305.19 69.48 302.78 69.56 300.41 69.26 L 300.05 68.20 C 302.13 68.39 304.19 68.68 306.27 68.90 C 306.19 66.48 302.78 67.58 302.72 65.14 C 303.34 64.07 303.94 62.98 304.56 61.91 C 304.22 61.31 303.88 60.72 303.55 60.13 C 304.08 62.56 302.32 64.57 301.56 66.75 C 301.01 66.70 299.92 66.60 299.38 66.55 L 299.78 63.95 C 298.58 67.45 295.70 65.70 294.04 64.02 L 295.67 63.31 L 295.01 61.32 C 294.77 61.98 294.28 63.29 294.04 63.94 C 293.58 63.74 292.65 63.34 292.18 63.14 C 292.57 61.79 293.35 59.50 291.35 59.08 C 291.41 59.95 291.52 61.67 291.58 62.54 C 289.97 62.36 288.58 63.30 287.14 63.82 C 287.57 63.34 288.42 62.37 288.85 61.89 C 288.23 61.43 287.61 60.96 287.00 60.48 C 286.36 64.41 282.55 60.97 280.52 60.43 C 279.61 60.90 278.71 61.37 277.81 61.85 L 280.12 62.95 C 276.00 62.54 272.19 60.85 268.29 59.68 L 269.86 56.45 L 267.12 58.41 C 266.70 58.50 265.87 58.68 265.45 58.77 L 265.69 57.47 C 263.62 57.62 261.55 57.54 259.49 57.33 L 259.46 56.26 L 261.60 56.12 C 261.41 55.58 261.01 54.51 260.82 53.97 C 259.85 55.72 258.36 57.73 256.09 57.16 C 252.10 56.46 247.08 58.84 243.92 55.50 C 248.40 53.75 253.26 53.40 257.89 52.13 C 257.46 53.77 255.41 55.54 256.94 57.20 C 257.60 55.65 257.59 53.73 258.92 52.54 C 262.61 53.84 266.21 50.73 270.10 51.40 C 270.25 51.75 270.57 52.47 270.72 52.83 L 270.46 51.17 C 272.62 51.53 274.76 52.06 276.87 52.68 C 276.35 55.06 275.79 57.45 274.76 59.67 C 273.69 59.52 271.56 59.23 270.49 59.08 L 270.43 59.83 C 272.57 60.34 274.66 61.03 276.75 61.72 C 277.50 61.16 278.25 60.60 279.00 60.03 L 276.22 59.67 C 276.43 59.30 276.85 58.54 277.06 58.17 C 278.25 56.61 278.53 54.88 278.33 52.98 C 280.64 53.71 282.62 55.13 284.68 56.36 C 284.28 57.00 283.47 58.28 283.07 58.92 C 284.09 57.98 285.00 56.93 285.90 55.88 C 285.43 55.03 284.98 54.18 284.54 53.33 L 284.30 54.77 C 283.22 53.68 280.42 53.33 281.06 51.31 C 282.13 49.31 283.13 47.01 285.31 45.99 C 284.52 45.21 283.72 44.43 282.91 43.66 C 282.74 44.79 282.62 45.92 282.56 47.06 C 281.72 48.39 280.88 49.71 280.01 51.01 C 279.60 48.07 279.62 44.77 277.58 42.37 C 276.24 41.19 277.65 39.53 277.68 38.14 C 279.30 37.37 280.19 36.11 280.36 34.37 C 281.06 36.15 281.96 37.84 282.93 39.49 C 282.37 39.70 281.25 40.10 280.69 40.31 L 282.76 40.29 C 282.10 41.61 281.51 42.96 280.99 44.34 C 282.25 43.62 283.09 42.52 283.49 41.06 C 286.39 45.07 287.33 50.81 291.84 53.44 C 290.47 55.58 289.13 57.75 288.10 60.08 C 289.73 59.38 290.70 58.00 290.85 56.26 C 291.14 55.56 291.72 54.17 292.01 53.47 C 297.15 57.66 303.73 59.67 310.31 59.49 C 311.11 57.11 313.14 55.40 314.69 53.49 C 314.57 53.14 314.32 52.45 314.20 52.10 C 315.14 49.58 315.18 46.84 316.17 44.34 C 317.34 35.53 318.78 26.71 320.79 18.03 C 321.17 15.60 321.72 13.18 322.83 10.97 M 318.95 37.94 C 319.67 37.09 320.56 36.51 321.62 36.21 C 321.50 35.78 321.28 34.93 321.17 34.51 L 322.55 34.48 C 322.57 33.82 322.60 32.48 322.62 31.82 C 321.04 33.63 319.28 35.44 318.95 37.94 M 318.19 39.32 C 318.85 39.83 318.85 39.83 318.19 39.32 M 285.34 46.69 C 284.34 47.50 284.00 48.52 284.32 49.74 C 285.68 50.33 286.97 46.87 285.34 46.69 M 316.56 51.39 C 315.67 52.56 316.09 52.93 317.82 52.50 C 318.76 51.32 318.34 50.95 316.56 51.39 M 316.33 54.31 C 317.06 54.74 317.06 54.74 316.33 54.31 M 311.23 59.18 C 311.81 59.79 311.81 59.79 311.23 59.18 M 316.47 61.23 C 316.77 61.58 316.77 61.58 316.47 61.23 M 307.98 69.05 C 308.40 68.70 309.25 68.00 309.67 67.64 C 308.03 66.18 304.37 69.25 307.98 69.05 M 310.95 69.33 C 309.58 70.90 313.16 72.77 313.78 70.81 C 313.94 69.47 311.96 68.70 310.95 69.33 Z" />
<path fill="#ffffff" opacity="1.00" d=" M 151.23 15.94 C 153.83 17.19 154.50 20.36 155.08 22.92 C 154.54 28.22 153.64 33.69 155.17 38.92 C 155.92 41.25 156.40 43.84 158.54 45.35 C 159.64 44.63 160.83 44.10 162.09 43.76 C 161.69 44.37 160.89 45.58 160.49 46.19 C 162.18 48.62 161.52 51.53 159.77 53.70 C 158.19 53.74 156.62 53.62 155.07 53.34 C 155.85 51.52 155.95 49.36 154.55 47.82 C 155.34 49.66 156.70 52.18 153.75 53.39 C 153.66 52.67 153.47 51.23 153.38 50.51 C 151.88 50.75 150.74 50.05 149.98 48.41 C 150.25 46.91 151.49 45.82 151.72 44.30 C 150.43 45.48 148.57 46.98 150.06 49.04 C 148.53 47.71 146.78 46.60 145.57 44.94 C 147.11 44.55 148.62 43.99 150.02 43.23 C 148.06 43.10 146.32 43.90 144.66 44.86 L 144.70 43.45 C 145.33 42.88 146.59 41.73 147.22 41.15 C 144.73 40.73 141.81 43.36 144.38 45.40 C 144.03 45.83 143.32 46.70 142.97 47.14 C 145.00 47.89 146.68 50.03 149.04 49.30 C 148.99 49.76 148.88 50.68 148.83 51.14 C 149.44 51.11 150.65 51.06 151.25 51.03 C 150.71 53.78 154.33 53.48 156.07 53.95 C 155.85 54.30 155.41 54.99 155.18 55.33 L 157.12 55.70 C 156.40 56.53 155.52 56.94 154.48 56.95 C 151.46 53.10 147.13 50.52 143.04 47.94 C 141.58 46.83 139.67 47.50 138.04 47.56 C 138.70 45.26 140.28 44.66 142.76 45.77 C 141.11 44.94 138.97 44.37 139.42 42.04 C 139.09 42.13 138.43 42.31 138.10 42.40 C 138.71 43.34 139.31 44.29 139.92 45.24 C 136.67 46.57 136.34 42.98 135.13 40.99 C 138.14 40.91 141.14 40.45 144.08 41.41 C 147.76 39.25 149.85 35.33 150.46 31.20 C 148.90 26.35 149.47 20.70 151.23 15.94 Z" />
<path fill="#ffffff" opacity="1.00" d=" M 272.07 19.74 C 272.63 19.94 273.75 20.33 274.31 20.52 C 274.22 24.03 278.06 26.94 276.43 30.47 C 275.88 30.46 274.79 30.44 274.25 30.43 C 274.62 31.09 275.13 31.63 275.76 32.03 C 276.17 31.33 276.99 29.92 277.39 29.22 C 278.33 31.24 280.31 32.91 280.10 35.33 C 279.30 34.49 277.68 32.81 276.88 31.97 C 277.46 32.99 278.10 33.97 278.79 34.92 C 278.07 36.71 277.39 38.94 275.24 39.39 C 276.91 37.49 273.36 35.62 275.91 34.34 C 275.46 34.22 274.55 33.99 274.09 33.87 L 273.76 33.23 L 273.45 32.70 C 273.40 32.01 273.30 30.65 273.25 29.97 C 272.07 26.77 270.82 23.09 272.07 19.74 Z" />
<path fill="#ffffff" opacity="1.00" d=" M 129.04 40.74 C 130.85 40.84 132.67 40.90 134.49 40.92 C 134.97 42.42 135.62 43.94 135.52 45.55 C 136.88 45.48 137.89 46.19 137.85 47.62 C 136.16 46.40 134.11 46.27 132.10 46.37 C 131.10 44.48 130.15 42.57 129.04 40.74 Z" />
<path fill="#ffffff" opacity="1.00" d=" M 163.16 42.16 C 163.86 41.52 164.56 40.87 165.26 40.23 L 165.58 41.76 C 166.04 42.05 166.95 42.61 167.41 42.89 C 167.98 45.68 168.56 48.56 168.20 51.51 C 168.56 51.87 169.27 52.58 169.63 52.94 C 169.73 53.74 169.93 55.34 170.03 56.14 C 168.97 56.62 167.91 57.10 166.85 57.58 C 166.19 57.50 164.86 57.34 164.19 57.26 C 162.56 58.65 160.88 59.99 159.12 61.21 C 158.38 60.05 157.39 59.14 156.17 58.47 C 156.49 57.02 158.60 57.96 159.65 57.74 C 159.64 57.15 159.60 55.97 159.59 55.37 C 160.59 54.36 161.51 53.28 162.39 52.16 C 163.76 52.69 165.13 53.19 166.51 53.67 C 166.55 53.47 166.64 53.06 166.68 52.85 C 166.13 52.81 165.03 52.74 164.48 52.70 C 164.45 51.79 164.38 49.98 164.35 49.07 C 165.07 49.34 166.49 49.88 167.20 50.14 C 166.32 48.84 165.40 47.56 164.45 46.30 C 164.19 47.85 164.19 51.41 161.58 50.67 C 162.16 48.11 163.74 45.59 162.99 42.89 C 163.97 43.64 164.97 44.35 166.01 45.01 C 165.21 43.92 164.25 42.97 163.16 42.16 M 162.33 56.15 C 162.73 56.89 162.73 56.89 162.33 56.15 Z" />
<path fill="#ffffff" opacity="1.00" d=" M 121.46 44.15 C 122.18 40.77 126.22 42.07 128.55 40.73 C 128.82 42.52 132.27 44.84 128.93 45.62 C 130.57 45.13 132.05 45.74 131.55 47.64 C 130.90 47.22 130.25 46.79 129.61 46.35 C 126.60 47.71 123.86 45.71 121.46 44.15 Z" />
<path fill="#ffffff" opacity="1.00" d=" M 158.27 56.26 C 158.92 56.92 158.92 56.92 158.27 56.26 Z" />
<path fill="#ffffff" opacity="1.00" d=" M 322.16 56.55 C 322.88 57.09 322.88 57.09 322.16 56.55 Z" />
<path fill="#ffffff" opacity="1.00" d=" M 165.18 57.43 C 166.72 59.91 169.91 55.33 170.90 58.64 C 169.60 60.62 166.63 61.46 166.63 64.18 C 168.40 62.86 169.97 61.29 171.83 60.10 L 169.35 63.79 C 172.18 62.95 173.28 60.46 173.58 57.86 C 174.00 59.01 174.39 60.16 174.78 61.33 C 175.62 62.75 175.46 64.46 175.53 66.05 L 173.46 64.96 C 173.60 64.17 173.90 62.60 174.05 61.81 L 173.38 61.68 C 172.70 64.14 170.28 63.41 168.79 64.88 C 170.77 63.61 173.15 63.78 173.89 66.05 C 173.37 66.19 172.33 66.46 171.81 66.60 C 170.67 69.00 167.71 70.28 167.42 73.03 C 168.99 71.73 170.32 69.89 172.41 69.38 L 172.50 68.53 C 174.20 68.72 175.01 67.87 174.93 65.99 C 175.93 66.70 176.69 67.62 177.20 68.76 C 178.59 70.50 179.20 72.83 178.28 74.97 L 179.68 74.15 C 180.91 76.78 182.35 79.31 183.64 81.92 C 179.39 80.86 180.11 74.60 176.48 72.59 L 178.39 79.07 L 175.17 76.69 C 175.71 77.55 176.79 79.28 177.33 80.15 L 177.18 81.14 C 177.13 81.60 177.04 82.52 176.99 82.98 C 175.83 84.09 175.45 85.71 174.54 86.99 C 172.10 81.76 169.16 76.87 166.67 71.66 C 166.36 71.21 165.75 70.31 165.44 69.86 L 165.53 68.75 C 165.12 68.28 164.30 67.34 163.89 66.87 C 164.44 66.38 165.54 65.38 166.09 64.89 C 165.50 65.30 164.33 66.13 163.75 66.54 C 162.78 64.94 161.74 63.36 160.41 62.03 C 161.84 60.72 163.10 59.24 164.41 57.81 C 165.71 60.08 163.10 61.49 161.80 62.93 L 163.15 63.33 C 163.24 63.81 163.40 64.76 163.48 65.24 C 164.84 63.52 166.25 61.84 167.56 60.08 L 165.46 60.97 L 165.18 57.43 M 170.10 75.63 C 170.12 75.95 170.15 76.57 170.17 76.88 C 171.75 77.74 172.14 75.34 173.70 75.60 C 173.78 74.92 173.94 73.55 174.02 72.87 L 175.85 74.98 L 177.80 68.87 C 173.67 69.21 172.33 72.99 170.10 75.63 Z" />
<path fill="#ffffff" opacity="1.00" d=" M 186.72 89.40 C 187.82 84.58 185.58 79.40 187.95 74.84 C 191.10 78.40 189.84 83.45 190.43 87.77 C 190.15 89.84 191.05 91.93 190.24 93.94 C 189.65 91.98 188.61 90.29 186.72 89.40 Z" />
<path fill="#ffffff" opacity="1.00" d=" M 178.38 81.47 C 178.87 82.97 180.26 82.63 181.49 82.40 C 180.98 83.00 179.94 84.20 179.43 84.80 C 179.52 85.96 179.59 87.12 179.64 88.29 C 178.90 89.13 178.19 90.00 177.51 90.89 L 178.77 91.01 L 179.23 89.57 C 179.78 89.41 180.87 89.08 181.42 88.92 L 181.27 90.36 C 182.18 91.45 183.41 92.20 184.80 92.49 C 184.68 92.92 184.43 93.77 184.31 94.19 C 183.79 94.63 182.75 95.50 182.23 95.93 C 182.73 99.68 184.29 95.00 185.42 96.70 C 185.37 97.29 185.26 98.46 185.20 99.05 C 180.63 96.40 177.06 92.06 175.04 87.20 C 176.25 86.08 176.78 84.58 176.99 82.98 C 177.34 82.60 178.03 81.85 178.38 81.47 M 178.25 83.91 L 177.64 84.27 C 177.46 87.07 180.60 84.44 178.25 83.91 Z" />
<path fill="#ffffff" opacity="1.00" d=" M 246.39 84.19 C 246.73 84.10 247.42 83.93 247.76 83.85 C 249.36 87.31 249.35 91.34 249.29 95.08 C 247.07 94.67 247.88 92.27 247.43 90.76 C 244.85 89.73 246.62 86.32 246.39 84.19 Z" />
<path fill="#ffffff" opacity="1.00" d=" M 342.81 88.45 C 346.67 91.68 345.06 97.46 346.54 101.81 C 346.19 104.41 346.12 107.05 345.69 109.65 C 344.68 110.57 343.27 114.63 342.23 111.18 C 342.51 112.10 342.81 113.01 342.95 113.97 C 340.17 119.06 336.89 124.69 331.23 126.91 C 335.50 123.37 339.20 119.24 341.99 114.40 C 337.82 114.00 337.60 120.07 333.64 120.77 C 333.96 124.06 330.59 122.69 331.03 120.14 C 334.14 117.53 338.11 114.91 338.48 110.47 L 339.62 110.90 C 338.63 108.82 340.72 107.34 341.44 105.61 C 343.40 100.08 342.42 94.17 342.81 88.45 Z" />
<path fill="#ffffff" opacity="1.00" d=" M 186.61 89.76 C 188.80 90.64 189.27 93.50 189.58 95.60 C 189.80 95.55 190.24 95.45 190.46 95.40 C 190.50 96.70 190.53 98.00 190.58 99.30 C 190.93 99.57 191.61 100.11 191.95 100.38 L 190.16 100.19 C 190.43 100.99 190.96 102.59 191.22 103.40 C 189.03 102.11 188.24 99.67 187.32 97.47 C 187.40 94.88 186.86 92.33 186.61 89.76 Z" />
<path fill="#ffffff" opacity="1.00" d=" M 245.54 90.08 L 246.92 90.73 C 247.34 94.58 250.38 97.67 249.39 101.76 C 248.72 101.32 247.39 100.45 246.73 100.01 C 247.12 101.90 251.36 102.82 248.72 104.87 C 247.62 104.45 246.59 103.88 245.52 103.39 C 245.25 98.95 245.93 94.52 245.54 90.08 Z" />
<path fill="#ffffff" opacity="1.00" d=" M 193.68 98.52 C 193.52 97.10 191.33 94.81 193.42 94.00 C 193.42 94.70 193.42 96.11 193.42 96.81 C 196.72 95.06 198.40 99.60 201.15 100.69 C 209.16 104.82 216.47 110.68 225.36 112.82 C 224.99 113.68 224.72 114.57 224.55 115.49 C 223.74 115.98 222.92 116.45 222.09 116.91 C 221.01 118.81 219.83 120.78 217.81 121.83 L 220.81 122.12 C 219.44 123.11 217.68 122.61 216.25 122.00 C 217.20 121.15 219.40 120.78 218.21 118.90 C 217.29 119.70 216.38 120.51 215.50 121.35 C 208.96 116.64 202.14 112.34 195.03 108.53 C 194.02 108.06 193.23 107.31 193.03 106.18 C 199.78 110.26 206.86 113.81 213.09 118.70 C 213.29 117.85 213.67 116.16 213.87 115.31 C 212.58 116.11 211.58 115.01 210.54 114.50 C 211.09 111.77 210.86 108.28 208.84 106.18 C 207.97 108.19 208.07 110.99 205.87 112.12 C 206.34 110.95 206.89 109.81 207.52 108.70 C 207.18 108.32 206.52 107.56 206.18 107.17 C 206.62 106.90 207.50 106.37 207.94 106.10 C 206.79 105.01 205.61 103.74 203.93 103.55 C 203.35 104.81 203.18 106.39 201.91 107.21 C 202.33 105.58 203.32 104.01 202.89 102.25 C 202.33 103.16 201.22 104.99 200.67 105.91 C 200.33 103.29 199.73 100.08 196.97 98.96 C 197.47 99.76 198.47 101.37 198.97 102.17 C 196.81 101.79 194.17 100.98 193.68 98.52 M 214.16 114.21 C 214.78 114.86 214.78 114.86 214.16 114.21 Z" />
<path fill="#ffffff" opacity="1.00" d=" M 293.31 93.95 C 293.60 94.20 294.18 94.70 294.46 94.96 C 295.47 100.45 295.93 106.14 294.67 111.64 C 294.30 111.31 293.57 110.65 293.20 110.32 C 292.96 110.54 292.48 110.97 292.24 111.19 C 292.58 112.53 292.89 113.88 293.18 115.24 C 292.05 114.66 290.92 114.09 289.79 113.52 C 290.22 114.16 291.09 115.43 291.52 116.07 C 291.24 116.63 290.68 117.74 290.41 118.30 C 289.53 119.20 288.72 120.30 287.35 120.36 C 287.37 123.11 284.59 124.65 282.91 126.45 C 281.56 125.05 280.14 122.26 283.35 122.21 C 283.78 120.61 285.33 120.00 286.68 119.36 C 286.18 117.50 287.95 116.45 288.76 115.03 C 291.89 110.29 293.09 104.55 292.81 98.93 C 292.64 97.25 292.79 95.56 293.31 93.95 Z" />
<path fill="#ffffff" opacity="1.00" d=" M 333.68 104.11 C 335.25 102.78 336.71 101.28 338.65 100.47 C 338.86 100.79 339.28 101.44 339.49 101.76 C 337.77 104.41 335.45 106.58 333.30 108.88 C 333.24 108.05 333.13 106.39 333.07 105.56 C 333.05 106.60 333.01 108.68 332.99 109.73 C 332.25 109.08 330.77 107.78 330.03 107.13 C 330.28 108.30 330.57 109.47 330.88 110.64 C 329.33 111.57 327.87 112.92 325.94 112.85 C 327.24 111.88 328.67 111.06 329.73 109.81 C 327.88 108.63 326.24 110.11 324.46 110.53 L 324.72 112.72 C 324.06 111.27 323.34 109.81 323.31 108.19 C 327.05 107.67 330.27 105.57 333.68 104.11 Z" />
<path fill="#ffffff" opacity="1.00" d=" M 245.32 103.57 C 246.59 104.35 247.82 105.18 249.01 106.08 C 249.70 107.84 248.84 109.87 249.86 111.59 C 249.00 111.03 247.28 109.91 246.42 109.35 C 247.12 110.48 248.52 112.72 249.22 113.85 L 246.85 113.36 C 247.31 114.08 248.25 115.53 248.72 116.26 C 248.34 116.36 247.58 116.56 247.20 116.66 C 247.40 117.30 247.80 118.59 247.99 119.23 C 247.43 119.34 246.31 119.57 245.75 119.68 C 246.22 120.10 247.17 120.95 247.64 121.38 C 245.88 122.91 247.33 126.08 244.78 127.06 C 244.74 126.22 244.67 124.54 244.64 123.70 C 244.15 125.28 243.83 126.91 243.65 128.56 L 241.34 128.39 C 241.75 126.37 240.93 121.24 243.94 121.85 L 245.29 123.98 C 246.24 122.18 245.54 120.16 245.42 118.26 L 246.64 118.55 C 245.39 113.63 245.32 108.63 245.32 103.57 Z" />
<path fill="#ffffff" opacity="1.00" d=" M 225.04 114.67 C 225.83 114.36 226.64 114.06 227.44 113.77 C 232.24 116.52 237.13 119.12 242.04 121.68 C 241.22 123.48 239.99 125.27 240.51 127.36 C 239.70 128.20 238.76 128.83 237.68 129.27 C 238.23 126.82 238.85 124.34 238.52 121.81 C 237.17 123.95 238.28 127.88 235.40 128.67 C 235.54 126.07 236.26 123.57 236.79 121.04 C 236.54 120.80 236.03 120.33 235.78 120.10 C 235.19 121.91 234.62 123.74 234.25 125.62 C 232.82 125.47 231.23 125.41 230.33 126.90 C 230.45 126.02 230.70 124.24 230.82 123.35 C 229.81 124.03 228.94 124.85 228.20 125.81 C 228.66 124.08 228.10 122.85 226.52 122.13 C 225.90 119.67 225.26 117.21 225.04 114.67 Z" />
<path fill="#ffffff" opacity="1.00" d=" M 322.53 119.17 C 323.57 117.64 323.55 114.86 325.98 114.97 C 325.53 117.20 325.52 120.10 323.20 121.32 C 324.46 121.89 325.74 122.40 327.04 122.88 C 327.17 124.27 326.67 125.22 325.54 125.73 C 325.46 126.35 325.30 127.59 325.22 128.21 C 324.69 127.65 323.65 126.53 323.13 125.97 C 318.05 131.10 312.13 135.93 304.82 137.24 C 298.04 136.69 291.12 135.99 284.50 137.94 C 285.33 137.30 286.19 136.69 287.07 136.11 C 292.39 136.49 297.73 136.16 303.05 136.60 C 306.83 137.20 309.98 134.73 313.36 133.50 C 317.10 130.83 320.59 127.83 323.46 124.23 C 323.03 123.57 322.60 122.91 322.18 122.25 C 319.90 128.06 314.18 131.18 308.85 133.69 C 308.08 133.71 306.54 133.74 305.77 133.76 C 305.24 135.36 304.62 135.29 303.89 133.55 C 302.08 134.41 300.05 134.20 298.12 134.38 C 298.90 133.00 299.61 131.59 300.41 130.22 L 300.11 129.10 L 302.60 129.17 C 302.31 131.33 303.69 131.33 304.94 132.13 L 305.32 132.63 L 305.78 132.68 L 306.21 132.30 L 306.52 131.78 C 306.70 130.57 306.95 129.38 307.26 128.19 C 307.34 127.97 307.50 127.52 307.58 127.29 C 306.82 126.92 306.06 126.53 305.32 126.14 C 307.41 124.93 309.68 124.13 311.99 125.28 C 313.72 124.74 315.44 124.18 317.12 123.49 C 316.93 124.18 316.53 125.56 316.33 126.25 C 318.99 124.54 320.86 121.82 322.53 119.17 M 309.07 125.64 C 311.09 128.41 307.26 129.27 307.51 131.94 C 310.38 130.09 313.51 128.70 316.42 126.91 C 315.96 126.40 315.50 125.88 315.05 125.37 C 313.74 126.50 312.42 127.60 311.02 128.62 C 310.38 127.62 309.73 126.63 309.07 125.64 Z" />
<path fill="#ffffff" opacity="1.00" d=" M 222.95 117.10 C 223.52 117.72 224.10 118.34 224.68 118.96 C 223.89 120.96 223.04 122.95 222.38 125.00 C 221.83 124.51 220.73 123.52 220.17 123.03 C 220.71 122.96 221.77 122.81 222.30 122.74 C 220.93 120.90 221.14 119.02 222.95 117.10 Z" />
<path fill="#ffffff" opacity="1.00" d=" M 327.31 121.97 C 328.16 121.51 329.85 120.59 330.69 120.13 C 331.23 123.00 329.75 125.28 327.62 127.02 C 327.51 125.33 327.40 123.65 327.31 121.97 Z" />
<path fill="#ffffff" opacity="1.00" d=" M 225.34 123.03 C 225.82 123.40 225.82 123.40 225.34 123.03 Z" />
<path fill="#ffffff" opacity="1.00" d=" M 275.79 125.88 C 277.15 124.98 278.54 124.13 279.94 123.30 C 280.84 124.30 281.73 125.31 282.62 126.32 C 281.32 127.56 279.81 128.53 278.33 129.52 C 276.26 129.31 274.18 129.28 272.11 129.29 C 269.87 130.14 265.89 131.57 265.13 128.12 C 264.59 128.29 263.50 128.63 262.95 128.80 C 263.93 130.25 262.65 131.28 261.60 131.89 C 261.52 131.19 261.34 129.78 261.25 129.08 C 260.32 128.87 258.44 128.46 257.50 128.25 C 256.70 129.42 255.32 129.15 254.11 129.17 C 254.10 128.74 254.08 127.88 254.08 127.45 C 255.31 127.44 256.54 127.44 257.78 127.47 C 261.04 125.22 265.28 127.69 268.42 125.58 C 268.78 125.78 269.51 126.19 269.87 126.39 C 271.73 125.46 273.80 125.88 275.79 125.88 Z" />
<path fill="#ffffff" opacity="1.00" d=" M 224.18 125.15 C 225.09 124.45 227.06 125.61 226.57 126.78 C 225.64 127.72 223.59 126.35 224.18 125.15 Z" />
<path fill="#ffffff" opacity="1.00" d=" M 288.13 129.17 C 289.78 125.92 294.51 126.84 297.56 126.38 C 297.47 127.22 297.30 128.90 297.22 129.74 L 298.84 129.48 C 298.70 130.57 298.43 132.75 298.29 133.84 C 297.02 133.68 295.76 133.52 294.50 133.34 C 293.69 134.51 292.46 135.49 291.97 133.29 C 291.06 133.62 289.23 134.29 288.32 134.62 C 289.12 132.86 289.88 131.04 291.24 129.62 C 291.35 130.48 291.59 132.19 291.71 133.05 C 292.09 132.04 292.59 131.10 293.22 130.24 C 294.24 130.35 295.26 130.49 296.28 130.65 C 294.62 128.12 290.63 130.16 288.13 129.17 Z" />
<path fill="#ffffff" opacity="1.00" d=" M 298.51 127.40 C 298.94 127.24 299.79 126.90 300.21 126.74 C 302.47 127.85 297.72 129.72 298.51 127.40 Z" />
<path fill="#ffffff" opacity="1.00" d=" M 302.27 127.00 C 302.87 127.04 304.08 127.11 304.68 127.15 C 305.36 129.74 301.15 129.55 302.27 127.00 Z" />
<path fill="#ffffff" opacity="1.00" d=" M 227.45 128.69 C 230.06 128.28 232.31 130.28 234.41 131.55 C 236.14 134.30 238.86 136.81 239.05 140.25 C 238.10 139.44 237.28 138.52 236.59 137.49 C 236.23 137.70 235.50 138.12 235.14 138.33 C 234.73 137.01 234.34 135.69 233.97 134.37 C 232.73 134.36 231.25 134.72 230.77 133.15 C 231.57 133.37 233.17 133.79 233.97 134.00 C 233.30 131.11 230.44 130.52 228.06 129.73 C 225.59 129.26 227.38 132.05 227.57 133.14 C 228.87 133.99 229.73 135.30 230.66 136.51 C 230.23 136.66 229.39 136.97 228.97 137.13 C 229.92 138.47 230.88 139.83 231.81 141.19 C 231.64 141.72 231.30 142.79 231.14 143.33 L 232.75 144.12 C 231.58 144.71 230.44 143.68 229.32 143.43 C 227.40 140.97 226.64 137.96 227.74 134.97 L 226.96 133.85 C 226.35 135.47 226.84 137.69 225.25 138.81 C 225.94 135.55 224.70 131.15 227.45 128.69 Z" />
<path fill="#ffffff" opacity="1.00" d=" M 284.74 130.20 C 285.32 128.71 286.28 127.63 287.61 126.95 C 287.53 127.64 287.37 129.03 287.30 129.73 L 289.81 129.73 C 288.34 131.14 287.70 135.88 285.04 133.78 C 282.40 134.67 279.82 135.76 277.05 136.16 C 276.68 135.73 275.93 134.87 275.56 134.43 C 278.93 133.69 281.21 130.18 284.74 130.20 Z" />
<path fill="#ffffff" opacity="1.00" d=" M 269.11 135.02 C 270.67 135.18 271.97 136.11 273.35 136.79 L 273.63 135.14 C 274.62 135.89 275.53 136.74 276.35 137.68 L 274.87 138.50 C 274.75 138.82 274.51 139.45 274.39 139.77 C 272.39 138.48 270.30 137.15 269.11 135.02 Z" />
<path fill="#ffffff" opacity="1.00" d=" M 244.33 138.90 L 245.71 138.45 C 246.12 139.27 246.95 140.89 247.37 141.71 C 250.05 141.60 252.28 139.96 254.69 138.97 C 255.10 141.58 254.53 144.24 251.80 145.26 C 252.34 145.22 253.44 145.16 253.99 145.12 C 253.82 145.86 253.49 147.32 253.33 148.05 C 253.56 146.34 254.20 144.71 255.48 143.51 C 255.54 144.66 255.66 146.98 255.72 148.14 C 253.94 149.17 251.87 149.81 250.60 151.54 C 250.08 151.60 249.04 151.71 248.52 151.77 C 249.56 152.68 250.15 153.78 250.29 155.06 L 251.50 154.98 C 251.18 156.83 251.56 159.10 249.70 160.26 C 247.49 160.76 245.22 160.20 243.01 160.13 C 244.36 162.68 247.42 160.69 249.49 160.56 C 249.93 161.13 250.82 162.27 251.26 162.84 C 251.36 162.26 251.57 161.11 251.67 160.53 L 252.85 160.82 C 252.81 162.11 253.01 163.37 253.45 164.58 C 255.50 165.33 257.65 165.39 259.70 164.63 C 260.43 161.89 262.35 163.61 261.57 165.56 L 263.24 165.73 C 262.68 166.01 261.57 166.56 261.01 166.84 C 261.85 168.28 263.10 169.75 264.98 169.46 C 265.66 170.86 266.16 172.34 265.97 173.93 C 265.37 174.45 264.79 174.99 264.24 175.56 C 264.92 175.55 266.28 175.51 266.96 175.50 C 262.68 179.10 261.53 186.39 255.42 187.47 C 256.16 187.57 257.63 187.75 258.37 187.84 C 256.01 189.58 254.92 194.35 251.31 193.58 C 251.28 192.93 251.22 191.62 251.19 190.97 C 252.19 191.18 253.13 191.55 254.01 192.09 C 252.98 189.98 253.48 188.55 255.49 187.82 L 253.63 187.44 C 253.29 187.92 252.59 188.89 252.24 189.37 L 253.03 191.36 L 251.32 189.97 C 251.07 190.36 250.56 191.14 250.31 191.53 L 249.57 190.34 C 250.33 189.33 251.13 188.36 251.95 187.40 C 251.55 186.65 251.18 185.88 250.71 185.18 C 250.11 185.40 248.90 185.84 248.29 186.05 C 249.00 186.65 249.75 187.20 250.45 187.81 C 249.23 188.87 248.31 190.17 247.69 191.71 C 247.15 191.16 246.06 190.06 245.51 189.51 C 246.29 190.97 246.94 192.48 247.56 194.02 C 248.00 193.10 248.88 191.26 249.31 190.35 L 250.31 191.53 C 249.75 193.24 247.92 194.29 247.88 196.19 C 246.73 196.53 245.96 197.28 245.56 198.43 L 245.76 199.24 C 245.56 199.48 245.17 199.95 244.98 200.19 C 245.17 199.95 245.56 199.48 245.76 199.24 C 246.32 198.85 247.44 198.07 248.01 197.68 C 249.34 199.26 246.86 200.68 246.54 202.24 C 248.75 201.18 249.47 195.68 252.05 199.57 L 251.40 197.17 L 252.04 197.02 C 252.21 198.13 252.38 199.25 252.54 200.37 C 250.45 202.13 250.26 206.34 247.04 206.40 C 244.78 206.54 246.48 203.18 246.87 202.15 L 245.13 202.80 L 245.71 201.07 L 243.59 201.22 C 242.91 204.07 239.89 205.62 239.29 208.54 L 238.46 208.53 C 238.71 209.21 239.20 210.59 239.45 211.27 L 238.36 210.48 L 237.42 212.18 L 235.31 213.35 C 236.80 211.62 237.70 209.54 238.40 207.41 C 236.51 208.36 236.70 211.90 234.19 211.47 C 234.38 211.77 234.76 212.37 234.96 212.67 C 233.73 214.66 232.93 217.14 230.75 218.32 C 230.79 216.46 232.20 215.09 233.04 213.56 L 231.56 213.65 C 231.47 211.83 231.13 209.89 232.51 208.40 C 232.44 209.38 232.30 211.36 232.22 212.34 C 233.01 211.55 234.58 209.98 235.36 209.19 C 235.06 206.44 236.21 203.93 237.06 201.40 C 236.59 201.42 235.67 201.48 235.21 201.50 C 237.59 200.19 234.98 196.93 237.45 195.83 C 237.73 198.64 236.65 201.70 238.89 203.98 C 238.54 204.55 237.85 205.69 237.50 206.26 C 240.31 207.49 241.08 203.20 242.84 201.72 C 243.35 200.87 243.89 200.03 244.44 199.21 C 244.87 197.83 245.45 196.49 246.04 195.18 L 247.59 195.57 C 247.08 194.73 246.56 193.89 246.04 193.05 L 245.68 195.24 C 243.66 194.93 242.86 193.23 243.59 191.46 C 242.39 189.63 245.12 188.30 245.95 186.93 C 243.08 187.89 240.86 189.95 238.54 191.80 C 237.29 190.55 237.43 188.78 237.29 187.17 L 238.67 187.94 C 238.69 187.51 238.73 186.66 238.74 186.23 L 240.00 186.09 C 239.30 187.60 238.48 189.05 237.79 190.57 C 240.65 191.62 240.73 187.23 242.07 185.65 C 241.68 185.70 240.89 185.80 240.50 185.85 L 240.52 182.83 L 241.97 184.17 L 242.41 183.23 L 240.99 182.78 L 242.02 180.60 C 241.29 180.89 239.83 181.48 239.10 181.77 C 240.53 179.99 242.44 178.38 242.87 176.03 C 240.61 177.89 238.24 179.61 236.18 181.69 C 236.49 179.96 236.59 178.21 236.35 176.47 C 237.03 175.69 237.72 174.92 238.40 174.14 L 239.54 175.51 C 239.59 174.31 239.69 171.90 239.74 170.69 C 237.57 173.77 236.70 171.20 236.28 169.75 C 237.50 168.90 238.01 167.70 237.78 166.15 C 238.11 165.86 238.76 165.28 239.08 164.99 L 240.83 165.91 L 240.46 164.45 C 240.85 164.51 241.63 164.64 242.02 164.70 L 242.21 163.13 C 242.57 162.87 243.28 162.33 243.63 162.07 C 243.27 161.59 242.54 160.65 242.17 160.18 C 244.56 158.99 245.62 155.07 248.94 156.37 C 248.53 155.86 247.70 154.84 247.29 154.34 L 249.08 154.33 C 248.29 153.24 244.48 151.67 247.09 150.33 L 249.38 151.16 C 248.06 149.09 248.45 146.58 248.09 144.28 C 248.73 144.45 250.02 144.81 250.66 144.98 L 250.28 143.28 C 251.08 143.43 252.68 143.74 253.47 143.89 C 253.85 142.68 253.91 141.40 253.34 140.26 C 251.08 142.03 248.34 143.50 245.40 142.48 C 245.25 143.26 244.95 144.82 244.80 145.60 C 244.77 144.81 244.72 143.23 244.69 142.44 C 244.27 143.09 243.44 144.38 243.02 145.03 C 242.27 143.26 241.03 141.65 240.79 139.70 C 242.12 138.43 243.11 140.45 244.23 140.95 C 244.25 140.43 244.31 139.41 244.33 138.90 M 242.04 168.41 C 240.75 168.43 239.47 168.46 238.19 168.50 C 238.15 168.99 238.07 169.95 238.03 170.44 C 238.79 170.51 240.32 170.66 241.08 170.73 C 242.60 168.10 245.90 167.33 248.01 165.27 C 245.72 165.60 243.81 167.03 242.04 168.41 M 242.26 173.27 C 242.87 173.83 242.87 173.83 242.26 173.27 M 250.50 200.02 C 251.26 200.62 251.26 200.62 250.50 200.02 Z" />
<path fill="#ffffff" opacity="1.00" d=" M 291.36 139.26 C 291.79 139.47 292.65 139.91 293.08 140.13 C 293.56 142.42 292.80 144.66 291.71 146.66 C 291.35 149.49 291.12 152.77 289.19 155.01 C 289.35 152.71 291.22 150.58 290.00 148.28 C 288.90 145.14 289.84 142.05 291.36 139.26 Z" />
<path fill="#ffffff" opacity="1.00" d=" M 269.39 143.46 C 268.73 141.70 269.27 140.91 270.99 141.08 C 270.24 143.49 269.16 145.79 268.54 148.25 C 267.35 147.48 266.19 146.67 265.19 145.68 C 266.57 144.91 267.97 144.18 269.39 143.46 Z" />
<path fill="#ffffff" opacity="1.00" d=" M 225.55 142.63 C 225.76 142.44 226.19 142.05 226.41 141.86 C 226.56 146.11 227.41 151.04 231.81 152.89 C 230.96 153.89 230.44 155.04 230.25 156.33 C 232.05 156.57 233.87 156.65 235.69 156.67 C 235.17 154.70 234.38 152.82 232.93 151.36 C 233.65 151.47 235.08 151.68 235.80 151.79 C 235.16 150.35 234.17 149.15 233.20 147.94 C 234.26 148.47 235.30 149.04 236.35 149.61 C 236.64 151.64 238.67 152.48 239.92 153.86 C 238.82 153.53 236.63 152.86 235.54 152.52 C 236.44 153.31 238.25 154.90 239.16 155.69 L 237.62 155.53 C 237.32 156.13 236.74 157.34 236.45 157.94 C 236.78 158.49 237.44 159.59 237.77 160.14 C 236.84 159.52 235.93 158.88 235.03 158.23 C 234.88 159.19 234.60 161.13 234.46 162.10 C 233.40 161.35 232.36 160.58 231.27 159.88 C 229.75 158.60 227.75 157.40 227.82 155.14 C 227.73 150.84 224.62 146.98 225.55 142.63 Z" />
<path fill="#ffffff" opacity="1.00" d=" M 256.13 147.40 C 256.01 145.94 256.61 145.24 257.93 145.30 C 258.05 146.80 257.45 147.50 256.13 147.40 Z" />
<path fill="#ffffff" opacity="1.00" d=" M 275.48 146.88 C 277.39 145.94 279.51 146.03 280.01 148.43 C 279.58 149.03 278.73 150.23 278.31 150.83 C 277.02 149.79 273.95 148.98 275.48 146.88 Z" />
<path fill="#ffffff" opacity="1.00" d=" M 260.37 149.85 C 260.85 149.82 261.82 149.77 262.30 149.75 C 262.29 150.31 262.28 151.43 262.28 151.99 C 264.16 151.20 265.54 149.91 266.41 148.10 C 266.24 149.27 265.89 151.60 265.72 152.76 C 267.36 152.12 268.72 150.95 269.84 149.59 C 271.17 149.54 272.50 149.53 273.84 149.53 C 273.08 151.62 271.12 151.65 269.25 151.34 C 270.80 153.06 269.04 154.43 267.79 155.57 C 266.16 155.02 264.50 154.57 262.83 154.19 L 262.82 155.16 C 264.95 154.64 265.21 157.05 266.70 157.76 L 266.51 158.53 L 268.35 158.30 C 267.73 159.24 266.49 161.12 265.87 162.06 L 268.57 161.50 C 267.97 161.74 266.77 162.20 266.17 162.43 L 266.87 164.12 C 265.70 163.66 264.53 163.17 263.37 162.69 C 263.65 162.41 264.20 161.84 264.48 161.56 C 263.06 160.83 261.68 160.01 260.58 158.84 C 257.61 157.06 254.49 159.00 251.41 159.15 C 251.74 157.71 252.09 156.27 252.46 154.84 C 252.89 154.79 253.77 154.69 254.21 154.65 C 254.28 155.21 254.44 156.34 254.52 156.91 C 254.65 156.15 254.91 154.63 255.04 153.88 C 256.85 153.42 258.77 153.82 260.62 153.51 C 260.53 152.28 260.45 151.06 260.37 149.85 Z" />
<path fill="#ffffff" opacity="1.00" d=" M 275.94 155.67 C 276.35 151.75 281.19 150.46 284.27 148.93 C 284.44 150.28 284.59 151.63 284.70 152.99 C 285.16 153.03 286.07 153.11 286.53 153.15 C 285.42 155.10 284.32 158.03 281.49 157.51 L 281.60 158.25 C 280.12 158.86 278.72 159.68 277.15 160.01 C 277.36 159.56 277.77 158.66 277.97 158.21 C 279.48 157.46 281.08 156.74 282.24 155.47 C 282.83 155.34 284.00 155.09 284.59 154.96 L 285.04 153.27 C 283.02 153.55 280.97 153.78 279.00 153.15 C 278.00 154.02 277.06 154.96 275.94 155.67 M 282.17 151.24 C 282.81 151.83 282.81 151.83 282.17 151.24 Z" />
<path fill="#ffffff" opacity="1.00" d=" M 254.80 150.71 C 256.08 150.42 257.35 150.07 258.60 149.65 C 258.39 150.47 257.98 152.13 257.78 152.95 C 257.14 152.79 255.86 152.48 255.22 152.32 C 255.17 152.71 255.08 153.49 255.04 153.88 C 254.11 153.65 253.26 153.21 252.51 152.56 C 253.08 152.10 254.23 151.17 254.80 150.71 Z" />
<path fill="#ffffff" opacity="1.00" d=" M 266.79 157.59 C 268.66 154.94 271.67 152.97 274.48 151.40 C 273.61 153.03 272.58 154.58 271.68 156.21 C 272.49 156.20 274.10 156.18 274.90 156.17 C 273.30 157.88 271.26 159.96 268.74 158.43 L 268.60 159.78 L 267.98 159.75 C 268.18 159.25 268.59 158.26 268.79 157.76 C 268.29 157.72 267.29 157.63 266.79 157.59 Z" />
<path fill="#ffffff" opacity="1.00" d=" M 219.84 158.82 C 221.49 158.14 223.20 157.62 224.86 156.97 L 224.85 158.67 C 225.43 158.60 226.61 158.45 227.20 158.38 C 225.63 159.95 223.98 161.45 222.77 163.33 C 223.75 162.95 225.73 162.21 226.71 161.83 C 225.80 163.13 224.14 164.24 224.28 166.03 C 224.46 167.73 225.15 169.34 225.59 170.99 C 225.40 169.36 224.94 167.54 226.71 166.61 C 226.60 165.89 226.49 165.18 226.37 164.47 L 228.00 164.78 L 226.99 163.13 L 228.87 163.81 C 228.70 163.07 228.36 161.61 228.19 160.88 C 228.46 161.36 228.99 162.32 229.25 162.80 C 229.61 162.65 230.32 162.36 230.67 162.21 C 230.70 163.01 230.75 164.60 230.78 165.40 C 231.28 165.38 232.29 165.34 232.79 165.32 C 232.62 165.92 232.27 167.11 232.09 167.71 L 233.90 167.04 C 233.12 169.90 234.31 172.97 232.22 175.51 C 232.73 175.63 233.74 175.88 234.25 176.00 C 233.66 176.23 232.48 176.69 231.89 176.92 C 232.78 178.01 234.76 178.93 234.46 180.64 C 233.87 182.14 233.08 183.61 233.52 185.29 C 231.70 186.14 232.14 188.32 232.05 189.94 C 232.92 188.51 232.72 185.86 234.94 185.92 C 234.35 187.45 233.69 188.95 232.94 190.41 C 233.08 191.04 233.35 192.32 233.49 192.95 C 232.76 194.06 232.39 195.29 232.38 196.66 L 231.35 196.12 C 231.95 198.60 230.32 200.92 228.22 202.04 C 228.23 199.01 230.06 196.38 230.91 193.55 L 229.41 193.51 C 229.55 192.81 229.83 191.41 229.97 190.71 C 228.05 192.52 228.28 195.69 225.99 197.16 C 226.41 194.40 227.62 191.86 228.29 189.19 C 228.32 187.42 228.31 184.77 230.43 184.17 C 229.99 185.91 229.42 187.62 228.96 189.36 C 230.84 188.25 230.56 185.97 231.15 184.17 C 231.82 182.10 232.45 179.99 232.48 177.80 C 231.49 179.85 230.71 181.99 229.98 184.14 C 226.61 181.17 233.06 177.57 231.21 174.00 L 231.99 170.26 C 228.60 174.41 228.90 169.81 229.78 167.81 C 227.72 169.06 228.39 171.47 228.93 173.36 C 227.77 173.81 226.62 174.27 225.47 174.74 L 225.09 172.97 C 224.42 174.40 225.86 175.20 226.48 176.22 C 225.60 177.84 224.69 179.45 224.01 181.16 C 226.17 179.48 226.62 176.47 227.73 174.11 C 228.14 174.08 228.97 174.04 229.38 174.02 C 228.27 177.80 226.14 181.10 224.17 184.46 L 224.36 186.66 C 223.23 186.23 222.11 185.79 221.00 185.34 L 222.09 183.21 C 221.45 183.76 220.82 184.32 220.20 184.88 C 221.97 187.52 219.90 190.49 219.19 193.14 C 220.35 192.08 220.88 190.66 221.29 189.19 C 221.60 189.51 222.22 190.16 222.53 190.49 L 224.11 190.20 C 223.00 192.81 221.64 195.34 220.98 198.11 C 224.46 195.81 225.12 190.29 223.95 186.54 C 227.63 190.82 224.70 196.41 221.67 200.02 C 221.29 203.33 222.83 207.93 219.13 209.80 C 218.69 209.71 217.81 209.55 217.38 209.46 L 217.97 210.95 L 215.12 210.55 C 215.99 208.18 217.23 205.93 217.58 203.39 L 218.55 203.43 C 218.60 202.58 218.72 200.88 218.77 200.03 C 217.94 200.42 216.28 201.19 215.45 201.58 L 215.67 202.72 C 215.26 202.54 214.45 202.19 214.05 202.02 C 213.81 203.65 213.11 205.15 212.39 206.61 L 211.65 206.43 C 211.13 206.93 210.07 207.94 209.54 208.44 L 211.61 208.55 C 211.60 209.04 211.58 210.03 211.57 210.52 C 210.81 210.62 209.30 210.82 208.54 210.92 C 208.47 209.46 210.92 206.12 208.34 206.07 C 208.31 206.79 208.26 208.23 208.23 208.95 C 207.28 208.67 206.34 208.40 205.40 208.14 C 205.38 208.75 205.35 209.98 205.34 210.59 L 206.67 210.28 C 206.50 211.01 206.16 212.49 205.98 213.23 C 205.35 212.42 204.71 211.62 204.07 210.82 C 204.22 211.81 204.51 213.78 204.66 214.77 C 203.88 214.61 202.32 214.27 201.54 214.11 L 203.41 213.43 C 203.38 210.71 203.46 207.99 203.37 205.28 L 204.52 205.59 C 204.45 204.79 204.31 203.20 204.25 202.40 C 206.24 201.62 207.19 199.21 208.73 198.27 C 208.90 198.61 209.24 199.30 209.41 199.64 L 211.12 199.28 C 210.93 199.91 210.57 201.19 210.38 201.83 C 210.65 201.83 211.20 201.83 211.47 201.83 C 212.18 199.11 209.70 196.67 211.30 194.10 C 212.32 192.05 212.48 189.69 213.61 187.71 C 214.21 186.36 215.70 185.19 215.00 183.54 C 213.32 185.24 212.99 187.70 211.87 189.73 C 210.88 191.81 209.49 193.83 209.48 196.23 C 209.05 196.30 208.19 196.43 207.76 196.50 C 207.31 198.20 206.50 199.74 205.34 201.07 C 205.37 199.75 205.43 197.10 205.46 195.78 C 206.63 195.34 208.60 193.49 206.47 192.79 L 206.71 194.84 L 204.39 194.27 C 204.23 191.39 205.21 188.68 206.88 186.37 C 206.58 186.36 205.98 186.33 205.68 186.31 C 205.12 187.84 204.54 189.35 204.03 190.89 C 203.47 190.78 202.37 190.56 201.81 190.45 C 200.90 190.10 199.08 189.40 198.17 189.05 C 200.37 188.94 201.99 187.95 203.03 186.08 C 202.72 185.49 202.39 184.90 202.05 184.33 C 202.83 183.01 203.61 181.69 204.36 180.35 C 204.92 181.21 205.56 182.02 206.28 182.76 C 205.87 181.85 205.05 180.03 204.64 179.12 C 203.19 180.67 201.91 182.40 200.22 183.72 C 201.08 181.52 202.33 179.51 203.59 177.52 C 202.83 177.50 201.32 177.47 200.56 177.45 C 200.78 178.93 199.34 179.70 198.61 180.75 C 198.56 179.47 198.41 178.21 198.15 176.97 C 198.93 176.32 199.42 175.08 200.52 174.92 C 203.13 174.84 204.80 172.34 205.78 170.18 C 207.14 169.33 208.52 168.50 209.93 167.74 C 210.17 167.27 210.65 166.33 210.89 165.86 C 208.21 167.02 205.94 169.06 203.07 169.76 C 204.45 167.91 206.66 167.01 208.58 165.85 C 211.17 164.08 214.92 164.85 216.88 162.05 C 217.09 162.58 217.52 163.62 217.73 164.15 C 217.63 163.57 217.41 162.43 217.30 161.85 C 218.96 161.45 218.18 159.05 219.84 158.82 M 212.87 167.86 C 213.48 168.55 213.48 168.55 212.87 167.86 M 221.02 170.47 C 221.47 170.74 222.36 171.28 222.81 171.55 C 220.05 176.60 216.64 181.54 216.06 187.41 C 217.32 184.84 217.37 181.61 220.15 180.09 C 221.13 177.15 223.57 174.47 223.52 171.36 L 224.59 171.48 C 224.53 170.55 224.42 168.69 224.37 167.76 C 222.84 168.12 221.82 169.20 221.02 170.47 M 200.20 176.45 C 200.90 176.92 200.90 176.92 200.20 176.45 M 204.37 183.37 C 204.65 183.65 204.65 183.65 204.37 183.37 M 216.06 187.41 C 212.78 187.26 217.06 190.54 216.06 187.41 Z" />
<path fill="#ffffff" opacity="1.00" d=" M 255.85 160.24 C 257.22 159.65 257.72 160.05 257.33 161.44 C 255.90 162.05 255.41 161.65 255.85 160.24 Z" />
<path fill="#ffffff" opacity="1.00" d=" M 276.79 164.53 C 279.02 160.93 283.53 162.21 286.97 161.22 C 286.72 161.76 286.23 162.84 285.98 163.38 L 289.15 163.56 L 288.29 162.02 C 288.61 162.06 289.24 162.13 289.56 162.16 C 289.45 162.67 289.22 163.70 289.11 164.21 L 291.36 164.08 C 290.44 164.98 289.36 165.86 287.98 165.63 C 285.23 165.46 283.49 168.04 281.25 169.22 C 280.82 168.20 280.39 167.18 279.97 166.16 C 279.05 166.41 278.14 166.66 277.23 166.91 C 277.71 166.34 278.68 165.20 279.17 164.63 L 276.79 164.53 M 280.05 165.18 C 281.70 166.49 284.06 164.75 285.49 163.75 C 284.42 162.26 281.20 164.17 280.05 165.18 Z" />
<path fill="#ffffff" opacity="1.00" d=" M 275.16 162.25 C 276.28 162.94 276.20 163.65 274.90 164.37 C 273.71 163.65 273.79 162.94 275.16 162.25 Z" />
<path fill="#ffffff" opacity="1.00" d=" M 265.49 166.44 C 266.87 163.54 270.10 164.40 272.67 164.73 C 272.63 165.18 272.54 166.08 272.50 166.54 C 272.93 166.59 273.78 166.70 274.21 166.76 C 273.04 168.11 272.01 169.73 270.32 170.48 C 270.69 170.67 271.43 171.04 271.80 171.23 C 270.42 172.56 269.12 174.00 267.48 175.03 C 267.90 172.32 268.68 169.69 269.04 166.97 C 268.35 167.70 266.95 169.15 266.25 169.88 C 266.06 169.02 265.68 167.30 265.49 166.44 Z" />
<path fill="#ffffff" opacity="1.00" d=" M 284.27 170.62 C 284.94 167.69 288.74 167.15 291.26 166.87 C 288.55 171.25 281.76 171.85 280.53 177.43 C 281.94 176.36 283.14 175.05 284.21 173.65 C 284.74 173.62 285.80 173.56 286.33 173.53 C 287.67 172.43 289.05 171.37 290.26 170.12 C 291.85 169.34 293.57 168.86 295.37 168.92 C 293.77 171.54 289.81 170.65 288.22 173.36 C 285.17 177.40 282.46 182.49 277.42 184.27 C 276.67 182.64 278.05 181.44 278.93 180.32 C 277.13 181.22 274.14 182.55 275.97 184.99 C 274.20 185.58 274.28 187.22 274.81 188.67 C 274.52 189.38 274.23 190.09 273.93 190.80 C 271.97 191.44 269.01 191.75 269.49 194.85 C 271.67 194.00 273.73 190.90 275.74 193.83 C 274.69 194.74 273.04 193.82 272.27 195.20 C 271.14 196.95 269.72 198.43 267.82 199.34 L 269.18 195.70 C 267.28 196.95 265.80 198.69 264.40 200.46 C 263.55 201.64 264.96 201.61 265.73 201.50 C 267.26 201.84 268.17 199.96 269.67 200.15 C 269.51 201.06 269.20 201.94 268.74 202.80 C 269.59 201.28 273.68 200.40 272.06 198.05 C 272.91 197.36 273.77 196.67 274.75 196.16 C 274.21 197.40 273.26 198.39 272.52 199.51 C 272.93 199.53 273.76 199.58 274.17 199.60 C 274.31 200.25 274.60 201.54 274.74 202.19 C 269.55 202.11 266.13 206.65 261.25 207.67 C 261.84 206.85 263.01 205.21 263.59 204.38 C 262.01 206.63 260.01 206.03 259.50 204.05 C 260.84 202.40 262.19 200.75 263.62 199.18 C 260.95 199.88 258.46 201.09 256.19 202.65 C 257.42 199.63 260.60 197.66 261.81 194.90 C 261.34 195.27 260.39 196.02 259.92 196.39 C 259.33 195.99 258.77 195.56 258.25 195.09 C 259.28 194.41 260.32 193.74 261.37 193.09 C 262.05 194.13 262.83 195.06 263.73 195.89 C 264.48 194.91 265.21 193.93 265.93 192.92 L 266.64 193.63 C 265.16 195.18 263.66 196.70 262.09 198.16 C 262.72 198.51 263.36 198.86 264.00 199.22 C 264.41 197.43 266.07 196.36 267.58 195.56 C 267.43 195.33 267.12 194.88 266.96 194.65 C 268.02 193.45 269.24 192.42 270.40 191.33 C 271.11 189.89 271.20 188.22 271.58 186.67 C 272.86 186.24 273.94 185.39 274.26 184.02 C 273.65 184.46 272.44 185.35 271.83 185.80 L 271.59 183.72 C 270.11 185.87 270.53 188.76 268.91 190.87 C 268.53 190.47 267.76 189.68 267.38 189.29 C 267.19 190.68 266.41 191.58 265.04 191.98 C 265.38 189.58 268.24 187.46 265.81 185.04 L 268.29 186.52 C 267.72 186.05 267.17 185.56 266.63 185.06 C 267.89 183.17 268.63 181.02 269.32 178.87 C 269.42 179.43 269.62 180.54 269.72 181.10 C 270.51 180.60 272.08 179.59 272.86 179.09 C 272.62 179.70 272.14 180.91 271.89 181.52 L 270.60 181.34 C 270.00 182.17 269.41 183.00 268.83 183.83 C 270.10 183.60 271.39 183.40 272.69 183.30 C 273.78 180.65 274.97 178.05 276.29 175.50 C 278.93 174.23 278.00 177.35 276.99 178.55 L 278.17 177.24 L 278.38 178.39 C 278.69 177.15 279.11 175.94 279.48 174.72 C 279.93 174.24 280.82 173.29 281.27 172.82 C 281.36 172.72 281.55 172.52 281.65 172.42 C 281.55 172.52 281.36 172.72 281.27 172.82 C 280.71 172.89 279.61 173.04 279.06 173.11 C 278.84 172.93 278.41 172.56 278.19 172.38 C 279.98 171.01 281.96 169.87 284.27 170.62 Z" />
<path fill="#ffffff" opacity="1.00" d=" M 276.53 169.00 C 276.44 169.46 276.26 170.38 276.18 170.84 C 276.90 170.63 278.35 170.20 279.08 169.99 C 276.72 172.74 275.10 175.99 273.04 178.95 C 272.52 178.36 271.49 177.19 270.98 176.61 C 270.25 176.65 268.79 176.73 268.06 176.78 C 269.28 175.06 270.39 173.05 272.46 172.23 C 272.49 172.94 272.55 174.35 272.58 175.06 C 273.83 174.27 274.74 172.82 274.34 171.31 C 275.06 170.53 275.79 169.76 276.53 169.00 Z" />
<path fill="#ffffff" opacity="1.00" d=" M 288.14 175.82 C 288.85 172.18 293.70 171.63 296.79 171.84 C 298.28 173.14 299.88 174.32 301.23 175.78 C 302.25 176.57 303.32 177.29 304.38 178.04 C 305.00 178.14 306.24 178.35 306.86 178.45 C 306.22 180.68 303.51 178.82 302.15 180.01 C 300.93 180.97 299.55 181.62 298.01 181.97 L 298.96 180.33 C 299.43 180.18 300.39 179.87 300.86 179.72 C 300.99 179.40 301.23 178.76 301.35 178.43 C 298.97 178.60 297.35 180.44 295.83 182.06 C 294.63 180.88 293.35 179.08 295.61 178.22 C 293.08 178.09 291.46 180.56 291.10 182.80 C 291.63 182.32 292.70 181.36 293.23 180.88 C 293.66 181.69 294.11 182.50 294.56 183.32 L 293.35 183.34 C 290.01 187.26 290.78 193.08 294.28 196.65 C 290.81 197.38 289.45 193.93 290.53 191.12 C 289.27 189.68 288.37 188.00 287.92 186.14 C 288.82 184.92 289.61 183.60 289.65 182.05 C 288.40 183.96 286.87 186.04 287.88 188.49 C 286.66 188.47 285.45 188.71 284.22 188.60 C 283.52 183.85 287.68 180.64 288.46 176.27 L 290.62 176.26 C 290.00 176.15 288.76 175.93 288.14 175.82 M 293.28 176.77 C 294.40 176.45 295.50 176.11 296.62 175.78 C 297.33 176.20 298.75 177.03 299.46 177.45 C 300.14 174.99 298.07 174.52 296.30 173.96 C 295.28 174.88 294.26 175.81 293.28 176.77 Z" />
<path fill="#ffffff" opacity="1.00" d=" M 279.06 173.11 C 278.51 173.55 278.51 173.55 279.06 173.11 Z" />
<path fill="#ffffff" opacity="1.00" d=" M 196.16 176.66 C 196.04 175.32 196.69 174.83 198.12 175.19 C 198.23 176.49 197.58 176.99 196.16 176.66 Z" />
<path fill="#ffffff" opacity="1.00" d=" M 260.66 186.54 C 262.02 183.02 263.99 179.77 266.50 176.95 C 266.62 179.62 267.38 182.63 265.53 184.93 C 265.02 184.78 263.99 184.48 263.48 184.33 L 262.53 185.74 L 260.66 186.54 Z" />
<path fill="#ffffff" opacity="1.00" d=" M 285.09 178.33 C 285.61 178.87 286.13 179.41 286.66 179.95 C 283.73 182.23 283.02 185.75 283.82 189.23 L 286.37 189.15 L 284.10 190.66 C 284.84 192.03 285.57 193.41 286.27 194.80 C 285.51 194.62 283.99 194.25 283.24 194.06 C 283.32 194.85 283.50 196.42 283.58 197.21 C 281.66 195.79 282.00 193.08 281.15 191.04 L 280.12 191.75 C 279.94 192.37 279.58 193.62 279.40 194.24 C 278.10 192.78 278.06 189.45 275.23 190.75 C 275.25 189.87 275.28 188.12 275.30 187.25 C 275.62 186.54 276.25 185.12 276.57 184.42 C 277.37 184.52 278.96 184.73 279.75 184.83 C 281.36 182.53 283.27 180.47 285.09 178.33 M 279.39 185.72 C 279.59 187.63 279.55 189.61 280.30 191.42 C 280.40 189.22 281.03 187.15 282.17 185.27 C 281.48 185.39 280.09 185.61 279.39 185.72 Z" />
<path fill="#ffffff" opacity="1.00" d=" M 298.29 185.59 C 297.48 185.00 296.83 182.99 298.50 183.24 C 300.37 183.98 300.92 186.04 301.87 187.61 C 300.63 187.02 299.41 186.37 298.29 185.59 Z" />
<path fill="#ffffff" opacity="1.00" d=" M 307.94 187.96 C 308.62 186.04 310.38 184.94 311.94 183.79 C 312.36 185.10 312.72 186.51 311.72 187.68 C 312.44 189.45 313.10 192.80 310.07 192.68 C 310.91 193.81 311.68 195.04 311.86 196.47 C 311.48 196.35 310.70 196.10 310.32 195.98 C 309.40 194.74 308.39 193.58 307.21 192.60 C 308.06 192.55 309.76 192.46 310.61 192.42 C 310.42 190.12 310.90 187.92 311.78 185.81 L 310.57 185.63 C 310.15 186.92 309.27 187.70 307.94 187.96 Z" />
<path fill="#ffffff" opacity="1.00" d=" M 265.01 186.24 C 265.49 186.93 265.96 187.63 266.42 188.34 L 265.33 187.99 C 264.72 189.44 263.88 190.74 262.81 191.89 C 262.62 191.55 262.25 190.86 262.07 190.52 C 260.95 190.98 258.70 191.90 257.58 192.37 C 258.58 190.18 260.00 188.15 262.26 187.15 L 262.40 188.64 C 263.26 187.83 264.13 187.04 265.01 186.24 Z" />
<path fill="#ffffff" opacity="1.00" d=" M 286.43 189.94 C 286.76 189.78 287.43 189.45 287.77 189.28 C 288.26 190.32 288.36 191.41 288.07 192.53 C 286.79 193.19 286.14 190.87 286.43 189.94 Z" />
<path fill="#ffffff" opacity="1.00" d=" M 297.26 193.84 C 299.82 193.82 301.38 191.75 302.86 189.98 C 302.40 191.36 301.99 192.76 301.65 194.18 C 300.39 195.70 298.03 195.96 297.26 193.84 Z" />
<path fill="#ffffff" opacity="1.00" d=" M 201.23 191.03 C 204.72 191.50 201.65 195.63 201.30 197.60 C 200.85 200.09 199.24 197.38 198.79 196.44 L 200.62 196.57 C 200.54 195.76 200.38 194.15 200.29 193.35 L 201.77 193.71 C 201.63 193.04 201.36 191.70 201.23 191.03 Z" />
<path fill="#ffffff" opacity="1.00" d=" M 257.43 193.39 C 258.96 194.11 256.52 195.91 256.12 196.87 C 255.64 197.00 254.68 197.25 254.20 197.38 C 253.85 195.72 256.27 194.41 257.43 193.39 Z" />
<path fill="#ffffff" opacity="1.00" d=" M 247.88 196.19 C 248.12 194.74 250.75 194.96 249.94 196.60 C 249.46 196.87 248.49 197.41 248.01 197.68 C 247.98 197.31 247.91 196.56 247.88 196.19 Z" />
<path fill="#ffffff" opacity="1.00" d=" M 306.78 195.06 C 307.73 195.78 308.46 196.73 309.01 197.79 C 308.33 197.71 306.97 197.53 306.29 197.44 C 305.07 200.49 303.08 203.59 299.98 204.99 C 301.59 201.23 305.32 198.84 306.78 195.06 Z" />
<path fill="#ffffff" opacity="1.00" d=" M 256.12 196.87 L 257.14 196.67 C 257.26 197.05 257.52 197.83 257.64 198.21 C 256.98 199.05 256.19 199.49 255.27 199.52 C 255.16 198.52 255.44 197.64 256.12 196.87 Z" />
<path fill="#ffffff" opacity="1.00" d=" M 286.23 197.24 C 286.56 198.43 287.17 199.44 288.05 200.26 C 288.26 199.71 288.69 198.62 288.90 198.07 C 292.38 199.37 296.66 199.07 299.26 202.04 L 296.45 201.41 C 295.95 201.75 294.94 202.44 294.44 202.78 L 294.54 204.08 C 292.22 203.73 290.20 201.73 287.79 202.77 C 287.26 201.49 286.23 200.58 285.27 199.65 C 285.59 198.85 285.91 198.04 286.23 197.24 Z" />
<path fill="#ffffff" opacity="1.00" d=" M 278.71 200.51 C 280.91 201.21 282.87 202.68 285.27 202.59 C 283.46 204.13 281.17 204.26 279.07 203.14 L 279.64 204.61 C 278.49 204.02 277.12 203.71 276.26 202.71 C 276.90 201.94 277.74 201.54 278.80 201.51 L 278.71 200.51 Z" />
<path fill="#ffffff" opacity="1.00" d=" M 224.10 204.22 L 224.78 204.19 C 224.81 204.79 224.86 205.99 224.89 206.60 C 225.45 206.45 226.57 206.16 227.13 206.01 C 226.44 207.57 226.53 209.23 226.75 210.88 C 226.22 210.85 225.18 210.79 224.66 210.76 C 224.46 208.58 224.31 206.39 224.10 204.22 Z" />
<path fill="#ffffff" opacity="1.00" d=" M 248.33 208.20 C 250.07 208.25 248.94 210.67 247.75 210.71 C 246.27 210.56 247.22 208.24 248.33 208.20 Z" />
<path fill="#ffffff" opacity="1.00" d=" M 249.67 216.94 C 249.02 213.87 249.08 210.23 251.48 207.92 C 251.13 208.84 250.77 209.76 250.41 210.69 L 252.09 211.18 C 252.15 211.58 252.28 212.39 252.35 212.79 C 254.09 211.42 254.82 212.01 254.53 214.54 L 256.83 213.02 C 256.62 213.98 256.21 215.92 256.00 216.89 C 256.43 216.38 257.29 215.37 257.72 214.86 C 257.40 218.55 260.32 221.47 260.58 225.11 C 260.66 223.59 260.82 222.08 261.06 220.58 L 262.11 222.34 C 262.12 226.69 265.12 230.18 266.14 234.28 C 263.54 235.30 263.86 232.84 263.64 231.11 L 263.15 231.20 C 263.43 233.15 263.91 235.20 262.65 236.94 C 262.96 237.47 263.57 238.52 263.87 239.05 C 260.70 238.54 261.61 235.01 261.21 232.64 L 260.19 232.64 L 260.58 231.05 C 259.52 231.35 258.65 231.93 257.99 232.81 C 256.13 231.87 256.27 230.11 256.56 228.40 C 255.72 228.46 254.06 228.58 253.22 228.64 C 253.21 224.63 255.61 221.44 257.05 217.90 C 254.30 217.76 255.18 222.08 252.48 222.04 C 252.50 220.43 254.64 217.24 251.84 217.09 C 251.48 217.62 250.75 218.68 250.38 219.21 C 250.34 218.27 250.31 217.33 250.29 216.39 L 251.54 216.53 C 251.56 215.38 251.60 214.23 251.65 213.08 L 250.97 213.04 C 250.73 214.40 250.29 215.70 249.67 216.94 Z" />
<path fill="#ffffff" opacity="1.00" d=" M 269.00 209.59 C 271.77 210.77 270.26 214.32 269.52 216.35 L 270.30 216.52 C 270.42 217.76 270.56 219.01 270.70 220.27 C 269.57 218.94 268.63 217.48 267.69 216.02 C 267.88 215.40 268.25 214.16 268.44 213.53 C 268.80 213.38 269.52 213.06 269.87 212.90 C 269.81 211.75 269.52 210.64 269.00 209.59 Z" />
<path fill="#ffffff" opacity="1.00" d=" M 239.45 211.27 C 239.78 211.31 240.45 211.37 240.78 211.40 C 239.34 212.40 239.87 213.69 240.54 214.95 C 240.01 216.11 239.48 217.28 238.95 218.46 C 240.74 217.91 241.55 219.51 242.32 220.69 C 240.73 220.60 239.15 220.51 237.57 220.42 C 237.72 223.52 235.44 220.40 234.27 220.24 C 235.84 218.34 236.65 215.89 238.45 214.17 C 238.81 213.21 239.14 212.25 239.45 211.27 M 238.17 219.17 C 238.85 219.77 238.85 219.77 238.17 219.17 Z" />
<path fill="#ffffff" opacity="1.00" d=" M 214.37 220.16 C 215.48 217.27 212.17 214.37 213.96 211.87 C 214.85 211.71 216.61 211.39 217.49 211.23 C 217.07 213.00 218.88 212.82 219.93 213.25 C 219.58 213.29 218.88 213.37 218.53 213.41 C 218.83 215.10 218.69 216.98 216.48 216.61 C 216.44 218.18 215.89 219.54 214.37 220.16 Z" />
<path fill="#ffffff" opacity="1.00" d=" M 265.98 218.69 C 264.58 216.80 263.20 212.67 266.65 212.12 C 267.23 213.39 267.01 214.50 265.98 215.46 C 267.46 219.47 270.75 222.35 272.75 226.06 C 271.45 225.71 270.55 224.97 270.05 223.84 C 269.50 224.14 268.96 224.45 268.42 224.77 C 269.88 226.66 271.13 228.70 272.11 230.87 C 270.68 229.62 269.08 228.69 267.29 228.10 C 267.26 229.95 268.16 231.56 268.95 233.17 C 267.37 231.38 264.88 229.87 264.76 227.28 L 263.25 226.98 C 264.62 225.75 267.82 225.36 267.09 228.77 C 267.34 226.72 266.74 224.91 265.31 223.34 L 265.49 225.60 C 264.48 225.39 263.46 225.19 262.45 225.00 C 263.58 223.44 266.16 220.03 263.12 218.90 C 263.83 218.84 265.26 218.74 265.98 218.69 M 265.70 219.20 C 264.21 220.95 267.11 224.11 268.98 223.12 C 267.54 222.11 266.86 220.26 265.70 219.20 Z" />
<path fill="#ffffff" opacity="1.00" d=" M 211.82 215.12 L 213.20 215.30 C 213.71 217.48 213.37 219.78 213.49 222.01 C 210.90 220.60 211.00 217.58 211.82 215.12 Z" />
<path fill="#ffffff" opacity="1.00" d=" M 215.69 222.71 C 218.36 221.13 219.37 217.79 222.05 216.12 C 220.10 220.44 217.46 224.43 214.08 227.77 C 214.65 226.09 216.19 224.58 215.69 222.71 Z" />
<path fill="#ffffff" opacity="1.00" d=" M 233.91 216.15 L 234.66 216.08 C 234.64 216.49 234.58 217.31 234.56 217.72 L 233.78 217.79 C 233.81 217.38 233.87 216.56 233.91 216.15 Z" />
<path fill="#ffffff" opacity="1.00" d=" M 262.25 217.22 C 262.85 217.80 262.85 217.80 262.25 217.22 Z" />
<path fill="#ffffff" opacity="1.00" d=" M 224.37 217.58 L 226.98 217.38 L 226.11 218.95 C 226.60 218.78 227.57 218.45 228.06 218.29 C 227.85 220.16 227.26 221.95 226.43 223.64 C 226.83 223.65 227.63 223.67 228.04 223.68 C 227.81 224.93 227.38 226.11 226.73 227.21 C 228.92 228.05 226.88 229.86 226.41 231.22 C 224.44 231.48 223.79 233.60 222.49 234.83 C 223.35 230.96 225.71 227.66 226.97 223.94 C 224.66 225.08 223.93 227.90 222.79 230.03 C 221.32 231.14 219.83 232.26 218.09 232.91 C 218.25 232.40 218.58 231.37 218.75 230.86 C 218.10 230.39 217.46 229.93 216.81 229.47 C 216.23 230.65 215.38 231.54 214.26 232.13 C 216.57 228.28 218.24 223.96 221.12 220.49 L 222.93 219.99 C 220.69 223.04 220.45 227.79 216.67 229.42 C 217.55 229.42 219.32 229.41 220.20 229.41 C 220.36 228.30 220.54 227.21 220.74 226.11 C 221.94 223.87 222.73 221.39 224.50 219.50 C 224.47 219.02 224.40 218.06 224.37 217.58 Z" />
</g>
</svg>
