<?xml version="1.0" encoding="UTF-8" ?>
<!DOCTYPE svg PUBLIC "-//W3C//DTD SVG 1.1//EN" "http://www.w3.org/Graphics/SVG/1.1/DTD/svg11.dtd">
<svg width="512pt" height="256pt" viewBox="0 0 512 256" version="1.1" xmlns="http://www.w3.org/2000/svg">
<g id="#ffffffff">
<path fill="#ffffff" opacity="1.00" d=" M 320.49 26.41 C 322.06 26.05 323.87 25.74 325.33 26.68 C 324.51 26.66 322.86 26.63 322.04 26.61 C 318.54 29.33 313.82 30.67 311.14 34.24 C 308.31 36.22 305.11 38.46 304.12 41.89 C 304.90 43.02 305.77 44.07 306.58 45.17 C 305.87 45.63 304.45 46.53 303.74 46.98 C 302.84 45.84 301.94 44.70 301.06 43.55 C 300.45 44.19 299.23 45.46 298.61 46.09 C 299.22 46.99 299.83 47.88 300.46 48.77 L 301.53 48.27 C 301.61 48.64 301.75 49.38 301.83 49.75 C 303.67 48.22 305.31 46.18 307.88 45.99 C 307.42 46.75 306.50 48.27 306.05 49.03 C 306.74 48.85 308.13 48.50 308.82 48.32 C 307.91 49.47 307.23 50.76 306.79 52.18 C 307.20 52.57 308.02 53.35 308.43 53.74 C 307.82 54.82 307.21 55.90 306.60 56.98 C 305.41 55.49 304.75 53.40 302.95 52.54 C 300.53 51.45 298.59 49.61 296.71 47.79 C 297.88 44.20 301.55 42.70 303.82 39.97 C 305.48 38.16 306.74 36.05 308.28 34.15 C 311.65 30.58 316.45 29.04 320.49 26.41 Z" />
<path fill="#ffffff" opacity="1.00" d=" M 327.89 26.84 C 330.76 28.20 333.26 30.94 333.83 34.11 C 336.82 37.39 335.17 42.01 333.42 45.48 C 330.86 49.96 328.92 54.75 326.36 59.22 C 326.11 62.81 326.52 66.46 325.63 69.98 C 324.63 72.68 322.82 75.04 320.49 76.72 C 320.68 76.30 321.05 75.45 321.23 75.03 C 320.25 72.88 319.41 70.67 318.70 68.42 C 317.76 66.76 316.69 65.14 316.17 63.28 C 317.20 64.07 318.15 64.95 319.10 65.84 C 319.93 68.28 321.33 70.46 322.66 72.65 C 322.95 72.24 323.53 71.43 323.81 71.03 C 323.04 70.43 322.28 69.84 321.52 69.25 C 321.44 67.70 321.38 66.16 321.35 64.61 C 322.22 66.40 323.03 68.23 324.24 69.82 C 326.18 65.70 325.07 61.22 325.69 56.89 C 324.96 54.98 324.33 53.03 323.99 51.01 C 322.84 52.45 322.66 54.23 323.47 56.35 C 322.29 54.48 321.64 52.22 319.74 50.92 L 319.70 49.41 C 319.17 49.73 318.11 50.37 317.58 50.69 L 317.95 49.37 C 316.64 49.75 315.57 49.37 314.76 48.23 C 314.35 48.28 313.52 48.37 313.11 48.42 C 312.61 47.65 312.11 46.88 311.61 46.12 C 312.49 46.87 313.38 46.93 314.28 46.32 C 315.71 45.52 317.25 45.71 318.77 46.15 C 320.22 47.15 322.08 49.79 323.58 47.51 C 325.43 48.92 328.15 49.37 329.09 51.78 C 331.42 46.78 335.04 41.91 334.22 36.06 C 333.46 35.22 333.35 33.59 332.23 33.19 C 332.08 33.79 331.78 34.99 331.63 35.59 C 330.19 34.12 328.77 32.64 327.16 31.35 C 327.49 32.15 328.14 33.74 328.47 34.53 C 325.82 33.67 322.27 33.86 320.70 31.11 C 322.34 31.30 323.93 31.74 325.56 32.06 C 324.70 30.85 323.87 29.62 323.06 28.38 C 325.16 29.85 329.04 29.69 329.87 32.39 C 330.55 31.97 331.23 31.56 331.92 31.15 C 330.41 29.87 328.96 28.50 327.89 26.84 M 326.23 53.38 C 325.47 54.64 325.75 55.42 327.06 55.72 C 327.81 54.48 327.54 53.71 326.23 53.38 Z" />
<path fill="#ffffff" opacity="1.00" d=" M 196.47 36.30 C 200.37 34.32 205.03 33.57 209.33 34.49 C 209.19 34.77 208.91 35.34 208.77 35.62 C 205.04 33.44 200.95 35.85 197.51 37.48 C 193.15 39.52 191.39 44.72 191.49 49.23 C 191.56 51.38 190.88 53.47 189.36 55.03 C 190.15 57.19 190.76 59.40 191.42 61.60 C 191.39 64.86 191.50 68.12 191.32 71.38 C 190.00 68.17 190.36 64.48 190.19 61.06 L 189.40 60.92 C 187.71 55.73 190.36 50.79 191.11 45.70 C 191.61 42.06 193.52 38.52 196.47 36.30 Z" />
<path fill="#ffffff" opacity="1.00" d=" M 316.76 35.52 C 318.53 35.72 320.28 36.06 321.87 36.92 C 319.51 32.93 326.64 35.00 327.14 37.31 C 327.67 36.74 328.21 36.17 328.75 35.60 C 329.47 36.90 330.13 38.24 330.68 39.63 C 330.99 39.77 331.59 40.05 331.90 40.20 C 330.81 40.34 329.74 40.49 328.66 40.64 C 328.71 37.60 324.17 38.35 322.26 37.10 L 322.64 38.91 C 320.37 38.36 317.78 37.93 316.76 35.52 Z" />
<path fill="#ffffff" opacity="1.00" d=" M 248.31 37.82 C 252.05 37.12 255.49 38.77 258.56 40.73 C 258.92 40.28 259.65 39.38 260.01 38.93 C 259.17 38.65 257.50 38.09 256.66 37.82 C 259.32 36.98 261.96 38.63 264.65 38.72 C 264.83 39.31 265.20 40.50 265.39 41.09 C 265.57 40.50 265.92 39.32 266.10 38.73 C 267.63 39.44 267.46 41.17 267.78 42.54 C 265.96 42.50 263.72 41.94 263.59 44.62 C 263.03 43.82 262.48 43.02 261.95 42.21 C 261.09 44.07 258.77 43.81 257.21 44.68 C 259.77 44.63 261.14 52.00 263.12 47.05 C 263.25 47.88 263.29 48.73 263.32 49.57 C 264.18 50.66 264.99 51.79 265.74 52.96 C 263.86 53.98 261.97 55.59 262.56 57.99 C 262.00 57.89 260.89 57.67 260.34 57.57 C 258.72 61.02 257.02 64.67 253.64 66.74 C 253.75 65.28 253.91 63.82 254.06 62.37 C 257.42 64.18 256.17 59.85 256.42 57.89 C 256.89 58.70 257.81 60.32 258.28 61.13 C 258.23 58.59 257.48 55.92 258.70 53.53 C 256.18 55.63 256.14 49.11 254.06 52.39 C 253.71 51.62 253.02 50.09 252.67 49.32 C 252.52 50.19 252.22 51.94 252.07 52.82 L 250.42 50.33 L 250.43 52.56 L 249.27 52.43 L 249.88 53.98 C 247.82 52.76 246.01 51.21 244.96 49.03 C 243.93 46.97 241.20 47.97 239.41 47.35 L 239.39 47.83 C 239.10 47.14 238.53 45.75 238.24 45.05 L 240.30 45.45 L 240.53 44.33 C 238.80 44.33 237.03 44.28 235.42 43.56 C 235.46 43.80 235.54 44.27 235.58 44.51 C 233.84 44.56 232.43 45.55 231.05 46.47 C 230.53 46.08 229.50 45.31 228.99 44.93 C 229.13 45.72 229.42 47.30 229.56 48.10 C 227.79 46.40 225.82 44.88 224.40 42.85 C 225.91 43.06 227.21 43.71 228.31 44.80 C 233.47 41.81 239.20 39.71 245.12 38.94 C 246.23 38.72 247.26 38.25 248.31 37.82 M 248.78 39.20 C 250.22 40.76 251.91 43.72 254.45 42.21 C 254.39 43.49 254.33 44.76 254.27 46.03 C 253.60 45.91 252.26 45.67 251.59 45.54 C 252.87 47.45 254.25 49.28 255.57 51.17 L 256.58 50.40 C 256.87 50.99 257.46 52.18 257.76 52.78 C 258.31 50.98 259.47 50.02 261.24 49.90 C 258.97 48.26 256.61 46.57 255.94 43.70 C 256.43 43.34 257.40 42.62 257.89 42.26 C 255.48 39.33 251.59 41.38 248.78 39.20 Z" />
<path fill="#ffffff" opacity="1.00" d=" M 269.94 38.85 C 271.84 40.14 272.17 42.62 273.89 44.09 C 273.56 42.99 272.91 40.78 272.58 39.67 C 273.81 41.02 274.92 42.48 276.15 43.84 C 275.90 42.91 275.41 41.05 275.17 40.12 C 277.54 40.30 279.91 40.87 281.98 42.12 C 284.37 42.55 286.69 43.37 288.20 45.39 C 289.07 45.14 289.95 44.89 290.83 44.66 C 291.07 46.63 291.38 48.61 291.29 50.61 C 293.09 49.89 293.61 52.09 294.82 52.83 C 296.90 54.42 299.22 55.74 300.90 57.80 C 299.08 57.42 297.30 56.42 296.64 54.58 C 295.59 54.56 294.54 54.54 293.49 54.52 C 293.20 53.89 292.63 52.64 292.34 52.01 L 292.00 54.08 C 288.15 53.63 285.73 50.49 282.82 48.30 C 282.67 48.64 282.36 49.31 282.21 49.65 C 281.42 48.92 280.79 48.06 280.32 47.09 C 280.87 48.80 280.46 50.01 279.10 50.72 C 277.76 49.61 277.10 47.63 275.38 47.05 C 274.96 47.56 274.13 48.57 273.71 49.08 C 274.16 50.15 274.62 51.23 275.08 52.30 C 274.38 52.79 272.98 53.76 272.28 54.25 C 272.51 54.62 272.97 55.36 273.20 55.73 C 273.70 55.05 274.71 53.68 275.21 53.00 C 274.90 54.28 274.28 56.82 273.97 58.10 C 274.65 57.38 276.01 55.93 276.68 55.20 C 276.09 57.83 277.68 61.26 274.51 62.67 C 273.84 60.43 271.97 59.11 269.86 58.33 C 269.19 59.26 268.55 60.21 267.92 61.15 C 267.29 59.69 266.66 58.23 266.07 56.75 C 266.76 57.00 268.15 57.50 268.84 57.74 L 268.04 55.44 L 269.19 54.82 L 269.55 54.02 C 268.79 52.63 266.63 52.61 266.22 50.76 C 265.79 49.05 263.48 46.86 264.67 45.27 C 265.17 45.66 266.17 46.45 266.67 46.84 L 265.93 42.97 C 266.71 43.94 268.27 45.87 269.05 46.84 C 269.50 47.13 270.42 47.69 270.87 47.97 L 270.52 49.78 C 272.26 49.50 273.39 48.51 273.90 46.81 C 273.46 46.39 272.60 45.54 272.16 45.12 C 271.44 43.02 270.43 41.02 269.94 38.85 M 283.00 47.33 C 283.44 47.05 284.32 46.49 284.76 46.21 C 284.35 47.99 286.34 48.69 287.28 49.84 C 288.89 48.80 290.09 49.81 291.18 51.01 C 290.71 50.07 290.25 49.13 289.79 48.19 L 287.95 49.22 L 288.77 47.05 L 287.47 47.97 C 287.55 46.04 286.05 44.91 284.75 43.78 C 283.86 43.51 282.06 42.98 281.16 42.71 C 281.85 44.13 281.09 46.69 283.00 47.33 Z" />
<path fill="#ffffff" opacity="1.00" d=" M 198.92 42.85 C 201.18 41.88 203.51 41.08 205.75 40.04 C 205.41 41.37 205.19 42.72 205.12 44.09 C 205.56 43.40 206.45 42.02 206.89 41.33 C 207.56 41.44 208.89 41.66 209.56 41.77 C 207.89 45.26 203.84 45.48 201.58 48.31 L 200.60 47.37 C 200.96 48.26 201.32 49.16 201.67 50.05 C 202.74 48.44 204.04 47.08 205.58 45.96 L 203.70 49.60 C 206.59 47.95 209.03 45.67 211.56 43.54 C 212.62 43.28 213.21 44.27 213.58 45.09 C 211.84 46.33 210.30 47.78 208.84 49.32 C 207.65 52.11 205.42 54.34 202.87 55.91 C 203.73 52.66 207.34 51.17 208.28 47.99 C 206.79 48.56 205.33 49.15 203.87 49.78 C 200.76 52.01 199.27 55.88 196.15 57.94 C 197.64 55.54 198.71 52.56 201.18 51.03 C 200.87 50.41 200.56 49.78 200.25 49.16 C 198.58 50.75 196.85 52.29 195.01 53.68 C 195.76 50.38 199.45 48.92 200.24 45.64 C 197.75 46.77 196.64 49.83 193.82 50.35 C 194.90 48.46 196.48 46.95 198.07 45.48 L 194.63 46.56 C 195.35 45.78 196.14 45.07 197.01 44.44 C 196.64 43.84 196.27 43.24 195.91 42.64 C 196.92 42.13 199.17 40.39 198.92 42.85 Z" />
<path fill="#ffffff" opacity="1.00" d=" M 313.79 42.60 C 315.53 41.12 318.32 39.39 320.06 41.97 C 321.10 41.60 322.19 41.61 323.29 41.59 C 323.77 42.90 324.23 44.20 324.67 45.53 C 323.54 44.71 322.90 42.92 321.23 43.30 L 322.73 45.98 C 322.02 45.50 320.60 44.53 319.89 44.05 L 318.70 42.25 C 318.76 42.87 318.89 44.11 318.96 44.72 C 316.51 43.15 313.60 45.60 311.45 43.47 C 310.70 41.67 312.75 42.60 313.79 42.60 Z" />
<path fill="#ffffff" opacity="1.00" d=" M 210.06 52.03 C 212.83 49.78 214.91 46.76 218.12 45.04 C 217.81 45.76 217.19 47.20 216.88 47.92 C 218.63 46.95 220.46 46.12 222.33 45.41 C 220.91 47.24 218.93 48.47 217.01 49.71 C 216.38 51.13 215.10 52.07 214.12 53.21 C 216.35 52.62 218.51 51.82 220.75 51.23 C 218.69 54.68 214.32 54.32 210.95 55.21 C 211.49 54.62 212.57 53.42 213.12 52.82 C 210.54 53.82 208.26 55.41 205.78 56.61 C 206.69 54.66 208.58 53.50 210.06 52.03 Z" />
<path fill="#ffffff" opacity="1.00" d=" M 231.35 48.69 C 232.04 45.69 237.15 44.56 239.07 47.34 C 236.80 48.29 234.43 48.39 231.96 47.62 C 233.87 50.40 237.75 50.12 239.72 52.76 C 239.94 52.41 240.38 51.70 240.60 51.34 C 241.25 52.41 241.86 53.60 243.21 53.88 C 243.90 54.49 244.58 55.12 245.25 55.76 C 241.87 55.43 238.28 54.40 236.53 51.22 C 234.46 52.94 233.07 49.54 231.35 48.69 Z" />
<path fill="#ffffff" opacity="1.00" d=" M 293.25 47.83 C 294.21 45.64 297.56 48.41 296.39 50.10 C 295.08 50.36 293.52 49.09 293.25 47.83 Z" />
<path fill="#ffffff" opacity="1.00" d=" M 220.78 49.86 C 224.23 49.70 219.23 52.95 220.78 49.86 Z" />
<path fill="#ffffff" opacity="1.00" d=" M 217.36 55.62 C 219.27 54.76 221.14 53.79 223.14 53.12 C 222.46 54.69 220.64 54.70 219.27 55.21 L 219.70 56.70 C 219.26 56.58 218.38 56.34 217.94 56.21 L 217.42 56.86 C 217.99 56.82 219.13 56.74 219.70 56.70 C 220.55 56.60 222.26 56.38 223.12 56.27 C 219.54 57.27 216.08 60.39 212.30 59.42 C 214.00 58.66 215.76 58.02 217.41 57.15 C 212.69 57.14 209.34 61.01 206.35 64.16 C 206.44 62.70 206.53 61.25 206.60 59.79 C 210.13 58.35 213.52 55.64 217.56 56.36 L 217.36 55.62 Z" />
<path fill="#ffffff" opacity="1.00" d=" M 285.10 52.08 C 286.90 53.93 288.62 56.03 289.42 58.53 C 289.60 59.51 288.78 60.26 288.02 60.71 C 285.78 59.39 283.68 57.67 282.75 55.13 C 283.50 55.26 285.00 55.52 285.75 55.64 C 285.59 54.75 285.26 52.97 285.10 52.08 Z" />
<path fill="#ffffff" opacity="1.00" d=" M 294.90 57.62 C 294.90 57.25 294.89 56.50 294.89 56.13 C 295.20 56.54 295.82 57.37 296.13 57.79 C 297.72 59.64 299.83 61.28 299.97 63.93 C 298.86 63.41 297.76 62.86 296.67 62.32 C 295.76 60.99 294.54 59.76 294.51 58.04 L 292.61 58.55 C 293.18 58.32 294.33 57.85 294.90 57.62 Z" />
<path fill="#ffffff" opacity="1.00" d=" M 303.75 58.02 C 308.22 61.09 312.04 65.04 315.53 69.16 C 314.94 69.17 313.74 69.18 313.15 69.19 L 313.09 69.61 C 317.17 68.30 318.67 74.62 317.12 77.40 C 318.48 77.39 319.65 77.90 320.61 78.95 C 320.11 79.72 319.12 81.27 318.62 82.04 C 319.11 82.54 319.62 83.03 320.13 83.52 L 320.42 81.44 C 322.45 83.65 320.90 86.95 318.37 87.92 C 318.70 86.82 319.34 84.61 319.66 83.51 C 318.62 83.64 317.58 83.78 316.55 83.90 C 316.93 82.69 317.32 81.48 317.70 80.27 C 317.53 80.32 317.19 80.43 317.02 80.49 C 316.30 81.80 315.52 83.08 314.67 84.31 C 313.52 81.72 314.81 79.34 316.08 77.12 C 315.11 77.41 314.15 77.70 313.19 77.97 C 313.70 77.39 314.71 76.22 315.21 75.64 C 312.61 75.27 308.51 73.62 310.70 69.91 C 310.01 71.03 308.61 73.27 307.91 74.40 C 308.30 72.31 308.98 70.29 309.41 68.22 C 308.86 68.66 307.76 69.55 307.21 70.00 C 307.59 68.71 307.94 67.41 308.30 66.11 C 307.81 65.86 306.84 65.35 306.36 65.09 C 306.64 62.37 305.17 60.17 303.75 58.02 Z" />
<path fill="#ffffff" opacity="1.00" d=" M 198.11 66.53 C 199.63 63.18 203.11 61.44 206.21 59.86 C 205.24 61.53 203.85 62.66 202.03 63.24 C 201.74 65.98 205.45 63.79 206.83 64.29 C 204.46 66.67 203.79 70.40 200.85 72.22 C 201.25 71.30 202.06 69.46 202.46 68.53 C 201.27 68.57 200.08 68.60 198.89 68.65 C 200.03 67.60 201.15 66.53 202.25 65.44 C 200.71 64.86 199.38 65.79 198.11 66.53 M 203.39 67.42 C 203.43 66.95 203.49 66.02 203.53 65.56 C 201.58 65.16 201.42 69.05 203.39 67.42 Z" />
<path fill="#ffffff" opacity="1.00" d=" M 185.86 62.75 C 186.91 61.58 188.41 62.76 189.63 62.83 C 188.95 64.27 188.41 65.76 188.00 67.30 C 187.39 66.94 186.78 66.59 186.17 66.25 L 187.46 63.86 C 185.97 64.97 185.38 66.81 184.33 68.28 C 185.45 67.89 186.57 67.51 187.69 67.15 C 186.67 68.76 185.60 70.32 184.46 71.85 C 184.70 71.02 185.18 69.37 185.42 68.55 L 184.27 68.29 L 184.24 70.28 L 182.73 70.21 C 183.35 68.60 183.99 67.00 184.40 65.32 C 182.91 66.56 181.89 68.54 179.80 68.85 L 181.46 68.81 C 181.47 69.57 181.50 71.08 181.52 71.84 L 180.21 71.60 C 180.60 72.32 181.38 73.76 181.77 74.48 L 179.58 74.50 L 178.22 73.44 C 178.27 74.28 178.38 75.95 178.43 76.79 C 177.92 76.68 176.89 76.45 176.38 76.33 C 176.48 73.80 177.25 71.34 178.85 69.35 L 177.13 69.88 C 177.39 69.19 177.91 67.81 178.18 67.12 L 178.45 67.89 C 180.93 66.20 183.46 64.57 185.86 62.75 Z" />
<path fill="#ffffff" opacity="1.00" d=" M 265.75 61.33 C 267.16 62.37 268.93 62.52 270.58 62.92 C 269.70 65.50 268.01 68.47 264.77 67.35 C 263.37 68.85 261.99 70.42 260.12 71.34 C 260.48 67.16 264.28 64.90 265.75 61.33 Z" />
<path fill="#ffffff" opacity="1.00" d=" M 246.10 64.38 C 246.48 64.01 246.86 63.64 247.24 63.27 C 247.61 63.76 248.35 64.75 248.72 65.24 C 248.93 66.37 249.19 67.51 249.55 68.61 C 251.76 67.12 252.99 70.32 254.72 71.10 C 254.24 73.99 251.55 74.54 249.10 74.71 C 249.30 73.88 249.70 72.22 249.90 71.40 L 248.14 71.68 C 248.34 70.86 248.74 69.24 248.94 68.43 C 248.34 68.57 247.13 68.84 246.53 68.98 C 246.81 67.97 247.39 65.95 247.67 64.94 L 246.10 64.38 Z" />
<path fill="#ffffff" opacity="1.00" d=" M 293.88 66.17 C 294.90 65.30 294.70 63.77 295.19 62.62 C 294.84 65.97 299.81 65.15 298.82 68.66 C 299.17 68.61 299.87 68.50 300.21 68.45 C 300.84 70.53 301.17 72.66 301.28 74.83 C 302.72 74.70 302.97 72.84 303.88 71.97 C 303.35 73.69 302.76 75.39 302.17 77.09 C 301.00 76.17 300.13 74.93 299.16 73.83 C 298.76 74.55 297.97 75.99 297.57 76.72 C 296.40 76.46 295.23 76.44 294.07 76.66 C 294.17 75.52 294.27 74.38 294.37 73.24 C 294.67 73.25 295.27 73.27 295.57 73.28 C 295.47 74.08 295.26 75.67 295.16 76.47 C 297.67 75.74 296.97 72.89 297.55 70.98 C 295.26 71.02 296.13 67.83 294.05 67.84 C 293.32 69.44 293.49 71.30 292.67 72.87 C 292.18 72.50 291.20 71.75 290.72 71.37 C 290.61 70.12 290.39 68.88 290.08 67.66 C 290.44 67.65 291.15 67.63 291.50 67.62 C 291.62 67.01 291.86 65.81 291.99 65.20 C 292.26 65.48 292.82 66.03 293.10 66.31 L 293.88 66.17 Z" />
<path fill="#ffffff" opacity="1.00" d=" M 209.07 66.72 C 212.89 64.53 217.40 64.73 221.62 64.13 C 220.11 67.73 216.07 66.48 213.10 66.16 L 213.11 66.65 C 214.12 66.80 216.12 67.10 217.13 67.25 C 215.18 68.43 212.97 69.00 210.77 69.50 C 211.55 68.56 212.35 67.64 213.17 66.74 C 212.15 66.73 210.10 66.72 209.07 66.72 Z" />
<path fill="#ffffff" opacity="1.00" d=" M 276.32 64.00 C 277.60 65.28 278.58 66.82 279.61 68.30 C 278.13 68.98 276.71 70.48 274.92 69.44 C 275.09 73.37 278.65 72.12 281.19 72.57 C 282.13 71.63 283.08 70.70 284.07 69.81 C 284.36 71.23 283.89 72.53 283.29 73.78 C 283.67 73.70 284.42 73.54 284.80 73.46 C 284.99 74.75 285.25 76.02 285.60 77.28 C 287.05 79.31 286.38 81.62 286.08 83.88 C 288.10 82.47 288.41 78.65 291.58 79.60 C 290.82 80.64 290.05 81.67 289.27 82.69 C 289.87 82.53 291.08 82.20 291.68 82.03 C 290.66 86.57 288.80 91.04 289.62 95.79 L 287.35 95.86 C 287.73 92.08 287.92 88.20 290.16 84.97 C 289.36 85.63 287.77 86.96 286.98 87.62 C 287.10 86.79 287.35 85.14 287.48 84.31 C 286.01 85.77 284.53 87.22 283.02 88.65 C 282.98 87.14 283.82 85.95 284.54 84.76 C 282.99 84.32 283.17 82.78 283.24 81.51 L 284.92 81.50 C 283.32 80.19 283.45 78.02 284.44 76.33 C 283.74 76.53 282.34 76.91 281.64 77.11 C 281.98 76.29 282.65 74.65 282.99 73.83 C 280.22 75.11 277.97 77.14 275.91 79.34 C 275.70 77.48 274.60 75.03 277.09 74.19 C 274.74 75.13 272.29 74.66 270.59 72.77 C 270.59 71.33 270.25 70.00 269.56 68.77 C 270.31 67.70 271.09 66.66 271.87 65.62 C 272.78 66.54 274.59 68.38 275.49 69.31 C 275.03 68.22 274.12 66.05 273.66 64.96 L 275.24 65.64 C 275.51 65.23 276.05 64.41 276.32 64.00 Z" />
<path fill="#ffffff" opacity="1.00" d=" M 176.64 68.40 C 176.09 70.41 175.51 72.41 175.17 74.47 C 174.95 74.58 174.51 74.81 174.29 74.92 C 174.51 73.91 174.95 71.88 175.17 70.87 C 172.48 72.51 169.81 74.21 167.43 76.30 C 164.51 78.65 162.70 82.10 159.68 84.35 C 160.26 82.08 161.94 80.41 163.56 78.83 C 163.01 78.45 162.47 78.07 161.93 77.70 C 159.94 80.99 158.32 84.68 155.50 87.35 C 155.03 87.40 154.10 87.49 153.63 87.54 C 152.17 90.06 150.00 92.04 148.00 94.11 C 148.01 92.20 151.38 91.06 149.94 89.09 C 148.39 89.11 147.90 91.40 146.35 91.78 L 146.56 92.21 C 146.13 92.86 145.27 94.16 144.84 94.80 C 144.49 94.17 144.13 93.54 143.79 92.90 C 146.52 90.40 147.03 85.38 151.48 84.57 C 151.17 85.39 150.54 87.03 150.23 87.85 L 150.75 87.98 C 152.16 86.45 152.87 84.39 153.98 82.65 C 152.29 85.23 149.66 85.12 148.00 83.07 C 150.71 82.56 153.56 82.35 156.04 81.04 L 156.10 83.00 C 157.61 80.43 159.86 78.51 162.35 76.94 L 163.85 79.01 L 163.82 75.12 C 163.89 75.79 164.04 77.13 164.11 77.80 C 167.57 73.72 173.09 72.29 176.64 68.40 Z" />
<path fill="#ffffff" opacity="1.00" d=" M 217.80 70.73 C 217.47 73.38 217.49 76.75 215.00 78.40 C 215.62 75.74 216.72 73.23 217.80 70.73 Z" />
<path fill="#ffffff" opacity="1.00" d=" M 207.73 74.71 C 209.68 72.43 213.34 73.39 215.70 71.53 C 214.35 76.10 213.16 80.75 211.04 85.04 C 210.23 86.48 209.84 88.43 208.14 89.11 C 209.11 86.97 210.67 85.06 210.87 82.62 C 210.37 82.82 209.35 83.20 208.84 83.39 C 208.36 83.90 207.39 84.91 206.91 85.42 L 208.85 81.80 L 205.64 83.78 C 206.52 82.44 207.59 81.23 208.68 80.05 C 209.07 80.59 209.46 81.13 209.86 81.67 C 211.42 79.14 212.86 76.53 213.92 73.74 C 212.37 74.83 210.92 76.04 209.33 77.05 C 209.83 76.38 210.82 75.03 211.32 74.35 C 210.42 74.44 208.63 74.62 207.73 74.71 Z" />
<path fill="#ffffff" opacity="1.00" d=" M 257.32 72.06 C 258.06 73.57 258.70 75.41 260.47 75.96 C 260.46 76.21 260.45 76.69 260.44 76.94 C 263.57 77.11 262.01 80.81 262.38 82.76 C 261.38 81.99 260.40 81.20 259.39 80.46 C 259.48 79.46 259.66 77.45 259.75 76.44 C 259.04 76.90 257.63 77.82 256.92 78.27 C 257.05 76.20 257.26 74.14 257.32 72.06 Z" />
<path fill="#ffffff" opacity="1.00" d=" M 287.27 72.33 C 287.65 72.47 288.41 72.75 288.79 72.89 C 289.08 74.41 289.65 75.85 290.36 77.22 C 289.63 78.39 288.71 79.37 287.60 80.16 C 288.41 77.46 286.61 75.01 287.27 72.33 Z" />
<path fill="#ffffff" opacity="1.00" d=" M 218.33 79.19 C 220.09 77.20 221.66 75.04 223.50 73.12 C 223.46 74.99 222.92 76.77 222.22 78.49 C 221.25 78.67 219.30 79.02 218.33 79.19 Z" />
<path fill="#ffffff" opacity="1.00" d=" M 304.37 74.84 C 304.98 75.55 304.98 75.55 304.37 74.84 Z" />
<path fill="#ffffff" opacity="1.00" d=" M 233.52 81.25 C 233.15 78.87 233.32 76.54 236.39 76.71 C 237.36 78.80 234.47 79.79 233.52 81.25 Z" />
<path fill="#ffffff" opacity="1.00" d=" M 246.03 77.23 C 247.16 76.72 248.70 78.52 247.89 79.52 C 246.73 79.99 245.18 78.27 246.03 77.23 Z" />
<path fill="#ffffff" opacity="1.00" d=" M 268.25 77.39 C 269.27 77.84 270.27 78.33 271.25 78.87 C 271.31 78.33 271.44 77.24 271.50 76.69 C 272.59 78.17 273.65 79.67 274.60 81.24 L 271.97 81.32 C 273.74 83.08 275.31 85.42 277.89 86.01 C 277.51 86.08 276.76 86.20 276.39 86.26 C 276.93 89.97 273.17 86.24 272.64 85.14 C 271.37 84.92 270.09 84.74 268.81 84.57 C 267.81 83.26 266.79 81.97 265.77 80.68 C 267.71 81.20 269.38 80.18 270.91 79.18 C 270.25 78.73 268.92 77.84 268.25 77.39 Z" />
<path fill="#ffffff" opacity="1.00" d=" M 305.31 77.07 C 308.10 75.44 305.51 80.57 305.31 77.07 Z" />
<path fill="#ffffff" opacity="1.00" d=" M 307.73 76.56 C 309.83 76.67 310.83 78.58 310.99 80.44 C 311.39 80.34 312.17 80.14 312.56 80.04 C 312.38 82.96 313.28 86.37 310.43 88.36 C 310.60 85.91 310.09 83.46 310.78 81.09 C 310.32 81.41 309.40 82.04 308.94 82.36 C 308.29 80.48 307.76 78.56 307.73 76.56 Z" />
<path fill="#ffffff" opacity="1.00" d=" M 193.90 78.97 C 196.43 83.09 197.79 87.89 201.29 91.40 C 200.61 91.87 199.93 92.34 199.25 92.82 C 200.89 93.59 200.98 94.57 199.51 95.77 C 200.55 96.64 201.57 97.55 202.61 98.42 C 200.82 99.19 201.65 101.21 201.03 102.61 L 200.51 99.10 L 198.00 99.58 C 199.01 102.18 199.58 104.90 200.35 107.57 C 201.58 109.78 203.34 111.74 203.61 114.37 C 205.41 115.84 207.73 117.45 207.73 120.03 C 205.68 118.03 201.53 115.92 202.92 112.44 C 202.16 112.58 200.64 112.86 199.88 113.00 L 200.37 112.36 L 200.90 111.82 C 202.69 109.86 198.57 110.14 199.00 108.05 C 197.03 98.41 194.15 88.86 193.90 78.97 M 197.79 91.12 L 198.11 91.69 C 198.80 92.01 199.26 91.79 199.47 91.02 C 198.58 89.70 197.98 88.02 196.71 87.04 C 195.22 88.00 197.44 89.96 197.79 91.12 M 199.44 98.44 C 199.80 98.80 199.80 98.80 199.44 98.44 Z" />
<path fill="#ffffff" opacity="1.00" d=" M 277.96 82.64 C 279.10 81.16 279.55 77.44 282.13 79.00 C 282.27 79.72 282.53 81.15 282.67 81.87 L 280.67 81.41 C 281.42 82.52 282.17 83.63 282.87 84.78 C 281.08 84.42 279.44 83.70 277.96 82.64 Z" />
<path fill="#ffffff" opacity="1.00" d=" M 243.92 81.06 C 245.17 80.50 247.32 82.29 246.64 83.64 C 245.26 84.56 243.26 82.45 243.92 81.06 Z" />
<path fill="#ffffff" opacity="1.00" d=" M 300.29 83.32 C 300.43 81.89 301.11 80.78 302.34 79.99 C 302.30 80.84 302.24 82.53 302.20 83.38 C 302.54 82.99 303.22 82.21 303.56 81.82 C 304.64 84.09 304.50 86.47 303.55 88.75 C 303.28 88.96 302.76 89.38 302.50 89.58 C 302.30 89.22 301.89 88.51 301.68 88.15 L 300.05 88.61 C 299.79 88.42 299.27 88.05 299.01 87.87 C 298.71 86.32 299.26 84.81 299.48 83.29 L 300.29 83.32 Z" />
<path fill="#ffffff" opacity="1.00" d=" M 231.52 84.54 C 230.68 82.64 231.41 81.69 233.72 81.71 C 233.26 82.24 232.34 83.30 231.88 83.83 C 232.53 83.73 233.82 83.54 234.47 83.45 C 234.23 84.11 233.76 85.43 233.52 86.10 C 234.09 86.86 234.66 87.62 235.22 88.39 C 234.15 88.28 233.08 88.18 232.01 88.11 C 231.16 90.00 229.38 91.10 227.88 92.41 L 229.72 92.59 C 230.34 91.77 231.59 90.15 232.22 89.33 C 232.64 89.96 233.07 90.59 233.49 91.22 C 232.36 92.66 231.11 94.00 229.24 94.35 C 229.08 94.70 228.77 95.40 228.61 95.75 C 227.68 94.87 226.77 93.99 225.84 93.12 C 225.08 92.15 224.32 91.19 223.56 90.23 C 225.16 89.85 226.78 89.61 228.42 89.45 C 229.00 87.56 230.35 86.08 231.52 84.54 M 226.35 91.35 C 226.66 91.66 226.66 91.66 226.35 91.35 Z" />
<path fill="#ffffff" opacity="1.00" d=" M 263.85 81.35 C 265.92 81.95 267.04 83.90 268.47 85.36 C 267.99 85.75 267.04 86.53 266.56 86.92 C 267.17 87.41 268.39 88.39 269.00 88.88 C 265.98 88.42 264.57 85.12 262.66 83.07 L 264.80 83.84 L 263.85 81.35 Z" />
<path fill="#ffffff" opacity="1.00" d=" M 291.92 82.83 C 294.86 83.52 295.55 86.46 295.17 89.12 C 294.54 89.19 293.28 89.32 292.65 89.38 C 292.53 87.60 292.87 85.94 293.67 84.41 C 293.23 84.01 292.36 83.23 291.92 82.83 Z" />
<path fill="#ffffff" opacity="1.00" d=" M 129.75 87.77 C 132.54 85.87 135.81 84.84 139.02 83.88 C 141.66 83.41 146.95 81.88 146.54 86.55 L 146.63 83.04 C 147.42 83.71 148.21 84.37 149.00 85.04 C 147.73 85.99 147.01 88.47 145.00 87.74 C 144.51 87.13 144.04 86.51 143.60 85.88 L 145.95 85.12 C 143.52 83.26 143.31 86.57 142.37 87.80 C 142.76 88.49 143.52 89.85 143.91 90.54 C 142.42 89.84 140.50 90.40 140.26 92.13 C 139.03 92.94 137.92 93.91 136.82 94.89 C 139.05 91.73 140.33 88.07 142.03 84.63 C 139.56 86.34 139.34 89.86 136.75 91.47 C 136.93 90.77 137.28 89.37 137.45 88.67 C 138.25 87.34 139.05 86.01 139.84 84.67 C 138.68 85.25 137.46 85.67 136.19 85.93 C 134.03 86.52 131.97 87.42 129.75 87.77 Z" />
<path fill="#ffffff" opacity="1.00" d=" M 239.55 86.08 C 241.31 85.26 243.09 81.31 244.75 85.13 C 244.00 85.57 243.23 85.99 242.46 86.39 C 243.19 87.39 243.95 88.38 244.54 89.48 C 241.66 90.86 240.92 87.61 239.55 86.08 Z" />
<path fill="#ffffff" opacity="1.00" d=" M 253.31 85.36 C 254.86 85.60 256.10 86.42 257.03 87.83 L 256.13 84.86 C 257.55 86.07 258.98 87.29 260.34 88.57 C 259.62 88.57 258.16 88.57 257.43 88.57 C 257.62 89.95 257.79 91.35 257.93 92.75 C 256.40 91.76 254.92 90.71 253.44 89.67 C 253.78 89.30 254.46 88.57 254.80 88.20 C 254.43 87.49 253.69 86.07 253.31 85.36 Z" />
<path fill="#ffffff" opacity="1.00" d=" M 322.13 86.78 C 325.43 88.83 321.91 91.82 319.97 93.32 C 320.13 90.98 320.89 88.77 322.13 86.78 Z" />
<path fill="#ffffff" opacity="1.00" d=" M 141.85 91.52 C 142.29 91.45 143.18 91.29 143.62 91.22 C 141.75 94.21 141.47 98.46 138.34 100.44 C 138.81 97.22 140.53 94.43 141.85 91.52 Z" />
<path fill="#ffffff" opacity="1.00" d=" M 219.14 92.09 C 220.96 88.64 224.59 91.69 224.86 94.44 L 225.51 94.19 C 225.30 95.57 225.91 96.43 227.35 96.77 C 228.80 97.96 231.77 98.51 230.21 101.23 C 229.04 100.81 227.83 100.48 226.61 100.27 C 227.55 100.95 228.43 101.71 229.24 102.55 C 226.75 102.13 222.44 101.57 222.61 98.10 C 222.57 96.74 221.02 96.49 220.09 95.94 C 219.57 95.34 218.53 94.12 218.00 93.52 C 218.80 93.49 220.38 93.42 221.17 93.39 C 220.67 93.07 219.65 92.41 219.14 92.09 Z" />
<path fill="#ffffff" opacity="1.00" d=" M 212.58 92.26 C 213.10 92.89 214.15 94.16 214.67 94.79 L 214.36 91.64 C 216.80 92.34 215.11 95.26 214.96 97.02 C 213.33 97.31 211.75 96.63 210.15 96.48 C 210.19 96.23 210.28 95.72 210.32 95.47 L 211.44 95.89 C 211.73 94.65 212.10 93.44 212.58 92.26 Z" />
<path fill="#ffffff" opacity="1.00" d=" M 234.37 92.50 C 235.80 92.39 237.14 91.99 238.40 91.29 C 238.88 92.50 240.21 93.54 239.98 94.95 C 238.51 96.64 236.80 98.76 234.27 97.67 C 235.28 96.51 236.29 95.35 237.29 94.19 C 236.60 94.58 235.21 95.37 234.51 95.76 C 234.48 94.94 234.41 93.31 234.37 92.50 Z" />
<path fill="#ffffff" opacity="1.00" d=" M 320.48 95.18 C 321.38 93.72 322.61 92.49 323.65 91.12 C 323.91 92.14 324.42 94.19 324.68 95.21 C 323.88 96.11 322.43 96.62 322.17 97.89 C 323.25 97.99 324.32 97.87 325.38 97.52 C 325.73 96.66 326.09 95.81 326.48 94.96 C 326.43 95.69 326.32 97.14 326.26 97.86 L 327.85 97.57 C 326.82 98.52 325.76 99.45 324.72 100.39 C 324.36 100.23 323.66 99.92 323.31 99.76 C 322.31 100.00 321.31 100.22 320.32 100.45 C 320.53 98.70 320.56 96.94 320.48 95.18 Z" />
<path fill="#ffffff" opacity="1.00" d=" M 187.73 94.81 C 188.37 93.72 189.22 93.22 190.29 93.30 C 190.23 93.61 190.13 94.24 190.07 94.56 C 189.61 95.07 188.69 96.11 188.23 96.63 C 186.91 97.67 186.92 95.29 187.73 94.81 Z" />
<path fill="#ffffff" opacity="1.00" d=" M 252.39 93.91 C 253.26 89.88 256.14 93.44 257.60 94.87 C 257.31 95.21 256.74 95.89 256.45 96.24 L 255.52 96.66 L 255.17 98.13 C 253.68 96.94 253.94 95.94 255.95 95.31 C 255.06 94.96 253.28 94.26 252.39 93.91 Z" />
<path fill="#ffffff" opacity="1.00" d=" M 143.39 94.19 C 144.12 96.68 143.00 99.31 143.55 101.88 L 142.16 101.41 C 142.10 101.70 141.99 102.27 141.93 102.56 C 142.99 102.46 144.05 102.55 145.07 102.86 L 144.42 101.67 L 146.88 101.20 C 145.48 103.41 144.24 105.71 143.08 108.05 C 141.85 107.05 141.11 105.76 141.61 104.08 L 140.50 104.79 C 140.28 104.11 139.84 102.77 139.62 102.10 C 140.52 99.31 141.74 96.62 143.39 94.19 Z" />
<path fill="#ffffff" opacity="1.00" d=" M 216.72 95.39 C 217.84 95.59 218.96 95.77 220.09 95.94 C 220.50 96.46 221.32 97.51 221.73 98.03 C 221.02 97.86 219.59 97.51 218.88 97.34 C 219.87 98.70 220.68 100.15 221.32 101.71 C 220.88 102.13 220.00 102.98 219.55 103.40 C 218.11 103.38 216.67 103.37 215.24 103.37 C 216.21 102.76 218.57 102.84 218.56 101.33 C 217.52 100.24 216.30 99.36 215.18 98.37 C 215.84 97.96 217.16 97.14 217.82 96.73 C 217.55 96.40 216.99 95.73 216.72 95.39 Z" />
<path fill="#ffffff" opacity="1.00" d=" M 234.51 95.76 C 233.82 96.00 233.82 96.00 234.51 95.76 Z" />
<path fill="#ffffff" opacity="1.00" d=" M 189.13 96.58 C 191.19 95.58 191.45 100.02 189.41 99.72 C 188.17 99.27 188.04 97.28 189.13 96.58 Z" />
<path fill="#ffffff" opacity="1.00" d=" M 240.32 96.79 C 241.23 97.30 242.13 97.82 243.03 98.34 C 241.64 100.68 240.58 103.44 238.02 104.79 C 237.33 103.15 236.66 101.51 235.99 99.86 C 236.61 100.03 237.86 100.36 238.48 100.53 C 239.05 99.26 239.68 98.02 240.32 96.79 Z" />
<path fill="#ffffff" opacity="1.00" d=" M 244.08 97.38 C 244.83 97.36 246.33 97.33 247.08 97.31 L 247.52 97.95 C 246.90 98.81 245.67 100.55 245.06 101.42 C 245.71 100.90 247.00 99.87 247.65 99.35 C 249.53 99.51 251.41 99.62 253.29 99.87 C 252.46 102.28 255.71 104.28 253.43 106.29 C 253.03 105.54 252.64 104.78 252.25 104.03 C 250.43 105.32 248.57 106.56 246.84 107.98 C 247.13 107.31 247.69 105.95 247.97 105.28 C 246.96 105.37 244.94 105.56 243.92 105.65 L 244.67 103.65 C 243.57 104.57 242.51 105.52 241.49 106.52 C 241.45 105.38 241.36 103.11 241.32 101.97 C 242.26 100.90 243.32 99.89 243.86 98.53 L 244.74 98.59 L 244.08 97.38 M 251.97 101.93 C 252.63 102.62 252.63 102.62 251.97 101.93 Z" />
<path fill="#ffffff" opacity="1.00" d=" M 214.91 102.15 C 214.66 101.29 212.88 100.12 213.88 99.30 C 215.15 99.34 216.99 100.48 216.71 101.91 C 216.26 101.97 215.36 102.09 214.91 102.15 Z" />
<path fill="#ffffff" opacity="1.00" d=" M 326.55 100.96 C 327.42 100.39 328.33 99.87 329.26 99.41 C 328.87 100.15 328.09 101.65 327.69 102.39 C 330.67 102.49 330.47 106.26 331.48 108.27 C 331.08 107.79 330.29 106.83 329.89 106.35 C 328.07 108.06 330.29 110.98 327.85 112.38 C 328.06 112.59 328.49 113.03 328.70 113.25 C 327.60 113.88 326.61 114.86 325.25 114.73 C 324.98 113.31 326.41 112.63 327.19 111.71 C 327.39 110.88 327.79 109.23 328.00 108.40 C 327.69 108.25 327.08 107.97 326.78 107.82 C 327.47 106.79 328.04 105.70 328.48 104.54 C 327.83 103.35 327.19 102.15 326.55 100.96 Z" />
<path fill="#ffffff" opacity="1.00" d=" M 203.97 100.05 C 204.74 100.94 205.48 101.86 206.24 102.76 C 206.64 103.44 207.45 104.78 207.85 105.46 C 208.44 104.61 209.08 103.80 209.72 102.99 C 210.23 104.08 210.69 105.19 211.11 106.32 L 209.90 104.31 C 209.40 104.92 208.90 105.53 208.41 106.14 C 209.96 107.98 212.56 107.62 214.39 109.00 C 212.64 108.74 210.96 108.89 209.37 109.48 C 206.71 106.89 204.14 104.00 203.97 100.05 Z" />
<path fill="#ffffff" opacity="1.00" d=" M 312.38 103.43 C 313.00 102.15 313.87 101.03 314.93 100.08 C 314.32 101.45 313.67 102.81 312.99 104.15 C 313.71 104.49 314.43 104.83 315.16 105.16 C 317.30 102.80 320.60 102.74 323.51 102.35 C 323.87 102.80 324.58 103.70 324.93 104.14 C 325.01 108.69 321.91 112.83 317.58 114.15 C 317.64 112.49 316.66 111.10 315.40 110.11 C 315.99 111.21 316.58 112.30 317.18 113.40 C 312.46 113.49 312.90 108.16 314.43 105.34 C 313.98 105.50 313.09 105.82 312.64 105.98 C 312.03 107.27 310.79 107.93 309.64 108.64 C 309.16 106.70 309.68 102.99 312.38 103.43 M 311.21 105.21 C 311.90 105.75 311.90 105.75 311.21 105.21 M 317.18 105.16 C 314.31 105.58 317.00 109.09 318.54 107.37 C 320.12 106.34 319.11 103.90 317.18 105.16 Z" />
<path fill="#ffffff" opacity="1.00" d=" M 234.40 101.51 C 236.10 101.45 236.95 103.94 237.24 105.35 C 235.80 105.79 234.01 103.02 234.40 101.51 Z" />
<path fill="#ffffff" opacity="1.00" d=" M 182.66 107.32 C 183.94 105.63 184.89 103.70 186.41 102.21 C 186.42 102.92 186.46 104.35 186.47 105.06 C 187.00 104.84 188.07 104.40 188.60 104.18 C 188.45 105.03 188.17 106.73 188.03 107.58 C 189.93 107.01 191.60 108.01 192.19 109.88 C 191.48 109.38 190.04 108.38 189.33 107.88 C 190.56 109.72 189.38 112.74 187.04 112.47 L 187.45 113.53 C 186.98 113.44 186.03 113.27 185.55 113.18 L 185.28 115.07 C 184.35 114.01 183.90 112.75 183.93 111.31 C 183.34 111.93 182.75 112.55 182.16 113.16 C 182.97 115.49 184.16 118.31 181.32 119.82 C 182.30 121.67 184.93 125.08 181.48 126.11 C 182.03 127.09 182.57 128.07 183.09 129.06 C 181.47 129.00 180.15 128.23 179.16 126.97 C 179.92 126.57 181.43 125.78 182.19 125.38 C 181.28 123.60 180.30 121.85 179.56 119.99 C 183.04 118.47 177.07 111.99 182.78 112.08 L 180.52 110.60 C 181.05 110.87 182.11 111.40 182.64 111.67 C 182.58 110.21 182.64 108.77 182.66 107.32 M 185.19 105.27 C 183.46 108.03 188.62 105.67 185.19 105.27 Z" />
<path fill="#ffffff" opacity="1.00" d=" M 225.62 103.01 C 227.54 103.66 229.52 104.10 231.55 104.20 L 231.18 105.55 C 229.69 105.42 228.21 105.33 226.73 105.29 C 228.64 106.06 230.64 106.57 232.66 107.00 C 231.90 109.13 229.68 108.38 227.99 108.74 C 226.34 109.61 224.66 110.40 222.93 111.09 C 223.75 110.32 225.39 108.78 226.21 108.01 C 224.50 107.78 222.80 107.50 221.11 107.13 C 221.23 106.38 221.47 104.88 221.58 104.12 C 223.29 105.64 225.58 105.84 225.62 103.01 Z" />
<path fill="#ffffff" opacity="1.00" d=" M 203.34 103.68 C 204.39 104.21 206.00 107.86 204.48 108.43 C 203.54 107.10 202.99 105.29 203.34 103.68 Z" />
<path fill="#ffffff" opacity="1.00" d=" M 211.35 103.36 C 213.73 104.31 216.20 105.12 218.45 106.39 L 218.06 108.63 C 215.12 108.66 210.16 107.37 211.35 103.36 Z" />
<path fill="#ffffff" opacity="1.00" d=" M 237.24 105.35 C 238.71 103.86 238.43 107.12 238.39 107.94 C 240.92 110.14 244.29 110.85 247.31 112.12 C 244.77 114.38 241.49 113.64 238.50 113.21 C 238.55 114.04 238.65 115.69 238.70 116.52 C 236.74 115.61 234.84 114.62 232.94 113.60 C 233.32 112.81 233.70 112.01 234.09 111.22 L 233.08 111.02 C 233.98 109.50 234.11 106.36 236.82 108.99 C 233.82 110.10 236.44 113.06 238.79 112.33 L 236.07 111.02 C 236.79 110.53 237.52 110.05 238.26 109.57 C 236.85 108.39 235.45 107.19 234.30 105.75 C 234.97 105.94 236.32 106.31 236.99 106.50 L 237.24 105.35 Z" />
<path fill="#ffffff" opacity="1.00" d=" M 205.35 107.28 C 207.08 108.24 207.92 110.01 208.81 111.67 C 207.98 111.99 207.15 112.32 206.33 112.67 C 206.82 113.71 207.80 115.78 208.30 116.82 C 205.76 115.20 204.65 112.10 204.31 109.24 C 204.66 109.68 205.36 110.55 205.71 110.98 C 206.14 111.10 207.00 111.33 207.43 111.45 L 205.61 109.91 C 205.54 109.25 205.41 107.94 205.35 107.28 Z" />
<path fill="#ffffff" opacity="1.00" d=" M 175.05 109.41 C 178.46 109.54 173.53 112.26 175.05 109.41 Z" />
<path fill="#ffffff" opacity="1.00" d=" M 209.20 112.32 C 211.87 111.27 215.05 107.63 217.81 110.38 C 219.53 110.51 221.53 110.39 222.31 112.31 C 221.72 112.40 220.53 112.56 219.93 112.65 C 217.49 115.57 213.32 116.50 210.30 118.82 C 210.37 118.11 210.49 116.68 210.55 115.97 L 209.25 116.07 C 209.58 114.82 209.56 113.57 209.20 112.32 Z" />
<path fill="#ffffff" opacity="1.00" d=" M 252.58 110.81 C 255.64 109.06 259.09 108.13 262.61 107.96 C 262.47 109.42 262.35 110.89 262.27 112.36 C 261.01 111.93 259.99 111.12 259.05 110.21 C 259.14 112.09 259.56 115.53 262.43 114.11 C 263.33 115.12 263.46 116.51 262.54 117.56 C 263.87 117.57 265.09 118.07 266.13 118.89 C 263.90 119.44 261.63 119.83 259.34 120.01 C 259.47 119.52 259.71 118.54 259.84 118.04 L 258.51 119.90 C 258.29 119.08 257.84 117.43 257.62 116.61 C 257.64 117.47 257.67 119.19 257.68 120.05 C 253.58 118.77 252.53 114.63 252.58 110.81 Z" />
<path fill="#ffffff" opacity="1.00" d=" M 264.24 116.68 C 264.62 113.82 263.15 111.13 263.32 108.29 C 264.50 108.40 266.86 108.62 268.04 108.74 C 269.06 111.59 268.69 114.70 267.83 117.54 C 266.63 117.24 265.44 116.95 264.24 116.68 Z" />
<path fill="#ffffff" opacity="1.00" d=" M 278.42 109.28 C 278.80 109.35 279.57 109.49 279.96 109.56 C 279.57 109.84 278.79 110.40 278.41 110.68 C 279.20 113.10 278.60 115.50 276.98 117.41 C 276.57 119.81 275.48 122.08 275.59 124.55 C 275.09 125.99 273.62 126.66 272.43 127.42 C 272.47 126.50 272.54 124.66 272.57 123.75 C 270.62 125.01 269.16 126.82 267.55 128.46 C 265.89 129.33 264.07 129.79 262.32 130.40 C 262.43 129.89 262.64 128.87 262.75 128.35 C 262.25 128.39 261.26 128.48 260.76 128.52 C 260.75 127.98 260.73 126.90 260.72 126.35 C 260.24 126.30 259.27 126.19 258.79 126.14 C 259.66 123.62 262.96 124.79 264.98 124.28 C 266.26 126.98 269.01 123.50 270.99 123.35 C 271.61 122.06 271.32 121.02 269.69 120.64 C 271.00 119.37 273.06 118.42 273.14 116.35 C 273.71 117.28 274.26 118.23 274.81 119.18 C 275.25 118.64 276.11 117.55 276.55 117.00 L 274.18 117.86 C 274.47 116.69 274.80 115.54 275.16 114.39 C 276.04 113.16 276.76 111.84 276.37 110.28 C 276.81 110.41 277.70 110.68 278.14 110.82 L 278.42 109.28 Z" />
<path fill="#ffffff" opacity="1.00" d=" M 325.23 108.14 C 325.58 108.86 325.93 109.59 326.28 110.33 C 323.91 113.36 321.65 117.23 317.12 116.82 C 319.34 121.90 321.58 114.57 324.27 117.95 C 323.10 118.65 321.86 119.19 320.67 119.85 C 321.88 120.58 323.07 121.33 324.25 122.11 C 323.96 123.19 323.38 125.34 323.09 126.42 C 324.56 126.36 326.03 126.61 327.50 126.50 C 326.82 126.08 325.46 125.23 324.78 124.80 C 325.54 124.36 327.47 124.02 326.53 122.71 C 326.38 122.32 326.08 121.54 325.92 121.14 C 326.72 121.72 327.50 122.32 328.28 122.93 L 329.10 123.37 C 328.64 122.53 327.71 120.86 327.25 120.02 L 330.28 121.11 C 330.25 119.36 329.48 117.78 328.87 116.18 C 329.47 116.52 330.66 117.19 331.26 117.53 C 331.23 116.15 331.31 114.72 332.74 114.11 C 331.54 119.86 329.89 125.59 327.11 130.80 C 327.25 131.63 327.51 133.30 327.65 134.13 C 326.41 133.56 325.34 132.76 325.22 131.26 L 324.08 132.04 C 324.16 132.76 324.33 134.19 324.41 134.90 L 325.66 134.15 C 325.54 135.52 325.44 136.88 325.36 138.25 C 325.12 137.70 324.63 136.61 324.39 136.07 C 323.86 136.06 322.80 136.03 322.27 136.02 C 323.10 138.31 325.38 140.42 324.35 143.04 C 324.68 143.87 325.35 145.53 325.68 146.36 C 324.93 145.75 323.41 144.53 322.65 143.92 C 323.93 146.15 326.10 148.05 325.89 150.85 C 327.29 153.06 328.34 155.39 326.99 158.06 C 322.90 151.08 321.96 142.81 318.55 135.53 C 316.87 132.44 316.00 128.99 314.40 125.86 L 314.65 124.12 L 312.98 124.95 L 314.03 123.31 C 312.74 123.62 311.58 123.36 310.53 122.54 C 311.54 122.54 313.55 122.55 314.56 122.55 C 312.72 121.36 310.92 120.13 309.04 119.03 C 308.37 117.53 307.96 116.00 309.81 115.27 C 311.25 116.39 312.70 117.48 314.15 118.60 C 313.26 118.53 311.50 118.38 310.62 118.30 C 311.73 118.94 312.91 119.43 314.10 119.90 C 314.66 119.94 315.77 120.03 316.32 120.07 C 315.96 119.42 315.23 118.11 314.87 117.46 C 315.64 117.50 317.18 117.57 317.95 117.61 C 316.14 116.93 314.27 116.09 313.83 114.02 C 315.15 114.54 316.44 115.13 317.73 115.73 C 319.42 115.04 321.21 114.53 322.80 113.61 C 324.11 112.06 324.56 110.00 325.23 108.14 M 319.87 126.15 C 320.99 128.10 322.68 129.60 324.23 131.20 C 324.86 129.97 325.61 128.83 326.48 127.77 C 325.23 127.08 323.90 127.20 323.05 128.37 C 322.41 127.14 321.34 126.40 319.87 126.15 M 321.73 132.74 C 321.32 133.09 320.51 133.80 320.11 134.15 C 320.63 134.60 321.69 135.50 322.21 135.95 C 323.92 134.04 324.32 131.11 321.40 129.92 C 321.49 130.86 321.60 131.80 321.73 132.74 Z" />
<path fill="#ffffff" opacity="1.00" d=" M 170.84 110.40 C 172.06 109.88 173.24 111.73 172.74 112.78 C 171.56 113.38 170.15 111.43 170.84 110.40 Z" />
<path fill="#ffffff" opacity="1.00" d=" M 222.05 111.45 C 225.09 111.60 227.87 110.02 230.94 110.13 C 229.81 110.78 228.70 111.44 227.61 112.13 C 228.39 112.21 229.95 112.37 230.73 112.45 L 230.66 114.32 C 227.02 114.90 224.35 118.32 220.37 117.65 L 220.38 116.43 C 219.57 116.57 217.96 116.85 217.16 116.99 C 218.66 115.10 220.27 113.25 222.72 112.64 L 222.05 111.45 Z" />
<path fill="#ffffff" opacity="1.00" d=" M 304.11 109.81 C 305.19 110.95 306.01 112.29 306.84 113.62 L 305.28 113.50 C 305.86 114.71 306.43 115.93 306.98 117.17 C 307.31 118.00 307.64 118.82 307.97 119.65 L 306.16 119.47 C 306.76 120.56 307.36 121.65 307.95 122.76 C 305.67 121.80 303.42 120.78 301.14 119.82 C 300.41 117.71 299.45 115.52 300.53 113.31 L 299.45 113.36 C 299.49 113.08 299.58 112.51 299.62 112.23 C 302.77 113.86 303.73 117.49 306.11 119.81 C 305.76 117.85 304.96 116.05 304.16 114.25 C 304.32 113.85 304.65 113.03 304.82 112.62 C 304.64 111.92 304.28 110.51 304.11 109.81 Z" />
<path fill="#ffffff" opacity="1.00" d=" M 311.34 110.13 C 312.93 110.23 312.80 113.10 311.28 113.23 C 309.90 112.90 310.05 110.49 311.34 110.13 Z" />
<path fill="#ffffff" opacity="1.00" d=" M 295.45 111.47 C 295.92 111.49 296.85 111.52 297.32 111.54 C 298.28 115.62 298.56 120.12 301.20 123.55 C 301.32 124.58 301.00 125.59 300.89 126.61 C 301.63 127.63 301.49 129.65 302.85 130.03 C 302.96 129.39 303.16 128.11 303.26 127.47 C 306.51 130.81 304.93 137.61 309.91 139.19 C 308.91 137.51 307.34 135.75 308.56 133.72 C 308.06 133.47 307.08 132.96 306.58 132.71 L 308.58 132.47 C 308.75 132.15 309.09 131.49 309.26 131.17 L 308.75 130.65 L 308.31 130.02 C 308.48 129.78 308.83 129.31 309.00 129.08 C 309.53 129.30 310.60 129.73 311.14 129.95 C 311.09 131.73 311.73 133.14 313.07 134.19 C 312.11 134.81 311.15 135.43 310.18 136.03 C 311.80 137.84 312.72 140.20 314.61 141.77 C 313.39 139.65 311.31 136.94 313.83 134.84 C 312.96 133.31 312.18 131.71 312.46 129.90 C 313.11 130.65 313.56 131.52 313.81 132.49 L 314.71 132.54 C 314.58 133.06 314.30 134.10 314.17 134.63 L 315.57 134.43 C 315.60 135.02 315.65 136.19 315.67 136.78 C 319.16 143.24 320.70 150.70 323.85 157.38 L 324.55 157.26 C 323.16 160.98 328.36 162.67 327.77 166.45 L 326.47 166.62 C 326.97 168.46 327.30 170.33 327.44 172.23 C 326.84 172.52 325.64 173.08 325.05 173.36 C 325.20 174.03 325.50 175.36 325.65 176.02 C 325.10 176.65 324.01 177.91 323.47 178.54 C 322.85 180.07 324.82 180.73 325.87 181.14 C 329.86 182.27 332.94 185.20 336.74 186.75 C 336.74 186.98 336.74 187.44 336.74 187.67 C 332.89 186.09 329.74 183.18 325.78 181.86 C 323.96 181.41 321.77 181.27 320.96 179.28 C 322.05 177.93 323.08 176.55 324.16 175.18 L 321.55 175.71 C 322.37 174.80 323.31 174.02 324.27 173.26 C 325.05 172.06 326.76 170.35 324.44 169.71 C 324.45 170.24 324.47 171.31 324.48 171.84 C 323.12 172.26 321.90 172.92 320.82 173.83 C 318.88 171.32 322.32 169.45 323.75 167.90 C 321.94 167.56 320.15 166.88 318.27 167.26 C 318.49 166.35 318.91 164.54 319.12 163.64 C 318.34 163.74 317.56 163.87 316.79 164.01 L 318.79 164.70 C 317.98 165.61 317.14 166.49 316.30 167.37 C 315.80 167.92 314.78 169.02 314.28 169.57 C 315.04 169.55 316.58 169.51 317.35 169.49 L 316.37 168.23 L 320.00 168.48 C 319.43 170.17 318.87 171.87 318.37 173.59 L 316.42 173.34 L 316.70 171.85 C 316.37 171.92 315.71 172.06 315.39 172.14 C 315.50 172.69 315.74 173.81 315.86 174.36 C 315.01 174.45 313.31 174.62 312.45 174.70 C 312.31 174.25 312.03 173.35 311.89 172.89 C 311.67 174.18 310.90 175.11 309.85 175.80 C 308.18 173.23 306.47 175.20 306.06 177.39 C 303.44 172.39 297.21 173.42 292.76 174.93 C 292.18 174.74 291.02 174.37 290.44 174.18 C 289.59 172.58 288.70 171.01 287.90 169.39 C 287.50 169.47 286.70 169.63 286.30 169.71 C 286.54 169.36 287.03 168.66 287.28 168.31 C 286.52 168.01 285.01 167.41 284.26 167.11 C 283.12 168.41 280.83 170.99 279.69 172.29 C 281.12 171.61 283.98 170.25 285.41 169.57 C 284.82 172.24 281.56 172.85 280.31 174.83 C 281.33 175.24 282.40 175.56 283.50 175.78 C 281.23 177.46 278.50 175.47 276.02 175.32 C 275.57 175.99 274.66 177.32 274.21 177.99 C 274.73 179.57 274.98 181.27 275.87 182.71 C 276.32 181.14 276.77 179.56 277.19 177.98 C 277.45 179.18 277.72 180.38 278.00 181.58 C 278.85 181.42 280.54 181.11 281.39 180.95 C 280.57 182.30 280.15 183.79 280.15 185.38 C 280.81 184.45 281.37 183.48 281.84 182.44 L 283.38 182.58 C 282.68 183.61 282.00 184.65 281.33 185.69 C 279.91 185.36 278.69 185.56 278.15 187.08 C 277.18 187.18 276.22 187.29 275.27 187.41 C 276.40 185.70 277.47 183.71 279.48 182.87 C 278.99 182.47 278.50 182.07 278.02 181.67 C 276.96 183.65 275.88 185.87 273.30 186.00 C 273.84 185.02 274.93 183.05 275.48 182.06 C 274.47 182.58 273.54 183.21 272.70 183.96 C 270.67 184.20 269.79 186.16 268.30 187.27 C 270.35 182.84 272.77 178.51 275.94 174.78 C 276.57 174.68 277.82 174.48 278.45 174.38 L 278.47 173.61 C 279.04 173.35 280.17 172.81 280.74 172.55 C 279.92 172.54 278.30 172.53 277.49 172.53 C 276.72 173.07 275.95 173.62 275.19 174.16 C 275.30 173.59 275.53 172.44 275.64 171.87 C 279.08 170.55 281.98 168.20 285.18 166.46 C 288.19 166.88 290.56 169.33 291.23 172.24 C 291.44 171.55 291.85 170.18 292.05 169.49 C 294.62 169.76 297.22 169.65 297.41 166.22 C 296.28 166.82 294.04 168.02 292.92 168.61 C 293.87 167.86 294.81 167.09 295.73 166.29 C 295.08 166.57 293.79 167.14 293.14 167.42 C 293.18 164.06 295.48 160.84 294.14 157.48 C 299.34 158.18 294.02 162.17 295.86 164.99 C 296.80 163.63 296.85 161.95 296.91 160.35 L 298.77 160.21 C 298.72 161.08 298.62 162.83 298.58 163.71 C 298.75 163.75 299.09 163.83 299.26 163.87 C 299.09 162.21 299.48 160.79 300.42 159.61 C 300.95 160.57 302.02 162.48 302.56 163.43 C 302.48 162.42 302.33 160.39 302.25 159.38 C 301.60 159.16 300.30 158.72 299.64 158.49 C 299.43 156.66 299.77 153.94 297.89 152.90 C 297.16 153.70 296.54 154.58 296.02 155.54 C 296.61 155.35 297.79 154.98 298.38 154.79 C 298.49 155.94 298.71 158.23 298.83 159.37 C 296.80 158.39 294.74 157.51 292.82 156.34 C 292.68 154.55 292.49 152.76 292.33 150.97 C 294.85 148.32 292.09 143.55 295.77 141.82 C 296.60 143.63 294.26 146.81 296.47 148.11 C 296.77 146.18 297.04 144.23 297.58 142.35 C 296.64 141.88 295.92 141.16 295.26 140.36 C 294.87 141.18 294.44 141.98 293.99 142.77 L 294.63 138.74 C 291.82 142.09 292.18 146.89 290.88 150.91 C 293.10 153.24 292.40 156.75 292.76 159.67 C 292.09 159.28 290.76 158.49 290.09 158.09 C 289.55 158.66 289.03 159.23 288.53 159.82 C 287.99 157.98 287.45 156.15 286.90 154.31 C 287.59 154.44 288.98 154.70 289.67 154.83 C 289.61 152.39 289.03 149.68 290.96 147.67 C 288.34 148.03 286.88 150.08 285.02 151.65 C 285.71 149.44 286.60 147.31 287.44 145.16 L 289.99 146.63 C 287.74 144.87 288.56 142.30 289.64 140.36 C 289.57 141.38 289.43 143.42 289.37 144.44 C 290.93 142.88 291.65 140.78 292.43 138.78 C 294.98 137.45 296.37 134.47 294.72 131.83 C 291.70 131.66 290.88 134.50 289.20 136.35 C 289.07 133.93 290.81 132.25 292.20 130.53 C 294.27 131.04 294.91 130.24 294.11 128.14 C 293.36 126.31 293.44 124.34 293.36 122.41 C 295.22 122.69 298.04 122.85 298.23 120.31 L 296.59 120.29 C 296.58 117.31 295.73 114.43 295.45 111.47 M 298.30 125.76 C 298.64 126.70 299.30 128.59 299.64 129.53 C 299.49 130.38 299.20 132.07 299.05 132.92 L 300.63 132.08 C 300.98 134.30 301.37 136.52 301.64 138.76 L 299.43 138.80 C 299.61 136.99 299.80 135.18 299.91 133.37 C 299.53 133.42 298.77 133.54 298.39 133.60 C 298.44 133.10 298.54 132.10 298.59 131.60 L 296.74 131.66 C 296.01 134.58 295.03 137.53 295.73 140.58 C 297.83 139.26 294.96 134.92 297.95 134.93 C 299.31 137.03 296.68 140.74 299.54 141.74 C 299.25 143.85 298.94 145.96 298.66 148.08 C 300.00 149.15 299.36 150.97 299.57 152.43 L 300.38 152.32 C 300.36 154.07 301.04 155.68 301.74 157.24 C 301.63 155.34 301.49 153.45 301.42 151.56 L 300.48 151.69 C 300.74 150.08 299.41 148.74 299.83 147.15 C 300.31 144.87 299.34 141.64 301.84 140.35 C 301.95 142.78 301.87 145.22 301.68 147.65 L 303.22 147.84 C 302.85 142.34 302.37 136.84 301.58 131.39 C 300.90 129.32 301.02 126.36 298.30 125.76 M 303.06 131.23 L 302.52 131.77 L 302.93 132.56 L 303.84 132.54 L 304.27 131.73 C 303.97 131.60 303.36 131.35 303.06 131.23 M 306.75 145.93 C 306.52 147.00 308.60 148.69 308.95 147.05 C 309.27 145.86 307.19 144.27 306.75 145.93 M 319.21 155.27 C 320.41 157.29 321.50 159.38 322.79 161.35 C 322.80 158.99 322.49 155.13 319.21 155.27 M 322.45 163.19 C 321.91 164.54 322.45 167.12 324.18 167.21 C 325.04 165.92 324.36 162.61 322.45 163.19 Z" />
<path fill="#ffffff" opacity="1.00" d=" M 166.35 114.03 C 166.78 113.34 167.23 112.67 167.68 112.00 C 168.39 112.90 169.02 114.84 170.13 112.96 C 170.59 113.53 171.51 114.66 171.97 115.22 C 171.44 115.34 170.39 115.59 169.86 115.71 C 170.64 116.80 171.42 117.91 172.06 119.10 C 170.92 118.42 168.63 117.08 167.48 116.41 C 168.31 117.39 169.98 119.37 170.81 120.35 C 170.53 121.85 170.97 123.16 172.05 124.24 C 171.11 125.05 170.17 125.85 169.22 126.65 L 169.49 124.81 C 168.41 123.06 167.48 121.23 166.36 119.50 C 167.02 119.61 168.32 119.84 168.98 119.95 C 168.37 119.28 167.77 118.60 167.17 117.92 C 168.29 116.25 164.84 115.40 166.35 114.03 Z" />
<path fill="#ffffff" opacity="1.00" d=" M 170.13 112.96 C 169.31 112.30 169.31 112.30 170.13 112.96 Z" />
<path fill="#ffffff" opacity="1.00" d=" M 246.98 117.33 C 248.42 115.61 249.52 113.65 250.87 111.87 C 250.82 112.61 250.71 114.09 250.65 114.82 C 251.26 116.15 251.70 117.54 251.81 119.00 C 253.22 119.46 254.66 119.99 255.56 121.28 C 251.63 123.11 250.31 117.94 246.98 117.33 Z" />
<path fill="#ffffff" opacity="1.00" d=" M 283.76 112.33 C 284.44 112.68 285.11 113.03 285.80 113.38 C 284.72 116.80 284.05 120.62 280.99 122.90 C 281.27 122.11 281.83 120.53 282.11 119.73 C 281.36 120.05 279.86 120.67 279.12 120.99 C 280.53 119.03 282.11 117.20 283.53 115.25 C 283.59 114.52 283.70 113.06 283.76 112.33 Z" />
<path fill="#ffffff" opacity="1.00" d=" M 199.87 113.78 C 200.69 115.04 201.72 116.27 201.46 117.89 L 202.90 117.20 C 202.72 117.79 202.38 118.97 202.20 119.56 L 203.84 119.19 L 203.23 120.44 C 205.00 120.04 205.58 121.60 206.28 122.84 C 204.22 122.90 202.31 122.37 201.02 120.58 C 201.39 121.71 202.13 123.97 202.50 125.09 C 199.67 123.26 201.08 119.66 199.40 117.16 C 199.65 116.05 199.80 114.92 199.87 113.78 Z" />
<path fill="#ffffff" opacity="1.00" d=" M 239.73 115.00 C 241.00 114.84 243.52 114.52 244.78 114.36 C 244.58 116.48 244.22 118.65 245.29 120.64 C 243.28 120.98 241.23 121.28 239.30 120.42 C 239.30 119.47 239.30 117.58 239.31 116.64 C 240.46 116.89 241.62 117.16 242.78 117.42 C 241.75 116.63 240.73 115.82 239.73 115.00 Z" />
<path fill="#ffffff" opacity="1.00" d=" M 279.06 118.30 C 278.62 117.25 279.65 115.26 280.90 115.65 C 281.50 116.67 280.31 118.86 279.06 118.30 Z" />
<path fill="#ffffff" opacity="1.00" d=" M 294.07 116.54 C 294.27 115.41 294.67 113.15 294.87 112.02 C 295.21 114.46 295.78 116.94 295.68 119.43 C 294.33 119.61 292.99 119.83 292.11 120.98 C 292.35 119.43 292.45 117.86 292.46 116.29 C 292.86 116.35 293.67 116.48 294.07 116.54 Z" />
<path fill="#ffffff" opacity="1.00" d=" M 192.10 118.07 C 190.58 117.17 190.52 116.34 191.91 115.56 C 193.38 116.46 193.45 117.29 192.10 118.07 Z" />
<path fill="#ffffff" opacity="1.00" d=" M 224.20 118.44 C 226.36 117.34 228.56 116.31 230.56 114.94 C 230.59 115.81 230.64 117.55 230.67 118.42 C 228.78 118.55 226.71 118.64 225.91 120.70 C 227.27 120.55 229.97 120.26 231.32 120.11 C 231.12 120.82 230.73 122.23 230.54 122.94 C 228.69 122.42 226.84 121.90 224.99 121.42 C 222.91 124.10 219.40 127.51 215.76 126.02 C 214.05 124.53 212.73 127.02 212.52 128.39 C 211.01 128.73 209.50 129.09 208.01 129.47 C 205.18 128.04 202.46 125.77 202.22 122.31 C 203.91 124.19 206.72 128.73 209.13 124.84 C 208.24 124.70 206.46 124.43 205.57 124.29 C 207.34 123.71 207.51 121.91 208.16 120.44 C 210.47 119.36 212.89 118.56 215.23 117.53 C 213.60 118.99 211.29 120.93 213.08 123.09 L 213.02 123.81 C 211.84 124.61 210.54 125.22 209.40 126.08 C 211.82 126.08 214.02 125.05 216.22 124.19 C 218.11 123.57 220.02 123.00 221.93 122.42 C 221.84 122.15 221.65 121.61 221.56 121.35 C 219.70 121.71 216.22 124.99 215.46 122.15 C 215.97 121.63 216.99 120.59 217.51 120.07 L 217.32 119.06 C 217.87 119.28 218.98 119.72 219.53 119.94 L 219.40 118.49 C 220.99 118.45 222.60 118.39 224.20 118.44 M 224.31 120.21 L 224.31 121.14 C 226.32 122.26 226.03 118.35 224.31 120.21 Z" />
<path fill="#ffffff" opacity="1.00" d=" M 233.86 116.03 C 235.34 115.54 238.05 117.00 237.81 118.66 C 236.36 119.03 233.54 117.72 233.86 116.03 Z" />
<path fill="#ffffff" opacity="1.00" d=" M 282.13 124.78 C 284.37 122.16 286.44 119.38 288.70 116.78 C 288.40 117.40 287.79 118.63 287.48 119.25 C 287.76 119.45 288.32 119.86 288.59 120.07 C 286.44 121.65 284.74 123.91 282.13 124.78 Z" />
<path fill="#ffffff" opacity="1.00" d=" M 191.12 119.97 C 192.51 119.55 193.90 121.70 193.63 122.94 C 192.22 123.34 190.68 121.27 191.12 119.97 Z" />
<path fill="#ffffff" opacity="1.00" d=" M 259.09 121.88 C 262.16 122.22 265.07 120.57 268.10 120.85 C 266.40 121.64 264.72 122.48 263.08 123.39 C 262.08 123.01 260.08 122.26 259.09 121.88 Z" />
<path fill="#ffffff" opacity="1.00" d=" M 234.16 121.30 C 237.27 120.76 240.33 121.97 243.46 121.49 C 243.73 122.20 244.26 123.61 244.53 124.32 C 243.63 124.32 241.82 124.32 240.92 124.32 C 238.56 123.57 236.16 122.83 234.16 121.30 Z" />
<path fill="#ffffff" opacity="1.00" d=" M 189.13 121.07 C 191.10 122.19 195.08 124.89 193.13 127.50 C 193.64 128.58 194.15 129.66 194.59 130.77 C 193.61 130.39 192.66 129.97 191.71 129.54 C 191.48 129.20 191.03 128.51 190.80 128.17 C 190.34 127.51 189.43 126.21 188.97 125.55 C 189.59 125.57 190.82 125.61 191.43 125.62 C 190.48 124.19 189.71 122.67 189.13 121.07 Z" />
<path fill="#ffffff" opacity="1.00" d=" M 253.21 123.09 C 254.88 120.43 258.02 123.31 260.25 123.57 C 257.98 124.98 255.50 123.78 253.21 123.09 Z" />
<path fill="#ffffff" opacity="1.00" d=" M 285.41 125.81 C 284.49 123.10 287.74 123.32 289.31 123.16 C 287.39 124.50 287.53 128.71 284.30 127.51 C 284.45 128.33 284.75 129.96 284.90 130.78 C 282.14 132.87 280.07 135.90 276.69 137.07 C 277.50 133.47 282.89 132.52 282.88 128.39 L 283.76 128.45 C 283.82 127.35 283.88 126.25 283.95 125.15 L 285.41 125.81 Z" />
<path fill="#ffffff" opacity="1.00" d=" M 224.20 127.45 C 225.60 123.56 230.68 124.71 233.88 124.68 C 233.87 124.90 233.85 125.34 233.84 125.56 C 232.26 125.51 230.63 125.50 229.57 126.87 C 230.36 126.73 231.95 126.44 232.74 126.30 L 232.18 127.57 L 233.72 127.34 L 233.23 128.91 L 234.32 128.37 C 234.68 129.93 235.82 131.39 235.35 133.07 C 237.69 132.70 239.96 132.01 242.19 131.20 C 241.47 131.83 240.73 132.44 239.98 133.04 C 239.81 133.39 239.46 134.10 239.28 134.46 C 237.80 135.20 236.31 135.92 234.80 136.60 C 235.10 135.23 236.85 135.14 237.22 133.96 C 236.52 133.82 235.12 133.54 234.42 133.40 L 234.92 134.88 C 234.15 134.75 232.62 134.48 231.86 134.35 C 232.39 133.98 233.45 133.23 233.98 132.85 C 233.23 132.46 232.47 132.07 231.72 131.68 C 230.58 132.19 229.43 132.65 228.27 133.08 L 228.17 132.01 C 229.70 131.57 231.22 131.09 232.64 130.34 C 230.87 130.33 229.10 130.44 227.34 130.51 L 227.72 131.68 C 227.06 131.69 225.76 131.71 225.10 131.72 C 225.68 132.99 226.27 134.26 226.89 135.52 C 226.44 135.93 225.53 136.75 225.08 137.16 C 222.95 137.81 220.95 138.92 218.71 139.07 C 219.50 138.05 220.40 137.13 221.32 136.23 C 221.81 134.91 222.32 133.59 222.84 132.28 C 222.36 132.27 221.39 132.24 220.90 132.23 C 222.74 131.61 224.64 131.09 226.28 130.00 C 225.56 129.05 221.61 129.68 222.42 127.97 C 222.86 127.84 223.75 127.58 224.20 127.45 Z" />
<path fill="#ffffff" opacity="1.00" d=" M 235.16 124.28 C 237.58 124.50 239.99 124.88 242.36 125.44 C 242.73 125.94 243.48 126.96 243.85 127.46 C 242.28 129.43 239.73 129.86 237.53 130.77 C 237.41 130.21 237.15 129.11 237.02 128.56 C 237.81 128.56 239.38 128.57 240.17 128.57 C 238.27 127.42 236.16 126.40 235.16 124.28 Z" />
<path fill="#ffffff" opacity="1.00" d=" M 201.39 124.33 C 202.37 126.97 201.65 130.17 204.00 132.19 C 204.53 131.65 205.58 130.58 206.11 130.04 C 205.44 131.25 204.77 132.45 204.08 133.65 C 205.93 133.13 207.78 132.58 209.63 132.05 C 209.35 131.51 208.81 130.42 208.53 129.88 C 210.53 129.43 212.50 128.91 214.47 128.33 C 212.46 132.15 209.28 135.64 204.65 135.54 C 204.10 136.44 203.55 137.32 202.98 138.20 C 201.79 133.68 201.29 129.00 201.39 124.33 Z" />
<path fill="#ffffff" opacity="1.00" d=" M 252.36 125.44 C 254.64 126.47 256.96 127.71 258.86 129.41 C 256.87 130.02 254.43 127.13 252.88 129.21 C 255.26 129.89 257.64 130.59 259.96 131.49 C 259.36 131.81 258.17 132.44 257.57 132.76 C 258.99 132.63 261.83 132.39 263.25 132.26 C 259.60 135.00 255.20 136.17 250.77 136.80 L 251.84 135.10 C 252.38 134.90 253.46 134.49 254.00 134.28 C 251.88 134.77 249.90 134.25 248.15 132.99 C 248.94 132.43 250.51 131.31 251.29 130.75 C 249.36 130.65 246.36 131.10 245.84 128.42 C 247.24 128.93 248.64 129.44 250.05 129.96 C 250.77 129.23 251.49 128.50 252.22 127.78 C 250.98 127.37 243.78 128.02 248.65 126.44 C 249.51 126.45 251.23 126.47 252.09 126.48 C 252.16 126.22 252.29 125.70 252.36 125.44 Z" />
<path fill="#ffffff" opacity="1.00" d=" M 154.01 130.84 C 155.00 129.15 156.67 128.06 158.33 127.11 C 157.74 128.29 156.74 129.11 155.67 129.82 C 155.67 130.68 155.66 132.40 155.66 133.26 C 156.18 132.69 157.22 131.54 157.73 130.96 C 157.48 132.47 157.77 134.34 156.19 135.21 L 155.67 135.69 L 154.98 136.02 C 153.65 136.49 153.03 137.80 153.08 139.16 C 152.51 139.16 151.38 139.15 150.81 139.15 C 152.63 138.59 151.72 136.81 151.42 135.67 C 152.31 135.01 153.25 134.44 154.24 133.95 C 153.40 132.94 152.60 131.86 154.01 130.84 Z" />
<path fill="#ffffff" opacity="1.00" d=" M 262.56 130.87 C 266.12 131.05 268.35 127.39 271.75 127.43 C 270.41 129.39 269.16 131.77 266.83 132.71 C 265.49 132.18 264.14 131.60 262.69 131.49 L 262.56 130.87 Z" />
<path fill="#ffffff" opacity="1.00" d=" M 279.80 127.62 C 281.33 129.84 279.12 132.38 277.59 133.90 L 276.88 132.18 C 278.08 130.75 280.20 129.91 279.80 127.62 Z" />
<path fill="#ffffff" opacity="1.00" d=" M 179.19 130.67 C 181.71 129.35 182.53 132.90 183.96 134.26 C 183.77 136.15 184.99 137.65 185.81 139.23 L 183.70 138.95 C 184.62 140.26 185.44 141.62 186.16 143.05 C 183.45 142.20 181.88 139.47 180.91 136.97 C 180.15 135.61 179.36 134.26 178.71 132.84 C 179.86 133.60 180.96 134.45 182.11 135.22 C 181.17 133.69 180.14 132.21 179.19 130.67 M 182.24 137.34 C 182.86 137.90 182.86 137.90 182.24 137.34 Z" />
<path fill="#ffffff" opacity="1.00" d=" M 217.18 130.38 C 217.74 130.39 218.86 130.41 219.42 130.42 C 218.88 132.43 220.05 134.28 220.48 136.17 C 218.82 136.75 217.17 137.60 215.36 137.44 C 215.46 135.54 216.31 133.77 216.29 131.85 C 216.51 131.49 216.96 130.75 217.18 130.38 Z" />
<path fill="#ffffff" opacity="1.00" d=" M 272.19 132.24 C 273.83 131.10 275.84 130.08 276.25 127.87 C 276.38 128.81 276.63 130.68 276.76 131.62 L 275.70 131.40 C 274.27 133.48 272.90 135.61 271.37 137.62 C 270.64 136.99 269.93 136.36 269.23 135.71 L 271.01 137.89 C 268.69 136.98 266.49 138.21 264.23 138.43 C 265.99 135.43 269.51 134.27 272.19 132.24 Z" />
<path fill="#ffffff" opacity="1.00" d=" M 188.65 130.47 C 189.46 130.40 191.08 130.25 191.89 130.18 C 192.79 131.76 193.79 133.31 194.37 135.05 C 193.63 134.90 192.15 134.60 191.41 134.44 L 191.76 133.58 C 189.64 134.14 189.39 131.85 188.65 130.47 Z" />
<path fill="#ffffff" opacity="1.00" d=" M 268.45 138.73 C 272.45 138.80 273.86 134.17 276.88 132.18 C 276.84 133.66 276.79 135.14 276.72 136.61 C 275.79 136.79 274.85 136.97 273.93 137.16 C 275.47 137.25 277.01 137.46 278.53 137.79 C 276.26 140.34 273.47 143.02 269.90 143.33 C 270.61 142.16 271.44 141.07 272.66 140.40 C 271.10 140.32 269.71 139.59 268.45 138.73 Z" />
<path fill="#ffffff" opacity="1.00" d=" M 253.43 138.70 C 255.50 134.83 260.98 136.17 264.06 133.33 C 261.70 136.67 258.36 139.67 254.38 140.89 C 255.30 139.99 257.14 138.19 258.06 137.29 C 256.90 137.64 254.59 138.34 253.43 138.70 Z" />
<path fill="#ffffff" opacity="1.00" d=" M 188.70 135.52 C 189.53 135.44 191.20 135.29 192.04 135.22 C 193.09 136.88 194.11 138.54 195.05 140.27 C 194.20 139.70 192.48 138.58 191.62 138.02 C 192.92 139.79 194.32 141.57 194.73 143.80 C 193.80 143.43 192.88 143.01 191.97 142.59 C 191.39 140.68 189.76 139.04 190.23 136.93 C 189.84 136.58 189.08 135.87 188.70 135.52 Z" />
<path fill="#ffffff" opacity="1.00" d=" M 153.08 139.16 C 153.94 138.74 155.35 136.15 156.09 137.81 C 155.73 138.85 154.91 139.63 154.25 140.48 C 154.82 140.51 155.97 140.57 156.54 140.60 C 156.77 139.70 157.01 138.81 157.26 137.92 C 157.30 139.20 157.35 140.49 157.43 141.78 L 156.34 140.95 C 157.59 143.16 155.43 144.91 154.12 146.35 C 153.97 145.78 153.69 144.64 153.54 144.07 L 151.71 144.82 C 152.35 143.59 153.02 142.38 153.70 141.17 C 153.21 141.20 152.21 141.25 151.72 141.27 C 152.06 140.74 152.74 139.69 153.08 139.16 Z" />
<path fill="#ffffff" opacity="1.00" d=" M 206.34 137.72 C 207.90 137.18 209.44 136.61 210.97 135.99 L 210.28 137.79 C 210.99 137.53 212.41 137.01 213.11 136.75 C 211.93 138.42 210.79 140.12 209.70 141.85 C 211.04 141.50 212.44 140.17 213.89 140.99 C 213.35 141.16 212.26 141.51 211.72 141.68 L 211.64 143.43 L 209.87 146.33 C 210.89 145.71 212.92 144.48 213.93 143.87 C 213.38 144.48 212.28 145.69 211.73 146.30 L 214.18 146.64 C 212.40 148.44 209.99 149.30 207.56 149.82 C 207.54 149.38 207.49 148.50 207.47 148.06 C 206.17 146.84 205.17 145.28 205.11 143.44 C 204.56 143.38 203.48 143.25 202.93 143.19 C 203.03 141.78 203.13 140.37 203.23 138.95 C 203.91 138.41 204.60 137.87 205.29 137.34 C 205.57 138.96 205.36 140.50 204.65 141.96 C 204.83 141.95 205.18 141.93 205.36 141.92 C 205.45 140.47 205.83 139.07 206.34 137.72 Z" />
<path fill="#ffffff" opacity="1.00" d=" M 242.81 140.52 C 244.12 137.84 246.81 137.22 249.54 137.77 C 249.25 138.33 248.67 139.46 248.38 140.03 C 249.32 140.40 250.15 140.94 250.89 141.64 C 249.46 144.44 246.24 143.92 243.64 143.61 C 245.09 142.26 247.20 142.37 248.95 141.71 C 247.32 141.57 245.69 141.52 244.06 141.56 L 244.84 140.15 C 244.33 140.24 243.32 140.42 242.81 140.52 Z" />
<path fill="#ffffff" opacity="1.00" d=" M 226.08 137.23 C 228.95 137.76 231.86 137.50 234.75 137.60 C 234.19 138.72 233.21 139.49 232.23 140.20 C 234.03 140.08 234.74 140.94 234.34 142.79 C 231.94 143.74 229.45 144.40 226.98 145.14 C 227.42 144.48 228.29 143.16 228.73 142.50 C 227.97 142.64 226.45 142.91 225.69 143.05 C 227.40 141.33 226.54 139.96 224.84 138.79 C 225.32 138.75 226.26 138.68 226.73 138.65 L 226.08 137.23 Z" />
<path fill="#ffffff" opacity="1.00" d=" M 268.37 138.35 C 268.66 138.64 268.66 138.64 268.37 138.35 Z" />
<path fill="#ffffff" opacity="1.00" d=" M 217.64 141.64 C 219.84 141.19 222.10 139.52 224.30 140.99 C 223.43 141.25 221.70 141.78 220.84 142.04 C 221.24 142.37 222.05 143.03 222.45 143.36 C 222.80 146.32 223.78 150.70 228.78 147.81 L 226.40 146.42 C 228.49 146.93 230.26 145.63 232.09 144.86 C 231.17 146.01 230.17 147.09 229.19 148.19 C 227.81 148.78 226.48 149.48 225.14 150.16 L 225.57 148.18 C 223.98 148.78 222.40 149.37 220.81 149.95 C 221.13 149.20 221.79 147.72 222.11 146.97 C 219.85 148.25 216.65 148.63 215.96 145.63 C 215.14 143.93 216.71 142.84 217.64 141.64 Z" />
<path fill="#ffffff" opacity="1.00" d=" M 268.44 140.75 C 270.53 139.89 269.91 143.24 268.24 141.73 L 268.44 140.75 Z" />
<path fill="#ffffff" opacity="1.00" d=" M 276.54 141.49 C 277.10 141.45 278.21 141.39 278.77 141.36 C 278.74 141.61 278.69 142.09 278.67 142.34 C 277.35 142.77 276.06 143.24 274.75 143.66 L 274.53 144.31 C 272.80 144.10 271.92 145.58 270.89 146.67 C 271.60 146.60 273.03 146.45 273.74 146.38 L 273.42 145.31 C 274.23 145.40 275.85 145.59 276.67 145.68 L 276.28 144.47 C 277.61 144.40 278.95 144.34 280.28 144.28 C 279.37 144.77 278.44 145.25 277.51 145.70 C 277.01 147.09 276.61 148.52 276.31 149.97 C 274.94 149.26 273.62 148.48 272.31 147.68 C 274.08 149.64 274.61 152.61 271.49 153.63 C 272.91 153.27 275.75 152.55 277.17 152.19 C 276.07 153.05 273.88 154.77 272.79 155.63 L 273.28 156.98 L 275.05 157.26 C 273.22 158.79 271.54 160.48 269.91 162.21 C 269.63 159.67 266.93 158.67 265.43 156.97 C 265.09 159.43 267.92 160.37 269.12 162.00 L 268.33 162.96 C 266.79 161.37 265.40 159.66 264.15 157.85 C 264.66 156.52 265.19 155.19 265.73 153.87 C 267.22 153.62 268.41 152.87 269.30 151.62 C 267.53 152.32 265.53 153.59 264.22 151.49 C 262.76 153.26 261.25 154.98 259.72 156.68 C 258.11 155.82 255.25 157.28 255.05 154.69 C 255.73 154.69 257.08 154.69 257.76 154.69 C 259.37 152.26 262.49 152.95 264.36 150.91 C 262.54 150.27 260.74 149.60 258.95 148.90 C 262.20 150.29 259.00 152.66 257.32 153.69 C 256.11 154.41 255.58 152.83 255.19 152.01 C 255.76 150.70 257.11 149.97 258.09 148.99 C 256.17 149.37 254.36 150.29 252.39 150.44 C 252.98 149.41 253.74 148.49 254.68 147.68 C 255.54 147.21 256.41 146.73 257.27 146.25 C 258.32 145.57 259.39 144.91 260.46 144.24 C 261.22 144.34 262.75 144.55 263.51 144.66 L 263.37 143.20 C 264.94 143.46 266.96 142.95 267.85 144.66 L 270.22 142.22 C 270.35 144.51 268.26 145.38 266.97 146.75 C 268.79 145.88 270.57 144.92 272.46 144.21 L 272.52 143.40 C 273.01 143.48 273.97 143.64 274.46 143.72 C 274.54 143.30 274.70 142.47 274.78 142.05 L 276.60 142.98 L 276.54 141.49 M 259.07 148.40 C 259.22 147.85 259.51 146.76 259.65 146.21 C 258.25 145.43 257.31 148.66 259.07 148.40 Z" />
<path fill="#ffffff" opacity="1.00" d=" M 185.83 145.26 C 191.81 146.25 197.17 149.40 203.05 150.83 C 209.66 152.31 215.74 155.54 222.43 156.72 C 231.63 158.71 240.05 163.31 249.26 165.20 C 247.94 165.68 246.50 166.90 245.07 165.84 C 239.87 164.04 234.59 162.50 229.41 160.67 C 217.73 155.34 204.73 154.09 192.89 149.22 C 190.44 148.11 187.68 147.32 185.83 145.26 Z" />
<path fill="#ffffff" opacity="1.00" d=" M 210.71 151.35 C 210.69 149.72 213.21 148.85 214.56 149.24 C 214.06 150.47 212.09 151.81 210.71 151.35 Z" />
<path fill="#ffffff" opacity="1.00" d=" M 231.52 149.56 C 233.13 149.46 234.74 149.52 236.36 149.49 C 237.76 151.40 237.53 153.42 235.19 154.36 C 234.52 154.05 233.17 153.41 232.49 153.10 C 233.92 152.30 235.33 151.47 236.72 150.61 C 235.66 150.85 233.54 151.34 232.48 151.58 C 232.11 150.93 231.79 150.25 231.52 149.56 Z" />
<path fill="#ffffff" opacity="1.00" d=" M 251.29 153.53 C 251.28 152.41 251.64 151.63 252.36 151.18 C 253.15 152.85 252.40 154.75 252.32 156.51 L 254.42 156.56 C 252.75 157.40 251.07 158.23 249.40 159.06 C 249.68 158.59 250.22 157.66 250.49 157.19 C 250.49 155.95 250.50 154.70 250.52 153.46 L 251.29 153.53 Z" />
<path fill="#ffffff" opacity="1.00" d=" M 241.35 152.41 C 242.28 152.90 243.17 153.45 244.10 153.97 C 243.23 154.40 240.39 153.78 241.16 155.56 C 242.00 155.59 243.67 155.64 244.51 155.67 C 244.42 156.53 244.24 158.27 244.15 159.13 C 243.37 158.95 241.82 158.57 241.04 158.38 C 240.12 157.54 239.09 156.83 238.02 156.20 C 239.26 155.06 240.38 153.79 241.35 152.41 Z" />
<path fill="#ffffff" opacity="1.00" d=" M 287.19 152.26 L 288.16 152.39 C 289.74 154.36 285.63 154.06 287.19 152.26 Z" />
<path fill="#ffffff" opacity="1.00" d=" M 203.70 155.18 C 206.21 155.42 208.58 156.28 211.01 156.92 C 216.73 158.56 222.84 159.03 228.20 161.79 C 238.95 165.56 249.89 168.87 261.10 171.00 C 260.20 170.46 258.39 169.38 257.49 168.83 C 258.44 168.42 259.38 168.00 260.33 167.58 C 258.85 165.79 257.07 164.25 255.85 162.26 C 257.85 163.48 260.75 162.96 262.13 165.09 C 262.70 164.76 263.26 164.43 263.83 164.10 L 260.65 163.01 C 263.01 161.13 259.37 159.53 258.47 158.14 C 259.49 158.60 261.51 159.54 262.52 160.00 L 262.25 157.70 C 263.24 158.89 264.70 159.87 264.84 161.54 L 265.62 161.43 L 265.35 162.55 L 267.54 162.82 C 266.98 162.95 265.86 163.19 265.30 163.32 C 265.57 164.05 265.84 164.78 266.13 165.51 C 264.02 166.19 262.00 168.87 259.86 165.60 C 261.34 166.97 262.94 168.25 264.45 169.61 C 263.83 169.61 262.58 169.61 261.96 169.61 L 262.38 171.10 C 262.93 171.32 264.03 171.76 264.58 171.98 C 264.52 171.44 264.38 170.38 264.32 169.84 C 267.34 168.73 270.40 167.65 273.18 166.00 C 273.22 166.51 273.30 167.54 273.34 168.06 C 275.49 166.93 277.71 165.90 279.64 164.40 C 279.68 165.45 279.74 166.51 279.81 167.56 C 278.89 167.57 277.86 167.30 277.10 168.02 C 275.92 169.00 274.69 169.92 273.45 170.81 L 273.47 171.21 C 272.84 171.61 271.58 172.39 270.95 172.78 C 269.18 169.80 267.24 173.08 265.17 173.74 L 265.43 174.62 C 265.04 174.51 264.26 174.28 263.88 174.16 C 263.24 175.56 262.36 176.79 261.25 177.87 C 262.03 177.42 263.58 176.53 264.36 176.08 C 265.08 176.25 266.52 176.60 267.24 176.77 C 267.71 175.34 268.54 174.08 269.30 172.79 C 269.66 173.00 270.38 173.42 270.74 173.62 C 271.76 173.00 273.80 171.75 274.82 171.13 C 273.02 173.38 271.04 175.46 269.01 177.49 C 269.45 177.51 270.35 177.56 270.79 177.58 C 269.85 179.93 268.88 183.06 266.16 183.81 C 266.17 182.96 266.30 182.13 266.54 181.31 C 266.03 181.30 264.99 181.29 264.48 181.29 L 264.37 180.08 L 262.43 180.89 C 262.41 180.34 262.36 179.24 262.33 178.69 L 261.10 178.89 L 262.13 180.58 L 258.74 180.69 C 259.40 179.84 260.71 178.15 261.37 177.30 C 259.23 179.18 255.34 178.89 253.82 176.44 C 253.49 176.47 252.81 176.51 252.47 176.53 L 252.65 175.25 C 251.84 175.33 250.23 175.47 249.42 175.54 L 249.67 174.63 C 247.35 174.31 245.15 173.44 243.00 172.55 C 238.18 172.91 233.65 170.68 228.93 169.99 C 225.08 167.72 220.23 168.90 216.46 166.45 C 212.35 164.23 207.72 162.12 205.27 157.93 L 205.27 156.63 C 204.88 156.27 204.09 155.55 203.70 155.18 M 205.63 156.14 C 207.31 158.70 209.79 160.59 211.85 162.83 C 215.41 165.75 220.28 165.84 224.47 167.35 C 224.76 167.18 225.34 166.85 225.64 166.69 C 230.00 168.40 234.72 169.32 239.38 169.77 L 239.26 170.78 C 240.07 170.71 241.69 170.58 242.49 170.52 L 242.38 171.40 C 244.40 171.90 246.41 172.50 248.49 172.74 L 248.57 173.58 C 249.33 173.56 250.83 173.53 251.58 173.51 L 251.36 174.54 C 253.19 174.41 255.20 174.32 255.97 176.38 C 257.54 176.97 260.39 178.06 259.33 174.96 L 260.50 175.61 C 260.49 175.32 260.47 174.75 260.46 174.46 L 262.21 173.77 L 263.32 172.22 C 261.44 172.75 259.56 173.30 257.69 173.87 C 257.55 173.26 257.26 172.03 257.11 171.42 C 245.80 168.70 234.47 165.76 223.61 161.59 C 217.48 160.23 211.26 159.06 205.63 156.14 Z" />
<path fill="#ffffff" opacity="1.00" d=" M 359.00 158.24 C 361.00 157.52 363.00 156.74 365.09 156.32 C 364.29 157.90 362.42 158.00 360.91 158.45 C 352.79 160.33 344.96 163.20 337.05 165.77 L 337.22 167.00 C 345.09 165.19 353.02 163.51 360.80 161.32 C 360.80 161.59 360.82 162.12 360.82 162.38 C 352.48 163.75 344.42 166.56 336.04 167.71 C 333.66 168.73 331.15 169.42 328.72 170.33 C 327.62 166.65 331.88 166.74 334.25 166.21 C 342.36 163.13 350.57 160.28 359.00 158.24 Z" />
<path fill="#ffffff" opacity="1.00" d=" M 325.11 158.22 C 325.76 157.73 326.41 157.80 327.05 158.42 C 327.74 159.55 327.98 160.74 327.76 162.01 C 326.14 162.47 325.55 159.45 325.11 158.22 Z" />
<path fill="#ffffff" opacity="1.00" d=" M 271.35 163.69 C 270.69 160.38 275.22 158.87 276.58 156.42 C 274.88 158.18 274.81 164.07 271.35 163.69 Z" />
<path fill="#ffffff" opacity="1.00" d=" M 257.84 160.20 C 258.36 160.29 259.41 160.48 259.93 160.57 C 259.98 161.04 260.06 161.98 260.10 162.46 C 258.78 162.25 258.02 161.50 257.84 160.20 Z" />
<path fill="#ffffff" opacity="1.00" d=" M 290.44 163.43 C 291.01 163.42 292.13 163.41 292.69 163.40 C 292.32 165.00 291.91 166.59 291.46 168.16 C 290.51 167.48 287.17 165.00 290.79 165.46 C 290.70 164.95 290.53 163.94 290.44 163.43 Z" />
<path fill="#ffffff" opacity="1.00" d=" M 247.73 166.87 C 250.99 164.35 254.86 167.20 258.49 167.02 C 258.02 167.52 257.55 168.02 257.09 168.53 C 254.01 167.79 250.89 167.17 247.73 166.87 Z" />
<path fill="#ffffff" opacity="1.00" d=" M 285.18 171.59 C 287.56 172.47 288.69 175.50 290.93 176.90 C 289.24 178.56 287.47 180.17 285.77 181.80 C 287.55 179.82 287.99 177.60 287.11 175.14 C 287.06 176.17 286.95 178.25 286.90 179.29 L 284.93 177.13 C 285.26 177.97 285.59 178.80 285.93 179.63 L 285.01 179.70 C 284.09 180.49 282.94 183.37 282.01 181.08 C 282.76 180.11 283.72 179.45 284.92 179.09 C 281.21 177.64 284.83 175.48 286.06 174.06 C 284.83 174.92 283.35 175.10 281.97 174.52 C 282.77 173.79 284.38 172.33 285.18 171.59 Z" />
<path fill="#ffffff" opacity="1.00" d=" M 195.49 174.09 C 196.67 173.27 197.38 173.53 197.62 174.89 C 196.44 175.71 195.73 175.45 195.49 174.09 Z" />
<path fill="#ffffff" opacity="1.00" d=" M 193.57 178.72 C 194.99 176.56 197.77 176.89 199.98 176.30 C 199.83 176.79 199.54 177.78 199.40 178.28 C 197.71 179.73 196.02 181.24 193.92 182.06 C 194.29 180.76 195.03 179.69 196.13 178.86 L 193.57 178.72 Z" />
<path fill="#ffffff" opacity="1.00" d=" M 307.88 182.27 C 307.28 179.88 306.62 177.00 308.62 175.06 C 309.23 176.55 310.03 177.97 310.91 179.32 C 309.48 181.89 307.84 184.54 305.15 185.95 C 305.91 184.62 306.88 183.43 307.88 182.27 Z" />
<path fill="#ffffff" opacity="1.00" d=" M 313.12 182.88 C 315.73 181.31 316.07 176.85 319.73 176.99 C 316.35 180.35 314.22 184.83 309.92 187.24 C 310.54 187.49 311.79 187.99 312.41 188.24 C 311.77 188.31 310.49 188.44 309.85 188.50 C 310.45 189.23 311.65 190.67 312.25 191.39 C 311.72 191.86 310.66 192.79 310.13 193.26 C 308.91 192.85 307.68 192.47 306.45 192.10 C 307.24 190.96 308.02 189.75 309.27 189.05 C 309.92 186.67 310.87 184.18 313.12 182.88 Z" />
<path fill="#ffffff" opacity="1.00" d=" M 249.47 178.57 C 251.11 178.46 252.57 178.93 253.50 180.35 C 252.08 180.48 250.65 180.60 249.23 180.72 C 249.29 180.18 249.41 179.11 249.47 178.57 Z" />
<path fill="#ffffff" opacity="1.00" d=" M 290.04 178.99 C 291.39 177.73 292.34 178.89 293.24 179.94 C 294.16 179.67 295.09 179.40 296.01 179.14 C 295.23 180.40 294.43 181.69 293.15 182.50 C 293.19 183.21 293.34 183.90 293.61 184.57 C 295.19 182.53 296.82 180.51 298.77 178.83 C 299.31 182.00 295.91 183.75 294.18 185.90 C 297.86 185.29 299.43 181.72 302.16 179.71 C 300.81 183.17 298.06 185.78 295.78 188.63 C 295.21 188.28 294.08 187.59 293.51 187.25 L 293.60 185.84 C 292.91 186.36 291.52 187.41 290.82 187.93 C 291.13 186.85 293.27 184.75 291.53 184.28 C 290.33 187.00 287.80 184.74 286.05 183.93 C 286.33 183.44 286.87 182.48 287.15 181.99 L 289.24 183.61 L 287.51 180.45 L 290.27 182.50 L 288.64 179.61 L 291.60 181.24 L 290.04 178.99 Z" />
<path fill="#ffffff" opacity="1.00" d=" M 197.22 182.85 C 196.45 181.53 198.45 180.00 199.65 180.48 C 200.01 181.70 198.53 183.78 197.22 182.85 Z" />
<path fill="#ffffff" opacity="1.00" d=" M 245.03 183.30 C 248.34 182.29 251.83 182.24 255.22 182.93 C 253.58 183.39 252.01 183.98 250.60 184.95 C 250.51 184.46 250.33 183.49 250.24 183.01 C 248.86 183.25 247.47 183.47 246.08 183.69 C 241.74 185.18 237.29 186.48 232.78 187.29 C 232.58 186.93 232.18 186.23 231.99 185.88 C 236.42 185.33 240.44 182.81 245.03 183.30 Z" />
<path fill="#ffffff" opacity="1.00" d=" M 263.96 181.09 C 264.75 182.17 265.40 183.33 266.08 184.48 C 263.12 184.24 260.22 184.81 257.29 185.05 C 258.62 186.75 255.75 187.74 255.15 188.99 C 255.30 188.21 255.60 186.66 255.76 185.88 C 252.05 186.35 248.54 187.64 245.09 189.00 C 236.97 192.25 229.00 196.03 221.82 201.06 C 222.25 199.25 224.11 198.57 225.48 197.61 C 237.33 190.61 250.40 185.63 263.68 182.29 L 263.96 181.09 Z" />
<path fill="#ffffff" opacity="1.00" d=" M 320.75 182.10 C 325.68 183.08 321.10 187.35 321.64 190.17 C 321.03 189.56 319.80 188.34 319.19 187.73 C 319.51 189.62 319.79 194.02 316.58 192.61 C 316.43 193.09 316.13 194.05 315.98 194.53 C 314.46 194.53 312.94 194.56 311.43 194.63 C 311.74 193.51 312.02 191.73 313.59 192.41 C 313.48 190.83 313.47 189.24 313.64 187.67 C 313.88 188.23 314.36 189.37 314.60 189.93 C 315.96 189.30 317.34 188.69 318.74 188.13 C 317.05 185.22 321.37 184.86 320.75 182.10 Z" />
<path fill="#ffffff" opacity="1.00" d=" M 265.30 185.00 C 267.37 183.56 266.51 187.84 265.02 185.74 L 265.30 185.00 Z" />
<path fill="#ffffff" opacity="1.00" d=" M 271.27 199.24 C 274.88 195.08 277.57 189.78 282.62 187.16 C 280.98 190.26 278.11 192.41 276.01 195.17 C 276.90 195.65 277.79 196.14 278.69 196.62 C 279.12 196.44 280.00 196.08 280.43 195.89 C 281.34 194.63 282.34 193.42 283.68 192.59 C 283.56 191.94 283.31 190.62 283.18 189.96 C 286.52 189.21 289.98 189.70 293.37 189.58 C 289.92 193.33 290.38 199.63 285.76 202.31 C 286.17 201.45 286.98 199.74 287.39 198.89 C 286.99 198.37 286.59 197.85 286.20 197.33 C 285.59 198.90 284.68 200.27 283.47 201.43 L 283.85 199.83 C 283.26 199.45 282.69 199.07 282.11 198.69 C 281.49 199.38 280.26 200.76 279.64 201.45 C 279.85 199.42 280.81 198.34 282.51 198.23 C 282.06 197.58 281.62 196.93 281.19 196.28 C 280.37 197.75 279.51 199.20 278.62 200.62 C 278.22 199.58 277.84 198.56 277.37 197.56 C 276.80 198.81 276.01 199.90 274.98 200.83 C 275.35 200.06 276.10 198.53 276.47 197.77 C 276.01 197.40 275.55 197.04 275.09 196.68 C 274.82 198.71 272.82 199.80 271.47 201.12 C 269.49 201.31 268.34 203.09 266.78 204.11 C 267.55 202.52 268.85 201.32 270.10 200.13 C 270.40 199.91 270.98 199.46 271.27 199.24 M 284.91 191.06 C 284.33 192.49 283.57 193.82 282.65 195.05 C 283.40 196.27 284.08 197.54 284.80 198.79 C 285.16 196.51 287.39 194.07 289.15 196.60 C 289.49 195.62 290.16 193.67 290.50 192.69 C 288.44 192.98 286.49 192.39 284.91 191.06 Z" />
<path fill="#ffffff" opacity="1.00" d=" M 294.04 192.03 C 293.93 190.77 295.77 189.06 297.03 189.45 C 297.01 189.77 296.99 190.40 296.97 190.71 C 296.15 191.69 295.17 192.13 294.04 192.03 Z" />
<path fill="#ffffff" opacity="1.00" d=" M 297.43 191.23 C 298.25 190.44 299.18 189.83 300.22 189.39 C 298.85 191.40 296.39 193.57 298.78 195.95 C 299.47 192.98 301.46 190.65 304.10 189.23 C 303.87 192.99 300.73 194.97 298.31 197.35 C 297.96 196.57 297.62 195.78 297.28 195.00 C 296.40 198.48 292.81 199.48 289.71 199.74 C 290.93 197.48 292.37 195.34 293.86 193.25 C 293.57 194.48 292.99 196.96 292.70 198.19 C 293.06 197.47 293.44 196.75 293.81 196.04 C 295.81 195.12 297.08 192.88 296.97 190.71 L 297.43 191.23 Z" />
<path fill="#ffffff" opacity="1.00" d=" M 199.71 193.53 C 200.19 193.16 201.14 192.43 201.62 192.06 C 202.04 192.66 202.46 193.26 202.88 193.86 L 204.51 192.18 C 204.56 192.54 204.66 193.26 204.71 193.62 C 202.75 195.02 200.63 196.30 199.21 198.31 C 201.20 196.83 203.55 196.09 205.82 195.18 C 206.20 196.06 206.60 196.92 207.02 197.79 C 206.55 197.70 205.63 197.50 205.17 197.40 L 205.17 198.60 C 202.65 200.35 200.89 203.27 197.84 204.17 C 199.48 201.06 202.66 199.24 204.88 196.61 C 202.14 198.14 199.67 200.08 197.08 201.84 C 197.52 200.54 197.96 199.25 198.40 197.95 L 199.24 197.73 C 199.33 195.96 200.17 195.01 201.77 194.89 C 201.08 194.43 200.40 193.98 199.71 193.53 Z" />
<path fill="#ffffff" opacity="1.00" d=" M 253.41 198.75 C 257.17 197.02 260.17 193.79 264.20 192.68 C 261.19 196.61 256.20 198.19 252.29 200.99 C 252.46 200.24 252.82 198.75 253.00 198.00 L 253.41 198.75 Z" />
<path fill="#ffffff" opacity="1.00" d=" M 197.52 207.97 C 200.45 204.65 203.57 201.31 207.37 198.98 C 204.89 202.68 201.45 205.85 197.52 207.97 Z" />
<path fill="#ffffff" opacity="1.00" d=" M 306.88 201.77 C 307.56 200.93 308.20 200.06 308.83 199.18 C 310.77 200.84 311.38 203.41 308.65 204.76 C 309.40 205.87 310.11 207.01 310.78 208.18 C 308.46 206.00 306.49 203.46 304.61 200.91 L 306.88 201.77 Z" />
<path fill="#ffffff" opacity="1.00" d=" M 236.67 200.00 C 236.62 200.49 236.54 201.48 236.50 201.97 C 238.64 201.18 240.74 200.26 242.75 199.16 C 242.54 200.89 242.88 202.81 241.79 204.33 L 241.29 201.17 C 239.81 205.17 234.86 203.28 231.69 203.03 C 233.39 202.10 235.37 201.53 236.67 200.00 Z" />
<path fill="#ffffff" opacity="1.00" d=" M 247.64 200.57 L 247.24 199.46 C 248.26 199.41 250.30 199.32 251.31 199.27 C 251.50 200.17 251.75 201.07 252.02 201.96 C 249.52 203.41 247.52 205.62 245.58 207.73 C 244.34 208.74 246.27 209.45 246.89 209.96 C 245.42 210.54 243.95 211.13 242.43 211.57 L 242.32 212.65 C 241.72 213.07 240.51 213.91 239.91 214.33 C 240.80 214.63 241.70 214.94 242.61 215.23 C 238.58 217.56 235.27 220.91 231.29 223.32 C 229.14 222.93 227.66 224.66 226.02 225.70 C 226.33 224.54 226.65 223.38 227.00 222.24 C 225.69 223.63 224.25 224.90 222.67 225.97 C 223.46 224.94 225.05 222.86 225.84 221.82 L 222.13 224.02 C 219.52 223.76 220.70 220.88 220.52 219.18 C 220.78 219.02 221.30 218.69 221.55 218.53 C 221.67 218.93 221.89 219.73 222.00 220.13 C 223.19 220.03 224.32 219.68 225.40 219.06 C 224.10 220.29 222.34 221.09 221.60 222.82 C 223.89 221.65 226.14 220.15 228.82 220.19 L 228.24 221.61 C 228.86 221.61 230.12 221.61 230.75 221.61 L 230.28 220.71 C 232.40 220.43 234.21 219.27 235.60 217.67 C 237.11 217.67 239.05 217.70 239.31 215.78 C 239.69 215.35 239.69 215.35 239.31 215.78 C 238.50 215.78 236.88 215.80 236.07 215.80 C 237.44 214.46 240.04 214.11 240.81 212.19 C 237.97 213.04 235.74 215.28 233.31 216.93 L 233.44 215.48 C 232.87 215.44 231.72 215.36 231.15 215.33 C 233.95 213.00 237.36 211.92 240.78 210.89 L 241.23 210.31 L 243.54 210.87 L 242.36 209.44 C 244.38 207.42 245.89 204.93 248.23 203.20 C 247.16 203.55 246.09 203.75 245.01 203.78 C 244.94 203.40 244.79 202.63 244.71 202.25 L 243.37 202.74 L 243.30 200.32 C 244.74 200.40 246.19 200.49 247.64 200.57 Z" />
<path fill="#ffffff" opacity="1.00" d=" M 302.16 202.41 C 305.93 202.91 307.25 207.16 307.64 210.42 C 306.53 209.75 305.42 209.09 304.31 208.43 C 303.78 206.99 303.27 205.54 302.79 204.08 C 302.43 204.83 302.08 205.59 301.74 206.35 C 302.12 207.44 302.49 208.53 302.84 209.63 C 302.42 209.51 301.58 209.27 301.16 209.15 C 300.94 207.58 300.61 206.03 300.02 204.56 C 300.81 204.40 301.60 204.24 302.40 204.09 L 302.16 202.41 Z" />
<path fill="#ffffff" opacity="1.00" d=" M 201.77 208.97 C 202.88 206.53 204.88 204.59 207.15 203.21 C 206.91 206.12 203.56 207.08 201.77 208.97 Z" />
<path fill="#ffffff" opacity="1.00" d=" M 272.08 204.87 C 274.62 203.66 277.13 206.07 278.81 207.72 L 278.33 205.53 C 279.21 205.60 280.97 205.74 281.85 205.80 L 281.70 204.88 C 282.48 204.81 283.26 204.75 284.05 204.68 C 284.53 205.81 285.03 206.93 285.56 208.05 C 284.72 209.25 283.96 210.49 283.28 211.78 C 285.02 211.21 285.62 209.39 286.62 208.05 C 287.17 208.85 288.27 210.45 288.82 211.25 L 286.33 210.10 C 287.03 212.58 284.50 212.63 282.86 211.91 C 282.57 212.07 281.99 212.38 281.70 212.53 C 281.15 211.68 280.60 210.84 280.05 210.00 C 277.99 208.76 275.97 207.33 274.64 205.30 C 274.00 205.19 272.72 204.98 272.08 204.87 Z" />
<path fill="#ffffff" opacity="1.00" d=" M 293.37 204.60 C 294.40 204.57 295.08 205.42 294.38 206.58 C 295.18 206.82 296.77 207.30 297.56 207.53 C 297.79 206.80 298.25 205.32 298.48 204.58 C 298.49 205.54 298.50 207.45 298.51 208.40 C 301.76 208.84 297.63 209.90 296.80 210.68 C 296.78 210.27 296.74 209.45 296.71 209.04 C 296.40 209.72 295.78 211.10 295.47 211.79 L 294.70 210.05 C 294.33 210.24 293.59 210.62 293.22 210.81 C 293.57 208.75 293.67 206.66 293.37 204.60 Z" />
<path fill="#ffffff" opacity="1.00" d=" M 235.98 208.84 C 237.03 205.42 241.84 205.27 244.50 203.94 C 241.91 205.96 239.05 207.66 235.98 208.84 Z" />
<path fill="#ffffff" opacity="1.00" d=" M 289.79 204.16 C 292.03 206.00 293.46 211.28 289.66 212.11 C 289.79 209.46 289.70 206.81 289.79 204.16 Z" />
<path fill="#ffffff" opacity="1.00" d=" M 287.90 208.23 C 291.21 208.51 286.59 211.20 287.90 208.23 Z" />
</g>
</svg>
