<?xml version="1.0" encoding="UTF-8" ?>
<!DOCTYPE svg PUBLIC "-//W3C//DTD SVG 1.1//EN" "http://www.w3.org/Graphics/SVG/1.1/DTD/svg11.dtd">
<svg width="512pt" height="256pt" viewBox="0 0 512 256" version="1.1" xmlns="http://www.w3.org/2000/svg">
<g id="#ffffffff">
<path fill="#ffffff" opacity="1.00" d=" M 255.65 13.53 C 256.79 11.61 258.30 9.93 260.15 8.65 C 259.66 10.61 259.20 12.60 258.36 14.44 C 261.54 15.40 262.06 10.68 263.94 9.00 C 263.32 12.57 259.69 15.03 260.00 18.82 C 259.07 20.33 258.11 21.88 256.50 22.76 C 255.81 19.83 259.30 17.86 258.48 15.01 C 257.37 16.45 256.54 18.18 254.92 19.13 C 255.74 16.51 257.40 14.27 258.98 12.06 C 258.15 12.43 256.49 13.16 255.65 13.53 Z" />
<path fill="#ffffff" opacity="1.00" d=" M 217.03 14.98 C 219.91 17.71 223.55 20.16 225.10 23.92 C 221.40 22.12 219.28 18.26 217.03 14.98 Z" />
<path fill="#ffffff" opacity="1.00" d=" M 223.84 17.75 C 226.19 18.41 228.16 20.58 228.21 23.07 C 226.44 21.58 224.87 19.84 223.84 17.75 Z" />
<path fill="#ffffff" opacity="1.00" d=" M 261.85 18.86 C 262.85 18.59 263.84 18.32 264.85 18.04 C 263.86 20.40 263.06 22.84 262.61 25.36 C 262.98 24.66 263.73 23.28 264.10 22.59 C 265.09 22.71 266.04 22.56 266.94 22.14 C 265.91 23.85 266.46 25.78 266.76 27.61 C 266.46 29.25 265.58 30.34 264.11 30.85 C 265.05 28.79 265.59 26.66 265.73 24.47 C 264.87 26.08 264.05 27.71 263.28 29.36 C 262.30 28.45 262.63 27.06 262.52 25.87 C 260.81 25.53 260.46 24.49 261.47 22.77 L 259.29 23.16 C 260.12 21.72 260.99 20.29 261.85 18.86 Z" />
<path fill="#ffffff" opacity="1.00" d=" M 213.18 21.95 C 214.03 21.22 214.92 20.53 215.77 19.79 C 217.51 21.70 219.19 23.66 220.53 25.88 C 220.40 25.22 220.16 23.88 220.03 23.22 C 219.62 22.53 218.80 21.16 218.39 20.47 C 220.51 21.76 223.06 23.69 223.03 26.44 L 221.93 24.43 C 221.22 25.43 220.34 26.72 221.50 27.93 C 219.49 26.92 217.63 25.59 216.37 23.70 C 215.26 23.19 214.13 22.72 213.18 21.95 Z" />
<path fill="#ffffff" opacity="1.00" d=" M 247.15 19.62 C 249.09 20.11 249.47 22.14 249.98 23.78 C 250.44 23.65 251.37 23.39 251.83 23.27 C 251.91 23.89 252.06 25.15 252.13 25.77 C 251.41 25.64 249.98 25.36 249.27 25.22 C 248.45 23.40 247.74 21.53 247.15 19.62 Z" />
<path fill="#ffffff" opacity="1.00" d=" M 267.15 30.71 C 266.58 29.41 267.28 26.82 268.67 26.49 C 269.33 27.75 268.92 30.92 267.15 30.71 Z" />
<path fill="#ffffff" opacity="1.00" d=" M 192.64 27.01 C 195.19 27.03 197.52 28.45 198.57 30.77 C 200.43 31.60 202.34 32.35 204.06 33.48 C 201.53 34.45 198.91 32.57 196.41 34.00 C 196.48 31.07 194.58 28.93 192.64 27.01 Z" />
<path fill="#ffffff" opacity="1.00" d=" M 202.37 28.00 C 203.72 27.47 206.22 29.03 205.86 30.55 C 204.48 30.91 202.14 29.54 202.37 28.00 Z" />
<path fill="#ffffff" opacity="1.00" d=" M 229.78 28.55 C 231.27 29.25 232.55 30.28 233.81 31.33 C 234.62 30.75 235.40 30.11 236.18 29.48 C 237.15 30.50 238.15 31.52 238.68 32.85 C 238.20 32.48 237.26 31.75 236.79 31.39 C 236.24 32.39 235.74 33.42 235.23 34.45 C 233.19 32.72 230.91 31.07 229.78 28.55 Z" />
<path fill="#ffffff" opacity="1.00" d=" M 270.48 38.55 C 270.63 35.08 270.11 31.33 272.81 28.67 C 272.15 31.91 271.89 35.20 272.00 38.50 L 270.48 38.55 Z" />
<path fill="#ffffff" opacity="1.00" d=" M 257.37 32.18 C 258.90 31.91 260.40 34.22 259.86 35.60 C 258.38 35.90 256.82 33.51 257.37 32.18 Z" />
<path fill="#ffffff" opacity="1.00" d=" M 262.97 32.12 C 264.04 32.73 264.91 33.56 265.55 34.60 C 265.94 33.79 266.33 32.98 266.73 32.17 C 267.29 33.00 267.86 33.84 268.42 34.68 L 269.87 34.39 C 269.47 36.18 268.63 40.02 266.14 38.96 C 264.85 36.79 263.70 34.53 262.97 32.12 M 266.27 35.16 C 266.81 35.80 266.81 35.80 266.27 35.16 Z" />
<path fill="#ffffff" opacity="1.00" d=" M 195.30 38.07 C 194.05 36.06 190.41 35.67 190.48 33.03 C 192.92 33.94 195.32 35.00 197.54 36.38 C 199.00 36.98 200.85 37.20 201.51 38.89 C 200.62 38.78 198.84 38.55 197.95 38.44 C 198.95 39.44 199.98 40.43 200.93 41.49 C 197.32 39.77 192.13 40.54 190.17 36.36 C 191.88 36.93 193.57 37.56 195.30 38.07 Z" />
<path fill="#ffffff" opacity="1.00" d=" M 205.02 33.16 C 207.11 33.54 209.08 34.36 211.03 35.20 C 211.17 35.48 211.44 36.06 211.58 36.35 C 211.24 36.55 210.55 36.96 210.21 37.17 L 209.65 37.58 C 208.84 37.87 207.23 38.44 206.43 38.73 L 206.70 37.45 C 205.84 37.32 204.13 37.05 203.27 36.91 C 202.52 33.46 207.54 37.48 208.13 35.79 C 207.61 34.42 206.08 34.00 205.02 33.16 Z" />
<path fill="#ffffff" opacity="1.00" d=" M 221.08 33.42 C 221.72 34.06 221.72 34.06 221.08 33.42 Z" />
<path fill="#ffffff" opacity="1.00" d=" M 246.99 33.07 C 247.96 33.90 248.89 34.76 249.83 35.64 C 249.93 34.97 250.13 33.64 250.23 32.97 C 251.89 34.56 253.33 36.36 254.43 38.39 C 252.59 39.23 253.74 40.20 255.11 40.51 C 256.04 42.65 257.72 44.43 258.33 46.72 C 256.55 45.91 254.62 45.66 252.69 45.54 C 252.33 44.55 251.70 43.79 250.81 43.25 C 247.17 40.84 244.68 37.12 241.20 34.50 C 242.36 34.45 243.52 34.39 244.68 34.33 C 247.20 37.81 250.62 40.48 253.30 43.84 C 253.84 44.63 254.72 44.84 255.58 44.45 C 254.37 42.91 253.20 41.35 251.84 39.95 C 251.77 39.17 251.63 37.63 251.56 36.86 C 251.06 37.40 250.56 37.94 250.06 38.48 C 249.00 36.70 247.78 35.00 246.99 33.07 Z" />
<path fill="#ffffff" opacity="1.00" d=" M 254.38 32.96 C 257.18 33.43 258.08 36.33 259.27 38.50 L 260.52 38.49 C 259.00 39.69 259.12 42.64 261.38 42.74 C 261.33 43.42 261.21 44.77 261.15 45.45 C 256.91 42.63 257.00 36.91 254.38 32.96 Z" />
<path fill="#ffffff" opacity="1.00" d=" M 272.88 38.15 C 273.34 36.14 273.42 33.99 274.46 32.16 C 275.85 34.65 276.99 37.30 274.89 39.85 L 276.51 39.71 C 276.14 42.21 277.56 45.94 274.21 46.79 C 274.28 44.73 274.47 42.68 274.68 40.63 C 274.07 39.81 273.47 38.99 272.88 38.15 Z" />
<path fill="#ffffff" opacity="1.00" d=" M 198.63 34.68 C 198.82 33.07 202.04 34.59 201.66 35.86 C 200.40 36.21 199.40 35.82 198.63 34.68 Z" />
<path fill="#ffffff" opacity="1.00" d=" M 222.36 33.21 C 224.49 34.05 226.62 34.92 228.78 35.68 C 228.64 36.13 228.34 37.04 228.20 37.49 C 226.21 37.32 224.27 36.90 222.37 36.33 C 222.36 35.55 222.36 33.99 222.36 33.21 Z" />
<path fill="#ffffff" opacity="1.00" d=" M 260.98 34.27 C 262.40 34.15 263.48 36.51 262.87 37.67 C 261.46 37.74 260.35 35.45 260.98 34.27 Z" />
<path fill="#ffffff" opacity="1.00" d=" M 237.13 37.28 C 239.58 37.88 241.84 39.42 243.08 41.65 C 240.65 40.90 238.55 39.39 237.13 37.28 Z" />
<path fill="#ffffff" opacity="1.00" d=" M 186.64 38.76 C 189.47 39.55 191.96 41.35 194.99 41.45 C 198.01 41.63 199.10 44.86 200.97 46.75 C 199.07 45.78 196.86 45.72 195.00 44.69 C 194.54 45.07 194.09 45.45 193.65 45.84 L 196.05 47.07 C 193.20 47.58 190.77 45.91 188.39 44.69 L 188.11 45.81 C 191.10 47.36 194.44 48.40 197.00 50.68 C 193.86 51.13 191.10 49.24 188.92 47.21 C 186.90 45.16 183.55 44.91 181.94 42.44 C 183.66 42.65 185.38 42.88 187.11 42.59 C 189.08 43.51 191.05 44.37 193.15 45.00 C 191.86 41.99 188.17 41.52 186.64 38.76 M 195.50 43.22 C 195.80 46.43 198.63 41.86 195.50 43.22 Z" />
<path fill="#ffffff" opacity="1.00" d=" M 203.04 39.19 C 204.84 39.67 206.58 40.37 208.38 40.92 L 208.61 39.46 C 209.95 39.98 211.31 40.41 212.71 40.77 C 212.91 41.39 213.30 42.65 213.49 43.28 C 210.06 42.25 204.95 42.79 203.04 39.19 Z" />
<path fill="#ffffff" opacity="1.00" d=" M 226.97 41.96 C 227.14 40.91 227.45 39.92 227.89 38.99 C 229.07 39.36 230.27 40.03 231.52 39.49 C 234.37 40.93 237.20 42.45 239.80 44.32 C 239.91 44.78 240.13 45.68 240.24 46.14 C 238.90 45.46 237.57 44.77 236.25 44.05 C 236.33 44.66 236.50 45.89 236.58 46.50 C 234.36 45.35 231.96 44.45 230.10 42.74 C 229.06 42.47 228.01 42.21 226.97 41.96 Z" />
<path fill="#ffffff" opacity="1.00" d=" M 262.94 39.23 C 263.57 39.28 264.81 39.38 265.44 39.43 C 266.18 40.42 267.04 41.32 267.96 42.17 C 268.34 43.48 268.73 44.80 268.81 46.18 C 267.08 45.31 266.57 43.39 265.67 41.84 C 265.83 42.89 266.14 44.99 266.29 46.04 C 264.17 44.47 263.95 41.53 262.94 39.23 M 265.25 41.06 C 265.88 41.62 265.88 41.62 265.25 41.06 Z" />
<path fill="#ffffff" opacity="1.00" d=" M 279.57 39.19 C 279.85 39.18 280.42 39.16 280.70 39.15 C 280.38 40.04 280.08 40.93 279.77 41.82 C 280.42 41.65 281.71 41.32 282.35 41.15 C 281.71 43.09 281.05 45.03 280.47 46.99 C 279.76 46.60 279.05 46.22 278.34 45.84 C 278.34 45.15 278.35 43.77 278.35 43.08 C 278.82 41.81 279.22 40.50 279.57 39.19 Z" />
<path fill="#ffffff" opacity="1.00" d=" M 261.38 42.74 C 260.74 41.76 260.65 40.76 261.10 39.75 C 262.23 40.80 263.22 42.57 262.99 44.16 C 262.59 43.80 261.79 43.09 261.38 42.74 Z" />
<path fill="#ffffff" opacity="1.00" d=" M 268.68 39.65 C 271.75 40.10 271.61 43.81 272.71 46.04 C 272.10 46.03 270.89 46.01 270.28 46.01 C 269.64 43.91 268.95 41.83 268.68 39.65 Z" />
<path fill="#ffffff" opacity="1.00" d=" M 204.45 44.46 C 204.60 43.54 204.77 42.62 204.94 41.70 C 205.08 42.18 205.37 43.14 205.51 43.61 C 208.37 44.25 211.71 43.61 214.15 45.48 C 213.48 45.74 212.15 46.25 211.48 46.50 C 209.07 46.07 206.56 45.82 204.45 44.46 Z" />
<path fill="#ffffff" opacity="1.00" d=" M 219.17 43.21 C 221.67 43.74 224.24 45.61 226.80 44.22 C 226.69 45.07 226.48 46.77 226.38 47.63 C 224.31 47.38 222.37 46.61 220.52 45.70 C 220.71 46.08 221.10 46.83 221.30 47.20 C 225.16 48.34 230.27 48.72 232.14 52.89 C 228.96 53.20 226.90 49.90 223.75 50.05 C 223.37 46.81 220.56 50.72 223.75 50.05 C 225.65 51.82 228.47 52.74 229.54 55.28 C 226.86 54.72 224.92 52.65 222.47 51.61 C 219.91 52.04 218.02 49.97 215.91 48.95 C 217.26 51.80 220.97 52.22 222.30 55.17 C 224.54 58.86 222.67 54.49 223.79 53.68 C 224.41 54.31 225.65 55.57 226.26 56.20 C 225.52 56.97 224.80 57.77 224.10 58.58 C 220.86 56.22 218.69 52.70 215.32 50.48 C 215.05 48.50 215.64 45.26 218.31 47.62 C 218.92 46.62 219.71 45.77 220.53 44.95 L 218.42 45.04 C 218.61 44.58 218.98 43.67 219.17 43.21 M 220.17 48.31 C 220.81 48.78 220.81 48.78 220.17 48.31 Z" />
<path fill="#ffffff" opacity="1.00" d=" M 227.49 43.92 C 230.39 46.07 231.94 49.85 235.73 50.71 C 235.52 49.90 235.11 48.30 234.91 47.49 L 235.83 49.24 C 237.69 47.40 239.81 48.87 241.54 50.14 C 241.91 49.11 242.56 48.18 242.83 47.11 C 242.37 46.61 241.44 45.61 240.98 45.11 C 242.69 45.62 245.19 47.51 243.23 49.29 C 241.74 50.29 242.94 51.63 243.64 52.69 C 241.90 51.99 240.20 51.26 238.58 50.32 C 237.96 50.21 236.72 50.00 236.09 49.89 C 241.10 53.41 247.98 55.13 250.74 61.10 C 249.73 60.80 247.70 60.20 246.69 59.89 C 247.30 60.73 248.52 62.40 249.13 63.24 C 247.40 62.63 245.79 61.44 246.55 59.37 C 242.65 55.14 237.14 53.21 232.61 49.87 C 230.56 49.25 228.64 48.32 226.82 47.20 C 226.99 46.38 227.33 44.74 227.49 43.92 Z" />
<path fill="#ffffff" opacity="1.00" d=" M 285.97 46.09 C 289.31 46.60 292.13 48.70 295.14 50.12 C 294.41 50.74 292.94 51.96 292.20 52.57 C 293.63 52.75 295.05 52.93 296.48 53.10 C 295.90 55.17 293.54 54.50 291.98 54.28 C 290.25 53.30 290.40 50.39 287.93 50.27 C 288.46 49.61 289.00 48.95 289.55 48.29 C 288.21 47.79 287.01 47.06 285.97 46.09 Z" />
<path fill="#ffffff" opacity="1.00" d=" M 247.29 48.23 C 249.43 49.42 252.01 51.25 251.93 53.96 C 250.19 52.22 248.33 50.50 247.29 48.23 Z" />
<path fill="#ffffff" opacity="1.00" d=" M 252.89 47.98 C 254.99 48.35 256.45 49.93 257.37 51.77 C 258.33 50.93 258.95 51.06 259.22 52.14 L 259.27 53.00 C 259.32 54.20 260.52 54.77 261.45 55.24 C 261.22 55.74 260.76 56.73 260.53 57.23 C 257.71 54.39 255.51 50.99 252.89 47.98 Z" />
<path fill="#ffffff" opacity="1.00" d=" M 276.25 51.58 C 276.16 50.04 276.71 48.80 277.90 47.86 C 276.91 50.81 277.35 54.90 274.56 56.82 C 274.85 54.92 275.18 53.01 275.50 51.11 C 274.31 51.71 273.61 52.65 273.39 53.93 C 273.01 52.30 272.60 50.68 272.22 49.05 C 273.78 49.51 275.05 50.51 276.25 51.58 Z" />
<path fill="#ffffff" opacity="1.00" d=" M 279.55 48.74 C 280.29 49.87 281.06 50.97 281.90 52.03 C 282.45 51.56 283.54 50.62 284.08 50.15 C 283.37 52.46 282.07 54.52 281.20 56.76 C 284.00 56.14 283.76 51.53 286.84 52.15 C 284.95 55.04 284.67 58.45 285.33 61.78 L 287.59 61.69 C 287.19 59.84 286.75 58.00 286.39 56.14 C 287.16 56.50 287.93 56.88 288.70 57.25 C 288.39 62.12 287.52 67.06 289.28 71.77 L 290.55 71.94 C 290.52 69.86 290.38 67.66 291.63 65.85 C 291.70 68.53 291.63 71.20 291.68 73.88 C 293.32 72.27 293.02 69.78 294.25 67.96 C 294.50 70.27 294.47 72.59 294.23 74.90 L 296.03 74.31 C 295.81 75.27 295.60 76.22 295.39 77.18 C 294.42 77.35 293.45 77.51 292.49 77.68 C 291.92 77.45 290.79 77.00 290.22 76.77 C 289.87 74.76 288.21 73.44 287.20 71.75 C 286.90 68.91 283.79 69.45 281.80 69.84 C 283.46 71.76 287.40 72.14 287.34 75.28 C 284.85 74.16 282.23 72.88 280.83 70.41 C 279.62 68.47 277.05 67.55 276.60 65.16 C 275.09 64.55 273.59 63.91 272.11 63.24 C 272.80 62.56 273.49 61.88 274.20 61.21 C 274.66 61.72 275.57 62.75 276.03 63.27 C 275.84 62.43 275.47 60.76 275.29 59.93 L 277.85 61.35 C 277.68 61.83 277.33 62.81 277.15 63.29 C 279.57 63.45 281.39 65.10 281.47 67.58 C 282.50 68.05 284.56 68.98 285.59 69.44 C 284.69 66.41 283.24 63.38 283.67 60.13 C 283.39 61.80 282.59 63.24 281.33 64.38 C 280.87 61.84 279.75 59.51 279.15 57.02 C 278.73 57.14 277.89 57.38 277.47 57.50 C 278.14 54.58 279.16 51.73 279.55 48.74 M 280.04 52.09 C 278.79 52.94 279.95 55.59 281.35 54.35 C 282.58 53.49 281.47 50.85 280.04 52.09 Z" />
<path fill="#ffffff" opacity="1.00" d=" M 185.33 49.79 C 186.13 49.93 187.73 50.20 188.53 50.34 C 188.78 50.85 189.30 51.88 189.56 52.39 C 190.93 53.03 192.38 53.61 193.46 54.72 C 190.14 55.16 186.06 53.74 183.99 51.19 C 184.92 51.41 186.76 51.86 187.69 52.08 C 187.10 51.51 185.92 50.36 185.33 49.79 Z" />
<path fill="#ffffff" opacity="1.00" d=" M 209.83 50.41 C 213.97 51.26 216.36 55.06 219.32 57.70 C 220.55 58.96 222.25 60.12 222.11 62.09 C 219.29 60.52 217.55 57.19 214.36 56.38 L 214.95 55.23 C 212.89 56.75 211.20 54.54 209.53 53.69 C 210.25 53.13 210.96 52.56 211.67 52.00 L 209.56 52.00 C 209.63 51.60 209.77 50.80 209.83 50.41 M 212.60 53.92 C 213.41 54.60 213.41 54.60 212.60 53.92 C 212.12 53.33 212.12 53.33 212.60 53.92 Z" />
<path fill="#ffffff" opacity="1.00" d=" M 245.54 53.84 C 245.47 52.17 243.61 50.75 244.68 49.06 C 246.91 51.19 249.69 53.00 250.99 55.91 C 249.78 55.52 248.63 54.97 247.55 54.31 L 246.17 54.97 L 247.06 52.87 L 245.54 53.84 Z" />
<path fill="#ffffff" opacity="1.00" d=" M 260.05 50.40 C 261.33 49.84 262.85 52.12 261.82 53.08 C 260.82 52.80 259.37 51.50 260.05 50.40 Z" />
<path fill="#ffffff" opacity="1.00" d=" M 268.23 53.41 C 269.82 53.90 271.31 54.65 272.81 55.39 C 272.35 56.49 271.89 57.58 271.45 58.69 C 272.68 59.03 273.47 59.74 273.83 60.80 C 273.28 60.97 272.18 61.30 271.63 61.47 C 270.21 60.73 268.70 60.21 267.20 59.67 C 267.47 58.82 267.73 57.98 268.00 57.13 C 266.64 56.77 264.84 56.80 264.78 54.92 C 266.17 55.37 267.55 55.85 268.93 56.37 C 269.38 55.98 269.84 55.59 270.29 55.20 C 269.78 54.75 268.74 53.86 268.23 53.41 Z" />
<path fill="#ffffff" opacity="1.00" d=" M 236.48 54.48 C 238.44 54.51 240.26 55.10 241.95 56.23 C 241.72 56.42 241.27 56.80 241.05 57.00 C 240.32 57.14 238.86 57.44 238.13 57.58 C 239.54 58.11 240.39 58.90 240.70 59.95 L 240.51 60.96 C 238.64 59.16 237.21 56.98 236.48 54.48 Z" />
<path fill="#ffffff" opacity="1.00" d=" M 302.82 55.57 C 302.74 55.79 302.60 56.23 302.52 56.45 C 300.36 57.44 298.15 58.31 295.94 59.19 C 295.94 58.67 295.93 57.62 295.93 57.10 C 298.23 56.62 300.53 56.13 302.82 55.57 Z" />
<path fill="#ffffff" opacity="1.00" d=" M 182.20 57.15 C 186.31 56.72 190.82 55.77 194.88 57.31 C 193.90 58.02 192.82 58.52 191.64 58.83 C 192.90 60.81 195.70 59.55 197.61 60.11 C 196.57 62.50 193.75 61.39 191.75 61.67 C 191.78 58.64 188.37 59.70 186.44 59.32 L 186.54 60.59 C 183.97 60.70 181.40 60.81 178.84 60.61 C 180.66 58.41 184.04 59.79 186.45 59.24 C 185.38 58.72 183.26 57.67 182.20 57.15 Z" />
<path fill="#ffffff" opacity="1.00" d=" M 203.84 56.55 C 205.15 56.44 206.45 56.31 207.76 56.16 C 211.22 57.99 214.19 60.55 217.43 62.72 C 218.26 63.20 218.80 63.91 219.05 64.86 C 215.81 64.06 213.38 61.62 210.32 60.47 L 210.40 59.48 C 210.00 59.49 209.21 59.52 208.81 59.54 C 207.44 58.12 205.53 57.47 203.84 56.55 Z" />
<path fill="#ffffff" opacity="1.00" d=" M 241.05 57.00 C 242.45 56.72 244.28 57.89 244.41 59.36 C 243.08 59.44 241.33 58.29 241.05 57.00 Z" />
<path fill="#ffffff" opacity="1.00" d=" M 203.24 57.95 C 204.76 58.33 206.28 58.70 207.82 59.05 C 206.64 59.78 205.38 60.47 203.95 60.48 C 205.77 60.61 207.78 61.40 207.16 63.64 C 206.25 63.70 204.43 63.80 203.52 63.86 C 206.33 65.93 210.10 66.52 212.42 69.24 C 209.87 69.05 207.34 68.40 205.29 66.82 C 204.26 66.44 203.25 66.06 202.24 65.67 C 200.72 65.36 199.37 64.73 198.88 63.14 C 199.55 63.24 200.89 63.43 201.56 63.52 C 202.14 62.61 202.76 61.72 203.36 60.82 L 201.92 60.70 C 202.25 60.01 202.91 58.64 203.24 57.95 M 204.19 62.13 C 204.25 62.44 204.38 63.07 204.44 63.38 L 205.41 63.07 L 205.62 62.14 C 205.26 62.14 204.54 62.13 204.19 62.13 Z" />
<path fill="#ffffff" opacity="1.00" d=" M 233.15 58.25 C 236.38 59.25 239.25 61.06 242.18 62.70 C 241.81 62.01 241.07 60.64 240.70 59.95 L 241.67 60.05 C 244.50 63.04 248.90 64.11 251.06 67.79 C 246.90 68.72 243.62 65.74 240.27 63.85 C 238.03 61.78 234.39 61.32 233.15 58.25 Z" />
<path fill="#ffffff" opacity="1.00" d=" M 294.87 62.50 C 300.87 61.46 307.24 61.23 312.77 58.53 C 312.97 58.79 313.37 59.30 313.57 59.56 C 309.79 62.08 306.57 66.11 301.94 66.93 C 303.34 65.14 305.38 64.04 307.09 62.57 C 304.80 62.89 302.64 63.68 300.53 64.58 C 300.27 64.33 299.75 63.83 299.49 63.58 C 297.87 64.33 295.97 63.84 294.87 62.50 Z" />
<path fill="#ffffff" opacity="1.00" d=" M 254.96 58.83 C 258.38 61.70 261.35 65.23 265.06 67.87 C 267.22 69.35 268.67 71.60 269.68 73.97 C 267.84 73.19 266.60 71.61 265.53 70.00 C 265.26 70.11 264.72 70.33 264.45 70.44 L 264.32 69.60 C 263.64 70.01 262.96 70.44 262.29 70.86 C 264.58 72.53 266.33 74.85 268.63 76.48 C 270.27 77.58 274.30 78.14 272.35 80.87 C 273.17 80.92 274.81 81.02 275.63 81.07 C 277.33 84.01 272.52 83.43 270.86 83.82 C 269.58 82.49 268.29 81.18 266.93 79.93 C 267.13 79.57 267.52 78.83 267.71 78.47 C 266.39 78.32 265.08 78.16 263.78 77.99 C 264.06 77.62 264.63 76.88 264.92 76.52 C 260.72 75.24 258.56 71.24 255.26 68.74 C 255.43 68.43 255.75 67.80 255.91 67.48 C 254.29 66.16 252.47 64.92 251.58 62.94 C 255.38 64.39 258.06 67.57 261.24 69.97 C 261.56 69.20 261.84 68.42 262.07 67.63 C 258.60 65.77 256.58 62.26 254.96 58.83 M 269.22 79.20 C 269.72 82.39 272.07 77.46 269.22 79.20 Z" />
<path fill="#ffffff" opacity="1.00" d=" M 179.87 62.46 C 182.95 61.93 186.06 61.58 189.19 61.35 C 188.27 64.15 184.17 62.10 182.17 63.06 C 183.31 63.83 184.61 64.39 186.04 64.27 C 185.79 64.65 185.31 65.42 185.07 65.80 C 186.66 65.41 188.29 65.21 189.93 65.05 C 191.68 64.26 193.35 64.57 194.67 66.02 C 191.11 67.03 187.76 68.76 184.04 69.13 C 184.52 68.62 185.47 67.61 185.94 67.11 C 183.88 68.17 181.01 66.95 179.38 68.69 C 179.40 68.33 179.42 67.60 179.44 67.24 C 178.45 67.03 176.49 66.60 175.50 66.39 C 177.41 65.19 179.75 64.66 181.98 65.17 C 182.09 64.79 182.31 64.01 182.42 63.63 C 181.78 63.33 180.50 62.75 179.87 62.46 Z" />
<path fill="#ffffff" opacity="1.00" d=" M 207.48 63.45 C 207.86 62.28 208.30 61.13 208.85 60.03 C 210.30 62.99 214.07 63.48 215.79 66.27 C 212.87 66.20 208.82 66.47 207.16 63.64 C 208.54 64.70 209.48 64.50 209.98 63.04 L 207.48 63.45 Z" />
<path fill="#ffffff" opacity="1.00" d=" M 227.73 61.29 C 230.88 59.98 227.88 64.51 227.73 61.29 Z" />
<path fill="#ffffff" opacity="1.00" d=" M 264.12 61.18 C 266.62 63.26 269.02 65.44 271.47 67.58 C 272.03 68.43 273.07 68.03 273.89 68.05 C 274.84 69.42 275.80 70.78 276.79 72.13 C 278.16 73.11 279.35 74.32 280.53 75.54 C 284.38 76.29 286.94 79.85 289.01 82.92 C 286.62 82.48 285.65 79.37 282.92 80.04 C 282.58 78.90 282.23 77.76 281.88 76.62 C 281.73 77.28 281.44 78.60 281.29 79.26 C 279.25 77.56 278.06 75.15 276.60 73.00 C 276.53 73.77 276.41 75.29 276.35 76.05 C 275.25 74.50 274.36 72.83 273.63 71.08 C 273.09 70.96 272.00 70.71 271.46 70.58 C 269.19 67.30 265.84 64.82 264.12 61.18 Z" />
<path fill="#ffffff" opacity="1.00" d=" M 290.67 64.82 C 288.81 64.42 290.17 60.67 291.85 61.47 C 292.63 62.56 291.96 64.45 290.67 64.82 Z" />
<path fill="#ffffff" opacity="1.00" d=" M 230.29 63.63 C 231.54 61.04 233.63 64.12 235.62 63.60 C 235.95 64.15 236.61 65.26 236.95 65.82 C 233.21 64.79 229.32 66.09 225.59 65.09 C 224.06 61.76 228.58 63.28 230.29 63.63 Z" />
<path fill="#ffffff" opacity="1.00" d=" M 292.95 63.33 C 296.25 63.46 291.27 66.34 292.95 63.33 Z" />
<path fill="#ffffff" opacity="1.00" d=" M 312.40 66.60 C 314.08 64.09 316.65 64.63 319.05 65.67 C 319.31 67.16 320.26 67.88 321.89 67.84 C 319.68 68.53 317.48 69.48 315.14 69.54 C 313.79 69.06 313.23 67.64 312.40 66.60 Z" />
<path fill="#ffffff" opacity="1.00" d=" M 221.99 65.28 C 224.97 65.52 227.93 66.10 230.93 66.10 C 230.61 66.81 229.98 68.23 229.66 68.94 C 227.16 67.68 223.75 67.63 221.99 65.28 Z" />
<path fill="#ffffff" opacity="1.00" d=" M 201.32 66.17 C 201.89 66.77 201.89 66.77 201.32 66.17 Z" />
<path fill="#ffffff" opacity="1.00" d=" M 237.74 67.18 C 238.07 66.43 238.40 65.67 238.73 64.91 C 240.97 65.72 243.67 66.06 245.06 68.28 C 242.56 68.23 240.24 67.09 237.74 67.18 Z" />
<path fill="#ffffff" opacity="1.00" d=" M 231.09 67.01 C 231.45 67.03 232.17 67.05 232.53 67.06 L 232.27 67.98 L 231.27 68.27 C 231.22 67.95 231.13 67.33 231.09 67.01 Z" />
<path fill="#ffffff" opacity="1.00" d=" M 197.96 70.79 C 199.91 71.37 202.02 69.46 201.82 67.49 C 203.14 68.19 204.49 68.84 205.85 69.47 C 206.27 70.48 206.68 71.50 207.09 72.53 C 204.72 71.96 202.23 70.71 199.89 72.10 C 198.27 73.04 196.51 72.61 194.83 72.14 L 195.87 74.08 C 194.94 73.87 193.06 73.45 192.13 73.24 C 193.43 73.73 194.74 74.24 196.02 74.81 C 192.01 75.66 188.22 77.24 184.22 78.11 C 185.20 78.67 186.19 79.22 187.19 79.75 C 184.98 80.19 182.90 81.08 180.82 81.94 C 181.31 80.21 182.65 79.53 184.86 79.91 C 183.67 79.17 182.31 78.84 180.96 78.59 C 183.87 76.93 187.64 76.74 189.97 74.22 C 188.87 74.46 186.67 74.92 185.57 75.16 C 187.99 71.29 193.58 69.53 197.96 70.79 Z" />
<path fill="#ffffff" opacity="1.00" d=" M 217.45 68.46 C 219.23 67.97 220.53 68.47 221.35 69.95 C 221.38 69.57 221.44 68.82 221.47 68.45 C 223.99 68.82 226.67 68.82 228.85 70.33 C 227.52 70.88 226.20 71.46 224.93 72.11 C 225.80 72.18 227.55 72.30 228.42 72.37 C 227.19 74.05 225.42 75.05 223.57 73.39 C 223.47 74.07 223.29 75.41 223.20 76.08 C 222.74 76.67 221.83 77.87 221.38 78.47 C 220.50 77.97 219.58 77.23 218.53 77.72 C 219.24 78.54 219.96 79.35 220.67 80.16 C 217.84 80.20 215.45 81.80 212.97 82.92 C 209.92 84.51 206.97 86.86 203.43 87.04 C 203.10 86.59 202.43 85.69 202.10 85.25 C 201.04 86.10 200.00 86.97 198.97 87.85 C 198.22 87.64 196.73 87.20 195.98 86.98 L 194.96 86.33 C 195.65 86.17 197.02 85.85 197.71 85.69 L 197.27 84.38 C 200.02 85.39 202.39 83.75 204.72 82.56 L 204.50 81.68 C 205.89 81.77 207.17 81.34 208.28 80.52 L 206.06 80.29 C 207.28 77.85 210.12 77.41 212.40 76.46 C 215.16 75.55 217.54 73.87 219.97 72.32 C 217.60 72.70 215.31 73.46 212.94 73.86 C 212.69 73.54 212.18 72.89 211.93 72.57 C 214.56 71.75 217.23 70.94 220.01 70.85 C 219.37 70.25 218.09 69.06 217.45 68.46 Z" />
<path fill="#ffffff" opacity="1.00" d=" M 305.93 70.27 C 306.31 69.08 308.93 68.19 309.29 69.78 C 308.88 70.94 306.31 71.83 305.93 70.27 Z" />
<path fill="#ffffff" opacity="1.00" d=" M 317.93 70.06 C 319.14 70.01 320.35 69.98 321.57 69.96 C 322.25 71.55 323.04 73.10 323.87 74.62 C 323.19 74.53 321.84 74.35 321.17 74.26 C 321.62 74.99 322.53 76.43 322.99 77.16 C 322.22 76.75 321.46 76.34 320.71 75.92 C 321.04 73.48 319.63 71.63 317.93 70.06 Z" />
<path fill="#ffffff" opacity="1.00" d=" M 309.31 70.86 C 310.92 72.71 313.62 70.43 315.23 72.44 C 313.91 72.95 312.59 73.42 311.26 73.87 C 309.21 73.35 306.77 73.12 305.65 75.42 C 307.68 75.51 309.72 75.50 311.76 75.42 C 311.50 75.65 310.98 76.12 310.71 76.35 C 309.33 76.36 307.95 76.39 306.58 76.43 C 305.56 75.45 304.32 75.15 302.86 75.52 C 303.33 74.47 304.17 73.85 305.38 73.66 C 305.44 73.28 305.57 72.52 305.63 72.14 C 307.00 72.10 308.23 71.67 309.31 70.86 Z" />
<path fill="#ffffff" opacity="1.00" d=" M 197.76 74.21 C 198.63 73.73 200.37 72.76 201.24 72.28 C 202.19 73.40 203.47 74.02 204.89 74.34 C 205.15 74.78 205.68 75.66 205.95 76.10 C 203.07 76.29 200.30 75.49 197.76 74.21 Z" />
<path fill="#ffffff" opacity="1.00" d=" M 229.03 79.90 C 230.55 77.52 232.69 74.18 236.03 75.09 C 241.29 76.12 249.17 76.04 250.69 82.52 C 251.12 84.37 252.13 86.16 251.90 88.10 C 249.91 90.35 246.67 91.30 245.23 94.03 C 244.09 96.63 241.63 98.25 239.14 99.39 C 238.35 100.29 237.55 101.19 236.62 101.96 C 236.74 101.05 236.87 100.14 237.02 99.24 C 238.91 98.06 240.77 96.82 242.71 95.70 C 243.02 95.18 243.65 94.13 243.97 93.61 C 243.94 92.98 243.89 91.72 243.87 91.09 C 243.09 89.83 242.41 88.51 241.89 87.12 C 240.93 86.54 239.97 85.96 239.00 85.40 C 239.49 84.51 239.98 83.62 240.47 82.73 C 237.71 79.91 238.70 85.81 236.23 84.97 C 234.75 84.51 233.32 83.93 231.88 83.39 C 231.12 84.70 230.35 86.00 229.56 87.30 C 233.11 86.55 236.84 86.78 239.73 89.17 C 240.66 90.44 241.85 91.46 243.04 92.49 C 242.62 93.29 242.22 94.08 241.81 94.88 C 239.00 96.17 235.97 96.59 232.94 95.86 C 232.73 94.95 232.53 94.04 232.33 93.13 C 234.50 92.47 236.37 93.85 238.26 94.67 C 238.20 92.67 236.13 92.25 234.82 91.39 C 235.63 90.56 236.44 89.74 237.26 88.91 C 234.44 88.35 233.24 91.15 231.03 92.12 C 231.58 90.76 232.18 89.43 232.82 88.11 C 231.87 88.48 229.99 89.23 229.04 89.60 C 229.29 86.37 228.85 83.13 229.03 79.90 M 233.32 78.29 C 233.08 78.68 232.60 79.47 232.36 79.86 C 232.59 80.41 233.03 81.52 233.25 82.07 C 234.42 81.92 235.60 81.84 236.79 81.80 C 241.31 79.60 246.49 83.93 247.87 88.15 C 251.92 87.40 250.08 82.14 247.56 80.56 C 244.07 78.94 240.79 76.61 236.88 76.19 C 235.71 76.93 234.52 77.63 233.32 78.29 Z" />
<path fill="#ffffff" opacity="1.00" d=" M 187.62 80.48 C 191.79 77.72 197.55 74.79 202.35 77.72 C 200.95 78.05 199.55 78.34 198.14 78.60 C 199.63 78.81 201.11 79.09 202.59 79.40 L 201.86 80.88 C 198.41 82.29 194.53 82.31 191.15 83.93 C 188.64 85.12 185.98 85.93 183.28 86.55 C 183.78 86.06 184.79 85.09 185.29 84.61 C 185.26 84.28 185.21 83.63 185.19 83.31 C 186.94 83.37 187.09 81.61 187.62 80.48 Z" />
<path fill="#ffffff" opacity="1.00" d=" M 305.75 78.53 C 308.13 78.15 310.54 77.91 312.88 77.30 C 313.84 77.84 314.41 78.64 314.60 79.69 C 316.05 78.87 317.52 78.91 318.91 79.78 C 318.83 80.67 318.68 82.46 318.60 83.36 C 319.12 83.32 320.16 83.24 320.68 83.21 L 320.22 84.56 C 321.65 84.39 323.43 84.02 324.15 85.66 C 323.09 85.58 320.95 85.44 319.89 85.37 C 321.44 87.04 323.95 87.78 325.06 89.88 C 321.54 89.81 318.88 87.22 315.73 86.04 C 316.81 90.60 322.58 89.84 324.58 93.59 C 319.97 92.17 315.89 89.57 311.89 86.97 C 309.11 85.80 305.98 85.84 303.16 84.74 C 303.51 84.49 304.20 83.99 304.54 83.74 C 307.48 84.16 310.45 84.56 313.27 85.53 C 315.09 83.79 317.29 83.70 319.56 84.90 C 319.01 84.01 317.91 82.23 317.36 81.33 C 314.25 81.47 311.14 81.51 308.03 81.67 C 306.72 82.09 305.89 80.93 305.04 80.21 C 306.77 79.99 308.52 79.84 310.26 79.61 C 308.76 79.21 307.24 78.90 305.75 78.53 Z" />
<path fill="#ffffff" opacity="1.00" d=" M 259.23 78.00 C 262.25 79.14 263.16 82.54 265.28 84.65 C 267.13 85.94 269.32 87.00 270.05 89.32 C 269.60 89.20 268.69 88.97 268.24 88.85 C 264.68 85.78 261.02 82.47 259.23 78.00 Z" />
<path fill="#ffffff" opacity="1.00" d=" M 278.06 83.42 C 277.07 81.63 275.46 80.09 275.16 77.99 C 277.53 79.80 279.85 81.77 281.24 84.47 C 282.92 87.52 286.18 89.56 287.04 93.06 C 282.59 91.61 281.60 86.14 278.06 83.42 Z" />
<path fill="#ffffff" opacity="1.00" d=" M 204.90 80.24 C 205.54 80.83 205.54 80.83 204.90 80.24 Z" />
<path fill="#ffffff" opacity="1.00" d=" M 294.32 80.23 C 296.47 81.67 297.66 84.06 299.40 85.93 C 301.37 88.23 304.21 89.96 305.13 93.01 C 303.52 92.18 302.17 90.97 300.82 89.80 C 301.02 90.90 301.51 91.86 302.29 92.67 C 303.26 93.52 303.75 94.70 303.32 95.95 C 304.63 98.26 305.84 100.62 306.79 103.10 C 304.53 103.51 304.15 100.99 303.95 99.35 C 302.83 97.24 302.06 94.97 300.89 92.89 C 298.79 89.83 296.10 87.25 293.86 84.31 C 295.04 84.90 297.40 86.07 298.59 86.66 C 297.11 84.54 295.18 82.70 294.32 80.23 Z" />
<path fill="#ffffff" opacity="1.00" d=" M 217.78 82.75 C 219.95 82.00 224.00 78.16 225.06 82.09 C 223.27 82.60 221.74 83.68 220.06 84.45 C 219.29 83.90 218.53 83.33 217.78 82.75 Z" />
<path fill="#ffffff" opacity="1.00" d=" M 282.53 82.70 C 284.13 83.72 285.63 84.91 287.19 86.00 C 288.86 89.35 292.22 92.23 292.07 96.19 C 289.68 94.34 288.59 91.44 286.84 89.06 C 285.40 86.94 283.31 85.22 282.53 82.70 Z" />
<path fill="#ffffff" opacity="1.00" d=" M 170.30 86.75 C 170.08 83.80 173.22 83.78 173.89 86.25 C 171.28 88.23 168.18 89.66 166.12 92.28 C 165.41 91.93 164.71 91.59 164.02 91.24 C 164.83 90.61 166.47 89.36 167.29 88.74 C 167.62 88.40 167.62 88.40 167.29 88.74 C 163.93 90.54 160.98 92.98 158.22 95.59 C 159.80 95.14 161.17 94.28 161.76 92.66 C 162.26 92.81 163.26 93.11 163.76 93.26 C 163.08 94.93 161.19 95.69 159.93 96.88 C 157.41 98.61 155.17 101.03 152.11 101.76 C 153.57 99.44 155.82 97.78 158.31 96.69 C 157.44 96.22 156.55 95.78 155.67 95.34 C 159.58 91.91 163.84 88.88 168.35 86.27 C 169.00 86.43 169.65 86.59 170.30 86.75 Z" />
<path fill="#ffffff" opacity="1.00" d=" M 188.91 89.28 C 188.76 84.95 193.83 84.34 197.06 83.88 C 196.16 84.91 195.13 85.83 194.01 86.61 C 194.50 86.71 195.49 86.89 195.98 86.98 L 196.19 87.58 C 195.18 88.63 193.98 89.25 192.60 89.45 C 192.58 88.86 192.56 87.68 192.55 87.09 C 191.74 88.47 190.53 89.20 188.91 89.28 Z" />
<path fill="#ffffff" opacity="1.00" d=" M 209.14 90.86 C 214.35 89.07 218.17 84.15 224.07 84.19 C 223.53 84.98 222.43 86.54 221.88 87.33 C 222.73 87.32 224.43 87.31 225.28 87.31 C 223.96 88.44 222.26 88.67 220.58 88.65 L 220.51 89.48 C 217.47 90.22 214.86 92.04 211.86 92.87 C 203.67 97.55 194.97 101.53 187.78 107.77 C 187.20 106.62 186.71 105.44 186.22 104.26 L 187.35 104.20 L 187.20 105.73 C 188.95 104.45 190.91 103.50 192.89 102.63 L 192.88 102.24 C 192.15 102.30 190.69 102.44 189.96 102.50 C 191.85 100.96 193.85 99.57 195.85 98.16 C 195.80 98.88 195.69 100.33 195.64 101.05 C 196.72 99.63 197.22 97.69 198.86 96.76 L 198.76 96.08 C 196.06 97.50 193.56 99.29 190.75 100.51 C 192.19 96.58 196.29 95.18 199.36 92.85 C 204.05 91.84 208.10 88.77 212.10 86.18 C 211.15 87.76 210.00 89.22 209.14 90.86 Z" />
<path fill="#ffffff" opacity="1.00" d=" M 271.17 84.27 C 272.13 84.33 274.06 84.45 275.02 84.51 L 275.07 85.78 C 279.55 86.88 281.56 91.66 283.83 95.20 C 283.20 95.28 281.93 95.44 281.29 95.52 C 279.49 93.92 276.66 92.30 278.19 89.28 C 277.51 90.06 276.86 90.87 276.23 91.68 C 275.52 91.00 274.82 90.31 274.12 89.63 C 274.91 89.16 275.70 88.70 276.48 88.22 C 274.39 87.40 272.91 85.60 271.17 84.27 Z" />
<path fill="#ffffff" opacity="1.00" d=" M 289.86 85.82 C 290.26 86.01 291.06 86.38 291.46 86.57 C 293.27 90.53 296.62 93.46 298.58 97.31 C 298.75 98.80 298.49 100.31 298.48 101.81 C 300.76 102.36 299.79 104.80 300.01 106.43 C 297.76 105.40 297.56 102.71 296.64 100.71 C 297.65 100.10 298.05 99.27 297.83 98.21 C 297.19 98.07 295.91 97.77 295.27 97.63 C 295.00 97.17 294.46 96.26 294.19 95.80 C 293.14 92.30 291.01 89.26 289.86 85.82 Z" />
<path fill="#ffffff" opacity="1.00" d=" M 170.69 92.08 C 173.84 91.02 175.52 87.31 178.94 86.96 C 177.40 90.35 173.69 91.66 171.37 94.37 C 169.45 96.55 167.16 98.36 165.11 100.41 L 166.16 101.90 C 163.93 100.15 160.93 103.41 161.59 105.78 L 161.24 106.24 C 160.83 106.68 160.02 107.57 159.61 108.01 C 159.45 107.54 159.12 106.61 158.96 106.14 C 157.58 106.94 156.31 107.89 155.00 108.78 C 156.74 105.23 160.00 102.63 162.62 99.71 C 162.55 99.36 162.39 98.66 162.32 98.31 C 165.27 96.44 167.30 93.23 170.69 92.08 Z" />
<path fill="#ffffff" opacity="1.00" d=" M 198.29 88.75 C 200.29 89.29 201.42 86.44 203.43 87.04 L 204.74 87.20 C 201.96 88.13 200.69 90.53 199.01 92.64 L 198.92 90.83 C 197.80 91.43 196.68 92.05 195.58 92.67 C 194.94 92.38 194.31 92.10 193.67 91.83 C 192.09 93.18 190.38 94.38 188.51 95.28 C 189.10 93.67 190.41 92.60 191.71 91.58 C 193.76 90.64 195.61 88.19 197.81 88.32 L 198.29 88.75 M 196.37 90.38 C 196.64 90.65 196.64 90.65 196.37 90.38 Z" />
<path fill="#ffffff" opacity="1.00" d=" M 203.09 89.09 C 204.78 88.57 206.21 86.71 208.04 86.98 C 207.95 88.68 205.56 89.28 204.29 90.06 C 203.41 90.15 203.01 89.83 203.09 89.09 Z" />
<path fill="#ffffff" opacity="1.00" d=" M 189.67 91.04 C 187.96 89.98 191.71 88.65 192.60 89.45 L 192.55 89.90 C 191.83 90.18 190.39 90.75 189.67 91.04 Z" />
<path fill="#ffffff" opacity="1.00" d=" M 168.15 98.49 C 172.25 95.80 175.08 91.39 179.89 89.70 C 179.65 90.24 179.16 91.30 178.92 91.84 C 176.60 93.57 174.01 95.23 172.68 97.91 L 172.27 98.11 C 167.92 102.42 164.33 107.73 159.11 111.02 C 160.81 106.97 165.23 104.93 167.10 101.04 L 167.32 100.29 C 167.53 99.84 167.94 98.94 168.15 98.49 Z" />
<path fill="#ffffff" opacity="1.00" d=" M 253.17 91.32 C 253.53 91.05 254.26 90.51 254.62 90.24 C 255.81 92.19 258.12 91.66 260.04 91.89 C 257.76 93.67 256.12 96.83 253.01 97.13 C 253.46 96.62 254.35 95.61 254.80 95.10 C 253.72 94.09 253.40 92.71 253.17 91.32 Z" />
<path fill="#ffffff" opacity="1.00" d=" M 172.05 99.45 C 175.72 96.95 178.17 92.30 182.78 91.54 C 182.05 92.57 181.26 93.56 180.45 94.53 C 179.81 96.64 178.18 98.10 176.54 99.46 C 171.57 104.20 167.33 109.63 162.96 114.91 C 161.67 116.76 159.06 116.05 157.47 117.51 C 157.59 117.04 157.84 116.12 157.96 115.66 C 160.68 113.89 163.21 111.81 165.49 109.52 C 167.63 106.57 169.96 103.72 172.93 101.56 C 172.64 100.86 172.34 100.15 172.05 99.45 Z" />
<path fill="#ffffff" opacity="1.00" d=" M 221.39 91.19 C 224.31 91.63 227.27 91.73 230.22 91.83 C 227.58 93.52 224.42 94.00 221.67 95.44 C 217.68 97.38 213.54 99.35 209.06 99.74 C 207.47 100.49 205.92 101.35 204.24 101.88 C 204.92 102.49 205.61 103.09 206.30 103.69 C 205.12 104.30 203.93 104.90 202.74 105.49 C 203.43 104.64 203.94 103.69 204.25 102.64 C 202.43 103.42 200.76 104.50 199.02 105.44 C 199.89 105.99 200.94 105.94 201.93 105.77 L 202.74 105.49 C 203.11 106.17 203.50 106.84 203.90 107.51 C 204.59 106.17 205.75 105.37 207.38 105.12 C 204.69 109.02 199.07 109.13 196.10 112.72 C 196.76 113.28 197.42 113.84 198.10 114.39 C 200.41 111.12 204.73 109.93 208.22 108.14 C 208.02 108.48 207.64 109.14 207.44 109.47 C 204.39 111.11 201.32 112.74 198.54 114.82 C 197.16 114.78 195.76 115.08 194.41 114.80 C 194.37 113.92 194.28 113.04 194.11 112.18 C 193.30 113.47 193.28 115.03 193.04 116.49 C 191.41 117.26 189.84 118.15 188.24 118.96 C 187.86 116.27 190.34 114.96 192.20 113.67 C 189.37 109.64 198.02 110.52 197.63 106.75 C 196.11 108.00 194.49 109.28 192.41 109.21 C 192.88 108.60 193.83 107.38 194.30 106.77 C 194.05 106.28 193.54 105.31 193.29 104.83 L 194.77 104.53 C 195.32 105.84 196.48 106.17 198.23 105.51 C 197.68 104.19 196.10 104.71 195.00 104.31 C 197.42 102.18 200.68 101.75 203.44 100.27 C 205.05 99.47 206.60 98.39 208.47 98.33 C 208.52 98.10 208.63 97.64 208.68 97.41 C 210.02 98.27 211.53 98.64 213.02 97.80 C 216.11 96.66 219.13 95.12 221.37 92.65 L 221.39 91.19 M 198.91 109.27 C 200.10 109.74 202.67 108.34 201.84 106.95 C 200.39 107.23 199.41 108.01 198.91 109.27 Z" />
<path fill="#ffffff" opacity="1.00" d=" M 262.72 91.53 C 264.52 91.44 266.59 90.75 267.96 92.35 L 268.23 90.65 C 269.63 91.42 270.93 92.38 271.92 93.65 C 272.34 93.46 273.18 93.10 273.60 92.92 C 276.00 95.19 278.22 97.78 281.62 98.51 C 281.16 99.29 280.69 100.07 280.22 100.85 C 280.48 101.09 281.00 101.56 281.26 101.80 C 281.79 100.94 282.36 100.09 282.98 99.28 C 283.26 100.37 283.84 102.55 284.13 103.64 C 284.81 102.57 285.47 101.49 286.20 100.45 C 286.36 99.86 286.68 98.69 286.83 98.10 C 288.13 99.78 288.91 102.00 287.79 104.00 C 287.39 104.17 286.59 104.49 286.19 104.65 C 287.57 105.18 289.00 105.57 290.51 105.53 C 290.48 107.66 290.44 109.80 290.34 111.93 C 290.86 111.63 291.90 111.02 292.42 110.72 C 292.26 111.58 291.92 113.30 291.76 114.17 C 290.40 113.53 289.08 112.82 287.76 112.12 C 287.19 110.10 288.67 106.54 286.09 105.79 C 284.06 105.81 286.93 109.64 286.03 111.10 C 285.55 110.84 284.59 110.32 284.11 110.06 C 282.92 107.06 281.92 103.58 278.83 101.98 C 279.92 104.46 281.18 106.86 282.21 109.37 C 279.39 109.18 278.48 106.13 276.39 104.74 C 273.96 102.95 270.74 101.79 269.51 98.81 C 271.92 99.15 274.34 103.44 276.48 100.63 C 275.98 99.82 274.99 98.20 274.49 97.39 L 273.35 99.33 C 271.90 97.77 270.60 96.08 269.47 94.28 C 269.14 94.73 268.48 95.61 268.15 96.06 C 267.78 95.51 267.03 94.40 266.66 93.85 C 265.11 93.54 263.73 92.75 262.72 91.53 Z" />
<path fill="#ffffff" opacity="1.00" d=" M 316.07 91.98 C 318.87 92.31 322.65 92.66 323.75 95.80 C 325.33 97.06 328.63 97.16 328.17 99.88 C 325.14 99.03 322.63 97.11 319.79 95.85 C 320.32 97.03 321.40 97.77 322.34 98.59 C 323.46 99.28 324.28 100.23 324.81 101.42 C 322.41 100.93 320.22 97.98 317.71 99.54 C 315.82 100.75 313.73 99.43 312.33 98.11 C 314.26 97.97 316.19 97.98 318.12 97.89 C 316.64 95.95 313.26 96.62 312.65 93.94 C 315.17 94.42 317.71 94.90 320.28 94.70 C 318.56 94.34 317.03 93.48 316.07 91.98 Z" />
<path fill="#ffffff" opacity="1.00" d=" M 222.98 96.22 C 225.05 95.49 227.15 94.86 229.28 94.36 C 228.11 96.35 225.14 96.01 223.91 97.75 C 224.81 97.86 226.60 98.07 227.50 98.18 C 226.00 99.23 224.31 99.91 222.60 100.52 C 217.70 102.00 214.23 106.61 208.88 106.90 C 210.54 104.61 213.32 103.78 215.75 102.61 C 215.96 102.10 216.39 101.07 216.60 100.56 C 218.68 99.16 223.64 99.77 222.98 96.22 Z" />
<path fill="#ffffff" opacity="1.00" d=" M 248.44 96.21 C 249.24 95.88 250.04 95.56 250.85 95.24 C 250.64 96.44 250.42 97.65 250.19 98.85 C 250.76 98.32 251.91 97.27 252.49 96.74 C 252.94 98.60 252.41 100.12 250.91 101.30 C 251.56 100.90 252.88 100.09 253.54 99.68 C 254.28 100.42 255.01 101.18 255.73 101.96 C 253.03 105.25 249.04 107.07 246.13 110.15 C 245.05 109.72 243.24 108.70 244.93 110.85 C 242.29 112.36 239.95 114.27 237.60 116.17 C 238.15 115.33 239.27 113.64 239.83 112.79 C 239.18 112.59 237.87 112.19 237.21 111.99 L 238.10 114.00 C 237.35 113.73 235.87 113.20 235.13 112.93 C 235.55 113.28 236.37 113.96 236.79 114.31 C 236.10 115.96 234.46 116.92 233.06 117.90 C 232.66 117.00 232.27 116.09 231.91 115.18 L 234.58 116.05 L 233.01 114.43 C 234.14 113.11 235.13 111.67 236.01 110.17 C 234.95 110.45 233.90 110.72 232.85 110.99 L 233.78 112.05 C 232.70 112.17 230.53 112.42 229.45 112.54 C 228.06 109.78 230.73 108.19 232.04 106.16 C 233.20 104.95 234.62 104.04 236.01 103.11 C 235.87 103.79 235.59 105.15 235.45 105.83 C 237.16 104.17 246.30 100.23 239.35 106.74 C 240.81 106.12 243.73 104.88 245.18 104.25 C 245.97 103.52 246.75 102.78 247.53 102.03 C 247.60 102.57 247.72 103.66 247.79 104.20 C 248.30 103.74 249.33 102.82 249.84 102.36 C 247.53 101.01 248.53 98.36 248.44 96.21 M 233.46 105.87 C 233.38 106.27 233.20 107.05 233.11 107.45 C 233.51 107.42 234.31 107.36 234.71 107.33 C 235.16 106.18 234.75 105.69 233.46 105.87 Z" />
<path fill="#ffffff" opacity="1.00" d=" M 177.98 101.07 C 179.64 99.31 181.39 97.44 183.85 96.85 C 180.39 100.26 178.06 105.22 173.31 107.02 C 174.21 104.58 176.28 102.93 177.98 101.07 Z" />
<path fill="#ffffff" opacity="1.00" d=" M 230.28 98.00 C 232.12 98.97 234.35 99.57 235.60 101.36 C 233.45 102.42 229.16 101.40 229.39 104.91 C 228.94 104.76 228.02 104.48 227.56 104.33 C 227.49 103.86 227.36 102.90 227.29 102.43 C 227.89 102.39 229.10 102.31 229.70 102.27 C 229.23 101.38 228.78 100.50 228.32 99.61 C 228.89 99.65 230.03 99.73 230.59 99.76 L 230.28 98.00 Z" />
<path fill="#ffffff" opacity="1.00" d=" M 316.64 101.11 C 320.10 101.06 323.30 102.46 326.49 103.60 C 326.40 103.95 326.23 104.64 326.15 104.98 C 327.19 105.51 328.20 106.11 329.18 106.78 C 325.56 106.21 321.86 106.37 318.33 105.29 L 318.46 106.60 C 321.03 107.57 322.72 110.18 325.68 110.25 C 326.31 110.52 327.56 111.07 328.19 111.34 C 327.82 111.81 327.06 112.76 326.69 113.23 C 328.55 113.63 330.76 114.06 331.63 116.02 C 330.90 115.68 329.44 114.98 328.71 114.63 C 328.49 114.89 328.03 115.41 327.81 115.67 C 326.30 115.17 324.60 113.80 323.34 115.55 C 321.20 114.74 319.22 113.56 317.15 112.62 C 317.24 112.02 317.41 110.82 317.50 110.22 C 314.93 108.46 314.40 112.62 312.00 111.93 C 311.50 111.87 310.50 111.74 310.00 111.67 C 311.60 110.74 313.29 109.97 314.87 109.00 C 312.50 109.05 310.15 109.00 307.80 108.71 C 309.05 107.85 310.53 107.60 312.03 107.47 C 311.37 106.99 310.04 106.03 309.38 105.55 C 310.16 105.35 311.74 104.95 312.52 104.75 C 312.15 104.11 311.40 102.81 311.03 102.16 C 312.24 102.23 313.46 102.30 314.69 102.36 C 314.62 102.86 314.48 103.85 314.41 104.34 C 315.49 103.98 316.57 103.62 317.66 103.27 C 319.16 103.54 320.68 103.72 322.21 103.81 C 320.31 103.01 318.25 102.47 316.64 101.11 M 317.04 105.59 C 317.61 106.24 317.61 106.24 317.04 105.59 Z" />
<path fill="#ffffff" opacity="1.00" d=" M 256.16 102.68 C 257.45 102.34 258.75 102.03 260.06 101.74 C 259.69 102.18 258.96 103.07 258.59 103.52 C 256.90 104.99 255.29 106.57 254.13 108.51 C 253.34 108.02 252.55 107.54 251.76 107.05 C 253.26 105.64 254.78 104.22 256.16 102.68 Z" />
<path fill="#ffffff" opacity="1.00" d=" M 259.70 104.02 C 260.43 103.35 261.16 102.69 261.89 102.03 C 261.73 102.84 261.41 104.46 261.25 105.27 C 262.47 104.49 263.69 103.70 264.91 102.91 C 262.98 105.58 262.20 109.29 259.22 111.02 C 259.15 108.68 260.82 106.96 261.78 105.00 C 260.27 106.14 259.27 107.78 258.29 109.37 C 259.92 112.36 256.11 114.75 254.64 117.01 C 254.11 116.86 253.05 116.57 252.52 116.43 C 253.16 118.70 250.14 118.56 248.85 119.51 C 249.71 119.56 251.44 119.67 252.31 119.72 C 250.94 121.99 248.60 123.19 246.38 124.47 C 245.46 124.20 244.54 123.93 243.63 123.66 C 247.93 119.50 251.98 115.01 256.86 111.50 C 255.96 110.82 254.41 110.66 254.20 109.35 C 255.93 107.95 257.42 106.29 258.92 104.65 L 258.59 103.52 L 259.70 104.02 Z" />
<path fill="#ffffff" opacity="1.00" d=" M 163.07 103.20 C 163.70 103.80 163.70 103.80 163.07 103.20 Z" />
<path fill="#ffffff" opacity="1.00" d=" M 267.82 103.10 C 269.19 102.96 270.39 103.59 271.30 104.57 C 273.52 106.85 276.02 108.83 278.29 111.06 C 276.39 110.84 274.56 110.30 272.76 109.68 C 272.53 110.18 272.07 111.19 271.85 111.69 C 271.13 112.19 269.68 113.18 268.96 113.68 C 269.83 113.98 270.70 114.29 271.57 114.60 L 270.72 113.12 C 272.36 112.38 274.15 112.32 275.92 112.23 C 275.32 114.20 274.59 116.13 273.99 118.11 C 275.19 117.25 276.34 116.32 277.42 115.31 C 280.87 114.66 284.56 114.98 287.92 115.83 C 289.73 117.21 293.16 120.55 290.44 122.62 C 288.07 121.61 289.09 118.11 287.33 116.37 C 284.57 117.59 281.51 116.88 278.64 116.52 C 276.72 117.64 274.36 118.40 273.48 120.68 C 275.13 120.33 276.55 119.34 278.19 118.92 C 277.67 119.25 276.62 119.92 276.10 120.25 C 276.43 120.84 277.11 122.01 277.44 122.59 C 277.99 122.55 279.07 122.47 279.62 122.42 L 279.44 123.64 C 277.00 125.14 274.53 126.59 272.13 128.16 C 267.96 125.33 263.56 128.60 259.92 130.65 C 258.86 132.06 257.82 129.92 256.75 130.48 C 254.16 131.86 251.44 132.97 248.78 134.20 C 246.16 134.04 244.40 135.82 243.25 137.96 C 243.60 138.36 244.31 139.17 244.66 139.58 C 243.55 140.49 242.42 141.40 241.57 142.56 C 240.48 142.59 239.40 142.63 238.32 142.66 C 238.22 144.36 237.10 145.47 235.76 146.33 C 236.05 144.44 236.79 142.67 237.49 140.91 C 236.76 141.46 235.30 142.56 234.57 143.11 C 236.13 139.10 239.98 136.77 241.91 132.96 C 241.86 135.03 240.59 136.70 239.38 138.26 C 238.30 138.88 237.49 139.83 236.75 140.82 C 237.43 140.76 238.80 140.65 239.48 140.59 C 240.21 139.53 240.92 138.44 241.57 137.33 L 242.56 137.87 C 241.96 135.53 243.07 133.43 245.51 133.11 C 247.34 130.97 249.47 129.04 252.20 128.18 C 253.05 127.36 253.90 126.53 254.77 125.72 C 254.82 127.12 254.85 130.98 252.29 129.31 L 252.40 131.99 C 255.15 129.88 258.99 128.60 260.08 124.95 C 261.06 124.43 262.06 123.93 263.07 123.47 C 264.07 124.38 265.01 125.38 265.96 126.36 C 267.80 125.31 269.61 123.83 271.90 124.31 C 271.34 122.48 270.10 122.03 268.21 122.94 C 268.47 121.67 268.70 120.39 268.95 119.11 C 271.12 117.96 273.47 116.83 274.92 114.75 L 272.65 114.39 C 272.29 117.36 267.93 120.61 266.14 116.88 C 267.68 119.11 265.02 120.35 263.74 121.76 C 262.50 121.76 261.27 121.77 260.04 121.79 C 261.96 119.71 263.91 117.67 265.85 115.62 L 265.21 114.20 L 266.96 114.99 L 267.99 113.11 L 265.46 113.99 C 265.51 112.54 265.67 111.07 265.02 109.72 C 265.97 108.90 267.02 108.27 268.18 107.82 L 266.37 109.06 C 267.19 109.55 268.06 109.95 268.98 110.25 L 269.20 110.34 C 268.89 110.81 268.27 111.76 267.96 112.23 C 269.52 111.61 270.91 110.65 272.33 109.77 C 272.30 109.15 272.24 107.90 272.21 107.28 C 270.58 106.08 268.86 104.89 267.82 103.10 Z" />
<path fill="#ffffff" opacity="1.00" d=" M 262.38 109.65 C 263.81 107.65 264.40 104.49 267.14 103.90 C 266.37 105.83 265.30 107.61 264.25 109.40 C 264.08 112.68 260.32 113.79 257.66 114.45 C 258.61 112.30 260.29 110.64 262.38 109.65 Z" />
<path fill="#ffffff" opacity="1.00" d=" M 182.22 104.87 C 182.49 106.98 184.12 106.68 185.63 106.34 C 185.78 107.33 185.79 108.33 185.96 109.32 C 184.80 110.08 183.65 110.85 182.51 111.65 C 182.24 111.46 181.69 111.09 181.41 110.90 C 179.35 111.78 177.17 112.36 174.97 112.79 C 175.86 111.06 177.76 110.38 179.21 109.24 C 180.25 107.81 181.16 106.29 182.22 104.87 M 181.86 107.33 C 182.05 107.69 182.05 107.69 181.86 107.33 Z" />
<path fill="#ffffff" opacity="1.00" d=" M 210.67 111.82 C 212.56 109.44 214.63 106.84 217.42 105.47 C 218.55 106.09 219.77 106.41 221.09 106.43 C 217.34 107.71 214.45 110.62 210.67 111.82 Z" />
<path fill="#ffffff" opacity="1.00" d=" M 298.96 111.37 C 299.06 108.60 301.12 106.69 302.69 104.63 C 302.48 106.28 303.22 107.56 304.45 108.55 C 304.53 109.18 304.71 110.45 304.79 111.08 C 303.97 111.81 303.43 113.05 302.19 113.12 C 301.10 112.56 300.02 111.98 298.96 111.37 Z" />
<path fill="#ffffff" opacity="1.00" d=" M 225.27 110.90 C 226.73 109.70 227.73 107.51 229.71 107.14 C 229.74 107.39 229.80 107.89 229.83 108.14 L 229.00 108.98 L 228.02 109.00 C 230.16 111.60 227.25 112.42 225.27 110.90 Z" />
<path fill="#ffffff" opacity="1.00" d=" M 248.21 109.22 C 249.90 107.27 251.87 107.68 253.81 109.02 C 252.50 109.65 251.19 110.25 249.87 110.83 C 249.53 111.38 248.84 112.48 248.50 113.03 C 248.28 112.59 247.85 111.72 247.63 111.28 C 246.36 112.42 245.02 113.48 243.55 114.35 C 243.93 111.80 246.49 110.77 248.21 109.22 Z" />
<path fill="#ffffff" opacity="1.00" d=" M 295.18 112.36 C 296.61 111.22 297.12 109.44 297.90 107.86 C 298.06 109.75 297.18 111.46 296.52 113.18 L 299.21 112.13 C 298.53 114.67 297.51 117.11 295.43 118.81 C 295.72 118.83 296.29 118.86 296.57 118.88 C 298.05 117.48 299.61 115.83 301.94 116.15 C 301.25 116.78 299.86 118.02 299.17 118.65 C 300.15 119.09 301.11 119.57 302.05 120.10 C 301.62 120.96 301.11 121.77 300.52 122.53 C 299.56 124.06 298.26 126.25 296.13 125.83 C 295.68 124.72 295.57 123.53 295.37 122.37 C 295.69 121.87 296.35 120.87 296.68 120.38 C 294.11 119.63 292.93 117.50 292.54 114.97 C 293.58 113.02 293.38 110.25 295.39 108.98 C 295.33 109.83 295.23 111.51 295.18 112.36 Z" />
<path fill="#ffffff" opacity="1.00" d=" M 323.80 107.80 C 325.17 107.27 326.08 107.62 326.54 108.85 C 325.16 109.41 324.25 109.06 323.80 107.80 Z" />
<path fill="#ffffff" opacity="1.00" d=" M 268.98 110.25 C 269.65 109.57 269.65 109.57 268.98 110.25 Z" />
<path fill="#ffffff" opacity="1.00" d=" M 179.36 116.42 C 182.77 114.47 185.51 111.39 189.22 109.97 C 187.97 112.33 184.51 112.99 184.52 116.06 C 184.52 117.68 182.97 118.41 181.90 119.31 C 182.23 118.27 182.58 117.25 182.95 116.23 C 182.22 117.22 176.47 118.89 179.36 116.42 Z" />
<path fill="#ffffff" opacity="1.00" d=" M 210.75 114.94 C 213.53 112.76 216.87 111.50 220.09 110.12 C 218.29 112.97 214.52 113.74 211.89 115.69 C 212.46 115.93 213.60 116.41 214.17 116.65 C 214.75 115.84 215.34 115.03 215.93 114.23 C 217.78 114.89 219.52 113.97 221.25 113.40 C 220.35 115.66 218.01 115.47 216.16 116.25 C 212.88 119.93 208.80 122.81 204.55 125.26 C 205.06 122.80 207.57 121.86 209.27 120.36 L 206.84 120.30 C 207.91 119.23 209.01 118.10 210.50 117.61 C 209.64 116.99 208.81 116.34 207.97 115.70 C 204.63 117.48 201.11 119.02 198.17 121.44 L 197.12 121.32 C 197.27 121.78 197.58 122.70 197.74 123.16 C 196.18 124.48 190.89 126.03 193.19 128.62 C 191.78 130.02 190.52 132.20 188.26 130.85 C 192.92 127.29 186.82 131.37 186.03 128.79 C 187.90 130.96 184.76 131.80 183.87 133.13 L 185.05 134.38 C 184.53 134.54 183.49 134.85 182.97 135.01 C 182.13 133.01 183.45 131.51 184.91 130.25 C 182.08 131.20 181.31 133.89 180.54 136.38 L 178.45 136.48 C 178.79 136.05 179.46 135.18 179.79 134.74 C 179.24 133.59 179.68 132.64 180.79 131.95 C 180.79 131.00 179.91 130.10 180.40 129.17 L 181.10 128.91 L 182.05 129.06 C 183.84 130.77 184.82 128.89 185.77 127.44 C 185.40 127.01 185.04 126.58 184.68 126.15 C 187.21 123.19 191.21 121.95 193.40 118.73 L 190.16 121.20 L 185.26 123.20 C 186.75 121.96 189.74 119.48 191.23 118.24 C 192.90 117.08 194.57 115.89 196.52 115.22 C 195.53 116.78 192.99 118.84 195.77 120.12 C 196.41 119.58 197.06 119.04 197.70 118.50 C 196.40 115.73 201.50 115.44 202.92 114.25 C 201.66 115.34 199.13 117.54 197.86 118.63 C 202.13 117.27 206.09 114.71 210.75 114.94 M 211.00 119.00 C 210.39 119.64 210.39 119.64 211.00 119.00 C 211.61 118.38 211.61 118.38 211.00 119.00 Z" />
<path fill="#ffffff" opacity="1.00" d=" M 249.04 115.95 C 250.00 114.23 250.76 111.64 252.88 111.14 C 252.83 113.35 250.46 114.54 249.04 115.95 Z" />
<path fill="#ffffff" opacity="1.00" d=" M 260.59 115.34 C 261.58 114.66 264.69 112.96 264.92 114.94 C 263.86 115.64 261.10 117.29 260.59 115.34 Z" />
<path fill="#ffffff" opacity="1.00" d=" M 153.28 119.50 C 150.58 117.04 156.81 114.80 158.19 113.82 L 156.05 116.60 C 156.53 117.02 157.01 117.44 157.48 117.87 C 155.51 119.36 153.78 121.20 151.52 122.29 C 151.96 121.59 152.84 120.20 153.28 119.50 Z" />
<path fill="#ffffff" opacity="1.00" d=" M 155.86 124.24 C 158.50 121.17 161.05 117.58 164.72 115.70 C 164.32 116.15 163.51 117.04 163.11 117.49 C 163.47 118.28 163.82 119.08 164.18 119.87 C 165.20 118.95 166.18 117.83 167.68 117.82 C 166.68 121.66 162.59 123.29 160.57 126.50 C 157.71 129.36 155.59 133.24 151.91 135.12 C 152.97 132.86 154.64 130.97 156.16 129.01 L 156.71 128.91 C 156.94 128.60 157.40 127.97 157.63 127.65 C 157.93 127.44 158.53 127.01 158.83 126.80 C 159.37 125.95 160.46 124.24 161.00 123.39 C 158.36 125.02 156.63 127.67 154.21 129.55 L 155.48 126.83 C 154.66 127.03 153.03 127.42 152.21 127.61 C 153.19 126.54 154.19 125.49 155.19 124.43 C 154.30 124.62 152.51 124.99 151.62 125.17 C 152.24 123.68 153.49 122.67 154.67 121.64 C 154.93 121.41 155.46 120.96 155.72 120.73 C 156.08 120.30 156.81 119.43 157.17 119.00 L 157.55 118.82 C 158.32 118.27 159.85 117.17 160.62 116.62 C 159.35 119.34 157.30 121.63 154.69 123.12 C 155.07 123.49 155.46 123.87 155.86 124.24 Z" />
<path fill="#ffffff" opacity="1.00" d=" M 250.55 124.93 C 252.52 120.77 257.06 118.38 259.93 114.80 C 259.57 115.79 258.86 117.77 258.50 118.76 C 256.01 121.05 254.15 124.31 250.55 124.93 Z" />
<path fill="#ffffff" opacity="1.00" d=" M 318.06 116.27 C 320.31 115.30 322.48 116.62 324.48 117.57 C 323.89 118.53 323.40 119.54 323.34 120.68 C 322.01 120.08 320.65 119.10 319.06 119.79 C 319.46 119.41 320.26 118.67 320.66 118.30 C 319.78 117.63 318.92 116.95 318.06 116.27 Z" />
<path fill="#ffffff" opacity="1.00" d=" M 219.38 120.32 C 220.93 119.28 222.45 118.19 224.06 117.24 C 222.32 120.35 219.03 122.14 216.65 124.71 C 213.70 127.45 211.26 130.65 208.51 133.57 C 208.19 133.54 207.55 133.48 207.23 133.45 C 209.21 130.07 212.64 127.89 214.57 124.50 L 214.88 124.25 L 215.08 123.90 C 215.22 123.76 215.50 123.50 215.63 123.36 L 216.21 122.88 C 216.46 122.21 216.97 120.87 217.23 120.19 C 218.04 119.51 218.87 118.83 219.69 118.15 L 219.38 120.32 Z" />
<path fill="#ffffff" opacity="1.00" d=" M 279.68 118.89 C 279.69 117.09 282.01 119.23 282.43 119.97 C 282.69 119.56 283.22 118.75 283.49 118.34 C 283.90 118.83 284.72 119.82 285.13 120.32 C 284.72 121.19 284.32 122.06 283.92 122.93 C 285.42 123.43 289.29 122.00 288.69 124.62 C 286.85 125.19 284.96 125.61 283.10 126.12 C 282.70 123.37 280.45 121.47 279.68 118.89 Z" />
<path fill="#ffffff" opacity="1.00" d=" M 324.54 119.64 C 324.65 119.02 324.87 117.79 324.97 117.17 C 328.27 119.03 331.90 120.86 334.02 124.13 C 330.32 123.93 328.33 119.29 324.54 119.64 Z" />
<path fill="#ffffff" opacity="1.00" d=" M 160.57 128.27 C 163.41 124.73 166.63 121.41 170.24 118.64 C 170.29 120.46 169.01 121.65 167.86 122.85 C 167.47 123.22 166.70 123.96 166.32 124.34 C 166.02 124.58 165.42 125.07 165.13 125.31 L 165.03 125.95 C 163.58 126.80 162.09 127.57 160.57 128.27 Z" />
<path fill="#ffffff" opacity="1.00" d=" M 201.72 120.45 C 202.55 119.40 204.18 118.68 205.47 119.18 C 205.62 120.53 202.15 122.07 201.72 120.45 Z" />
<path fill="#ffffff" opacity="1.00" d=" M 220.16 128.72 C 222.47 124.70 226.47 122.16 229.77 119.04 C 229.67 120.03 229.47 122.02 229.37 123.02 C 230.97 121.79 232.38 120.21 234.32 119.50 C 233.80 122.16 231.60 123.86 229.97 125.84 C 227.46 128.82 225.43 132.46 221.80 134.23 C 223.05 131.09 226.06 129.13 228.18 126.60 C 227.54 125.52 226.92 124.44 226.31 123.35 C 224.49 125.37 222.89 127.83 220.16 128.72 M 227.22 122.24 C 227.83 122.84 227.83 122.84 227.22 122.24 Z" />
<path fill="#ffffff" opacity="1.00" d=" M 165.85 128.13 C 166.31 124.40 170.24 122.06 172.96 119.73 C 172.92 123.54 168.83 125.75 167.02 128.87 C 166.80 128.85 166.36 128.81 166.14 128.78 L 165.85 128.13 Z" />
<path fill="#ffffff" opacity="1.00" d=" M 166.25 132.11 C 169.16 128.08 171.87 123.57 175.99 120.66 C 175.62 121.68 175.25 122.70 174.86 123.72 C 172.31 126.82 170.45 130.91 166.25 132.11 Z" />
<path fill="#ffffff" opacity="1.00" d=" M 171.29 134.14 C 172.62 129.25 174.55 124.31 178.59 120.98 C 178.53 125.41 174.22 128.24 173.92 132.55 L 172.79 131.78 L 173.50 133.85 C 172.95 133.92 171.84 134.06 171.29 134.14 Z" />
<path fill="#ffffff" opacity="1.00" d=" M 182.09 125.96 C 179.76 123.13 184.46 121.44 185.98 119.80 C 185.30 121.89 183.31 123.00 182.11 124.73 L 185.50 123.25 L 185.21 124.63 C 182.89 125.12 183.54 127.96 182.05 129.06 C 182.00 128.47 181.89 127.29 181.84 126.70 C 181.32 127.11 180.28 127.92 179.76 128.33 C 180.00 127.77 180.48 126.64 180.72 126.07 L 182.09 125.96 Z" />
<path fill="#ffffff" opacity="1.00" d=" M 199.11 121.78 C 199.72 121.53 200.93 121.02 201.53 120.77 C 201.47 121.23 201.33 122.16 201.27 122.62 C 202.35 121.74 203.62 121.36 205.09 121.48 C 203.10 123.70 200.69 125.49 198.61 127.61 C 196.27 130.58 194.56 134.35 190.99 136.08 C 191.67 133.93 193.32 132.29 194.64 130.53 L 191.62 132.21 C 192.69 129.80 195.09 128.49 196.95 126.76 L 195.85 124.66 L 197.75 126.00 C 198.86 124.77 200.27 123.52 199.11 121.78 Z" />
<path fill="#ffffff" opacity="1.00" d=" M 216.51 120.37 C 216.29 121.11 215.85 122.61 215.63 123.36 C 215.50 123.50 215.22 123.76 215.08 123.90 L 214.79 124.17 L 214.57 124.50 C 211.94 126.03 209.81 128.21 207.77 130.43 C 207.20 129.83 206.64 129.23 206.06 128.64 C 204.60 131.17 202.74 133.46 200.47 135.30 C 201.61 137.29 200.38 139.74 198.27 140.48 L 198.92 138.04 C 198.55 137.90 197.81 137.61 197.44 137.47 C 198.47 136.17 198.80 134.79 198.44 133.33 L 199.51 133.99 C 201.09 132.24 202.95 130.67 203.83 128.41 C 204.41 128.43 205.55 128.48 206.12 128.50 C 206.34 128.01 206.77 127.05 206.99 126.56 C 207.77 126.73 208.56 126.88 209.36 127.02 C 211.38 124.43 214.21 122.67 216.51 120.37 Z" />
<path fill="#ffffff" opacity="1.00" d=" M 233.36 125.82 C 235.12 124.18 236.92 122.58 238.91 121.23 C 238.23 122.68 236.39 124.24 237.73 125.90 C 238.37 125.14 239.66 123.63 240.31 122.88 C 238.29 126.81 235.31 130.18 232.30 133.38 C 231.68 133.40 230.44 133.44 229.82 133.46 C 229.57 134.12 229.06 135.43 228.81 136.09 C 228.26 135.25 227.71 134.40 227.13 133.58 C 226.82 135.44 225.85 136.93 224.22 138.05 C 224.15 136.98 224.47 136.04 225.19 135.24 C 227.26 132.39 229.57 129.69 232.35 127.51 C 231.62 129.06 230.53 130.39 229.39 131.65 L 230.74 132.53 C 232.13 131.03 233.35 129.29 232.37 127.14 L 234.07 128.15 L 232.91 125.83 L 234.95 126.85 L 235.23 125.72 L 233.36 125.82 M 229.31 132.71 C 229.73 132.97 229.73 132.97 229.31 132.71 Z" />
<path fill="#ffffff" opacity="1.00" d=" M 306.70 122.98 C 308.07 122.70 309.45 122.49 310.85 122.32 C 310.25 123.42 310.03 125.50 308.30 125.15 C 307.90 124.61 307.10 123.52 306.70 122.98 Z" />
<path fill="#ffffff" opacity="1.00" d=" M 320.56 122.97 C 322.54 123.36 324.46 123.12 326.20 122.09 C 325.85 122.98 325.46 123.85 325.03 124.70 L 326.21 124.22 C 326.45 124.81 326.94 125.99 327.18 126.57 C 328.49 127.25 329.45 128.26 330.09 129.59 C 326.47 128.24 323.21 125.69 320.56 122.97 Z" />
<path fill="#ffffff" opacity="1.00" d=" M 185.50 123.25 C 186.24 122.95 186.24 122.95 185.50 123.25 Z" />
<path fill="#ffffff" opacity="1.00" d=" M 300.08 126.53 C 302.00 125.41 303.81 124.11 305.63 122.84 C 305.61 123.62 305.56 125.17 305.54 125.95 C 304.59 126.24 303.65 126.53 302.71 126.81 C 302.36 127.59 301.66 129.14 301.32 129.92 C 300.90 128.79 300.52 127.65 300.08 126.53 Z" />
<path fill="#ffffff" opacity="1.00" d=" M 314.37 123.10 C 316.84 122.47 316.00 125.89 313.95 125.30 C 311.48 125.55 312.60 122.96 314.37 123.10 Z" />
<path fill="#ffffff" opacity="1.00" d=" M 327.08 123.94 C 328.59 124.05 329.39 124.82 329.48 126.25 C 328.01 126.08 327.22 125.31 327.08 123.94 Z" />
<path fill="#ffffff" opacity="1.00" d=" M 287.53 127.92 C 289.22 126.76 290.84 124.84 293.11 125.20 C 290.56 127.43 287.87 129.54 284.98 131.31 C 282.58 132.85 279.19 132.03 277.17 134.27 C 276.56 133.91 275.96 133.56 275.37 133.20 C 278.13 131.85 280.59 130.00 283.06 128.19 C 283.51 128.40 284.42 128.81 284.88 129.02 C 285.23 128.66 285.93 127.93 286.28 127.57 C 286.59 127.66 287.21 127.83 287.53 127.92 Z" />
<path fill="#ffffff" opacity="1.00" d=" M 318.50 124.88 C 320.52 125.59 322.48 126.44 324.49 127.20 C 322.35 129.43 319.37 127.24 318.50 124.88 Z" />
<path fill="#ffffff" opacity="1.00" d=" M 309.93 127.49 C 311.81 126.71 313.67 125.75 315.80 125.91 C 315.10 126.39 314.38 126.85 313.64 127.28 C 314.63 127.90 315.57 129.30 314.38 130.26 C 313.70 130.53 312.34 131.06 311.66 131.33 C 311.73 130.72 311.86 129.49 311.93 128.88 C 311.26 128.42 310.59 127.96 309.93 127.49 Z" />
<path fill="#ffffff" opacity="1.00" d=" M 266.66 133.11 C 270.36 131.81 273.42 129.27 276.57 127.03 C 276.91 129.36 276.54 131.46 273.99 132.20 C 274.78 133.09 275.17 134.22 275.58 135.33 C 273.69 134.00 271.80 135.44 269.94 135.83 C 268.06 135.20 266.09 134.90 264.13 134.74 C 264.57 134.38 265.46 133.67 265.90 133.32 L 263.01 133.80 C 263.76 132.98 265.27 131.34 266.02 130.52 C 267.59 130.18 269.04 129.45 270.46 128.72 C 270.26 130.96 268.07 131.74 266.66 133.11 Z" />
<path fill="#ffffff" opacity="1.00" d=" M 295.25 131.35 C 296.19 129.67 297.58 128.32 299.01 127.04 C 299.67 127.86 300.35 128.68 301.03 129.50 C 300.50 132.70 297.33 131.40 295.25 131.35 Z" />
<path fill="#ffffff" opacity="1.00" d=" M 158.82 134.00 C 160.11 131.69 161.88 128.67 164.57 128.14 C 163.56 129.72 165.13 130.13 166.44 130.27 C 165.33 131.41 164.25 132.57 163.18 133.75 L 163.00 132.95 C 162.81 132.07 162.58 131.19 162.32 130.33 C 161.64 131.96 160.19 133.00 158.82 134.00 Z" />
<path fill="#ffffff" opacity="1.00" d=" M 195.26 136.19 C 197.12 133.47 198.84 130.65 200.88 128.05 C 200.76 130.09 199.53 131.72 198.44 133.33 C 197.56 134.58 196.94 135.97 196.31 137.34 C 196.00 139.01 195.17 140.49 194.27 141.91 C 192.70 140.05 194.39 137.93 195.26 136.19 Z" />
<path fill="#ffffff" opacity="1.00" d=" M 298.83 134.04 C 300.23 131.01 303.26 129.33 306.10 127.89 C 304.95 129.07 304.28 130.47 304.09 132.08 L 303.79 132.64 C 301.05 132.95 299.36 136.05 297.04 137.48 C 297.39 137.93 298.08 138.84 298.43 139.29 L 298.44 137.27 L 299.40 137.67 C 299.56 137.20 299.90 136.27 300.07 135.80 L 302.96 134.36 C 302.11 136.32 301.40 138.41 299.85 139.96 C 296.61 137.75 294.55 141.84 292.76 143.89 C 292.34 144.05 291.51 144.37 291.10 144.53 C 292.31 140.53 290.96 136.21 288.55 132.94 C 287.26 134.77 286.07 136.68 284.60 138.38 C 282.19 137.42 280.31 139.87 277.98 139.84 C 276.13 139.75 274.31 139.97 272.55 140.49 C 272.08 140.09 271.14 139.31 270.67 138.91 L 270.61 140.65 C 269.86 140.60 268.36 140.52 267.61 140.47 C 265.92 139.64 264.29 140.66 262.67 141.14 C 263.65 139.91 264.84 138.88 266.09 137.92 L 266.11 139.67 C 267.28 139.33 268.44 138.99 269.60 138.65 C 272.83 138.62 275.50 136.62 278.37 135.42 C 279.42 135.04 280.48 134.64 281.53 134.24 C 281.72 134.70 282.11 135.62 282.30 136.08 C 283.21 134.77 284.17 133.49 285.17 132.24 C 285.52 132.48 286.24 132.96 286.59 133.21 C 287.14 132.01 287.70 130.83 288.27 129.65 C 290.83 132.35 291.72 135.96 292.08 139.55 C 292.44 139.71 293.16 140.01 293.51 140.16 C 294.42 139.15 295.37 138.17 296.31 137.18 C 294.92 137.64 293.53 138.08 292.14 138.50 C 293.83 136.28 296.38 135.18 298.83 134.04 Z" />
<path fill="#ffffff" opacity="1.00" d=" M 317.57 130.68 C 317.11 129.79 315.38 128.50 316.81 127.66 C 318.36 128.46 320.04 128.97 321.74 129.34 C 321.58 129.72 321.26 130.49 321.10 130.88 C 321.81 131.78 322.52 132.68 323.21 133.61 C 320.30 133.52 317.38 133.30 314.48 133.58 C 314.35 133.90 314.10 134.54 313.98 134.86 C 315.07 135.28 316.34 135.33 317.76 135.02 C 317.66 135.79 317.45 137.32 317.34 138.09 C 315.68 138.33 313.95 138.43 312.47 139.31 C 312.50 139.92 313.99 142.26 314.41 140.60 L 314.65 139.77 C 315.66 137.85 318.33 138.91 320.02 138.47 C 320.42 140.94 317.82 140.64 316.43 141.39 C 313.42 142.77 310.23 143.68 307.26 145.16 L 307.49 141.76 C 309.29 141.64 311.08 141.47 312.88 141.25 C 312.06 140.98 308.09 141.54 309.83 139.98 C 311.01 139.42 310.00 138.26 309.78 137.45 C 307.78 139.88 304.14 140.78 301.22 141.27 C 301.37 139.45 303.70 139.67 304.96 139.22 C 305.17 138.56 305.61 137.23 305.83 136.56 C 307.96 135.17 310.40 134.56 312.78 133.80 C 312.87 133.38 313.05 132.56 313.14 132.14 C 313.79 132.01 315.07 131.75 315.71 131.62 L 316.25 131.25 C 316.58 131.11 317.24 130.83 317.57 130.68 Z" />
<path fill="#ffffff" opacity="1.00" d=" M 262.37 132.01 C 261.81 130.14 267.65 127.69 266.02 130.52 C 264.84 130.99 263.66 132.19 262.37 132.01 Z" />
<path fill="#ffffff" opacity="1.00" d=" M 305.70 132.48 C 305.00 130.70 305.72 128.80 307.92 128.94 C 307.39 129.54 306.31 130.74 305.78 131.35 C 306.65 131.21 308.40 130.93 309.28 130.79 C 307.46 132.72 305.47 134.47 303.70 136.45 C 302.09 134.64 303.98 133.09 305.70 132.48 Z" />
<path fill="#ffffff" opacity="1.00" d=" M 173.92 132.55 C 174.47 131.46 175.23 130.57 176.19 129.87 C 178.22 130.64 173.73 136.06 173.92 132.55 Z" />
<path fill="#ffffff" opacity="1.00" d=" M 324.48 129.95 C 325.38 130.57 326.26 131.20 327.15 131.84 C 326.75 130.94 325.95 129.16 325.55 128.27 C 327.47 129.52 329.09 131.18 330.44 133.03 C 326.71 133.89 333.37 137.95 328.95 137.46 C 326.67 138.25 326.48 135.96 326.50 134.35 C 325.90 133.65 325.30 132.95 324.70 132.26 C 324.65 131.68 324.54 130.53 324.48 129.95 Z" />
<path fill="#ffffff" opacity="1.00" d=" M 185.88 133.16 C 185.90 131.78 186.63 131.12 188.08 131.18 C 188.04 132.51 187.31 133.17 185.88 133.16 Z" />
<path fill="#ffffff" opacity="1.00" d=" M 166.22 134.17 C 167.68 132.45 169.10 130.30 171.72 130.75 C 168.77 134.44 166.95 139.79 161.92 141.06 C 163.26 138.70 164.84 136.48 166.74 134.54 C 166.05 134.62 164.67 134.76 163.98 134.84 C 164.46 134.08 164.96 133.34 165.45 132.59 L 166.22 134.17 Z" />
<path fill="#ffffff" opacity="1.00" d=" M 162.46 133.51 C 162.60 133.37 162.87 133.09 163.00 132.95 C 162.87 133.09 162.60 133.37 162.46 133.51 Z" />
<path fill="#ffffff" opacity="1.00" d=" M 157.04 139.63 C 158.66 137.52 159.82 134.29 162.46 133.51 C 161.97 134.58 160.99 136.73 160.50 137.80 C 161.37 137.06 163.11 135.58 163.98 134.84 C 163.77 136.61 162.14 137.55 160.99 138.70 C 159.67 139.00 158.35 139.32 157.04 139.63 Z" />
<path fill="#ffffff" opacity="1.00" d=" M 183.78 137.02 C 185.17 135.90 186.49 134.68 188.01 133.73 C 187.25 135.73 185.60 137.18 183.77 138.21 C 184.38 138.74 185.01 139.26 185.64 139.78 C 184.98 140.51 184.33 141.24 183.69 141.98 C 183.18 141.17 182.68 140.37 182.16 139.58 L 181.85 141.18 C 181.41 141.43 180.52 141.93 180.08 142.18 C 181.10 140.81 181.43 138.95 179.37 138.46 C 180.47 137.28 181.33 135.39 182.97 135.01 C 183.17 135.51 183.57 136.52 183.78 137.02 Z" />
<path fill="#ffffff" opacity="1.00" d=" M 170.10 134.65 C 170.58 135.18 171.06 135.72 171.53 136.25 L 170.97 134.24 L 174.13 134.27 C 173.40 135.57 172.67 136.88 171.92 138.17 C 171.45 138.29 170.51 138.55 170.04 138.67 C 169.19 139.67 168.33 140.73 167.01 141.12 C 168.05 138.96 169.25 136.89 170.10 134.65 Z" />
<path fill="#ffffff" opacity="1.00" d=" M 248.89 136.13 C 249.58 136.77 250.22 137.46 250.78 138.23 C 249.61 139.45 248.50 140.73 247.27 141.89 C 247.66 139.93 248.31 138.04 248.89 136.13 Z" />
<path fill="#ffffff" opacity="1.00" d=" M 225.53 137.89 C 226.95 137.33 227.28 137.81 226.53 139.33 C 225.14 139.84 224.81 139.37 225.53 137.89 Z" />
<path fill="#ffffff" opacity="1.00" d=" M 199.55 144.51 C 200.24 142.52 201.04 140.34 202.78 139.03 C 202.30 141.54 201.43 143.95 200.61 146.37 C 199.65 145.99 199.30 145.37 199.55 144.51 Z" />
<path fill="#ffffff" opacity="1.00" d=" M 321.51 140.20 C 321.43 139.69 321.29 138.66 321.21 138.15 C 323.55 139.61 329.30 138.99 328.89 142.84 C 326.52 141.73 324.15 140.49 321.51 140.20 Z" />
<path fill="#ffffff" opacity="1.00" d=" M 281.82 150.46 C 281.61 146.60 283.02 142.12 286.79 140.41 C 287.94 141.90 286.54 143.98 286.71 145.72 C 285.58 145.03 284.60 145.76 283.70 146.46 C 284.07 147.22 284.46 147.98 284.87 148.72 L 285.66 145.74 C 285.77 147.36 287.12 150.87 284.35 150.98 L 284.45 148.12 C 283.56 148.88 282.68 149.67 281.82 150.46 Z" />
<path fill="#ffffff" opacity="1.00" d=" M 307.35 140.66 C 307.64 140.35 307.64 140.35 307.35 140.66 Z" />
<path fill="#ffffff" opacity="1.00" d=" M 303.33 143.35 C 303.88 141.83 305.64 141.11 307.00 140.46 L 307.35 140.66 C 307.33 142.34 305.43 144.39 303.59 143.69 L 303.33 143.35 Z" />
<path fill="#ffffff" opacity="1.00" d=" M 203.61 152.26 C 203.88 148.47 204.44 144.68 205.93 141.16 C 207.04 142.71 207.50 144.56 207.80 146.41 L 206.49 146.36 C 206.67 149.14 206.61 151.92 206.47 154.69 C 205.52 153.87 204.57 153.06 203.61 152.26 Z" />
<path fill="#ffffff" opacity="1.00" d=" M 256.17 144.62 C 255.52 143.05 258.70 140.99 259.35 143.04 C 259.25 144.44 257.31 145.15 256.17 144.62 Z" />
<path fill="#ffffff" opacity="1.00" d=" M 260.06 144.07 C 261.13 142.13 263.19 142.57 265.02 142.81 C 264.25 143.18 263.47 143.52 262.67 143.82 C 263.05 145.91 261.11 147.07 259.91 148.42 C 259.62 146.92 258.10 145.07 260.06 144.07 Z" />
<path fill="#ffffff" opacity="1.00" d=" M 274.81 148.34 C 275.11 144.91 279.02 143.27 281.76 141.96 C 281.23 144.46 280.67 146.99 279.44 149.25 C 278.86 147.90 278.93 146.41 278.91 144.98 C 277.83 146.42 276.46 147.60 274.81 148.34 Z" />
<path fill="#ffffff" opacity="1.00" d=" M 293.04 145.97 C 294.67 144.20 296.90 142.03 299.34 142.09 L 299.28 143.07 C 298.72 144.55 300.82 144.50 301.58 145.09 L 301.03 143.09 L 303.59 143.69 C 303.49 144.24 303.28 145.33 303.17 145.87 C 300.04 147.20 297.70 150.30 297.97 153.80 C 300.71 151.80 301.39 155.07 301.46 156.92 C 301.67 156.25 302.08 154.91 302.28 154.24 C 304.78 156.81 305.01 160.81 306.73 163.91 C 305.26 162.89 303.88 161.78 302.57 160.58 C 302.70 161.40 302.97 163.05 303.10 163.88 C 302.64 163.61 301.70 163.07 301.23 162.80 C 300.25 159.75 298.42 157.14 296.06 155.00 C 295.92 153.56 295.77 152.12 295.61 150.68 C 297.17 149.75 298.34 148.41 298.50 146.52 C 296.78 148.13 294.26 148.25 293.04 145.97 Z" />
<path fill="#ffffff" opacity="1.00" d=" M 301.28 142.71 C 301.71 142.96 301.71 142.96 301.28 142.71 Z" />
<path fill="#ffffff" opacity="1.00" d=" M 167.79 149.45 C 169.98 146.65 172.46 143.97 176.02 142.99 C 175.18 144.68 173.97 146.13 172.83 147.61 C 172.24 149.29 171.39 150.89 170.09 152.12 C 169.05 151.49 168.05 150.70 167.79 149.45 Z" />
<path fill="#ffffff" opacity="1.00" d=" M 268.41 148.58 C 268.68 146.55 269.66 142.00 272.59 143.39 C 271.81 145.53 270.12 147.17 268.41 148.58 Z" />
<path fill="#ffffff" opacity="1.00" d=" M 310.31 145.12 C 315.74 143.41 321.78 142.55 327.17 144.72 C 328.88 145.05 328.53 146.96 328.80 148.21 C 329.08 148.49 329.65 149.06 329.94 149.34 C 329.15 149.00 327.58 148.31 326.79 147.97 L 327.91 151.03 C 327.39 150.78 326.35 150.28 325.83 150.02 C 325.97 151.07 326.24 153.15 326.38 154.19 C 326.81 153.31 327.24 152.43 327.68 151.55 C 327.73 152.46 327.84 154.26 327.90 155.16 C 327.49 155.46 326.66 156.07 326.25 156.38 C 326.18 156.97 326.03 158.14 325.96 158.72 C 323.41 160.79 320.60 162.77 317.14 162.59 C 317.11 162.29 317.07 161.71 317.04 161.41 C 317.60 161.37 318.71 161.29 319.27 161.24 C 318.85 159.59 317.39 157.24 319.73 156.25 C 319.76 153.94 319.59 151.64 319.39 149.35 C 318.76 149.20 317.51 148.89 316.88 148.74 C 317.91 151.31 321.38 155.66 317.42 157.36 C 317.69 153.49 315.83 149.90 314.50 146.37 C 314.15 146.21 313.46 145.89 313.12 145.73 C 314.15 147.83 315.18 149.95 315.72 152.25 L 313.72 152.50 C 314.36 152.49 315.63 152.47 316.27 152.46 C 316.42 153.10 316.72 154.37 316.87 155.01 L 315.09 155.46 C 315.96 157.19 316.79 158.96 317.20 160.87 C 316.70 160.65 315.71 160.22 315.21 160.00 C 314.78 158.99 314.33 158.01 313.83 157.04 C 313.33 156.82 312.33 156.39 311.82 156.17 C 311.31 153.63 310.70 150.92 308.33 149.45 C 307.36 151.36 306.16 153.12 304.26 154.18 C 304.05 150.58 305.78 147.54 308.92 145.75 C 309.91 147.14 310.90 148.53 311.94 149.89 C 311.68 149.40 311.17 148.43 310.91 147.95 C 310.76 147.24 310.46 145.83 310.31 145.12 M 321.21 147.37 C 319.59 150.24 324.62 147.59 321.21 147.37 M 323.45 148.23 C 323.02 149.52 322.68 152.13 324.06 152.80 C 324.72 151.61 324.96 148.62 323.45 148.23 M 321.89 154.82 C 321.77 156.19 321.62 158.25 322.91 159.11 C 324.26 158.21 323.57 156.04 323.29 154.72 C 322.94 154.75 322.24 154.80 321.89 154.82 Z" />
<path fill="#ffffff" opacity="1.00" d=" M 177.11 144.96 C 177.57 144.80 178.50 144.49 178.96 144.33 C 178.65 146.54 177.33 148.47 175.42 149.64 C 175.57 147.95 176.38 146.45 177.11 144.96 Z" />
<path fill="#ffffff" opacity="1.00" d=" M 264.21 149.62 C 265.01 147.06 266.66 144.94 268.50 143.04 C 268.80 146.03 267.40 149.12 264.21 149.62 Z" />
<path fill="#ffffff" opacity="1.00" d=" M 160.10 151.21 C 162.15 148.35 164.02 144.74 168.11 144.87 C 166.46 148.84 164.81 152.98 161.85 156.17 C 162.00 154.56 162.55 153.05 163.09 151.55 C 162.35 151.46 160.85 151.30 160.10 151.21 M 162.10 150.94 C 163.83 151.05 164.98 148.37 164.87 146.88 C 163.35 147.05 161.91 149.45 162.10 150.94 Z" />
<path fill="#ffffff" opacity="1.00" d=" M 303.17 145.87 C 303.80 145.40 305.05 144.45 305.67 143.98 C 305.28 145.42 304.68 146.78 303.89 148.04 C 303.30 149.68 302.66 151.32 301.13 152.32 C 300.74 151.33 300.36 150.34 299.98 149.35 C 301.05 148.19 302.09 147.02 303.17 145.87 Z" />
<path fill="#ffffff" opacity="1.00" d=" M 208.48 147.46 C 209.29 146.76 210.12 146.05 210.94 145.35 C 211.03 147.23 211.12 149.11 211.15 150.99 C 211.70 150.87 212.80 150.62 213.35 150.50 C 213.36 151.45 213.38 152.42 213.40 153.38 C 212.94 153.26 212.01 153.01 211.55 152.89 C 211.58 153.75 211.63 155.48 211.66 156.35 C 210.08 155.07 210.71 152.82 210.34 151.10 C 209.82 151.21 208.77 151.44 208.24 151.55 C 208.32 150.19 208.40 148.83 208.48 147.46 Z" />
<path fill="#ffffff" opacity="1.00" d=" M 289.34 146.29 C 289.95 146.37 291.16 146.51 291.77 146.59 C 292.07 148.73 292.56 150.90 292.30 153.08 C 290.60 153.51 289.59 152.52 288.90 151.15 C 289.41 149.57 289.51 147.93 289.34 146.29 Z" />
<path fill="#ffffff" opacity="1.00" d=" M 336.48 149.57 C 348.51 147.15 360.86 146.97 373.09 147.54 C 374.28 147.48 375.32 148.08 376.26 148.75 C 366.50 148.00 356.69 148.03 346.95 148.94 C 342.20 149.36 337.86 151.63 333.03 151.50 C 333.83 150.36 335.17 149.89 336.48 149.57 Z" />
<path fill="#ffffff" opacity="1.00" d=" M 169.24 154.29 C 173.02 152.20 177.16 150.87 181.02 148.91 C 180.23 149.83 179.40 150.71 178.55 151.58 C 177.96 152.75 177.40 154.09 175.89 154.32 C 176.09 154.98 176.49 156.31 176.69 156.98 C 176.03 157.14 174.71 157.45 174.05 157.61 C 174.82 157.60 176.35 157.57 177.11 157.56 C 175.82 159.49 173.87 160.73 171.86 161.80 C 168.03 165.08 165.14 169.20 161.72 172.88 C 161.26 173.07 160.33 173.47 159.86 173.66 C 161.26 169.95 164.71 167.53 167.50 164.90 C 166.90 164.41 166.29 163.93 165.67 163.46 C 162.59 165.21 161.58 168.92 158.64 170.78 C 158.13 168.78 160.75 166.82 161.13 164.70 C 161.10 162.76 162.42 160.75 164.61 161.42 C 165.24 160.95 166.49 160.01 167.12 159.54 C 166.92 158.87 166.72 158.21 166.53 157.55 C 167.98 156.89 169.42 156.21 170.87 155.54 L 169.24 154.29 M 167.51 163.05 C 168.05 163.05 169.13 163.04 169.67 163.03 C 169.64 162.71 169.60 162.07 169.57 161.75 C 169.06 162.07 168.03 162.73 167.51 163.05 Z" />
<path fill="#ffffff" opacity="1.00" d=" M 185.83 151.25 C 186.18 150.94 186.87 150.31 187.22 149.99 C 186.72 152.32 185.00 155.72 182.10 154.71 C 180.51 155.42 178.79 156.20 177.09 155.31 C 179.93 153.97 182.42 150.58 185.83 151.25 Z" />
<path fill="#ffffff" opacity="1.00" d=" M 188.20 152.97 C 189.80 152.01 190.20 154.55 188.72 154.90 C 187.12 155.87 186.70 153.32 188.20 152.97 Z" />
<path fill="#ffffff" opacity="1.00" d=" M 274.38 152.80 C 275.58 153.58 276.58 154.60 277.26 155.89 C 276.32 156.48 275.39 157.07 274.46 157.66 C 274.41 156.04 274.38 154.41 274.38 152.80 Z" />
<path fill="#ffffff" opacity="1.00" d=" M 259.41 154.26 C 261.02 154.20 260.21 156.84 259.07 157.05 C 257.58 156.92 258.45 154.61 259.41 154.26 Z" />
<path fill="#ffffff" opacity="1.00" d=" M 290.28 154.51 C 291.03 154.73 291.79 154.94 292.55 155.16 C 292.92 156.25 293.33 157.34 293.74 158.41 C 293.10 158.73 291.83 159.38 291.19 159.70 C 290.29 158.99 288.55 158.61 289.61 156.86 C 281.80 158.62 274.67 162.37 267.09 164.84 C 263.03 166.10 259.70 169.14 255.36 169.55 C 256.96 166.90 260.55 166.83 263.06 165.35 C 269.64 163.01 275.99 160.05 282.64 157.91 C 285.39 157.28 287.94 156.07 290.28 154.51 Z" />
<path fill="#ffffff" opacity="1.00" d=" M 260.71 157.61 C 262.35 157.30 263.51 156.14 264.68 155.07 C 264.31 156.66 263.88 158.23 263.43 159.79 C 262.52 159.06 261.62 158.33 260.71 157.61 Z" />
<path fill="#ffffff" opacity="1.00" d=" M 306.06 155.17 C 307.22 155.91 308.32 156.71 309.43 157.51 C 309.77 157.72 310.45 158.12 310.79 158.32 C 311.09 158.85 311.70 159.91 312.01 160.44 C 308.86 161.02 306.98 157.67 306.06 155.17 Z" />
<path fill="#ffffff" opacity="1.00" d=" M 331.95 156.84 C 332.13 156.37 332.50 155.43 332.69 154.96 C 340.86 154.88 348.95 156.26 357.09 156.69 C 362.03 157.64 367.09 157.69 372.00 158.88 C 373.43 159.39 375.54 159.04 376.19 160.81 C 368.24 158.83 360.13 157.73 351.95 157.24 C 345.32 156.09 338.62 156.92 331.95 156.84 Z" />
<path fill="#ffffff" opacity="1.00" d=" M 172.15 163.37 C 174.21 160.81 177.19 159.35 180.11 158.01 C 180.89 158.53 181.69 159.04 182.49 159.54 L 182.46 160.88 C 183.65 160.36 184.84 159.84 186.04 159.34 C 184.91 162.53 181.35 163.78 178.83 165.69 C 177.57 168.36 174.87 169.78 172.93 171.87 C 170.79 173.98 168.95 176.54 166.19 177.92 C 166.41 174.25 170.57 172.70 172.18 169.70 C 173.28 167.59 175.16 166.06 176.91 164.50 C 176.78 164.21 176.52 163.63 176.39 163.34 C 177.76 162.55 179.08 161.71 180.37 160.81 C 177.58 160.41 175.73 163.06 173.53 164.34 C 173.30 167.92 169.42 170.32 166.13 170.84 C 166.99 167.59 170.13 165.84 172.15 163.37 Z" />
<path fill="#ffffff" opacity="1.00" d=" M 312.01 159.36 C 311.81 158.23 312.23 157.81 313.28 158.08 C 315.32 159.52 313.09 161.90 312.01 159.36 Z" />
<path fill="#ffffff" opacity="1.00" d=" M 327.86 158.10 C 327.61 161.00 325.96 163.55 325.95 166.48 C 325.38 166.14 324.25 165.46 323.68 165.12 C 324.15 162.30 326.16 160.24 327.86 158.10 Z" />
<path fill="#ffffff" opacity="1.00" d=" M 292.91 160.99 C 294.25 160.41 295.70 160.21 297.16 160.23 C 290.81 163.62 283.56 164.87 277.19 168.27 C 271.55 170.30 266.61 173.87 260.93 175.74 C 262.65 177.85 262.26 180.74 263.78 182.95 C 261.78 184.36 263.15 186.78 263.07 188.75 C 262.51 188.14 261.37 186.93 260.80 186.33 C 260.44 186.95 260.07 187.58 259.72 188.22 C 260.03 188.86 260.64 190.16 260.94 190.81 C 260.29 190.77 259.00 190.68 258.36 190.64 C 258.53 191.40 258.87 192.94 259.04 193.71 C 258.64 193.45 257.84 192.93 257.44 192.67 C 257.32 191.29 257.22 189.92 257.13 188.55 L 258.09 190.78 C 259.23 189.48 259.49 188.05 258.16 186.73 C 258.78 185.65 259.52 184.50 259.22 183.18 C 259.93 183.77 261.37 184.95 262.08 185.54 C 261.18 182.94 259.80 180.56 258.87 177.97 C 259.72 178.56 261.42 179.74 262.27 180.33 C 261.14 178.56 260.03 176.80 258.91 175.03 C 259.36 175.09 260.27 175.20 260.72 175.25 C 264.44 171.61 269.88 170.81 274.34 168.39 C 280.25 165.23 286.74 163.50 292.91 160.99 Z" />
<path fill="#ffffff" opacity="1.00" d=" M 329.82 162.72 C 333.11 161.22 336.80 161.47 340.21 162.37 C 344.46 163.65 348.91 164.32 352.90 166.33 C 358.75 169.20 364.81 171.64 370.61 174.61 C 370.78 174.93 371.11 175.58 371.27 175.90 C 366.19 174.09 361.58 171.23 356.57 169.25 C 351.70 167.23 346.98 164.23 341.56 164.14 C 337.62 163.89 333.73 163.21 329.82 162.72 Z" />
<path fill="#ffffff" opacity="1.00" d=" M 194.36 162.38 C 194.70 162.69 195.38 163.29 195.73 163.59 C 196.34 163.25 197.57 162.57 198.18 162.23 C 197.49 164.42 194.25 164.09 193.32 165.68 C 193.86 165.93 194.94 166.44 195.47 166.70 C 194.42 167.36 193.36 167.99 192.28 168.58 C 191.86 168.78 191.01 169.18 190.59 169.38 C 191.29 168.32 191.97 167.25 192.61 166.16 C 190.90 167.31 189.34 168.66 187.71 169.93 L 187.89 167.87 C 185.26 170.86 181.60 172.57 178.75 175.32 C 178.19 174.75 177.62 174.20 177.04 173.65 C 174.88 176.98 172.60 180.24 170.64 183.70 C 169.73 182.77 168.53 182.45 167.25 182.45 C 168.10 180.87 168.99 179.31 169.85 177.73 C 170.79 178.41 171.93 178.70 172.84 177.75 C 172.36 177.12 171.89 176.49 171.40 175.86 L 173.80 176.65 C 174.81 171.92 179.37 169.49 183.08 167.06 C 182.71 167.96 182.33 168.85 181.94 169.73 C 180.21 170.82 178.65 172.16 177.27 173.67 C 181.65 171.82 185.07 168.16 188.42 164.84 L 188.59 166.80 C 190.41 165.20 192.33 163.71 194.36 162.38 Z" />
<path fill="#ffffff" opacity="1.00" d=" M 296.03 164.08 C 297.61 163.58 298.22 164.15 297.85 165.78 C 296.26 166.27 295.65 165.70 296.03 164.08 Z" />
<path fill="#ffffff" opacity="1.00" d=" M 148.18 168.97 C 149.61 167.12 151.31 164.95 153.91 165.08 C 152.15 166.57 150.47 168.33 148.18 168.97 Z" />
<path fill="#ffffff" opacity="1.00" d=" M 194.84 171.36 C 197.55 168.93 200.53 166.82 203.60 164.87 C 203.25 166.57 203.36 168.22 203.94 169.82 L 202.50 169.95 C 202.97 170.45 203.44 170.95 203.91 171.45 C 206.32 169.64 209.41 169.52 212.15 168.50 C 211.58 169.16 211.01 169.81 210.44 170.47 C 210.90 171.69 210.51 172.64 209.27 173.35 C 209.29 174.38 209.31 175.41 209.32 176.45 C 207.59 176.86 206.29 178.00 205.34 179.46 C 209.10 176.99 213.08 174.92 217.09 172.88 L 216.31 171.43 C 216.97 171.71 218.28 172.28 218.94 172.56 C 217.97 173.61 217.37 175.35 215.48 174.94 C 216.11 175.54 216.74 176.14 217.37 176.74 C 216.22 178.06 213.59 178.83 214.31 181.01 C 216.28 179.81 218.29 178.66 220.51 177.99 C 220.48 178.63 220.43 179.89 220.40 180.53 C 220.96 180.46 222.08 180.33 222.63 180.26 L 222.59 181.96 C 224.82 179.94 227.36 180.63 229.93 181.27 C 229.44 182.08 228.96 182.90 228.49 183.73 C 227.77 183.84 226.33 184.05 225.61 184.16 C 226.31 184.88 227.59 186.33 226.22 187.12 C 224.26 187.99 223.50 190.68 221.28 190.87 C 221.40 189.80 223.46 188.70 222.22 187.75 C 220.96 188.64 219.72 189.54 218.41 190.35 C 218.93 191.16 219.44 191.98 219.97 192.80 C 218.06 194.62 216.82 197.28 214.31 198.34 C 214.26 197.55 214.15 195.97 214.09 195.18 C 215.09 194.08 216.13 193.00 217.13 191.90 C 215.75 192.56 214.36 193.20 212.97 193.84 C 213.94 191.94 215.06 190.12 216.47 188.51 C 216.38 187.70 216.20 186.10 216.10 185.29 C 217.91 183.97 220.42 183.15 221.20 180.83 C 218.92 182.29 215.85 183.54 215.21 186.46 C 214.04 187.12 212.86 187.75 211.67 188.39 C 211.09 190.28 209.43 191.47 208.15 192.86 C 209.05 193.55 209.97 194.21 210.91 194.87 C 210.39 195.25 209.35 196.01 208.83 196.38 C 208.17 195.68 207.50 194.98 206.83 194.30 C 205.35 196.81 204.60 195.55 204.10 193.71 C 205.24 192.58 206.30 191.37 207.33 190.13 C 207.47 189.08 207.61 188.03 207.76 186.98 C 209.40 185.76 211.04 184.53 212.72 183.36 C 212.93 184.10 213.34 185.56 213.55 186.29 C 213.67 185.34 213.78 184.40 213.88 183.46 C 213.29 183.38 212.10 183.24 211.51 183.16 C 209.38 185.25 206.74 186.68 204.39 188.49 C 202.60 190.35 201.00 192.65 198.35 193.33 C 198.70 192.68 199.40 191.38 199.75 190.73 C 199.28 190.70 198.34 190.63 197.88 190.60 C 198.03 186.67 202.31 187.31 203.90 184.45 C 202.88 184.61 200.84 184.94 199.82 185.10 C 198.53 186.41 196.95 187.68 196.56 189.57 L 196.96 190.03 C 197.34 191.44 196.96 192.68 195.82 193.76 C 195.21 193.55 194.00 193.14 193.39 192.93 L 194.05 194.09 C 193.65 194.18 192.85 194.38 192.45 194.47 C 193.24 194.92 194.04 195.39 194.83 195.86 C 193.40 197.23 192.12 198.86 190.27 199.68 C 190.86 197.95 191.93 196.45 193.02 195.00 L 191.47 195.60 C 191.41 195.00 191.29 193.79 191.22 193.18 C 193.78 188.13 198.88 185.02 201.24 179.81 C 199.03 181.44 196.97 183.31 194.52 184.57 C 195.27 186.48 193.41 187.38 192.24 188.35 L 192.87 189.79 L 190.69 189.40 C 191.25 189.90 191.81 190.40 192.36 190.91 C 191.30 191.65 190.25 192.42 189.22 193.21 C 189.53 191.60 188.82 190.23 188.05 188.89 C 188.08 187.45 188.12 185.99 187.72 184.58 L 188.88 184.94 L 189.02 184.14 L 186.66 184.72 C 188.11 183.12 189.73 181.68 191.32 180.23 C 190.10 180.29 188.99 180.68 188.01 181.41 C 188.01 179.74 188.97 178.47 190.23 177.48 C 189.86 176.92 189.49 176.37 189.13 175.81 C 190.47 174.78 191.68 173.52 193.29 172.88 C 192.05 171.95 191.01 170.14 193.32 169.45 L 192.28 168.58 C 193.11 168.77 194.78 169.14 195.61 169.32 L 193.61 169.95 C 194.01 170.42 194.42 170.89 194.84 171.36 M 196.35 172.08 C 196.28 174.55 193.54 175.17 191.83 176.29 L 194.17 176.47 L 191.76 179.32 C 194.43 178.82 194.91 173.61 197.71 174.75 C 197.49 175.48 197.04 176.95 196.82 177.68 C 196.58 177.90 196.11 178.32 195.88 178.53 L 195.19 176.96 C 194.14 178.84 193.02 180.67 192.02 182.57 C 192.86 181.85 194.56 180.41 195.41 179.69 L 194.23 183.56 C 196.34 181.00 200.52 178.96 200.21 175.15 C 201.09 175.15 202.86 175.14 203.74 175.13 C 203.66 175.85 203.50 177.29 203.42 178.01 L 204.80 177.32 C 204.71 176.61 204.54 175.19 204.45 174.47 C 203.24 174.56 202.02 174.66 200.81 174.76 C 201.93 173.85 201.87 172.64 201.44 171.53 C 199.89 173.59 198.13 173.38 196.35 172.08 M 203.66 183.63 C 206.77 182.50 209.55 180.16 213.03 180.40 C 212.56 180.20 211.62 179.79 211.15 179.59 C 212.59 178.92 214.03 178.13 214.49 176.51 C 210.81 178.75 206.86 180.72 203.66 183.63 M 219.79 187.38 C 221.40 187.58 223.49 185.63 223.85 184.13 C 222.18 184.00 220.09 185.73 219.79 187.38 Z" />
<path fill="#ffffff" opacity="1.00" d=" M 153.40 168.18 C 154.35 167.08 155.56 166.29 156.87 165.69 C 157.15 166.17 157.73 167.14 158.02 167.62 C 155.72 170.76 153.65 174.18 152.86 178.05 C 152.38 179.56 152.31 181.83 150.32 182.08 C 150.72 178.38 152.75 175.21 153.98 171.77 C 151.52 173.12 149.95 175.81 147.17 176.59 C 148.12 175.29 149.23 174.11 150.37 172.97 C 149.96 172.55 149.55 172.14 149.14 171.74 C 147.94 173.55 145.95 174.64 143.84 174.95 C 146.18 172.42 149.33 170.86 152.12 168.90 C 152.44 168.72 153.08 168.36 153.40 168.18 Z" />
<path fill="#ffffff" opacity="1.00" d=" M 285.13 175.30 C 290.69 171.91 296.28 168.45 302.25 165.88 C 301.82 167.85 299.80 168.35 298.26 169.15 C 293.27 171.22 288.92 174.49 284.19 177.07 C 281.31 178.58 279.19 181.78 275.72 181.97 C 278.43 179.20 281.80 177.22 285.13 175.30 Z" />
<path fill="#ffffff" opacity="1.00" d=" M 307.90 171.55 C 306.62 170.48 304.22 167.79 306.70 166.69 C 308.84 166.68 309.33 169.02 310.22 170.46 C 309.30 169.88 307.46 168.71 306.54 168.13 L 307.90 171.55 Z" />
<path fill="#ffffff" opacity="1.00" d=" M 190.59 169.38 C 189.93 169.86 189.93 169.86 190.59 169.38 Z" />
<path fill="#ffffff" opacity="1.00" d=" M 211.13 173.31 C 213.60 171.81 216.13 170.40 218.78 169.25 C 218.00 170.02 217.21 170.79 216.31 171.43 C 214.31 172.77 212.34 174.17 210.54 175.77 C 210.07 174.86 210.15 173.83 211.13 173.31 Z" />
<path fill="#ffffff" opacity="1.00" d=" M 276.55 173.46 C 278.05 172.55 279.25 170.98 281.16 171.04 C 278.49 173.31 275.80 175.55 273.24 177.94 C 272.96 177.00 272.68 176.07 272.40 175.13 C 273.59 174.12 275.01 173.65 276.55 173.46 Z" />
<path fill="#ffffff" opacity="1.00" d=" M 182.21 176.30 C 184.40 175.16 185.29 172.10 187.94 171.95 C 187.07 172.98 186.10 173.93 185.31 175.02 C 184.60 176.48 185.92 178.32 184.70 179.59 C 183.59 181.33 182.67 183.17 181.79 185.03 C 180.64 185.18 179.50 185.35 178.35 185.51 C 178.81 184.47 179.27 183.43 179.76 182.42 C 179.60 182.04 179.28 181.28 179.12 180.90 C 180.13 179.35 181.15 177.81 182.21 176.30 Z" />
<path fill="#ffffff" opacity="1.00" d=" M 277.51 177.86 C 274.88 176.61 278.97 174.19 280.37 174.00 C 279.93 175.44 279.06 177.38 277.51 177.86 Z" />
<path fill="#ffffff" opacity="1.00" d=" M 309.82 177.83 C 310.91 176.31 313.20 173.50 315.16 175.00 C 314.57 176.33 313.77 177.54 313.01 178.77 C 312.03 175.84 310.14 179.18 308.34 178.21 C 307.97 178.78 307.25 179.92 306.88 180.49 C 306.29 179.40 305.72 178.32 305.11 177.26 L 304.32 179.29 C 303.95 179.53 303.21 180.01 302.84 180.25 C 303.53 178.49 304.67 176.98 305.83 175.51 C 306.56 176.13 307.30 176.76 308.05 177.38 L 308.49 175.48 C 308.82 176.07 309.49 177.24 309.82 177.83 Z" />
<path fill="#ffffff" opacity="1.00" d=" M 218.87 175.99 C 219.81 174.51 220.66 174.49 221.42 175.91 C 220.48 177.32 219.63 177.35 218.87 175.99 Z" />
<path fill="#ffffff" opacity="1.00" d=" M 196.82 177.68 C 197.82 177.11 198.85 176.61 199.93 176.18 C 199.40 177.99 197.77 180.61 195.58 179.54 L 195.88 178.53 C 196.11 178.32 196.58 177.90 196.82 177.68 Z" />
<path fill="#ffffff" opacity="1.00" d=" M 290.21 175.99 C 291.62 176.16 293.03 176.31 294.43 176.57 C 293.21 178.91 291.70 181.37 288.94 182.02 C 289.48 180.84 290.04 179.67 290.62 178.51 C 289.01 178.73 287.47 179.22 285.91 179.64 C 287.21 178.27 288.73 177.15 290.21 175.99 M 291.31 176.96 L 290.73 177.35 L 291.00 178.32 L 291.89 178.57 C 291.91 178.21 291.94 177.50 291.96 177.15 L 291.31 176.96 Z" />
<path fill="#ffffff" opacity="1.00" d=" M 155.84 177.11 C 156.31 177.70 156.51 178.37 156.20 179.10 C 155.69 180.87 156.16 183.18 154.29 184.23 C 154.37 181.78 155.00 179.41 155.84 177.11 Z" />
<path fill="#ffffff" opacity="1.00" d=" M 158.57 178.95 C 159.47 179.54 160.38 180.13 161.29 180.73 C 159.68 182.81 159.26 185.40 158.66 187.88 C 157.21 188.60 156.61 187.05 155.94 186.09 C 156.68 183.63 158.66 181.63 158.57 178.95 Z" />
<path fill="#ffffff" opacity="1.00" d=" M 170.63 188.33 C 171.99 185.46 173.63 181.51 177.09 180.88 C 177.33 184.07 174.83 187.05 173.15 189.64 L 172.98 187.53 C 172.39 187.73 171.22 188.13 170.63 188.33 Z" />
<path fill="#ffffff" opacity="1.00" d=" M 175.49 192.66 C 175.38 190.02 177.17 186.74 180.11 186.75 C 178.49 189.78 179.26 193.55 177.34 196.40 L 177.22 194.21 C 176.51 194.38 175.08 194.72 174.37 194.89 C 174.39 194.29 174.43 193.09 174.45 192.49 L 175.49 192.66 Z" />
<path fill="#ffffff" opacity="1.00" d=" M 182.02 188.07 C 182.57 187.91 183.67 187.59 184.22 187.44 C 183.71 189.20 183.11 190.94 182.54 192.69 C 183.64 194.63 183.68 196.86 183.78 199.02 C 182.29 198.13 181.09 196.90 179.97 195.61 C 180.48 193.05 181.19 190.54 182.02 188.07 Z" />
<path fill="#ffffff" opacity="1.00" d=" M 164.00 194.92 C 163.72 191.95 166.26 190.11 168.66 189.07 C 167.83 191.54 167.46 195.00 164.00 194.92 Z" />
<path fill="#ffffff" opacity="1.00" d=" M 222.66 196.80 C 224.99 194.66 227.69 192.98 230.12 190.97 C 230.96 191.92 231.85 192.83 232.60 193.86 C 231.36 195.97 230.31 198.18 229.88 200.62 C 230.97 200.18 233.15 199.31 234.23 198.87 C 233.79 199.61 232.91 201.10 232.46 201.85 C 233.11 201.80 234.39 201.71 235.04 201.67 C 233.53 203.36 233.68 206.08 231.50 207.19 C 230.25 206.02 228.71 205.14 226.98 205.80 C 226.96 205.08 226.94 203.65 226.93 202.93 C 226.56 203.65 225.84 205.08 225.47 205.79 C 224.35 205.36 223.43 204.56 222.33 204.10 C 222.75 203.26 223.18 202.42 223.61 201.59 C 225.24 199.38 227.28 197.54 228.97 195.38 C 226.12 197.43 224.05 200.47 220.86 202.05 C 221.65 200.12 223.16 198.66 224.52 197.13 L 222.66 196.80 M 227.05 199.88 C 225.28 202.89 230.19 200.50 227.05 199.88 Z" />
<path fill="#ffffff" opacity="1.00" d=" M 194.65 202.44 C 194.79 197.63 199.22 194.23 203.00 191.84 C 202.34 193.40 201.68 194.97 201.55 196.68 L 200.55 196.74 C 201.05 199.75 199.03 202.15 197.04 204.11 C 193.86 203.55 193.15 207.96 190.15 207.94 C 191.40 205.91 193.00 204.15 194.65 202.44 Z" />
<path fill="#ffffff" opacity="1.00" d=" M 216.08 201.06 C 218.86 198.20 219.44 193.52 223.23 191.63 C 222.11 195.74 218.36 198.91 218.66 203.45 C 214.76 203.25 214.89 208.11 212.99 210.41 C 212.52 209.95 212.05 209.49 211.59 209.03 C 210.37 210.22 209.16 211.42 207.97 212.64 C 209.52 212.00 211.02 211.25 212.59 210.66 C 211.95 211.32 210.66 212.64 210.02 213.30 L 211.34 215.25 L 208.68 213.62 L 210.18 216.43 L 208.48 215.41 C 207.55 216.32 206.57 217.22 205.17 217.06 C 206.13 215.82 207.12 214.57 208.48 213.73 C 207.55 213.27 206.60 212.87 205.66 212.46 C 206.33 211.86 207.67 210.68 208.34 210.09 C 207.95 209.60 207.57 209.11 207.19 208.63 C 206.52 211.21 203.79 212.58 201.61 213.77 C 202.31 212.80 202.97 211.80 203.60 210.79 C 203.10 206.80 207.38 204.84 209.02 201.72 C 210.08 201.55 211.15 201.39 212.22 201.24 C 211.55 203.37 210.09 205.12 208.77 206.88 C 209.09 207.41 209.42 207.94 209.76 208.48 C 211.22 205.51 214.07 203.62 216.08 201.06 Z" />
<path fill="#ffffff" opacity="1.00" d=" M 255.93 195.05 C 256.76 195.59 257.57 196.15 258.36 196.73 C 264.21 200.31 269.84 204.25 275.28 208.40 C 276.14 211.14 279.13 212.64 279.33 215.61 C 277.25 214.12 276.19 210.85 273.03 211.89 C 272.70 211.41 272.03 210.45 271.70 209.97 C 272.60 210.07 274.39 210.26 275.29 210.35 C 273.23 207.94 270.42 206.43 268.06 204.38 L 267.96 206.02 L 266.84 206.03 C 268.31 204.34 266.24 203.92 265.33 203.24 C 265.34 203.92 265.35 205.28 265.36 205.96 C 263.83 204.72 262.29 203.48 261.24 201.79 C 259.82 199.21 256.55 198.12 255.93 195.05 Z" />
<path fill="#ffffff" opacity="1.00" d=" M 165.78 199.16 C 166.20 197.46 166.13 194.74 168.64 194.73 C 168.28 196.43 167.90 198.13 167.50 199.83 C 167.07 199.66 166.21 199.33 165.78 199.16 Z" />
<path fill="#ffffff" opacity="1.00" d=" M 170.97 200.34 C 166.63 201.51 169.64 195.85 172.13 195.57 C 171.99 196.26 171.73 197.65 171.60 198.34 C 173.75 200.62 173.79 204.64 173.76 207.72 C 172.81 206.70 172.54 205.48 172.93 204.07 C 169.43 206.55 170.14 202.05 170.97 200.34 Z" />
<path fill="#ffffff" opacity="1.00" d=" M 184.43 199.66 C 184.90 199.02 185.83 197.76 186.29 197.13 C 186.82 199.36 187.35 201.59 187.61 203.88 C 186.40 203.34 185.78 202.21 185.26 201.07 C 185.42 202.23 185.56 203.40 185.70 204.57 C 182.87 204.49 183.79 201.02 183.01 199.28 L 184.43 199.66 Z" />
<path fill="#ffffff" opacity="1.00" d=" M 202.21 202.57 C 205.56 203.43 205.79 198.17 209.04 198.05 C 206.67 202.14 203.76 205.87 200.73 209.49 C 198.51 210.01 196.84 211.60 194.97 212.80 C 195.55 210.23 197.96 208.83 199.24 206.68 C 200.12 205.23 201.13 203.87 202.21 202.57 Z" />
<path fill="#ffffff" opacity="1.00" d=" M 176.52 208.20 C 176.77 205.87 176.02 202.68 178.36 201.21 C 178.32 203.27 177.19 206.07 179.62 207.29 C 179.81 206.39 180.18 204.60 180.36 203.70 C 180.15 205.82 181.91 207.13 182.66 208.88 C 183.48 210.34 183.70 212.26 185.18 213.28 C 185.23 212.72 185.35 211.59 185.41 211.03 C 186.70 212.73 187.97 214.44 189.15 216.22 L 186.89 215.86 C 187.14 216.50 187.65 217.77 187.90 218.41 C 184.62 217.02 182.70 212.78 182.41 209.32 C 181.87 209.04 180.78 208.48 180.24 208.21 C 180.42 209.44 180.77 211.90 180.94 213.13 C 179.61 212.19 178.89 210.81 178.67 209.22 C 178.13 208.96 177.06 208.45 176.52 208.20 Z" />
<path fill="#ffffff" opacity="1.00" d=" M 256.10 201.27 C 256.48 201.22 257.25 201.10 257.64 201.04 C 259.51 203.08 261.48 205.05 263.67 206.77 C 263.04 207.54 262.30 208.21 261.60 208.92 C 263.33 209.86 265.05 210.84 266.81 211.75 C 267.81 211.24 268.81 210.76 269.83 210.30 C 268.38 211.58 266.55 214.75 264.62 212.31 C 262.27 209.98 258.01 211.30 256.10 208.43 C 257.60 208.78 259.07 209.20 260.57 209.60 C 260.84 209.05 261.37 207.93 261.64 207.38 C 260.93 207.19 259.52 206.82 258.81 206.64 C 257.98 204.81 256.41 203.31 256.10 201.27 Z" />
<path fill="#ffffff" opacity="1.00" d=" M 215.76 213.74 C 217.44 211.24 218.35 208.22 220.48 206.02 C 219.82 209.53 219.05 213.06 216.90 216.00 C 216.51 216.20 215.72 216.59 215.33 216.79 L 215.60 215.11 C 213.77 215.66 211.72 217.37 209.99 215.64 C 210.41 215.66 211.27 215.70 211.70 215.72 C 212.62 214.31 213.39 212.83 214.00 211.26 C 214.60 212.07 215.14 212.93 215.76 213.74 Z" />
<path fill="#ffffff" opacity="1.00" d=" M 240.84 205.87 C 242.37 206.65 243.74 207.69 244.96 208.89 C 245.23 205.49 249.94 206.85 251.40 208.72 C 249.68 208.58 247.98 208.37 246.28 208.15 C 248.02 210.56 250.06 212.78 251.25 215.54 C 251.92 215.44 253.25 215.25 253.91 215.15 C 258.98 217.57 263.82 220.42 268.48 223.56 C 268.67 223.96 269.03 224.77 269.22 225.18 C 267.32 224.62 265.59 223.66 263.87 222.72 C 261.09 223.47 257.90 222.29 256.77 219.53 C 255.69 219.17 254.65 218.73 254.10 217.66 C 250.87 216.73 248.47 214.06 245.32 212.83 C 244.39 211.31 242.69 210.81 241.15 210.20 C 241.62 209.62 242.10 209.05 242.58 208.48 L 241.26 207.56 C 241.16 207.14 240.95 206.30 240.84 205.87 M 260.98 221.22 C 261.59 221.84 261.59 221.84 260.98 221.22 Z" />
<path fill="#ffffff" opacity="1.00" d=" M 214.64 210.44 C 214.60 209.18 215.48 207.07 216.89 207.10 C 217.17 208.40 216.00 210.37 214.64 210.44 Z" />
<path fill="#ffffff" opacity="1.00" d=" M 220.92 209.94 C 221.41 208.64 222.24 207.51 222.98 206.35 C 223.66 206.71 225.03 207.43 225.72 207.79 C 225.38 208.34 225.05 208.89 224.72 209.44 C 223.52 209.48 221.77 211.21 220.92 209.94 Z" />
<path fill="#ffffff" opacity="1.00" d=" M 223.20 213.66 C 223.68 211.22 226.60 210.40 228.33 208.92 C 227.92 210.52 228.68 211.49 230.59 211.82 L 230.15 212.75 C 230.82 212.86 232.16 213.09 232.84 213.21 C 233.45 214.88 234.03 216.59 235.02 218.09 C 237.68 219.47 240.31 220.89 242.79 222.60 C 241.56 220.71 239.14 219.41 238.97 216.95 C 240.17 217.35 241.49 217.63 242.38 218.61 C 245.31 221.72 250.52 222.73 251.62 227.41 C 249.56 227.82 248.85 225.51 247.49 224.51 C 246.11 222.80 243.83 223.83 242.02 223.84 C 240.63 222.79 239.22 221.70 237.85 220.65 C 237.98 221.54 238.23 223.33 238.35 224.23 C 237.23 222.88 236.32 221.37 235.66 219.75 C 233.63 219.13 232.42 217.29 230.86 216.00 C 230.18 213.76 228.11 214.00 226.29 214.58 C 226.16 214.24 225.90 213.57 225.77 213.24 C 225.13 213.34 223.84 213.55 223.20 213.66 Z" />
<path fill="#ffffff" opacity="1.00" d=" M 233.98 212.28 C 234.35 211.91 234.73 211.55 235.11 211.18 C 236.21 212.55 237.68 213.53 239.04 214.63 C 239.45 214.10 239.86 213.58 240.26 213.06 C 239.55 212.51 238.12 211.41 237.41 210.86 C 237.95 210.97 239.04 211.19 239.58 211.30 C 247.07 215.62 254.51 220.19 260.82 226.17 C 261.87 227.13 262.61 228.37 263.23 229.65 C 262.64 229.64 261.47 229.60 260.88 229.59 C 260.98 227.49 258.63 227.09 257.31 226.00 C 253.51 223.68 250.51 220.34 246.95 217.70 C 246.47 217.76 245.52 217.89 245.04 217.95 C 244.94 217.62 244.73 216.95 244.63 216.62 C 242.97 217.09 241.82 216.35 241.20 214.40 C 239.87 215.34 238.94 217.32 237.06 217.02 C 236.13 215.37 235.69 213.36 233.98 212.28 Z" />
<path fill="#ffffff" opacity="1.00" d=" M 188.68 212.80 C 191.16 214.15 192.27 216.92 194.02 219.00 L 194.16 216.93 L 194.95 217.21 C 194.83 217.58 194.58 218.33 194.45 218.70 C 195.50 219.87 195.53 221.46 195.73 222.93 C 195.33 222.72 194.52 222.30 194.12 222.09 C 192.46 218.90 190.55 215.86 188.68 212.80 Z" />
<path fill="#ffffff" opacity="1.00" d=" M 223.98 218.48 C 224.36 217.93 225.12 216.85 225.50 216.31 C 225.04 217.89 224.39 219.41 223.79 220.94 C 223.16 220.00 222.55 219.06 221.90 218.15 C 222.22 220.25 221.87 222.15 219.88 223.04 C 220.23 220.81 220.99 218.67 222.24 216.78 C 222.82 217.35 223.40 217.91 223.98 218.48 Z" />
<path fill="#ffffff" opacity="1.00" d=" M 196.13 218.06 C 197.11 218.38 197.90 218.97 198.50 219.83 C 198.77 219.40 199.29 218.54 199.55 218.11 C 201.04 219.63 202.47 221.22 204.20 222.48 C 203.62 220.94 203.04 219.41 202.46 217.88 C 205.00 219.43 205.18 223.30 206.15 226.00 C 203.78 224.93 202.68 222.49 200.89 220.77 L 201.11 223.63 C 198.93 222.30 197.58 220.09 196.13 218.06 Z" />
<path fill="#ffffff" opacity="1.00" d=" M 207.25 219.90 C 208.33 220.48 209.30 221.22 210.16 222.13 C 212.28 219.73 214.56 223.03 215.84 224.77 C 213.92 224.34 212.40 223.00 210.84 221.91 C 211.16 222.67 211.80 224.21 212.12 224.97 L 211.73 225.58 C 209.50 224.41 208.17 222.15 207.25 219.90 Z" />
</g>
</svg>
