<?xml version="1.0" encoding="UTF-8" ?>
<!DOCTYPE svg PUBLIC "-//W3C//DTD SVG 1.1//EN" "http://www.w3.org/Graphics/SVG/1.1/DTD/svg11.dtd">
<svg width="512pt" height="256pt" viewBox="0 0 512 256" version="1.1" xmlns="http://www.w3.org/2000/svg">
<g id="#ffffffff">
<path fill="#ffffff" opacity="1.00" d=" M 198.63 28.63 C 199.65 28.18 200.68 27.72 201.71 27.28 C 202.25 27.63 203.33 28.33 203.87 28.68 L 204.02 26.91 C 204.60 27.08 205.78 27.41 206.36 27.58 C 206.34 28.12 206.30 29.20 206.28 29.74 C 208.19 30.06 209.41 31.65 210.89 32.74 C 210.01 32.74 208.26 32.75 207.38 32.75 C 208.41 35.09 214.93 33.32 212.02 36.99 L 213.69 36.55 C 213.53 37.05 213.20 38.05 213.03 38.56 C 216.65 38.09 219.27 40.95 222.09 42.68 C 221.40 42.75 220.01 42.88 219.32 42.94 L 219.65 42.55 L 219.26 42.22 L 218.93 42.61 L 219.32 42.94 C 219.83 43.39 220.86 44.29 221.37 44.74 C 223.86 45.36 225.84 47.05 228.07 48.24 C 228.15 48.57 228.30 49.22 228.38 49.54 C 227.71 49.99 227.05 50.44 226.39 50.90 L 228.62 51.76 C 226.55 52.35 224.46 51.76 222.40 51.49 L 222.21 49.37 C 223.36 49.64 225.66 50.17 226.81 50.44 C 226.01 48.68 224.05 48.68 222.44 48.26 C 221.22 46.06 219.02 44.64 216.87 43.46 C 215.05 42.36 212.21 42.56 211.54 40.13 C 211.24 39.98 210.63 39.69 210.33 39.54 C 210.75 39.17 211.58 38.44 211.99 38.07 C 208.23 38.10 208.29 31.97 204.08 33.48 C 204.24 32.70 204.55 31.14 204.71 30.36 C 202.66 29.90 200.34 29.99 198.63 28.63 Z" />
<path fill="#ffffff" opacity="1.00" d=" M 196.90 32.32 C 197.14 32.37 197.63 32.45 197.87 32.49 C 197.18 34.06 196.75 36.13 194.59 36.24 C 195.39 34.95 196.48 33.81 196.90 32.32 Z" />
<path fill="#ffffff" opacity="1.00" d=" M 298.48 31.02 C 301.15 31.61 300.83 33.97 298.80 34.85 C 296.42 35.94 295.45 38.28 294.13 40.35 C 292.12 37.60 292.89 34.45 295.13 32.02 L 295.35 35.20 C 295.88 34.75 296.96 33.84 297.49 33.39 L 296.97 31.99 L 298.84 32.95 L 298.48 31.02 Z" />
<path fill="#ffffff" opacity="1.00" d=" M 299.21 35.57 C 300.78 33.96 303.20 32.37 305.48 33.51 C 305.62 35.46 303.24 34.82 302.06 35.21 C 303.91 37.31 305.99 39.33 307.12 41.95 C 306.27 41.67 304.58 41.11 303.74 40.83 C 304.15 41.35 304.96 42.38 305.37 42.90 C 304.74 43.64 304.13 44.41 303.55 45.18 L 305.39 45.97 C 303.66 46.63 302.96 44.63 301.87 43.82 C 303.61 42.54 303.41 40.79 302.23 39.19 L 304.13 39.27 C 302.70 37.78 301.30 36.13 299.21 35.57 Z" />
<path fill="#ffffff" opacity="1.00" d=" M 289.62 37.74 C 290.47 36.69 291.13 35.19 292.68 35.07 C 292.49 36.32 290.32 37.69 291.75 38.94 C 293.01 40.30 291.94 42.17 291.86 43.74 C 291.45 43.33 290.63 42.51 290.22 42.10 C 290.69 40.58 290.37 39.10 289.62 37.74 Z" />
<path fill="#ffffff" opacity="1.00" d=" M 193.71 38.17 C 194.61 37.58 195.55 37.05 196.65 36.95 C 195.72 38.82 194.74 40.72 193.16 42.14 C 193.35 40.82 193.53 39.49 193.71 38.17 Z" />
<path fill="#ffffff" opacity="1.00" d=" M 285.78 42.91 C 286.59 41.57 286.25 37.88 288.37 38.25 L 287.62 40.77 L 290.01 39.06 C 289.47 41.40 288.78 43.70 287.83 45.90 L 286.48 45.23 C 286.40 46.52 285.89 47.58 284.96 48.42 C 284.93 47.54 284.87 45.79 284.83 44.91 C 283.63 45.42 283.39 46.87 282.47 47.68 C 282.59 49.60 282.70 51.52 282.71 53.44 C 282.15 53.53 281.04 53.70 280.48 53.79 C 280.66 51.73 280.70 49.67 280.69 47.61 C 281.40 47.16 282.11 46.71 282.82 46.26 C 283.03 45.63 283.46 44.38 283.68 43.75 C 284.20 43.54 285.25 43.12 285.78 42.91 Z" />
<path fill="#ffffff" opacity="1.00" d=" M 213.80 45.15 C 216.93 44.87 219.82 46.87 221.84 49.09 C 219.05 48.25 215.56 47.73 213.80 45.15 Z" />
<path fill="#ffffff" opacity="1.00" d=" M 189.79 49.54 C 190.64 48.18 191.66 46.93 192.76 45.77 C 194.45 47.91 192.85 50.31 193.47 52.64 C 192.79 53.04 192.08 53.42 191.40 53.83 C 190.63 54.59 189.80 55.29 188.92 55.92 C 190.61 53.48 191.68 50.91 192.59 48.11 L 189.79 49.54 Z" />
<path fill="#ffffff" opacity="1.00" d=" M 286.10 49.39 C 288.69 50.63 291.17 52.26 292.92 54.58 C 290.44 53.21 287.44 52.08 286.10 49.39 Z" />
<path fill="#ffffff" opacity="1.00" d=" M 220.25 50.19 C 220.85 50.81 220.85 50.81 220.25 50.19 Z" />
<path fill="#ffffff" opacity="1.00" d=" M 215.73 51.99 C 217.84 52.54 220.89 52.42 221.94 54.74 C 219.62 54.59 217.25 53.85 215.73 51.99 Z" />
<path fill="#ffffff" opacity="1.00" d=" M 228.14 52.86 C 229.10 51.85 231.72 53.08 230.76 54.46 C 229.76 55.23 227.40 54.28 228.14 52.86 Z" />
<path fill="#ffffff" opacity="1.00" d=" M 299.10 54.22 C 300.33 54.98 301.57 55.72 302.80 56.48 C 302.16 56.51 300.87 56.57 300.23 56.60 C 300.87 58.11 302.08 59.44 302.12 61.15 C 300.31 60.05 299.09 58.35 298.26 56.44 C 298.65 56.52 299.42 56.70 299.80 56.78 C 299.63 56.14 299.28 54.86 299.10 54.22 Z" />
<path fill="#ffffff" opacity="1.00" d=" M 213.94 55.01 C 215.14 55.55 216.26 56.26 217.33 57.04 C 218.71 57.69 220.55 57.78 221.20 59.45 C 220.50 59.09 219.08 58.36 218.37 58.00 C 218.39 58.59 218.43 59.78 218.46 60.38 C 217.04 59.78 216.28 58.66 216.11 57.18 C 214.92 56.88 214.19 56.16 213.94 55.01 Z" />
<path fill="#ffffff" opacity="1.00" d=" M 230.02 56.00 C 230.60 56.04 231.74 56.13 232.31 56.17 C 232.64 57.22 233.21 58.13 234.03 58.90 C 233.43 58.85 232.24 58.75 231.64 58.71 C 231.16 57.77 230.62 56.87 230.02 56.00 Z" />
<path fill="#ffffff" opacity="1.00" d=" M 266.17 61.23 C 268.08 59.34 269.83 57.07 272.49 56.22 C 272.37 56.56 272.13 57.23 272.00 57.56 C 270.67 58.96 269.62 60.61 269.35 62.56 C 268.94 62.54 268.14 62.52 267.74 62.50 C 267.59 64.06 267.39 65.64 266.38 66.90 C 266.42 66.20 266.51 64.80 266.55 64.10 C 264.67 63.69 263.49 65.25 262.02 65.99 C 262.28 63.64 264.69 62.72 266.17 61.23 Z" />
<path fill="#ffffff" opacity="1.00" d=" M 281.41 56.35 C 283.44 56.93 285.24 58.09 286.95 59.31 C 287.51 58.89 288.07 58.47 288.63 58.04 L 286.80 57.67 L 287.25 56.39 C 288.73 57.55 292.65 58.41 289.39 60.40 C 289.95 60.69 291.07 61.27 291.62 61.56 C 290.79 61.96 289.97 62.36 289.15 62.76 C 290.76 63.25 291.69 64.26 291.95 65.79 C 288.14 63.24 284.65 60.27 280.91 57.62 C 281.04 57.30 281.29 56.67 281.41 56.35 M 289.01 59.36 C 289.32 59.74 289.32 59.74 289.01 59.36 M 288.37 61.34 C 288.76 61.76 288.76 61.76 288.37 61.34 C 287.70 60.57 287.70 60.57 288.37 61.34 Z" />
<path fill="#ffffff" opacity="1.00" d=" M 189.37 61.05 C 190.03 60.27 190.70 59.48 191.37 58.70 C 192.31 60.58 193.67 62.57 191.17 64.18 C 191.74 64.24 192.88 64.36 193.45 64.42 L 193.03 65.47 C 195.36 66.42 193.53 69.28 192.80 70.83 C 191.30 72.85 190.25 76.07 187.44 76.40 C 189.02 74.04 191.17 72.05 192.05 69.27 C 189.13 68.28 189.31 71.45 187.22 72.02 C 188.32 69.73 189.86 67.69 191.51 65.76 C 190.60 65.22 189.68 64.73 188.76 64.23 C 189.37 63.86 190.58 63.13 191.19 62.76 C 190.60 62.17 189.99 61.61 189.37 61.05 Z" />
<path fill="#ffffff" opacity="1.00" d=" M 220.10 59.97 C 222.65 58.49 225.25 61.54 226.90 63.24 C 225.13 62.97 223.41 62.39 221.61 62.30 C 221.24 61.72 220.48 60.56 220.10 59.97 Z" />
<path fill="#ffffff" opacity="1.00" d=" M 229.25 59.16 C 232.19 61.80 236.74 59.36 239.31 62.48 C 240.23 63.11 241.23 63.65 241.90 64.58 C 240.34 65.09 238.24 66.27 236.93 64.59 C 235.40 64.59 233.87 64.62 232.35 64.66 L 232.93 63.28 C 229.97 65.18 230.32 60.74 229.25 59.16 M 233.17 63.03 C 233.41 64.40 235.73 64.45 236.72 63.84 C 236.53 62.48 234.12 62.38 233.17 63.03 Z" />
<path fill="#ffffff" opacity="1.00" d=" M 252.44 63.35 C 253.14 61.85 253.89 59.72 255.95 60.04 C 255.50 60.75 254.59 62.17 254.14 62.88 C 255.07 63.40 256.04 63.87 257.10 64.07 C 257.54 63.51 258.42 62.40 258.85 61.84 C 259.65 65.94 254.36 64.15 252.15 65.73 L 252.47 64.24 C 251.30 65.14 250.15 66.05 248.97 66.93 C 248.55 64.91 250.55 63.34 252.44 63.35 Z" />
<path fill="#ffffff" opacity="1.00" d=" M 219.33 63.22 C 217.76 64.15 216.33 60.99 218.24 60.63 C 219.17 60.86 220.85 62.58 219.33 63.22 Z" />
<path fill="#ffffff" opacity="1.00" d=" M 248.80 61.18 C 248.47 62.66 247.89 64.06 247.61 65.55 C 245.59 64.94 244.61 67.57 242.90 68.21 C 243.49 65.00 246.51 63.16 248.80 61.18 Z" />
<path fill="#ffffff" opacity="1.00" d=" M 275.71 68.11 C 273.01 67.55 271.74 62.32 274.52 61.03 C 275.02 63.37 275.40 65.73 275.71 68.11 Z" />
<path fill="#ffffff" opacity="1.00" d=" M 276.53 61.50 C 277.07 61.51 278.14 61.52 278.67 61.53 C 279.68 63.48 280.65 65.45 281.69 67.39 L 280.18 67.01 C 280.41 67.81 280.88 69.42 281.11 70.22 C 278.20 68.25 277.47 64.65 276.53 61.50 Z" />
<path fill="#ffffff" opacity="1.00" d=" M 298.97 62.31 C 300.15 61.74 301.44 63.58 300.77 64.60 C 299.61 65.20 298.12 63.31 298.97 62.31 Z" />
<path fill="#ffffff" opacity="1.00" d=" M 220.82 64.76 C 220.69 64.09 220.43 62.76 220.30 62.09 C 221.34 63.58 226.43 63.46 225.33 66.05 C 222.99 65.79 220.64 65.39 218.28 65.72 L 218.16 65.20 C 218.83 65.09 220.16 64.87 220.82 64.76 Z" />
<path fill="#ffffff" opacity="1.00" d=" M 297.33 64.98 C 299.17 65.31 300.46 68.66 298.49 69.70 C 298.80 70.21 299.42 71.22 299.73 71.72 C 299.13 71.87 297.93 72.16 297.33 72.31 C 297.98 73.08 298.65 73.83 299.34 74.57 C 299.39 75.44 299.32 76.29 299.13 77.13 C 297.02 76.53 295.48 74.86 293.96 73.38 C 294.74 73.65 296.31 74.20 297.09 74.47 C 296.46 72.79 296.06 71.06 295.90 69.26 L 297.89 69.77 L 297.48 67.72 L 296.19 67.07 C 296.58 66.95 297.36 66.72 297.75 66.61 L 297.33 64.98 Z" />
<path fill="#ffffff" opacity="1.00" d=" M 225.12 66.67 C 226.61 67.11 226.15 69.14 227.69 69.63 C 227.43 71.53 226.97 73.43 227.48 75.35 C 226.21 75.72 225.14 76.53 224.68 77.80 C 226.06 77.17 227.45 76.56 228.87 76.04 L 228.23 77.71 C 228.83 77.62 230.03 77.44 230.63 77.35 C 230.46 78.13 230.12 79.68 229.95 80.46 C 228.79 80.72 227.64 80.99 226.48 81.26 C 226.61 80.63 226.87 79.38 226.99 78.75 L 226.20 80.32 C 225.21 79.52 223.87 79.07 223.23 80.53 C 223.92 80.55 225.30 80.58 225.99 80.60 C 224.70 82.30 222.62 82.85 220.80 83.72 C 220.10 83.78 218.69 83.89 217.99 83.95 L 217.00 82.99 C 219.36 80.75 221.78 78.58 224.08 76.27 L 223.08 76.02 L 223.06 76.89 C 221.97 77.56 220.84 78.15 219.68 78.66 C 219.99 76.68 222.02 75.78 223.14 74.33 L 220.96 74.61 C 221.21 74.15 221.71 73.21 221.96 72.74 C 221.79 72.39 221.44 71.69 221.27 71.34 L 223.53 71.27 C 222.92 70.73 221.71 69.65 221.10 69.11 C 221.79 69.28 223.17 69.63 223.85 69.81 L 223.63 68.34 C 224.20 68.59 225.33 69.09 225.89 69.33 L 225.12 66.67 Z" />
<path fill="#ffffff" opacity="1.00" d=" M 248.45 69.22 C 248.79 68.98 249.47 68.49 249.80 68.24 C 248.65 70.02 248.78 71.87 249.84 73.70 L 247.97 73.56 C 248.35 73.83 249.09 74.38 249.46 74.65 C 248.86 76.19 248.27 77.73 247.61 79.24 C 245.25 76.19 247.41 72.37 248.45 69.22 Z" />
<path fill="#ffffff" opacity="1.00" d=" M 240.04 75.18 C 238.64 73.78 239.96 72.48 240.38 71.16 C 240.75 72.25 241.47 73.01 242.54 73.44 C 242.03 74.12 241.52 74.79 241.00 75.45 C 240.49 78.61 245.90 80.10 242.74 83.54 L 244.53 81.89 C 246.63 84.50 249.35 86.52 251.43 89.14 C 250.04 89.24 248.65 89.31 247.26 89.35 C 242.54 86.88 238.64 82.94 235.64 78.59 C 233.95 79.84 232.00 80.76 229.96 81.27 C 230.69 79.87 231.54 78.56 232.53 77.34 C 233.59 76.66 235.11 76.57 235.55 75.14 C 236.42 75.45 238.15 76.06 239.02 76.37 L 237.90 73.94 L 240.04 75.18 M 237.65 78.06 C 238.33 80.09 240.41 80.52 242.21 81.05 L 243.00 80.92 C 242.43 80.04 241.28 78.27 240.71 77.39 C 239.95 77.56 238.42 77.89 237.65 78.06 M 240.24 82.31 C 241.05 83.05 241.05 83.05 240.24 82.31 C 239.41 81.60 239.41 81.60 240.24 82.31 M 242.21 81.05 L 242.18 81.72 L 242.80 81.77 C 242.65 81.59 242.36 81.23 242.21 81.05 Z" />
<path fill="#ffffff" opacity="1.00" d=" M 275.95 74.69 C 276.52 73.26 277.05 71.82 277.52 70.35 C 278.36 72.61 282.77 74.61 280.93 77.21 L 280.33 75.81 C 279.40 76.15 278.49 76.50 277.56 76.81 C 277.16 76.28 276.35 75.22 275.95 74.69 M 277.22 74.18 C 277.53 77.10 280.26 72.70 277.22 74.18 Z" />
<path fill="#ffffff" opacity="1.00" d=" M 189.88 76.26 C 191.24 74.84 192.60 73.42 194.02 72.06 C 194.87 74.76 192.76 77.05 191.85 79.41 C 191.34 79.48 190.33 79.62 189.82 79.69 L 191.46 79.59 L 191.32 81.24 L 190.40 80.95 C 189.67 82.25 188.82 83.65 187.16 83.77 C 187.67 82.96 188.26 82.23 188.95 81.57 C 188.61 80.89 188.28 80.21 187.96 79.53 C 188.96 78.67 189.62 77.55 189.88 76.26 Z" />
<path fill="#ffffff" opacity="1.00" d=" M 248.24 84.46 C 249.28 80.65 249.37 75.68 252.72 73.15 C 250.70 76.94 249.53 81.08 249.93 85.42 C 249.51 85.18 248.66 84.70 248.24 84.46 Z" />
<path fill="#ffffff" opacity="1.00" d=" M 216.90 74.11 C 218.48 73.74 219.09 74.35 218.75 75.94 C 217.13 76.32 216.52 75.71 216.90 74.11 Z" />
<path fill="#ffffff" opacity="1.00" d=" M 270.46 75.37 C 272.45 74.43 273.36 79.00 271.21 79.05 C 270.00 78.39 269.63 76.45 270.46 75.37 Z" />
<path fill="#ffffff" opacity="1.00" d=" M 294.06 77.09 C 296.14 79.13 298.93 80.87 299.96 83.69 C 297.90 82.98 295.93 82.04 294.01 81.03 C 293.57 85.23 299.72 84.43 298.73 89.01 C 297.10 88.04 295.61 86.89 294.13 85.72 C 292.34 84.04 289.68 84.33 287.48 83.58 C 285.63 81.98 283.27 80.49 283.03 77.80 C 284.75 79.25 287.17 79.76 288.55 81.58 C 288.94 81.15 289.71 80.27 290.10 79.83 L 290.38 79.33 C 291.64 80.15 292.72 81.77 294.38 80.75 L 297.22 81.55 C 295.78 80.30 294.73 78.82 294.06 77.09 Z" />
<path fill="#ffffff" opacity="1.00" d=" M 200.43 80.43 C 201.92 80.27 202.57 82.54 203.31 83.57 L 203.21 84.17 C 201.56 84.21 199.85 82.01 200.43 80.43 Z" />
<path fill="#ffffff" opacity="1.00" d=" M 244.86 80.35 C 246.29 80.06 246.81 80.55 246.41 81.85 C 244.91 82.17 244.39 81.67 244.86 80.35 Z" />
<path fill="#ffffff" opacity="1.00" d=" M 251.01 80.57 C 251.42 80.43 252.23 80.15 252.63 80.01 C 252.30 82.35 252.44 84.83 251.38 87.02 C 251.15 84.88 251.09 82.72 251.01 80.57 Z" />
<path fill="#ffffff" opacity="1.00" d=" M 203.07 80.26 C 204.14 81.19 205.22 82.13 206.28 83.09 C 208.06 81.31 209.44 84.72 210.97 85.11 L 210.59 83.36 C 212.54 82.41 214.57 82.85 215.86 84.62 C 214.62 84.91 213.38 85.18 212.14 85.43 L 212.98 86.84 C 211.41 85.98 210.22 87.29 209.17 88.16 C 206.77 87.24 204.33 86.23 202.47 84.38 L 203.21 84.17 C 203.63 84.25 204.45 84.40 204.87 84.47 C 205.70 85.16 206.60 85.76 207.55 86.28 C 208.31 86.10 208.84 85.66 209.13 84.97 C 207.74 84.16 206.32 84.00 204.87 84.47 L 205.58 83.26 C 204.93 82.91 203.63 82.21 202.99 81.86 L 203.07 80.26 Z" />
<path fill="#ffffff" opacity="1.00" d=" M 190.84 84.71 C 190.46 83.27 190.73 81.96 191.64 80.78 C 193.13 83.06 193.07 85.76 191.96 88.16 C 191.70 89.91 191.11 91.90 189.03 92.14 C 189.68 90.90 190.36 89.67 191.06 88.45 L 188.74 89.02 C 189.03 87.40 189.99 86.07 190.84 84.71 Z" />
<path fill="#ffffff" opacity="1.00" d=" M 230.65 83.17 C 236.26 85.39 241.40 88.59 246.66 91.51 L 246.14 92.91 L 248.54 92.00 C 248.14 92.42 247.34 93.26 246.94 93.68 C 248.40 94.52 249.92 95.27 251.14 96.46 C 249.10 97.82 246.96 97.49 244.90 96.49 L 244.76 96.95 C 246.09 99.30 249.88 99.38 250.33 102.40 C 250.58 101.60 250.82 100.79 251.04 99.98 C 251.94 100.48 252.86 100.94 253.81 101.35 C 253.48 100.16 251.90 99.50 252.10 98.16 C 253.82 98.01 254.73 99.79 255.95 100.67 C 256.35 100.37 257.15 99.77 257.54 99.48 C 258.44 100.52 258.96 102.16 260.40 102.58 L 261.15 102.16 C 261.55 102.19 262.35 102.25 262.75 102.28 L 263.16 104.65 C 263.80 103.72 264.57 102.79 264.61 101.58 C 265.02 101.83 265.82 102.33 266.23 102.58 C 266.45 101.93 266.91 100.64 267.14 100.00 C 269.41 102.74 271.22 105.86 273.04 108.92 C 274.00 108.83 274.97 108.72 275.93 108.58 C 274.30 106.57 272.74 104.51 271.10 102.51 C 271.19 102.18 271.38 101.51 271.47 101.18 C 274.10 103.05 275.63 105.93 277.75 108.29 C 279.02 109.71 280.07 111.49 279.98 113.46 C 280.43 113.71 281.33 114.21 281.78 114.45 C 281.36 119.85 278.98 114.37 278.22 112.93 C 278.10 114.31 277.86 115.66 277.51 117.00 C 276.19 114.64 274.98 112.14 274.76 109.40 C 273.21 111.29 274.95 113.36 275.23 115.37 C 274.75 115.20 273.80 114.86 273.33 114.69 C 272.23 111.52 271.74 108.13 269.83 105.28 C 267.92 107.40 270.30 110.63 268.26 112.62 C 267.40 110.21 266.88 107.70 266.17 105.25 C 265.10 105.88 264.66 106.83 264.85 108.11 C 263.58 107.25 262.50 106.16 261.65 104.89 C 260.21 105.00 259.09 104.19 258.07 103.27 L 258.06 105.23 C 256.20 104.03 254.25 102.90 252.73 101.27 C 251.94 102.81 251.37 104.84 252.58 106.33 C 252.88 105.81 253.46 104.76 253.76 104.24 C 254.43 104.88 255.10 105.52 255.77 106.17 C 257.95 108.27 260.31 111.00 260.20 114.19 C 258.33 115.40 256.97 111.61 254.85 112.94 C 253.46 113.54 252.52 111.96 251.50 111.32 L 251.95 113.21 C 250.20 113.26 248.52 112.92 246.93 112.18 L 248.08 111.26 C 247.17 111.29 246.27 111.31 245.37 111.34 C 246.32 111.93 247.12 112.70 247.85 113.55 C 245.25 114.82 243.52 112.21 241.38 111.35 C 241.14 112.16 240.89 112.98 240.66 113.79 C 241.69 114.95 242.68 116.14 243.64 117.37 C 240.86 116.59 238.59 114.67 235.81 113.93 C 237.26 115.25 238.94 116.26 240.58 117.32 C 238.58 120.08 234.38 120.51 233.34 123.95 C 233.47 122.82 233.59 121.69 233.71 120.57 C 234.37 120.53 235.70 120.45 236.37 120.41 C 235.50 118.28 237.23 117.74 238.81 117.15 C 237.83 116.89 235.86 116.38 234.88 116.12 C 234.67 115.24 234.50 114.36 234.38 113.47 C 235.64 111.90 237.85 111.83 239.38 110.70 C 240.45 107.19 245.54 107.55 247.72 109.82 C 246.75 109.01 245.98 107.87 244.78 107.38 C 240.87 107.84 237.44 109.72 233.93 111.29 C 232.93 107.92 237.15 109.07 237.73 106.56 C 236.26 107.15 234.80 107.74 233.34 108.32 C 233.47 109.14 233.72 110.78 233.85 111.60 L 232.49 111.10 C 231.25 112.04 229.91 112.86 228.44 113.38 C 229.36 111.48 231.31 110.44 232.73 108.98 C 230.98 109.49 229.24 110.06 227.51 110.67 L 227.55 111.77 C 226.97 111.72 225.80 111.62 225.22 111.57 C 225.25 111.06 225.33 110.04 225.37 109.53 C 227.14 108.97 228.92 108.43 230.68 107.80 C 233.14 106.72 235.66 105.80 238.19 104.88 C 238.87 105.37 239.58 105.84 240.31 106.27 C 240.99 105.85 242.35 105.01 243.03 104.59 C 245.53 105.52 247.82 106.99 250.42 107.65 C 250.10 106.27 250.98 105.09 251.42 103.86 C 247.90 103.44 244.42 102.83 241.14 101.45 C 240.48 100.76 239.81 100.10 239.13 99.45 C 239.70 100.73 240.27 102.02 240.86 103.30 C 238.27 102.64 235.44 102.38 233.28 100.65 C 234.40 100.45 236.63 100.04 237.75 99.84 C 237.24 99.30 236.23 98.22 235.73 97.68 C 237.71 98.08 239.67 98.59 241.63 99.09 C 241.32 98.42 240.71 97.10 240.41 96.44 C 239.44 96.12 237.16 97.38 237.30 95.56 C 237.69 95.11 238.48 94.22 238.88 93.77 C 240.47 94.31 243.09 94.13 243.33 96.41 C 242.76 96.47 241.61 96.60 241.03 96.66 C 242.43 99.04 244.71 100.53 247.45 100.91 C 246.21 99.25 242.71 99.20 242.53 97.21 C 244.53 96.55 244.04 94.43 242.97 93.20 L 244.87 93.44 C 244.16 92.69 243.45 91.94 242.73 91.21 C 242.32 91.64 241.49 92.52 241.07 92.96 C 235.90 91.13 230.81 88.96 225.49 87.66 C 225.33 87.22 225.01 86.33 224.86 85.88 C 228.73 87.50 232.76 88.71 236.66 90.25 L 235.43 87.29 C 234.90 87.46 233.85 87.82 233.32 88.00 L 233.83 86.41 C 232.63 86.69 231.51 86.52 230.45 85.90 C 230.50 85.22 230.60 83.85 230.65 83.17 M 267.24 103.72 C 267.71 103.96 267.71 103.96 267.24 103.72 Z" />
<path fill="#ffffff" opacity="1.00" d=" M 253.73 84.68 C 254.54 84.58 255.35 84.48 256.17 84.39 C 255.78 87.43 257.72 89.92 258.27 92.79 C 259.56 93.87 261.07 94.62 262.72 94.98 C 263.43 95.76 264.13 96.55 264.85 97.34 C 264.59 97.77 264.07 98.63 263.81 99.06 C 262.39 98.94 261.41 99.90 260.39 100.70 C 259.97 97.90 257.58 96.09 255.95 93.99 L 256.91 97.06 C 254.41 95.85 251.78 94.95 249.29 93.73 L 250.08 92.19 L 248.68 92.27 L 248.56 90.40 L 250.24 91.41 C 251.11 89.77 252.27 90.97 253.31 91.66 C 253.44 91.29 253.69 90.55 253.82 90.18 C 254.06 90.72 254.54 91.78 254.77 92.32 L 256.85 92.60 C 255.49 90.09 254.44 87.45 253.73 84.68 Z" />
<path fill="#ffffff" opacity="1.00" d=" M 200.12 84.83 C 202.20 86.07 204.18 87.47 206.36 88.55 C 205.70 89.09 204.93 89.43 204.07 89.56 C 203.40 91.11 201.51 90.94 200.19 91.44 C 200.61 91.66 201.45 92.08 201.87 92.30 C 200.59 93.88 199.38 95.51 198.11 97.10 C 200.84 99.48 204.69 98.51 208.00 99.05 L 208.00 100.60 C 209.53 100.63 211.07 100.67 212.61 100.71 L 212.35 99.38 C 217.21 100.50 222.75 99.36 227.16 101.79 C 224.95 102.09 222.37 101.02 220.54 102.68 C 218.62 104.14 216.06 103.72 213.82 103.99 C 211.28 104.82 208.58 104.35 205.98 104.32 C 204.32 104.05 202.09 104.44 201.17 102.71 C 207.35 101.69 214.04 104.28 219.83 101.26 C 217.84 100.43 214.33 102.65 213.39 100.17 C 213.38 100.68 213.37 101.69 213.36 102.20 C 208.48 102.81 203.95 99.33 198.94 100.60 C 197.84 98.53 195.36 98.50 193.33 98.34 C 194.09 97.34 195.07 96.55 196.10 95.84 C 195.23 96.04 193.50 96.45 192.63 96.65 C 193.48 94.68 195.44 93.82 197.04 92.61 C 196.48 92.24 195.38 91.50 194.83 91.14 C 196.06 90.90 197.29 90.68 198.53 90.46 L 198.40 89.48 C 199.37 89.30 201.31 88.94 202.28 88.76 C 201.29 88.64 199.32 88.38 198.33 88.25 L 199.23 87.00 C 199.94 87.10 201.36 87.30 202.08 87.40 C 201.59 86.75 200.61 85.47 200.12 84.83 Z" />
<path fill="#ffffff" opacity="1.00" d=" M 258.29 87.87 C 258.85 87.80 259.97 87.67 260.52 87.61 C 260.40 88.10 260.15 89.09 260.02 89.58 L 261.44 89.39 C 263.80 90.87 265.09 93.39 266.15 95.86 C 265.68 95.60 264.73 95.08 264.26 94.82 C 262.02 92.78 258.25 91.44 258.29 87.87 Z" />
<path fill="#ffffff" opacity="1.00" d=" M 289.06 87.09 C 289.66 87.29 290.86 87.69 291.46 87.89 C 294.17 88.59 296.94 89.79 298.85 91.91 C 295.40 90.98 291.80 89.43 289.06 87.09 Z" />
<path fill="#ffffff" opacity="1.00" d=" M 219.65 88.10 C 221.07 88.35 222.76 88.24 223.85 89.38 C 227.74 88.92 231.18 90.90 234.83 91.85 C 236.20 92.11 237.45 92.70 238.43 93.71 C 236.29 94.17 233.94 95.42 231.80 94.28 C 229.41 93.12 227.04 91.87 224.41 91.36 L 224.42 90.58 C 222.39 90.77 220.35 90.22 219.65 88.10 Z" />
<path fill="#ffffff" opacity="1.00" d=" M 266.85 88.76 C 267.79 89.29 268.59 89.99 269.24 90.86 C 271.03 91.90 273.04 92.77 274.33 94.48 L 271.70 94.05 C 273.13 95.70 275.34 96.84 276.08 99.03 C 274.26 98.12 272.71 96.29 270.50 96.49 C 270.79 93.31 267.90 91.47 266.85 88.76 Z" />
<path fill="#ffffff" opacity="1.00" d=" M 290.88 91.91 C 290.85 91.36 290.78 90.26 290.74 89.71 C 292.17 90.36 292.76 91.35 292.53 92.67 C 292.82 93.00 293.40 93.66 293.69 93.98 L 293.13 91.80 C 294.57 93.04 297.18 93.38 297.72 95.48 L 296.85 95.70 L 293.66 94.30 C 294.35 95.08 295.74 96.65 296.44 97.43 C 295.83 98.14 295.53 98.97 295.51 99.91 C 294.05 98.48 292.59 97.05 291.10 95.66 L 292.55 93.98 L 290.31 94.70 C 289.28 93.44 288.15 92.23 287.49 90.72 C 288.34 91.01 290.03 91.61 290.88 91.91 Z" />
<path fill="#ffffff" opacity="1.00" d=" M 206.80 91.00 C 207.87 91.45 208.91 91.96 209.93 92.53 C 210.60 92.46 211.93 92.33 212.59 92.26 C 212.40 93.49 212.10 94.87 213.74 95.14 C 213.69 94.62 213.59 93.59 213.54 93.07 C 217.80 93.00 221.79 95.76 226.03 94.58 C 228.87 96.44 233.08 94.93 235.27 97.87 C 233.77 97.90 232.27 97.99 230.79 98.14 C 231.30 99.11 232.15 99.78 233.33 100.16 C 228.84 101.61 224.52 98.96 220.02 99.06 C 218.45 98.70 215.65 99.56 215.63 97.18 C 217.79 98.04 220.08 97.54 222.30 97.33 C 221.00 94.79 218.08 94.71 215.80 95.77 C 213.09 98.18 209.40 96.05 206.42 95.39 C 206.25 94.92 205.91 93.98 205.74 93.51 C 207.40 93.84 209.06 94.22 210.72 94.57 C 210.73 94.31 210.74 93.81 210.74 93.56 C 208.86 93.57 207.28 92.97 206.80 91.00 M 221.91 96.72 C 224.30 97.91 227.38 97.85 229.93 97.94 C 228.32 95.29 224.48 97.24 221.91 96.72 Z" />
<path fill="#ffffff" opacity="1.00" d=" M 270.79 96.86 C 273.59 98.86 276.81 100.52 278.83 103.41 C 278.34 103.45 277.34 103.54 276.85 103.59 C 278.13 105.31 279.63 106.89 280.68 108.78 C 281.61 109.12 282.56 109.43 283.52 109.72 C 283.63 110.75 283.74 111.79 283.86 112.83 L 283.22 112.80 L 283.01 110.00 C 282.57 110.94 282.11 111.87 281.66 112.81 C 280.28 111.73 280.55 109.23 278.93 108.19 C 277.30 106.95 276.58 104.98 275.36 103.40 C 273.85 101.21 271.69 99.44 270.79 96.86 Z" />
<path fill="#ffffff" opacity="1.00" d=" M 186.81 100.20 C 187.85 99.61 188.98 99.26 190.18 99.54 C 189.98 101.34 189.77 103.15 189.44 104.94 C 187.84 104.97 186.24 105.00 184.64 105.04 C 184.46 107.45 181.67 106.40 180.10 106.90 C 181.14 105.88 182.46 104.99 182.64 103.41 C 183.48 103.49 185.15 103.66 185.99 103.74 C 185.34 103.11 184.03 101.83 183.38 101.19 C 184.49 101.32 186.72 101.58 187.83 101.70 C 187.58 101.33 187.07 100.58 186.81 100.20 Z" />
<path fill="#ffffff" opacity="1.00" d=" M 251.04 99.98 C 250.32 99.40 250.32 99.40 251.04 99.98 Z" />
<path fill="#ffffff" opacity="1.00" d=" M 287.17 98.22 C 288.57 98.60 292.07 97.55 291.82 100.06 C 290.31 100.66 288.73 101.08 287.21 101.64 C 287.20 100.78 287.18 99.08 287.17 98.22 Z" />
<path fill="#ffffff" opacity="1.00" d=" M 227.05 104.18 C 227.80 102.23 230.55 103.59 231.21 101.44 C 232.66 101.65 234.00 102.28 235.09 103.26 C 232.53 104.32 229.75 104.11 227.05 104.18 Z" />
<path fill="#ffffff" opacity="1.00" d=" M 290.32 103.78 C 289.32 102.31 293.20 102.35 293.67 101.45 C 293.32 102.02 292.61 103.17 292.25 103.74 C 292.75 103.77 293.75 103.82 294.24 103.85 C 294.35 104.75 294.56 106.56 294.66 107.46 C 293.61 107.54 291.50 107.72 290.45 107.81 L 292.00 106.15 L 290.88 105.62 C 290.85 105.28 290.78 104.61 290.74 104.27 L 290.32 103.78 Z" />
<path fill="#ffffff" opacity="1.00" d=" M 297.41 103.43 C 298.38 103.73 299.31 104.12 300.26 104.50 C 300.86 106.20 301.42 107.95 301.08 109.78 C 302.65 111.64 304.13 113.58 305.69 115.47 C 305.37 117.40 305.04 119.34 304.50 121.23 C 304.30 119.15 304.31 117.05 304.21 114.97 L 303.07 115.00 C 303.03 115.51 302.94 116.51 302.90 117.02 C 302.54 116.98 301.83 116.92 301.47 116.88 C 301.55 114.75 301.47 112.56 300.24 110.73 C 299.91 109.44 299.50 108.18 298.87 107.02 C 299.50 105.50 297.75 104.71 297.41 103.43 Z" />
<path fill="#ffffff" opacity="1.00" d=" M 192.99 105.99 C 198.70 107.27 204.61 105.86 210.31 107.32 C 214.17 106.07 218.26 108.60 222.26 108.34 C 221.64 110.71 218.78 109.42 217.05 109.53 C 213.44 108.53 209.70 107.96 205.95 108.14 C 203.29 108.39 201.07 110.22 198.34 110.16 C 198.79 110.74 199.68 111.88 200.13 112.45 C 197.15 111.64 193.99 111.74 191.05 110.77 C 190.06 110.66 189.06 110.55 188.07 110.46 C 188.17 109.70 188.38 108.18 188.49 107.42 C 190.69 107.13 192.94 107.05 195.06 107.88 C 194.54 107.41 193.50 106.47 192.99 105.99 Z" />
<path fill="#ffffff" opacity="1.00" d=" M 258.87 106.52 C 262.78 109.93 266.99 113.96 267.27 119.50 C 265.94 117.66 263.69 116.44 263.16 114.11 C 262.29 111.28 259.81 109.33 258.87 106.52 Z" />
<path fill="#ffffff" opacity="1.00" d=" M 178.74 109.28 C 181.05 106.87 185.19 108.70 188.22 108.28 C 187.67 108.61 186.55 109.26 185.99 109.59 C 186.41 109.55 187.26 109.46 187.68 109.42 L 187.65 111.49 C 184.16 111.45 180.70 112.23 177.20 111.98 C 178.10 110.18 180.45 110.83 182.05 110.29 C 180.95 109.95 179.84 109.61 178.74 109.28 Z" />
<path fill="#ffffff" opacity="1.00" d=" M 290.94 109.57 C 292.22 110.04 293.49 110.56 294.76 111.06 L 294.44 109.09 C 296.77 109.14 297.45 110.30 296.47 112.55 C 297.08 112.73 298.30 113.10 298.91 113.29 C 298.56 113.75 297.87 114.68 297.52 115.15 C 298.30 116.82 298.90 118.56 299.48 120.32 C 297.51 120.29 295.55 120.34 293.59 120.38 C 294.20 119.16 294.54 117.88 294.60 116.53 L 296.16 116.51 C 294.34 114.23 291.88 112.48 290.94 109.57 Z" />
<path fill="#ffffff" opacity="1.00" d=" M 171.98 118.79 C 178.00 115.86 184.45 112.75 191.33 113.26 C 188.27 114.32 184.84 113.96 181.92 115.46 C 180.72 115.86 179.52 116.24 178.31 116.61 C 178.41 117.04 178.60 117.90 178.70 118.34 C 175.30 119.06 172.58 121.70 169.11 122.01 C 170.09 120.96 171.14 119.97 171.98 118.79 Z" />
<path fill="#ffffff" opacity="1.00" d=" M 242.99 113.95 C 242.34 113.32 242.34 113.32 242.99 113.95 Z" />
<path fill="#ffffff" opacity="1.00" d=" M 206.01 114.17 C 206.79 115.57 208.13 116.41 209.75 116.54 C 208.27 117.15 206.86 117.93 205.60 118.92 C 203.26 120.08 200.19 120.40 198.67 122.73 C 200.76 121.90 202.82 121.00 204.93 120.20 C 204.73 121.47 203.71 122.27 202.96 123.21 C 203.84 122.73 204.72 122.24 205.58 121.73 C 207.54 121.19 209.50 120.64 211.50 120.23 C 211.01 121.46 210.58 122.71 210.21 123.99 C 211.12 123.61 212.94 122.87 213.85 122.50 C 213.53 125.01 210.97 123.95 209.38 124.25 C 208.32 125.06 207.23 125.82 206.11 126.55 L 207.16 127.32 C 205.81 126.89 204.65 127.22 203.70 128.30 C 203.72 128.79 203.77 129.76 203.79 130.25 C 204.98 129.36 206.07 128.34 207.16 127.32 C 208.14 126.50 209.12 125.67 210.09 124.83 C 210.46 125.13 210.82 125.44 211.19 125.77 C 210.59 126.27 209.41 127.28 208.82 127.78 C 207.76 128.69 206.67 129.55 205.54 130.35 L 206.09 131.20 C 204.34 130.76 202.66 132.19 202.02 133.71 L 201.90 134.23 L 201.47 134.06 L 201.41 134.48 C 198.57 134.94 196.63 137.65 193.96 138.72 C 194.31 137.30 195.62 136.63 196.72 135.85 C 199.07 134.29 200.97 132.12 203.52 130.85 C 203.01 130.36 202.51 129.87 202.02 129.38 C 197.63 133.71 192.25 136.56 186.86 139.40 L 186.90 137.31 C 185.31 138.35 183.71 139.44 181.89 140.04 C 183.43 137.47 186.74 136.83 188.91 134.90 L 188.02 137.24 C 193.59 133.83 199.83 131.00 204.29 126.15 C 205.96 125.07 207.66 124.05 209.07 122.61 C 206.22 123.35 203.92 125.18 201.53 126.76 C 201.52 125.78 201.49 123.82 201.48 122.84 C 200.93 123.63 200.61 124.54 200.35 125.46 C 199.05 125.43 196.67 127.31 196.18 125.26 C 196.78 125.09 197.99 124.76 198.59 124.60 C 196.98 124.39 195.24 124.08 194.01 125.40 C 194.56 125.92 195.11 126.44 195.67 126.95 C 194.94 127.26 193.50 127.89 192.77 128.20 C 192.69 127.74 192.54 126.81 192.46 126.35 C 189.57 128.31 186.71 130.31 183.65 132.00 L 183.97 130.26 L 181.73 130.63 L 181.26 131.68 C 180.79 131.93 179.86 132.42 179.39 132.67 C 179.80 132.09 180.62 130.92 181.03 130.33 L 178.79 130.10 C 180.31 129.20 181.87 128.36 183.48 127.62 C 185.16 126.84 186.55 125.35 188.52 125.28 L 188.41 124.13 C 189.02 124.31 190.23 124.68 190.83 124.86 L 190.30 123.11 C 191.57 123.38 192.85 123.65 194.13 123.93 L 193.17 122.45 C 195.14 121.45 197.29 120.70 198.97 119.22 C 198.42 119.41 197.31 119.78 196.76 119.97 C 196.14 120.01 194.91 120.09 194.30 120.13 C 192.00 121.27 189.72 122.69 187.09 122.82 C 188.49 121.55 190.15 120.61 191.77 119.65 L 191.20 118.54 C 195.39 116.44 200.09 115.57 204.73 115.26 L 204.19 116.64 L 206.06 117.41 C 206.53 116.31 206.51 115.23 206.01 114.17 M 185.77 127.73 L 184.95 128.17 C 184.63 128.37 183.98 128.79 183.65 129.00 C 184.22 130.70 186.85 129.25 187.65 128.28 C 188.69 126.91 186.32 127.14 185.77 127.73 Z" />
<path fill="#ffffff" opacity="1.00" d=" M 214.90 115.45 C 219.44 114.32 224.15 114.46 228.74 113.63 C 227.94 115.29 225.83 114.93 224.38 115.58 C 221.33 116.44 218.47 117.84 215.51 118.94 C 216.11 118.37 217.32 117.21 217.92 116.64 C 217.17 116.34 215.66 115.75 214.90 115.45 Z" />
<path fill="#ffffff" opacity="1.00" d=" M 242.99 113.95 L 243.77 114.04 L 243.82 114.75 L 243.10 114.71 L 242.99 113.95 Z" />
<path fill="#ffffff" opacity="1.00" d=" M 271.41 114.11 C 272.34 115.08 272.75 116.30 272.84 117.63 C 273.60 117.49 275.11 117.22 275.87 117.08 C 276.99 119.68 278.17 122.25 279.28 124.85 C 280.89 125.78 283.13 126.24 283.11 128.73 C 282.00 128.33 280.90 127.90 279.83 127.44 C 279.32 127.07 278.31 126.35 277.80 125.99 C 278.19 128.26 280.67 129.05 282.15 130.52 C 281.59 130.79 280.46 131.33 279.90 131.59 C 280.49 131.97 281.67 132.71 282.26 133.09 C 282.13 134.66 282.01 136.23 281.89 137.81 C 281.46 137.48 280.59 136.82 280.15 136.49 C 280.10 137.32 280.01 138.98 279.96 139.80 C 279.46 140.12 278.45 140.75 277.95 141.06 C 278.10 138.40 278.83 135.61 277.34 133.17 L 279.05 133.42 C 279.09 134.12 279.17 135.52 279.21 136.22 C 279.63 135.52 280.45 134.12 280.86 133.42 C 280.30 133.37 279.18 133.26 278.62 133.20 C 279.08 131.51 277.78 130.41 276.73 129.38 C 276.55 128.69 276.18 127.31 276.00 126.62 C 276.27 125.96 276.55 125.29 276.83 124.63 C 276.08 123.50 275.86 122.25 276.16 120.88 C 275.71 119.98 275.27 119.08 274.83 118.18 C 272.09 120.46 269.92 116.48 271.41 114.11 Z" />
<path fill="#ffffff" opacity="1.00" d=" M 281.67 116.94 C 281.09 115.39 282.37 114.21 283.15 113.08 L 284.00 115.13 L 286.04 113.96 C 285.76 115.19 285.21 117.66 284.93 118.89 C 285.97 117.52 286.95 116.10 288.00 114.74 C 287.77 115.72 287.32 117.67 287.10 118.64 L 289.08 118.26 C 288.25 119.58 287.37 120.87 286.45 122.12 C 286.03 119.45 283.70 118.26 281.67 116.94 Z" />
<path fill="#ffffff" opacity="1.00" d=" M 181.92 115.46 C 183.94 116.05 186.02 115.55 188.07 115.43 C 186.70 116.57 184.89 116.54 183.23 116.80 C 182.21 118.02 180.95 118.97 179.44 119.66 C 180.32 119.66 182.10 119.65 182.98 119.65 C 180.18 121.81 177.09 124.53 173.40 124.61 L 173.76 125.64 C 172.40 125.51 171.06 125.64 169.80 126.11 L 173.04 126.71 L 169.17 128.33 C 170.05 128.64 170.93 128.92 171.82 129.19 C 169.40 130.21 172.37 130.51 171.98 131.70 C 170.97 132.36 169.95 133.00 168.93 133.64 C 169.52 133.95 170.71 134.57 171.31 134.88 C 170.63 134.79 169.27 134.62 168.59 134.53 L 168.94 136.04 C 168.43 136.03 167.42 136.01 166.91 136.00 C 168.29 135.29 168.76 134.13 168.42 132.64 C 169.38 132.18 170.18 131.53 170.81 130.68 C 169.88 130.93 168.02 131.42 167.09 131.67 C 167.11 131.25 167.15 130.42 167.17 130.00 L 169.92 130.00 C 169.08 129.51 168.23 129.06 167.37 128.63 C 167.46 128.10 167.62 127.03 167.71 126.50 C 170.57 123.81 174.29 122.46 177.46 120.25 C 178.29 120.49 179.12 120.74 179.95 120.99 C 178.46 119.46 180.07 118.03 180.85 116.67 L 182.66 117.01 L 181.92 115.46 Z" />
<path fill="#ffffff" opacity="1.00" d=" M 268.10 114.75 C 269.84 116.42 270.44 118.87 270.97 121.13 C 268.39 120.31 269.10 116.79 268.10 114.75 Z" />
<path fill="#ffffff" opacity="1.00" d=" M 293.00 117.47 C 291.79 116.63 291.75 115.86 292.87 115.14 C 294.10 115.96 294.15 116.74 293.00 117.47 Z" />
<path fill="#ffffff" opacity="1.00" d=" M 218.63 120.22 C 220.53 117.74 223.85 117.26 226.67 116.43 C 228.20 118.13 225.28 118.80 224.41 119.80 C 224.45 119.39 224.53 118.58 224.56 118.17 C 222.64 118.99 220.73 119.94 218.63 120.22 Z" />
<path fill="#ffffff" opacity="1.00" d=" M 251.41 116.46 C 251.74 116.67 252.40 117.08 252.73 117.29 C 252.80 117.98 252.94 119.36 253.01 120.04 C 254.08 121.09 255.30 122.07 256.89 122.11 C 258.94 122.62 259.78 120.50 261.01 119.37 C 261.79 120.40 262.46 121.53 263.10 122.66 C 261.12 123.48 259.21 124.75 256.99 124.71 C 253.04 125.09 249.70 122.04 248.11 118.68 C 249.21 117.94 250.31 117.20 251.41 116.46 Z" />
<path fill="#ffffff" opacity="1.00" d=" M 277.57 117.55 C 279.09 118.41 279.93 119.82 280.11 121.79 C 280.56 121.02 281.00 120.24 281.43 119.46 C 281.86 119.54 282.71 119.71 283.13 119.79 C 284.12 121.37 285.13 122.93 286.09 124.54 L 283.49 124.64 C 283.10 123.83 282.31 122.22 281.92 121.41 C 279.60 124.71 278.27 119.31 277.57 117.55 Z" />
<path fill="#ffffff" opacity="1.00" d=" M 223.70 122.48 C 225.83 120.79 228.25 119.33 231.01 119.05 C 229.53 120.89 227.76 122.46 226.25 124.27 C 225.06 125.64 223.86 127.08 222.19 127.86 C 222.72 125.66 224.70 124.38 226.20 122.86 C 225.58 122.76 224.33 122.58 223.70 122.48 Z" />
<path fill="#ffffff" opacity="1.00" d=" M 242.68 121.18 C 244.04 120.43 245.42 119.69 246.80 118.98 C 246.74 119.40 246.61 120.24 246.55 120.66 C 249.34 122.35 251.22 125.42 254.49 126.30 C 256.39 126.91 258.38 127.11 260.33 127.46 C 262.15 126.30 264.21 125.64 266.21 124.86 C 267.71 127.11 269.11 129.42 270.32 131.83 C 270.19 133.44 270.82 134.87 271.73 136.15 C 271.75 133.56 270.79 131.20 269.58 128.97 C 269.29 127.28 272.31 127.84 272.66 128.96 C 273.75 131.00 274.88 133.02 276.16 134.95 C 277.47 136.74 275.62 138.60 274.80 140.13 C 275.44 140.57 276.09 141.02 276.74 141.47 C 276.24 141.77 275.26 142.36 274.77 142.66 C 274.53 143.90 274.38 145.29 273.20 146.02 C 273.33 144.07 273.99 142.24 274.90 140.53 L 273.06 140.76 C 273.18 140.23 273.43 139.17 273.55 138.64 C 272.20 138.56 269.29 139.46 269.45 137.06 C 269.32 136.70 269.06 135.97 268.93 135.61 C 268.86 136.43 268.70 138.08 268.63 138.90 C 268.23 138.85 267.45 138.74 267.05 138.68 C 267.46 137.68 267.90 136.69 268.38 135.71 C 267.99 135.16 267.23 134.08 266.84 133.53 C 267.19 132.84 267.49 132.13 267.75 131.40 C 266.84 131.89 265.97 132.43 265.07 132.93 C 265.76 134.98 265.89 137.33 263.53 138.45 L 265.77 138.53 C 265.59 139.50 265.31 140.44 264.93 141.35 C 264.76 140.67 264.43 139.31 264.27 138.63 C 262.77 140.17 261.65 142.03 260.61 143.90 L 262.88 143.17 L 262.85 143.62 C 261.21 145.16 259.85 147.19 257.57 147.85 C 257.57 148.24 257.56 149.03 257.56 149.43 C 255.11 149.76 253.66 151.85 253.07 154.08 C 253.79 153.25 254.47 152.38 255.11 151.47 C 255.91 151.52 257.53 151.63 258.34 151.68 C 257.22 152.78 256.13 153.90 255.07 155.05 C 256.76 153.90 258.30 151.88 260.59 152.38 C 263.28 147.79 267.28 144.22 270.40 139.97 C 270.76 140.45 271.11 140.94 271.46 141.43 C 271.03 142.38 270.64 143.35 270.31 144.34 L 269.52 144.21 C 269.03 148.24 266.08 151.65 263.84 154.95 C 263.22 154.10 262.59 153.27 261.92 152.47 C 263.24 155.66 260.31 153.99 258.98 154.09 C 257.61 155.71 255.46 157.78 253.18 156.90 C 252.48 157.62 251.78 158.34 251.09 159.06 C 250.97 158.56 250.73 157.57 250.61 157.07 C 247.61 160.23 244.64 163.66 240.48 165.29 C 239.53 166.80 238.76 168.41 238.04 170.03 C 238.93 169.51 240.72 168.46 241.62 167.93 C 241.06 169.03 240.26 169.92 239.23 170.61 C 239.98 170.63 240.73 170.66 241.49 170.71 C 242.12 170.08 243.40 168.81 244.03 168.17 C 241.58 169.67 242.96 171.85 244.57 172.64 C 242.29 175.16 247.12 175.99 248.97 175.81 L 249.12 176.95 C 248.44 176.66 247.06 176.08 246.38 175.79 L 247.01 177.77 C 245.47 177.16 244.71 177.82 244.73 179.75 C 244.30 179.24 243.45 178.22 243.02 177.71 C 243.01 178.69 242.99 180.66 242.98 181.64 C 242.08 181.08 241.18 180.53 240.28 179.98 C 240.35 182.99 240.30 186.02 240.89 188.99 C 240.17 187.95 239.46 186.90 238.33 186.28 C 237.93 183.36 238.80 180.56 239.82 177.87 C 240.07 178.43 240.58 179.55 240.83 180.11 C 242.71 178.49 242.03 175.60 242.40 173.47 C 240.66 174.33 239.15 176.66 237.05 175.40 C 236.40 176.50 235.69 177.56 234.92 178.58 C 234.42 174.93 237.08 172.07 237.86 168.69 C 238.84 166.29 239.17 163.28 241.38 161.64 C 241.46 160.81 241.06 159.69 242.12 159.30 C 245.46 160.24 246.76 155.50 250.12 155.37 C 251.58 152.53 253.80 150.16 256.27 148.15 C 257.52 146.18 258.99 144.37 260.40 142.51 C 262.61 140.27 261.66 136.89 261.72 134.10 C 260.50 135.65 260.63 137.66 260.53 139.50 L 259.35 139.47 L 259.85 140.97 C 257.85 141.15 256.19 142.19 254.62 143.35 C 254.62 142.46 254.62 140.67 254.62 139.77 C 256.63 137.28 257.11 133.97 257.88 130.94 C 257.19 131.58 256.51 132.23 255.83 132.87 C 255.44 132.66 254.65 132.23 254.26 132.01 L 253.98 133.51 C 253.51 133.41 252.57 133.22 252.09 133.12 L 252.96 134.86 L 251.06 134.37 C 251.26 134.99 251.67 136.24 251.87 136.86 L 250.24 136.03 C 251.05 138.09 247.55 138.84 249.09 140.94 C 248.78 141.56 248.15 142.81 247.84 143.43 C 248.82 142.65 249.51 141.60 250.33 140.67 C 251.32 142.32 252.81 140.78 253.99 140.28 C 254.53 144.55 249.93 142.52 248.65 145.21 C 249.42 145.24 250.97 145.28 251.75 145.30 C 250.37 146.94 248.81 148.43 247.04 149.65 L 249.24 149.81 C 247.93 151.53 245.76 152.59 244.98 154.67 L 244.02 154.03 C 243.56 154.97 243.10 155.90 242.64 156.83 L 240.97 156.14 C 241.39 156.48 242.24 157.14 242.66 157.48 C 240.24 159.64 238.65 162.67 235.79 164.37 C 236.52 161.50 239.31 159.75 239.80 156.77 C 238.39 157.23 236.95 157.02 235.70 156.27 C 237.53 155.32 239.23 154.13 240.77 152.75 C 241.85 151.54 242.96 150.34 244.08 149.16 C 243.96 150.12 243.73 152.04 243.61 153.00 C 244.45 151.60 244.64 150.02 244.34 148.44 L 245.36 148.63 C 245.46 147.12 246.08 145.91 247.21 145.02 C 246.85 144.43 246.49 143.83 246.13 143.25 C 246.94 142.33 247.06 141.40 246.49 140.46 C 245.84 140.25 244.53 139.82 243.88 139.60 C 245.57 136.17 246.66 132.33 249.58 129.66 C 249.24 128.87 248.82 128.11 248.41 127.36 C 247.43 128.39 246.40 129.38 245.32 130.31 C 245.46 130.72 245.72 131.53 245.86 131.94 C 245.32 131.76 244.24 131.39 243.70 131.20 C 243.75 133.41 242.11 135.25 240.09 135.90 C 240.54 135.00 241.15 134.22 241.93 133.57 C 241.79 133.25 241.50 132.60 241.36 132.28 C 242.58 131.04 243.78 129.77 244.96 128.49 L 242.37 128.29 L 242.92 129.79 L 241.01 129.22 L 241.70 131.05 L 240.38 131.58 C 240.44 131.02 240.55 129.89 240.61 129.33 L 238.95 129.69 C 239.94 128.63 240.93 127.58 241.96 126.55 L 239.92 126.57 C 239.27 126.99 237.97 127.83 237.32 128.24 C 237.32 126.36 238.29 124.84 239.49 123.46 C 237.09 123.42 235.86 126.19 233.58 126.77 C 233.66 126.38 233.82 125.60 233.90 125.21 C 236.25 123.01 239.41 122.68 242.20 121.46 C 242.81 122.34 243.39 123.25 244.02 124.14 L 242.88 122.07 L 245.57 122.47 C 244.61 122.03 243.64 121.60 242.68 121.18 M 245.56 138.20 C 246.14 138.76 246.81 138.96 247.58 138.79 C 249.39 135.62 251.26 132.48 252.76 129.15 C 250.40 132.20 248.45 135.60 245.56 138.20 M 259.32 128.70 C 259.35 130.20 259.42 131.71 259.53 133.21 C 256.90 132.97 258.80 135.88 258.75 137.09 C 261.00 134.98 260.92 131.17 259.32 128.70 M 262.68 152.75 C 263.48 152.38 264.28 152.00 265.08 151.62 C 266.29 148.70 268.76 146.50 269.53 143.35 C 266.39 145.83 264.70 149.44 262.68 152.75 Z" />
<path fill="#ffffff" opacity="1.00" d=" M 272.17 119.05 L 274.35 119.10 C 274.63 120.93 274.87 122.77 275.02 124.61 C 274.11 124.22 273.21 123.82 272.31 123.44 C 272.25 121.97 272.21 120.50 272.17 119.05 Z" />
<path fill="#ffffff" opacity="1.00" d=" M 295.15 122.14 C 296.46 121.28 297.97 121.12 299.50 121.27 L 299.71 122.15 C 300.73 122.53 301.55 123.18 302.18 124.10 L 302.88 124.80 C 303.29 124.75 304.11 124.66 304.52 124.61 C 304.43 124.98 304.25 125.72 304.16 126.09 L 306.19 126.35 C 304.96 127.36 303.46 127.88 301.95 128.29 L 302.84 126.12 C 301.17 126.79 299.48 127.38 297.74 127.84 C 298.23 130.74 294.63 131.47 292.44 131.39 C 291.36 131.86 290.28 132.33 289.20 132.77 C 289.77 129.53 294.26 129.50 296.77 128.36 C 296.65 127.93 296.42 127.06 296.31 126.63 C 297.76 126.03 300.85 126.27 300.89 124.19 C 299.12 123.94 297.41 124.71 295.69 124.97 C 295.51 124.02 295.33 123.08 295.15 122.14 Z" />
<path fill="#ffffff" opacity="1.00" d=" M 213.95 122.87 C 215.12 123.38 216.27 123.93 217.39 124.57 L 215.35 124.40 L 216.01 125.72 C 215.01 126.40 214.29 127.31 213.86 128.44 C 215.89 127.14 217.74 125.44 220.29 125.26 C 218.99 127.23 217.17 128.78 215.84 130.73 C 215.42 130.12 215.01 129.51 214.59 128.90 C 211.96 130.95 209.56 133.35 206.71 135.09 L 205.59 134.92 L 207.68 132.81 L 208.06 132.43 L 207.69 132.03 L 207.28 132.42 L 207.68 132.81 C 204.62 133.14 202.78 136.11 200.03 137.28 C 200.38 136.58 201.07 135.18 201.41 134.48 L 201.81 134.66 L 201.90 134.23 C 203.89 134.50 205.01 132.51 206.09 131.20 C 209.21 129.60 211.44 126.71 214.49 125.10 C 214.35 124.54 214.08 123.43 213.95 122.87 Z" />
<path fill="#ffffff" opacity="1.00" d=" M 172.73 130.99 C 171.85 127.86 176.11 127.59 178.05 126.42 C 176.88 128.45 174.81 130.11 172.73 130.99 Z" />
<path fill="#ffffff" opacity="1.00" d=" M 290.37 128.77 C 290.31 127.27 292.94 126.54 294.19 126.95 C 294.06 128.34 291.62 129.25 290.37 128.77 Z" />
<path fill="#ffffff" opacity="1.00" d=" M 225.23 134.59 C 226.61 132.18 228.02 129.71 230.07 127.80 C 230.27 128.31 230.67 129.33 230.87 129.84 L 232.01 129.22 C 232.23 128.81 232.67 127.97 232.89 127.55 L 234.04 128.27 C 234.10 128.63 234.23 129.35 234.29 129.70 C 236.30 127.99 237.80 130.85 238.47 132.35 C 239.89 133.92 237.87 135.64 236.45 136.18 C 236.99 136.57 237.53 136.95 238.08 137.34 C 236.85 138.08 235.99 140.13 234.24 139.38 L 234.66 140.72 L 233.26 140.24 C 233.90 142.27 233.21 142.92 231.17 142.19 L 231.78 143.76 C 231.52 144.16 230.99 144.97 230.72 145.37 C 229.54 142.90 225.22 146.53 228.45 147.59 C 226.66 149.39 225.59 152.10 223.10 153.07 C 223.98 151.63 225.02 150.29 226.20 149.08 C 225.85 148.54 225.50 148.01 225.15 147.48 C 224.36 149.14 223.24 150.62 221.71 151.66 L 222.83 148.06 C 221.49 148.99 220.30 150.44 218.49 150.15 C 215.81 153.07 213.84 156.85 210.42 158.94 C 211.07 159.53 211.72 160.11 212.38 160.69 C 209.87 161.21 211.39 162.60 211.85 163.63 C 208.12 167.96 204.37 172.27 200.57 176.54 L 199.71 175.56 C 200.85 173.46 205.40 171.84 203.18 169.05 C 204.27 167.86 205.43 166.75 206.66 165.70 C 205.70 165.29 204.71 164.94 203.73 164.60 C 205.13 163.38 206.45 162.06 207.67 160.65 C 208.31 160.16 209.60 159.18 210.24 158.69 C 209.78 158.34 209.32 158.00 208.85 157.67 C 206.00 160.11 203.24 162.66 200.62 165.35 L 199.43 165.40 C 199.90 167.30 197.68 168.10 196.69 169.31 C 195.95 169.37 194.47 169.50 193.73 169.56 C 195.81 166.74 198.08 163.94 201.10 162.08 C 202.15 160.31 204.54 160.33 205.73 158.70 C 207.86 156.18 210.93 154.81 213.20 152.44 L 213.13 153.86 C 213.70 153.60 214.86 153.07 215.44 152.80 C 216.53 149.76 220.53 149.87 221.71 146.77 L 222.03 146.36 L 221.67 145.97 L 221.28 146.36 L 221.71 146.77 C 219.96 147.18 218.00 148.21 216.91 146.10 C 215.16 147.48 213.38 148.83 211.41 149.88 C 213.09 146.42 217.08 144.45 220.20 142.27 C 221.18 141.08 222.03 139.73 223.27 138.79 L 223.86 139.00 C 224.03 139.46 224.37 140.36 224.54 140.81 C 226.91 138.42 229.22 135.97 231.22 133.26 C 231.44 132.94 231.87 132.32 232.09 132.01 L 232.80 131.98 C 233.06 131.41 233.58 130.26 233.84 129.68 C 232.01 130.39 230.61 131.79 229.80 133.58 C 229.50 133.16 229.21 132.74 228.92 132.32 C 228.42 134.00 226.83 134.58 225.23 134.59 M 234.36 131.97 L 233.33 132.16 C 233.90 133.65 233.60 134.87 232.45 135.82 L 234.05 136.21 C 230.78 139.69 227.16 142.81 223.84 146.24 C 224.12 146.54 224.42 146.84 224.74 147.12 C 226.81 145.16 228.66 141.11 231.99 141.75 L 230.92 139.98 L 232.95 140.77 L 232.18 138.93 C 233.51 138.75 234.85 138.61 236.20 138.51 C 236.17 137.46 236.14 136.41 236.11 135.35 L 234.76 135.51 C 235.05 134.90 235.61 133.70 235.90 133.09 L 234.13 134.01 C 234.18 133.50 234.30 132.48 234.36 131.97 M 228.22 139.16 C 228.72 139.84 228.72 139.84 228.22 139.16 M 212.04 155.34 C 212.39 155.71 212.39 155.71 212.04 155.34 M 208.02 162.26 C 208.86 163.26 209.59 163.01 210.22 161.51 C 209.19 160.74 208.46 160.99 208.02 162.26 M 208.95 164.96 C 209.66 164.25 209.66 164.25 208.95 164.96 M 208.20 165.83 L 208.88 165.73 L 208.95 164.96 C 208.76 165.18 208.39 165.61 208.20 165.83 M 206.24 167.48 C 206.57 167.77 206.57 167.77 206.24 167.48 Z" />
<path fill="#ffffff" opacity="1.00" d=" M 301.15 133.63 C 302.57 131.89 304.11 130.25 305.78 128.76 C 305.90 129.40 306.15 130.67 306.27 131.31 C 304.71 129.99 304.28 132.55 303.37 133.26 C 302.63 133.38 301.88 133.50 301.15 133.63 Z" />
<path fill="#ffffff" opacity="1.00" d=" M 309.90 128.79 C 313.08 130.49 316.30 132.12 319.50 133.77 C 318.86 134.75 318.09 135.70 318.01 136.93 C 317.42 141.09 314.16 144.64 314.75 148.99 C 313.93 151.37 313.41 154.03 311.26 155.59 C 311.06 156.15 310.66 157.25 310.46 157.81 L 310.41 158.86 L 308.55 158.89 C 308.54 158.42 308.52 157.46 308.51 156.99 C 308.45 157.81 308.32 159.47 308.26 160.30 L 307.04 159.98 C 306.99 160.51 306.90 161.56 306.86 162.09 C 307.50 161.56 308.79 160.51 309.44 159.99 C 308.58 161.82 307.72 163.65 306.98 165.54 C 306.16 164.71 305.14 164.58 304.04 164.78 C 303.79 163.78 303.01 163.46 302.10 163.84 C 302.01 163.35 301.83 162.37 301.74 161.88 C 301.30 162.13 300.43 162.62 299.99 162.87 C 299.98 162.42 299.96 161.53 299.95 161.08 L 300.60 160.49 C 300.42 159.58 300.20 158.67 299.95 157.78 C 300.36 158.12 301.18 158.81 301.59 159.15 C 303.39 156.11 304.73 152.28 308.44 151.11 C 308.50 151.78 308.64 153.11 308.71 153.78 C 308.55 153.53 308.22 153.05 308.06 152.80 L 307.43 152.27 C 306.70 154.23 305.78 156.12 304.56 157.82 C 304.50 159.19 304.42 160.55 304.39 161.93 C 305.28 159.92 306.14 157.90 306.85 155.82 C 307.35 155.59 308.35 155.12 308.85 154.88 L 309.36 154.53 C 309.64 153.71 310.22 152.06 310.50 151.24 C 310.80 151.61 311.39 152.37 311.68 152.75 C 311.53 152.01 311.22 150.54 311.06 149.80 C 311.41 149.69 312.09 149.46 312.44 149.34 C 311.80 146.86 314.65 145.31 314.86 142.99 C 315.07 139.46 315.29 135.91 314.90 132.39 L 313.66 132.19 C 314.50 135.80 313.34 139.42 313.70 143.05 C 313.38 142.52 312.73 141.47 312.40 140.94 C 311.39 143.96 310.07 147.15 307.48 149.15 C 308.03 147.69 308.71 146.24 308.71 144.64 C 310.19 141.88 311.52 139.00 311.93 135.86 C 309.85 138.80 307.98 142.05 307.32 145.62 L 306.39 145.39 C 307.77 143.24 304.16 141.24 302.76 143.15 C 304.79 141.72 304.62 139.38 304.85 137.27 L 306.00 137.50 C 306.92 135.60 307.84 133.68 309.13 131.99 C 310.55 135.21 306.46 136.75 306.68 139.73 C 309.40 137.10 311.91 132.43 309.90 128.79 Z" />
<path fill="#ffffff" opacity="1.00" d=" M 178.57 130.38 C 179.10 131.08 179.10 131.08 178.57 130.38 Z" />
<path fill="#ffffff" opacity="1.00" d=" M 276.06 130.15 L 276.93 130.17 C 276.93 130.54 276.93 131.29 276.93 131.66 L 276.29 131.88 C 276.23 131.45 276.12 130.58 276.06 130.15 Z" />
<path fill="#ffffff" opacity="1.00" d=" M 282.07 131.03 C 282.73 130.57 283.39 130.11 284.06 129.65 C 285.01 131.05 285.98 132.43 286.96 133.81 L 284.70 133.08 C 285.78 134.99 285.44 136.31 283.69 137.04 C 283.32 134.99 282.68 133.01 282.07 131.03 Z" />
<path fill="#ffffff" opacity="1.00" d=" M 306.27 131.31 C 306.77 130.90 307.77 130.08 308.26 129.67 C 308.35 130.17 308.51 131.17 308.59 131.68 C 307.54 133.02 303.63 133.49 306.27 131.31 Z" />
<path fill="#ffffff" opacity="1.00" d=" M 212.29 132.95 C 210.89 131.30 215.00 130.12 214.00 132.37 C 213.57 132.51 212.72 132.81 212.29 132.95 Z" />
<path fill="#ffffff" opacity="1.00" d=" M 166.67 138.79 C 169.40 136.36 173.02 135.34 176.01 133.27 C 173.84 136.73 170.04 139.05 166.85 141.55 C 167.38 140.88 168.43 139.52 168.96 138.85 L 166.67 138.79 Z" />
<path fill="#ffffff" opacity="1.00" d=" M 217.36 134.47 C 217.36 135.01 217.35 136.10 217.35 136.64 L 217.05 136.88 L 216.83 137.21 C 216.68 137.35 216.39 137.63 216.25 137.77 C 215.69 137.86 214.58 138.03 214.02 138.12 C 214.54 136.61 215.90 135.11 217.36 134.47 Z" />
<path fill="#ffffff" opacity="1.00" d=" M 219.44 135.52 C 221.11 136.56 222.16 135.27 223.14 134.01 C 224.74 134.44 226.40 134.85 227.75 135.88 C 226.68 136.98 225.60 138.05 224.49 139.10 L 223.86 139.00 L 223.76 138.21 C 224.03 137.51 224.58 136.12 224.86 135.42 C 222.66 137.80 220.44 140.20 217.65 141.90 C 217.64 141.23 217.63 139.90 217.63 139.23 C 215.23 140.61 213.45 142.78 211.69 144.85 L 214.40 144.29 C 213.57 145.39 212.53 145.73 211.30 145.33 C 211.67 146.59 211.18 147.43 209.80 147.85 C 207.60 150.63 204.79 152.83 201.99 154.99 C 203.54 149.35 209.28 146.14 212.94 141.87 L 211.70 139.15 L 213.80 141.14 C 214.62 140.02 215.47 138.92 216.25 137.77 C 216.39 137.63 216.68 137.35 216.83 137.21 L 217.11 136.96 L 217.35 136.64 C 217.87 136.36 218.92 135.80 219.44 135.52 Z" />
<path fill="#ffffff" opacity="1.00" d=" M 304.49 134.24 C 304.77 134.56 304.77 134.56 304.49 134.24 Z" />
<path fill="#ffffff" opacity="1.00" d=" M 254.17 135.28 C 254.83 135.85 254.83 135.85 254.17 135.28 Z" />
<path fill="#ffffff" opacity="1.00" d=" M 321.28 137.61 C 320.85 136.61 320.05 135.62 320.52 134.49 C 322.45 137.03 326.02 137.22 328.21 139.47 C 326.19 140.15 324.33 142.31 322.08 141.24 C 321.46 141.87 320.22 143.13 319.60 143.76 C 320.12 143.88 321.16 144.12 321.68 144.24 C 321.28 145.52 320.88 146.80 320.47 148.08 C 322.10 146.74 323.32 145.01 324.42 143.23 C 324.63 143.60 325.06 144.35 325.27 144.72 C 323.85 146.83 322.90 149.33 320.94 151.01 C 319.43 151.68 317.86 152.23 316.40 153.00 L 316.45 151.06 C 316.37 152.58 316.33 154.10 316.33 155.63 C 315.49 155.07 314.65 154.51 313.81 153.95 C 314.50 151.34 315.82 148.94 316.23 146.24 C 316.62 146.22 317.40 146.17 317.79 146.14 C 317.50 144.71 316.97 143.24 317.44 141.79 C 317.48 143.86 318.36 145.36 320.09 146.28 C 318.16 144.67 319.62 142.94 320.09 141.29 C 316.08 142.60 318.44 138.38 318.90 136.51 C 319.69 136.88 320.48 137.24 321.28 137.61 Z" />
<path fill="#ffffff" opacity="1.00" d=" M 286.77 136.27 C 287.68 136.46 288.56 136.78 289.40 137.21 C 288.70 139.32 287.90 141.41 287.25 143.54 L 286.53 143.59 C 286.89 146.57 285.63 149.26 284.44 151.89 C 283.74 152.06 283.05 152.25 282.37 152.44 C 281.78 152.86 280.60 153.72 280.01 154.15 C 280.93 152.51 281.76 150.46 283.79 149.96 C 284.63 148.24 285.35 146.47 286.12 144.72 L 283.75 145.91 C 284.33 143.70 285.68 141.82 286.70 139.81 C 286.29 139.74 285.49 139.61 285.09 139.54 C 285.63 138.44 286.19 137.35 286.77 136.27 Z" />
<path fill="#ffffff" opacity="1.00" d=" M 299.72 136.39 C 300.93 136.31 301.83 137.37 302.92 137.73 C 301.81 138.84 300.72 140.00 299.36 140.81 C 299.17 141.32 298.79 142.34 298.61 142.85 C 299.44 142.04 301.10 140.43 301.94 139.63 C 302.23 139.71 302.81 139.87 303.10 139.95 C 303.31 140.16 303.72 140.58 303.93 140.80 C 302.64 142.20 301.37 143.62 299.87 144.81 C 298.66 147.80 296.70 150.41 295.24 153.28 C 292.34 152.79 291.36 156.20 289.92 158.02 C 288.20 161.55 283.37 162.19 282.27 166.21 C 281.39 165.92 280.51 165.62 279.63 165.33 C 285.76 161.20 288.74 153.41 295.77 150.58 C 296.65 148.95 297.59 147.35 298.63 145.82 C 296.88 142.74 297.66 139.12 299.72 136.39 Z" />
<path fill="#ffffff" opacity="1.00" d=" M 172.32 140.26 C 173.71 138.96 175.17 137.67 177.02 137.07 C 175.72 140.06 172.96 142.16 170.49 144.15 C 171.56 144.81 172.68 146.47 173.92 144.35 C 172.96 146.37 170.60 146.87 168.85 147.96 C 166.74 149.07 164.97 150.88 162.56 151.34 C 165.04 146.91 169.64 144.47 172.88 140.73 C 170.34 141.88 168.06 143.62 165.34 144.39 C 166.65 141.80 169.65 140.75 172.32 140.26 Z" />
<path fill="#ffffff" opacity="1.00" d=" M 205.49 142.95 C 207.30 140.24 209.79 138.04 212.90 136.94 C 212.34 137.78 211.78 138.61 211.20 139.43 C 211.41 139.98 211.83 141.06 212.03 141.61 C 211.68 141.93 210.96 142.59 210.61 142.91 L 210.14 142.77 C 208.64 145.37 205.39 147.70 202.35 147.30 C 201.31 148.16 200.24 148.99 199.13 149.75 C 199.16 147.05 201.50 145.36 202.93 143.34 C 202.06 143.70 200.32 144.40 199.46 144.76 L 199.43 145.25 C 197.85 146.40 196.32 147.61 194.69 148.70 C 193.83 149.48 192.97 150.28 192.12 151.08 C 192.30 150.21 192.65 148.47 192.83 147.60 C 189.30 147.51 187.23 150.76 184.20 151.96 C 185.32 148.98 187.65 146.94 190.30 145.42 C 190.69 145.55 191.47 145.80 191.87 145.93 C 193.03 145.12 194.15 144.24 195.41 143.59 C 196.47 143.95 197.51 144.37 198.54 144.86 C 198.39 143.76 198.71 142.83 199.49 142.05 L 199.36 144.04 C 201.35 142.77 203.23 141.05 205.77 141.13 L 205.49 142.95 Z" />
<path fill="#ffffff" opacity="1.00" d=" M 251.82 139.34 C 251.90 137.94 252.62 137.17 253.99 137.03 C 253.97 138.53 253.24 139.30 251.82 139.34 Z" />
<path fill="#ffffff" opacity="1.00" d=" M 234.40 143.41 C 235.02 140.27 238.28 138.51 241.13 137.74 C 240.77 138.41 240.04 139.76 239.68 140.43 C 239.10 140.86 239.10 140.86 239.68 140.43 C 240.40 140.27 241.84 139.95 242.57 139.78 C 240.85 142.44 238.02 144.13 236.48 146.93 L 235.41 146.71 C 235.47 146.01 235.58 144.61 235.64 143.91 C 234.84 145.02 234.10 146.17 233.33 147.30 L 232.91 147.86 C 230.79 148.51 229.81 150.90 227.54 151.24 C 229.44 148.59 231.59 146.12 233.31 143.34 L 234.40 143.41 Z" />
<path fill="#ffffff" opacity="1.00" d=" M 303.10 139.95 C 303.54 139.47 303.54 139.47 303.10 139.95 Z" />
<path fill="#ffffff" opacity="1.00" d=" M 235.13 149.10 C 238.07 146.08 240.59 141.94 245.03 141.11 C 243.72 143.37 241.35 144.67 239.62 146.56 C 237.16 149.26 235.07 152.39 231.91 154.35 C 231.44 151.83 233.84 150.71 235.13 149.10 Z" />
<path fill="#ffffff" opacity="1.00" d=" M 329.56 141.28 C 330.89 142.71 332.78 143.18 334.64 143.58 C 334.50 143.97 334.24 144.75 334.11 145.14 C 332.39 144.80 330.69 144.47 328.99 144.09 C 329.13 143.38 329.42 141.98 329.56 141.28 Z" />
<path fill="#ffffff" opacity="1.00" d=" M 171.07 151.25 C 174.96 147.80 178.99 144.34 184.12 142.94 C 183.35 143.73 182.53 144.46 181.65 145.13 C 181.55 146.48 180.39 147.18 179.48 147.99 L 178.59 146.97 C 176.86 147.88 176.32 150.40 174.70 151.66 C 172.29 153.73 171.04 156.96 168.00 158.29 C 168.79 158.64 169.59 159.00 170.39 159.36 C 168.87 160.89 167.34 162.41 165.80 163.91 C 165.19 162.66 164.17 161.79 162.89 161.28 C 163.70 160.55 164.51 159.81 165.30 159.06 L 166.07 158.96 L 165.78 157.72 C 167.37 158.19 169.29 157.01 169.61 155.39 C 168.02 155.45 166.86 156.70 165.78 157.72 C 165.19 157.97 164.01 158.47 163.42 158.72 C 165.00 155.45 168.91 154.43 171.78 152.58 L 171.07 151.25 M 167.10 159.05 C 166.84 159.31 166.31 159.84 166.05 160.10 C 166.35 162.55 169.55 159.34 167.10 159.05 Z" />
<path fill="#ffffff" opacity="1.00" d=" M 261.97 147.13 C 261.70 145.75 262.29 145.09 263.74 145.14 C 263.46 145.66 262.92 146.71 262.64 147.23 L 261.97 147.13 Z" />
<path fill="#ffffff" opacity="1.00" d=" M 298.77 151.14 C 300.61 148.98 301.52 145.82 304.23 144.52 C 303.72 146.09 303.05 147.61 302.43 149.14 C 303.26 148.79 304.91 148.09 305.74 147.73 C 305.15 148.21 303.99 149.17 303.40 149.65 C 304.25 152.23 302.99 154.51 301.77 156.71 C 301.45 156.64 300.80 156.50 300.48 156.43 L 300.69 157.81 L 299.41 157.28 C 299.01 157.74 298.21 158.66 297.81 159.12 L 297.50 157.43 C 296.88 157.49 295.65 157.59 295.03 157.65 C 296.34 155.48 297.61 153.28 298.91 151.11 C 300.63 152.34 301.99 151.18 303.22 149.89 C 301.72 149.07 300.23 149.49 298.77 151.14 Z" />
<path fill="#ffffff" opacity="1.00" d=" M 234.70 147.32 C 234.88 147.17 235.23 146.86 235.41 146.71 C 235.23 146.86 234.88 147.17 234.70 147.32 Z" />
<path fill="#ffffff" opacity="1.00" d=" M 273.70 150.65 C 275.37 149.30 275.60 146.44 277.89 145.87 C 277.53 146.41 276.82 147.47 276.46 148.00 C 277.37 150.50 276.02 152.96 274.61 154.95 C 274.43 154.40 274.06 153.30 273.88 152.74 C 272.86 154.17 272.30 155.93 271.03 157.16 C 268.97 158.13 266.84 158.94 264.74 159.79 C 262.46 161.01 261.07 163.33 258.78 164.55 C 257.53 163.62 256.37 162.56 255.59 161.20 C 254.33 161.80 253.06 162.38 251.80 162.96 C 252.30 163.89 252.83 164.81 253.35 165.73 C 253.67 165.34 254.33 164.54 254.65 164.15 L 254.60 165.64 C 255.37 165.50 256.92 165.21 257.69 165.07 C 254.95 166.92 252.51 169.40 249.44 170.64 L 248.50 169.95 C 247.67 170.18 246.85 170.41 246.04 170.64 C 247.15 168.53 249.26 167.29 251.16 165.98 C 252.07 165.55 251.30 164.45 251.30 163.75 C 250.19 165.19 248.79 166.34 247.35 167.42 C 246.04 168.79 244.08 165.72 242.68 168.01 C 244.95 162.22 251.26 160.81 256.24 158.33 C 257.53 157.59 258.83 156.87 260.13 156.15 C 261.96 156.64 263.77 156.11 265.42 155.30 C 266.44 156.54 263.40 157.59 263.37 158.66 C 266.21 159.20 268.23 156.91 270.51 155.75 C 270.06 153.81 271.38 152.58 272.72 151.43 C 273.06 150.75 273.06 150.75 272.72 151.43 C 272.09 151.50 270.82 151.66 270.19 151.74 C 271.34 150.44 272.48 149.12 273.52 147.74 C 273.57 148.47 273.65 149.92 273.70 150.65 M 262.18 159.26 C 262.83 159.78 262.83 159.78 262.18 159.26 Z" />
<path fill="#ffffff" opacity="1.00" d=" M 327.08 146.95 C 328.60 148.81 329.29 146.08 330.77 146.11 C 337.28 145.12 344.19 147.51 348.14 152.90 C 347.41 154.76 348.69 158.05 346.31 158.85 C 346.50 157.09 348.12 155.14 346.76 153.54 C 345.92 152.21 344.81 151.07 343.72 149.95 L 343.86 151.76 C 342.80 151.32 341.74 150.88 340.70 150.45 C 339.67 148.91 337.42 149.76 335.93 149.22 C 337.65 150.05 339.18 151.15 339.25 153.27 C 337.43 152.85 336.05 151.76 335.13 149.99 L 336.09 153.62 C 335.07 152.92 334.02 152.28 332.94 151.71 C 333.41 152.68 333.91 153.65 334.43 154.61 C 332.26 154.44 329.94 154.79 328.69 152.51 C 327.48 153.85 326.12 155.00 324.21 154.91 C 324.33 153.81 324.46 152.72 324.62 151.63 C 325.75 150.25 326.33 148.55 327.08 146.95 M 330.41 149.09 C 329.18 149.38 329.30 151.37 330.38 151.78 C 331.91 151.95 331.83 149.13 330.41 149.09 M 331.69 148.95 C 330.66 150.92 335.10 151.86 334.88 149.78 C 333.86 149.47 332.78 148.52 331.69 148.95 Z" />
<path fill="#ffffff" opacity="1.00" d=" M 234.70 147.32 C 234.25 147.74 234.25 147.74 234.70 147.32 Z" />
<path fill="#ffffff" opacity="1.00" d=" M 261.46 147.02 L 261.97 147.13 L 262.12 147.68 C 261.70 148.26 260.85 149.41 260.43 149.98 C 260.07 149.96 259.34 149.92 258.98 149.89 C 259.49 148.66 260.32 147.70 261.46 147.02 Z" />
<path fill="#ffffff" opacity="1.00" d=" M 232.48 149.24 C 232.77 149.57 232.77 149.57 232.48 149.24 Z" />
<path fill="#ffffff" opacity="1.00" d=" M 233.87 155.46 C 236.59 153.60 238.66 150.82 241.77 149.55 C 240.47 152.19 237.85 153.75 235.68 155.60 C 234.22 156.87 232.56 158.49 230.73 159.57 C 231.45 157.98 232.32 156.38 233.87 155.46 Z" />
<path fill="#ffffff" opacity="1.00" d=" M 221.65 150.69 L 221.71 151.66 C 221.43 153.52 219.55 154.62 218.18 155.71 C 219.15 153.91 220.37 152.27 221.65 150.69 Z" />
<path fill="#ffffff" opacity="1.00" d=" M 248.78 150.83 L 250.73 151.41 C 248.53 153.48 245.95 155.24 244.50 157.97 L 243.64 157.65 L 242.70 157.30 C 243.27 156.65 244.41 155.33 244.98 154.67 C 246.24 153.61 247.56 152.63 248.90 151.68 L 248.78 150.83 Z" />
<path fill="#ffffff" opacity="1.00" d=" M 190.37 159.33 C 193.23 156.59 196.19 153.63 200.04 152.37 C 197.68 156.09 193.74 158.51 190.63 161.57 C 190.97 161.78 191.66 162.18 192.00 162.38 C 190.66 163.84 189.29 165.41 187.21 165.76 C 187.65 165.19 188.52 164.04 188.95 163.47 C 188.69 163.26 188.15 162.85 187.89 162.64 C 188.09 162.09 188.50 160.99 188.70 160.43 L 189.50 160.70 L 189.45 159.41 L 190.37 159.33 Z" />
<path fill="#ffffff" opacity="1.00" d=" M 225.84 154.81 C 226.53 154.04 227.28 153.32 228.08 152.65 L 227.00 154.93 C 227.66 154.73 228.99 154.33 229.66 154.13 C 229.46 154.53 229.08 155.34 228.89 155.74 C 227.84 156.71 226.97 158.61 225.23 157.88 C 225.38 156.71 226.48 155.94 227.10 154.99 L 225.84 154.81 Z" />
<path fill="#ffffff" opacity="1.00" d=" M 320.95 153.27 C 321.95 153.83 322.92 154.47 323.82 155.21 C 325.06 156.64 326.98 156.00 328.64 156.08 C 327.89 157.06 327.16 158.05 326.48 159.08 C 324.35 157.46 321.96 155.87 320.95 153.27 Z" />
<path fill="#ffffff" opacity="1.00" d=" M 286.74 164.54 C 290.18 161.27 291.27 155.97 295.36 153.41 C 294.90 154.55 294.40 155.68 293.86 156.79 C 291.61 160.53 289.03 164.05 286.90 167.86 C 285.15 169.19 283.40 170.58 281.36 171.46 C 281.31 169.92 282.09 168.99 283.70 168.68 C 283.45 168.34 282.93 167.65 282.67 167.30 C 283.56 165.81 285.03 164.82 286.74 164.54 Z" />
<path fill="#ffffff" opacity="1.00" d=" M 342.37 155.24 C 344.69 154.36 343.90 158.48 342.07 158.28 C 340.65 157.87 341.33 155.71 342.37 155.24 Z" />
<path fill="#ffffff" opacity="1.00" d=" M 269.31 160.86 C 272.62 159.68 275.35 157.19 278.76 156.37 C 277.08 159.45 273.62 160.85 271.43 163.50 C 267.95 166.65 264.94 170.82 260.30 172.31 C 259.19 172.90 258.07 173.48 256.94 174.01 C 257.57 171.38 260.73 170.84 262.80 169.73 C 261.47 168.53 263.17 165.61 264.89 167.66 L 263.81 165.81 C 264.79 166.12 265.76 166.46 266.73 166.81 L 266.77 166.16 L 265.03 165.91 C 266.24 165.04 267.86 164.51 268.35 162.93 C 263.67 164.66 260.17 168.89 255.20 169.98 C 255.99 168.97 256.90 168.07 258.14 167.61 C 258.34 167.08 258.73 166.02 258.93 165.49 C 259.27 165.53 259.93 165.61 260.27 165.65 C 262.20 162.34 266.37 161.49 269.25 159.22 C 269.27 159.63 269.30 160.45 269.31 160.86 Z" />
<path fill="#ffffff" opacity="1.00" d=" M 312.83 155.40 C 314.17 155.56 315.52 155.68 316.88 155.77 L 315.26 156.77 C 314.98 157.72 314.41 159.60 314.13 160.54 C 314.71 160.39 315.88 160.09 316.46 159.95 L 315.96 159.00 C 316.64 158.64 318.01 157.90 318.69 157.53 C 320.30 160.63 324.40 160.58 326.21 163.55 C 325.76 163.91 324.86 164.63 324.40 164.99 C 323.22 162.23 320.00 161.16 318.07 159.12 C 317.77 163.11 315.74 166.71 313.74 170.19 C 317.33 170.87 313.85 174.59 312.77 176.18 L 311.99 176.18 C 312.84 172.07 310.10 176.43 308.88 176.99 C 308.46 174.38 311.11 172.89 312.06 170.71 C 309.84 171.48 308.58 173.55 307.21 175.32 C 306.29 175.72 305.38 176.14 304.47 176.53 C 303.69 176.30 302.90 176.25 302.11 176.39 C 302.03 176.01 301.88 175.25 301.80 174.87 C 299.91 176.68 298.04 178.51 296.02 180.18 C 296.27 179.40 296.79 177.85 297.05 177.08 C 295.88 178.24 294.52 178.85 292.96 178.91 C 295.23 176.59 297.98 174.83 300.41 172.70 C 300.31 172.41 300.09 171.84 299.99 171.55 C 301.73 169.51 301.38 165.87 304.04 164.78 C 304.16 166.19 305.33 166.51 306.51 166.67 C 305.14 168.18 303.45 169.50 302.68 171.45 C 305.12 170.48 306.75 167.58 309.71 168.60 L 307.97 167.24 C 308.86 165.42 311.51 163.92 310.35 161.68 C 310.46 161.05 310.70 159.80 310.82 159.17 C 312.19 158.37 312.35 156.76 312.83 155.40 M 314.09 160.54 C 314.04 164.65 310.79 167.53 309.07 170.98 C 312.43 169.31 314.06 165.62 315.91 162.55 C 315.40 161.79 314.72 161.19 314.09 160.54 M 306.31 171.61 C 307.28 172.48 309.39 171.13 308.54 169.92 C 307.54 169.47 305.49 170.29 306.31 171.61 M 303.30 173.85 C 304.80 173.73 305.54 172.99 305.53 171.64 C 304.09 171.79 303.35 172.53 303.30 173.85 M 312.24 173.29 C 312.89 173.84 312.89 173.84 312.24 173.29 Z" />
<path fill="#ffffff" opacity="1.00" d=" M 216.78 164.73 C 218.38 161.00 221.82 158.42 224.56 155.53 C 224.43 157.05 224.31 158.58 224.19 160.10 C 222.68 160.81 221.14 161.44 219.53 161.89 C 218.64 162.86 217.73 163.81 216.78 164.73 Z" />
<path fill="#ffffff" opacity="1.00" d=" M 224.08 163.16 C 226.25 160.51 228.21 157.24 231.62 156.12 C 230.70 158.81 227.16 160.32 227.27 163.28 C 226.08 164.49 224.92 165.83 224.67 167.62 L 226.94 166.62 C 226.22 168.33 224.50 169.98 225.68 171.92 L 224.05 171.31 C 224.22 171.93 224.57 173.16 224.74 173.78 L 223.24 173.07 C 222.73 174.94 221.86 176.69 220.86 178.35 C 220.02 177.53 219.06 176.88 218.05 176.31 C 219.07 174.71 219.84 172.91 221.39 171.71 C 221.23 173.43 219.65 175.07 220.66 176.79 C 222.00 173.18 222.96 169.44 224.60 165.95 C 224.38 165.20 223.93 163.70 223.71 162.95 C 222.14 164.32 221.23 166.82 218.90 167.05 C 220.22 163.72 223.23 161.51 225.48 158.85 C 225.13 159.93 224.43 162.09 224.08 163.16 Z" />
<path fill="#ffffff" opacity="1.00" d=" M 243.64 157.65 C 243.44 157.85 243.44 157.85 243.64 157.65 Z" />
<path fill="#ffffff" opacity="1.00" d=" M 214.29 163.03 C 214.96 160.10 218.19 159.39 220.34 157.82 C 219.15 160.34 214.94 162.06 216.86 165.36 L 215.20 164.10 C 214.53 165.63 214.40 168.21 211.98 167.36 C 212.18 165.67 213.96 164.72 214.29 163.03 Z" />
<path fill="#ffffff" opacity="1.00" d=" M 229.75 165.33 C 230.18 161.68 233.36 158.65 236.31 156.80 C 236.59 157.65 236.88 158.50 237.16 159.36 C 236.35 160.76 235.59 162.18 234.83 163.61 C 233.15 164.23 231.47 164.84 229.75 165.33 Z" />
<path fill="#ffffff" opacity="1.00" d=" M 293.56 162.85 C 294.31 161.56 295.24 160.38 296.41 159.45 C 296.36 162.52 294.39 165.08 291.94 166.73 C 288.97 168.79 286.92 171.82 284.26 174.23 C 284.90 174.62 285.53 175.01 286.17 175.41 C 285.67 173.04 288.33 173.68 289.66 173.43 C 292.41 171.23 295.76 169.30 297.19 165.91 C 293.89 167.67 292.57 172.26 288.38 172.35 C 291.02 168.33 295.10 165.61 297.61 161.54 C 297.93 161.41 298.56 161.16 298.87 161.03 C 298.76 161.40 298.53 162.12 298.42 162.49 C 298.82 162.58 299.60 162.77 299.99 162.87 C 299.49 163.72 299.19 164.64 299.10 165.62 C 300.21 165.24 301.16 164.54 302.10 163.84 C 302.62 166.17 300.64 168.02 298.76 168.98 C 298.73 168.57 298.67 167.75 298.64 167.34 C 296.14 172.50 290.80 175.27 286.63 178.91 C 285.03 178.57 283.52 177.92 282.09 177.14 C 282.74 176.88 284.04 176.35 284.69 176.08 C 284.11 175.38 283.55 174.68 282.99 173.98 C 282.47 174.11 281.43 174.38 280.92 174.52 C 281.37 172.91 282.98 172.15 284.17 171.14 C 287.55 168.67 290.59 165.79 293.56 162.85 Z" />
<path fill="#ffffff" opacity="1.00" d=" M 331.53 163.86 C 334.09 163.64 335.70 161.18 338.34 161.03 C 337.97 161.93 337.30 162.45 336.32 162.58 C 335.20 164.62 333.52 166.24 331.78 167.74 L 330.81 166.18 C 330.01 168.74 328.64 167.15 327.39 166.06 C 328.49 164.92 329.97 164.14 331.53 163.86 Z" />
<path fill="#ffffff" opacity="1.00" d=" M 272.25 169.79 C 273.87 166.14 277.51 163.87 280.68 161.68 C 280.31 163.25 279.31 164.41 278.03 165.32 C 279.06 165.80 280.09 166.32 281.09 166.87 C 278.18 168.01 274.96 168.13 272.25 169.79 Z" />
<path fill="#ffffff" opacity="1.00" d=" M 343.40 162.38 C 345.00 160.81 345.85 163.59 344.34 164.33 C 342.82 165.84 341.82 163.07 343.40 162.38 Z" />
<path fill="#ffffff" opacity="1.00" d=" M 318.08 169.84 C 318.73 167.69 319.80 165.68 321.35 164.04 C 321.25 165.31 321.08 166.57 320.96 167.84 C 319.88 169.54 318.84 171.26 317.77 172.97 L 320.68 172.38 L 320.45 171.13 C 320.64 170.91 321.04 170.46 321.23 170.23 C 321.57 168.31 322.50 166.64 324.22 165.63 C 323.82 167.58 323.32 169.52 322.51 171.34 C 320.88 171.78 322.10 174.11 320.76 175.00 C 320.14 175.80 319.37 176.44 318.62 177.10 L 319.12 174.61 C 317.62 175.35 314.63 176.84 313.14 177.58 C 314.75 175.01 317.27 172.87 318.08 169.84 Z" />
<path fill="#ffffff" opacity="1.00" d=" M 231.03 178.14 C 232.33 173.44 234.28 168.69 237.10 164.73 C 235.80 169.05 233.72 173.11 232.42 177.44 C 232.07 177.62 231.38 177.97 231.03 178.14 Z" />
<path fill="#ffffff" opacity="1.00" d=" M 215.61 166.74 C 216.11 166.60 217.11 166.33 217.61 166.19 C 218.47 168.78 212.54 169.74 215.61 166.74 Z" />
<path fill="#ffffff" opacity="1.00" d=" M 218.81 172.24 C 219.49 169.76 221.23 167.79 223.01 166.01 C 222.42 168.50 221.15 170.99 218.81 172.24 Z" />
<path fill="#ffffff" opacity="1.00" d=" M 266.16 170.17 C 267.91 168.66 269.76 167.25 271.91 166.35 C 271.24 167.58 270.52 168.79 270.02 170.10 C 268.53 172.01 266.85 173.84 264.63 174.88 L 265.08 172.66 C 263.69 173.34 262.32 174.05 260.93 174.70 C 261.89 172.44 264.41 171.69 266.16 170.17 Z" />
<path fill="#ffffff" opacity="1.00" d=" M 182.44 170.95 C 182.33 169.45 184.32 167.67 185.78 167.95 C 185.97 169.41 183.89 171.49 182.44 170.95 Z" />
<path fill="#ffffff" opacity="1.00" d=" M 210.59 170.54 C 211.77 169.17 213.17 167.99 214.76 167.11 C 213.18 169.14 212.16 172.63 209.25 172.95 C 209.68 172.14 210.13 171.34 210.59 170.54 Z" />
<path fill="#ffffff" opacity="1.00" d=" M 342.23 168.34 C 343.85 168.39 342.92 170.80 341.72 170.80 C 340.05 170.75 341.07 168.39 342.23 168.34 Z" />
<path fill="#ffffff" opacity="1.00" d=" M 266.89 178.03 C 270.06 172.42 276.29 169.94 282.15 168.18 C 280.49 171.83 276.14 172.63 273.60 175.47 C 270.74 174.45 269.56 178.01 266.89 178.03 Z" />
<path fill="#ffffff" opacity="1.00" d=" M 227.87 178.03 C 228.56 175.06 229.80 171.89 232.15 169.85 C 231.41 172.22 230.41 174.50 229.72 176.89 C 229.25 177.17 228.33 177.74 227.87 178.03 Z" />
<path fill="#ffffff" opacity="1.00" d=" M 295.42 172.43 C 296.62 170.96 298.20 169.86 299.90 169.02 C 298.60 171.32 297.38 174.01 294.82 175.17 C 294.97 174.48 295.27 173.11 295.42 172.43 Z" />
<path fill="#ffffff" opacity="1.00" d=" M 199.53 171.13 C 200.11 171.59 200.70 172.03 201.30 172.48 C 200.09 173.69 198.85 174.86 197.55 175.98 C 198.37 176.87 199.70 177.49 199.56 178.94 C 198.32 178.79 197.07 178.60 195.91 178.11 C 196.50 176.56 197.84 175.38 198.31 173.75 C 198.74 173.33 198.74 173.33 198.31 173.75 C 194.75 175.23 194.10 179.65 190.80 181.47 C 191.47 180.13 191.64 178.76 191.31 177.36 C 193.44 174.46 196.75 173.20 199.53 171.13 Z" />
<path fill="#ffffff" opacity="1.00" d=" M 281.36 171.46 C 280.86 172.01 280.86 172.01 281.36 171.46 Z" />
<path fill="#ffffff" opacity="1.00" d=" M 156.05 176.55 C 156.48 173.75 160.30 173.31 162.57 172.39 C 161.91 174.94 158.09 175.20 156.05 176.55 Z" />
<path fill="#ffffff" opacity="1.00" d=" M 213.41 177.39 C 214.73 175.62 215.47 173.15 217.61 172.19 C 216.81 173.95 215.70 175.55 214.46 177.05 C 214.98 177.52 215.50 177.99 216.02 178.46 L 217.15 176.77 C 216.46 178.59 215.35 180.21 214.63 182.01 C 214.80 181.74 213.95 177.78 213.06 179.94 C 212.24 181.77 210.25 183.22 210.54 185.39 C 208.66 185.85 208.19 187.88 207.04 189.18 C 207.33 187.53 208.00 186.01 208.62 184.47 L 209.40 184.60 C 210.32 182.00 211.85 179.64 213.41 177.39 Z" />
<path fill="#ffffff" opacity="1.00" d=" M 340.27 171.78 C 340.63 171.86 341.34 172.03 341.69 172.11 C 341.41 173.04 341.14 173.97 340.88 174.90 C 338.72 177.19 337.36 180.59 334.12 181.55 C 332.72 182.40 331.43 183.44 329.87 184.01 C 330.22 181.98 332.18 181.11 333.56 179.88 L 334.35 180.87 C 337.06 178.32 339.32 175.46 340.27 171.78 Z" />
<path fill="#ffffff" opacity="1.00" d=" M 157.76 177.97 C 160.65 176.00 163.81 174.46 167.14 173.38 C 163.26 178.31 157.14 181.50 151.02 182.85 C 152.05 179.88 155.49 179.59 157.76 177.97 Z" />
<path fill="#ffffff" opacity="1.00" d=" M 157.50 182.58 C 161.61 181.21 165.05 178.38 169.25 177.24 C 167.01 180.64 162.91 182.39 159.47 184.39 C 155.91 184.18 159.82 187.68 160.15 184.88 C 162.79 186.09 164.61 182.83 166.98 182.05 C 166.19 184.44 163.41 185.12 161.53 186.42 C 156.89 188.75 153.17 192.74 148.23 194.46 C 149.64 192.35 151.74 190.85 153.88 189.56 L 153.63 188.61 C 154.97 189.24 157.30 188.49 156.85 186.69 L 155.94 186.66 L 154.32 186.56 C 155.01 186.02 156.40 184.93 157.09 184.39 C 155.10 185.16 153.15 186.05 151.14 186.76 C 152.17 184.22 155.30 183.78 157.50 182.58 Z" />
<path fill="#ffffff" opacity="1.00" d=" M 195.48 177.44 C 195.59 177.61 195.80 177.95 195.91 178.11 C 195.85 179.25 195.65 180.37 195.31 181.48 L 194.46 181.24 C 194.23 181.66 193.78 182.49 193.55 182.90 L 193.11 183.41 L 193.41 183.94 C 193.44 183.68 193.51 183.16 193.55 182.90 C 193.99 182.55 194.87 181.83 195.31 181.48 L 196.80 179.30 L 197.21 181.71 C 197.94 180.74 198.76 179.85 199.67 179.04 C 199.25 181.24 197.70 182.94 196.53 184.77 C 196.28 184.32 195.76 183.43 195.51 182.99 C 195.06 183.71 194.18 185.15 193.74 185.87 C 193.66 185.42 193.51 184.53 193.44 184.09 C 192.86 184.20 191.71 184.42 191.13 184.52 C 192.41 182.06 194.11 179.85 195.48 177.44 M 196.22 181.87 C 196.87 182.58 196.87 182.58 196.22 181.87 Z" />
<path fill="#ffffff" opacity="1.00" d=" M 208.35 180.94 L 209.13 180.80 C 209.11 181.20 209.07 181.99 209.05 182.39 L 208.27 182.52 C 208.29 182.13 208.33 181.34 208.35 180.94 Z" />
<path fill="#ffffff" opacity="1.00" d=" M 212.23 185.64 C 212.01 184.37 212.79 181.37 214.59 182.52 C 216.28 183.92 213.64 185.85 212.23 185.64 Z" />
<path fill="#ffffff" opacity="1.00" d=" M 324.23 182.56 C 324.62 182.80 325.40 183.26 325.79 183.50 C 326.29 183.21 327.28 182.63 327.78 182.34 C 326.50 185.34 322.87 184.42 320.45 185.23 C 317.31 187.70 312.64 186.18 309.85 189.26 C 310.25 190.18 310.64 191.11 311.00 192.05 C 309.21 190.56 308.06 188.50 307.14 186.40 C 313.09 187.79 318.83 184.67 324.23 182.56 Z" />
<path fill="#ffffff" opacity="1.00" d=" M 288.93 185.59 C 290.32 183.94 292.16 183.13 294.33 183.25 C 293.14 184.35 292.01 185.50 292.09 187.26 C 291.72 187.58 290.98 188.21 290.60 188.53 C 289.59 188.89 288.59 189.27 287.59 189.67 C 286.52 189.99 285.46 190.33 284.40 190.67 C 283.67 189.04 281.67 189.03 280.21 188.60 C 281.13 187.71 282.09 186.86 283.06 186.02 L 283.09 188.06 C 285.00 187.17 286.75 185.75 288.93 185.59 Z" />
<path fill="#ffffff" opacity="1.00" d=" M 274.90 183.59 C 274.99 184.12 275.17 185.17 275.26 185.69 C 276.06 185.29 276.85 184.88 277.63 184.44 C 277.98 185.04 278.67 186.25 279.02 186.85 C 277.22 188.28 275.13 189.24 272.96 189.97 C 272.99 189.47 273.03 188.47 273.06 187.98 C 272.42 188.24 271.15 188.76 270.51 189.02 C 270.55 186.20 274.07 185.98 274.90 183.59 Z" />
<path fill="#ffffff" opacity="1.00" d=" M 267.20 188.45 C 266.91 186.68 269.49 184.99 271.09 185.03 C 271.24 186.62 268.76 188.52 267.20 188.45 Z" />
<path fill="#ffffff" opacity="1.00" d=" M 233.17 189.03 C 231.73 188.70 231.48 185.93 233.07 185.67 C 234.65 185.91 234.99 188.94 233.17 189.03 Z" />
<path fill="#ffffff" opacity="1.00" d=" M 147.77 191.03 C 149.92 188.78 152.78 186.90 155.94 186.66 C 155.36 187.14 154.20 188.12 153.63 188.61 C 151.76 189.59 149.96 190.98 147.77 191.03 Z" />
<path fill="#ffffff" opacity="1.00" d=" M 179.92 189.23 C 180.99 188.45 182.06 187.66 183.19 186.96 C 182.69 188.16 181.89 189.10 180.80 189.78 C 181.28 190.85 181.77 191.91 182.24 192.99 C 183.08 191.97 183.98 191.00 184.92 190.07 C 184.52 191.51 183.64 192.73 182.85 193.98 L 181.56 193.25 L 181.57 194.42 L 181.33 195.27 C 180.60 196.95 179.38 198.33 178.26 199.76 C 177.39 200.53 176.47 201.24 175.49 201.89 C 176.21 200.12 177.32 198.56 178.19 196.88 C 180.10 196.09 180.46 193.11 179.01 191.79 C 178.17 192.98 177.36 194.19 176.58 195.42 C 176.41 195.59 176.06 195.93 175.89 196.10 C 175.66 196.32 175.21 196.76 174.99 196.98 C 174.77 197.20 174.33 197.64 174.12 197.86 C 174.01 197.97 173.79 198.20 173.68 198.31 C 173.79 198.20 174.01 197.97 174.12 197.86 C 174.33 197.64 174.77 197.20 174.99 196.98 C 175.21 196.76 175.66 196.32 175.89 196.10 C 176.06 195.93 176.41 195.59 176.58 195.42 C 176.98 195.78 177.79 196.51 178.19 196.88 C 176.49 197.85 175.28 199.39 173.77 200.60 C 172.68 200.54 172.14 199.25 171.34 198.63 C 170.67 197.32 172.56 196.95 173.21 196.22 C 175.41 194.44 177.12 192.14 179.32 190.35 L 181.02 190.68 L 179.92 189.23 Z" />
<path fill="#ffffff" opacity="1.00" d=" M 301.82 187.74 C 303.65 188.20 304.79 189.71 305.83 191.17 C 308.66 191.77 310.31 194.49 311.78 196.75 C 309.82 196.42 308.60 194.80 307.43 193.35 L 306.23 194.16 C 308.71 192.05 304.02 191.63 306.23 194.16 C 306.59 194.70 307.33 195.77 307.70 196.31 C 307.41 196.56 306.83 197.05 306.55 197.30 C 305.19 194.01 302.92 191.16 301.82 187.74 Z" />
<path fill="#ffffff" opacity="1.00" d=" M 158.28 190.10 C 158.87 190.03 160.05 189.89 160.64 189.81 C 157.85 193.22 153.88 195.64 150.05 197.76 C 151.84 194.39 155.62 192.72 158.28 190.10 Z" />
<path fill="#ffffff" opacity="1.00" d=" M 170.12 194.89 C 171.48 193.25 172.88 191.45 175.02 190.84 C 173.81 192.54 172.56 195.12 170.12 194.89 Z" />
<path fill="#ffffff" opacity="1.00" d=" M 154.05 199.89 C 156.77 196.91 159.47 193.54 163.15 191.74 C 161.18 194.89 158.21 197.26 155.57 199.81 C 155.19 199.83 154.43 199.87 154.05 199.89 Z" />
<path fill="#ffffff" opacity="1.00" d=" M 301.04 191.91 C 302.68 193.54 304.08 195.39 305.37 197.32 L 306.55 197.30 C 306.74 198.27 306.95 199.24 307.18 200.21 C 305.01 197.60 301.71 195.40 301.04 191.91 Z" />
<path fill="#ffffff" opacity="1.00" d=" M 298.86 193.69 C 301.75 195.36 303.23 198.80 304.07 201.91 C 302.82 201.17 302.11 200.14 301.94 198.80 C 300.17 201.02 296.84 198.02 298.12 195.74 L 299.30 198.32 C 300.79 196.88 298.96 195.30 298.86 193.69 Z" />
<path fill="#ffffff" opacity="1.00" d=" M 179.45 200.73 C 181.15 198.81 182.06 195.62 184.81 195.01 C 183.17 197.30 181.78 200.23 179.33 201.66 C 179.06 201.18 178.53 200.23 178.26 199.76 L 179.45 200.73 Z" />
<path fill="#ffffff" opacity="1.00" d=" M 293.27 197.98 C 293.62 198.08 294.31 198.26 294.66 198.36 C 297.09 201.94 299.09 205.89 300.05 210.14 C 298.34 208.31 294.97 206.39 297.12 203.36 C 296.30 204.20 296.16 205.60 295.09 206.17 C 294.23 205.64 293.61 204.89 293.23 203.91 C 294.11 203.27 294.99 202.63 295.86 201.98 C 294.99 200.63 294.12 199.32 293.27 197.98 Z" />
<path fill="#ffffff" opacity="1.00" d=" M 295.33 207.13 C 297.71 208.76 297.17 212.49 297.73 215.06 C 297.62 216.71 299.12 218.82 297.57 220.14 C 297.05 215.77 296.61 211.36 295.33 207.13 Z" />
<path fill="#ffffff" opacity="1.00" d=" M 291.86 211.87 C 294.31 213.01 295.56 215.59 295.98 218.14 C 293.82 216.68 292.80 214.19 291.86 211.87 Z" />
<path fill="#ffffff" opacity="1.00" d=" M 289.01 215.64 C 291.12 216.36 291.05 218.79 291.73 220.55 C 291.30 221.26 290.44 222.70 290.01 223.42 C 294.53 222.53 290.71 225.19 289.28 224.83 C 288.99 224.04 288.69 223.24 288.40 222.45 L 290.08 222.59 C 289.65 220.28 288.96 218.01 289.01 215.64 Z" />
</g>
</svg>
