<?xml version="1.0" encoding="UTF-8" ?>
<!DOCTYPE svg PUBLIC "-//W3C//DTD SVG 1.1//EN" "http://www.w3.org/Graphics/SVG/1.1/DTD/svg11.dtd">
<svg width="512pt" height="256pt" viewBox="0 0 512 256" version="1.1" xmlns="http://www.w3.org/2000/svg">
<g id="#ffffffff">
<path fill="#ffffff" opacity="1.00" d=" M 263.31 28.55 C 266.32 28.51 269.24 26.79 272.22 28.56 C 272.58 28.22 273.32 27.55 273.68 27.21 C 273.60 27.81 273.42 29.01 273.34 29.60 C 273.98 29.82 275.28 30.26 275.92 30.48 C 276.41 30.46 277.39 30.41 277.88 30.39 C 277.18 30.99 275.78 32.18 275.08 32.78 L 277.81 32.21 C 278.07 32.73 278.59 33.77 278.85 34.29 C 278.31 35.13 277.75 35.96 277.32 36.86 C 277.95 37.49 278.59 38.14 278.83 39.04 C 277.49 40.07 276.47 41.42 275.69 42.91 C 276.73 42.71 278.80 42.30 279.84 42.10 C 279.37 44.59 276.20 45.33 276.03 47.98 C 276.97 47.18 278.03 46.58 279.21 46.17 C 274.82 47.94 277.70 51.80 280.12 49.43 C 278.95 50.42 277.71 51.33 276.51 52.28 L 278.83 52.41 L 278.47 53.59 C 280.78 53.14 281.79 55.07 281.96 57.02 C 281.44 56.02 280.91 55.03 280.38 54.05 C 278.96 55.59 277.03 55.70 275.11 55.32 C 276.23 56.12 277.50 56.44 278.93 56.28 L 278.55 57.47 C 280.08 57.43 281.63 57.40 283.17 57.38 C 283.25 57.99 283.40 59.23 283.47 59.85 C 285.65 59.90 287.40 61.05 289.33 61.90 C 288.74 62.41 287.55 63.42 286.96 63.93 C 287.79 63.76 289.46 63.43 290.29 63.26 C 290.73 65.56 293.48 65.16 295.15 65.95 C 293.67 66.73 292.17 67.45 290.64 68.12 C 290.31 67.69 289.65 66.84 289.33 66.41 C 287.15 68.13 283.96 69.02 282.98 71.86 C 284.06 70.90 285.07 69.86 286.07 68.82 C 287.68 68.13 289.53 66.25 290.68 68.67 C 293.31 67.26 296.24 67.07 299.02 68.20 C 298.77 68.58 298.27 69.34 298.02 69.72 C 300.43 68.52 301.77 71.65 304.11 71.79 C 304.69 72.76 305.26 73.75 305.83 74.74 C 306.21 74.38 306.98 73.67 307.37 73.32 C 308.11 74.64 308.97 75.95 308.68 77.57 C 310.21 77.56 311.68 77.23 313.03 76.47 C 312.31 77.28 311.64 78.11 311.00 78.98 C 311.87 79.99 312.76 82.50 314.54 81.44 C 313.91 83.57 316.23 85.67 314.51 87.72 C 314.11 89.25 312.47 88.47 311.41 88.54 C 311.17 90.71 309.88 93.08 311.15 95.14 C 310.63 95.55 309.57 96.36 309.05 96.76 C 310.17 96.38 311.27 95.91 312.37 95.45 C 311.94 94.26 311.55 93.06 311.16 91.86 C 312.80 90.52 314.09 88.79 315.82 87.56 C 315.76 89.02 315.65 90.47 315.72 91.93 C 315.08 92.52 314.46 93.12 313.85 93.72 C 314.83 93.09 316.39 91.41 316.68 93.60 C 315.11 95.79 316.10 98.43 317.63 100.34 C 316.95 101.80 314.76 101.76 313.48 102.62 C 313.62 103.38 313.90 104.90 314.04 105.66 C 313.08 105.66 312.13 105.67 311.17 105.70 C 311.17 107.87 311.14 110.05 311.03 112.23 C 311.51 111.59 312.47 110.33 312.96 109.70 C 312.88 110.52 312.72 112.16 312.64 112.97 C 311.49 114.58 310.46 116.28 308.94 117.57 L 312.51 117.36 C 311.55 118.31 310.46 119.07 309.30 119.75 C 310.85 119.48 312.31 118.92 313.78 118.38 C 313.97 119.07 314.33 120.45 314.52 121.14 C 312.28 122.56 309.90 123.83 308.11 125.83 C 310.77 124.21 313.62 122.90 316.23 121.16 C 317.29 122.35 318.43 123.48 319.55 124.62 C 317.59 125.31 315.72 126.20 313.86 127.12 C 310.03 127.67 306.88 130.42 304.03 132.88 C 306.22 131.75 308.23 130.31 310.19 128.82 C 313.62 128.44 316.86 127.21 319.85 125.51 C 322.58 125.67 319.67 129.11 318.25 128.69 C 318.29 128.95 318.38 129.46 318.42 129.71 C 319.66 129.11 320.86 128.44 321.94 127.58 C 326.15 135.03 329.58 142.89 333.29 150.59 C 334.81 152.61 336.06 154.80 336.84 157.23 C 335.55 157.86 334.22 158.42 332.93 159.05 C 332.47 159.24 331.56 159.60 331.11 159.79 C 332.23 159.61 333.26 159.20 334.20 158.57 C 335.39 158.61 336.58 158.67 337.78 158.75 C 339.38 162.65 336.90 167.24 333.40 169.02 C 334.26 167.45 335.11 165.87 335.97 164.29 C 333.78 164.28 331.70 163.58 329.57 163.22 L 329.73 161.99 C 326.46 165.04 321.42 163.90 318.16 161.52 C 315.59 161.74 314.09 159.20 312.78 157.43 C 316.71 158.13 320.04 155.43 323.12 153.41 C 322.46 153.43 321.12 153.47 320.46 153.49 L 320.59 154.46 C 319.33 154.89 318.10 155.34 316.86 155.79 C 315.14 157.60 312.92 155.17 310.90 155.51 C 310.25 155.84 308.96 156.50 308.31 156.83 L 308.45 158.29 C 309.22 158.26 310.74 158.19 311.50 158.16 L 311.53 159.35 C 310.21 159.57 308.92 159.84 307.64 160.19 C 308.88 160.38 309.99 160.84 310.97 161.59 C 310.31 161.84 309.00 162.33 308.34 162.58 C 308.34 162.83 308.34 163.35 308.34 163.60 C 309.47 163.42 310.62 163.28 311.77 163.19 C 310.48 164.87 308.60 165.64 306.53 165.76 C 306.54 166.32 306.56 167.43 306.57 167.98 C 308.17 166.16 310.56 166.44 312.72 166.12 C 311.96 167.97 313.75 168.92 314.84 170.04 C 314.43 170.55 313.61 171.57 313.20 172.08 C 313.66 172.23 314.59 172.52 315.06 172.66 C 313.49 174.29 312.06 176.07 311.10 178.13 C 312.79 176.90 314.22 175.34 315.33 173.56 C 316.58 174.80 318.09 175.71 319.60 176.59 C 319.21 178.42 319.17 180.27 319.35 182.13 C 317.96 186.49 313.48 188.08 309.33 188.43 C 309.51 188.66 309.87 189.13 310.04 189.36 C 307.31 189.19 305.53 192.36 302.77 191.44 C 301.35 190.66 299.83 189.81 298.20 190.52 L 298.72 188.98 C 297.97 189.31 296.48 189.96 295.74 190.29 C 296.02 189.64 296.59 188.34 296.87 187.69 C 295.86 188.41 294.87 189.14 293.89 189.89 C 292.73 188.15 290.87 187.92 289.64 189.63 L 290.05 187.97 L 288.07 188.93 L 288.24 186.58 C 287.43 187.17 285.79 188.36 284.97 188.95 C 285.27 186.93 287.16 185.90 288.35 184.47 C 289.51 187.27 291.64 184.06 291.43 182.40 C 292.47 181.26 294.12 180.64 294.98 182.33 C 298.51 179.19 302.70 176.81 305.65 173.03 C 303.10 175.48 300.14 177.40 297.31 179.50 C 296.77 180.51 294.41 180.27 295.09 178.87 C 296.22 177.52 297.59 176.41 298.79 175.13 C 297.57 176.53 295.18 176.92 294.58 178.66 L 294.58 179.73 L 294.50 180.81 C 293.94 180.77 292.81 180.67 292.25 180.63 C 289.38 183.07 286.66 185.71 283.67 188.00 C 283.73 187.32 283.85 185.98 283.92 185.30 C 283.45 185.74 282.53 186.61 282.06 187.04 C 279.30 186.26 280.00 181.93 277.34 181.55 C 277.77 181.15 278.21 180.75 278.65 180.36 C 278.15 180.39 277.16 180.46 276.66 180.50 C 276.48 181.02 276.13 182.05 275.95 182.57 C 272.53 183.10 274.15 186.05 272.75 188.26 C 273.09 188.12 273.75 187.84 274.08 187.70 C 274.51 187.15 275.37 186.04 275.80 185.48 C 275.59 186.44 275.18 188.36 274.98 189.32 L 277.23 187.54 L 278.77 187.34 C 277.37 190.00 275.00 192.83 271.71 191.29 C 271.08 190.41 270.13 189.93 269.04 190.16 C 269.04 188.10 270.79 187.14 272.17 185.98 C 270.86 186.42 269.57 186.95 268.28 187.44 L 268.47 188.88 C 264.10 188.33 267.25 185.83 269.17 184.99 C 266.66 185.73 264.24 186.96 261.54 186.41 C 261.55 185.72 261.57 184.33 261.58 183.64 C 259.43 184.25 257.50 183.25 255.73 182.15 C 255.68 182.76 255.58 183.97 255.53 184.57 C 254.68 184.99 253.84 185.41 253.01 185.85 C 252.89 187.81 250.97 188.50 249.79 189.75 C 251.29 188.67 252.95 188.13 254.78 188.11 C 253.63 189.47 252.39 190.73 251.15 191.99 C 252.96 190.83 254.73 189.58 256.58 188.48 C 256.30 189.26 255.72 190.83 255.43 191.61 C 256.22 191.06 257.79 189.95 258.57 189.40 C 258.46 189.99 258.22 191.17 258.11 191.76 C 258.73 191.77 259.99 191.79 260.62 191.80 C 258.85 195.29 255.21 197.14 252.77 200.07 C 256.32 198.73 258.61 195.30 261.89 193.74 C 262.47 193.99 263.63 194.48 264.20 194.73 C 262.42 196.80 259.78 198.24 258.70 200.84 C 261.51 199.17 263.33 196.14 266.41 194.92 C 265.81 199.25 261.58 201.76 258.69 204.63 L 257.46 204.57 C 257.29 204.97 256.95 205.79 256.79 206.20 C 256.31 204.45 255.38 202.83 255.32 200.99 C 253.58 201.31 252.30 202.50 251.06 203.64 C 251.66 202.59 252.26 201.54 252.87 200.50 L 251.26 200.68 L 251.28 199.09 C 250.23 199.70 249.20 200.34 248.15 200.96 L 249.39 199.62 L 249.32 197.96 C 248.30 198.52 247.29 199.09 246.28 199.67 C 246.38 199.08 246.57 197.91 246.66 197.32 C 244.87 197.88 243.48 197.50 242.50 196.17 C 241.71 196.28 240.14 196.51 239.35 196.62 C 239.51 196.06 239.82 194.94 239.97 194.38 C 238.93 194.39 236.85 194.41 235.81 194.42 C 234.05 198.26 238.21 200.81 238.88 204.22 C 238.03 203.39 237.13 202.63 236.20 201.91 C 236.27 204.27 237.96 205.95 239.16 207.79 C 238.17 206.93 237.03 206.40 235.74 206.18 C 236.32 208.49 236.64 210.88 237.74 213.03 C 236.66 212.00 235.15 211.03 235.35 209.31 C 233.63 207.67 232.07 205.88 230.59 204.03 C 231.38 204.20 232.97 204.56 233.76 204.73 C 233.17 202.31 231.82 200.20 230.73 197.99 C 231.62 198.59 233.38 199.79 234.26 200.39 C 232.58 197.25 231.12 193.74 228.25 191.47 C 228.75 193.29 229.43 195.07 229.91 196.90 C 228.93 195.97 228.04 194.94 227.21 193.88 C 227.28 194.57 227.42 195.95 227.49 196.64 C 226.91 196.27 225.75 195.52 225.17 195.14 C 225.07 195.53 224.87 196.32 224.77 196.72 L 223.71 196.27 C 223.16 198.34 221.35 199.58 219.83 200.90 L 219.52 199.19 C 218.30 199.75 217.08 200.31 215.86 200.87 C 215.42 199.91 214.98 198.96 214.54 198.01 C 214.55 198.75 214.57 200.23 214.58 200.96 C 214.28 201.65 213.68 203.02 213.38 203.71 C 210.62 204.74 211.84 201.33 210.51 200.09 C 210.32 200.84 209.95 202.32 209.76 203.06 C 208.36 200.58 206.70 198.20 205.82 195.46 L 207.34 195.21 C 207.60 197.07 208.42 198.77 209.09 200.50 L 210.05 200.22 C 208.80 197.75 207.76 195.07 208.85 192.32 C 209.39 192.57 210.46 193.09 210.99 193.35 C 210.86 192.56 210.59 190.99 210.45 190.20 C 211.07 190.66 212.30 191.57 212.92 192.03 C 212.60 190.48 212.31 188.93 212.08 187.37 C 210.98 188.59 209.83 189.26 209.11 187.27 C 208.55 187.93 207.44 189.25 206.88 189.91 C 206.49 189.53 205.73 188.77 205.34 188.39 C 204.90 188.69 204.00 189.30 203.56 189.60 C 202.15 189.47 200.69 189.05 199.35 189.72 C 199.46 189.06 199.68 187.75 199.79 187.09 C 198.78 187.61 196.76 188.65 195.75 189.17 C 198.88 184.49 203.12 180.72 206.77 176.47 L 209.76 176.05 C 208.50 177.08 207.59 178.33 207.02 179.80 C 208.90 179.68 211.20 178.87 210.63 176.48 C 211.44 175.74 212.38 175.20 213.44 174.87 C 211.96 174.38 210.75 173.46 210.07 172.04 C 209.70 172.56 208.96 173.61 208.59 174.13 C 208.57 173.40 208.55 171.95 208.54 171.22 L 208.22 171.21 C 207.79 171.59 206.92 172.34 206.49 172.72 L 206.76 173.70 C 204.71 172.58 203.77 175.50 201.79 175.45 C 201.32 175.83 200.36 176.59 199.89 176.97 C 203.16 171.27 209.84 168.84 215.25 165.61 C 215.30 166.24 215.41 167.51 215.46 168.15 C 215.53 167.16 215.58 166.17 215.62 165.19 C 212.69 165.19 210.83 167.90 208.10 168.65 C 204.90 170.49 201.68 172.52 199.03 175.10 C 196.42 176.19 194.29 178.05 192.01 179.67 C 192.41 178.92 192.89 178.24 193.46 177.62 C 195.11 175.93 196.86 174.33 198.44 172.57 C 196.41 173.75 194.55 175.17 192.65 176.54 L 193.46 177.62 C 192.90 177.29 191.76 176.63 191.19 176.30 C 192.84 174.69 194.69 173.30 196.13 171.47 C 192.63 172.31 190.29 175.27 187.02 176.59 C 189.38 172.67 193.80 170.88 197.35 168.27 C 199.31 167.04 200.96 164.99 203.49 165.23 C 204.31 164.49 205.12 163.75 205.91 162.97 C 205.38 163.31 204.34 163.97 203.82 164.31 C 202.13 163.97 200.40 165.71 198.97 165.07 L 198.41 164.30 C 199.65 163.70 200.88 163.06 202.01 162.26 C 199.11 163.38 196.12 164.24 193.14 165.09 C 191.68 165.96 190.23 166.84 188.87 167.84 C 187.53 168.67 186.05 169.35 185.03 170.61 C 184.75 171.42 184.75 171.42 185.03 170.61 C 185.83 170.51 187.43 170.32 188.23 170.23 C 186.56 171.19 185.15 172.87 183.43 173.56 C 183.39 173.14 183.32 172.31 183.28 171.90 C 182.43 172.32 180.72 173.15 179.86 173.57 C 180.77 172.15 185.99 168.21 180.18 170.71 L 180.97 168.45 C 179.97 168.74 177.96 169.31 176.96 169.60 C 175.85 170.36 174.85 171.61 173.38 171.53 C 174.28 169.34 177.62 169.31 178.17 166.84 L 176.39 166.90 L 178.66 163.93 C 177.63 164.21 175.57 164.78 174.54 165.06 L 174.85 163.35 C 174.15 163.63 172.76 164.18 172.07 164.46 C 173.30 163.21 174.75 161.59 176.71 162.71 C 175.68 159.69 179.43 158.23 180.88 156.11 C 178.78 156.54 176.61 156.82 174.52 156.20 C 178.57 154.63 180.99 149.54 185.59 149.58 C 185.67 148.81 185.84 147.27 185.92 146.50 L 183.17 146.40 L 183.64 147.97 C 183.05 147.76 181.85 147.34 181.25 147.13 L 181.55 148.74 C 181.26 148.76 180.69 148.79 180.40 148.81 L 180.92 146.94 C 179.70 147.46 178.49 147.97 177.28 148.49 C 177.13 148.19 176.85 147.59 176.71 147.29 C 180.52 145.63 184.19 143.65 188.14 142.32 C 190.01 141.60 192.14 141.16 193.46 139.48 C 185.86 141.00 178.82 144.61 171.73 147.64 C 171.29 147.05 170.86 146.46 170.43 145.88 C 171.94 145.58 173.13 144.85 174.02 143.67 C 173.25 143.61 171.70 143.48 170.93 143.41 C 171.64 142.88 172.44 142.57 173.34 142.50 C 173.91 141.74 175.06 140.21 175.63 139.45 C 174.89 139.34 173.42 139.11 172.68 138.99 C 174.25 138.22 175.94 137.76 177.65 137.39 C 177.60 136.92 177.51 135.98 177.46 135.52 C 178.33 135.62 180.07 135.82 180.94 135.92 C 179.20 131.47 175.15 134.58 172.32 135.60 C 173.38 133.21 176.05 132.92 177.87 131.37 C 175.77 131.41 173.68 131.39 171.60 131.31 C 171.37 131.78 170.91 132.72 170.68 133.19 L 170.64 131.29 C 167.90 131.03 165.34 131.98 162.76 132.73 C 161.88 133.57 160.78 133.85 159.44 133.58 L 159.61 134.37 C 158.40 134.53 157.17 134.65 156.36 135.66 C 156.87 134.40 156.60 133.56 155.56 133.13 C 160.02 130.71 164.94 129.39 169.76 127.92 C 169.20 131.91 170.76 128.84 170.62 127.19 C 165.69 127.30 161.36 130.00 156.59 130.92 C 155.71 127.76 157.22 123.76 160.82 123.35 C 160.60 122.72 160.16 121.47 159.94 120.85 C 160.43 120.83 161.40 120.79 161.88 120.77 L 161.23 119.57 C 162.51 118.65 163.63 117.21 165.37 117.37 C 165.91 116.46 166.46 115.57 167.04 114.69 C 169.97 114.25 173.07 114.88 175.87 113.71 C 180.80 110.81 186.64 112.02 192.05 111.06 C 189.10 109.86 186.08 111.22 183.09 111.38 C 180.50 111.37 178.12 112.54 175.56 112.79 L 175.52 113.52 C 173.32 113.51 171.13 113.69 168.95 113.98 C 169.67 112.80 170.80 111.75 170.79 110.26 C 169.38 110.64 167.98 111.05 166.60 111.51 C 166.29 111.16 165.68 110.48 165.37 110.14 C 165.67 109.64 166.28 108.65 166.58 108.16 C 167.99 108.37 169.39 108.60 170.80 108.84 L 170.72 108.40 C 168.17 107.86 165.50 107.74 163.09 106.67 C 161.56 106.73 160.04 106.81 158.51 106.91 L 158.57 105.65 C 159.28 105.62 160.70 105.58 161.40 105.56 C 159.53 104.74 156.93 105.11 155.73 103.20 C 156.85 103.29 159.07 103.46 160.19 103.54 C 159.44 102.78 158.64 102.08 157.80 101.43 C 161.18 102.18 164.65 101.61 168.07 101.69 C 168.11 99.55 167.12 98.30 165.11 97.93 C 167.17 97.82 169.16 98.73 171.12 99.32 C 170.35 99.25 168.82 99.11 168.05 99.04 L 168.25 101.42 C 171.01 101.59 173.71 102.12 176.43 102.59 C 176.47 102.77 176.56 103.14 176.61 103.33 C 179.50 103.85 182.34 103.32 185.09 102.38 C 183.05 102.38 181.01 102.27 179.00 101.98 C 179.17 101.36 179.51 100.12 179.68 99.50 C 178.48 99.35 177.29 99.14 176.11 98.88 C 176.49 98.82 177.24 98.69 177.62 98.63 L 177.47 96.76 C 176.23 96.56 174.87 96.53 174.00 95.50 C 174.84 95.56 176.52 95.68 177.36 95.74 C 177.36 95.38 177.36 94.66 177.36 94.29 C 177.96 94.70 179.17 95.52 179.77 95.93 C 179.67 95.25 179.46 93.89 179.35 93.21 C 180.21 93.94 181.18 94.50 182.26 94.89 L 182.49 93.29 C 183.26 93.45 184.81 93.77 185.58 93.93 L 185.28 92.36 C 185.82 92.48 186.88 92.71 187.41 92.83 C 187.50 91.94 187.67 90.16 187.76 89.27 C 187.33 89.26 186.48 89.25 186.06 89.24 C 184.99 88.16 183.64 87.45 182.43 86.57 C 182.34 85.47 182.43 84.35 182.47 83.25 C 181.58 83.68 180.69 84.11 179.80 84.54 C 179.86 81.31 182.53 79.54 183.98 77.08 C 185.00 78.02 186.33 78.45 187.65 78.80 C 186.66 76.29 188.84 73.42 187.09 71.12 C 185.83 69.72 186.20 67.78 186.74 66.15 C 181.93 65.91 184.30 71.17 183.39 74.03 C 181.88 71.84 182.48 68.96 182.15 66.47 C 182.18 65.84 182.24 64.58 182.27 63.95 L 184.14 64.66 C 183.67 64.33 182.74 63.67 182.28 63.34 C 183.00 62.27 183.45 61.10 183.62 59.82 C 184.39 59.82 185.92 59.82 186.69 59.82 C 186.48 60.40 186.07 61.55 185.86 62.12 C 186.43 62.50 187.57 63.25 188.13 63.63 C 188.44 62.97 189.05 61.64 189.36 60.97 C 188.56 59.66 188.24 58.17 188.89 56.72 C 188.03 53.50 191.22 51.30 190.87 48.12 C 192.03 48.73 193.21 49.32 194.42 49.87 C 193.32 48.28 191.35 47.32 190.82 45.37 L 192.97 46.06 C 192.75 45.42 192.30 44.15 192.08 43.51 L 193.54 44.00 C 194.25 38.85 200.50 36.77 205.01 36.05 C 206.91 35.08 208.95 36.06 210.90 36.29 C 211.76 36.84 212.63 37.38 213.51 37.90 C 213.00 38.88 212.51 39.86 212.03 40.86 C 213.12 40.20 214.18 39.48 215.29 38.84 C 215.20 40.35 214.60 41.68 213.49 42.83 C 215.19 42.84 216.64 38.88 217.67 41.23 C 216.19 44.59 213.82 47.47 210.80 49.56 C 210.24 49.58 209.11 49.62 208.55 49.64 C 208.55 50.20 208.56 51.32 208.57 51.88 L 205.90 51.22 C 206.75 49.77 207.79 48.46 208.90 47.21 C 208.29 47.32 207.07 47.53 206.46 47.64 C 206.47 48.19 206.49 49.30 206.50 49.86 C 204.63 50.37 202.80 51.01 201.06 51.88 C 201.84 50.23 202.32 47.79 204.73 48.20 C 205.13 45.92 204.04 44.85 201.48 44.99 L 201.75 46.91 C 201.09 46.36 199.77 45.24 199.11 44.68 C 199.14 46.39 199.72 47.86 200.84 49.08 C 199.36 48.16 197.96 46.86 196.04 47.13 C 196.75 48.03 198.17 49.84 198.89 50.74 C 197.64 50.65 196.39 50.55 195.14 50.48 C 195.36 51.82 196.15 52.66 197.56 52.75 C 196.99 56.24 193.64 58.27 191.19 60.46 L 191.53 61.00 C 193.26 59.54 194.98 58.07 196.61 56.51 C 197.65 56.37 198.69 56.23 199.73 56.07 C 200.48 54.73 201.52 53.58 202.90 52.87 C 200.11 56.40 196.59 59.27 193.32 62.34 C 193.93 62.54 195.16 62.94 195.77 63.14 C 194.43 63.79 193.09 64.44 191.75 65.07 C 192.75 66.42 194.60 67.52 194.32 69.46 C 193.59 69.46 192.14 69.44 191.42 69.44 C 191.34 69.71 191.19 70.24 191.11 70.51 C 192.81 69.66 194.37 70.66 195.46 72.01 C 193.72 73.16 191.95 74.30 190.03 75.12 C 191.36 75.88 192.84 76.31 194.26 76.88 C 193.80 77.44 192.88 78.55 192.42 79.11 C 196.17 80.17 190.96 82.71 191.17 85.00 C 192.00 84.18 192.79 83.31 193.53 82.40 C 195.65 84.89 192.89 86.64 191.10 88.08 C 192.34 87.88 194.83 87.48 196.07 87.27 C 194.01 90.40 194.43 95.24 190.85 97.15 L 192.61 99.16 C 191.65 99.02 189.74 98.73 188.78 98.58 C 189.73 100.19 193.04 98.15 191.82 101.21 C 192.00 100.73 192.36 99.77 192.54 99.28 C 195.37 99.16 198.19 99.41 201.02 99.60 C 197.99 99.03 194.88 98.96 191.88 98.25 C 194.52 94.43 199.25 92.59 203.77 93.72 L 203.85 93.29 C 201.59 92.70 198.95 93.02 197.12 91.38 C 199.99 91.23 202.84 91.69 205.71 91.92 C 204.07 89.48 201.10 89.71 198.79 88.47 C 199.59 88.52 201.18 88.61 201.98 88.66 C 201.51 86.53 199.32 86.28 197.81 85.30 C 198.71 85.53 200.52 86.00 201.43 86.23 C 201.22 85.43 200.81 83.83 200.61 83.03 C 202.62 83.50 204.38 84.58 206.13 85.64 C 204.74 83.81 203.06 82.22 201.20 80.89 C 200.51 80.09 199.84 79.30 199.17 78.50 C 199.96 78.62 201.55 78.85 202.35 78.97 C 202.14 78.18 201.73 76.61 201.52 75.83 C 202.04 76.39 203.09 77.51 203.61 78.07 C 203.88 77.26 204.41 75.64 204.67 74.84 C 204.51 75.83 204.20 77.83 204.04 78.82 C 205.82 77.75 206.61 76.21 206.42 74.19 L 206.76 74.20 C 206.64 75.80 206.61 77.41 206.68 79.01 C 207.20 78.51 208.23 77.50 208.75 76.99 C 208.50 78.85 209.02 80.62 210.20 82.06 C 210.89 80.01 211.28 77.33 214.14 78.28 L 214.25 80.18 C 216.42 76.34 220.00 72.56 219.43 67.83 C 218.24 69.32 218.69 71.29 218.36 73.04 C 215.33 73.59 215.14 77.60 212.33 78.18 C 212.43 77.53 212.63 76.23 212.73 75.58 L 211.06 75.35 C 212.21 74.01 213.69 72.77 214.00 70.92 C 213.03 71.41 212.30 72.14 211.80 73.11 L 211.12 72.88 L 212.06 71.02 L 210.37 71.38 C 210.36 71.16 210.34 70.73 210.33 70.52 L 211.58 70.79 C 211.40 69.57 211.62 68.41 212.24 67.33 C 212.68 66.51 213.58 64.87 214.02 64.05 C 213.16 64.26 211.45 64.66 210.59 64.86 C 212.74 61.54 216.48 59.52 218.16 55.87 C 215.01 57.21 212.53 59.62 210.47 62.29 L 209.91 61.94 C 209.49 60.42 211.78 59.12 211.78 57.35 C 212.54 56.57 213.27 55.75 213.97 54.91 C 212.26 55.68 210.91 57.01 209.48 58.18 C 209.24 57.10 209.02 56.02 208.83 54.93 L 206.23 57.07 L 206.71 54.25 C 210.76 50.29 215.43 46.96 218.85 42.39 C 218.68 43.26 218.36 44.99 218.19 45.86 C 219.17 45.52 220.16 45.20 221.16 44.90 C 219.71 47.93 216.44 49.49 213.97 51.58 L 213.47 49.95 C 213.52 50.40 213.62 51.30 213.67 51.75 C 212.18 52.39 210.77 53.17 209.45 54.10 C 209.91 54.46 210.38 54.81 210.86 55.16 C 213.49 51.79 217.29 49.69 220.86 47.47 C 221.66 47.82 223.26 48.52 224.06 48.87 C 222.82 50.19 221.10 51.21 220.58 53.05 C 219.06 53.49 218.15 54.81 217.38 56.09 C 218.84 55.09 222.76 54.73 221.04 52.11 C 221.81 51.56 223.36 50.47 224.13 49.92 C 224.77 50.15 226.04 50.62 226.68 50.85 C 226.64 50.35 226.56 49.36 226.52 48.86 C 223.29 47.28 222.53 43.50 220.19 41.03 C 221.82 41.00 223.83 39.90 225.14 41.32 C 225.92 41.00 226.71 40.68 227.50 40.36 C 228.40 40.55 229.32 40.74 230.23 40.92 L 230.21 41.79 C 232.68 41.47 235.18 41.63 237.66 41.59 L 237.69 43.20 C 238.67 42.19 239.64 41.18 240.61 40.16 C 240.66 40.47 240.75 41.10 240.80 41.42 C 239.91 44.07 237.70 45.86 236.33 48.18 C 236.58 48.52 237.08 49.20 237.33 49.54 C 237.71 46.27 240.82 44.26 242.53 41.66 C 243.37 45.34 241.16 48.57 241.32 52.16 C 240.95 48.80 244.02 47.95 245.98 46.02 L 247.10 47.61 C 247.58 47.05 248.54 45.91 249.02 45.35 L 246.19 46.03 C 247.26 44.75 249.15 43.84 248.95 41.90 C 247.61 43.06 246.34 44.33 244.91 45.38 C 243.10 47.90 241.91 42.13 244.75 43.38 C 244.65 43.18 244.46 42.79 244.36 42.59 C 247.66 42.68 248.48 38.18 251.70 37.38 C 251.91 36.91 252.32 35.96 252.53 35.48 C 253.33 35.52 254.93 35.58 255.73 35.62 C 255.67 35.09 255.54 34.02 255.48 33.49 C 255.99 33.58 257.01 33.75 257.52 33.84 C 257.48 33.26 257.41 32.09 257.38 31.51 C 257.80 31.91 258.63 32.70 259.05 33.09 C 260.05 31.21 261.72 29.89 263.31 28.55 M 251.05 41.69 C 250.72 42.63 250.40 43.56 250.10 44.51 C 251.72 44.69 253.37 44.70 254.97 44.28 C 255.12 44.69 255.42 45.52 255.57 45.93 C 255.92 45.58 256.62 44.90 256.97 44.55 C 256.88 45.22 256.72 46.57 256.63 47.24 C 257.38 47.01 258.88 46.55 259.63 46.32 C 259.65 45.90 259.68 45.06 259.70 44.64 C 258.44 44.72 257.25 44.47 256.16 43.88 C 256.00 43.51 255.67 42.76 255.51 42.39 C 254.73 43.03 253.90 43.60 253.03 44.08 C 251.84 43.91 251.70 42.44 251.05 41.69 M 216.22 47.20 C 216.79 47.84 216.79 47.84 216.22 47.20 M 249.61 49.69 C 250.70 49.39 251.94 48.67 252.43 47.58 C 251.59 44.89 249.34 48.15 249.61 49.69 M 276.50 49.09 C 273.64 53.21 268.38 53.78 264.85 57.03 C 264.40 57.22 263.49 57.61 263.04 57.81 C 266.31 57.15 269.12 55.23 271.81 53.35 C 273.06 53.43 274.31 53.52 275.57 53.62 C 275.81 52.09 276.18 50.60 276.50 49.09 M 184.38 78.17 L 183.83 79.45 L 184.91 80.42 L 185.12 81.86 C 184.36 81.74 182.85 81.51 182.10 81.39 C 182.82 81.83 183.55 82.27 184.27 82.71 C 184.64 83.18 185.36 84.12 185.72 84.60 C 186.89 83.60 188.05 82.59 189.20 81.56 L 187.27 81.95 C 188.12 79.68 185.84 79.11 184.38 78.17 M 283.38 90.53 C 281.60 91.65 283.30 94.57 280.53 95.01 C 279.94 93.15 277.92 92.85 276.37 92.20 C 277.09 93.36 277.50 94.62 277.60 95.96 C 277.66 95.48 277.78 94.51 277.83 94.02 C 280.94 94.10 278.81 98.34 280.77 100.07 C 281.03 98.16 278.96 94.67 282.73 94.92 C 282.69 95.53 282.63 96.73 282.60 97.34 C 283.10 98.37 283.31 99.53 283.23 100.81 C 283.77 100.63 284.86 100.25 285.41 100.07 C 285.27 102.62 284.86 105.71 283.21 107.73 C 283.53 107.76 284.19 107.81 284.51 107.83 C 285.54 105.91 284.66 102.42 287.45 101.99 L 287.31 104.09 C 287.63 103.61 288.27 102.64 288.59 102.16 L 290.15 102.60 C 289.49 101.03 287.64 101.60 286.34 101.38 L 287.71 99.81 C 285.80 99.22 284.48 97.24 285.55 95.36 C 284.88 95.40 283.54 95.46 282.87 95.49 C 283.71 94.76 285.39 93.28 286.23 92.54 C 285.73 92.37 284.71 92.01 284.20 91.84 C 284.25 89.03 286.07 86.83 288.04 85.04 C 285.33 85.70 285.28 88.95 283.38 90.53 M 294.80 99.73 C 294.72 101.54 293.90 102.71 292.33 103.24 C 292.39 102.55 292.50 101.17 292.56 100.48 L 291.28 100.69 L 291.33 99.05 C 289.64 99.77 290.59 100.71 291.64 101.59 C 291.46 103.09 291.30 104.59 291.17 106.10 C 291.53 104.45 292.45 103.32 293.91 102.72 C 293.22 105.02 292.48 107.35 292.87 109.78 L 291.10 109.98 C 291.99 110.31 292.91 110.44 293.87 110.36 C 293.69 111.26 293.35 113.07 293.18 113.97 C 293.88 112.64 295.23 112.45 296.59 112.40 C 296.38 111.56 295.97 109.89 295.76 109.05 L 297.10 109.39 C 296.79 107.68 297.29 106.76 298.59 106.64 C 296.43 105.63 297.82 102.81 296.73 101.01 C 296.52 103.50 296.28 106.01 296.63 108.50 L 295.24 108.54 L 295.36 109.81 L 293.04 109.96 C 293.27 106.51 294.05 103.15 295.13 99.88 C 297.90 98.69 299.67 95.87 302.14 94.12 C 299.46 95.67 297.30 97.93 294.80 99.73 M 270.76 104.16 C 269.86 104.70 268.97 105.25 268.09 105.81 C 267.74 105.38 267.05 104.52 266.71 104.09 C 266.35 104.27 265.65 104.61 265.29 104.78 C 263.83 103.97 262.22 103.54 260.58 103.28 L 260.73 104.90 C 260.16 104.65 259.01 104.15 258.44 103.89 C 258.64 105.29 258.43 106.64 257.82 107.93 C 256.11 107.78 254.41 107.67 252.70 107.59 C 254.09 108.90 255.80 109.52 257.83 109.45 L 257.89 110.67 C 256.20 110.51 254.51 110.39 252.81 110.31 C 254.45 112.05 256.97 111.33 259.07 111.48 L 258.42 112.88 C 253.89 113.73 249.58 115.36 245.48 117.45 L 246.14 119.81 C 243.77 117.17 240.99 119.45 238.52 120.30 C 238.38 119.70 238.09 118.51 237.95 117.92 C 238.15 116.72 239.89 117.67 240.69 117.26 C 237.97 116.48 235.83 114.72 233.37 113.41 C 230.85 113.21 228.47 114.58 225.94 114.70 C 228.49 114.62 231.03 114.35 233.57 114.11 C 233.62 114.53 233.72 115.37 233.77 115.79 C 233.16 116.05 231.95 116.57 231.35 116.83 C 232.46 116.65 234.69 116.30 235.81 116.12 C 237.19 117.47 237.50 119.44 238.33 121.12 C 240.12 120.81 241.96 118.37 243.80 120.05 C 242.62 121.64 240.69 122.09 238.98 122.87 C 244.59 122.49 249.40 117.49 255.07 118.62 C 257.83 115.79 260.97 118.56 264.02 118.97 C 263.84 117.05 262.23 116.26 260.61 115.72 L 262.53 115.03 C 261.49 113.97 260.39 112.97 259.35 111.91 C 259.46 111.49 259.68 110.66 259.79 110.25 C 259.63 109.96 259.31 109.38 259.15 109.09 C 259.93 108.79 260.70 108.50 261.49 108.22 C 261.44 109.80 261.35 111.41 262.93 112.31 C 262.79 112.87 262.51 113.99 262.37 114.54 L 263.91 114.57 C 267.25 117.16 270.29 120.92 274.89 121.05 C 276.22 121.83 273.42 122.34 272.93 122.83 C 267.29 127.40 261.95 132.44 257.20 137.99 C 259.22 136.53 261.19 134.92 263.71 134.44 C 263.53 133.99 263.18 133.09 263.01 132.64 C 266.32 129.66 269.32 126.27 272.95 123.65 C 274.68 123.44 277.10 123.86 276.73 121.27 C 278.33 121.20 279.90 120.91 281.42 120.39 C 281.56 120.73 281.85 121.41 281.99 121.76 C 282.34 117.64 290.94 118.65 287.47 113.89 C 286.09 115.08 284.67 116.22 283.13 117.20 C 282.58 116.53 281.48 115.21 280.93 114.54 L 283.28 114.51 C 282.65 113.12 281.54 112.70 279.97 113.27 C 280.40 113.13 281.26 112.86 281.69 112.73 C 281.78 112.37 281.96 111.67 282.04 111.32 C 283.05 112.67 284.12 113.98 285.25 115.23 C 285.59 114.32 285.91 113.41 286.23 112.50 C 285.17 111.32 284.42 109.72 282.89 109.08 C 282.74 107.84 283.02 106.25 281.77 105.48 C 282.29 104.37 282.57 103.20 282.11 102.00 L 281.56 101.33 C 278.08 102.35 273.44 99.55 271.28 103.54 C 270.51 101.24 269.40 99.06 268.31 96.90 C 267.77 99.61 269.55 101.91 270.76 104.16 M 243.60 100.86 C 244.46 100.94 246.17 101.09 247.03 101.17 C 246.52 101.52 245.49 102.21 244.98 102.56 C 247.04 102.45 249.10 102.44 251.16 102.57 C 250.84 104.45 252.15 105.66 253.36 106.85 C 255.37 104.94 253.81 101.99 254.08 99.61 C 253.39 100.53 252.86 101.53 252.49 102.63 C 251.32 102.09 250.11 101.63 248.87 101.26 C 247.41 99.98 245.28 100.21 243.60 100.86 M 300.33 106.49 C 299.43 107.16 298.77 108.63 299.25 109.72 C 300.85 110.33 302.24 106.67 300.33 106.49 M 250.27 122.56 C 248.75 122.13 247.79 122.53 247.41 123.74 C 246.69 123.66 245.26 123.49 244.55 123.41 C 244.49 123.96 244.38 125.05 244.32 125.60 C 246.51 125.74 248.70 125.48 250.70 124.53 L 250.45 123.15 C 251.01 123.32 252.14 123.67 252.70 123.84 C 252.63 123.13 252.49 121.69 252.42 120.97 C 251.70 121.49 250.98 122.02 250.27 122.56 M 289.01 129.49 C 290.47 129.56 291.26 128.91 291.37 127.54 C 289.88 127.45 289.10 128.10 289.01 129.49 M 282.87 136.07 C 284.95 135.30 286.81 134.07 288.78 133.07 C 288.55 136.45 284.40 137.00 282.09 138.74 C 283.74 138.15 285.32 137.30 287.14 137.23 C 285.33 141.04 280.62 141.88 277.98 144.99 C 280.03 144.18 281.86 142.96 283.66 141.72 C 285.52 140.94 287.22 139.80 289.13 139.11 C 289.47 138.21 290.06 137.49 290.90 136.97 C 290.67 136.48 290.23 135.52 290.01 135.03 C 292.07 132.94 293.70 130.50 295.17 127.98 C 291.02 130.57 286.53 132.83 282.87 136.07 M 286.69 142.22 C 287.81 142.56 289.78 141.50 289.73 140.27 C 288.58 139.84 286.40 140.80 286.69 142.22 M 292.16 143.11 C 289.66 145.03 287.81 147.62 285.49 149.73 C 285.40 150.29 285.22 151.40 285.14 151.95 C 286.31 150.97 287.46 149.97 288.63 148.98 L 288.26 151.22 C 289.17 150.58 290.09 149.94 291.01 149.31 C 290.87 148.56 290.72 147.81 290.56 147.06 L 291.56 148.24 C 292.09 146.53 293.48 145.35 294.52 143.98 C 294.44 144.41 294.30 145.28 294.23 145.72 L 295.05 146.98 C 295.47 146.55 296.32 145.70 296.75 145.27 C 297.26 145.63 298.28 146.35 298.79 146.71 C 298.30 146.92 297.32 147.33 296.83 147.54 L 295.34 147.33 C 296.25 149.73 292.57 150.06 291.93 151.95 C 294.34 151.02 296.45 149.47 298.49 147.91 C 298.33 149.67 298.34 151.44 298.43 153.20 C 298.75 152.57 299.41 151.31 299.74 150.68 C 301.48 153.91 305.95 152.23 308.54 151.03 C 306.80 148.79 304.26 149.32 302.27 150.87 C 302.38 150.20 302.59 148.88 302.69 148.21 C 301.95 148.22 300.46 148.23 299.72 148.24 C 299.66 147.55 299.55 146.17 299.49 145.48 C 299.59 144.69 299.79 143.11 299.89 142.32 C 298.05 142.46 296.22 142.55 294.40 142.85 L 294.95 140.40 C 294.26 141.08 292.86 142.43 292.16 143.11 M 292.63 148.48 C 293.04 148.23 293.87 147.74 294.28 147.49 C 294.66 145.08 290.89 147.31 292.63 148.48 M 282.22 150.09 C 283.68 151.11 285.27 148.68 284.73 147.36 C 283.38 146.76 281.53 148.74 282.22 150.09 M 272.95 154.23 C 270.90 156.46 268.88 158.74 266.46 160.58 C 263.57 163.11 263.58 167.61 259.90 169.43 C 258.66 168.08 258.29 166.18 259.76 164.83 C 260.77 164.16 263.85 162.71 261.83 161.45 C 259.36 161.98 259.53 165.85 257.27 166.52 C 258.10 167.48 258.44 168.71 258.87 169.88 C 256.54 171.44 253.80 172.57 252.00 174.78 C 254.20 173.73 256.55 173.21 258.99 173.24 C 260.57 171.68 261.81 171.81 262.72 173.64 C 264.92 173.57 265.77 171.43 266.98 169.96 C 266.42 170.18 265.28 170.62 264.71 170.84 C 264.35 170.72 263.64 170.50 263.29 170.38 C 263.37 170.91 263.53 171.96 263.61 172.48 C 262.70 172.18 260.88 171.58 259.97 171.29 C 260.30 169.51 261.41 168.44 263.15 168.10 C 264.95 165.06 268.67 163.92 270.21 160.72 C 268.23 161.97 267.50 164.82 264.58 164.58 C 266.32 160.31 270.64 158.07 272.95 154.23 M 311.45 153.96 C 311.47 157.31 314.44 152.40 311.45 153.96 M 257.21 156.25 C 257.80 156.83 257.80 156.83 257.21 156.25 M 203.16 159.26 C 203.81 159.79 203.81 159.79 203.16 159.26 M 299.37 168.79 C 300.84 166.72 306.03 166.30 304.16 162.96 C 302.80 165.03 299.46 166.10 299.37 168.79 M 289.92 176.74 C 293.30 174.33 297.07 172.39 299.94 169.34 C 296.24 171.08 292.23 173.24 289.92 176.74 M 211.66 177.78 C 211.54 178.39 211.31 179.62 211.19 180.23 C 212.05 179.49 212.90 178.74 213.74 177.98 C 215.26 178.97 216.54 177.98 217.60 176.87 C 216.97 176.34 216.33 175.81 215.74 175.24 C 216.32 174.67 217.49 173.55 218.08 172.99 C 215.54 173.99 213.74 176.12 211.66 177.78 M 269.56 179.55 C 268.33 180.04 267.58 180.93 267.30 182.23 C 268.56 181.79 269.81 181.31 271.04 180.79 C 270.82 181.61 270.36 183.25 270.14 184.06 C 272.66 183.56 275.34 182.76 276.35 180.07 C 275.13 180.53 272.69 181.45 271.47 181.92 C 271.36 180.30 271.28 178.68 271.52 177.07 C 270.87 177.89 270.21 178.72 269.56 179.55 M 250.36 180.29 C 250.33 181.32 250.26 183.37 250.22 184.40 C 250.80 184.07 251.95 183.41 252.53 183.08 L 251.69 186.09 C 254.79 185.49 254.98 182.53 254.68 180.21 C 253.60 180.23 251.44 180.27 250.36 180.29 M 274.03 188.97 C 274.74 189.56 274.74 189.56 274.03 188.97 Z" />
<path fill="#ffffff" opacity="1.00" d=" M 181.99 48.46 C 181.81 47.91 181.45 46.79 181.27 46.23 C 182.53 48.70 185.47 45.32 187.64 46.52 C 187.00 48.32 184.95 50.20 186.86 51.94 C 186.25 51.61 185.02 50.96 184.41 50.63 C 184.42 51.72 184.46 53.91 184.48 55.01 C 184.15 55.11 183.48 55.31 183.14 55.42 C 183.88 56.37 184.62 57.31 185.34 58.28 C 183.90 57.88 182.49 57.42 181.06 56.99 C 181.74 58.15 182.44 59.29 183.14 60.44 C 181.92 59.90 180.70 59.36 179.47 58.85 C 180.20 59.93 180.92 61.02 181.63 62.12 L 179.55 61.21 C 178.42 63.39 174.09 62.00 175.55 65.65 C 174.06 65.22 172.59 64.73 171.11 64.30 C 172.63 65.24 174.60 65.73 175.33 67.59 L 173.22 67.33 C 173.55 67.66 174.21 68.31 174.55 68.63 C 173.42 69.37 172.29 70.12 171.17 70.86 C 171.56 71.32 172.35 72.24 172.75 72.70 C 168.78 71.71 164.95 70.02 160.77 70.57 C 161.06 72.17 162.38 72.68 163.82 72.95 L 162.45 71.14 C 165.24 70.97 167.78 72.05 169.91 73.79 C 169.29 74.94 168.74 76.12 168.24 77.33 L 167.01 76.99 L 167.75 78.77 C 166.23 78.50 164.69 78.30 163.18 77.92 C 161.32 77.48 158.54 77.44 159.25 74.69 C 158.31 75.12 157.31 75.28 156.36 74.88 C 156.81 74.42 157.70 73.51 158.15 73.05 C 157.25 72.81 155.44 72.33 154.53 72.10 C 154.82 71.54 155.39 70.44 155.68 69.89 C 156.00 67.82 153.12 68.44 151.92 67.64 C 153.34 67.25 154.76 66.86 156.18 66.47 C 156.76 67.43 157.88 67.42 158.84 67.66 C 158.03 67.08 157.21 66.52 156.39 65.97 C 154.50 65.57 152.33 65.14 151.15 63.45 C 153.05 63.59 154.82 64.26 156.63 64.79 C 154.67 63.38 153.42 61.55 153.41 59.12 C 153.92 59.17 154.93 59.29 155.44 59.35 C 155.81 59.75 156.54 60.57 156.91 60.97 C 156.46 59.35 155.12 58.26 154.16 56.95 C 156.29 56.12 158.21 56.54 159.80 58.09 C 159.37 57.47 158.51 56.22 158.07 55.60 C 159.62 55.61 161.05 55.21 162.36 54.39 C 162.61 54.85 163.10 55.78 163.35 56.24 L 163.17 54.22 C 164.83 54.39 166.49 54.45 168.16 54.55 C 169.74 52.68 171.79 53.31 173.73 54.56 C 173.28 53.61 172.38 51.70 171.93 50.75 C 173.34 51.26 174.65 51.97 175.86 52.89 C 175.82 51.75 175.80 50.60 175.80 49.46 C 177.94 49.84 179.95 48.95 181.99 48.46 Z" />
<path fill="#ffffff" opacity="1.00" d=" M 203.65 54.18 C 204.08 52.83 204.95 52.10 206.24 51.98 C 206.75 53.05 204.21 55.79 203.65 54.18 Z" />
<path fill="#ffffff" opacity="1.00" d=" M 207.29 65.03 C 206.93 63.73 208.57 61.73 209.91 61.94 C 210.19 63.26 208.72 65.32 207.29 65.03 Z" />
<path fill="#ffffff" opacity="1.00" d=" M 274.49 105.96 L 275.14 105.98 L 275.11 106.63 L 274.46 106.61 L 274.49 105.96 Z" />
<path fill="#ffffff" opacity="1.00" d=" M 264.32 111.91 C 264.20 109.67 264.65 107.53 266.38 105.94 C 267.17 107.45 267.93 108.97 268.69 110.49 C 270.34 110.46 272.23 110.13 272.84 112.12 C 271.82 110.21 272.63 108.41 273.90 106.88 C 277.40 108.86 274.45 113.84 271.98 115.51 C 270.10 117.22 267.93 116.02 266.16 114.91 C 265.56 113.90 264.95 112.90 264.32 111.91 Z" />
<path fill="#ffffff" opacity="1.00" d=" M 245.60 117.76 C 249.78 115.38 254.45 113.93 259.22 113.39 L 258.37 114.91 C 254.54 116.48 250.52 117.60 246.97 119.78 C 246.50 119.11 246.04 118.44 245.60 117.76 Z" />
<path fill="#ffffff" opacity="1.00" d=" M 275.31 116.43 C 276.24 116.39 276.32 117.79 276.85 118.38 C 275.46 118.67 274.05 118.86 272.64 118.97 C 273.44 118.03 274.32 117.16 275.31 116.43 Z" />
<path fill="#ffffff" opacity="1.00" d=" M 243.37 119.05 C 244.63 118.75 245.18 119.19 245.00 120.39 L 243.80 120.05 L 243.37 119.05 Z" />
<path fill="#ffffff" opacity="1.00" d=" M 299.41 148.65 C 299.49 148.54 299.64 148.34 299.72 148.24 C 299.64 148.34 299.49 148.54 299.41 148.65 Z" />
<path fill="#ffffff" opacity="1.00" d=" M 196.05 167.03 C 195.93 165.71 197.81 164.66 198.97 165.07 L 198.97 165.63 C 198.26 166.84 197.29 167.31 196.05 167.03 Z" />
<path fill="#ffffff" opacity="1.00" d=" M 328.34 171.21 C 328.67 169.26 327.95 163.75 331.31 165.72 C 330.55 167.66 329.88 169.72 328.34 171.21 Z" />
<path fill="#ffffff" opacity="1.00" d=" M 193.85 168.74 C 193.80 167.44 194.53 166.87 196.05 167.03 L 196.19 167.61 C 195.60 167.89 194.44 168.46 193.85 168.74 Z" />
<path fill="#ffffff" opacity="1.00" d=" M 209.30 174.31 L 210.23 174.18 L 210.62 174.81 C 210.25 175.02 209.49 175.44 209.12 175.64 L 208.73 175.01 L 209.30 174.31 Z" />
<path fill="#ffffff" opacity="1.00" d=" M 191.18 188.10 C 195.54 183.59 199.90 178.98 204.87 175.12 C 202.09 180.10 197.94 184.20 194.06 188.32 C 193.34 188.27 191.90 188.16 191.18 188.10 Z" />
<path fill="#ffffff" opacity="1.00" d=" M 323.52 180.71 C 325.33 179.42 327.16 178.16 329.00 176.91 C 328.54 178.16 328.00 179.39 327.47 180.62 C 325.61 182.74 322.73 184.25 322.24 187.26 C 321.20 187.90 320.70 189.01 320.12 190.02 C 317.67 190.98 315.75 192.90 313.29 193.78 C 313.75 191.94 314.89 190.43 316.48 189.42 C 318.84 186.53 320.74 183.24 323.52 180.71 Z" />
<path fill="#ffffff" opacity="1.00" d=" M 190.07 186.08 C 191.12 182.84 194.52 180.97 197.11 178.99 C 196.02 182.21 192.77 184.23 190.07 186.08 Z" />
<path fill="#ffffff" opacity="1.00" d=" M 310.34 193.85 C 310.97 194.44 311.60 195.03 312.24 195.62 C 311.92 196.14 311.26 197.17 310.94 197.68 L 312.80 197.37 L 312.50 200.03 C 311.40 199.41 307.52 196.89 310.47 196.01 C 310.44 195.47 310.37 194.39 310.34 193.85 Z" />
<path fill="#ffffff" opacity="1.00" d=" M 306.93 197.84 C 308.91 199.13 310.64 200.85 313.26 200.33 C 313.88 202.55 314.66 204.72 315.69 206.79 C 315.22 206.27 314.27 205.23 313.79 204.71 C 310.32 204.42 307.95 200.90 306.93 197.84 Z" />
<path fill="#ffffff" opacity="1.00" d=" M 259.61 205.90 C 262.23 203.33 264.72 200.53 267.70 198.40 L 268.95 198.91 C 268.75 201.93 265.53 203.59 263.73 205.72 C 262.35 205.77 260.98 205.83 259.61 205.90 Z" />
<path fill="#ffffff" opacity="1.00" d=" M 284.64 199.16 C 284.62 200.25 284.58 201.35 284.54 202.44 C 286.75 202.00 287.63 202.85 287.19 204.97 C 288.60 203.90 290.07 202.89 291.57 201.93 L 291.10 203.59 C 293.64 202.49 293.29 205.86 293.55 207.08 C 294.33 206.64 295.89 205.74 296.67 205.29 C 296.97 206.95 296.55 208.43 295.41 209.71 C 295.75 210.31 296.09 210.92 296.42 211.53 C 296.16 209.39 297.78 208.62 299.47 209.69 C 298.32 208.09 295.77 205.83 298.06 204.02 C 300.14 202.47 301.76 205.11 303.49 205.88 C 304.28 205.11 304.21 202.98 305.70 203.23 C 306.91 205.02 308.39 206.60 310.23 207.78 C 309.80 205.23 306.72 204.46 306.51 201.86 L 306.44 200.57 C 309.69 204.37 313.57 207.55 317.16 211.01 C 314.49 209.94 312.14 208.27 309.86 206.56 C 310.24 207.68 311.00 209.92 311.38 211.04 C 309.98 210.19 309.16 208.73 307.88 207.75 C 309.17 210.44 311.65 213.11 309.58 216.12 C 308.97 214.87 308.73 213.16 307.08 212.91 C 307.39 214.54 307.91 216.11 308.60 217.63 L 306.77 217.52 C 306.39 216.10 305.98 214.67 305.23 213.40 C 306.11 216.26 305.08 218.97 304.77 221.79 C 304.18 221.06 302.99 219.60 302.39 218.87 C 302.51 219.94 302.74 222.08 302.86 223.15 C 302.48 222.78 301.73 222.03 301.36 221.66 C 299.26 221.30 297.04 221.10 295.59 223.07 C 295.44 222.11 295.14 220.18 294.99 219.22 C 294.87 220.07 294.64 221.77 294.52 222.62 C 293.24 222.43 291.80 222.88 290.61 222.32 C 290.58 221.66 290.52 220.34 290.49 219.68 C 289.13 220.72 290.23 223.68 287.58 223.05 C 287.62 222.50 287.69 221.39 287.72 220.84 C 287.06 222.00 286.40 223.16 285.75 224.32 C 285.54 223.25 285.12 221.11 284.91 220.04 C 283.99 221.03 283.15 222.08 282.29 223.12 C 282.30 222.50 282.32 221.24 282.32 220.61 C 282.84 220.33 283.88 219.76 284.40 219.47 C 283.86 219.47 282.78 219.46 282.23 219.46 C 282.24 218.56 282.24 216.76 282.24 215.86 C 280.06 216.23 280.81 220.91 278.15 219.45 C 280.13 216.23 281.43 212.63 282.66 209.07 C 280.09 211.49 279.78 215.53 277.33 217.88 C 276.77 216.43 277.26 214.92 277.43 213.46 C 276.65 213.54 275.09 213.70 274.31 213.78 C 274.37 212.14 274.44 210.51 274.52 208.88 C 273.14 210.36 271.69 211.78 270.41 213.36 L 272.09 214.11 C 270.65 214.42 269.37 215.16 268.08 215.82 C 268.77 215.25 269.48 214.70 270.21 214.16 C 270.34 213.18 270.62 211.20 270.75 210.21 L 268.39 212.65 C 268.39 212.23 268.41 211.40 268.42 210.98 C 267.64 211.16 266.08 211.52 265.30 211.71 C 265.37 211.03 265.50 209.67 265.57 208.99 C 265.08 209.43 264.11 210.30 263.62 210.73 L 263.31 210.70 C 263.50 210.02 263.87 208.67 264.06 207.99 C 263.24 208.45 261.60 209.37 260.78 209.83 C 262.12 208.10 264.64 207.82 265.78 205.87 C 267.34 203.76 269.17 201.88 271.01 200.00 C 271.65 200.17 272.94 200.50 273.58 200.67 L 273.02 201.68 C 275.30 202.50 277.61 203.25 279.97 203.84 C 280.66 202.83 281.13 201.53 282.59 201.52 C 283.27 200.73 283.95 199.94 284.64 199.16 Z" />
<path fill="#ffffff" opacity="1.00" d=" M 294.23 200.73 C 295.69 200.74 297.90 199.68 298.25 201.84 C 297.01 204.16 294.92 202.45 294.23 200.73 Z" />
<path fill="#ffffff" opacity="1.00" d=" M 231.95 213.12 C 231.56 211.11 231.60 209.05 231.38 207.03 C 232.91 210.38 236.76 212.98 235.80 217.09 C 235.07 219.20 236.20 220.94 236.78 222.89 C 234.69 221.39 233.16 219.33 231.89 217.13 C 232.74 218.28 233.72 218.53 234.86 217.88 C 234.72 215.92 232.43 214.98 231.95 213.12 Z" />
<path fill="#ffffff" opacity="1.00" d=" M 318.16 212.25 C 318.83 212.77 318.83 212.77 318.16 212.25 Z" />
</g>
</svg>
