<?xml version="1.0" encoding="UTF-8" ?>
<!DOCTYPE svg PUBLIC "-//W3C//DTD SVG 1.1//EN" "http://www.w3.org/Graphics/SVG/1.1/DTD/svg11.dtd">
<svg width="512pt" height="256pt" viewBox="0 0 512 256" version="1.1" xmlns="http://www.w3.org/2000/svg">
<g id="#ffffffff">
<path fill="#ffffff" opacity="1.00" d=" M 326.45 23.97 C 326.55 24.77 326.77 26.39 326.88 27.20 C 327.28 26.74 328.10 25.82 328.50 25.37 L 329.03 25.46 C 328.54 26.11 327.57 27.40 327.08 28.05 C 327.68 28.50 328.29 28.95 328.90 29.40 C 329.88 27.38 332.12 26.48 333.92 25.33 C 333.27 26.46 332.35 27.48 332.11 28.81 L 331.39 27.86 C 330.33 29.56 329.11 31.15 327.75 32.62 C 327.19 31.78 326.61 30.97 326.00 30.17 L 326.00 32.05 C 325.16 32.39 323.49 33.06 322.66 33.40 C 322.40 31.86 322.20 30.30 322.06 28.74 C 322.83 29.11 323.60 29.48 324.37 29.86 C 324.95 27.86 325.74 25.93 326.45 23.97 Z" />
<path fill="#ffffff" opacity="1.00" d=" M 213.85 26.44 C 214.38 26.07 215.43 25.32 215.96 24.95 C 217.39 26.95 219.08 28.72 220.87 30.39 C 219.84 30.73 218.90 30.54 218.05 29.81 C 217.46 30.16 216.88 30.52 216.30 30.89 L 218.07 32.22 C 214.87 32.04 212.54 30.21 212.11 26.92 C 212.89 27.44 214.46 28.49 215.24 29.01 C 215.92 29.19 217.26 29.55 217.94 29.73 C 217.26 28.91 215.91 27.26 215.23 26.43 C 214.89 26.44 214.20 26.44 213.85 26.44 Z" />
<path fill="#ffffff" opacity="1.00" d=" M 219.35 25.34 C 220.49 25.66 221.65 25.76 222.83 25.64 C 223.07 25.99 223.56 26.68 223.80 27.03 C 223.64 28.58 223.49 30.14 223.34 31.70 C 223.10 31.53 222.62 31.21 222.38 31.04 C 221.98 28.86 220.98 26.86 219.35 25.34 Z" />
<path fill="#ffffff" opacity="1.00" d=" M 332.11 28.81 C 332.62 28.61 333.62 28.21 334.12 28.01 C 333.17 29.37 330.97 30.49 332.43 32.33 C 331.70 32.54 330.24 32.97 329.52 33.18 C 329.97 31.53 330.71 29.87 332.11 28.81 Z" />
<path fill="#ffffff" opacity="1.00" d=" M 317.40 29.13 C 317.69 29.15 318.28 29.19 318.58 29.21 C 317.69 31.87 321.74 32.30 320.87 34.96 C 320.57 35.46 319.97 36.46 319.67 36.96 C 318.77 35.95 317.98 34.85 317.28 33.71 C 317.82 32.22 317.62 30.66 317.40 29.13 Z" />
<path fill="#ffffff" opacity="1.00" d=" M 228.44 30.50 C 229.57 30.38 230.71 30.26 231.85 30.13 C 231.32 31.26 230.80 32.40 230.31 33.55 C 229.65 33.27 228.99 33.00 228.34 32.72 C 228.37 32.17 228.41 31.05 228.44 30.50 Z" />
<path fill="#ffffff" opacity="1.00" d=" M 206.66 37.20 C 208.60 35.34 210.50 33.28 213.13 32.42 C 213.49 32.82 214.19 33.62 214.55 34.03 C 213.45 34.54 212.36 35.04 211.27 35.55 L 211.76 36.69 C 211.39 36.73 210.64 36.82 210.27 36.86 L 211.24 41.28 C 210.54 38.60 209.01 37.24 206.66 37.20 Z" />
<path fill="#ffffff" opacity="1.00" d=" M 313.38 32.29 C 316.11 33.36 317.51 36.58 318.21 39.23 C 317.70 38.93 316.67 38.32 316.15 38.02 C 315.46 36.00 314.35 34.17 313.38 32.29 Z" />
<path fill="#ffffff" opacity="1.00" d=" M 237.47 34.45 C 238.97 34.33 240.47 34.60 241.97 34.67 C 240.44 35.73 239.40 37.14 238.86 38.89 C 239.88 38.55 241.91 37.87 242.93 37.53 C 241.53 38.75 240.03 40.88 237.93 40.19 C 237.84 39.51 237.66 38.15 237.57 37.47 L 236.18 37.80 C 236.68 36.75 236.30 35.09 237.47 34.45 Z" />
<path fill="#ffffff" opacity="1.00" d=" M 310.17 35.21 C 310.80 35.82 310.80 35.82 310.17 35.21 Z" />
<path fill="#ffffff" opacity="1.00" d=" M 313.00 35.59 C 312.20 35.28 312.20 35.28 313.00 35.59 Z" />
<path fill="#ffffff" opacity="1.00" d=" M 313.00 35.59 C 314.14 37.37 315.51 39.07 316.11 41.13 C 315.37 40.92 313.89 40.50 313.16 40.29 C 316.15 42.01 313.32 43.14 312.32 44.31 C 311.28 44.85 310.26 45.41 309.24 45.96 C 308.73 42.67 306.76 40.06 305.19 37.24 C 307.10 38.23 308.30 40.08 309.42 41.84 L 310.83 41.05 C 310.67 41.84 310.37 43.40 310.22 44.18 C 311.14 42.87 311.63 41.35 311.92 39.79 C 312.73 38.54 314.34 37.31 313.00 35.59 Z" />
<path fill="#ffffff" opacity="1.00" d=" M 243.54 41.17 C 246.07 41.43 241.94 44.60 242.11 42.28 C 242.46 42.01 243.18 41.45 243.54 41.17 Z" />
<path fill="#ffffff" opacity="1.00" d=" M 302.52 41.44 C 305.06 43.16 307.85 44.99 308.81 48.11 C 306.09 46.58 303.90 44.23 302.52 41.44 Z" />
<path fill="#ffffff" opacity="1.00" d=" M 243.26 44.17 C 245.02 45.09 246.07 43.62 247.12 42.43 L 246.64 45.07 C 247.75 44.91 248.86 44.74 249.98 44.61 C 249.14 44.78 247.47 45.11 246.63 45.28 C 247.16 46.35 248.22 48.51 248.74 49.58 L 247.40 49.33 C 247.02 49.65 246.27 50.29 245.89 50.61 C 246.66 50.56 248.21 50.46 248.99 50.40 C 247.90 51.27 246.82 52.15 245.75 53.03 C 245.43 52.29 244.77 50.82 244.45 50.08 C 244.80 48.53 245.78 47.48 247.39 46.95 C 246.98 46.54 246.57 46.13 246.17 45.73 C 245.62 46.32 244.52 47.49 243.97 48.08 C 243.46 47.25 242.86 46.51 242.16 45.85 C 242.43 45.43 242.99 44.59 243.26 44.17 Z" />
<path fill="#ffffff" opacity="1.00" d=" M 297.14 45.08 C 300.65 46.08 304.20 49.31 303.97 53.15 C 303.61 52.70 302.87 51.82 302.51 51.37 C 301.74 50.22 301.10 49.00 300.36 47.84 C 299.01 47.28 297.15 46.91 297.14 45.08 Z" />
<path fill="#ffffff" opacity="1.00" d=" M 329.16 46.18 C 332.55 47.16 332.84 50.69 333.50 53.61 C 333.00 53.66 331.99 53.78 331.49 53.83 C 331.79 54.39 332.40 55.51 332.71 56.07 C 331.55 55.61 330.81 54.62 330.03 53.72 C 330.89 53.19 331.76 52.65 332.62 52.09 C 331.83 51.62 330.24 50.70 329.45 50.23 C 332.04 49.25 329.91 47.62 329.16 46.18 Z" />
<path fill="#ffffff" opacity="1.00" d=" M 294.21 47.06 C 295.77 47.85 297.12 48.97 298.46 50.09 C 298.76 49.90 299.35 49.52 299.65 49.33 C 300.14 50.34 300.66 51.33 301.21 52.31 L 302.51 51.37 C 302.15 51.99 302.57 55.25 301.03 54.06 C 299.96 53.07 299.23 51.79 298.39 50.63 C 296.46 50.33 294.08 49.41 294.21 47.06 Z" />
<path fill="#ffffff" opacity="1.00" d=" M 305.07 47.79 C 305.26 47.56 305.66 47.11 305.86 46.88 C 307.83 47.61 306.19 50.19 304.89 50.61 C 303.45 50.07 304.43 48.54 305.07 47.79 Z" />
<path fill="#ffffff" opacity="1.00" d=" M 291.03 50.39 C 292.55 50.79 294.05 51.23 295.59 51.59 C 297.19 53.06 298.68 54.67 299.76 56.58 C 297.77 57.21 296.87 55.07 296.29 53.60 L 295.35 53.66 L 295.46 52.62 C 293.73 52.68 291.64 52.24 291.03 50.39 Z" />
<path fill="#ffffff" opacity="1.00" d=" M 286.10 53.37 C 286.50 53.53 287.30 53.85 287.71 54.01 C 288.02 54.48 288.65 55.41 288.97 55.88 C 289.89 56.53 290.56 57.37 291.00 58.40 C 292.55 59.22 293.55 57.82 294.66 57.12 C 294.00 56.60 292.69 55.55 292.03 55.03 C 294.01 55.34 295.32 56.94 296.84 58.09 C 295.98 58.72 295.12 59.37 294.30 60.03 L 295.97 60.46 C 295.72 61.11 295.21 62.43 294.95 63.08 C 295.54 64.08 295.79 65.15 295.69 66.29 C 297.53 67.18 296.25 68.61 294.86 68.97 C 293.28 71.74 289.69 70.61 287.73 68.90 C 289.34 68.40 290.97 67.89 292.52 67.18 C 290.19 67.07 287.99 67.81 285.90 68.76 C 286.37 68.25 287.32 67.25 287.80 66.75 L 287.82 66.43 C 286.65 66.56 285.63 66.28 284.75 65.57 C 286.53 65.39 288.33 65.27 290.13 65.14 C 289.59 64.43 288.53 63.01 288.00 62.30 C 289.38 62.16 290.87 62.25 292.21 61.72 C 290.21 58.93 286.58 57.04 286.10 53.37 Z" />
<path fill="#ffffff" opacity="1.00" d=" M 203.68 56.71 C 204.47 55.90 205.20 55.04 205.92 54.16 C 206.59 54.80 207.26 55.44 207.93 56.08 C 207.09 56.71 206.25 57.35 205.47 58.05 C 206.96 58.79 207.91 59.95 208.30 61.53 C 205.21 61.24 204.90 57.27 205.99 55.05 L 203.68 56.71 Z" />
<path fill="#ffffff" opacity="1.00" d=" M 328.18 55.50 C 328.27 55.13 328.46 54.40 328.56 54.04 C 329.51 55.53 331.21 56.99 330.66 58.95 C 329.42 58.13 328.83 56.77 328.18 55.50 Z" />
<path fill="#ffffff" opacity="1.00" d=" M 247.17 55.73 C 247.77 54.45 248.46 54.47 249.24 55.79 C 248.60 57.02 247.91 57.00 247.17 55.73 Z" />
<path fill="#ffffff" opacity="1.00" d=" M 280.23 57.29 C 280.54 57.37 281.14 57.55 281.44 57.64 C 282.47 59.11 283.65 60.48 284.97 61.70 C 284.00 63.04 282.35 62.28 281.02 62.18 C 281.17 62.86 281.48 64.21 281.64 64.89 C 280.32 63.25 279.63 61.25 278.88 59.32 C 280.09 60.11 281.42 60.52 282.86 60.53 C 282.00 59.43 281.12 58.35 280.23 57.29 Z" />
<path fill="#ffffff" opacity="1.00" d=" M 248.00 58.70 C 249.36 57.62 250.82 58.28 250.58 60.12 C 252.89 60.06 254.17 61.95 254.93 63.85 C 255.43 64.12 256.42 64.65 256.92 64.91 C 256.54 66.11 256.50 67.32 256.79 68.54 C 256.12 68.47 254.78 68.32 254.12 68.24 C 255.04 70.32 257.38 71.15 258.96 72.66 C 258.16 72.92 256.57 73.43 255.77 73.69 C 257.25 76.40 260.76 74.24 261.96 77.17 C 261.48 75.10 260.78 73.08 260.12 71.06 C 262.43 73.84 265.18 76.47 265.71 80.26 C 264.97 79.72 263.49 78.65 262.75 78.12 C 263.29 79.54 263.97 80.91 265.78 80.42 C 265.55 81.99 265.36 83.56 265.25 85.15 C 265.81 83.51 266.52 81.91 268.25 81.25 C 268.61 80.69 269.34 79.57 269.70 79.02 C 268.81 77.59 266.75 76.43 267.48 74.43 C 264.96 75.36 265.63 72.99 265.57 71.47 C 263.54 72.27 262.77 70.92 262.34 69.23 C 263.52 70.35 264.96 70.88 266.60 70.76 C 266.45 71.24 266.15 72.20 266.00 72.69 C 267.61 72.04 268.50 72.66 268.65 74.54 L 269.55 74.50 C 269.48 75.00 269.35 75.99 269.28 76.49 L 270.88 76.19 C 270.32 80.43 268.92 84.49 268.17 88.70 C 268.76 88.70 269.94 88.70 270.53 88.70 C 271.46 87.77 272.40 86.84 273.35 85.92 C 273.15 87.62 273.19 89.33 273.79 90.94 C 273.22 91.12 272.08 91.46 271.51 91.63 C 271.22 94.26 269.67 96.49 268.87 98.96 C 268.00 100.77 267.88 103.11 266.08 104.30 C 266.50 99.56 267.02 94.53 264.79 90.13 C 264.88 89.34 265.07 87.76 265.17 86.97 C 262.52 84.22 262.74 79.76 259.53 77.42 C 260.21 81.34 262.99 84.40 264.09 88.15 C 263.74 88.61 263.04 89.54 262.69 90.00 C 262.07 87.60 261.80 84.05 258.78 83.52 L 260.47 85.86 C 259.43 85.88 258.40 85.91 257.37 85.95 L 259.12 85.21 C 257.62 83.61 256.36 81.69 254.38 80.63 C 254.40 80.13 254.45 79.14 254.48 78.65 C 251.11 75.89 248.36 72.45 245.73 69.01 C 245.75 68.40 245.77 67.20 245.78 66.59 C 244.25 66.12 243.14 66.43 242.42 67.51 C 241.64 67.05 240.87 66.59 240.10 66.12 C 240.75 65.55 241.51 65.33 242.37 65.46 C 242.80 64.58 243.55 64.08 244.59 63.95 C 245.49 64.48 246.40 65.01 247.31 65.52 C 247.27 66.21 247.18 67.59 247.13 68.28 C 248.76 69.33 250.39 68.60 251.73 67.56 C 251.46 64.42 251.11 60.38 248.00 58.70 M 250.51 71.18 L 252.16 71.19 L 251.42 73.08 C 255.18 74.11 256.49 78.02 259.37 80.15 C 258.33 77.47 256.13 75.38 255.34 72.61 C 254.05 71.75 252.88 70.72 251.95 69.47 C 251.46 70.04 250.98 70.61 250.51 71.18 M 249.24 71.29 C 249.86 71.83 249.86 71.83 249.24 71.29 Z" />
<path fill="#ffffff" opacity="1.00" d=" M 262.92 60.12 C 263.97 60.01 264.75 62.32 264.29 63.28 C 263.98 63.21 263.37 63.08 263.07 63.02 C 263.03 62.29 262.96 60.84 262.92 60.12 Z" />
<path fill="#ffffff" opacity="1.00" d=" M 271.88 59.83 C 272.02 60.71 272.15 61.59 272.26 62.48 C 273.13 62.65 274.87 63.00 275.74 63.18 C 275.62 62.65 275.38 61.59 275.26 61.06 C 276.10 61.45 276.96 61.84 277.81 62.23 C 278.05 62.73 278.52 63.73 278.76 64.23 C 278.00 63.69 276.48 62.60 275.71 62.05 C 275.94 62.97 276.40 64.81 276.63 65.73 C 275.82 64.42 274.47 65.40 273.38 65.48 C 273.37 64.83 273.35 63.53 273.35 62.88 C 271.32 63.44 272.59 66.26 270.63 66.93 C 270.75 64.52 271.49 62.20 271.88 59.83 Z" />
<path fill="#ffffff" opacity="1.00" d=" M 326.17 59.97 C 327.96 61.57 328.91 63.85 328.95 66.24 C 327.25 64.57 326.90 62.13 326.17 59.97 Z" />
<path fill="#ffffff" opacity="1.00" d=" M 205.46 62.31 C 205.78 62.25 206.40 62.11 206.71 62.05 L 206.23 63.64 C 206.63 63.67 207.41 63.74 207.80 63.77 C 207.74 65.54 207.79 67.32 207.78 69.10 C 206.51 67.03 205.63 64.75 205.46 62.31 Z" />
<path fill="#ffffff" opacity="1.00" d=" M 321.27 65.55 C 322.49 65.38 323.72 65.54 324.96 65.50 C 326.33 68.08 327.32 70.87 327.42 73.82 C 327.05 73.77 326.31 73.67 325.94 73.61 C 325.03 70.59 323.28 67.95 321.27 65.55 Z" />
<path fill="#ffffff" opacity="1.00" d=" M 319.92 71.98 C 318.36 70.30 320.04 68.58 320.73 66.96 C 321.13 67.68 321.92 69.11 322.31 69.83 L 323.75 69.86 C 322.96 70.59 322.08 71.20 321.12 71.68 C 321.84 72.43 322.80 73.03 323.26 74.00 C 322.27 76.53 320.38 73.17 319.92 71.98 Z" />
<path fill="#ffffff" opacity="1.00" d=" M 208.41 71.42 C 209.80 69.09 212.50 69.37 214.81 69.04 L 214.38 70.85 C 215.43 70.50 217.53 69.80 218.58 69.46 C 217.15 71.59 215.07 72.84 212.83 73.84 C 215.29 73.69 217.61 72.81 219.89 71.94 C 218.76 73.09 217.81 74.37 217.05 75.78 C 218.74 74.72 220.39 73.63 222.18 72.72 C 221.38 74.95 219.41 76.41 217.97 78.20 C 219.40 78.46 220.30 79.32 220.68 80.79 C 219.26 81.51 218.91 82.70 219.63 84.35 C 218.73 84.97 217.82 85.59 216.91 86.19 C 215.45 86.47 213.91 87.75 212.45 86.87 C 212.44 85.98 212.42 84.20 212.40 83.31 C 211.44 83.29 209.52 83.26 208.56 83.25 C 209.56 83.00 211.56 82.51 212.56 82.26 C 212.89 80.86 212.61 77.81 210.44 78.32 C 210.36 78.10 210.21 77.66 210.13 77.44 C 210.67 77.20 211.74 76.73 212.27 76.49 C 211.51 76.47 209.99 76.42 209.24 76.40 C 209.55 75.62 210.19 74.08 210.50 73.31 L 212.73 73.78 C 212.20 73.51 211.13 72.99 210.60 72.72 C 210.56 72.42 210.47 71.81 210.43 71.51 L 208.41 71.42 Z" />
<path fill="#ffffff" opacity="1.00" d=" M 244.53 70.28 C 245.79 71.40 247.02 72.54 248.23 73.73 C 245.92 73.91 243.89 73.15 242.17 71.69 C 242.76 71.34 243.94 70.63 244.53 70.28 Z" />
<path fill="#ffffff" opacity="1.00" d=" M 281.58 71.83 C 282.03 70.14 283.39 70.32 284.60 70.99 C 286.02 71.20 287.44 71.44 288.86 71.70 C 288.79 72.15 288.65 73.05 288.58 73.50 C 290.09 73.11 291.78 71.96 293.19 73.26 C 290.31 74.27 287.93 76.37 284.87 76.95 C 285.19 77.51 285.51 78.07 285.83 78.63 C 287.50 76.11 291.00 76.16 293.71 75.62 L 293.50 74.36 C 294.01 74.40 295.03 74.50 295.54 74.54 C 295.52 75.03 295.48 75.99 295.46 76.47 C 292.33 75.18 291.13 78.69 290.13 80.95 C 289.14 84.05 286.46 86.09 284.29 88.35 C 284.81 87.39 285.84 85.48 286.36 84.52 L 282.83 86.62 C 284.00 84.26 285.95 82.44 287.76 80.57 L 284.82 82.02 C 284.78 81.40 284.69 80.15 284.65 79.53 C 283.28 79.48 282.65 77.88 282.56 76.73 C 283.55 75.82 284.54 74.91 285.25 73.75 C 285.60 74.03 286.31 74.58 286.67 74.86 C 286.68 74.50 286.71 73.78 286.72 73.43 C 284.89 73.33 282.19 74.41 281.58 71.83 Z" />
<path fill="#ffffff" opacity="1.00" d=" M 206.59 71.72 C 207.62 73.60 207.54 75.80 207.89 77.86 C 205.61 76.65 206.70 73.74 206.59 71.72 Z" />
<path fill="#ffffff" opacity="1.00" d=" M 323.33 72.02 C 323.67 72.39 323.67 72.39 323.33 72.02 Z" />
<path fill="#ffffff" opacity="1.00" d=" M 314.34 74.07 C 314.84 73.86 315.83 73.42 316.32 73.20 C 317.33 74.39 318.48 75.44 319.71 76.39 L 317.98 77.18 C 318.93 79.46 320.06 81.67 320.98 83.97 C 321.51 83.32 322.05 82.67 322.60 82.02 C 321.43 80.44 320.36 78.75 319.78 76.86 C 321.34 77.73 322.91 78.85 323.23 80.80 C 323.52 80.18 323.82 79.55 324.11 78.92 C 323.62 77.98 322.65 76.09 322.16 75.15 C 322.78 75.21 324.02 75.34 324.64 75.41 L 325.18 75.03 C 326.37 74.87 327.06 75.49 327.26 76.91 C 326.57 76.70 325.19 76.27 324.50 76.05 C 324.99 77.44 325.48 78.83 325.99 80.22 C 325.30 80.49 324.61 80.77 323.92 81.04 C 325.64 83.51 320.06 85.86 323.92 87.55 C 323.25 87.51 321.92 87.44 321.25 87.40 C 321.34 88.01 321.52 89.24 321.61 89.85 C 320.99 89.77 319.75 89.61 319.13 89.52 L 320.53 91.71 C 319.43 92.52 318.32 93.32 317.20 94.09 C 316.33 92.89 315.03 92.24 313.73 91.62 L 313.44 93.51 C 313.15 92.85 312.57 91.53 312.29 90.87 C 314.33 90.79 315.04 88.44 316.52 87.38 C 314.86 89.37 316.47 91.20 317.74 92.57 C 318.89 91.61 319.03 90.67 318.16 89.73 C 319.08 89.18 319.96 88.55 320.66 87.71 L 319.09 87.58 C 317.91 83.59 312.53 83.28 311.26 79.24 C 312.34 79.92 313.52 80.63 314.85 80.30 C 316.35 82.21 318.07 83.95 320.24 85.12 C 318.35 82.06 315.68 79.57 313.76 76.53 L 316.10 76.64 C 315.51 75.78 314.93 74.92 314.34 74.07 Z" />
<path fill="#ffffff" opacity="1.00" d=" M 242.09 74.35 C 244.05 74.94 245.56 76.33 247.82 75.43 L 247.11 76.60 C 248.49 77.36 249.84 78.17 251.06 79.18 C 250.75 79.44 250.14 79.96 249.84 80.22 C 250.42 80.77 251.00 81.33 251.60 81.87 C 251.72 81.44 251.95 80.59 252.07 80.17 C 255.21 80.31 257.42 84.97 256.06 87.68 C 256.60 88.17 257.67 89.16 258.21 89.65 C 258.36 88.86 258.66 87.28 258.81 86.49 C 259.26 86.57 260.17 86.73 260.62 86.81 C 261.00 87.92 261.38 89.03 261.75 90.15 C 264.67 91.40 264.30 95.48 265.19 98.12 C 264.75 98.19 263.86 98.34 263.41 98.42 C 264.36 100.31 265.05 102.31 265.79 104.29 C 264.63 106.78 265.70 109.55 265.58 112.18 L 267.06 112.18 C 265.12 114.41 263.93 117.39 261.29 118.91 C 261.75 116.34 263.18 114.15 264.61 112.02 C 263.84 110.63 263.07 109.26 262.13 107.98 C 262.33 108.95 262.71 110.88 262.91 111.85 C 260.30 111.07 257.45 111.63 255.09 109.94 C 255.88 109.28 256.68 108.62 257.48 107.97 C 257.30 107.56 256.93 106.74 256.74 106.32 C 256.30 106.69 255.41 107.42 254.96 107.78 C 254.12 106.84 252.65 105.78 253.54 104.39 C 250.11 101.67 246.73 98.72 242.75 96.85 C 245.11 99.44 248.64 100.58 251.07 103.11 C 252.17 103.91 251.79 105.10 250.80 105.78 L 253.19 106.76 L 252.71 107.36 L 252.28 107.91 L 250.76 106.60 L 248.61 106.03 C 249.03 105.38 250.36 104.46 249.31 103.72 C 248.00 102.57 246.38 104.73 245.01 104.83 C 249.02 106.19 252.09 109.32 255.82 111.25 C 254.31 112.72 252.21 112.12 250.41 111.72 C 249.71 111.58 248.31 111.30 247.61 111.16 C 247.48 111.56 247.21 112.37 247.08 112.77 C 243.43 112.95 239.79 112.35 236.14 112.61 C 236.44 113.41 237.02 115.02 237.32 115.82 C 237.89 115.72 239.04 115.52 239.62 115.42 C 240.50 117.57 237.68 116.86 236.49 116.67 C 236.38 115.60 236.29 114.53 236.21 113.46 C 235.28 113.76 233.43 114.35 232.50 114.64 C 231.23 115.68 229.96 116.69 228.74 117.78 C 230.31 117.68 232.20 118.01 233.04 116.26 C 233.73 116.87 234.37 117.53 234.96 118.25 C 233.11 118.38 231.25 118.53 229.40 118.68 C 229.45 119.19 229.55 120.21 229.60 120.72 C 229.09 120.65 228.07 120.50 227.56 120.43 L 227.82 122.01 C 227.53 122.51 226.96 123.52 226.67 124.03 C 222.82 125.80 219.16 127.97 215.99 130.80 L 213.40 129.87 C 213.92 130.37 214.46 130.85 215.01 131.33 C 214.49 132.02 213.44 133.42 212.91 134.12 C 217.36 131.36 221.05 127.14 226.31 125.87 C 224.43 128.50 221.11 129.51 218.77 131.67 C 215.44 134.57 211.70 137.30 209.17 140.90 C 211.23 140.52 214.12 139.94 214.73 137.60 C 215.34 137.49 216.58 137.28 217.19 137.17 C 215.97 138.10 213.99 138.69 214.53 140.62 C 213.31 140.24 212.57 140.79 212.31 142.25 C 209.99 143.84 208.08 145.90 206.04 147.80 C 204.84 147.83 203.65 147.87 202.47 147.94 C 200.23 149.57 197.42 150.61 195.87 153.00 C 198.97 151.78 201.71 149.72 205.02 148.98 C 204.49 149.45 203.42 150.39 202.88 150.85 C 203.98 151.26 205.08 151.70 206.18 152.13 C 208.18 149.72 211.34 148.63 213.19 146.08 C 214.30 144.60 215.94 143.68 217.41 142.61 C 218.08 140.57 219.09 138.66 219.77 136.63 C 220.17 136.39 220.96 135.92 221.36 135.69 C 222.75 133.14 224.61 130.71 227.41 129.63 C 229.99 128.66 231.75 126.03 234.57 125.69 C 236.06 126.29 237.51 125.78 238.91 125.25 C 236.54 127.40 234.39 129.77 231.69 131.52 L 233.97 131.32 C 233.68 133.55 231.41 134.33 229.99 135.70 L 231.88 136.20 C 231.39 136.82 230.41 138.04 229.93 138.66 C 229.29 138.07 229.16 137.42 229.53 136.69 L 229.65 136.13 L 229.36 135.73 C 228.98 136.07 228.21 136.74 227.82 137.08 L 226.99 137.71 L 226.03 137.44 C 226.21 138.08 226.56 139.35 226.73 139.99 C 225.05 140.41 223.33 140.74 221.78 141.55 C 222.52 141.43 224.00 141.21 224.74 141.09 L 222.57 144.32 C 225.89 141.49 230.30 140.44 233.56 137.56 C 234.82 136.49 236.14 135.46 237.72 134.87 C 235.96 137.51 233.15 139.57 232.44 142.81 C 231.04 144.45 229.36 145.85 227.56 147.04 L 229.00 143.73 C 222.90 145.69 219.53 151.60 214.84 155.57 C 214.21 154.52 213.65 153.43 213.07 152.35 C 212.82 154.46 211.53 155.57 209.20 155.66 C 211.10 153.30 213.73 151.75 215.97 149.76 C 215.63 149.39 214.94 148.66 214.59 148.29 C 216.63 146.93 218.65 145.45 220.08 143.42 C 219.15 144.14 218.22 144.86 217.30 145.59 C 217.07 145.46 216.62 145.19 216.39 145.05 L 216.38 146.30 C 211.92 150.35 207.65 154.63 202.77 158.19 C 203.20 157.44 204.07 155.94 204.50 155.19 L 201.52 155.22 C 200.72 159.32 195.58 160.25 192.80 162.81 C 191.05 164.24 188.98 165.24 186.79 165.76 C 184.67 165.07 182.79 166.47 180.85 167.08 C 183.20 164.29 186.55 162.66 189.80 161.17 C 189.94 160.79 190.24 160.04 190.38 159.67 C 188.28 160.90 186.22 162.23 184.00 163.24 C 182.21 164.04 179.70 162.56 178.45 164.64 C 177.21 164.62 175.98 164.57 174.75 164.49 C 177.20 163.40 179.99 162.35 182.73 162.81 C 181.49 158.28 189.44 160.18 190.14 156.01 C 189.42 156.66 188.72 157.33 188.03 158.00 C 185.55 158.20 182.81 160.95 180.58 158.83 C 181.87 158.46 183.14 158.06 184.40 157.60 C 183.26 157.53 180.98 157.39 179.83 157.32 C 180.82 156.19 181.87 155.12 182.99 154.11 C 177.05 152.42 184.73 152.50 186.21 151.80 L 187.27 152.51 C 186.31 152.93 185.37 153.38 184.44 153.86 C 187.27 153.86 189.86 152.70 192.18 151.18 C 190.51 151.49 188.87 151.95 187.27 152.51 L 186.58 151.43 C 186.99 151.06 187.80 150.32 188.20 149.95 C 185.60 151.10 182.82 151.78 179.96 151.85 C 183.69 148.77 188.60 148.23 193.10 146.97 C 192.29 146.47 191.51 145.95 190.75 145.39 C 191.67 145.45 193.51 145.57 194.43 145.63 C 194.57 144.95 194.85 143.60 194.99 142.92 C 191.40 144.02 187.73 145.09 183.94 145.11 C 185.94 146.43 188.43 145.83 190.67 146.25 C 187.04 147.79 183.09 148.64 179.14 148.51 C 180.54 146.73 183.13 147.25 185.07 146.90 C 183.81 146.17 182.44 145.69 181.03 145.36 C 181.85 144.09 182.98 142.92 182.94 141.27 C 180.92 141.19 178.93 140.89 176.96 140.49 C 178.44 139.17 180.44 139.87 182.23 139.76 C 184.24 139.79 186.02 138.31 188.10 138.96 C 186.78 136.87 183.81 138.07 181.77 137.53 C 184.73 136.38 188.31 138.99 190.87 136.69 C 194.45 136.11 197.90 134.98 201.47 134.36 C 201.45 134.90 201.39 135.97 201.36 136.51 L 202.76 136.22 C 202.71 136.82 202.60 138.01 202.55 138.61 C 201.73 138.53 200.08 138.37 199.26 138.29 C 199.33 138.83 199.47 139.91 199.54 140.45 C 201.05 140.63 202.90 141.21 202.76 138.81 C 204.13 139.81 203.58 141.37 203.04 142.68 C 202.19 143.97 200.49 146.55 199.64 147.85 C 202.43 145.81 204.96 143.42 208.05 141.84 C 208.05 141.24 208.04 140.04 208.04 139.44 C 209.77 137.93 211.31 136.19 213.18 134.84 C 212.82 134.43 212.47 134.02 212.11 133.61 C 210.75 135.15 209.24 136.80 207.11 137.19 C 208.16 136.05 210.28 133.76 211.34 132.62 C 209.94 133.45 207.14 135.10 205.74 135.93 C 206.75 133.32 209.81 132.42 211.06 129.95 C 213.05 130.42 214.77 128.70 215.76 127.16 C 213.72 126.74 211.69 127.99 211.06 129.95 C 208.59 130.65 206.67 132.56 204.19 133.32 C 204.64 132.11 205.08 130.91 205.53 129.71 L 203.09 130.82 L 203.53 129.49 C 204.69 128.49 207.01 126.49 208.17 125.49 C 206.62 126.17 203.53 127.52 201.98 128.20 C 203.08 127.43 203.58 126.43 203.49 125.20 C 207.40 123.13 211.49 121.43 215.27 119.13 C 217.33 117.99 220.20 117.67 221.05 115.12 C 220.72 115.54 220.06 116.39 219.73 116.81 C 215.77 118.18 211.81 119.50 207.88 120.94 C 209.35 117.88 213.80 117.87 216.71 116.85 L 216.76 115.25 C 216.00 115.36 214.48 115.58 213.72 115.69 C 216.30 113.73 220.74 115.48 221.77 111.60 C 223.91 111.61 226.08 111.85 228.19 111.41 C 227.13 111.34 225.00 111.20 223.94 111.13 C 224.88 110.10 226.04 109.49 227.42 109.32 C 226.89 107.50 228.40 106.85 229.75 106.28 C 229.77 105.32 229.79 103.39 229.80 102.43 L 227.23 102.14 C 227.18 102.69 227.08 103.78 227.03 104.33 C 226.90 103.77 226.63 102.67 226.50 102.11 C 225.67 102.41 224.00 103.01 223.17 103.30 C 222.15 104.87 220.34 105.49 218.71 106.21 C 219.62 106.59 220.52 106.97 221.44 107.35 C 222.23 107.14 223.80 106.73 224.59 106.52 L 224.51 105.36 C 225.34 105.46 226.18 105.55 227.01 105.65 C 225.78 106.26 224.55 106.88 223.33 107.51 L 223.65 108.71 C 223.08 108.55 221.93 108.22 221.36 108.05 L 221.53 109.22 C 217.84 109.05 216.15 112.76 213.34 114.44 C 212.64 113.90 211.94 113.35 211.27 112.79 L 213.26 115.34 C 212.28 115.05 210.34 114.46 209.37 114.17 C 206.88 115.56 204.39 117.13 201.54 117.64 C 201.15 117.92 200.37 118.48 199.98 118.76 C 199.50 118.40 198.55 117.68 198.07 117.31 C 198.80 117.25 200.25 117.11 200.98 117.04 L 200.37 115.39 C 201.01 115.37 202.29 115.33 202.93 115.31 C 202.63 114.41 202.33 113.52 202.03 112.62 C 203.61 112.73 204.60 111.65 205.52 110.54 C 207.33 110.08 209.14 109.63 210.97 109.22 C 210.75 110.68 209.70 111.69 208.77 112.74 C 210.45 111.84 212.21 111.09 213.99 110.41 C 213.81 110.18 213.46 109.73 213.28 109.50 C 215.65 110.26 217.76 108.37 220.00 107.92 C 219.03 107.36 218.05 106.81 217.07 106.28 C 218.20 104.95 219.80 104.18 221.18 103.14 C 218.05 104.44 214.79 105.50 211.36 105.43 C 211.30 101.86 213.87 98.60 217.23 97.62 C 219.99 94.75 224.12 93.99 227.95 94.67 L 227.10 93.20 C 228.26 93.29 229.42 93.36 230.59 93.43 L 230.42 94.81 C 231.22 94.69 232.82 94.45 233.63 94.32 C 232.47 97.31 237.20 97.33 239.12 97.80 C 237.06 96.73 234.29 96.42 233.87 93.66 C 234.37 93.76 235.36 93.96 235.85 94.05 C 235.69 93.60 235.37 92.69 235.21 92.23 C 236.76 92.21 238.23 92.79 239.74 93.04 C 237.73 91.03 234.94 90.11 232.81 88.24 C 234.44 88.30 236.06 88.66 237.35 89.71 C 238.76 90.62 240.23 91.44 241.76 92.16 C 241.08 91.33 239.73 89.68 239.06 88.86 C 238.31 88.36 237.57 87.86 236.85 87.35 C 237.61 87.44 239.14 87.63 239.91 87.72 L 239.95 88.12 L 240.25 88.19 C 240.17 88.07 239.99 87.84 239.91 87.72 C 239.49 86.82 238.67 85.02 238.25 84.12 C 238.36 88.88 235.30 85.67 234.10 84.40 L 234.70 86.39 C 233.70 86.76 232.70 87.14 231.71 87.54 C 230.48 90.54 227.09 89.58 224.92 88.31 C 222.95 89.80 221.26 91.61 219.50 93.33 C 217.55 93.16 216.35 94.50 215.12 95.74 C 214.64 93.77 216.76 92.94 218.28 92.51 C 218.89 91.68 220.12 90.01 220.73 89.18 L 218.38 89.60 L 218.50 88.00 C 216.39 89.31 213.88 90.12 212.27 92.12 C 211.53 91.38 210.29 90.85 210.34 89.65 C 213.63 89.67 216.32 85.41 219.53 86.69 L 219.75 88.14 C 220.04 87.69 220.62 86.79 220.91 86.34 C 220.36 85.93 219.81 85.52 219.26 85.12 L 222.93 83.90 C 222.02 83.23 220.51 83.20 220.00 82.11 C 221.07 81.22 222.49 81.08 223.78 80.70 C 222.65 81.87 223.18 83.49 223.75 84.76 C 223.35 85.48 222.56 86.93 222.16 87.66 C 223.77 87.45 225.31 86.89 226.78 86.22 C 227.05 86.69 227.60 87.62 227.88 88.08 C 229.27 85.54 230.85 82.57 234.32 85.32 L 232.11 83.28 C 233.71 82.68 235.20 81.85 236.78 81.22 C 239.43 82.82 242.75 83.99 244.19 86.93 C 242.74 85.58 241.05 85.02 239.12 85.25 C 239.76 86.32 240.77 86.82 242.17 86.74 C 242.79 87.36 243.41 87.98 244.04 88.60 C 244.49 88.23 245.39 87.49 245.84 87.12 C 249.37 89.58 251.71 93.25 254.92 96.05 C 253.83 92.95 251.30 90.91 249.33 88.45 C 251.10 88.52 252.54 89.78 254.36 89.61 C 254.75 90.62 255.14 91.62 255.53 92.63 L 256.80 92.40 C 256.71 92.97 256.52 94.12 256.43 94.69 C 256.89 94.55 257.82 94.26 258.28 94.12 C 259.11 95.45 259.98 96.77 260.92 98.04 C 260.40 96.02 259.72 94.06 259.06 92.09 C 257.13 91.52 256.02 89.81 254.81 88.34 C 254.39 88.49 253.53 88.78 253.10 88.93 C 251.69 87.53 248.10 86.75 249.85 84.06 C 251.46 85.46 252.87 87.18 254.91 87.99 C 253.80 84.01 249.32 82.95 247.27 79.70 C 245.50 77.99 242.52 77.02 242.09 74.35 M 241.20 89.02 C 241.57 92.51 244.03 87.69 241.20 89.02 M 220.77 97.46 C 221.51 97.61 222.99 97.91 223.72 98.05 C 223.64 98.61 223.48 99.73 223.40 100.29 C 221.22 100.39 219.04 100.40 216.86 100.31 C 220.34 101.78 224.26 101.55 227.32 99.23 C 226.64 98.99 225.29 98.51 224.61 98.27 C 226.62 98.70 229.12 97.88 230.75 99.43 C 231.54 99.52 233.11 99.70 233.90 99.79 C 234.11 95.83 229.62 95.91 226.82 96.03 C 224.99 97.22 222.90 97.45 220.77 97.46 M 232.02 101.20 C 232.63 101.88 232.63 101.88 232.02 101.20 M 242.16 100.78 C 241.80 102.05 243.64 103.37 244.76 102.78 C 245.01 101.61 243.24 100.19 242.16 100.78 M 205.30 131.42 C 208.12 129.15 211.34 127.40 214.06 124.99 C 210.92 126.60 206.44 127.70 205.30 131.42 M 211.49 132.24 C 211.77 132.56 211.77 132.56 211.49 132.24 M 198.36 136.26 C 198.51 139.72 201.20 134.54 198.36 136.26 M 214.98 153.14 C 215.38 152.58 216.20 151.46 216.60 150.90 C 215.42 149.97 214.12 152.28 214.98 153.14 M 191.84 158.19 C 192.24 158.56 192.63 158.94 193.03 159.32 C 195.93 156.76 200.47 155.71 202.10 152.03 C 198.70 154.09 195.70 157.04 191.84 158.19 M 203.49 153.24 C 203.77 153.56 203.77 153.56 203.49 153.24 M 192.92 160.20 C 193.54 160.80 193.54 160.80 192.92 160.20 M 190.77 162.04 C 189.94 162.70 189.94 162.70 190.77 162.04 C 191.56 161.42 191.56 161.42 190.77 162.04 M 188.27 163.17 C 188.80 163.84 188.80 163.84 188.27 163.17 Z" />
<path fill="#ffffff" opacity="1.00" d=" M 248.82 76.03 C 248.13 75.26 248.13 75.26 248.82 76.03 Z" />
<path fill="#ffffff" opacity="1.00" d=" M 239.60 75.68 C 240.71 76.10 241.82 76.51 242.93 76.92 C 245.02 79.41 247.47 81.58 249.53 84.11 L 249.28 85.68 C 247.89 84.73 246.63 83.62 245.48 82.40 C 242.73 83.07 240.20 81.82 237.75 80.74 C 238.76 80.15 239.82 79.67 240.92 79.29 C 240.59 78.39 239.93 76.59 239.60 75.68 Z" />
<path fill="#ffffff" opacity="1.00" d=" M 248.82 76.03 C 250.72 74.54 251.12 78.87 249.04 76.86 L 248.82 76.03 Z" />
<path fill="#ffffff" opacity="1.00" d=" M 225.65 83.12 C 227.21 81.17 226.43 77.37 229.37 76.51 C 229.37 77.28 229.38 78.84 229.39 79.61 C 230.16 78.48 230.53 76.77 232.15 76.54 C 231.44 79.10 229.94 81.36 228.19 83.33 C 228.28 82.48 228.46 80.79 228.55 79.94 C 227.82 80.73 226.38 82.32 225.65 83.12 Z" />
<path fill="#ffffff" opacity="1.00" d=" M 207.95 79.37 C 211.41 79.17 206.68 82.41 207.95 79.37 Z" />
<path fill="#ffffff" opacity="1.00" d=" M 267.25 79.18 C 267.83 79.84 267.83 79.84 267.25 79.18 Z" />
<path fill="#ffffff" opacity="1.00" d=" M 304.34 83.41 C 305.42 83.46 306.50 83.51 307.59 83.56 C 307.03 84.60 306.53 85.66 306.05 86.74 C 304.75 86.96 302.15 87.39 300.85 87.61 C 301.84 87.50 303.83 87.29 304.83 87.18 L 304.15 90.39 C 303.15 89.45 302.00 88.90 300.74 89.80 C 301.58 90.38 302.52 90.72 303.54 90.84 C 302.13 91.74 301.75 94.72 299.62 93.33 C 299.29 95.02 297.67 98.45 296.37 95.35 C 296.63 95.96 297.15 97.16 297.41 97.76 L 295.90 98.77 C 295.18 98.83 293.74 98.95 293.02 99.01 C 293.85 99.00 295.50 98.96 296.33 98.95 C 295.54 99.65 293.96 101.05 293.17 101.75 C 294.49 101.10 295.83 100.51 297.19 99.94 C 297.44 99.47 297.94 98.55 298.20 98.09 C 299.24 98.57 300.21 99.19 301.11 99.96 L 299.43 100.61 C 300.20 101.92 298.80 103.01 298.28 104.11 C 299.71 103.17 301.11 102.18 302.69 101.50 C 303.97 97.57 306.27 94.16 308.80 90.94 C 308.62 92.12 308.45 93.30 308.28 94.48 C 310.13 93.01 311.29 90.93 312.13 88.75 C 311.71 88.73 310.86 88.67 310.44 88.64 C 310.46 87.49 310.47 86.33 310.47 85.18 C 311.52 85.23 312.57 85.29 313.63 85.34 C 313.51 85.88 313.27 86.95 313.14 87.48 L 315.35 87.32 C 314.27 88.46 313.25 89.64 312.29 90.87 L 311.95 91.28 C 312.89 93.89 310.74 96.26 310.16 98.74 C 307.41 101.69 305.67 105.36 303.30 108.59 L 304.13 108.41 C 307.70 105.59 309.93 101.19 312.37 97.35 C 313.59 95.50 315.93 95.58 317.87 95.37 C 316.14 96.87 314.35 98.32 312.61 99.82 C 314.53 99.37 316.46 98.88 318.39 98.43 C 318.61 97.17 318.88 95.93 319.22 94.71 C 321.53 95.58 319.57 97.43 319.09 98.83 L 320.96 98.45 C 320.12 99.80 319.79 102.81 317.50 101.32 L 317.26 104.41 C 318.07 104.08 319.69 103.40 320.50 103.07 L 320.51 104.28 C 317.86 104.96 315.62 106.54 313.61 108.34 C 316.58 107.96 319.31 106.74 322.05 105.61 C 321.39 107.00 320.74 108.40 320.09 109.79 C 320.71 109.45 321.96 108.75 322.59 108.41 C 322.30 109.05 321.73 110.33 321.44 110.97 C 322.01 110.98 323.15 111.01 323.72 111.02 C 323.32 111.56 322.51 112.63 322.11 113.16 C 324.75 113.52 327.37 114.08 329.89 114.97 C 327.98 115.14 326.10 114.53 324.24 114.28 C 324.11 118.09 328.10 119.53 329.64 122.55 C 327.67 121.80 325.89 120.65 324.15 119.48 C 324.79 121.85 326.95 123.03 328.80 124.37 C 328.24 124.42 327.13 124.53 326.57 124.58 C 327.76 125.64 329.20 126.47 330.11 127.83 L 328.69 127.89 C 327.75 127.36 325.86 126.30 324.92 125.77 L 326.84 129.31 C 325.03 128.10 323.24 126.79 322.02 124.94 C 323.30 125.12 325.84 125.48 327.11 125.66 C 326.38 123.95 321.08 123.72 323.30 121.14 C 321.39 118.88 321.51 116.05 321.40 113.27 C 321.00 113.05 320.20 112.62 319.79 112.41 C 319.68 110.84 318.75 109.66 317.04 110.00 C 315.62 109.59 312.92 111.41 312.70 108.95 C 312.15 109.10 311.07 109.39 310.53 109.54 C 310.33 109.97 309.95 110.84 309.75 111.27 C 311.64 107.10 306.98 110.22 305.79 110.95 C 305.06 111.06 303.61 111.27 302.88 111.38 C 304.25 112.66 305.87 113.46 307.72 113.76 C 307.73 114.02 307.75 114.53 307.76 114.79 C 305.43 114.14 303.27 112.85 301.00 112.18 C 300.72 113.65 302.16 114.61 302.68 115.84 C 301.23 115.95 300.44 114.51 299.19 114.12 C 298.15 115.27 296.63 116.22 296.17 117.75 C 296.69 118.04 297.72 118.61 298.24 118.90 C 297.68 119.06 296.57 119.39 296.01 119.55 C 296.19 120.06 296.57 121.07 296.76 121.57 L 294.11 121.01 C 294.66 121.71 295.75 123.11 296.30 123.81 C 296.26 124.36 296.17 125.45 296.13 126.00 C 296.83 125.57 298.21 124.72 298.90 124.30 C 297.75 127.81 295.13 130.56 291.21 130.73 C 291.40 130.93 291.80 131.31 291.99 131.51 C 293.13 130.98 294.28 130.51 295.47 130.08 C 295.50 130.98 295.56 132.78 295.59 133.68 C 293.21 133.92 291.15 132.98 289.10 131.95 C 290.50 134.36 294.47 135.24 296.65 133.26 C 296.36 134.40 296.06 135.55 295.77 136.71 C 294.98 136.74 293.39 136.80 292.60 136.83 L 292.52 137.90 C 293.62 137.86 295.81 137.78 296.91 137.74 C 295.91 139.02 294.43 139.49 292.88 139.57 C 291.26 137.67 289.21 136.21 287.11 134.89 C 286.45 133.99 285.81 133.07 285.17 132.16 C 285.67 131.87 286.65 131.30 287.14 131.01 C 285.34 130.02 283.76 130.71 282.82 132.44 C 281.71 131.37 280.36 131.17 278.76 131.85 C 279.39 130.78 280.17 129.82 281.08 128.97 C 281.52 129.51 282.40 130.58 282.84 131.12 C 282.24 129.08 281.87 126.76 280.31 125.53 L 278.39 125.15 L 278.76 126.70 L 277.67 126.50 C 277.64 128.84 275.55 126.95 274.61 126.74 C 275.23 126.64 276.46 126.44 277.08 126.34 C 276.58 123.12 272.31 125.19 270.09 124.58 C 270.55 122.44 272.91 123.33 274.39 123.63 C 277.49 124.94 280.78 124.10 283.99 124.66 C 282.22 124.03 280.36 123.33 279.26 121.72 C 277.87 121.79 276.51 121.48 275.17 121.22 C 273.78 119.71 272.25 118.32 270.58 117.14 C 269.65 118.28 268.73 119.43 267.83 120.60 C 267.03 118.59 265.63 119.78 264.79 120.64 C 264.66 120.03 264.42 118.82 264.29 118.21 C 265.22 117.21 266.17 116.23 267.13 115.26 C 269.21 116.36 271.19 114.44 273.15 113.89 C 273.01 114.66 272.74 116.21 272.61 116.98 C 273.85 117.47 275.10 117.93 276.37 118.38 C 276.38 118.66 276.40 119.23 276.41 119.52 C 277.10 119.61 278.48 119.78 279.16 119.87 C 277.35 118.57 275.29 117.05 274.96 114.68 C 275.84 115.07 277.61 115.86 278.49 116.25 C 280.67 115.93 283.07 117.48 284.97 117.20 C 284.57 116.78 283.78 115.95 283.38 115.53 C 280.01 115.75 276.42 115.47 273.49 113.62 C 271.98 112.43 269.87 112.92 268.37 111.77 C 266.67 110.77 266.33 108.63 265.69 106.93 C 267.23 106.13 267.87 108.08 268.87 108.79 C 268.38 107.29 266.23 105.48 267.95 104.07 C 268.45 103.95 269.47 103.71 269.97 103.60 C 269.64 103.15 268.97 102.25 268.63 101.80 C 269.29 101.72 269.96 101.64 270.63 101.56 C 270.45 101.11 270.08 100.22 269.90 99.77 L 271.55 99.67 C 271.50 97.29 273.02 95.30 273.46 93.03 L 274.64 93.54 C 274.57 91.66 275.43 90.00 276.34 88.42 C 277.52 89.37 278.54 90.48 278.15 92.15 C 278.79 92.29 280.06 92.56 280.70 92.70 C 277.28 94.18 281.68 100.03 284.28 96.83 C 283.55 96.75 282.09 96.58 281.36 96.50 C 281.30 96.32 281.20 95.95 281.15 95.76 C 283.43 96.08 285.31 95.17 285.76 92.76 C 288.03 91.35 289.94 88.61 292.92 89.11 C 291.41 90.64 289.74 91.97 288.06 93.28 C 289.01 93.60 292.47 95.91 289.89 93.06 C 292.62 92.40 292.55 87.02 295.70 88.51 C 296.92 88.07 298.19 87.71 299.48 87.49 L 299.58 86.30 C 300.12 86.41 301.20 86.63 301.74 86.74 L 301.58 85.12 C 302.39 85.33 304.02 85.73 304.83 85.94 C 304.70 85.30 304.46 84.04 304.34 83.41 M 276.91 97.27 C 277.02 97.57 277.25 98.18 277.36 98.49 C 280.12 99.21 283.32 102.32 285.90 99.47 C 284.81 99.49 282.62 99.54 281.53 99.56 L 281.48 98.61 C 279.95 98.15 278.44 97.68 276.91 97.27 M 302.17 103.19 C 301.88 106.50 305.31 101.63 302.17 103.19 M 303.20 105.19 C 303.87 105.76 303.87 105.76 303.20 105.19 Z" />
<path fill="#ffffff" opacity="1.00" d=" M 244.44 84.39 C 246.00 83.92 248.37 85.64 248.35 87.25 C 246.75 87.49 244.81 85.82 244.44 84.39 Z" />
<path fill="#ffffff" opacity="1.00" d=" M 300.49 98.49 C 302.07 94.51 304.49 90.92 307.27 87.67 C 306.09 92.33 302.43 96.09 301.93 101.06 C 301.44 100.21 300.96 99.35 300.49 98.49 Z" />
<path fill="#ffffff" opacity="1.00" d=" M 224.82 90.34 C 225.96 89.85 229.19 89.54 228.97 91.38 C 227.77 91.73 225.10 91.66 224.82 90.34 Z" />
<path fill="#ffffff" opacity="1.00" d=" M 229.55 90.79 C 229.82 90.61 230.38 90.24 230.66 90.06 C 231.06 90.25 231.87 90.65 232.27 90.84 C 232.62 91.12 233.31 91.68 233.66 91.96 C 232.66 93.52 229.64 92.56 229.55 90.79 Z" />
<path fill="#ffffff" opacity="1.00" d=" M 223.31 92.09 C 226.24 90.56 223.41 95.43 223.31 92.09 Z" />
<path fill="#ffffff" opacity="1.00" d=" M 300.23 94.47 C 300.58 94.77 300.58 94.77 300.23 94.47 Z" />
<path fill="#ffffff" opacity="1.00" d=" M 299.23 96.63 C 299.78 96.97 299.78 96.97 299.23 96.63 Z" />
<path fill="#ffffff" opacity="1.00" d=" M 207.56 108.07 C 208.96 106.37 211.76 107.40 213.69 107.43 C 212.37 108.49 208.94 109.52 207.56 108.07 Z" />
<path fill="#ffffff" opacity="1.00" d=" M 252.71 107.36 C 252.87 107.57 252.87 107.57 252.71 107.36 Z" />
<path fill="#ffffff" opacity="1.00" d=" M 254.19 108.00 L 254.82 108.03 L 254.78 108.66 L 254.15 108.62 L 254.19 108.00 Z" />
<path fill="#ffffff" opacity="1.00" d=" M 316.17 111.66 C 317.72 110.71 320.49 114.01 318.50 114.74 C 317.57 114.07 315.70 112.98 316.17 111.66 Z" />
<path fill="#ffffff" opacity="1.00" d=" M 253.48 113.96 C 254.43 113.37 255.41 112.84 256.39 112.32 C 256.41 112.90 256.45 114.05 256.47 114.63 L 255.01 117.04 C 256.16 116.48 257.31 115.92 258.46 115.36 C 259.98 114.68 261.25 112.90 263.10 113.42 C 261.36 115.64 259.31 117.72 256.59 118.64 C 255.69 117.72 254.57 117.07 253.40 116.58 C 254.03 115.77 254.66 114.96 255.30 114.16 L 253.48 113.96 Z" />
<path fill="#ffffff" opacity="1.00" d=" M 209.80 114.76 C 210.40 115.10 210.99 115.44 211.58 115.80 C 207.08 117.66 203.21 120.70 198.87 122.88 C 198.45 122.19 198.03 121.51 197.60 120.84 C 202.10 120.23 206.18 117.45 209.80 114.76 Z" />
<path fill="#ffffff" opacity="1.00" d=" M 197.39 123.66 C 200.09 123.61 202.64 122.77 205.20 122.01 C 202.51 125.87 196.33 124.76 193.65 128.09 C 196.01 129.05 199.72 125.69 201.09 129.22 C 196.57 128.88 192.71 132.60 188.09 131.63 C 189.01 129.88 191.75 129.99 192.25 128.17 C 191.72 128.03 190.66 127.74 190.13 127.60 C 192.46 126.27 194.12 124.15 195.97 122.27 C 196.44 122.73 196.91 123.19 197.39 123.66 Z" />
<path fill="#ffffff" opacity="1.00" d=" M 252.69 122.96 C 254.12 122.65 255.54 122.31 257.00 122.12 C 258.16 123.41 258.29 125.32 259.13 126.82 C 261.07 126.89 262.46 126.13 262.86 124.13 C 263.49 124.83 264.75 125.37 264.25 126.51 C 263.39 128.47 260.55 127.94 258.95 127.29 C 258.33 127.54 257.10 128.05 256.49 128.30 C 256.74 127.55 257.25 126.03 257.51 125.28 C 256.76 125.92 255.27 127.21 254.53 127.85 C 253.96 126.20 253.31 124.58 252.69 122.96 Z" />
<path fill="#ffffff" opacity="1.00" d=" M 306.69 122.04 C 309.18 122.53 308.64 126.77 306.35 127.32 C 304.41 128.99 302.57 126.79 301.76 125.13 C 303.30 124.21 304.78 124.18 305.93 125.77 C 306.12 124.83 306.50 122.97 306.69 122.04 Z" />
<path fill="#ffffff" opacity="1.00" d=" M 237.77 129.86 C 239.65 126.83 243.88 126.24 246.45 123.76 C 247.27 123.96 248.92 124.37 249.74 124.58 C 249.33 128.61 244.60 129.71 241.81 131.89 C 242.50 130.48 243.63 129.37 244.54 128.12 C 242.17 128.21 239.96 129.04 237.77 129.86 Z" />
<path fill="#ffffff" opacity="1.00" d=" M 318.41 125.20 C 321.96 127.12 325.00 129.78 327.83 132.63 C 326.12 132.19 324.43 131.66 322.74 131.16 C 325.54 134.05 328.61 137.01 329.95 140.91 C 329.01 139.92 328.24 138.79 327.56 137.61 C 326.97 137.19 325.80 136.35 325.22 135.93 C 325.30 137.05 325.46 139.29 325.55 140.42 L 324.29 140.47 L 324.64 141.86 C 323.58 141.32 322.53 140.79 321.49 140.26 C 321.12 140.70 320.38 141.57 320.01 142.01 C 321.30 139.23 321.23 136.04 322.76 133.36 C 322.43 132.91 321.77 132.00 321.43 131.55 C 322.21 131.08 322.98 130.61 323.76 130.14 C 322.39 129.54 321.03 128.93 319.67 128.32 C 319.76 127.87 319.94 126.97 320.03 126.52 L 318.34 126.57 C 318.36 126.23 318.39 125.54 318.41 125.20 Z" />
<path fill="#ffffff" opacity="1.00" d=" M 245.65 130.30 C 248.06 129.38 249.74 125.73 252.56 126.89 C 252.28 127.24 251.72 127.95 251.43 128.31 C 254.06 129.25 250.37 131.17 249.92 132.59 C 248.44 131.93 247.00 131.19 245.65 130.30 Z" />
<path fill="#ffffff" opacity="1.00" d=" M 279.15 127.67 C 279.82 128.33 279.82 128.33 279.15 127.67 Z" />
<path fill="#ffffff" opacity="1.00" d=" M 256.37 130.35 C 257.13 130.05 257.90 129.74 258.67 129.44 C 258.45 131.65 257.81 133.74 255.68 134.80 C 255.46 134.42 255.02 133.67 254.80 133.29 C 253.72 133.80 252.64 134.30 251.55 134.79 C 251.62 134.42 251.74 133.67 251.81 133.29 L 249.61 133.47 C 250.89 131.93 252.34 130.57 253.83 129.25 C 254.61 130.46 255.22 132.45 257.12 131.66 C 256.93 131.34 256.56 130.68 256.37 130.35 Z" />
<path fill="#ffffff" opacity="1.00" d=" M 309.77 130.32 C 311.35 130.85 312.63 129.70 314.02 129.23 C 313.30 130.55 312.29 131.68 311.62 133.03 L 310.46 132.08 C 310.19 133.01 309.93 133.94 309.66 134.87 C 308.47 132.87 306.44 132.29 304.35 131.73 C 304.80 129.24 308.51 130.75 309.83 131.68 C 309.82 131.34 309.79 130.66 309.77 130.32 Z" />
<path fill="#ffffff" opacity="1.00" d=" M 199.29 132.22 C 200.09 131.87 200.89 131.53 201.69 131.18 C 201.74 131.51 201.83 132.17 201.88 132.49 C 196.68 133.83 191.57 135.65 186.12 135.69 L 187.17 133.99 C 191.18 133.28 195.20 132.35 199.29 132.22 Z" />
<path fill="#ffffff" opacity="1.00" d=" M 261.76 131.83 C 262.78 131.44 263.79 131.06 264.82 130.68 C 265.04 131.39 265.48 132.80 265.71 133.51 C 264.15 133.61 262.60 133.73 261.05 133.84 C 261.23 133.34 261.58 132.33 261.76 131.83 Z" />
<path fill="#ffffff" opacity="1.00" d=" M 300.93 133.22 C 302.28 134.53 302.72 136.19 302.48 138.06 C 304.17 139.26 305.90 140.42 307.56 141.67 C 307.20 142.45 306.48 144.01 306.12 144.79 C 305.85 143.59 305.29 141.18 305.02 139.97 C 304.64 140.61 303.88 141.87 303.51 142.50 C 302.09 140.63 298.72 138.31 301.34 135.91 C 301.02 135.90 300.39 135.87 300.07 135.86 C 300.29 135.20 300.72 133.88 300.93 133.22 Z" />
<path fill="#ffffff" opacity="1.00" d=" M 269.18 136.49 C 269.83 137.05 269.83 137.05 269.18 136.49 Z" />
<path fill="#ffffff" opacity="1.00" d=" M 264.92 140.64 C 266.12 139.29 266.18 136.42 268.89 137.31 C 268.57 138.79 267.69 139.98 266.64 141.04 C 266.99 141.41 267.68 142.16 268.02 142.53 C 266.30 141.95 264.66 141.15 263.09 140.25 C 263.27 141.08 263.64 142.75 263.82 143.58 C 261.35 143.01 258.13 142.59 257.98 139.39 C 259.75 140.26 261.47 141.20 263.24 142.09 C 262.42 141.17 260.78 139.32 259.95 138.40 C 261.09 138.64 263.35 139.11 264.48 139.34 L 264.92 140.64 Z" />
<path fill="#ffffff" opacity="1.00" d=" M 237.86 140.94 C 238.91 140.21 239.97 139.49 241.09 138.87 C 240.34 140.47 239.45 142.36 237.51 142.74 L 237.57 143.87 C 237.08 143.71 236.10 143.40 235.60 143.24 L 235.78 144.61 L 234.50 144.48 L 234.70 145.49 L 233.66 145.67 L 233.48 146.74 L 232.85 146.73 C 231.48 147.27 230.03 147.51 228.51 147.46 C 229.44 144.92 234.11 144.07 233.13 140.90 L 234.63 141.77 L 233.92 139.94 L 235.62 140.59 L 235.43 138.74 C 236.04 139.29 237.25 140.39 237.86 140.94 Z" />
<path fill="#ffffff" opacity="1.00" d=" M 281.57 138.78 C 282.97 139.89 284.66 139.49 286.26 139.39 C 286.79 140.90 287.08 142.46 287.14 144.06 C 286.61 143.49 285.55 142.34 285.02 141.77 C 283.15 141.63 281.86 140.73 281.57 138.78 Z" />
<path fill="#ffffff" opacity="1.00" d=" M 287.29 139.21 C 287.80 139.83 287.80 139.83 287.29 139.21 Z" />
<path fill="#ffffff" opacity="1.00" d=" M 234.85 147.97 C 237.27 144.58 241.46 143.33 244.88 141.22 C 244.47 143.09 243.97 144.94 243.47 146.78 C 244.83 144.69 246.87 143.86 249.60 144.28 C 245.63 147.40 241.70 150.57 238.26 154.29 C 236.96 155.14 235.21 155.90 235.07 157.70 C 234.45 157.16 233.83 156.63 233.22 156.11 C 233.72 155.54 234.73 154.41 235.24 153.84 C 232.15 154.34 230.49 157.44 228.07 159.13 C 225.54 160.91 223.73 163.59 220.95 164.98 C 222.27 162.43 224.31 160.36 225.76 157.89 C 224.85 157.83 223.02 157.72 222.11 157.66 C 220.76 160.28 218.93 162.75 216.51 164.48 C 217.52 160.40 221.52 157.98 223.06 154.35 C 223.79 156.07 224.92 157.49 226.70 158.22 C 227.41 157.33 228.00 156.17 226.85 155.32 C 229.77 152.97 233.34 151.26 235.74 148.39 C 237.99 151.05 240.51 147.41 242.87 146.68 C 243.05 146.12 243.43 144.99 243.61 144.43 C 241.05 146.42 238.34 148.63 234.85 147.97 Z" />
<path fill="#ffffff" opacity="1.00" d=" M 284.86 145.26 C 282.10 146.08 280.80 142.82 280.11 140.74 C 281.28 141.57 282.41 142.44 283.51 143.36 C 284.72 143.92 285.93 144.47 287.16 145.03 C 286.42 145.56 284.94 146.61 284.20 147.13 L 284.86 145.26 Z" />
<path fill="#ffffff" opacity="1.00" d=" M 307.70 143.59 C 307.34 142.15 307.85 141.57 309.24 141.87 C 309.59 143.25 309.08 143.82 307.70 143.59 Z" />
<path fill="#ffffff" opacity="1.00" d=" M 211.99 143.29 C 212.62 143.89 212.62 143.89 211.99 143.29 Z" />
<path fill="#ffffff" opacity="1.00" d=" M 249.80 143.54 C 250.44 144.16 250.44 144.16 249.80 143.54 Z" />
<path fill="#ffffff" opacity="1.00" d=" M 316.92 145.84 C 318.72 144.46 320.79 143.43 323.04 143.05 C 321.38 144.61 319.29 145.96 316.92 145.84 Z" />
<path fill="#ffffff" opacity="1.00" d=" M 246.86 147.57 C 249.11 145.56 252.16 144.96 254.68 143.39 C 254.61 143.95 254.48 145.06 254.42 145.61 C 255.48 145.64 256.55 145.68 257.61 145.72 C 258.54 145.24 259.48 144.77 260.41 144.29 L 260.08 146.09 C 261.81 145.74 263.54 145.45 265.29 145.23 C 263.83 146.46 261.95 146.58 260.13 146.41 L 260.51 147.65 C 260.12 147.55 259.33 147.35 258.94 147.24 C 258.50 147.72 257.62 148.67 257.17 149.15 C 257.28 149.61 257.50 150.53 257.61 150.99 C 256.67 150.62 255.73 150.26 254.79 149.90 L 256.16 151.80 L 254.23 151.40 L 254.83 153.26 C 251.96 151.70 253.78 156.44 254.83 153.26 C 255.44 153.36 256.65 153.56 257.25 153.66 C 255.45 154.54 253.57 155.26 251.63 155.77 C 249.65 156.96 247.77 158.34 246.12 159.99 C 244.99 160.54 243.86 161.09 242.75 161.68 C 244.04 161.64 245.33 161.62 246.62 161.61 C 248.41 160.67 250.23 159.76 252.14 159.06 C 251.44 161.59 248.40 162.20 246.53 163.68 C 245.84 163.48 245.15 163.29 244.46 163.11 C 243.07 163.92 241.69 165.16 239.96 164.73 C 240.86 163.98 241.78 163.26 242.72 162.56 C 242.35 162.23 241.60 161.59 241.23 161.26 C 242.59 160.74 243.56 159.84 243.66 158.36 C 245.03 157.47 246.21 156.38 247.19 155.09 C 245.16 156.04 243.36 157.35 241.59 158.69 C 241.53 159.21 241.43 160.25 241.38 160.77 C 238.52 162.03 236.56 164.53 233.99 166.21 C 233.73 163.89 236.05 162.82 237.55 161.57 C 237.78 160.47 238.04 159.38 238.31 158.29 L 235.10 159.20 C 234.99 156.79 237.44 156.16 238.83 154.81 C 241.66 152.57 244.12 149.91 246.86 147.57 M 245.44 150.45 C 245.13 151.02 244.51 152.16 244.19 152.74 C 245.81 151.94 247.41 151.12 249.00 150.26 C 249.45 150.35 250.36 150.54 250.82 150.63 C 250.46 150.06 249.74 148.91 249.38 148.34 C 248.06 149.04 246.76 149.76 245.44 150.45 M 253.20 151.27 C 253.91 151.76 253.91 151.76 253.20 151.27 M 243.02 151.49 C 243.05 154.37 241.19 156.25 238.71 157.34 C 239.53 157.65 240.54 158.78 241.12 157.19 C 242.68 155.94 245.18 153.31 243.02 151.49 M 249.30 154.13 C 250.55 154.24 251.66 153.85 252.62 152.95 C 252.34 151.36 248.96 152.76 249.30 154.13 Z" />
<path fill="#ffffff" opacity="1.00" d=" M 292.30 143.07 C 292.89 143.61 294.06 144.71 294.65 145.25 L 296.98 145.37 C 296.48 146.02 295.48 147.31 294.98 147.95 C 296.53 145.54 299.39 146.85 301.67 146.88 L 301.32 144.85 C 301.51 145.31 301.88 146.23 302.07 146.69 C 302.52 146.56 303.42 146.31 303.87 146.18 C 303.34 146.76 302.27 147.91 301.73 148.49 C 303.79 148.70 305.79 148.32 307.69 147.55 C 307.55 147.98 307.27 148.83 307.12 149.26 C 309.89 149.41 310.70 152.74 311.81 154.81 C 309.72 153.63 307.36 150.77 304.92 152.06 C 303.69 154.42 307.01 155.51 308.76 155.84 C 306.86 157.18 305.02 158.61 303.14 159.98 C 301.75 158.39 302.83 154.76 299.89 155.21 C 300.10 156.78 300.25 158.37 300.34 159.95 C 298.62 159.15 297.12 157.90 296.51 156.04 C 295.48 157.26 294.45 158.49 293.64 159.86 C 292.63 159.73 291.63 159.60 290.63 159.48 C 290.27 157.33 290.89 154.82 293.42 154.47 C 294.84 156.92 296.37 154.87 297.41 153.45 C 299.17 152.60 302.71 154.76 303.07 152.19 C 300.39 151.03 297.32 151.02 294.51 151.68 C 292.13 149.41 291.96 146.13 292.30 143.07 Z" />
<path fill="#ffffff" opacity="1.00" d=" M 225.42 147.26 C 226.01 146.92 227.18 146.24 227.77 145.90 C 226.43 148.98 223.43 150.81 221.69 153.63 C 220.31 155.87 218.28 157.57 216.53 159.51 C 216.40 162.81 214.15 166.36 211.24 167.96 C 211.86 166.86 212.52 165.78 213.20 164.71 C 212.87 164.36 212.22 163.65 211.89 163.30 C 212.32 163.44 213.18 163.72 213.61 163.86 C 213.86 163.07 214.35 161.48 214.60 160.68 C 213.38 160.32 211.99 160.63 211.06 159.59 C 210.40 161.29 209.31 162.77 208.25 164.24 C 208.69 164.35 209.59 164.57 210.03 164.69 C 204.39 168.07 200.56 174.47 193.79 175.77 C 188.76 178.39 184.40 182.15 179.32 184.68 C 178.75 185.30 178.19 185.93 177.62 186.55 C 176.14 186.46 174.68 186.74 173.39 187.48 L 177.35 187.13 C 176.07 187.99 173.50 189.73 172.22 190.59 C 172.53 189.60 173.15 187.62 173.47 186.63 L 172.06 189.65 C 170.79 188.53 169.33 188.24 167.70 188.77 C 169.42 186.95 171.76 186.07 174.08 185.30 C 171.76 185.16 169.52 185.77 167.28 186.25 C 169.28 184.11 172.32 183.26 175.18 183.28 C 178.74 181.55 181.93 179.10 185.62 177.64 C 185.25 178.16 184.52 179.21 184.15 179.73 C 182.83 179.86 181.46 180.53 181.09 181.91 C 182.47 182.02 183.57 181.53 184.38 180.43 L 184.15 179.73 C 184.93 179.60 186.48 179.34 187.26 179.20 C 187.03 178.36 186.49 177.84 185.62 177.64 L 184.98 177.39 C 185.62 176.94 186.90 176.02 187.54 175.56 C 187.97 176.25 188.41 176.93 188.87 177.61 C 193.45 173.68 199.20 171.56 203.92 167.84 C 206.34 165.93 207.64 163.06 209.31 160.56 C 208.65 160.77 207.33 161.20 206.67 161.41 C 208.00 159.21 210.18 157.66 211.31 155.34 C 212.09 156.80 212.27 158.45 212.69 160.03 C 213.58 157.58 215.28 155.54 217.58 154.27 C 216.86 155.23 215.41 157.15 214.69 158.11 C 215.05 158.49 215.42 158.87 215.80 159.25 C 218.10 154.62 222.27 151.30 225.42 147.26 Z" />
<path fill="#ffffff" opacity="1.00" d=" M 284.93 147.02 C 286.39 146.86 287.10 147.44 287.06 148.77 C 285.61 148.91 284.90 148.32 284.93 147.02 Z" />
<path fill="#ffffff" opacity="1.00" d=" M 228.36 147.63 C 229.58 147.73 230.81 147.81 232.04 147.89 L 230.12 148.91 L 229.64 149.94 C 236.99 144.24 231.40 152.65 228.42 151.52 C 227.53 152.53 226.67 153.58 225.85 154.64 C 225.44 154.09 225.04 153.54 224.63 153.00 C 226.40 152.00 229.65 150.07 228.36 147.63 Z" />
<path fill="#ffffff" opacity="1.00" d=" M 288.79 148.44 C 289.22 149.83 289.83 151.15 290.61 152.38 C 290.51 151.50 290.30 149.75 290.20 148.88 C 291.38 149.70 292.29 150.78 293.06 152.00 C 290.98 152.37 289.40 153.88 287.36 154.34 C 287.42 156.27 285.33 158.87 287.51 160.13 C 287.32 162.00 288.79 163.57 290.17 164.65 C 291.63 164.73 293.16 163.06 294.33 164.99 C 294.93 164.08 295.53 163.18 296.13 162.27 C 296.28 163.79 297.02 166.48 294.92 166.87 C 294.16 166.50 292.64 165.75 291.88 165.38 C 291.44 165.94 291.01 166.51 290.59 167.08 L 291.84 167.75 C 291.61 168.45 291.14 169.85 290.91 170.55 C 291.88 170.49 292.86 170.44 293.84 170.38 C 293.39 171.10 292.50 172.53 292.05 173.24 C 290.40 172.95 288.75 172.62 287.21 171.97 C 286.38 170.07 288.70 169.15 290.18 169.68 C 288.50 168.43 286.83 166.93 284.55 167.20 C 284.56 166.70 284.58 165.71 284.59 165.21 C 283.02 166.66 280.44 166.51 279.53 168.76 C 278.64 167.99 277.76 167.23 276.88 166.45 C 278.26 166.30 279.64 166.12 281.01 165.90 C 280.63 165.20 279.86 163.79 279.47 163.09 L 277.72 163.39 C 277.87 166.32 275.19 163.57 273.92 163.35 C 274.51 163.07 275.69 162.51 276.29 162.23 C 276.69 162.37 277.50 162.67 277.90 162.81 C 278.17 162.44 278.71 161.69 278.98 161.32 L 277.06 161.42 C 277.43 159.27 279.90 158.28 281.62 157.42 C 281.68 157.69 281.81 158.23 281.88 158.50 L 286.30 159.31 L 283.93 157.41 C 286.32 155.00 287.26 151.44 288.79 148.44 Z" />
<path fill="#ffffff" opacity="1.00" d=" M 314.48 152.35 C 321.37 153.30 326.97 158.06 332.86 161.43 C 336.88 164.32 341.86 165.96 345.23 169.68 C 338.41 165.81 331.78 161.60 325.11 157.48 C 323.43 156.52 321.76 155.37 319.77 155.23 C 320.36 155.82 321.55 156.99 322.14 157.58 L 320.10 157.65 C 322.58 161.19 326.14 163.73 328.96 166.96 C 324.91 164.91 322.37 160.85 318.60 158.36 L 317.84 159.44 C 318.71 160.24 322.88 164.27 319.10 163.28 C 319.11 163.79 319.12 164.82 319.13 165.34 C 317.96 164.91 317.10 164.11 316.56 162.94 C 315.87 163.60 314.47 164.92 313.77 165.58 C 312.95 164.73 312.15 163.88 311.36 163.02 C 311.79 161.02 312.08 158.99 312.42 156.97 C 314.41 158.85 313.93 163.44 317.77 162.78 C 317.52 162.18 317.03 160.97 316.78 160.37 L 317.96 158.67 C 317.26 158.45 315.86 158.01 315.15 157.78 C 315.00 157.29 314.69 156.29 314.54 155.80 C 316.41 156.43 318.58 157.87 320.07 155.69 C 318.76 154.29 313.81 155.03 314.48 152.35 Z" />
<path fill="#ffffff" opacity="1.00" d=" M 200.43 163.42 C 203.56 161.17 205.27 157.05 209.07 155.84 C 207.91 158.11 205.95 159.82 204.76 162.06 C 201.47 168.24 195.02 171.67 189.28 175.21 L 189.82 172.91 C 186.29 175.43 182.14 176.82 178.51 179.16 C 175.90 180.88 172.92 181.95 169.90 182.66 C 171.52 180.00 175.43 180.08 177.61 177.85 C 177.01 177.82 175.81 177.76 175.21 177.72 C 175.05 175.76 178.23 175.65 179.53 175.20 L 178.22 177.81 C 181.41 175.80 186.18 175.33 188.16 171.91 C 187.13 172.41 186.11 172.93 185.10 173.48 C 184.54 173.50 183.41 173.52 182.85 173.54 C 181.88 175.26 179.62 174.29 178.08 174.59 L 178.51 172.15 C 179.12 172.52 180.34 173.25 180.95 173.62 C 181.89 171.06 185.46 171.12 187.25 169.39 C 184.31 169.67 181.61 171.25 178.58 170.62 L 178.41 171.59 C 176.97 171.49 175.54 171.39 174.11 171.29 C 174.43 172.13 174.74 172.98 175.05 173.83 L 173.46 173.32 C 173.37 173.63 173.19 174.25 173.11 174.56 C 173.90 174.56 175.48 174.56 176.28 174.56 L 176.80 175.83 C 175.10 176.32 173.40 176.81 171.71 177.36 C 172.27 177.55 173.39 177.94 173.95 178.14 L 173.91 178.72 C 172.37 178.97 170.70 177.62 169.17 178.82 C 167.14 179.83 164.85 179.16 162.70 179.48 L 162.24 178.13 C 161.27 178.79 160.31 179.45 159.34 180.10 C 159.30 179.69 159.22 178.85 159.18 178.43 C 159.74 178.40 160.86 178.32 161.42 178.29 L 161.31 177.01 C 159.37 177.02 157.42 177.02 155.48 177.01 C 156.25 176.51 157.79 175.51 158.55 175.01 C 157.42 175.04 155.16 175.11 154.03 175.15 L 154.02 173.57 C 155.58 173.96 157.14 174.36 158.70 174.78 L 158.55 173.20 C 160.93 173.97 163.25 175.48 165.72 173.98 C 168.52 174.16 170.94 172.41 173.74 172.54 L 173.65 171.37 C 170.35 171.82 167.11 172.59 163.85 173.24 C 161.84 172.61 160.00 171.31 157.81 171.55 C 159.68 170.81 162.71 170.96 162.54 168.21 C 162.96 168.26 163.80 168.36 164.22 168.42 C 163.83 166.37 165.55 166.10 167.02 165.73 C 168.20 164.61 169.91 164.37 171.03 163.19 C 172.06 164.10 173.21 164.88 174.36 165.66 C 173.66 165.58 172.26 165.42 171.56 165.35 C 171.56 165.94 171.56 167.14 171.56 167.74 C 173.18 167.97 174.46 169.05 175.90 169.74 C 177.84 169.80 180.03 169.66 181.61 168.38 C 181.54 168.82 181.41 169.71 181.35 170.16 C 184.45 168.98 187.20 167.10 189.95 165.29 C 190.73 166.22 191.40 167.24 191.94 168.34 C 190.75 168.95 189.86 168.65 189.28 167.46 C 188.61 167.72 187.94 167.97 187.27 168.22 C 188.11 168.83 188.94 169.44 189.76 170.08 L 187.15 170.90 C 190.12 171.35 191.97 168.01 194.94 168.03 C 193.39 167.24 191.81 166.49 190.28 165.66 C 191.92 164.49 193.61 162.29 195.79 163.63 C 196.04 163.19 196.54 162.30 196.79 161.86 C 198.08 161.00 199.36 160.12 200.55 159.12 C 201.18 159.31 202.44 159.68 203.07 159.86 C 200.58 162.41 197.55 164.37 194.49 166.16 C 194.71 166.79 195.16 168.04 195.39 168.67 C 197.14 167.13 200.96 166.39 200.43 163.42 M 161.91 178.03 C 165.43 177.17 168.90 176.07 172.41 175.18 C 168.87 175.45 164.67 175.52 161.91 178.03 Z" />
<path fill="#ffffff" opacity="1.00" d=" M 231.95 157.56 C 232.78 158.27 233.61 158.98 234.44 159.70 C 231.66 162.31 229.44 165.44 226.51 167.89 C 226.19 167.83 225.56 167.71 225.25 167.65 C 226.93 165.82 228.61 163.99 230.26 162.14 L 226.60 163.79 C 228.13 161.57 231.06 160.24 231.95 157.56 Z" />
<path fill="#ffffff" opacity="1.00" d=" M 250.03 165.75 C 253.65 163.62 257.80 162.66 261.29 160.26 C 260.22 162.59 256.18 162.51 256.54 165.58 C 254.45 166.02 252.19 166.23 250.46 167.63 C 247.77 169.70 245.93 172.75 242.90 174.40 C 242.65 172.77 244.30 172.14 245.18 171.14 C 243.82 171.71 242.46 171.75 241.11 171.27 C 241.53 169.92 240.88 166.46 243.44 167.53 C 243.71 165.38 246.52 167.02 247.85 166.66 L 247.57 165.40 C 248.19 165.49 249.42 165.66 250.03 165.75 Z" />
<path fill="#ffffff" opacity="1.00" d=" M 273.21 161.73 C 272.80 160.22 275.28 159.32 276.48 159.72 C 276.86 161.18 274.38 162.20 273.21 161.73 Z" />
<path fill="#ffffff" opacity="1.00" d=" M 257.88 164.54 C 260.01 163.38 259.69 167.63 257.71 167.02 C 257.76 166.40 257.84 165.16 257.88 164.54 Z" />
<path fill="#ffffff" opacity="1.00" d=" M 304.81 164.37 C 306.03 164.40 307.24 164.44 308.47 164.49 C 308.35 164.94 308.12 165.83 308.01 166.27 C 306.57 166.30 305.30 165.81 304.81 164.37 Z" />
<path fill="#ffffff" opacity="1.00" d=" M 310.21 164.60 C 310.77 164.81 311.88 165.22 312.43 165.42 C 315.71 166.25 311.91 171.04 309.89 168.05 C 309.97 167.19 310.13 165.47 310.21 164.60 Z" />
<path fill="#ffffff" opacity="1.00" d=" M 280.00 169.26 C 280.98 168.41 281.99 167.60 283.01 166.79 C 283.61 167.06 284.82 167.61 285.43 167.88 C 286.49 171.02 282.92 172.87 282.24 175.68 C 281.89 175.62 281.19 175.48 280.84 175.42 C 279.91 178.38 276.32 175.75 274.84 174.44 C 276.99 174.12 279.13 174.36 281.22 174.94 C 280.80 172.12 277.58 172.08 275.55 171.05 C 275.65 169.30 278.21 168.69 278.95 170.43 C 279.29 170.38 279.96 170.29 280.29 170.24 C 280.44 172.22 283.34 171.85 284.25 170.69 L 282.73 170.35 L 282.52 169.23 L 282.31 169.28 L 282.36 170.78 L 280.00 169.26 Z" />
<path fill="#ffffff" opacity="1.00" d=" M 308.77 169.51 C 310.11 169.31 310.94 170.70 311.96 171.34 C 310.93 172.51 309.48 172.73 307.97 172.42 C 309.16 173.69 311.46 174.61 311.02 176.74 C 309.02 175.26 307.12 173.55 305.81 171.41 C 306.45 171.48 307.73 171.61 308.36 171.67 C 308.46 171.13 308.67 170.05 308.77 169.51 Z" />
<path fill="#ffffff" opacity="1.00" d=" M 209.10 174.80 C 210.14 172.35 213.01 171.66 215.06 170.30 C 214.05 171.52 212.93 172.64 211.82 173.77 C 208.88 176.70 205.13 178.66 202.36 181.78 L 201.49 181.33 C 201.77 179.13 204.86 178.97 204.62 176.73 C 205.19 176.79 206.33 176.90 206.89 176.96 L 205.77 174.86 L 208.25 176.22 L 206.80 173.78 C 207.37 174.03 208.53 174.54 209.10 174.80 Z" />
<path fill="#ffffff" opacity="1.00" d=" M 201.86 175.45 C 204.38 173.64 206.78 171.68 209.23 169.77 C 209.06 170.84 208.74 172.98 208.57 174.06 C 207.98 173.79 206.78 173.26 206.18 173.00 L 207.44 175.05 L 205.06 174.22 L 206.18 175.86 C 204.72 175.86 203.25 175.91 201.86 175.45 Z" />
<path fill="#ffffff" opacity="1.00" d=" M 241.40 172.30 C 242.08 172.93 242.08 172.93 241.40 172.30 Z" />
<path fill="#ffffff" opacity="1.00" d=" M 293.18 173.74 C 293.84 171.33 296.26 172.84 297.75 173.20 C 299.65 176.02 292.82 176.81 295.90 173.04 C 295.22 173.22 293.86 173.56 293.18 173.74 Z" />
<path fill="#ffffff" opacity="1.00" d=" M 199.76 174.36 C 200.28 174.14 201.32 173.71 201.84 173.49 C 201.90 174.82 201.23 175.35 199.82 175.08 L 199.76 174.36 Z" />
<path fill="#ffffff" opacity="1.00" d=" M 284.70 175.22 C 285.08 173.98 285.82 173.26 286.92 173.05 C 287.08 173.48 287.40 174.33 287.56 174.76 C 288.44 174.20 289.32 173.64 290.19 173.07 L 290.16 174.64 L 292.50 174.02 C 291.48 178.19 287.40 174.75 284.70 175.22 Z" />
<path fill="#ffffff" opacity="1.00" d=" M 301.11 172.63 C 303.59 173.73 302.87 176.36 300.43 176.80 C 300.61 175.40 300.83 174.01 301.11 172.63 Z" />
<path fill="#ffffff" opacity="1.00" d=" M 304.11 173.27 C 307.40 173.58 302.56 176.26 304.11 173.27 Z" />
<path fill="#ffffff" opacity="1.00" d=" M 176.28 174.56 C 176.50 171.23 179.35 176.19 176.28 174.56 Z" />
<path fill="#ffffff" opacity="1.00" d=" M 194.59 178.07 C 196.41 177.44 197.89 174.79 199.82 175.08 L 200.44 175.33 C 198.85 176.46 197.24 177.56 195.68 178.74 C 193.96 177.64 192.53 179.30 191.00 179.93 C 191.91 178.30 193.38 177.09 194.66 175.75 L 194.59 178.07 Z" />
<path fill="#ffffff" opacity="1.00" d=" M 207.67 179.84 C 210.09 178.50 211.14 175.29 214.11 174.86 C 211.69 178.17 208.74 181.13 205.63 183.78 C 203.02 184.81 200.62 186.44 197.83 186.95 C 197.54 187.18 196.94 187.66 196.65 187.89 C 196.71 187.37 196.84 186.32 196.90 185.79 L 195.26 185.87 C 195.77 185.28 196.80 184.08 197.32 183.49 C 197.87 184.42 197.70 185.50 197.46 186.50 C 198.78 185.48 200.19 184.56 201.61 183.68 C 203.58 182.31 205.63 181.09 207.67 179.84 Z" />
<path fill="#ffffff" opacity="1.00" d=" M 200.83 175.70 C 201.58 176.09 202.33 176.48 203.08 176.87 C 202.31 178.52 201.32 180.04 200.11 181.42 C 199.24 180.76 198.18 180.28 197.63 179.30 L 197.56 178.38 C 199.07 177.88 200.16 176.99 200.83 175.70 Z" />
<path fill="#ffffff" opacity="1.00" d=" M 293.45 176.15 C 294.67 176.74 294.58 177.43 293.17 178.21 C 291.99 177.59 292.08 176.90 293.45 176.15 Z" />
<path fill="#ffffff" opacity="1.00" d=" M 208.02 186.44 C 210.67 183.37 213.90 180.89 216.97 178.27 C 216.13 179.91 214.92 181.36 213.20 182.14 C 214.03 182.62 214.88 183.11 215.73 183.58 C 213.73 185.02 212.17 187.13 209.74 187.88 C 210.16 187.32 210.99 186.21 211.41 185.65 C 211.56 185.49 211.86 185.18 212.01 185.02 C 212.52 184.47 212.52 184.47 212.01 185.02 C 211.86 185.18 211.56 185.49 211.41 185.65 C 210.56 185.85 208.86 186.25 208.02 186.44 Z" />
<path fill="#ffffff" opacity="1.00" d=" M 197.63 179.30 C 196.93 179.90 196.93 179.90 197.63 179.30 Z" />
<path fill="#ffffff" opacity="1.00" d=" M 197.87 180.57 C 197.89 180.98 197.93 181.80 197.95 182.20 C 196.92 182.77 195.88 183.66 194.67 183.71 C 194.68 182.21 196.32 180.53 197.87 180.57 Z" />
<path fill="#ffffff" opacity="1.00" d=" M 200.77 182.06 C 200.95 181.88 201.31 181.51 201.49 181.33 L 201.47 182.00 L 200.77 182.06 Z" />
<path fill="#ffffff" opacity="1.00" d=" M 200.77 182.06 C 200.12 182.73 200.12 182.73 200.77 182.06 Z" />
<path fill="#ffffff" opacity="1.00" d=" M 182.21 185.15 C 182.39 181.68 185.27 186.12 182.21 185.15 Z" />
<path fill="#ffffff" opacity="1.00" d=" M 185.77 184.50 C 186.31 184.45 187.38 184.35 187.92 184.30 C 185.71 186.23 183.23 187.80 180.75 189.35 C 181.13 186.57 184.03 186.10 185.77 184.50 Z" />
<path fill="#ffffff" opacity="1.00" d=" M 182.21 185.15 C 181.38 185.64 181.38 185.64 182.21 185.15 Z" />
<path fill="#ffffff" opacity="1.00" d=" M 189.32 186.71 C 190.50 186.17 191.73 185.74 192.96 185.32 C 190.95 188.23 187.92 190.32 186.24 193.49 C 185.28 194.32 184.45 195.27 183.75 196.33 C 183.36 195.68 182.97 195.02 182.60 194.37 L 182.40 195.88 C 181.65 195.18 180.90 194.47 180.16 193.76 C 180.18 193.05 180.23 191.65 180.25 190.95 L 181.29 191.62 C 181.23 190.33 181.85 189.49 183.15 189.09 C 184.79 188.40 186.42 187.69 188.05 186.98 C 187.40 187.83 186.11 189.54 185.46 190.40 C 185.39 190.48 185.25 190.64 185.18 190.72 L 185.47 190.66 L 185.46 190.40 C 187.46 190.04 188.46 188.34 189.32 186.71 Z" />
<path fill="#ffffff" opacity="1.00" d=" M 172.92 191.39 C 175.26 189.67 177.57 187.84 180.28 186.71 C 180.44 187.66 180.75 189.57 180.90 190.52 L 179.36 190.35 L 180.08 192.01 L 178.01 190.91 L 179.94 193.37 L 177.31 192.21 C 179.07 194.51 176.12 194.34 175.01 195.10 C 172.21 197.55 169.89 200.52 167.01 202.90 C 167.09 200.34 169.52 198.91 171.06 197.19 C 170.45 197.20 169.24 197.22 168.63 197.23 C 170.70 195.06 173.65 193.82 175.35 191.31 L 175.63 191.43 L 175.75 191.13 C 175.65 191.17 175.45 191.26 175.35 191.31 L 172.80 192.51 L 172.70 192.05 L 172.92 191.39 Z" />
<path fill="#ffffff" opacity="1.00" d=" M 301.93 188.76 C 301.83 188.38 301.63 187.62 301.53 187.24 C 302.50 187.96 303.47 188.68 304.44 189.41 C 303.87 189.62 302.73 190.05 302.16 190.26 C 302.53 191.11 303.03 191.89 303.66 192.61 C 303.37 193.11 303.09 193.61 302.80 194.11 C 301.85 194.15 300.96 194.44 300.15 194.93 C 299.24 193.50 298.42 192.00 298.00 190.34 C 298.59 190.96 299.76 192.20 300.35 192.82 C 301.04 191.52 300.97 190.03 300.43 188.69 C 300.80 188.71 301.55 188.74 301.93 188.76 Z" />
<path fill="#ffffff" opacity="1.00" d=" M 187.62 192.83 C 189.63 191.05 191.55 189.13 193.90 187.79 C 192.08 190.72 189.71 193.27 186.95 195.34 C 187.12 194.71 187.45 193.46 187.62 192.83 Z" />
<path fill="#ffffff" opacity="1.00" d=" M 199.67 194.69 C 201.61 191.68 204.52 189.54 207.66 187.90 C 202.60 192.52 198.57 198.06 194.49 203.52 C 192.83 205.72 191.92 208.65 189.38 210.04 C 192.06 204.49 195.44 199.19 199.67 194.69 Z" />
<path fill="#ffffff" opacity="1.00" d=" M 219.96 189.29 C 217.79 191.27 217.91 186.73 220.08 187.83 C 220.05 188.19 219.99 188.92 219.96 189.29 Z" />
<path fill="#ffffff" opacity="1.00" d=" M 170.99 189.91 C 172.39 189.78 171.58 191.44 171.12 192.00 C 170.27 192.79 169.30 193.17 168.21 193.13 C 168.19 191.64 170.03 190.84 170.99 189.91 Z" />
<path fill="#ffffff" opacity="1.00" d=" M 196.62 192.42 C 197.40 191.55 198.20 190.70 199.00 189.86 C 198.35 191.46 198.47 192.98 199.35 194.44 C 197.38 192.01 196.38 194.97 194.81 195.62 C 193.84 195.54 192.88 195.48 191.99 195.97 C 192.81 197.42 193.32 199.00 193.73 200.61 C 192.59 201.92 191.63 203.38 190.73 204.86 C 190.36 205.07 189.62 205.48 189.25 205.69 C 189.64 204.52 190.11 203.38 190.56 202.23 C 190.81 201.51 191.32 200.07 191.57 199.34 C 190.98 198.65 190.37 197.98 189.74 197.34 C 191.63 195.21 193.62 193.19 195.65 191.19 C 195.89 191.50 196.38 192.11 196.62 192.42 Z" />
<path fill="#ffffff" opacity="1.00" d=" M 198.54 202.22 C 201.78 197.64 204.93 192.85 209.54 189.49 C 209.46 190.14 209.31 191.45 209.23 192.11 L 208.67 191.81 C 207.23 192.32 205.85 193.79 206.45 195.42 L 205.27 195.03 C 202.07 200.36 199.26 205.94 195.74 211.08 C 195.37 211.26 194.65 211.61 194.29 211.79 C 195.78 208.66 198.29 205.77 198.54 202.22 Z" />
<path fill="#ffffff" opacity="1.00" d=" M 209.23 192.11 C 209.76 191.86 210.82 191.38 211.35 191.13 C 210.30 193.49 206.63 195.90 209.61 198.36 L 209.02 196.10 L 210.94 196.89 L 210.35 195.59 L 213.08 195.32 C 210.31 198.20 208.45 201.83 205.54 204.60 C 204.58 205.65 203.30 206.56 203.06 208.06 C 201.96 208.48 200.93 209.05 199.92 209.66 C 201.56 206.57 202.91 203.33 204.52 200.22 C 204.54 199.67 204.57 198.57 204.59 198.02 C 205.20 197.14 205.82 196.28 206.45 195.42 C 207.48 194.46 209.10 193.68 209.23 192.11 Z" />
<path fill="#ffffff" opacity="1.00" d=" M 171.12 192.00 C 171.52 192.01 172.31 192.04 172.70 192.05 L 172.81 192.84 C 172.39 192.80 171.56 192.72 171.14 192.68 L 171.12 192.00 Z" />
<path fill="#ffffff" opacity="1.00" d=" M 169.51 194.25 C 169.76 194.53 169.76 194.53 169.51 194.25 Z" />
<path fill="#ffffff" opacity="1.00" d=" M 197.08 194.47 C 197.64 195.26 197.64 195.26 197.08 194.47 Z" />
<path fill="#ffffff" opacity="1.00" d=" M 293.21 194.26 C 295.59 193.89 295.81 196.97 296.95 198.28 C 296.27 198.60 295.60 198.94 294.93 199.27 C 294.42 197.58 293.78 195.93 293.21 194.26 Z" />
<path fill="#ffffff" opacity="1.00" d=" M 175.03 202.09 C 176.61 199.55 178.86 196.90 181.89 196.23 C 180.95 198.96 177.64 200.86 175.03 202.09 Z" />
<path fill="#ffffff" opacity="1.00" d=" M 194.27 197.27 C 195.70 196.81 196.15 197.28 195.63 198.70 C 194.22 199.18 193.76 198.70 194.27 197.27 Z" />
<path fill="#ffffff" opacity="1.00" d=" M 211.52 203.76 C 211.69 200.71 214.27 197.47 217.18 196.69 C 216.30 198.44 215.40 200.17 214.49 201.90 C 216.31 200.18 217.89 198.18 219.95 196.73 C 218.95 199.35 216.70 201.13 215.15 203.39 C 214.80 203.44 214.11 203.54 213.76 203.59 C 211.62 206.61 209.82 209.86 207.80 212.96 C 207.54 214.14 207.50 215.54 206.26 216.17 C 205.96 211.81 209.54 208.49 211.23 204.73 C 211.00 204.37 210.54 203.67 210.30 203.31 L 211.52 203.76 Z" />
<path fill="#ffffff" opacity="1.00" d=" M 292.00 197.06 C 293.67 198.70 294.91 200.70 296.12 202.69 L 292.97 200.89 C 293.87 202.18 295.66 204.74 296.55 206.03 C 295.90 205.83 294.59 205.44 293.93 205.25 C 294.38 206.11 295.28 207.84 295.73 208.71 C 294.52 207.82 293.44 206.78 292.34 205.77 C 293.06 205.23 293.77 204.69 294.48 204.13 C 293.37 203.66 292.62 202.85 292.22 201.70 C 293.14 200.22 292.09 198.60 292.00 197.06 Z" />
<path fill="#ffffff" opacity="1.00" d=" M 212.01 214.98 C 215.09 209.88 216.44 203.59 221.29 199.72 C 220.96 200.64 220.30 202.49 219.97 203.41 C 220.46 202.68 221.44 201.23 221.93 200.50 L 223.89 200.56 C 222.56 202.53 221.39 205.05 218.88 205.70 C 217.82 207.62 216.68 209.50 215.03 210.97 C 213.74 212.09 213.63 214.21 212.01 214.98 Z" />
<path fill="#ffffff" opacity="1.00" d=" M 296.28 199.60 C 298.67 198.67 297.77 202.26 296.01 200.17 L 296.28 199.60 Z" />
<path fill="#ffffff" opacity="1.00" d=" M 224.20 204.23 C 224.71 203.43 225.24 202.64 225.78 201.87 C 225.56 202.64 225.10 204.18 224.88 204.95 C 225.58 204.83 226.98 204.60 227.68 204.49 C 226.79 205.97 226.43 207.96 224.80 208.85 C 225.20 209.47 225.60 210.09 226.01 210.71 L 226.93 207.68 C 226.88 208.45 226.77 209.99 226.72 210.76 C 225.33 210.73 223.94 210.59 222.55 210.54 C 221.33 208.24 223.04 206.15 224.20 204.23 Z" />
</g>
</svg>
