<?xml version="1.0" encoding="UTF-8" ?>
<!DOCTYPE svg PUBLIC "-//W3C//DTD SVG 1.1//EN" "http://www.w3.org/Graphics/SVG/1.1/DTD/svg11.dtd">
<svg width="512pt" height="256pt" viewBox="0 0 512 256" version="1.1" xmlns="http://www.w3.org/2000/svg">
<g id="#ffffffff">
<path fill="#ffffff" opacity="1.00" d=" M 235.45 13.10 C 235.73 13.08 236.28 13.04 236.56 13.02 C 238.58 16.66 237.51 20.81 238.03 24.74 C 237.31 24.43 235.87 23.82 235.15 23.51 C 235.82 20.05 236.91 16.52 235.45 13.10 Z" />
<path fill="#ffffff" opacity="1.00" d=" M 239.88 18.98 C 239.75 17.27 239.10 15.58 239.41 13.86 C 239.58 14.91 239.93 17.02 240.10 18.08 C 241.46 16.77 242.33 15.04 243.77 13.81 C 240.72 16.93 241.98 21.79 238.96 24.75 C 238.76 22.76 239.64 20.92 239.88 18.98 Z" />
<path fill="#ffffff" opacity="1.00" d=" M 245.31 19.93 C 246.49 18.83 247.79 17.86 249.20 17.08 C 248.62 18.79 247.27 20.01 246.03 21.24 C 246.20 21.87 246.36 22.49 246.54 23.12 C 243.01 23.89 246.85 25.82 248.31 25.40 L 246.26 26.03 C 247.42 27.10 248.70 27.93 250.07 26.52 C 248.74 28.32 246.97 29.74 244.78 30.31 C 245.03 29.45 245.52 27.74 245.77 26.88 L 243.11 27.96 C 243.03 27.51 242.85 26.61 242.77 26.16 L 242.43 25.39 C 243.57 23.98 244.67 22.53 245.43 20.87 C 244.03 21.79 242.68 22.79 241.24 23.64 C 241.27 20.68 242.75 18.12 244.34 15.74 C 244.18 17.27 244.50 18.67 245.31 19.93 Z" />
<path fill="#ffffff" opacity="1.00" d=" M 229.27 17.78 C 232.96 19.10 232.39 23.86 232.59 27.03 C 232.40 26.35 232.03 25.00 231.84 24.32 C 231.48 24.47 230.77 24.75 230.41 24.89 C 230.46 22.46 230.01 20.08 229.27 17.78 Z" />
<path fill="#ffffff" opacity="1.00" d=" M 226.16 21.20 C 228.97 20.38 228.55 24.05 229.40 25.73 C 230.14 27.50 228.82 29.13 228.29 30.75 C 227.95 30.66 227.29 30.47 226.96 30.38 C 227.42 27.27 226.82 24.22 226.16 21.20 Z" />
<path fill="#ffffff" opacity="1.00" d=" M 221.74 26.67 C 222.73 26.51 223.71 26.35 224.70 26.20 C 224.85 28.11 224.76 30.59 222.30 30.89 C 222.55 32.90 224.14 35.24 222.58 37.04 C 220.98 33.88 220.09 30.44 219.69 26.93 C 220.16 27.73 221.10 29.32 221.57 30.11 C 221.61 28.96 221.67 27.82 221.74 26.67 Z" />
<path fill="#ffffff" opacity="1.00" d=" M 249.91 31.97 C 251.12 29.49 251.17 26.46 253.26 24.46 L 253.16 26.85 L 255.92 25.80 C 255.47 27.46 254.52 28.76 253.07 29.70 C 254.68 29.77 257.83 28.85 257.80 31.47 C 259.77 30.78 261.85 30.66 263.93 30.65 C 260.86 32.09 257.81 33.55 254.81 35.11 C 255.37 34.31 256.50 32.72 257.06 31.92 C 255.29 33.39 252.06 34.79 251.00 31.79 L 249.91 31.97 Z" />
<path fill="#ffffff" opacity="1.00" d=" M 190.97 29.94 C 193.92 32.74 196.84 35.72 199.13 39.06 C 198.84 39.16 198.28 39.35 198.00 39.45 C 195.87 36.14 191.91 33.85 190.97 29.94 Z" />
<path fill="#ffffff" opacity="1.00" d=" M 198.93 30.17 C 199.70 30.72 200.46 31.27 201.24 31.82 C 201.06 35.46 204.97 37.29 205.57 40.69 C 203.65 38.99 198.22 38.00 199.83 34.62 C 199.54 33.14 199.24 31.65 198.93 30.17 Z" />
<path fill="#ffffff" opacity="1.00" d=" M 204.10 30.56 C 204.76 30.52 206.09 30.45 206.76 30.41 L 205.52 32.39 C 207.02 32.63 208.19 32.07 209.05 30.72 C 209.78 30.79 210.51 30.87 211.25 30.95 C 210.00 31.87 207.21 32.94 209.29 34.98 C 208.80 35.28 207.82 35.86 207.33 36.15 C 206.01 34.43 204.95 32.54 204.10 30.56 Z" />
<path fill="#ffffff" opacity="1.00" d=" M 215.37 30.31 L 216.94 30.19 C 218.09 33.19 220.08 36.72 218.91 39.95 C 218.64 37.46 217.40 35.60 215.19 34.36 C 215.64 35.53 216.53 37.87 216.97 39.03 C 216.25 39.16 215.53 39.28 214.81 39.38 L 215.29 37.92 L 213.14 38.88 C 213.38 38.04 213.84 36.35 214.07 35.50 C 212.94 36.29 211.96 37.28 210.98 38.24 C 212.34 39.74 212.32 41.74 212.37 43.62 L 211.17 43.62 C 210.99 42.92 210.62 41.52 210.43 40.82 C 210.70 44.04 210.92 47.32 209.37 50.30 C 207.67 48.88 207.76 46.54 207.15 44.61 C 206.45 45.12 205.76 45.64 205.07 46.17 C 206.11 48.12 207.46 49.87 208.79 51.62 C 207.16 51.53 205.67 52.14 204.22 52.77 C 203.21 51.51 202.30 50.17 201.63 48.70 C 202.66 49.17 204.71 50.11 205.73 50.58 C 204.63 49.14 203.59 47.65 202.62 46.11 L 204.98 46.78 C 204.16 45.59 204.14 44.53 204.93 43.59 L 204.89 42.00 C 206.66 39.91 207.79 43.43 209.23 44.14 C 208.39 42.19 205.80 40.13 208.38 38.34 C 208.82 38.80 209.69 39.72 210.13 40.17 C 209.81 39.49 209.17 38.12 208.85 37.44 C 210.53 36.83 212.17 36.17 213.84 35.55 C 213.48 35.04 212.76 34.02 212.40 33.52 C 212.99 33.79 214.18 34.34 214.77 34.62 L 214.68 30.80 C 215.36 32.08 216.01 33.38 216.68 34.67 C 216.78 33.09 216.10 31.67 215.37 30.31 Z" />
<path fill="#ffffff" opacity="1.00" d=" M 260.91 34.93 C 262.44 31.44 267.22 32.58 270.27 31.29 C 267.67 33.39 263.93 33.53 260.91 34.93 Z" />
<path fill="#ffffff" opacity="1.00" d=" M 185.98 32.61 C 186.90 32.98 187.83 33.35 188.77 33.71 L 188.46 32.03 C 188.97 32.42 189.99 33.20 190.51 33.59 C 189.39 33.97 188.27 34.35 187.18 34.80 C 187.71 35.37 188.77 36.51 189.30 37.08 C 187.91 36.21 186.60 35.23 185.29 34.26 C 185.52 33.71 185.75 33.16 185.98 32.61 Z" />
<path fill="#ffffff" opacity="1.00" d=" M 270.28 34.32 C 272.66 34.82 275.64 32.41 277.56 34.51 C 274.85 34.95 272.22 35.74 269.73 36.89 C 268.88 36.50 268.04 36.11 267.20 35.73 C 266.03 36.09 264.86 36.43 263.69 36.77 C 264.45 34.09 268.04 34.18 270.28 34.32 Z" />
<path fill="#ffffff" opacity="1.00" d=" M 311.00 34.09 C 311.73 34.37 312.46 34.67 313.18 34.99 C 312.38 37.26 310.88 39.28 308.73 40.42 C 308.05 38.29 311.28 36.52 311.00 34.09 Z" />
<path fill="#ffffff" opacity="1.00" d=" M 182.87 34.96 C 186.23 36.84 190.25 38.29 192.26 41.81 C 190.68 40.93 189.07 40.10 187.45 39.32 C 187.36 39.37 187.19 39.46 187.10 39.51 L 187.45 39.32 C 188.74 41.93 191.97 42.58 194.14 44.30 C 193.69 44.22 192.78 44.06 192.33 43.98 C 192.56 45.23 193.31 45.91 194.58 46.03 C 194.47 45.60 194.25 44.73 194.14 44.30 L 194.99 43.92 L 194.80 45.14 L 195.83 45.03 L 194.87 46.93 L 196.71 46.43 L 196.69 47.12 C 198.29 47.74 198.58 49.46 199.15 50.86 C 198.87 51.38 198.30 52.42 198.01 52.94 C 199.47 53.30 200.22 54.85 198.40 55.32 C 197.19 54.44 196.01 53.50 194.88 52.52 C 194.04 53.61 193.31 54.77 192.61 55.94 C 194.76 55.91 196.83 56.51 198.77 57.39 C 198.55 58.21 198.30 59.02 198.04 59.82 C 195.16 59.42 193.20 56.96 190.31 56.63 C 190.48 55.24 191.89 54.76 192.78 53.92 C 189.96 56.06 187.98 52.69 185.52 51.96 C 183.52 51.48 181.38 51.48 179.57 50.38 C 180.49 50.35 182.34 50.29 183.26 50.26 C 179.99 47.60 175.17 48.74 171.20 48.44 C 171.48 47.65 171.75 46.86 172.03 46.07 C 172.95 46.00 174.79 45.88 175.70 45.81 C 175.28 45.36 174.43 44.44 174.01 43.99 C 177.37 45.17 180.80 46.31 183.80 48.30 C 186.59 49.37 189.40 50.47 191.92 52.11 C 192.44 51.84 192.97 51.56 193.49 51.28 C 189.51 48.41 185.02 46.56 180.60 44.53 C 181.37 43.99 182.14 43.45 182.90 42.90 C 182.23 42.79 180.88 42.57 180.21 42.45 C 180.65 42.09 181.53 41.38 181.97 41.02 L 180.71 39.70 L 180.74 37.97 C 181.86 38.62 182.99 39.28 184.10 39.95 C 185.01 39.29 186.00 38.76 187.06 38.37 C 185.52 37.42 184.04 36.35 182.87 34.96 M 183.02 45.51 C 183.94 45.43 185.77 45.28 186.69 45.20 C 189.04 46.58 191.52 47.76 194.17 48.47 C 191.31 45.53 187.31 43.01 183.08 43.38 C 183.07 43.91 183.04 44.97 183.02 45.51 Z" />
<path fill="#ffffff" opacity="1.00" d=" M 189.25 37.40 C 189.73 36.41 190.22 35.43 190.75 34.47 C 191.45 35.40 192.86 37.25 193.56 38.18 L 193.70 35.74 C 193.96 36.64 194.22 37.54 194.47 38.44 C 197.84 39.34 200.22 42.59 202.00 45.46 L 200.14 45.20 L 200.67 47.28 C 198.27 45.87 196.26 43.84 195.11 41.29 C 193.20 39.92 191.38 38.42 189.25 37.40 Z" />
<path fill="#ffffff" opacity="1.00" d=" M 205.19 36.45 C 205.84 37.05 205.84 37.05 205.19 36.45 Z" />
<path fill="#ffffff" opacity="1.00" d=" M 271.55 37.48 C 274.76 37.12 278.59 36.32 281.30 38.59 C 278.36 38.57 275.40 38.64 272.58 39.56 C 275.04 39.57 277.46 39.97 279.83 40.59 C 279.80 40.80 279.74 41.22 279.71 41.43 C 275.43 40.35 271.00 41.77 267.48 44.26 C 265.51 45.69 264.10 47.96 261.62 48.57 C 262.02 47.91 262.83 46.59 263.23 45.92 C 262.89 45.52 262.55 45.13 262.20 44.73 C 261.12 45.84 259.91 46.77 258.57 47.53 C 258.52 45.78 259.42 44.24 259.86 42.60 C 260.24 42.32 260.99 41.74 261.37 41.45 C 264.16 41.82 266.62 39.99 269.45 40.37 C 267.47 41.29 265.41 42.06 263.38 42.85 C 263.88 43.32 264.39 43.79 264.91 44.26 C 266.17 42.45 268.53 42.31 270.40 41.50 C 270.08 40.00 270.98 38.76 271.55 37.48 Z" />
<path fill="#ffffff" opacity="1.00" d=" M 300.71 37.40 L 302.72 36.93 C 302.40 39.40 300.36 41.04 299.50 43.28 C 298.24 42.67 297.33 41.68 296.79 40.31 L 298.59 40.62 L 298.38 39.38 C 298.91 39.31 299.97 39.16 300.51 39.09 C 300.56 38.67 300.66 37.82 300.71 37.40 Z" />
<path fill="#ffffff" opacity="1.00" d=" M 303.43 39.27 C 303.12 37.84 303.63 37.22 304.97 37.41 C 305.28 38.86 304.77 39.48 303.43 39.27 Z" />
<path fill="#ffffff" opacity="1.00" d=" M 199.13 39.06 C 200.91 38.58 203.19 40.74 202.86 42.46 C 201.25 42.50 199.32 40.62 199.13 39.06 Z" />
<path fill="#ffffff" opacity="1.00" d=" M 310.11 41.64 C 311.33 40.54 312.52 39.35 314.07 38.71 C 314.52 40.81 312.60 41.75 311.31 42.91 C 312.08 43.06 313.62 43.37 314.39 43.52 C 312.59 45.83 311.16 43.19 310.11 41.64 Z" />
<path fill="#ffffff" opacity="1.00" d=" M 291.15 40.54 C 292.27 40.51 293.40 40.47 294.53 40.43 C 295.22 41.68 295.98 42.91 296.23 44.35 C 294.41 43.25 292.80 41.86 291.15 40.54 Z" />
<path fill="#ffffff" opacity="1.00" d=" M 287.54 41.04 C 289.30 42.45 291.23 43.81 292.08 46.00 C 290.64 45.81 289.33 45.26 288.16 44.36 C 288.29 45.01 288.56 46.32 288.70 46.97 C 287.63 46.23 286.56 45.48 285.50 44.73 C 285.74 43.87 285.98 43.01 286.23 42.15 L 287.98 43.10 L 287.54 41.04 Z" />
<path fill="#ffffff" opacity="1.00" d=" M 302.30 41.32 C 303.35 41.29 304.38 41.26 305.44 41.24 C 305.05 43.05 303.81 45.12 301.65 44.87 C 300.29 46.31 298.36 46.27 296.54 46.30 C 296.75 45.65 296.97 45.01 297.18 44.36 C 297.44 44.77 297.96 45.58 298.22 45.99 C 299.62 44.47 300.96 42.89 302.30 41.32 Z" />
<path fill="#ffffff" opacity="1.00" d=" M 272.74 45.80 C 272.72 44.70 272.70 43.60 272.68 42.50 C 274.37 44.33 276.82 43.34 278.92 43.45 C 278.32 44.67 277.72 45.89 277.14 47.12 C 278.51 46.43 279.89 45.75 281.27 45.06 C 278.79 49.50 274.23 52.49 270.23 55.51 C 269.64 55.07 269.05 54.63 268.47 54.18 C 271.65 53.68 272.87 50.58 274.07 48.05 C 271.23 49.86 269.69 53.22 266.39 54.42 C 266.46 54.76 266.60 55.45 266.67 55.79 C 264.82 55.76 265.00 53.86 264.73 52.54 L 267.01 53.04 C 266.70 52.64 266.09 51.85 265.79 51.45 C 266.68 50.70 267.56 49.93 268.43 49.14 C 271.23 48.85 272.29 45.80 274.79 44.81 L 274.58 46.90 C 275.76 46.17 276.94 45.46 278.12 44.74 C 276.58 44.48 275.05 44.24 273.54 43.83 L 272.74 45.80 Z" />
<path fill="#ffffff" opacity="1.00" d=" M 231.64 43.48 C 234.79 45.81 234.93 49.67 234.90 53.23 C 232.07 50.96 231.72 46.85 231.64 43.48 Z" />
<path fill="#ffffff" opacity="1.00" d=" M 270.08 44.37 C 270.53 44.87 270.99 45.38 271.45 45.89 C 268.48 46.81 266.75 49.46 264.41 51.28 C 264.21 50.71 263.81 49.58 263.62 49.01 C 265.52 47.14 267.87 45.83 270.08 44.37 Z" />
<path fill="#ffffff" opacity="1.00" d=" M 306.20 46.49 C 307.43 46.07 309.36 47.69 309.09 49.02 C 307.53 51.11 305.54 48.11 306.20 46.49 Z" />
<path fill="#ffffff" opacity="1.00" d=" M 309.19 45.98 C 310.57 45.72 311.17 46.28 311.01 47.66 C 309.63 47.91 309.02 47.35 309.19 45.98 Z" />
<path fill="#ffffff" opacity="1.00" d=" M 242.28 47.87 C 243.37 49.60 244.54 51.27 245.57 53.04 C 244.62 53.56 243.66 54.06 242.68 54.53 C 242.50 52.31 242.40 50.09 242.28 47.87 Z" />
<path fill="#ffffff" opacity="1.00" d=" M 277.81 51.75 C 278.53 50.44 280.26 48.70 281.88 49.17 C 281.86 50.17 281.28 50.89 280.13 51.31 L 279.39 51.85 C 279.00 51.82 278.20 51.77 277.81 51.75 Z" />
<path fill="#ffffff" opacity="1.00" d=" M 169.76 51.20 C 171.02 49.36 173.22 50.27 174.95 50.51 C 178.46 51.05 181.55 52.89 184.49 54.78 C 186.11 54.93 187.75 55.10 189.26 55.79 C 190.44 58.12 193.24 58.82 195.11 60.48 C 196.15 60.74 197.19 60.99 198.24 61.22 L 197.28 63.13 C 198.47 63.16 199.66 63.20 200.85 63.24 C 200.78 62.63 200.64 61.42 200.57 60.81 L 201.46 59.93 C 201.44 59.47 201.40 58.56 201.38 58.10 C 202.00 57.94 203.22 57.64 203.83 57.49 C 205.16 60.25 207.56 62.57 207.87 65.74 C 206.11 64.94 204.37 64.11 202.65 63.24 C 204.24 65.27 205.85 67.32 207.68 69.15 C 206.40 69.53 205.13 69.90 203.86 70.26 C 202.50 69.41 201.60 68.00 200.17 67.25 C 200.60 67.28 201.47 67.35 201.90 67.38 C 201.13 66.12 200.39 64.85 199.66 63.57 C 197.27 64.36 194.78 64.56 192.30 64.11 C 192.31 63.70 192.35 62.88 192.37 62.46 C 192.08 62.58 191.49 62.80 191.20 62.91 L 191.57 61.22 C 189.81 61.16 184.82 63.64 185.38 60.38 C 186.62 59.95 187.89 59.62 189.14 59.21 C 187.29 59.12 185.36 59.55 183.56 58.92 C 184.20 57.70 185.36 57.18 187.04 57.37 C 185.17 57.44 183.30 57.59 181.43 57.44 L 181.55 56.37 C 181.90 56.10 182.60 55.56 182.95 55.29 C 180.34 55.69 178.32 53.88 176.42 52.41 C 174.19 52.04 171.97 51.66 169.76 51.20 Z" />
<path fill="#ffffff" opacity="1.00" d=" M 225.52 50.69 C 228.54 53.75 229.77 58.29 230.73 62.39 C 229.60 64.12 226.95 63.37 225.97 61.94 C 225.06 60.51 227.49 58.66 225.47 57.74 C 225.43 58.36 225.36 59.58 225.32 60.20 C 224.78 59.97 223.71 59.52 223.17 59.30 C 225.53 58.08 225.58 56.00 224.73 53.67 C 226.04 53.06 225.84 51.87 225.52 50.69 Z" />
<path fill="#ffffff" opacity="1.00" d=" M 298.41 52.90 C 299.59 52.36 300.72 51.68 301.96 51.27 C 303.65 51.68 305.55 52.52 307.08 51.19 C 307.38 51.43 307.98 51.92 308.28 52.16 C 307.24 52.75 306.20 53.36 305.20 54.02 C 303.94 52.82 302.60 52.57 301.40 53.92 L 303.12 55.12 C 301.26 55.13 299.85 53.88 298.41 52.90 Z" />
<path fill="#ffffff" opacity="1.00" d=" M 279.39 51.85 C 280.42 51.61 282.49 51.14 283.52 50.90 C 282.75 51.79 281.22 53.57 280.46 54.46 L 280.05 54.62 C 280.15 54.58 280.36 54.50 280.46 54.46 C 282.12 54.12 284.46 51.25 285.07 54.23 C 283.70 54.83 282.36 55.47 281.01 56.10 L 283.12 57.00 C 280.06 59.58 275.89 58.25 272.28 58.71 C 270.14 58.65 267.58 59.70 265.97 57.64 C 269.31 55.92 273.27 55.24 275.95 52.39 C 276.52 53.07 277.08 53.76 277.64 54.46 C 278.29 54.00 279.58 53.08 280.23 52.62 L 279.39 51.85 Z" />
<path fill="#ffffff" opacity="1.00" d=" M 292.04 52.25 C 293.17 52.40 294.31 52.57 295.44 52.74 C 297.12 54.43 299.31 55.40 301.37 56.52 C 300.98 56.81 300.22 57.39 299.84 57.68 C 296.82 56.63 294.24 54.52 292.04 52.25 Z" />
<path fill="#ffffff" opacity="1.00" d=" M 166.77 52.19 C 167.83 52.45 169.97 52.97 171.03 53.23 C 171.77 53.22 173.24 53.19 173.97 53.17 C 175.77 54.78 177.88 55.97 179.79 57.43 C 181.05 57.96 183.53 57.85 182.90 59.93 C 180.14 60.62 177.11 59.35 174.25 59.31 L 174.44 60.93 L 176.89 61.04 C 175.58 61.96 174.26 62.87 173.00 63.88 C 171.20 64.69 169.38 65.48 167.56 66.24 C 168.17 65.47 169.37 63.93 169.97 63.16 C 167.04 64.59 163.90 63.60 160.90 63.00 C 162.31 61.39 164.52 60.30 165.05 58.08 C 165.18 58.41 165.45 59.09 165.59 59.42 C 168.45 59.15 171.32 59.46 174.18 59.60 L 174.03 57.43 C 174.76 57.49 176.21 57.61 176.93 57.67 C 176.09 57.29 175.24 56.90 174.41 56.50 C 172.81 56.44 171.21 56.40 169.62 56.41 C 168.39 55.21 167.58 53.68 166.77 52.19 Z" />
<path fill="#ffffff" opacity="1.00" d=" M 203.61 52.50 C 205.32 53.43 206.77 54.73 207.97 56.26 C 207.19 56.46 205.63 56.86 204.85 57.06 C 203.84 55.70 203.43 54.18 203.61 52.50 Z" />
<path fill="#ffffff" opacity="1.00" d=" M 229.13 53.22 C 230.31 53.30 231.50 53.37 232.70 53.44 C 233.15 55.13 233.61 56.81 234.01 58.51 C 237.26 57.74 236.37 62.37 236.81 64.30 C 235.86 62.58 235.61 60.44 234.13 59.04 C 234.35 61.35 234.54 63.68 234.06 65.97 C 234.58 67.02 235.09 68.07 235.61 69.13 C 234.47 70.47 234.11 72.19 233.69 73.85 C 233.28 73.68 232.47 73.34 232.07 73.16 C 231.77 71.48 231.47 69.80 231.20 68.11 L 232.99 67.65 C 232.07 62.72 231.66 57.68 229.13 53.22 Z" />
<path fill="#ffffff" opacity="1.00" d=" M 260.61 54.07 C 261.87 53.50 263.13 52.94 264.40 52.38 C 263.89 53.62 262.87 54.85 263.60 56.30 C 262.21 56.98 260.78 57.62 259.25 57.88 C 260.09 56.74 260.55 55.47 260.61 54.07 Z" />
<path fill="#ffffff" opacity="1.00" d=" M 206.46 52.05 C 210.92 54.11 210.69 59.51 212.81 63.27 C 208.50 61.34 209.88 55.04 206.46 52.05 Z" />
<path fill="#ffffff" opacity="1.00" d=" M 291.46 54.28 C 293.03 56.55 295.25 58.17 297.73 59.32 C 297.71 59.67 297.68 60.39 297.66 60.74 C 296.91 60.26 295.41 59.28 294.67 58.80 C 294.96 59.69 295.54 61.46 295.83 62.35 C 293.66 61.57 293.21 58.96 291.57 57.51 C 291.55 56.43 291.51 55.36 291.46 54.28 Z" />
<path fill="#ffffff" opacity="1.00" d=" M 211.99 55.30 C 213.36 55.03 213.85 55.58 213.45 56.95 C 212.05 57.24 211.57 56.69 211.99 55.30 Z" />
<path fill="#ffffff" opacity="1.00" d=" M 282.07 56.04 C 284.51 54.35 286.92 54.76 288.88 56.73 C 288.53 56.98 287.83 57.49 287.49 57.75 C 286.41 59.51 289.11 58.73 290.09 58.81 C 292.11 58.44 291.02 61.15 290.57 61.92 C 291.05 61.98 292.01 62.08 292.49 62.13 C 291.79 64.04 293.22 65.30 294.45 66.53 C 293.33 66.23 291.10 65.63 289.98 65.33 C 291.85 66.98 294.34 68.02 295.60 70.29 C 293.57 69.86 291.78 68.79 289.95 67.89 C 290.77 70.49 293.07 71.88 295.03 73.52 C 294.46 73.71 293.31 74.08 292.73 74.27 L 293.07 73.29 C 291.98 72.58 290.92 71.83 289.87 71.07 C 289.10 70.35 288.27 69.70 287.39 69.12 C 286.28 68.31 285.17 67.49 284.07 66.67 L 283.63 66.31 C 282.95 67.38 282.38 68.67 281.17 69.23 C 277.72 68.06 274.33 66.47 271.23 64.52 C 271.54 65.21 272.17 66.60 272.48 67.29 C 271.19 66.64 269.91 65.96 268.62 65.31 C 268.13 64.32 267.76 63.08 266.38 63.05 C 266.51 63.61 266.77 64.73 266.90 65.28 C 266.44 65.22 265.53 65.09 265.07 65.02 C 264.77 63.57 264.13 60.81 262.12 61.53 C 262.06 61.88 261.93 62.58 261.87 62.92 L 261.37 63.02 C 260.04 61.97 258.80 60.83 257.78 59.49 C 259.57 59.50 261.36 59.60 263.15 59.82 C 263.29 59.42 263.56 58.62 263.70 58.22 C 265.80 59.73 267.84 61.31 269.74 63.06 C 269.82 62.47 269.99 61.28 270.07 60.68 C 270.72 61.25 272.02 62.38 272.67 62.94 C 272.76 62.27 272.92 60.92 273.01 60.24 C 277.20 60.27 280.09 63.63 283.82 65.01 C 283.12 64.20 282.41 63.40 281.69 62.61 C 280.16 61.99 278.29 61.72 277.58 60.00 C 278.81 60.24 280.06 60.51 281.31 60.75 C 281.67 60.23 282.41 59.20 282.78 58.68 C 283.39 58.49 284.62 58.10 285.23 57.91 C 286.65 56.99 282.70 56.82 282.07 56.04 M 282.96 60.65 C 283.70 61.32 285.02 62.70 286.06 61.93 C 286.15 61.56 286.34 60.82 286.43 60.45 C 285.61 59.69 283.28 59.20 282.96 60.65 Z" />
<path fill="#ffffff" opacity="1.00" d=" M 250.95 59.85 C 252.94 59.15 254.40 57.58 256.04 56.34 L 256.84 57.11 C 255.85 59.03 254.48 60.75 252.81 62.11 C 253.19 62.62 253.58 63.12 253.97 63.62 C 253.13 64.44 252.28 65.25 251.44 66.06 C 251.30 65.22 251.19 64.39 251.08 63.55 C 248.89 65.85 246.26 67.71 243.26 68.79 C 244.43 64.38 251.02 64.84 250.95 59.85 Z" />
<path fill="#ffffff" opacity="1.00" d=" M 207.12 57.89 C 209.05 60.29 210.65 63.08 210.97 66.20 C 208.45 64.18 207.88 60.83 207.12 57.89 Z" />
<path fill="#ffffff" opacity="1.00" d=" M 219.01 59.89 C 220.85 60.92 222.95 61.81 224.04 63.73 C 223.36 64.32 222.69 64.91 222.02 65.50 C 221.15 63.56 220.05 61.75 219.01 59.89 Z" />
<path fill="#ffffff" opacity="1.00" d=" M 170.93 66.03 C 174.13 63.48 177.98 61.78 182.14 61.99 C 182.49 62.38 183.19 63.16 183.54 63.55 L 184.62 62.48 C 184.71 63.04 184.89 64.16 184.98 64.72 C 185.83 64.68 187.55 64.59 188.41 64.54 C 189.58 65.21 190.92 65.24 192.23 65.31 C 193.06 66.14 193.89 66.98 194.72 67.82 C 192.55 69.67 189.81 71.39 186.92 69.98 C 185.80 70.33 184.67 70.67 183.55 71.01 C 184.05 69.80 184.63 68.62 185.30 67.48 C 184.45 67.85 182.77 68.58 181.92 68.94 L 182.58 66.92 L 184.41 65.77 C 183.95 65.42 183.50 65.08 183.04 64.74 C 181.76 66.63 179.88 67.92 177.86 68.90 C 177.85 66.91 179.87 66.14 181.08 64.91 C 177.79 65.59 173.87 69.31 170.93 66.03 Z" />
<path fill="#ffffff" opacity="1.00" d=" M 212.78 67.04 C 213.76 65.47 214.77 63.84 216.46 62.95 C 216.34 63.85 216.10 65.65 215.98 66.56 C 216.59 66.02 217.81 64.95 218.42 64.42 C 219.12 65.57 219.67 66.81 220.28 68.02 C 220.61 67.78 221.29 67.31 221.62 67.07 C 221.44 67.48 221.09 68.31 220.91 68.72 L 223.93 68.46 L 222.20 65.43 C 222.79 65.57 223.97 65.86 224.56 66.00 C 225.17 67.55 225.89 69.09 227.03 70.34 C 226.36 68.17 225.18 66.21 224.06 64.25 C 226.03 65.05 228.00 65.85 229.98 66.62 L 229.58 63.85 C 230.19 64.68 231.40 66.33 232.01 67.16 C 230.75 68.01 229.51 68.88 228.27 69.73 C 228.28 70.49 228.29 71.24 228.31 72.00 C 228.52 71.41 228.93 70.24 229.14 69.65 C 231.79 68.38 230.93 72.61 231.52 74.05 C 231.18 74.55 230.50 75.55 230.16 76.05 C 230.29 77.64 229.79 78.93 228.66 79.93 C 229.08 80.53 229.50 81.14 229.93 81.75 C 230.53 80.73 231.73 78.71 232.33 77.69 C 232.49 78.93 233.10 79.81 234.16 80.34 L 234.60 78.46 C 238.32 79.43 239.10 73.43 242.99 74.31 C 242.02 76.75 239.81 78.24 237.50 79.24 C 238.11 79.64 238.73 80.03 239.35 80.42 C 240.93 78.66 242.25 76.69 243.33 74.58 C 243.69 74.86 244.39 75.43 244.74 75.71 C 244.94 75.14 245.34 73.99 245.54 73.42 C 245.88 73.44 246.55 73.49 246.89 73.52 C 247.73 71.61 249.71 70.56 251.79 70.89 C 251.05 72.68 249.21 73.14 247.55 73.65 C 247.26 75.13 246.93 76.60 246.61 78.07 C 246.18 77.93 245.30 77.67 244.87 77.53 C 244.50 77.96 243.76 78.82 243.40 79.26 C 241.99 80.07 240.78 81.16 239.71 82.38 C 238.44 82.75 237.13 83.04 235.80 83.00 L 237.46 82.07 C 236.36 80.15 234.87 81.06 233.47 82.21 C 233.04 81.68 232.60 81.15 232.17 80.63 C 231.32 83.65 228.43 85.27 225.99 86.88 C 226.45 85.50 227.14 84.22 228.17 83.16 C 227.84 82.46 227.50 81.76 227.16 81.06 C 222.57 80.93 227.13 87.91 222.73 87.43 C 222.17 88.55 221.64 89.68 221.12 90.82 L 219.55 90.90 C 220.01 91.51 220.47 92.12 220.94 92.73 C 222.63 93.00 224.32 93.30 226.02 93.59 C 223.09 95.39 220.66 97.88 218.60 100.61 C 221.18 99.13 223.44 97.15 226.10 95.81 C 225.23 96.90 224.30 97.95 223.36 98.99 C 223.73 99.58 224.47 100.76 224.84 101.35 C 225.02 98.04 228.37 100.16 230.09 99.96 C 229.53 100.42 228.40 101.35 227.84 101.81 C 224.90 105.59 220.30 107.56 216.44 110.25 C 216.94 110.52 217.45 110.78 217.97 111.05 C 219.51 109.88 221.01 108.37 223.12 108.35 C 220.40 111.05 217.98 114.17 214.61 116.12 C 214.59 114.47 213.85 111.67 216.72 111.95 C 215.99 111.43 215.26 110.92 214.53 110.41 C 215.35 109.64 216.18 108.89 217.03 108.15 C 220.13 106.31 224.15 104.45 224.10 100.21 C 222.41 100.71 219.60 104.97 219.00 101.21 C 217.34 101.84 215.84 102.78 214.51 103.95 C 214.09 103.11 213.67 102.27 213.22 101.45 C 212.74 101.80 211.77 102.48 211.28 102.82 C 212.50 101.03 212.67 96.43 215.52 97.54 C 215.53 98.20 215.55 99.51 215.56 100.17 L 213.95 101.03 L 214.35 102.11 C 215.25 101.22 216.08 100.27 216.86 99.26 L 217.67 99.49 C 217.58 99.06 217.39 98.19 217.30 97.76 C 218.02 97.57 219.46 97.18 220.19 96.99 C 219.92 94.95 219.02 93.09 217.43 91.76 C 217.08 92.34 216.38 93.52 216.03 94.11 C 216.24 91.68 217.48 89.56 218.33 87.33 C 218.64 87.66 219.26 88.31 219.58 88.64 C 220.66 86.92 221.98 85.36 223.72 84.28 C 223.12 83.20 222.69 82.07 222.43 80.88 C 221.92 80.80 220.91 80.63 220.40 80.54 C 220.29 81.92 220.17 83.31 220.04 84.69 C 218.65 83.37 217.69 81.75 217.01 79.97 C 216.66 82.61 219.64 86.25 216.11 87.60 C 215.58 83.62 215.39 79.61 215.36 75.60 C 215.12 75.38 214.64 74.93 214.39 74.70 C 214.27 79.11 214.98 83.50 214.52 87.91 C 214.69 89.22 213.21 89.66 212.43 90.37 C 211.65 87.25 211.82 84.08 212.17 80.93 C 211.17 77.09 209.11 73.44 209.17 69.38 C 210.81 70.90 211.21 73.09 211.73 75.16 C 211.84 73.03 211.21 71.01 210.12 69.20 C 211.42 69.59 212.78 70.05 214.11 69.48 C 214.60 70.75 214.57 74.08 216.86 72.07 L 217.68 72.57 L 218.11 74.66 C 218.59 74.03 219.08 73.41 219.57 72.78 C 220.05 73.37 221.01 74.54 221.49 75.12 C 219.88 75.70 218.11 75.75 216.51 76.44 C 216.91 77.10 217.71 78.42 218.11 79.08 C 218.84 77.04 220.87 76.63 222.81 76.55 L 222.65 77.74 C 224.01 78.81 224.30 80.61 225.11 82.06 C 226.08 78.54 222.98 76.07 222.55 72.94 C 222.79 72.54 223.27 71.74 223.51 71.35 C 222.73 70.87 221.96 70.38 221.21 69.87 C 221.47 70.44 222.00 71.57 222.26 72.14 C 218.98 72.75 218.70 67.87 216.60 66.15 C 216.79 67.00 217.17 68.68 217.35 69.53 C 216.27 68.65 215.53 67.54 215.16 66.19 C 214.56 66.40 213.37 66.83 212.78 67.04 M 226.23 73.97 C 226.36 76.38 226.34 78.80 226.57 81.21 C 227.61 80.15 228.08 78.82 227.96 77.19 C 227.35 76.14 226.78 75.06 226.23 73.97 Z" />
<path fill="#ffffff" opacity="1.00" d=" M 259.78 70.82 C 260.28 67.74 259.05 65.03 258.24 62.17 C 259.31 62.99 260.38 63.84 261.47 64.63 C 261.57 64.21 261.77 63.35 261.87 62.92 C 262.89 63.68 263.93 64.44 265.07 65.02 C 265.90 66.01 266.73 66.99 267.56 67.99 C 265.05 69.18 262.48 70.22 259.78 70.82 Z" />
<path fill="#ffffff" opacity="1.00" d=" M 255.25 65.15 C 256.85 64.26 257.12 66.78 255.71 67.13 C 254.07 68.12 253.78 65.46 255.25 65.15 Z" />
<path fill="#ffffff" opacity="1.00" d=" M 266.90 65.28 C 267.02 65.37 267.25 65.53 267.37 65.61 C 267.25 65.53 267.02 65.37 266.90 65.28 Z" />
<path fill="#ffffff" opacity="1.00" d=" M 267.37 65.61 C 267.94 65.89 267.94 65.89 267.37 65.61 Z" />
<path fill="#ffffff" opacity="1.00" d=" M 149.41 73.72 C 153.94 72.76 155.81 68.05 160.16 66.80 C 161.04 66.57 162.81 66.12 163.69 65.90 L 163.10 67.81 C 164.43 67.10 165.90 66.80 167.40 66.69 C 166.71 67.47 165.35 69.03 164.67 69.81 C 167.70 68.15 171.02 68.34 174.19 69.34 C 172.76 69.78 171.31 70.16 169.93 70.74 C 166.85 73.48 162.95 75.41 160.99 79.23 C 159.42 80.73 157.60 81.90 155.74 82.99 C 155.71 82.32 155.65 80.99 155.62 80.33 C 158.43 77.97 160.55 74.76 164.19 73.56 C 163.73 72.88 163.28 72.20 162.82 71.52 C 163.43 70.88 164.66 69.60 165.28 68.96 C 162.13 69.71 159.76 72.22 156.58 72.79 L 156.45 73.31 C 155.04 73.87 153.66 74.46 152.26 75.03 C 152.38 75.46 152.61 76.33 152.73 76.76 L 151.63 76.37 C 149.32 78.06 146.47 79.30 145.99 82.47 C 144.63 82.55 143.28 82.66 141.93 82.79 C 144.19 80.25 146.12 77.19 149.19 75.53 C 149.24 75.07 149.35 74.17 149.41 73.72 Z" />
<path fill="#ffffff" opacity="1.00" d=" M 249.03 68.17 C 250.46 67.61 250.93 68.03 250.44 69.43 C 249.00 69.99 248.54 69.57 249.03 68.17 Z" />
<path fill="#ffffff" opacity="1.00" d=" M 269.86 69.75 C 271.66 68.01 273.71 68.67 275.58 69.76 C 278.55 72.60 281.46 75.61 285.03 77.71 C 283.76 74.86 280.34 73.53 278.64 70.89 C 282.82 71.68 286.28 74.18 290.01 76.04 C 292.43 77.52 295.12 79.06 296.02 81.97 C 292.75 81.49 289.68 80.17 287.33 77.81 C 287.04 77.90 286.45 78.07 286.15 78.15 C 286.65 80.04 289.23 80.27 290.65 81.34 L 289.94 83.17 C 290.60 82.88 291.92 82.29 292.58 82.00 C 293.73 82.84 294.88 83.70 296.02 84.57 C 295.11 84.40 293.29 84.08 292.38 83.92 L 294.42 86.60 C 287.94 85.07 283.95 78.98 278.06 76.21 C 274.82 74.76 272.40 72.14 269.86 69.75 M 273.64 70.49 C 273.71 71.87 274.43 72.55 275.81 72.52 C 275.76 71.09 275.04 70.42 273.64 70.49 M 291.26 83.16 C 291.87 83.77 291.87 83.77 291.26 83.16 Z" />
<path fill="#ffffff" opacity="1.00" d=" M 284.25 68.25 C 284.54 68.54 284.54 68.54 284.25 68.25 Z" />
<path fill="#ffffff" opacity="1.00" d=" M 175.55 70.33 C 178.07 69.96 180.55 70.59 182.99 71.14 L 183.06 72.59 C 185.62 71.95 188.16 71.18 190.81 71.01 C 188.86 75.47 183.87 77.24 180.12 79.86 C 180.61 79.16 181.59 77.75 182.08 77.05 C 181.05 77.33 178.98 77.88 177.94 78.16 C 179.95 76.27 182.58 75.33 184.84 73.81 C 182.82 73.90 179.96 72.10 178.55 74.27 C 179.53 74.19 181.49 74.02 182.47 73.94 L 182.39 74.74 C 180.36 75.29 178.37 75.98 176.36 76.63 C 176.71 75.96 177.41 74.61 177.76 73.93 C 175.30 74.69 172.87 76.13 170.22 75.86 C 169.82 73.29 173.30 73.98 174.97 73.52 C 174.22 73.26 172.74 72.75 171.99 72.50 C 173.53 72.32 174.72 71.60 175.55 70.33 Z" />
<path fill="#ffffff" opacity="1.00" d=" M 264.64 70.44 C 265.79 70.55 266.95 70.66 268.11 70.77 C 269.16 71.95 270.25 73.11 271.39 74.23 C 274.76 75.72 278.11 77.36 281.04 79.63 C 283.64 81.41 285.59 84.19 288.78 85.04 C 288.08 85.60 287.39 86.17 286.70 86.73 C 284.91 85.40 282.57 84.54 281.60 82.38 C 280.27 82.22 278.94 82.06 277.63 81.87 C 277.62 81.24 277.62 79.98 277.62 79.35 C 277.06 79.65 276.51 79.96 275.97 80.27 C 271.55 77.84 268.26 73.87 264.64 70.44 Z" />
<path fill="#ffffff" opacity="1.00" d=" M 283.17 70.14 C 285.20 69.29 286.76 71.47 288.46 72.25 C 290.17 72.12 291.63 73.04 292.73 74.27 C 293.49 75.12 294.03 76.10 294.36 77.21 C 292.26 76.19 290.59 73.85 288.05 74.18 C 286.48 72.83 283.91 72.18 283.17 70.14 Z" />
<path fill="#ffffff" opacity="1.00" d=" M 206.40 71.77 C 206.77 71.76 207.53 71.72 207.91 71.70 C 208.71 74.57 208.66 77.90 210.98 80.07 C 211.01 80.80 211.07 82.26 211.10 83.00 C 210.41 84.42 209.82 85.91 208.76 87.11 C 211.51 86.84 211.62 89.40 210.92 91.54 C 210.24 91.62 208.87 91.78 208.18 91.86 L 208.66 90.76 L 207.47 90.18 C 207.65 89.31 208.00 87.57 208.18 86.70 C 207.21 87.45 206.26 88.21 205.30 88.97 C 204.98 87.09 204.55 84.59 202.20 84.34 C 203.87 81.82 202.78 77.65 206.16 76.56 C 206.57 77.21 207.37 78.50 207.78 79.14 C 207.52 76.65 206.86 74.23 206.40 71.77 M 208.06 81.31 C 206.76 84.48 211.29 81.16 208.06 81.31 Z" />
<path fill="#ffffff" opacity="1.00" d=" M 201.39 75.21 C 200.66 72.26 205.51 71.40 205.17 74.81 C 204.53 74.89 203.88 74.79 203.22 74.51 C 202.76 74.68 201.85 75.04 201.39 75.21 Z" />
<path fill="#ffffff" opacity="1.00" d=" M 255.67 71.63 C 259.11 73.09 261.47 76.17 264.81 77.83 C 263.65 75.76 261.98 74.04 260.62 72.12 C 262.38 73.16 264.21 74.08 266.11 74.87 C 268.35 76.29 270.51 77.81 272.79 79.16 C 272.24 79.53 271.70 79.91 271.15 80.29 C 272.39 81.58 273.62 82.88 274.83 84.21 C 272.01 83.26 269.37 81.89 266.82 80.38 C 267.80 80.09 268.77 79.78 269.74 79.44 C 267.51 79.97 265.91 79.42 265.69 76.70 C 265.23 77.66 264.80 78.63 264.36 79.60 C 260.90 77.67 257.78 75.01 255.67 71.63 Z" />
<path fill="#ffffff" opacity="1.00" d=" M 232.33 77.54 C 234.14 75.75 236.31 74.30 238.96 74.42 C 236.93 75.63 234.94 78.64 232.33 77.54 Z" />
<path fill="#ffffff" opacity="1.00" d=" M 192.46 76.57 C 194.47 76.78 196.21 75.51 198.08 75.01 C 195.96 77.17 194.33 79.73 192.94 82.41 C 192.31 81.74 191.71 81.05 191.11 80.36 C 190.97 80.83 190.69 81.76 190.55 82.23 C 187.34 85.13 183.24 86.60 179.94 89.37 C 179.80 89.90 179.51 90.95 179.37 91.48 C 176.89 93.64 174.81 96.19 172.87 98.84 C 172.62 99.09 172.11 99.60 171.86 99.85 C 170.64 100.91 169.64 103.03 167.74 102.59 C 166.54 102.35 166.09 103.95 165.58 104.67 C 164.38 104.92 163.20 105.18 162.01 105.44 C 165.27 100.06 169.82 95.70 174.17 91.24 C 172.17 92.17 170.20 93.11 168.25 94.10 C 168.44 92.53 168.60 90.96 168.74 89.39 C 170.97 86.97 173.12 84.25 176.41 83.25 L 176.41 82.62 C 178.29 81.98 180.30 80.75 182.01 82.50 C 179.81 84.48 177.64 86.50 175.65 88.70 C 176.36 88.73 177.79 88.78 178.50 88.81 C 177.63 88.92 175.88 89.14 175.01 89.25 L 175.89 90.85 L 174.25 90.04 C 174.44 94.18 169.89 96.64 168.98 100.53 C 172.40 97.28 175.22 93.43 178.86 90.41 C 178.94 89.90 179.09 88.86 179.16 88.34 C 183.41 84.21 187.99 80.45 192.46 76.57 M 179.44 83.23 C 180.05 83.84 180.05 83.84 179.44 83.23 Z" />
<path fill="#ffffff" opacity="1.00" d=" M 247.60 77.16 C 247.67 75.87 248.51 75.18 250.14 75.10 C 252.40 75.72 248.76 78.15 247.60 77.16 Z" />
<path fill="#ffffff" opacity="1.00" d=" M 202.89 75.61 C 204.84 75.99 203.30 79.28 202.33 79.99 C 200.88 78.92 201.29 76.36 202.89 75.61 Z" />
<path fill="#ffffff" opacity="1.00" d=" M 173.56 77.78 C 174.21 77.42 175.50 76.69 176.15 76.33 C 176.35 76.89 176.76 78.02 176.96 78.58 L 175.14 78.80 C 175.23 79.21 175.40 80.04 175.49 80.45 C 174.15 81.16 172.81 81.88 171.47 82.58 C 172.15 80.97 172.81 79.36 173.56 77.78 Z" />
<path fill="#ffffff" opacity="1.00" d=" M 257.88 76.71 C 263.62 82.50 271.88 84.43 279.56 86.20 C 279.21 85.31 278.52 83.52 278.18 82.63 C 279.34 82.84 280.50 83.08 281.67 83.32 L 281.20 84.28 C 283.84 85.73 287.39 88.38 290.06 85.42 C 291.45 86.14 292.78 86.98 294.11 87.81 C 294.32 88.84 294.75 90.90 294.96 91.93 C 294.23 91.85 292.77 91.68 292.04 91.60 C 293.07 92.30 294.18 92.85 295.35 93.31 C 295.99 96.58 296.32 99.92 297.51 103.06 C 298.55 105.51 296.19 107.25 295.83 109.52 C 294.63 110.31 294.42 111.75 293.99 112.99 C 294.45 113.15 295.37 113.48 295.83 113.64 C 295.91 112.56 295.84 111.49 295.64 110.42 C 296.17 111.75 297.18 113.16 296.64 114.65 C 294.89 115.90 292.55 114.21 290.59 114.49 C 289.49 112.44 286.72 113.84 284.92 113.65 C 286.47 113.93 288.02 114.12 289.59 114.29 L 289.50 115.28 C 292.20 116.12 295.01 116.60 297.82 116.03 C 298.90 118.02 300.84 119.74 300.71 122.18 C 304.60 126.39 308.23 130.85 311.81 135.32 C 313.44 138.00 315.88 140.38 316.56 143.52 C 320.58 143.76 321.05 149.24 325.17 149.85 C 326.55 152.69 329.47 154.46 331.85 156.44 C 332.13 157.41 332.23 158.81 333.60 158.68 C 335.82 160.48 338.71 161.85 339.44 164.89 C 336.93 165.19 334.09 165.18 332.86 167.85 L 336.09 166.95 C 336.20 167.49 336.42 168.56 336.53 169.09 C 338.12 168.28 339.69 167.40 341.38 166.78 C 340.84 167.30 339.75 168.34 339.21 168.86 C 339.85 168.96 341.12 169.17 341.76 169.28 C 342.81 168.81 343.87 168.37 344.94 167.97 C 345.13 170.11 343.17 170.03 341.63 169.86 C 338.33 171.60 333.76 170.05 331.29 173.23 C 329.31 175.11 328.74 177.95 326.77 179.83 C 324.97 181.62 324.77 184.39 322.96 186.18 C 322.35 185.80 321.13 185.05 320.52 184.67 C 322.81 181.49 325.98 178.93 327.73 175.39 C 329.08 172.41 331.98 170.88 334.67 169.30 C 333.75 169.47 331.92 169.79 331.00 169.95 L 332.58 169.00 C 331.99 168.51 331.39 168.03 330.79 167.56 C 325.36 172.98 321.27 179.59 317.09 186.00 C 316.28 185.80 314.67 185.40 313.87 185.20 C 313.43 186.14 312.56 188.01 312.12 188.95 C 312.76 188.77 314.04 188.41 314.68 188.23 C 314.19 189.21 313.70 190.20 313.23 191.19 C 310.94 189.87 311.31 187.02 312.40 185.03 C 311.56 184.28 310.73 183.53 309.91 182.77 C 310.71 181.45 311.41 180.09 312.03 178.67 C 312.58 179.04 313.13 179.41 313.68 179.78 C 312.13 181.70 312.20 183.08 313.90 183.93 C 314.56 183.06 315.19 182.18 315.81 181.29 C 316.05 181.76 316.54 182.71 316.78 183.19 L 316.46 181.14 C 316.86 181.20 317.67 181.33 318.07 181.39 C 318.79 178.83 320.92 177.11 322.78 175.36 C 321.90 175.01 321.03 174.65 320.16 174.29 C 318.31 175.68 316.32 176.93 314.82 178.74 C 312.58 176.68 314.41 174.05 315.89 172.13 C 316.61 172.93 317.33 173.74 318.05 174.55 L 317.61 172.19 L 318.53 172.97 C 319.73 171.43 321.08 170.03 322.36 168.56 C 322.95 168.56 324.12 168.57 324.71 168.57 L 323.61 170.37 L 323.70 171.99 L 322.33 172.77 C 322.82 173.29 323.32 173.82 323.82 174.34 C 324.34 172.66 325.70 171.51 327.05 170.51 C 327.82 169.06 328.57 167.61 329.26 166.12 C 332.19 164.40 335.59 164.24 338.89 163.99 C 334.24 161.11 326.58 162.89 324.87 168.51 C 324.41 168.01 323.97 167.51 323.52 167.01 L 325.63 165.97 L 325.17 164.79 C 322.99 166.60 320.96 168.56 318.83 170.42 C 314.10 170.91 313.61 176.54 310.67 179.33 C 311.30 176.78 308.36 174.30 310.83 172.02 L 309.30 173.11 C 308.32 171.04 306.50 170.08 304.27 170.80 C 304.37 170.21 304.56 169.01 304.66 168.41 C 304.08 168.59 302.90 168.94 302.32 169.11 C 303.04 166.14 300.47 166.02 298.27 166.18 C 299.05 164.79 299.48 160.65 301.85 162.09 L 302.21 162.52 C 303.17 162.19 304.13 161.84 305.09 161.52 C 304.40 161.35 303.00 161.01 302.31 160.85 C 302.33 160.54 302.36 159.92 302.38 159.61 L 302.08 158.22 L 303.88 158.51 L 302.81 157.65 C 303.46 156.87 304.08 156.08 304.69 155.28 C 303.38 156.14 302.41 157.40 301.59 158.71 C 301.11 158.08 300.15 156.82 299.67 156.20 C 300.61 155.25 301.60 154.31 302.15 153.05 C 299.78 153.83 298.68 158.01 295.96 156.59 C 297.10 155.17 298.29 153.78 299.57 152.49 C 302.06 149.61 306.55 154.81 308.72 151.35 C 307.62 151.48 306.58 151.89 305.53 152.20 C 304.65 151.63 303.76 151.10 302.87 150.58 C 302.05 150.70 300.21 151.70 300.11 150.27 C 300.84 148.22 304.61 147.30 304.48 145.33 C 303.14 147.70 298.65 147.88 299.48 151.33 C 296.50 150.87 295.44 153.43 295.14 155.74 L 291.99 155.39 C 293.20 154.35 293.81 153.10 293.83 151.65 C 292.11 153.54 289.92 155.19 289.37 157.83 C 291.06 157.29 292.71 156.66 294.39 156.05 C 294.34 157.18 294.23 159.42 294.18 160.54 C 294.46 160.03 295.03 159.00 295.31 158.49 C 295.63 158.70 296.26 159.12 296.58 159.33 C 297.24 158.89 298.57 158.01 299.24 157.57 C 298.45 159.09 297.07 160.27 297.27 162.18 L 296.17 162.13 C 296.66 162.31 297.64 162.68 298.13 162.86 L 299.22 163.29 C 297.02 166.37 294.54 164.07 292.80 162.10 C 292.27 160.79 291.64 159.53 290.58 158.58 C 290.47 159.36 290.25 160.90 290.14 161.67 C 289.38 161.37 287.86 160.76 287.10 160.46 C 287.28 159.82 287.63 158.53 287.81 157.88 C 287.18 158.85 286.56 159.82 285.94 160.79 C 284.14 159.60 282.41 160.96 280.74 161.67 C 280.81 160.02 280.88 158.38 280.97 156.74 C 283.84 159.26 284.76 154.95 285.96 153.05 C 284.69 153.27 283.49 153.72 282.30 154.18 C 281.78 153.60 280.74 152.46 280.22 151.88 C 280.77 151.38 281.85 150.38 282.40 149.88 L 283.01 149.92 C 283.18 150.41 283.52 151.39 283.69 151.87 C 285.96 147.93 288.90 144.33 292.93 142.08 C 291.27 142.96 289.70 143.99 288.21 145.11 C 286.59 146.50 284.13 146.02 282.60 147.58 C 281.90 148.68 280.79 149.32 279.64 149.85 L 280.26 151.83 L 278.41 150.54 L 279.07 151.77 C 277.61 151.43 276.38 152.29 275.09 152.75 C 275.41 151.91 275.74 151.07 276.07 150.24 C 278.27 148.54 280.42 146.78 282.47 144.92 C 281.53 144.14 280.64 143.29 279.70 142.52 C 278.16 142.60 274.76 144.39 277.55 145.71 C 275.98 146.69 274.50 148.44 272.48 147.52 L 272.77 148.38 C 270.53 148.65 268.90 150.34 266.92 151.23 C 267.79 148.08 271.28 147.07 273.02 144.54 C 270.56 145.52 268.54 147.21 266.53 148.87 C 266.19 148.76 265.51 148.54 265.17 148.44 C 269.29 145.87 271.00 141.19 274.27 137.80 C 274.65 137.39 274.65 137.39 274.27 137.80 C 273.45 138.05 271.81 138.57 270.99 138.82 C 270.66 138.00 270.00 136.34 269.67 135.52 C 269.13 135.59 268.05 135.73 267.51 135.81 C 267.84 136.70 268.50 138.49 268.82 139.39 C 269.69 139.77 270.55 140.15 271.42 140.52 C 269.61 140.41 267.99 141.13 266.40 141.88 C 266.00 141.40 265.22 140.44 264.82 139.96 C 265.73 136.61 267.25 133.38 267.19 129.85 C 269.03 128.83 271.31 129.70 273.32 129.58 C 273.34 129.86 273.38 130.42 273.40 130.69 C 273.64 130.03 273.88 129.37 274.13 128.71 C 277.17 127.00 280.38 125.64 283.69 124.56 C 285.25 123.64 287.82 121.45 288.96 124.13 C 288.18 125.81 285.42 125.62 284.15 127.16 C 289.35 125.84 294.92 122.61 300.27 124.75 L 298.00 125.67 C 299.90 125.03 301.47 126.07 302.99 127.08 C 301.71 125.67 300.35 124.25 299.67 122.44 C 298.15 123.05 296.52 123.64 294.85 123.30 C 293.20 122.83 295.03 121.72 295.65 121.30 C 292.10 122.14 287.82 120.16 284.81 122.77 C 281.50 123.28 280.88 118.78 278.00 118.41 C 278.37 116.76 278.94 115.17 279.86 113.74 C 278.06 113.19 278.02 111.72 278.67 110.07 C 276.95 110.29 275.25 110.46 273.54 110.65 C 273.60 109.89 273.67 109.13 273.73 108.37 L 274.74 108.20 C 274.06 105.89 272.46 106.84 271.12 107.54 C 271.51 106.92 272.30 105.68 272.70 105.06 C 271.68 105.20 269.65 105.49 268.63 105.64 L 268.60 107.12 C 268.53 106.43 268.38 105.04 268.30 104.35 C 266.89 106.69 264.74 106.89 262.86 105.16 C 264.38 104.59 265.89 104.03 267.41 103.46 C 267.42 102.95 267.42 101.95 267.42 101.44 C 266.20 101.22 264.98 100.98 263.77 100.73 C 262.93 101.13 262.09 101.52 261.25 101.91 C 261.22 101.51 261.16 100.72 261.13 100.32 L 263.30 100.35 C 262.61 99.78 261.23 98.65 260.55 98.08 C 260.96 97.80 261.78 97.23 262.19 96.95 L 260.60 95.80 C 259.78 95.76 258.16 95.67 257.35 95.62 C 258.52 94.48 259.68 93.33 260.83 92.16 C 259.75 92.31 257.61 92.62 256.54 92.77 C 256.92 92.29 257.69 91.31 258.07 90.82 C 256.03 90.19 254.45 88.76 253.07 87.21 C 255.17 88.06 256.93 90.04 259.45 89.35 C 257.67 88.17 255.78 87.10 254.35 85.48 C 255.28 85.58 257.16 85.79 258.10 85.90 C 256.92 84.74 255.77 83.56 254.66 82.34 C 255.67 82.09 257.70 81.60 258.71 81.36 C 259.31 82.34 260.03 83.46 259.37 84.62 L 259.85 85.09 C 261.86 86.36 264.25 86.88 266.51 87.57 C 265.34 86.04 263.50 85.49 261.72 85.10 C 260.32 84.62 261.13 83.13 261.80 82.42 C 262.43 82.85 263.68 83.70 264.30 84.13 C 261.68 82.07 259.11 79.93 257.88 76.71 M 281.83 109.46 C 285.79 110.13 289.79 110.61 293.76 111.24 C 290.89 107.74 285.73 109.93 281.83 109.46 M 275.19 134.29 C 275.78 134.84 275.78 134.84 275.19 134.29 M 286.92 156.69 C 288.31 156.84 289.43 154.55 288.73 153.41 C 287.31 153.18 286.26 155.56 286.92 156.69 M 318.39 167.87 C 319.46 168.51 321.22 167.06 320.84 165.89 C 319.75 165.18 318.04 166.70 318.39 167.87 Z" />
<path fill="#ffffff" opacity="1.00" d=" M 249.02 80.65 C 248.08 80.16 247.89 79.54 248.43 78.79 C 249.91 78.34 251.05 78.66 251.84 79.76 C 251.14 80.65 250.20 80.94 249.02 80.65 Z" />
<path fill="#ffffff" opacity="1.00" d=" M 188.70 88.00 C 192.26 85.46 194.41 80.53 199.16 80.00 C 198.74 81.29 197.83 81.81 196.44 81.58 C 196.35 82.14 196.18 83.25 196.09 83.81 L 197.96 83.40 C 197.75 84.36 197.33 86.28 197.12 87.24 C 195.24 87.48 193.58 88.38 191.97 89.32 C 191.90 90.00 191.74 91.37 191.66 92.05 C 192.73 91.12 193.78 90.19 194.83 89.24 C 195.54 90.20 196.49 90.85 197.65 91.19 L 197.51 89.54 C 198.33 89.59 199.95 89.70 200.77 89.76 L 198.84 91.52 C 199.73 91.60 201.51 91.77 202.40 91.85 C 201.51 89.63 203.88 90.83 205.03 90.77 C 203.81 91.68 202.60 92.62 201.42 93.59 L 203.25 94.34 C 195.55 101.50 185.97 106.46 178.46 113.91 C 177.51 115.02 176.76 116.28 175.93 117.48 C 176.38 117.96 176.82 118.45 177.26 118.94 C 174.85 120.99 173.07 123.70 171.88 126.61 C 170.90 125.34 168.46 124.31 169.39 122.40 C 170.99 119.94 172.77 117.58 174.11 114.96 C 173.04 116.03 172.05 117.16 171.06 118.29 C 169.05 119.45 168.03 121.59 166.73 123.40 C 165.26 123.36 164.13 124.31 163.11 125.21 L 165.09 125.69 C 164.65 125.89 163.77 126.29 163.33 126.49 L 163.70 127.31 C 161.58 127.99 161.77 131.39 160.05 132.95 C 158.79 132.71 157.54 132.49 156.27 132.29 C 157.76 130.41 158.70 127.03 161.72 127.57 L 161.59 126.38 L 162.30 126.49 C 164.03 121.06 168.22 116.87 171.60 112.41 L 172.79 111.06 C 172.71 111.77 172.57 113.18 172.50 113.89 L 173.11 114.45 L 173.73 112.24 C 174.36 112.76 175.00 113.28 175.63 113.81 C 176.04 113.42 176.87 112.64 177.28 112.25 C 176.09 111.90 174.92 111.48 173.86 110.85 L 175.52 110.44 C 174.50 107.17 178.96 107.67 180.48 105.64 C 183.56 104.97 185.40 101.89 188.09 100.43 C 187.98 101.27 187.75 102.95 187.63 103.78 C 188.25 103.38 188.87 102.97 189.50 102.58 C 190.81 101.30 191.99 99.91 192.78 98.24 C 191.50 99.31 190.31 100.45 189.14 101.64 C 187.62 100.03 186.45 98.17 185.88 96.02 C 187.81 94.57 189.65 92.99 191.58 91.54 C 190.43 91.47 189.28 91.58 188.13 91.45 C 189.53 90.53 190.57 89.33 191.25 87.85 L 189.98 89.49 C 189.55 89.00 189.12 88.50 188.70 88.00 M 177.24 109.44 C 176.81 110.52 177.11 111.04 178.14 110.98 C 179.37 110.05 179.60 109.20 178.82 108.42 C 178.43 108.68 177.64 109.18 177.24 109.44 Z" />
<path fill="#ffffff" opacity="1.00" d=" M 247.71 79.32 C 247.11 83.07 242.60 82.81 239.80 83.85 C 240.43 82.47 241.40 81.34 242.71 80.48 C 244.45 80.44 246.12 80.05 247.71 79.32 Z" />
<path fill="#ffffff" opacity="1.00" d=" M 272.74 80.93 C 273.83 78.54 277.03 81.77 276.89 83.42 C 275.23 83.47 273.97 81.87 272.74 80.93 Z" />
<path fill="#ffffff" opacity="1.00" d=" M 190.12 83.82 C 190.70 83.29 190.70 83.29 190.12 83.82 Z" />
<path fill="#ffffff" opacity="1.00" d=" M 189.23 84.59 C 189.45 84.40 189.90 84.01 190.12 83.82 C 189.90 84.01 189.45 84.40 189.23 84.59 Z" />
<path fill="#ffffff" opacity="1.00" d=" M 241.55 84.64 C 242.35 84.19 243.93 83.29 244.72 82.84 L 244.58 84.59 C 245.08 84.56 246.09 84.49 246.60 84.46 L 246.18 86.17 C 248.13 85.64 251.24 82.91 252.50 85.52 C 250.57 85.27 248.72 85.92 247.02 86.72 C 248.78 87.21 249.66 88.27 249.66 89.93 C 250.20 90.16 251.29 90.62 251.83 90.86 C 251.80 91.61 251.75 93.10 251.72 93.85 C 248.27 91.69 244.59 88.87 240.31 89.01 C 240.81 88.16 241.31 87.31 241.80 86.45 L 239.03 86.87 C 236.81 85.52 240.44 84.84 241.55 84.64 M 242.67 86.71 C 243.76 88.24 246.52 88.94 248.40 89.28 C 247.46 87.58 244.63 86.40 242.67 86.71 Z" />
<path fill="#ffffff" opacity="1.00" d=" M 189.23 84.59 C 188.40 85.30 188.40 85.30 189.23 84.59 Z" />
<path fill="#ffffff" opacity="1.00" d=" M 156.39 89.99 C 158.83 88.48 161.11 86.26 164.07 85.98 C 163.34 86.77 162.60 87.56 161.85 88.35 C 161.44 90.65 158.88 91.33 157.29 92.66 C 157.33 92.21 157.42 91.29 157.47 90.83 C 157.20 90.62 156.66 90.20 156.39 89.99 Z" />
<path fill="#ffffff" opacity="1.00" d=" M 181.61 92.82 C 181.23 90.29 184.09 88.50 186.19 87.84 C 185.76 88.19 184.88 88.90 184.45 89.25 C 184.85 90.76 184.91 92.28 183.54 93.44 L 185.14 93.55 C 185.37 91.89 186.14 90.51 187.46 89.41 C 187.62 90.21 187.59 91.00 187.37 91.79 C 187.72 91.92 188.42 92.20 188.77 92.34 C 186.28 95.06 183.50 97.51 180.28 99.33 C 179.42 99.76 178.57 100.21 177.73 100.68 L 180.10 100.21 C 179.57 101.06 178.53 102.77 178.00 103.63 C 177.37 102.99 176.72 102.37 176.07 101.76 C 176.25 102.54 176.61 104.09 176.79 104.87 C 174.71 106.87 172.79 109.03 171.10 111.37 L 171.60 112.41 L 170.33 112.10 C 169.08 113.41 168.03 115.81 165.81 114.59 C 164.55 118.25 162.51 121.64 159.50 124.13 C 158.28 123.75 157.06 123.36 155.85 122.96 C 156.23 122.02 156.62 121.08 157.02 120.15 C 156.38 120.65 155.09 121.66 154.44 122.16 C 154.36 119.45 156.50 117.46 158.74 116.33 C 158.63 115.81 158.41 114.76 158.30 114.23 C 159.83 112.14 162.56 110.86 163.17 108.20 C 164.29 109.62 164.42 111.56 163.14 112.94 C 166.06 112.88 165.52 108.71 168.38 108.20 C 168.33 109.26 168.23 111.39 168.19 112.45 C 170.54 109.89 173.04 107.46 175.16 104.69 C 174.35 104.16 174.11 103.50 174.44 102.69 L 174.77 101.99 L 175.06 101.23 C 174.62 101.51 173.73 102.06 173.29 102.33 C 173.54 103.76 173.94 106.27 171.51 105.80 C 171.18 106.34 170.52 107.43 170.20 107.97 C 169.69 107.44 168.68 106.38 168.17 105.85 C 171.26 101.45 175.18 97.69 179.01 93.95 C 179.46 93.84 180.36 93.63 180.81 93.52 L 180.13 92.20 L 181.61 92.82 M 179.17 96.78 C 180.66 96.97 183.18 95.73 182.76 93.94 C 181.32 93.60 179.29 95.40 179.17 96.78 M 177.22 98.21 C 177.86 98.82 177.86 98.82 177.22 98.21 M 161.31 117.66 C 162.71 117.75 162.96 115.85 163.24 114.84 C 162.52 112.99 158.76 117.14 161.31 117.66 Z" />
<path fill="#ffffff" opacity="1.00" d=" M 238.64 93.18 C 238.66 92.84 238.69 92.16 238.70 91.82 C 240.62 92.44 242.54 93.08 244.46 93.72 L 244.53 92.44 C 247.20 94.15 250.30 94.91 253.20 96.13 C 253.32 96.74 253.57 97.95 253.70 98.56 C 252.95 98.26 251.45 97.67 250.70 97.37 C 251.68 98.45 252.77 99.42 253.88 100.37 C 253.57 100.46 252.96 100.63 252.66 100.72 C 252.05 100.45 250.83 99.90 250.23 99.63 C 248.77 98.38 247.35 97.07 245.66 96.14 L 245.71 95.58 C 243.16 95.54 240.83 94.36 238.64 93.18 Z" />
<path fill="#ffffff" opacity="1.00" d=" M 204.29 93.22 C 204.75 93.86 204.75 93.86 204.29 93.22 Z" />
<path fill="#ffffff" opacity="1.00" d=" M 204.22 95.21 C 204.73 95.82 204.73 95.82 204.22 95.21 Z" />
<path fill="#ffffff" opacity="1.00" d=" M 236.80 94.98 C 239.22 96.27 244.07 96.16 244.04 99.69 C 243.37 99.32 242.04 98.57 241.37 98.20 C 241.40 100.20 240.94 102.35 239.51 103.82 C 239.00 102.66 238.48 101.50 238.03 100.32 C 237.12 99.53 236.31 98.64 235.60 97.67 C 236.41 97.72 238.02 97.81 238.83 97.86 L 238.86 97.35 C 237.23 97.30 236.55 96.51 236.80 94.98 Z" />
<path fill="#ffffff" opacity="1.00" d=" M 192.75 103.67 C 196.60 101.51 200.41 99.16 203.48 95.94 C 204.02 97.28 203.50 98.40 202.51 99.32 C 199.29 102.29 195.39 104.32 191.55 106.36 C 190.77 107.96 189.92 109.52 189.06 111.07 C 187.73 112.34 186.37 113.63 184.51 114.03 C 181.84 114.73 180.60 117.37 178.46 118.86 C 178.28 118.22 177.92 116.96 177.73 116.33 C 180.95 112.62 184.96 109.78 188.84 106.81 C 190.29 105.97 191.60 104.89 192.75 103.67 Z" />
<path fill="#ffffff" opacity="1.00" d=" M 200.82 102.44 C 202.42 100.38 204.50 98.81 206.69 97.44 C 207.02 97.79 207.67 98.51 208.00 98.87 C 206.88 99.43 205.49 99.81 205.24 101.25 C 203.84 101.92 202.46 103.06 200.82 102.44 Z" />
<path fill="#ffffff" opacity="1.00" d=" M 185.31 96.93 C 185.70 97.76 186.08 98.60 186.48 99.43 C 184.25 101.84 182.29 106.45 178.24 104.42 C 180.42 101.76 182.97 99.44 185.31 96.93 Z" />
<path fill="#ffffff" opacity="1.00" d=" M 246.86 99.19 C 247.96 99.45 249.09 99.60 250.23 99.63 L 249.56 100.73 C 251.99 101.54 254.66 102.03 256.66 103.76 L 256.21 105.41 L 255.10 105.75 C 252.09 104.53 248.80 104.63 245.77 103.60 C 247.41 103.53 249.05 103.48 250.70 103.45 C 249.68 101.80 248.37 100.38 246.86 99.19 Z" />
<path fill="#ffffff" opacity="1.00" d=" M 205.24 101.25 C 206.31 100.66 207.43 100.18 208.60 99.80 C 207.70 101.85 204.57 102.40 205.00 105.01 L 203.82 104.96 C 203.78 105.78 203.71 107.42 203.67 108.25 C 203.05 107.24 202.46 106.22 201.62 105.39 C 203.27 104.43 204.46 102.98 205.24 101.25 Z" />
<path fill="#ffffff" opacity="1.00" d=" M 229.86 102.51 C 230.44 103.14 230.44 103.14 229.86 102.51 Z" />
<path fill="#ffffff" opacity="1.00" d=" M 264.20 102.36 C 267.21 100.77 264.37 105.71 264.20 102.36 Z" />
<path fill="#ffffff" opacity="1.00" d=" M 200.53 102.12 C 200.59 102.54 200.71 103.39 200.77 103.81 C 198.72 106.69 195.54 108.52 192.40 110.01 L 191.87 111.78 C 191.31 110.90 190.53 109.60 191.55 108.72 C 193.77 105.62 197.48 104.20 200.53 102.12 Z" />
<path fill="#ffffff" opacity="1.00" d=" M 216.25 106.68 C 215.15 106.05 215.76 104.04 217.05 104.18 C 217.57 104.47 218.59 105.06 219.10 105.36 C 219.25 106.70 217.23 107.22 216.25 106.68 Z" />
<path fill="#ffffff" opacity="1.00" d=" M 223.55 107.75 C 224.15 105.48 226.78 104.88 228.41 103.52 C 228.89 104.17 229.39 104.81 229.90 105.45 C 230.58 104.80 231.93 103.51 232.60 102.86 C 232.24 104.72 232.44 106.58 233.11 108.34 C 232.64 107.89 231.71 106.97 231.24 106.52 C 230.31 106.90 229.38 107.27 228.45 107.65 C 228.30 107.11 228.00 106.03 227.85 105.49 C 226.78 106.06 224.63 107.19 223.55 107.75 Z" />
<path fill="#ffffff" opacity="1.00" d=" M 165.31 106.55 C 165.79 106.09 166.76 105.16 167.24 104.70 C 167.00 105.44 166.50 106.90 166.26 107.63 C 165.23 108.10 164.92 107.74 165.31 106.55 Z" />
<path fill="#ffffff" opacity="1.00" d=" M 200.02 106.39 C 200.62 107.03 201.22 107.68 201.82 108.33 C 197.22 110.38 195.01 115.58 190.50 117.47 C 192.06 112.71 196.69 109.88 200.02 106.39 Z" />
<path fill="#ffffff" opacity="1.00" d=" M 157.27 110.57 C 158.95 110.81 159.96 109.37 161.23 108.60 C 160.34 110.08 159.27 111.89 157.23 111.46 C 158.78 114.02 155.92 115.86 154.83 117.94 C 154.50 118.18 153.83 118.67 153.50 118.91 C 153.11 117.49 152.16 116.38 151.44 115.13 C 152.92 113.18 154.43 110.41 157.27 110.57 Z" />
<path fill="#ffffff" opacity="1.00" d=" M 229.50 111.89 C 230.97 110.91 232.41 109.89 233.88 108.91 C 233.28 110.71 232.72 112.52 232.30 114.37 C 232.80 114.76 233.81 115.53 234.32 115.91 C 233.00 117.68 231.36 119.16 229.41 120.18 C 228.43 118.96 227.68 117.33 225.89 117.27 C 227.15 116.21 228.38 115.11 229.63 114.03 C 229.60 113.49 229.53 112.42 229.50 111.89 Z" />
<path fill="#ffffff" opacity="1.00" d=" M 258.52 111.54 C 260.86 109.19 264.34 110.94 267.12 109.98 C 267.60 110.72 268.08 111.47 268.57 112.22 L 268.54 110.05 C 270.39 110.92 270.49 112.68 270.23 114.38 C 268.15 113.59 266.21 112.51 264.27 111.44 C 263.65 111.91 263.05 112.41 262.48 112.94 L 264.39 113.90 C 263.28 114.96 261.96 114.57 260.71 114.08 C 260.97 113.30 261.50 111.74 261.76 110.97 L 258.52 111.54 Z" />
<path fill="#ffffff" opacity="1.00" d=" M 189.80 119.88 C 193.91 116.48 197.75 112.52 202.97 110.88 L 201.83 111.67 C 202.18 112.62 202.55 113.56 202.89 114.52 C 199.14 117.73 193.75 119.63 191.93 124.58 C 191.49 123.83 191.05 123.08 190.62 122.33 C 189.04 122.63 189.39 124.17 190.33 125.01 C 188.25 126.60 186.34 128.37 184.30 130.00 C 184.48 128.34 184.66 126.68 184.83 125.02 C 183.04 127.29 180.85 129.45 180.35 132.43 C 181.09 131.90 182.56 130.85 183.30 130.33 C 182.19 134.07 179.14 136.78 177.00 139.93 C 174.77 141.36 174.01 143.74 174.02 146.29 C 175.03 145.54 176.00 144.75 177.01 143.99 C 175.52 146.65 174.11 149.35 172.66 152.04 C 170.44 151.56 170.59 149.54 170.56 147.70 C 172.18 144.79 173.80 141.86 174.96 138.73 C 174.34 139.27 173.08 140.34 172.45 140.87 L 172.01 140.80 C 174.65 135.82 177.70 131.02 181.34 126.70 C 180.22 127.30 177.98 128.49 176.86 129.09 C 178.29 127.09 179.98 125.28 181.80 123.63 C 181.69 123.04 181.48 121.85 181.37 121.26 C 180.99 121.41 180.22 121.70 179.84 121.85 C 179.32 123.49 178.28 124.87 177.00 126.00 C 177.76 124.44 178.66 122.96 179.46 121.42 C 178.98 121.34 178.03 121.19 177.55 121.12 C 175.96 123.85 175.02 126.89 173.34 129.57 L 174.12 131.72 L 172.31 131.64 L 173.01 132.64 C 172.48 132.88 171.41 133.37 170.88 133.61 C 171.58 133.55 172.99 133.44 173.69 133.39 C 173.67 132.99 173.62 132.19 173.60 131.80 L 175.32 132.30 L 174.02 130.36 C 174.64 130.26 175.89 130.06 176.51 129.96 L 173.92 129.80 C 175.01 128.43 175.55 126.26 177.60 126.01 C 177.22 126.79 176.45 128.33 176.06 129.10 L 177.67 129.46 C 176.00 131.33 175.08 134.34 172.28 134.74 C 170.90 137.64 169.81 140.74 167.68 143.19 L 167.94 141.36 C 164.39 142.47 167.11 139.19 167.30 137.74 L 168.21 137.80 C 167.95 138.68 167.44 140.45 167.18 141.34 C 169.47 139.60 169.65 136.41 170.98 134.04 L 168.93 134.79 C 169.40 132.60 172.55 130.20 170.93 128.17 C 170.03 129.68 169.19 131.23 168.28 132.74 L 168.13 132.11 C 167.62 130.05 169.73 128.30 170.14 126.37 C 170.67 126.97 171.19 127.58 171.71 128.19 C 172.80 126.18 174.01 124.23 175.28 122.33 C 176.78 121.61 178.77 117.53 179.68 120.81 C 182.19 118.42 185.12 116.55 187.82 114.41 C 188.64 114.39 190.26 114.35 191.07 114.34 C 189.59 116.08 188.06 117.77 186.44 119.39 C 187.39 121.52 185.11 123.10 184.46 124.95 C 186.76 123.83 187.94 121.50 189.80 119.88 M 196.29 116.76 C 197.82 116.93 199.09 115.52 200.52 115.11 C 200.53 114.76 200.56 114.04 200.57 113.69 C 198.90 113.68 196.51 115.08 196.29 116.76 M 174.91 137.19 C 172.87 138.98 177.22 139.09 175.73 137.15 L 174.91 137.19 Z" />
<path fill="#ffffff" opacity="1.00" d=" M 189.49 112.24 C 189.77 112.56 189.77 112.56 189.49 112.24 Z" />
<path fill="#ffffff" opacity="1.00" d=" M 254.92 113.75 C 255.25 113.73 255.91 113.68 256.24 113.66 C 256.25 115.09 256.27 116.53 256.30 117.97 C 256.90 117.81 258.09 117.49 258.68 117.34 C 258.65 118.15 258.57 119.78 258.53 120.60 C 258.90 120.89 259.62 121.47 259.99 121.77 C 259.57 122.04 258.75 122.59 258.34 122.87 C 258.40 122.39 258.52 121.42 258.58 120.94 C 257.45 120.65 256.33 120.35 255.21 120.05 C 254.41 119.05 253.59 118.08 252.86 117.04 C 253.69 116.03 254.78 115.15 254.92 113.75 Z" />
<path fill="#ffffff" opacity="1.00" d=" M 258.07 114.20 C 258.44 114.15 259.18 114.05 259.55 114.00 C 260.52 117.86 266.31 114.10 267.43 117.87 C 266.82 118.10 265.62 118.56 265.02 118.79 C 264.12 118.51 263.22 118.24 262.33 117.97 C 260.96 116.65 259.54 115.39 258.07 114.20 Z" />
<path fill="#ffffff" opacity="1.00" d=" M 268.09 117.95 C 269.43 117.58 270.18 116.39 270.98 115.36 C 272.15 117.35 273.82 118.96 275.36 120.66 C 274.21 120.92 273.13 121.37 272.13 122.00 C 271.37 121.91 269.83 121.72 269.06 121.63 C 268.74 120.40 268.41 119.17 268.09 117.95 M 270.12 118.17 C 269.86 119.50 271.58 121.22 272.90 121.01 C 273.21 119.69 271.49 117.67 270.12 118.17 Z" />
<path fill="#ffffff" opacity="1.00" d=" M 246.16 116.68 C 246.71 116.67 247.82 116.64 248.38 116.63 C 248.57 117.10 248.97 118.04 249.17 118.51 L 251.12 117.73 L 251.12 119.57 C 251.62 119.60 252.61 119.66 253.11 119.69 C 251.59 120.47 250.19 121.78 248.41 121.80 C 247.99 121.20 247.15 120.00 246.73 119.40 L 248.76 119.13 C 247.89 118.32 247.01 117.51 246.16 116.68 Z" />
<path fill="#ffffff" opacity="1.00" d=" M 189.99 118.01 C 190.11 117.88 190.37 117.60 190.50 117.47 C 190.37 117.60 190.11 117.88 189.99 118.01 Z" />
<path fill="#ffffff" opacity="1.00" d=" M 189.99 118.01 C 189.25 118.66 189.25 118.66 189.99 118.01 Z" />
<path fill="#ffffff" opacity="1.00" d=" M 201.89 122.30 C 203.56 120.72 205.26 119.17 207.08 117.77 C 206.76 118.69 206.42 119.61 206.08 120.53 C 207.16 120.49 208.16 120.84 209.11 121.33 L 208.24 118.70 C 212.79 119.61 208.92 122.07 207.66 123.85 C 207.67 123.34 207.70 122.33 207.72 121.83 C 206.32 123.14 204.84 124.40 203.06 125.17 C 203.14 123.91 203.71 122.94 204.76 122.25 C 204.04 122.26 202.61 122.29 201.89 122.30 Z" />
<path fill="#ffffff" opacity="1.00" d=" M 193.70 123.69 C 196.35 121.74 198.86 119.06 202.40 118.98 C 201.62 120.27 200.51 121.30 199.42 122.33 C 197.08 122.91 195.00 124.39 193.97 126.61 C 191.36 128.89 188.69 131.19 186.97 134.26 C 190.66 132.25 192.91 128.43 196.56 126.34 L 196.27 125.29 L 197.70 125.79 C 194.73 121.76 199.97 126.00 201.49 124.42 C 199.71 126.40 197.47 127.88 195.46 129.62 C 193.26 131.52 192.12 134.36 189.74 136.09 C 190.05 136.44 190.37 136.79 190.70 137.14 C 193.95 132.62 198.50 129.22 203.08 126.12 C 200.99 129.22 198.10 131.61 195.49 134.22 C 195.63 134.57 195.92 135.26 196.07 135.61 C 194.74 137.17 193.46 138.80 191.86 140.10 C 191.71 139.67 191.42 138.82 191.27 138.39 C 190.08 139.68 188.38 140.83 188.45 142.81 C 187.95 142.51 186.97 141.91 186.48 141.61 C 187.10 140.79 188.35 139.14 188.98 138.31 L 185.63 140.08 C 186.51 138.24 187.86 136.72 189.12 135.14 C 188.47 135.23 187.17 135.39 186.52 135.48 L 187.23 136.41 C 185.37 138.15 183.96 140.28 182.88 142.58 C 182.49 142.04 182.10 141.51 181.73 140.97 C 180.89 142.30 179.79 143.29 178.42 143.92 C 179.16 142.41 180.09 140.97 180.40 139.29 C 181.62 137.88 182.87 136.51 184.12 135.14 L 182.00 135.86 C 184.00 130.26 189.33 127.25 193.70 123.69 M 188.38 138.03 C 188.69 138.29 188.69 138.29 188.38 138.03 Z" />
<path fill="#ffffff" opacity="1.00" d=" M 221.14 125.44 C 222.76 123.47 224.85 121.99 226.97 120.62 C 226.82 121.22 226.51 122.43 226.35 123.03 C 224.48 123.52 222.92 124.72 221.14 125.44 Z" />
<path fill="#ffffff" opacity="1.00" d=" M 236.19 120.88 C 237.08 121.32 237.99 121.77 238.89 122.21 C 238.36 122.36 237.30 122.66 236.77 122.81 C 237.01 123.37 237.48 124.50 237.71 125.06 C 235.98 126.58 234.22 128.13 232.02 128.94 C 233.96 127.09 233.99 123.85 236.59 122.72 C 236.49 122.26 236.29 121.34 236.19 120.88 Z" />
<path fill="#ffffff" opacity="1.00" d=" M 226.35 123.03 C 227.32 122.56 228.31 122.16 229.32 121.81 C 227.94 123.84 226.56 125.88 224.88 127.68 C 224.16 127.44 222.72 126.94 222.00 126.69 C 223.45 125.46 224.89 124.23 226.35 123.03 Z" />
<path fill="#ffffff" opacity="1.00" d=" M 278.93 121.53 C 280.62 122.55 282.59 122.96 284.29 123.99 C 281.99 124.54 279.80 125.40 277.76 126.58 C 277.36 126.20 276.56 125.44 276.16 125.07 C 276.27 125.57 276.48 126.59 276.59 127.10 C 273.43 128.08 270.14 127.89 267.26 126.21 C 267.28 125.86 267.33 125.17 267.36 124.83 C 271.19 124.11 276.18 124.70 278.93 121.53 Z" />
<path fill="#ffffff" opacity="1.00" d=" M 250.21 123.22 L 250.71 123.15 L 250.99 124.38 C 252.66 124.07 254.36 123.86 256.06 123.64 C 255.32 123.98 253.85 124.66 253.12 124.99 C 254.50 126.04 256.14 126.58 257.84 126.86 C 257.13 127.87 256.38 128.85 255.60 129.81 C 254.68 128.31 253.14 127.45 251.78 126.44 L 251.25 128.48 C 249.75 127.12 250.46 124.98 250.21 123.22 Z" />
<path fill="#ffffff" opacity="1.00" d=" M 289.99 123.15 C 290.74 123.11 292.22 123.04 292.97 123.00 C 292.52 124.14 291.53 124.39 290.01 123.77 L 289.99 123.15 Z" />
<path fill="#ffffff" opacity="1.00" d=" M 167.72 124.75 C 168.40 125.10 169.09 125.45 169.78 125.80 C 167.16 127.51 166.65 130.97 165.71 133.74 C 166.21 133.14 167.21 131.95 167.71 131.35 L 168.13 132.11 C 167.86 135.87 164.40 138.68 164.22 142.63 C 163.05 142.17 161.88 141.69 160.71 141.23 C 161.52 139.24 162.30 136.26 165.07 136.42 C 164.88 136.01 164.49 135.19 164.30 134.78 L 166.15 134.25 C 165.57 133.68 164.42 132.55 163.84 131.98 L 163.33 131.57 C 163.44 131.17 163.66 130.36 163.78 129.95 L 164.33 129.38 L 165.42 129.76 C 166.06 128.03 166.89 126.39 167.72 124.75 Z" />
<path fill="#ffffff" opacity="1.00" d=" M 261.72 127.44 C 262.84 127.70 263.96 127.93 265.10 128.13 C 264.82 130.04 265.63 133.31 262.42 132.31 C 263.17 130.95 262.87 129.49 262.25 128.22 L 260.94 130.31 C 261.19 129.35 261.45 128.39 261.72 127.44 Z" />
<path fill="#ffffff" opacity="1.00" d=" M 204.62 128.18 C 205.77 128.51 206.36 129.30 206.37 130.54 C 206.96 130.20 208.15 129.50 208.74 129.16 C 206.58 131.53 204.39 133.88 202.30 136.31 C 200.94 137.97 199.64 139.68 198.29 141.34 C 195.62 144.45 194.23 148.68 190.80 151.06 L 190.34 148.58 C 193.26 148.06 194.39 144.63 195.18 142.14 C 193.35 143.00 191.60 144.01 189.84 144.99 C 193.84 138.62 199.56 133.65 204.62 128.18 Z" />
<path fill="#ffffff" opacity="1.00" d=" M 215.25 138.28 C 215.48 133.88 219.89 131.26 222.55 128.11 C 221.83 129.82 221.30 131.69 219.93 133.02 C 218.40 134.79 217.52 137.29 215.25 138.28 Z" />
<path fill="#ffffff" opacity="1.00" d=" M 259.36 128.17 C 260.60 128.89 260.57 129.62 259.28 130.35 C 258.07 129.65 258.10 128.92 259.36 128.17 Z" />
<path fill="#ffffff" opacity="1.00" d=" M 236.35 130.48 C 238.12 130.54 236.64 132.82 235.56 132.79 C 233.72 132.79 235.16 130.33 236.35 130.48 Z" />
<path fill="#ffffff" opacity="1.00" d=" M 219.03 139.03 C 219.10 136.43 221.06 134.53 222.98 133.04 C 222.16 135.32 220.70 137.30 219.03 139.03 Z" />
<path fill="#ffffff" opacity="1.00" d=" M 237.34 133.44 C 239.25 134.10 236.54 137.22 235.16 136.56 C 234.58 135.22 236.12 133.75 237.34 133.44 Z" />
<path fill="#ffffff" opacity="1.00" d=" M 160.89 137.36 C 160.57 136.20 161.43 134.08 162.80 134.23 C 163.10 135.36 162.23 137.52 160.89 137.36 Z" />
<path fill="#ffffff" opacity="1.00" d=" M 235.38 138.90 C 237.24 137.18 239.15 135.50 241.23 134.05 C 240.54 135.40 239.52 136.52 238.36 137.48 C 238.65 138.07 239.24 139.24 239.53 139.83 C 238.65 141.20 237.42 142.13 235.76 142.24 L 237.44 141.11 C 236.77 140.36 236.07 139.63 235.38 138.90 Z" />
<path fill="#ffffff" opacity="1.00" d=" M 206.98 137.04 C 207.60 136.41 208.22 135.77 208.84 135.13 C 209.16 135.72 209.80 136.88 210.12 137.46 C 207.79 136.79 207.13 139.42 205.90 140.70 C 203.00 145.16 198.87 148.52 195.28 152.37 C 194.62 151.97 193.97 151.57 193.33 151.17 C 195.12 149.11 196.65 146.86 198.19 144.62 C 200.95 145.00 201.95 141.92 203.17 140.06 C 202.35 140.79 201.53 141.50 200.70 142.22 L 200.07 142.13 C 199.52 140.37 202.38 138.47 203.35 136.78 C 203.94 137.49 204.53 138.21 205.12 138.93 C 205.74 138.30 206.36 137.67 206.98 137.04 Z" />
<path fill="#ffffff" opacity="1.00" d=" M 259.31 136.96 C 260.15 135.88 261.59 135.57 262.75 134.93 C 262.73 136.23 262.70 137.52 262.67 138.82 C 262.44 138.72 261.98 138.50 261.75 138.39 C 261.52 139.15 261.05 140.66 260.81 141.41 C 261.06 141.82 261.55 142.65 261.80 143.06 C 261.27 143.14 260.22 143.31 259.69 143.40 C 259.47 141.26 258.97 139.11 259.31 136.96 Z" />
<path fill="#ffffff" opacity="1.00" d=" M 229.45 137.21 C 232.49 136.70 229.03 141.00 227.47 139.80 C 226.97 138.58 228.52 137.63 229.45 137.21 Z" />
<path fill="#ffffff" opacity="1.00" d=" M 252.58 142.50 C 253.89 141.31 255.30 140.26 256.71 139.19 C 256.73 139.63 256.77 140.50 256.79 140.94 C 256.36 141.20 255.49 141.71 255.05 141.97 C 256.14 142.88 257.21 142.53 258.27 140.91 C 258.09 141.89 257.73 143.84 257.55 144.82 C 256.77 145.19 255.99 145.55 255.21 145.91 C 255.28 145.11 255.42 143.50 255.49 142.69 C 254.77 142.64 253.31 142.55 252.58 142.50 Z" />
<path fill="#ffffff" opacity="1.00" d=" M 190.24 141.51 C 190.55 141.22 190.55 141.22 190.24 141.51 Z" />
<path fill="#ffffff" opacity="1.00" d=" M 225.03 144.31 C 226.22 143.13 227.52 142.08 228.98 141.25 C 228.45 143.06 227.03 144.32 225.77 145.63 C 225.17 146.88 224.44 148.07 223.72 149.26 C 223.43 148.95 222.85 148.34 222.56 148.03 C 221.75 148.59 220.96 149.14 220.16 149.70 C 220.67 147.86 221.35 146.05 222.75 144.69 C 223.32 144.59 224.46 144.40 225.03 144.31 Z" />
<path fill="#ffffff" opacity="1.00" d=" M 239.04 141.26 C 239.65 141.85 239.65 141.85 239.04 141.26 Z" />
<path fill="#ffffff" opacity="1.00" d=" M 190.24 141.51 C 189.88 141.99 189.88 141.99 190.24 141.51 Z" />
<path fill="#ffffff" opacity="1.00" d=" M 199.35 141.97 L 200.07 142.13 C 201.28 144.31 197.42 143.89 199.35 141.97 Z" />
<path fill="#ffffff" opacity="1.00" d=" M 199.22 152.43 C 203.59 149.55 205.89 144.59 210.16 141.63 C 209.25 144.18 205.80 145.96 206.61 148.88 L 205.77 148.66 C 204.99 152.16 202.06 154.61 198.99 156.14 C 198.89 155.55 198.70 154.37 198.61 153.78 C 200.13 153.75 200.33 153.30 199.22 152.43 Z" />
<path fill="#ffffff" opacity="1.00" d=" M 156.39 142.80 C 157.48 143.55 158.55 144.34 159.62 145.13 C 159.52 145.59 159.33 146.51 159.23 146.98 C 159.90 147.47 160.56 147.96 161.24 148.45 L 161.66 146.58 L 162.79 146.96 C 161.97 148.04 161.21 149.17 160.65 150.41 C 161.15 150.42 162.13 150.44 162.62 150.45 C 162.66 150.86 162.73 151.67 162.77 152.08 C 163.24 151.90 164.17 151.55 164.63 151.38 C 164.71 154.32 164.15 157.20 163.11 159.95 C 160.88 159.12 162.08 156.49 161.62 154.77 L 162.64 155.24 C 162.48 153.80 162.31 152.36 162.13 150.93 C 160.69 151.70 160.24 152.97 160.77 154.74 C 160.07 154.99 158.67 155.47 157.97 155.72 C 156.79 153.13 159.06 150.86 159.83 148.56 C 159.25 148.75 158.10 149.12 157.52 149.31 L 158.02 151.19 C 156.69 150.66 155.36 150.11 154.03 149.57 C 154.81 148.27 155.62 147.00 156.45 145.73 C 156.43 145.00 156.40 143.53 156.39 142.80 Z" />
<path fill="#ffffff" opacity="1.00" d=" M 180.73 143.05 C 181.08 143.07 181.77 143.11 182.12 143.13 C 181.72 144.38 181.04 145.46 180.08 146.38 C 179.65 147.16 177.85 146.94 178.57 145.86 C 179.22 144.87 179.94 143.93 180.73 143.05 Z" />
<path fill="#ffffff" opacity="1.00" d=" M 202.29 156.49 C 206.44 153.76 208.17 148.87 210.92 144.95 C 210.51 147.00 209.30 148.73 208.27 150.50 C 209.29 151.23 210.34 151.95 211.38 152.67 C 210.97 150.47 212.10 149.33 214.01 148.99 C 210.89 155.82 207.02 162.26 203.81 169.04 C 203.36 169.20 202.47 169.51 202.03 169.67 C 202.56 168.25 203.13 166.85 203.75 165.47 C 203.54 164.71 203.33 163.96 203.13 163.21 C 204.28 160.98 205.37 158.72 206.50 156.49 C 206.93 157.12 207.79 158.37 208.22 158.99 C 208.66 157.75 209.54 155.27 209.98 154.02 C 208.89 154.69 207.82 155.37 206.77 156.08 C 206.97 155.45 207.36 154.20 207.56 153.57 C 207.59 153.47 207.66 153.29 207.69 153.20 L 207.56 153.57 C 204.82 155.63 204.19 159.38 201.91 161.89 C 201.00 163.59 200.39 165.44 199.40 167.10 C 199.41 166.49 199.42 165.27 199.43 164.66 C 199.08 164.44 198.39 164.01 198.04 163.79 C 199.69 161.49 200.24 158.47 202.29 156.49 M 209.37 153.37 C 209.65 153.65 209.65 153.65 209.37 153.37 M 206.14 159.25 C 206.77 159.76 206.77 159.76 206.14 159.25 M 205.26 161.31 C 205.91 161.78 205.91 161.78 205.26 161.31 Z" />
<path fill="#ffffff" opacity="1.00" d=" M 277.84 147.16 C 276.69 145.44 281.02 144.24 279.61 146.53 C 279.17 146.69 278.29 147.00 277.84 147.16 Z" />
<path fill="#ffffff" opacity="1.00" d=" M 178.77 152.45 C 180.61 150.29 181.82 147.64 183.93 145.71 C 183.16 147.70 181.79 149.36 180.52 151.05 C 181.52 150.80 182.52 150.58 183.54 150.41 C 183.69 152.17 182.27 153.49 181.54 154.96 C 181.62 154.31 181.77 153.00 181.84 152.35 C 180.49 153.40 179.84 156.11 177.58 155.37 C 176.09 155.94 174.70 156.73 173.60 157.89 C 172.08 159.50 169.68 159.41 167.92 160.63 C 168.26 158.70 170.67 158.69 170.87 156.74 C 172.80 154.97 174.83 152.96 177.41 152.20 C 177.63 151.58 178.08 150.35 178.30 149.74 C 178.42 150.42 178.65 151.77 178.77 152.45 Z" />
<path fill="#ffffff" opacity="1.00" d=" M 225.69 151.97 C 226.73 149.84 227.34 147.14 229.64 145.98 C 229.65 147.45 229.63 148.93 229.61 150.40 C 228.16 150.56 226.84 151.09 225.69 151.97 Z" />
<path fill="#ffffff" opacity="1.00" d=" M 243.03 152.58 C 243.51 150.04 243.91 147.34 246.45 145.97 C 246.83 148.24 246.63 150.51 245.49 152.54 C 244.87 152.55 243.64 152.57 243.03 152.58 Z" />
<path fill="#ffffff" opacity="1.00" d=" M 184.21 148.15 C 184.75 148.76 184.75 148.76 184.21 148.15 Z" />
<path fill="#ffffff" opacity="1.00" d=" M 233.22 148.26 C 234.89 148.78 233.56 152.28 231.95 151.76 C 231.08 150.63 231.90 148.63 233.22 148.26 Z" />
<path fill="#ffffff" opacity="1.00" d=" M 283.01 149.92 C 282.70 148.43 283.27 147.83 284.70 148.11 C 284.89 149.39 284.32 149.99 283.01 149.92 Z" />
<path fill="#ffffff" opacity="1.00" d=" M 183.35 156.61 C 185.29 154.21 186.48 150.97 189.54 149.71 C 188.52 152.08 186.77 154.00 185.55 156.25 C 186.23 155.70 187.59 154.59 188.27 154.04 C 189.43 155.16 188.34 156.55 187.60 157.48 C 185.54 159.93 183.43 162.42 180.64 164.07 C 181.37 161.96 182.67 160.12 184.15 158.47 C 183.88 157.85 183.62 157.23 183.35 156.61 Z" />
<path fill="#ffffff" opacity="1.00" d=" M 269.91 152.89 C 270.33 152.79 271.19 152.60 271.61 152.50 C 271.09 154.87 271.01 157.52 269.19 159.35 C 269.03 157.17 269.01 154.93 269.91 152.89 Z" />
<path fill="#ffffff" opacity="1.00" d=" M 192.08 152.20 C 194.00 153.95 194.34 156.64 192.32 158.53 C 191.73 158.92 191.19 158.85 190.69 158.32 C 189.92 158.66 188.37 159.34 187.60 159.67 C 189.00 157.13 190.60 154.69 192.08 152.20 Z" />
<path fill="#ffffff" opacity="1.00" d=" M 237.53 153.33 C 240.21 152.54 236.92 158.62 235.79 156.26 C 235.98 155.06 236.56 154.08 237.53 153.33 Z" />
<path fill="#ffffff" opacity="1.00" d=" M 195.39 155.96 C 196.25 155.50 197.15 155.24 198.10 155.19 C 197.48 158.39 195.27 161.58 192.58 163.52 C 191.48 164.26 190.26 164.76 188.91 164.72 C 188.50 165.90 188.09 167.08 187.69 168.26 C 189.67 170.47 186.36 173.18 186.21 175.63 C 185.97 175.62 185.47 175.58 185.23 175.56 C 186.19 173.43 187.16 171.31 188.15 169.19 C 187.46 169.32 186.07 169.58 185.38 169.71 C 186.57 167.36 187.70 164.89 189.76 163.16 L 188.88 161.21 C 189.65 161.43 191.20 161.87 191.97 162.09 L 191.19 160.72 L 191.89 160.14 C 193.43 159.10 194.35 157.45 195.39 155.96 Z" />
<path fill="#ffffff" opacity="1.00" d=" M 158.81 157.26 C 159.53 156.60 161.40 155.54 161.15 157.43 C 160.26 159.06 159.38 160.71 158.19 162.14 C 158.37 160.51 158.63 158.89 158.81 157.26 Z" />
<path fill="#ffffff" opacity="1.00" d=" M 235.85 161.81 C 237.56 160.05 237.99 157.45 239.86 155.80 C 239.52 157.15 239.14 158.49 238.69 159.81 C 238.58 161.25 238.40 162.68 238.09 164.09 C 236.23 164.60 234.78 165.68 233.74 167.35 C 234.31 165.49 234.26 163.21 235.85 161.81 Z" />
<path fill="#ffffff" opacity="1.00" d=" M 194.13 166.97 C 194.12 163.42 196.82 160.51 198.93 157.86 C 198.22 161.26 196.37 164.36 194.13 166.97 Z" />
<path fill="#ffffff" opacity="1.00" d=" M 220.56 169.07 C 221.51 165.47 221.75 161.48 223.95 158.38 C 224.36 158.26 225.19 158.01 225.60 157.88 C 224.63 159.53 223.77 161.24 223.05 163.01 C 223.84 162.49 225.43 161.45 226.23 160.93 C 224.71 165.84 222.40 170.45 220.76 175.32 C 221.05 175.79 221.63 176.72 221.92 177.19 C 221.70 178.20 221.27 180.22 221.05 181.22 C 219.58 179.41 219.09 175.72 216.01 176.62 C 216.42 175.10 216.80 173.57 217.14 172.03 C 217.92 173.35 218.55 174.79 218.37 176.38 C 218.46 173.75 222.05 171.48 220.56 169.07 Z" />
<path fill="#ffffff" opacity="1.00" d=" M 242.81 158.89 C 242.58 160.95 242.26 163.00 241.86 165.03 C 241.05 165.55 240.26 166.08 239.46 166.61 C 239.68 165.40 239.89 164.18 240.11 162.97 C 241.38 161.87 242.15 160.41 242.81 158.89 Z" />
<path fill="#ffffff" opacity="1.00" d=" M 256.18 158.78 C 258.08 160.28 258.84 162.50 258.99 164.87 C 259.35 164.80 260.06 164.67 260.42 164.60 C 260.57 165.20 260.87 166.39 261.02 166.98 C 261.41 168.33 261.74 169.70 262.07 171.07 C 260.85 170.08 259.64 169.05 258.45 168.03 C 256.88 170.58 260.02 172.59 260.98 174.79 C 258.98 174.69 255.03 174.92 256.83 171.88 C 257.25 170.25 257.57 168.57 258.48 167.13 C 258.32 165.75 258.13 164.38 257.91 163.01 C 256.77 161.86 256.10 160.43 256.18 158.78 Z" />
<path fill="#ffffff" opacity="1.00" d=" M 299.92 159.11 C 300.73 158.98 301.03 159.34 300.82 160.20 C 300.33 161.33 299.59 162.25 298.62 162.95 L 298.13 162.86 C 297.56 161.40 299.03 160.09 299.92 159.11 Z" />
<path fill="#ffffff" opacity="1.00" d=" M 183.33 165.18 C 184.24 162.90 185.09 160.40 187.24 158.98 C 186.76 161.42 185.78 164.09 183.33 165.18 Z" />
<path fill="#ffffff" opacity="1.00" d=" M 190.37 160.37 C 190.65 160.65 190.65 160.65 190.37 160.37 Z" />
<path fill="#ffffff" opacity="1.00" d=" M 274.99 161.98 C 276.07 161.53 278.11 159.25 277.92 161.78 C 276.69 164.43 276.34 167.32 276.40 170.22 C 273.56 168.68 275.27 164.61 274.99 161.98 Z" />
<path fill="#ffffff" opacity="1.00" d=" M 206.20 170.60 C 208.21 166.74 209.03 162.31 211.73 158.82 C 211.69 161.47 211.63 164.12 211.30 166.75 L 211.51 166.74 C 212.17 166.05 213.50 164.67 214.16 163.98 C 213.53 166.96 211.66 169.97 212.97 173.07 L 211.70 172.70 C 211.99 174.63 212.01 176.98 209.67 177.79 L 209.62 175.58 C 209.50 174.99 209.27 173.82 209.16 173.23 C 210.23 172.04 209.30 170.74 208.83 169.53 C 207.95 169.89 207.08 170.25 206.20 170.60 Z" />
<path fill="#ffffff" opacity="1.00" d=" M 267.27 166.61 C 266.32 165.08 265.91 163.43 267.12 161.95 C 268.02 163.59 268.92 165.23 269.93 166.81 C 270.16 166.07 270.61 164.58 270.84 163.84 C 270.69 165.66 270.91 167.73 269.64 169.23 C 269.69 167.61 268.90 166.74 267.27 166.61 Z" />
<path fill="#ffffff" opacity="1.00" d=" M 217.92 163.26 C 221.37 163.15 216.66 166.29 217.92 163.26 Z" />
<path fill="#ffffff" opacity="1.00" d=" M 253.53 163.53 C 253.96 163.56 254.82 163.62 255.25 163.65 C 255.39 165.15 255.53 166.65 255.66 168.16 C 253.28 167.77 253.61 165.33 253.53 163.53 Z" />
<path fill="#ffffff" opacity="1.00" d=" M 279.51 165.21 C 281.12 162.73 284.15 161.93 286.90 162.70 C 293.69 163.08 297.26 169.93 299.91 175.30 C 299.15 175.40 297.61 175.58 296.85 175.68 C 297.80 176.14 298.80 176.49 299.89 176.53 C 300.21 179.73 299.91 183.05 298.50 185.98 C 298.49 186.61 298.48 187.88 298.47 188.51 L 297.08 188.34 C 297.30 189.77 297.52 191.20 297.76 192.62 C 296.50 192.08 295.25 191.52 293.96 191.08 C 294.72 190.35 295.50 189.62 296.30 188.91 C 296.74 186.31 295.17 183.93 295.41 181.31 C 295.87 181.32 296.78 181.35 297.24 181.37 L 297.16 180.03 L 298.96 180.44 C 297.86 178.68 296.63 176.91 294.55 176.27 C 292.49 171.51 289.46 166.54 283.94 165.49 C 282.83 165.42 280.62 165.28 279.51 165.21 Z" />
<path fill="#ffffff" opacity="1.00" d=" M 214.52 169.38 C 213.75 167.00 215.27 164.87 216.06 162.75 C 216.79 164.29 217.51 165.85 218.22 167.40 C 217.72 167.37 216.72 167.29 216.22 167.25 C 216.50 167.86 217.05 169.08 217.32 169.69 C 216.62 169.61 215.22 169.46 214.52 169.38 Z" />
<path fill="#ffffff" opacity="1.00" d=" M 224.29 176.85 C 225.04 173.14 225.45 169.09 227.77 165.96 C 227.46 169.66 228.42 174.90 224.29 176.85 Z" />
<path fill="#ffffff" opacity="1.00" d=" M 217.86 170.37 C 218.16 169.44 218.21 167.04 219.61 167.29 C 220.16 168.78 219.24 170.39 218.96 171.87 C 218.15 171.95 217.78 171.45 217.86 170.37 Z" />
<path fill="#ffffff" opacity="1.00" d=" M 197.18 174.47 C 198.03 172.10 199.00 169.76 200.41 167.66 C 200.43 169.58 200.42 171.49 200.44 173.41 L 199.33 173.13 C 199.86 175.80 198.55 178.25 197.40 180.55 C 198.01 180.62 199.23 180.75 199.84 180.82 C 199.40 182.42 199.10 184.05 199.03 185.72 C 198.42 185.73 197.20 185.77 196.59 185.78 L 197.07 182.35 C 195.67 183.90 195.51 186.07 194.91 187.98 C 195.58 187.43 196.93 186.33 197.60 185.78 C 197.57 187.51 197.15 189.20 196.82 190.89 C 198.08 193.54 197.25 196.48 196.99 199.26 C 196.06 197.49 194.66 195.89 194.32 193.87 C 194.45 191.98 194.89 190.11 195.18 188.24 C 194.69 188.33 193.72 188.50 193.23 188.59 C 193.68 187.45 194.12 186.30 194.54 185.15 C 192.31 183.01 194.48 182.08 196.50 181.76 C 196.13 181.05 195.40 179.65 195.03 178.94 C 193.72 179.23 193.18 180.13 193.40 181.63 C 193.07 181.67 192.40 181.74 192.07 181.78 C 192.39 180.52 192.74 179.27 193.11 178.02 C 194.52 178.29 195.83 178.83 196.80 179.92 C 196.13 177.59 198.02 176.03 199.21 174.31 L 197.18 174.47 Z" />
<path fill="#ffffff" opacity="1.00" d=" M 250.37 172.12 C 250.59 170.97 250.98 169.86 251.73 168.95 C 251.66 170.85 251.33 172.73 250.98 174.59 C 252.10 173.71 253.23 172.81 254.38 171.95 C 253.95 173.21 253.49 174.45 252.96 175.67 C 252.54 176.00 251.69 176.67 251.27 177.01 C 250.34 181.01 249.34 185.00 248.54 189.02 C 248.50 190.44 247.47 191.41 246.51 192.29 C 246.37 196.92 246.09 201.56 245.66 206.17 C 242.77 201.48 245.24 195.84 244.48 190.73 C 243.02 192.26 243.45 194.41 243.38 196.33 C 243.11 196.73 242.56 197.52 242.29 197.92 C 241.91 199.63 243.51 202.96 240.48 202.93 C 240.43 200.93 240.44 198.95 240.37 196.96 C 238.91 203.02 242.13 208.98 241.96 215.08 C 239.76 216.72 239.97 213.44 239.96 211.98 C 240.05 202.36 238.10 192.33 241.53 183.08 C 241.71 181.48 241.81 179.88 241.82 178.27 L 240.61 178.17 C 240.92 182.85 239.37 187.35 239.11 191.98 C 236.50 190.69 235.99 187.90 236.51 185.30 C 235.74 185.37 234.21 185.52 233.44 185.60 C 233.91 182.26 234.86 179.03 235.62 175.76 C 235.13 175.00 234.63 174.25 234.15 173.49 C 234.54 173.39 235.31 173.20 235.70 173.10 L 235.09 174.63 L 236.78 174.67 C 236.68 175.58 236.49 177.40 236.39 178.31 C 238.95 177.48 238.68 174.36 240.62 172.86 C 240.53 173.64 240.36 175.20 240.27 175.98 C 243.26 176.10 242.92 172.71 243.96 170.88 C 246.88 176.35 242.58 181.99 243.67 187.69 C 243.23 187.47 242.34 187.04 241.90 186.83 C 242.53 188.13 242.65 189.52 242.26 190.99 C 241.97 188.61 243.96 187.52 245.86 188.49 C 245.61 187.35 244.78 186.47 244.18 185.51 C 243.77 183.36 244.86 179.13 247.77 181.64 C 247.17 182.21 246.55 182.76 245.92 183.30 L 248.38 183.80 C 248.09 183.60 247.53 183.21 247.24 183.02 C 247.30 181.79 250.66 178.74 247.97 178.43 C 247.28 178.82 245.88 179.59 245.19 179.98 C 245.39 177.73 245.50 175.45 246.14 173.27 C 247.06 173.69 247.98 174.14 248.89 174.60 C 249.38 173.77 249.87 172.94 250.37 172.12 Z" />
<path fill="#ffffff" opacity="1.00" d=" M 212.95 168.82 C 213.87 169.30 215.72 170.26 216.64 170.75 C 215.47 174.06 214.80 177.59 215.52 181.09 C 211.54 180.01 214.37 175.23 213.39 172.33 L 214.97 172.84 C 213.98 171.66 213.30 170.32 212.95 168.82 Z" />
<path fill="#ffffff" opacity="1.00" d=" M 247.24 170.38 C 249.01 168.77 249.27 172.29 248.22 173.11 C 246.80 173.53 246.32 171.14 247.24 170.38 Z" />
<path fill="#ffffff" opacity="1.00" d=" M 266.12 170.11 C 269.44 170.58 264.39 172.93 266.12 170.11 Z" />
<path fill="#ffffff" opacity="1.00" d=" M 299.89 170.09 C 302.23 171.67 304.95 172.95 306.25 175.61 C 305.80 175.92 304.90 176.54 304.45 176.85 C 305.41 176.65 307.32 176.24 308.28 176.04 C 307.76 177.00 306.73 178.92 306.22 179.88 C 305.47 179.57 303.97 178.97 303.22 178.66 C 301.66 175.99 300.78 173.02 299.89 170.09 Z" />
<path fill="#ffffff" opacity="1.00" d=" M 205.79 170.47 C 206.91 170.87 208.41 171.29 208.29 172.82 C 209.16 177.41 208.29 182.21 205.87 186.21 C 205.54 185.57 204.86 184.29 204.52 183.65 C 204.45 186.23 204.39 188.81 204.14 191.38 C 206.95 191.24 205.02 194.77 205.51 196.36 C 204.99 196.37 203.96 196.38 203.45 196.39 C 203.06 194.48 202.61 192.59 202.32 190.67 L 201.12 190.78 C 201.55 188.42 200.85 185.35 203.54 184.18 C 203.39 183.51 203.09 182.16 202.94 181.48 C 203.49 181.59 204.60 181.82 205.15 181.93 C 204.93 181.36 204.48 180.21 204.26 179.63 C 204.93 176.61 205.48 173.55 205.79 170.47 Z" />
<path fill="#ffffff" opacity="1.00" d=" M 342.35 171.68 C 344.17 171.88 346.02 171.79 347.83 172.15 C 347.52 172.97 347.11 173.75 346.59 174.48 C 345.23 173.97 343.95 173.38 342.63 172.80 C 335.61 175.35 330.28 181.01 325.81 186.80 C 322.69 190.97 322.39 196.24 320.69 200.96 C 320.40 200.88 319.80 200.71 319.50 200.63 C 319.60 196.30 320.87 191.99 323.24 188.36 C 326.15 184.03 330.40 180.85 333.58 176.74 C 334.66 175.37 335.96 174.22 337.26 173.08 C 339.17 174.05 340.79 172.60 342.35 171.68 Z" />
<path fill="#ffffff" opacity="1.00" d=" M 354.06 173.70 C 351.65 173.75 348.66 173.64 348.09 170.71 C 350.74 171.76 353.41 172.75 356.08 173.75 C 355.73 177.36 355.61 181.00 355.77 184.63 C 353.82 187.30 352.75 190.62 350.17 192.80 C 353.38 187.10 357.62 180.27 354.06 173.70 Z" />
<path fill="#ffffff" opacity="1.00" d=" M 261.17 171.67 C 262.75 172.57 263.84 174.04 265.05 175.36 C 265.00 175.66 264.89 176.25 264.84 176.55 C 264.43 176.32 263.62 175.87 263.21 175.64 L 262.52 177.04 C 262.46 175.16 261.84 173.40 261.17 171.67 Z" />
<path fill="#ffffff" opacity="1.00" d=" M 264.49 172.35 C 263.97 171.85 263.97 171.85 264.49 172.35 Z" />
<path fill="#ffffff" opacity="1.00" d=" M 228.27 172.11 C 229.07 173.10 229.86 174.10 230.66 175.11 C 228.54 176.94 229.04 180.10 227.24 182.13 C 227.26 185.90 227.45 189.68 227.21 193.46 C 226.75 193.51 225.84 193.63 225.38 193.69 C 224.25 190.49 226.06 187.23 225.29 184.03 C 224.19 186.39 224.55 189.41 222.63 191.35 C 223.08 188.13 222.66 184.49 225.10 181.95 C 225.74 178.53 227.68 175.54 228.27 172.11 Z" />
<path fill="#ffffff" opacity="1.00" d=" M 264.49 172.35 C 266.36 173.17 268.22 174.05 270.18 174.67 C 269.41 177.29 264.31 174.84 264.49 172.35 Z" />
<path fill="#ffffff" opacity="1.00" d=" M 277.29 173.11 C 278.68 172.79 279.21 173.33 278.89 174.71 C 277.50 175.02 276.97 174.48 277.29 173.11 Z" />
<path fill="#ffffff" opacity="1.00" d=" M 281.09 174.69 C 282.41 174.45 283.73 174.23 285.06 174.05 C 286.93 175.11 287.45 177.49 288.58 179.19 L 285.74 178.12 C 286.29 179.68 287.32 180.75 288.83 181.34 C 289.18 181.96 289.53 182.59 289.88 183.22 C 289.24 183.29 287.96 183.43 287.31 183.50 C 286.58 182.95 285.85 182.40 285.13 181.86 C 284.52 180.65 283.90 179.46 283.27 178.27 C 284.25 178.11 286.22 177.79 287.20 177.62 C 285.88 175.35 283.36 174.86 280.98 175.55 C 281.01 175.33 281.07 174.90 281.09 174.69 Z" />
<path fill="#ffffff" opacity="1.00" d=" M 347.58 174.92 C 348.78 172.49 349.89 174.14 350.69 175.72 C 348.81 176.50 346.89 177.16 344.90 177.58 C 341.87 179.76 339.14 182.36 336.03 184.38 C 335.51 186.17 334.28 187.56 332.68 188.47 C 332.78 187.84 332.98 186.58 333.08 185.95 L 334.80 184.57 C 334.14 184.60 332.82 184.66 332.17 184.69 C 330.31 187.00 327.86 188.97 326.81 191.83 C 325.94 192.97 325.05 194.11 324.03 195.13 C 323.49 192.54 326.73 190.70 327.18 188.10 C 327.98 187.26 328.81 186.44 329.66 185.64 C 332.58 183.69 333.03 179.74 336.18 178.17 C 337.59 177.24 339.22 176.71 340.82 176.18 C 338.81 178.93 335.67 180.45 333.25 182.78 C 333.88 183.40 334.53 184.02 335.18 184.64 C 337.44 181.33 340.59 178.58 344.01 176.49 C 345.06 175.69 346.28 175.18 347.58 174.92 Z" />
<path fill="#ffffff" opacity="1.00" d=" M 230.61 176.20 C 231.16 176.23 232.26 176.30 232.81 176.33 C 232.72 178.22 232.72 180.16 231.94 181.93 C 231.71 182.94 231.48 183.95 231.27 184.97 C 230.26 185.28 229.25 185.59 228.24 185.89 C 227.67 182.41 229.78 179.43 230.61 176.20 Z" />
<path fill="#ffffff" opacity="1.00" d=" M 251.55 178.99 C 253.59 176.60 257.34 177.56 259.98 178.32 C 262.18 178.87 260.43 181.31 260.59 182.82 C 261.31 183.61 262.08 184.36 262.82 185.13 C 262.49 185.83 261.82 187.22 261.49 187.92 C 262.10 188.62 262.73 189.32 263.29 190.08 C 262.79 191.35 262.49 192.69 262.29 194.05 C 263.32 192.28 264.11 190.39 264.81 188.47 C 264.21 188.36 263.03 188.13 262.43 188.02 C 263.34 186.06 264.16 184.03 265.62 182.41 L 265.05 185.11 L 266.76 183.93 L 267.40 185.24 C 267.87 185.19 268.82 185.09 269.29 185.04 C 269.09 187.03 268.19 188.98 266.24 189.85 C 266.53 188.36 266.90 186.88 267.28 185.41 C 266.40 186.23 265.52 187.05 264.64 187.88 C 264.94 188.63 265.53 190.12 265.82 190.87 C 268.59 190.50 268.64 186.96 270.82 185.85 C 272.15 186.53 273.48 187.24 274.80 187.96 C 274.63 189.21 274.45 190.47 274.28 191.73 C 274.47 191.70 274.86 191.64 275.05 191.62 C 275.05 191.08 275.06 190.00 275.06 189.46 C 276.96 189.82 278.65 190.74 279.83 192.30 C 280.46 193.16 281.08 194.04 281.69 194.93 C 282.25 194.43 283.38 193.43 283.94 192.93 C 284.90 194.67 284.62 196.59 284.21 198.44 C 282.27 198.05 281.68 196.87 282.46 194.90 C 280.54 196.67 278.70 194.27 276.72 194.15 C 276.36 193.65 275.65 192.67 275.30 192.17 C 272.55 193.12 271.81 195.87 271.04 198.34 C 269.66 196.23 270.34 193.86 272.50 192.67 C 272.00 191.89 271.53 191.12 271.01 190.36 L 270.04 190.84 C 269.52 190.98 268.50 191.24 267.99 191.37 C 267.68 192.56 267.39 193.76 267.09 194.96 C 267.55 194.49 268.47 193.56 268.93 193.10 C 269.57 194.55 269.37 196.00 268.34 197.44 C 268.93 197.50 270.11 197.63 270.69 197.69 C 270.56 198.24 270.28 199.33 270.14 199.87 C 270.57 199.66 271.43 199.24 271.86 199.03 C 272.10 200.85 270.12 204.98 273.72 203.53 C 273.18 205.78 273.78 208.49 272.19 210.38 C 271.98 208.39 271.94 206.39 271.88 204.39 C 271.44 204.50 270.54 204.73 270.09 204.84 C 269.87 203.31 269.63 201.79 269.37 200.27 C 268.08 203.05 269.23 206.30 267.92 209.09 C 266.68 211.56 267.65 214.34 267.60 216.96 C 266.08 213.97 264.95 210.79 263.29 207.87 C 262.96 210.38 263.00 212.93 263.34 215.44 C 263.17 215.47 262.84 215.52 262.68 215.55 C 261.34 212.18 261.11 208.64 261.34 205.05 C 260.27 205.96 259.31 207.04 258.00 207.62 C 258.13 211.72 257.94 216.02 259.64 219.86 C 259.38 219.85 258.85 219.84 258.59 219.83 C 257.74 216.00 257.12 212.10 255.68 208.44 L 254.11 207.71 C 254.28 210.34 254.70 212.97 255.56 215.48 C 255.33 215.49 254.88 215.51 254.66 215.52 C 253.74 211.62 253.58 207.56 252.41 203.71 C 252.02 205.90 251.65 208.10 251.20 210.29 C 250.41 209.03 249.87 207.65 249.44 206.25 L 248.58 206.42 C 245.78 197.19 248.98 187.85 251.55 178.99 M 260.26 189.00 C 259.82 191.64 259.69 194.34 258.85 196.90 C 258.59 198.32 258.80 199.95 257.64 201.04 C 257.70 201.72 257.81 203.08 257.87 203.76 L 256.40 203.22 C 256.36 204.50 256.33 205.77 256.30 207.06 C 259.34 207.04 258.29 203.65 258.82 201.72 C 259.90 197.64 261.28 193.19 260.26 189.00 M 265.27 191.20 C 265.85 191.83 265.85 191.83 265.27 191.20 M 267.03 198.24 C 265.28 201.28 270.29 198.44 267.03 198.24 Z" />
<path fill="#ffffff" opacity="1.00" d=" M 294.87 178.33 C 296.31 178.18 296.99 178.81 296.90 180.22 C 295.52 180.34 294.85 179.71 294.87 178.33 Z" />
<path fill="#ffffff" opacity="1.00" d=" M 216.75 178.43 C 219.08 178.51 219.84 180.77 220.63 182.54 C 219.77 184.67 219.57 187.51 217.45 188.82 C 217.84 186.30 218.48 183.83 219.10 181.36 L 217.71 182.11 C 217.25 180.92 216.93 179.69 216.75 178.43 Z" />
<path fill="#ffffff" opacity="1.00" d=" M 293.97 185.68 C 291.81 184.66 293.20 180.55 293.95 178.97 C 294.19 181.10 294.71 183.65 293.97 185.68 Z" />
<path fill="#ffffff" opacity="1.00" d=" M 261.96 180.27 C 263.38 179.20 265.06 181.67 263.75 182.74 C 262.44 183.26 261.37 181.36 261.96 180.27 Z" />
<path fill="#ffffff" opacity="1.00" d=" M 290.21 180.29 C 290.77 180.86 290.77 180.86 290.21 180.29 Z" />
<path fill="#ffffff" opacity="1.00" d=" M 303.68 185.33 C 304.53 182.88 306.56 181.19 308.79 180.02 C 308.70 182.67 306.16 184.85 303.68 185.33 Z" />
<path fill="#ffffff" opacity="1.00" d=" M 216.00 180.71 C 216.62 182.01 217.76 183.55 216.64 184.99 C 215.69 187.35 215.24 189.85 214.59 192.29 C 214.68 188.46 213.85 184.06 216.00 180.71 Z" />
<path fill="#ffffff" opacity="1.00" d=" M 332.51 192.91 C 336.91 188.55 341.83 184.00 347.92 182.36 C 346.20 184.67 343.22 185.28 340.92 186.81 C 338.29 188.27 336.84 191.03 335.05 193.33 C 336.58 193.80 338.11 194.32 339.66 194.77 C 341.17 192.66 343.03 190.82 345.00 189.15 C 344.92 190.89 343.52 191.97 342.21 192.86 C 341.16 193.91 340.17 195.04 339.02 195.98 C 336.87 196.76 334.49 196.43 332.26 196.64 C 332.34 195.39 332.42 194.15 332.51 192.91 Z" />
<path fill="#ffffff" opacity="1.00" d=" M 186.76 189.78 C 187.80 187.46 188.16 184.77 189.88 182.81 C 189.45 184.82 188.70 186.73 188.03 188.67 L 189.78 188.28 C 189.54 190.25 188.64 192.30 189.61 194.22 C 189.32 194.45 188.76 194.91 188.47 195.14 C 187.92 196.05 187.38 196.99 186.79 197.89 C 187.43 195.16 187.28 192.15 184.87 190.31 L 184.09 192.02 C 184.15 191.45 184.28 190.29 184.34 189.72 C 185.15 189.82 185.95 189.84 186.76 189.78 Z" />
<path fill="#ffffff" opacity="1.00" d=" M 220.05 191.25 C 220.49 188.23 219.29 183.24 222.76 181.95 C 222.17 185.14 222.56 188.80 220.05 191.25 Z" />
<path fill="#ffffff" opacity="1.00" d=" M 232.22 185.31 C 234.46 184.60 233.23 187.21 232.57 188.11 C 232.84 191.71 233.43 195.36 232.72 198.95 C 229.85 197.97 230.72 193.45 229.77 191.00 C 230.78 189.26 230.46 186.28 232.22 185.31 Z" />
<path fill="#ffffff" opacity="1.00" d=" M 304.05 187.14 C 305.64 186.22 307.27 185.33 309.07 184.88 C 308.35 185.57 306.93 186.95 306.21 187.63 C 307.02 187.65 308.64 187.68 309.45 187.70 L 307.40 187.79 L 307.45 189.12 C 310.83 189.30 309.10 192.06 307.15 192.81 C 306.95 191.74 306.76 190.66 306.59 189.59 C 305.48 189.49 304.39 189.28 303.32 188.96 C 303.50 188.50 303.87 187.59 304.05 187.14 Z" />
<path fill="#ffffff" opacity="1.00" d=" M 278.71 188.29 C 278.97 188.72 278.97 188.72 278.71 188.29 Z" />
<path fill="#ffffff" opacity="1.00" d=" M 287.61 193.92 C 284.55 192.17 279.53 191.81 279.38 187.45 C 281.00 189.94 284.52 188.69 286.46 190.83 C 286.81 190.64 287.50 190.25 287.84 190.06 C 287.78 191.34 287.71 192.63 287.61 193.92 Z" />
<path fill="#ffffff" opacity="1.00" d=" M 288.87 191.48 C 292.22 191.48 287.50 194.49 288.87 191.48 Z" />
<path fill="#ffffff" opacity="1.00" d=" M 329.59 193.19 C 328.54 195.96 329.25 200.23 326.07 201.48 C 326.07 198.29 327.68 195.60 329.59 193.19 Z" />
<path fill="#ffffff" opacity="1.00" d=" M 223.19 201.26 C 222.68 198.58 223.19 195.83 225.31 193.95 C 224.89 196.38 225.72 199.77 223.19 201.26 Z" />
<path fill="#ffffff" opacity="1.00" d=" M 285.65 196.45 C 286.73 196.22 287.80 195.95 288.86 195.64 C 289.17 196.00 289.80 196.73 290.12 197.09 C 291.68 197.46 293.25 196.94 294.73 196.45 C 295.87 196.64 297.02 196.79 298.18 196.91 C 298.77 198.42 298.76 199.71 296.59 199.86 C 298.78 200.19 299.67 201.23 299.25 202.99 C 299.86 202.74 301.07 202.24 301.68 201.99 C 302.10 202.68 302.94 204.06 303.36 204.75 C 302.67 206.15 302.35 207.63 302.40 209.19 C 301.13 207.40 300.21 205.41 300.46 203.14 L 299.20 203.23 L 299.05 205.17 C 297.95 205.44 296.85 205.72 295.76 206.03 C 295.62 204.20 295.46 202.37 295.30 200.55 C 294.67 201.24 293.42 202.63 292.79 203.33 C 292.19 201.54 292.50 199.32 291.33 197.80 L 291.05 198.48 L 290.83 199.87 L 290.29 200.49 L 289.56 199.45 C 287.51 200.08 285.29 198.73 285.65 196.45 M 293.90 198.63 C 294.15 199.00 294.65 199.72 294.90 200.08 C 297.23 200.09 294.88 196.56 293.90 198.63 Z" />
<path fill="#ffffff" opacity="1.00" d=" M 272.98 201.96 C 273.44 199.76 273.26 196.64 275.96 195.89 C 275.62 197.18 275.19 198.44 274.67 199.67 C 275.19 199.57 276.24 199.38 276.77 199.28 L 276.37 201.17 C 277.06 200.89 278.45 200.32 279.15 200.04 C 278.80 201.67 278.91 203.58 277.65 204.85 C 277.71 206.78 277.18 208.55 275.87 209.99 C 276.51 209.57 277.79 208.75 278.44 208.34 C 278.26 211.93 278.01 215.52 277.46 219.08 C 275.85 217.10 275.98 214.45 275.90 212.04 C 275.57 211.70 274.91 211.00 274.58 210.65 C 274.11 207.49 274.20 204.29 274.79 201.16 C 274.34 201.36 273.43 201.76 272.98 201.96 Z" />
<path fill="#ffffff" opacity="1.00" d=" M 235.02 197.56 L 235.76 197.38 C 236.17 199.84 236.38 202.33 236.48 204.82 C 235.54 204.71 234.61 204.61 233.68 204.50 C 233.68 203.56 233.69 201.68 233.70 200.74 C 234.21 199.70 234.65 198.64 235.02 197.56 Z" />
<path fill="#ffffff" opacity="1.00" d=" M 219.57 199.21 C 220.01 199.33 220.89 199.57 221.34 199.69 C 221.89 202.44 221.82 205.27 222.05 208.06 C 223.41 206.33 223.16 204.13 223.09 202.08 L 224.14 202.10 C 224.20 203.67 224.27 205.24 224.34 206.81 C 223.77 207.58 223.20 208.36 222.68 209.16 C 223.30 210.93 224.59 213.33 222.84 214.87 C 222.04 212.36 222.67 209.16 220.47 207.30 C 220.11 204.61 219.83 201.91 219.57 199.21 Z" />
<path fill="#ffffff" opacity="1.00" d=" M 335.32 201.00 C 338.65 203.28 341.89 200.52 344.74 198.85 C 343.81 200.71 342.82 202.53 341.73 204.30 C 340.66 204.72 339.60 205.17 338.55 205.65 C 336.77 205.66 334.91 206.06 333.21 205.30 L 333.29 206.12 C 329.67 206.96 325.23 206.35 322.70 203.48 C 324.78 204.03 326.72 205.18 328.89 205.34 C 331.17 204.12 333.35 202.69 335.32 201.00 Z" />
<path fill="#ffffff" opacity="1.00" d=" M 280.65 201.71 C 281.14 201.55 282.11 201.21 282.60 201.05 C 281.98 204.77 282.43 208.51 282.99 212.20 C 282.21 212.40 281.43 212.57 280.65 212.71 C 279.78 209.08 280.29 205.37 280.65 201.71 Z" />
<path fill="#ffffff" opacity="1.00" d=" M 331.90 201.41 C 332.56 202.00 332.56 202.00 331.90 201.41 Z" />
<path fill="#ffffff" opacity="1.00" d=" M 225.98 200.72 C 227.97 202.60 228.14 205.40 228.38 207.95 C 225.47 206.62 225.38 203.50 225.98 200.72 Z" />
<path fill="#ffffff" opacity="1.00" d=" M 284.36 201.79 C 285.55 202.98 286.51 204.37 287.32 205.85 C 286.77 205.74 285.68 205.52 285.13 205.41 C 284.96 205.83 284.63 206.66 284.47 207.08 C 284.42 205.31 284.33 203.55 284.36 201.79 Z" />
<path fill="#ffffff" opacity="1.00" d=" M 288.78 205.55 C 289.20 205.45 290.04 205.25 290.46 205.15 C 291.39 206.49 292.53 207.68 293.48 209.01 C 293.54 210.99 293.71 213.09 292.92 214.97 C 291.42 214.80 291.26 212.76 290.34 211.84 C 290.85 210.92 291.35 209.98 291.83 209.04 C 289.72 211.33 287.72 214.11 288.77 217.40 C 285.75 215.37 286.91 210.85 287.63 207.82 C 287.92 207.25 288.49 206.12 288.78 205.55 Z" />
<path fill="#ffffff" opacity="1.00" d=" M 303.59 207.01 C 303.88 206.22 304.47 204.65 304.77 203.86 C 306.41 205.04 307.71 206.60 308.88 208.24 C 310.25 208.82 312.43 208.60 312.64 210.52 C 313.16 210.04 314.21 209.10 314.74 208.62 L 314.46 210.82 C 315.33 210.61 317.07 210.20 317.94 209.99 C 317.55 210.62 316.79 211.89 316.41 212.52 C 314.58 214.90 311.55 212.11 309.67 211.07 C 308.29 208.90 305.85 207.97 303.59 207.01 Z" />
<path fill="#ffffff" opacity="1.00" d=" M 230.64 212.52 C 230.56 210.56 230.59 208.57 231.35 206.73 C 231.60 208.63 232.03 210.51 232.57 212.35 L 231.37 212.12 C 230.25 214.11 230.80 217.76 227.97 218.15 C 228.50 216.26 229.19 214.41 229.81 212.55 L 230.64 212.52 Z" />
<path fill="#ffffff" opacity="1.00" d=" M 284.17 213.15 C 283.84 210.90 283.88 208.57 284.92 206.49 C 286.38 208.40 286.29 211.73 284.17 213.15 Z" />
<path fill="#ffffff" opacity="1.00" d=" M 245.17 211.99 C 245.31 210.96 245.45 209.93 245.59 208.91 C 245.47 212.18 246.41 215.71 244.82 218.75 C 244.51 218.71 243.90 218.64 243.60 218.60 C 242.64 215.97 243.60 213.00 243.24 210.25 C 243.72 210.68 244.69 211.55 245.17 211.99 Z" />
<path fill="#ffffff" opacity="1.00" d=" M 295.46 210.32 C 297.04 210.58 296.47 214.27 295.11 214.63 C 294.51 213.32 294.71 211.53 295.46 210.32 Z" />
<path fill="#ffffff" opacity="1.00" d=" M 319.89 210.79 C 320.94 210.31 323.06 209.36 324.12 208.88 C 322.96 212.06 319.88 214.09 316.57 214.12 C 317.32 212.68 318.67 211.78 319.89 210.79 Z" />
<path fill="#ffffff" opacity="1.00" d=" M 297.17 211.41 C 298.03 212.02 298.86 212.66 299.68 213.35 C 299.45 214.70 298.59 215.83 298.01 217.05 C 297.44 215.22 297.31 213.30 297.17 211.41 Z" />
<path fill="#ffffff" opacity="1.00" d=" M 304.64 214.91 C 304.75 214.45 304.95 213.54 305.06 213.08 C 306.80 213.95 306.72 215.87 306.92 217.54 C 306.39 217.43 305.33 217.20 304.80 217.09 C 304.10 218.81 304.71 222.04 302.05 222.10 C 302.77 219.53 303.95 216.99 303.55 214.26 L 304.64 214.91 Z" />
<path fill="#ffffff" opacity="1.00" d=" M 310.36 216.42 C 310.91 216.37 311.99 216.28 312.53 216.24 C 312.57 218.60 314.39 220.58 313.89 222.97 C 312.84 221.57 312.32 219.48 310.31 219.24 C 310.32 218.30 310.34 217.35 310.36 216.42 Z" />
<path fill="#ffffff" opacity="1.00" d=" M 294.05 216.89 L 294.75 216.85 C 295.44 218.92 295.74 221.58 295.80 223.86 C 293.30 222.96 293.49 219.48 293.31 217.30 L 294.05 216.89 Z" />
</g>
</svg>
