<?xml version="1.0" encoding="UTF-8" ?>
<!DOCTYPE svg PUBLIC "-//W3C//DTD SVG 1.1//EN" "http://www.w3.org/Graphics/SVG/1.1/DTD/svg11.dtd">
<svg width="512pt" height="256pt" viewBox="0 0 512 256" version="1.1" xmlns="http://www.w3.org/2000/svg">
<g id="#ffffffff">
<path fill="#ffffff" opacity="1.00" d=" M 222.83 16.62 C 224.05 16.58 224.77 17.26 224.99 18.65 C 223.79 20.01 222.02 17.94 222.83 16.62 Z" />
<path fill="#ffffff" opacity="1.00" d=" M 216.10 22.35 C 216.20 19.98 218.55 18.95 220.36 18.01 C 222.27 17.18 222.17 20.00 220.90 20.54 C 219.54 21.27 218.12 21.88 216.75 22.59 C 218.28 22.19 219.82 21.78 221.35 21.36 C 221.92 19.42 223.90 19.47 224.88 21.04 L 224.01 19.61 C 225.88 18.74 227.71 18.59 228.94 20.55 C 229.68 20.17 231.16 19.41 231.90 19.03 C 231.40 19.71 230.40 21.08 229.90 21.77 L 232.59 21.77 C 229.99 23.63 227.39 25.50 224.70 27.23 L 225.03 28.19 C 226.27 27.39 227.49 26.55 228.68 25.68 C 229.73 26.24 230.75 26.83 231.82 27.35 L 230.52 26.56 C 230.63 26.02 230.84 24.95 230.95 24.42 C 232.57 23.48 234.32 23.08 236.18 23.46 C 236.35 24.15 236.69 25.54 236.86 26.23 C 234.48 26.95 232.22 27.99 229.96 29.01 C 229.00 29.93 228.03 30.84 227.06 31.75 C 225.67 31.82 224.29 31.95 222.93 32.20 C 223.59 32.23 224.90 32.29 225.56 32.31 L 225.19 33.48 C 227.10 33.26 228.04 34.13 228.00 36.11 C 227.58 36.37 226.74 36.90 226.32 37.16 C 227.50 36.66 228.72 36.10 230.04 36.42 C 229.43 37.07 228.21 38.38 227.59 39.03 L 227.76 39.42 C 224.36 39.02 221.89 41.53 219.29 43.24 C 221.89 43.23 224.48 43.43 227.05 43.84 C 226.06 43.06 224.09 41.52 223.10 40.74 C 225.76 40.61 230.27 39.18 230.76 43.16 C 229.95 43.50 228.32 44.19 227.50 44.53 L 227.69 45.85 L 226.92 45.40 C 226.78 47.63 225.10 48.82 223.28 49.75 C 223.67 49.69 224.44 49.56 224.82 49.49 C 225.77 48.82 226.73 48.16 227.72 47.52 L 227.16 46.67 C 228.82 46.46 230.47 46.14 232.11 45.80 L 230.86 44.56 C 232.31 44.54 233.76 44.49 235.22 44.41 C 236.09 44.08 237.83 43.42 238.70 43.09 C 238.79 43.77 238.96 45.11 239.05 45.78 L 236.84 45.30 C 237.35 45.59 238.38 46.17 238.89 46.47 C 238.35 46.92 237.28 47.82 236.75 48.27 C 238.09 48.07 240.78 47.67 242.12 47.48 C 240.99 48.89 239.71 50.19 238.20 51.20 C 239.76 50.70 241.28 50.08 242.75 49.32 L 244.63 52.23 L 241.25 50.95 C 241.85 51.55 243.03 52.75 243.63 53.35 C 241.41 53.48 239.22 53.78 237.00 53.79 C 234.73 54.79 232.31 55.72 229.78 55.09 C 230.26 56.68 230.82 58.24 231.48 59.77 C 231.49 59.31 231.50 58.38 231.51 57.91 C 233.07 57.34 234.98 55.52 236.26 57.69 C 236.58 56.42 237.09 55.23 237.77 54.11 C 238.41 55.20 239.07 56.29 239.74 57.37 C 239.73 56.70 239.70 55.38 239.69 54.71 L 241.31 54.39 C 241.77 56.74 244.47 54.98 245.90 55.37 C 245.67 56.84 245.49 58.32 245.33 59.80 C 242.69 59.94 240.25 62.44 237.65 61.24 C 236.62 59.70 235.87 57.19 233.54 57.50 C 235.45 59.48 237.49 61.39 238.89 63.80 C 240.55 62.86 242.16 61.54 244.15 61.48 C 245.12 61.25 247.05 60.81 248.02 60.59 C 247.87 61.64 247.58 63.73 247.43 64.78 C 246.77 64.75 245.44 64.68 244.78 64.64 C 243.86 65.60 242.74 68.51 241.13 66.63 C 239.38 65.55 237.79 64.22 235.96 63.27 C 237.05 65.35 239.14 66.48 240.94 67.83 C 242.92 66.33 245.48 68.00 244.73 70.42 C 245.33 70.74 246.53 71.37 247.13 71.69 C 246.49 70.94 245.82 70.23 245.17 69.51 C 244.69 68.17 244.42 66.81 244.37 65.40 C 247.15 64.21 248.08 65.99 247.85 68.43 C 251.35 67.68 253.01 73.30 256.30 72.04 C 255.07 70.50 253.40 69.43 251.91 68.18 C 252.69 67.05 253.75 66.43 255.10 66.32 C 254.55 65.77 253.47 64.67 252.92 64.12 C 251.78 62.81 249.90 63.36 248.40 63.28 C 248.41 62.51 248.43 60.97 248.43 60.20 C 248.96 60.33 250.02 60.60 250.55 60.73 L 250.11 59.49 C 248.54 59.55 246.97 59.56 245.40 59.53 C 245.86 57.83 246.35 56.14 246.89 54.46 C 247.47 54.86 248.63 55.64 249.21 56.03 L 249.77 54.18 C 250.43 54.83 251.09 55.48 251.75 56.13 C 252.56 54.77 253.95 53.50 253.51 51.72 L 254.36 52.50 C 254.88 51.97 255.93 50.90 256.45 50.37 C 257.21 53.29 255.53 55.40 253.45 57.11 C 254.20 56.72 255.68 55.94 256.43 55.55 C 257.45 54.43 258.44 53.31 259.57 52.28 L 256.55 52.33 C 257.74 51.34 259.16 51.26 260.43 52.19 L 260.33 50.97 L 261.80 51.06 C 261.59 51.50 261.18 52.37 260.97 52.80 C 260.24 53.34 259.52 53.89 258.80 54.44 C 259.91 54.88 261.02 55.33 262.14 55.77 C 261.77 56.89 261.45 58.03 261.16 59.18 C 261.99 58.47 262.46 57.60 262.59 56.57 C 264.24 56.59 265.67 55.90 266.89 54.51 L 266.30 56.89 L 267.26 56.89 C 267.30 55.48 267.33 54.07 267.41 52.66 C 268.02 52.63 269.23 52.56 269.83 52.52 L 270.24 53.13 C 268.14 53.20 267.07 57.27 270.51 55.15 C 269.09 56.62 267.80 58.19 266.51 59.77 C 269.07 58.66 271.45 57.14 274.07 56.17 C 273.40 57.08 272.50 57.66 271.38 57.91 C 271.53 58.43 271.84 59.46 271.99 59.98 C 274.07 60.71 276.17 61.43 278.13 62.44 C 278.22 64.81 279.12 65.13 280.85 63.42 C 280.79 63.65 280.67 64.11 280.60 64.34 C 280.06 64.61 278.96 65.13 278.41 65.39 C 279.45 65.47 281.54 65.65 282.58 65.74 C 281.85 66.22 280.38 67.18 279.65 67.66 C 280.61 67.72 282.53 67.85 283.49 67.92 L 282.61 66.44 L 282.59 64.56 C 284.47 65.82 284.79 67.29 283.53 68.98 C 284.25 68.73 285.70 68.23 286.43 67.97 C 287.96 71.35 284.41 71.53 282.59 72.97 C 284.93 72.68 288.13 69.34 289.10 73.14 C 287.88 73.56 286.67 74.02 285.47 74.52 C 288.79 74.44 292.03 74.83 295.03 76.30 L 294.25 77.27 C 297.22 76.77 298.62 79.79 300.18 81.71 C 301.52 81.56 302.86 81.37 304.19 81.15 L 302.82 83.98 L 305.29 82.79 C 303.11 84.76 305.36 87.09 306.04 89.09 C 306.76 88.47 307.48 87.84 308.18 87.18 C 306.42 86.82 303.59 84.53 306.23 83.30 C 306.49 83.32 307.01 83.35 307.27 83.37 C 308.21 84.47 308.96 85.72 309.73 86.95 C 309.80 86.59 309.95 85.89 310.03 85.54 C 308.55 84.04 307.52 82.19 306.34 80.48 L 306.19 81.01 C 305.70 81.50 304.71 82.49 304.22 82.99 L 304.74 80.98 C 303.04 80.92 301.35 80.59 299.68 80.28 C 299.41 79.13 299.15 77.97 298.91 76.80 C 299.99 76.00 301.22 75.40 302.41 74.76 C 303.28 75.36 304.27 75.62 305.38 75.54 C 304.55 75.03 303.72 74.52 302.90 74.01 C 306.78 71.96 306.98 79.00 310.76 78.79 C 308.96 76.75 307.54 74.28 305.10 72.93 C 306.77 71.35 308.56 69.89 310.32 68.39 C 312.80 65.12 314.30 61.27 315.82 57.50 C 315.82 60.96 314.41 64.14 313.11 67.27 C 314.03 67.78 315.86 68.80 316.77 69.31 L 315.98 67.41 L 320.02 67.71 C 319.12 67.20 317.32 66.17 316.43 65.65 C 320.17 66.07 317.88 62.34 318.47 60.35 C 319.17 60.41 320.58 60.54 321.28 60.60 C 320.34 59.52 319.42 58.43 318.45 57.39 C 319.00 56.74 320.12 55.44 320.68 54.79 C 319.97 55.03 318.55 55.50 317.84 55.73 C 317.17 53.18 317.50 50.62 318.21 48.11 C 318.72 47.90 319.74 47.47 320.25 47.26 C 319.23 47.40 317.20 47.68 316.19 47.82 L 316.99 45.65 L 315.23 47.14 C 315.24 45.09 315.03 42.99 315.81 41.03 C 323.11 45.98 324.77 55.68 323.34 63.84 C 322.76 63.73 321.59 63.52 321.01 63.41 C 321.56 64.09 322.66 65.44 323.20 66.12 C 322.71 67.29 321.90 68.29 321.25 69.36 L 318.12 67.73 C 322.49 69.01 320.26 71.61 319.47 73.75 C 319.69 74.34 320.13 75.51 320.35 76.10 L 318.69 75.13 C 318.51 76.11 318.16 78.07 317.99 79.05 C 316.76 77.05 314.21 75.69 314.23 73.13 C 313.98 73.80 313.77 74.48 313.53 75.15 C 315.05 76.41 316.06 78.12 317.31 79.63 C 315.98 81.48 314.53 83.30 313.76 85.48 C 313.24 84.60 312.75 83.70 312.24 82.82 C 312.28 84.07 312.29 85.32 312.27 86.57 C 309.41 87.57 307.57 91.50 304.20 90.21 C 304.88 91.32 306.24 93.53 306.91 94.64 L 307.95 92.71 C 307.71 93.78 307.46 94.84 307.21 95.91 C 305.74 95.64 304.26 95.36 302.79 95.14 C 304.81 96.24 307.06 96.99 308.76 98.64 C 305.98 98.94 303.50 97.68 300.87 97.14 C 301.90 97.60 303.96 98.50 305.00 98.96 C 303.72 99.66 302.82 102.10 301.12 101.10 C 299.76 99.51 298.74 102.58 297.64 101.43 C 295.20 99.97 293.54 97.54 291.04 96.20 L 291.42 94.70 C 291.01 95.42 290.60 96.14 290.19 96.85 C 289.20 95.48 288.19 94.16 287.05 92.91 C 288.19 95.49 289.45 98.01 290.34 100.70 C 289.43 99.73 287.62 97.80 286.72 96.84 C 286.26 97.53 285.95 98.29 285.80 99.12 C 284.29 98.28 283.73 96.69 283.18 95.17 C 283.02 95.59 282.71 96.41 282.56 96.83 C 278.88 92.58 273.83 89.57 271.28 84.38 L 270.09 84.88 C 271.71 82.30 270.22 78.81 266.97 79.21 C 267.77 79.94 269.37 81.40 270.17 82.13 C 269.88 82.66 269.59 83.19 269.31 83.72 C 265.07 82.08 261.25 79.65 257.62 76.95 C 257.95 77.69 258.61 79.17 258.94 79.91 L 258.55 80.07 C 254.91 78.14 251.07 76.66 247.05 75.74 C 250.00 73.92 253.37 76.26 256.54 75.49 L 256.64 76.26 C 260.25 75.93 263.05 78.83 266.40 79.74 C 266.48 79.37 266.66 78.61 266.75 78.24 C 263.06 76.79 259.55 74.96 256.24 72.78 C 255.66 73.19 254.50 74.00 253.92 74.41 C 252.44 73.72 251.47 72.36 250.35 71.24 C 250.43 71.65 250.59 72.45 250.67 72.86 C 248.15 73.39 245.60 73.72 243.44 75.26 L 243.18 73.10 C 242.58 73.87 241.39 75.42 240.79 76.19 C 241.67 76.31 243.42 76.54 244.30 76.65 C 244.00 77.09 243.40 77.98 243.10 78.43 C 243.90 80.10 243.98 81.65 241.91 82.20 L 241.15 82.13 C 240.41 80.39 239.18 79.10 237.54 78.14 C 239.33 76.62 240.98 74.93 242.34 73.00 C 240.87 73.66 239.37 74.19 237.82 74.60 C 238.25 73.66 239.11 71.78 239.54 70.84 L 239.95 71.71 C 240.74 71.32 242.33 70.53 243.12 70.14 C 242.71 69.85 242.31 69.56 241.91 69.27 C 239.91 71.68 237.32 68.75 235.83 67.20 C 234.74 63.87 231.68 61.98 229.16 59.82 C 229.38 59.56 229.83 59.04 230.06 58.78 C 229.72 56.44 227.19 58.72 225.83 58.79 C 225.70 59.63 225.45 61.30 225.32 62.13 C 226.90 64.64 229.19 66.54 231.42 68.44 C 230.88 68.96 229.79 69.99 229.24 70.50 C 227.31 68.92 225.65 67.05 223.93 65.25 C 222.50 64.65 220.38 64.53 220.25 62.44 C 222.91 62.64 224.93 64.21 226.41 66.36 C 225.88 65.09 224.84 62.56 224.31 61.29 C 222.85 61.61 221.05 61.21 219.82 62.15 C 219.50 63.63 219.89 65.12 220.71 66.36 C 223.48 66.27 224.77 69.25 226.94 70.51 C 226.83 70.92 226.61 71.72 226.50 72.13 C 225.62 72.31 223.87 72.68 222.99 72.86 C 220.99 71.66 219.02 70.40 217.13 69.05 C 218.17 69.31 220.24 69.84 221.28 70.10 C 222.27 67.59 219.69 67.50 218.18 66.96 C 218.64 65.58 219.83 64.01 219.01 62.56 L 218.17 62.49 L 217.10 62.57 L 214.41 61.05 C 216.61 59.74 219.17 59.13 221.71 59.62 C 220.93 58.77 220.20 57.89 219.47 57.00 C 219.53 57.50 219.64 58.52 219.70 59.03 L 216.30 59.62 C 216.85 58.60 217.64 57.65 217.66 56.43 C 216.43 57.46 215.78 58.97 214.90 60.27 C 214.33 56.84 212.70 58.89 211.48 59.43 L 213.89 59.44 L 213.73 61.47 C 211.50 61.94 209.27 62.40 207.05 62.87 C 207.14 62.47 207.33 61.67 207.42 61.27 C 206.36 60.33 206.16 58.82 207.87 58.65 C 209.07 58.53 210.48 58.88 211.32 57.75 C 210.44 57.59 208.67 57.28 207.79 57.13 C 207.75 56.06 207.97 55.05 208.75 54.26 L 208.50 53.83 C 208.99 53.49 209.95 52.80 210.43 52.46 C 212.49 53.21 214.52 54.08 216.61 54.77 C 217.13 52.38 213.59 52.30 212.06 52.44 C 212.31 51.80 212.81 50.53 213.07 49.89 L 211.39 51.09 C 211.42 50.27 211.48 48.64 211.50 47.82 L 212.97 47.20 C 212.83 46.64 212.55 45.52 212.41 44.95 C 212.99 45.13 214.13 45.48 214.70 45.66 L 214.28 43.55 C 213.51 43.56 211.95 43.59 211.18 43.61 C 210.63 48.97 205.58 52.73 204.98 58.19 C 203.90 56.82 202.78 55.47 201.79 54.03 C 202.04 56.08 203.30 57.66 204.74 59.03 C 204.63 61.32 202.99 63.76 204.15 65.98 C 205.42 66.56 209.08 66.92 207.22 64.19 C 209.24 65.06 211.34 65.73 213.50 66.19 C 212.14 65.21 210.78 64.25 209.41 63.29 C 211.29 63.94 212.74 63.58 213.75 62.22 C 214.48 62.35 215.95 62.61 216.68 62.74 C 216.63 63.89 216.64 65.08 216.21 66.18 C 214.33 66.71 212.42 67.15 210.52 67.59 C 210.32 68.16 209.91 69.31 209.71 69.89 L 208.47 69.40 C 208.35 70.06 208.10 71.39 207.98 72.05 C 209.48 72.61 210.99 73.16 212.52 73.67 C 213.57 74.65 214.65 75.60 215.80 76.47 C 217.70 76.36 219.54 76.78 221.23 77.64 C 219.63 77.99 218.02 78.30 216.42 78.63 C 214.87 77.80 212.78 77.27 213.05 75.06 L 211.50 74.85 C 211.43 75.34 211.30 76.31 211.24 76.80 C 209.90 75.84 206.04 75.29 208.49 73.29 C 207.97 72.47 206.94 70.85 206.42 70.03 L 206.80 69.21 L 205.94 69.22 C 205.37 68.56 204.93 66.57 203.66 67.44 C 201.19 69.00 207.38 73.62 203.99 73.32 C 199.85 74.22 199.69 69.03 197.85 66.64 C 198.71 66.61 200.43 66.56 201.28 66.54 C 200.37 66.11 199.46 65.69 198.54 65.29 C 198.18 64.48 197.45 62.85 197.09 62.03 L 199.29 62.50 C 198.63 61.59 197.98 60.68 197.32 59.78 C 197.73 59.33 198.57 58.44 198.98 58.00 C 198.39 57.76 197.80 57.54 197.21 57.33 C 196.15 59.41 194.95 61.43 193.89 63.52 C 193.00 62.40 192.14 61.26 191.33 60.09 C 191.00 60.30 190.35 60.71 190.02 60.92 C 189.57 59.79 189.10 58.67 188.61 57.56 C 186.23 56.16 184.03 54.37 183.01 51.71 C 182.11 51.14 181.21 50.57 180.30 50.02 C 180.55 49.84 181.06 49.48 181.31 49.30 C 181.55 47.80 182.83 47.02 183.91 46.16 C 186.29 48.58 189.94 48.06 193.02 48.70 C 195.06 47.61 197.17 46.66 199.22 45.57 C 196.81 46.63 194.40 47.80 191.72 47.85 L 191.77 46.70 C 190.23 46.36 188.73 44.57 189.98 43.08 C 191.06 41.11 193.21 40.03 194.89 38.61 C 195.72 38.90 197.38 39.46 198.21 39.75 C 196.37 42.06 193.86 43.71 191.94 45.93 C 194.23 44.52 196.27 42.71 198.77 41.65 L 198.16 43.80 C 198.62 43.64 199.55 43.32 200.02 43.16 C 200.33 44.59 201.16 45.58 202.52 46.13 C 201.98 47.05 201.45 47.97 200.93 48.89 C 201.46 48.79 202.52 48.57 203.05 48.47 C 203.69 46.98 204.41 45.54 205.16 44.11 C 205.56 44.26 206.38 44.56 206.78 44.71 L 207.08 44.06 L 205.50 44.11 C 206.43 42.79 207.38 41.49 208.37 40.21 C 208.77 41.48 209.17 42.75 209.57 44.02 C 209.51 42.87 209.40 40.56 209.35 39.40 C 208.94 43.55 212.19 42.53 213.50 41.14 C 213.29 39.40 211.66 38.21 209.93 39.16 C 209.26 38.92 207.94 38.42 207.27 38.17 C 207.97 37.55 209.37 36.31 210.07 35.69 C 209.15 35.20 208.25 34.69 207.36 34.15 C 210.38 32.71 213.43 31.34 216.58 30.23 C 216.44 31.72 216.29 33.20 216.14 34.69 C 217.48 34.67 218.83 34.67 220.18 34.69 C 219.24 34.18 217.36 33.16 216.42 32.65 C 218.13 32.52 219.85 32.43 221.57 32.37 C 221.46 32.02 221.25 31.32 221.14 30.98 C 221.71 30.54 222.86 29.67 223.43 29.24 C 221.36 29.78 219.34 30.48 217.35 31.28 C 217.29 30.39 217.17 28.60 217.11 27.71 C 218.61 25.16 222.72 24.88 223.99 21.74 C 220.47 21.98 218.42 25.19 215.76 27.06 C 215.20 26.19 214.65 25.32 214.10 24.45 L 215.72 24.64 C 215.57 24.07 215.27 22.94 215.12 22.37 L 216.10 22.35 M 221.71 26.47 C 224.05 25.54 226.30 24.27 227.10 21.71 C 224.91 22.81 222.09 23.61 221.71 26.47 M 212.92 39.42 C 215.64 39.42 217.90 37.92 220.04 36.41 C 217.33 36.45 214.90 37.61 212.92 39.42 M 231.64 47.85 L 231.29 49.55 C 230.67 49.63 229.43 49.77 228.81 49.84 L 228.32 50.30 C 227.68 51.29 226.75 51.77 225.54 51.76 C 223.77 52.64 221.76 52.57 219.84 52.67 C 220.98 54.22 222.17 55.72 223.26 57.31 C 222.87 55.90 222.55 54.47 222.21 53.06 C 224.42 54.51 226.84 55.58 229.30 56.54 C 229.25 56.00 229.15 54.91 229.10 54.37 C 229.57 54.05 230.50 53.42 230.97 53.10 C 228.86 53.55 226.75 54.01 224.61 54.30 C 224.51 51.98 226.97 52.29 228.38 51.64 C 229.36 50.75 230.47 49.96 231.86 50.25 L 231.71 52.69 C 233.25 51.19 232.11 49.46 231.64 47.85 M 183.55 50.71 C 185.52 50.77 187.55 50.70 189.19 49.45 C 189.92 49.49 191.38 49.55 192.11 49.59 C 190.73 49.18 189.33 48.84 187.94 48.53 C 186.47 49.26 184.98 49.93 183.55 50.71 M 202.19 50.33 C 200.84 53.37 205.55 50.24 202.19 50.33 M 254.58 57.73 C 254.46 58.44 254.21 59.87 254.09 60.58 C 254.77 60.50 256.14 60.35 256.83 60.28 L 256.04 61.70 C 258.09 61.60 260.14 61.54 262.19 61.39 C 260.93 58.73 258.03 59.43 255.61 59.51 C 255.35 59.07 254.84 58.17 254.58 57.73 M 258.30 65.91 C 259.69 66.11 262.47 66.53 263.85 66.73 L 262.98 65.02 C 263.60 64.99 264.84 64.94 265.46 64.91 C 264.90 65.62 263.77 67.04 263.21 67.75 C 265.06 67.58 266.91 67.42 268.76 67.25 L 268.49 68.82 C 268.94 68.70 269.84 68.45 270.29 68.33 C 270.82 69.46 271.37 70.59 271.94 71.72 C 269.87 71.83 267.83 72.20 265.77 72.43 C 268.12 72.55 269.18 73.83 268.97 76.25 C 266.78 75.29 264.84 73.84 262.68 72.83 C 263.33 73.57 264.62 75.04 265.26 75.77 C 267.57 76.34 269.96 76.69 272.08 77.83 C 273.36 78.68 276.06 79.04 274.14 81.51 C 274.61 80.85 275.54 79.54 276.01 78.89 C 276.50 81.12 277.85 82.55 280.07 83.16 C 279.25 82.24 277.61 80.41 276.79 79.49 C 277.26 79.39 278.18 79.20 278.65 79.10 C 280.31 80.89 282.14 82.51 284.23 83.80 C 282.99 81.98 281.59 80.27 279.99 78.77 C 278.11 78.50 276.20 78.47 274.31 78.33 L 274.45 77.49 C 273.93 77.41 272.89 77.25 272.37 77.17 C 271.65 76.94 270.21 76.46 269.49 76.23 C 269.28 74.91 269.04 73.60 268.78 72.29 C 269.87 73.03 270.95 73.78 272.01 74.56 C 274.08 74.51 276.15 74.35 278.19 73.96 C 276.53 73.82 273.20 73.55 271.54 73.42 C 272.31 72.96 273.86 72.04 274.63 71.58 C 274.10 71.21 273.66 70.77 273.29 70.27 C 276.39 70.06 279.48 70.81 282.58 70.39 C 281.56 69.81 279.54 68.64 278.53 68.05 L 278.60 67.48 C 276.52 67.47 274.43 67.48 272.39 67.04 C 272.59 66.35 272.97 64.97 273.16 64.29 C 272.21 64.39 270.30 64.58 269.35 64.68 L 269.73 63.50 C 265.73 63.15 261.80 63.89 258.30 65.91 M 273.32 64.13 C 274.51 64.61 276.99 64.37 277.25 62.90 C 276.01 62.45 273.94 63.04 273.32 64.13 M 255.60 66.15 C 257.44 67.18 259.42 68.01 261.24 69.09 L 258.31 69.87 C 259.74 70.68 261.18 71.48 262.60 72.31 L 262.28 70.61 C 262.32 70.19 262.40 69.35 262.44 68.92 L 262.23 67.34 C 260.06 66.76 257.84 66.23 255.60 66.15 M 310.62 68.89 C 310.88 71.02 312.74 70.43 314.24 70.25 C 315.47 71.51 316.72 72.76 318.09 73.89 C 316.64 71.52 314.36 69.85 312.52 67.82 C 312.04 68.09 311.10 68.62 310.62 68.89 M 285.22 76.24 C 285.89 76.79 285.89 76.79 285.22 76.24 M 311.32 76.22 C 311.86 76.90 311.86 76.90 311.32 76.22 M 273.67 81.57 C 274.45 83.55 274.22 85.78 275.05 87.72 C 276.13 89.05 277.39 90.22 278.54 91.48 C 278.83 91.20 279.39 90.65 279.68 90.38 C 281.30 91.56 282.65 94.19 284.86 93.98 C 284.97 93.65 285.19 92.99 285.30 92.67 C 281.83 88.54 277.20 85.65 273.67 81.57 M 277.03 83.28 C 277.54 84.02 278.56 85.50 279.07 86.24 C 281.80 85.30 283.49 88.12 285.41 89.52 C 286.05 89.52 287.34 89.54 287.98 89.54 C 290.57 91.27 292.89 93.37 295.48 95.11 C 295.46 95.89 295.43 97.47 295.41 98.26 C 295.91 97.52 296.41 96.77 296.91 96.03 L 297.68 97.01 L 298.27 95.66 C 299.29 95.99 301.33 96.64 302.36 96.97 C 301.34 95.94 299.31 93.88 298.29 92.85 C 300.36 94.58 302.32 93.09 304.13 92.21 L 305.31 94.82 C 305.25 93.81 305.18 92.81 305.11 91.81 C 304.45 91.76 303.13 91.67 302.47 91.63 C 301.92 91.88 300.83 92.38 300.28 92.64 C 298.48 91.28 296.68 89.93 294.87 88.60 C 295.90 89.96 297.97 92.68 299.00 94.04 C 298.06 93.60 296.18 92.72 295.24 92.28 L 294.08 92.94 C 293.13 88.28 291.12 83.82 286.94 80.99 C 288.30 84.35 290.75 87.11 292.83 90.03 C 292.50 90.29 291.85 90.82 291.52 91.09 C 290.85 89.70 290.14 88.33 289.43 86.98 L 288.81 86.91 C 289.84 88.39 289.37 89.02 287.40 88.79 L 287.84 86.67 L 286.63 86.41 C 286.71 87.12 286.85 88.55 286.92 89.26 C 286.31 88.71 285.09 87.61 284.48 87.06 C 284.56 86.76 284.71 86.16 284.78 85.86 C 282.08 85.39 279.62 84.12 277.03 83.28 Z" />
<path fill="#ffffff" opacity="1.00" d=" M 208.11 26.50 C 209.69 26.27 211.26 26.04 212.86 25.89 C 211.58 27.21 210.15 28.36 208.67 29.45 C 207.98 29.46 206.59 29.48 205.90 29.49 C 206.64 28.50 207.40 27.52 208.11 26.50 Z" />
<path fill="#ffffff" opacity="1.00" d=" M 237.62 27.49 C 239.49 26.87 241.08 28.49 242.59 29.37 L 240.47 29.47 L 240.56 30.19 C 238.54 30.99 236.87 32.43 235.23 33.82 C 234.72 33.87 233.70 33.99 233.20 34.05 C 233.28 32.94 233.29 31.83 233.22 30.72 C 232.47 32.07 231.66 33.41 231.23 34.91 L 229.17 33.43 L 226.78 32.83 C 230.24 30.78 233.58 28.27 237.62 27.49 Z" />
<path fill="#ffffff" opacity="1.00" d=" M 207.50 31.85 C 209.57 31.00 211.44 29.08 213.80 29.18 C 213.81 31.43 209.48 33.47 207.50 31.85 Z" />
<path fill="#ffffff" opacity="1.00" d=" M 239.48 31.51 C 240.81 31.26 242.13 30.97 243.46 30.65 L 243.21 31.92 C 242.48 32.60 241.01 33.98 240.28 34.67 C 241.16 34.24 242.93 33.39 243.81 32.97 L 243.45 35.11 C 244.20 34.68 245.71 33.82 246.46 33.39 L 243.66 36.50 C 244.71 36.14 246.82 35.43 247.87 35.08 L 245.50 37.90 C 246.57 37.62 248.71 37.07 249.79 36.79 C 249.10 37.74 248.42 38.70 247.75 39.66 C 248.37 39.64 249.61 39.60 250.23 39.59 C 250.82 39.92 252.02 40.58 252.61 40.91 C 251.95 42.29 250.69 43.26 249.81 44.47 C 250.54 44.36 252.00 44.14 252.73 44.03 C 251.66 45.17 251.08 46.54 250.98 48.16 C 252.73 47.40 253.74 47.98 253.99 49.90 C 252.82 50.88 251.60 51.79 250.45 52.79 C 250.04 50.18 248.02 52.65 246.77 52.88 C 247.03 52.29 247.53 51.09 247.78 50.49 C 246.92 50.63 245.19 50.91 244.33 51.05 C 245.11 50.29 245.89 49.52 246.66 48.75 C 244.52 49.06 243.29 47.41 242.22 45.88 C 242.77 45.27 243.86 44.05 244.41 43.45 C 242.67 44.45 241.08 45.70 239.37 46.74 C 239.81 44.50 240.51 41.78 244.07 42.55 C 242.93 42.75 240.66 43.14 239.52 43.34 C 238.73 43.05 237.93 42.78 237.12 42.53 C 235.59 43.60 233.72 43.85 231.92 44.12 C 232.81 43.21 233.68 42.28 234.54 41.34 L 231.10 42.06 C 231.26 41.40 231.57 40.08 231.73 39.41 C 230.53 39.85 229.27 40.14 228.01 40.34 C 228.67 38.12 231.11 36.66 233.30 37.53 C 233.34 36.82 233.42 35.39 233.45 34.67 C 235.85 34.60 237.55 32.70 239.48 31.51 Z" />
<path fill="#ffffff" opacity="1.00" d=" M 194.70 33.17 C 195.90 32.99 197.10 32.83 198.30 32.70 C 200.28 33.86 202.64 33.49 204.83 33.74 C 204.73 34.35 204.53 35.57 204.43 36.18 L 206.10 35.16 C 206.55 35.84 207.00 36.51 207.46 37.18 C 205.66 37.24 204.01 37.91 202.42 38.68 C 204.24 38.69 206.28 38.22 207.57 39.84 C 206.31 41.15 205.12 42.52 203.79 43.77 C 202.43 42.65 201.27 41.31 200.14 39.96 L 202.27 38.82 C 201.64 38.66 200.39 38.33 199.77 38.16 C 197.86 36.72 196.08 35.13 194.70 33.17 Z" />
<path fill="#ffffff" opacity="1.00" d=" M 233.20 34.05 C 232.57 34.40 232.57 34.40 233.20 34.05 Z" />
<path fill="#ffffff" opacity="1.00" d=" M 230.00 35.31 C 230.44 35.71 230.44 35.71 230.00 35.31 Z" />
<path fill="#ffffff" opacity="1.00" d=" M 176.04 54.82 C 177.38 53.47 179.06 52.63 180.84 52.01 C 180.58 52.25 180.06 52.74 179.80 52.98 C 180.56 54.09 180.79 55.40 180.94 56.72 C 181.50 56.57 182.64 56.28 183.21 56.14 C 183.37 56.88 183.71 58.37 183.87 59.12 C 184.49 58.84 185.72 58.27 186.33 57.99 C 186.37 58.85 186.45 60.56 186.49 61.42 C 189.06 61.72 191.23 63.34 193.52 64.43 C 193.23 65.91 192.97 67.40 192.75 68.90 C 194.29 69.64 195.78 70.62 197.55 70.76 C 199.22 71.76 199.80 73.68 198.22 75.11 C 199.72 74.08 201.88 73.25 202.73 75.49 C 203.66 74.83 204.66 74.63 205.74 74.88 C 207.51 77.53 210.24 79.46 213.56 79.25 C 213.41 80.48 213.26 81.71 213.13 82.95 C 213.67 81.88 214.25 80.83 214.80 79.76 C 218.13 80.37 221.53 80.83 224.92 80.50 C 226.06 81.48 227.35 81.95 228.85 81.53 L 228.74 81.96 C 228.17 81.98 227.03 82.02 226.46 82.04 C 226.92 82.52 227.83 83.49 228.29 83.98 C 228.70 83.78 229.51 83.39 229.91 83.19 C 230.59 84.99 230.45 86.96 230.73 88.84 C 230.07 90.15 228.75 92.79 228.09 94.10 C 228.22 92.81 228.47 90.23 228.60 88.94 C 227.89 88.70 226.47 88.20 225.77 87.95 C 226.59 87.73 228.22 87.29 229.04 87.07 C 228.50 86.14 227.92 85.23 227.30 84.34 L 227.25 87.46 C 226.80 86.91 225.91 85.82 225.47 85.28 C 225.60 86.68 225.68 88.09 225.76 89.50 C 224.91 89.80 223.21 90.40 222.35 90.70 L 225.74 90.29 C 225.71 91.39 225.65 93.59 225.61 94.69 L 224.24 94.28 C 224.55 95.50 224.86 96.73 225.17 97.96 C 224.43 98.26 222.95 98.88 222.21 99.19 C 222.36 98.43 222.66 96.92 222.81 96.16 C 221.43 97.55 220.18 99.06 218.79 100.45 C 219.60 98.78 221.22 95.45 222.03 93.79 C 220.67 95.28 217.95 98.26 216.59 99.75 C 216.90 98.08 217.46 96.47 217.85 94.82 C 218.22 94.62 218.96 94.22 219.32 94.02 L 219.08 93.28 L 218.31 93.27 C 218.20 93.66 217.97 94.43 217.85 94.82 C 216.81 96.31 215.40 97.25 213.61 96.17 C 213.53 96.79 213.38 98.03 213.30 98.65 C 212.38 96.45 212.63 94.17 213.64 92.07 C 215.56 89.40 215.82 86.12 215.56 82.95 C 214.68 86.61 214.14 90.37 212.66 93.85 C 211.49 95.97 210.17 98.19 207.82 99.15 C 208.76 97.95 209.96 96.98 211.05 95.92 C 210.42 95.76 209.16 95.46 208.53 95.30 L 208.35 93.57 C 207.73 94.38 206.50 96.01 205.89 96.82 C 205.34 95.72 204.75 94.65 204.11 93.60 C 204.75 92.72 205.29 91.78 205.72 90.78 C 203.89 92.10 202.36 93.76 200.63 95.20 C 201.84 93.22 203.10 91.27 204.40 89.35 L 201.24 91.79 C 200.41 90.49 199.53 89.19 198.12 88.45 C 198.29 88.01 198.63 87.12 198.80 86.67 C 197.77 86.49 195.70 86.11 194.67 85.92 C 196.57 85.16 198.63 85.46 200.62 85.19 C 199.88 84.40 199.14 83.62 198.41 82.84 L 200.66 81.76 C 198.32 81.70 196.91 83.63 195.34 85.01 L 195.60 82.24 C 195.12 82.40 194.17 82.71 193.69 82.87 C 193.62 81.79 193.55 80.73 193.48 79.66 C 193.95 79.57 194.89 79.40 195.36 79.31 C 195.27 81.61 197.30 81.44 198.73 80.35 C 197.84 79.54 196.95 78.73 196.06 77.92 C 195.39 76.86 194.73 75.81 194.07 74.76 C 194.83 74.68 196.35 74.53 197.11 74.45 C 196.47 71.93 193.83 70.91 192.00 69.39 C 191.73 71.36 191.51 73.35 191.35 75.34 C 188.77 75.65 187.62 78.02 185.99 79.69 C 184.71 79.76 183.12 81.14 181.98 80.15 L 181.51 79.73 C 180.42 79.68 179.33 79.62 178.24 79.57 L 178.81 80.30 C 178.23 80.88 177.09 82.05 176.52 82.63 C 177.86 81.77 179.29 81.30 180.83 81.22 C 180.53 83.46 176.69 83.40 177.15 86.02 C 177.48 86.36 178.15 87.05 178.49 87.39 C 178.20 88.54 177.87 89.68 177.57 90.83 C 180.95 90.41 182.60 86.07 185.78 86.15 L 186.29 86.39 C 187.68 86.12 189.03 85.70 190.40 85.35 C 191.32 84.05 191.85 82.61 191.97 81.04 C 189.24 80.72 189.91 85.61 186.88 84.43 C 185.51 83.88 185.00 82.35 184.14 81.28 C 185.97 80.43 187.58 79.23 189.13 77.95 L 189.27 78.93 L 189.43 79.76 C 189.89 80.55 190.51 80.71 191.28 80.23 C 191.51 80.24 191.96 80.28 192.19 80.29 C 193.38 83.36 192.38 87.55 195.37 89.59 C 195.86 90.91 196.37 92.21 196.81 93.55 C 196.13 92.80 195.48 92.02 194.87 91.21 C 193.44 91.20 192.01 91.19 190.59 91.19 C 191.73 91.94 192.87 92.71 193.94 93.58 C 191.37 94.32 188.93 95.48 187.06 97.45 C 186.02 96.10 181.41 93.64 184.93 92.67 C 185.32 92.91 186.09 93.37 186.47 93.61 L 186.76 93.76 C 186.62 93.00 186.34 91.47 186.20 90.70 C 187.65 91.74 188.96 92.96 190.38 94.04 C 189.60 92.94 188.79 91.86 187.96 90.80 C 188.17 90.14 188.61 88.82 188.82 88.17 C 187.40 90.89 184.09 91.09 181.80 92.75 L 182.64 90.03 L 181.66 89.91 C 181.64 91.03 181.64 92.16 181.64 93.28 C 179.75 93.72 178.00 94.55 176.29 95.45 C 176.57 96.37 177.12 98.20 177.39 99.12 C 178.01 99.55 178.64 99.97 179.28 100.39 C 179.37 99.53 179.56 97.82 179.66 96.97 C 180.14 97.37 181.11 98.19 181.60 98.59 L 182.11 98.48 C 183.37 99.75 184.67 100.97 186.02 102.15 C 183.94 101.51 181.84 100.96 179.71 100.50 C 178.51 100.61 177.31 100.73 176.11 100.87 L 176.63 99.66 C 174.37 99.52 172.19 98.92 170.06 98.21 C 172.12 95.69 175.97 95.71 177.11 92.30 C 176.44 92.32 175.11 92.35 174.44 92.37 C 174.95 91.99 175.97 91.23 176.48 90.85 C 176.09 90.04 175.69 89.23 175.28 88.44 C 173.27 90.45 170.84 93.05 167.70 92.53 C 168.42 90.14 167.54 86.82 170.69 85.93 C 170.62 86.66 170.49 88.12 170.43 88.85 C 171.24 87.35 172.53 86.94 174.27 87.62 C 173.33 86.83 172.41 86.04 171.48 85.26 L 171.98 84.07 C 170.68 84.24 168.07 84.58 166.76 84.75 C 168.79 83.48 168.73 81.70 167.10 80.19 C 168.26 80.33 170.57 80.61 171.72 80.74 C 170.40 79.85 169.00 79.08 167.65 78.23 C 169.40 78.02 170.96 78.91 172.52 79.52 L 172.37 80.48 L 175.23 80.17 C 174.82 79.80 173.98 79.08 173.56 78.71 C 174.42 76.04 170.58 76.98 169.09 76.20 C 169.28 74.93 166.87 72.10 169.56 72.31 C 169.46 71.52 169.25 69.93 169.15 69.13 C 168.06 68.81 166.82 69.05 165.43 69.86 C 166.02 69.17 167.19 67.80 167.78 67.11 L 164.57 67.70 C 166.74 63.64 171.55 64.39 175.42 64.11 C 176.20 63.10 175.78 62.68 174.16 62.85 C 174.36 61.19 173.90 59.03 175.79 58.09 C 175.65 58.88 175.37 60.45 175.23 61.24 L 177.99 60.18 C 177.94 60.63 177.85 61.54 177.81 61.99 L 178.16 62.42 L 180.12 61.72 L 179.24 63.91 L 181.57 63.49 C 181.48 65.31 180.15 66.72 179.24 64.45 C 178.02 66.28 178.47 68.25 179.95 69.75 C 181.43 68.94 182.95 68.19 184.44 67.39 L 187.19 70.68 C 186.38 68.44 185.51 66.26 184.74 64.02 L 184.74 66.84 C 182.23 65.15 182.25 61.60 179.58 60.03 C 180.52 58.96 181.46 57.88 182.31 56.73 C 180.39 57.57 178.85 59.59 176.53 59.10 C 177.80 58.12 179.17 57.30 180.65 56.66 C 179.12 56.01 177.57 55.45 176.04 54.82 M 170.79 66.48 C 170.88 66.81 171.06 67.48 171.15 67.81 C 173.05 69.60 175.88 68.20 178.15 68.36 C 177.38 66.15 174.96 67.11 173.27 66.77 L 173.48 64.77 C 172.81 65.20 171.47 66.05 170.79 66.48 Z" />
<path fill="#ffffff" opacity="1.00" d=" M 263.88 55.42 C 261.70 54.52 265.05 50.81 266.21 53.03 C 265.84 54.20 265.07 55.00 263.88 55.42 Z" />
<path fill="#ffffff" opacity="1.00" d=" M 242.98 54.05 C 243.62 54.78 243.62 54.78 242.98 54.05 Z" />
<path fill="#ffffff" opacity="1.00" d=" M 226.82 62.08 C 227.55 61.88 229.00 61.47 229.73 61.26 C 232.78 64.62 235.52 68.27 239.05 71.15 C 238.25 71.53 237.45 71.90 236.64 72.25 C 234.77 70.66 233.28 73.65 231.65 74.08 C 233.39 74.70 235.03 73.13 236.76 74.10 C 236.86 76.18 236.96 78.31 234.74 79.28 C 233.55 77.72 232.10 79.34 230.85 79.84 C 230.19 79.03 229.59 78.17 229.04 77.28 C 227.93 77.75 226.82 78.21 225.71 78.65 C 226.27 78.11 227.37 77.01 227.92 76.47 C 223.88 75.31 227.02 75.25 228.03 75.62 C 229.10 75.07 230.17 74.50 231.23 73.92 C 229.74 73.61 228.22 73.42 226.71 73.31 C 228.99 72.17 230.76 70.40 232.32 68.42 C 232.16 67.63 232.01 66.83 231.86 66.03 C 229.89 65.12 228.21 63.73 226.82 62.08 Z" />
<path fill="#ffffff" opacity="1.00" d=" M 248.31 64.78 C 249.35 63.57 251.53 65.29 250.72 66.62 C 249.65 67.69 247.57 66.11 248.31 64.78 Z" />
<path fill="#ffffff" opacity="1.00" d=" M 195.62 65.60 L 196.27 65.62 L 196.27 66.28 L 195.61 66.26 L 195.62 65.60 Z" />
<path fill="#ffffff" opacity="1.00" d=" M 181.36 67.36 C 181.67 67.67 181.67 67.67 181.36 67.36 Z" />
<path fill="#ffffff" opacity="1.00" d=" M 195.27 67.96 C 198.26 66.09 195.71 71.32 195.27 67.96 Z" />
<path fill="#ffffff" opacity="1.00" d=" M 213.48 67.51 C 214.29 67.60 215.90 67.79 216.71 67.89 C 216.62 68.83 216.53 69.78 216.46 70.73 C 216.03 71.17 215.17 72.04 214.74 72.48 C 213.32 71.96 211.90 71.44 210.49 70.92 C 211.28 70.49 212.88 69.62 213.68 69.18 C 213.63 68.76 213.53 67.93 213.48 67.51 Z" />
<path fill="#ffffff" opacity="1.00" d=" M 217.10 71.17 C 219.03 72.19 221.00 73.15 222.96 74.13 C 221.38 77.02 218.62 75.05 216.27 74.52 C 215.95 74.22 215.31 73.61 214.99 73.31 C 215.63 73.34 216.91 73.42 217.55 73.45 C 217.44 72.88 217.21 71.74 217.10 71.17 Z" />
<path fill="#ffffff" opacity="1.00" d=" M 245.38 77.43 C 245.69 77.42 246.31 77.39 246.61 77.38 C 249.33 78.87 250.45 81.49 249.38 84.56 C 247.98 82.21 247.41 79.42 245.38 77.43 Z" />
<path fill="#ffffff" opacity="1.00" d=" M 252.16 78.50 C 252.40 79.36 252.88 81.10 253.11 81.96 C 253.43 81.39 253.76 80.81 254.10 80.24 L 255.01 80.69 C 255.88 80.81 257.62 81.04 258.49 81.16 C 258.09 82.42 258.69 86.19 256.13 84.34 C 255.94 83.79 255.57 82.69 255.39 82.14 C 253.80 81.13 253.39 83.83 254.12 84.74 C 254.77 84.99 256.07 85.49 256.71 85.74 C 256.68 86.11 256.61 86.83 256.58 87.20 L 257.76 87.32 C 258.37 85.14 260.42 82.90 258.94 80.64 L 258.94 79.91 C 259.80 80.62 260.66 81.35 261.50 82.09 C 260.51 84.96 260.37 88.04 259.29 90.89 C 259.80 91.83 260.33 92.75 260.88 93.67 C 261.66 90.91 262.81 88.05 261.96 85.16 C 262.16 84.58 262.36 83.99 262.57 83.41 C 265.27 86.57 268.19 89.60 270.17 93.29 C 270.59 92.88 271.02 92.47 271.45 92.07 C 270.04 88.30 266.12 86.40 264.51 82.76 C 266.62 84.09 268.45 85.78 270.27 87.46 C 272.49 87.62 273.78 89.44 275.00 91.07 C 274.34 91.42 273.69 91.78 273.04 92.14 L 270.94 88.43 C 270.87 91.37 272.86 93.09 275.56 92.77 C 278.24 96.56 282.52 98.39 286.14 101.05 C 286.06 100.57 285.88 99.61 285.80 99.12 L 286.45 99.07 C 289.31 99.95 289.89 102.86 290.78 105.30 C 288.53 108.18 293.35 109.60 294.43 111.81 C 293.62 112.16 292.80 112.48 291.98 112.80 C 291.24 112.34 289.77 111.44 289.03 110.98 L 289.50 113.68 C 288.49 113.58 287.48 113.49 286.48 113.41 C 285.46 111.26 282.57 109.47 283.77 106.79 C 284.75 108.01 285.76 109.23 286.68 110.51 C 287.92 110.57 289.18 110.68 290.43 110.55 C 288.42 108.97 286.85 106.84 286.12 104.38 C 287.25 104.94 288.46 105.80 289.82 105.57 C 288.71 104.49 287.64 103.38 286.59 102.24 C 286.32 102.42 285.76 102.76 285.49 102.93 C 282.92 98.27 276.17 98.67 274.42 93.44 C 274.19 93.88 273.73 94.76 273.50 95.20 L 273.44 93.28 C 272.74 93.84 272.04 94.41 271.35 94.99 C 272.63 96.58 274.26 97.84 276.25 98.40 L 275.85 99.04 L 275.37 99.84 C 273.92 98.40 272.25 96.10 269.97 97.51 C 268.32 96.12 265.79 95.23 265.56 92.77 C 267.01 93.61 268.39 94.59 269.92 95.28 C 268.92 93.77 267.70 92.41 266.61 90.97 C 266.21 90.70 265.41 90.16 265.01 89.88 C 264.74 89.42 264.20 88.49 263.93 88.03 C 263.53 90.71 263.77 93.42 263.77 96.12 C 263.43 95.43 262.76 94.04 262.42 93.35 C 261.76 94.35 261.07 95.33 260.40 96.32 C 259.29 96.88 258.20 97.49 257.10 98.08 L 256.98 97.10 L 257.86 97.47 C 258.14 96.43 258.69 94.35 258.97 93.31 C 258.15 93.98 256.51 95.31 255.69 95.98 L 255.32 92.67 C 254.81 93.20 253.79 94.24 253.29 94.77 C 253.35 93.93 253.50 93.10 253.73 92.28 C 253.09 92.59 251.81 93.20 251.17 93.51 C 251.28 92.82 251.50 91.44 251.61 90.75 C 250.83 90.70 249.27 90.61 248.50 90.56 C 250.53 89.31 252.94 89.02 255.19 88.33 C 255.55 91.30 257.91 88.88 259.36 88.49 C 258.27 88.42 257.19 88.37 256.12 88.34 C 255.59 87.46 254.99 86.64 254.31 85.89 L 253.89 85.76 C 251.11 86.79 248.37 87.91 246.23 90.04 C 248.69 90.76 248.49 93.24 248.29 95.18 C 248.87 94.10 249.48 93.03 250.11 91.98 C 250.22 93.05 250.45 95.19 250.57 96.26 C 249.10 97.00 247.64 97.77 246.16 98.47 C 245.51 97.07 244.87 95.68 244.22 94.28 C 244.62 94.11 245.41 93.75 245.81 93.57 L 245.17 92.23 L 247.25 92.40 C 246.50 89.76 243.32 89.65 241.43 88.20 C 242.51 87.89 243.61 87.61 244.72 87.38 L 244.20 85.58 C 245.19 86.18 246.15 86.85 247.08 87.55 L 246.85 85.42 C 247.31 85.37 248.24 85.28 248.70 85.23 L 248.14 87.07 C 249.69 86.81 250.90 86.06 251.78 84.83 C 252.10 84.27 252.73 83.15 253.05 82.59 L 251.49 82.65 C 251.66 81.61 251.99 79.54 252.16 78.50 M 245.36 88.03 C 245.80 88.37 245.80 88.37 245.36 88.03 Z" />
<path fill="#ffffff" opacity="1.00" d=" M 236.31 79.13 C 236.60 79.73 236.89 80.34 237.18 80.95 C 236.67 81.30 235.64 82.01 235.13 82.37 C 235.81 82.40 237.19 82.47 237.87 82.50 C 236.58 84.11 234.93 85.34 233.40 86.70 C 232.84 86.48 231.73 86.02 231.17 85.79 C 231.41 84.35 234.37 83.61 232.77 82.06 C 233.98 81.11 235.14 80.13 236.31 79.13 Z" />
<path fill="#ffffff" opacity="1.00" d=" M 244.59 81.42 C 246.49 81.78 244.33 83.71 243.49 84.00 C 240.73 85.47 243.11 81.27 244.59 81.42 Z" />
<path fill="#ffffff" opacity="1.00" d=" M 250.16 81.25 L 250.80 81.24 L 250.80 81.88 L 250.16 81.88 L 250.16 81.25 Z" />
<path fill="#ffffff" opacity="1.00" d=" M 178.10 85.79 C 179.12 83.48 182.09 82.63 183.84 80.92 C 184.11 81.61 184.66 82.98 184.93 83.67 C 183.44 85.40 181.77 86.98 179.99 88.42 C 179.34 87.55 178.71 86.67 178.10 85.79 Z" />
<path fill="#ffffff" opacity="1.00" d=" M 239.16 83.47 C 239.65 83.63 240.63 83.94 241.12 84.09 C 241.08 85.87 237.96 84.94 239.16 83.47 Z" />
<path fill="#ffffff" opacity="1.00" d=" M 231.72 87.60 C 233.50 86.82 235.20 85.90 236.93 85.01 C 236.72 88.61 234.00 91.25 232.46 94.33 C 231.76 93.77 231.08 93.21 230.39 92.66 C 230.86 90.98 231.34 89.31 231.72 87.60 M 232.22 90.23 C 232.83 90.81 232.83 90.81 232.22 90.23 Z" />
<path fill="#ffffff" opacity="1.00" d=" M 234.11 95.38 C 235.54 92.52 236.87 89.57 238.70 86.93 C 238.35 88.42 237.98 89.91 237.59 91.40 C 238.14 90.76 239.24 89.48 239.79 88.83 C 241.01 89.61 241.97 90.65 242.55 91.98 C 242.02 92.56 240.94 93.70 240.40 94.28 C 239.67 93.30 239.28 91.94 238.07 91.43 C 237.37 92.86 236.89 94.37 236.37 95.87 C 235.81 95.75 234.67 95.51 234.11 95.38 Z" />
<path fill="#ffffff" opacity="1.00" d=" M 226.44 88.42 C 227.86 88.64 227.54 91.17 226.91 92.11 C 225.42 92.01 226.00 89.38 226.44 88.42 Z" />
<path fill="#ffffff" opacity="1.00" d=" M 171.22 94.14 C 170.89 92.74 171.40 92.15 172.75 92.36 C 173.05 93.78 172.54 94.37 171.22 94.14 Z" />
<path fill="#ffffff" opacity="1.00" d=" M 180.65 96.62 C 181.28 94.65 184.78 96.41 184.78 98.03 C 183.37 98.41 181.60 97.70 180.65 96.62 Z" />
<path fill="#ffffff" opacity="1.00" d=" M 237.89 96.35 C 239.11 95.97 240.34 95.60 241.58 95.24 C 241.93 96.82 242.83 97.97 244.29 98.67 C 240.95 100.13 238.03 102.31 234.89 104.12 C 236.80 101.82 237.50 97.81 240.77 97.25 C 240.05 97.03 238.61 96.57 237.89 96.35 Z" />
<path fill="#ffffff" opacity="1.00" d=" M 250.80 99.13 C 251.02 97.82 250.69 95.32 252.80 96.10 C 252.85 96.70 252.97 97.90 253.02 98.49 C 253.51 98.27 254.47 97.83 254.95 97.61 L 255.60 99.45 L 254.98 99.97 C 253.53 101.07 251.99 100.11 250.80 99.13 Z" />
<path fill="#ffffff" opacity="1.00" d=" M 290.85 97.43 C 291.18 97.41 291.86 97.38 292.19 97.37 C 292.92 98.44 293.17 99.58 292.94 100.79 C 291.57 100.72 291.04 98.58 290.85 97.43 Z" />
<path fill="#ffffff" opacity="1.00" d=" M 263.19 98.02 C 266.37 98.47 269.39 99.75 271.52 102.23 C 272.20 102.79 273.56 103.89 274.24 104.45 C 273.43 104.52 271.81 104.67 271.00 104.75 C 269.84 103.70 268.68 102.64 267.56 101.55 L 267.65 104.05 C 265.67 102.44 263.77 100.59 263.19 98.02 Z" />
<path fill="#ffffff" opacity="1.00" d=" M 225.66 101.80 C 226.86 100.92 228.02 99.98 229.21 99.10 C 229.44 101.21 228.80 103.22 227.85 105.07 C 227.24 104.86 226.00 104.44 225.38 104.23 C 225.47 103.42 225.56 102.61 225.66 101.80 Z" />
<path fill="#ffffff" opacity="1.00" d=" M 269.58 97.71 C 272.06 98.71 274.49 99.87 276.77 101.29 C 276.54 100.73 276.08 99.60 275.85 99.04 C 278.49 98.71 280.19 101.67 282.18 103.07 C 280.89 103.35 279.59 103.64 278.30 103.93 L 278.64 102.58 C 277.68 102.63 275.75 102.72 274.78 102.76 C 276.36 104.18 278.15 105.44 279.35 107.23 C 277.43 106.29 275.58 104.97 274.74 102.93 C 272.88 101.34 271.07 99.66 269.58 97.71 Z" />
<path fill="#ffffff" opacity="1.00" d=" M 191.70 105.06 C 193.06 103.34 194.11 101.38 195.65 99.79 C 194.75 102.43 193.60 104.97 192.80 107.65 C 193.50 107.55 194.90 107.37 195.60 107.27 C 194.32 109.04 193.21 110.94 192.52 113.02 C 192.10 113.19 191.27 113.54 190.86 113.72 C 191.43 112.65 192.03 111.59 192.67 110.56 C 191.59 109.89 190.52 109.21 189.45 108.53 C 189.61 107.72 189.94 106.09 190.10 105.27 C 189.67 105.31 188.80 105.40 188.37 105.45 C 187.77 106.76 187.06 108.03 186.14 109.15 C 186.23 108.37 186.42 106.80 186.51 106.02 C 184.84 106.62 183.12 107.07 181.37 107.37 C 181.69 106.82 182.32 105.73 182.64 105.19 C 181.55 105.43 180.46 105.68 179.37 105.94 C 179.58 104.46 179.12 103.13 178.31 101.91 C 180.37 102.07 182.42 102.24 184.48 102.40 L 183.97 103.66 C 184.85 103.17 185.75 102.70 186.66 102.24 L 186.22 101.47 C 187.64 101.88 193.20 99.99 189.16 103.38 C 189.87 104.09 190.72 104.65 191.70 105.06 Z" />
<path fill="#ffffff" opacity="1.00" d=" M 244.00 100.00 C 246.39 98.08 248.94 100.39 251.12 101.45 C 252.14 101.88 254.17 102.73 255.19 103.15 C 252.69 105.13 249.55 104.63 246.60 104.72 C 244.66 105.62 242.74 106.60 240.62 106.97 L 241.30 104.34 C 240.01 105.01 238.71 105.65 237.40 106.26 C 237.84 105.38 238.27 104.50 238.70 103.62 C 240.59 102.60 242.37 101.40 244.00 100.00 Z" />
<path fill="#ffffff" opacity="1.00" d=" M 256.64 100.97 C 256.81 99.21 258.99 101.28 259.98 101.06 C 262.25 102.48 262.67 105.04 263.17 107.46 C 262.92 108.74 262.69 110.03 262.48 111.32 C 261.34 111.78 260.20 112.26 259.07 112.75 L 258.24 111.72 C 259.72 110.07 260.90 108.18 262.10 106.33 C 261.85 106.35 261.35 106.39 261.10 106.41 C 259.91 108.53 258.23 111.58 255.19 110.47 C 255.94 109.70 256.77 109.01 257.64 108.37 C 256.69 108.01 255.74 107.65 254.80 107.28 C 255.67 106.72 257.41 105.61 258.28 105.05 C 256.59 105.57 254.98 106.31 253.40 107.07 C 254.44 107.72 255.50 108.35 256.59 108.95 C 255.69 109.49 253.91 110.57 253.02 111.12 C 253.24 110.41 253.67 109.01 253.89 108.31 C 253.07 108.58 251.42 109.13 250.59 109.41 C 249.91 109.23 248.54 108.88 247.85 108.70 C 248.33 108.34 249.30 107.60 249.79 107.24 C 247.84 107.48 245.89 107.68 243.95 107.84 C 245.45 106.07 247.66 105.34 249.84 104.91 C 250.25 105.31 251.06 106.09 251.46 106.49 C 252.25 105.84 253.03 105.18 253.81 104.51 C 256.13 103.53 258.46 103.08 260.88 104.29 C 259.52 103.13 257.71 102.44 256.64 100.97 Z" />
<path fill="#ffffff" opacity="1.00" d=" M 295.14 101.26 C 295.86 101.74 295.86 101.74 295.14 101.26 Z" />
<path fill="#ffffff" opacity="1.00" d=" M 304.01 102.07 C 305.49 100.90 307.14 100.01 308.81 99.13 C 308.41 100.37 307.62 102.85 307.22 104.09 C 305.39 102.97 303.28 103.71 301.32 103.97 C 301.89 104.52 303.02 105.62 303.59 106.17 C 301.05 106.76 298.35 106.99 296.48 104.72 C 298.40 103.69 300.41 102.81 302.52 102.22 L 302.77 101.14 L 304.01 102.07 Z" />
<path fill="#ffffff" opacity="1.00" d=" M 205.72 101.77 C 207.97 103.08 207.37 105.98 207.99 108.13 C 208.55 109.83 209.41 111.65 208.59 113.44 C 208.28 113.21 207.65 112.75 207.33 112.52 C 207.29 114.11 207.55 115.66 208.09 117.17 C 208.67 116.75 209.00 116.17 209.08 115.44 C 208.96 114.94 208.71 113.94 208.59 113.44 L 209.32 113.29 C 209.47 115.09 209.98 116.83 210.78 118.45 C 210.60 118.61 210.23 118.95 210.05 119.11 C 209.43 119.89 208.81 120.67 208.18 121.45 C 207.44 119.51 206.76 117.50 207.12 115.40 L 206.62 115.58 C 206.76 110.95 205.71 106.40 205.72 101.77 Z" />
<path fill="#ffffff" opacity="1.00" d=" M 294.66 107.67 C 293.76 106.01 291.36 104.26 293.12 102.37 C 295.03 104.47 297.21 106.30 299.49 107.98 L 300.72 107.30 L 299.92 108.84 L 302.42 109.04 C 301.09 109.56 299.79 110.07 298.49 110.65 C 300.10 111.83 302.78 112.84 302.64 115.27 C 302.52 116.83 303.52 118.08 304.07 119.45 C 301.46 118.82 301.09 115.88 299.67 114.02 C 296.01 113.49 294.21 109.90 292.55 107.04 C 294.68 108.41 296.14 110.54 298.13 112.08 C 298.26 110.85 298.28 109.62 298.20 108.40 C 297.08 107.91 295.90 107.66 294.66 107.67 Z" />
<path fill="#ffffff" opacity="1.00" d=" M 203.13 102.23 L 204.85 102.12 C 204.39 105.40 204.05 108.73 202.90 111.87 C 200.94 108.99 203.32 105.42 203.13 102.23 Z" />
<path fill="#ffffff" opacity="1.00" d=" M 218.49 102.45 C 221.00 103.20 222.18 105.76 223.38 107.87 C 221.47 106.34 218.79 105.19 218.49 102.45 Z" />
<path fill="#ffffff" opacity="1.00" d=" M 305.21 104.62 C 306.89 104.97 308.51 104.55 309.91 103.54 C 309.22 104.99 308.26 106.25 307.08 107.32 C 307.68 107.35 308.89 107.41 309.50 107.44 C 309.36 108.22 309.08 109.77 308.94 110.55 C 309.24 111.14 309.84 112.33 310.14 112.92 C 308.38 111.92 306.68 110.80 304.86 109.93 C 306.14 111.68 307.94 113.15 308.54 115.33 C 306.39 115.30 305.75 117.28 305.14 118.89 C 304.55 117.66 303.36 116.62 303.19 115.22 C 304.04 114.92 304.90 114.62 305.77 114.33 C 304.56 113.17 303.40 111.95 302.31 110.68 L 305.54 111.92 C 305.05 109.97 303.28 109.18 301.92 108.02 C 303.73 107.45 306.70 107.57 305.21 104.62 Z" />
<path fill="#ffffff" opacity="1.00" d=" M 194.04 115.37 C 194.22 111.06 197.19 107.65 200.04 104.71 C 198.25 108.32 196.93 112.52 194.04 115.37 Z" />
<path fill="#ffffff" opacity="1.00" d=" M 232.87 105.43 C 234.98 106.60 237.19 107.57 239.66 107.57 L 239.39 108.09 C 241.43 108.47 243.47 108.89 245.53 109.20 C 245.18 109.78 244.47 110.96 244.11 111.54 C 248.23 109.51 252.19 113.37 256.40 112.53 C 254.57 113.47 252.84 114.59 251.62 116.30 L 252.81 116.65 C 253.28 117.33 254.21 118.69 254.67 119.37 C 251.76 120.00 248.97 118.12 246.40 116.97 C 246.03 115.83 245.66 114.69 245.29 113.55 C 243.13 112.09 238.87 109.80 237.59 113.59 C 238.03 112.46 238.49 111.34 238.96 110.22 C 238.43 109.82 237.87 109.49 237.28 109.25 C 236.96 110.02 236.64 110.79 236.32 111.57 C 235.25 109.98 233.72 108.69 231.91 108.05 C 232.15 107.39 232.63 106.09 232.87 105.43 M 247.82 115.40 C 246.47 118.40 251.19 115.38 247.82 115.40 Z" />
<path fill="#ffffff" opacity="1.00" d=" M 264.82 105.33 C 265.70 105.80 266.56 106.30 267.42 106.82 C 269.27 105.51 270.12 106.82 270.29 108.66 C 269.50 108.69 267.92 108.74 267.13 108.77 C 266.25 107.69 265.43 106.57 264.82 105.33 Z" />
<path fill="#ffffff" opacity="1.00" d=" M 280.72 105.26 C 282.70 104.29 284.81 108.08 282.52 108.83 C 281.48 108.12 280.41 106.54 280.72 105.26 Z" />
<path fill="#ffffff" opacity="1.00" d=" M 284.06 105.65 C 285.65 103.86 286.82 107.86 284.54 107.26 C 284.42 106.85 284.18 106.05 284.06 105.65 Z" />
<path fill="#ffffff" opacity="1.00" d=" M 269.53 110.82 C 270.89 109.63 272.25 108.45 273.73 107.41 C 274.79 108.04 275.88 108.65 277.11 108.94 C 278.22 109.56 279.33 110.19 280.45 110.81 C 280.70 112.34 279.78 114.29 281.17 115.42 C 283.32 117.47 284.05 120.70 286.70 122.25 C 288.11 123.28 289.27 124.59 290.40 125.90 L 290.75 126.13 L 289.86 121.97 C 290.69 122.81 292.34 124.48 293.16 125.31 C 293.07 124.90 292.88 124.08 292.78 123.67 L 292.86 123.13 C 294.42 126.11 295.90 129.14 297.17 132.26 C 298.06 132.84 298.94 133.45 299.79 134.10 C 299.51 131.76 297.82 130.03 296.87 127.98 C 299.33 129.91 302.16 131.57 303.93 134.24 C 305.22 136.51 307.63 137.81 309.13 139.94 C 307.89 139.59 306.69 139.13 305.53 138.57 C 306.37 139.70 308.04 141.94 308.87 143.06 C 307.52 142.48 304.82 141.32 303.47 140.74 C 304.38 141.65 305.43 142.35 306.64 142.83 C 305.63 146.07 310.35 146.41 312.20 148.01 C 311.10 148.33 309.99 148.63 308.90 148.94 C 307.67 147.89 306.43 146.83 305.20 145.78 L 305.22 147.40 C 304.86 147.31 304.13 147.11 303.76 147.01 C 302.95 144.88 300.34 142.51 302.13 140.20 C 302.45 139.01 304.46 137.40 302.83 136.42 C 301.60 136.63 301.00 138.09 300.08 138.85 C 299.11 137.09 298.74 134.88 297.07 133.60 C 297.40 135.17 299.00 136.54 298.35 138.26 L 298.18 139.42 C 295.90 137.08 293.98 134.44 291.74 132.07 C 292.08 131.47 292.43 130.87 292.79 130.27 C 293.79 131.56 294.84 132.84 295.93 134.05 C 294.75 131.45 293.64 127.59 290.18 127.50 C 289.60 126.78 288.46 125.34 287.88 124.62 C 287.48 125.01 287.09 125.39 286.70 125.79 C 287.30 126.38 288.50 127.58 289.10 128.17 C 289.73 131.61 291.94 134.44 294.66 136.54 C 296.47 137.92 297.53 140.53 300.05 140.73 C 301.19 142.54 301.24 143.96 298.65 144.13 L 298.82 142.15 L 298.20 142.18 C 298.28 142.78 298.42 143.98 298.49 144.58 L 299.95 143.97 C 299.86 145.16 299.68 147.54 299.59 148.73 C 298.53 146.44 296.42 146.21 294.23 146.27 C 294.70 147.13 295.63 148.85 296.10 149.71 C 296.38 149.38 296.94 148.74 297.22 148.42 C 297.46 148.51 297.94 148.71 298.18 148.81 C 299.21 149.17 300.26 149.46 301.32 149.75 C 301.83 149.48 302.87 148.93 303.38 148.66 L 301.09 151.05 L 304.37 150.44 C 304.74 149.42 305.19 148.42 305.65 147.43 C 306.50 149.64 308.81 150.67 310.34 152.34 L 308.46 152.60 L 308.01 153.97 C 306.46 152.19 304.69 150.80 302.17 151.02 L 303.29 153.47 C 302.04 152.59 300.82 151.67 299.62 150.73 L 299.51 152.85 C 298.97 151.82 298.45 150.79 297.97 149.74 C 297.07 150.17 295.95 151.24 294.96 150.46 C 294.22 149.45 293.50 148.42 292.80 147.38 C 294.33 144.94 292.03 142.30 291.91 139.83 C 292.69 140.24 294.25 141.05 295.03 141.46 L 293.96 141.46 C 294.98 142.83 295.89 144.32 297.17 145.48 C 296.68 143.80 295.59 142.33 295.27 140.60 C 293.98 140.17 292.73 139.66 291.46 139.22 C 292.57 142.55 292.54 146.00 292.30 149.47 L 290.84 149.65 C 291.35 147.51 291.92 145.27 290.21 143.50 C 289.38 145.84 289.83 148.18 290.75 150.41 C 289.95 150.53 288.35 150.77 287.55 150.88 C 287.67 150.29 287.90 149.12 288.02 148.53 C 286.52 149.44 285.03 150.51 283.23 150.70 C 283.76 150.06 284.82 148.79 285.35 148.15 C 285.17 147.97 284.81 147.61 284.63 147.43 L 283.27 148.85 L 283.10 145.06 C 282.83 146.48 282.65 147.91 282.32 149.32 C 282.27 147.90 282.21 146.48 282.16 145.06 C 281.39 144.12 280.74 143.10 280.08 142.08 L 278.75 142.77 C 278.95 141.60 279.20 140.43 279.48 139.28 C 279.29 138.78 278.92 137.78 278.74 137.27 C 278.40 137.58 277.72 138.20 277.38 138.51 C 275.95 137.02 274.36 135.62 273.48 133.72 C 276.05 133.87 276.92 137.27 279.57 136.76 C 279.84 137.15 280.38 137.93 280.65 138.32 C 280.70 139.95 281.03 141.57 281.80 143.03 C 281.61 139.83 284.53 137.51 284.00 134.27 C 282.71 133.08 281.36 131.93 279.96 130.88 C 280.63 132.58 281.38 134.27 281.95 136.02 C 278.62 135.07 277.70 131.10 276.85 128.20 C 275.39 129.99 277.03 131.87 277.74 133.57 C 276.30 133.02 274.83 132.28 273.31 133.01 C 269.21 131.67 266.44 127.20 266.20 123.06 C 268.71 125.29 269.26 129.28 272.31 130.94 C 271.87 128.06 269.28 126.40 268.00 123.95 C 269.83 123.21 271.55 122.21 273.36 121.41 C 273.99 123.31 273.96 125.17 272.17 126.36 C 270.81 128.00 274.98 127.50 275.97 128.10 C 276.39 128.10 277.23 128.12 277.64 128.13 C 276.80 126.97 275.85 125.91 274.80 124.95 C 274.36 123.83 273.95 122.69 273.57 121.55 C 274.09 121.56 275.11 121.58 275.63 121.59 C 278.40 124.20 281.65 126.16 284.69 128.40 C 286.24 130.08 288.62 132.57 287.26 134.97 C 286.53 133.29 283.24 132.02 284.98 129.69 L 282.78 131.11 L 284.04 129.22 C 282.19 127.09 279.55 126.03 276.97 125.07 C 278.26 126.69 279.60 128.28 280.82 129.96 C 285.01 132.89 286.76 137.73 289.70 141.69 C 289.41 139.00 287.37 136.97 286.11 134.70 C 287.65 135.56 289.88 135.84 290.62 137.66 C 290.86 135.87 289.77 134.42 289.00 132.94 C 287.89 129.79 285.58 127.26 283.55 124.68 C 284.30 124.19 285.06 123.70 285.81 123.21 C 283.41 119.78 278.87 119.11 276.64 115.61 C 278.18 116.21 279.69 116.87 281.18 117.60 C 278.77 114.48 275.83 111.80 273.77 108.42 C 273.47 108.90 273.18 109.39 272.90 109.87 C 273.59 110.77 274.27 111.68 274.92 112.61 C 273.36 112.39 271.80 112.14 270.22 112.20 C 269.98 111.74 269.75 111.28 269.53 110.82 M 282.95 143.24 C 283.31 142.74 284.02 141.75 284.37 141.25 C 285.10 141.37 286.56 141.60 287.29 141.72 C 286.37 141.18 285.44 140.66 284.51 140.16 L 285.19 137.81 C 283.33 138.89 283.68 141.46 282.95 143.24 M 287.94 143.34 C 286.12 146.09 291.35 143.72 287.94 143.34 Z" />
<path fill="#ffffff" opacity="1.00" d=" M 209.22 107.40 C 210.47 107.04 212.95 106.32 214.20 105.96 C 212.02 109.39 212.58 113.38 212.50 117.19 C 210.82 114.15 210.01 110.75 209.22 107.40 Z" />
<path fill="#ffffff" opacity="1.00" d=" M 195.87 115.46 C 197.34 111.63 199.16 107.90 202.22 105.02 C 201.83 108.80 198.90 111.71 198.41 115.41 L 195.87 115.46 Z" />
<path fill="#ffffff" opacity="1.00" d=" M 230.98 108.13 C 233.12 109.79 235.16 111.58 237.20 113.36 C 236.52 114.11 235.85 114.87 235.19 115.63 C 234.55 116.24 233.93 116.85 233.31 117.46 C 232.90 116.87 232.08 115.69 231.67 115.10 C 231.24 112.80 230.99 110.47 230.98 108.13 Z" />
<path fill="#ffffff" opacity="1.00" d=" M 283.96 112.58 C 282.65 113.13 281.13 109.86 282.77 109.68 C 283.89 110.40 284.29 111.37 283.96 112.58 Z" />
<path fill="#ffffff" opacity="1.00" d=" M 185.51 112.84 C 186.60 112.26 187.67 111.63 188.76 111.03 C 187.51 116.44 182.73 119.61 179.87 124.05 C 180.03 124.53 180.36 125.47 180.52 125.94 C 178.96 127.71 177.66 129.68 176.85 131.92 C 178.11 131.25 179.38 130.59 180.65 129.93 C 180.15 130.39 179.14 131.32 178.64 131.78 C 179.83 133.17 178.88 134.86 178.74 136.43 C 180.40 138.24 178.16 140.11 178.61 142.12 C 179.00 143.60 177.47 144.19 176.63 145.04 L 176.09 144.87 C 175.99 144.52 175.79 143.81 175.69 143.46 C 174.78 144.25 172.95 145.83 172.04 146.63 C 172.77 145.39 174.22 142.92 174.95 141.69 L 173.23 141.41 C 173.03 141.15 172.64 140.61 172.44 140.35 C 173.69 138.37 175.27 136.59 176.92 134.94 C 176.79 134.02 176.59 133.11 176.38 132.21 C 175.99 134.81 174.10 136.63 171.99 137.95 C 172.89 136.25 173.95 134.64 174.97 133.01 C 174.27 133.11 172.89 133.33 172.19 133.43 C 174.31 131.42 174.74 128.57 174.60 125.78 C 176.00 125.55 176.69 124.73 176.65 123.30 L 177.80 123.76 L 177.13 122.56 L 178.48 122.49 L 178.57 121.20 L 179.54 121.56 C 179.54 120.98 179.55 119.81 179.55 119.22 C 180.12 119.33 181.24 119.55 181.81 119.66 C 183.55 117.69 184.50 115.23 185.51 112.84 M 176.29 128.54 C 177.41 128.59 178.12 128.00 178.41 126.79 C 177.81 124.91 175.22 127.32 176.29 128.54 Z" />
<path fill="#ffffff" opacity="1.00" d=" M 263.26 110.08 C 265.30 109.38 266.02 112.08 266.94 113.36 C 266.35 114.27 265.18 116.09 264.60 117.00 L 266.61 116.10 C 266.97 117.07 267.34 118.03 267.74 118.99 L 269.53 118.56 C 268.80 120.14 267.06 120.56 265.65 121.25 C 265.65 121.97 265.66 123.40 265.66 124.12 C 265.05 124.25 264.44 124.37 263.84 124.49 C 262.15 123.41 260.12 123.32 258.19 123.08 C 258.70 122.66 259.72 121.82 260.23 121.41 C 262.04 120.65 263.87 119.97 265.82 119.62 C 263.53 119.04 261.14 119.27 258.83 118.87 C 258.56 116.97 258.37 115.06 258.12 113.16 C 259.67 112.73 261.24 112.35 262.82 112.03 L 262.28 113.90 C 262.50 113.55 262.95 112.85 263.17 112.50 C 263.19 111.89 263.24 110.69 263.26 110.08 Z" />
<path fill="#ffffff" opacity="1.00" d=" M 201.13 112.26 L 201.85 112.08 L 202.33 112.87 L 201.79 113.68 L 200.87 113.63 C 200.93 113.29 201.06 112.61 201.13 112.26 Z" />
<path fill="#ffffff" opacity="1.00" d=" M 267.94 113.63 C 269.78 114.68 270.95 117.42 273.43 116.53 C 274.52 117.09 275.64 117.59 276.76 118.09 C 277.47 119.02 278.20 119.95 278.91 120.89 C 277.13 120.04 275.08 117.53 273.48 119.99 C 271.15 118.33 268.57 116.64 267.94 113.63 Z" />
<path fill="#ffffff" opacity="1.00" d=" M 283.28 114.13 C 284.78 114.64 286.26 115.21 287.80 115.63 C 289.21 117.08 290.49 118.67 291.76 120.25 C 292.07 120.57 292.67 121.21 292.97 121.53 C 292.94 121.93 292.89 122.73 292.86 123.13 C 290.90 121.81 288.77 120.71 287.08 119.02 C 287.42 118.51 288.09 117.48 288.42 116.96 C 285.84 118.69 284.72 115.67 283.28 114.13 Z" />
<path fill="#ffffff" opacity="1.00" d=" M 201.84 114.65 C 203.30 113.14 204.70 116.71 202.81 116.93 L 202.05 116.54 C 201.99 116.07 201.89 115.12 201.84 114.65 Z" />
<path fill="#ffffff" opacity="1.00" d=" M 293.59 113.01 C 297.28 114.56 299.60 117.93 301.59 121.23 C 300.91 121.28 299.55 121.38 298.88 121.43 C 297.38 118.46 295.05 116.01 293.59 113.01 Z" />
<path fill="#ffffff" opacity="1.00" d=" M 178.04 118.41 C 176.31 118.51 177.43 115.19 178.77 116.10 C 178.59 116.68 178.22 117.83 178.04 118.41 Z" />
<path fill="#ffffff" opacity="1.00" d=" M 180.10 116.31 C 182.82 115.90 179.98 119.41 179.53 116.94 L 180.10 116.31 Z" />
<path fill="#ffffff" opacity="1.00" d=" M 188.20 116.23 C 188.85 116.89 188.85 116.89 188.20 116.23 Z" />
<path fill="#ffffff" opacity="1.00" d=" M 288.95 115.07 C 294.76 114.14 296.25 120.15 298.29 124.09 C 294.54 121.76 291.83 118.34 288.95 115.07 Z" />
<path fill="#ffffff" opacity="1.00" d=" M 227.74 117.15 C 227.14 119.02 226.59 120.91 226.17 122.83 C 225.30 122.18 224.43 121.53 223.57 120.89 C 224.82 119.49 226.25 118.28 227.74 117.15 Z" />
<path fill="#ffffff" opacity="1.00" d=" M 238.71 117.53 C 240.54 115.86 242.58 119.64 240.15 120.31 C 238.73 120.54 237.95 118.55 238.71 117.53 Z" />
<path fill="#ffffff" opacity="1.00" d=" M 183.27 122.73 C 184.53 120.85 185.94 119.04 187.71 117.60 C 187.46 119.76 188.46 122.58 185.63 123.70 C 187.24 123.44 188.86 123.22 190.49 123.04 C 189.95 124.23 189.37 125.39 188.77 126.54 C 188.74 127.76 188.69 128.97 188.60 130.18 C 187.01 131.87 185.65 133.77 183.88 135.29 C 184.24 133.56 185.18 131.86 184.62 130.07 C 184.95 129.40 185.59 128.06 185.92 127.38 L 184.16 127.68 C 185.15 126.76 186.12 125.84 187.08 124.90 C 186.34 124.49 185.60 124.09 184.86 123.69 C 185.37 122.98 186.41 121.56 186.92 120.86 C 186.01 121.32 184.18 122.26 183.27 122.73 Z" />
<path fill="#ffffff" opacity="1.00" d=" M 234.09 118.04 C 235.72 117.55 236.33 118.09 235.93 119.67 C 234.28 120.17 233.67 119.62 234.09 118.04 Z" />
<path fill="#ffffff" opacity="1.00" d=" M 175.98 119.88 C 176.37 119.83 177.14 119.74 177.53 119.70 C 177.61 121.19 176.31 123.17 174.78 123.30 C 174.86 122.10 175.26 120.96 175.98 119.88 Z" />
<path fill="#ffffff" opacity="1.00" d=" M 191.92 120.13 C 192.29 119.75 193.04 119.01 193.41 118.64 C 193.91 119.43 194.41 120.22 194.91 121.01 L 196.08 119.15 C 196.07 119.63 196.04 120.60 196.02 121.08 C 194.64 122.55 193.18 120.78 191.92 120.13 Z" />
<path fill="#ffffff" opacity="1.00" d=" M 196.02 121.08 C 196.51 120.73 197.49 120.04 197.98 119.69 C 197.67 121.34 196.98 122.87 196.31 124.40 C 196.36 125.68 196.35 126.96 196.34 128.25 C 195.81 129.10 195.30 129.96 194.81 130.83 C 195.24 130.73 196.10 130.54 196.53 130.45 C 196.94 132.20 197.39 133.95 197.88 135.69 C 197.32 135.68 196.21 135.68 195.65 135.68 C 195.33 132.91 193.28 130.36 194.47 127.54 C 194.20 127.32 193.67 126.87 193.40 126.65 C 194.37 124.84 195.80 123.19 196.02 121.08 Z" />
<path fill="#ffffff" opacity="1.00" d=" M 243.03 120.22 C 244.63 119.80 245.19 120.39 244.72 121.98 C 243.08 122.43 242.52 121.85 243.03 120.22 Z" />
<path fill="#ffffff" opacity="1.00" d=" M 236.44 124.08 C 237.95 125.55 238.98 127.43 240.57 128.84 C 242.28 128.42 244.04 128.31 245.80 128.33 C 244.88 129.48 243.91 130.60 242.98 131.75 C 242.27 131.67 240.87 131.53 240.17 131.46 C 239.86 132.05 239.23 133.25 238.92 133.84 C 236.94 130.96 237.17 127.36 236.44 124.08 Z" />
<path fill="#ffffff" opacity="1.00" d=" M 246.13 136.48 C 246.53 132.56 248.03 128.90 249.12 125.15 C 249.92 126.58 250.76 127.99 251.60 129.41 C 250.12 132.01 248.53 134.61 246.13 136.48 Z" />
<path fill="#ffffff" opacity="1.00" d=" M 209.60 138.48 C 208.90 134.06 206.90 129.71 207.68 125.17 C 209.91 129.07 209.98 133.69 210.71 138.01 C 210.43 138.13 209.88 138.36 209.60 138.48 Z" />
<path fill="#ffffff" opacity="1.00" d=" M 211.96 127.46 C 213.35 127.00 213.86 127.45 213.49 128.83 C 212.10 129.30 211.59 128.84 211.96 127.46 Z" />
<path fill="#ffffff" opacity="1.00" d=" M 232.33 126.45 C 233.38 127.29 234.34 128.27 234.67 129.63 L 235.37 129.45 C 235.50 129.95 235.76 130.96 235.89 131.46 C 234.78 131.52 233.66 131.60 232.56 131.70 C 232.50 129.95 232.39 128.20 232.33 126.45 Z" />
<path fill="#ffffff" opacity="1.00" d=" M 264.38 130.75 C 265.36 129.89 266.23 128.92 267.09 127.94 C 266.92 128.48 266.58 129.54 266.41 130.07 C 267.70 131.50 268.81 133.08 269.77 134.74 C 267.57 134.01 265.95 132.36 264.38 130.75 Z" />
<path fill="#ffffff" opacity="1.00" d=" M 203.27 129.67 C 205.36 135.18 206.21 141.15 209.55 146.14 C 208.97 146.24 207.81 146.45 207.22 146.55 C 206.13 145.23 205.08 143.88 204.05 142.51 L 205.96 142.68 C 203.74 138.74 203.73 134.06 203.27 129.67 Z" />
<path fill="#ffffff" opacity="1.00" d=" M 212.63 130.82 C 213.10 130.64 214.03 130.26 214.49 130.08 C 214.44 130.80 214.34 132.26 214.29 132.99 C 214.89 132.92 216.11 132.78 216.71 132.71 C 216.43 135.65 216.25 138.60 216.32 141.55 C 217.76 139.81 217.63 137.51 218.08 135.43 C 218.63 137.32 218.07 139.66 219.68 141.12 C 217.36 142.71 218.97 146.24 218.14 148.61 C 216.07 146.59 216.77 143.24 214.25 141.54 C 214.28 138.75 214.63 135.97 214.81 133.18 C 214.27 133.25 213.19 133.37 212.65 133.44 C 212.64 132.57 212.63 131.69 212.63 130.82 Z" />
<path fill="#ffffff" opacity="1.00" d=" M 184.64 137.98 C 186.27 135.63 186.70 131.79 189.97 131.15 C 188.99 133.68 187.57 136.34 189.93 138.64 L 188.70 138.33 C 187.99 139.89 187.24 141.42 186.55 142.98 C 186.21 142.77 185.52 142.35 185.18 142.14 C 185.81 140.60 186.44 139.06 187.08 137.53 L 184.64 137.98 Z" />
<path fill="#ffffff" opacity="1.00" d=" M 191.11 135.79 C 190.55 134.51 191.86 132.42 193.20 132.28 C 193.60 133.48 192.59 136.00 191.11 135.79 Z" />
<path fill="#ffffff" opacity="1.00" d=" M 256.56 137.06 C 258.64 135.09 261.22 133.78 263.78 132.56 C 263.15 134.27 262.31 136.01 260.60 136.89 L 260.34 138.48 C 260.29 137.85 260.18 136.59 260.13 135.96 C 259.24 136.23 257.46 136.78 256.56 137.06 Z" />
<path fill="#ffffff" opacity="1.00" d=" M 229.68 133.98 C 230.92 135.86 232.78 137.66 232.64 140.10 C 232.10 142.25 230.22 143.60 228.71 145.06 C 229.06 143.56 229.50 142.09 229.92 140.61 C 228.90 141.56 227.92 142.53 226.87 143.43 C 227.27 142.28 227.76 141.17 228.36 140.11 L 228.58 139.39 C 229.03 139.49 229.92 139.69 230.37 139.79 C 230.07 137.86 229.84 135.92 229.68 133.98 Z" />
<path fill="#ffffff" opacity="1.00" d=" M 265.86 135.55 C 265.82 134.82 265.87 134.08 265.91 133.35 C 267.08 134.34 268.29 135.29 269.53 136.19 C 269.36 136.73 269.19 137.28 269.02 137.83 C 267.97 137.06 266.92 136.29 265.86 135.55 Z" />
<path fill="#ffffff" opacity="1.00" d=" M 235.32 135.43 C 235.56 135.37 236.04 135.25 236.28 135.19 C 238.26 137.79 238.72 141.03 238.69 144.21 C 239.20 143.93 240.20 143.37 240.71 143.09 C 238.54 144.29 239.56 147.06 239.06 149.03 C 237.28 147.10 237.05 144.52 237.50 142.05 C 236.70 139.86 235.96 137.66 235.32 135.43 Z" />
<path fill="#ffffff" opacity="1.00" d=" M 192.17 144.09 C 191.86 140.39 192.39 136.72 194.48 133.56 C 194.40 134.98 194.23 137.82 194.15 139.25 L 196.70 135.91 C 194.02 141.78 196.75 148.14 197.44 154.18 C 195.32 152.90 195.57 150.12 195.11 148.02 C 194.70 148.18 193.87 148.50 193.45 148.66 C 193.83 146.84 194.17 145.01 194.59 143.20 C 193.98 143.43 192.77 143.87 192.17 144.09 Z" />
<path fill="#ffffff" opacity="1.00" d=" M 264.49 139.72 C 264.92 138.94 265.34 138.17 265.77 137.39 C 267.09 139.87 268.96 141.97 270.78 144.10 C 270.61 143.02 270.29 140.85 270.13 139.77 C 272.32 141.82 272.81 145.07 275.12 147.11 C 276.32 147.42 277.32 148.05 278.10 148.99 C 279.95 147.60 281.26 148.85 281.87 150.77 L 280.52 150.99 L 280.82 149.82 C 279.00 149.67 277.18 149.52 275.36 149.36 C 275.80 150.12 276.70 151.64 277.14 152.40 C 273.79 150.09 271.96 146.24 268.49 144.03 C 268.16 144.21 267.52 144.58 267.20 144.77 C 266.32 143.81 265.43 142.86 264.54 141.92 C 264.52 141.18 264.50 140.45 264.49 139.72 Z" />
<path fill="#ffffff" opacity="1.00" d=" M 298.35 138.26 C 298.88 138.88 298.88 138.88 298.35 138.26 Z" />
<path fill="#ffffff" opacity="1.00" d=" M 200.10 139.01 C 200.40 141.84 200.25 144.70 199.97 147.52 C 200.71 147.75 201.44 147.97 202.18 148.20 L 200.64 148.31 C 200.55 149.51 200.38 151.92 200.30 153.12 C 200.84 152.75 201.94 152.00 202.49 151.62 C 200.81 154.65 201.52 158.37 200.53 161.65 L 201.72 161.53 C 201.57 162.07 201.25 163.16 201.10 163.70 L 202.83 163.30 C 202.60 164.18 202.12 165.93 201.88 166.81 C 201.48 168.43 201.70 171.94 198.70 170.69 C 199.07 171.48 199.44 172.27 199.82 173.06 C 200.65 173.56 201.48 174.07 202.32 174.59 C 201.55 175.86 200.78 177.14 200.02 178.42 C 200.98 178.41 202.91 178.39 203.87 178.38 C 203.62 180.20 203.22 181.99 202.67 183.74 C 203.07 184.50 203.49 185.26 203.91 186.01 L 204.46 182.11 C 206.48 184.11 205.61 186.79 203.81 188.35 C 203.24 187.17 202.68 185.99 202.09 184.82 L 201.34 187.68 L 200.09 187.20 C 200.16 187.61 200.30 188.43 200.38 188.84 C 199.40 190.22 198.95 191.85 198.84 193.53 C 199.70 191.05 201.06 189.11 203.87 189.48 C 203.94 190.93 204.02 192.38 204.11 193.84 C 203.70 193.68 202.89 193.38 202.48 193.23 C 201.89 198.92 203.03 204.47 203.92 210.06 C 204.28 210.37 205.00 211.00 205.36 211.31 C 205.50 213.31 206.47 215.08 207.57 216.71 C 207.59 216.97 207.63 217.49 207.65 217.75 C 206.74 216.65 205.82 215.53 204.41 215.07 L 204.27 214.16 C 203.84 214.22 202.99 214.33 202.57 214.39 C 202.52 213.89 202.41 212.90 202.36 212.40 L 203.63 212.79 C 203.50 211.88 203.22 210.08 203.09 209.18 L 202.42 209.44 C 202.72 211.83 201.83 212.39 199.76 211.13 L 201.43 210.43 C 201.60 208.32 201.78 206.21 201.94 204.11 L 201.26 204.14 C 201.14 205.84 200.97 207.53 200.74 209.22 C 199.64 206.20 201.21 201.98 198.39 199.78 C 198.10 202.57 198.39 205.38 198.86 208.14 C 198.47 207.87 197.68 207.33 197.29 207.06 C 197.14 203.44 197.45 199.79 196.76 196.21 L 195.42 196.67 C 195.46 195.13 195.49 193.60 195.50 192.06 C 195.76 192.09 196.27 192.14 196.52 192.16 C 196.34 193.35 196.18 194.54 196.05 195.74 C 197.14 194.21 198.00 192.52 198.87 190.86 C 198.27 190.73 197.07 190.48 196.47 190.35 C 196.73 186.11 194.42 182.65 193.07 178.83 C 194.17 180.24 195.09 181.76 196.12 183.22 C 196.27 180.60 194.50 178.27 194.86 175.67 C 197.14 179.68 198.53 184.16 197.60 188.79 C 198.08 188.74 199.04 188.63 199.52 188.58 C 199.36 187.95 199.06 186.70 198.91 186.07 C 199.40 186.18 200.38 186.41 200.87 186.53 C 201.06 185.72 201.44 184.10 201.64 183.29 L 199.78 183.86 C 200.50 182.59 201.22 181.32 201.94 180.05 C 201.34 180.19 200.14 180.47 199.54 180.61 C 199.70 178.81 199.17 176.81 200.76 175.39 C 199.91 175.37 199.06 175.45 198.22 175.55 C 198.42 174.41 198.72 173.29 198.72 172.13 L 197.46 172.35 C 197.93 170.22 198.43 168.11 199.02 166.02 C 199.44 166.26 200.30 166.75 200.72 166.99 C 200.57 165.36 200.44 163.72 200.39 162.09 L 198.96 162.65 C 199.24 159.68 199.98 156.79 200.88 153.96 C 198.59 153.08 199.06 151.14 199.89 149.23 L 198.09 149.32 C 198.69 147.94 199.29 146.55 199.91 145.18 L 198.00 145.71 C 198.33 143.37 199.07 141.13 200.10 139.01 Z" />
<path fill="#ffffff" opacity="1.00" d=" M 273.52 137.80 C 274.99 139.62 278.18 143.43 274.70 144.91 C 273.47 142.74 273.32 140.24 273.52 137.80 Z" />
<path fill="#ffffff" opacity="1.00" d=" M 186.75 151.09 C 187.87 147.29 186.23 142.14 190.35 139.79 C 190.12 140.79 189.66 142.79 189.43 143.78 C 191.36 147.34 190.31 152.37 187.48 155.06 C 187.85 153.35 188.37 151.69 188.88 150.03 L 186.75 151.09 Z" />
<path fill="#ffffff" opacity="1.00" d=" M 261.31 146.24 C 262.43 144.62 261.11 140.40 264.15 141.17 C 264.18 142.95 264.28 144.73 264.36 146.51 C 265.99 147.99 268.54 148.76 268.79 151.28 C 270.71 151.60 271.48 153.24 271.98 154.93 C 271.34 154.38 270.05 153.28 269.41 152.73 C 268.41 152.34 267.42 151.97 266.42 151.62 C 266.53 151.34 266.76 150.77 266.87 150.49 C 266.04 150.46 265.22 150.44 264.41 150.40 C 264.35 152.10 264.28 153.80 264.23 155.50 C 264.82 156.60 266.64 157.46 266.20 158.91 C 265.57 158.75 264.29 158.44 263.65 158.28 C 263.47 158.67 263.12 159.46 262.95 159.85 C 262.17 157.56 261.18 155.34 259.96 153.25 L 261.02 153.28 C 261.39 152.81 262.15 151.87 262.53 151.40 C 262.07 149.96 261.59 148.50 261.12 147.07 L 264.12 148.91 L 262.81 146.97 C 262.43 146.79 261.69 146.42 261.31 146.24 Z" />
<path fill="#ffffff" opacity="1.00" d=" M 181.49 142.20 L 182.35 142.24 C 181.96 147.90 183.60 153.52 182.12 159.15 C 182.87 158.15 184.37 156.15 185.12 155.15 C 184.72 158.19 184.21 161.22 184.12 164.29 L 183.70 164.17 C 183.68 167.39 182.70 170.47 182.00 173.58 C 182.51 173.46 183.52 173.24 184.03 173.12 C 183.79 173.76 183.30 175.05 183.06 175.69 C 183.81 175.63 185.32 175.50 186.07 175.43 C 184.92 175.90 183.76 176.33 182.61 176.78 C 182.80 174.63 181.32 172.91 181.03 170.85 C 180.49 171.36 179.43 172.37 178.90 172.87 C 179.75 171.37 180.68 169.90 181.30 168.28 L 179.12 168.34 C 179.67 166.09 180.28 163.85 180.77 161.59 L 183.91 161.71 C 181.44 160.73 180.52 158.87 181.15 156.10 C 179.95 158.07 179.03 160.23 177.59 162.05 C 178.28 158.23 179.96 154.71 181.17 151.05 C 180.88 150.68 180.29 149.94 180.00 149.57 C 180.45 148.26 180.84 146.93 181.17 145.58 C 179.28 147.17 178.56 149.58 177.61 151.76 C 177.77 154.82 176.16 157.54 174.52 159.98 C 174.67 158.43 174.90 156.89 175.01 155.34 C 174.64 155.67 173.91 156.34 173.54 156.67 C 173.38 155.26 173.59 153.83 173.48 152.42 L 174.72 152.52 C 174.67 152.14 174.58 151.38 174.53 150.99 C 175.80 149.08 176.85 147.04 177.90 145.00 C 179.30 144.39 181.40 144.27 181.49 142.20 Z" />
<path fill="#ffffff" opacity="1.00" d=" M 232.70 143.27 C 233.09 143.36 233.88 143.55 234.27 143.64 C 234.16 145.71 234.13 147.79 234.17 149.86 C 233.12 150.55 232.11 151.29 231.04 151.94 C 230.79 150.01 233.79 147.39 231.24 146.20 C 231.61 145.47 232.33 144.01 232.70 143.27 Z" />
<path fill="#ffffff" opacity="1.00" d=" M 175.45 144.86 L 176.09 144.87 C 176.72 147.20 174.71 149.40 173.04 150.79 C 172.75 148.45 173.88 146.46 175.45 144.86 Z" />
<path fill="#ffffff" opacity="1.00" d=" M 219.81 143.70 C 220.64 146.74 219.65 150.12 221.30 152.92 C 222.46 154.93 221.65 157.30 221.25 159.39 C 219.75 157.77 219.99 155.43 219.29 153.46 C 218.98 157.96 219.57 162.35 220.64 166.70 C 217.24 163.86 217.78 158.58 217.04 154.65 C 213.73 158.73 216.62 163.86 216.90 168.43 C 215.46 167.06 214.76 165.18 214.71 163.20 L 213.06 163.14 C 213.65 166.21 213.68 169.65 215.80 172.17 C 217.10 174.65 218.12 177.27 219.04 179.91 C 218.06 178.99 217.10 178.05 216.15 177.10 C 214.03 172.15 212.61 166.92 212.43 161.51 L 214.83 161.81 C 214.51 161.23 213.87 160.08 213.55 159.50 L 214.59 159.60 C 214.92 157.55 215.42 155.50 216.37 153.64 C 216.26 151.90 216.16 150.17 216.22 148.44 C 216.96 150.01 216.50 152.60 218.68 153.05 C 218.58 152.09 218.46 151.13 218.34 150.17 C 219.02 148.06 219.43 145.87 219.81 143.70 Z" />
<path fill="#ffffff" opacity="1.00" d=" M 300.16 145.28 C 301.48 145.18 302.11 145.84 302.04 147.26 C 300.64 147.43 300.01 146.77 300.16 145.28 Z" />
<path fill="#ffffff" opacity="1.00" d=" M 242.43 145.94 C 245.34 144.35 242.45 149.42 242.43 145.94 Z" />
<path fill="#ffffff" opacity="1.00" d=" M 204.89 146.69 C 208.39 147.80 210.00 151.31 211.95 154.09 C 211.43 154.60 210.37 155.61 209.84 156.11 L 212.39 156.92 C 211.37 157.20 210.34 157.46 209.31 157.70 L 209.70 159.19 C 208.98 158.37 208.27 157.55 207.56 156.73 C 207.59 154.90 207.99 153.02 207.58 151.22 C 206.69 149.70 205.72 148.23 204.89 146.69 Z" />
<path fill="#ffffff" opacity="1.00" d=" M 252.12 151.35 C 252.71 149.80 253.22 148.22 253.84 146.68 C 253.03 151.05 253.75 155.51 252.99 159.87 C 252.43 159.30 251.31 158.16 250.75 157.59 C 250.85 158.60 251.05 160.61 251.15 161.62 C 249.71 160.41 248.69 158.84 247.88 157.16 L 249.75 157.77 C 249.70 157.18 249.61 156.00 249.57 155.41 L 248.53 155.75 C 248.34 153.40 248.38 151.06 248.50 148.72 C 249.71 151.14 250.82 153.68 250.84 156.45 C 253.84 154.49 251.95 151.26 250.71 148.90 L 251.57 149.17 L 252.12 151.35 Z" />
<path fill="#ffffff" opacity="1.00" d=" M 261.03 152.82 C 258.93 152.55 258.94 148.20 260.01 146.92 C 260.09 148.85 261.94 150.99 261.03 152.82 Z" />
<path fill="#ffffff" opacity="1.00" d=" M 299.59 148.73 C 300.30 148.23 300.30 148.23 299.59 148.73 Z" />
<path fill="#ffffff" opacity="1.00" d=" M 225.53 159.04 C 224.78 155.99 221.84 153.18 223.26 149.86 C 223.97 151.10 224.68 152.35 225.42 153.58 C 225.24 154.61 225.07 155.65 224.90 156.69 C 225.37 156.58 226.31 156.35 226.77 156.24 L 226.46 157.33 C 227.99 157.86 229.42 159.07 231.18 158.53 L 230.55 159.66 C 229.73 159.64 228.09 159.61 227.27 159.59 L 227.85 160.95 L 229.63 160.19 C 229.47 160.87 229.14 162.24 228.98 162.92 L 228.51 163.39 C 228.55 163.90 228.62 164.94 228.65 165.46 C 227.97 165.58 226.60 165.83 225.92 165.95 C 226.71 163.75 226.19 161.54 225.32 159.46 C 225.93 159.44 227.16 159.42 227.77 159.41 L 227.12 158.01 C 226.72 158.27 225.93 158.78 225.53 159.04 Z" />
<path fill="#ffffff" opacity="1.00" d=" M 240.27 152.15 C 240.90 151.56 241.54 150.98 242.18 150.40 C 242.86 152.30 243.55 154.21 244.51 156.00 C 245.73 158.19 248.40 159.30 248.85 162.00 C 247.44 161.16 246.31 159.99 245.14 158.88 C 245.26 159.46 245.49 160.62 245.61 161.21 C 247.00 161.18 247.80 162.42 248.73 163.24 L 246.83 163.59 C 250.90 170.54 245.28 163.99 243.38 162.98 C 242.71 161.29 242.01 159.61 241.36 157.92 C 242.21 158.50 243.91 159.68 244.77 160.26 C 243.95 159.11 243.05 158.04 242.15 156.97 C 242.96 154.94 241.60 153.47 240.27 152.15 Z" />
<path fill="#ffffff" opacity="1.00" d=" M 191.35 154.97 C 191.31 153.37 192.71 152.57 193.62 151.55 C 193.54 152.27 193.38 153.70 193.30 154.42 L 191.82 154.47 C 192.24 156.16 193.69 157.15 194.82 158.34 C 195.35 157.73 196.43 156.52 196.97 155.92 C 196.78 157.08 196.47 158.22 196.06 159.32 C 197.47 162.10 196.33 165.13 196.66 168.07 C 196.77 169.87 195.85 171.58 194.71 172.92 C 194.89 171.55 195.26 168.82 195.44 167.45 C 194.36 168.84 193.43 170.36 192.17 171.61 C 193.36 168.58 194.52 165.54 195.65 162.50 C 194.70 164.19 192.82 167.56 191.88 169.25 L 191.07 169.16 C 191.39 168.06 191.70 166.96 192.01 165.86 C 191.41 165.66 190.20 165.26 189.60 165.06 C 190.77 164.45 191.95 163.87 193.16 163.34 C 193.51 161.58 194.29 159.64 193.04 158.05 C 192.93 160.18 192.44 162.42 190.73 163.85 C 191.13 161.31 191.50 158.77 191.91 156.24 L 190.44 156.77 C 190.48 156.18 190.55 155.00 190.58 154.42 L 191.35 154.97 Z" />
<path fill="#ffffff" opacity="1.00" d=" M 236.47 152.12 C 238.56 153.28 240.71 154.54 240.39 157.42 C 239.86 156.80 238.80 155.57 238.28 154.95 C 238.38 155.81 238.59 157.53 238.70 158.39 L 236.68 158.55 C 236.67 156.41 236.55 154.27 236.47 152.12 Z" />
<path fill="#ffffff" opacity="1.00" d=" M 265.07 152.17 C 268.30 152.24 263.63 155.31 265.07 152.17 Z" />
<path fill="#ffffff" opacity="1.00" d=" M 267.16 153.97 C 268.69 153.69 269.16 154.38 268.56 156.03 C 267.00 156.31 266.53 155.62 267.16 153.97 Z" />
<path fill="#ffffff" opacity="1.00" d=" M 294.32 156.66 C 295.61 156.61 296.91 156.56 298.21 156.52 C 297.01 157.78 295.78 158.99 294.56 160.22 C 294.49 159.03 294.41 157.84 294.32 156.66 Z" />
<path fill="#ffffff" opacity="1.00" d=" M 221.88 159.96 C 223.12 160.39 223.64 163.96 222.10 164.39 C 221.25 163.17 221.33 161.29 221.88 159.96 Z" />
<path fill="#ffffff" opacity="1.00" d=" M 232.35 173.21 C 234.05 168.59 235.92 164.04 237.66 159.46 C 237.99 163.65 236.60 167.70 234.32 171.18 C 235.23 171.35 237.05 171.70 237.96 171.87 C 237.54 172.03 236.70 172.36 236.27 172.52 C 236.53 175.38 236.81 178.26 236.39 181.12 C 235.85 180.18 235.38 179.19 234.92 178.21 C 233.83 176.76 231.52 175.29 232.35 173.21 Z" />
<path fill="#ffffff" opacity="1.00" d=" M 301.08 159.86 C 301.69 160.48 302.91 161.71 303.52 162.33 L 303.49 159.97 C 303.89 160.30 304.29 160.63 304.70 160.96 C 304.21 161.65 303.21 163.03 302.72 163.71 L 304.42 163.29 C 305.07 164.51 306.16 165.27 307.42 165.81 C 307.18 169.86 308.92 173.45 310.25 177.15 C 311.57 178.99 308.75 179.30 307.76 180.01 C 307.21 181.29 306.67 182.57 306.14 183.85 L 307.92 183.11 C 307.08 185.21 306.30 187.36 306.40 189.66 C 304.51 192.02 303.49 195.91 299.89 195.96 C 300.48 194.75 301.14 193.58 301.86 192.43 C 302.33 189.51 303.91 186.97 305.88 184.82 L 306.12 185.14 C 306.02 184.69 305.82 183.78 305.71 183.33 C 304.02 185.20 302.19 186.95 300.39 188.72 C 300.38 188.39 300.36 187.73 300.35 187.40 C 301.69 185.80 303.01 184.18 304.33 182.56 C 304.24 182.37 304.06 182.00 303.97 181.81 C 303.84 181.71 303.58 181.52 303.45 181.42 C 303.02 182.55 302.21 183.45 301.41 184.33 L 301.11 185.73 C 300.66 185.61 299.74 185.36 299.28 185.24 C 299.22 185.85 299.11 187.09 299.05 187.70 C 298.22 186.95 297.38 186.22 296.55 185.50 C 295.98 184.55 294.44 184.10 294.37 182.94 C 295.73 181.73 297.67 184.58 298.56 182.67 C 299.26 180.98 295.49 179.21 296.13 182.06 C 294.84 181.27 293.59 180.44 292.36 179.58 C 291.73 179.60 290.47 179.65 289.84 179.67 C 291.15 180.17 292.49 180.60 293.78 181.16 C 293.65 181.90 293.46 182.63 293.21 183.35 C 291.41 179.80 286.47 182.42 284.10 179.43 C 285.84 176.91 287.54 172.59 291.59 174.66 C 290.60 175.38 289.59 176.05 288.56 176.67 C 290.39 177.09 291.04 175.66 291.84 174.50 C 292.95 174.48 295.16 174.43 296.26 174.40 C 297.84 175.81 299.42 177.24 301.14 178.49 C 301.36 176.68 301.54 174.87 301.61 173.05 C 303.48 174.19 305.23 175.51 306.83 177.01 C 306.35 174.85 305.84 172.68 304.42 170.92 C 305.36 171.45 306.30 171.99 307.25 172.54 C 307.01 171.91 306.54 170.65 306.31 170.02 C 305.72 169.28 304.53 167.79 303.94 167.05 C 303.54 168.60 302.70 169.85 301.40 170.80 C 298.86 168.96 295.55 167.56 292.67 169.51 L 292.03 170.98 C 291.52 170.45 290.48 169.38 289.97 168.85 C 290.12 169.32 290.44 170.26 290.59 170.72 C 288.73 171.42 286.94 172.27 285.12 173.07 C 284.74 172.48 283.99 171.30 283.62 170.71 L 282.82 171.22 C 282.76 170.49 282.63 169.04 282.56 168.32 C 283.83 169.11 285.02 170.04 286.15 171.03 L 286.36 170.58 C 284.85 168.39 283.55 166.07 282.22 163.77 C 284.80 164.33 286.29 166.68 287.59 168.77 C 288.27 168.53 289.63 168.06 290.32 167.83 C 287.35 168.80 287.54 166.00 286.75 164.45 C 286.19 163.54 285.65 162.61 285.15 161.67 C 287.55 162.33 288.68 164.57 288.95 166.89 C 289.34 166.83 290.12 166.70 290.52 166.64 C 290.28 165.43 289.81 163.01 289.57 161.79 C 290.06 162.30 291.04 163.32 291.52 163.83 L 292.86 162.23 L 291.83 166.53 L 294.01 163.73 L 293.31 166.32 C 294.06 165.86 295.56 164.93 296.31 164.46 C 297.50 165.16 298.67 165.88 299.85 166.62 L 299.24 164.52 C 300.10 164.52 301.83 164.52 302.69 164.52 C 302.65 163.75 302.56 162.23 302.51 161.47 L 300.69 161.52 L 300.77 162.85 L 300.23 162.76 C 300.51 161.79 300.80 160.83 301.08 159.86 Z" />
<path fill="#ffffff" opacity="1.00" d=" M 185.83 172.44 C 186.98 168.61 187.32 164.57 188.70 160.82 C 189.10 164.24 187.00 167.42 187.84 170.81 C 187.34 171.22 186.34 172.03 185.83 172.44 Z" />
<path fill="#ffffff" opacity="1.00" d=" M 206.88 168.06 C 207.42 165.67 207.02 162.96 208.46 160.85 C 208.88 163.71 208.60 166.60 208.45 169.48 L 210.59 169.39 C 210.05 170.72 209.46 172.03 208.65 173.22 C 213.01 172.48 210.82 179.40 214.46 180.14 C 214.55 180.75 214.73 181.96 214.82 182.57 C 214.42 182.10 213.60 181.16 213.20 180.69 C 209.94 180.76 211.59 176.70 210.82 174.81 C 210.09 176.88 209.41 178.96 208.91 181.10 C 207.85 179.35 207.65 177.33 207.69 175.32 L 205.66 175.61 C 206.26 173.17 208.19 170.56 206.88 168.06 Z" />
<path fill="#ffffff" opacity="1.00" d=" M 232.20 161.19 C 232.81 161.79 232.81 161.79 232.20 161.19 Z" />
<path fill="#ffffff" opacity="1.00" d=" M 203.19 171.86 C 203.87 168.79 204.40 165.66 205.50 162.71 C 205.71 165.46 205.66 168.23 206.09 170.96 C 206.35 172.50 206.43 174.57 204.51 175.04 C 204.45 175.72 204.33 177.09 204.27 177.78 C 203.66 177.72 202.43 177.61 201.81 177.55 C 202.42 175.73 206.28 173.28 203.19 171.86 Z" />
<path fill="#ffffff" opacity="1.00" d=" M 251.57 163.22 C 252.65 163.42 253.73 163.63 254.81 163.84 C 254.15 165.67 253.38 167.45 252.72 169.29 L 251.45 168.01 C 251.19 168.35 250.66 169.05 250.39 169.40 L 249.62 168.18 L 248.20 169.13 L 248.57 165.14 C 249.24 165.87 250.58 167.33 251.25 168.06 C 251.00 167.17 250.49 165.38 250.24 164.49 L 251.55 164.69 L 251.57 163.22 Z" />
<path fill="#ffffff" opacity="1.00" d=" M 270.05 164.15 C 271.76 165.27 273.35 166.57 275.16 167.54 C 274.89 166.65 274.33 164.86 274.05 163.97 C 274.96 165.00 276.62 165.98 275.37 167.52 C 275.53 168.18 275.85 169.50 276.01 170.16 C 274.59 169.17 273.23 168.12 271.79 167.17 C 271.15 166.21 267.97 165.36 270.05 164.15 Z" />
<path fill="#ffffff" opacity="1.00" d=" M 230.22 165.04 C 231.27 165.46 231.35 166.85 231.92 167.72 L 233.07 164.58 C 232.93 167.40 232.02 170.54 229.65 172.31 L 231.18 167.07 C 230.10 168.37 229.09 169.72 228.16 171.13 C 228.64 169.15 227.51 165.84 230.22 165.04 Z" />
<path fill="#ffffff" opacity="1.00" d=" M 276.57 165.14 C 278.71 165.07 281.46 165.84 280.58 168.59 C 278.50 169.00 277.67 166.43 276.57 165.14 Z" />
<path fill="#ffffff" opacity="1.00" d=" M 246.98 166.71 C 250.19 166.77 245.69 169.94 246.98 166.71 Z" />
<path fill="#ffffff" opacity="1.00" d=" M 255.19 168.17 C 256.60 168.42 257.43 169.84 258.59 170.57 C 258.10 171.93 257.62 173.29 257.08 174.63 C 257.51 176.37 258.04 178.09 258.66 179.78 C 258.12 179.66 257.05 179.42 256.51 179.29 C 256.79 180.03 257.37 181.50 257.65 182.24 C 255.71 181.72 255.44 179.54 254.68 177.99 C 253.63 175.74 252.20 173.69 251.00 171.52 C 251.68 171.45 253.05 171.31 253.73 171.24 C 254.32 171.92 255.51 173.29 256.11 173.98 C 255.93 172.03 254.87 170.14 255.19 168.17 M 256.24 178.17 C 256.85 178.78 256.85 178.78 256.24 178.17 Z" />
<path fill="#ffffff" opacity="1.00" d=" M 268.95 168.58 C 269.54 169.24 270.72 170.57 271.31 171.24 C 271.66 170.18 272.03 169.13 272.41 168.08 C 272.89 168.62 273.86 169.71 274.35 170.26 C 273.14 170.92 271.92 171.54 270.70 172.19 C 270.06 171.01 269.47 169.81 268.95 168.58 Z" />
<path fill="#ffffff" opacity="1.00" d=" M 243.12 170.35 C 244.66 170.42 243.85 172.79 242.70 172.89 C 241.05 172.86 241.93 170.44 243.12 170.35 Z" />
<path fill="#ffffff" opacity="1.00" d=" M 248.36 173.76 C 247.30 173.20 247.61 172.18 247.69 171.27 C 248.28 172.88 249.57 173.59 251.23 173.68 C 252.41 176.63 253.84 179.48 254.86 182.50 C 252.91 180.93 252.45 178.32 251.51 176.14 C 247.91 176.85 250.22 181.11 249.61 183.66 C 249.05 183.69 247.95 183.75 247.40 183.79 C 247.80 181.32 247.47 178.83 247.18 176.37 C 247.84 176.45 249.16 176.61 249.82 176.69 C 249.46 175.96 248.73 174.49 248.36 173.76 Z" />
<path fill="#ffffff" opacity="1.00" d=" M 282.06 172.57 C 281.32 171.79 280.67 170.94 280.13 170.02 L 282.82 171.22 C 283.51 172.18 284.18 173.16 284.83 174.16 L 282.56 173.70 C 284.19 175.01 284.74 176.70 283.78 178.67 C 282.42 178.05 281.17 177.26 280.69 175.75 C 279.06 176.01 277.44 176.31 275.83 176.65 C 276.54 177.36 277.26 178.06 277.98 178.77 C 277.63 179.27 276.93 180.26 276.58 180.75 C 276.83 183.70 276.09 186.79 274.68 189.39 C 274.43 186.32 273.78 183.04 275.78 180.33 C 274.77 180.30 273.76 180.38 272.76 180.46 C 276.11 178.89 273.25 175.43 274.95 173.14 C 276.05 171.14 278.65 171.66 280.51 171.23 C 280.42 171.60 280.24 172.34 280.15 172.71 L 282.06 172.57 Z" />
<path fill="#ffffff" opacity="1.00" d=" M 244.00 178.77 C 245.86 176.65 244.00 174.51 244.49 172.12 L 246.73 173.14 L 245.17 173.96 C 246.41 175.19 246.94 176.76 246.76 178.68 C 246.07 178.70 244.69 178.75 244.00 178.77 Z" />
<path fill="#ffffff" opacity="1.00" d=" M 261.85 179.86 C 260.60 177.77 259.90 174.75 262.07 173.00 C 262.01 175.68 262.75 178.17 264.70 180.11 C 264.58 178.75 264.34 176.03 264.22 174.67 C 265.29 176.35 266.06 178.19 266.78 180.05 C 266.00 180.61 265.24 181.18 264.51 181.79 C 264.80 183.16 265.05 184.55 265.26 185.95 C 264.45 188.52 262.83 191.04 263.30 193.82 C 263.44 199.42 267.41 203.80 269.35 208.82 C 270.42 208.81 271.90 209.27 272.47 208.00 C 272.90 205.22 271.24 202.74 270.78 200.10 L 272.94 202.14 C 272.67 201.00 272.35 199.88 272.17 198.73 C 272.66 198.67 273.64 198.56 274.13 198.51 C 274.01 199.96 273.88 201.42 273.73 202.87 C 274.28 204.49 274.49 206.19 274.73 207.88 C 275.50 211.99 277.75 215.57 279.40 219.35 C 277.26 217.86 274.86 216.18 274.48 213.40 C 271.92 214.82 271.88 210.54 270.67 209.36 C 270.14 209.42 269.10 209.55 268.58 209.61 C 268.10 208.60 267.63 207.59 267.14 206.59 C 266.11 206.04 265.43 205.22 265.08 204.15 C 262.78 198.42 262.44 192.22 261.68 186.17 C 262.42 185.17 263.14 184.15 263.85 183.13 C 263.17 182.05 262.50 180.96 261.85 179.86 M 273.15 210.17 L 272.57 210.58 L 272.90 211.45 L 273.81 211.64 L 274.31 210.91 C 274.02 210.72 273.44 210.36 273.15 210.17 Z" />
<path fill="#ffffff" opacity="1.00" d=" M 185.19 183.10 C 185.92 181.19 186.53 179.10 188.14 177.70 C 187.62 179.30 186.95 180.83 186.11 182.28 C 187.05 182.84 188.00 183.38 188.97 183.89 L 187.00 185.82 C 187.77 185.62 189.33 185.21 190.11 185.01 C 190.18 186.25 190.28 187.49 190.41 188.73 L 189.47 188.49 C 189.32 189.16 189.02 190.49 188.88 191.15 L 188.19 190.84 L 187.62 189.66 C 187.03 190.42 185.85 191.93 185.25 192.69 C 185.94 189.64 186.52 186.05 185.19 183.10 M 187.41 186.28 C 185.77 189.19 190.75 186.50 187.41 186.28 Z" />
<path fill="#ffffff" opacity="1.00" d=" M 219.94 179.75 C 221.75 182.40 223.46 185.24 224.15 188.41 C 224.46 192.10 228.77 193.88 228.71 197.75 L 229.63 197.42 C 229.51 198.26 229.27 199.92 229.15 200.76 C 229.97 200.65 231.63 200.45 232.46 200.34 C 232.15 201.22 233.97 204.82 232.04 203.83 C 231.26 203.01 229.70 201.39 228.92 200.58 C 230.03 203.37 231.06 206.33 230.12 209.33 C 228.54 205.82 228.62 201.90 228.59 198.14 L 227.08 198.72 C 227.24 198.29 227.56 197.43 227.72 197.00 C 225.26 194.70 224.40 191.25 223.16 188.22 C 221.92 185.47 220.46 182.76 219.94 179.75 Z" />
<path fill="#ffffff" opacity="1.00" d=" M 207.32 181.04 C 207.87 181.08 208.96 181.15 209.50 181.18 C 209.66 184.80 209.39 188.44 208.22 191.89 C 207.18 190.40 206.14 188.91 204.97 187.52 L 206.51 187.43 C 206.46 186.73 206.36 185.35 206.31 184.65 L 207.46 184.71 C 207.42 183.79 207.36 181.96 207.32 181.04 Z" />
<path fill="#ffffff" opacity="1.00" d=" M 245.35 181.25 C 248.71 181.22 243.94 184.29 245.35 181.25 Z" />
<path fill="#ffffff" opacity="1.00" d=" M 269.13 190.32 C 269.74 187.60 269.05 184.54 270.93 182.23 C 271.29 183.13 271.66 184.04 272.04 184.95 C 270.65 187.88 272.77 191.79 269.53 193.94 C 269.85 192.77 270.21 191.60 270.59 190.44 C 270.23 190.41 269.50 190.35 269.13 190.32 Z" />
<path fill="#ffffff" opacity="1.00" d=" M 211.10 189.60 C 210.01 188.34 209.68 185.38 211.10 184.33 C 211.81 185.72 212.28 188.44 211.10 189.60 Z" />
<path fill="#ffffff" opacity="1.00" d=" M 191.75 190.37 C 190.97 189.03 192.12 186.46 193.68 186.53 C 194.01 187.78 193.42 190.74 191.75 190.37 Z" />
<path fill="#ffffff" opacity="1.00" d=" M 278.24 187.00 C 278.82 185.57 279.40 185.74 279.98 187.53 C 280.57 187.41 281.75 187.17 282.34 187.05 C 282.05 187.93 281.47 189.69 281.18 190.57 C 281.90 189.99 283.34 188.85 284.06 188.28 C 284.48 188.58 285.32 189.19 285.74 189.49 C 287.28 189.36 288.82 189.26 290.37 189.19 L 290.44 188.73 C 291.11 188.40 292.44 187.75 293.11 187.43 C 293.11 189.75 292.13 191.74 290.23 193.07 C 290.32 191.78 290.40 190.49 290.49 189.20 C 289.14 191.15 288.97 193.58 288.14 195.74 C 287.46 194.95 286.84 194.13 286.24 193.29 C 284.91 194.22 282.98 195.46 282.21 193.16 C 282.34 192.62 282.61 191.54 282.74 191.01 C 282.30 191.46 281.41 192.36 280.97 192.81 C 279.91 191.43 278.80 189.99 276.82 190.10 C 277.42 189.08 279.88 188.58 278.24 187.00 Z" />
<path fill="#ffffff" opacity="1.00" d=" M 291.93 195.07 C 293.95 192.67 294.38 189.18 296.95 187.30 C 296.77 188.63 296.88 189.92 297.28 191.20 C 295.83 192.91 294.38 194.89 291.93 195.07 Z" />
<path fill="#ffffff" opacity="1.00" d=" M 190.65 189.78 C 191.11 190.24 192.03 191.16 192.50 191.63 C 192.39 193.40 192.35 195.18 192.32 196.97 C 191.96 197.37 191.25 198.17 190.89 198.57 C 190.08 198.65 188.45 198.81 187.64 198.89 C 188.19 196.94 187.08 193.89 188.97 192.68 C 189.57 194.07 189.89 195.53 189.95 197.05 C 190.31 194.64 190.58 192.22 190.65 189.78 Z" />
<path fill="#ffffff" opacity="1.00" d=" M 209.50 190.78 L 211.59 189.82 C 211.52 190.84 211.36 192.87 211.28 193.89 L 211.71 193.93 C 211.81 193.31 212.02 192.09 212.12 191.48 C 213.38 193.51 214.51 195.63 215.42 197.84 C 215.29 198.01 215.04 198.35 214.91 198.52 C 213.24 195.66 208.34 194.85 209.50 190.78 Z" />
<path fill="#ffffff" opacity="1.00" d=" M 237.19 190.64 C 238.18 192.11 239.01 193.68 239.86 195.23 C 240.75 196.19 241.53 197.23 242.20 198.36 C 241.37 197.79 239.72 196.65 238.90 196.09 C 239.18 197.11 239.76 199.16 240.04 200.19 C 238.75 199.07 238.21 197.54 238.39 195.84 C 237.72 194.18 237.39 192.41 237.19 190.64 Z" />
<path fill="#ffffff" opacity="1.00" d=" M 193.36 194.10 L 193.84 194.08 C 193.80 195.85 195.60 198.52 192.84 199.24 C 193.48 199.38 194.76 199.65 195.40 199.79 C 195.69 202.26 195.77 204.75 195.63 207.24 C 194.59 204.84 194.57 202.19 194.45 199.62 C 193.83 200.17 192.60 201.25 191.98 201.80 C 192.26 200.13 192.45 198.41 193.30 196.91 C 193.32 196.21 193.35 194.80 193.36 194.10 Z" />
<path fill="#ffffff" opacity="1.00" d=" M 203.41 194.13 C 203.89 194.25 204.86 194.48 205.34 194.59 L 206.02 194.97 C 206.33 195.12 206.94 195.41 207.25 195.55 C 208.45 198.93 209.39 202.41 210.72 205.75 L 208.11 205.73 C 208.00 204.06 207.54 202.51 206.72 201.09 C 206.38 199.45 206.14 197.77 205.60 196.18 C 204.77 203.62 208.96 210.33 209.89 217.55 C 208.37 215.50 207.40 213.12 206.15 210.91 C 205.83 210.74 205.18 210.41 204.86 210.24 C 204.34 204.87 203.45 199.54 203.41 194.13 Z" />
<path fill="#ffffff" opacity="1.00" d=" M 219.97 197.02 C 220.02 195.90 220.07 194.79 220.13 193.67 L 220.96 195.61 C 221.15 195.65 221.55 195.74 221.74 195.78 L 222.19 195.50 C 223.89 196.07 224.23 198.36 225.20 199.72 C 224.67 199.39 223.61 198.73 223.08 198.40 L 223.35 197.49 C 223.04 197.40 222.44 197.21 222.13 197.12 C 222.12 197.46 222.09 198.15 222.08 198.50 L 223.08 198.40 C 223.01 199.35 222.86 201.24 222.78 202.18 L 222.21 202.13 C 221.22 200.55 220.70 198.73 219.97 197.02 Z" />
<path fill="#ffffff" opacity="1.00" d=" M 217.30 196.00 C 217.72 196.25 218.57 196.73 219.00 196.97 C 219.73 198.66 221.50 200.38 220.10 202.24 C 217.58 201.53 218.44 197.96 217.30 196.00 Z" />
<path fill="#ffffff" opacity="1.00" d=" M 251.53 196.67 L 251.65 193.89 C 252.94 196.08 252.64 198.68 253.08 201.08 C 253.31 203.85 254.60 206.39 254.89 209.15 C 252.66 206.28 251.46 202.74 250.57 199.26 C 250.13 198.86 249.24 198.05 248.80 197.64 L 250.69 197.42 L 250.42 196.41 L 251.53 196.67 Z" />
<path fill="#ffffff" opacity="1.00" d=" M 276.01 195.79 C 278.24 196.77 280.51 197.85 281.99 199.88 C 281.74 199.47 281.25 198.66 281.01 198.25 L 283.95 197.39 L 282.95 199.71 C 285.16 197.86 288.03 197.67 290.74 197.13 C 291.25 197.37 292.26 197.84 292.77 198.07 C 293.39 197.66 294.63 196.83 295.25 196.41 C 295.63 197.31 296.01 198.22 296.38 199.13 C 295.78 200.30 295.45 201.54 295.40 202.87 C 294.98 201.56 294.54 200.26 294.08 198.97 C 293.52 199.77 292.39 201.37 291.82 202.17 C 289.91 201.56 287.81 197.94 286.07 200.62 C 285.55 200.64 284.51 200.69 283.99 200.72 C 283.53 201.26 282.63 202.34 282.18 202.89 C 279.77 200.85 277.79 198.38 276.01 195.79 Z" />
<path fill="#ffffff" opacity="1.00" d=" M 284.18 196.16 C 287.24 194.80 284.71 199.16 284.18 196.16 Z" />
<path fill="#ffffff" opacity="1.00" d=" M 276.04 200.14 C 277.37 200.52 277.71 201.38 277.06 202.70 C 275.76 202.33 275.42 201.48 276.04 200.14 Z" />
<path fill="#ffffff" opacity="1.00" d=" M 219.84 203.73 C 220.82 202.73 221.61 202.92 222.20 204.30 C 221.23 205.20 220.44 205.01 219.84 203.73 Z" />
<path fill="#ffffff" opacity="1.00" d=" M 223.15 203.18 C 224.94 204.29 225.66 206.69 227.10 208.24 C 226.33 208.72 224.66 209.05 225.38 210.35 L 225.58 211.16 C 223.70 211.62 221.64 210.05 221.90 207.98 C 221.26 209.04 220.63 210.10 220.00 211.16 C 221.55 211.26 222.40 212.51 223.39 213.47 C 223.35 214.10 223.26 215.36 223.21 215.99 C 221.18 213.92 219.35 211.66 217.23 209.68 L 218.21 209.99 C 218.63 209.13 219.06 208.27 219.49 207.41 L 218.29 208.08 C 217.35 206.59 216.40 205.12 215.62 203.55 C 217.11 204.32 218.26 205.53 219.11 206.97 C 220.79 205.39 222.31 207.41 223.43 208.63 C 223.76 208.48 224.41 208.18 224.73 208.03 C 224.28 206.46 221.85 204.94 223.15 203.18 Z" />
<path fill="#ffffff" opacity="1.00" d=" M 291.12 206.69 C 291.42 205.30 291.72 203.91 292.10 202.55 L 292.43 204.33 C 292.94 204.58 293.95 205.08 294.45 205.33 C 291.82 204.90 291.33 206.91 291.04 208.96 C 290.43 209.66 289.82 210.37 289.22 211.07 C 289.00 209.58 288.79 208.09 288.54 206.61 C 289.19 206.63 290.47 206.67 291.12 206.69 Z" />
<path fill="#ffffff" opacity="1.00" d=" M 286.58 208.01 C 287.27 209.38 287.51 210.90 287.78 212.40 L 286.54 212.08 C 287.11 216.71 283.15 211.38 286.35 210.97 C 286.41 210.23 286.53 208.75 286.58 208.01 Z" />
<path fill="#ffffff" opacity="1.00" d=" M 209.81 208.87 L 211.16 212.08 C 211.57 211.10 212.00 210.12 212.43 209.14 L 212.56 211.39 C 214.50 213.16 215.79 215.48 217.12 217.71 L 215.88 216.31 C 215.32 217.10 214.79 217.92 214.23 218.71 C 211.79 215.98 210.24 212.50 209.81 208.87 M 212.99 213.98 L 212.62 214.93 C 213.46 217.31 215.24 213.65 212.99 213.98 C 214.44 211.05 209.53 212.96 212.99 213.98 Z" />
<path fill="#ffffff" opacity="1.00" d=" M 258.22 210.77 C 259.11 211.48 259.67 212.40 259.91 213.53 C 260.22 213.51 260.83 213.49 261.13 213.47 C 261.46 214.47 261.81 215.46 262.18 216.45 C 263.02 217.85 263.91 219.22 264.83 220.59 C 264.69 220.96 264.41 221.71 264.27 222.09 C 262.27 220.06 262.60 215.46 259.38 215.24 C 258.92 213.77 258.47 212.29 258.22 210.77 Z" />
<path fill="#ffffff" opacity="1.00" d=" M 282.91 216.35 C 286.45 216.25 281.41 219.35 282.91 216.35 Z" />
<path fill="#ffffff" opacity="1.00" d=" M 266.32 218.33 C 268.88 219.71 269.67 224.45 273.04 223.37 L 272.13 224.28 C 274.75 224.60 275.82 227.46 277.19 229.35 C 275.69 228.48 274.36 227.38 272.99 226.34 C 272.90 226.65 272.73 227.28 272.64 227.60 C 270.70 224.39 268.03 221.67 266.32 218.33 Z" />
<path fill="#ffffff" opacity="1.00" d=" M 280.42 218.44 C 280.94 218.34 281.99 218.12 282.51 218.01 C 282.45 218.45 282.32 219.32 282.25 219.76 L 284.95 219.12 C 284.45 219.62 283.47 220.61 282.97 221.11 C 283.69 221.54 285.12 222.40 285.83 222.82 C 285.14 223.66 284.39 224.49 284.22 225.61 C 286.76 224.58 288.52 226.64 288.78 229.04 C 290.29 230.49 291.73 232.02 292.93 233.75 C 289.81 233.27 286.61 232.57 284.44 230.08 C 284.42 230.64 284.37 231.76 284.35 232.32 C 281.55 229.88 278.67 227.52 276.02 224.92 C 276.27 224.44 276.77 223.49 277.01 223.01 C 276.52 222.29 275.94 221.67 275.28 221.17 C 275.06 221.63 274.63 222.55 274.41 223.01 C 274.03 222.13 273.65 221.25 273.26 220.38 C 273.68 220.28 274.52 220.08 274.94 219.98 C 277.51 219.90 280.41 220.84 282.15 222.79 C 281.72 221.70 280.85 219.53 280.42 218.44 Z" />
</g>
</svg>
