<?xml version="1.0" encoding="UTF-8" ?>
<!DOCTYPE svg PUBLIC "-//W3C//DTD SVG 1.1//EN" "http://www.w3.org/Graphics/SVG/1.1/DTD/svg11.dtd">
<svg width="512pt" height="256pt" viewBox="0 0 512 256" version="1.1" xmlns="http://www.w3.org/2000/svg">
<g id="#ffffffff">
<path fill="#ffffff" opacity="1.00" d=" M 222.00 20.77 C 222.87 19.15 224.03 17.63 225.73 16.82 C 226.00 17.31 226.52 18.30 226.78 18.80 C 227.25 18.44 228.18 17.72 228.64 17.36 C 228.79 17.67 229.09 18.30 229.24 18.61 C 228.21 19.03 227.19 19.46 226.17 19.89 L 226.28 18.61 C 224.86 19.37 223.46 20.13 222.00 20.77 Z" />
<path fill="#ffffff" opacity="1.00" d=" M 295.58 19.81 C 295.86 18.51 297.52 17.47 298.82 17.58 C 299.37 19.15 296.94 20.65 295.58 19.81 Z" />
<path fill="#ffffff" opacity="1.00" d=" M 217.61 19.27 C 219.04 19.39 221.02 18.91 221.31 20.86 L 220.27 19.52 C 218.93 20.74 217.55 21.98 215.61 22.02 C 215.46 22.44 215.16 23.28 215.01 23.70 C 213.45 24.58 211.94 25.55 210.44 26.51 C 210.43 25.60 210.41 24.68 210.40 23.77 C 212.10 22.65 213.80 21.39 215.91 21.23 C 216.33 20.74 217.18 19.76 217.61 19.27 Z" />
<path fill="#ffffff" opacity="1.00" d=" M 298.20 19.86 C 298.60 19.93 299.40 20.08 299.80 20.15 C 299.00 21.26 298.20 22.37 297.44 23.50 C 298.41 24.96 300.14 26.51 297.69 27.90 C 297.39 27.16 296.81 25.67 296.52 24.93 C 294.72 26.96 292.87 29.01 290.42 30.28 L 290.78 28.02 C 288.76 27.47 286.73 27.95 284.79 28.54 C 286.57 28.60 288.35 28.62 290.14 28.59 C 289.21 29.79 288.28 30.98 287.35 32.18 C 285.23 32.94 283.43 34.17 281.94 35.87 C 283.09 35.51 285.39 34.80 286.54 34.45 L 286.35 35.81 C 287.64 35.24 288.94 34.69 290.25 34.16 C 292.50 33.17 294.73 32.13 297.04 31.28 C 296.78 34.24 293.17 34.57 291.15 36.00 C 289.91 37.17 288.65 38.33 287.31 39.39 C 288.03 41.28 284.88 40.91 283.90 41.75 C 285.02 42.21 286.14 42.67 287.26 43.14 C 285.40 44.24 283.28 44.64 281.17 44.88 L 281.58 42.80 C 280.30 43.39 279.04 44.00 277.79 44.64 C 277.34 43.99 276.90 43.33 276.47 42.67 L 278.38 42.18 L 279.30 42.28 C 279.44 41.98 279.72 41.39 279.86 41.10 L 279.44 40.64 C 279.17 41.02 278.65 41.79 278.38 42.18 C 276.57 42.46 274.78 42.45 273.32 41.23 C 272.83 41.50 271.84 42.04 271.35 42.30 C 271.65 42.94 271.96 43.56 272.30 44.18 C 269.96 45.41 267.44 46.67 265.01 45.00 C 264.11 46.02 263.17 47.00 262.16 47.93 C 264.28 43.69 267.44 40.09 270.20 36.26 C 271.21 35.26 272.15 34.20 273.08 33.12 C 274.26 33.49 275.45 33.83 276.65 34.16 L 274.97 32.80 C 277.47 32.40 279.93 31.68 281.68 29.76 C 280.90 29.20 280.14 28.64 279.38 28.05 C 283.82 25.80 288.14 23.26 292.39 20.67 C 294.26 20.73 296.14 20.83 298.01 20.98 L 298.20 19.86 M 281.15 40.74 C 282.28 40.47 283.37 40.02 284.49 39.67 C 286.57 38.18 288.92 36.97 290.50 34.88 C 287.31 36.53 283.39 37.99 281.15 40.74 M 278.33 40.20 C 279.41 41.11 280.99 39.34 280.61 38.23 C 279.56 37.59 277.80 39.03 278.33 40.20 M 275.36 40.05 C 275.28 43.41 278.36 38.55 275.36 40.05 M 267.03 42.59 C 266.01 44.65 270.12 44.34 268.65 42.42 C 268.24 42.46 267.43 42.55 267.03 42.59 Z" />
<path fill="#ffffff" opacity="1.00" d=" M 221.68 33.01 C 224.26 30.96 222.75 27.26 224.63 24.78 C 225.55 29.02 222.25 32.80 223.32 37.10 C 224.90 34.45 225.45 31.39 226.26 28.46 C 226.73 28.49 227.67 28.54 228.14 28.57 C 227.64 31.18 227.06 33.77 226.42 36.34 C 225.89 36.64 224.82 37.24 224.29 37.54 L 226.86 36.71 C 226.88 37.75 226.93 39.82 226.95 40.86 C 228.87 39.91 229.19 36.96 231.70 36.98 C 229.16 42.23 226.66 47.84 221.55 51.13 C 222.22 48.34 223.39 45.26 221.57 42.62 C 220.04 40.66 222.17 38.70 222.87 36.87 C 222.32 37.06 221.20 37.46 220.65 37.65 C 220.99 36.10 221.34 34.55 221.68 33.01 M 224.32 45.56 C 225.58 44.87 227.07 42.42 226.83 40.81 C 224.83 40.75 223.76 43.87 224.32 45.56 Z" />
<path fill="#ffffff" opacity="1.00" d=" M 232.95 26.39 C 235.43 26.41 238.08 27.42 238.95 29.94 C 236.48 29.71 234.68 27.98 232.95 26.39 Z" />
<path fill="#ffffff" opacity="1.00" d=" M 206.53 28.07 C 207.94 27.85 208.42 28.42 207.96 29.78 C 206.55 29.99 206.07 29.42 206.53 28.07 Z" />
<path fill="#ffffff" opacity="1.00" d=" M 275.09 31.75 C 275.70 31.27 276.92 30.31 277.53 29.82 C 280.79 29.92 276.15 33.32 275.09 31.75 Z" />
<path fill="#ffffff" opacity="1.00" d=" M 197.96 32.79 C 199.42 32.72 200.95 32.35 202.38 32.91 C 202.15 36.23 199.03 34.59 197.96 32.79 Z" />
<path fill="#ffffff" opacity="1.00" d=" M 205.93 33.82 C 207.71 35.15 208.53 37.26 209.44 39.20 C 208.44 40.09 207.53 41.08 206.64 42.07 C 205.54 40.88 204.51 39.62 203.66 38.24 C 204.15 38.47 205.12 38.91 205.61 39.13 C 205.94 38.07 206.56 37.23 207.47 36.60 C 206.93 35.69 206.42 34.76 205.93 33.82 Z" />
<path fill="#ffffff" opacity="1.00" d=" M 233.39 35.35 C 234.87 34.74 237.10 36.73 237.09 38.20 C 235.52 38.71 232.93 37.11 233.39 35.35 Z" />
<path fill="#ffffff" opacity="1.00" d=" M 292.72 37.21 C 294.02 36.54 295.34 35.89 296.67 35.27 C 296.44 36.50 296.19 37.72 295.97 38.96 C 295.00 39.99 294.03 41.02 293.02 42.01 C 293.50 40.87 294.00 39.74 294.52 38.62 C 294.07 38.27 293.17 37.56 292.72 37.21 Z" />
<path fill="#ffffff" opacity="1.00" d=" M 196.15 35.98 C 197.00 36.86 197.84 37.74 198.68 38.62 C 196.25 44.84 194.76 51.36 193.33 57.87 C 192.44 62.88 190.80 67.77 190.56 72.89 C 190.51 76.61 192.49 80.25 191.26 83.94 C 189.90 83.72 188.74 83.15 187.78 82.22 C 188.07 81.39 188.65 79.72 188.93 78.89 L 187.29 79.55 C 187.74 77.85 188.15 76.14 188.48 74.41 C 187.52 69.77 190.00 65.34 190.05 60.69 C 192.03 54.03 192.72 47.08 194.78 40.43 C 194.81 39.81 194.84 39.20 194.87 38.58 C 195.29 37.71 195.72 36.84 196.15 35.98 Z" />
<path fill="#ffffff" opacity="1.00" d=" M 238.26 37.61 C 238.85 38.80 239.73 39.97 239.65 41.37 C 238.82 41.76 237.15 42.53 236.31 42.91 C 235.04 41.47 233.43 40.17 233.12 38.16 C 235.14 38.76 237.12 39.53 238.87 40.74 C 238.72 39.95 238.42 38.39 238.26 37.61 Z" />
<path fill="#ffffff" opacity="1.00" d=" M 245.25 39.84 C 247.91 41.38 249.91 43.70 251.33 46.40 C 249.51 45.77 247.75 45.00 245.93 44.39 C 246.20 43.89 246.74 42.90 247.01 42.40 L 245.52 42.76 L 245.25 39.84 Z" />
<path fill="#ffffff" opacity="1.00" d=" M 201.70 42.74 C 202.17 42.54 203.10 42.15 203.56 41.95 C 204.96 43.85 206.39 45.73 207.87 47.57 C 207.15 47.43 205.71 47.15 204.99 47.01 C 205.48 47.80 206.45 49.38 206.94 50.16 C 205.31 49.38 203.86 48.29 202.36 47.29 C 202.36 47.91 202.34 49.15 202.34 49.77 C 201.27 48.82 200.20 47.87 199.14 46.93 C 199.92 46.27 200.71 45.62 201.50 44.97 C 201.55 44.41 201.65 43.29 201.70 42.74 Z" />
<path fill="#ffffff" opacity="1.00" d=" M 227.96 46.86 C 227.78 45.21 228.83 42.35 230.68 42.40 C 231.07 44.12 229.52 45.96 228.32 47.08 L 227.96 46.86 Z" />
<path fill="#ffffff" opacity="1.00" d=" M 232.75 40.94 C 233.77 41.68 234.79 42.43 235.80 43.20 C 236.45 43.88 237.10 44.57 237.75 45.25 C 237.57 45.53 237.19 46.09 237.01 46.37 C 238.32 47.97 239.44 49.69 240.55 51.44 C 238.69 50.85 236.84 50.24 234.99 49.63 C 234.71 47.87 234.42 46.11 234.20 44.34 C 233.84 43.49 233.11 41.79 232.75 40.94 Z" />
<path fill="#ffffff" opacity="1.00" d=" M 291.41 46.38 C 292.01 44.28 293.59 42.92 295.78 42.83 C 294.72 44.48 293.69 46.42 291.41 46.38 Z" />
<path fill="#ffffff" opacity="1.00" d=" M 238.44 43.45 C 240.57 43.87 244.57 45.00 243.33 47.98 C 244.06 49.10 245.00 50.06 245.81 51.11 C 242.31 49.98 239.55 46.94 238.44 43.45 Z" />
<path fill="#ffffff" opacity="1.00" d=" M 269.72 47.29 C 270.35 45.63 272.93 43.63 274.79 43.90 C 274.95 45.33 272.86 45.67 272.05 46.49 C 271.47 46.69 270.30 47.09 269.72 47.29 Z" />
<path fill="#ffffff" opacity="1.00" d=" M 279.91 44.88 C 280.42 44.48 280.42 44.48 279.91 44.88 Z" />
<path fill="#ffffff" opacity="1.00" d=" M 281.59 49.62 C 282.46 46.36 286.22 45.77 288.59 43.91 C 287.95 45.13 287.32 46.35 286.75 47.60 C 286.30 47.75 285.40 48.06 284.95 48.22 L 285.59 49.34 C 284.09 50.00 282.60 50.70 281.10 51.36 L 281.68 52.33 C 280.78 52.29 278.97 52.22 278.07 52.19 C 279.20 51.28 280.39 50.44 281.59 49.62 Z" />
<path fill="#ffffff" opacity="1.00" d=" M 279.60 44.16 C 279.68 44.34 279.83 44.70 279.91 44.88 C 279.85 45.38 279.71 46.40 279.65 46.90 C 277.99 47.43 276.48 48.28 274.97 49.12 L 276.83 50.96 C 275.84 50.80 273.86 50.47 272.87 50.30 L 273.09 48.94 C 272.11 49.28 271.12 49.62 270.14 49.95 C 271.66 48.35 273.27 46.82 275.06 45.51 C 276.82 45.94 278.33 45.49 279.60 44.16 Z" />
<path fill="#ffffff" opacity="1.00" d=" M 281.03 46.91 C 281.50 46.48 281.50 46.48 281.03 46.91 Z" />
<path fill="#ffffff" opacity="1.00" d=" M 227.33 46.72 L 227.96 46.86 C 228.04 47.45 228.20 48.62 228.28 49.21 C 229.19 47.59 230.73 47.28 232.47 47.72 C 232.46 49.45 232.97 51.42 232.09 53.01 C 230.16 53.01 228.57 53.67 227.75 55.56 C 229.61 55.29 231.37 54.69 233.01 53.78 C 233.59 54.21 234.17 54.65 234.75 55.10 C 232.86 56.62 231.75 58.74 231.15 61.04 C 232.54 58.90 233.61 55.99 236.56 55.84 C 233.70 55.45 235.07 52.44 234.82 50.50 C 236.67 50.69 241.95 52.58 238.36 54.41 C 236.97 58.64 234.96 62.84 231.63 65.88 C 229.43 64.48 227.00 63.45 224.40 63.09 C 225.08 60.52 226.44 58.25 227.71 55.95 C 227.79 54.22 227.80 52.48 228.07 50.76 C 226.74 52.36 224.70 53.47 224.06 55.56 C 225.13 55.22 226.25 55.13 227.35 55.44 C 224.96 56.68 224.71 59.47 223.77 61.67 C 220.84 60.31 223.10 57.73 224.10 55.85 C 223.28 56.26 221.63 57.10 220.81 57.52 C 221.65 55.83 223.37 54.15 222.06 52.20 C 223.79 50.35 225.42 48.39 227.33 46.72 M 229.91 49.29 C 228.64 52.39 233.26 49.00 229.91 49.29 Z" />
<path fill="#ffffff" opacity="1.00" d=" M 247.11 44.99 C 248.63 46.39 250.70 47.34 251.78 49.16 C 252.47 50.17 252.43 52.06 253.99 52.15 C 254.38 51.97 255.16 51.59 255.55 51.40 C 256.29 51.39 257.77 51.35 258.52 51.33 C 257.25 52.71 255.99 54.09 254.72 55.47 C 255.07 53.47 253.43 53.28 252.18 52.87 C 251.24 52.13 250.29 51.40 249.35 50.67 L 250.15 49.06 C 246.46 51.54 247.93 46.55 247.11 44.99 Z" />
<path fill="#ffffff" opacity="1.00" d=" M 279.65 46.90 C 279.99 46.90 280.69 46.91 281.03 46.91 C 280.51 48.60 278.30 49.84 276.58 49.99 C 276.56 48.50 278.77 47.94 279.65 46.90 Z" />
<path fill="#ffffff" opacity="1.00" d=" M 255.31 48.69 C 256.96 48.22 257.52 48.78 256.98 50.35 C 255.30 50.85 254.74 50.30 255.31 48.69 Z" />
<path fill="#ffffff" opacity="1.00" d=" M 199.72 48.96 C 201.34 50.17 202.93 51.41 204.52 52.66 C 204.41 51.98 204.20 50.61 204.09 49.93 C 206.19 52.28 210.76 52.74 213.12 50.51 C 213.66 50.94 214.20 51.37 214.75 51.79 C 213.86 52.74 212.31 53.84 213.32 55.35 C 212.14 54.55 210.95 53.76 209.84 52.88 C 209.00 53.59 208.18 54.34 207.34 55.05 C 207.89 55.61 209.00 56.73 209.56 57.30 C 206.32 60.02 202.10 57.16 199.63 54.77 L 202.40 54.52 C 201.34 54.08 200.28 53.65 199.21 53.24 C 199.34 52.17 199.59 50.03 199.72 48.96 Z" />
<path fill="#ffffff" opacity="1.00" d=" M 259.74 53.76 C 260.90 52.97 262.07 52.17 263.21 51.33 C 263.77 52.14 264.35 52.94 264.94 53.73 C 262.90 55.39 260.85 57.05 258.70 58.58 C 260.55 59.05 262.17 57.55 263.89 57.09 C 264.15 58.03 264.40 58.96 264.67 59.90 C 263.98 59.72 262.62 59.37 261.93 59.20 C 262.00 60.83 262.74 61.97 264.14 62.61 C 264.65 63.81 265.62 64.69 266.54 65.59 C 267.42 66.59 268.25 67.63 269.07 68.68 C 268.70 68.32 267.96 67.59 267.59 67.23 C 267.02 67.65 265.87 68.50 265.30 68.92 C 264.36 68.36 263.42 67.81 262.47 67.27 L 262.81 66.07 C 262.21 66.29 261.02 66.73 260.42 66.95 L 260.78 65.65 C 259.86 65.18 258.95 64.69 258.06 64.20 C 257.80 64.65 257.29 65.57 257.03 66.03 C 256.04 65.90 254.07 65.64 253.08 65.51 L 253.69 66.85 C 251.80 65.28 249.41 66.55 247.31 66.74 C 248.96 64.79 251.43 63.96 253.65 62.86 C 253.78 63.26 254.05 64.04 254.19 64.43 C 255.56 63.47 256.90 62.14 258.73 62.38 C 259.22 61.95 260.20 61.11 260.69 60.68 L 261.80 62.15 C 261.80 61.30 261.78 59.59 261.78 58.74 C 260.77 59.67 259.76 60.60 258.77 61.55 C 258.13 61.25 256.85 60.67 256.21 60.38 C 256.84 59.20 257.47 58.02 258.06 56.82 L 257.79 56.36 L 257.18 56.04 C 256.68 55.83 255.69 55.39 255.19 55.18 C 256.49 54.06 258.05 53.65 259.74 53.76 M 261.75 54.31 C 261.98 54.71 261.98 54.71 261.75 54.31 Z" />
<path fill="#ffffff" opacity="1.00" d=" M 281.68 52.33 C 282.85 51.59 284.18 50.27 285.66 51.29 C 286.49 51.04 288.16 50.54 288.99 50.30 C 287.70 52.50 285.54 53.84 283.56 55.32 L 283.59 52.92 C 282.90 53.52 280.67 53.32 281.32 54.66 C 281.77 54.99 282.66 55.65 283.11 55.98 C 282.73 57.81 280.44 56.76 279.18 57.11 L 279.43 54.83 C 278.38 55.45 277.34 56.06 276.31 56.68 C 276.37 55.99 276.50 54.63 276.56 53.95 C 278.49 54.16 280.30 53.82 281.68 52.33 Z" />
<path fill="#ffffff" opacity="1.00" d=" M 196.94 54.16 C 197.46 54.28 198.48 54.54 199.00 54.66 C 200.89 57.81 203.35 60.58 205.41 63.62 C 204.67 63.32 203.21 62.72 202.47 62.42 C 202.23 62.50 201.74 62.67 201.49 62.75 C 200.27 61.87 199.02 61.04 197.73 60.26 C 198.56 63.11 205.52 64.37 202.34 67.56 C 199.98 66.56 198.16 64.69 196.13 63.18 C 196.71 61.84 197.40 60.54 197.88 59.16 C 197.27 57.98 196.53 56.87 195.86 55.73 C 197.42 57.01 198.90 58.35 200.48 59.61 C 199.38 57.73 198.23 55.90 196.94 54.16 Z" />
<path fill="#ffffff" opacity="1.00" d=" M 240.48 53.03 C 242.36 53.64 244.23 54.30 246.10 54.98 C 247.66 56.07 249.31 57.02 250.91 58.05 C 250.20 58.76 249.47 59.45 248.73 60.12 C 245.13 60.85 239.93 63.80 237.32 59.76 C 238.85 59.60 240.40 59.48 241.93 59.34 C 241.23 59.15 239.83 58.78 239.13 58.59 C 239.60 56.74 240.05 54.89 240.48 53.03 Z" />
<path fill="#ffffff" opacity="1.00" d=" M 268.53 57.18 C 268.82 56.92 269.40 56.38 269.69 56.11 C 269.61 56.76 269.44 58.06 269.35 58.71 C 270.02 58.17 271.35 57.08 272.01 56.54 L 270.31 60.34 C 271.19 59.75 272.94 58.57 273.82 57.98 C 272.49 60.35 271.32 63.02 268.52 63.90 C 267.98 62.78 267.45 61.65 266.93 60.53 C 267.91 59.65 268.45 58.53 268.53 57.18 Z" />
<path fill="#ffffff" opacity="1.00" d=" M 285.06 57.01 C 285.51 55.12 287.62 57.70 288.44 58.14 C 289.87 58.78 291.45 58.93 292.97 59.32 C 291.92 60.11 290.88 60.91 289.85 61.72 C 289.15 61.41 287.75 60.79 287.05 60.48 C 284.86 61.27 282.65 62.02 280.43 62.71 C 281.83 61.10 282.89 57.22 285.60 58.76 C 285.47 58.32 285.19 57.45 285.06 57.01 Z" />
<path fill="#ffffff" opacity="1.00" d=" M 279.25 59.26 C 279.83 59.81 279.83 59.81 279.25 59.26 Z" />
<path fill="#ffffff" opacity="1.00" d=" M 273.68 62.42 C 275.61 61.66 274.44 64.23 273.37 64.42 C 272.70 64.91 270.45 66.12 270.32 64.62 C 271.09 63.49 272.49 62.99 273.68 62.42 Z" />
<path fill="#ffffff" opacity="1.00" d=" M 285.37 62.10 C 289.12 62.08 283.61 66.47 282.68 64.07 C 283.21 63.00 284.10 62.34 285.37 62.10 Z" />
<path fill="#ffffff" opacity="1.00" d=" M 290.63 61.57 C 292.31 61.94 294.01 62.33 295.71 62.68 C 295.75 63.05 295.84 63.81 295.88 64.19 C 293.70 64.93 291.48 65.56 289.17 65.69 C 289.93 64.41 290.41 63.04 290.63 61.57 Z" />
<path fill="#ffffff" opacity="1.00" d=" M 205.80 62.38 C 209.08 61.81 212.03 63.58 213.98 66.06 C 212.60 65.99 211.27 65.65 209.97 65.22 C 211.26 66.42 212.51 67.66 213.71 68.95 C 213.13 69.03 211.96 69.20 211.37 69.29 C 211.51 70.10 211.79 71.74 211.93 72.55 C 210.00 71.49 208.04 70.48 205.97 69.69 C 205.18 68.58 204.23 67.62 203.12 66.83 C 204.25 65.02 205.74 63.82 207.93 64.78 C 207.40 64.18 206.33 62.98 205.80 62.38 Z" />
<path fill="#ffffff" opacity="1.00" d=" M 234.51 64.18 C 235.64 63.81 236.78 63.44 237.91 63.05 C 239.51 63.24 241.11 63.44 242.71 63.59 C 242.69 64.08 242.63 65.07 242.60 65.56 C 241.88 65.45 240.45 65.25 239.73 65.14 L 239.88 66.87 C 239.20 66.95 237.85 67.11 237.17 67.19 C 235.95 67.61 234.72 67.99 233.50 68.37 C 232.36 68.85 231.34 68.41 230.41 67.76 C 231.86 66.96 233.34 66.22 234.87 65.56 C 234.78 65.21 234.60 64.53 234.51 64.18 Z" />
<path fill="#ffffff" opacity="1.00" d=" M 195.45 63.27 C 199.25 66.63 204.22 68.28 207.61 72.19 C 207.66 72.95 207.76 74.48 207.80 75.24 L 206.44 74.28 C 206.16 74.90 205.61 76.13 205.33 76.75 C 202.95 76.06 200.74 74.34 201.00 71.49 C 202.49 71.83 203.63 74.40 205.40 73.48 C 203.77 72.24 202.14 71.01 200.47 69.84 C 200.48 70.87 200.52 72.93 200.53 73.96 C 199.52 73.20 198.53 72.42 197.56 71.63 C 197.41 71.98 197.11 72.70 196.97 73.06 C 195.34 72.58 193.57 71.75 193.37 69.80 L 195.34 70.18 C 194.95 69.36 194.18 67.71 193.79 66.89 C 195.20 67.74 196.62 68.63 198.04 69.49 C 198.19 69.20 198.49 68.62 198.64 68.34 C 196.66 67.54 192.83 66.30 195.45 63.27 Z" />
<path fill="#ffffff" opacity="1.00" d=" M 214.68 71.00 C 215.86 68.38 217.05 65.75 218.61 63.32 C 219.27 64.49 219.89 65.68 220.47 66.90 C 221.98 65.40 223.35 65.04 223.77 67.46 C 224.96 67.83 226.15 68.21 227.35 68.58 C 225.02 71.75 220.12 73.22 217.39 69.70 C 216.71 70.03 215.36 70.68 214.68 71.00 Z" />
<path fill="#ffffff" opacity="1.00" d=" M 271.21 66.36 C 273.09 65.53 274.98 64.72 276.87 63.90 C 276.27 65.65 275.69 67.41 275.16 69.18 C 273.82 68.25 272.51 67.31 271.21 66.36 Z" />
<path fill="#ffffff" opacity="1.00" d=" M 285.05 65.03 C 286.58 64.15 287.38 66.52 285.66 66.81 C 284.09 67.76 283.32 65.34 285.05 65.03 Z" />
<path fill="#ffffff" opacity="1.00" d=" M 290.53 66.53 C 292.43 66.00 294.35 65.52 296.26 65.00 C 297.13 65.93 297.98 66.87 298.83 67.82 C 295.88 68.27 292.36 70.02 290.53 66.53 Z" />
<path fill="#ffffff" opacity="1.00" d=" M 241.03 68.27 C 241.65 68.94 241.65 68.94 241.03 68.27 Z" />
<path fill="#ffffff" opacity="1.00" d=" M 240.92 71.03 C 242.07 70.07 243.25 69.14 244.44 68.22 C 245.79 70.28 246.85 70.05 247.63 67.52 C 248.97 68.16 249.84 69.16 250.25 70.53 C 250.72 69.64 251.17 68.75 251.63 67.86 C 252.46 68.82 253.29 69.78 254.11 70.76 L 254.54 71.03 L 254.82 70.60 C 254.60 72.12 255.26 72.97 256.80 73.16 C 256.73 71.91 256.07 71.06 254.82 70.60 L 254.36 70.36 L 254.11 70.76 C 254.11 70.02 254.09 68.56 254.09 67.83 C 256.59 69.70 258.01 72.89 261.15 73.89 C 262.27 75.22 263.36 76.63 263.56 78.44 C 262.37 77.57 261.23 76.64 260.10 75.70 L 259.89 77.43 C 257.08 75.35 254.12 73.37 252.02 70.52 C 251.90 71.03 251.66 72.04 251.54 72.55 C 250.18 72.25 248.84 71.89 247.52 71.46 C 245.48 73.13 243.07 71.46 240.92 71.03 Z" />
<path fill="#ffffff" opacity="1.00" d=" M 257.84 68.03 C 260.63 71.00 263.86 73.48 266.81 76.28 C 267.48 75.64 268.19 75.03 268.89 74.41 C 269.82 77.03 272.60 77.64 274.74 78.95 C 274.72 79.33 274.68 80.09 274.66 80.47 C 273.26 79.49 271.94 78.22 270.13 79.13 C 269.18 78.30 268.38 77.34 267.56 76.41 C 267.51 78.01 266.54 78.39 265.30 78.24 C 264.33 73.59 257.64 72.86 257.84 68.03 Z" />
<path fill="#ffffff" opacity="1.00" d=" M 261.36 69.07 C 262.75 68.92 263.30 69.54 262.98 70.92 C 261.61 71.05 261.07 70.44 261.36 69.07 Z" />
<path fill="#ffffff" opacity="1.00" d=" M 277.36 68.15 C 278.70 69.16 280.02 70.23 281.26 71.39 C 280.56 71.73 279.17 72.42 278.47 72.77 C 283.07 75.16 285.87 79.61 288.39 83.94 C 287.45 82.60 280.95 81.30 284.41 79.16 C 282.48 77.65 280.72 75.96 278.99 74.23 C 278.67 72.56 277.34 71.92 275.78 71.63 L 275.90 70.28 C 276.40 70.47 277.40 70.84 277.90 71.03 C 277.77 70.31 277.49 68.87 277.36 68.15 Z" />
<path fill="#ffffff" opacity="1.00" d=" M 297.22 69.42 C 298.22 69.27 300.54 68.27 300.83 69.82 C 299.54 70.88 297.58 70.89 295.98 70.93 C 294.57 70.43 296.61 69.41 297.22 69.42 Z" />
<path fill="#ffffff" opacity="1.00" d=" M 238.02 71.14 C 238.56 69.89 239.32 69.81 240.30 70.89 C 239.71 72.19 238.95 72.27 238.02 71.14 Z" />
<path fill="#ffffff" opacity="1.00" d=" M 209.24 81.14 C 209.38 76.22 213.67 72.22 217.82 70.14 C 216.28 72.59 214.36 74.83 213.31 77.57 C 212.75 79.45 210.72 80.14 209.24 81.14 Z" />
<path fill="#ffffff" opacity="1.00" d=" M 298.66 72.14 C 299.53 71.24 301.82 70.81 302.45 72.18 C 302.58 74.45 298.63 74.11 298.66 72.14 Z" />
<path fill="#ffffff" opacity="1.00" d=" M 234.94 71.74 C 236.52 72.20 238.10 72.73 239.68 73.25 C 241.10 74.13 242.61 74.98 243.96 73.40 C 245.53 74.62 247.08 75.89 248.59 77.20 C 247.29 78.24 245.79 78.82 244.45 77.48 C 242.69 78.76 241.37 76.75 239.97 75.94 L 240.19 77.77 C 238.30 75.90 235.78 74.41 234.94 71.74 Z" />
<path fill="#ffffff" opacity="1.00" d=" M 193.90 72.14 C 194.70 72.96 195.50 73.78 196.30 74.60 C 196.47 74.21 196.80 73.44 196.97 73.06 C 199.58 73.79 202.10 75.66 203.36 78.12 L 201.32 77.96 C 200.53 77.44 198.94 76.42 198.15 75.91 C 199.06 77.43 200.36 78.66 201.57 79.95 C 199.90 80.50 199.42 81.95 199.23 83.55 L 197.89 83.61 C 198.25 84.37 198.96 85.89 199.32 86.64 C 197.80 85.77 196.38 84.75 195.02 83.66 L 197.07 83.38 C 195.97 82.13 194.67 80.97 194.24 79.28 C 194.10 79.28 193.82 79.27 193.67 79.27 C 193.85 76.90 193.88 74.52 193.90 72.14 Z" />
<path fill="#ffffff" opacity="1.00" d=" M 229.63 73.02 C 230.71 73.52 231.81 74.00 232.91 74.47 C 233.13 73.81 233.58 72.48 233.81 71.81 C 234.66 73.00 235.50 74.20 236.32 75.42 L 236.39 76.18 L 236.28 76.79 L 232.85 74.97 C 234.21 76.76 236.61 78.14 236.49 80.71 C 235.15 79.85 233.84 78.95 232.54 78.02 L 232.74 79.32 L 231.97 79.17 C 230.16 78.31 228.67 76.94 227.01 75.84 C 226.81 75.27 226.39 74.13 226.18 73.56 C 228.30 74.61 230.35 75.80 232.46 76.86 C 231.54 75.56 230.55 74.31 229.63 73.02 Z" />
<path fill="#ffffff" opacity="1.00" d=" M 290.41 73.29 C 290.77 73.21 291.50 73.04 291.87 72.96 C 291.70 73.60 291.35 74.88 291.18 75.52 C 291.95 75.34 293.50 74.99 294.27 74.81 C 294.43 76.37 294.61 77.94 294.79 79.50 C 295.63 79.67 297.31 80.01 298.15 80.18 C 297.09 80.65 296.03 81.10 294.97 81.55 C 294.71 80.66 294.46 79.77 294.22 78.87 C 293.52 78.89 292.11 78.91 291.41 78.92 C 291.70 78.46 292.29 77.54 292.59 77.08 C 292.07 77.07 291.03 77.05 290.51 77.04 C 290.51 75.79 290.47 74.54 290.41 73.29 Z" />
<path fill="#ffffff" opacity="1.00" d=" M 217.40 79.86 C 219.71 78.03 220.84 74.08 224.15 73.97 C 225.57 76.34 228.16 77.58 230.23 79.28 C 229.73 80.44 229.25 81.59 228.78 82.76 C 226.78 83.77 225.15 85.34 223.25 86.50 L 222.77 86.28 L 222.80 85.39 L 223.95 84.57 L 224.01 84.00 L 224.80 84.00 L 225.23 82.42 L 225.72 82.64 L 226.00 82.28 L 225.60 82.07 L 225.23 82.42 C 223.00 84.14 220.98 86.82 217.89 86.72 C 215.76 88.26 213.81 90.01 211.68 91.54 C 210.02 89.18 207.49 92.25 205.43 92.61 C 204.96 93.26 204.50 93.91 204.03 94.56 L 204.18 94.42 C 206.31 93.15 208.79 92.79 211.23 92.70 C 209.72 94.21 207.88 95.28 206.00 96.23 L 207.07 97.54 C 202.83 96.78 200.54 100.57 197.92 103.09 C 195.04 106.44 191.49 109.10 188.10 111.90 C 187.74 111.70 187.02 111.30 186.66 111.10 C 185.66 112.17 184.55 113.16 183.02 113.25 C 184.52 111.05 186.40 109.16 188.63 107.69 L 188.27 110.33 C 188.76 109.44 189.24 108.54 189.70 107.63 C 190.73 107.04 191.76 106.45 192.80 105.87 C 193.75 104.97 194.64 104.02 195.43 102.97 C 194.15 103.15 192.88 103.36 191.61 103.58 C 194.75 100.10 198.73 97.55 202.25 94.48 C 202.80 90.76 206.71 89.56 209.33 87.57 C 209.73 87.83 210.52 88.35 210.92 88.61 C 213.07 86.96 215.72 86.28 218.36 85.88 C 219.38 84.44 220.37 82.98 221.40 81.54 C 222.76 81.37 224.14 81.19 225.51 80.99 C 223.97 80.66 222.60 79.96 221.33 79.08 C 222.64 77.92 223.93 76.73 225.19 75.51 C 222.14 75.54 221.49 78.41 220.36 80.53 C 219.36 82.81 218.31 80.48 217.40 79.86 M 202.23 96.17 C 202.73 96.77 202.73 96.77 202.23 96.17 Z" />
<path fill="#ffffff" opacity="1.00" d=" M 248.36 73.74 C 252.41 74.28 256.13 76.28 258.23 79.87 C 254.96 77.84 249.63 77.96 248.36 73.74 Z" />
<path fill="#ffffff" opacity="1.00" d=" M 182.71 74.60 C 183.43 75.14 184.14 75.68 184.85 76.24 C 184.06 77.78 184.31 79.50 184.27 81.16 C 181.61 81.80 178.98 80.61 176.44 80.00 C 176.34 78.62 176.03 77.28 175.59 75.97 C 177.62 78.33 180.45 79.44 183.55 79.35 C 182.40 78.51 181.23 77.68 180.06 76.88 C 180.98 76.83 182.83 76.74 183.75 76.69 L 182.71 74.60 Z" />
<path fill="#ffffff" opacity="1.00" d=" M 300.79 74.36 C 301.93 74.49 304.22 74.75 305.37 74.88 C 305.69 76.17 306.01 77.46 306.32 78.76 C 307.65 79.79 308.98 80.81 310.34 81.79 C 310.36 82.71 310.39 83.63 310.42 84.55 C 309.39 84.11 308.35 83.67 307.32 83.24 C 307.55 82.59 307.78 81.94 308.02 81.29 C 305.58 79.01 303.24 76.63 300.79 74.36 Z" />
<path fill="#ffffff" opacity="1.00" d=" M 236.39 76.18 C 236.48 76.29 236.68 76.51 236.78 76.62 C 236.68 76.51 236.48 76.29 236.39 76.18 Z" />
<path fill="#ffffff" opacity="1.00" d=" M 236.78 76.62 L 237.34 76.39 C 237.65 76.92 238.28 77.97 238.59 78.50 C 237.18 78.62 236.58 78.00 236.78 76.62 Z" />
<path fill="#ffffff" opacity="1.00" d=" M 280.13 78.34 L 281.05 77.95 C 283.58 78.52 279.90 80.45 280.13 78.34 Z" />
<path fill="#ffffff" opacity="1.00" d=" M 238.14 80.24 C 240.10 80.19 242.05 79.94 244.02 79.94 C 246.00 80.27 247.44 81.81 249.07 82.87 C 248.21 81.86 247.34 80.85 246.49 79.85 C 247.33 79.87 249.02 79.93 249.87 79.96 C 250.20 80.37 250.86 81.20 251.19 81.62 C 253.75 79.37 256.54 82.51 259.29 82.73 C 261.81 83.04 263.88 84.61 265.64 86.34 C 265.80 86.08 266.11 85.57 266.27 85.31 C 267.59 86.41 268.95 87.48 270.30 88.56 C 269.46 89.26 269.00 90.93 267.67 90.64 C 266.65 89.52 265.76 88.30 264.83 87.12 L 264.26 88.89 C 261.50 87.10 259.39 84.58 256.98 82.41 C 257.78 83.99 258.60 85.56 259.44 87.13 C 257.42 86.11 255.37 85.16 253.36 84.14 C 252.00 84.32 250.64 84.53 249.34 84.98 C 248.83 84.70 247.81 84.15 247.30 83.88 C 247.45 84.57 247.76 85.97 247.91 86.66 C 244.58 85.32 241.51 83.50 238.45 81.67 L 238.14 80.24 Z" />
<path fill="#ffffff" opacity="1.00" d=" M 278.95 79.46 C 284.60 81.24 287.07 87.26 289.97 91.89 L 288.09 91.13 L 287.24 89.93 C 286.69 90.46 286.14 91.00 285.59 91.52 C 284.84 90.78 284.10 90.03 283.36 89.28 L 284.46 88.88 L 285.20 90.75 C 285.69 89.95 286.35 88.49 285.00 88.09 C 283.43 87.24 282.19 85.95 281.03 84.63 C 282.42 84.98 283.83 85.31 285.24 85.61 C 283.54 83.20 279.74 82.47 278.95 79.46 Z" />
<path fill="#ffffff" opacity="1.00" d=" M 206.17 83.32 C 209.71 84.12 213.08 83.03 215.27 80.09 C 215.97 81.09 216.72 82.06 217.47 83.02 C 215.92 84.00 214.41 85.04 212.89 86.06 C 212.12 85.71 211.36 85.36 210.60 85.02 C 208.29 86.69 205.82 88.11 203.35 89.53 C 200.91 91.55 199.22 94.55 196.15 95.76 L 196.99 96.54 C 195.40 97.77 193.85 99.04 192.33 100.35 C 190.51 102.80 188.54 105.14 186.46 107.37 L 186.46 105.37 C 185.17 106.70 183.48 107.87 183.31 109.90 L 182.82 109.56 C 181.78 111.31 180.61 112.98 179.50 114.69 L 182.36 112.84 C 180.92 116.54 178.67 119.81 176.31 122.96 C 175.33 121.45 175.03 119.77 175.80 118.03 C 172.28 120.44 169.67 123.88 166.23 126.33 C 166.72 127.13 167.16 127.95 167.68 128.74 C 167.54 128.26 167.28 127.30 167.15 126.82 C 168.88 126.00 170.58 125.04 172.44 124.50 C 174.53 124.43 176.64 124.64 178.71 124.18 C 176.01 126.61 173.96 129.82 170.23 130.85 C 170.50 130.27 171.05 129.10 171.32 128.52 C 172.38 127.70 173.38 126.80 174.22 125.74 C 171.11 127.38 168.86 130.29 165.56 131.65 C 167.05 131.49 169.25 130.56 169.17 132.94 C 166.94 133.41 165.17 134.91 163.11 135.79 C 163.68 135.26 164.80 134.21 165.37 133.69 C 164.57 133.22 163.76 132.78 162.95 132.34 C 163.31 130.97 163.67 129.59 163.93 128.20 C 164.45 128.17 165.50 128.11 166.03 128.08 C 165.53 127.59 164.55 126.60 164.06 126.11 C 165.04 125.69 166.03 125.26 167.01 124.84 C 166.54 124.30 165.61 123.21 165.14 122.66 C 168.10 119.66 172.08 117.99 175.22 115.21 C 176.25 114.19 177.63 113.74 178.99 113.35 C 179.59 112.03 180.03 110.66 180.25 109.23 C 181.78 107.75 183.36 106.33 184.97 104.94 C 184.67 104.57 184.09 103.82 183.79 103.44 C 185.81 101.93 187.24 99.18 190.04 99.11 C 188.87 100.88 187.29 102.29 185.95 103.91 C 188.11 103.11 189.75 101.51 190.91 99.55 L 189.94 97.88 L 191.82 99.05 C 192.10 98.60 192.66 97.68 192.94 97.23 L 191.81 96.26 C 193.15 95.89 194.50 95.57 195.89 95.39 L 195.29 94.50 C 198.68 92.22 203.23 89.86 203.73 85.37 C 204.54 84.68 205.35 84.00 206.17 83.32 M 193.86 96.22 C 194.47 96.80 194.47 96.80 193.86 96.22 M 177.13 115.26 C 175.92 115.27 174.82 117.73 176.50 117.83 C 177.53 117.69 178.70 115.41 177.13 115.26 Z" />
<path fill="#ffffff" opacity="1.00" d=" M 229.42 84.83 C 229.81 83.45 230.12 81.47 231.84 81.15 C 231.68 82.61 230.95 83.87 229.66 84.94 C 232.20 83.58 234.90 82.95 237.36 84.83 C 237.50 84.03 237.78 82.42 237.92 81.62 C 239.56 82.92 241.18 84.25 242.62 85.78 C 238.41 83.15 236.74 88.15 233.99 90.15 L 232.73 89.91 C 233.16 89.34 234.03 88.20 234.46 87.63 C 232.78 87.96 231.32 89.12 230.45 90.57 L 230.05 90.69 L 229.79 91.07 C 229.42 91.49 229.42 91.49 229.79 91.07 C 229.95 90.94 230.28 90.69 230.45 90.57 C 231.02 90.40 232.16 90.07 232.73 89.91 C 233.04 91.89 229.67 92.10 229.23 93.97 C 234.01 91.05 239.04 88.50 244.41 86.80 C 242.92 88.53 240.88 89.82 239.93 91.96 C 239.35 92.20 238.18 92.68 237.59 92.92 C 238.30 93.65 239.01 94.38 239.72 95.12 C 238.93 95.50 237.35 96.26 236.56 96.64 L 236.87 94.56 C 236.27 94.89 235.08 95.54 234.48 95.86 L 234.94 94.03 C 233.84 94.56 232.73 95.08 231.63 95.59 C 230.25 95.91 228.95 96.46 227.69 97.05 C 228.37 99.16 227.42 101.35 225.66 102.60 C 223.84 104.19 221.05 103.73 219.32 105.54 C 219.65 104.55 220.00 103.56 220.35 102.57 C 221.21 102.01 222.08 101.44 222.96 100.87 C 224.78 99.35 226.15 97.41 227.61 95.56 L 228.21 94.35 L 228.68 94.60 L 228.99 94.27 L 228.61 94.02 L 228.21 94.35 C 225.77 96.10 223.58 98.28 220.71 99.31 C 221.49 98.05 222.40 96.88 223.30 95.71 L 223.53 95.53 C 223.47 95.58 223.36 95.67 223.30 95.71 C 221.76 96.66 220.20 97.57 218.70 98.57 C 216.83 97.36 215.55 99.37 214.23 100.38 C 213.29 99.19 212.83 97.76 213.32 96.27 C 212.56 97.16 211.77 98.04 211.11 99.01 L 210.81 99.59 C 209.52 101.04 208.32 102.58 207.34 104.26 C 208.28 103.63 210.16 102.37 211.10 101.74 C 210.73 105.03 207.80 106.58 205.55 108.48 C 204.07 109.06 202.69 109.87 201.34 110.70 C 201.48 110.10 201.77 108.89 201.91 108.28 C 204.37 106.17 206.40 103.59 207.95 100.73 C 205.55 102.90 203.24 105.29 201.91 108.28 L 200.93 107.92 L 201.34 110.17 C 199.20 110.47 198.84 108.94 199.71 107.30 C 201.93 104.36 204.79 101.98 207.11 99.16 C 208.02 95.69 211.72 94.56 214.29 92.58 C 217.18 92.48 219.55 90.55 222.37 90.08 C 223.59 87.11 226.68 85.96 229.42 84.83 Z" />
<path fill="#ffffff" opacity="1.00" d=" M 176.16 85.47 C 178.07 85.34 179.97 85.11 181.82 84.62 C 181.31 85.35 180.27 86.82 179.76 87.55 C 180.86 87.42 183.07 87.16 184.18 87.03 C 182.17 88.77 179.74 89.88 177.36 91.00 C 177.55 91.66 177.75 92.33 177.95 92.99 C 176.68 94.66 175.32 96.26 174.00 97.88 C 175.58 95.84 177.67 96.53 179.47 97.10 C 180.28 96.69 181.89 95.88 182.70 95.47 C 183.13 96.39 184.04 97.33 183.51 98.42 L 183.41 98.88 C 183.88 98.66 184.81 98.23 185.27 98.01 L 186.10 97.44 C 185.51 96.97 184.92 96.50 184.33 96.03 C 186.58 95.61 188.86 95.23 191.01 94.44 C 190.50 95.43 190.09 96.49 189.44 97.41 C 185.70 99.88 181.41 101.66 178.47 105.18 C 178.71 108.21 176.56 110.63 175.10 113.06 C 173.85 115.09 171.90 116.66 169.36 116.37 C 169.53 116.62 169.87 117.12 170.04 117.37 C 167.75 118.99 165.59 120.79 163.26 122.36 C 163.44 121.72 163.78 120.44 163.95 119.79 C 163.54 119.75 162.72 119.67 162.31 119.63 C 162.77 118.95 163.23 118.28 163.68 117.61 C 166.07 116.39 168.57 115.23 170.40 113.20 C 167.92 114.01 165.21 117.47 163.12 114.17 C 164.16 113.58 165.21 112.99 166.26 112.42 C 170.61 111.92 174.52 109.93 177.89 107.19 C 176.92 107.33 174.99 107.61 174.02 107.75 C 175.15 106.55 176.32 105.39 177.56 104.30 C 177.65 104.04 177.83 103.51 177.92 103.25 C 174.20 105.56 170.42 107.84 167.15 110.78 C 165.15 108.08 168.10 105.54 170.34 104.28 C 171.63 103.66 173.08 101.60 174.41 103.64 C 176.10 101.85 177.44 99.76 178.76 97.69 C 178.12 97.73 176.83 97.81 176.18 97.84 C 175.76 98.13 174.91 98.70 174.48 98.99 C 172.04 100.34 169.80 102.91 166.81 102.70 C 167.98 101.16 169.80 100.37 171.31 99.23 C 169.87 99.37 167.00 99.64 165.57 99.78 C 168.01 96.77 171.88 95.83 175.18 94.11 C 173.21 94.64 171.28 95.30 169.31 95.82 C 169.92 95.19 171.15 93.94 171.76 93.32 C 169.96 92.82 168.23 92.12 166.85 90.84 C 168.77 90.55 170.69 90.24 172.61 89.92 C 172.49 89.26 172.25 87.95 172.13 87.30 C 173.74 87.32 175.35 87.37 176.96 87.45 C 176.76 86.96 176.36 85.97 176.16 85.47 Z" />
<path fill="#ffffff" opacity="1.00" d=" M 222.77 86.28 C 222.25 86.72 222.25 86.72 222.77 86.28 Z" />
<path fill="#ffffff" opacity="1.00" d=" M 249.87 86.22 C 251.99 87.33 254.09 88.58 256.53 88.83 C 256.46 89.10 256.31 89.66 256.24 89.93 C 257.94 89.90 259.37 89.28 260.52 88.07 C 262.38 89.75 264.20 91.49 266.26 92.94 C 267.73 92.50 269.25 92.22 270.78 92.04 C 272.42 93.42 274.01 94.90 275.16 96.73 C 272.31 97.69 271.39 94.11 269.22 93.16 C 270.39 96.43 273.01 99.57 275.54 102.15 C 274.89 103.06 274.72 104.43 273.64 104.96 C 272.53 103.44 271.73 101.71 271.80 99.79 C 269.34 97.15 266.64 94.69 263.44 92.98 C 260.39 92.88 257.53 91.68 254.72 90.63 L 256.66 93.48 C 254.94 92.98 253.25 92.43 251.57 91.80 C 251.59 89.78 250.66 88.01 249.87 86.22 Z" />
<path fill="#ffffff" opacity="1.00" d=" M 309.23 85.80 C 310.44 87.31 311.62 88.84 312.88 90.31 C 313.05 90.97 313.23 91.64 313.41 92.30 L 311.94 91.92 C 312.17 93.12 312.63 95.53 312.86 96.73 C 310.58 93.53 308.94 89.81 309.23 85.80 Z" />
<path fill="#ffffff" opacity="1.00" d=" M 239.93 91.96 C 241.68 90.61 243.59 89.48 245.69 88.78 L 245.05 90.81 C 245.75 90.80 247.14 90.78 247.84 90.78 C 247.10 91.56 245.62 93.12 244.88 93.90 C 244.40 93.17 243.92 92.45 243.44 91.73 L 245.58 91.47 L 244.39 90.80 C 243.14 91.85 241.88 92.90 240.61 93.93 C 240.44 93.44 240.10 92.46 239.93 91.96 Z" />
<path fill="#ffffff" opacity="1.00" d=" M 248.24 92.03 C 248.97 92.54 249.72 93.06 250.46 93.58 C 250.57 94.64 250.68 95.70 250.80 96.76 C 250.41 97.22 249.61 98.14 249.22 98.59 L 248.98 97.04 C 245.97 100.02 239.52 99.98 239.21 105.06 C 239.06 104.04 238.91 103.03 238.75 102.02 C 237.96 102.62 236.38 103.83 235.59 104.43 C 235.73 102.89 238.26 100.91 236.15 99.82 C 233.21 99.45 231.36 102.79 229.87 104.95 C 228.42 108.10 225.08 109.64 222.28 111.39 C 221.16 110.78 220.11 110.07 219.03 109.42 C 220.72 106.86 223.39 105.37 226.07 104.04 C 226.46 104.34 227.22 104.94 227.60 105.24 C 228.90 103.88 230.24 102.55 231.57 101.22 C 230.94 101.16 229.70 101.05 229.07 101.00 C 229.62 99.78 229.21 98.58 228.64 97.46 C 230.61 96.31 231.97 97.93 233.37 99.05 L 233.30 97.43 C 234.20 97.62 236.00 97.99 236.90 98.18 L 237.35 98.83 C 239.41 97.71 239.98 94.76 241.86 93.26 C 242.43 93.79 242.99 94.32 243.55 94.85 C 241.31 96.34 239.24 98.19 238.05 100.65 C 239.88 99.28 241.53 97.70 243.16 96.10 C 244.28 95.31 245.42 94.53 246.57 93.77 C 246.85 94.25 247.42 95.21 247.70 95.69 C 248.27 95.09 249.42 93.89 249.99 93.30 C 249.21 93.45 247.65 93.76 246.87 93.92 C 247.21 93.44 247.90 92.50 248.24 92.03 Z" />
<path fill="#ffffff" opacity="1.00" d=" M 305.28 91.99 C 306.63 91.49 307.13 91.97 306.78 93.41 C 305.43 93.90 304.93 93.43 305.28 91.99 Z" />
<path fill="#ffffff" opacity="1.00" d=" M 184.17 94.86 C 183.59 93.65 185.63 92.48 186.59 93.19 C 187.21 94.43 185.14 95.59 184.17 94.86 Z" />
<path fill="#ffffff" opacity="1.00" d=" M 284.32 94.88 C 284.47 94.68 284.77 94.28 284.92 94.08 C 287.52 98.29 290.45 102.42 291.94 107.18 C 291.80 107.75 291.53 108.88 291.39 109.44 C 289.60 104.30 286.29 99.93 284.32 94.88 Z" />
<path fill="#ffffff" opacity="1.00" d=" M 303.45 93.37 C 304.15 94.85 304.73 96.37 305.35 97.88 C 304.78 97.65 303.64 97.19 303.07 96.96 C 303.17 97.87 303.38 99.71 303.48 100.63 C 303.10 100.68 302.34 100.80 301.96 100.86 C 301.58 101.89 302.34 104.62 300.43 103.59 C 300.05 101.66 300.11 99.68 300.03 97.73 C 300.41 98.30 301.18 99.44 301.56 100.01 C 301.79 97.70 302.66 95.53 303.45 93.37 Z" />
<path fill="#ffffff" opacity="1.00" d=" M 251.20 101.60 C 252.30 99.09 253.84 96.80 255.74 94.84 C 255.40 96.15 254.72 98.77 254.38 100.08 C 255.16 98.94 256.70 96.66 257.47 95.52 C 257.85 95.81 258.61 96.40 258.99 96.69 C 261.11 96.42 264.10 95.14 263.83 98.59 C 264.44 98.25 265.66 97.58 266.27 97.25 C 265.24 100.53 262.11 101.99 259.15 103.15 C 258.69 102.86 257.78 102.29 257.32 102.01 C 256.29 102.36 255.25 102.70 254.21 103.02 C 253.73 103.97 253.26 104.92 252.79 105.87 L 251.74 105.31 C 251.11 105.85 249.86 106.94 249.23 107.48 L 250.40 104.22 L 249.58 104.04 C 248.82 105.64 247.69 106.86 246.17 107.69 C 246.95 105.84 247.98 104.12 248.98 102.38 C 249.71 102.99 250.45 103.60 251.18 104.21 C 250.89 103.54 250.31 102.20 250.02 101.52 L 251.20 101.60 Z" />
<path fill="#ffffff" opacity="1.00" d=" M 279.06 94.76 C 281.31 96.02 282.25 98.68 284.52 99.91 C 284.50 100.14 284.45 100.61 284.42 100.84 C 286.31 103.82 289.06 106.64 289.03 110.41 C 288.49 109.68 287.39 108.22 286.85 107.49 C 286.36 108.02 285.87 108.55 285.38 109.08 C 286.87 111.43 286.61 114.03 285.71 116.51 C 285.26 116.31 284.34 115.91 283.89 115.72 C 283.19 113.47 281.20 111.19 282.65 108.81 L 283.83 110.81 C 283.57 109.58 283.32 108.35 283.07 107.12 C 282.62 106.91 281.70 106.50 281.25 106.30 C 280.00 103.20 278.09 100.44 276.61 97.46 C 278.63 97.96 279.49 99.88 280.71 101.34 C 281.92 102.96 283.69 104.21 284.29 106.24 C 284.58 105.82 284.86 105.39 285.14 104.96 C 282.15 102.23 280.72 98.35 279.06 94.76 Z" />
<path fill="#ffffff" opacity="1.00" d=" M 205.14 98.85 C 205.64 98.38 205.64 98.38 205.14 98.85 Z" />
<path fill="#ffffff" opacity="1.00" d=" M 199.16 103.06 C 200.77 101.39 202.51 98.66 205.14 98.85 L 205.21 99.46 C 203.98 100.63 202.58 101.60 201.33 102.75 C 200.79 102.83 199.70 102.98 199.16 103.06 Z" />
<path fill="#ffffff" opacity="1.00" d=" M 245.98 100.84 C 248.05 99.94 250.18 99.22 252.23 98.27 C 248.87 101.12 246.48 104.81 243.80 108.26 C 243.74 107.63 243.61 106.36 243.54 105.73 C 242.57 106.80 241.60 107.87 240.63 108.94 C 240.30 108.71 239.64 108.25 239.31 108.02 C 238.87 108.52 237.99 109.52 237.55 110.02 C 237.32 109.68 236.85 109.00 236.62 108.66 C 235.56 109.86 234.49 111.06 233.28 112.12 C 232.89 111.47 232.12 110.18 231.74 109.53 C 233.40 109.62 234.45 108.85 234.90 107.20 C 235.99 107.35 237.08 107.53 238.18 107.71 C 238.27 107.21 238.45 106.22 238.54 105.72 C 241.75 105.44 243.58 102.59 245.98 100.84 Z" />
<path fill="#ffffff" opacity="1.00" d=" M 215.05 102.18 C 217.44 101.79 219.57 100.61 221.79 99.71 C 220.89 102.59 218.11 104.13 216.17 106.25 C 214.82 105.24 213.26 105.02 211.64 105.37 C 212.75 104.28 213.87 103.20 215.05 102.18 Z" />
<path fill="#ffffff" opacity="1.00" d=" M 229.07 101.00 C 228.60 101.39 228.60 101.39 229.07 101.00 Z" />
<path fill="#ffffff" opacity="1.00" d=" M 267.45 105.03 C 268.55 100.58 273.88 105.75 273.23 108.65 C 271.69 107.44 268.91 106.76 269.52 104.17 L 267.45 105.03 Z" />
<path fill="#ffffff" opacity="1.00" d=" M 276.12 101.67 C 278.49 103.13 280.15 105.39 281.83 107.55 C 280.97 108.78 279.47 110.80 280.88 112.17 C 282.46 113.96 283.98 116.05 282.91 118.58 C 280.63 116.76 278.48 113.61 279.64 110.61 C 278.33 110.01 277.04 109.35 275.75 108.71 C 277.43 112.25 279.44 115.64 280.75 119.35 C 279.48 119.35 278.22 119.38 276.96 119.44 C 275.61 115.43 274.07 111.38 273.83 107.11 L 276.22 108.52 C 276.04 107.66 275.68 105.93 275.50 105.06 C 276.14 106.34 276.78 107.63 277.42 108.91 C 278.02 109.26 279.21 109.95 279.81 110.30 C 278.39 107.51 276.71 104.80 276.12 101.67 Z" />
<path fill="#ffffff" opacity="1.00" d=" M 198.95 104.06 C 199.81 104.18 200.68 104.34 201.54 104.54 C 199.03 106.15 198.77 109.97 195.94 111.04 C 195.92 109.66 196.38 108.34 196.50 106.97 C 198.03 106.51 198.84 105.54 198.95 104.06 Z" />
<path fill="#ffffff" opacity="1.00" d=" M 195.84 107.00 C 195.22 109.89 193.48 112.35 191.47 114.45 C 190.46 115.32 189.37 116.24 188.36 114.77 C 186.73 116.97 185.00 119.21 182.47 120.41 C 181.54 121.04 180.59 121.65 179.64 122.24 C 181.38 117.54 186.10 114.80 190.06 112.13 C 191.92 110.35 193.77 108.55 195.84 107.00 Z" />
<path fill="#ffffff" opacity="1.00" d=" M 208.88 107.96 C 209.75 108.91 210.62 109.87 211.47 110.85 C 207.54 114.82 203.32 118.50 198.84 121.84 C 197.24 123.09 195.25 123.91 193.20 123.89 C 190.64 123.77 188.64 125.64 186.37 126.51 C 184.51 127.55 182.15 126.87 180.39 128.14 C 177.89 129.62 175.34 131.02 172.63 132.08 C 175.00 128.72 178.10 125.76 181.84 124.01 C 187.14 121.71 190.05 116.36 194.47 112.89 C 195.34 115.55 192.74 116.70 191.36 118.30 C 191.81 118.40 192.71 118.61 193.16 118.71 C 193.36 119.01 193.78 119.60 193.98 119.89 C 193.24 120.40 191.76 121.42 191.02 121.94 C 195.92 119.32 199.14 114.46 203.39 110.95 C 203.48 111.61 203.67 112.92 203.76 113.58 C 203.71 113.72 203.61 113.99 203.56 114.12 L 203.76 113.58 C 205.61 111.85 207.30 109.95 208.88 107.96 M 206.00 114.00 C 205.42 114.59 205.42 114.59 206.00 114.00 C 206.59 113.42 206.59 113.42 206.00 114.00 Z" />
<path fill="#ffffff" opacity="1.00" d=" M 242.45 109.37 C 242.92 109.45 243.85 109.60 244.31 109.68 C 244.93 110.35 245.57 111.00 246.22 111.65 C 245.32 112.61 244.41 113.57 243.50 114.53 C 243.34 114.00 243.00 112.94 242.83 112.41 C 242.30 113.12 241.24 114.54 240.71 115.25 C 240.24 114.38 239.78 113.50 239.30 112.64 C 239.01 114.64 237.33 115.75 235.88 116.87 C 236.49 113.35 240.10 111.66 242.45 109.37 Z" />
<path fill="#ffffff" opacity="1.00" d=" M 255.27 109.37 C 257.60 108.58 259.80 110.10 261.94 110.79 C 259.03 112.75 256.32 115.07 253.27 116.80 C 252.87 116.39 252.07 115.57 251.67 115.16 C 251.99 114.55 252.62 113.32 252.93 112.71 C 253.11 112.72 253.48 112.73 253.67 112.73 C 254.12 111.57 254.66 110.45 255.27 109.37 Z" />
<path fill="#ffffff" opacity="1.00" d=" M 309.92 112.19 C 308.53 112.08 307.87 109.35 309.55 109.21 C 310.89 109.35 311.49 111.95 309.92 112.19 Z" />
<path fill="#ffffff" opacity="1.00" d=" M 228.50 113.78 C 228.42 112.20 230.38 110.17 231.89 110.03 C 232.26 111.67 230.24 114.25 228.50 113.78 Z" />
<path fill="#ffffff" opacity="1.00" d=" M 258.05 116.72 C 260.15 113.57 263.75 111.97 266.10 109.02 C 266.18 109.74 266.35 111.19 266.43 111.92 C 266.24 107.72 269.55 110.86 270.93 112.46 C 272.54 114.14 273.92 116.35 272.98 118.76 C 272.35 117.94 271.75 117.10 271.19 116.23 C 270.39 115.28 269.55 114.36 268.68 113.48 C 266.66 113.55 264.67 114.03 262.76 114.67 C 261.21 115.41 259.65 116.13 258.05 116.72 Z" />
<path fill="#ffffff" opacity="1.00" d=" M 195.54 111.41 C 195.64 111.32 195.84 111.13 195.94 111.04 C 195.84 111.13 195.64 111.32 195.54 111.41 Z" />
<path fill="#ffffff" opacity="1.00" d=" M 212.02 110.91 C 212.42 110.98 213.22 111.12 213.62 111.19 C 209.37 118.69 204.09 126.18 196.76 130.93 C 197.58 128.03 200.38 126.50 202.25 124.34 C 199.39 126.59 195.28 126.85 193.05 129.94 C 190.50 133.14 187.76 136.23 184.45 138.66 C 185.54 136.12 187.31 133.98 189.21 132.00 L 189.92 131.96 L 190.16 131.42 C 190.59 130.88 191.44 129.78 191.87 129.23 C 189.30 130.79 187.03 132.77 184.72 134.68 C 184.42 135.48 184.11 136.29 183.81 137.09 C 183.34 136.05 182.86 135.01 182.37 133.98 C 182.90 133.75 183.96 133.27 184.49 133.04 C 183.99 132.49 183.48 131.95 182.98 131.41 C 180.70 133.45 178.34 135.39 175.94 137.29 C 175.25 134.57 177.80 133.39 179.22 131.74 C 181.20 132.06 182.70 130.71 184.21 129.68 C 184.76 130.27 185.33 130.87 185.90 131.46 C 189.11 128.52 192.71 125.88 196.91 124.56 C 203.30 121.82 208.07 116.46 212.02 110.91 Z" />
<path fill="#ffffff" opacity="1.00" d=" M 194.13 112.13 C 194.48 111.95 195.19 111.59 195.54 111.41 C 195.47 111.79 195.32 112.54 195.25 112.92 L 194.47 112.89 L 194.13 112.13 Z" />
<path fill="#ffffff" opacity="1.00" d=" M 197.61 111.95 C 197.94 111.96 198.60 111.98 198.92 111.99 C 197.80 113.58 196.65 115.97 194.67 116.46 C 194.84 114.69 196.38 113.16 197.61 111.95 Z" />
<path fill="#ffffff" opacity="1.00" d=" M 209.70 118.75 C 211.94 116.95 212.87 113.68 215.64 112.60 C 214.79 116.52 211.91 120.01 208.10 121.37 C 208.50 120.72 209.30 119.41 209.70 118.75 Z" />
<path fill="#ffffff" opacity="1.00" d=" M 307.97 111.76 C 309.20 113.81 310.15 116.06 310.63 118.41 L 309.92 118.84 L 307.79 118.28 C 308.78 119.88 309.94 121.47 310.22 123.39 C 306.97 121.89 306.33 117.99 305.92 114.82 C 306.84 115.63 307.74 116.47 308.62 117.34 L 309.59 117.47 C 308.93 115.60 308.24 113.74 307.97 111.76 Z" />
<path fill="#ffffff" opacity="1.00" d=" M 212.73 120.72 C 214.43 118.73 215.40 116.03 217.81 114.73 C 217.03 116.26 216.22 117.77 215.38 119.27 L 218.02 117.74 C 217.89 118.52 217.61 120.08 217.47 120.86 C 216.66 120.28 215.85 119.70 215.05 119.12 C 214.99 119.77 214.86 121.08 214.79 121.73 C 211.71 123.49 209.95 129.85 205.74 127.38 C 208.16 125.26 210.61 123.15 212.73 120.72 Z" />
<path fill="#ffffff" opacity="1.00" d=" M 193.72 118.11 C 194.27 117.62 194.27 117.62 193.72 118.11 Z" />
<path fill="#ffffff" opacity="1.00" d=" M 225.92 118.08 C 227.22 117.86 228.53 117.64 229.84 117.42 C 229.95 119.38 229.81 121.34 229.12 123.21 C 228.01 121.52 227.01 119.77 225.92 118.08 Z" />
<path fill="#ffffff" opacity="1.00" d=" M 243.18 120.71 C 245.52 118.67 248.65 117.99 251.52 117.02 C 251.48 118.01 251.41 119.99 251.37 120.98 C 253.19 118.98 255.71 118.10 258.25 117.44 C 257.38 119.66 258.90 120.81 260.54 121.85 C 260.07 122.46 259.15 123.68 258.69 124.29 C 259.99 124.21 261.28 124.13 262.59 124.05 C 263.05 125.13 263.55 126.19 264.08 127.24 C 265.52 126.46 266.80 125.43 268.18 124.54 C 267.56 125.72 266.93 126.88 266.30 128.05 C 269.17 127.70 272.04 127.38 274.91 126.94 C 274.65 128.19 274.39 129.43 274.12 130.67 C 272.87 131.61 271.65 132.58 270.46 133.58 C 271.53 133.49 273.69 133.32 274.77 133.23 C 274.73 133.96 274.65 135.42 274.61 136.14 C 273.61 136.36 272.63 136.59 271.64 136.82 C 269.08 137.09 266.52 136.56 263.96 136.70 L 263.94 135.96 C 262.53 135.68 261.33 134.96 260.55 133.73 C 261.84 132.45 263.10 131.13 264.19 129.68 C 262.04 130.85 260.45 132.75 258.67 134.36 L 259.52 130.42 C 258.96 131.53 258.42 132.66 257.90 133.81 C 256.72 132.39 255.60 130.94 254.59 129.41 C 254.52 127.60 253.61 126.26 251.79 125.82 C 251.59 126.59 251.19 128.13 250.99 128.90 C 249.66 129.79 248.33 130.68 246.93 131.46 L 247.42 128.93 C 246.73 129.44 245.34 130.45 244.65 130.96 C 243.44 131.06 242.23 131.16 241.03 131.27 C 241.25 130.19 241.69 128.05 241.91 126.97 C 240.40 127.18 238.92 129.18 237.38 128.57 C 237.96 127.49 238.61 126.45 239.21 125.37 C 240.73 123.99 241.88 122.28 243.18 120.71 Z" />
<path fill="#ffffff" opacity="1.00" d=" M 259.56 118.39 C 260.52 117.28 262.10 116.20 263.09 118.00 C 264.00 119.50 265.74 118.30 267.07 118.37 C 266.77 119.30 266.45 120.23 266.11 121.16 C 263.42 121.51 261.05 120.77 259.56 118.39 Z" />
<path fill="#ffffff" opacity="1.00" d=" M 193.16 118.71 C 193.30 118.56 193.58 118.26 193.72 118.11 C 193.58 118.26 193.30 118.56 193.16 118.71 Z" />
<path fill="#ffffff" opacity="1.00" d=" M 223.67 118.01 C 225.14 120.98 224.28 126.15 220.85 127.07 C 221.63 124.01 222.46 120.94 223.67 118.01 Z" />
<path fill="#ffffff" opacity="1.00" d=" M 235.51 124.02 C 236.60 122.11 237.75 120.11 239.78 119.08 C 237.61 123.96 235.08 129.98 229.06 130.80 C 230.46 128.10 232.40 125.74 234.17 123.28 C 234.50 123.46 235.18 123.83 235.51 124.02 Z" />
<path fill="#ffffff" opacity="1.00" d=" M 297.15 125.04 C 298.12 122.62 298.59 119.67 301.01 118.20 C 301.34 121.07 299.48 123.60 297.15 125.04 Z" />
<path fill="#ffffff" opacity="1.00" d=" M 303.87 118.84 C 308.09 122.67 308.61 128.85 311.50 133.59 C 308.71 132.86 307.27 130.28 306.88 127.62 C 306.46 124.48 304.01 122.03 303.87 118.84 Z" />
<path fill="#ffffff" opacity="1.00" d=" M 219.18 124.37 C 218.78 122.48 219.02 120.42 220.90 119.44 C 221.66 123.61 219.14 127.17 217.97 130.97 C 218.43 131.21 219.33 131.69 219.78 131.94 C 218.57 134.10 216.74 135.81 214.12 135.76 C 212.40 138.18 210.27 140.25 208.34 142.50 C 208.04 142.39 207.45 142.18 207.16 142.08 C 206.34 142.66 205.52 143.24 204.69 143.80 C 207.33 138.52 213.38 136.47 217.04 132.07 C 215.58 129.28 217.97 126.72 219.18 124.37 Z" />
<path fill="#ffffff" opacity="1.00" d=" M 211.11 126.09 C 213.12 124.44 214.74 120.57 217.89 121.44 C 216.16 123.51 214.40 125.55 212.84 127.75 C 212.63 127.59 212.20 127.26 211.98 127.10 C 211.76 126.85 211.33 126.34 211.11 126.09 Z" />
<path fill="#ffffff" opacity="1.00" d=" M 226.06 119.80 C 227.23 121.35 227.60 123.44 226.74 125.23 C 225.57 126.27 226.25 127.51 226.68 128.58 C 226.60 126.15 227.54 124.68 229.50 124.18 C 228.83 126.23 227.92 128.19 226.99 130.13 C 226.08 129.50 225.15 128.90 224.22 128.32 C 224.71 125.45 225.15 122.57 226.06 119.80 Z" />
<path fill="#ffffff" opacity="1.00" d=" M 274.02 122.16 C 275.93 122.90 277.86 123.59 279.81 124.22 L 280.28 123.13 C 280.68 123.36 281.48 123.82 281.88 124.05 C 282.05 123.55 282.37 122.55 282.54 122.05 C 283.32 123.27 284.08 124.49 284.84 125.73 C 284.92 124.91 285.08 123.27 285.16 122.45 C 286.40 124.38 287.40 126.44 288.44 128.48 C 288.50 127.54 288.62 125.64 288.68 124.69 C 289.51 125.75 290.30 126.85 291.10 127.95 C 287.57 129.10 291.66 132.44 291.62 134.70 C 293.91 133.00 292.38 129.75 292.42 127.37 C 293.27 126.22 294.11 125.08 294.97 123.95 C 295.52 124.91 296.08 125.86 296.66 126.82 C 296.14 127.27 295.11 128.19 294.59 128.65 L 296.90 128.37 C 295.76 129.70 294.59 131.01 293.48 132.35 C 295.18 130.74 297.25 131.56 299.16 131.77 C 297.58 133.54 295.98 135.28 294.42 137.07 C 291.69 135.51 288.91 134.02 286.37 132.15 C 285.62 132.44 284.12 133.03 283.37 133.32 C 283.56 132.44 283.93 130.67 284.11 129.79 C 283.36 130.88 282.60 131.97 281.76 133.00 C 277.49 130.85 276.20 126.03 274.02 122.16 Z" />
<path fill="#ffffff" opacity="1.00" d=" M 209.84 128.52 C 210.38 128.17 211.45 127.45 211.98 127.10 C 211.66 127.68 211.02 128.83 210.71 129.40 L 210.00 129.16 L 209.84 128.52 Z" />
<path fill="#ffffff" opacity="1.00" d=" M 214.13 131.01 C 211.72 131.23 212.42 126.11 214.73 126.90 C 214.95 128.31 214.75 129.68 214.13 131.01 Z" />
<path fill="#ffffff" opacity="1.00" d=" M 205.52 127.09 C 206.25 130.57 201.83 132.49 199.95 134.90 C 199.89 134.46 199.76 133.58 199.69 133.14 C 197.09 135.61 193.63 137.23 191.95 140.56 C 191.46 139.92 190.99 139.29 190.53 138.64 L 191.97 140.71 C 189.95 141.32 187.69 141.62 186.31 143.40 C 185.64 143.81 184.30 144.63 183.63 145.04 C 184.34 143.10 185.72 141.55 186.85 139.85 C 192.19 134.22 200.43 133.06 205.52 127.09 Z" />
<path fill="#ffffff" opacity="1.00" d=" M 221.95 126.84 C 224.73 129.44 221.46 132.90 219.60 135.00 C 220.02 132.18 221.30 129.60 221.95 126.84 Z" />
<path fill="#ffffff" opacity="1.00" d=" M 208.00 134.54 C 204.23 133.07 207.58 129.40 210.00 129.16 C 210.18 130.47 212.63 130.13 211.83 131.67 C 210.79 132.90 209.42 133.81 208.00 134.54 Z" />
<path fill="#ffffff" opacity="1.00" d=" M 299.76 132.46 C 300.27 132.25 301.30 131.84 301.81 131.63 C 301.70 132.25 301.48 133.50 301.37 134.13 C 300.22 134.24 299.68 133.68 299.76 132.46 Z" />
<path fill="#ffffff" opacity="1.00" d=" M 228.99 133.16 C 232.36 133.05 227.62 136.20 228.99 133.16 Z" />
<path fill="#ffffff" opacity="1.00" d=" M 173.48 134.04 C 174.26 134.27 175.05 134.50 175.83 134.74 C 174.82 135.89 173.79 137.02 172.81 138.20 C 172.22 138.23 171.05 138.30 170.46 138.33 L 171.18 139.41 C 170.63 139.81 169.52 140.61 168.97 141.01 C 170.38 140.42 171.57 139.05 173.14 139.02 C 173.36 139.42 173.80 140.21 174.02 140.61 L 174.22 140.23 L 174.44 139.46 L 174.37 138.22 C 174.93 137.21 175.96 137.29 176.80 137.91 C 178.24 136.68 179.63 135.41 181.12 134.25 C 180.47 135.24 179.81 136.23 179.14 137.21 C 177.43 140.41 174.95 143.09 172.56 145.78 C 172.13 145.69 171.26 145.50 170.83 145.40 C 169.48 144.23 167.69 144.40 166.04 144.44 L 166.83 143.15 C 166.17 143.23 164.86 143.40 164.20 143.48 C 167.28 140.24 169.42 136.24 173.48 134.04 Z" />
<path fill="#ffffff" opacity="1.00" d=" M 220.24 137.84 C 222.37 136.38 224.62 135.06 227.07 134.19 C 225.50 136.08 223.64 137.72 222.22 139.73 C 222.11 139.66 221.90 139.52 221.80 139.45 C 221.83 142.97 218.06 144.41 215.14 144.85 C 213.08 146.82 211.61 149.33 209.49 151.26 C 209.31 149.91 209.56 148.51 209.08 147.21 C 211.01 145.40 213.58 144.23 214.86 141.80 C 216.64 140.47 218.45 139.17 220.24 137.84 Z" />
<path fill="#ffffff" opacity="1.00" d=" M 234.22 134.17 C 236.12 134.80 238.10 134.88 240.09 134.73 C 236.74 137.30 233.21 139.62 229.90 142.25 C 230.78 142.16 232.53 141.98 233.41 141.89 C 232.61 142.78 231.82 143.66 231.03 144.55 L 232.43 144.97 L 229.18 147.64 C 231.63 146.94 234.09 146.24 236.54 145.54 C 235.77 145.19 234.21 144.48 233.43 144.13 C 234.54 142.68 235.37 141.04 236.38 139.53 C 239.32 137.61 242.33 135.77 245.44 134.12 C 244.56 135.24 243.49 136.15 242.25 136.86 C 243.14 137.08 244.92 137.52 245.82 137.73 C 245.13 138.02 243.75 138.58 243.06 138.86 C 243.50 139.86 243.88 140.92 244.63 141.75 C 245.32 141.37 246.70 140.61 247.39 140.23 C 246.50 141.41 245.51 142.51 244.53 143.61 L 243.25 143.19 C 242.20 148.32 245.23 144.47 246.88 143.86 C 246.19 144.69 245.49 145.52 244.79 146.34 C 242.83 146.17 241.73 148.11 240.36 149.10 C 239.45 147.18 241.22 145.97 242.26 144.64 C 240.81 145.53 239.42 146.62 239.30 148.50 C 238.07 147.15 236.51 147.56 235.22 148.63 C 235.27 149.16 235.37 150.24 235.42 150.78 L 233.83 150.29 C 233.56 152.15 232.87 153.90 232.13 155.61 C 231.52 154.97 230.92 154.33 230.33 153.69 L 231.80 155.96 L 229.31 155.71 C 227.54 157.77 226.15 160.11 224.54 162.29 L 224.52 160.99 C 223.60 161.03 222.69 161.09 221.78 161.16 C 217.77 167.12 214.20 173.38 209.56 178.89 C 208.97 179.05 207.78 179.36 207.19 179.52 L 208.51 177.02 C 208.86 176.75 209.55 176.21 209.90 175.94 C 208.81 175.61 207.72 175.28 206.62 174.99 C 211.28 169.00 210.80 160.00 216.96 155.12 C 217.49 155.61 218.55 156.59 219.09 157.08 C 218.69 156.11 218.29 155.13 217.89 154.17 C 218.24 153.73 218.95 152.87 219.31 152.44 C 218.87 151.90 218.01 150.83 217.58 150.29 C 218.29 149.91 219.73 149.15 220.44 148.77 C 220.12 148.30 219.47 147.37 219.15 146.90 C 221.10 145.37 223.33 144.28 225.46 143.02 C 224.48 143.22 222.53 143.62 221.56 143.82 C 223.31 141.75 227.34 141.39 227.51 138.23 C 229.82 137.01 232.02 135.16 234.80 135.31 L 234.22 134.17 M 225.69 153.67 C 225.18 153.48 224.16 153.10 223.64 152.90 C 223.91 154.44 223.88 156.01 223.61 157.54 C 223.22 156.41 222.86 155.26 222.56 154.10 C 221.47 155.41 220.12 156.62 219.77 158.38 L 220.97 156.38 C 221.76 157.55 222.40 158.90 223.84 159.40 C 224.23 158.74 225.03 157.43 225.43 156.77 C 225.16 156.19 224.61 155.04 224.34 154.47 L 226.21 155.10 L 226.00 154.34 C 228.38 152.22 231.06 150.33 232.77 147.57 C 230.10 149.22 227.97 151.54 225.69 153.67 Z" />
<path fill="#ffffff" opacity="1.00" d=" M 249.00 136.23 C 250.38 135.40 251.77 134.58 253.18 133.81 C 252.92 136.43 251.79 138.73 249.33 139.88 C 249.21 138.66 249.10 137.44 249.00 136.23 Z" />
<path fill="#ffffff" opacity="1.00" d=" M 272.43 144.35 C 275.32 141.31 274.52 136.58 276.85 133.21 C 277.01 134.00 277.31 135.60 277.47 136.40 C 278.03 135.50 279.14 133.69 279.70 132.79 C 278.22 139.16 275.79 145.24 273.23 151.25 C 273.38 151.86 273.67 153.08 273.82 153.69 L 274.60 153.76 C 275.27 151.29 275.89 148.79 277.06 146.50 C 276.74 148.67 276.24 150.80 275.85 152.95 C 279.00 152.18 278.27 148.38 280.24 146.42 C 280.61 146.46 281.34 146.55 281.70 146.59 C 281.38 146.36 280.73 145.88 280.40 145.64 C 280.53 143.52 280.74 141.41 280.69 139.29 C 280.47 141.19 279.04 142.74 277.30 141.19 L 278.76 140.97 C 279.17 138.58 279.76 136.24 280.37 133.90 C 282.68 135.11 284.69 136.91 287.50 136.65 C 288.15 138.82 285.85 140.73 285.96 143.00 C 287.50 141.01 288.92 138.86 291.05 137.44 C 289.85 141.22 287.21 144.35 286.18 148.21 C 287.37 146.37 288.20 144.31 289.58 142.59 L 290.01 142.06 C 290.26 141.64 290.76 140.80 291.01 140.37 C 291.87 139.43 292.76 138.50 293.67 137.61 C 293.53 138.34 293.23 139.81 293.09 140.54 C 294.58 140.53 296.09 140.53 297.59 140.55 C 296.55 141.00 295.49 141.42 294.43 141.81 C 294.50 142.45 294.64 143.73 294.71 144.38 C 295.46 143.71 296.96 142.36 297.70 141.69 L 296.81 144.27 L 298.51 143.95 C 298.49 144.85 298.46 146.66 298.44 147.56 C 297.53 148.61 296.64 149.68 295.75 150.75 C 294.70 151.97 293.69 153.23 292.85 154.61 C 295.72 152.83 297.17 148.43 300.93 148.47 L 300.14 146.64 C 301.22 147.35 302.30 148.06 303.37 148.79 L 301.39 148.13 L 301.56 151.28 C 302.22 150.68 303.54 149.48 304.20 148.87 C 303.57 153.86 298.44 156.14 295.53 159.68 C 297.63 158.82 299.29 157.21 300.92 155.68 C 303.22 152.82 307.67 153.02 309.36 149.45 C 307.64 150.20 306.29 151.52 304.89 152.72 L 304.80 152.16 C 304.59 150.85 304.41 149.54 304.17 148.24 C 306.06 146.37 308.09 144.65 310.21 143.04 C 310.96 144.49 311.88 145.85 312.82 147.19 C 313.37 146.82 314.45 146.09 314.99 145.73 C 314.75 146.72 314.25 148.72 314.01 149.72 C 314.72 149.44 316.16 148.88 316.88 148.61 L 316.50 150.92 C 318.12 150.03 319.75 149.14 321.38 148.26 C 317.14 144.02 313.13 139.55 310.74 133.98 C 311.91 135.23 313.12 136.46 314.44 137.56 C 314.66 138.39 314.89 139.22 315.12 140.05 C 318.07 140.72 319.11 143.99 321.15 145.90 C 323.42 149.63 326.20 152.99 328.77 156.52 C 330.47 157.96 331.84 159.76 332.83 161.76 C 337.05 165.43 341.04 169.41 344.26 174.00 C 342.42 173.98 340.90 172.93 339.27 172.25 C 339.51 171.55 339.76 170.85 340.01 170.15 C 338.73 168.73 337.54 167.18 335.91 166.14 C 334.48 165.60 333.06 166.47 331.66 166.66 C 332.19 165.58 332.73 164.52 333.28 163.46 C 332.38 163.61 330.58 163.90 329.69 164.05 C 330.62 162.74 330.47 161.67 329.22 160.84 C 329.46 160.54 329.93 159.96 330.17 159.66 C 327.33 156.19 324.34 152.82 321.91 149.03 C 318.68 150.30 316.83 153.24 315.79 156.41 C 316.87 156.42 319.03 156.43 320.11 156.44 C 320.41 155.89 321.01 154.78 321.31 154.23 C 321.39 155.38 321.47 156.53 321.54 157.69 C 320.71 158.22 319.87 158.75 319.04 159.28 L 318.70 157.40 C 316.57 159.57 313.67 163.49 310.62 158.27 C 311.45 159.37 313.12 161.59 313.96 162.69 L 314.22 165.00 C 315.48 162.46 317.94 161.07 320.21 159.61 C 320.20 160.30 320.19 161.67 320.18 162.36 L 319.54 162.14 C 318.10 162.14 317.25 162.86 316.98 164.31 C 318.42 164.69 319.46 163.39 320.18 162.36 C 320.90 162.12 322.33 161.64 323.05 161.40 C 322.03 162.60 320.00 164.98 318.99 166.18 C 320.64 165.20 322.11 163.97 323.58 162.74 C 323.50 163.76 323.43 164.78 323.38 165.81 C 322.77 167.18 322.16 168.55 321.62 169.95 C 320.74 169.39 319.86 168.84 318.99 168.29 C 317.82 169.66 316.63 171.03 315.48 172.43 C 314.41 171.76 312.96 170.98 312.27 172.55 C 314.45 172.82 316.80 172.91 317.90 170.47 L 318.41 171.69 C 319.58 171.11 320.79 170.63 322.02 170.18 C 320.40 172.87 317.29 174.91 317.04 178.29 C 315.83 183.49 318.97 188.27 321.84 192.31 C 321.21 192.30 319.95 192.29 319.32 192.28 C 319.63 193.20 319.94 194.12 320.25 195.04 C 319.02 194.76 318.06 193.95 317.12 193.19 C 317.39 194.06 317.95 195.81 318.23 196.68 C 317.45 195.79 315.88 194.01 315.10 193.11 C 315.37 194.00 315.92 195.77 316.20 196.65 L 314.40 196.95 C 313.83 195.55 313.25 194.17 312.72 192.76 C 313.27 191.70 313.75 190.60 314.16 189.48 C 313.73 189.53 312.86 189.62 312.42 189.67 C 312.23 188.66 311.84 186.63 311.65 185.62 C 311.41 187.60 311.52 189.59 311.68 191.58 L 309.54 191.24 C 309.51 188.42 309.54 185.61 309.66 182.81 C 309.16 184.49 308.69 186.19 308.23 187.88 L 308.58 189.60 C 308.41 189.94 308.09 190.63 307.92 190.98 C 307.51 191.01 306.68 191.09 306.26 191.12 C 305.85 188.76 306.88 186.49 307.06 184.16 C 305.88 186.21 304.87 188.39 305.34 190.82 L 301.83 190.86 C 301.84 189.62 301.86 188.38 301.90 187.14 C 302.23 185.35 303.87 183.49 303.10 181.66 C 302.06 184.27 301.44 187.05 301.15 189.84 C 300.67 190.80 300.19 191.77 299.72 192.74 C 298.70 192.60 297.69 192.46 296.68 192.34 C 296.22 189.89 293.90 189.35 291.80 189.05 C 291.80 188.47 291.81 187.30 291.81 186.72 L 292.55 187.02 C 293.50 185.80 294.51 184.63 295.52 183.45 C 293.76 182.31 290.80 182.30 289.93 180.18 C 291.68 179.86 293.42 180.42 295.16 180.57 C 294.14 179.99 292.49 180.23 291.98 178.98 C 291.85 177.78 292.37 176.50 293.65 176.25 C 294.43 177.33 295.98 177.29 296.59 178.57 C 296.90 174.26 300.64 171.48 303.17 168.37 L 299.80 169.66 C 301.70 166.53 304.43 163.99 306.00 160.65 C 303.22 163.31 301.03 166.54 297.89 168.82 C 298.41 169.12 299.45 169.71 299.97 170.01 C 299.66 170.74 299.05 172.21 298.74 172.94 L 297.73 171.63 C 297.26 173.49 295.73 174.48 294.00 175.03 C 294.49 174.03 295.49 172.02 295.99 171.02 C 294.65 172.81 293.19 174.52 291.67 176.15 C 291.11 175.51 290.00 174.24 289.45 173.61 C 290.61 171.29 292.70 169.33 292.94 166.63 C 293.54 166.22 294.73 165.39 295.32 164.97 C 294.13 164.36 292.59 165.16 292.94 166.63 L 292.29 167.42 C 290.77 169.51 290.18 172.68 287.40 173.50 C 288.10 172.00 288.84 170.53 289.62 169.07 C 288.63 170.04 287.64 171.02 286.66 171.99 C 286.30 172.06 285.59 172.20 285.23 172.27 L 284.76 172.48 C 284.40 172.35 283.67 172.09 283.30 171.96 C 278.17 169.78 273.17 167.34 268.45 164.37 C 267.13 163.76 265.83 163.11 264.57 162.42 C 263.09 162.95 261.91 161.93 260.71 161.23 C 258.95 162.21 257.35 163.43 255.89 164.82 C 257.95 164.04 259.99 163.23 262.08 162.51 C 258.40 165.84 255.14 170.20 250.34 171.95 C 249.59 170.77 248.86 169.60 248.16 168.40 C 247.65 168.76 246.64 169.47 246.13 169.83 C 245.32 167.75 245.57 165.67 246.93 163.82 L 245.06 165.03 L 244.91 163.10 C 242.39 166.33 240.15 169.82 237.16 172.65 C 236.75 170.94 237.30 169.35 237.93 167.79 C 236.85 169.63 235.63 171.40 233.73 172.49 C 233.49 173.63 233.28 174.79 233.05 175.94 C 232.65 176.25 231.85 176.88 231.45 177.19 C 231.50 175.96 231.55 174.72 231.60 173.49 L 232.49 173.74 C 232.38 171.39 232.98 169.15 233.98 167.05 L 231.85 168.06 C 232.46 166.05 233.11 164.06 233.69 162.04 C 231.07 165.65 230.92 170.19 229.72 174.33 C 227.77 174.60 227.06 176.45 226.17 177.91 C 223.08 182.80 220.82 188.19 219.15 193.71 L 217.19 193.57 C 217.39 192.98 217.80 191.81 218.00 191.22 L 214.68 193.01 C 217.05 188.97 219.58 185.02 222.23 181.15 C 224.43 177.91 225.21 173.83 228.05 171.01 C 228.46 169.56 228.85 168.11 229.18 166.65 C 225.55 170.89 222.70 175.68 219.69 180.36 C 218.86 180.27 218.04 180.17 217.22 180.04 C 219.84 176.52 222.94 173.19 224.63 169.09 L 222.69 171.69 C 222.48 171.49 222.06 171.10 221.84 170.91 C 221.68 170.50 221.34 169.68 221.17 169.27 C 219.84 171.00 220.56 173.29 220.69 175.26 C 219.51 176.55 218.32 177.83 217.10 179.09 C 213.79 180.84 212.23 184.35 210.63 187.53 C 209.66 188.74 210.54 190.12 210.81 191.40 C 209.62 191.34 208.63 191.97 207.71 192.65 C 208.33 192.63 209.57 192.57 210.19 192.54 C 208.37 195.73 208.33 200.24 205.14 202.44 C 205.63 200.52 206.25 198.64 206.91 196.78 C 206.85 196.40 206.74 195.64 206.68 195.26 C 205.57 198.32 204.23 201.32 202.51 204.09 C 202.42 203.45 202.24 202.16 202.14 201.52 C 201.23 202.36 200.34 203.21 199.40 204.01 C 199.84 203.02 200.72 201.05 201.16 200.06 L 198.56 201.23 C 199.46 199.16 200.73 197.25 202.63 195.98 L 202.32 199.21 C 202.71 198.33 203.10 197.46 203.47 196.58 C 203.24 195.21 203.42 193.84 204.06 192.58 C 204.50 192.89 205.39 193.49 205.83 193.80 C 206.37 193.00 206.77 192.13 207.05 191.20 C 207.71 189.83 208.37 188.47 209.02 187.10 C 207.71 188.44 206.42 189.81 205.06 191.10 C 205.57 189.42 206.52 187.96 207.34 186.44 C 210.34 180.62 215.61 176.26 219.46 171.01 C 219.57 170.57 219.77 169.68 219.87 169.24 C 223.13 166.05 225.50 161.63 229.82 159.76 C 230.33 158.75 230.82 157.73 231.31 156.70 L 228.46 158.80 C 227.92 156.48 230.76 154.77 231.87 157.19 C 233.78 154.56 235.17 150.66 238.80 150.11 C 238.99 150.57 239.37 151.48 239.57 151.93 C 240.62 149.96 242.07 148.24 243.87 146.90 C 243.07 148.63 242.25 150.35 241.40 152.06 C 243.61 153.02 243.33 155.51 241.42 156.56 C 240.89 158.18 241.16 160.34 239.78 161.52 C 237.93 162.37 237.24 164.22 236.52 165.98 C 239.75 166.69 241.14 164.09 242.59 161.89 L 242.62 163.70 C 244.32 161.87 246.05 159.99 248.36 158.92 C 248.42 159.59 248.54 160.95 248.60 161.63 L 250.41 161.75 C 253.08 162.85 249.31 164.29 248.63 165.47 C 250.10 165.00 251.58 164.52 253.06 164.04 C 252.47 164.99 251.30 166.89 250.72 167.85 C 253.30 165.43 255.60 162.74 258.04 160.18 L 256.10 159.51 C 258.02 158.78 259.94 158.03 261.69 156.95 C 262.60 154.41 265.44 152.89 265.51 150.05 L 265.56 151.60 C 266.31 150.66 267.06 149.73 267.80 148.78 C 269.66 145.51 270.93 141.91 272.50 138.56 C 273.06 138.31 274.18 137.81 274.75 137.56 C 274.02 139.84 273.13 142.06 272.43 144.35 M 271.46 145.18 C 270.57 146.10 269.67 147.02 268.80 147.95 L 268.75 149.13 C 269.56 148.88 271.19 148.39 272.01 148.14 C 270.51 150.52 269.17 153.02 268.28 155.71 L 265.66 155.55 C 266.61 153.91 267.63 152.30 268.40 150.56 C 265.01 151.94 264.16 155.71 262.92 158.76 C 265.19 157.21 267.80 156.00 270.61 156.67 C 270.13 153.02 272.29 149.78 273.84 146.65 C 273.04 146.17 272.24 145.69 271.46 145.18 M 283.93 145.45 C 283.67 146.66 283.39 147.87 283.10 149.07 C 282.92 149.58 282.56 150.60 282.38 151.11 C 281.75 152.12 281.12 153.14 280.52 154.17 C 283.52 155.91 280.45 158.14 278.52 158.93 C 281.39 161.51 277.73 163.71 275.92 165.47 C 274.44 164.40 272.89 163.43 271.20 162.75 C 272.69 165.04 275.33 166.08 277.66 167.30 C 277.70 166.51 277.77 164.93 277.81 164.14 C 280.00 162.35 281.81 160.17 283.85 158.22 L 282.06 158.20 C 283.02 156.46 284.08 154.79 285.15 153.12 C 284.33 153.69 282.70 154.83 281.89 155.40 C 282.99 152.11 284.15 148.85 285.25 145.56 L 283.93 145.45 M 308.92 153.40 C 307.60 156.33 305.32 159.26 301.99 159.86 C 303.00 158.54 304.05 157.26 305.14 156.00 L 306.03 156.00 L 305.76 154.66 C 303.80 156.09 302.16 157.89 300.73 159.84 C 300.23 160.10 299.24 160.61 298.75 160.86 C 298.35 162.04 297.95 163.21 297.55 164.39 C 298.56 163.87 299.57 163.34 300.58 162.82 C 303.35 161.14 306.24 159.22 307.84 156.32 C 308.10 156.27 308.62 156.16 308.88 156.11 C 309.12 156.48 309.59 157.22 309.83 157.59 C 311.34 156.13 312.79 154.60 314.23 153.06 C 313.20 153.25 312.18 153.43 311.17 153.60 L 310.76 153.39 C 310.30 153.40 309.38 153.40 308.92 153.40 M 276.65 153.16 C 276.33 155.03 274.40 157.30 276.09 158.99 C 277.43 157.59 278.59 156.04 279.84 154.56 C 279.04 154.21 277.45 153.51 276.65 153.16 M 270.23 162.14 C 270.84 162.78 270.84 162.78 270.23 162.14 M 295.20 164.04 C 296.55 164.29 297.15 163.72 297.01 162.34 C 295.64 162.07 295.03 162.64 295.20 164.04 M 282.26 163.77 C 283.29 165.30 284.27 166.92 284.52 168.79 C 286.18 168.74 286.14 166.46 286.98 165.39 C 286.00 164.33 285.02 163.27 284.07 162.21 C 283.61 162.60 282.71 163.38 282.26 163.77 M 306.56 165.75 C 305.16 166.05 302.87 171.07 305.62 168.96 C 306.76 168.48 309.34 165.09 306.56 165.75 M 278.71 167.23 C 278.69 168.92 281.62 170.35 283.22 170.19 C 282.68 168.54 280.33 167.49 278.71 167.23 M 225.23 168.17 C 225.76 168.82 225.76 168.82 225.23 168.17 M 283.22 170.19 L 283.31 171.08 C 285.44 172.08 285.00 168.32 283.22 170.19 M 312.54 177.61 C 313.48 178.95 314.41 180.30 315.34 181.66 C 315.66 181.01 316.30 179.72 316.61 179.07 C 315.11 177.46 312.70 176.59 312.31 174.15 C 312.40 175.30 312.48 176.45 312.54 177.61 Z" />
<path fill="#ffffff" opacity="1.00" d=" M 184.87 149.97 C 189.23 142.93 196.90 138.54 204.35 135.34 C 202.08 138.31 199.02 140.56 196.12 142.88 C 196.31 142.13 196.68 140.63 196.87 139.88 C 192.87 143.23 189.60 147.55 184.87 149.97 Z" />
<path fill="#ffffff" opacity="1.00" d=" M 204.90 140.20 C 206.88 137.75 209.32 135.70 211.95 133.98 C 210.15 136.58 207.81 138.89 204.90 140.20 Z" />
<path fill="#ffffff" opacity="1.00" d=" M 297.79 135.17 C 298.65 134.98 299.01 135.30 298.87 136.15 C 298.02 137.09 296.73 138.56 295.32 137.95 C 295.05 136.59 296.94 135.92 297.79 135.17 Z" />
<path fill="#ffffff" opacity="1.00" d=" M 296.48 139.85 C 298.33 137.89 300.42 136.19 302.38 134.35 C 303.58 134.79 305.76 134.97 304.96 136.84 C 304.48 137.35 303.54 138.38 303.06 138.89 C 302.45 138.29 301.24 137.09 300.63 136.48 L 300.14 137.85 C 301.57 138.72 303.01 139.61 304.42 140.53 L 302.60 140.41 L 302.56 143.08 C 304.60 142.42 305.47 140.40 306.60 138.80 L 303.96 138.32 C 305.19 137.30 306.62 137.08 308.07 137.77 C 308.69 137.25 309.31 136.73 309.94 136.21 C 309.34 138.06 308.66 139.89 308.01 141.73 C 309.26 141.23 310.56 140.75 311.82 140.26 C 309.09 142.50 306.55 144.95 303.92 147.30 C 302.32 146.42 301.40 144.89 300.57 143.34 C 299.48 142.02 297.87 140.68 299.17 138.87 L 296.48 139.85 Z" />
<path fill="#ffffff" opacity="1.00" d=" M 213.63 141.28 C 214.62 138.54 217.61 137.59 219.78 136.00 C 219.89 136.46 220.12 137.38 220.24 137.84 C 217.81 138.51 215.86 140.19 213.63 141.28 Z" />
<path fill="#ffffff" opacity="1.00" d=" M 251.30 139.41 C 252.43 138.25 253.23 136.54 254.91 136.08 C 255.74 137.30 256.59 138.54 257.50 139.72 C 256.40 140.73 255.32 141.74 254.13 142.64 C 253.13 141.61 252.18 140.54 251.30 139.41 Z" />
<path fill="#ffffff" opacity="1.00" d=" M 173.14 139.02 C 173.55 138.54 173.55 138.54 173.14 139.02 Z" />
<path fill="#ffffff" opacity="1.00" d=" M 264.58 138.35 C 264.45 138.74 264.18 139.54 264.04 139.93 L 265.76 139.35 C 265.68 140.15 265.53 141.76 265.45 142.57 C 266.02 141.79 267.15 140.25 267.71 139.47 C 267.75 140.27 267.82 141.87 267.86 142.66 C 268.74 142.04 270.52 140.78 271.40 140.15 C 269.92 143.20 268.05 146.03 266.07 148.77 C 266.05 148.15 266.01 146.92 265.99 146.31 C 264.91 149.02 263.82 145.52 263.14 144.67 C 260.46 146.05 259.04 148.52 258.14 151.29 C 260.29 154.36 256.34 157.47 254.27 159.45 C 254.70 157.36 255.73 155.52 257.05 153.86 C 256.35 153.20 256.18 152.48 256.55 151.69 C 258.10 149.78 258.03 146.70 260.58 145.75 C 260.46 144.78 260.21 142.83 260.09 141.86 C 260.85 142.22 261.61 142.57 262.38 142.92 C 262.79 142.51 263.60 141.70 264.00 141.30 C 263.18 140.98 262.37 140.66 261.58 140.31 C 262.33 139.82 263.83 138.84 264.58 138.35 M 264.25 143.26 C 264.89 143.72 264.89 143.72 264.25 143.26 Z" />
<path fill="#ffffff" opacity="1.00" d=" M 171.77 151.24 C 174.73 147.01 178.21 143.12 182.14 139.77 C 179.67 143.81 177.43 148.10 174.12 151.53 C 173.53 151.45 172.36 151.31 171.77 151.24 Z" />
<path fill="#ffffff" opacity="1.00" d=" M 200.42 142.91 C 201.78 142.07 203.17 141.28 204.62 140.61 C 202.81 144.08 198.87 145.52 196.27 148.28 C 192.55 151.54 190.27 156.41 185.83 158.80 C 187.36 155.18 190.78 152.95 192.96 149.78 C 191.13 150.73 189.47 151.97 187.72 153.07 C 188.48 148.56 192.57 145.37 196.12 142.88 C 195.60 143.71 194.57 145.38 194.05 146.22 C 195.91 145.21 197.67 144.01 199.31 142.67 C 199.59 142.73 200.14 142.85 200.42 142.91 Z" />
<path fill="#ffffff" opacity="1.00" d=" M 187.90 144.02 C 187.07 142.82 189.22 141.31 190.09 142.35 C 189.55 142.77 188.45 143.61 187.90 144.02 Z" />
<path fill="#ffffff" opacity="1.00" d=" M 199.91 150.56 C 204.09 146.70 209.16 143.96 214.07 141.16 C 211.86 144.90 207.35 146.29 204.94 149.90 C 204.95 149.32 204.97 148.15 204.98 147.57 C 203.83 149.34 201.99 150.39 199.91 150.56 Z" />
<path fill="#ffffff" opacity="1.00" d=" M 277.06 146.50 C 276.34 145.22 277.79 142.59 279.35 142.95 C 279.68 144.32 278.70 146.70 277.06 146.50 Z" />
<path fill="#ffffff" opacity="1.00" d=" M 187.19 144.12 L 187.90 144.02 L 187.84 144.74 L 187.14 144.82 L 187.19 144.12 Z" />
<path fill="#ffffff" opacity="1.00" d=" M 243.71 150.09 C 245.82 147.63 248.42 145.65 250.85 143.52 C 250.71 144.20 250.43 145.56 250.28 146.25 C 249.04 148.75 248.04 153.32 244.25 152.02 C 244.12 151.54 243.85 150.57 243.71 150.09 Z" />
<path fill="#ffffff" opacity="1.00" d=" M 185.62 145.96 C 185.81 145.62 186.18 144.93 186.37 144.59 L 187.14 144.82 C 186.94 145.17 186.52 145.88 186.32 146.24 L 185.62 145.96 Z" />
<path fill="#ffffff" opacity="1.00" d=" M 254.16 145.18 C 254.75 145.78 254.75 145.78 254.16 145.18 Z" />
<path fill="#ffffff" opacity="1.00" d=" M 251.22 150.80 C 254.15 149.40 255.52 146.33 257.85 144.24 C 256.22 147.40 256.45 152.22 253.19 154.09 C 253.44 155.13 253.70 156.17 253.98 157.21 C 252.72 158.01 251.89 159.24 251.13 160.49 L 249.50 160.57 C 249.27 158.88 249.02 157.19 248.90 155.49 C 249.08 154.39 251.71 152.71 250.32 151.92 C 249.05 153.83 247.92 155.85 246.53 157.68 C 246.29 157.04 245.83 155.77 245.60 155.14 C 245.10 156.37 244.34 157.40 243.30 158.20 C 243.77 156.71 244.39 155.27 244.94 153.80 C 245.80 152.09 246.40 154.61 246.66 155.24 C 247.42 153.62 248.36 152.09 249.35 150.59 C 249.53 149.85 249.90 148.36 250.08 147.62 C 250.87 147.52 252.44 147.32 253.23 147.22 C 252.35 148.31 251.68 149.51 251.22 150.80 Z" />
<path fill="#ffffff" opacity="1.00" d=" M 205.41 161.69 C 208.78 155.61 212.64 149.62 218.23 145.35 C 217.72 148.43 216.62 151.39 214.83 153.95 C 210.93 160.00 209.26 167.20 205.05 173.06 C 203.06 176.06 201.85 180.42 197.89 181.33 C 198.84 179.52 200.09 177.89 201.31 176.25 C 202.12 175.22 202.81 174.08 202.98 172.76 C 200.36 174.77 199.50 178.47 196.28 179.82 C 198.57 174.44 203.27 170.55 205.51 165.12 L 206.90 166.79 C 208.04 164.75 209.53 162.70 209.72 160.31 C 208.68 162.37 207.06 164.05 204.81 164.73 C 202.71 168.26 199.93 171.33 197.08 174.26 C 196.82 173.16 195.69 171.88 196.88 170.94 C 199.63 167.88 201.91 164.22 205.52 162.08 L 205.41 161.69 Z" />
<path fill="#ffffff" opacity="1.00" d=" M 271.37 147.37 C 271.65 147.65 271.65 147.65 271.37 147.37 Z" />
<path fill="#ffffff" opacity="1.00" d=" M 260.94 150.04 C 260.67 148.56 261.24 147.99 262.63 148.32 C 262.92 149.68 262.35 150.25 260.94 150.04 Z" />
<path fill="#ffffff" opacity="1.00" d=" M 236.37 149.37 C 236.66 149.66 236.66 149.66 236.37 149.37 Z" />
<path fill="#ffffff" opacity="1.00" d=" M 264.01 148.24 C 264.51 148.84 265.01 149.44 265.51 150.05 C 262.31 152.44 261.04 157.19 256.75 157.98 C 259.06 154.66 261.71 151.57 264.01 148.24 Z" />
<path fill="#ffffff" opacity="1.00" d=" M 194.80 162.88 C 199.59 158.02 202.67 151.65 208.58 147.90 C 208.49 150.99 209.06 154.44 205.77 156.15 C 205.12 155.76 203.82 154.98 203.17 154.59 L 203.57 155.98 C 201.17 157.32 199.43 159.50 197.81 161.65 C 197.06 161.96 195.55 162.57 194.80 162.88 Z" />
<path fill="#ffffff" opacity="1.00" d=" M 260.94 150.04 C 260.49 150.50 260.49 150.50 260.94 150.04 Z" />
<path fill="#ffffff" opacity="1.00" d=" M 199.01 152.51 C 200.23 152.00 201.36 150.88 202.79 151.13 C 201.65 153.61 199.03 155.46 196.39 156.13 L 196.61 154.31 C 195.81 154.46 195.02 154.59 194.22 154.70 C 194.16 154.22 194.06 153.25 194.00 152.77 C 195.66 152.62 197.33 152.46 199.01 152.51 Z" />
<path fill="#ffffff" opacity="1.00" d=" M 318.92 153.90 C 318.49 152.52 320.69 151.15 321.92 151.50 C 322.31 152.91 320.18 154.32 318.92 153.90 Z" />
<path fill="#ffffff" opacity="1.00" d=" M 304.80 152.16 C 304.18 152.82 304.18 152.82 304.80 152.16 Z" />
<path fill="#ffffff" opacity="1.00" d=" M 321.84 154.28 C 324.68 152.45 322.32 157.54 321.84 154.28 Z" />
<path fill="#ffffff" opacity="1.00" d=" M 178.04 159.97 C 179.63 158.26 180.29 154.87 183.11 155.03 C 182.37 156.29 181.58 157.54 180.79 158.78 C 179.59 161.58 178.29 164.33 176.91 167.05 C 175.11 167.09 173.56 168.08 172.02 168.88 C 173.13 167.05 174.20 165.19 175.24 163.32 C 173.87 164.29 172.50 165.26 171.12 166.21 C 172.73 164.04 174.21 161.73 176.10 159.78 C 176.59 159.83 177.56 159.93 178.04 159.97 Z" />
<path fill="#ffffff" opacity="1.00" d=" M 192.31 155.70 C 192.73 155.27 192.73 155.27 192.31 155.70 Z" />
<path fill="#ffffff" opacity="1.00" d=" M 192.31 155.70 C 191.60 156.49 191.60 156.49 192.31 155.70 Z" />
<path fill="#ffffff" opacity="1.00" d=" M 193.61 155.32 C 194.92 156.24 196.24 157.66 198.09 156.46 C 195.39 159.25 192.37 161.69 189.22 163.95 C 189.40 163.25 189.78 161.84 189.96 161.14 L 187.32 162.18 C 189.12 159.61 192.08 158.11 193.61 155.32 M 192.09 159.21 C 192.71 159.83 192.71 159.83 192.09 159.21 Z" />
<path fill="#ffffff" opacity="1.00" d=" M 203.03 156.57 C 203.57 157.04 204.10 157.52 204.64 158.00 C 201.30 162.22 198.35 166.72 194.91 170.86 L 194.67 170.12 C 194.09 168.56 196.25 167.41 196.75 166.06 C 193.38 168.57 191.16 172.16 188.27 175.13 C 190.76 171.16 192.56 166.87 194.17 162.48 C 194.67 163.38 195.16 164.30 195.64 165.22 C 198.07 162.31 200.76 159.62 203.03 156.57 Z" />
<path fill="#ffffff" opacity="1.00" d=" M 228.46 158.80 C 227.84 159.15 227.84 159.15 228.46 158.80 Z" />
<path fill="#ffffff" opacity="1.00" d=" M 324.20 158.28 C 325.48 158.97 325.43 159.63 324.07 160.27 C 322.80 159.56 322.84 158.90 324.20 158.28 Z" />
<path fill="#ffffff" opacity="1.00" d=" M 252.08 162.87 C 252.73 161.73 253.56 160.75 254.58 159.95 C 257.13 160.27 252.17 165.62 252.08 162.87 Z" />
<path fill="#ffffff" opacity="1.00" d=" M 326.20 163.01 C 327.73 162.16 328.10 164.68 326.76 165.08 C 325.19 165.98 324.81 163.41 326.20 163.01 Z" />
<path fill="#ffffff" opacity="1.00" d=" M 254.17 172.26 C 256.89 169.23 259.60 166.03 263.22 164.07 C 262.23 168.08 258.49 170.80 257.08 174.75 C 257.40 176.27 257.96 177.65 259.77 177.73 L 259.81 178.57 C 258.73 178.29 257.66 178.00 256.60 177.71 C 255.80 177.76 254.20 177.87 253.40 177.92 C 253.86 176.82 254.40 175.77 254.93 174.72 C 254.67 173.89 254.42 173.07 254.17 172.26 Z" />
<path fill="#ffffff" opacity="1.00" d=" M 258.72 172.32 C 260.47 169.51 262.36 166.66 265.28 164.94 C 265.64 165.32 266.34 166.09 266.69 166.47 C 267.36 166.40 268.71 166.24 269.38 166.16 C 269.57 166.89 269.94 168.33 270.13 169.05 C 270.78 169.04 272.08 169.01 272.73 169.00 C 274.14 170.10 275.65 171.09 276.98 172.31 C 276.25 173.95 273.72 173.06 272.37 173.54 C 273.78 173.83 275.18 174.25 276.17 175.39 C 274.58 175.02 271.40 174.30 269.81 173.93 C 270.77 173.41 271.73 172.91 272.70 172.43 C 272.23 172.34 271.27 172.16 270.80 172.07 C 269.17 173.51 267.70 175.88 265.08 175.11 C 265.83 174.56 266.60 174.02 267.38 173.51 L 264.87 174.02 L 265.74 171.60 C 265.04 172.48 264.30 173.33 263.53 174.16 C 261.98 171.66 265.84 170.67 265.76 168.31 C 264.45 169.17 263.25 170.34 263.05 171.98 C 261.97 172.06 259.81 172.23 258.72 172.32 Z" />
<path fill="#ffffff" opacity="1.00" d=" M 194.67 170.12 C 194.21 170.84 194.21 170.84 194.67 170.12 Z" />
<path fill="#ffffff" opacity="1.00" d=" M 221.84 170.91 C 221.46 171.42 221.46 171.42 221.84 170.91 Z" />
<path fill="#ffffff" opacity="1.00" d=" M 233.89 178.22 C 235.37 175.24 237.85 172.94 240.57 171.11 C 240.81 171.54 241.29 172.40 241.52 172.84 C 242.11 172.27 243.28 171.13 243.87 170.56 L 243.20 173.84 C 243.56 173.22 244.28 171.98 244.64 171.36 L 245.50 171.51 C 245.39 172.24 245.18 173.69 245.08 174.41 C 246.23 173.53 247.18 171.98 248.83 172.22 C 248.47 172.94 247.75 174.37 247.39 175.09 C 247.93 175.16 249.02 175.30 249.57 175.37 C 249.33 176.27 249.10 177.17 248.87 178.07 C 248.22 177.13 247.57 176.19 246.88 175.29 L 246.84 176.79 C 245.27 177.41 243.78 178.19 242.38 179.13 C 243.21 179.63 244.07 180.11 244.93 180.57 C 241.78 183.36 239.72 187.04 237.53 190.57 C 236.75 191.70 235.74 193.79 234.06 192.76 C 236.75 188.96 239.58 185.27 242.52 181.66 C 240.19 179.87 238.79 183.65 236.40 183.76 C 232.88 189.26 229.21 194.69 226.90 200.85 L 228.78 200.27 L 229.12 201.34 C 228.58 201.34 227.50 201.33 226.95 201.33 C 227.35 202.16 228.14 203.84 228.53 204.67 L 227.35 203.52 C 226.30 206.94 225.40 210.51 223.35 213.51 C 222.91 211.80 222.42 210.12 221.93 208.43 C 222.76 207.10 223.58 205.77 224.39 204.43 C 222.91 204.19 220.41 205.20 221.73 207.28 C 221.25 206.38 220.77 205.49 220.26 204.62 C 219.84 206.13 219.38 207.63 218.90 209.13 C 218.11 209.28 217.32 209.42 216.54 209.53 C 217.04 208.41 217.58 207.31 218.14 206.21 C 219.08 204.72 219.96 203.18 220.84 201.66 C 220.16 201.98 218.80 202.61 218.12 202.93 C 220.23 200.30 221.37 196.91 224.05 194.77 C 223.75 194.36 223.44 193.95 223.13 193.55 C 222.67 194.02 221.75 194.95 221.28 195.41 C 221.85 194.40 222.46 193.41 223.07 192.42 C 223.77 192.66 224.47 192.89 225.18 193.12 C 225.74 191.64 226.32 190.18 226.74 188.66 C 227.41 187.90 228.08 187.14 228.76 186.40 C 228.35 186.13 227.51 185.60 227.09 185.34 C 229.49 183.10 232.45 181.28 233.89 178.22 M 226.44 193.57 C 224.58 195.52 228.90 195.27 227.26 193.46 L 226.44 193.57 M 221.37 203.63 C 222.23 203.27 223.09 202.92 223.97 202.59 L 224.30 202.80 C 225.16 202.45 225.46 201.46 226.02 200.79 C 225.80 200.20 225.36 199.01 225.14 198.41 L 226.84 198.79 C 226.53 197.83 225.90 195.92 225.59 194.97 C 224.30 197.91 222.99 200.85 221.37 203.63 M 220.24 201.00 C 220.82 201.62 220.82 201.62 220.24 201.00 Z" />
<path fill="#ffffff" opacity="1.00" d=" M 323.12 180.07 C 320.26 177.47 322.49 174.23 323.44 171.34 C 325.70 172.66 327.93 174.07 328.94 176.61 L 329.14 174.06 C 329.65 174.32 330.67 174.85 331.18 175.12 C 330.24 178.87 326.35 178.23 323.55 177.32 C 323.44 178.01 323.23 179.38 323.12 180.07 Z" />
<path fill="#ffffff" opacity="1.00" d=" M 278.12 172.97 C 279.82 171.61 282.14 174.31 284.17 174.37 C 283.87 174.77 283.27 175.57 282.97 175.97 C 285.49 174.42 289.57 175.56 290.90 178.00 C 289.17 178.50 287.74 176.86 286.04 177.11 C 284.04 177.59 282.02 177.94 279.98 178.07 C 279.89 177.51 279.73 176.41 279.64 175.86 C 280.38 175.85 281.86 175.84 282.60 175.84 C 281.52 175.30 280.44 174.78 279.37 174.24 C 279.38 174.95 279.40 176.35 279.41 177.06 C 278.33 176.62 277.26 176.19 276.18 175.77 C 276.53 174.68 277.53 173.93 278.12 172.97 Z" />
<path fill="#ffffff" opacity="1.00" d=" M 259.54 174.61 C 261.67 172.99 262.19 176.01 260.60 177.02 C 258.86 177.96 257.06 175.03 259.54 174.61 Z" />
<path fill="#ffffff" opacity="1.00" d=" M 268.77 174.69 C 270.62 175.18 272.45 175.70 274.29 176.21 C 272.62 177.38 270.85 177.31 268.98 176.01 C 269.30 176.77 269.95 178.28 270.27 179.04 C 268.32 177.93 266.71 179.09 265.07 180.06 C 263.07 179.88 262.58 177.51 262.80 175.88 C 265.16 175.16 267.01 177.51 269.00 178.32 C 268.95 177.41 268.83 175.60 268.77 174.69 Z" />
<path fill="#ffffff" opacity="1.00" d=" M 206.25 175.33 C 206.60 175.96 206.95 176.60 207.29 177.24 C 206.26 179.59 202.23 181.53 203.53 184.28 C 204.17 183.29 205.44 181.32 206.08 180.33 C 206.50 180.90 206.91 181.47 207.32 182.05 C 204.92 184.08 203.19 187.11 200.05 188.08 C 200.46 187.32 201.29 185.81 201.71 185.05 C 201.18 184.98 200.11 184.83 199.58 184.76 C 202.10 181.84 204.61 178.85 206.25 175.33 Z" />
<path fill="#ffffff" opacity="1.00" d=" M 342.65 176.09 C 342.90 176.08 343.42 176.05 343.68 176.04 C 342.44 179.98 340.18 183.76 335.90 184.85 C 338.06 181.83 341.54 179.81 342.65 176.09 Z" />
<path fill="#ffffff" opacity="1.00" d=" M 182.09 180.97 C 181.96 179.33 183.70 177.26 185.20 176.82 C 185.31 178.40 183.79 180.93 182.09 180.97 Z" />
<path fill="#ffffff" opacity="1.00" d=" M 186.33 178.76 C 186.70 178.98 186.70 178.98 186.33 178.76 Z" />
<path fill="#ffffff" opacity="1.00" d=" M 271.18 178.51 C 272.32 178.02 273.97 178.31 274.80 179.26 C 274.61 180.96 270.75 180.12 271.18 178.51 Z" />
<path fill="#ffffff" opacity="1.00" d=" M 285.48 177.93 C 286.77 178.32 289.34 177.92 289.11 179.98 C 288.39 180.99 287.08 181.27 286.09 181.94 C 288.83 181.76 291.12 183.41 293.56 184.35 C 292.97 185.14 292.39 185.93 291.81 186.72 C 291.50 187.13 290.89 187.94 290.58 188.35 C 289.36 187.51 288.14 186.67 286.95 185.80 C 285.98 185.46 285.02 185.13 284.06 184.81 C 285.02 184.47 285.97 184.12 286.92 183.76 C 284.80 183.74 282.69 183.52 281.02 182.02 C 282.35 180.88 284.13 181.18 285.68 180.69 C 285.63 180.00 285.53 178.62 285.48 177.93 Z" />
<path fill="#ffffff" opacity="1.00" d=" M 230.30 181.04 C 230.10 179.64 230.69 179.06 232.06 179.31 C 232.24 180.70 231.65 181.28 230.30 181.04 Z" />
<path fill="#ffffff" opacity="1.00" d=" M 185.08 179.11 C 186.31 180.55 187.24 182.17 186.05 183.97 C 185.27 185.03 184.51 186.11 183.76 187.19 C 183.76 185.72 183.62 184.27 183.31 182.84 C 183.89 181.59 184.48 180.35 185.08 179.11 Z" />
<path fill="#ffffff" opacity="1.00" d=" M 239.93 187.97 C 243.62 184.41 247.99 181.61 252.84 179.94 C 252.16 181.59 251.42 183.20 250.71 184.84 L 249.48 184.10 C 249.36 185.28 249.11 187.63 248.99 188.80 C 249.86 188.09 251.62 186.67 252.49 185.95 C 253.67 191.38 251.34 196.68 251.44 202.11 C 251.35 205.07 252.14 208.22 250.31 210.85 C 249.51 209.10 250.21 206.40 248.07 205.43 C 248.28 207.05 248.74 208.63 249.45 210.11 C 249.66 212.12 249.93 214.12 250.16 216.13 C 249.64 216.11 248.60 216.07 248.08 216.04 C 248.14 216.51 248.25 217.45 248.30 217.92 L 247.34 218.06 C 246.44 215.05 246.24 211.91 246.30 208.79 C 245.80 208.39 244.80 207.60 244.31 207.20 C 244.66 206.39 245.37 204.77 245.73 203.96 C 244.86 204.19 243.13 204.64 242.27 204.86 C 242.36 204.12 242.54 202.63 242.63 201.89 C 242.09 203.16 241.56 204.45 241.04 205.73 C 241.73 205.51 243.11 205.08 243.80 204.86 C 243.27 207.08 242.52 209.25 242.16 211.50 C 242.52 210.55 243.23 208.63 243.59 207.67 C 245.58 213.17 243.52 219.07 245.65 224.54 C 244.83 224.39 244.01 224.24 243.20 224.10 C 242.98 221.97 242.75 219.85 242.46 217.74 C 241.84 221.01 241.91 224.37 242.77 227.60 C 241.61 227.53 240.46 227.50 239.31 227.49 C 238.87 227.18 237.98 226.54 237.54 226.23 C 237.81 221.41 237.97 216.50 236.48 211.84 C 235.09 216.29 236.02 220.92 235.55 225.46 C 235.09 223.08 234.99 220.65 234.65 218.25 C 234.01 220.48 234.97 224.06 231.87 224.77 C 232.24 218.60 233.60 212.52 235.25 206.57 C 234.57 206.60 233.20 206.64 232.52 206.66 C 233.03 205.71 233.59 204.78 234.14 203.85 C 233.98 203.65 233.66 203.23 233.50 203.03 C 232.55 204.33 232.42 206.65 230.75 207.21 L 230.04 206.91 C 230.01 206.27 229.95 204.99 229.92 204.35 C 229.44 204.76 228.49 205.59 228.02 206.00 C 228.15 205.67 228.40 205.01 228.53 204.67 C 229.99 201.18 231.54 197.69 233.63 194.53 C 234.67 194.07 235.76 194.13 236.90 194.70 C 236.29 195.13 235.07 195.98 234.46 196.41 C 235.58 198.24 234.22 200.36 234.10 202.29 C 236.12 198.84 236.96 194.59 240.20 191.96 C 241.47 191.22 242.85 192.01 244.01 192.59 C 244.25 192.32 244.75 191.77 244.99 191.49 C 244.50 190.95 244.02 190.41 243.54 189.87 C 244.03 189.44 245.00 188.58 245.49 188.15 C 243.71 188.68 241.99 189.47 240.15 189.76 C 240.10 189.31 239.99 188.42 239.93 187.97 M 249.45 193.85 C 249.23 194.62 248.77 196.16 248.54 196.93 C 248.06 197.01 247.11 197.16 246.64 197.24 L 247.67 198.91 C 247.12 199.46 246.01 200.56 245.46 201.11 C 245.41 202.76 245.93 204.21 247.04 205.46 C 247.78 202.72 247.29 199.67 248.84 197.18 C 249.09 198.02 249.59 199.71 249.84 200.56 C 249.76 198.32 249.61 196.09 249.45 193.85 Z" />
<path fill="#ffffff" opacity="1.00" d=" M 274.59 180.68 C 275.91 178.39 278.87 180.04 280.91 179.66 C 281.00 179.99 281.17 180.64 281.26 180.97 C 279.91 183.28 276.56 180.42 274.59 180.68 Z" />
<path fill="#ffffff" opacity="1.00" d=" M 262.43 181.44 C 263.63 181.74 264.83 182.04 266.04 182.34 C 265.25 183.49 264.45 184.64 263.63 185.77 C 262.07 185.13 260.47 184.49 259.14 183.43 C 260.19 182.70 261.32 182.08 262.43 181.44 Z" />
<path fill="#ffffff" opacity="1.00" d=" M 212.90 185.90 C 213.11 184.36 214.20 182.13 215.77 181.84 C 215.87 183.28 214.90 184.62 214.22 185.84 C 213.89 185.85 213.23 185.88 212.90 185.90 Z" />
<path fill="#ffffff" opacity="1.00" d=" M 253.48 185.78 C 255.13 184.53 256.55 183.00 258.24 181.78 C 258.36 183.84 256.61 184.92 255.32 186.18 L 256.67 186.33 C 255.81 190.23 254.25 194.28 255.60 198.28 C 256.20 194.54 257.07 190.86 258.32 187.29 C 259.78 187.54 261.45 187.20 262.77 187.99 C 262.17 190.53 260.84 193.09 258.11 193.78 C 256.81 196.97 255.61 200.20 254.55 203.48 C 253.91 201.67 253.13 199.94 252.46 198.15 C 252.95 194.04 253.62 189.94 253.48 185.78 Z" />
<path fill="#ffffff" opacity="1.00" d=" M 266.87 187.03 C 267.39 185.59 267.68 183.99 268.86 182.92 C 269.90 183.54 270.93 184.19 271.95 184.87 C 270.57 185.47 269.67 186.47 269.26 187.85 C 268.46 187.57 267.66 187.30 266.87 187.03 Z" />
<path fill="#ffffff" opacity="1.00" d=" M 330.30 183.38 C 331.67 184.23 329.62 187.42 328.10 186.57 C 327.35 185.20 329.11 183.75 330.30 183.38 Z" />
<path fill="#ffffff" opacity="1.00" d=" M 217.09 184.48 C 220.40 184.86 215.33 187.29 217.09 184.48 Z" />
<path fill="#ffffff" opacity="1.00" d=" M 272.35 185.05 C 273.23 185.10 273.60 185.62 273.47 186.61 C 272.88 187.72 271.30 188.64 270.06 188.19 C 269.91 186.82 271.36 185.77 272.35 185.05 Z" />
<path fill="#ffffff" opacity="1.00" d=" M 273.29 190.31 C 273.88 188.37 275.18 186.79 276.78 185.60 C 276.77 186.49 276.73 188.29 276.71 189.19 C 277.30 188.58 278.48 187.37 279.07 186.76 C 279.49 187.24 280.33 188.20 280.74 188.68 C 281.26 188.34 282.28 187.66 282.79 187.31 C 282.55 187.91 282.06 189.10 281.82 189.69 C 283.17 189.66 284.51 189.61 285.86 189.54 C 285.17 190.59 284.50 191.66 283.81 192.72 C 283.22 192.11 282.64 191.50 282.06 190.89 C 280.05 191.73 277.03 192.21 276.25 189.53 C 275.51 189.72 274.03 190.11 273.29 190.31 Z" />
<path fill="#ffffff" opacity="1.00" d=" M 212.48 187.24 C 212.77 187.56 212.77 187.56 212.48 187.24 Z" />
<path fill="#ffffff" opacity="1.00" d=" M 199.04 194.12 C 200.74 192.01 202.53 189.98 204.31 187.93 C 204.41 189.04 204.52 190.15 204.64 191.26 C 202.29 193.75 200.73 197.05 197.76 198.89 L 199.74 195.08 L 196.81 196.55 C 197.55 195.73 198.29 194.92 199.04 194.12 Z" />
<path fill="#ffffff" opacity="1.00" d=" M 333.54 189.39 C 333.85 189.45 334.49 189.57 334.81 189.63 C 334.03 191.20 333.22 192.76 332.41 194.31 C 331.36 194.71 330.34 195.15 329.28 195.49 C 328.36 194.30 329.83 193.62 330.50 192.81 C 331.14 192.71 332.40 192.52 333.03 192.43 C 333.16 191.67 333.41 190.15 333.54 189.39 Z" />
<path fill="#ffffff" opacity="1.00" d=" M 211.65 193.82 C 211.98 191.47 213.85 190.06 215.67 188.81 C 215.18 191.01 211.99 193.63 214.37 195.72 C 216.05 197.46 214.78 199.97 214.76 202.06 C 214.34 201.53 213.50 200.47 213.08 199.93 C 212.47 201.60 212.35 203.87 210.17 204.20 C 209.53 205.32 208.92 206.46 208.14 207.49 C 207.94 202.66 210.62 198.42 211.65 193.82 Z" />
<path fill="#ffffff" opacity="1.00" d=" M 287.59 193.47 C 288.34 192.87 289.14 192.33 289.97 191.84 C 290.43 192.75 290.85 193.68 291.23 194.63 C 290.00 194.27 288.79 193.88 287.59 193.47 Z" />
<path fill="#ffffff" opacity="1.00" d=" M 299.48 193.21 C 301.01 191.14 303.06 190.82 305.32 191.83 C 305.31 193.22 305.34 194.61 305.41 196.01 C 303.45 195.01 301.48 194.10 299.48 193.21 Z" />
<path fill="#ffffff" opacity="1.00" d=" M 307.02 195.47 C 305.75 194.68 305.63 193.85 306.66 192.99 C 307.96 193.77 308.08 194.60 307.02 195.47 Z" />
<path fill="#ffffff" opacity="1.00" d=" M 309.09 193.21 C 309.85 192.97 311.39 192.50 312.16 192.27 C 313.04 194.05 313.26 196.05 313.39 198.01 C 312.11 196.52 311.01 194.93 309.96 193.28 C 309.99 194.35 310.05 196.47 310.08 197.53 C 308.51 196.35 308.18 194.91 309.09 193.21 Z" />
<path fill="#ffffff" opacity="1.00" d=" M 265.82 193.40 C 266.67 194.08 267.52 194.78 268.35 195.50 C 270.73 195.80 272.98 196.66 274.88 198.15 C 274.82 198.80 274.70 200.10 274.64 200.75 C 275.05 201.27 275.86 202.31 276.26 202.83 C 275.86 202.68 275.05 202.38 274.65 202.22 C 271.19 203.28 270.84 198.83 268.97 196.95 C 269.06 200.75 271.82 203.51 273.94 206.36 C 273.83 207.01 273.63 208.32 273.52 208.98 C 268.63 208.54 269.49 202.43 267.75 199.14 C 267.34 200.25 266.57 201.46 267.29 202.65 C 268.27 206.45 269.55 210.18 270.34 214.03 C 269.27 212.76 268.59 211.23 268.09 209.66 C 267.79 209.55 267.19 209.33 266.89 209.22 C 266.39 210.36 265.56 210.86 264.42 210.72 C 264.01 208.60 263.83 206.46 263.52 204.33 C 264.02 204.49 265.02 204.81 265.52 204.97 C 265.21 203.00 265.18 201.03 265.27 199.05 C 265.83 199.12 266.95 199.26 267.51 199.33 C 266.89 197.36 266.30 195.40 265.82 193.40 Z" />
<path fill="#ffffff" opacity="1.00" d=" M 292.02 197.24 C 293.43 195.75 295.12 194.64 297.28 194.80 C 296.53 196.19 295.75 197.56 294.96 198.92 C 294.85 198.46 294.64 197.55 294.54 197.09 C 293.91 197.13 292.65 197.20 292.02 197.24 Z" />
<path fill="#ffffff" opacity="1.00" d=" M 230.34 196.31 C 230.88 196.90 230.88 196.90 230.34 196.31 Z" />
<path fill="#ffffff" opacity="1.00" d=" M 298.33 197.12 C 299.61 197.75 299.58 198.43 298.25 199.15 C 296.98 198.51 297.01 197.83 298.33 197.12 Z" />
<path fill="#ffffff" opacity="1.00" d=" M 300.23 199.47 C 300.80 198.69 301.37 197.91 301.96 197.14 C 302.06 197.47 302.28 198.14 302.38 198.48 C 304.79 196.93 305.94 198.59 306.77 200.64 C 308.68 197.87 312.17 199.82 314.88 199.63 C 314.92 200.14 315.00 201.17 315.04 201.69 C 311.38 201.35 307.71 201.22 304.05 200.92 C 303.58 200.41 302.62 199.39 302.14 198.89 C 301.66 199.03 300.71 199.32 300.23 199.47 Z" />
<path fill="#ffffff" opacity="1.00" d=" M 257.37 204.71 C 258.81 203.64 260.33 206.16 259.14 207.25 C 257.66 208.46 256.17 205.77 257.37 204.71 Z" />
<path fill="#ffffff" opacity="1.00" d=" M 227.29 207.24 C 227.83 207.81 227.83 207.81 227.29 207.24 Z" />
<path fill="#ffffff" opacity="1.00" d=" M 229.31 205.71 L 230.04 206.91 C 230.45 209.65 228.74 212.21 227.62 214.61 C 226.99 214.55 225.73 214.45 225.09 214.39 L 225.57 215.77 C 225.20 215.78 224.47 215.80 224.11 215.81 C 224.44 214.96 224.77 214.11 225.11 213.26 C 225.60 213.44 226.60 213.81 227.10 213.99 C 226.80 212.56 226.46 211.15 226.13 209.74 C 226.49 210.26 227.23 211.30 227.60 211.81 C 228.02 209.74 228.52 207.68 229.31 205.71 Z" />
<path fill="#ffffff" opacity="1.00" d=" M 228.20 221.32 C 229.75 216.50 229.32 210.81 232.43 206.67 C 233.02 211.66 230.93 216.43 230.34 221.33 C 229.81 221.33 228.74 221.32 228.20 221.32 Z" />
<path fill="#ffffff" opacity="1.00" d=" M 258.47 216.95 C 257.21 214.91 257.19 211.85 259.37 210.34 L 259.24 212.94 C 259.74 212.83 260.75 212.62 261.25 212.51 C 261.95 215.87 262.79 219.20 263.90 222.45 C 262.78 222.38 261.67 222.34 260.56 222.30 C 259.94 221.26 259.32 220.22 258.69 219.19 C 258.63 218.63 258.53 217.51 258.47 216.95 Z" />
<path fill="#ffffff" opacity="1.00" d=" M 264.98 216.11 C 264.30 214.37 262.61 212.00 265.13 210.79 C 265.73 212.75 266.29 214.73 266.88 216.71 C 266.40 216.56 265.45 216.26 264.98 216.11 Z" />
<path fill="#ffffff" opacity="1.00" d=" M 254.27 213.87 C 256.10 218.58 259.17 223.11 259.10 228.32 C 257.94 227.69 256.80 227.04 255.67 226.39 C 254.88 224.44 254.11 222.48 253.38 220.51 C 254.05 220.75 255.38 221.22 256.05 221.46 C 255.44 218.93 254.50 216.47 254.27 213.87 Z" />
</g>
</svg>
