<?xml version="1.0" encoding="UTF-8" ?>
<!DOCTYPE svg PUBLIC "-//W3C//DTD SVG 1.1//EN" "http://www.w3.org/Graphics/SVG/1.1/DTD/svg11.dtd">
<svg width="512pt" height="256pt" viewBox="0 0 512 256" version="1.1" xmlns="http://www.w3.org/2000/svg">
<g id="#ffffffff">
<path fill="#ffffff" opacity="1.00" d=" M 236.00 15.86 C 237.29 14.50 237.73 12.72 238.06 10.93 C 238.17 11.83 238.40 13.62 238.51 14.52 C 239.22 13.76 240.64 12.24 241.35 11.49 C 241.13 13.86 241.92 17.03 239.34 18.38 C 239.04 17.69 238.45 16.33 238.15 15.65 C 236.91 15.82 235.67 15.99 234.45 16.24 C 235.31 16.40 237.01 16.73 237.86 16.89 C 237.52 18.31 237.36 19.74 237.39 21.19 C 236.79 20.58 235.60 19.35 235.01 18.73 C 235.81 20.40 236.73 22.05 237.02 23.92 C 235.14 22.18 233.65 20.09 232.02 18.14 C 231.48 18.93 230.95 19.74 230.45 20.56 C 229.76 20.95 229.09 21.34 228.42 21.75 C 229.45 22.97 229.93 24.40 229.37 25.90 C 226.30 25.03 223.01 24.61 220.41 22.61 C 221.26 22.63 222.97 22.67 223.82 22.69 L 222.67 20.44 C 223.76 20.87 224.83 21.33 225.90 21.81 C 221.40 15.87 228.73 22.48 228.75 17.99 L 230.39 20.02 C 230.37 19.42 230.33 18.23 230.31 17.63 C 231.44 17.20 232.55 16.75 233.66 16.26 C 233.54 15.50 233.32 13.97 233.21 13.20 C 234.26 15.06 235.21 14.69 236.00 12.85 L 236.00 15.86 Z" />
<path fill="#ffffff" opacity="1.00" d=" M 242.09 18.57 C 242.07 15.76 241.87 12.71 244.05 10.57 C 244.05 11.33 244.03 12.86 244.03 13.63 C 245.73 11.37 248.76 13.20 250.89 11.62 C 251.20 12.57 251.82 14.48 252.14 15.43 C 252.41 14.22 252.96 11.79 253.23 10.58 C 253.78 11.44 254.29 12.33 254.76 13.25 C 255.44 14.36 255.46 15.66 255.52 16.91 C 254.83 17.89 254.17 18.89 253.53 19.90 C 252.38 19.26 251.24 18.63 250.11 17.95 C 249.56 17.73 248.45 17.29 247.89 17.07 C 246.43 17.47 244.97 17.22 243.54 16.83 C 243.73 16.02 244.10 14.40 244.29 13.59 C 243.44 15.20 242.85 16.93 242.09 18.57 Z" />
<path fill="#ffffff" opacity="1.00" d=" M 255.98 17.72 L 257.06 17.39 C 257.00 19.67 257.23 21.95 257.70 24.19 C 257.10 24.28 255.89 24.46 255.29 24.56 L 254.22 22.84 C 254.71 21.10 255.33 19.41 255.98 17.72 Z" />
<path fill="#ffffff" opacity="1.00" d=" M 217.67 24.61 C 219.57 25.21 221.50 25.76 223.40 26.38 C 221.39 26.87 219.97 28.62 217.87 28.83 C 218.34 29.26 219.28 30.13 219.75 30.56 C 219.29 30.70 218.38 30.99 217.92 31.13 C 217.09 32.40 216.34 33.72 215.66 35.08 C 216.29 36.11 217.90 36.12 218.36 37.27 C 219.03 39.66 219.93 41.97 221.31 44.06 C 222.10 42.45 222.34 40.70 222.09 38.93 C 223.30 40.50 223.64 42.77 225.52 43.76 C 225.93 44.22 226.73 45.13 227.14 45.59 C 226.80 46.46 225.79 47.94 227.47 47.94 L 227.92 49.21 L 229.08 48.86 L 228.68 50.29 C 228.81 50.44 229.08 50.74 229.21 50.88 C 229.41 50.16 229.63 49.45 229.87 48.73 C 229.82 47.19 229.50 45.66 229.33 44.13 C 230.90 46.24 232.30 48.49 232.91 51.08 C 232.45 51.32 231.52 51.80 231.06 52.04 C 229.82 53.30 228.13 52.70 226.62 52.61 C 225.71 49.79 221.90 47.38 224.20 44.25 C 223.54 44.95 222.88 45.65 222.23 46.37 C 220.75 44.57 219.15 42.87 217.63 41.11 C 217.69 42.40 217.73 43.69 217.75 44.98 L 218.61 44.32 C 220.49 46.62 222.51 48.81 224.27 51.21 C 224.35 52.94 224.40 54.68 224.43 56.42 C 222.36 54.19 220.48 51.79 218.84 49.23 C 218.23 49.33 217.01 49.53 216.40 49.63 C 216.48 49.07 216.64 47.95 216.72 47.38 L 215.65 47.71 C 215.28 46.77 215.04 45.77 214.60 44.87 C 216.80 44.96 217.35 43.73 216.75 41.86 C 216.59 40.21 217.39 38.08 215.95 36.82 C 214.68 35.95 213.35 37.11 212.21 37.62 C 213.12 40.29 211.14 41.88 209.08 42.87 L 210.89 44.30 C 209.46 43.83 208.05 43.27 206.68 42.66 C 207.41 41.48 208.22 40.34 209.20 39.34 C 208.82 38.63 208.47 37.92 208.10 37.21 C 208.60 37.61 209.61 38.41 210.11 38.81 C 210.87 37.69 211.91 36.82 212.99 36.03 C 212.22 35.77 210.67 35.25 209.90 34.99 L 211.44 34.90 C 211.43 33.58 211.87 32.36 212.55 31.27 C 213.33 31.17 214.91 30.96 215.69 30.85 C 215.76 30.67 215.91 30.31 215.98 30.13 L 213.93 28.96 C 214.86 29.04 216.72 29.21 217.65 29.29 L 217.73 28.20 L 215.21 28.01 C 216.22 26.04 218.39 27.76 219.79 26.76 C 219.66 25.72 218.28 25.37 217.67 24.61 Z" />
<path fill="#ffffff" opacity="1.00" d=" M 295.28 23.40 C 296.12 23.43 297.80 23.47 298.65 23.50 C 298.66 24.24 298.69 25.74 298.71 26.49 C 299.30 25.82 300.49 24.49 301.08 23.83 C 300.94 24.81 300.66 26.78 300.52 27.76 C 301.00 27.74 301.95 27.69 302.42 27.66 C 302.25 28.75 302.07 29.84 301.88 30.93 C 300.95 30.82 299.09 30.60 298.16 30.49 C 298.19 31.09 298.25 32.30 298.29 32.91 C 297.19 31.45 296.19 29.93 295.08 28.49 C 295.31 29.75 295.59 31.01 295.87 32.26 C 294.48 32.31 293.09 32.36 291.71 32.40 C 291.66 33.07 291.56 34.41 291.51 35.09 C 290.35 36.00 289.93 37.24 290.26 38.79 L 288.74 37.64 C 289.92 39.23 289.41 41.12 289.47 42.90 C 288.90 42.77 287.76 42.49 287.19 42.36 C 288.87 43.48 290.88 46.44 288.30 47.81 C 288.99 49.18 289.62 50.57 290.19 52.00 C 291.36 52.27 292.52 52.60 293.67 52.98 C 291.59 53.96 289.75 53.72 288.15 52.27 L 288.81 54.00 C 289.82 54.53 290.82 55.07 291.81 55.63 C 290.33 55.73 288.86 55.83 287.39 55.93 C 284.73 54.10 282.42 51.69 279.36 50.51 C 279.32 48.77 279.56 46.32 281.91 46.45 C 283.26 46.55 284.15 45.26 282.91 44.33 C 282.47 44.65 281.57 45.27 281.13 45.58 C 280.70 45.29 279.86 44.71 279.43 44.42 C 278.97 45.31 278.37 46.09 277.62 46.76 L 279.56 46.63 C 278.63 47.34 277.69 48.03 276.75 48.71 C 275.93 48.26 274.29 47.36 273.47 46.90 C 273.79 46.57 274.42 45.91 274.73 45.58 C 274.04 45.48 272.67 45.27 271.99 45.17 C 271.50 43.46 271.54 41.43 269.79 40.41 C 269.74 41.09 269.64 42.46 269.59 43.14 L 269.01 43.31 C 268.68 41.94 267.92 40.89 266.72 40.15 C 265.81 40.97 264.92 41.80 264.03 42.64 C 265.49 42.96 266.95 43.28 268.42 43.61 C 269.76 44.99 271.13 46.35 272.43 47.78 C 271.03 49.25 269.58 50.69 268.22 52.21 C 267.31 51.72 266.41 51.22 265.52 50.71 C 263.04 47.90 259.67 44.88 260.31 40.72 C 262.24 42.21 266.47 42.09 265.51 38.73 C 267.30 39.44 268.93 36.99 270.57 38.65 C 273.20 39.47 273.50 43.21 276.70 42.86 C 276.07 42.40 274.80 41.47 274.17 41.00 C 274.17 40.27 274.17 38.79 274.17 38.06 C 275.63 38.97 277.13 39.82 278.67 40.58 C 276.79 37.78 273.11 37.00 271.37 34.13 C 272.57 34.51 273.77 34.90 274.96 35.33 L 274.55 32.79 C 275.98 33.55 277.39 34.41 278.87 35.07 C 277.98 33.89 277.09 32.71 276.23 31.52 C 277.71 31.42 279.20 31.37 280.69 31.37 C 280.26 30.83 279.39 29.74 278.96 29.19 C 279.52 29.26 280.66 29.41 281.23 29.48 C 281.23 28.94 281.23 27.85 281.23 27.30 C 281.88 27.70 283.18 28.51 283.83 28.92 C 283.68 28.34 283.38 27.17 283.24 26.59 C 284.84 26.60 286.46 26.60 288.07 26.60 C 287.96 26.25 287.72 25.54 287.61 25.18 C 288.28 25.22 289.61 25.29 290.28 25.32 C 291.11 26.46 292.78 28.73 293.61 29.86 C 293.13 28.34 292.18 25.31 291.71 23.79 C 292.10 24.21 292.89 25.06 293.28 25.48 C 294.21 25.48 295.13 25.50 296.06 25.54 C 295.86 25.00 295.47 23.94 295.28 23.40 Z" />
<path fill="#ffffff" opacity="1.00" d=" M 257.18 25.21 C 257.42 25.19 257.90 25.14 258.15 25.11 C 258.04 25.89 257.82 27.45 257.71 28.23 C 259.34 29.61 257.98 31.79 258.23 33.57 C 258.38 37.33 259.33 41.03 259.38 44.81 C 261.19 47.63 263.84 49.76 265.87 52.38 C 265.82 54.19 263.62 52.69 263.07 51.98 C 260.54 49.58 256.63 47.00 257.41 43.01 C 257.52 40.27 257.00 37.56 256.51 34.88 C 256.49 33.06 256.34 31.24 256.31 29.41 L 255.27 29.20 C 255.83 27.84 256.43 26.49 257.18 25.21 Z" />
<path fill="#ffffff" opacity="1.00" d=" M 271.15 37.25 C 272.31 36.62 274.19 38.07 273.70 39.35 C 272.58 39.86 270.91 38.39 271.15 37.25 Z" />
<path fill="#ffffff" opacity="1.00" d=" M 295.13 41.77 C 296.00 40.81 296.89 39.88 297.79 38.94 C 298.05 39.43 298.55 40.42 298.80 40.91 C 298.21 40.87 297.03 40.81 296.44 40.78 C 296.86 41.72 297.70 43.62 298.11 44.56 C 297.02 43.73 296.03 42.80 295.13 41.77 Z" />
<path fill="#ffffff" opacity="1.00" d=" M 204.97 43.21 C 206.65 44.35 208.29 45.54 209.90 46.78 C 209.09 47.48 208.28 48.17 207.45 48.84 L 207.56 50.02 C 206.69 49.59 205.82 49.17 204.95 48.73 L 207.67 48.25 C 207.12 47.82 206.01 46.95 205.46 46.51 C 205.73 46.26 206.28 45.76 206.55 45.51 C 206.15 44.94 205.37 43.79 204.97 43.21 Z" />
<path fill="#ffffff" opacity="1.00" d=" M 295.25 43.94 C 296.44 43.70 297.48 45.76 296.87 46.75 C 295.50 47.18 294.63 44.96 295.25 43.94 Z" />
<path fill="#ffffff" opacity="1.00" d=" M 294.43 49.75 C 293.78 48.65 293.90 47.75 294.80 47.06 C 296.07 47.12 296.96 48.87 296.29 49.95 C 295.83 49.90 294.90 49.80 294.43 49.75 Z" />
<path fill="#ffffff" opacity="1.00" d=" M 212.74 48.20 C 215.09 48.99 216.46 52.41 219.25 51.36 L 218.54 52.07 C 221.06 54.30 223.96 57.07 223.95 60.66 C 222.68 60.22 221.50 60.71 220.47 61.48 L 220.60 60.57 C 218.06 56.40 215.07 52.50 212.74 48.20 M 218.00 54.26 C 217.88 55.94 219.86 57.83 221.26 58.59 C 221.18 56.95 219.88 54.24 218.00 54.26 M 221.26 58.59 C 221.71 58.93 221.71 58.93 221.26 58.59 Z" />
<path fill="#ffffff" opacity="1.00" d=" M 251.81 53.82 C 252.96 52.20 254.01 50.51 255.07 48.82 C 255.16 49.44 255.33 50.68 255.42 51.31 L 256.30 49.82 C 256.17 51.21 256.05 52.60 256.09 53.99 C 258.08 56.10 260.35 58.20 260.84 61.22 L 261.61 61.15 C 261.39 63.49 263.04 65.13 264.33 66.87 C 263.09 66.40 260.60 65.47 259.36 65.01 C 259.47 65.75 259.68 67.25 259.78 68.00 C 257.93 67.04 256.54 65.61 258.17 63.70 C 257.63 62.62 257.22 61.50 256.93 60.33 C 255.76 57.77 253.75 55.80 251.81 53.82 Z" />
<path fill="#ffffff" opacity="1.00" d=" M 266.53 52.49 C 269.54 53.04 270.85 50.03 272.63 48.30 C 274.07 49.24 275.30 50.66 277.14 50.86 C 275.13 52.18 273.22 53.70 271.85 55.69 C 273.79 54.09 275.81 52.60 277.89 51.18 C 280.56 52.78 283.18 54.44 285.83 56.09 C 284.99 56.62 284.12 57.09 283.22 57.48 C 284.61 58.00 286.09 57.31 287.52 57.33 C 288.99 58.72 290.57 59.98 292.32 61.00 C 292.24 61.54 292.09 62.61 292.01 63.14 C 292.64 63.24 293.89 63.44 294.52 63.54 C 294.31 64.75 293.25 67.08 294.98 67.60 C 296.32 68.13 297.70 68.56 299.06 69.01 C 298.41 69.23 297.10 69.68 296.45 69.90 C 297.47 71.47 299.21 72.03 300.89 72.60 C 300.68 73.39 300.25 74.97 300.03 75.75 C 300.96 75.66 302.82 75.47 303.75 75.38 C 303.64 75.70 303.43 76.34 303.33 76.66 C 305.01 77.36 306.27 78.64 307.62 79.81 C 307.13 80.18 306.16 80.92 305.68 81.29 C 306.84 81.88 308.01 82.46 309.19 83.03 C 309.24 83.60 309.34 84.74 309.39 85.32 L 308.19 85.05 L 307.93 85.92 L 309.78 85.34 C 309.57 86.04 309.15 87.44 308.94 88.14 C 309.47 87.67 310.54 86.74 311.08 86.27 C 311.64 87.95 313.52 89.95 311.02 90.99 C 312.00 90.84 313.98 90.55 314.96 90.40 C 314.64 90.93 313.98 91.98 313.66 92.51 C 314.10 92.82 314.99 93.46 315.43 93.78 C 314.74 93.98 313.37 94.39 312.68 94.60 C 313.39 94.56 314.80 94.49 315.50 94.46 C 316.02 95.34 316.50 96.24 316.96 97.15 C 314.93 96.02 313.39 96.95 312.19 98.73 C 312.60 98.70 313.42 98.65 313.82 98.63 C 313.80 99.53 313.76 101.32 313.74 102.22 C 312.76 101.82 310.78 101.00 309.79 100.59 C 307.50 100.74 305.92 98.96 304.33 97.62 C 305.97 97.68 307.62 97.71 309.27 97.72 C 308.20 97.46 307.13 97.23 306.06 97.02 C 306.32 96.20 306.83 94.56 307.09 93.74 L 308.20 94.69 C 308.23 94.04 308.27 92.75 308.30 92.11 C 308.04 92.06 307.53 91.97 307.28 91.92 L 308.09 93.88 L 304.31 93.16 C 305.35 91.86 306.30 90.50 307.21 89.11 C 306.84 89.42 306.11 90.06 305.74 90.37 C 303.88 90.67 302.08 92.09 300.18 90.69 L 300.50 89.41 C 301.22 89.52 302.66 89.72 303.38 89.83 C 302.92 89.56 302.01 89.01 301.55 88.74 C 301.50 86.97 301.65 85.18 302.28 83.51 C 301.44 84.33 300.61 85.16 299.77 85.98 C 299.36 85.38 298.54 84.18 298.12 83.58 L 297.91 83.56 C 297.49 82.51 297.02 81.48 296.50 80.48 C 294.33 79.61 291.83 79.87 289.64 79.01 C 288.74 81.57 285.12 79.96 284.22 81.34 C 287.15 80.91 290.28 81.96 293.00 80.41 C 294.68 81.20 296.18 82.27 297.76 83.24 C 297.03 83.46 295.57 83.90 294.84 84.13 C 296.01 84.34 297.18 84.55 298.36 84.75 C 299.46 86.54 298.68 87.97 296.68 88.44 C 293.54 87.67 291.38 84.54 287.87 85.32 C 291.08 87.23 294.91 87.92 298.09 89.97 C 300.75 91.98 303.54 93.79 306.12 95.90 C 304.63 95.59 303.18 95.19 301.75 94.71 C 299.57 94.46 297.33 95.16 295.27 94.38 C 293.22 92.18 290.61 90.65 288.09 89.06 C 291.14 91.74 295.26 94.17 296.83 97.88 C 295.03 100.48 293.80 96.24 292.71 95.05 C 292.49 95.59 292.05 96.66 291.83 97.20 L 291.43 97.39 C 291.04 97.07 290.27 96.44 289.88 96.12 C 290.95 97.18 291.38 98.32 291.16 99.53 C 288.71 100.69 287.55 97.00 285.82 95.85 C 286.62 97.47 287.56 99.01 288.43 100.60 C 287.02 99.82 285.64 99.03 284.23 98.28 C 284.29 97.99 284.40 97.42 284.45 97.13 L 283.14 96.43 C 283.12 96.17 283.06 95.65 283.04 95.39 L 283.36 94.35 L 283.30 92.70 C 284.14 93.07 285.80 93.81 286.64 94.18 C 283.93 91.14 280.27 89.09 277.93 85.70 C 276.72 86.68 274.40 87.18 275.49 89.22 C 276.49 88.62 277.36 87.87 278.13 86.97 C 278.21 87.67 278.37 89.08 278.46 89.79 C 279.59 91.41 283.96 94.78 280.23 95.90 C 279.36 94.74 278.54 93.55 277.68 92.38 L 277.06 92.08 L 276.36 91.84 L 275.36 92.03 L 275.64 90.15 L 273.88 90.91 C 274.11 89.66 274.36 88.41 274.62 87.17 C 270.27 87.47 266.57 84.57 262.61 83.19 L 262.52 85.68 L 263.81 85.26 L 263.10 87.50 L 264.67 86.22 C 267.03 88.21 269.32 90.28 271.46 92.51 C 270.52 92.94 269.60 93.38 268.67 93.83 C 273.01 94.64 274.84 98.77 276.82 102.17 C 275.92 99.80 274.82 97.49 273.47 95.35 C 273.83 92.05 270.27 90.38 269.23 87.53 C 273.00 89.32 274.61 93.45 277.31 96.38 L 278.96 96.58 C 278.62 97.96 278.30 99.34 277.99 100.72 L 279.22 100.22 C 279.52 102.16 280.10 104.04 280.59 105.94 C 279.34 104.98 278.14 103.99 276.93 102.99 C 277.11 103.59 277.47 104.78 277.65 105.38 L 274.43 105.73 C 274.82 105.28 275.61 104.36 276.00 103.91 C 274.86 103.39 273.74 102.83 272.65 102.22 C 271.80 103.53 270.83 103.43 269.74 101.93 C 268.98 104.03 270.60 105.73 271.26 107.57 C 270.65 107.52 269.42 107.42 268.81 107.37 C 267.01 107.11 265.25 107.70 263.49 107.92 C 263.33 107.24 263.03 105.87 262.87 105.18 C 262.48 104.87 261.70 104.25 261.31 103.94 C 260.07 99.08 256.57 95.24 252.96 91.95 C 253.15 91.34 253.34 90.74 253.55 90.13 C 255.95 93.11 260.48 92.98 262.43 96.44 C 262.83 99.16 261.70 102.24 263.54 104.60 C 264.53 105.77 265.82 104.58 266.94 104.40 C 267.08 101.54 265.38 99.26 264.25 96.80 C 263.17 94.63 262.15 91.83 259.35 91.58 C 257.98 90.43 256.73 89.04 254.99 88.48 C 252.45 87.79 251.11 85.37 249.72 83.37 C 249.28 83.41 248.42 83.48 247.99 83.51 C 246.93 82.03 245.89 80.54 244.64 79.22 C 245.24 82.20 247.21 84.64 249.36 86.68 L 248.69 88.60 L 250.78 86.30 C 250.80 87.84 250.87 89.37 251.00 90.91 L 252.83 89.78 C 252.69 90.63 252.40 92.33 252.25 93.18 L 251.59 93.41 C 250.40 91.86 249.49 90.12 248.34 88.54 C 247.75 87.76 247.17 86.97 246.61 86.18 C 245.90 86.89 245.22 87.61 244.55 88.35 C 243.93 87.92 242.70 87.06 242.08 86.63 C 241.33 84.95 240.51 83.30 239.47 81.79 C 239.84 82.98 240.57 85.38 240.94 86.57 C 240.52 86.52 239.69 86.41 239.27 86.35 C 239.45 89.71 235.46 89.87 233.48 91.65 C 233.40 91.30 233.26 90.62 233.18 90.27 C 230.86 90.94 228.89 92.63 226.40 92.67 C 225.11 93.00 223.82 93.33 222.51 93.57 C 222.34 91.56 222.18 89.55 222.09 87.54 C 223.79 87.43 225.50 87.51 227.20 87.49 C 226.78 87.22 225.92 86.69 225.50 86.42 C 225.41 84.94 225.28 83.47 225.14 82.00 C 225.63 82.43 226.60 83.31 227.09 83.74 C 227.27 82.86 227.64 81.10 227.82 80.22 C 227.38 80.22 226.50 80.23 226.06 80.23 L 226.25 79.42 L 227.89 79.81 C 227.51 77.64 227.12 75.46 227.15 73.24 C 228.09 75.06 228.69 77.02 229.32 78.96 C 229.90 80.26 229.93 81.69 229.55 83.06 L 227.69 82.14 C 226.75 85.39 227.88 89.17 230.77 91.06 C 230.04 88.86 229.20 86.72 228.39 84.55 C 229.09 84.42 230.39 82.31 231.05 83.64 C 231.83 85.35 232.50 87.10 233.34 88.78 C 233.64 85.50 230.92 82.90 230.59 79.64 C 231.51 79.65 232.43 79.66 233.36 79.67 C 233.70 81.52 235.13 83.28 234.45 85.23 C 235.24 83.61 237.13 83.09 238.80 83.36 C 238.96 81.57 236.25 82.78 235.18 82.67 C 234.93 81.94 234.43 80.46 234.19 79.73 C 236.75 78.60 238.51 79.58 239.47 82.11 C 239.20 81.23 238.66 79.47 238.39 78.59 L 239.60 78.54 C 238.64 76.76 237.83 74.91 237.19 72.99 C 236.79 72.88 235.98 72.66 235.58 72.55 L 236.57 75.82 C 235.51 75.69 234.46 75.56 233.40 75.44 C 233.60 73.88 233.81 72.32 234.06 70.76 L 234.90 72.55 C 236.00 71.64 237.11 70.75 238.25 69.88 C 238.22 70.66 238.17 72.23 238.14 73.02 C 238.81 72.68 240.13 72.00 240.80 71.67 C 241.36 72.92 241.93 74.18 242.48 75.45 C 243.23 76.11 243.96 76.79 244.68 77.48 C 248.87 78.42 252.27 81.29 256.46 82.28 C 257.49 82.73 259.55 83.61 260.57 84.06 C 259.04 81.70 256.46 80.41 254.46 78.52 C 252.93 79.94 251.06 78.49 249.38 78.17 C 248.13 77.37 246.83 76.65 245.55 75.91 C 246.08 75.52 247.15 74.75 247.69 74.36 C 245.95 73.51 244.91 71.88 244.01 70.26 C 247.29 72.37 250.20 75.16 253.74 76.84 C 252.76 74.84 251.57 72.97 250.41 71.07 C 251.34 71.61 252.26 72.17 253.18 72.74 C 254.54 72.13 255.96 71.44 257.50 71.70 C 260.78 74.09 263.69 77.00 267.42 78.73 C 265.95 77.13 264.48 75.52 263.03 73.91 C 264.44 74.41 265.86 74.91 267.28 75.40 C 266.88 74.91 266.06 73.93 265.66 73.44 C 267.15 73.62 268.66 73.56 270.15 73.35 C 271.43 73.48 272.71 73.59 274.00 73.69 C 272.28 72.94 270.49 71.88 268.53 72.43 L 270.45 71.20 C 268.85 71.05 267.26 70.89 265.67 70.71 C 265.39 70.19 264.82 69.16 264.54 68.64 C 264.46 67.66 264.35 66.68 264.26 65.70 C 264.70 65.61 265.60 65.42 266.04 65.33 C 265.64 64.91 264.83 64.08 264.42 63.66 C 264.45 62.54 264.45 61.42 264.41 60.30 C 264.69 59.88 265.25 59.04 265.53 58.62 C 266.96 57.91 268.34 57.12 269.71 56.30 C 268.80 54.91 267.78 53.59 266.53 52.49 M 279.73 58.30 L 279.71 59.12 C 280.09 59.14 280.86 59.19 281.24 59.21 L 281.26 58.39 C 280.87 58.37 280.11 58.32 279.73 58.30 M 283.98 64.95 C 285.25 66.02 287.31 63.94 286.20 62.71 C 284.90 61.55 282.86 63.69 283.98 64.95 M 283.19 67.46 C 279.60 67.93 276.00 67.37 272.42 67.24 C 275.03 68.04 277.72 68.55 280.46 68.45 L 280.52 70.02 C 281.12 69.64 282.33 68.89 282.94 68.52 C 284.78 68.72 286.60 69.05 288.32 69.75 C 290.48 69.47 292.66 69.65 294.83 69.64 C 292.38 68.92 289.88 68.35 287.42 67.64 C 287.41 67.12 287.40 66.08 287.39 65.57 C 285.97 66.16 284.56 66.77 283.19 67.46 M 289.96 70.96 C 289.90 74.25 293.16 69.66 289.96 70.96 M 248.73 80.56 C 250.15 82.83 251.97 84.94 254.45 86.08 C 253.04 83.80 251.09 81.85 248.73 80.56 M 235.84 85.90 C 234.62 86.81 234.55 87.64 235.63 88.37 C 236.98 88.18 237.95 86.50 237.82 85.23 C 237.33 85.40 236.33 85.73 235.84 85.90 M 264.00 87.37 C 264.68 88.03 264.68 88.03 264.00 87.37 M 266.37 97.97 C 266.29 96.79 266.18 95.62 266.04 94.45 L 268.00 95.96 C 267.76 94.60 267.50 93.24 267.23 91.89 C 264.50 92.73 265.00 96.18 266.37 97.97 M 267.34 102.93 C 267.00 104.40 267.49 105.08 268.79 104.97 C 269.14 103.50 268.66 102.82 267.34 102.93 Z" />
<path fill="#ffffff" opacity="1.00" d=" M 257.50 50.53 C 260.66 51.03 262.89 53.40 265.73 54.61 C 266.03 54.21 266.65 53.41 266.96 53.00 L 267.87 56.60 C 263.82 56.10 260.00 53.72 257.50 50.53 Z" />
<path fill="#ffffff" opacity="1.00" d=" M 200.16 52.46 C 201.67 51.11 203.53 50.98 205.28 51.99 C 204.58 53.19 203.87 54.38 203.16 55.57 C 203.56 56.10 204.36 57.18 204.76 57.71 C 203.28 57.06 201.84 56.36 200.41 55.64 C 199.29 54.95 198.12 54.42 196.87 54.04 C 197.64 52.67 198.53 51.52 200.16 52.46 M 201.22 54.13 C 201.41 57.50 204.13 52.72 201.22 54.13 Z" />
<path fill="#ffffff" opacity="1.00" d=" M 210.47 54.01 C 211.14 52.89 212.02 51.92 212.88 50.95 C 213.25 51.98 213.61 53.03 213.86 54.10 C 215.09 56.60 217.05 58.58 219.02 60.51 L 218.99 61.07 C 218.64 60.95 217.94 60.72 217.59 60.60 C 215.59 58.01 212.63 56.44 210.47 54.01 Z" />
<path fill="#ffffff" opacity="1.00" d=" M 196.22 53.39 C 196.99 53.88 196.99 53.88 196.22 53.39 Z" />
<path fill="#ffffff" opacity="1.00" d=" M 194.40 54.37 C 196.32 55.17 198.24 56.55 200.41 55.64 C 201.54 56.88 202.82 57.98 204.24 58.94 L 200.82 58.44 C 201.26 58.82 202.15 59.58 202.59 59.96 C 202.46 60.78 202.31 61.59 202.16 62.41 C 201.87 63.88 201.15 65.27 201.18 66.78 L 201.39 67.14 C 200.73 67.96 200.06 68.77 199.39 69.59 C 199.83 70.94 199.62 72.13 198.75 73.14 C 198.28 74.09 197.82 75.06 197.35 76.02 C 195.39 76.89 192.83 77.37 191.87 79.55 C 191.09 79.45 189.53 79.24 188.75 79.14 C 191.43 75.92 195.90 75.25 198.67 72.20 C 196.17 73.17 193.88 74.60 191.38 75.56 C 192.42 71.77 197.97 71.64 198.87 68.20 C 196.71 68.52 194.95 70.07 192.89 70.73 L 192.52 68.44 C 193.19 68.44 194.52 68.44 195.18 68.44 L 192.61 67.64 C 195.20 66.48 197.67 65.07 199.92 63.34 C 196.91 64.67 193.80 65.85 190.49 66.15 L 190.28 64.72 C 191.08 64.76 192.69 64.83 193.49 64.86 C 191.46 64.17 189.37 63.66 187.43 62.78 C 190.84 62.65 194.26 62.65 197.68 62.61 L 197.45 61.58 C 198.86 61.41 200.27 61.24 201.68 61.09 L 201.72 60.35 C 199.83 60.09 197.70 59.96 198.27 57.53 C 196.42 56.82 194.49 56.36 192.50 56.52 C 193.14 55.81 193.77 55.09 194.40 54.37 Z" />
<path fill="#ffffff" opacity="1.00" d=" M 205.95 53.73 C 206.27 54.08 206.91 54.77 207.23 55.12 C 212.10 56.03 214.90 60.51 218.50 63.45 C 221.21 65.70 221.71 69.73 225.01 71.38 C 225.14 71.88 225.39 72.89 225.52 73.40 C 225.38 73.57 225.10 73.92 224.96 74.10 C 224.27 75.02 223.51 75.88 222.76 76.75 C 220.28 76.77 217.75 76.96 215.31 76.56 C 215.30 76.28 215.28 75.72 215.27 75.44 C 216.48 75.35 217.62 76.14 218.83 75.81 C 219.58 74.29 219.52 72.70 217.93 71.78 C 218.94 72.15 220.96 72.90 221.97 73.27 L 221.33 72.21 C 221.06 71.85 220.51 71.12 220.23 70.76 L 219.97 70.02 C 219.50 68.79 219.19 67.51 218.82 66.25 C 216.42 62.68 212.77 60.28 209.51 57.56 L 209.21 59.96 C 212.02 61.48 214.40 63.69 216.48 66.09 C 214.69 65.30 212.90 64.52 211.11 63.73 C 213.06 66.77 218.07 67.30 218.49 71.35 C 216.18 69.85 213.97 68.20 211.96 66.33 C 210.39 63.55 207.97 61.39 206.24 58.72 L 209.00 60.08 L 208.36 57.80 C 205.97 57.96 206.65 55.13 205.95 53.73 Z" />
<path fill="#ffffff" opacity="1.00" d=" M 246.42 55.72 C 247.67 55.47 248.92 55.20 250.17 54.93 C 250.38 57.13 250.45 59.36 249.38 61.38 C 248.14 60.18 246.93 58.96 245.65 57.81 C 246.79 59.64 248.10 61.35 249.27 63.17 C 248.28 63.30 246.29 63.57 245.30 63.70 C 243.83 64.23 242.17 64.46 241.17 65.81 C 240.87 65.44 240.27 64.71 239.97 64.34 C 239.76 63.41 239.54 62.48 239.33 61.55 C 240.02 61.50 241.40 61.40 242.09 61.35 C 242.52 59.69 242.86 57.99 242.68 56.27 C 244.04 56.95 245.38 57.67 246.76 58.34 C 246.68 57.69 246.50 56.38 246.42 55.72 Z" />
<path fill="#ffffff" opacity="1.00" d=" M 254.45 60.34 C 253.00 61.33 250.92 58.04 253.13 57.97 C 253.46 58.56 254.12 59.75 254.45 60.34 Z" />
<path fill="#ffffff" opacity="1.00" d=" M 192.53 59.50 C 193.23 58.17 196.00 58.45 197.34 58.95 C 196.86 60.53 193.85 59.90 192.53 59.50 Z" />
<path fill="#ffffff" opacity="1.00" d=" M 218.99 61.07 C 219.36 61.17 220.10 61.37 220.47 61.48 C 221.13 62.50 222.39 63.56 222.00 64.92 C 220.63 64.51 218.64 62.62 218.99 61.07 Z" />
<path fill="#ffffff" opacity="1.00" d=" M 249.34 64.06 C 249.81 62.66 250.31 61.27 250.83 59.90 C 252.41 61.06 253.98 62.23 255.52 63.45 C 254.43 63.71 252.23 64.23 251.13 64.49 C 253.23 66.16 255.19 67.99 256.97 70.00 C 255.63 69.72 254.19 69.77 252.95 69.16 C 251.55 67.60 250.64 65.69 249.34 64.06 Z" />
<path fill="#ffffff" opacity="1.00" d=" M 223.06 60.81 C 225.15 64.00 227.95 67.29 227.45 71.38 C 225.49 69.65 221.70 67.84 222.00 64.92 L 222.55 64.81 C 223.25 65.46 224.66 66.75 225.36 67.40 C 225.06 65.12 220.94 63.23 223.06 60.81 Z" />
<path fill="#ffffff" opacity="1.00" d=" M 226.51 64.92 C 227.13 64.28 227.76 63.64 228.40 63.02 L 229.13 66.59 C 229.77 65.68 230.39 64.75 231.02 63.83 C 231.23 64.66 231.45 65.48 231.67 66.31 C 230.80 66.94 229.85 67.53 229.22 68.41 C 228.41 67.19 227.44 66.05 226.51 64.92 Z" />
<path fill="#ffffff" opacity="1.00" d=" M 183.97 65.88 C 184.65 65.72 186.01 65.40 186.69 65.24 L 186.36 66.37 C 187.79 66.72 189.21 67.11 190.64 67.48 C 190.64 68.49 190.65 69.51 190.67 70.53 C 189.26 70.07 187.86 69.61 186.46 69.16 C 186.05 70.02 186.18 70.67 186.87 71.12 C 187.32 71.16 188.22 71.25 188.67 71.29 L 188.24 72.22 C 191.45 73.05 188.61 74.21 187.30 75.23 C 183.94 75.18 180.49 74.39 177.18 75.17 C 178.57 77.48 182.58 75.50 184.92 76.18 C 184.92 76.45 184.91 76.99 184.91 77.26 C 183.58 77.49 182.27 77.78 180.97 78.13 C 182.69 79.29 186.22 78.98 186.00 81.94 C 183.41 81.54 180.92 80.65 178.31 80.34 L 178.46 79.66 C 175.66 79.24 172.89 78.65 170.11 78.17 C 171.63 77.94 174.68 77.46 176.20 77.22 C 176.27 76.81 176.42 75.99 176.49 75.58 C 175.88 75.46 174.67 75.22 174.06 75.10 L 176.51 74.78 C 176.38 74.23 176.11 73.12 175.98 72.57 L 177.91 73.34 L 178.33 72.13 C 177.89 71.69 177.01 70.81 176.58 70.36 C 177.92 70.99 179.27 71.61 180.63 72.22 L 180.31 70.46 C 180.82 70.21 181.84 69.70 182.35 69.44 C 183.10 69.91 183.86 70.40 184.60 70.91 C 185.43 69.30 186.64 66.76 182.15 67.20 C 183.10 67.49 185.02 68.08 185.98 68.37 L 186.28 67.24 C 185.50 66.80 184.73 66.34 183.97 65.88 Z" />
<path fill="#ffffff" opacity="1.00" d=" M 247.29 65.01 C 248.57 64.41 250.37 66.23 249.81 67.50 C 248.58 68.03 246.74 66.26 247.29 65.01 Z" />
<path fill="#ffffff" opacity="1.00" d=" M 209.11 66.61 C 210.48 66.60 212.74 67.85 212.61 69.37 C 211.23 69.36 208.97 68.15 209.11 66.61 Z" />
<path fill="#ffffff" opacity="1.00" d=" M 204.90 68.89 C 205.86 68.19 206.83 67.49 207.80 66.80 L 207.30 68.21 C 210.61 70.08 214.34 71.37 217.19 73.97 C 212.68 73.84 208.92 70.66 204.90 68.89 Z" />
<path fill="#ffffff" opacity="1.00" d=" M 261.25 70.99 C 262.38 69.81 264.18 71.82 263.41 73.02 C 262.29 74.12 260.49 72.16 261.25 70.99 Z" />
<path fill="#ffffff" opacity="1.00" d=" M 203.73 72.05 C 204.85 71.71 207.03 72.71 206.59 74.10 C 205.45 74.46 203.54 73.30 203.73 72.05 Z" />
<path fill="#ffffff" opacity="1.00" d=" M 206.78 72.72 C 207.77 71.38 211.59 73.24 211.74 74.76 C 210.68 74.85 209.65 74.68 208.63 74.24 C 208.17 73.86 207.24 73.10 206.78 72.72 Z" />
<path fill="#ffffff" opacity="1.00" d=" M 230.84 79.11 C 230.16 78.02 229.57 75.55 231.20 75.05 C 232.89 75.61 232.98 79.42 230.84 79.11 Z" />
<path fill="#ffffff" opacity="1.00" d=" M 235.89 76.63 L 236.66 76.67 C 236.63 77.08 236.57 77.90 236.54 78.31 L 235.77 78.27 C 235.80 77.86 235.86 77.04 235.89 76.63 Z" />
<path fill="#ffffff" opacity="1.00" d=" M 191.87 79.55 C 193.92 78.63 195.95 77.67 197.96 76.65 C 198.21 80.41 194.46 81.60 192.23 83.73 C 194.75 83.49 196.75 81.60 199.11 80.80 C 197.24 82.96 195.23 85.00 193.35 87.16 C 193.35 86.65 193.34 85.63 193.34 85.12 C 192.83 85.22 191.82 85.42 191.31 85.53 L 190.93 85.13 C 190.29 85.04 189.03 84.86 188.39 84.77 C 189.40 83.76 190.40 82.76 191.42 81.76 C 190.40 81.76 188.36 81.76 187.34 81.75 C 188.81 80.94 190.35 80.26 191.87 79.55 Z" />
<path fill="#ffffff" opacity="1.00" d=" M 217.44 79.38 C 218.66 78.54 219.41 78.79 219.70 80.14 C 218.50 80.94 217.75 80.69 217.44 79.38 Z" />
<path fill="#ffffff" opacity="1.00" d=" M 169.82 79.97 C 171.78 79.22 175.30 79.08 176.67 80.55 C 174.64 80.53 171.00 81.53 169.82 79.97 Z" />
<path fill="#ffffff" opacity="1.00" d=" M 210.20 86.02 C 212.22 83.06 214.98 78.90 219.40 81.20 C 217.53 82.61 215.51 83.80 213.28 84.53 C 215.10 85.08 216.86 83.85 218.68 84.26 C 218.99 87.59 218.50 91.99 215.29 93.81 C 214.34 91.92 213.33 89.87 215.70 88.41 L 213.65 88.91 L 214.09 89.77 C 212.63 90.79 211.16 91.83 209.43 92.34 C 210.15 91.73 211.60 90.52 212.32 89.92 C 211.58 88.65 210.55 87.46 210.20 86.02 M 212.95 88.43 C 214.43 88.22 215.50 87.45 216.17 86.11 C 214.95 85.48 212.77 86.98 212.95 88.43 Z" />
<path fill="#ffffff" opacity="1.00" d=" M 160.20 84.90 C 161.85 80.90 166.48 82.55 169.77 82.50 L 169.39 81.45 C 170.42 81.51 172.47 81.62 173.50 81.68 C 173.50 82.00 173.49 82.64 173.48 82.97 C 176.59 82.24 179.81 82.43 182.93 81.78 C 183.67 81.96 185.15 82.33 185.89 82.51 C 185.89 82.70 185.87 83.09 185.86 83.28 C 181.27 83.59 176.61 84.22 172.05 83.26 C 172.71 83.85 174.04 85.02 174.71 85.61 C 173.06 87.38 171.17 88.88 168.91 89.82 C 168.54 87.60 168.03 88.61 167.64 90.33 C 165.78 90.93 163.94 91.57 162.11 92.22 L 162.54 93.23 C 160.96 92.86 159.50 93.72 158.00 94.05 C 158.47 93.37 159.43 92.02 159.90 91.34 C 158.45 91.02 157.00 90.71 155.55 90.41 C 156.14 90.25 157.33 89.93 157.92 89.77 C 157.72 89.15 157.32 87.90 157.12 87.28 C 159.62 87.28 162.15 87.42 164.63 86.96 C 161.94 86.28 159.16 86.22 156.46 85.66 C 157.40 85.47 159.27 85.09 160.20 84.90 M 168.25 84.31 C 168.72 85.77 170.80 85.52 171.98 85.24 C 172.02 84.91 172.11 84.25 172.16 83.91 C 171.05 83.34 168.75 82.70 168.25 84.31 M 158.29 88.68 C 158.06 92.02 161.40 87.41 158.29 88.68 Z" />
<path fill="#ffffff" opacity="1.00" d=" M 222.32 82.45 C 223.58 82.64 225.01 85.24 224.17 86.54 C 223.79 86.49 223.03 86.40 222.66 86.35 C 222.01 85.10 221.90 83.80 222.32 82.45 Z" />
<path fill="#ffffff" opacity="1.00" d=" M 178.85 86.92 C 180.65 86.53 182.35 85.82 184.02 85.07 L 183.79 86.88 C 185.00 86.42 186.23 85.97 187.46 85.53 C 186.53 86.38 185.57 87.18 184.58 87.95 L 184.33 89.73 L 185.52 89.25 C 185.56 89.91 185.63 91.23 185.67 91.90 L 184.22 91.18 L 184.50 94.18 C 186.59 93.13 188.49 90.88 191.07 92.11 C 189.36 93.39 187.07 94.35 187.16 96.84 C 186.68 97.09 185.71 97.60 185.22 97.86 C 185.70 98.42 186.06 99.06 186.30 99.78 C 184.73 100.76 183.18 101.77 181.63 102.78 C 180.04 103.20 178.54 103.89 177.11 104.69 C 176.65 104.26 175.74 103.40 175.28 102.97 C 176.27 102.01 177.96 101.51 178.50 100.23 C 178.29 96.36 183.53 95.52 184.58 92.24 C 177.88 94.70 173.89 101.05 167.55 104.08 C 168.96 101.37 172.07 100.20 173.59 97.55 L 170.42 97.42 C 171.90 95.99 173.62 94.83 175.34 93.71 L 172.96 93.17 C 175.06 91.97 177.04 90.58 178.54 88.65 C 178.62 88.22 178.77 87.35 178.85 86.92 Z" />
<path fill="#ffffff" opacity="1.00" d=" M 220.33 85.35 C 220.82 86.86 221.21 88.40 221.61 89.94 C 220.86 91.23 220.22 92.61 219.08 93.62 C 219.25 91.98 219.59 90.36 220.30 88.87 C 220.31 87.99 220.32 86.23 220.33 85.35 Z" />
<path fill="#ffffff" opacity="1.00" d=" M 166.24 92.85 C 170.06 91.62 173.30 89.09 177.15 87.92 C 175.26 89.91 172.60 90.80 170.28 92.15 C 170.39 92.54 170.60 93.31 170.71 93.70 L 169.62 93.18 C 169.72 96.10 167.25 97.73 165.28 99.37 L 165.95 96.29 C 165.28 96.99 163.94 98.37 163.26 99.07 C 163.28 97.73 163.29 96.40 163.29 95.07 L 164.54 95.61 L 164.59 94.22 C 165.16 94.34 166.32 94.58 166.89 94.70 C 166.73 94.24 166.40 93.31 166.24 92.85 Z" />
<path fill="#ffffff" opacity="1.00" d=" M 201.73 89.14 C 201.67 89.46 201.55 90.10 201.49 90.42 C 201.04 91.41 200.64 92.42 200.30 93.45 C 196.78 96.34 193.90 99.87 190.97 103.33 L 190.49 103.39 L 189.96 103.03 L 189.62 102.49 L 189.41 101.98 L 191.09 101.40 C 189.82 101.54 188.56 101.68 187.29 101.80 C 183.49 105.93 178.82 109.11 174.51 112.63 C 174.12 111.81 173.72 111.00 173.32 110.19 C 175.56 108.49 177.76 106.72 180.09 105.12 C 180.98 104.70 181.88 104.26 182.76 103.82 C 184.61 102.31 187.47 101.20 186.74 98.28 C 189.20 96.78 191.35 94.84 193.69 93.17 L 193.19 92.58 C 194.11 92.36 195.95 91.94 196.87 91.73 C 194.54 94.78 191.32 97.01 189.09 100.17 C 193.85 97.19 197.84 93.14 201.73 89.14 Z" />
<path fill="#ffffff" opacity="1.00" d=" M 240.17 88.73 C 242.06 90.72 242.93 93.36 244.28 95.70 C 244.92 96.90 245.53 98.12 246.08 99.37 L 247.91 99.42 C 246.10 96.19 243.99 93.11 242.47 89.72 C 242.63 89.31 242.93 88.48 243.08 88.07 C 245.61 92.00 248.32 95.91 249.20 100.60 C 249.55 99.95 249.89 99.29 250.23 98.63 C 248.50 95.87 247.17 92.88 245.56 90.05 C 246.02 89.28 246.48 88.51 246.95 87.74 C 248.85 90.49 249.66 95.11 253.46 95.87 C 252.87 97.90 254.46 100.32 256.47 100.80 C 256.20 98.82 254.65 97.36 253.46 95.87 L 252.23 93.82 L 252.77 93.64 L 253.52 93.60 C 255.78 95.56 257.10 98.37 259.00 100.66 C 258.63 101.23 258.27 101.81 257.91 102.38 C 259.42 104.36 261.67 106.15 261.56 108.90 C 259.04 106.91 257.37 104.10 255.73 101.40 C 255.12 101.99 254.68 102.83 253.76 102.95 C 254.19 100.45 252.19 98.59 251.23 96.49 C 250.95 97.47 250.38 99.44 250.09 100.43 L 252.99 101.11 C 251.82 102.11 250.57 101.36 249.53 100.62 C 250.81 103.18 252.19 105.71 253.16 108.41 C 253.63 107.98 254.10 107.56 254.58 107.14 C 253.92 105.89 252.62 103.40 251.97 102.16 C 252.92 103.00 253.86 103.86 254.80 104.73 C 255.05 104.29 255.55 103.40 255.80 102.95 C 257.10 105.12 258.66 107.20 259.41 109.66 C 258.50 109.30 256.68 108.58 255.77 108.22 C 255.18 109.32 254.65 110.45 254.14 111.59 C 253.42 110.58 252.66 109.60 251.86 108.66 C 252.21 109.52 252.92 111.23 253.27 112.09 L 250.27 111.38 C 250.44 110.43 250.77 108.54 250.94 107.59 C 250.56 108.44 249.79 110.14 249.40 110.99 C 248.81 108.79 248.41 106.55 247.99 104.32 C 248.65 103.22 248.86 101.99 248.84 100.74 C 247.70 100.60 246.55 100.46 245.41 100.33 C 245.95 103.86 246.74 107.36 248.19 110.64 C 244.58 108.70 246.87 112.31 246.88 113.72 C 245.48 113.09 244.07 112.45 242.66 111.87 C 243.17 111.80 244.18 111.67 244.68 111.61 C 244.32 107.94 245.03 104.22 244.34 100.58 C 243.68 99.25 243.00 97.92 242.20 96.67 C 242.35 98.56 242.76 100.41 243.42 102.19 C 242.69 101.95 241.23 101.47 240.50 101.23 C 240.33 98.06 237.18 94.83 239.22 91.88 C 239.70 93.79 240.41 95.61 241.35 97.33 C 241.34 96.20 241.26 95.09 241.12 93.97 C 240.76 92.23 240.41 90.49 240.17 88.73 Z" />
<path fill="#ffffff" opacity="1.00" d=" M 300.50 89.41 C 299.37 91.79 298.15 87.20 300.28 88.50 L 300.50 89.41 Z" />
<path fill="#ffffff" opacity="1.00" d=" M 191.53 91.36 C 192.08 92.08 192.08 92.08 191.53 91.36 Z" />
<path fill="#ffffff" opacity="1.00" d=" M 164.85 92.04 C 165.68 91.96 166.03 92.31 165.88 93.08 C 164.41 93.78 162.78 95.36 161.12 95.02 C 161.48 94.57 162.19 93.68 162.54 93.23 C 163.12 92.93 164.27 92.34 164.85 92.04 Z" />
<path fill="#ffffff" opacity="1.00" d=" M 203.65 95.30 C 203.24 93.88 203.52 92.61 204.49 91.48 C 204.44 92.93 204.43 94.39 204.48 95.85 C 201.49 98.78 198.23 101.48 195.76 104.89 C 194.07 106.74 192.64 109.19 190.05 109.84 C 191.64 107.24 194.01 105.26 195.80 102.81 C 190.18 105.18 187.65 111.16 183.56 115.30 C 183.47 114.59 183.31 113.16 183.23 112.44 C 186.05 109.21 188.99 106.08 192.27 103.31 L 190.97 103.33 C 196.18 102.90 197.20 95.57 202.41 95.22 L 202.10 94.06 L 203.65 95.30 Z" />
<path fill="#ffffff" opacity="1.00" d=" M 234.35 91.74 C 235.41 91.68 237.52 91.56 238.58 91.50 L 238.33 93.15 C 237.14 93.28 236.49 93.86 236.38 94.88 C 236.03 98.32 236.18 101.79 235.84 105.24 L 234.79 105.29 C 234.90 102.94 234.93 100.58 234.60 98.25 C 234.24 98.29 233.51 98.39 233.15 98.44 C 233.82 101.02 233.30 103.60 232.65 106.12 C 231.89 105.56 231.14 105.01 230.39 104.46 C 231.10 102.68 231.39 100.71 232.43 99.06 C 232.19 98.17 231.72 96.39 231.48 95.51 L 230.54 95.19 C 230.58 96.74 230.63 98.28 230.70 99.83 C 229.15 99.47 227.59 99.14 226.04 98.81 C 226.85 96.99 227.90 95.31 228.96 93.62 C 230.56 93.62 232.17 93.58 233.77 93.44 C 234.09 94.53 234.46 95.61 234.88 96.67 C 234.76 95.02 234.58 93.38 234.35 91.74 Z" />
<path fill="#ffffff" opacity="1.00" d=" M 252.25 93.18 C 252.38 93.29 252.64 93.52 252.77 93.64 C 252.64 93.52 252.38 93.29 252.25 93.18 Z" />
<path fill="#ffffff" opacity="1.00" d=" M 209.69 95.30 C 210.63 95.68 211.58 96.03 212.51 96.46 C 209.44 100.29 208.14 105.67 203.50 107.97 C 203.20 107.84 202.60 107.57 202.30 107.43 C 202.08 107.82 201.62 108.60 201.39 108.98 C 200.16 109.29 198.93 109.58 197.69 109.88 C 199.20 107.96 200.76 106.09 202.12 104.07 C 202.60 104.62 203.09 105.16 203.61 105.68 C 205.30 102.57 208.69 100.46 209.88 97.15 C 207.80 97.28 206.70 99.93 205.02 101.07 C 204.30 102.06 203.60 103.07 202.89 104.07 C 204.02 102.95 202.53 97.61 205.80 99.76 C 204.06 97.66 206.77 97.95 207.75 97.28 C 208.23 96.79 209.20 95.79 209.69 95.30 Z" />
<path fill="#ffffff" opacity="1.00" d=" M 216.39 95.96 C 216.82 95.81 217.68 95.51 218.11 95.36 C 216.76 97.94 215.37 100.50 214.37 103.25 L 213.97 102.95 L 213.79 102.20 L 213.83 101.23 L 213.82 100.27 C 210.91 102.42 210.78 106.71 207.78 108.59 C 206.96 108.50 205.31 108.32 204.49 108.23 C 206.10 107.36 208.18 106.92 208.97 105.04 C 210.93 101.62 213.57 98.69 216.39 95.96 Z" />
<path fill="#ffffff" opacity="1.00" d=" M 214.46 105.46 C 216.17 101.50 218.37 97.73 221.03 94.32 C 220.54 96.06 220.04 97.78 219.54 99.51 C 218.65 102.79 216.73 106.02 213.04 106.37 C 212.45 106.70 211.26 107.36 210.67 107.70 C 211.48 105.92 212.24 104.08 213.56 102.60 L 213.97 102.95 C 214.04 103.38 214.18 104.25 214.25 104.68 L 214.46 105.46 Z" />
<path fill="#ffffff" opacity="1.00" d=" M 223.79 95.71 C 224.27 95.56 225.21 95.25 225.68 95.09 C 225.74 95.70 225.85 96.93 225.91 97.54 C 225.34 97.43 224.19 97.22 223.62 97.11 C 222.23 99.48 221.42 102.49 218.78 103.81 C 219.42 100.60 221.57 97.99 223.79 95.71 Z" />
<path fill="#ffffff" opacity="1.00" d=" M 237.39 94.58 C 239.58 97.57 239.64 101.48 238.85 104.96 C 239.43 104.46 240.59 103.46 241.17 102.96 C 241.47 105.74 242.08 108.46 242.45 111.23 L 240.34 110.59 C 240.40 111.15 240.54 112.27 240.60 112.82 C 238.48 111.73 236.24 110.81 234.46 109.18 C 234.74 108.39 235.04 107.60 235.38 106.83 L 235.81 108.97 C 236.08 108.95 236.64 108.90 236.91 108.88 C 237.31 107.57 237.78 106.28 238.31 105.02 C 236.50 101.82 237.05 98.06 237.39 94.58 Z" />
<path fill="#ffffff" opacity="1.00" d=" M 300.04 96.75 C 300.06 94.91 302.64 95.80 303.79 95.52 C 303.67 96.41 303.42 98.21 303.30 99.11 C 304.72 100.22 304.50 101.64 303.65 103.06 C 304.29 104.01 304.92 104.97 305.56 105.93 C 305.17 106.62 304.40 107.99 304.01 108.68 C 300.76 105.93 299.56 101.68 296.86 98.50 C 298.69 97.03 301.46 98.38 301.49 100.70 C 301.81 100.02 302.65 99.33 302.37 98.53 C 301.37 98.20 300.60 97.60 300.04 96.75 Z" />
<path fill="#ffffff" opacity="1.00" d=" M 280.02 96.81 C 281.80 96.68 282.47 98.43 283.44 99.56 C 284.59 101.07 286.78 101.38 287.57 103.30 C 287.39 101.10 288.39 100.42 290.56 101.23 L 290.55 101.05 C 291.69 102.10 293.31 99.99 294.02 101.54 L 294.70 102.60 C 295.30 102.59 295.90 102.47 296.48 102.30 C 296.59 101.95 296.81 101.26 296.92 100.91 L 297.38 100.58 C 298.28 101.83 299.18 103.13 300.07 104.41 C 300.09 104.92 300.12 105.94 300.14 106.45 C 300.92 107.37 301.71 108.30 302.48 109.23 C 302.29 109.63 301.90 110.43 301.70 110.83 C 302.49 111.95 303.28 113.06 304.08 114.17 C 304.21 113.20 304.49 111.25 304.62 110.27 C 306.16 111.33 307.70 112.48 309.55 112.93 L 308.94 113.64 C 311.34 112.36 313.13 114.48 314.77 115.93 L 314.01 116.93 C 313.26 116.84 311.76 116.66 311.01 116.57 C 312.22 117.98 313.32 119.47 314.30 121.05 C 312.55 120.23 311.01 119.10 309.31 118.20 L 310.20 117.39 C 307.79 118.62 306.52 115.82 304.78 114.76 C 305.04 115.97 305.56 118.38 305.83 119.59 C 303.62 118.46 302.97 116.90 303.88 114.91 C 301.74 113.35 299.75 111.56 298.28 109.34 C 298.64 109.14 299.35 108.75 299.71 108.56 C 299.32 108.54 298.54 108.52 298.15 108.50 C 297.01 106.79 296.28 104.77 294.71 103.37 C 297.05 106.64 298.05 110.42 297.71 114.43 C 296.05 110.74 294.62 106.88 292.10 103.66 C 292.92 106.61 294.03 109.50 294.63 112.51 C 295.06 112.74 295.91 113.20 296.34 113.43 C 295.52 113.47 293.89 113.55 293.08 113.60 C 293.20 113.13 293.46 112.19 293.59 111.71 L 292.21 111.67 L 292.71 110.40 L 291.62 110.51 C 291.54 109.28 291.45 108.04 291.35 106.81 C 291.00 108.50 290.21 110.36 291.43 111.90 C 291.62 112.94 291.82 113.97 292.01 115.01 C 291.25 115.61 290.50 116.21 289.76 116.82 C 290.64 114.37 287.88 112.86 287.72 110.54 C 287.38 108.16 286.48 105.93 285.68 103.68 C 284.02 103.21 282.06 103.14 281.05 101.53 L 279.89 101.77 C 280.06 101.14 280.42 99.88 280.60 99.26 L 279.27 99.46 L 279.29 97.10 L 280.02 96.81 Z" />
<path fill="#ffffff" opacity="1.00" d=" M 291.83 97.20 C 292.96 96.23 294.49 98.65 293.81 99.69 C 292.59 100.05 291.60 98.26 291.83 97.20 Z" />
<path fill="#ffffff" opacity="1.00" d=" M 315.12 98.48 C 316.52 98.72 316.19 101.20 315.00 101.59 C 313.57 101.35 314.26 99.05 315.12 98.48 Z" />
<path fill="#ffffff" opacity="1.00" d=" M 296.92 100.91 C 296.46 100.46 296.46 100.46 296.92 100.91 Z" />
<path fill="#ffffff" opacity="1.00" d=" M 228.26 104.72 C 227.82 103.41 228.58 100.55 230.19 100.68 C 230.66 102.00 229.92 104.88 228.26 104.72 Z" />
<path fill="#ffffff" opacity="1.00" d=" M 194.72 110.85 C 196.64 106.73 200.25 103.58 203.42 100.39 C 201.27 104.37 198.64 108.43 194.72 110.85 Z" />
<path fill="#ffffff" opacity="1.00" d=" M 188.57 103.27 C 188.92 103.21 189.62 103.09 189.96 103.03 L 190.06 103.56 C 186.85 106.99 183.45 110.26 179.87 113.30 C 179.06 113.39 177.46 113.58 176.65 113.68 C 180.25 109.78 185.10 107.31 188.57 103.27 Z" />
<path fill="#ffffff" opacity="1.00" d=" M 307.35 102.68 C 308.30 103.69 309.15 104.76 310.02 105.84 C 309.66 101.71 313.75 102.42 316.41 102.89 C 316.52 105.07 316.38 107.28 315.33 109.24 C 315.77 110.94 315.42 112.46 313.74 113.36 C 313.57 112.61 313.24 111.11 313.08 110.36 L 311.21 111.15 C 311.45 110.35 311.92 108.74 312.15 107.94 L 311.10 108.86 C 309.40 107.05 305.73 105.81 307.35 102.68 Z" />
<path fill="#ffffff" opacity="1.00" d=" M 282.38 105.11 C 283.23 105.16 284.05 105.34 284.86 105.63 C 285.11 106.92 285.40 108.21 285.67 109.50 C 284.37 109.05 283.06 108.63 281.78 108.13 C 281.93 107.37 282.23 105.86 282.38 105.11 Z" />
<path fill="#ffffff" opacity="1.00" d=" M 218.00 107.37 C 218.09 107.60 218.27 108.07 218.36 108.30 C 219.01 108.27 220.30 108.20 220.95 108.16 C 219.76 111.59 217.74 114.64 216.60 118.09 C 214.73 118.27 212.85 118.40 210.98 118.58 C 212.33 116.56 213.64 114.51 214.93 112.45 C 215.94 112.29 217.82 113.50 218.08 111.97 C 217.65 111.77 216.79 111.37 216.36 111.17 C 216.80 109.86 217.43 108.63 218.00 107.37 Z" />
<path fill="#ffffff" opacity="1.00" d=" M 219.22 116.14 C 221.00 113.57 221.20 109.62 224.24 108.15 C 223.38 112.43 219.66 116.76 222.02 121.12 C 221.24 120.25 220.45 119.40 219.63 118.58 C 219.52 117.97 219.32 116.75 219.22 116.14 Z" />
<path fill="#ffffff" opacity="1.00" d=" M 307.15 109.63 C 306.18 107.96 308.78 108.12 309.53 108.85 C 310.79 110.54 307.68 111.63 307.15 109.63 Z" />
<path fill="#ffffff" opacity="1.00" d=" M 208.74 109.12 C 210.04 109.39 211.33 109.66 212.64 109.93 C 209.99 114.08 208.66 119.23 204.75 122.45 C 205.27 121.26 206.30 118.86 206.82 117.66 C 204.99 118.24 204.01 122.88 201.52 121.04 C 200.96 121.41 199.83 122.14 199.27 122.50 C 201.21 117.76 204.13 113.27 207.76 109.65 C 206.66 111.87 205.15 113.84 203.63 115.78 C 204.43 115.67 206.04 115.45 206.84 115.34 L 206.26 114.82 C 207.90 114.69 208.73 113.80 208.74 112.13 L 209.92 112.50 C 209.69 111.93 209.24 110.79 209.01 110.21 L 211.19 110.71 C 210.37 110.18 209.56 109.65 208.74 109.12 Z" />
<path fill="#ffffff" opacity="1.00" d=" M 270.75 113.14 C 271.74 111.34 273.23 112.01 273.96 113.41 C 271.96 114.09 269.78 115.05 267.75 113.92 C 268.50 113.73 270.00 113.34 270.75 113.14 Z" />
<path fill="#ffffff" opacity="1.00" d=" M 190.29 118.54 C 191.52 115.25 194.99 112.41 198.56 112.45 C 197.93 113.99 195.96 115.11 196.15 116.91 C 197.31 117.16 198.46 116.98 199.58 116.39 C 199.51 115.36 199.45 114.34 199.40 113.32 C 200.31 113.64 201.23 113.97 202.14 114.31 C 200.65 116.88 199.13 119.42 197.56 121.94 C 196.76 121.84 195.14 121.63 194.34 121.52 L 194.50 122.34 C 192.95 122.35 191.40 122.31 189.87 122.42 C 189.27 123.42 188.72 124.46 188.21 125.51 C 187.25 125.54 186.30 125.57 185.35 125.61 C 184.74 126.01 183.53 126.81 182.92 127.21 C 184.32 123.88 188.44 123.23 190.18 120.02 C 191.41 119.16 192.82 118.61 194.15 117.93 L 194.15 117.64 C 192.88 118.00 191.61 118.43 190.29 118.54 Z" />
<path fill="#ffffff" opacity="1.00" d=" M 225.66 117.82 C 226.11 116.16 226.49 114.48 226.89 112.83 C 227.30 113.35 228.13 114.39 228.54 114.91 C 227.11 116.70 227.17 119.06 228.31 120.98 C 228.34 121.63 228.40 122.93 228.43 123.58 L 229.28 123.67 C 229.41 125.05 229.52 126.43 229.63 127.82 C 229.88 127.86 230.37 127.94 230.62 127.98 C 230.24 126.47 229.86 124.95 229.48 123.44 C 229.78 123.43 230.40 123.41 230.71 123.40 C 230.61 121.85 230.52 120.30 230.44 118.76 C 231.21 118.15 231.98 117.54 232.75 116.92 C 232.64 120.53 232.77 124.16 232.30 127.75 C 232.92 127.80 234.14 127.90 234.75 127.95 C 234.25 124.96 234.16 121.92 234.15 118.89 C 235.01 119.32 235.87 119.75 236.74 120.19 C 236.20 122.26 237.82 125.57 235.56 126.76 C 233.11 133.47 235.43 140.69 234.38 147.60 L 235.49 147.45 C 235.53 148.00 235.61 149.11 235.65 149.66 L 234.42 149.14 C 234.50 151.00 234.55 152.86 234.57 154.73 L 236.54 154.45 C 236.35 152.79 236.20 151.12 236.07 149.46 C 236.69 150.77 237.29 152.09 237.86 153.43 C 237.81 152.61 237.70 150.98 237.65 150.16 C 238.22 149.11 238.66 148.01 238.97 146.85 C 239.58 146.83 240.80 146.80 241.42 146.78 C 241.26 148.86 241.06 150.93 240.83 153.01 C 242.57 151.14 242.47 148.57 242.59 146.19 C 240.31 146.52 237.42 146.19 236.31 148.85 C 236.35 142.98 235.18 136.39 238.50 131.17 C 238.64 134.29 238.26 137.39 238.20 140.51 C 238.52 140.44 239.18 140.30 239.51 140.23 C 239.84 141.02 240.52 142.61 240.85 143.41 C 239.91 139.65 239.45 135.80 239.89 131.92 C 240.14 130.99 240.64 129.14 240.89 128.21 L 239.35 128.53 C 239.55 126.06 239.69 123.60 239.67 121.13 C 240.12 121.33 241.01 121.73 241.46 121.94 C 241.49 121.18 241.56 119.66 241.59 118.90 C 244.47 121.49 243.05 125.70 243.45 129.09 C 244.43 125.64 244.44 122.03 244.66 118.48 C 245.12 118.40 246.04 118.24 246.49 118.16 C 246.45 119.61 246.42 121.07 246.39 122.52 C 247.83 122.14 249.29 121.82 250.76 121.56 C 251.43 123.54 251.43 125.64 251.55 127.70 C 251.76 127.69 252.18 127.67 252.39 127.66 C 252.25 126.09 252.14 124.51 252.02 122.94 C 253.02 121.88 254.07 120.88 255.19 119.94 C 255.66 123.26 257.28 126.16 258.80 129.08 C 258.01 130.41 254.18 134.37 258.25 133.83 C 258.71 133.14 259.63 131.75 260.09 131.06 C 260.24 131.77 260.54 133.18 260.68 133.89 C 261.08 133.80 261.87 133.62 262.26 133.53 C 262.38 134.09 262.63 135.21 262.75 135.76 C 263.39 135.64 264.65 135.39 265.28 135.26 C 264.67 135.58 263.44 136.21 262.82 136.53 C 263.38 136.46 264.49 136.32 265.05 136.24 L 264.35 137.62 C 264.69 137.45 265.38 137.12 265.72 136.96 C 266.54 138.04 267.42 139.08 268.47 139.96 C 269.24 141.23 269.89 142.55 270.50 143.92 C 270.86 143.41 271.58 142.41 271.94 141.91 C 273.68 144.17 275.97 143.23 277.13 140.92 C 276.68 140.51 275.78 139.69 275.33 139.27 C 275.37 138.97 275.47 138.35 275.52 138.04 C 273.73 137.88 271.66 136.81 270.49 138.77 C 269.85 138.30 269.35 137.69 268.99 136.97 C 268.36 135.73 267.72 134.50 267.13 133.26 L 266.69 133.65 C 265.27 132.24 263.86 130.82 262.47 129.39 C 263.34 128.03 263.69 126.48 263.62 124.88 C 262.75 126.22 261.97 127.60 261.07 128.92 C 260.02 127.93 258.98 126.92 257.97 125.89 C 257.76 124.00 257.78 122.09 257.73 120.19 C 258.37 120.51 259.65 121.14 260.29 121.45 C 260.40 122.27 260.51 123.09 260.60 123.91 C 260.88 119.84 265.17 121.49 266.94 123.50 C 267.34 122.79 267.68 122.04 268.11 121.36 C 268.50 121.64 269.28 122.19 269.67 122.47 L 270.76 121.28 C 270.53 122.35 270.33 123.42 270.15 124.50 L 271.94 124.33 C 271.72 124.84 271.27 125.85 271.04 126.36 C 271.75 126.36 273.16 126.36 273.86 126.36 C 273.74 127.47 273.49 129.70 273.37 130.82 C 274.38 129.87 276.38 127.98 277.39 127.04 C 277.12 128.09 276.59 130.19 276.32 131.25 C 277.04 130.45 277.76 129.66 278.46 128.85 C 279.35 129.95 281.05 131.71 280.90 128.97 C 281.67 129.63 283.21 130.95 283.98 131.61 C 285.62 130.76 286.39 131.31 286.28 133.25 L 284.73 132.02 C 283.57 135.64 279.66 137.24 277.41 140.11 C 277.37 141.65 277.33 143.19 277.28 144.73 C 278.20 144.59 280.05 144.29 280.97 144.14 C 280.46 143.73 279.43 142.89 278.92 142.48 C 279.37 142.53 280.26 142.65 280.70 142.70 C 280.07 141.24 279.93 139.76 280.79 138.38 C 282.60 137.03 284.15 135.29 286.17 134.23 C 290.00 133.40 293.97 137.51 291.34 141.23 C 292.73 142.32 293.72 143.71 294.33 145.42 C 294.55 142.94 295.65 140.78 297.82 139.46 C 294.18 141.63 294.20 136.33 293.61 134.15 C 295.54 135.61 297.45 137.08 299.58 138.23 C 299.93 139.02 300.63 140.59 300.98 141.37 C 299.87 143.43 298.43 145.33 296.34 146.48 L 295.98 144.34 C 295.49 144.85 295.01 145.36 294.54 145.87 C 295.33 147.50 295.73 149.24 295.73 151.09 C 297.28 149.25 298.69 147.28 300.32 145.50 C 300.84 143.96 301.42 142.45 301.87 140.89 C 302.52 140.65 303.18 140.43 303.84 140.22 C 302.03 139.79 301.31 138.02 300.29 136.67 L 298.57 135.96 C 300.31 134.68 302.80 134.08 303.50 131.77 C 306.84 130.85 310.26 130.33 313.74 130.40 C 312.92 131.15 311.28 132.65 310.46 133.40 C 312.80 131.66 314.56 133.23 316.13 135.07 C 314.60 136.07 313.13 137.15 311.68 138.26 C 313.01 137.56 314.31 137.36 315.35 138.61 C 315.78 137.50 316.25 136.40 316.75 135.32 C 317.36 138.78 319.77 141.33 322.39 143.42 C 323.80 146.72 326.20 149.37 328.83 151.74 C 332.01 155.34 334.09 159.78 337.57 163.12 C 340.32 167.00 344.40 169.64 347.14 173.50 C 346.69 174.06 345.77 175.19 345.32 175.75 C 345.94 175.60 347.19 175.30 347.82 175.15 C 348.23 176.08 349.05 177.95 349.46 178.89 C 347.73 178.09 346.04 177.23 344.30 176.48 C 344.43 176.24 344.71 175.78 344.84 175.54 C 342.97 174.75 341.13 173.90 339.21 173.26 C 339.39 172.67 339.76 171.50 339.94 170.92 C 338.76 171.48 336.38 172.60 335.19 173.16 L 335.57 171.86 C 334.40 170.99 333.25 170.10 332.13 169.17 C 333.30 167.50 338.49 166.86 335.70 164.37 L 335.13 164.29 C 333.42 165.99 330.85 166.06 328.96 167.64 C 329.58 167.55 330.81 167.36 331.42 167.27 C 331.32 169.23 332.54 170.68 333.89 171.93 C 333.73 172.36 333.43 173.23 333.27 173.67 C 333.54 173.49 334.07 173.13 334.33 172.95 C 335.04 173.28 336.45 173.92 337.16 174.24 L 337.19 174.80 C 335.76 174.33 334.57 174.66 333.62 175.77 C 330.30 178.87 326.43 182.75 327.70 187.73 C 328.74 189.71 328.25 191.93 328.09 194.04 C 327.73 194.20 327.01 194.52 326.65 194.68 C 325.11 196.29 322.88 196.77 321.00 197.84 C 321.08 197.03 321.24 195.41 321.33 194.60 L 319.39 194.77 C 319.30 195.88 319.21 197.00 319.12 198.12 C 318.15 196.74 317.22 195.01 315.32 194.95 C 315.47 194.39 315.63 193.82 315.80 193.27 C 314.29 193.29 312.62 193.47 312.32 191.59 C 311.74 191.54 310.58 191.45 310.00 191.40 C 309.83 191.86 309.48 192.77 309.31 193.23 C 309.42 192.67 309.65 191.55 309.76 190.99 C 307.64 190.74 306.35 188.91 304.66 187.87 C 305.66 186.51 306.71 185.18 307.78 183.87 C 306.38 185.01 304.95 186.10 303.58 187.27 C 303.39 186.65 303.00 185.42 302.80 184.80 C 303.63 184.42 305.29 183.66 306.12 183.29 C 304.84 182.82 303.55 182.36 302.27 181.90 C 303.94 179.64 306.10 177.79 308.49 176.32 C 308.84 176.41 309.52 176.59 309.87 176.68 C 310.43 175.37 311.43 174.42 312.86 173.85 C 308.36 175.61 304.84 179.10 300.39 180.98 C 301.08 179.91 302.46 177.76 303.14 176.68 C 301.43 178.08 299.65 179.37 297.79 180.55 C 298.33 179.89 299.42 178.55 299.97 177.89 C 299.17 177.13 298.55 176.25 298.11 175.26 L 297.92 174.87 L 297.28 174.33 C 299.66 171.25 303.71 170.11 307.26 168.96 C 307.25 171.00 308.14 172.18 310.24 171.58 C 310.32 170.97 310.46 169.76 310.53 169.15 L 311.72 169.77 L 311.33 168.71 C 312.92 168.02 314.47 167.23 316.09 166.57 C 317.59 167.50 318.72 168.90 319.84 170.24 C 319.02 170.90 318.29 171.70 317.34 172.15 L 317.88 173.02 C 318.07 173.50 318.46 174.46 318.65 174.94 C 318.79 174.66 319.07 174.10 319.21 173.83 C 320.06 173.54 320.99 173.36 321.78 172.88 C 321.41 172.61 320.69 172.08 320.33 171.81 C 320.33 171.47 320.35 170.79 320.36 170.45 C 319.91 169.62 319.43 168.80 318.96 167.99 C 318.16 167.22 317.45 166.38 316.83 165.47 C 313.78 166.72 309.24 167.50 308.90 171.54 C 308.72 170.73 308.36 169.11 308.18 168.29 C 304.37 167.95 301.83 171.79 298.17 171.88 C 297.58 171.24 297.01 170.59 296.46 169.92 L 296.56 170.30 C 296.89 171.62 297.14 172.96 297.32 174.32 C 296.17 173.24 295.08 172.10 294.06 170.90 L 294.62 172.25 C 293.32 172.74 292.06 173.31 290.89 174.04 L 293.35 174.61 L 292.92 175.29 C 291.71 174.76 290.47 174.26 289.25 173.79 C 290.53 173.04 291.80 172.28 293.06 171.51 C 291.62 168.58 289.81 165.93 286.39 165.25 C 286.49 164.92 286.70 164.27 286.81 163.94 C 283.37 164.40 282.22 160.37 280.17 158.38 C 279.40 159.10 278.64 159.83 277.88 160.55 C 278.71 160.63 280.36 160.77 281.19 160.84 C 280.80 163.41 278.35 165.77 280.13 168.42 C 281.25 167.66 282.43 166.96 283.46 166.07 L 283.81 168.42 C 283.60 168.07 283.18 167.37 282.97 167.02 C 282.55 167.48 281.70 168.39 281.28 168.85 C 280.71 168.66 279.58 168.28 279.01 168.09 C 277.64 167.37 276.25 166.67 274.86 165.99 C 275.98 164.87 278.95 165.00 278.78 163.06 L 278.34 162.82 C 277.14 163.46 276.02 164.23 274.80 164.83 C 273.57 164.85 272.89 163.48 271.94 162.89 L 274.58 162.70 L 274.39 161.76 C 275.80 161.13 277.21 160.46 278.60 159.75 C 276.10 158.41 274.33 161.25 272.27 162.16 C 270.95 162.87 269.70 163.68 268.44 164.48 C 268.38 165.01 268.26 166.06 268.21 166.58 C 268.98 168.31 269.34 170.23 270.39 171.83 C 269.60 173.42 268.47 174.81 267.19 176.03 C 267.51 176.43 268.17 177.24 268.50 177.65 C 268.01 178.04 267.05 178.83 266.56 179.23 C 266.11 178.69 265.66 178.16 265.22 177.63 C 263.74 178.87 261.80 179.15 260.01 179.63 C 262.59 177.05 265.89 175.37 268.73 173.13 C 267.10 170.92 264.85 169.32 262.94 167.40 C 263.89 166.21 264.83 165.02 265.76 163.81 L 264.28 164.11 C 263.25 160.14 262.52 156.10 261.76 152.07 C 261.80 154.01 261.64 155.94 261.62 157.88 C 262.45 159.93 263.44 161.91 264.06 164.04 C 263.35 164.60 262.64 165.18 261.95 165.76 C 261.45 164.50 260.45 161.98 259.95 160.71 C 258.24 163.26 260.48 165.85 260.57 168.49 C 259.51 167.56 258.70 166.41 258.02 165.19 C 257.70 165.27 257.06 165.43 256.74 165.51 C 255.84 162.96 254.67 160.50 253.94 157.90 C 254.26 157.22 254.84 156.97 255.67 157.15 C 255.42 155.71 254.92 152.82 254.67 151.38 C 255.42 152.92 256.92 156.01 257.67 157.55 C 257.54 156.10 257.36 154.67 257.19 153.23 C 257.74 153.36 258.84 153.62 259.39 153.75 C 259.27 153.14 259.03 151.93 258.92 151.33 C 255.34 149.09 255.91 144.75 254.70 141.31 C 254.71 143.60 252.91 144.38 251.00 143.41 C 251.79 141.61 252.57 139.79 253.00 137.87 C 251.84 138.98 251.29 140.36 251.36 142.01 C 250.19 141.41 249.03 140.78 247.87 140.16 C 247.91 138.69 248.00 137.24 248.03 135.78 C 247.88 137.21 247.75 138.64 247.62 140.07 C 248.06 140.97 248.20 141.88 248.03 142.82 C 246.75 142.80 244.94 142.01 245.21 140.36 L 244.53 140.93 C 244.58 137.87 244.05 134.69 245.31 131.79 C 245.72 129.20 247.38 126.42 245.93 123.86 C 245.05 126.88 245.92 130.48 244.17 133.15 C 243.82 132.73 243.12 131.89 242.77 131.47 L 241.89 126.79 C 240.15 130.41 242.67 134.45 241.21 138.12 C 241.56 137.93 242.25 137.55 242.60 137.35 C 242.73 140.66 242.06 144.06 243.10 147.28 C 243.90 145.01 243.66 142.57 243.76 140.21 C 247.64 143.58 243.50 148.47 244.66 152.71 C 245.70 149.82 246.39 146.78 246.55 143.71 C 247.19 144.39 247.86 145.06 248.54 145.72 C 248.76 144.18 249.24 142.70 249.75 141.23 C 250.76 143.27 251.95 145.27 253.45 147.01 C 253.54 149.62 253.42 152.27 254.12 154.82 C 253.84 155.52 253.56 156.21 253.26 156.91 C 252.74 156.03 251.69 154.29 251.16 153.42 C 250.74 157.04 252.63 160.20 253.56 163.56 L 251.83 163.74 C 251.57 163.34 251.05 162.54 250.80 162.14 C 249.94 159.12 249.27 155.99 247.64 153.28 C 247.50 152.86 247.22 152.03 247.08 151.62 C 246.77 152.62 246.45 153.61 246.15 154.61 L 247.52 154.08 C 247.54 156.73 247.79 159.38 247.57 162.03 C 246.00 159.72 246.75 156.76 245.52 154.32 C 245.10 157.83 246.66 161.08 246.98 164.52 C 246.42 164.45 245.29 164.33 244.73 164.26 C 244.83 160.36 242.35 156.93 242.79 153.03 C 242.51 153.06 241.96 153.12 241.69 153.15 C 242.14 155.50 242.39 157.89 242.49 160.30 L 241.16 160.16 C 241.26 158.70 241.36 157.25 241.47 155.79 C 240.86 154.56 240.23 153.34 239.56 152.14 C 239.58 154.06 239.95 155.96 240.35 157.83 L 238.72 157.87 C 238.73 157.22 238.76 155.92 238.77 155.27 L 237.64 155.15 C 237.97 157.38 237.58 159.43 235.47 160.55 C 235.46 159.91 235.44 158.61 235.43 157.97 C 234.81 158.16 233.57 158.56 232.95 158.76 C 232.47 153.44 232.73 148.11 233.34 142.82 C 232.62 141.57 231.99 140.28 231.27 139.04 C 231.35 138.54 231.53 137.54 231.61 137.04 C 229.84 137.46 228.11 138.01 226.36 138.47 C 225.25 143.24 225.26 148.23 223.75 152.89 C 223.87 146.92 222.92 140.54 226.15 135.13 C 226.43 132.49 227.10 129.84 226.60 127.18 C 226.92 127.22 227.56 127.32 227.88 127.37 C 227.23 126.36 224.67 125.15 226.59 123.86 C 228.63 121.96 227.04 119.49 225.66 117.82 M 232.35 129.27 C 232.21 131.85 231.81 134.42 231.31 136.96 C 231.55 136.93 232.02 136.88 232.25 136.85 C 232.19 135.19 232.65 133.71 233.62 132.41 C 233.60 131.25 233.35 130.17 232.88 129.14 C 232.75 129.17 232.48 129.23 232.35 129.27 M 258.70 138.48 C 260.66 139.32 260.97 141.21 260.08 142.83 C 261.54 145.58 262.50 148.56 263.00 151.64 C 263.56 150.38 264.40 149.38 265.52 148.63 C 265.61 148.00 265.78 146.74 265.87 146.11 C 265.59 146.54 265.04 147.42 264.77 147.86 C 262.85 146.99 262.43 144.11 260.95 142.56 C 262.90 141.08 261.20 137.15 258.70 138.48 M 256.23 139.29 C 255.65 140.53 256.82 142.98 258.33 142.77 C 259.22 141.53 257.78 138.90 256.23 139.29 M 268.98 142.92 C 268.93 143.62 268.84 145.02 268.79 145.72 C 268.31 146.01 267.34 146.60 266.85 146.90 L 267.41 147.32 C 267.67 148.47 267.70 149.65 267.51 150.86 C 268.49 150.80 270.43 150.68 271.40 150.63 C 270.41 149.38 269.44 148.11 268.49 146.84 C 269.04 146.56 270.15 146.01 270.70 145.73 L 270.32 144.82 C 269.98 144.34 269.31 143.39 268.98 142.92 M 292.12 153.24 C 293.21 154.56 296.10 153.72 297.52 153.08 C 296.58 151.39 293.31 152.04 292.12 153.24 M 297.16 156.25 C 295.75 156.42 294.33 156.59 292.92 156.75 C 293.37 157.94 293.83 159.11 294.32 160.29 C 294.33 159.63 294.35 158.33 294.36 157.68 C 296.23 157.83 297.90 157.13 299.46 156.18 L 299.45 157.57 L 300.71 157.38 L 300.60 159.15 C 302.32 158.62 302.55 156.89 303.16 155.53 C 302.34 155.54 300.71 155.56 299.90 155.58 C 299.12 152.84 298.06 155.18 297.16 156.25 M 329.20 155.29 C 329.83 155.92 329.83 155.92 329.20 155.29 M 321.28 159.72 C 321.32 163.07 324.29 158.17 321.28 159.72 M 310.26 161.40 L 309.74 161.72 C 308.51 162.31 307.18 162.60 305.87 162.92 C 303.87 163.56 301.87 164.21 299.84 164.71 C 301.10 165.06 302.36 165.42 303.63 165.81 L 303.18 164.40 C 305.53 163.52 308.03 163.04 310.56 163.34 C 310.46 164.01 310.27 165.36 310.18 166.03 C 311.12 165.72 312.06 165.42 313.01 165.14 C 313.57 164.66 314.69 163.70 315.25 163.22 C 313.63 163.39 312.09 163.83 310.63 164.53 C 310.81 164.21 311.16 163.57 311.34 163.26 C 311.71 162.89 312.45 162.16 312.82 161.79 C 312.18 161.70 310.90 161.50 310.26 161.40 M 257.21 163.30 C 257.82 163.92 257.82 163.92 257.21 163.30 M 340.39 168.26 C 340.98 168.93 340.98 168.93 340.39 168.26 M 326.94 179.86 C 325.79 181.44 324.65 183.03 323.67 184.73 C 325.73 184.20 326.49 182.18 327.69 180.68 C 327.95 180.44 328.47 179.94 328.73 179.69 C 329.43 178.91 330.81 177.33 331.51 176.54 C 329.87 177.52 328.43 178.70 326.94 179.86 M 324.26 180.15 C 324.82 180.83 324.82 180.83 324.26 180.15 M 309.59 182.31 C 308.90 183.39 310.61 185.04 311.62 184.08 C 312.36 182.97 310.57 181.45 309.59 182.31 M 326.64 189.54 C 328.37 188.90 326.72 185.94 325.81 185.00 C 324.09 185.74 325.95 188.46 326.64 189.54 Z" />
<path fill="#ffffff" opacity="1.00" d=" M 171.56 120.83 C 173.59 117.67 176.58 114.93 180.05 113.46 C 177.69 116.38 174.99 119.17 171.56 120.83 Z" />
<path fill="#ffffff" opacity="1.00" d=" M 223.78 124.96 C 223.99 121.31 222.09 116.94 224.88 113.89 C 224.69 117.58 225.51 121.21 225.30 124.90 C 224.92 124.92 224.16 124.95 223.78 124.96 Z" />
<path fill="#ffffff" opacity="1.00" d=" M 229.50 121.70 C 228.45 120.47 227.91 115.89 229.93 115.15 C 230.88 117.17 229.40 119.54 229.50 121.70 Z" />
<path fill="#ffffff" opacity="1.00" d=" M 293.16 116.09 C 294.95 115.74 296.79 115.58 298.60 115.85 C 299.36 115.49 300.89 114.78 301.65 114.42 C 300.95 115.61 300.21 116.78 299.43 117.92 C 300.05 117.69 301.31 117.24 301.94 117.02 L 302.84 118.87 L 300.56 118.14 C 301.62 121.61 298.07 120.28 296.36 119.96 C 295.27 118.69 294.18 117.42 293.16 116.09 Z" />
<path fill="#ffffff" opacity="1.00" d=" M 272.77 118.11 C 273.91 117.00 275.25 116.15 276.72 115.54 C 276.01 117.25 276.25 118.71 277.45 119.91 C 276.94 120.53 276.49 121.20 275.94 121.79 C 274.82 120.62 273.77 119.39 272.77 118.11 Z" />
<path fill="#ffffff" opacity="1.00" d=" M 179.02 121.98 C 181.19 120.58 182.59 118.21 184.86 116.90 C 183.30 119.57 180.96 121.62 178.83 123.81 C 177.05 126.03 175.48 129.92 172.11 129.51 C 171.41 130.12 170.69 130.71 169.95 131.27 C 169.21 130.76 168.50 130.21 167.79 129.66 L 169.64 129.67 L 169.32 128.33 L 170.73 128.76 L 170.37 127.88 C 170.75 127.50 171.51 126.74 171.89 126.36 L 172.06 126.47 C 172.84 124.44 174.62 124.19 176.55 124.63 C 175.64 122.62 178.04 122.73 179.02 121.98 Z" />
<path fill="#ffffff" opacity="1.00" d=" M 216.65 119.99 C 218.25 120.79 216.77 125.40 215.11 125.41 C 214.91 123.56 215.71 121.54 216.65 119.99 Z" />
<path fill="#ffffff" opacity="1.00" d=" M 302.90 122.48 C 302.89 118.37 306.68 121.11 308.46 122.11 C 308.06 121.36 307.25 119.88 306.85 119.14 C 309.08 118.98 310.63 120.16 311.75 121.94 C 312.40 122.56 313.68 123.80 314.33 124.42 C 312.44 124.55 309.72 124.94 309.28 122.46 C 308.47 123.41 307.52 124.20 306.39 124.73 C 308.75 125.59 311.30 125.36 313.76 125.76 C 314.50 129.53 310.72 129.78 308.18 129.69 L 308.66 128.28 C 307.44 127.29 306.18 126.16 304.47 126.52 L 304.48 125.48 C 304.33 125.44 304.03 125.35 303.88 125.31 C 303.99 126.80 303.31 127.76 301.84 128.19 C 300.27 129.53 303.61 127.40 304.21 127.31 C 304.63 127.47 305.46 127.80 305.88 127.96 C 306.48 128.52 307.68 129.63 308.28 130.19 C 304.98 130.02 302.19 131.67 299.87 133.81 C 297.82 135.56 295.43 133.89 293.53 132.86 C 294.01 132.56 294.96 131.96 295.44 131.66 C 295.65 131.00 295.97 130.40 296.39 129.85 C 294.34 129.40 292.49 128.32 290.50 127.70 C 292.26 126.25 294.15 124.91 295.56 123.08 C 298.00 122.86 300.46 122.84 302.90 122.48 Z" />
<path fill="#ffffff" opacity="1.00" d=" M 216.52 126.76 C 217.54 124.45 217.48 121.57 219.58 119.84 C 219.53 121.56 219.30 123.27 219.08 124.98 C 218.49 126.63 218.24 128.38 218.10 130.13 C 219.51 128.76 219.62 126.75 220.34 125.03 C 220.33 124.41 220.31 123.16 220.30 122.53 C 220.97 122.56 222.32 122.62 223.00 122.65 C 222.58 125.18 222.04 127.70 221.90 130.27 L 223.23 127.20 C 223.53 127.88 223.83 128.56 224.13 129.25 C 223.41 130.97 222.69 132.70 221.92 134.39 C 221.76 132.70 221.60 131.01 221.44 129.32 C 220.96 129.36 220.00 129.44 219.52 129.49 C 219.46 132.21 219.42 134.94 219.69 137.65 L 218.39 137.30 C 218.51 138.60 218.62 139.90 218.72 141.20 C 216.82 141.52 215.02 142.24 213.38 143.24 C 212.51 143.76 211.65 144.27 210.79 144.78 C 212.07 142.16 213.22 139.47 214.26 136.75 C 214.71 137.53 215.60 139.10 216.05 139.88 L 216.61 137.79 C 216.06 137.47 214.95 136.85 214.40 136.53 C 216.10 134.69 215.25 132.12 215.53 129.89 C 214.92 128.73 214.39 127.54 213.89 126.34 C 214.55 126.45 215.86 126.66 216.52 126.76 M 215.36 127.52 C 216.08 128.16 216.08 128.16 215.36 127.52 Z" />
<path fill="#ffffff" opacity="1.00" d=" M 208.12 122.71 L 209.26 124.17 C 209.71 123.53 210.61 122.25 211.05 121.61 C 210.76 123.48 210.47 125.36 210.21 127.24 C 209.73 126.67 208.78 125.52 208.31 124.94 C 208.37 125.39 208.49 126.28 208.55 126.72 C 206.44 128.60 206.49 133.36 202.85 132.61 C 203.61 131.52 204.36 130.43 205.11 129.34 C 205.89 127.03 207.03 124.88 208.12 122.71 Z" />
<path fill="#ffffff" opacity="1.00" d=" M 211.59 122.53 L 213.65 122.25 C 212.90 124.85 212.18 127.47 211.03 129.93 C 209.98 132.09 208.92 134.26 207.41 136.14 L 207.84 138.43 C 209.52 136.22 210.60 133.64 212.23 131.41 C 212.82 131.42 214.01 131.43 214.61 131.43 C 211.38 132.37 212.79 135.42 212.61 137.64 C 212.40 136.80 211.97 135.13 211.76 134.29 C 209.60 138.56 205.46 141.44 202.85 145.47 C 203.67 145.42 205.30 145.32 206.12 145.27 L 205.22 144.15 C 207.10 142.69 209.06 141.30 211.31 140.45 C 209.26 144.43 205.94 147.49 203.31 151.06 C 203.67 152.19 204.03 153.33 204.38 154.47 C 206.18 152.12 207.96 149.76 209.74 147.40 L 209.17 149.83 C 210.17 150.14 211.16 150.46 212.16 150.80 L 211.58 149.97 C 212.07 148.98 212.49 147.95 212.83 146.89 C 213.80 146.06 214.75 145.20 215.73 144.37 C 215.84 144.63 216.07 145.15 216.19 145.41 C 215.81 145.98 215.07 147.13 214.69 147.70 C 213.35 150.20 212.57 152.95 211.31 155.48 L 212.33 155.81 C 213.24 153.55 214.37 151.39 215.58 149.28 L 216.40 149.17 L 215.41 151.06 C 215.91 150.97 216.92 150.81 217.42 150.72 C 217.46 149.07 217.45 147.43 217.39 145.78 L 218.37 145.55 C 218.36 146.12 218.33 147.26 218.32 147.83 C 218.68 147.84 219.39 147.88 219.75 147.89 C 219.66 147.40 219.47 146.42 219.38 145.93 C 218.86 145.17 218.36 144.41 217.86 143.65 L 219.78 143.63 C 219.92 141.73 219.89 139.83 219.72 137.93 C 221.01 137.43 222.26 136.83 223.50 136.22 C 222.83 137.82 221.89 139.27 220.55 140.39 C 222.35 144.58 220.22 148.89 219.53 153.07 C 219.71 155.33 220.03 157.58 220.34 159.82 C 219.46 162.49 219.41 165.34 219.29 168.12 C 219.72 163.70 221.63 159.49 221.30 155.01 L 221.66 154.91 C 222.61 158.36 222.76 161.88 222.33 165.43 L 223.15 165.39 C 223.53 165.25 224.28 164.96 224.66 164.82 C 224.84 161.91 223.75 158.84 224.92 156.06 C 226.23 157.73 226.37 159.90 226.57 161.94 C 227.02 161.71 227.93 161.25 228.38 161.03 C 228.49 161.78 228.69 163.27 228.79 164.02 C 228.21 163.70 227.03 163.06 226.45 162.74 C 226.50 164.07 226.55 165.41 226.61 166.74 L 225.27 166.21 C 225.31 166.81 225.37 168.02 225.41 168.62 L 226.41 168.27 C 226.17 170.34 226.04 172.42 225.74 174.49 C 225.19 173.13 224.73 171.75 224.30 170.36 C 224.06 170.45 223.60 170.62 223.36 170.71 C 223.24 169.83 222.98 168.06 222.85 167.18 C 222.57 167.14 221.99 167.06 221.70 167.02 C 221.28 169.48 221.42 171.98 221.14 174.45 C 220.03 172.94 219.85 171.05 219.52 169.26 L 219.10 169.27 C 219.22 170.01 219.47 171.50 219.59 172.24 C 218.71 173.21 217.83 174.16 216.94 175.10 C 217.09 172.62 217.37 170.13 217.13 167.65 C 216.52 170.52 216.53 173.48 215.95 176.36 C 215.26 175.47 214.59 174.58 213.91 173.68 C 214.09 176.49 212.80 178.99 211.98 181.58 C 212.09 184.38 210.67 186.89 210.16 189.58 C 213.16 186.51 213.57 181.85 216.79 178.91 C 216.23 183.03 214.77 186.96 213.66 190.95 C 213.17 190.10 212.69 189.25 212.19 188.42 C 211.59 191.59 210.11 194.49 209.09 197.54 C 209.88 196.83 211.45 195.40 212.24 194.69 C 210.36 198.02 210.10 202.74 206.38 204.65 C 206.80 202.64 207.40 200.68 207.99 198.73 C 206.79 200.12 205.64 201.57 204.41 202.95 C 203.99 202.00 203.64 201.04 203.35 200.06 L 202.30 200.59 L 202.39 200.33 C 205.26 196.18 208.59 191.62 208.80 186.42 L 209.68 186.61 C 209.62 185.86 209.49 184.36 209.43 183.61 L 210.08 183.59 C 210.40 181.34 213.75 178.48 211.04 176.70 C 210.34 178.62 209.47 180.53 209.45 182.62 C 209.14 182.52 208.52 182.32 208.21 182.22 C 208.30 182.65 208.48 183.50 208.57 183.92 C 206.34 187.02 205.21 190.84 202.41 193.52 C 202.90 192.37 203.88 190.07 204.37 188.92 C 203.89 188.34 203.42 187.76 202.94 187.18 C 205.26 182.65 208.13 178.43 210.60 173.99 C 210.57 173.39 210.50 172.19 210.46 171.58 L 211.99 171.66 C 211.77 171.07 211.32 169.88 211.09 169.28 L 212.66 169.75 C 212.61 168.94 212.52 167.32 212.47 166.51 L 213.11 166.47 C 213.66 163.49 216.07 161.37 216.67 158.40 C 217.17 158.22 218.18 157.87 218.68 157.70 C 218.58 156.35 218.46 155.00 218.29 153.66 C 217.64 154.31 216.34 155.62 215.69 156.27 C 219.16 156.75 215.68 150.16 214.99 152.91 C 213.98 156.18 212.93 159.43 211.24 162.42 C 210.82 163.44 210.45 164.47 210.13 165.52 L 209.60 165.61 C 209.80 168.39 208.72 170.97 207.85 173.55 C 206.73 173.43 205.61 173.32 204.50 173.23 C 203.83 174.28 203.08 175.26 202.26 176.19 C 203.42 172.72 203.86 168.59 206.68 166.00 C 206.56 165.60 206.31 164.80 206.19 164.40 L 207.56 164.94 C 207.56 164.25 207.57 162.88 207.57 162.20 C 208.51 162.40 209.45 162.63 210.38 162.88 C 210.96 161.72 211.55 160.55 212.13 159.38 L 209.92 159.42 L 210.67 161.81 L 208.17 161.61 C 208.81 159.10 209.72 156.64 209.89 154.04 C 207.48 156.32 206.49 159.51 204.56 162.13 C 204.42 163.35 204.33 164.59 204.11 165.80 C 203.10 167.71 202.30 169.72 201.33 171.65 L 201.30 169.32 L 200.04 169.45 C 199.64 170.38 199.24 171.31 198.82 172.23 C 198.76 171.84 198.65 171.08 198.60 170.70 C 198.03 170.32 196.91 169.57 196.34 169.20 C 197.81 167.05 199.17 164.85 200.70 162.75 C 202.86 162.92 204.61 161.50 205.31 159.52 C 206.34 156.52 207.80 153.70 209.12 150.83 C 205.58 153.54 205.20 160.38 199.83 160.30 C 201.13 158.20 202.90 156.42 204.05 154.23 C 202.83 154.96 201.97 156.00 201.46 157.35 C 200.22 157.43 198.99 157.42 197.76 157.32 C 198.52 155.31 200.27 153.82 201.46 152.04 L 202.73 152.79 C 202.31 150.98 201.81 149.20 201.31 147.41 L 203.83 147.83 C 203.26 146.66 202.77 145.45 202.19 144.29 C 203.13 143.32 204.00 142.25 204.15 140.85 C 205.52 140.23 207.67 138.43 206.34 136.88 C 205.02 137.76 204.12 139.25 204.15 140.85 C 201.80 141.73 201.07 144.25 200.16 146.32 C 198.88 147.79 197.68 149.31 196.53 150.88 C 196.20 150.83 195.53 150.73 195.20 150.68 C 196.32 149.07 197.53 147.52 198.52 145.83 C 196.52 147.39 194.69 149.13 192.76 150.78 C 193.08 147.94 194.56 145.39 194.67 142.53 C 197.38 139.25 200.27 136.14 202.62 132.59 L 203.24 132.85 C 201.82 135.21 200.24 137.48 198.59 139.68 C 199.08 139.81 200.08 140.06 200.58 140.19 C 199.20 141.88 197.80 143.56 196.60 145.39 C 198.06 144.25 199.37 142.95 200.76 141.73 C 203.02 139.34 204.25 135.84 207.58 134.64 C 207.57 133.27 207.53 131.91 207.49 130.55 L 208.62 130.46 C 208.55 129.99 208.43 129.05 208.37 128.58 L 209.19 128.62 C 209.59 128.27 210.38 127.56 210.78 127.20 C 211.13 125.66 211.40 124.10 211.59 122.53 M 209.33 150.01 C 209.70 150.39 209.70 150.39 209.33 150.01 M 212.14 158.86 C 212.11 158.28 212.06 157.12 212.03 156.55 C 210.48 155.93 210.62 159.36 212.14 158.86 M 206.28 183.18 C 205.02 184.05 204.38 185.67 203.96 187.10 C 204.30 187.07 205.00 187.01 205.34 186.98 C 205.91 186.07 207.83 183.85 206.28 183.18 Z" />
<path fill="#ffffff" opacity="1.00" d=" M 203.33 124.43 C 204.18 124.13 205.87 123.53 206.72 123.23 C 204.37 127.29 202.40 131.60 199.22 135.12 C 199.60 133.67 200.36 130.77 200.74 129.32 C 199.96 130.15 199.36 131.09 198.95 132.15 C 197.90 132.68 196.86 133.22 195.82 133.77 C 197.60 130.16 199.91 126.68 203.33 124.43 Z" />
<path fill="#ffffff" opacity="1.00" d=" M 224.79 127.43 C 226.52 126.22 226.55 131.09 224.93 130.57 C 224.90 129.79 224.83 128.21 224.79 127.43 Z" />
<path fill="#ffffff" opacity="1.00" d=" M 174.20 133.63 C 175.52 131.53 177.08 129.59 178.99 128.00 C 178.44 129.09 177.87 130.18 177.27 131.25 C 179.78 131.31 178.34 132.83 177.68 133.97 C 176.29 136.66 173.36 137.90 170.96 139.50 C 172.07 137.60 173.42 135.85 174.29 133.83 L 174.20 133.63 M 175.98 132.23 C 176.63 132.78 176.63 132.78 175.98 132.23 Z" />
<path fill="#ffffff" opacity="1.00" d=" M 288.30 130.15 C 289.70 130.55 291.10 130.98 292.46 131.52 C 292.01 132.08 291.10 133.21 290.64 133.78 C 289.93 133.42 289.21 133.06 288.50 132.70 C 288.45 132.06 288.35 130.79 288.30 130.15 Z" />
<path fill="#ffffff" opacity="1.00" d=" M 186.26 141.45 C 188.94 137.78 191.80 134.21 195.21 131.19 C 194.89 134.25 192.15 136.05 190.67 138.53 C 189.39 140.68 188.20 142.89 186.72 144.91 C 186.56 143.76 186.41 142.60 186.26 141.45 Z" />
<path fill="#ffffff" opacity="1.00" d=" M 220.32 132.31 C 223.68 132.49 218.79 135.24 220.32 132.31 Z" />
<path fill="#ffffff" opacity="1.00" d=" M 224.00 134.72 C 223.28 133.47 223.58 132.71 224.92 132.45 C 225.65 133.71 225.35 134.46 224.00 134.72 Z" />
<path fill="#ffffff" opacity="1.00" d=" M 242.25 137.10 C 241.83 136.01 241.33 133.26 242.71 132.98 C 243.05 134.06 243.69 136.86 242.25 137.10 Z" />
<path fill="#ffffff" opacity="1.00" d=" M 201.23 138.42 C 201.90 139.02 201.90 139.02 201.23 138.42 Z" />
<path fill="#ffffff" opacity="1.00" d=" M 211.15 138.17 C 211.81 138.78 211.81 138.78 211.15 138.17 Z" />
<path fill="#ffffff" opacity="1.00" d=" M 226.78 140.07 C 227.37 140.26 228.56 140.64 229.15 140.83 C 229.59 142.59 230.14 144.39 231.44 145.74 C 230.99 149.36 230.53 153.00 230.66 156.66 C 231.69 158.24 232.20 160.29 230.59 161.69 C 230.46 160.36 230.21 157.68 230.08 156.34 C 229.43 157.92 228.80 159.50 228.20 161.10 C 228.09 158.54 227.95 155.98 227.51 153.45 C 226.78 153.46 225.33 153.49 224.61 153.50 C 225.33 152.52 226.39 152.13 227.58 152.24 C 228.40 150.29 228.79 148.20 229.52 146.22 C 229.24 144.94 228.97 143.65 228.70 142.37 L 227.79 142.34 C 228.28 143.77 228.77 145.21 229.18 146.67 C 227.75 148.11 226.93 149.96 226.02 151.74 C 225.11 147.81 226.73 143.99 226.78 140.07 Z" />
<path fill="#ffffff" opacity="1.00" d=" M 253.55 145.82 C 254.69 144.93 255.23 145.33 255.17 147.00 C 254.30 148.03 253.76 147.63 253.55 145.82 Z" />
<path fill="#ffffff" opacity="1.00" d=" M 255.17 149.24 C 255.50 149.35 256.17 149.55 256.50 149.66 L 256.15 150.60 L 255.15 150.68 C 255.16 150.32 255.17 149.60 255.17 149.24 Z" />
<path fill="#ffffff" opacity="1.00" d=" M 199.63 149.77 C 199.94 149.85 200.57 150.00 200.88 150.07 C 200.87 150.40 200.84 151.06 200.83 151.39 C 198.56 153.64 196.82 156.95 193.45 157.61 C 194.50 154.33 197.50 152.31 199.63 149.77 Z" />
<path fill="#ffffff" opacity="1.00" d=" M 205.20 150.14 C 205.80 150.80 205.80 150.80 205.20 150.14 Z" />
<path fill="#ffffff" opacity="1.00" d=" M 197.23 157.88 C 197.36 157.74 197.63 157.46 197.76 157.32 C 197.63 157.46 197.36 157.74 197.23 157.88 Z" />
<path fill="#ffffff" opacity="1.00" d=" M 196.90 161.77 C 195.62 160.88 194.60 156.72 197.23 157.88 C 197.34 158.30 197.56 159.15 197.67 159.57 C 198.29 158.93 199.00 158.44 199.80 158.10 C 199.77 158.80 199.71 160.18 199.68 160.88 L 198.30 160.27 C 197.95 160.65 197.25 161.39 196.90 161.77 Z" />
<path fill="#ffffff" opacity="1.00" d=" M 238.22 162.02 C 238.72 162.12 239.73 162.33 240.23 162.44 C 240.37 166.29 241.12 170.07 241.64 173.88 C 242.43 174.89 243.19 175.92 243.94 176.97 C 244.10 177.88 244.42 179.69 244.58 180.60 C 244.91 178.42 244.54 176.23 244.48 174.06 C 248.55 173.40 246.26 178.00 246.69 180.24 C 246.08 180.47 244.86 180.94 244.25 181.17 C 243.98 181.15 243.42 181.12 243.14 181.11 C 242.86 178.54 241.99 176.09 241.09 173.69 C 240.89 176.29 241.58 178.83 242.05 181.37 C 241.44 181.87 240.84 182.37 240.23 182.86 C 240.12 184.40 239.99 185.93 239.86 187.47 C 239.27 187.19 238.09 186.64 237.50 186.37 C 237.43 184.99 237.34 183.62 237.23 182.25 C 236.46 183.53 235.71 184.82 234.88 186.06 C 234.36 184.05 234.46 182.12 235.21 180.25 C 236.00 180.69 237.60 181.56 238.40 182.00 C 237.64 180.62 237.47 179.21 237.89 177.75 C 238.18 178.83 238.76 181.00 239.05 182.08 C 242.70 175.62 238.28 168.75 238.22 162.02 Z" />
<path fill="#ffffff" opacity="1.00" d=" M 270.62 163.35 C 274.03 166.56 277.98 169.06 281.97 171.47 C 280.60 172.85 278.79 173.62 276.88 173.92 C 278.92 174.60 280.95 175.30 282.98 176.03 C 280.69 177.48 278.47 179.17 275.55 178.59 C 276.13 177.91 277.29 176.55 277.87 175.87 C 276.61 176.34 275.62 177.32 274.45 177.95 C 274.20 177.12 273.68 175.46 273.42 174.63 L 271.79 175.07 C 272.67 172.64 275.13 171.51 277.01 169.99 C 276.12 170.49 274.34 171.47 273.45 171.97 C 273.33 171.70 273.08 171.15 272.96 170.88 C 273.22 169.99 273.67 169.18 274.31 168.45 C 273.28 168.90 272.35 169.72 271.22 169.82 C 270.78 167.71 268.39 165.24 270.62 163.35 Z" />
<path fill="#ffffff" opacity="1.00" d=" M 229.43 166.82 C 229.76 165.96 230.42 164.25 230.75 163.39 C 231.15 165.27 231.13 167.33 232.23 168.99 C 233.25 172.24 233.58 175.64 233.52 179.03 C 231.63 178.20 230.88 176.66 231.28 174.41 C 230.92 175.51 230.59 176.62 230.29 177.73 C 229.31 177.63 228.34 177.50 227.37 177.34 C 227.01 172.76 228.45 168.21 227.76 163.61 C 228.18 164.41 229.01 166.02 229.43 166.82 Z" />
<path fill="#ffffff" opacity="1.00" d=" M 233.14 164.30 C 234.15 166.39 235.05 168.55 235.63 170.81 L 236.76 170.51 C 236.63 170.99 236.35 171.95 236.22 172.43 C 237.17 172.57 239.08 172.83 240.04 172.97 C 239.29 173.16 237.80 173.55 237.05 173.74 C 237.18 174.49 237.43 175.98 237.56 176.73 C 236.56 177.10 235.58 177.47 234.58 177.83 C 234.47 175.72 234.38 173.62 234.44 171.52 C 233.79 170.59 233.15 169.65 232.51 168.72 C 232.67 167.62 232.98 165.40 233.14 164.30 Z" />
<path fill="#ffffff" opacity="1.00" d=" M 244.24 169.83 C 244.34 168.34 244.36 166.82 244.90 165.40 C 246.57 167.01 247.09 171.32 250.18 170.37 C 249.06 171.81 250.05 173.42 250.38 174.88 L 250.53 170.85 C 251.34 172.35 252.18 173.85 253.04 175.33 C 250.16 175.43 247.43 174.55 244.96 173.10 C 245.35 172.78 246.13 172.14 246.52 171.82 C 246.20 171.20 245.58 169.95 245.27 169.33 L 244.24 169.83 Z" />
<path fill="#ffffff" opacity="1.00" d=" M 290.25 170.25 C 290.84 170.82 290.84 170.82 290.25 170.25 Z" />
<path fill="#ffffff" opacity="1.00" d=" M 272.96 170.88 C 273.24 173.16 269.45 171.21 272.21 170.58 L 272.96 170.88 Z" />
<path fill="#ffffff" opacity="1.00" d=" M 279.64 173.71 C 280.99 173.10 282.36 172.52 283.73 171.94 L 283.65 173.61 C 284.21 173.48 285.32 173.24 285.88 173.11 L 285.44 174.53 C 285.99 174.55 287.09 174.58 287.64 174.60 C 289.28 176.87 292.05 178.39 294.88 177.63 L 294.59 175.31 C 296.02 176.57 294.86 178.20 295.30 179.65 C 296.37 180.51 297.50 181.30 298.57 182.18 C 297.77 182.20 296.17 182.24 295.37 182.25 C 295.42 182.73 295.53 183.69 295.58 184.16 C 294.32 183.46 293.06 182.73 291.79 182.05 C 292.76 181.86 294.70 181.48 295.67 181.29 C 292.16 179.41 288.46 177.88 285.04 175.81 C 283.23 175.14 281.43 174.42 279.64 173.71 Z" />
<path fill="#ffffff" opacity="1.00" d=" M 263.36 174.13 C 265.10 172.93 265.00 175.71 263.68 176.08 C 261.95 177.26 261.93 174.44 263.36 174.13 Z" />
<path fill="#ffffff" opacity="1.00" d=" M 336.67 178.70 C 336.91 176.90 338.28 175.75 339.63 174.72 C 342.27 176.81 345.20 178.96 348.53 179.67 C 349.14 179.38 350.35 178.80 350.96 178.51 C 350.63 181.63 350.38 184.76 349.72 187.83 C 345.02 190.05 340.23 192.44 337.25 196.89 C 337.96 194.72 338.97 192.66 340.37 190.84 C 342.93 190.29 345.28 189.09 347.67 188.04 C 348.65 186.39 349.48 184.65 350.09 182.82 C 348.56 182.72 347.03 182.63 345.51 182.55 C 345.62 181.87 345.86 180.49 345.97 179.81 C 345.09 180.77 344.23 181.74 343.37 182.71 C 342.19 182.23 341.03 181.74 339.87 181.25 C 339.55 181.57 338.91 182.22 338.59 182.54 C 338.12 182.53 337.17 182.50 336.70 182.48 C 337.06 181.20 337.72 179.85 336.67 178.70 Z" />
<path fill="#ffffff" opacity="1.00" d=" M 222.24 181.74 C 222.76 179.70 222.92 177.38 224.75 176.03 C 224.47 178.69 223.94 181.34 223.98 184.04 C 223.39 183.27 222.81 182.50 222.24 181.74 Z" />
<path fill="#ffffff" opacity="1.00" d=" M 248.49 175.74 C 249.54 175.37 251.01 175.55 251.89 176.26 C 251.58 176.47 250.97 176.90 250.67 177.11 C 250.27 177.23 249.48 177.47 249.09 177.59 C 248.94 177.13 248.64 176.20 248.49 175.74 Z" />
<path fill="#ffffff" opacity="1.00" d=" M 219.01 184.63 C 219.59 181.93 219.30 178.55 221.58 176.56 C 221.07 179.53 221.83 183.00 219.56 185.39 C 219.51 186.48 219.46 187.57 219.43 188.66 L 218.68 188.33 C 218.09 189.23 219.23 192.56 217.27 191.70 C 216.07 189.33 216.81 186.85 217.75 184.55 C 218.06 184.57 218.70 184.61 219.01 184.63 Z" />
<path fill="#ffffff" opacity="1.00" d=" M 279.76 178.97 C 281.11 178.19 282.49 177.47 283.78 176.58 C 284.62 177.06 286.31 178.03 287.16 178.51 C 286.67 179.09 285.71 180.25 285.22 180.83 C 283.36 180.32 281.54 179.70 279.76 178.97 Z" />
<path fill="#ffffff" opacity="1.00" d=" M 226.59 177.51 C 226.92 182.11 226.15 186.71 225.24 191.20 C 224.97 190.40 224.20 189.65 224.55 188.74 C 225.26 185.00 225.83 181.24 226.59 177.51 Z" />
<path fill="#ffffff" opacity="1.00" d=" M 268.25 179.80 C 267.89 178.40 268.39 177.77 269.73 177.91 C 270.11 179.29 269.61 179.92 268.25 179.80 Z" />
<path fill="#ffffff" opacity="1.00" d=" M 231.25 180.61 C 231.70 180.71 232.62 180.91 233.07 181.01 C 233.49 184.54 233.98 188.07 234.06 191.63 C 234.70 190.18 235.10 188.64 235.45 187.10 C 236.36 187.95 236.56 189.30 237.13 190.39 L 235.86 189.98 C 235.36 190.76 234.86 191.54 234.37 192.32 C 234.48 193.82 234.59 195.32 234.68 196.82 C 234.16 196.66 233.13 196.33 232.61 196.17 C 232.67 198.82 231.74 201.34 231.50 203.95 C 231.70 207.82 231.38 211.71 230.56 215.51 C 227.13 211.78 229.16 206.28 228.41 201.80 C 227.50 199.85 227.61 197.68 227.64 195.59 L 226.17 196.17 C 226.19 199.39 226.32 202.61 226.36 205.83 C 223.87 206.05 222.89 204.92 223.40 202.44 L 224.46 202.71 C 224.46 199.88 223.46 195.49 226.84 194.19 C 226.69 193.78 226.39 192.97 226.25 192.56 L 227.89 192.75 C 227.76 192.23 227.50 191.19 227.37 190.67 C 227.70 190.71 228.37 190.79 228.70 190.83 C 228.89 189.97 229.28 188.25 229.47 187.39 C 229.42 191.12 229.54 194.87 229.41 198.58 C 229.09 198.98 228.44 199.79 228.11 200.20 C 229.16 201.10 230.23 201.98 231.33 202.83 C 231.54 199.00 231.39 195.17 231.50 191.34 L 232.98 191.42 C 232.67 190.58 232.03 188.90 231.71 188.06 C 231.44 185.58 231.34 183.09 231.25 180.61 Z" />
<path fill="#ffffff" opacity="1.00" d=" M 286.95 181.16 C 286.68 178.93 290.87 179.94 290.45 181.66 C 289.24 181.93 288.07 181.77 286.95 181.16 Z" />
<path fill="#ffffff" opacity="1.00" d=" M 271.63 182.43 C 271.42 181.02 275.20 179.68 275.52 181.89 C 275.04 183.59 272.81 182.55 271.63 182.43 Z" />
<path fill="#ffffff" opacity="1.00" d=" M 276.36 182.31 C 276.66 181.88 277.28 181.02 277.59 180.59 C 277.98 181.39 278.37 182.19 278.77 182.99 C 278.74 178.95 281.67 181.93 283.29 182.40 C 285.37 183.26 287.42 184.24 289.67 184.58 C 290.00 185.22 290.34 185.86 290.70 186.49 C 291.76 185.61 292.99 185.39 294.39 185.85 L 292.91 188.36 C 294.22 187.98 296.83 187.23 298.14 186.85 C 296.78 188.33 295.02 189.32 293.48 190.58 C 295.50 189.79 297.32 188.59 299.24 187.61 C 299.29 188.11 299.38 189.12 299.43 189.63 C 300.06 189.42 301.32 189.02 301.95 188.82 L 301.29 190.97 L 303.03 189.95 C 303.16 190.70 303.43 192.20 303.56 192.95 C 302.92 192.79 301.65 192.45 301.01 192.28 C 302.09 193.26 303.46 193.73 304.88 193.96 C 304.73 194.44 304.44 195.41 304.30 195.89 C 306.22 194.50 308.23 195.27 310.28 195.86 C 311.40 195.95 312.44 195.28 313.55 195.43 C 313.30 196.81 313.25 198.14 314.68 198.90 C 313.68 200.02 312.23 199.57 310.98 199.29 C 307.67 200.12 305.33 196.19 302.01 196.75 C 300.16 197.21 300.09 199.57 298.65 200.56 C 297.16 200.87 295.81 199.78 294.41 199.44 C 293.24 198.65 290.00 198.46 292.71 196.19 C 291.96 196.43 290.45 196.91 289.70 197.16 C 288.97 195.51 289.68 193.67 289.62 191.96 C 290.77 192.99 291.92 194.04 293.05 195.10 C 294.39 196.59 296.20 196.72 298.08 196.44 C 297.95 197.05 297.68 198.25 297.55 198.85 C 298.94 197.95 300.34 197.07 301.76 196.19 C 300.20 195.49 298.72 194.71 297.40 193.64 C 295.06 192.63 293.28 190.86 291.56 189.05 C 290.44 188.35 289.37 187.61 288.34 186.80 C 284.93 186.05 282.50 182.73 278.79 183.24 C 278.18 183.01 276.97 182.54 276.36 182.31 Z" />
<path fill="#ffffff" opacity="1.00" d=" M 296.45 184.97 C 297.29 183.92 298.16 182.89 299.06 181.89 C 300.19 182.76 301.39 183.59 302.52 184.49 L 300.11 184.92 C 300.27 185.45 300.58 186.50 300.73 187.03 C 300.20 186.56 299.13 185.62 298.60 185.15 L 301.14 183.92 C 299.39 182.99 297.91 184.07 296.45 184.97 Z" />
<path fill="#ffffff" opacity="1.00" d=" M 222.02 182.55 C 224.43 185.68 222.77 189.76 222.40 193.28 C 222.03 193.68 221.29 194.48 220.91 194.88 C 220.58 190.73 221.94 186.69 222.02 182.55 Z" />
<path fill="#ffffff" opacity="1.00" d=" M 248.45 184.54 C 249.77 184.62 251.09 184.71 252.42 184.81 C 251.92 185.00 250.94 185.40 250.45 185.59 C 250.53 187.62 250.56 189.65 250.55 191.69 C 251.06 191.53 252.07 191.21 252.58 191.05 C 252.54 191.68 252.46 192.95 252.42 193.59 L 253.54 193.33 C 253.81 196.23 254.59 199.43 251.96 201.57 C 251.40 201.04 250.84 200.51 250.29 199.99 C 250.99 198.53 251.44 196.97 251.89 195.42 L 250.53 195.63 C 250.30 194.69 250.06 193.75 249.83 192.82 C 249.34 194.92 248.79 197.00 248.18 199.07 C 246.99 196.64 247.40 193.90 247.58 191.31 L 245.94 191.27 C 246.18 194.19 245.41 197.45 247.35 199.97 C 247.63 202.82 246.81 205.53 245.81 208.19 C 244.76 206.09 244.58 204.01 245.28 201.95 C 244.17 196.38 244.86 190.70 243.95 185.12 C 245.25 186.31 246.83 186.89 248.59 187.00 C 248.56 186.38 248.48 185.15 248.45 184.54 Z" />
<path fill="#ffffff" opacity="1.00" d=" M 256.61 185.16 C 256.82 185.19 257.22 185.26 257.43 185.30 C 257.38 185.73 257.28 186.58 257.23 187.00 C 259.03 187.93 259.15 190.07 259.84 191.72 C 259.54 191.79 258.95 191.92 258.65 191.98 C 258.59 190.41 258.12 188.98 257.24 187.69 C 256.18 191.24 259.93 194.88 257.60 198.09 C 258.04 199.35 258.46 200.61 258.89 201.88 C 259.82 203.82 260.35 205.93 260.69 208.05 C 258.84 206.98 258.57 204.78 258.08 202.90 C 257.22 199.40 256.70 195.82 255.89 192.30 L 253.53 192.72 C 253.50 191.40 253.45 188.76 253.43 187.44 L 255.98 189.99 C 256.29 188.39 256.50 186.78 256.61 185.16 Z" />
<path fill="#ffffff" opacity="1.00" d=" M 271.47 187.37 C 272.07 186.97 272.66 186.56 273.26 186.16 L 273.08 187.37 C 276.24 186.20 276.67 189.52 276.98 191.75 C 274.10 191.96 272.75 189.44 271.47 187.37 Z" />
<path fill="#ffffff" opacity="1.00" d=" M 236.65 186.84 C 238.97 186.04 237.41 190.26 236.42 187.67 L 236.65 186.84 Z" />
<path fill="#ffffff" opacity="1.00" d=" M 241.23 203.49 C 242.22 198.47 239.49 193.20 241.89 188.43 C 242.54 193.31 242.61 198.28 243.79 203.08 C 243.15 203.18 241.87 203.39 241.23 203.49 Z" />
<path fill="#ffffff" opacity="1.00" d=" M 280.08 189.30 C 281.26 190.15 282.36 191.06 283.50 191.98 L 283.44 190.37 C 284.01 190.34 285.14 190.28 285.70 190.25 L 285.00 191.30 C 285.83 191.40 287.50 191.59 288.33 191.69 C 288.49 192.72 288.59 193.76 288.64 194.82 C 285.51 193.46 281.44 192.91 280.08 189.30 Z" />
<path fill="#ffffff" opacity="1.00" d=" M 206.34 190.00 C 206.70 190.35 206.70 190.35 206.34 190.00 Z" />
<path fill="#ffffff" opacity="1.00" d=" M 215.30 190.27 C 218.65 190.35 213.80 193.22 215.30 190.27 Z" />
<path fill="#ffffff" opacity="1.00" d=" M 304.15 192.72 C 304.22 192.20 304.36 191.17 304.43 190.66 C 306.38 190.28 305.66 193.43 304.15 192.72 Z" />
<path fill="#ffffff" opacity="1.00" d=" M 205.36 192.34 C 205.74 192.00 205.74 192.00 205.36 192.34 Z" />
<path fill="#ffffff" opacity="1.00" d=" M 212.02 192.28 C 215.34 192.63 210.26 195.10 212.02 192.28 Z" />
<path fill="#ffffff" opacity="1.00" d=" M 202.77 196.86 C 202.81 195.26 203.79 192.90 205.36 192.34 C 205.70 193.90 204.53 196.79 202.77 196.86 Z" />
<path fill="#ffffff" opacity="1.00" d=" M 218.21 192.96 C 220.42 191.19 220.72 194.45 219.84 195.90 C 219.33 198.28 217.63 200.12 216.08 201.90 C 216.67 198.89 217.34 195.90 218.21 192.96 Z" />
<path fill="#ffffff" opacity="1.00" d=" M 263.31 193.04 C 265.02 194.90 266.69 196.89 267.13 199.46 L 265.45 199.13 C 265.37 199.88 265.21 201.39 265.13 202.14 C 263.93 200.61 264.26 198.79 264.79 197.04 L 263.80 197.37 C 263.65 195.92 263.48 194.48 263.31 193.04 Z" />
<path fill="#ffffff" opacity="1.00" d=" M 306.02 193.46 C 306.79 194.00 306.79 194.00 306.02 193.46 Z" />
<path fill="#ffffff" opacity="1.00" d=" M 214.90 192.17 C 215.22 193.96 215.48 195.76 215.68 197.57 L 214.58 197.35 C 214.54 198.76 214.50 200.16 214.46 201.57 C 213.41 202.18 212.37 202.80 211.32 203.40 C 212.34 199.61 213.26 195.76 214.90 192.17 Z" />
<path fill="#ffffff" opacity="1.00" d=" M 237.50 193.47 C 240.08 195.21 238.14 198.51 238.95 201.01 C 239.94 203.43 237.87 205.32 237.14 207.48 C 236.57 207.49 235.42 207.51 234.84 207.52 L 234.60 206.59 C 235.12 206.66 236.18 206.79 236.71 206.85 C 237.32 202.41 236.94 197.91 237.50 193.47 Z" />
<path fill="#ffffff" opacity="1.00" d=" M 328.17 196.45 C 329.62 200.85 322.56 200.76 321.16 203.74 C 321.75 203.94 322.93 204.35 323.52 204.56 C 321.78 206.91 319.36 208.44 316.33 207.27 C 317.32 206.73 319.31 205.64 320.30 205.10 C 320.45 203.67 320.14 202.24 319.01 201.27 L 318.58 202.76 C 317.19 202.47 315.81 202.19 314.53 201.57 C 315.46 200.87 316.40 200.19 317.36 199.52 C 318.19 199.66 319.04 199.77 319.89 199.83 C 320.29 199.58 321.10 199.10 321.51 198.86 L 321.67 199.23 L 321.59 199.73 C 321.41 200.38 321.32 201.04 321.31 201.72 C 323.60 199.97 325.90 198.23 328.17 196.45 Z" />
<path fill="#ffffff" opacity="1.00" d=" M 335.88 198.52 C 335.76 198.84 335.52 199.46 335.40 199.78 C 333.42 200.81 331.17 200.98 329.00 200.59 C 330.92 198.89 333.61 199.37 335.88 198.52 Z" />
<path fill="#ffffff" opacity="1.00" d=" M 232.87 211.04 C 233.84 207.27 232.75 203.13 234.43 199.53 C 234.67 204.08 233.31 208.53 233.50 213.08 C 233.50 216.27 233.73 219.65 232.23 222.58 C 231.64 218.73 231.89 214.81 232.87 211.04 Z" />
<path fill="#ffffff" opacity="1.00" d=" M 300.59 201.99 C 302.28 200.86 304.10 199.93 306.14 199.59 C 305.54 200.26 304.36 201.60 303.77 202.27 C 305.15 201.60 306.50 200.88 307.88 200.21 L 308.15 202.00 C 311.82 202.32 314.66 206.91 318.50 204.19 C 316.92 205.71 315.26 207.21 313.21 208.08 C 313.24 207.35 313.29 205.88 313.32 205.14 C 311.90 207.58 310.45 206.23 309.11 205.15 C 305.95 205.09 303.18 203.62 300.59 201.99 Z" />
<path fill="#ffffff" opacity="1.00" d=" M 221.85 201.07 C 222.07 201.07 222.53 201.08 222.76 201.08 C 222.70 201.70 222.57 202.95 222.51 203.58 L 221.47 203.42 C 221.52 205.45 221.55 207.47 221.62 209.50 L 220.42 209.22 C 220.12 210.99 219.86 212.78 219.28 214.49 C 219.31 213.46 219.39 211.39 219.42 210.36 L 218.46 210.33 C 218.17 210.87 217.57 211.96 217.28 212.50 C 217.44 210.92 217.62 209.35 217.75 207.77 C 218.76 205.32 220.42 203.27 221.85 201.07 Z" />
<path fill="#ffffff" opacity="1.00" d=" M 250.11 200.54 C 250.93 202.24 251.62 204.01 251.52 205.94 C 251.43 208.05 254.55 209.38 253.06 211.56 C 254.14 210.98 255.41 211.10 256.59 210.92 L 256.31 214.37 L 254.56 212.62 L 254.37 215.36 C 253.68 214.66 252.97 213.97 252.25 213.31 C 251.99 213.72 251.49 214.53 251.23 214.94 L 249.50 214.07 L 249.87 215.64 C 251.12 215.51 252.73 214.72 253.70 215.99 C 252.69 217.74 249.85 217.16 250.32 219.85 C 250.07 218.97 249.57 217.21 249.32 216.33 C 250.19 219.17 248.30 221.06 247.42 223.50 L 246.27 223.14 C 246.50 223.73 246.95 224.92 247.18 225.52 C 245.52 224.25 243.85 223.38 243.03 226.41 C 242.13 222.99 241.67 219.47 241.41 215.95 L 242.13 215.71 L 242.90 215.76 C 243.59 216.78 243.72 218.09 243.29 219.70 L 244.77 219.12 C 244.69 220.28 244.51 222.60 244.42 223.77 C 245.74 222.59 245.72 220.84 245.66 219.22 C 246.37 219.22 247.71 220.35 248.06 219.23 C 247.35 217.44 246.83 215.59 246.40 213.73 C 247.81 212.14 249.70 210.64 249.63 208.30 C 249.15 208.33 248.17 208.39 247.68 208.42 C 247.28 209.64 247.86 213.78 245.87 211.22 C 245.73 210.57 245.47 209.26 245.34 208.61 L 246.80 208.31 L 246.39 207.38 L 247.40 207.68 C 247.57 205.10 247.71 202.16 250.11 200.54 M 248.17 215.21 C 248.79 215.82 248.79 215.82 248.17 215.21 Z" />
<path fill="#ffffff" opacity="1.00" d=" M 241.39 205.09 C 241.95 204.52 242.51 203.96 243.07 203.40 C 242.33 206.82 243.69 210.22 243.92 213.64 C 243.68 213.78 243.20 214.05 242.95 214.19 L 242.28 214.05 C 240.71 211.43 241.61 208.04 241.39 205.09 Z" />
<path fill="#ffffff" opacity="1.00" d=" M 251.89 204.01 C 253.24 206.49 255.31 208.32 257.48 210.05 C 256.67 210.28 255.03 210.73 254.21 210.96 C 253.28 208.70 252.33 206.42 251.89 204.01 Z" />
<path fill="#ffffff" opacity="1.00" d=" M 225.18 207.28 C 226.06 207.33 226.94 207.36 227.84 207.32 C 227.49 210.49 227.30 213.68 227.50 216.87 C 227.32 216.87 226.95 216.86 226.77 216.85 C 225.58 213.78 225.10 210.56 225.18 207.28 Z" />
<path fill="#ffffff" opacity="1.00" d=" M 221.85 211.77 C 220.93 210.98 221.88 208.82 223.14 209.31 C 223.14 209.85 223.13 210.93 223.12 211.47 C 222.81 211.54 222.17 211.70 221.85 211.77 Z" />
<path fill="#ffffff" opacity="1.00" d=" M 234.58 213.09 C 235.04 213.17 235.94 213.34 236.40 213.42 C 236.56 216.45 236.56 219.48 236.50 222.51 C 236.92 222.77 237.76 223.29 238.19 223.56 C 236.87 223.50 235.55 223.45 234.23 223.41 C 234.40 219.97 234.48 216.53 234.58 213.09 Z" />
<path fill="#ffffff" opacity="1.00" d=" M 239.09 222.09 C 238.93 218.36 238.65 214.50 239.86 210.90 C 240.93 212.51 240.47 214.38 240.48 216.15 C 240.32 219.25 241.56 222.35 240.59 225.41 C 240.00 224.37 238.93 223.42 239.09 222.09 Z" />
</g>
</svg>
