<?xml version="1.0" encoding="UTF-8" ?>
<!DOCTYPE svg PUBLIC "-//W3C//DTD SVG 1.1//EN" "http://www.w3.org/Graphics/SVG/1.1/DTD/svg11.dtd">
<svg width="512pt" height="256pt" viewBox="0 0 512 256" version="1.1" xmlns="http://www.w3.org/2000/svg">
<g id="#ffffffff">
<path fill="#ffffff" opacity="1.00" d=" M 312.61 30.45 C 312.86 29.56 312.53 28.25 313.59 27.75 L 314.06 29.45 L 315.45 30.02 L 315.36 28.00 C 315.86 28.39 316.87 29.18 317.37 29.58 C 318.38 28.43 319.49 28.66 320.56 29.84 L 320.72 28.35 C 321.49 28.98 322.35 29.48 323.27 29.86 C 322.91 30.55 322.54 31.24 322.18 31.93 C 321.77 31.42 320.95 30.39 320.53 29.88 C 321.91 31.27 321.48 35.78 319.08 32.95 C 318.93 32.47 318.65 31.51 318.51 31.03 C 318.25 31.10 317.73 31.25 317.46 31.33 C 317.86 32.38 318.64 34.49 319.04 35.55 C 316.57 34.56 317.24 39.93 314.85 37.11 C 314.48 34.78 314.17 32.44 313.56 30.16 L 312.61 30.45 Z" />
<path fill="#ffffff" opacity="1.00" d=" M 323.78 27.89 C 325.91 27.96 328.73 27.34 329.81 29.75 L 329.51 28.37 L 332.05 29.39 C 328.26 31.43 334.02 32.20 332.69 34.65 C 330.87 36.19 330.04 39.84 327.06 38.20 C 327.56 39.67 329.52 40.14 329.18 41.95 C 325.71 40.77 321.39 39.81 319.94 35.96 C 321.39 36.52 322.75 37.31 324.13 38.03 C 323.49 36.61 321.87 35.79 321.88 34.09 C 323.14 34.72 324.40 35.37 325.65 36.03 C 325.33 35.25 324.69 33.67 324.37 32.88 L 322.62 33.37 C 323.01 32.59 323.42 31.81 323.83 31.03 C 323.99 33.98 327.20 34.13 329.02 35.56 L 327.62 32.68 L 330.31 33.71 C 330.33 32.69 330.38 31.67 330.44 30.65 C 328.02 33.33 323.98 31.18 323.78 27.89 Z" />
<path fill="#ffffff" opacity="1.00" d=" M 309.41 31.73 C 310.12 31.34 311.53 30.57 312.24 30.18 C 313.59 33.06 314.25 36.20 315.45 39.14 C 312.70 38.83 310.59 41.32 310.42 43.85 C 308.98 43.66 307.64 43.19 306.41 42.43 C 306.61 40.93 305.83 39.01 307.62 38.25 C 306.68 37.00 305.52 35.84 305.11 34.28 C 305.51 35.98 305.51 37.86 304.12 39.13 C 303.14 37.16 302.96 35.09 304.19 33.25 C 304.59 33.29 305.40 33.37 305.80 33.42 C 307.38 31.04 309.53 33.55 310.89 34.69 C 310.38 33.71 309.89 32.72 309.41 31.73 Z" />
<path fill="#ffffff" opacity="1.00" d=" M 301.34 35.20 C 301.89 38.34 305.15 39.46 306.18 42.29 C 305.50 44.13 303.77 43.49 302.34 43.78 C 303.90 45.78 306.33 43.34 308.02 44.93 C 307.33 45.32 305.95 46.12 305.27 46.51 C 305.42 46.98 305.71 47.91 305.86 48.38 C 304.89 48.09 302.93 47.51 301.95 47.22 C 302.79 48.16 303.94 52.69 301.44 50.87 C 300.87 50.13 299.72 48.66 299.15 47.93 C 298.89 50.73 300.30 53.12 300.75 55.73 C 299.45 54.76 298.54 53.46 298.17 51.87 C 297.44 51.05 296.33 50.30 296.22 49.12 C 296.85 48.99 298.13 48.75 298.77 48.63 C 296.31 46.22 295.32 42.59 292.40 40.63 C 292.80 39.09 292.25 37.54 292.13 36.01 C 293.73 36.43 294.09 37.44 293.21 39.06 L 294.96 37.91 C 295.14 37.53 295.49 36.76 295.66 36.37 C 296.47 36.86 297.29 37.36 298.11 37.85 C 298.21 37.15 298.42 35.76 298.52 35.07 C 299.83 35.71 300.53 36.78 300.60 38.26 C 300.78 37.49 301.16 35.96 301.34 35.20 Z" />
<path fill="#ffffff" opacity="1.00" d=" M 282.71 41.80 C 285.15 39.38 289.05 41.81 290.90 38.38 L 289.86 41.17 L 292.17 38.89 C 288.98 41.05 291.60 44.17 293.82 43.28 C 294.56 44.55 295.74 45.62 296.10 47.08 C 295.97 48.33 294.29 47.18 293.61 47.88 C 294.91 50.82 298.62 52.51 297.88 56.25 C 297.02 55.16 296.23 54.02 295.49 52.86 L 294.67 53.23 L 294.84 52.52 L 294.17 52.22 C 294.46 50.14 292.56 48.60 291.10 47.44 C 290.86 48.76 291.59 49.92 292.02 51.12 L 291.52 51.95 C 290.06 49.20 288.11 46.69 287.11 43.72 C 286.65 43.33 285.74 42.57 285.29 42.19 C 286.70 45.99 289.38 49.17 290.55 53.07 C 290.01 52.58 288.93 51.58 288.38 51.08 L 287.72 51.58 C 287.17 51.10 286.07 50.15 285.52 49.67 C 285.55 50.29 285.61 51.53 285.64 52.15 C 285.08 51.16 284.53 50.16 283.99 49.16 L 286.87 50.06 C 286.18 49.09 284.80 47.16 284.11 46.19 C 283.89 46.72 283.45 47.78 283.23 48.31 C 282.44 50.59 281.76 44.74 279.91 47.79 C 279.27 47.64 277.99 47.34 277.35 47.19 C 278.04 49.11 276.41 50.47 276.30 52.26 C 274.71 53.77 273.14 55.54 273.17 57.89 C 274.19 56.30 275.39 54.84 276.53 53.34 L 277.75 53.55 C 277.68 53.04 277.55 52.03 277.48 51.52 C 278.52 51.38 279.55 51.26 280.59 51.13 C 278.50 55.91 274.91 59.77 271.18 63.34 C 271.60 62.30 272.44 60.24 272.87 59.21 C 271.98 59.96 271.18 60.80 270.53 61.77 C 269.24 62.17 267.88 62.22 266.56 62.27 C 265.87 61.61 265.15 60.98 264.42 60.38 C 265.06 58.11 263.01 56.43 261.93 54.70 C 262.45 53.05 265.35 52.64 264.08 55.18 C 265.67 56.10 267.23 57.08 268.67 58.22 C 268.24 58.65 267.37 59.52 266.94 59.95 C 267.40 60.49 268.33 61.58 268.80 62.12 C 269.41 61.59 270.64 60.52 271.25 59.98 C 269.28 58.33 270.79 56.71 271.89 55.16 C 271.08 56.04 270.27 56.92 269.45 57.78 C 267.98 56.51 267.46 54.96 267.90 53.14 L 266.08 54.89 C 265.55 53.46 265.50 52.00 265.93 50.51 L 264.83 53.12 C 262.77 51.05 264.92 48.58 265.60 46.42 L 265.10 46.23 C 264.10 48.63 262.53 50.81 262.08 53.42 C 260.60 53.43 259.12 53.26 257.63 52.92 C 257.98 49.20 259.00 45.52 261.07 42.38 C 261.63 42.75 262.76 43.49 263.32 43.86 C 264.33 42.72 265.27 41.54 266.28 40.40 C 266.06 41.25 265.61 42.94 265.38 43.78 C 266.25 43.43 268.00 42.74 268.87 42.39 L 269.77 43.50 L 271.27 42.49 C 271.30 43.20 271.36 44.62 271.40 45.33 C 271.91 44.58 272.93 43.06 273.44 42.30 C 273.75 42.57 274.36 43.13 274.67 43.40 L 275.28 42.13 C 278.70 42.17 279.76 45.60 282.03 47.39 C 281.61 45.60 280.24 42.75 282.71 41.80 Z" />
<path fill="#ffffff" opacity="1.00" d=" M 292.36 41.36 C 292.66 41.67 292.66 41.67 292.36 41.36 Z" />
<path fill="#ffffff" opacity="1.00" d=" M 319.85 40.78 C 321.66 41.71 323.83 42.41 324.87 44.32 C 322.74 44.23 319.12 43.76 319.85 40.78 Z" />
<path fill="#ffffff" opacity="1.00" d=" M 253.84 42.14 C 255.06 43.52 255.53 45.22 255.40 47.05 C 255.61 45.29 255.59 43.09 257.47 42.24 C 258.73 45.33 256.75 48.56 256.94 51.76 C 256.35 51.71 255.16 51.61 254.56 51.56 C 254.65 49.74 253.90 49.01 252.32 49.38 C 252.19 47.89 251.85 46.37 252.17 44.88 C 253.01 44.15 253.57 43.24 253.84 42.14 Z" />
<path fill="#ffffff" opacity="1.00" d=" M 313.46 41.71 C 316.09 42.92 318.69 44.28 320.83 46.26 C 320.65 46.64 320.27 47.39 320.08 47.76 L 321.60 48.33 C 320.74 48.80 319.89 49.26 319.04 49.72 C 319.51 50.28 320.46 51.40 320.93 51.97 C 319.84 51.60 318.77 51.19 317.72 50.75 C 317.52 50.92 317.12 51.28 316.92 51.45 C 314.33 50.26 312.47 48.00 310.43 46.10 C 311.24 45.29 312.02 44.43 312.69 43.49 C 314.06 44.10 315.74 45.21 315.79 46.85 C 315.27 46.80 314.22 46.72 313.70 46.68 C 313.62 46.61 313.46 46.49 313.38 46.43 L 313.70 46.68 L 313.43 48.02 L 316.83 46.83 L 315.29 48.94 C 316.66 47.48 318.50 49.48 320.01 48.23 C 316.56 47.51 314.81 44.63 313.46 41.71 Z" />
<path fill="#ffffff" opacity="1.00" d=" M 236.43 44.29 C 236.74 42.26 238.37 43.30 239.12 44.65 C 239.75 44.27 241.00 43.51 241.62 43.13 C 241.47 43.80 241.17 45.13 241.02 45.79 L 242.77 45.22 L 242.18 46.72 C 242.86 46.61 244.20 46.39 244.87 46.28 C 244.83 46.08 244.77 45.70 244.73 45.50 L 243.16 45.92 C 243.45 45.14 244.05 43.59 244.34 42.81 C 245.13 43.80 245.87 44.83 246.58 45.88 C 246.71 44.76 247.92 42.13 248.66 44.59 L 249.70 44.26 C 249.79 45.51 250.16 46.69 250.71 47.81 C 250.39 47.82 249.74 47.82 249.42 47.82 C 249.61 46.56 249.22 45.53 248.25 44.74 C 248.39 46.66 248.66 48.56 249.07 50.45 L 247.31 49.13 C 247.00 49.68 246.40 50.78 246.10 51.34 C 246.29 52.42 246.88 53.72 244.96 54.02 C 245.82 55.20 246.72 56.35 247.65 57.49 C 246.95 57.46 245.54 57.42 244.84 57.39 L 245.91 60.46 C 243.12 58.99 241.61 55.88 239.61 53.52 C 239.85 53.20 240.31 52.57 240.54 52.25 C 239.33 50.23 236.72 50.48 235.09 48.99 C 236.25 49.87 238.06 53.12 235.13 52.50 C 237.02 54.69 238.56 57.16 240.43 59.37 L 241.78 59.24 C 240.80 61.96 244.88 63.21 245.64 65.42 C 244.70 65.07 242.84 64.37 241.91 64.02 C 243.04 65.40 244.21 66.73 245.32 68.14 L 242.99 67.21 L 242.16 68.81 C 241.27 68.25 241.02 67.54 241.40 66.70 L 241.51 66.15 C 239.61 65.39 240.40 69.35 240.39 70.57 C 241.05 70.75 242.37 71.11 243.02 71.29 C 241.55 72.50 239.92 70.88 238.58 70.32 C 238.48 70.62 238.26 71.22 238.16 71.52 C 234.93 70.59 231.62 70.00 228.34 69.32 C 228.22 68.91 227.98 68.09 227.86 67.69 C 231.72 66.95 235.29 69.12 239.16 68.75 C 236.59 67.29 233.43 67.62 230.64 66.95 C 232.18 64.86 235.84 66.78 236.79 64.53 C 233.82 65.41 231.35 63.83 228.57 63.22 C 228.36 63.03 227.92 62.67 227.70 62.49 L 228.02 64.15 C 227.27 63.89 225.76 63.37 225.01 63.11 C 226.17 65.50 230.45 62.94 230.89 65.88 C 229.90 66.45 228.83 66.92 227.68 67.01 C 226.82 66.60 225.91 66.37 224.96 66.34 C 228.70 66.14 225.94 69.65 224.82 70.89 C 224.43 71.08 223.65 71.45 223.26 71.64 C 223.49 71.03 223.95 69.81 224.18 69.20 C 221.84 70.98 220.09 68.63 218.55 67.30 C 217.53 68.11 216.52 68.94 215.53 69.79 C 215.37 69.39 215.03 68.59 214.86 68.19 L 215.54 68.32 C 217.16 67.70 217.69 65.80 217.89 64.25 C 216.31 64.89 214.87 66.42 214.86 68.19 C 214.42 68.30 213.55 68.52 213.11 68.63 C 213.84 66.99 214.55 65.36 215.59 63.86 C 213.14 68.50 212.17 63.75 210.39 62.47 C 209.99 62.50 209.20 62.55 208.80 62.58 C 208.85 60.36 205.96 59.64 204.22 59.00 C 204.06 58.30 203.74 56.91 203.58 56.22 C 202.85 56.92 202.12 57.63 201.39 58.33 C 200.66 56.66 198.85 56.31 197.30 55.89 C 196.70 55.19 196.10 54.48 195.50 53.78 C 193.99 53.82 192.51 53.62 191.06 53.18 C 191.47 52.61 192.29 51.46 192.70 50.89 C 191.80 51.79 190.76 52.46 189.59 52.89 C 189.62 52.16 189.70 50.69 189.73 49.95 C 189.20 52.55 186.19 53.12 183.97 52.42 C 183.37 52.70 182.17 53.25 181.57 53.53 L 181.81 55.62 C 182.46 55.50 183.77 55.26 184.43 55.14 C 184.97 57.06 183.83 60.33 186.30 61.04 C 186.72 58.66 186.21 55.92 187.76 53.87 C 187.62 54.93 187.33 57.03 187.19 58.09 L 189.27 57.24 C 189.25 56.72 189.22 55.69 189.20 55.18 C 189.85 55.33 191.14 55.64 191.79 55.80 C 191.60 57.10 191.38 58.40 191.08 59.69 C 191.49 60.34 192.31 61.66 192.73 62.31 L 191.37 62.51 C 191.38 63.76 191.40 65.01 191.44 66.26 C 193.66 63.81 193.35 60.10 194.51 57.13 C 194.76 57.21 195.26 57.37 195.51 57.46 C 194.84 59.09 194.26 60.76 193.67 62.42 C 197.69 61.61 195.46 66.10 194.88 68.07 C 194.20 71.21 188.74 69.24 191.69 66.43 C 189.41 66.82 187.79 65.05 185.86 64.26 C 185.84 63.49 185.80 61.95 185.78 61.18 C 184.33 61.38 182.88 61.50 181.43 61.52 C 180.19 58.77 179.46 55.82 179.30 52.81 C 178.97 52.55 178.31 52.05 177.98 51.79 L 177.81 52.63 C 179.61 55.32 176.09 54.10 175.15 53.66 C 173.91 54.81 172.78 56.19 171.16 56.80 C 172.04 55.27 172.79 53.02 174.91 53.10 C 175.38 51.78 175.90 50.47 176.53 49.21 C 176.86 49.48 177.53 50.01 177.86 50.28 C 178.76 49.32 180.01 48.87 181.18 48.34 C 182.68 49.14 185.50 47.85 185.95 50.03 C 187.51 48.92 189.34 47.78 191.05 49.43 C 192.59 47.96 194.40 48.69 194.79 50.83 C 195.65 50.17 196.23 49.30 196.54 48.20 L 197.15 49.39 C 197.49 49.46 198.19 49.59 198.53 49.66 L 198.56 50.40 C 201.22 51.00 204.09 51.51 206.49 52.87 C 209.04 52.30 211.36 53.24 213.24 54.94 C 214.39 54.07 215.76 53.58 217.12 53.11 C 215.33 51.91 213.10 52.85 211.31 52.00 C 211.61 48.84 215.76 50.81 216.87 52.30 C 216.42 51.49 215.54 49.86 215.09 49.04 C 216.25 49.44 217.34 50.77 218.66 50.03 C 219.21 50.27 220.31 50.75 220.86 51.00 C 220.15 50.15 218.72 48.46 218.01 47.62 C 219.81 49.66 222.90 47.34 224.48 49.43 C 227.65 52.56 230.54 56.01 233.97 58.86 C 231.56 54.39 226.78 51.68 224.31 47.43 L 228.25 49.71 C 227.46 47.77 224.95 46.53 225.05 44.25 C 226.21 44.98 227.32 45.77 228.53 46.43 C 229.61 46.00 230.68 45.09 231.93 45.50 C 231.70 46.42 230.99 46.86 229.79 46.84 C 231.52 48.76 233.33 50.64 235.29 52.34 C 234.71 50.10 233.45 48.71 231.52 48.17 C 231.93 47.22 232.63 46.74 233.63 46.72 C 233.99 46.96 234.71 47.45 235.07 47.70 C 234.65 46.98 233.82 45.55 233.41 44.84 C 233.97 45.06 235.11 45.52 235.68 45.75 L 236.72 45.11 C 237.83 46.23 238.86 47.41 239.85 48.64 C 238.87 47.07 237.70 45.63 236.43 44.29 M 180.11 53.42 L 179.78 54.24 C 180.23 57.07 182.46 53.01 180.11 53.42 M 189.37 60.65 C 189.59 59.95 190.03 58.55 190.25 57.85 C 188.74 56.48 187.91 60.13 189.37 60.65 M 219.16 62.68 C 220.60 63.00 223.92 60.73 221.34 59.76 C 220.05 59.90 218.97 61.44 219.16 62.68 M 222.22 62.80 C 222.36 66.27 225.13 61.47 222.22 62.80 Z" />
<path fill="#ffffff" opacity="1.00" d=" M 242.17 44.19 L 242.81 44.18 L 242.82 44.83 L 242.18 44.84 L 242.17 44.19 Z" />
<path fill="#ffffff" opacity="1.00" d=" M 323.15 48.01 C 324.82 48.56 327.45 49.82 326.72 51.97 C 324.96 51.25 324.03 49.58 323.15 48.01 Z" />
<path fill="#ffffff" opacity="1.00" d=" M 292.02 51.12 C 292.55 51.40 293.63 51.95 294.17 52.22 C 294.29 52.47 294.55 52.98 294.67 53.23 C 296.07 55.20 293.74 55.43 292.89 53.91 C 292.35 53.05 292.06 52.12 292.02 51.12 Z" />
<path fill="#ffffff" opacity="1.00" d=" M 303.11 52.16 C 304.86 53.01 305.80 52.59 305.93 50.93 C 308.18 51.91 310.37 53.00 312.55 54.13 C 312.42 54.68 312.16 55.80 312.03 56.36 C 312.74 56.05 314.16 55.42 314.87 55.11 L 314.79 55.66 C 315.06 55.79 315.60 56.04 315.87 56.17 C 314.98 56.78 314.12 57.42 313.38 58.21 C 311.63 56.20 308.95 55.50 306.60 54.52 C 308.43 56.79 311.13 58.02 313.56 59.51 C 309.24 59.63 305.42 55.59 303.11 52.16 Z" />
<path fill="#ffffff" opacity="1.00" d=" M 311.17 51.48 C 312.58 51.45 314.13 52.43 315.23 53.34 C 314.44 54.79 310.41 53.42 311.17 51.48 Z" />
<path fill="#ffffff" opacity="1.00" d=" M 290.55 53.07 L 290.46 51.52 C 290.94 52.29 291.91 53.84 292.40 54.62 L 292.89 53.91 C 292.95 54.52 293.06 55.73 293.12 56.33 C 292.72 54.37 291.43 55.39 290.39 55.46 C 288.94 55.30 287.33 53.80 287.74 52.20 C 287.85 55.13 289.74 54.02 290.55 53.07 Z" />
<path fill="#ffffff" opacity="1.00" d=" M 323.03 52.40 C 324.34 51.85 326.23 52.87 326.86 54.09 C 326.43 56.40 322.60 53.96 323.03 52.40 Z" />
<path fill="#ffffff" opacity="1.00" d=" M 240.14 56.24 C 238.49 57.08 235.99 53.22 237.94 52.68 C 238.49 53.57 239.59 55.35 240.14 56.24 Z" />
<path fill="#ffffff" opacity="1.00" d=" M 279.26 56.36 C 279.82 55.95 280.92 55.14 281.47 54.73 C 281.50 55.03 281.56 55.62 281.58 55.92 C 281.00 56.03 279.84 56.25 279.26 56.36 Z" />
<path fill="#ffffff" opacity="1.00" d=" M 248.74 57.91 C 249.96 57.17 250.97 55.23 252.49 55.39 C 253.10 55.90 254.32 56.91 254.93 57.42 L 254.20 55.28 C 255.28 55.34 256.37 55.34 257.46 55.27 L 256.24 57.28 L 258.73 56.16 C 257.77 57.97 258.65 59.50 259.84 60.88 C 258.01 62.96 255.61 63.20 253.66 60.73 L 256.10 64.14 L 252.79 61.98 L 253.94 63.98 C 253.37 64.15 252.23 64.50 251.66 64.67 C 251.11 65.72 250.55 66.76 250.05 67.82 C 251.42 67.29 252.54 66.39 253.39 65.20 C 254.20 66.27 254.43 67.77 255.71 68.49 L 255.19 66.43 L 256.32 66.47 C 256.51 65.12 257.70 64.40 258.59 63.54 C 259.66 63.49 260.73 63.43 261.80 63.37 C 261.77 63.64 261.71 64.18 261.68 64.46 C 260.18 64.38 258.00 63.97 257.18 65.69 C 257.31 68.75 260.19 65.12 261.08 66.90 C 258.99 67.06 258.20 69.44 256.17 69.67 C 256.30 70.19 256.55 71.25 256.68 71.77 C 257.77 70.38 259.08 69.17 260.94 69.13 C 260.17 70.26 259.39 71.40 258.94 72.70 C 257.62 74.08 257.18 76.01 255.88 77.40 C 257.30 77.80 258.62 78.64 258.71 80.28 C 259.46 79.46 260.23 78.65 261.01 77.85 C 257.51 77.24 259.86 72.89 261.39 71.40 C 261.26 73.48 261.31 75.57 261.71 77.62 C 262.39 77.60 263.75 77.56 264.44 77.53 L 264.63 78.85 C 265.10 78.69 266.04 78.37 266.51 78.21 C 266.51 78.73 266.50 79.78 266.50 80.31 C 268.15 80.19 269.05 81.38 269.85 82.59 C 268.97 81.69 267.92 81.28 266.68 81.36 C 266.40 79.98 265.58 79.41 264.22 79.64 L 264.33 78.35 C 263.55 78.54 261.98 78.92 261.20 79.11 C 261.38 79.57 261.74 80.50 261.93 80.97 C 261.70 81.44 261.24 82.38 261.01 82.85 L 262.79 82.05 C 262.66 83.02 262.39 84.94 262.26 85.90 C 262.59 85.86 263.25 85.78 263.57 85.74 L 263.14 84.29 L 266.32 84.65 C 265.49 85.30 263.84 86.61 263.02 87.26 C 265.05 87.05 265.63 88.55 265.72 90.19 C 262.70 90.42 264.29 93.68 262.21 95.04 C 263.84 94.52 265.21 93.44 264.53 91.51 C 265.11 91.44 266.26 91.29 266.84 91.21 C 266.60 92.55 266.01 93.74 265.07 94.79 C 265.84 94.69 267.37 94.51 268.14 94.41 C 266.75 96.47 264.89 98.12 263.25 99.97 C 265.56 98.76 267.34 96.56 270.06 96.22 C 269.30 97.18 267.78 99.10 267.02 100.07 C 267.88 99.86 269.61 99.45 270.48 99.24 L 267.91 102.02 C 268.40 101.86 269.38 101.54 269.87 101.38 C 269.88 102.00 269.90 103.24 269.91 103.86 L 268.57 103.58 L 269.08 105.09 L 267.88 104.70 L 267.51 106.94 C 268.33 106.45 269.97 105.46 270.80 104.96 L 269.82 106.93 L 271.68 106.38 C 271.65 107.99 271.45 109.57 271.10 111.14 C 270.51 110.07 270.03 108.95 269.66 107.79 C 268.03 109.17 267.13 111.09 266.33 113.02 C 265.52 114.48 262.51 115.54 263.64 117.48 C 265.57 115.60 267.32 113.51 267.73 110.76 C 269.77 110.97 272.06 113.75 269.01 114.73 C 270.89 114.06 272.44 114.47 273.66 115.97 C 273.14 113.16 273.01 109.75 276.48 108.90 L 276.48 110.42 L 277.66 110.15 L 278.08 113.08 C 278.73 112.32 278.89 111.51 278.58 110.63 L 278.55 110.26 C 280.64 110.72 282.74 110.47 284.80 109.89 C 284.28 110.42 283.25 111.48 282.74 112.00 C 283.38 111.86 284.67 111.57 285.32 111.42 L 285.92 113.18 L 286.58 112.01 C 286.49 111.28 286.31 109.83 286.22 109.10 C 289.06 110.90 292.02 112.54 294.83 114.39 C 294.85 114.78 294.88 115.57 294.90 115.96 C 293.63 115.34 292.38 114.70 291.10 114.12 C 293.83 114.99 292.81 118.92 295.94 118.75 C 294.53 119.83 294.15 121.21 294.80 122.91 C 291.72 120.98 288.60 119.11 285.75 116.84 C 283.26 116.34 280.94 115.32 278.63 114.30 L 278.07 114.84 L 278.41 116.33 C 277.63 116.51 276.08 116.88 275.30 117.07 C 276.10 117.63 277.71 118.75 278.51 119.31 C 277.36 119.62 275.05 120.25 273.89 120.57 C 273.74 120.25 273.44 119.62 273.29 119.30 C 273.66 119.11 274.39 118.73 274.75 118.53 C 273.00 117.99 272.46 116.17 271.83 114.67 C 272.46 117.53 269.08 118.06 267.45 119.49 L 267.95 120.57 C 267.05 120.61 265.25 120.70 264.35 120.74 C 265.57 117.98 263.17 117.34 261.02 117.64 C 263.11 117.07 262.31 114.77 262.16 113.18 C 262.92 112.23 263.67 111.26 264.04 110.09 C 263.28 110.58 261.77 111.56 261.01 112.05 C 261.61 110.93 262.81 108.70 263.41 107.58 C 262.44 108.20 260.48 109.44 259.51 110.05 C 259.57 109.07 259.69 107.10 259.76 106.11 L 258.07 106.86 C 257.46 105.32 257.71 103.91 258.81 102.61 L 256.49 103.70 C 256.36 102.49 256.19 101.28 255.98 100.09 C 256.51 101.15 257.45 101.65 258.81 101.57 C 257.80 99.27 259.15 97.16 259.94 95.06 C 258.37 96.22 258.03 99.96 255.35 98.39 C 256.41 96.61 256.65 94.57 256.89 92.56 C 256.48 92.90 255.65 93.60 255.24 93.94 C 254.81 93.04 254.38 92.14 253.96 91.25 L 255.65 91.71 C 255.58 90.94 255.46 89.38 255.40 88.60 L 257.01 88.24 L 255.64 86.57 C 256.59 86.50 258.49 86.34 259.44 86.27 C 258.71 84.89 257.31 86.20 256.23 85.77 C 255.96 84.41 257.88 83.93 258.73 83.22 C 257.29 82.11 255.47 81.84 256.02 84.47 L 255.18 84.36 C 255.27 84.97 255.44 86.18 255.53 86.79 C 254.94 87.84 254.12 88.64 253.06 89.19 C 253.28 87.37 253.70 85.60 254.07 83.81 C 252.42 83.66 251.61 82.74 251.62 81.06 C 252.56 80.81 253.50 80.55 254.45 80.30 L 254.73 81.84 C 255.23 80.94 255.64 80.00 255.96 79.02 C 254.73 80.21 252.96 80.00 251.65 79.02 C 252.54 78.65 254.32 77.89 255.21 77.51 C 254.49 77.04 253.77 76.58 253.05 76.13 C 254.26 75.40 255.25 74.45 256.01 73.26 C 254.46 74.69 252.58 75.79 251.47 77.62 C 249.88 76.18 250.14 74.89 252.22 73.72 L 251.89 73.10 C 250.02 73.59 248.90 74.65 248.53 76.29 C 247.68 75.67 246.95 74.94 246.26 74.17 C 248.34 74.86 249.77 74.03 250.53 71.67 C 248.49 73.90 246.71 71.28 244.59 71.35 C 244.54 70.84 244.42 69.82 244.37 69.31 C 245.56 68.10 246.77 66.91 247.96 65.68 L 245.93 65.51 C 247.35 64.71 248.85 64.14 250.45 63.75 C 249.46 63.03 248.27 62.72 247.13 62.36 C 247.60 62.23 248.55 61.96 249.02 61.83 L 248.05 60.14 L 250.24 61.08 L 250.17 59.68 C 251.93 60.17 255.52 56.52 252.12 56.63 C 251.37 57.44 250.67 58.30 250.02 59.20 L 250.17 59.68 C 249.76 59.63 248.94 59.54 248.53 59.50 C 248.58 59.10 248.69 58.31 248.74 57.91 M 251.14 61.84 C 252.49 62.16 253.20 61.65 253.26 60.31 C 251.79 59.99 251.09 60.50 251.14 61.84 M 264.46 108.85 C 265.89 108.80 266.52 108.07 266.34 106.68 C 264.99 106.77 264.37 107.49 264.46 108.85 M 279.39 113.90 C 282.71 114.23 285.73 115.75 288.85 116.79 C 287.73 114.39 284.97 114.21 283.10 112.74 C 282.58 112.67 281.55 112.55 281.03 112.48 L 279.70 111.05 C 279.62 111.76 279.47 113.19 279.39 113.90 Z" />
<path fill="#ffffff" opacity="1.00" d=" M 321.97 54.51 C 323.29 55.17 324.60 55.87 325.91 56.57 C 325.04 57.27 324.26 58.10 323.60 58.98 C 322.28 58.69 320.25 58.35 320.40 56.56 C 321.06 56.61 322.38 56.70 323.04 56.75 L 321.97 54.51 Z" />
<path fill="#ffffff" opacity="1.00" d=" M 174.17 56.19 C 176.61 55.85 177.98 58.91 179.48 60.46 C 180.96 61.55 179.09 63.85 177.63 63.08 C 177.25 61.65 175.49 61.14 175.42 59.56 L 173.78 59.60 L 175.44 58.57 C 175.12 57.98 174.49 56.79 174.17 56.19 Z" />
<path fill="#ffffff" opacity="1.00" d=" M 278.04 56.59 C 278.58 57.05 279.13 57.51 279.68 57.97 C 278.19 60.42 276.37 62.65 274.46 64.79 C 275.38 64.41 276.29 63.99 277.19 63.55 C 278.30 60.86 279.71 57.98 282.34 56.49 C 282.84 57.71 283.46 58.87 284.19 59.97 C 283.10 62.72 281.56 65.88 278.60 66.92 L 278.34 65.47 C 278.12 65.33 277.69 65.06 277.48 64.92 L 277.57 66.47 L 276.36 66.49 C 276.34 66.96 276.30 67.90 276.28 68.37 L 275.05 68.12 L 276.04 65.82 C 275.25 65.42 274.46 65.03 273.69 64.63 L 273.38 66.58 L 272.69 64.47 C 272.22 64.52 271.29 64.62 270.83 64.67 C 273.23 61.99 276.78 60.10 278.04 56.59 Z" />
<path fill="#ffffff" opacity="1.00" d=" M 240.71 57.65 L 241.52 57.87 L 241.75 58.78 L 240.82 58.45 L 240.71 57.65 Z" />
<path fill="#ffffff" opacity="1.00" d=" M 171.37 61.50 C 171.58 60.27 172.73 59.67 173.57 58.91 L 173.47 60.42 C 175.04 60.20 175.70 60.88 175.47 62.46 L 176.63 62.51 L 176.38 65.15 C 174.11 64.19 171.97 62.95 169.91 61.60 C 170.28 61.58 171.01 61.53 171.37 61.50 Z" />
<path fill="#ffffff" opacity="1.00" d=" M 241.75 58.78 C 242.07 59.11 242.69 59.77 243.01 60.11 C 242.69 59.77 242.07 59.11 241.75 58.78 Z" />
<path fill="#ffffff" opacity="1.00" d=" M 286.64 59.17 C 286.55 59.82 286.38 61.11 286.30 61.76 C 287.17 61.73 288.91 61.69 289.78 61.67 C 289.36 63.51 289.49 65.81 287.64 66.95 C 288.10 67.47 288.58 67.99 289.06 68.51 C 289.35 67.66 289.94 65.95 290.23 65.10 C 290.94 65.59 291.66 66.09 292.38 66.59 C 292.93 67.44 293.50 68.28 294.08 69.11 C 293.49 70.50 292.71 71.82 291.59 72.85 C 291.06 69.54 288.63 71.98 287.84 73.58 C 288.79 74.09 289.52 74.82 290.04 75.76 C 288.35 75.92 284.69 74.50 285.90 72.45 L 284.65 72.38 L 284.02 71.27 L 283.20 71.65 C 283.07 70.47 282.96 69.28 282.88 68.10 L 284.03 70.95 C 284.78 69.84 286.96 68.11 285.27 66.77 C 284.39 65.72 283.27 67.48 282.42 67.60 C 282.21 68.63 282.00 69.66 281.80 70.68 C 281.25 70.28 280.17 69.47 279.62 69.07 L 279.35 67.29 L 281.66 69.01 C 280.66 67.34 282.11 66.05 282.91 64.80 C 284.27 63.00 285.39 61.04 286.64 59.17 M 285.60 71.21 C 287.10 73.05 289.65 71.22 289.62 69.33 C 288.31 69.93 285.58 69.06 285.60 71.21 Z" />
<path fill="#ffffff" opacity="1.00" d=" M 303.78 58.02 C 307.12 59.92 310.09 62.42 313.55 64.12 L 313.12 65.67 C 313.77 65.51 315.06 65.17 315.70 65.01 C 316.71 66.01 317.95 66.85 318.49 68.24 C 316.66 67.91 315.61 66.97 315.33 65.41 C 314.31 65.82 313.30 66.25 312.33 66.75 C 313.89 67.52 315.17 68.73 316.50 69.84 C 315.67 70.67 314.96 71.59 314.40 72.62 C 312.20 72.04 311.39 69.58 309.28 68.76 C 306.89 65.64 303.89 62.98 302.00 59.50 L 303.93 59.88 L 303.78 58.02 M 306.96 63.08 C 308.13 65.59 309.97 67.69 311.82 69.73 C 312.30 69.21 312.78 68.69 313.26 68.16 C 310.63 67.25 308.96 64.88 306.96 63.08 M 311.44 64.44 C 311.80 64.80 311.80 64.80 311.44 64.44 Z" />
<path fill="#ffffff" opacity="1.00" d=" M 198.59 60.45 C 200.10 58.07 201.19 61.64 202.78 61.94 C 202.43 63.53 202.00 65.09 201.47 66.63 C 202.95 66.57 204.18 67.34 204.76 68.71 C 205.41 67.47 206.05 66.23 206.78 65.04 C 206.75 66.27 206.71 67.49 206.65 68.72 L 205.42 68.42 C 205.52 69.36 205.70 71.22 205.80 72.15 C 204.75 72.41 203.58 72.55 202.76 73.31 C 203.65 73.36 205.45 73.46 206.34 73.51 C 204.16 76.06 202.46 79.25 199.42 80.92 C 198.96 78.88 199.29 77.00 200.40 75.27 L 197.88 76.85 C 197.84 76.42 197.76 75.57 197.72 75.15 L 195.81 75.93 C 196.71 73.86 197.88 71.93 198.98 69.96 C 198.40 70.40 197.23 71.27 196.65 71.71 L 195.12 72.27 C 195.87 68.26 197.47 64.40 198.59 60.45 M 198.87 62.21 C 197.43 65.37 202.14 62.07 198.87 62.21 Z" />
<path fill="#ffffff" opacity="1.00" d=" M 243.01 60.11 L 243.89 60.37 L 243.84 61.03 L 243.23 61.06 L 243.01 60.11 Z" />
<path fill="#ffffff" opacity="1.00" d=" M 243.84 61.03 C 244.47 61.72 244.47 61.72 243.84 61.03 Z" />
<path fill="#ffffff" opacity="1.00" d=" M 296.18 62.09 C 297.90 62.78 298.90 64.42 300.32 65.55 C 299.91 64.56 299.10 62.57 298.69 61.58 C 300.62 62.41 301.49 64.42 302.67 66.01 C 303.39 67.45 305.23 68.84 304.01 70.66 C 302.26 69.26 301.15 67.09 298.95 66.29 C 299.88 67.70 300.75 69.13 301.54 70.60 C 300.14 69.62 298.90 68.37 298.27 66.77 C 297.55 65.22 296.80 63.68 296.18 62.09 Z" />
<path fill="#ffffff" opacity="1.00" d=" M 203.70 65.46 C 203.95 64.95 204.45 63.92 204.70 63.41 C 204.80 63.90 205.01 64.90 205.12 65.40 C 204.76 65.42 204.05 65.45 203.70 65.46 Z" />
<path fill="#ffffff" opacity="1.00" d=" M 170.18 63.85 C 171.98 63.55 174.79 65.39 175.22 67.19 C 173.49 66.77 170.81 65.60 170.18 63.85 Z" />
<path fill="#ffffff" opacity="1.00" d=" M 262.16 65.17 C 262.80 65.76 262.80 65.76 262.16 65.17 Z" />
<path fill="#ffffff" opacity="1.00" d=" M 209.57 66.16 C 210.39 67.65 210.24 69.10 209.13 70.51 C 210.59 70.95 212.10 70.85 213.60 70.77 C 213.55 71.14 213.44 71.88 213.38 72.26 C 212.54 74.05 211.63 75.82 211.04 77.72 C 210.71 77.82 210.06 78.01 209.73 78.11 L 210.69 76.14 C 211.47 74.66 212.57 73.18 212.49 71.42 C 210.84 72.08 209.49 74.53 210.69 76.14 L 209.20 75.52 C 208.99 76.55 208.57 78.61 208.35 79.64 C 207.93 79.34 207.08 78.74 206.66 78.43 C 205.28 78.17 205.64 80.00 205.70 80.82 C 204.80 82.48 202.90 83.17 201.45 84.23 C 201.06 80.49 204.79 78.45 206.30 75.44 C 208.08 75.23 210.24 74.95 210.21 72.26 C 208.92 72.53 207.62 72.72 206.32 72.83 C 207.43 70.62 208.51 68.39 209.57 66.16 Z" />
<path fill="#ffffff" opacity="1.00" d=" M 170.82 67.14 C 171.84 66.57 174.09 67.46 173.67 68.80 C 172.66 69.31 170.51 68.39 170.82 67.14 Z" />
<path fill="#ffffff" opacity="1.00" d=" M 277.80 67.63 L 278.44 67.60 C 278.28 67.76 277.97 68.10 277.82 68.26 L 277.80 67.63 Z" />
<path fill="#ffffff" opacity="1.00" d=" M 229.08 71.14 C 231.46 71.08 233.78 71.62 236.00 72.47 C 238.02 73.33 240.72 72.88 242.11 74.88 C 241.45 74.78 240.13 74.58 239.47 74.48 L 239.43 75.61 C 237.90 75.46 236.36 75.34 234.84 75.52 C 236.10 75.88 237.38 76.19 238.67 76.47 L 237.88 77.93 L 239.63 77.31 L 239.44 78.63 C 239.91 78.62 240.84 78.61 241.31 78.61 L 241.25 80.35 C 236.96 77.82 231.15 77.26 228.08 73.17 L 229.51 72.48 C 229.40 72.15 229.18 71.48 229.08 71.14 Z" />
<path fill="#ffffff" opacity="1.00" d=" M 274.16 71.26 C 275.21 70.50 277.43 71.66 276.78 73.04 C 275.76 73.98 273.25 72.60 274.16 71.26 Z" />
<path fill="#ffffff" opacity="1.00" d=" M 291.07 76.08 C 292.74 74.38 294.76 73.12 297.02 72.37 C 296.28 74.34 294.31 75.40 292.96 76.91 C 295.25 76.46 297.35 75.34 299.73 75.25 C 299.70 75.83 299.64 76.99 299.61 77.57 C 297.63 77.44 295.69 77.83 293.79 78.32 C 295.62 79.11 297.65 78.62 299.56 78.51 L 299.44 79.84 C 299.92 79.71 300.89 79.46 301.38 79.33 L 301.50 80.55 C 303.30 79.32 303.83 81.57 304.70 82.53 C 303.78 82.53 301.95 82.53 301.03 82.53 C 301.79 84.79 304.79 83.64 305.78 85.53 C 302.61 85.15 299.54 85.31 296.45 86.27 L 295.92 87.49 C 298.54 87.14 301.14 86.70 303.75 86.23 C 302.22 89.25 297.99 87.77 295.19 88.80 C 295.38 88.24 295.75 87.12 295.93 86.56 L 294.30 86.63 C 294.69 85.41 295.51 84.82 296.76 84.86 L 296.61 84.05 C 294.85 84.47 293.51 84.07 293.20 82.26 C 294.83 81.42 297.99 82.43 298.42 80.16 C 296.71 80.06 295.00 79.97 293.30 79.86 C 293.14 78.31 292.18 77.83 290.41 78.42 C 290.63 77.64 290.85 76.86 291.07 76.08 Z" />
<path fill="#ffffff" opacity="1.00" d=" M 210.35 79.94 C 213.12 78.28 212.80 74.22 215.67 72.60 C 215.08 76.14 219.70 74.44 221.62 74.20 C 222.33 74.85 223.05 75.51 223.72 76.21 L 222.83 77.25 C 222.83 77.68 222.83 78.55 222.82 78.99 L 220.91 77.49 C 221.09 78.33 221.43 80.01 221.61 80.85 C 220.84 80.43 220.08 80.00 219.32 79.58 C 218.95 80.00 218.22 80.83 217.85 81.25 C 217.94 79.21 219.34 75.36 216.37 74.80 C 218.60 80.35 214.44 84.98 210.56 88.30 C 209.53 88.44 208.51 88.59 207.49 88.74 L 207.37 86.06 C 208.01 86.05 209.29 86.01 209.94 86.00 C 208.99 85.63 208.05 85.23 207.13 84.80 C 207.33 83.97 207.79 83.27 208.54 82.71 C 208.12 82.59 207.29 82.35 206.88 82.22 C 206.81 81.77 206.69 80.85 206.62 80.40 C 208.04 79.92 209.82 80.13 210.29 81.80 C 210.69 82.89 212.19 82.12 213.05 82.44 C 212.51 83.14 211.42 84.53 210.87 85.23 C 213.25 84.78 216.09 82.44 214.80 79.80 C 214.59 80.24 214.16 81.13 213.94 81.57 C 212.58 81.49 211.05 81.29 210.35 79.94 Z" />
<path fill="#ffffff" opacity="1.00" d=" M 285.02 76.09 C 283.55 76.60 278.76 74.35 280.87 72.83 C 282.02 74.17 284.59 74.26 285.02 76.09 Z" />
<path fill="#ffffff" opacity="1.00" d=" M 166.49 74.13 C 168.72 74.71 170.48 76.20 171.82 78.06 C 169.19 78.93 166.99 76.49 166.49 74.13 Z" />
<path fill="#ffffff" opacity="1.00" d=" M 270.13 74.32 C 271.09 74.44 271.95 74.82 272.70 75.45 C 273.33 75.44 274.59 75.41 275.22 75.40 C 275.53 75.90 276.17 76.90 276.49 77.40 L 276.22 78.77 C 279.23 77.01 280.10 82.61 283.50 81.32 C 282.65 80.53 280.95 78.95 280.10 78.16 C 281.32 78.43 282.42 79.03 283.55 79.55 L 283.35 80.53 C 284.67 80.50 285.99 80.50 287.31 80.54 C 287.80 81.44 288.78 83.24 289.26 84.15 C 289.23 82.73 289.20 81.32 289.18 79.91 C 289.43 81.26 289.64 82.63 289.78 84.00 C 288.88 84.63 288.00 85.28 287.13 85.95 L 289.39 86.56 C 288.91 87.82 289.49 88.71 290.52 89.41 C 290.19 90.21 290.23 91.02 290.62 91.84 C 290.32 91.79 289.71 91.70 289.41 91.65 C 289.46 90.99 289.58 89.66 289.64 89.00 C 288.44 89.25 287.24 89.50 286.04 89.74 C 286.18 89.44 286.46 88.85 286.61 88.55 C 284.87 89.16 283.48 87.64 281.93 87.13 C 280.78 86.25 278.91 87.01 278.10 85.63 C 276.78 85.55 275.46 85.48 274.14 85.41 C 274.16 85.21 274.19 84.80 274.20 84.60 L 277.04 85.08 L 275.26 83.26 L 275.22 82.04 C 276.02 82.84 277.74 83.17 277.51 84.59 C 279.48 85.94 281.94 85.61 284.20 85.62 C 283.16 84.96 282.07 84.40 280.93 83.95 C 282.21 81.53 283.84 85.43 285.68 84.34 C 286.43 84.01 287.14 83.61 287.82 83.15 C 286.15 83.04 284.59 82.59 283.14 81.80 C 281.24 81.36 279.36 80.86 277.45 80.46 L 277.42 79.35 C 276.57 79.43 274.88 79.60 274.03 79.69 C 273.45 77.77 277.24 79.42 275.58 77.58 C 275.03 77.34 273.91 76.88 273.35 76.64 C 272.23 75.95 270.33 75.91 270.13 74.32 Z" />
<path fill="#ffffff" opacity="1.00" d=" M 163.14 78.02 C 163.83 77.15 164.53 76.28 165.25 75.42 C 165.96 76.65 166.34 78.03 166.69 79.40 C 168.92 80.81 170.85 82.69 172.20 84.96 C 169.27 85.35 167.73 82.18 165.21 81.19 C 164.51 80.14 163.82 79.08 163.14 78.02 Z" />
<path fill="#ffffff" opacity="1.00" d=" M 228.63 75.21 C 232.93 77.76 239.12 79.07 241.17 84.06 C 237.38 81.25 233.00 79.78 228.54 78.34 C 228.56 77.55 228.61 75.99 228.63 75.21 Z" />
<path fill="#ffffff" opacity="1.00" d=" M 249.22 77.27 C 249.91 77.79 249.91 77.79 249.22 77.27 Z" />
<path fill="#ffffff" opacity="1.00" d=" M 167.71 78.13 C 168.03 78.80 168.03 78.80 167.71 78.13 Z" />
<path fill="#ffffff" opacity="1.00" d=" M 169.01 80.03 C 168.41 78.52 170.92 78.63 171.33 79.70 C 173.23 81.52 169.65 81.03 169.01 80.03 Z" />
<path fill="#ffffff" opacity="1.00" d=" M 158.04 80.48 C 160.22 80.94 162.07 82.14 163.95 83.25 L 162.48 79.77 C 166.63 81.98 169.53 85.66 172.88 88.82 C 169.51 89.12 167.49 85.03 163.97 85.13 C 164.05 86.65 165.47 86.62 166.62 86.86 C 168.61 89.01 172.18 89.96 173.01 92.94 C 167.08 90.12 161.77 85.87 158.04 80.48 Z" />
<path fill="#ffffff" opacity="1.00" d=" M 228.01 80.08 C 231.11 80.71 233.81 82.48 236.79 83.50 L 236.27 84.61 L 239.13 83.92 L 237.03 86.13 C 237.77 85.80 239.25 85.15 239.99 84.82 L 239.21 86.88 C 239.57 86.80 240.29 86.62 240.65 86.54 C 240.72 86.96 240.86 87.81 240.93 88.24 C 238.04 88.25 235.99 85.52 233.03 85.97 C 233.49 86.41 234.42 87.27 234.89 87.71 C 231.61 87.38 227.65 85.53 226.33 82.35 C 228.65 81.85 230.74 83.88 233.08 84.03 C 231.88 82.09 229.49 81.67 228.01 80.08 Z" />
<path fill="#ffffff" opacity="1.00" d=" M 242.16 81.26 C 244.23 78.80 246.95 82.73 247.95 84.53 C 247.43 84.98 246.90 85.43 246.38 85.88 C 250.67 86.57 249.82 91.48 252.69 93.53 C 252.26 93.55 251.40 93.60 250.97 93.63 C 251.38 94.05 252.22 94.88 252.63 95.30 C 252.70 96.68 252.55 98.03 252.20 99.36 C 254.26 100.33 254.64 102.45 254.42 104.52 C 256.04 105.77 256.21 107.96 257.58 109.31 C 257.57 111.16 257.15 113.13 258.30 114.76 C 257.80 118.85 259.84 122.75 259.36 126.84 C 258.92 130.13 258.78 133.55 257.55 136.68 C 257.20 136.72 256.50 136.80 256.15 136.84 C 257.16 135.30 256.67 133.66 256.42 131.99 C 257.34 128.69 258.82 125.32 257.69 121.86 C 255.45 124.66 258.39 130.40 254.63 131.86 C 253.57 130.41 253.65 128.71 254.02 127.04 C 253.51 127.31 252.49 127.85 251.99 128.12 C 251.03 126.18 250.79 124.00 250.47 121.89 C 250.37 124.45 249.80 127.03 250.30 129.58 C 250.83 129.46 251.91 129.20 252.45 129.08 C 253.16 131.23 252.42 133.37 251.90 135.46 C 249.76 135.13 248.19 133.42 247.13 131.66 C 244.83 132.59 244.90 130.75 244.35 129.18 C 243.26 130.26 242.42 130.06 241.82 128.59 C 238.38 130.30 236.45 124.99 233.79 123.88 L 236.28 128.13 C 234.41 129.08 231.24 129.31 232.54 126.20 C 231.91 126.26 230.64 126.38 230.00 126.44 C 230.32 125.55 230.95 123.78 231.27 122.90 C 232.02 123.35 233.53 124.25 234.29 124.70 C 234.03 123.83 233.53 122.08 233.27 121.21 C 233.94 121.99 234.37 122.89 234.55 123.90 C 237.58 121.94 239.60 124.98 240.94 127.30 C 240.66 126.58 240.11 125.14 239.83 124.42 L 242.77 124.68 C 241.89 125.67 242.29 127.95 243.82 128.03 C 243.58 127.11 243.10 125.28 242.85 124.36 C 244.15 126.15 245.90 126.87 248.11 126.51 L 247.43 129.49 C 247.14 129.35 246.57 129.07 246.28 128.92 L 246.94 131.27 C 248.67 127.60 248.69 123.65 248.19 119.68 C 246.81 117.67 246.49 115.24 245.82 112.96 C 244.76 110.90 243.18 109.16 241.93 107.23 L 244.07 107.84 C 243.13 101.87 235.10 101.09 233.28 95.82 C 232.15 95.36 231.27 94.61 230.64 93.58 C 232.02 93.92 234.79 94.58 236.17 94.92 C 235.22 94.35 233.30 93.21 232.34 92.64 C 233.63 88.37 225.96 89.03 224.49 85.73 C 228.65 86.92 232.43 89.15 236.61 90.30 L 236.85 89.00 C 236.36 88.68 235.38 88.03 234.89 87.71 C 237.13 88.50 239.24 89.61 241.46 90.45 C 241.63 91.14 241.97 92.51 242.14 93.20 C 239.32 93.04 236.74 91.60 234.09 90.75 C 233.55 91.14 233.02 91.55 232.51 91.96 C 233.90 92.66 236.27 92.90 236.61 94.81 C 237.04 94.67 237.92 94.39 238.35 94.25 L 238.46 95.54 C 241.27 95.26 243.74 97.20 245.31 99.34 C 244.71 99.29 243.53 99.19 242.94 99.15 C 244.02 100.30 245.34 101.32 245.94 102.85 C 243.67 102.54 242.47 100.47 241.06 98.93 C 240.34 97.85 238.21 97.79 238.68 96.09 C 237.18 98.11 235.47 95.67 233.69 96.00 C 236.84 99.77 241.91 101.16 244.83 105.22 C 245.24 107.25 247.02 108.51 248.26 110.04 C 250.08 111.96 250.92 114.54 252.10 116.85 C 251.58 116.89 250.53 116.95 250.01 116.98 C 255.08 116.48 252.70 121.27 252.36 124.18 C 252.88 123.42 253.39 122.65 253.90 121.88 C 254.12 122.67 254.55 124.24 254.77 125.02 C 254.63 122.70 254.56 120.38 254.26 118.08 C 252.37 113.91 249.54 110.37 247.10 106.54 C 247.65 105.33 247.67 104.11 247.17 102.88 C 248.33 103.56 249.52 104.19 250.73 104.78 C 249.77 102.91 246.84 102.42 246.98 100.08 C 249.04 100.96 250.85 102.39 253.05 102.92 C 251.37 100.30 248.05 99.46 245.93 97.25 C 246.56 97.22 247.80 97.17 248.43 97.14 C 246.90 95.68 245.36 94.23 244.12 92.53 L 246.50 93.31 C 247.06 90.41 242.69 89.54 242.43 86.64 C 243.29 87.01 244.99 87.74 245.85 88.11 C 245.24 86.84 244.65 85.56 244.09 84.27 C 244.53 84.01 245.41 83.49 245.85 83.23 C 245.02 83.21 244.20 83.33 243.40 83.58 C 243.09 83.00 242.47 81.84 242.16 81.26 Z" />
<path fill="#ffffff" opacity="1.00" d=" M 308.27 82.94 C 308.21 81.54 310.61 81.03 311.68 81.44 C 312.62 83.33 309.33 84.19 308.27 82.94 Z" />
<path fill="#ffffff" opacity="1.00" d=" M 206.36 82.72 C 206.49 82.60 206.75 82.35 206.88 82.22 C 206.75 82.35 206.49 82.60 206.36 82.72 Z" />
<path fill="#ffffff" opacity="1.00" d=" M 204.05 83.60 C 204.63 83.38 205.78 82.94 206.36 82.72 C 206.53 84.15 206.47 85.58 206.18 87.01 L 205.52 86.09 C 204.43 87.52 203.01 88.72 201.32 89.38 C 199.64 87.08 206.28 86.53 204.05 83.60 Z" />
<path fill="#ffffff" opacity="1.00" d=" M 309.47 84.23 C 310.82 83.94 312.20 83.65 313.55 83.34 C 313.58 84.69 314.41 85.78 315.10 86.88 C 314.26 86.95 312.58 87.08 311.74 87.15 C 310.89 86.25 310.11 85.28 309.47 84.23 Z" />
<path fill="#ffffff" opacity="1.00" d=" M 155.36 84.55 C 160.72 85.81 164.27 90.40 168.74 93.28 C 170.52 94.58 172.84 95.43 173.81 97.56 C 170.72 95.75 167.03 95.28 163.99 93.45 C 164.37 92.82 165.13 91.57 165.51 90.94 L 163.77 90.87 L 163.17 91.68 L 163.49 90.33 C 161.95 89.06 160.48 89.01 159.08 90.21 C 160.85 87.10 155.60 87.35 155.36 84.55 Z" />
<path fill="#ffffff" opacity="1.00" d=" M 219.52 85.19 C 220.65 85.27 221.77 85.34 222.90 85.40 L 222.47 86.40 C 224.10 86.90 225.28 88.18 226.45 89.35 C 226.20 91.05 227.44 92.33 228.01 93.84 C 226.76 93.00 225.73 91.71 224.30 91.25 C 223.85 92.25 223.23 93.14 222.53 93.98 C 224.55 94.35 225.61 96.38 227.07 97.60 C 228.11 95.69 230.37 96.32 230.57 98.41 C 230.01 98.49 228.90 98.65 228.34 98.73 L 228.72 100.24 C 226.72 98.45 224.66 96.75 222.64 94.99 C 222.12 95.90 221.58 96.79 220.92 97.60 L 221.71 94.77 C 219.50 95.31 219.12 92.33 220.27 91.23 C 221.21 90.28 220.52 88.80 220.76 87.66 L 219.72 87.49 C 219.67 86.92 219.57 85.77 219.52 85.19 M 224.69 89.29 C 225.27 90.07 225.27 90.07 224.69 89.29 Z" />
<path fill="#ffffff" opacity="1.00" d=" M 269.28 86.16 C 270.25 85.13 272.51 86.43 271.78 87.78 C 270.86 88.99 268.53 87.48 269.28 86.16 Z" />
<path fill="#ffffff" opacity="1.00" d=" M 153.40 87.51 C 154.99 86.84 157.25 88.74 157.33 90.33 C 155.85 90.85 153.26 89.08 153.40 87.51 Z" />
<path fill="#ffffff" opacity="1.00" d=" M 274.97 88.33 C 276.82 86.94 279.21 87.72 281.28 87.94 C 281.36 88.31 281.52 89.07 281.61 89.44 C 283.87 88.63 285.34 90.77 286.96 91.89 C 288.45 93.17 291.21 94.01 290.55 96.57 C 289.75 96.53 288.14 96.45 287.34 96.41 L 287.39 95.56 C 284.15 95.12 281.39 92.03 278.00 93.09 L 278.82 91.07 C 275.62 91.80 272.33 91.80 269.07 91.74 L 269.04 90.85 C 269.64 90.81 270.83 90.73 271.43 90.70 C 270.80 90.54 269.54 90.24 268.91 90.08 C 269.10 88.13 271.69 89.46 272.96 89.08 C 272.86 89.53 272.65 90.43 272.54 90.88 C 275.73 92.00 278.77 89.65 282.05 90.48 C 280.27 88.56 277.35 88.78 274.97 88.33 Z" />
<path fill="#ffffff" opacity="1.00" d=" M 303.15 89.17 C 303.71 87.96 304.93 88.29 305.99 88.32 L 304.21 89.08 L 301.94 91.80 L 305.92 90.49 C 305.34 91.35 304.07 91.82 304.08 92.99 C 305.08 93.49 306.16 93.83 307.18 94.33 C 306.35 94.59 304.71 95.09 303.89 95.35 C 303.78 94.91 303.55 94.02 303.43 93.58 C 302.22 93.43 301.09 94.33 299.95 94.62 C 301.16 94.54 302.38 94.45 303.60 94.34 L 303.62 96.24 C 302.23 96.48 300.82 96.81 299.79 97.83 C 302.56 97.23 305.28 96.36 308.09 95.93 C 306.62 97.39 305.17 98.86 303.95 100.54 C 304.72 100.47 306.26 100.33 307.03 100.26 C 306.72 100.57 306.10 101.20 305.79 101.51 C 302.68 103.95 308.95 101.09 308.73 103.83 C 306.25 104.23 304.39 106.05 302.07 106.87 C 304.20 109.49 300.26 110.28 298.46 111.05 C 299.74 109.50 297.82 108.49 296.57 108.11 C 295.83 106.26 296.57 105.82 298.79 106.79 C 298.42 106.23 297.69 105.12 297.32 104.56 L 298.37 104.79 C 298.73 104.00 299.44 102.44 299.80 101.65 L 298.34 101.69 C 298.43 101.29 298.62 100.50 298.72 100.11 C 298.16 100.06 297.06 99.97 296.51 99.92 C 297.61 98.94 297.58 97.48 297.75 96.12 C 297.06 95.34 296.53 94.46 296.14 93.49 C 297.76 92.49 296.05 91.15 295.74 90.06 C 298.18 89.58 300.63 88.91 303.15 89.17 Z" />
<path fill="#ffffff" opacity="1.00" d=" M 151.18 89.41 C 154.23 89.62 155.64 92.54 157.95 94.03 C 160.81 94.85 163.95 94.65 166.48 96.46 C 168.20 97.67 171.27 97.31 172.12 99.52 C 170.06 98.96 168.73 100.86 166.95 101.41 C 164.66 100.81 162.42 100.01 160.22 99.14 L 160.91 101.61 C 155.38 100.68 150.45 98.12 146.14 94.60 C 147.73 94.67 148.25 93.84 147.68 92.11 C 151.68 94.17 154.71 97.88 159.16 99.11 C 158.70 98.61 157.76 97.60 157.30 97.09 C 158.28 97.15 160.23 97.27 161.21 97.33 C 159.36 95.79 157.00 94.95 155.36 93.13 C 155.49 93.86 155.75 95.30 155.88 96.03 L 155.10 96.17 C 154.88 95.70 154.44 94.77 154.22 94.30 C 154.57 93.92 154.92 93.53 155.26 93.15 C 153.73 92.26 151.36 91.47 151.18 89.41 M 148.28 94.32 L 148.31 94.98 L 149.00 94.99 L 148.95 94.32 L 148.28 94.32 M 149.00 94.99 C 149.55 96.36 150.61 97.18 152.19 97.47 C 152.50 95.91 150.33 94.76 149.00 94.99 Z" />
<path fill="#ffffff" opacity="1.00" d=" M 160.18 90.16 C 161.33 90.18 162.33 90.69 163.17 91.68 C 163.30 92.04 163.55 92.75 163.67 93.11 C 162.26 92.92 160.28 91.63 160.18 90.16 Z" />
<path fill="#ffffff" opacity="1.00" d=" M 314.33 94.58 C 313.47 92.51 316.14 91.95 317.60 91.54 C 318.02 93.63 315.78 93.97 314.33 94.58 Z" />
<path fill="#ffffff" opacity="1.00" d=" M 269.74 93.28 C 271.98 93.53 274.27 93.66 276.36 94.59 C 278.17 94.40 280.53 93.47 281.63 95.55 C 282.88 95.54 284.13 95.52 285.38 95.47 L 285.35 96.47 L 286.69 96.27 C 286.01 97.90 286.54 98.77 288.28 98.88 C 288.26 100.86 289.64 102.06 291.60 101.56 C 291.46 103.51 290.54 106.49 293.37 106.82 C 292.75 108.50 294.99 111.64 292.07 111.80 C 289.96 110.82 288.02 109.50 286.28 107.96 C 286.21 108.46 286.08 109.47 286.02 109.97 C 285.63 109.58 284.85 108.81 284.46 108.42 C 282.97 108.29 280.96 108.95 279.95 107.48 C 282.02 107.55 284.09 107.65 286.17 107.65 C 285.02 106.42 283.27 105.57 282.99 103.75 C 283.71 103.77 285.14 103.83 285.86 103.85 C 284.35 102.59 282.53 101.73 281.28 100.18 L 284.60 100.49 C 283.28 99.20 281.75 98.55 279.99 98.53 C 277.59 98.78 275.75 96.42 273.20 97.49 C 274.18 99.64 279.75 99.02 277.87 102.28 C 276.22 102.24 274.58 102.20 272.94 102.16 C 273.45 101.68 274.47 100.72 274.99 100.24 C 272.80 98.27 271.06 95.91 269.74 93.28 M 276.19 95.99 C 276.47 97.48 278.91 97.07 280.09 97.13 C 279.86 95.82 277.29 95.16 276.19 95.99 Z" />
<path fill="#ffffff" opacity="1.00" d=" M 210.97 96.96 C 210.91 96.48 210.77 95.51 210.70 95.02 C 212.07 95.78 214.25 95.98 214.03 98.06 C 213.35 97.87 211.99 97.49 211.31 97.30 L 211.31 98.73 C 209.07 97.74 205.19 98.67 204.93 95.19 C 206.95 95.75 208.97 96.34 210.97 96.96 Z" />
<path fill="#ffffff" opacity="1.00" d=" M 200.35 96.53 C 203.94 96.47 206.58 99.11 209.88 100.07 C 211.04 100.03 211.31 100.85 211.32 101.73 C 209.48 102.92 205.10 105.36 204.03 102.39 C 205.81 101.75 209.12 103.08 209.57 100.57 C 206.25 100.20 201.50 100.56 200.35 96.53 Z" />
<path fill="#ffffff" opacity="1.00" d=" M 142.93 96.96 C 144.04 97.50 145.12 98.08 146.19 98.71 L 146.02 97.06 L 146.91 97.08 C 146.69 97.60 146.25 98.64 146.03 99.16 C 148.40 100.56 152.06 100.94 152.91 103.99 C 151.06 103.44 149.23 102.81 147.35 102.40 L 147.44 101.25 C 147.09 101.27 146.39 101.32 146.04 101.35 C 147.32 104.09 150.56 104.68 152.95 106.08 L 152.55 106.48 C 149.38 106.90 146.45 105.59 143.34 105.56 L 143.91 104.16 C 142.65 104.97 141.69 104.71 141.03 103.36 L 144.11 104.08 C 143.48 103.29 142.22 101.71 141.60 100.92 C 142.40 101.22 143.99 101.83 144.79 102.13 L 143.89 100.08 L 147.25 101.07 C 145.95 99.57 143.88 98.76 142.93 96.96 Z" />
<path fill="#ffffff" opacity="1.00" d=" M 219.08 97.22 C 220.64 96.90 222.55 99.26 222.48 100.73 C 220.78 101.16 218.85 98.82 219.08 97.22 Z" />
<path fill="#ffffff" opacity="1.00" d=" M 223.82 98.66 C 223.36 98.29 223.36 98.29 223.82 98.66 Z" />
<path fill="#ffffff" opacity="1.00" d=" M 314.23 98.13 C 314.89 98.03 316.22 97.81 316.88 97.70 C 316.84 98.44 316.76 99.93 316.72 100.67 C 316.10 100.94 314.88 101.49 314.26 101.76 C 314.96 101.91 316.35 102.22 317.05 102.37 C 316.47 103.60 315.59 104.56 314.39 105.25 C 314.44 104.51 314.55 103.02 314.61 102.28 C 314.02 102.34 312.86 102.47 312.27 102.54 C 312.27 100.24 313.55 99.35 316.12 99.89 C 315.65 99.45 314.70 98.57 314.23 98.13 Z" />
<path fill="#ffffff" opacity="1.00" d=" M 223.82 98.66 C 225.05 98.36 226.63 99.45 226.45 100.77 C 225.43 101.37 223.19 99.71 223.82 98.66 Z" />
<path fill="#ffffff" opacity="1.00" d=" M 160.52 104.43 C 158.16 103.60 160.35 102.32 161.16 101.64 C 164.01 102.84 167.04 103.46 170.03 104.19 C 170.17 104.49 170.45 105.09 170.59 105.39 C 167.71 108.21 163.82 104.80 160.52 104.43 Z" />
<path fill="#ffffff" opacity="1.00" d=" M 271.95 103.29 C 274.50 103.19 277.06 103.55 279.00 105.37 C 278.18 107.33 275.95 107.72 274.34 108.77 C 274.43 108.19 274.63 107.02 274.72 106.44 C 273.56 106.59 272.59 106.26 271.83 105.44 L 274.52 105.86 C 273.88 105.22 272.60 103.93 271.95 103.29 Z" />
<path fill="#ffffff" opacity="1.00" d=" M 156.91 105.09 C 158.43 105.29 159.96 105.71 161.52 105.46 L 161.64 106.46 C 162.89 106.48 164.15 106.51 165.41 106.54 L 165.48 107.35 C 167.29 107.90 169.08 108.53 170.96 108.84 C 170.25 111.36 166.95 110.27 165.03 109.98 C 162.16 108.85 157.81 110.78 156.18 107.35 C 157.81 107.95 159.40 108.63 161.09 109.07 C 160.60 106.98 158.26 106.47 156.91 105.09 Z" />
<path fill="#ffffff" opacity="1.00" d=" M 200.38 106.42 C 203.97 106.59 207.51 106.29 210.91 105.06 C 210.43 105.57 209.47 106.58 208.99 107.09 C 211.87 107.55 209.76 109.78 208.02 108.12 C 208.16 108.66 208.43 109.73 208.57 110.27 C 206.43 110.73 204.11 112.45 201.94 111.49 C 203.69 110.74 205.98 110.83 207.19 109.15 C 205.06 109.18 202.96 109.54 200.88 109.98 C 201.14 109.55 201.67 108.70 201.93 108.27 C 201.49 108.31 200.60 108.38 200.16 108.41 C 200.22 107.92 200.33 106.92 200.38 106.42 Z" />
<path fill="#ffffff" opacity="1.00" d=" M 303.76 107.10 C 305.66 106.67 307.25 104.76 309.28 105.11 C 309.40 106.87 306.44 106.82 305.38 107.88 C 304.48 108.13 303.94 107.88 303.76 107.10 Z" />
<path fill="#ffffff" opacity="1.00" d=" M 224.19 106.15 C 225.49 107.07 226.42 108.36 227.25 109.71 C 231.18 108.61 234.23 113.16 234.39 116.66 C 233.68 116.30 232.27 115.57 231.56 115.20 C 230.59 114.06 229.59 112.97 228.50 111.95 C 226.62 115.85 224.44 110.71 223.04 109.18 C 223.54 109.13 224.55 109.03 225.06 108.98 C 224.40 108.14 224.12 107.19 224.19 106.15 Z" />
<path fill="#ffffff" opacity="1.00" d=" M 306.79 107.55 C 308.43 107.78 309.50 106.54 310.60 105.55 C 312.16 105.47 313.72 105.55 315.27 105.76 C 314.95 106.08 314.29 106.71 313.97 107.02 C 309.63 108.38 305.96 111.20 301.74 112.78 C 301.36 109.70 305.04 109.06 306.79 107.55 Z" />
<path fill="#ffffff" opacity="1.00" d=" M 139.75 107.20 C 143.68 107.59 147.43 108.94 151.31 109.63 C 151.43 109.91 151.67 110.46 151.79 110.73 C 147.97 110.10 144.21 109.10 140.49 108.05 C 140.31 107.83 139.93 107.41 139.75 107.20 Z" />
<path fill="#ffffff" opacity="1.00" d=" M 172.87 109.13 C 173.08 107.85 174.74 106.94 175.92 107.41 C 177.12 108.98 173.52 110.95 172.87 109.13 Z" />
<path fill="#ffffff" opacity="1.00" d=" M 238.99 108.70 C 241.10 108.26 242.58 109.91 243.79 111.34 C 244.49 115.53 248.10 118.56 248.09 122.92 C 245.66 122.68 245.85 119.89 244.05 119.14 C 243.87 119.64 243.52 120.63 243.35 121.12 C 243.01 117.72 241.11 114.58 241.79 111.08 L 241.07 111.16 C 241.22 113.82 241.37 116.48 241.59 119.14 C 240.35 118.46 239.12 117.76 237.91 117.04 C 237.84 116.00 237.63 115.00 237.27 114.03 C 237.36 114.97 237.54 116.85 237.63 117.79 C 234.85 117.02 235.48 113.37 234.63 111.23 L 236.36 112.71 C 236.53 110.26 241.66 111.99 238.99 108.70 Z" />
<path fill="#ffffff" opacity="1.00" d=" M 311.39 109.20 C 312.52 109.26 313.65 109.33 314.78 109.42 C 313.74 110.75 312.26 111.79 310.47 111.53 L 310.69 112.79 L 309.27 112.29 C 309.25 112.66 309.19 113.38 309.16 113.75 L 307.30 113.13 L 307.63 114.40 C 305.28 115.50 303.55 117.56 301.29 118.83 C 301.31 116.82 303.48 115.85 304.71 114.63 C 303.52 114.91 301.14 115.47 299.95 115.75 C 300.31 114.90 300.95 114.38 301.86 114.19 C 305.21 112.90 308.35 111.11 311.39 109.20 Z" />
<path fill="#ffffff" opacity="1.00" d=" M 174.43 111.31 C 176.86 112.38 178.57 109.79 180.92 109.90 C 179.95 110.56 179.46 111.45 179.45 112.59 C 177.71 112.62 176.02 113.66 175.25 115.23 C 176.70 114.61 178.20 114.29 179.74 114.28 C 178.56 116.16 176.21 116.60 174.31 117.46 L 173.44 116.56 L 175.61 116.00 C 174.30 114.89 172.41 113.47 170.88 116.12 C 170.73 113.23 175.40 114.35 174.43 111.31 Z" />
<path fill="#ffffff" opacity="1.00" d=" M 191.36 110.37 C 192.95 110.48 194.73 109.75 196.17 110.71 C 195.44 110.84 193.98 111.10 193.25 111.23 L 193.30 112.64 C 194.02 112.56 195.48 112.42 196.20 112.34 C 195.49 113.01 194.08 114.35 193.37 115.02 C 194.49 115.45 198.60 113.25 198.37 116.13 C 199.09 118.93 195.04 118.51 193.52 118.57 C 194.56 117.48 195.66 116.45 196.72 115.38 C 195.18 115.45 193.68 115.75 192.25 116.31 C 192.86 116.41 194.07 116.62 194.67 116.72 L 192.71 118.42 L 190.29 118.18 L 191.82 116.38 C 191.36 116.09 190.44 115.49 189.98 115.19 C 190.74 115.22 192.27 115.27 193.03 115.30 C 192.67 113.40 189.97 113.88 189.56 112.04 L 192.95 113.03 C 192.55 112.37 191.76 111.04 191.36 110.37 Z" />
<path fill="#ffffff" opacity="1.00" d=" M 148.89 111.85 L 149.94 113.41 L 149.94 113.06 C 153.08 113.62 156.50 113.67 159.17 115.65 C 159.72 116.50 160.28 117.35 160.86 118.19 C 159.34 119.13 157.74 120.06 155.89 119.94 C 156.53 118.18 157.91 117.49 160.02 117.89 C 158.26 116.33 156.02 116.31 153.80 116.57 C 152.89 117.01 151.94 117.34 150.95 117.55 C 151.19 116.95 151.66 115.75 151.89 115.16 C 150.61 114.92 149.48 114.35 148.52 113.45 C 148.61 113.05 148.80 112.25 148.89 111.85 Z" />
<path fill="#ffffff" opacity="1.00" d=" M 168.18 113.74 C 167.92 110.81 172.04 112.21 173.78 111.48 L 173.71 112.92 C 171.86 113.17 170.02 113.48 168.18 113.74 Z" />
<path fill="#ffffff" opacity="1.00" d=" M 201.29 114.35 C 204.20 113.44 207.06 112.18 210.14 112.01 C 209.46 112.79 208.62 113.31 207.60 113.58 C 205.64 114.30 203.61 114.80 201.60 115.35 L 201.29 114.35 Z" />
<path fill="#ffffff" opacity="1.00" d=" M 207.60 113.58 C 209.90 114.24 211.83 112.45 213.99 112.02 C 213.75 113.82 210.04 113.34 211.34 115.52 C 212.02 115.14 213.39 114.38 214.07 114.00 C 213.92 114.30 213.61 114.89 213.46 115.19 C 210.42 116.88 207.21 118.27 203.98 119.56 C 204.53 118.97 205.64 117.79 206.19 117.20 C 209.47 117.95 206.36 114.02 206.19 117.20 C 204.69 116.79 203.35 117.77 201.99 118.18 L 201.44 116.63 C 203.48 115.83 205.52 115.04 207.64 114.48 L 207.60 113.58 M 209.29 115.21 C 209.85 115.87 209.85 115.87 209.29 115.21 Z" />
<path fill="#ffffff" opacity="1.00" d=" M 218.80 116.81 C 221.02 115.20 223.15 116.48 225.41 115.83 C 226.59 117.78 224.05 118.91 223.01 120.09 C 221.62 120.98 220.40 123.02 218.58 122.59 C 218.57 121.77 218.57 120.15 218.57 119.34 L 216.95 119.56 C 217.43 118.55 218.20 117.74 218.80 116.81 Z" />
<path fill="#ffffff" opacity="1.00" d=" M 177.29 117.18 C 178.84 116.29 179.23 118.64 177.82 119.06 C 176.20 120.16 175.69 117.47 177.29 117.18 Z" />
<path fill="#ffffff" opacity="1.00" d=" M 281.92 117.22 C 286.33 118.38 290.07 120.91 294.13 122.87 L 294.78 124.39 C 295.33 123.62 295.91 122.86 296.50 122.11 L 296.23 123.69 L 297.89 123.40 C 297.93 123.80 298.02 124.61 298.06 125.02 L 297.46 123.62 C 296.69 123.99 295.92 124.37 295.16 124.76 C 295.95 126.47 294.87 128.42 295.91 130.15 C 294.09 129.98 292.58 128.92 290.97 128.19 C 292.38 130.81 297.47 132.23 295.82 135.94 C 293.83 135.88 292.72 133.62 291.01 132.78 C 290.42 131.64 289.92 130.45 289.46 129.26 C 287.87 128.23 286.23 127.25 284.57 126.36 L 284.66 125.26 L 283.24 125.92 L 283.80 124.08 L 282.04 124.81 C 282.28 124.33 282.75 123.37 282.99 122.89 C 280.70 122.98 280.26 125.87 277.79 125.62 L 275.23 127.69 C 279.61 124.17 284.05 127.34 287.31 130.25 C 284.41 129.61 281.99 127.86 279.19 126.98 C 279.36 127.68 279.69 129.07 279.85 129.76 C 279.51 129.64 278.82 129.40 278.48 129.29 C 278.50 130.10 278.55 131.73 278.58 132.54 C 277.90 132.57 276.56 132.63 275.89 132.65 C 276.41 132.96 277.46 133.58 277.99 133.89 C 277.47 133.82 276.44 133.66 275.93 133.58 C 275.75 134.19 275.40 135.41 275.23 136.01 C 276.41 135.74 277.41 134.96 277.99 133.89 L 278.72 133.29 C 279.20 133.64 280.16 134.35 280.63 134.71 C 280.18 134.94 279.28 135.40 278.82 135.63 C 279.61 135.63 281.18 135.64 281.97 135.65 L 281.23 136.76 L 279.05 136.70 C 279.23 139.52 282.38 138.05 283.96 137.72 L 283.41 136.28 C 285.43 136.15 286.85 137.80 288.82 138.00 L 288.58 138.83 C 284.85 137.81 281.14 140.25 277.59 138.16 C 277.26 141.62 273.05 141.84 270.86 143.83 L 271.96 144.70 C 273.75 142.94 276.36 142.42 278.20 140.70 C 278.61 140.70 279.42 140.72 279.82 140.72 L 279.37 139.16 C 281.11 140.01 282.97 140.83 284.93 140.17 L 284.96 140.83 C 283.29 141.10 281.56 141.08 279.98 141.72 C 276.42 145.29 271.08 146.66 268.16 150.97 C 269.82 150.00 271.38 148.80 273.28 148.32 L 273.88 147.60 C 274.33 147.60 275.22 147.59 275.67 147.58 L 275.61 146.37 C 275.91 146.22 276.51 145.94 276.81 145.80 C 276.56 147.05 275.49 149.02 277.92 148.22 L 277.21 146.37 C 279.02 147.66 280.26 145.25 282.01 145.16 C 282.06 145.68 282.15 146.71 282.19 147.23 C 283.87 145.18 286.06 147.19 287.93 147.57 C 289.07 147.36 290.12 146.92 291.09 146.25 C 288.85 145.72 284.67 147.90 284.05 144.82 C 287.69 143.94 291.44 144.15 294.58 146.36 C 299.39 147.82 303.14 151.31 307.63 153.47 C 307.68 153.73 307.78 154.26 307.84 154.52 C 306.21 154.19 304.58 153.78 303.06 153.16 C 302.22 156.10 306.23 156.42 306.14 159.12 C 303.32 158.20 300.66 156.70 298.76 154.38 L 301.68 154.88 C 299.86 153.40 297.82 152.19 295.96 150.77 C 296.73 150.43 297.51 150.09 298.29 149.76 C 297.07 149.00 296.18 149.15 295.62 150.21 C 294.15 149.81 292.69 149.45 291.23 149.07 L 291.29 149.44 C 293.51 150.92 296.16 151.84 298.04 153.78 C 296.74 153.56 295.50 153.18 294.31 152.63 C 292.61 153.96 290.52 153.89 288.49 153.51 C 288.54 154.16 288.64 155.46 288.69 156.11 C 287.57 156.39 285.99 156.26 286.01 157.89 C 287.14 157.81 288.17 157.33 289.15 156.80 L 289.74 157.52 C 290.34 157.58 291.53 157.70 292.13 157.75 C 291.45 157.13 290.10 155.89 289.42 155.27 C 292.34 154.47 293.46 157.79 296.34 157.48 C 296.32 156.95 296.26 155.88 296.23 155.35 C 297.24 155.62 298.24 155.89 299.26 156.17 C 298.27 156.73 297.30 157.30 296.35 157.91 C 298.14 158.79 299.97 159.66 302.00 159.84 C 303.36 160.30 301.75 161.48 301.39 162.13 L 302.98 162.69 L 302.65 163.71 C 299.51 161.49 296.28 158.61 292.17 158.86 C 292.78 160.11 293.76 160.89 295.12 161.22 C 297.81 162.01 300.00 163.80 302.28 165.36 C 301.34 165.79 300.41 166.25 299.51 166.76 C 301.15 166.84 302.19 168.18 302.61 169.62 C 300.78 169.05 299.29 167.82 297.79 166.69 C 298.52 166.18 299.25 165.69 299.99 165.19 C 298.03 164.08 296.24 162.52 293.93 162.19 C 292.26 160.63 289.50 161.87 287.40 161.39 C 287.05 161.78 286.34 162.54 285.99 162.92 C 286.80 162.74 288.42 162.37 289.22 162.18 C 289.71 163.61 290.17 165.05 290.60 166.50 C 289.55 166.50 288.67 166.83 287.96 167.51 C 289.79 166.76 292.54 167.65 292.18 169.94 C 292.78 172.30 289.67 171.45 288.98 170.40 C 289.98 172.17 292.43 171.35 294.08 171.93 C 294.54 173.79 295.13 175.63 295.46 177.53 L 296.92 177.20 L 297.18 178.37 C 295.92 178.00 292.04 178.12 295.74 179.21 C 295.26 180.46 294.83 181.74 294.75 183.09 C 292.95 184.05 290.71 187.00 289.14 184.14 C 289.44 184.82 290.05 186.18 290.35 186.87 C 288.34 186.26 286.36 185.64 284.36 185.04 C 284.35 183.39 282.46 183.32 281.55 182.36 C 280.45 184.00 285.44 182.96 284.33 185.60 C 282.00 185.30 279.00 185.43 279.64 182.11 C 277.55 182.42 279.44 185.66 277.29 185.67 C 276.97 185.45 276.34 185.03 276.03 184.82 L 277.23 181.12 C 276.30 182.94 274.95 184.17 273.19 184.80 C 274.27 182.73 275.88 179.70 278.68 180.72 C 278.17 179.31 278.50 178.38 279.67 177.94 C 279.55 178.71 279.29 180.24 279.16 181.01 C 280.34 180.23 283.62 178.55 280.32 177.57 C 283.44 176.46 282.52 173.11 282.75 170.52 C 283.37 168.73 286.98 165.14 283.00 165.19 C 283.45 164.65 284.34 163.56 284.79 163.02 C 282.71 163.59 281.09 165.10 279.47 166.42 L 279.38 164.10 C 277.17 165.38 275.28 167.15 273.13 168.52 C 272.84 168.63 272.27 168.84 271.99 168.95 C 272.74 167.82 275.70 166.49 274.15 165.00 C 272.75 165.49 271.45 167.77 269.93 166.08 C 272.05 164.52 274.04 162.67 276.56 161.76 L 275.95 160.73 C 276.37 160.84 277.20 161.07 277.61 161.18 L 278.71 161.82 L 276.68 162.18 L 276.71 163.69 L 276.20 163.34 L 275.83 163.75 C 276.05 163.74 276.49 163.70 276.71 163.69 C 278.49 162.75 280.20 161.68 281.94 160.65 C 282.41 160.98 283.34 161.64 283.81 161.97 C 283.34 161.64 282.41 160.98 281.94 160.65 L 280.83 159.50 L 283.19 159.33 C 280.76 156.76 280.39 162.21 277.61 161.18 C 277.95 160.64 278.61 159.56 278.95 159.02 C 277.75 158.98 276.02 159.22 275.95 160.73 L 274.77 160.24 C 274.34 162.70 271.30 163.08 269.84 164.80 C 267.39 166.68 265.30 170.06 261.93 169.90 C 263.56 168.16 266.55 167.62 267.08 165.04 C 265.28 165.39 263.96 167.48 262.01 166.64 C 265.29 163.77 269.37 162.03 273.32 160.29 C 275.31 159.32 278.07 156.75 279.91 159.62 C 279.96 157.88 279.23 156.55 277.73 155.63 C 278.60 155.63 280.36 155.62 281.24 155.62 C 280.43 155.16 279.63 154.71 278.83 154.25 C 279.36 154.32 280.43 154.46 280.96 154.53 C 281.67 152.38 284.56 152.55 286.37 152.07 C 285.01 153.38 283.04 153.50 281.34 154.05 C 281.37 154.82 281.41 156.35 281.43 157.12 C 282.21 156.69 282.53 156.00 282.38 155.05 C 283.95 154.77 285.50 154.31 287.02 153.81 C 287.73 151.66 290.30 152.60 291.92 152.66 C 291.55 149.92 288.84 151.25 287.18 149.95 C 285.80 150.35 284.38 150.61 282.94 150.56 C 282.03 151.21 281.03 151.66 279.94 151.91 C 281.15 149.31 284.39 148.58 287.02 148.53 C 284.93 147.99 281.86 147.32 280.66 149.69 C 280.11 148.93 279.53 148.19 278.93 147.48 C 278.38 148.08 277.27 149.29 276.72 149.90 C 277.25 149.81 278.30 149.63 278.83 149.54 C 279.56 152.56 277.42 154.21 274.89 155.12 C 275.48 154.25 276.67 152.52 277.27 151.65 L 274.92 152.92 C 273.95 155.79 273.12 153.06 273.24 152.09 C 270.90 153.44 267.84 151.82 265.86 153.91 C 264.74 155.18 260.98 155.23 262.67 157.65 C 260.09 159.21 259.22 162.25 257.08 164.24 C 257.30 164.66 257.72 165.49 257.93 165.91 L 256.20 165.00 C 256.26 165.92 256.38 167.75 256.44 168.67 C 255.92 168.54 254.86 168.28 254.34 168.15 L 254.73 169.59 C 249.74 172.05 245.89 176.36 240.29 177.65 C 238.83 176.79 241.04 175.37 242.02 175.16 C 244.50 174.22 247.87 174.00 249.06 171.24 L 246.69 171.43 L 246.19 172.53 C 245.50 172.47 244.12 172.33 243.42 172.27 L 243.48 173.60 C 242.66 173.50 241.01 173.30 240.19 173.20 L 240.68 174.75 C 240.06 174.75 238.84 174.74 238.23 174.74 C 241.52 174.41 238.93 169.11 242.48 170.48 L 242.34 169.44 C 244.00 169.25 245.37 168.05 247.06 168.04 C 249.01 168.48 245.95 169.46 245.45 169.82 C 246.46 169.70 248.49 169.46 249.50 169.34 C 249.79 171.49 250.07 171.40 250.35 169.07 L 252.30 170.02 L 250.97 168.15 C 252.08 167.71 253.22 167.40 254.41 167.21 C 254.55 166.67 254.84 165.58 254.99 165.04 C 253.85 167.14 249.97 165.74 250.38 168.97 C 249.60 168.26 248.83 167.55 248.06 166.84 L 250.17 166.54 C 250.41 166.20 250.89 165.51 251.13 165.17 C 249.85 165.40 248.52 165.65 247.53 166.56 C 245.34 167.95 242.63 167.95 240.20 168.66 C 240.19 168.38 240.19 167.83 240.19 167.55 C 242.56 166.79 244.88 165.86 247.29 165.21 C 247.83 163.96 248.39 162.71 248.92 161.46 C 249.54 161.46 250.76 161.46 251.37 161.46 C 251.60 160.99 252.06 160.04 252.28 159.57 L 253.64 159.74 C 253.21 160.98 250.95 164.14 253.89 163.74 C 255.12 163.83 253.68 161.98 254.88 161.69 C 256.92 161.85 256.65 160.36 256.27 159.12 C 259.90 158.98 256.94 154.24 260.87 154.50 C 257.59 153.68 261.01 149.55 263.16 149.97 L 259.42 150.52 C 259.59 149.37 259.57 148.22 259.36 147.07 C 262.75 147.99 266.86 146.55 269.23 144.04 C 268.05 144.28 266.87 144.52 265.70 144.78 C 266.14 143.64 267.05 142.86 267.99 142.13 C 266.95 142.16 264.88 142.21 263.85 142.24 C 264.83 141.05 266.58 140.43 267.04 138.83 C 266.41 138.78 265.14 138.67 264.50 138.61 C 264.53 137.95 264.57 136.63 264.60 135.97 L 267.28 134.45 C 264.50 133.27 262.73 135.13 261.25 136.86 C 261.30 136.30 261.42 135.18 261.47 134.62 C 263.78 134.84 265.41 132.68 266.69 131.03 C 266.52 130.14 266.18 128.35 266.01 127.45 C 267.42 125.99 270.07 126.10 271.07 124.29 C 269.00 124.71 266.95 125.22 264.88 125.58 C 266.44 123.03 269.25 121.98 271.61 120.38 C 274.13 118.61 273.21 122.10 274.45 123.05 C 274.44 122.45 274.43 121.23 274.43 120.63 C 275.70 120.85 278.25 121.28 279.53 121.50 C 277.48 122.82 275.20 123.63 272.95 124.48 C 273.11 124.77 273.45 125.33 273.62 125.62 C 277.31 125.42 280.08 122.35 283.66 122.07 L 283.31 123.73 C 283.92 123.52 285.15 123.10 285.77 122.89 L 285.26 124.55 C 286.37 124.59 288.60 124.69 289.71 124.73 C 288.89 122.56 286.74 122.19 284.75 121.91 C 285.48 121.19 286.42 120.78 287.32 120.33 C 285.96 119.94 284.67 119.41 283.44 118.73 C 282.88 119.31 282.30 119.87 281.71 120.41 C 280.91 120.09 279.31 119.45 278.51 119.13 L 278.23 117.08 L 280.38 118.14 L 281.21 119.53 C 281.50 118.78 281.74 118.01 281.92 117.22 M 289.48 159.16 C 289.77 160.40 290.57 160.69 291.87 160.01 C 291.61 158.70 290.82 158.41 289.48 159.16 M 280.80 162.80 L 280.85 163.43 C 281.00 163.24 281.30 162.87 281.44 162.68 L 280.80 162.80 Z" />
<path fill="#ffffff" opacity="1.00" d=" M 226.08 117.91 C 227.26 118.12 228.04 118.80 228.41 119.95 C 227.74 121.06 226.91 122.06 226.09 123.06 C 225.68 122.77 224.84 122.19 224.43 121.91 C 223.53 123.62 222.25 124.96 220.09 124.68 C 220.77 123.51 221.65 122.52 222.74 121.71 C 223.00 121.47 223.52 120.99 223.78 120.74 C 224.52 119.78 225.22 118.78 226.08 117.91 Z" />
<path fill="#ffffff" opacity="1.00" d=" M 270.97 118.84 C 273.15 119.29 269.75 121.56 268.75 121.45 L 268.01 121.20 C 268.54 120.01 269.53 119.22 270.97 118.84 Z" />
<path fill="#ffffff" opacity="1.00" d=" M 268.01 121.20 C 266.96 124.29 264.51 120.13 268.01 121.20 Z" />
<path fill="#ffffff" opacity="1.00" d=" M 165.06 127.34 C 167.89 125.71 170.29 123.10 173.47 122.16 C 170.97 124.66 168.31 127.00 165.54 129.20 C 165.13 128.16 164.72 127.14 164.29 126.12 C 163.09 127.39 161.76 128.54 160.15 129.25 L 160.81 126.95 C 159.68 127.74 158.48 128.35 157.19 128.78 C 158.43 126.56 161.02 125.56 162.91 123.98 L 162.52 126.09 C 163.83 125.46 165.08 124.72 166.27 123.88 C 165.97 124.75 165.37 126.48 165.06 127.34 Z" />
<path fill="#ffffff" opacity="1.00" d=" M 311.17 124.81 C 311.58 123.61 312.45 123.40 313.78 124.17 C 313.33 125.38 312.47 125.60 311.17 124.81 Z" />
<path fill="#ffffff" opacity="1.00" d=" M 168.55 129.11 C 169.71 126.90 172.19 124.70 174.58 124.36 C 172.87 126.18 171.32 128.96 168.55 129.11 Z" />
<path fill="#ffffff" opacity="1.00" d=" M 228.34 126.64 C 230.21 127.16 232.12 127.74 231.13 130.14 C 230.39 129.59 228.92 128.50 228.18 127.96 C 229.37 131.27 227.21 129.74 226.24 128.44 C 226.76 127.99 227.82 127.09 228.34 126.64 Z" />
<path fill="#ffffff" opacity="1.00" d=" M 302.23 128.43 C 306.39 128.82 310.54 129.36 314.12 131.72 C 310.04 131.58 306.18 130.14 302.19 129.49 C 302.20 129.23 302.22 128.70 302.23 128.43 Z" />
<path fill="#ffffff" opacity="1.00" d=" M 311.99 129.22 C 312.60 127.75 315.28 128.52 314.66 130.13 C 313.42 130.71 312.53 130.40 311.99 129.22 Z" />
<path fill="#ffffff" opacity="1.00" d=" M 218.17 131.07 C 218.71 131.17 219.79 131.38 220.33 131.48 C 220.35 132.30 220.41 133.94 220.44 134.76 L 221.83 134.28 C 221.65 134.67 221.29 135.44 221.11 135.82 C 223.08 136.76 226.03 137.82 226.56 140.10 C 225.98 140.26 224.81 140.59 224.23 140.75 L 224.75 142.04 C 226.44 140.39 228.89 141.37 229.88 143.26 C 226.73 143.10 227.27 148.19 223.96 147.97 C 224.14 147.25 224.49 145.83 224.67 145.12 C 223.84 145.80 222.20 147.15 221.37 147.82 C 222.25 146.28 223.07 144.70 223.81 143.09 C 223.42 143.40 222.63 144.03 222.24 144.35 C 220.79 144.11 219.34 143.83 217.92 143.51 C 219.91 142.18 223.00 142.81 224.30 140.53 C 223.25 140.55 221.15 140.58 220.11 140.59 C 220.32 140.10 220.74 139.12 220.95 138.63 C 219.74 137.95 219.02 136.73 218.18 135.69 C 217.96 134.96 217.52 133.48 217.30 132.74 L 218.75 132.53 L 218.17 131.07 Z" />
<path fill="#ffffff" opacity="1.00" d=" M 287.24 131.86 C 286.52 132.78 282.96 131.44 285.06 130.75 C 285.59 130.87 286.63 131.11 287.15 131.23 L 287.24 131.86 Z" />
<path fill="#ffffff" opacity="1.00" d=" M 301.33 137.65 C 300.95 135.23 303.45 134.08 304.64 132.38 C 307.87 134.09 304.07 138.86 301.33 137.65 Z" />
<path fill="#ffffff" opacity="1.00" d=" M 313.80 132.12 C 317.11 132.18 320.02 133.89 323.14 134.79 C 327.27 136.21 331.70 137.21 335.37 139.63 C 335.45 139.88 335.63 140.37 335.71 140.62 C 331.99 138.61 327.97 137.27 323.99 135.89 C 320.55 134.80 316.94 133.92 313.80 132.12 Z" />
<path fill="#ffffff" opacity="1.00" d=" M 166.48 136.66 C 166.81 135.55 167.18 134.46 167.59 133.39 C 168.22 134.05 169.48 135.38 170.12 136.04 L 170.49 134.16 C 171.14 134.28 172.45 134.52 173.11 134.65 C 172.38 136.88 169.08 135.65 169.37 138.12 C 167.24 140.20 164.96 142.14 162.47 143.78 C 162.84 142.94 162.77 142.13 162.27 141.34 C 162.88 141.21 164.10 140.93 164.70 140.79 C 164.26 140.29 163.81 139.79 163.37 139.29 C 164.51 138.93 164.94 138.00 163.65 137.44 C 164.05 137.10 164.86 136.41 165.27 136.07 L 166.48 136.66 Z" />
<path fill="#ffffff" opacity="1.00" d=" M 175.86 141.77 C 177.87 138.67 180.79 136.34 183.80 134.26 C 183.29 135.79 182.35 137.10 181.42 138.40 C 180.87 138.60 179.76 139.00 179.21 139.20 L 179.76 140.13 C 178.78 140.54 176.83 141.36 175.86 141.77 Z" />
<path fill="#ffffff" opacity="1.00" d=" M 286.04 134.22 C 286.63 134.27 287.82 134.37 288.41 134.42 C 288.54 134.97 288.80 136.06 288.93 136.60 L 290.35 135.22 C 290.12 138.52 293.74 140.40 296.12 142.02 C 299.23 143.41 300.75 146.70 303.75 148.24 C 303.77 147.18 303.81 145.04 303.83 143.98 C 304.11 145.46 304.40 146.95 304.68 148.43 C 304.80 147.92 305.05 146.88 305.18 146.37 C 305.87 146.74 307.25 147.49 307.95 147.86 C 307.19 147.08 306.30 146.49 305.27 146.09 C 307.42 142.26 310.42 147.50 313.27 147.42 C 313.18 147.66 312.99 148.14 312.90 148.38 L 309.86 147.48 L 312.36 150.48 C 311.28 149.97 310.21 149.45 309.14 148.93 C 309.61 149.61 310.57 150.96 311.05 151.64 C 305.56 152.60 301.97 147.05 296.82 146.44 C 294.46 144.35 291.35 143.55 288.87 141.67 C 289.72 141.59 291.42 141.45 292.27 141.38 C 291.53 140.93 290.06 140.03 289.32 139.58 C 290.29 137.73 287.96 136.60 286.59 136.17 C 286.45 135.68 286.17 134.71 286.04 134.22 Z" />
<path fill="#ffffff" opacity="1.00" d=" M 288.99 133.33 C 292.25 133.98 293.56 137.35 296.38 138.76 C 297.15 138.96 298.81 140.85 297.03 141.06 C 293.89 140.41 291.99 137.74 290.35 135.22 C 290.01 134.74 289.33 133.80 288.99 133.33 Z" />
<path fill="#ffffff" opacity="1.00" d=" M 157.42 138.87 C 159.40 138.05 161.01 136.47 163.09 135.88 C 162.26 137.47 160.80 138.46 159.21 139.17 C 158.55 140.03 157.84 139.42 157.42 138.87 Z" />
<path fill="#ffffff" opacity="1.00" d=" M 171.94 139.91 C 172.21 137.89 174.18 136.74 175.94 136.14 C 175.42 138.07 173.46 138.88 171.94 139.91 Z" />
<path fill="#ffffff" opacity="1.00" d=" M 236.21 136.18 C 237.83 136.08 239.87 135.94 240.47 137.87 C 242.08 134.94 244.95 140.38 241.44 139.59 L 241.66 141.56 C 243.86 140.89 246.17 141.30 248.43 141.26 C 248.30 141.72 248.05 142.64 247.92 143.11 C 243.01 144.83 237.04 141.37 236.21 136.18 Z" />
<path fill="#ffffff" opacity="1.00" d=" M 310.32 137.17 C 311.63 137.75 313.19 138.09 313.99 139.40 L 312.51 139.20 C 312.67 140.86 312.69 142.52 312.59 144.19 C 313.33 144.61 314.08 145.04 314.82 145.47 C 312.24 145.83 308.80 145.37 307.42 142.98 C 309.07 142.44 310.00 140.97 310.26 139.33 L 312.25 140.01 C 311.77 139.30 310.80 137.88 310.32 137.17 Z" />
<path fill="#ffffff" opacity="1.00" d=" M 257.45 138.14 C 259.73 138.56 256.86 142.15 255.44 141.58 C 254.73 140.22 256.04 138.40 257.45 138.14 Z" />
<path fill="#ffffff" opacity="1.00" d=" M 179.76 140.13 C 180.57 139.61 182.19 138.59 182.99 138.08 C 181.27 140.44 179.48 142.76 177.75 145.13 C 177.42 145.18 176.76 145.30 176.43 145.35 C 176.73 144.40 177.06 143.43 177.72 142.66 C 178.40 141.81 179.08 140.97 179.76 140.13 Z" />
<path fill="#ffffff" opacity="1.00" d=" M 183.34 140.40 C 184.92 141.44 182.47 143.74 181.64 144.71 C 179.66 144.05 181.98 140.84 183.34 140.40 Z" />
<path fill="#ffffff" opacity="1.00" d=" M 169.76 142.46 C 170.57 142.75 171.39 143.05 172.21 143.36 C 170.51 145.36 169.10 148.33 166.02 148.14 L 166.27 145.92 C 165.16 146.90 164.04 147.87 162.90 148.82 C 163.65 146.24 165.88 144.05 168.17 142.68 L 166.80 144.93 L 169.29 144.08 C 169.40 143.67 169.64 142.86 169.76 142.46 Z" />
<path fill="#ffffff" opacity="1.00" d=" M 281.87 143.80 C 283.16 142.46 285.05 142.69 286.74 142.53 C 286.76 142.79 286.80 143.32 286.82 143.59 C 285.20 143.70 283.37 144.91 281.87 143.80 Z" />
<path fill="#ffffff" opacity="1.00" d=" M 184.31 144.47 C 185.70 143.19 186.66 145.63 185.44 146.43 C 183.97 148.07 182.63 145.28 184.31 144.47 Z" />
<path fill="#ffffff" opacity="1.00" d=" M 223.48 150.58 C 226.06 148.18 228.34 145.50 230.81 142.99 C 230.81 143.82 230.82 145.49 230.82 146.33 L 230.72 144.74 C 232.28 143.93 234.63 144.70 233.99 146.77 C 232.91 147.56 232.08 148.57 231.51 149.79 C 233.95 149.55 234.15 146.51 236.02 145.46 C 236.70 145.82 238.07 146.52 238.75 146.87 C 236.85 149.55 235.53 152.59 233.51 155.20 C 233.20 154.65 232.57 153.56 232.25 153.01 C 231.58 154.26 231.58 156.31 229.40 155.95 C 229.23 153.64 231.35 152.00 232.03 149.94 C 229.96 150.74 229.36 153.56 226.94 153.65 C 227.24 150.85 230.60 149.79 230.88 147.09 C 229.47 148.70 228.06 150.32 226.55 151.84 L 226.54 150.18 L 223.48 150.58 Z" />
<path fill="#ffffff" opacity="1.00" d=" M 235.58 153.89 C 237.47 151.50 237.80 145.38 242.22 147.91 C 242.27 148.72 242.37 150.34 242.42 151.15 C 242.56 150.47 242.85 149.11 242.99 148.43 C 243.39 148.68 244.19 149.17 244.59 149.42 C 248.12 148.68 248.53 153.61 250.78 155.32 C 249.95 156.70 249.30 158.16 249.61 159.85 C 248.19 159.60 246.02 160.66 245.62 158.38 C 245.63 158.94 245.64 160.07 245.64 160.64 L 243.39 160.72 L 243.43 158.39 L 244.64 158.62 C 244.30 157.24 245.15 155.43 243.90 154.35 C 243.47 155.61 243.40 157.08 242.41 158.08 C 242.59 156.40 242.80 154.64 241.10 153.67 C 239.43 152.65 237.30 153.72 235.58 153.89 Z" />
<path fill="#ffffff" opacity="1.00" d=" M 266.16 157.06 C 267.36 155.61 269.04 154.74 270.69 153.93 C 272.36 153.81 271.11 155.77 271.74 156.67 C 270.89 157.70 269.89 158.16 268.73 158.04 C 269.44 157.26 270.13 156.46 270.81 155.66 C 269.65 156.01 267.33 156.71 266.16 157.06 Z" />
<path fill="#ffffff" opacity="1.00" d=" M 207.74 157.76 C 207.93 157.28 208.29 156.33 208.47 155.85 L 208.46 157.51 C 209.93 157.63 211.40 157.77 212.87 157.93 C 212.09 158.56 210.52 159.83 209.73 160.46 C 210.92 160.54 213.29 160.70 214.47 160.78 C 215.77 160.62 217.03 160.22 217.92 159.20 C 217.77 159.75 217.47 160.85 217.32 161.40 C 216.92 161.41 216.11 161.43 215.71 161.43 C 215.51 162.51 214.94 163.32 213.98 163.86 C 216.12 163.57 217.90 162.44 219.51 161.03 L 218.18 163.91 C 219.38 163.69 220.59 163.50 221.80 163.35 C 221.43 164.43 220.94 165.45 220.35 166.42 C 221.69 165.75 223.02 165.04 224.33 164.31 C 224.62 165.82 224.15 167.11 222.92 168.20 C 224.35 167.42 225.70 166.50 226.96 165.45 L 226.41 167.54 L 227.92 167.35 L 226.42 169.53 L 228.24 169.27 L 228.00 167.61 C 229.30 168.83 230.85 168.96 232.48 168.27 C 232.55 168.83 232.71 169.94 232.78 170.50 C 230.85 172.97 228.97 175.51 226.70 177.68 C 226.18 176.67 225.46 175.82 224.57 175.12 C 222.90 175.99 220.77 175.18 219.49 176.88 C 219.58 176.14 219.76 174.67 219.85 173.94 C 219.16 174.67 217.78 176.13 217.08 176.86 L 217.41 175.64 L 220.21 173.42 L 216.12 173.33 C 216.93 174.57 216.60 175.52 215.11 176.17 C 215.36 175.45 215.86 174.02 216.11 173.30 L 214.39 173.60 C 214.48 172.81 214.66 171.22 214.76 170.43 L 212.49 170.43 L 212.54 171.64 C 212.11 171.63 211.24 171.61 210.80 171.60 C 210.96 170.37 210.43 169.59 209.22 169.27 C 210.93 168.48 212.81 167.76 213.94 166.14 C 211.35 166.48 209.08 167.80 206.83 168.99 C 207.44 167.37 208.86 166.37 210.04 165.21 C 209.08 165.36 207.15 165.65 206.18 165.80 C 206.92 165.10 208.38 163.71 209.11 163.01 C 208.41 162.93 207.01 162.78 206.31 162.70 C 206.52 162.15 206.95 161.04 207.16 160.48 L 205.39 160.44 C 205.27 160.18 205.03 159.65 204.92 159.38 L 206.95 159.83 C 206.80 159.27 206.50 158.14 206.35 157.57 L 207.74 157.76 M 207.41 161.04 C 208.68 161.69 209.37 161.31 209.46 159.89 C 208.11 159.24 207.42 159.63 207.41 161.04 Z" />
<path fill="#ffffff" opacity="1.00" d=" M 209.93 155.81 C 211.85 154.34 212.28 158.57 210.13 156.59 L 209.93 155.81 Z" />
<path fill="#ffffff" opacity="1.00" d=" M 233.23 157.23 C 233.84 157.81 233.84 157.81 233.23 157.23 Z" />
<path fill="#ffffff" opacity="1.00" d=" M 251.26 159.76 C 249.59 160.98 249.51 157.16 251.23 157.46 C 251.24 158.03 251.26 159.19 251.26 159.76 Z" />
<path fill="#ffffff" opacity="1.00" d=" M 264.98 159.41 C 265.95 158.68 267.49 157.25 268.73 158.04 L 268.74 158.51 C 267.97 159.36 265.58 161.17 264.98 159.41 Z" />
<path fill="#ffffff" opacity="1.00" d=" M 269.75 159.36 C 270.48 159.98 270.48 159.98 269.75 159.36 Z" />
<path fill="#ffffff" opacity="1.00" d=" M 267.94 160.32 C 268.34 160.73 268.34 160.73 267.94 160.32 Z" />
<path fill="#ffffff" opacity="1.00" d=" M 245.04 162.16 C 245.66 161.80 246.90 161.07 247.52 160.71 C 248.73 162.37 245.07 164.71 244.20 163.01 C 244.41 162.80 244.83 162.37 245.04 162.16 Z" />
<path fill="#ffffff" opacity="1.00" d=" M 263.93 162.88 C 262.40 162.41 264.79 160.91 265.48 160.81 C 266.58 160.69 267.11 161.09 267.04 161.99 C 266.26 162.21 264.71 162.66 263.93 162.88 Z" />
<path fill="#ffffff" opacity="1.00" d=" M 290.22 162.71 C 291.05 162.65 292.70 162.53 293.53 162.48 C 293.50 162.83 293.44 163.54 293.41 163.89 C 294.04 163.68 295.28 163.25 295.90 163.04 C 295.19 163.41 293.76 164.16 293.04 164.53 C 295.64 166.90 299.00 168.75 300.80 171.85 C 298.65 171.98 297.53 169.88 296.42 168.41 C 294.76 166.08 291.71 165.20 290.22 162.71 Z" />
<path fill="#ffffff" opacity="1.00" d=" M 309.95 166.52 C 317.71 163.95 325.97 165.73 333.92 166.22 L 333.88 166.77 C 328.08 166.68 322.31 165.69 316.52 166.40 C 314.26 166.35 312.02 168.00 309.95 166.52 Z" />
<path fill="#ffffff" opacity="1.00" d=" M 279.84 168.04 C 279.71 166.43 280.48 165.83 282.15 166.23 C 282.17 167.81 281.40 168.41 279.84 168.04 Z" />
<path fill="#ffffff" opacity="1.00" d=" M 273.13 168.52 C 275.04 170.08 276.50 167.67 278.10 166.96 C 277.78 168.00 277.43 169.04 277.05 170.07 L 278.68 170.51 C 277.95 170.89 276.49 171.65 275.76 172.03 C 275.98 171.24 276.44 169.66 276.67 168.88 C 274.51 170.76 272.42 172.73 270.04 174.34 L 270.89 175.69 L 268.37 174.87 C 271.00 176.51 268.51 178.03 267.00 179.09 C 267.23 178.31 267.70 176.75 267.94 175.98 C 267.15 176.37 265.57 177.15 264.78 177.54 C 264.95 177.09 265.28 176.19 265.45 175.73 C 265.49 175.64 265.57 175.46 265.60 175.37 C 265.57 175.46 265.49 175.64 265.45 175.73 L 265.33 175.54 C 264.70 175.76 263.45 176.20 262.82 176.42 C 263.69 174.77 265.17 173.60 266.58 172.42 L 266.95 173.16 C 266.91 173.72 266.83 174.84 266.79 175.41 C 267.23 175.01 268.10 174.21 268.53 173.82 L 268.28 173.00 C 270.73 174.34 272.17 170.07 274.68 169.73 L 273.13 168.52 Z" />
<path fill="#ffffff" opacity="1.00" d=" M 311.11 168.34 C 317.75 167.32 324.66 167.40 331.19 168.72 C 327.10 169.25 322.97 167.75 318.96 169.01 C 316.35 169.00 313.55 169.48 311.11 168.34 Z" />
<path fill="#ffffff" opacity="1.00" d=" M 262.16 173.59 C 264.58 170.98 267.51 168.67 270.80 167.29 C 270.26 167.85 269.18 168.96 268.64 169.52 L 269.27 170.50 L 268.52 170.38 L 268.29 171.06 L 267.58 170.13 C 265.93 171.49 264.44 173.38 262.16 173.59 Z" />
<path fill="#ffffff" opacity="1.00" d=" M 255.53 170.21 C 255.74 170.20 256.16 170.19 256.37 170.18 C 256.31 170.70 256.18 171.73 256.11 172.25 C 255.06 173.17 253.85 173.49 252.49 173.21 C 256.65 178.02 252.78 173.26 251.78 174.61 C 250.34 175.67 250.51 178.10 248.25 178.23 C 249.31 178.56 250.68 179.90 251.24 177.69 C 251.02 178.35 250.57 179.66 250.34 180.31 C 249.72 180.88 248.49 182.03 247.87 182.60 L 249.79 182.38 C 249.74 182.75 249.64 183.47 249.59 183.84 C 248.88 183.38 248.17 182.93 247.46 182.48 C 247.17 180.98 247.60 179.68 248.74 178.58 C 247.32 179.14 246.17 180.16 244.92 181.01 C 245.68 180.00 247.21 177.98 247.97 176.98 C 246.65 177.51 244.02 178.57 242.70 179.11 C 245.35 176.14 249.41 174.95 252.33 172.23 C 254.21 172.47 256.39 172.97 255.53 170.21 Z" />
<path fill="#ffffff" opacity="1.00" d=" M 269.27 170.50 C 269.81 170.32 270.89 169.98 271.43 169.80 C 271.75 171.34 269.00 171.75 268.28 173.00 C 267.95 173.04 267.28 173.12 266.95 173.16 C 267.28 172.64 267.95 171.59 268.29 171.06 C 268.53 170.92 269.02 170.64 269.27 170.50 Z" />
<path fill="#ffffff" opacity="1.00" d=" M 232.99 170.31 C 233.71 170.70 235.15 171.49 235.87 171.88 C 234.17 172.43 234.44 174.30 233.98 175.63 C 232.19 175.07 230.88 176.40 229.55 177.33 C 230.46 174.87 232.30 172.87 232.99 170.31 Z" />
<path fill="#ffffff" opacity="1.00" d=" M 312.86 172.87 C 312.87 172.33 312.89 171.26 312.90 170.72 C 316.85 170.91 320.79 171.26 324.74 171.43 C 324.70 171.67 324.62 172.17 324.58 172.41 C 320.91 172.00 317.20 172.08 313.51 172.16 L 312.88 172.83 C 319.86 173.79 326.90 174.23 333.81 175.54 C 333.76 175.83 333.66 176.40 333.61 176.69 C 326.41 173.77 318.42 176.09 311.14 173.62 L 310.96 172.75 C 311.44 172.78 312.38 172.84 312.86 172.87 Z" />
<path fill="#ffffff" opacity="1.00" d=" M 272.00 177.45 C 273.03 175.38 275.04 174.21 277.04 173.25 C 275.99 175.20 274.06 176.70 272.00 177.45 Z" />
<path fill="#ffffff" opacity="1.00" d=" M 234.77 176.63 C 234.30 175.14 234.73 174.23 236.04 173.88 C 236.41 175.24 235.99 176.15 234.77 176.63 Z" />
<path fill="#ffffff" opacity="1.00" d=" M 310.20 177.35 C 310.84 174.61 314.07 176.67 315.92 176.76 C 318.66 176.93 321.17 178.50 323.92 178.10 C 323.86 178.78 323.75 180.14 323.70 180.82 L 321.71 180.45 L 321.23 179.65 C 317.58 178.72 313.84 178.26 310.20 177.35 Z" />
<path fill="#ffffff" opacity="1.00" d=" M 215.04 180.60 C 217.70 179.53 220.80 179.82 223.25 178.22 C 223.94 179.65 225.29 180.69 226.99 180.53 C 225.80 181.14 224.58 181.00 223.34 180.10 C 223.36 180.55 223.41 181.44 223.43 181.89 C 218.39 182.44 213.78 184.57 209.24 186.64 C 210.18 184.45 212.77 183.19 215.07 183.37 C 215.21 182.81 215.49 181.71 215.63 181.16 C 208.86 183.26 202.12 185.54 195.27 187.35 C 195.82 186.60 196.46 185.85 197.37 185.54 C 201.80 183.72 206.40 182.29 211.02 181.04 C 212.37 181.98 213.72 180.92 215.04 180.60 M 215.36 180.89 C 215.94 181.41 216.53 181.92 217.12 182.43 C 218.78 181.69 220.60 180.88 222.46 181.38 C 222.77 180.82 223.40 179.70 223.71 179.14 C 220.96 179.87 218.21 180.65 215.36 180.89 Z" />
<path fill="#ffffff" opacity="1.00" d=" M 296.36 179.32 C 297.42 179.43 298.48 179.53 299.55 179.62 C 299.18 180.55 298.81 181.48 298.46 182.43 C 297.67 182.65 296.10 183.09 295.31 183.32 C 296.07 182.02 296.42 180.69 296.36 179.32 Z" />
<path fill="#ffffff" opacity="1.00" d=" M 308.48 178.66 C 313.94 181.15 319.07 184.46 323.51 188.49 C 323.65 188.87 323.93 189.63 324.07 190.01 C 320.53 187.15 317.03 184.13 312.86 182.21 C 311.19 181.33 309.06 180.73 308.48 178.66 Z" />
<path fill="#ffffff" opacity="1.00" d=" M 324.66 179.49 C 327.25 178.87 329.77 180.06 332.23 180.72 C 338.30 182.48 344.33 184.40 350.16 186.84 C 350.41 187.13 350.91 187.73 351.16 188.02 C 342.47 184.77 333.67 181.77 324.66 179.49 Z" />
<path fill="#ffffff" opacity="1.00" d=" M 235.45 183.20 C 235.90 183.25 236.81 183.35 237.26 183.40 C 237.27 183.97 237.30 185.11 237.31 185.67 C 236.76 185.53 235.66 185.23 235.10 185.08 L 235.81 186.88 C 233.25 186.41 228.89 185.46 227.78 188.50 C 227.28 188.46 226.26 188.36 225.75 188.32 L 225.35 189.02 L 223.96 188.79 C 223.85 189.92 224.41 190.32 225.66 189.97 L 225.35 189.02 C 225.96 188.89 227.18 188.63 227.78 188.50 C 228.85 188.30 230.98 187.89 232.04 187.69 C 229.86 189.17 227.32 190.12 224.79 190.82 C 223.39 192.04 221.52 192.70 219.67 192.66 L 219.28 193.66 C 218.89 193.65 218.11 193.64 217.72 193.64 C 216.09 195.31 213.54 195.40 211.51 196.32 C 207.69 197.44 204.40 200.08 200.35 200.36 C 201.58 198.92 203.40 198.19 205.05 197.35 C 208.46 195.81 211.90 193.49 215.82 194.45 C 216.00 193.95 216.38 192.96 216.56 192.46 L 213.95 192.82 C 216.43 191.20 219.20 189.77 222.15 189.36 C 222.47 188.20 222.46 187.04 222.13 185.89 C 222.71 186.01 223.86 186.24 224.43 186.36 L 222.50 186.82 C 223.00 187.42 223.51 188.00 224.04 188.59 C 224.54 188.27 225.56 187.62 226.06 187.30 L 227.68 187.62 L 227.56 186.60 C 230.31 186.08 232.80 183.81 235.69 184.51 L 235.45 183.20 M 221.38 191.09 L 222.65 191.27 C 224.46 189.96 220.15 189.21 221.38 191.09 M 218.51 191.86 L 217.29 191.70 C 215.57 193.10 219.80 193.74 218.51 191.86 C 219.22 191.66 220.66 191.28 221.38 191.09 C 220.66 191.28 219.22 191.66 218.51 191.86 Z" />
<path fill="#ffffff" opacity="1.00" d=" M 259.45 186.47 C 260.65 186.60 261.87 186.63 263.08 186.54 C 262.27 187.30 261.30 187.58 260.17 187.36 C 260.23 187.99 260.35 189.24 260.41 189.87 C 261.56 189.20 262.73 188.55 263.90 187.93 C 262.52 188.92 262.05 190.28 262.49 192.04 C 263.35 191.54 265.05 190.53 265.90 190.03 C 264.66 193.49 261.23 195.38 259.44 198.49 C 262.17 196.76 264.04 194.01 266.89 192.43 C 266.43 193.15 265.52 194.60 265.06 195.32 L 264.99 196.00 L 263.99 196.00 L 264.23 197.35 L 263.25 197.13 C 262.14 198.41 260.96 199.61 259.84 200.88 C 258.32 203.09 255.35 203.60 253.96 205.94 C 252.86 205.14 251.78 204.31 250.68 203.52 L 252.85 204.32 C 251.50 201.49 254.50 198.85 256.88 198.01 C 256.34 199.42 255.45 200.22 254.21 200.40 C 253.96 201.11 253.47 202.53 253.23 203.24 C 255.13 201.32 257.04 199.40 259.19 197.76 C 258.57 196.93 256.84 195.67 258.69 194.79 C 257.73 195.53 256.76 196.28 255.79 197.02 C 254.91 196.68 254.03 196.34 253.16 196.00 C 253.31 195.22 253.46 194.44 253.62 193.67 C 253.06 193.55 251.92 193.31 251.35 193.19 C 253.36 192.02 253.00 189.11 253.22 187.10 L 254.93 187.57 L 257.04 186.28 L 256.11 189.11 C 257.34 188.48 258.43 187.20 259.99 187.69 L 259.45 186.47 Z" />
<path fill="#ffffff" opacity="1.00" d=" M 232.27 187.15 C 232.75 187.90 232.75 187.90 232.27 187.15 Z" />
<path fill="#ffffff" opacity="1.00" d=" M 302.63 190.39 C 302.53 188.72 304.11 187.85 305.07 186.76 C 305.48 187.03 306.29 187.55 306.70 187.82 C 306.89 189.03 307.13 190.25 307.35 191.46 C 305.84 191.58 304.34 191.49 302.85 191.19 C 304.27 192.15 306.10 192.72 306.93 194.35 L 304.95 193.98 C 303.64 195.82 302.15 197.64 299.89 198.31 C 301.22 200.46 304.52 201.30 304.98 203.90 L 304.31 202.44 C 303.51 203.04 302.76 203.70 302.03 204.38 C 301.68 204.14 300.98 203.65 300.63 203.40 C 301.35 203.00 302.07 202.59 302.79 202.19 C 301.49 201.24 300.13 200.42 298.71 199.73 C 298.38 199.26 298.38 199.26 298.71 199.73 C 298.55 200.37 298.24 201.64 298.09 202.27 L 297.88 200.47 L 296.49 200.70 L 295.68 201.08 C 295.54 201.65 295.25 202.79 295.11 203.36 C 294.73 201.36 292.23 201.65 290.77 201.16 C 290.54 199.76 290.30 198.36 290.06 196.97 C 293.08 195.33 292.74 200.18 294.73 200.72 C 294.83 200.44 295.03 199.87 295.13 199.59 C 293.48 198.25 293.07 196.70 293.89 194.95 L 295.34 197.39 C 295.80 196.42 296.14 195.40 296.52 194.40 C 296.83 194.84 297.45 195.71 297.76 196.15 C 297.67 195.49 297.49 194.18 297.39 193.52 L 298.69 193.58 C 299.31 194.07 300.54 195.06 301.15 195.55 C 301.55 195.04 301.96 194.54 302.37 194.04 C 301.64 193.67 300.18 192.92 299.45 192.54 C 300.41 191.68 301.46 190.93 302.63 190.39 Z" />
<path fill="#ffffff" opacity="1.00" d=" M 240.61 188.92 C 241.23 188.74 242.49 188.38 243.12 188.20 C 241.89 190.84 239.01 192.26 236.92 194.19 C 237.08 193.67 237.40 192.64 237.55 192.13 C 238.01 191.88 238.92 191.37 239.38 191.12 C 239.79 190.39 240.20 189.66 240.61 188.92 Z" />
<path fill="#ffffff" opacity="1.00" d=" M 250.67 189.62 C 250.96 189.16 251.54 188.23 251.82 187.77 C 254.01 187.31 251.92 191.19 250.67 189.62 Z" />
<path fill="#ffffff" opacity="1.00" d=" M 287.15 193.34 C 287.69 191.36 288.29 189.30 289.86 187.86 C 290.65 190.16 288.93 192.14 287.15 193.34 Z" />
<path fill="#ffffff" opacity="1.00" d=" M 225.78 196.93 C 230.38 194.57 234.64 191.61 238.97 188.82 C 239.34 190.47 237.68 190.66 236.51 191.15 L 237.55 192.13 L 236.18 191.71 C 232.66 193.72 229.78 196.63 226.39 198.83 C 225.13 198.93 225.89 197.60 225.78 196.93 Z" />
<path fill="#ffffff" opacity="1.00" d=" M 236.12 199.09 C 237.53 196.55 239.86 193.70 242.83 193.22 C 240.90 195.46 238.81 197.77 236.12 199.09 Z" />
<path fill="#ffffff" opacity="1.00" d=" M 247.21 194.22 C 247.81 194.83 247.81 194.83 247.21 194.22 Z" />
<path fill="#ffffff" opacity="1.00" d=" M 264.23 197.35 C 265.83 196.31 267.33 195.12 268.85 193.96 C 268.61 194.75 268.12 196.35 267.88 197.15 C 268.31 196.71 269.17 195.84 269.60 195.41 C 270.01 196.31 270.44 197.21 270.89 198.11 L 271.65 195.77 C 271.71 196.36 271.83 197.55 271.89 198.14 C 272.60 197.39 273.32 196.65 274.05 195.93 C 273.51 197.17 272.43 199.65 271.89 200.89 C 274.21 195.53 276.23 200.22 278.90 199.27 C 280.65 201.45 277.83 203.01 277.10 204.97 C 276.63 206.21 275.47 206.91 274.17 206.71 C 273.51 207.48 272.81 208.21 272.08 208.92 C 272.23 207.49 274.94 205.40 271.99 204.99 C 271.11 206.22 270.65 208.05 268.94 208.41 C 269.14 207.38 269.55 205.32 269.75 204.29 C 269.23 204.76 268.19 205.68 267.67 206.15 L 266.12 204.92 C 268.13 206.85 265.69 207.23 264.66 207.93 C 264.50 207.21 264.16 205.75 264.00 205.03 L 265.86 206.01 L 264.95 203.59 L 266.71 205.18 C 267.14 204.50 268.00 203.14 268.43 202.45 C 268.99 202.52 270.13 202.64 270.70 202.70 C 267.95 201.53 270.22 198.97 269.45 196.97 C 268.69 198.33 267.81 199.60 266.81 200.80 C 265.56 202.02 264.31 203.31 262.49 203.58 C 262.83 203.10 263.52 202.13 263.87 201.65 C 263.11 201.20 262.37 200.74 261.65 200.26 C 262.46 199.60 264.07 198.30 264.87 197.65 L 264.23 197.35 Z" />
<path fill="#ffffff" opacity="1.00" d=" M 249.34 201.79 C 249.31 200.19 251.63 198.04 253.28 198.12 C 253.17 199.60 251.02 201.97 249.34 201.79 Z" />
<path fill="#ffffff" opacity="1.00" d=" M 303.26 199.52 C 304.32 199.04 305.39 198.55 306.46 198.07 C 306.80 198.39 307.16 198.71 307.53 199.01 C 307.09 199.49 306.20 200.46 305.76 200.95 C 304.61 201.03 303.83 200.43 303.26 199.52 Z" />
<path fill="#ffffff" opacity="1.00" d=" M 260.34 202.03 C 260.78 202.43 260.78 202.43 260.34 202.03 Z" />
<path fill="#ffffff" opacity="1.00" d=" M 267.47 202.23 C 267.77 202.58 267.77 202.58 267.47 202.23 Z" />
<path fill="#ffffff" opacity="1.00" d=" M 280.07 202.26 C 280.95 203.47 280.22 207.48 278.16 206.88 C 278.12 205.46 278.66 202.87 280.07 202.26 Z" />
<path fill="#ffffff" opacity="1.00" d=" M 229.37 206.88 C 231.06 207.27 231.76 208.97 232.69 210.24 C 232.36 211.29 232.04 212.35 231.74 213.41 C 230.75 212.29 228.99 211.19 229.51 209.44 C 229.14 209.35 228.39 209.17 228.01 209.09 L 227.72 207.99 L 230.54 209.78 L 229.37 206.88 Z" />
<path fill="#ffffff" opacity="1.00" d=" M 280.38 208.12 C 280.44 208.59 280.54 209.53 280.60 210.00 C 281.18 209.83 282.33 209.49 282.91 209.32 C 281.84 211.20 281.40 214.39 278.35 213.81 C 278.90 211.87 279.57 209.97 280.38 208.12 Z" />
<path fill="#ffffff" opacity="1.00" d=" M 244.83 210.71 C 245.13 210.22 245.73 209.24 246.02 208.75 C 248.00 209.73 251.83 210.02 251.48 212.98 L 252.86 212.60 C 252.38 213.13 251.90 213.64 251.40 214.15 L 250.96 212.47 C 250.36 212.77 249.14 213.37 248.54 213.67 L 249.99 210.79 C 249.31 211.11 247.95 211.75 247.27 212.07 C 246.66 211.73 245.44 211.05 244.83 210.71 Z" />
<path fill="#ffffff" opacity="1.00" d=" M 283.21 213.12 C 282.21 210.54 285.27 209.81 287.02 208.97 C 286.94 209.27 286.79 209.86 286.71 210.16 C 284.79 209.81 284.33 212.05 283.21 213.12 Z" />
<path fill="#ffffff" opacity="1.00" d=" M 225.42 210.55 C 227.05 209.99 228.11 211.11 227.33 212.83 L 228.46 212.47 C 228.63 213.14 228.97 214.48 229.14 215.15 C 228.73 216.45 228.37 217.77 227.97 219.09 L 226.03 215.72 C 228.07 218.82 224.84 220.75 225.28 223.62 C 224.92 223.49 224.19 223.23 223.83 223.10 C 224.61 221.44 224.07 220.43 222.20 220.10 C 221.75 222.25 223.17 225.03 221.44 226.86 C 221.42 224.81 221.46 222.75 221.29 220.71 C 222.08 220.15 222.86 219.59 223.61 218.99 C 222.37 217.30 222.57 215.16 222.37 213.21 C 224.37 213.88 223.12 216.67 223.64 218.22 C 227.42 217.80 224.52 212.94 225.42 210.55 Z" />
<path fill="#ffffff" opacity="1.00" d=" M 277.28 211.02 C 277.49 210.70 277.91 210.07 278.11 209.75 C 278.20 211.31 278.24 212.88 278.39 214.44 L 277.38 213.33 C 275.03 214.55 273.05 213.34 270.74 213.51 C 271.55 211.99 273.73 213.11 274.88 211.77 L 275.18 213.14 C 275.84 213.04 277.14 212.83 277.79 212.73 L 277.28 211.02 Z" />
<path fill="#ffffff" opacity="1.00" d=" M 288.38 211.25 C 290.31 211.15 289.09 213.90 287.80 213.94 C 285.87 214.00 287.08 211.27 288.38 211.25 Z" />
<path fill="#ffffff" opacity="1.00" d=" M 277.48 215.10 C 277.51 215.59 277.56 216.57 277.58 217.06 C 278.06 216.61 279.02 215.71 279.51 215.26 C 279.69 215.46 280.07 215.88 280.26 216.08 C 280.72 215.83 281.65 215.33 282.11 215.08 C 281.95 216.46 281.13 217.59 280.04 218.40 L 280.56 215.94 C 278.25 216.46 278.08 219.26 276.06 220.23 C 276.00 219.70 275.90 218.63 275.85 218.10 C 274.62 219.19 273.32 220.51 271.48 220.08 C 272.73 217.56 275.77 217.11 277.48 215.10 Z" />
</g>
</svg>
