<?xml version="1.0" encoding="UTF-8" ?>
<!DOCTYPE svg PUBLIC "-//W3C//DTD SVG 1.1//EN" "http://www.w3.org/Graphics/SVG/1.1/DTD/svg11.dtd">
<svg width="512pt" height="256pt" viewBox="0 0 512 256" version="1.1" xmlns="http://www.w3.org/2000/svg">
<g id="#ffffffff">
<path fill="#ffffff" opacity="1.00" d=" M 155.42 25.92 C 156.33 24.43 157.98 24.10 159.59 24.10 C 162.71 26.58 161.22 30.75 162.21 34.12 C 162.94 32.81 163.64 31.49 164.27 30.13 C 164.65 29.92 165.41 29.50 165.79 29.28 C 167.50 31.36 168.35 33.93 169.54 36.30 C 170.22 33.73 170.54 30.95 172.36 28.87 C 172.48 29.22 172.72 29.93 172.84 30.28 C 171.32 33.41 171.84 37.10 169.64 40.03 C 173.16 40.35 173.21 36.15 174.44 33.86 C 174.20 33.41 173.73 32.49 173.49 32.03 C 174.19 31.38 174.19 29.56 175.34 29.55 C 177.71 33.72 174.58 38.40 175.00 42.85 C 174.48 42.65 173.44 42.25 172.92 42.05 C 174.11 43.40 176.14 44.43 175.19 46.78 C 173.49 45.21 171.98 43.45 170.43 41.73 C 170.48 42.31 170.59 43.48 170.65 44.07 C 171.71 44.48 172.43 45.23 172.81 46.30 C 173.23 46.55 174.09 47.03 174.52 47.28 C 173.90 50.14 171.87 52.77 172.54 55.82 C 170.54 54.05 167.50 55.21 166.00 52.49 L 167.21 51.64 C 165.74 51.16 164.38 50.44 163.03 49.69 C 164.22 51.24 165.98 52.21 167.09 53.82 C 168.42 55.55 169.53 58.02 172.02 58.24 C 173.60 58.85 176.59 57.88 176.11 60.84 C 173.99 60.61 171.56 60.82 169.90 59.20 C 164.20 54.23 158.96 48.73 154.48 42.64 C 152.33 38.08 151.77 32.74 153.45 27.93 C 153.49 26.77 154.55 26.40 155.42 25.92 M 158.14 25.13 C 157.89 29.00 158.95 32.93 158.43 36.84 C 158.88 36.68 159.78 36.37 160.23 36.21 C 160.67 36.33 161.56 36.56 162.00 36.68 C 161.21 32.82 160.99 28.79 159.55 25.10 C 159.20 25.11 158.49 25.12 158.14 25.13 M 164.97 30.64 C 165.07 33.07 165.17 35.92 166.99 37.76 C 167.36 37.11 168.11 35.81 168.48 35.16 C 167.45 33.51 167.26 31.02 164.97 30.64 Z" />
<path fill="#ffffff" opacity="1.00" d=" M 176.18 26.05 C 177.00 27.00 178.66 27.56 178.74 28.94 C 178.52 33.31 179.17 37.80 177.75 42.02 C 180.00 46.56 181.22 51.52 183.32 56.13 C 182.94 56.06 182.17 55.90 181.79 55.83 C 180.09 52.18 180.81 47.15 177.08 44.73 C 177.86 48.68 178.36 52.95 180.85 56.27 C 180.71 59.13 183.79 62.45 186.55 61.41 L 186.25 62.72 L 187.11 64.07 C 186.52 64.56 185.34 65.53 184.75 66.02 C 185.65 65.87 187.44 65.58 188.34 65.43 L 188.68 67.51 C 186.63 66.69 184.55 68.93 182.82 66.85 C 182.01 67.95 181.20 69.05 180.38 70.14 C 180.52 69.47 180.80 68.12 180.94 67.44 C 180.22 67.59 178.78 67.90 178.06 68.05 L 178.77 66.41 C 178.09 66.15 176.74 65.63 176.06 65.37 C 176.36 64.82 176.95 63.73 177.25 63.18 C 176.25 63.41 175.25 63.64 174.26 63.86 C 174.32 63.15 174.45 61.71 174.51 60.99 C 175.06 61.18 176.16 61.54 176.71 61.73 C 176.52 61.15 176.13 60.00 175.94 59.42 C 176.88 59.51 178.75 59.67 179.69 59.76 C 179.81 58.75 179.92 57.74 180.05 56.73 C 178.70 57.42 177.34 58.07 175.97 58.71 C 175.45 58.28 174.42 57.42 173.90 56.99 C 174.28 53.43 175.33 50.01 176.49 46.64 C 176.67 42.68 176.71 38.63 177.96 34.82 C 179.00 31.76 176.99 28.90 176.18 26.05 M 178.08 63.34 C 179.85 63.93 181.27 65.12 182.70 66.28 C 181.86 64.91 180.97 63.57 180.15 62.19 C 179.46 62.57 178.76 62.95 178.08 63.34 Z" />
<path fill="#ffffff" opacity="1.00" d=" M 245.48 29.58 C 246.18 28.27 249.38 25.66 250.28 28.02 C 249.16 29.27 247.11 29.81 245.48 29.58 Z" />
<path fill="#ffffff" opacity="1.00" d=" M 215.84 48.42 C 214.64 41.78 212.58 34.05 216.58 27.97 C 218.00 30.20 219.43 32.42 220.87 34.64 C 223.24 32.88 225.80 31.41 228.44 30.08 C 229.39 31.53 232.29 32.38 231.50 34.48 C 230.52 36.28 229.21 37.95 229.00 40.06 C 225.80 41.06 230.64 42.91 229.00 40.06 C 229.70 39.98 231.10 39.81 231.79 39.72 C 230.63 40.60 229.85 41.73 229.46 43.12 C 231.19 42.62 232.38 41.17 233.27 39.68 C 232.90 39.69 232.16 39.71 231.79 39.72 C 227.83 39.97 232.54 37.87 233.41 37.34 C 235.63 36.68 238.13 38.02 240.41 38.49 C 239.89 38.96 238.84 39.91 238.32 40.38 L 239.26 43.36 C 236.24 43.17 236.01 41.32 236.72 39.24 C 234.77 39.38 233.70 41.63 232.62 43.03 C 233.54 42.87 235.40 42.55 236.32 42.38 C 235.77 43.26 234.66 45.00 234.10 45.88 C 234.72 45.37 235.97 44.36 236.60 43.86 L 236.71 42.51 C 237.41 43.02 238.12 43.54 238.82 44.05 C 236.79 45.60 234.79 47.19 232.92 48.92 C 231.85 50.15 230.72 51.33 229.45 52.35 C 229.41 51.64 229.32 50.21 229.28 49.50 C 227.85 50.02 227.43 51.38 227.50 52.78 C 226.55 53.14 224.65 53.86 223.70 54.21 C 222.38 52.79 221.04 51.37 219.91 49.79 C 220.61 50.13 222.02 50.82 222.73 51.16 C 224.02 50.40 225.30 49.60 226.26 48.41 C 225.39 48.35 223.64 48.23 222.77 48.18 C 224.32 44.53 224.40 40.35 226.64 36.99 C 226.58 37.46 226.45 38.40 226.38 38.86 C 225.42 40.09 224.58 41.60 224.94 43.21 C 226.66 42.61 227.47 40.37 226.38 38.86 L 227.48 39.55 C 228.54 37.60 229.90 35.83 231.23 34.06 C 229.86 33.27 228.76 30.61 226.87 31.53 C 224.91 33.00 223.26 34.92 220.96 35.91 C 219.50 34.05 218.46 31.90 217.20 29.90 L 215.95 30.55 C 215.78 36.68 215.69 42.89 216.45 49.00 C 218.13 50.33 219.78 51.69 221.49 52.99 C 221.06 53.45 220.62 53.90 220.18 54.36 C 218.90 52.25 215.97 51.15 215.84 48.42 Z" />
<path fill="#ffffff" opacity="1.00" d=" M 248.25 32.99 C 248.03 31.36 248.46 29.97 249.56 28.83 C 249.65 33.91 247.17 38.74 247.56 43.93 L 246.93 44.21 C 244.93 44.31 244.06 42.24 242.77 41.10 C 243.14 40.47 243.53 39.84 243.93 39.22 C 244.39 39.92 245.33 41.31 245.79 42.01 C 245.18 40.74 244.46 39.52 243.78 38.28 C 242.26 39.46 240.00 40.38 240.07 42.69 C 239.54 42.06 239.02 41.42 238.52 40.78 C 239.62 40.19 240.48 39.36 241.09 38.29 C 241.55 37.83 242.49 36.91 242.96 36.46 C 242.11 36.57 240.40 36.80 239.55 36.91 C 240.85 35.13 242.29 33.46 243.56 31.65 C 244.12 32.31 244.68 32.96 245.28 33.59 C 245.80 32.32 247.21 31.32 248.25 32.99 M 243.16 34.11 C 242.52 35.11 243.65 37.01 244.88 36.61 C 245.76 35.66 244.33 33.64 243.16 34.11 Z" />
<path fill="#ffffff" opacity="1.00" d=" M 233.06 32.46 C 233.80 32.35 235.29 32.14 236.03 32.04 C 236.91 32.87 237.80 33.70 238.71 34.52 C 238.68 34.86 238.61 35.52 238.58 35.86 C 237.84 35.00 237.10 34.14 236.35 33.29 C 235.83 33.66 234.77 34.41 234.25 34.79 C 233.85 34.01 233.45 33.24 233.06 32.46 Z" />
<path fill="#ffffff" opacity="1.00" d=" M 232.26 36.34 C 232.85 36.92 232.85 36.92 232.26 36.34 Z" />
<path fill="#ffffff" opacity="1.00" d=" M 220.76 40.82 C 221.38 39.85 222.00 38.86 222.63 37.89 C 222.62 39.57 222.58 41.25 222.89 42.91 C 222.25 44.54 222.35 46.58 221.11 47.89 C 218.43 46.70 220.81 43.03 220.76 40.82 Z" />
<path fill="#ffffff" opacity="1.00" d=" M 252.82 43.40 C 252.70 40.69 255.43 41.00 257.28 40.57 C 258.79 42.94 260.02 45.47 261.46 47.89 C 262.43 47.75 264.37 47.48 265.34 47.34 C 268.95 46.29 271.88 43.84 275.38 42.53 C 274.70 44.59 274.01 46.89 272.01 48.09 C 272.40 47.04 273.19 44.94 273.58 43.89 C 272.72 44.37 271.00 45.32 270.14 45.80 C 270.35 46.58 270.77 48.15 270.99 48.93 C 269.74 48.89 268.95 47.88 268.10 47.14 C 269.06 49.09 270.33 51.04 269.05 53.28 C 267.65 51.42 266.66 49.26 265.02 47.57 C 265.80 50.12 267.38 52.30 268.86 54.48 C 270.69 56.69 267.21 59.22 265.64 60.62 C 264.55 61.68 264.14 62.99 264.76 64.45 C 266.26 63.40 267.57 62.11 268.80 60.76 C 268.67 61.66 268.43 63.47 268.31 64.38 C 268.94 63.75 270.20 62.50 270.83 61.87 C 271.81 61.09 272.69 60.19 273.35 59.13 C 272.80 58.83 271.71 58.23 271.17 57.94 C 270.55 59.14 269.97 60.41 268.84 61.23 C 269.39 59.68 269.61 57.08 271.96 57.43 C 271.48 55.32 268.17 51.21 271.63 50.24 C 270.97 53.23 272.00 55.86 273.93 58.13 C 274.84 58.48 276.66 59.16 277.57 59.51 C 277.29 57.24 279.55 56.71 281.14 56.20 C 284.63 53.24 287.17 49.08 291.03 46.65 C 291.29 46.86 291.83 47.29 292.09 47.51 L 292.18 48.33 L 292.41 48.85 C 294.19 46.52 296.91 44.33 296.76 41.13 C 294.59 41.73 294.60 44.24 293.24 45.62 C 292.77 46.38 290.54 45.96 291.72 45.04 C 293.43 43.39 295.05 41.66 296.63 39.90 C 296.96 40.91 297.90 41.96 297.26 43.06 C 294.97 48.99 291.51 54.39 289.05 60.26 C 287.05 65.85 289.69 71.58 289.73 77.28 C 292.28 79.55 294.93 83.35 298.81 82.51 C 304.95 80.76 310.08 76.75 315.34 73.30 C 320.72 68.32 325.66 62.88 330.93 57.79 C 331.13 58.55 331.32 59.31 331.51 60.08 C 330.86 61.96 330.43 63.91 329.74 65.77 C 326.52 70.11 323.94 75.20 319.04 77.94 L 319.93 75.16 L 315.86 75.37 C 316.64 75.99 318.22 77.21 319.00 77.82 L 317.65 79.10 L 315.58 77.34 L 316.47 80.07 C 315.92 79.85 314.83 79.40 314.28 79.18 C 312.93 79.88 311.38 80.35 310.45 81.64 L 313.57 81.51 C 309.65 85.69 303.66 87.91 301.02 93.26 C 300.09 95.75 300.50 98.51 300.16 101.11 C 298.26 99.31 299.26 96.49 299.23 94.21 C 300.84 91.29 303.42 89.07 305.38 86.39 C 307.18 85.30 308.83 83.98 310.39 82.56 L 307.74 82.32 C 307.06 83.79 305.75 84.78 304.65 85.91 C 304.17 85.71 303.22 85.30 302.74 85.10 C 302.82 85.70 302.98 86.88 303.06 87.48 L 301.94 86.89 C 301.24 87.50 299.84 88.70 299.14 89.31 C 299.40 87.46 299.69 85.62 300.03 83.79 L 298.91 83.91 C 298.73 87.31 297.99 90.64 297.37 93.98 C 296.65 93.78 295.93 93.57 295.21 93.37 C 294.72 93.61 293.73 94.08 293.23 94.32 C 289.43 93.62 285.66 94.78 281.85 94.59 C 281.53 93.92 280.88 92.60 280.56 91.94 C 281.18 91.62 282.42 90.99 283.04 90.67 L 282.34 90.30 C 285.30 90.13 286.88 87.57 288.50 85.47 C 287.44 85.51 286.38 85.59 285.31 85.59 L 286.94 82.52 C 283.26 82.37 280.88 85.53 277.75 86.90 C 279.82 86.68 281.89 86.41 283.98 86.20 C 284.48 86.76 284.99 87.32 285.50 87.89 C 284.71 88.49 283.13 89.70 282.34 90.30 C 281.55 89.97 280.78 89.61 280.04 89.22 L 282.13 87.98 C 279.62 88.73 276.46 90.13 275.07 86.90 C 279.39 83.94 284.16 81.72 288.32 78.51 C 287.78 79.30 286.70 80.88 286.16 81.67 C 288.42 81.11 290.03 82.89 291.81 83.89 L 289.47 84.95 C 290.92 84.78 292.36 84.43 293.81 84.22 C 294.10 86.96 290.33 87.65 288.38 88.65 C 287.58 89.41 286.78 90.16 285.99 90.92 C 288.91 89.89 291.91 87.38 295.12 88.86 C 296.21 87.27 297.27 85.66 298.38 84.08 C 295.53 83.94 293.14 82.24 290.36 81.82 C 290.49 81.50 290.76 80.85 290.90 80.52 C 287.21 75.36 286.55 68.49 287.47 62.36 C 289.07 59.26 289.52 55.74 291.24 52.68 C 290.41 52.03 288.75 50.72 287.93 50.06 L 289.34 53.40 C 288.13 52.46 286.85 52.21 285.91 53.65 C 286.72 53.63 288.35 53.57 289.16 53.54 C 288.58 54.35 288.01 55.16 287.44 55.97 C 286.34 55.08 285.21 54.25 284.05 53.47 C 284.37 55.24 288.77 57.68 285.19 58.37 C 285.42 58.80 285.88 59.67 286.12 60.11 C 285.69 60.12 284.84 60.13 284.41 60.14 C 284.37 61.00 284.32 61.86 284.26 62.72 C 284.51 63.03 285.02 63.66 285.27 63.98 C 284.48 63.80 282.89 63.44 282.10 63.26 C 283.02 64.67 283.95 66.08 284.89 67.49 C 284.40 67.48 283.43 67.46 282.94 67.45 C 284.37 69.44 286.31 72.26 284.66 74.70 C 282.86 77.14 279.84 78.45 278.34 81.13 C 282.31 80.68 283.96 76.25 287.65 75.30 C 285.62 78.86 281.57 80.51 279.10 83.73 C 276.85 84.87 274.25 86.39 271.73 85.03 L 271.45 85.84 L 273.75 85.94 C 272.88 87.03 271.97 88.09 271.05 89.13 C 272.39 88.49 273.64 87.50 275.20 87.44 C 274.89 88.12 274.29 89.48 273.99 90.16 L 275.65 90.17 C 275.53 90.53 275.31 91.24 275.19 91.60 C 277.30 92.86 279.56 94.05 281.02 96.10 C 279.96 96.50 278.90 96.89 277.85 97.29 C 279.28 97.72 281.13 97.65 281.94 99.17 C 282.42 99.65 283.39 100.60 283.87 101.07 C 281.68 100.80 279.51 100.42 277.30 100.39 C 276.83 103.26 280.24 103.38 282.00 104.56 C 283.91 104.13 285.86 103.86 287.82 103.66 L 287.86 103.25 C 285.62 103.40 283.36 103.47 281.22 102.68 C 283.51 101.83 285.77 100.88 288.07 100.04 C 290.32 99.07 293.24 100.31 295.03 98.25 C 295.72 98.72 297.10 99.66 297.79 100.13 C 296.97 101.26 296.18 102.41 295.38 103.55 C 293.84 103.79 292.32 104.14 290.83 104.59 C 292.32 104.59 293.81 104.53 295.31 104.45 C 295.89 104.16 297.05 103.57 297.63 103.27 C 298.25 105.55 295.66 107.01 294.63 108.77 C 292.10 108.36 289.63 109.13 287.24 109.83 L 287.65 108.73 C 286.00 108.89 284.85 108.32 284.22 107.02 C 285.12 106.86 286.91 106.54 287.80 106.38 C 287.79 106.18 287.75 105.78 287.73 105.58 C 285.01 105.51 282.17 105.04 279.86 106.84 C 281.22 107.08 282.58 107.30 283.94 107.50 C 283.72 108.08 283.27 109.25 283.04 109.83 C 284.08 109.65 286.15 109.28 287.19 109.09 C 286.28 111.15 283.97 111.66 282.13 112.56 C 281.38 111.93 280.62 111.31 279.87 110.68 C 279.20 106.76 276.31 103.66 274.63 100.13 C 275.05 99.52 275.49 98.93 275.93 98.34 L 277.07 100.06 C 276.75 98.03 275.41 96.50 274.23 94.91 L 274.75 97.51 C 274.25 97.34 273.26 97.01 272.76 96.84 C 270.25 92.38 267.36 88.00 263.37 84.72 C 256.57 78.98 249.50 73.56 242.17 68.53 C 242.63 68.10 243.56 67.23 244.02 66.80 C 242.71 66.10 241.51 65.01 239.92 65.12 C 241.04 63.65 242.17 62.18 242.94 60.48 C 241.32 61.80 239.93 63.33 238.56 64.88 C 239.81 66.04 241.36 66.71 243.04 66.98 C 241.56 69.56 239.93 67.09 238.42 66.48 C 235.77 64.70 232.48 63.97 230.16 61.69 C 229.96 60.53 231.39 59.84 231.88 58.90 C 230.08 59.68 228.38 61.36 226.19 60.15 C 228.17 58.10 230.90 57.14 233.59 56.42 L 232.57 58.53 C 233.89 58.10 235.21 57.70 236.55 57.32 L 236.03 56.36 C 236.87 56.24 238.56 56.00 239.40 55.89 C 238.80 55.83 237.60 55.70 237.00 55.64 C 237.77 51.93 241.42 50.02 243.78 47.35 C 244.07 47.29 244.65 47.16 244.94 47.09 C 245.06 47.46 245.29 48.18 245.40 48.55 C 243.61 50.99 241.07 52.73 239.31 55.20 C 240.64 54.60 241.94 53.89 243.24 53.22 C 246.10 51.37 246.51 46.93 249.92 46.13 C 247.85 49.93 245.91 53.85 243.71 57.54 C 242.97 57.58 241.49 57.66 240.75 57.70 C 242.16 56.56 244.11 55.71 244.08 53.53 C 242.08 55.21 240.09 56.89 238.12 58.61 L 241.41 58.16 C 240.75 58.74 239.43 59.90 238.77 60.48 L 239.10 61.24 C 237.88 60.72 235.76 61.66 236.10 63.17 C 237.43 63.88 238.47 62.17 239.10 61.24 C 240.36 60.47 241.56 59.63 242.71 58.70 C 243.46 59.61 244.04 60.60 244.47 61.69 C 243.86 62.57 242.63 64.34 242.02 65.22 C 245.17 64.38 244.63 60.94 245.60 58.58 C 246.42 57.63 247.20 56.65 247.95 55.64 C 248.56 56.12 249.18 56.61 249.79 57.11 C 249.21 59.33 247.84 61.18 246.83 63.20 C 250.35 60.68 250.60 55.74 253.95 53.05 C 253.42 52.67 252.36 51.90 251.83 51.51 C 251.56 52.56 251.01 54.65 250.74 55.70 C 250.02 54.26 250.11 52.56 250.94 51.12 L 251.08 50.63 L 250.59 50.45 L 250.41 50.96 L 250.94 51.12 L 249.50 52.06 C 249.17 52.73 248.50 54.05 248.17 54.71 C 247.83 52.24 248.80 49.97 250.16 47.98 C 250.86 48.44 251.65 48.71 252.50 48.55 L 250.55 47.08 C 252.56 45.98 251.81 43.96 249.94 43.26 C 250.66 42.78 251.38 42.31 252.11 41.83 C 252.00 44.01 254.16 44.25 255.74 44.75 C 255.61 46.20 255.46 47.65 255.31 49.09 C 255.78 48.33 256.72 46.81 257.18 46.04 C 257.67 47.51 258.16 48.97 258.65 50.43 C 259.13 50.55 260.08 50.78 260.56 50.90 C 261.79 53.25 263.25 55.46 264.74 57.65 C 264.07 57.46 262.74 57.09 262.07 56.90 C 260.72 53.85 259.27 58.66 262.07 56.90 C 262.33 57.95 262.60 59.00 262.89 60.04 C 261.08 63.32 257.18 65.00 255.96 68.56 C 255.45 67.89 254.94 67.21 254.45 66.54 C 252.13 68.21 249.87 70.00 247.94 72.12 C 249.80 71.19 251.30 69.74 252.93 68.47 C 253.49 69.00 254.05 69.54 254.60 70.09 C 254.15 70.47 253.23 71.23 252.78 71.61 C 254.45 70.31 256.07 70.01 257.35 72.14 C 256.80 72.57 255.69 73.43 255.14 73.86 C 256.21 73.72 257.29 73.59 258.37 73.45 C 258.83 70.46 261.37 68.64 263.03 66.32 C 261.25 68.05 259.58 69.90 257.58 71.37 C 257.13 70.91 256.21 69.99 255.75 69.53 C 259.19 65.34 263.52 61.82 266.20 57.06 C 264.31 54.55 262.31 52.12 260.30 49.71 C 258.97 47.09 258.19 44.23 257.20 41.47 L 255.49 41.60 L 256.59 43.81 C 255.64 43.70 253.76 43.50 252.82 43.40 M 252.83 50.89 C 254.06 52.02 255.30 53.16 256.54 54.29 C 253.15 54.33 252.70 58.57 251.18 60.87 C 252.25 59.53 253.22 58.11 254.16 56.68 C 254.57 56.94 255.39 57.47 255.81 57.74 C 255.50 57.09 254.88 55.79 254.57 55.15 C 255.90 55.33 258.56 55.70 259.89 55.88 C 257.94 53.75 255.26 52.27 253.79 49.74 C 253.46 50.12 253.14 50.50 252.83 50.89 M 291.21 49.99 C 291.82 50.62 291.82 50.62 291.21 49.99 M 231.61 62.02 C 234.37 62.98 236.22 60.14 238.23 58.78 C 235.74 59.16 233.70 60.74 231.61 62.02 M 274.24 60.12 C 273.00 61.77 271.72 63.40 270.86 65.29 C 270.44 64.87 270.02 64.45 269.61 64.04 C 267.80 65.44 265.49 66.06 263.90 67.75 C 264.47 67.59 265.60 67.28 266.17 67.12 L 266.85 66.74 C 267.90 65.88 269.14 65.57 270.44 66.07 C 269.29 67.56 267.85 68.81 266.14 69.61 L 266.62 70.64 C 264.38 72.09 262.01 73.33 259.87 74.92 C 263.67 74.65 265.79 70.44 269.16 68.85 C 269.43 68.50 269.97 67.79 270.25 67.43 C 270.77 67.45 271.81 67.49 272.33 67.51 L 273.86 66.42 L 274.97 66.70 C 274.60 67.40 273.87 68.82 273.51 69.52 C 272.95 69.87 271.83 70.56 271.27 70.90 C 272.20 70.65 273.14 70.38 274.03 70.00 C 274.09 70.90 274.20 72.70 274.25 73.60 C 276.57 72.15 278.67 70.40 280.62 68.49 C 279.61 67.39 278.63 66.28 277.65 65.16 C 277.72 64.48 277.88 63.12 277.96 62.44 C 277.55 61.92 276.72 60.89 276.31 60.37 C 275.79 60.31 274.76 60.19 274.24 60.12 M 325.61 66.99 C 325.17 66.72 324.28 66.17 323.83 65.89 C 322.98 67.14 323.43 68.13 325.19 68.89 C 324.39 68.64 322.79 68.14 321.99 67.89 L 322.64 70.34 L 321.45 72.02 L 322.50 72.31 C 327.67 70.35 328.69 64.13 330.77 59.65 C 328.77 61.73 325.46 63.78 325.61 66.99 M 249.18 63.28 C 249.78 63.82 249.78 63.82 249.18 63.28 M 280.41 65.05 C 280.14 66.23 281.74 67.88 282.91 67.25 C 283.11 66.09 281.55 64.50 280.41 65.05 M 246.25 69.19 C 246.81 69.79 246.81 69.79 246.25 69.19 M 280.15 69.71 L 280.27 71.23 L 279.35 71.32 C 278.02 72.51 276.69 73.72 275.37 74.93 C 274.42 74.24 273.47 73.55 272.52 72.86 C 270.60 74.58 268.63 76.24 266.89 78.14 C 269.02 76.95 270.88 75.33 272.93 74.01 C 273.58 74.86 274.22 75.71 274.86 76.58 C 277.33 74.73 279.28 72.15 282.20 70.95 C 281.69 70.64 280.66 70.02 280.15 69.71 M 278.88 75.94 C 276.93 77.89 274.27 78.86 272.06 80.46 C 272.74 80.72 274.09 81.23 274.77 81.49 L 273.16 80.40 C 275.17 79.04 277.39 78.06 279.82 77.76 C 281.49 76.11 283.12 74.43 284.77 72.76 C 282.03 70.69 281.25 75.31 278.88 75.94 M 262.27 76.22 C 262.85 76.78 262.85 76.78 262.27 76.22 M 264.14 76.68 C 264.05 77.06 263.86 77.82 263.77 78.20 C 264.77 80.13 266.43 77.42 264.80 76.67 L 264.14 76.68 M 274.77 81.49 C 273.63 82.57 270.00 82.76 271.65 84.92 C 273.43 83.18 275.60 81.91 277.36 80.15 C 276.48 80.58 275.62 81.03 274.77 81.49 M 270.21 86.24 C 270.82 86.79 270.82 86.79 270.21 86.24 M 293.26 92.08 C 294.23 93.09 296.80 91.85 295.87 90.44 C 294.87 89.59 292.60 90.72 293.26 92.08 Z" />
<path fill="#ffffff" opacity="1.00" d=" M 238.88 45.96 C 240.44 45.34 241.18 43.24 242.96 43.14 C 243.55 44.82 241.44 45.49 240.64 46.54 C 241.40 47.00 242.15 47.47 242.90 47.95 C 242.21 48.20 240.84 48.71 240.15 48.97 C 240.01 48.60 239.73 47.86 239.59 47.49 C 238.14 47.72 235.80 50.02 234.83 48.89 C 235.16 46.98 237.53 46.92 238.88 45.96 Z" />
<path fill="#ffffff" opacity="1.00" d=" M 244.41 45.97 C 242.21 47.00 242.97 42.90 244.79 44.32 C 244.70 44.73 244.51 45.56 244.41 45.97 Z" />
<path fill="#ffffff" opacity="1.00" d=" M 256.06 44.55 C 256.78 45.12 256.78 45.12 256.06 44.55 Z" />
<path fill="#ffffff" opacity="1.00" d=" M 200.49 49.89 C 200.54 48.65 201.11 47.04 202.63 47.18 C 205.96 53.56 204.50 61.08 204.18 67.96 C 203.34 70.92 203.88 73.99 203.16 76.97 C 204.54 80.07 207.53 82.35 208.26 85.85 C 209.50 91.26 212.70 95.80 215.41 100.54 C 216.76 102.50 218.92 103.82 220.02 105.96 C 219.63 106.15 218.83 106.53 218.44 106.72 C 218.55 108.25 218.65 109.78 218.73 111.32 C 217.33 110.08 215.93 108.81 214.77 107.35 C 214.94 105.25 215.76 103.09 214.68 101.10 C 213.93 103.32 213.18 105.53 212.58 107.80 L 212.35 107.81 C 212.46 105.81 212.32 103.81 212.14 101.83 C 209.16 102.08 210.71 105.28 210.35 107.24 C 208.70 104.55 209.78 101.36 209.79 98.43 L 207.54 98.33 C 207.57 99.25 207.62 101.08 207.65 102.00 C 205.95 100.76 207.35 97.80 204.61 97.91 C 205.34 97.77 206.79 97.50 207.52 97.36 C 206.77 96.83 205.28 95.77 204.54 95.24 L 205.07 93.64 L 203.56 93.60 C 203.61 94.39 203.71 95.97 203.76 96.75 C 203.43 96.70 202.76 96.59 202.43 96.53 C 202.49 96.07 202.63 95.15 202.70 94.69 C 200.97 94.21 200.20 92.57 199.24 91.23 C 198.73 91.80 198.24 92.38 197.75 92.96 C 199.67 94.05 200.44 96.12 201.63 97.84 C 203.67 100.33 205.54 102.95 207.46 105.53 C 209.47 110.19 209.26 115.56 211.86 120.01 C 212.67 118.84 213.46 117.66 214.40 116.59 C 214.65 118.34 215.33 119.92 216.72 121.06 C 215.90 122.82 214.81 124.45 213.11 125.47 C 213.15 124.60 213.23 122.86 213.27 121.99 C 211.35 121.63 210.93 119.44 209.83 118.14 C 206.83 114.22 208.74 108.40 205.26 104.73 C 202.98 102.27 201.62 99.16 199.65 96.49 C 196.02 93.24 193.55 88.98 190.83 84.99 C 192.66 86.57 194.34 88.33 195.88 90.19 C 196.61 90.81 197.42 91.29 198.31 91.64 L 198.72 88.57 L 196.85 88.99 C 196.80 88.44 196.69 87.33 196.64 86.78 C 195.17 85.89 194.07 84.55 192.86 83.37 C 194.33 82.34 196.00 81.52 197.24 80.18 C 197.43 78.70 197.49 77.07 199.12 76.38 C 199.00 78.94 198.71 84.12 195.04 83.43 C 195.89 83.84 196.75 84.26 197.59 84.73 L 197.49 83.56 C 198.10 82.82 199.32 81.35 199.93 80.61 C 199.59 82.88 200.40 85.31 199.46 87.50 C 202.59 86.97 201.35 90.43 202.53 92.16 C 203.81 90.20 202.82 86.31 204.91 85.13 C 206.21 86.94 204.96 89.00 204.29 90.78 C 204.58 90.77 205.14 90.74 205.43 90.73 C 206.79 87.99 206.69 85.14 204.76 82.71 C 204.18 82.40 203.61 82.10 203.03 81.80 L 205.66 81.76 C 204.28 79.92 202.75 78.22 200.96 76.77 C 201.90 74.95 202.96 73.16 203.24 71.08 C 201.14 74.10 197.37 75.03 195.04 77.56 C 193.99 76.66 192.99 75.71 192.04 74.71 C 194.81 75.67 198.26 75.18 200.26 72.93 C 201.44 71.74 202.54 70.48 203.64 69.22 C 203.69 62.81 203.78 56.34 202.87 49.99 C 202.63 49.45 202.15 48.37 201.91 47.83 C 200.12 55.86 200.85 64.44 197.29 72.02 C 198.40 71.26 199.50 70.50 200.60 69.72 C 200.52 70.52 200.35 72.13 200.26 72.93 L 199.46 71.18 C 197.55 72.79 195.46 74.29 192.91 74.61 C 193.32 72.69 197.81 69.81 194.81 68.40 C 194.28 69.29 193.21 71.05 192.68 71.94 C 192.19 70.73 192.13 69.43 192.15 68.14 L 194.52 68.86 C 194.11 68.45 193.29 67.63 192.87 67.23 C 192.46 66.66 191.62 65.53 191.20 64.96 C 190.65 65.51 189.56 66.60 189.01 67.15 C 189.30 66.10 189.60 65.05 189.91 64.01 C 188.78 63.15 187.67 62.28 186.55 61.41 C 185.30 60.17 183.90 59.09 182.43 58.12 C 182.92 57.61 183.41 57.10 183.90 56.59 C 184.65 60.16 188.50 61.69 190.85 64.14 C 192.94 65.29 194.91 66.66 196.62 68.34 C 199.60 62.67 199.81 56.12 200.49 49.89 M 207.35 88.86 C 206.64 90.23 206.16 92.33 207.11 93.68 C 208.71 93.33 209.26 88.86 207.35 88.86 Z" />
<path fill="#ffffff" opacity="1.00" d=" M 235.06 52.29 C 236.33 50.85 237.65 49.45 238.99 48.08 L 240.15 48.97 L 240.76 49.44 C 238.01 51.45 235.49 53.74 232.82 55.86 L 233.83 52.30 C 232.02 53.88 230.36 55.61 228.51 57.15 C 227.11 56.90 225.72 56.54 224.33 56.25 C 224.92 56.68 226.09 57.55 226.68 57.99 C 226.09 58.44 225.51 58.90 224.94 59.36 C 224.56 57.28 222.49 56.20 221.32 54.63 C 221.89 54.81 223.03 55.15 223.59 55.33 C 226.86 54.17 230.22 53.17 232.70 50.59 C 233.54 50.41 235.21 50.05 236.04 49.88 L 235.06 52.29 Z" />
<path fill="#ffffff" opacity="1.00" d=" M 272.87 65.16 C 272.90 63.76 274.34 61.75 275.79 61.73 C 276.01 63.24 274.36 65.12 272.87 65.16 Z" />
<path fill="#ffffff" opacity="1.00" d=" M 272.87 65.16 C 272.18 65.86 272.18 65.86 272.87 65.16 Z" />
<path fill="#ffffff" opacity="1.00" d=" M 274.56 66.21 L 275.01 65.81 C 275.00 66.03 274.98 66.47 274.97 66.70 L 274.56 66.21 Z" />
<path fill="#ffffff" opacity="1.00" d=" M 274.03 70.00 C 274.73 68.32 276.10 66.32 278.06 66.25 C 278.30 67.96 276.30 69.37 274.91 70.04 C 274.69 70.03 274.25 70.01 274.03 70.00 Z" />
<path fill="#ffffff" opacity="1.00" d=" M 182.87 70.00 C 185.78 68.57 188.97 68.04 192.15 68.91 C 189.26 70.78 185.91 72.39 182.39 71.46 C 182.51 71.10 182.75 70.37 182.87 70.00 Z" />
<path fill="#ffffff" opacity="1.00" d=" M 186.67 74.34 C 186.91 73.10 190.59 70.04 191.15 72.07 C 189.89 73.08 188.39 74.54 186.67 74.34 Z" />
<path fill="#ffffff" opacity="1.00" d=" M 188.44 77.06 C 188.29 75.82 188.90 75.02 190.26 74.66 C 192.05 75.37 189.72 77.60 188.44 77.06 Z" />
<path fill="#ffffff" opacity="1.00" d=" M 182.68 76.14 C 186.08 77.55 188.36 80.51 189.65 83.87 C 187.31 81.30 184.71 78.96 182.68 76.14 Z" />
<path fill="#ffffff" opacity="1.00" d=" M 191.54 76.35 C 192.63 76.95 193.62 77.70 194.62 78.44 C 194.07 80.02 193.04 81.14 191.53 81.80 C 191.81 80.92 192.37 79.17 192.65 78.30 C 191.85 78.72 190.27 79.55 189.48 79.97 C 190.07 78.71 190.75 77.50 191.54 76.35 Z" />
<path fill="#ffffff" opacity="1.00" d=" M 252.05 95.92 C 254.15 91.98 254.12 87.23 256.76 83.53 C 257.18 83.96 258.02 84.84 258.44 85.28 C 259.42 90.17 257.63 95.01 257.01 99.84 C 256.62 103.17 254.60 105.92 252.64 108.52 C 249.77 111.38 244.32 113.12 245.07 118.08 C 246.89 119.43 248.85 120.59 250.73 121.88 C 251.99 121.30 253.26 120.74 254.53 120.17 C 256.13 118.16 259.42 117.90 260.20 115.26 C 259.15 115.86 258.04 116.30 256.86 116.58 C 256.88 114.37 256.94 112.14 258.01 110.13 C 258.82 111.34 260.33 112.41 259.55 114.15 C 259.92 113.40 260.27 112.65 260.60 111.88 C 259.78 110.83 258.18 109.07 260.15 108.19 C 261.68 108.58 262.19 110.73 263.46 111.70 C 262.31 112.83 261.19 113.99 260.15 115.22 L 263.63 114.07 C 261.59 118.66 256.86 121.01 253.05 123.92 C 253.17 124.32 253.40 125.10 253.51 125.49 C 253.52 127.12 253.53 128.77 253.00 130.34 C 253.26 130.98 253.76 132.27 254.01 132.91 C 252.42 131.58 250.96 130.11 249.40 128.76 C 250.49 128.22 251.62 127.74 252.73 127.21 C 250.43 125.06 248.96 122.04 246.06 120.58 C 243.89 119.24 244.57 116.15 243.96 114.02 C 242.59 112.75 241.16 111.49 239.29 111.05 L 240.31 113.32 C 237.78 114.66 237.15 111.95 236.31 110.35 C 239.24 108.15 242.55 106.53 245.54 104.41 C 248.15 101.97 250.52 99.17 252.05 95.92 M 256.16 86.38 C 255.84 90.34 254.13 93.96 251.96 97.22 C 252.48 97.49 253.53 98.03 254.05 98.30 C 253.32 98.69 251.87 99.48 251.15 99.87 L 252.56 101.19 L 252.72 102.53 C 251.93 102.12 251.14 101.68 250.37 101.23 C 250.04 101.60 249.38 102.33 249.05 102.69 C 249.84 102.70 251.43 102.71 252.22 102.71 C 251.80 103.37 250.97 104.68 250.55 105.34 L 248.21 104.57 C 248.67 105.35 249.60 106.91 250.06 107.69 C 248.92 107.41 247.77 107.17 246.62 106.96 C 247.96 108.08 247.33 109.59 246.75 110.91 C 251.58 110.58 254.12 105.17 255.23 101.01 C 257.56 97.23 257.38 92.65 257.49 88.37 C 257.08 87.69 256.64 87.02 256.16 86.38 M 241.82 108.19 C 242.14 108.73 242.78 109.81 243.09 110.35 C 243.34 111.40 243.59 112.46 243.85 113.51 C 244.63 113.00 246.19 111.97 246.97 111.46 C 245.23 110.39 243.49 109.35 241.82 108.19 Z" />
<path fill="#ffffff" opacity="1.00" d=" M 368.96 87.55 C 370.14 91.01 368.92 94.92 366.88 97.82 C 364.19 101.77 360.13 104.44 356.17 106.96 C 353.37 110.27 348.88 111.30 344.75 111.58 C 338.23 113.97 331.49 115.82 324.82 117.57 C 330.31 115.14 335.88 112.48 341.96 112.06 C 344.37 111.11 341.71 108.42 339.85 109.06 C 339.02 107.93 338.19 106.80 337.39 105.66 L 339.76 105.74 L 340.52 106.96 L 342.53 108.03 C 341.84 107.23 340.46 105.61 339.78 104.80 C 340.64 104.88 342.38 105.04 343.25 105.12 C 345.44 103.48 348.39 103.27 350.42 101.39 C 350.30 102.64 350.19 103.89 350.07 105.14 L 350.85 105.06 C 350.79 103.94 350.74 102.82 350.72 101.70 C 354.29 101.49 356.74 98.52 359.57 96.70 C 363.31 94.32 366.01 90.79 368.96 87.55 M 365.30 94.69 C 364.37 95.58 363.31 96.44 363.46 97.89 C 362.70 97.86 361.19 97.80 360.43 97.77 C 361.14 98.13 362.55 98.86 363.25 99.23 C 362.15 99.23 359.96 99.24 358.86 99.25 L 361.56 102.00 L 357.90 101.73 C 358.74 102.40 359.60 103.05 360.46 103.70 C 361.89 101.76 363.85 100.33 365.47 98.57 C 367.18 96.20 367.70 93.20 368.12 90.37 C 366.70 91.48 365.70 92.93 365.30 94.69 M 357.63 102.72 C 355.48 105.25 360.24 104.64 357.63 102.72 M 354.35 104.34 C 353.36 105.51 356.20 107.41 356.30 105.50 C 355.81 105.21 354.83 104.63 354.35 104.34 M 347.60 105.10 C 347.02 107.06 346.53 109.05 346.16 111.06 C 348.70 110.49 350.81 108.91 353.18 108.00 L 354.14 107.81 C 354.19 107.33 354.29 106.38 354.34 105.90 L 352.56 104.83 L 352.78 107.00 C 351.00 106.51 349.27 105.87 347.60 105.10 M 343.98 108.36 C 342.35 109.33 344.19 111.93 345.66 110.75 C 347.05 109.73 345.43 107.39 343.98 108.36 Z" />
<path fill="#ffffff" opacity="1.00" d=" M 278.39 90.05 C 280.14 88.60 280.46 92.57 278.53 90.98 L 278.39 90.05 Z" />
<path fill="#ffffff" opacity="1.00" d=" M 285.23 95.02 C 288.56 95.40 291.91 95.54 295.15 94.52 C 295.46 94.95 296.09 95.81 296.40 96.24 C 295.66 96.33 294.20 96.51 293.47 96.60 C 293.49 97.09 293.55 98.06 293.58 98.55 C 290.24 96.98 285.57 102.17 283.64 97.83 C 279.37 98.29 282.28 94.83 284.82 94.74 L 284.54 96.71 C 284.76 96.72 285.21 96.74 285.43 96.74 C 285.38 96.31 285.28 95.45 285.23 95.02 Z" />
<path fill="#ffffff" opacity="1.00" d=" M 259.25 105.55 C 264.63 103.35 269.63 108.71 270.53 113.68 C 270.11 113.94 269.27 114.47 268.84 114.74 C 267.01 117.41 266.93 121.32 263.67 122.79 C 262.45 123.83 260.83 123.02 259.50 122.71 C 261.03 121.83 262.28 119.03 264.47 120.84 C 264.14 120.28 263.48 119.15 263.15 118.59 C 263.42 118.58 263.94 118.55 264.21 118.54 C 264.73 117.36 265.31 116.20 265.93 115.07 C 265.60 113.63 265.16 112.24 264.59 110.89 C 265.06 110.33 265.53 109.78 266.02 109.22 C 264.91 105.85 260.34 108.96 259.25 105.55 Z" />
<path fill="#ffffff" opacity="1.00" d=" M 299.57 101.82 C 301.49 103.74 301.27 106.74 302.95 108.81 C 304.63 110.91 306.98 112.35 308.77 114.35 C 313.09 112.41 317.56 110.23 322.43 110.38 C 324.04 109.89 325.63 109.34 327.34 109.28 C 329.19 108.44 331.08 107.68 332.95 106.84 C 334.06 106.63 336.29 106.20 337.40 105.98 C 337.41 107.56 337.43 109.15 337.44 110.73 C 335.97 109.80 334.57 108.79 333.12 107.84 C 334.15 109.17 335.31 110.40 336.09 111.92 C 335.14 111.41 333.26 110.38 332.32 109.87 L 332.77 111.54 C 331.12 111.76 329.15 111.37 327.91 112.77 C 326.35 111.81 324.58 111.31 322.76 111.20 C 323.32 111.41 324.45 111.83 325.02 112.03 C 324.40 114.06 322.51 115.13 321.05 116.48 C 319.70 114.74 317.64 115.32 315.81 115.62 C 314.33 118.95 311.88 114.88 310.31 113.83 C 310.34 114.72 310.39 116.51 310.41 117.40 C 312.84 118.13 315.25 118.90 317.74 119.46 C 316.53 120.25 313.90 122.56 312.99 120.23 C 311.48 120.97 309.97 121.73 308.61 122.72 C 311.32 122.20 314.03 121.71 316.76 121.27 C 316.31 122.12 315.42 123.83 314.97 124.68 C 316.50 123.91 317.87 122.87 319.18 121.78 C 318.73 120.80 318.31 119.82 317.87 118.83 L 319.38 119.32 C 320.86 117.40 323.16 116.50 325.43 115.89 C 324.65 118.81 321.08 119.05 319.09 120.79 C 322.47 120.61 325.96 119.43 329.32 120.44 C 329.82 121.36 330.84 123.20 331.34 124.13 L 329.16 123.07 C 328.54 123.71 327.31 124.98 326.70 125.62 L 330.10 124.04 C 330.22 127.65 332.68 123.26 333.78 122.44 L 333.79 121.96 C 333.25 122.17 332.17 122.59 331.62 122.80 L 331.57 120.22 C 335.37 120.22 339.25 121.13 342.92 119.70 C 342.36 120.29 341.24 121.48 340.68 122.07 L 339.18 120.82 C 340.20 123.17 339.53 124.02 337.17 123.39 L 338.21 125.60 C 341.39 124.09 343.00 120.67 346.07 119.22 C 345.08 122.04 342.77 124.00 340.95 126.26 C 342.58 125.57 343.95 124.43 345.33 123.34 C 345.66 122.20 346.32 121.30 347.31 120.65 C 346.99 121.68 346.36 123.75 346.05 124.78 C 347.08 123.99 348.11 123.21 349.16 122.43 C 351.74 122.70 353.90 121.30 356.03 120.05 C 356.94 119.57 357.87 119.10 358.80 118.65 C 358.73 119.55 358.59 121.36 358.52 122.26 C 361.74 119.84 363.96 115.96 367.89 114.58 C 366.65 116.48 364.93 117.98 363.12 119.31 C 356.13 124.92 348.34 130.63 339.12 131.41 C 335.73 131.96 332.28 130.91 328.94 131.96 C 327.25 131.32 324.66 131.70 323.67 130.02 C 326.99 129.46 330.46 130.86 333.88 130.51 C 336.23 130.24 338.59 130.32 340.95 130.46 C 346.83 128.67 352.15 125.57 357.56 122.73 C 354.10 119.81 350.95 124.38 347.92 125.78 C 341.70 128.39 334.74 129.20 328.03 128.74 C 326.71 128.75 325.51 128.14 324.40 127.49 C 324.80 127.10 325.60 126.32 326.00 125.93 C 325.15 126.46 324.32 127.00 323.50 127.55 C 322.40 127.52 321.30 127.51 320.20 127.53 C 320.05 127.29 319.74 126.80 319.58 126.56 C 316.92 126.85 314.23 126.56 311.58 127.00 C 311.64 126.63 311.75 125.89 311.80 125.52 C 310.69 125.64 309.09 127.04 308.62 125.13 C 305.93 124.46 303.29 124.96 300.78 125.99 C 302.18 123.35 305.24 122.77 307.85 121.98 C 307.39 121.56 306.45 120.71 305.98 120.28 C 306.82 120.31 308.51 120.37 309.35 120.40 C 308.79 119.82 307.68 118.66 307.12 118.08 C 307.82 118.21 309.21 118.46 309.91 118.58 C 309.82 117.65 309.65 115.80 309.56 114.87 C 307.33 115.51 305.70 113.95 304.15 112.64 C 303.83 110.34 301.99 108.78 300.63 107.07 C 299.79 107.90 298.11 109.56 297.27 110.38 C 298.18 110.11 299.98 109.58 300.88 109.31 C 300.21 110.37 299.14 110.92 298.13 111.57 C 298.15 113.56 301.26 112.01 302.59 112.54 C 302.46 113.45 302.21 115.27 302.08 116.18 L 303.84 114.83 L 303.02 117.23 L 306.08 115.06 C 305.05 118.85 301.13 120.19 298.28 122.30 C 295.39 124.63 292.15 126.56 288.67 127.88 L 288.25 126.36 C 287.67 126.37 286.50 126.39 285.92 126.40 C 285.74 126.89 285.39 127.86 285.22 128.35 L 285.42 126.11 L 283.97 126.27 C 283.51 127.04 282.60 128.58 282.15 129.35 C 282.40 128.48 282.90 126.73 283.15 125.85 C 281.96 126.77 280.83 127.87 279.32 128.22 C 279.49 127.69 279.82 126.63 279.99 126.10 C 281.27 125.41 282.55 124.70 283.87 124.07 C 284.70 122.55 285.93 121.15 285.99 119.33 C 287.52 119.64 288.40 120.87 288.32 122.42 C 287.82 123.19 286.81 124.71 286.30 125.48 L 288.23 125.65 L 288.33 124.29 C 288.60 124.33 289.14 124.40 289.41 124.44 C 289.67 123.55 289.95 122.66 290.23 121.78 C 289.60 121.05 289.04 120.26 288.57 119.42 C 287.81 118.99 287.05 118.54 286.32 118.06 C 285.55 118.62 284.77 119.17 283.99 119.71 C 284.77 118.00 286.16 116.74 287.66 115.66 C 287.95 116.51 288.52 118.21 288.80 119.06 C 288.75 118.21 288.64 116.50 288.59 115.65 C 291.37 114.28 293.86 112.09 294.70 109.01 C 296.25 107.74 297.97 106.00 300.17 106.89 C 300.02 105.62 299.72 103.09 299.57 101.82 M 318.82 124.09 C 320.14 123.36 321.44 122.60 322.72 121.80 C 322.69 123.47 322.13 124.93 321.04 126.19 C 321.95 125.78 322.87 125.37 323.80 124.97 C 325.66 124.16 327.39 123.08 328.93 121.75 C 325.55 122.48 320.46 119.44 318.82 124.09 Z" />
<path fill="#ffffff" opacity="1.00" d=" M 219.55 112.66 C 219.69 110.73 220.07 108.84 220.50 106.95 C 222.40 107.56 224.28 108.25 226.08 109.12 C 229.22 109.46 232.07 110.87 234.94 112.08 C 236.22 112.63 236.27 114.30 236.95 115.36 C 234.81 114.32 232.80 113.06 230.80 111.79 C 230.98 112.45 231.32 113.77 231.50 114.43 C 232.87 115.24 234.26 116.01 235.68 116.74 C 235.33 117.49 234.65 119.01 234.31 119.77 C 233.49 118.83 232.87 117.76 232.48 116.58 C 232.10 116.86 231.34 117.41 230.97 117.68 C 230.10 115.35 228.81 116.86 227.63 117.90 C 229.56 119.83 232.04 121.38 233.07 124.04 C 229.92 122.42 226.85 119.29 226.28 115.70 L 225.57 115.67 C 225.23 114.09 224.83 112.53 224.36 110.99 C 224.31 112.07 224.20 114.22 224.15 115.29 C 223.00 114.02 221.44 112.90 221.33 111.02 C 221.29 111.42 221.22 112.21 221.18 112.61 L 219.55 112.66 Z" />
<path fill="#ffffff" opacity="1.00" d=" M 263.08 108.29 C 266.14 108.52 261.63 111.24 263.08 108.29 Z" />
<path fill="#ffffff" opacity="1.00" d=" M 212.39 109.92 C 213.73 110.84 214.79 112.08 215.65 113.46 C 216.26 113.61 217.48 113.93 218.09 114.09 C 218.88 115.72 219.62 117.39 220.06 119.15 C 218.29 117.72 217.06 115.81 215.77 113.97 L 215.21 116.18 C 214.31 114.07 213.33 112.01 212.39 109.92 Z" />
<path fill="#ffffff" opacity="1.00" d=" M 285.53 112.31 C 288.00 111.50 290.46 110.35 293.15 110.78 C 292.09 111.97 291.02 113.15 289.93 114.31 C 289.82 113.66 289.59 112.35 289.48 111.69 C 288.37 113.20 286.78 114.12 285.01 114.65 C 285.14 114.07 285.40 112.90 285.53 112.31 Z" />
<path fill="#ffffff" opacity="1.00" d=" M 325.29 112.21 C 328.64 112.52 323.72 115.24 325.29 112.21 Z" />
<path fill="#ffffff" opacity="1.00" d=" M 366.22 113.08 C 366.59 112.87 367.34 112.47 367.72 112.27 C 367.92 112.78 368.31 113.78 368.51 114.29 C 364.27 113.77 361.21 117.58 357.15 117.71 C 355.87 118.26 354.58 118.77 353.28 119.26 C 352.85 119.64 351.99 120.40 351.56 120.78 C 351.23 120.38 350.56 119.58 350.23 119.19 C 348.61 120.85 347.27 120.86 346.19 119.21 C 349.66 118.22 353.20 117.49 356.80 117.10 C 360.05 116.03 362.83 113.79 366.22 113.08 Z" />
<path fill="#ffffff" opacity="1.00" d=" M 218.09 114.09 C 218.48 113.61 218.48 113.61 218.09 114.09 Z" />
<path fill="#ffffff" opacity="1.00" d=" M 240.69 116.42 C 240.94 115.81 241.44 114.60 241.69 113.99 C 241.61 115.95 241.65 117.95 241.06 119.85 C 241.96 121.55 243.55 122.60 245.06 123.71 C 247.88 121.52 249.52 125.79 251.13 127.33 C 249.14 127.28 247.17 127.42 245.21 127.75 L 246.82 126.32 C 246.39 125.89 245.53 125.03 245.11 124.60 L 245.72 126.84 C 243.79 126.29 240.69 123.75 239.53 127.22 C 239.89 125.91 239.63 124.71 238.19 124.26 C 239.71 122.24 235.49 120.07 239.69 119.51 C 239.42 119.33 238.88 118.99 238.61 118.82 C 239.20 118.03 239.53 117.15 239.57 116.17 C 239.85 116.23 240.41 116.36 240.69 116.42 M 240.07 123.44 L 240.36 124.10 C 240.77 124.05 241.60 123.93 242.01 123.87 L 241.69 123.19 C 241.29 123.25 240.47 123.38 240.07 123.44 Z" />
<path fill="#ffffff" opacity="1.00" d=" M 270.63 122.46 C 275.03 118.87 279.81 115.75 284.77 112.99 C 285.66 116.05 282.85 116.90 280.77 117.90 C 280.19 119.10 279.49 120.23 278.83 121.38 C 276.91 121.73 273.58 120.70 272.74 122.87 L 274.31 123.06 L 274.39 123.72 C 271.77 125.58 269.36 129.03 265.70 127.81 C 266.27 126.19 267.89 126.37 269.26 126.30 C 270.05 125.12 271.32 124.27 271.93 122.97 C 271.28 123.21 269.98 123.69 269.33 123.93 C 268.43 122.38 267.06 122.39 265.20 123.98 C 266.00 122.39 266.85 120.82 267.61 119.21 L 268.39 119.75 C 268.50 117.57 269.75 115.75 271.00 114.06 C 272.59 116.99 269.06 119.76 270.63 122.46 M 278.14 118.16 C 278.27 118.47 278.52 119.10 278.64 119.42 L 279.47 119.02 L 279.48 118.09 L 278.67 117.64 L 278.14 118.16 Z" />
<path fill="#ffffff" opacity="1.00" d=" M 220.34 116.49 C 222.43 115.64 223.24 117.78 224.39 118.87 C 226.78 119.33 228.19 121.29 229.12 123.39 C 225.77 121.55 221.31 120.85 220.34 116.49 Z" />
<path fill="#ffffff" opacity="1.00" d=" M 217.67 125.26 C 217.95 124.69 218.51 123.54 218.79 122.96 C 218.69 124.27 218.59 125.57 218.48 126.88 C 218.06 126.67 217.23 126.26 216.81 126.05 C 216.31 126.20 215.31 126.51 214.81 126.66 C 215.18 125.32 215.58 123.98 216.02 122.65 C 216.43 123.31 217.25 124.61 217.67 125.26 Z" />
<path fill="#ffffff" opacity="1.00" d=" M 183.49 127.54 C 183.72 126.77 182.99 124.62 184.46 125.39 C 185.81 126.35 187.16 127.30 188.62 128.11 L 188.31 126.11 C 189.77 127.73 191.26 129.32 192.75 130.91 C 192.38 129.66 192.03 128.41 191.72 127.15 C 193.20 128.52 194.49 130.07 195.84 131.58 L 195.36 128.77 C 197.85 130.45 200.24 132.88 203.51 132.55 C 203.80 133.55 204.10 134.56 204.40 135.58 C 206.13 136.79 208.19 137.79 209.12 139.83 C 207.96 139.01 206.89 137.91 205.38 137.90 C 205.50 138.42 205.74 139.46 205.86 139.98 C 205.38 140.11 204.41 140.38 203.93 140.51 C 205.78 140.15 207.43 140.71 208.88 141.88 C 206.88 143.37 206.01 146.64 203.27 146.83 C 203.90 147.02 205.15 147.38 205.77 147.56 C 203.70 148.69 201.75 149.99 199.95 151.51 C 200.90 151.41 202.79 151.21 203.73 151.11 C 202.26 152.02 200.75 152.86 199.23 153.69 C 199.41 154.11 199.79 154.95 199.98 155.37 C 197.48 156.28 195.21 158.04 194.95 160.86 C 194.81 162.96 192.98 164.03 191.26 164.79 C 191.06 164.47 190.66 163.83 190.46 163.51 C 188.64 165.16 186.70 166.70 185.16 168.64 C 186.09 168.10 187.00 167.54 187.92 166.98 L 187.90 170.09 C 188.27 169.05 188.37 167.98 188.19 166.88 C 189.82 168.92 191.12 166.19 192.49 165.58 L 192.88 166.36 L 192.99 166.57 C 191.19 168.18 189.55 169.96 187.83 171.65 C 186.03 173.05 184.24 174.51 182.92 176.39 C 182.26 175.75 181.64 175.08 181.02 174.42 C 180.95 174.95 180.81 176.00 180.75 176.52 C 178.38 176.09 177.02 178.74 175.72 180.26 L 175.46 180.42 L 175.25 180.56 L 174.57 180.80 C 173.65 181.52 172.73 182.26 171.82 183.00 C 172.77 181.43 173.99 180.06 175.18 178.68 C 173.10 177.00 176.59 175.47 177.20 174.18 L 174.42 174.24 C 174.23 174.78 173.85 175.87 173.66 176.41 C 173.44 175.96 173.01 175.06 172.79 174.60 C 172.11 174.93 170.76 175.58 170.08 175.91 C 171.38 174.55 172.82 173.34 174.26 172.15 C 175.65 173.49 176.84 171.93 177.62 170.81 C 177.67 171.68 177.75 173.43 177.79 174.31 C 178.01 173.46 178.45 171.77 178.67 170.92 C 179.85 170.45 180.49 169.42 180.95 168.30 C 182.42 166.88 183.94 165.50 185.39 164.06 L 187.06 165.34 L 185.96 162.90 C 187.20 162.74 188.44 162.61 189.69 162.52 L 189.57 161.76 C 190.38 161.10 191.20 160.44 192.02 159.78 C 191.81 159.43 191.39 158.72 191.18 158.37 C 191.80 157.84 193.06 156.79 193.68 156.26 L 190.74 156.72 C 193.38 154.25 195.86 151.45 199.25 149.98 C 197.78 148.65 195.89 149.73 194.44 150.49 C 193.74 149.77 193.04 149.05 192.34 148.33 L 192.07 149.53 L 193.45 150.33 L 193.74 151.57 C 193.06 151.77 191.70 152.16 191.01 152.36 C 191.82 152.83 192.63 153.30 193.43 153.79 C 189.66 155.96 185.13 157.94 183.10 162.03 C 182.95 161.27 182.67 159.76 182.53 159.00 L 183.44 159.54 C 184.49 156.19 188.08 155.06 190.42 152.81 C 187.23 153.54 184.74 155.69 182.54 157.98 C 181.68 157.45 180.83 156.93 179.98 156.42 C 179.53 157.84 178.95 159.22 177.84 160.26 C 175.62 157.71 173.45 162.47 171.21 162.88 C 171.27 162.13 171.39 160.63 171.46 159.88 C 169.66 161.36 167.94 162.98 165.89 164.10 C 166.53 163.20 167.22 162.34 167.96 161.52 L 168.66 159.93 C 169.40 159.79 169.40 159.79 168.66 159.93 C 166.89 160.96 165.25 162.16 163.44 163.11 C 164.65 160.69 167.15 159.38 168.97 157.48 C 167.94 157.87 165.88 158.65 164.85 159.03 C 165.84 156.41 170.26 155.36 169.41 152.19 C 170.40 149.95 172.00 148.11 173.63 146.32 C 175.30 145.66 176.96 144.97 178.63 144.31 C 178.79 141.45 176.04 142.56 174.50 142.54 C 174.25 145.81 170.47 145.32 168.31 144.45 C 168.69 143.17 167.60 140.92 169.48 140.53 C 169.83 140.92 170.53 141.71 170.88 142.10 C 170.54 140.67 170.25 139.23 169.99 137.79 C 172.90 138.89 175.57 140.52 178.14 142.26 C 179.73 142.29 181.33 142.34 182.93 142.39 C 182.83 141.84 182.64 140.73 182.55 140.18 C 184.14 140.23 185.87 140.36 186.58 138.62 C 188.93 139.37 191.06 141.08 193.64 140.85 L 193.67 142.35 C 194.02 141.55 194.38 140.75 194.73 139.95 C 197.33 140.16 201.01 140.41 201.56 143.63 C 202.41 143.68 204.11 143.78 204.97 143.83 C 203.89 143.03 202.78 142.27 201.68 141.51 C 201.38 141.07 200.78 140.19 200.47 139.74 C 197.91 139.91 195.02 138.94 192.72 140.40 C 190.30 139.84 188.52 138.12 186.70 136.55 C 185.63 137.33 184.55 138.11 183.46 138.88 C 180.92 137.64 177.42 137.21 176.16 134.32 C 178.19 134.95 180.16 135.76 182.25 136.20 C 179.42 132.41 173.65 132.50 171.69 127.79 C 174.13 128.13 176.39 129.13 178.70 129.90 C 178.58 129.22 178.35 127.87 178.23 127.19 C 178.75 127.69 179.79 128.68 180.32 129.18 C 180.30 128.32 180.26 126.61 180.24 125.76 C 181.05 126.20 182.68 127.09 183.49 127.54 M 181.26 128.84 C 181.63 129.13 182.36 129.71 182.72 130.00 C 184.67 129.09 180.83 126.29 181.26 128.84 M 185.34 129.76 C 185.14 130.05 184.75 130.65 184.56 130.94 C 187.62 132.59 190.97 133.59 194.09 135.10 C 193.31 135.56 192.51 136.00 191.72 136.43 C 187.95 134.18 183.67 133.16 179.84 131.05 C 181.03 133.17 183.22 134.33 184.93 135.96 C 184.81 135.40 184.56 134.28 184.44 133.71 C 186.22 134.59 188.87 134.66 189.35 137.05 C 191.67 137.61 194.10 137.70 196.46 137.30 C 197.18 136.25 198.19 135.62 199.50 135.41 C 197.18 134.20 194.65 133.66 192.11 133.28 C 189.91 131.30 185.80 131.00 186.01 127.26 C 185.48 127.99 185.18 128.85 185.34 129.76 M 195.97 131.96 C 195.80 133.21 197.67 134.38 198.78 133.87 C 199.02 132.60 197.07 131.37 195.97 131.96 M 186.18 145.35 C 185.79 146.73 186.29 147.19 187.69 146.73 C 188.07 145.33 187.56 144.87 186.18 145.35 M 176.32 154.67 C 176.36 155.16 176.44 156.15 176.48 156.64 L 174.54 156.94 C 174.98 157.38 175.43 157.82 175.89 158.26 C 177.02 156.78 178.40 155.53 179.89 154.42 C 178.70 154.52 177.51 154.61 176.32 154.67 M 172.35 159.11 L 172.30 159.85 C 174.21 161.52 173.95 157.04 172.35 159.11 M 177.15 175.28 C 177.77 175.90 177.77 175.90 177.15 175.28 Z" />
<path fill="#ffffff" opacity="1.00" d=" M 296.58 127.67 C 302.33 126.50 308.08 127.86 313.76 128.73 C 313.75 128.94 313.72 129.35 313.71 129.56 C 311.96 129.13 310.20 128.26 308.38 128.71 C 305.25 129.61 302.15 128.28 299.02 128.23 C 296.28 128.50 294.03 130.24 291.75 131.62 C 289.57 130.82 287.37 131.36 285.63 132.82 C 284.97 133.02 284.32 133.22 283.67 133.42 L 284.10 131.52 C 283.33 131.80 281.81 132.34 281.04 132.61 C 281.86 131.78 282.69 130.98 283.53 130.17 C 283.72 130.50 284.10 131.17 284.29 131.50 C 286.41 130.50 288.77 130.67 291.03 130.41 C 293.00 129.75 294.69 128.50 296.58 127.67 Z" />
<path fill="#ffffff" opacity="1.00" d=" M 168.89 128.92 C 170.23 129.52 171.36 130.47 172.49 131.39 C 173.83 132.02 175.30 132.51 176.39 133.56 C 173.24 134.35 170.26 136.83 166.84 135.35 C 167.53 136.22 168.22 137.09 168.93 137.95 C 167.94 138.66 166.57 139.07 166.40 140.44 C 163.36 141.64 161.52 144.72 158.00 144.97 C 159.20 145.42 160.53 147.56 161.74 145.77 C 164.02 143.09 168.10 144.80 169.72 147.35 C 167.44 147.63 166.22 149.28 166.31 151.57 C 165.90 151.54 165.09 151.48 164.68 151.46 C 165.55 154.19 162.62 154.38 160.81 155.00 C 161.66 153.68 163.16 153.10 164.39 152.23 C 162.45 152.25 160.52 152.42 158.60 152.55 C 159.08 152.22 160.05 151.57 160.53 151.24 C 159.65 148.25 163.50 148.32 165.34 148.52 C 165.45 148.19 165.66 147.52 165.77 147.18 C 163.67 145.93 161.41 146.37 159.39 147.50 L 159.93 146.39 C 159.25 146.56 157.90 146.91 157.22 147.08 C 155.40 149.08 153.14 150.60 150.70 151.74 C 149.78 152.26 148.85 152.75 147.91 153.22 C 149.23 151.80 150.64 150.47 151.98 149.07 C 151.43 148.78 150.34 148.22 149.80 147.93 C 150.28 147.81 151.25 147.55 151.73 147.42 C 151.23 145.58 151.99 144.82 154.01 145.14 C 153.54 144.64 152.59 143.63 152.12 143.12 C 152.67 143.27 153.75 143.58 154.29 143.73 C 154.45 142.31 154.62 140.89 154.78 139.47 C 155.45 139.53 156.78 139.65 157.45 139.71 C 156.61 138.60 155.75 137.51 154.88 136.43 C 155.25 136.54 155.99 136.77 156.36 136.88 C 157.88 139.66 162.08 140.58 164.89 139.86 C 163.10 137.61 159.10 137.80 156.36 136.88 C 156.60 136.51 157.07 135.77 157.30 135.40 C 158.89 135.95 160.32 136.88 161.85 137.57 C 161.74 135.88 161.20 134.31 160.35 132.86 C 161.83 133.81 163.33 134.73 164.89 135.58 C 165.49 135.02 166.09 134.45 166.70 133.88 C 164.87 134.19 163.52 133.62 162.63 132.18 C 163.47 132.41 165.15 132.87 165.99 133.10 L 164.83 130.89 L 166.35 131.44 C 166.61 131.10 167.13 130.42 167.38 130.08 C 169.18 131.64 171.14 133.03 173.47 133.71 C 172.28 131.78 170.42 130.51 168.89 128.92 Z" />
<path fill="#ffffff" opacity="1.00" d=" M 216.01 129.92 C 218.04 129.40 220.05 129.65 221.87 130.74 C 221.05 131.39 220.23 132.03 219.41 132.68 C 218.86 132.31 217.75 131.59 217.20 131.23 C 217.44 132.42 218.00 133.48 218.89 134.40 C 218.34 134.45 217.24 134.54 216.69 134.58 C 216.26 135.82 216.74 139.75 214.11 137.14 L 213.38 136.23 C 211.92 136.37 210.46 136.51 209.01 136.66 C 207.15 135.03 202.75 134.36 204.48 130.90 C 204.99 131.45 206.02 132.53 206.53 133.07 C 206.58 132.74 206.68 132.08 206.73 131.75 C 208.08 131.64 209.44 131.51 210.79 131.35 C 212.19 132.01 213.66 132.42 215.22 132.41 C 214.73 131.65 213.73 130.13 213.24 129.37 C 213.93 129.50 215.31 129.78 216.01 129.92 Z" />
<path fill="#ffffff" opacity="1.00" d=" M 313.83 128.38 C 316.61 128.98 320.19 128.33 322.50 130.07 C 320.12 131.11 317.16 129.70 314.61 129.60 L 313.83 128.38 Z" />
<path fill="#ffffff" opacity="1.00" d=" M 250.80 132.53 C 249.46 133.33 247.42 130.50 249.00 129.80 C 250.14 129.92 251.51 131.38 250.80 132.53 Z" />
<path fill="#ffffff" opacity="1.00" d=" M 227.33 131.17 C 227.71 131.37 228.48 131.77 228.86 131.97 C 230.30 132.59 231.75 133.24 233.30 133.57 L 233.85 134.08 C 235.21 135.23 235.25 137.17 235.49 138.80 C 234.35 138.19 234.25 136.88 233.85 135.80 C 233.50 136.10 232.79 136.69 232.43 136.98 C 230.93 136.30 230.31 134.64 229.31 133.44 C 229.07 134.10 228.60 135.43 228.36 136.09 C 228.50 134.79 228.68 133.49 228.90 132.20 L 227.31 132.50 C 227.31 132.17 227.32 131.50 227.33 131.17 Z" />
<path fill="#ffffff" opacity="1.00" d=" M 257.64 131.08 C 258.99 131.63 260.33 132.22 261.66 132.84 L 261.01 130.74 C 261.76 131.25 263.25 132.28 264.00 132.79 C 263.31 132.91 261.94 133.15 261.25 133.26 C 262.44 133.89 263.65 134.51 264.86 135.11 L 263.36 133.73 C 266.19 132.41 269.44 132.58 272.48 132.73 C 274.81 133.19 276.56 135.00 278.65 136.05 C 278.61 135.50 278.55 134.40 278.52 133.86 C 280.09 134.59 281.70 135.49 283.53 135.33 L 283.94 136.65 C 282.89 136.56 280.79 136.37 279.74 136.28 C 280.15 136.65 280.98 137.39 281.39 137.76 C 281.78 138.13 282.56 138.86 282.95 139.22 C 283.92 138.49 284.92 137.80 285.95 137.16 L 286.71 138.76 C 285.93 139.05 284.37 139.62 283.59 139.91 L 283.70 141.27 L 285.98 140.12 C 285.81 141.02 285.47 142.82 285.30 143.72 C 286.50 145.01 288.24 145.08 289.16 143.49 C 288.36 143.36 286.77 143.11 285.98 142.99 C 285.57 141.11 287.73 140.44 288.79 139.38 C 289.66 140.78 290.51 142.20 291.35 143.62 C 290.02 144.92 289.41 147.75 287.10 147.23 C 287.36 148.24 287.53 149.26 287.64 150.30 C 290.30 148.78 290.62 144.39 293.91 144.17 C 293.30 145.46 292.63 146.72 291.98 147.98 C 291.32 149.84 290.68 151.71 290.22 153.62 C 290.98 153.32 291.74 153.01 292.50 152.71 C 294.31 155.02 296.07 157.44 298.45 159.22 C 301.65 161.33 303.36 164.91 305.75 167.79 C 304.51 168.16 303.28 168.55 302.06 168.97 C 304.05 168.99 307.65 168.99 305.38 171.79 C 303.13 171.37 300.90 171.90 298.81 172.67 C 298.06 172.92 296.55 173.43 295.80 173.69 C 296.35 173.00 297.44 171.63 297.99 170.95 C 297.36 171.28 296.10 171.95 295.47 172.29 C 295.34 171.48 295.07 169.87 294.94 169.06 L 292.67 170.48 C 292.77 169.45 293.15 168.57 293.82 167.85 C 294.57 167.33 295.29 166.77 295.99 166.19 C 294.16 166.84 292.32 167.53 290.70 168.63 C 289.34 167.00 291.70 165.66 292.11 164.14 C 288.18 168.19 282.40 165.82 277.65 167.71 C 278.82 164.85 283.36 165.74 283.50 162.39 C 286.08 163.76 287.45 160.93 289.10 159.50 C 290.73 159.58 292.37 159.66 294.01 159.76 C 291.89 158.84 289.67 158.12 287.62 159.69 C 286.77 160.25 285.92 160.80 285.07 161.36 C 284.20 161.34 282.47 161.31 281.61 161.30 L 282.82 163.10 C 281.76 163.87 280.70 164.63 279.65 165.40 C 278.06 165.58 276.56 166.33 275.10 166.86 C 273.72 163.48 277.48 164.30 279.10 163.38 C 277.83 163.53 276.58 163.71 275.33 163.90 L 275.29 162.36 C 275.06 162.14 274.61 161.71 274.38 161.49 L 274.68 163.98 C 274.01 163.78 272.69 163.38 272.02 163.17 C 272.24 162.04 272.96 161.35 274.18 161.10 C 273.90 160.60 273.34 159.60 273.06 159.10 C 274.46 157.43 275.53 155.54 276.50 153.59 C 278.49 152.88 280.82 152.37 281.93 150.35 C 282.65 150.45 284.09 150.65 284.81 150.74 L 284.77 150.30 C 283.70 150.07 282.06 148.59 281.24 149.99 C 280.35 151.89 278.27 152.44 276.46 153.05 L 277.41 150.27 C 276.23 151.49 275.10 152.76 273.99 154.05 C 273.40 156.88 271.63 159.32 269.27 160.95 C 269.44 158.70 271.21 157.22 272.35 155.43 C 273.30 153.15 274.37 150.93 275.57 148.77 C 273.72 149.83 272.29 151.42 270.88 152.98 C 270.35 152.78 269.30 152.39 268.78 152.20 C 268.39 151.61 267.62 150.43 267.24 149.85 C 268.85 148.27 270.48 146.69 271.97 144.98 C 269.70 146.23 267.79 147.98 265.98 149.79 C 264.67 147.78 263.09 145.96 261.77 143.96 C 259.97 142.81 258.07 141.81 256.12 140.94 C 259.71 139.85 263.42 141.05 267.08 140.66 C 268.42 141.54 269.76 142.45 271.21 143.16 C 270.60 142.55 269.39 141.34 268.78 140.73 L 269.51 139.73 L 271.29 139.30 C 270.13 138.49 268.79 138.59 267.46 138.61 C 265.73 138.08 264.45 136.72 262.98 135.75 C 261.09 134.32 258.60 133.43 257.64 131.08 M 268.67 132.92 C 270.82 135.57 273.58 137.80 275.09 140.93 C 273.99 139.94 272.96 138.87 271.93 137.82 L 271.07 140.74 C 273.35 140.37 274.77 142.81 276.98 143.11 C 278.16 145.75 276.43 148.23 276.53 150.90 C 278.91 149.78 278.89 147.46 278.74 145.23 C 278.07 143.34 278.16 139.93 281.14 141.22 C 278.91 139.57 277.14 137.41 275.18 135.47 C 272.65 135.75 271.03 133.32 268.67 132.92 Z" />
<path fill="#ffffff" opacity="1.00" d=" M 238.96 133.74 C 240.74 134.26 242.55 134.72 244.37 135.08 L 243.83 136.51 C 241.97 135.81 242.24 137.65 242.47 138.82 C 241.48 138.34 240.48 137.87 239.49 137.42 C 239.55 139.29 240.29 141.02 240.96 142.74 C 241.21 143.27 241.69 144.34 241.94 144.87 C 240.34 143.68 238.79 142.44 237.33 141.08 C 237.62 140.68 238.18 139.88 238.46 139.48 C 237.86 138.21 237.40 136.89 237.07 135.53 C 237.63 135.54 238.75 135.57 239.31 135.58 L 238.96 133.74 Z" />
<path fill="#ffffff" opacity="1.00" d=" M 222.71 135.94 C 223.67 136.55 224.04 137.34 223.19 138.27 C 223.07 139.30 223.27 140.32 223.41 141.33 C 222.63 142.71 221.92 144.13 221.23 145.56 C 220.34 145.48 218.58 145.31 217.69 145.23 C 218.94 146.59 220.73 147.01 222.50 147.29 C 221.94 147.64 220.84 148.35 220.28 148.71 C 220.43 148.98 220.72 149.53 220.87 149.81 C 222.91 148.17 225.13 146.72 227.59 145.80 C 225.95 147.17 224.02 148.42 224.22 150.89 C 225.81 149.46 227.74 148.63 229.77 148.05 C 229.67 147.58 229.49 146.63 229.40 146.16 C 230.61 145.35 231.83 144.53 233.15 143.89 C 232.33 144.97 231.30 145.82 230.07 146.44 C 231.06 147.09 232.05 147.77 233.03 148.46 C 231.46 149.61 230.06 151.00 229.91 153.05 C 226.63 156.59 222.43 158.97 218.78 162.05 C 217.97 162.82 216.05 163.59 217.98 165.00 C 213.60 166.88 210.51 170.89 207.76 174.63 C 211.41 171.98 213.99 168.05 218.00 165.88 C 219.22 165.18 221.31 164.08 220.23 162.39 C 222.08 160.40 224.22 158.76 226.47 157.24 L 227.32 157.82 C 227.63 155.28 230.61 154.34 232.61 153.30 L 232.55 152.51 L 233.91 152.79 L 233.37 151.21 C 234.61 151.66 235.85 152.12 237.08 152.60 C 237.61 152.27 238.69 151.61 239.22 151.28 C 240.03 153.51 238.74 155.65 238.10 157.73 L 239.92 157.49 C 239.35 158.12 239.31 160.06 238.28 159.65 C 238.02 159.32 237.50 158.68 237.24 158.35 C 236.97 159.16 236.71 159.96 236.45 160.77 C 237.08 162.17 237.90 163.48 238.79 164.74 C 239.20 162.65 240.95 161.50 242.80 160.91 C 241.55 162.76 240.16 164.52 238.63 166.15 C 238.99 166.46 239.35 166.77 239.73 167.08 L 240.94 165.46 L 242.59 165.26 C 242.26 165.80 241.60 166.87 241.26 167.41 L 241.62 168.66 L 240.20 168.12 C 239.44 169.54 238.04 170.82 238.24 172.58 L 236.93 171.85 C 239.11 174.41 236.78 176.60 235.39 178.78 C 233.47 177.40 235.83 175.91 236.58 174.69 C 235.72 174.19 234.86 173.69 234.01 173.20 C 235.30 171.67 236.58 170.12 238.11 168.82 C 237.81 168.42 237.52 168.03 237.22 167.65 C 233.93 171.14 231.29 175.19 227.90 178.59 L 227.85 177.01 L 227.53 177.22 C 227.97 178.89 226.61 180.03 225.81 181.30 C 227.22 181.62 228.61 182.00 229.99 182.42 C 227.00 186.92 224.19 191.76 219.92 195.17 C 220.20 195.63 220.50 196.10 220.79 196.56 C 222.75 193.60 225.37 191.16 227.42 188.26 C 230.06 190.19 230.11 186.03 231.39 184.51 C 232.21 185.35 233.00 186.23 233.75 187.15 C 233.83 189.51 232.03 191.41 231.54 193.66 C 230.48 196.41 230.52 200.06 227.43 201.44 C 227.47 199.87 227.49 198.31 227.48 196.76 C 227.14 197.80 226.45 199.87 226.10 200.91 C 225.54 200.18 225.00 199.45 224.46 198.72 C 225.80 195.84 227.29 193.03 228.53 190.11 C 225.73 192.24 225.22 195.74 223.91 198.76 C 223.02 200.46 222.50 203.05 219.62 202.27 C 220.62 200.07 222.42 198.27 223.05 195.90 C 221.75 196.95 220.47 198.01 219.16 199.04 C 219.23 198.27 219.36 196.72 219.43 195.95 C 218.08 197.10 216.77 198.29 215.43 199.45 C 215.92 200.99 215.54 202.35 214.30 203.42 C 214.80 204.51 214.63 205.63 213.93 206.60 C 213.03 206.05 212.10 205.60 211.11 205.24 C 212.63 203.61 213.93 201.83 215.02 199.89 C 212.95 201.35 211.52 203.75 209.08 204.70 C 210.32 201.37 213.78 199.62 216.08 197.07 C 219.98 192.56 223.03 186.93 228.19 183.75 C 226.90 182.91 225.71 181.91 224.80 180.67 C 223.20 181.74 222.18 184.23 219.97 183.91 L 219.06 183.62 C 218.88 183.76 218.53 184.05 218.35 184.19 L 217.47 184.21 C 218.04 186.81 214.69 188.01 215.04 190.56 L 214.27 189.71 C 213.53 191.21 212.76 192.70 212.17 194.26 C 209.30 197.41 203.87 198.65 203.39 203.51 C 202.93 203.73 202.02 204.18 201.57 204.41 C 202.21 204.40 203.50 204.39 204.15 204.39 C 203.61 205.22 202.53 206.88 201.99 207.72 C 200.98 206.18 199.92 204.68 198.90 203.15 C 198.38 203.61 197.34 204.54 196.82 205.00 C 196.68 203.45 196.58 201.90 196.50 200.35 C 195.96 201.02 194.87 202.36 194.33 203.03 C 192.02 196.71 197.81 191.87 199.16 186.11 C 195.88 189.22 195.17 194.04 191.91 197.15 C 192.19 195.41 192.42 193.50 193.92 192.33 L 194.00 191.49 C 193.23 192.04 191.70 193.12 190.94 193.66 C 193.17 189.51 196.15 185.84 198.90 182.03 C 197.97 182.31 197.03 182.58 196.09 182.84 C 195.59 180.97 197.36 179.99 198.61 179.08 C 199.37 180.66 200.18 182.23 201.14 183.71 C 201.81 182.53 201.68 181.15 201.34 179.90 C 200.32 179.32 199.33 178.71 198.43 177.97 C 196.35 179.96 194.09 181.81 191.48 183.09 C 192.56 181.13 194.43 179.81 196.33 178.73 C 195.17 178.08 194.01 177.44 192.90 176.71 C 192.38 177.95 191.70 179.11 190.87 180.18 C 190.21 179.00 189.42 177.90 188.30 177.13 C 188.85 176.71 189.95 175.88 190.50 175.47 C 189.52 176.07 185.21 174.04 187.83 176.52 C 184.31 176.67 182.09 180.16 179.46 182.18 C 179.42 181.84 179.35 181.15 179.32 180.80 C 181.98 177.59 185.59 175.19 187.83 171.65 C 190.03 171.16 191.61 169.44 193.46 168.27 C 194.62 167.28 195.56 165.78 197.19 165.53 C 197.41 165.82 197.86 166.41 198.08 166.70 C 196.57 168.40 194.81 169.87 193.11 171.39 C 193.21 171.75 193.42 172.48 193.52 172.85 L 192.35 171.88 C 192.95 174.00 192.40 175.37 190.69 175.97 C 191.06 176.51 191.43 177.06 191.80 177.60 C 193.71 174.84 196.24 172.62 198.62 170.29 C 197.94 170.35 196.57 170.46 195.88 170.51 C 197.53 168.54 199.85 167.43 201.96 166.08 C 201.54 165.63 200.69 164.73 200.27 164.28 C 203.21 163.56 205.30 161.18 208.01 159.95 C 210.45 158.88 212.39 157.01 214.16 155.07 C 210.08 158.04 205.88 161.15 201.03 162.64 C 199.57 163.12 199.09 161.46 199.47 160.44 C 201.94 159.98 203.98 158.47 206.06 157.16 C 204.37 157.58 202.67 158.04 200.96 158.39 C 202.41 156.08 205.52 155.71 206.92 153.41 C 205.14 153.92 203.45 154.64 201.84 155.56 C 201.95 155.05 202.16 154.03 202.27 153.53 C 202.76 153.21 203.73 152.57 204.22 152.25 C 204.63 152.47 205.47 152.92 205.88 153.14 C 207.29 152.39 208.72 151.68 210.12 150.90 C 212.17 150.58 214.41 150.39 216.11 151.83 L 214.19 152.99 C 215.39 152.62 216.58 152.20 217.75 151.72 C 216.62 151.00 215.19 150.57 214.42 149.40 C 211.91 150.70 208.95 150.64 206.22 151.04 C 207.49 148.92 210.33 149.21 212.40 148.45 C 210.64 148.62 209.13 148.20 207.86 147.19 C 211.05 147.12 214.25 147.05 217.41 146.55 C 214.98 145.27 212.12 145.89 209.50 145.58 L 209.43 143.74 C 212.86 143.13 216.34 143.23 219.77 143.81 L 219.77 143.46 C 216.79 143.48 214.10 142.10 211.26 141.42 C 211.27 141.13 211.28 140.55 211.28 140.26 C 215.02 141.07 218.85 140.62 222.64 140.89 L 222.83 139.91 C 221.96 139.64 220.24 139.10 219.37 138.82 C 220.04 138.60 221.37 138.14 222.03 137.92 C 222.20 137.42 222.54 136.44 222.71 135.94 M 229.97 149.84 C 230.65 149.26 230.65 149.26 229.97 149.84 M 229.30 150.65 L 229.96 150.56 L 229.97 149.84 C 229.80 150.05 229.47 150.45 229.30 150.65 M 231.41 160.83 C 229.72 162.37 227.89 163.89 226.93 166.02 C 230.29 164.55 232.23 161.13 235.28 159.15 C 234.00 159.72 232.72 160.32 231.41 160.83 M 194.42 175.42 C 195.73 176.12 197.16 175.65 198.28 174.80 C 198.03 175.51 197.54 176.92 197.29 177.62 C 198.55 176.48 199.85 175.39 201.19 174.34 C 200.55 173.96 199.93 173.58 199.30 173.19 C 205.12 169.98 209.84 165.29 214.91 161.09 C 206.95 164.19 201.94 171.64 194.42 175.42 M 222.33 167.56 C 221.33 168.66 220.15 168.88 218.78 168.22 C 216.19 170.95 213.02 173.14 210.93 176.34 C 211.82 175.71 213.60 174.47 214.49 173.84 L 215.58 173.87 C 215.04 174.69 213.98 176.34 213.44 177.16 C 216.20 174.71 219.68 172.91 221.77 169.79 C 222.38 168.84 223.67 168.06 223.40 166.77 C 223.26 164.59 225.57 163.54 226.79 162.06 C 225.21 163.76 221.16 164.60 222.33 167.56 M 237.33 164.78 C 237.85 165.56 237.85 165.56 237.33 164.78 M 227.22 174.31 C 230.08 172.51 232.29 169.82 233.79 166.82 C 231.47 169.19 229.08 171.55 227.22 174.31 M 201.72 174.12 C 202.24 176.09 205.35 173.79 204.85 172.38 C 203.66 172.19 202.26 173.05 201.72 174.12 M 223.22 177.29 C 222.28 178.46 221.37 179.65 220.48 180.87 C 220.14 179.36 220.44 177.81 220.67 176.31 C 217.87 178.69 215.74 181.84 212.73 183.95 C 209.62 185.02 207.49 188.32 204.02 188.34 C 201.87 188.09 201.05 190.51 199.72 191.67 C 200.47 191.56 201.98 191.34 202.73 191.22 C 202.45 192.82 202.30 194.44 202.11 196.05 C 202.39 196.18 202.96 196.44 203.24 196.57 L 203.27 198.17 C 205.90 198.43 207.66 194.90 210.38 194.23 C 209.82 191.94 211.16 190.11 212.28 188.27 C 210.59 189.64 209.08 191.44 206.80 191.79 C 205.86 193.23 204.96 194.70 203.97 196.12 C 204.30 194.48 205.06 193.01 206.04 191.67 C 206.59 189.23 208.32 186.25 210.90 185.80 C 211.66 186.92 212.52 188.00 213.72 188.68 C 213.55 187.68 213.08 186.79 212.68 185.89 C 215.07 184.20 217.24 182.23 219.27 180.14 C 219.72 181.03 220.13 181.95 220.50 182.88 C 222.30 179.69 225.23 177.36 227.22 174.31 C 225.83 175.23 224.55 176.29 223.22 177.29 M 204.44 175.41 C 203.74 176.73 203.08 178.09 203.25 179.64 C 202.83 180.62 204.56 182.35 204.68 179.88 C 203.67 177.69 206.24 176.59 207.26 175.06 C 206.55 175.15 205.14 175.32 204.44 175.41 M 228.20 175.29 C 228.80 175.89 228.80 175.89 228.20 175.29 Z" />
<path fill="#ffffff" opacity="1.00" d=" M 173.02 137.11 C 173.74 136.94 175.17 136.61 175.88 136.44 C 177.90 138.14 181.04 137.56 182.71 140.02 C 179.17 141.35 175.73 139.17 173.02 137.11 Z" />
<path fill="#ffffff" opacity="1.00" d=" M 282.76 137.32 C 282.99 137.71 282.99 137.71 282.76 137.32 Z" />
<path fill="#ffffff" opacity="1.00" d=" M 165.82 142.74 C 166.22 142.75 167.03 142.79 167.43 142.80 L 167.46 143.57 C 167.05 143.56 166.25 143.52 165.84 143.50 L 165.82 142.74 Z" />
<path fill="#ffffff" opacity="1.00" d=" M 251.17 142.65 C 252.56 143.60 252.63 145.43 253.70 146.62 C 256.09 146.17 253.96 143.90 254.10 142.60 C 257.26 143.89 254.96 148.13 255.41 150.75 C 254.87 150.13 253.77 148.90 253.22 148.28 C 253.20 149.31 253.18 150.35 253.16 151.39 C 252.54 151.44 251.29 151.53 250.67 151.58 L 250.70 153.03 C 248.33 151.50 244.14 152.45 243.17 149.44 C 243.81 149.44 245.08 149.42 245.72 149.41 C 245.69 148.89 245.62 147.84 245.59 147.31 C 247.17 148.63 248.69 148.63 250.14 147.31 C 248.74 146.53 248.06 145.30 248.12 143.64 C 249.52 145.15 250.33 147.21 252.44 147.95 C 252.02 146.18 251.52 144.44 251.17 142.65 Z" />
<path fill="#ffffff" opacity="1.00" d=" M 256.85 142.73 C 258.39 144.23 259.77 145.96 260.07 148.16 C 262.00 148.73 263.21 150.20 263.93 152.02 C 261.92 152.16 259.86 150.46 258.20 152.36 C 258.78 153.12 259.93 154.64 260.51 155.40 C 259.61 154.76 257.92 154.34 257.70 153.06 C 257.21 150.85 259.40 149.46 259.84 147.47 C 258.71 148.24 257.61 149.04 256.53 149.86 C 258.41 147.67 257.20 145.10 256.85 142.73 Z" />
<path fill="#ffffff" opacity="1.00" d=" M 245.42 146.74 C 244.65 145.46 244.88 144.49 246.10 143.82 C 246.43 144.37 247.09 145.48 247.42 146.03 C 247.09 146.28 246.44 146.79 246.12 147.04 L 245.42 146.74 Z" />
<path fill="#ffffff" opacity="1.00" d=" M 242.28 146.39 C 243.39 145.79 244.99 147.60 244.16 148.61 C 242.95 149.23 241.57 147.46 242.28 146.39 Z" />
<path fill="#ffffff" opacity="1.00" d=" M 293.10 148.05 C 293.73 148.69 293.73 148.69 293.10 148.05 Z" />
<path fill="#ffffff" opacity="1.00" d=" M 203.73 151.11 C 203.98 150.29 203.98 150.29 203.73 151.11 Z" />
<path fill="#ffffff" opacity="1.00" d=" M 253.26 152.10 C 254.96 152.64 256.43 153.57 256.65 155.51 C 258.03 156.63 259.82 157.41 260.52 159.18 C 258.91 159.29 257.63 158.42 256.38 157.57 C 255.01 155.94 253.85 154.16 253.26 152.10 Z" />
<path fill="#ffffff" opacity="1.00" d=" M 199.98 155.37 C 201.12 156.32 200.64 157.75 200.36 158.99 C 198.92 159.52 198.42 160.45 198.86 161.78 L 195.10 161.60 C 195.83 160.60 196.73 159.63 196.73 158.31 C 197.89 157.41 198.97 156.43 199.98 155.37 Z" />
<path fill="#ffffff" opacity="1.00" d=" M 184.87 162.54 C 186.09 160.56 187.82 158.93 189.94 157.97 C 188.52 159.77 186.86 161.38 184.87 162.54 Z" />
<path fill="#ffffff" opacity="1.00" d=" M 178.64 162.53 C 178.73 161.29 182.10 159.05 182.62 161.34 C 182.84 162.85 181.01 162.98 180.00 162.72 C 179.66 162.67 178.98 162.58 178.64 162.53 Z" />
<path fill="#ffffff" opacity="1.00" d=" M 176.19 161.26 C 176.81 161.77 176.81 161.77 176.19 161.26 Z" />
<path fill="#ffffff" opacity="1.00" d=" M 243.11 167.10 C 244.57 164.98 246.12 162.91 247.90 161.06 C 246.74 163.31 246.14 166.76 243.11 167.10 Z" />
<path fill="#ffffff" opacity="1.00" d=" M 254.35 164.67 C 253.63 163.24 252.41 161.58 254.69 160.99 C 254.72 161.59 254.78 162.80 254.81 163.40 C 255.44 163.07 256.71 162.41 257.35 162.08 C 257.37 162.74 257.42 164.05 257.44 164.70 C 258.38 163.85 259.32 162.99 260.25 162.12 C 260.65 162.66 261.45 163.74 261.85 164.29 C 262.87 163.39 263.92 162.54 265.00 161.72 C 264.85 162.86 264.62 163.99 264.31 165.10 C 260.98 165.64 257.51 166.24 254.35 164.67 Z" />
<path fill="#ffffff" opacity="1.00" d=" M 194.61 163.64 C 195.54 163.12 197.29 160.70 197.84 162.69 C 197.76 163.25 197.59 164.35 197.50 164.91 L 196.52 163.95 C 195.35 164.82 194.23 165.78 192.88 166.36 C 192.61 165.25 193.18 164.35 194.61 163.64 Z" />
<path fill="#ffffff" opacity="1.00" d=" M 269.33 162.51 C 270.71 163.31 272.99 165.40 272.09 167.26 C 269.93 167.55 269.83 164.01 269.33 162.51 Z" />
<path fill="#ffffff" opacity="1.00" d=" M 170.59 163.22 C 170.66 163.57 170.80 164.26 170.86 164.61 C 169.43 165.79 168.01 167.07 166.21 167.66 C 167.42 165.95 169.03 164.59 170.59 163.22 Z" />
<path fill="#ffffff" opacity="1.00" d=" M 169.69 168.15 C 170.29 165.10 173.84 164.15 175.97 162.32 C 175.58 163.11 174.78 164.69 174.38 165.48 C 175.79 164.48 177.16 163.43 178.64 162.53 C 178.22 163.13 177.37 164.34 176.95 164.94 C 178.31 164.19 179.81 164.08 181.16 164.88 C 181.67 164.52 182.70 163.80 183.21 163.44 C 181.61 166.19 178.88 167.93 176.42 169.82 C 175.59 168.77 175.24 165.84 173.54 167.83 L 173.11 167.90 L 174.04 165.28 C 172.95 166.00 170.77 167.43 169.69 168.15 M 177.49 166.22 C 176.76 167.78 177.19 168.21 178.78 167.49 C 179.17 166.25 178.74 165.82 177.49 166.22 Z" />
<path fill="#ffffff" opacity="1.00" d=" M 248.69 164.21 C 248.95 164.92 249.22 165.64 249.50 166.35 C 250.21 166.87 251.65 167.91 252.37 168.43 L 249.67 168.80 C 249.43 168.27 248.97 167.22 248.73 166.70 C 248.95 169.19 247.25 171.02 246.11 173.04 C 246.74 172.87 248.00 172.54 248.63 172.37 C 248.44 172.91 248.06 174.00 247.87 174.54 L 249.48 174.39 C 249.43 174.95 249.33 176.06 249.28 176.62 L 251.33 176.39 C 251.39 175.75 251.50 174.48 251.55 173.84 L 251.77 175.88 C 252.20 175.78 253.07 175.58 253.50 175.49 C 253.11 175.94 252.32 176.84 251.93 177.29 C 252.69 177.64 254.20 178.34 254.96 178.69 L 257.04 180.75 C 256.89 179.36 256.59 176.57 256.44 175.18 C 255.85 174.52 254.69 173.21 254.11 172.55 L 255.62 172.29 C 255.57 171.68 255.46 170.46 255.40 169.85 C 257.37 170.36 258.21 172.28 259.00 173.91 C 259.38 173.74 260.12 173.42 260.49 173.25 C 261.09 175.24 262.20 177.33 264.48 177.68 C 265.05 178.63 265.61 179.60 266.18 180.56 C 267.91 180.83 270.07 181.60 269.67 183.87 C 270.37 183.66 271.77 183.24 272.47 183.03 C 272.55 183.67 272.73 184.95 272.81 185.58 C 273.85 186.42 274.87 187.29 275.89 188.14 C 275.89 188.80 275.89 190.11 275.89 190.77 L 274.37 190.04 C 274.90 191.53 274.20 192.90 273.42 194.08 C 273.26 193.21 272.95 191.45 272.79 190.58 C 272.29 190.79 271.30 191.20 270.80 191.41 C 270.73 190.94 270.58 190.01 270.50 189.54 C 268.57 189.60 267.77 187.43 265.92 187.30 C 265.50 186.06 265.06 184.83 264.61 183.61 C 263.35 183.21 262.11 182.76 260.90 182.25 C 260.91 183.10 260.93 184.79 260.95 185.64 C 259.92 184.95 258.82 184.39 257.56 184.35 C 257.18 183.96 256.44 183.18 256.06 182.79 C 255.91 183.36 255.59 184.51 255.43 185.08 C 256.13 180.16 252.77 186.48 251.73 184.33 C 251.05 182.64 250.28 183.37 249.55 184.52 C 248.54 184.47 247.54 184.42 246.53 184.38 C 246.81 183.84 247.35 182.74 247.62 182.19 L 245.36 182.70 L 245.44 181.02 C 244.98 181.23 244.06 181.66 243.60 181.87 C 243.10 181.14 242.11 179.69 241.61 178.96 C 242.52 175.46 244.16 172.21 246.28 169.29 L 245.40 169.79 C 245.04 169.83 244.32 169.90 243.96 169.94 C 243.65 167.18 247.36 166.26 248.69 164.21 Z" />
<path fill="#ffffff" opacity="1.00" d=" M 266.60 163.57 C 270.05 165.32 270.78 169.03 270.20 172.54 C 269.90 172.40 269.31 172.12 269.01 171.98 C 268.22 169.91 268.43 167.24 266.54 165.78 C 266.57 168.97 267.35 172.19 266.60 175.35 C 266.15 174.40 265.78 173.42 265.50 172.41 L 264.28 172.88 C 263.98 169.53 264.78 166.38 266.60 163.57 Z" />
<path fill="#ffffff" opacity="1.00" d=" M 241.94 168.99 C 242.72 168.18 242.72 168.18 241.94 168.99 Z" />
<path fill="#ffffff" opacity="1.00" d=" M 279.79 169.73 C 277.51 167.90 282.84 168.13 283.69 167.24 C 284.43 167.77 285.19 168.30 285.94 168.82 C 287.74 167.29 289.86 168.66 291.68 169.32 C 291.09 171.29 290.44 173.24 290.25 175.31 C 289.59 174.73 288.28 173.55 287.62 172.97 C 287.62 172.52 287.63 172.07 287.65 171.63 C 286.74 171.97 284.92 172.65 284.01 172.98 L 285.24 170.87 C 283.99 171.17 282.73 171.47 281.48 171.77 C 281.54 171.39 281.64 170.63 281.70 170.25 L 279.79 169.73 Z" />
<path fill="#ffffff" opacity="1.00" d=" M 241.20 169.07 L 241.94 168.99 L 241.84 169.72 L 241.09 169.82 L 241.20 169.07 Z" />
<path fill="#ffffff" opacity="1.00" d=" M 218.78 169.64 C 219.54 169.90 219.92 170.42 219.91 171.21 C 219.15 171.45 217.64 171.91 216.88 172.14 C 217.35 171.52 218.30 170.26 218.78 169.64 Z" />
<path fill="#ffffff" opacity="1.00" d=" M 240.35 170.01 L 241.09 169.82 C 240.90 170.06 240.53 170.53 240.35 170.77 L 240.35 170.01 Z" />
<path fill="#ffffff" opacity="1.00" d=" M 243.30 169.82 L 243.96 169.94 C 244.36 173.40 242.05 176.98 239.53 179.27 C 239.55 178.79 239.58 177.85 239.60 177.38 C 238.94 177.64 237.63 178.16 236.97 178.42 C 238.58 175.23 240.65 172.24 243.30 169.82 Z" />
<path fill="#ffffff" opacity="1.00" d=" M 308.28 170.25 C 311.07 172.44 313.41 175.15 314.93 178.39 L 312.77 178.71 C 313.26 178.88 314.23 179.23 314.72 179.41 L 314.61 180.19 C 317.38 180.66 317.73 184.03 318.66 186.18 C 319.59 192.35 319.75 198.64 320.84 204.79 C 320.49 204.83 319.79 204.90 319.44 204.94 C 319.25 203.90 318.70 203.09 317.78 202.53 C 318.20 200.57 318.19 198.56 318.22 196.57 C 316.93 196.61 315.64 196.65 314.36 196.72 C 313.85 194.79 313.36 192.86 312.77 190.95 C 311.56 191.20 310.31 191.46 309.77 192.71 C 308.92 192.31 308.08 191.92 307.23 191.54 L 307.19 190.71 C 304.00 190.18 301.04 188.50 298.72 186.28 C 298.39 184.95 297.87 183.67 297.18 182.49 C 296.48 182.29 295.78 182.35 295.10 182.68 C 295.65 183.53 296.76 185.24 297.32 186.09 C 294.27 185.87 291.24 185.50 288.57 183.87 C 290.39 186.23 292.45 188.40 294.21 190.80 C 291.88 191.12 291.10 189.05 290.04 187.62 C 288.94 185.90 287.28 184.69 285.69 183.47 C 285.60 181.21 283.50 180.15 282.01 178.83 C 281.79 178.31 281.35 177.25 281.13 176.73 C 283.01 177.63 288.46 183.36 284.33 176.82 C 285.81 178.38 287.32 179.90 288.98 181.27 C 287.70 179.63 287.35 177.89 287.95 176.05 C 286.76 176.50 285.66 176.33 284.65 175.52 C 286.02 175.51 287.39 175.52 288.77 175.54 C 288.56 176.12 288.16 177.28 287.95 177.86 C 291.49 175.63 293.33 184.00 296.29 180.18 C 295.91 178.57 294.64 177.40 293.91 175.97 C 295.43 177.20 296.70 178.72 297.80 180.34 C 298.61 180.89 299.43 181.43 300.25 181.98 C 299.75 179.52 298.34 177.43 296.92 175.42 C 297.43 175.52 298.44 175.72 298.94 175.82 C 298.91 175.03 298.85 173.45 298.81 172.67 C 302.04 172.43 305.76 172.67 308.28 170.25 M 299.96 177.04 L 299.52 177.64 C 302.13 181.70 303.84 186.32 306.74 190.16 C 305.70 186.17 303.91 182.45 301.88 178.89 C 303.82 180.15 304.88 182.47 307.31 182.96 C 308.19 184.87 308.63 186.96 310.21 188.53 C 309.80 186.89 308.99 183.60 308.58 181.96 C 309.85 182.64 310.66 183.82 311.47 184.97 C 313.00 185.93 314.61 186.81 315.92 188.07 C 316.68 190.05 317.05 192.15 317.66 194.18 C 317.47 190.58 317.93 186.76 315.83 183.59 C 313.73 183.45 312.39 181.58 310.52 180.85 C 310.51 180.49 310.47 179.77 310.45 179.41 C 309.08 179.20 307.70 178.99 306.50 178.27 C 304.69 177.82 303.00 177.05 301.51 175.92 C 301.12 176.20 300.34 176.76 299.96 177.04 M 288.84 178.18 C 288.58 179.52 289.18 180.04 290.64 179.76 C 290.87 178.43 290.27 177.90 288.84 178.18 M 316.31 196.29 C 316.62 195.18 316.35 194.23 315.52 193.44 C 313.77 193.53 314.74 197.12 316.31 196.29 Z" />
<path fill="#ffffff" opacity="1.00" d=" M 238.24 172.58 C 238.77 172.13 239.82 171.22 240.35 170.77 C 240.27 172.36 239.55 173.23 238.19 173.38 L 238.24 172.58 Z" />
<path fill="#ffffff" opacity="1.00" d=" M 216.13 172.15 L 216.88 172.14 L 216.71 172.87 L 215.95 172.86 L 216.13 172.15 Z" />
<path fill="#ffffff" opacity="1.00" d=" M 273.99 171.76 C 274.52 173.33 274.97 175.13 277.03 175.03 C 276.45 176.87 276.42 179.17 274.66 180.37 C 274.70 178.57 274.74 176.77 274.78 174.98 C 274.30 175.84 273.34 177.56 272.85 178.41 C 273.04 176.17 273.51 173.96 273.99 171.76 Z" />
<path fill="#ffffff" opacity="1.00" d=" M 291.64 173.79 C 291.51 172.32 293.25 171.28 294.49 172.12 C 295.21 173.45 292.50 175.08 291.64 173.79 Z" />
<path fill="#ffffff" opacity="1.00" d=" M 215.28 173.20 L 215.95 172.86 L 216.11 173.47 L 215.58 173.87 L 215.28 173.20 Z" />
<path fill="#ffffff" opacity="1.00" d=" M 198.28 174.80 C 198.66 174.33 198.66 174.33 198.28 174.80 Z" />
<path fill="#ffffff" opacity="1.00" d=" M 295.23 174.19 C 295.87 174.85 295.87 174.85 295.23 174.19 Z" />
<path fill="#ffffff" opacity="1.00" d=" M 230.48 177.33 C 231.57 176.55 232.52 175.22 233.95 175.17 C 234.65 177.80 231.50 179.06 230.22 180.88 C 230.31 179.69 230.40 178.51 230.48 177.33 Z" />
<path fill="#ffffff" opacity="1.00" d=" M 178.98 177.72 C 179.38 178.06 179.78 178.41 180.18 178.77 C 177.74 180.16 176.01 182.40 173.91 184.19 C 174.33 183.45 175.16 181.97 175.58 181.23 L 175.25 180.56 L 175.49 180.43 L 175.72 180.26 L 176.52 180.51 C 177.13 179.81 178.36 178.42 178.98 177.72 Z" />
<path fill="#ffffff" opacity="1.00" d=" M 186.25 180.20 C 186.93 180.70 186.93 180.70 186.25 180.20 Z" />
<path fill="#ffffff" opacity="1.00" d=" M 281.21 179.70 C 282.60 179.57 283.26 180.19 283.20 181.56 C 281.80 181.70 281.14 181.08 281.21 179.70 Z" />
<path fill="#ffffff" opacity="1.00" d=" M 188.13 182.09 C 189.40 182.72 189.37 183.41 188.06 184.14 C 186.81 183.47 186.83 182.78 188.13 182.09 Z" />
<path fill="#ffffff" opacity="1.00" d=" M 190.85 189.10 C 191.69 186.31 193.36 183.92 195.37 181.86 L 196.09 182.84 L 196.73 183.68 C 194.82 185.54 193.07 187.60 190.85 189.10 Z" />
<path fill="#ffffff" opacity="1.00" d=" M 220.97 186.01 C 222.28 184.35 224.07 183.14 225.71 181.84 C 225.98 183.80 224.46 185.17 223.47 186.62 C 221.00 189.75 218.27 192.67 215.80 195.80 C 213.41 197.93 210.78 203.14 207.17 200.23 C 208.36 197.66 211.35 196.40 213.76 195.13 C 213.67 194.47 213.48 193.17 213.39 192.52 C 213.95 191.87 214.50 191.21 215.04 190.56 C 216.05 189.72 216.72 188.33 218.01 187.89 C 218.21 188.34 218.60 189.24 218.79 189.69 C 219.68 188.57 220.33 187.28 220.97 186.01 Z" />
<path fill="#ffffff" opacity="1.00" d=" M 282.86 185.00 C 283.28 185.28 284.13 185.85 284.55 186.13 C 284.24 187.84 284.20 189.58 284.32 191.31 C 283.70 190.91 282.46 190.10 281.84 189.70 C 281.89 189.08 281.98 187.84 282.03 187.21 L 283.96 188.07 C 283.69 187.30 283.13 185.76 282.86 185.00 Z" />
<path fill="#ffffff" opacity="1.00" d=" M 243.26 186.16 C 244.78 186.84 246.39 188.15 248.13 187.06 L 247.81 188.73 C 248.43 188.44 249.65 187.85 250.26 187.56 C 250.26 188.20 250.26 189.48 250.26 190.13 C 251.26 189.12 252.25 188.11 253.25 187.10 C 253.77 187.92 254.30 188.74 254.86 189.55 C 255.32 188.88 256.24 187.53 256.70 186.85 C 256.30 189.20 254.56 191.97 252.08 189.96 C 251.63 192.79 248.85 191.30 247.35 190.48 C 246.68 189.80 246.00 189.13 245.32 188.46 L 244.78 188.55 C 244.40 187.95 243.64 186.76 243.26 186.16 Z" />
<path fill="#ffffff" opacity="1.00" d=" M 218.01 187.89 C 218.46 187.46 218.46 187.46 218.01 187.89 Z" />
<path fill="#ffffff" opacity="1.00" d=" M 261.86 189.63 C 261.99 188.89 262.24 187.41 262.36 186.67 C 262.59 189.08 262.93 191.67 261.63 193.86 C 261.21 192.55 260.78 191.26 260.32 189.97 C 259.89 190.87 259.02 192.68 258.59 193.58 C 257.48 193.39 255.25 193.00 254.14 192.81 C 255.51 191.47 256.73 189.97 258.17 188.70 C 259.43 188.86 260.63 189.30 261.86 189.63 Z" />
<path fill="#ffffff" opacity="1.00" d=" M 287.16 188.15 C 288.73 188.97 290.22 189.97 291.69 190.98 C 291.46 192.37 291.24 193.76 291.00 195.16 C 290.46 195.25 289.39 195.42 288.85 195.51 C 289.65 195.55 291.23 195.61 292.03 195.65 C 292.12 196.77 292.24 197.90 292.32 199.03 C 290.41 201.44 291.18 205.09 294.18 206.12 C 293.85 207.38 294.08 208.46 294.88 209.35 L 294.28 207.30 C 294.91 206.98 296.16 206.33 296.78 206.01 C 297.11 206.69 297.76 208.05 298.09 208.72 C 298.88 207.34 299.73 205.98 300.63 204.65 C 299.03 200.97 294.97 198.83 294.57 194.58 C 295.26 194.07 295.95 193.55 296.64 193.04 L 294.77 191.83 C 296.01 192.23 297.22 192.69 298.43 193.21 C 297.86 193.52 296.73 194.14 296.16 194.45 C 297.57 196.07 300.60 197.09 299.41 199.73 C 300.06 198.96 300.66 198.16 301.28 197.37 C 302.80 197.46 304.82 196.87 305.54 198.71 C 304.46 200.21 304.12 205.45 307.24 203.45 C 307.29 202.59 307.40 200.85 307.46 199.98 C 308.09 201.03 308.54 202.31 309.80 202.81 C 309.48 204.49 309.03 206.15 308.57 207.80 C 307.93 207.69 306.66 207.47 306.03 207.37 C 306.17 206.84 306.47 205.78 306.62 205.26 C 305.74 207.72 304.64 210.09 303.21 212.29 C 301.45 212.69 299.70 213.14 297.91 213.36 C 296.32 213.40 295.72 211.59 294.74 210.68 C 293.93 211.67 293.14 212.67 292.35 213.68 C 291.09 213.05 289.85 212.40 288.76 211.52 C 289.91 211.91 291.07 212.32 292.22 212.75 C 293.14 211.48 294.10 208.89 291.24 209.40 C 288.22 208.71 288.06 205.12 288.13 202.61 C 288.52 203.21 289.28 204.40 289.66 205.00 C 291.01 202.59 290.30 199.61 292.00 197.33 C 288.29 199.07 285.12 194.55 285.25 191.20 C 286.63 191.20 287.82 191.67 288.81 192.62 C 288.33 191.10 287.23 189.80 287.16 188.15 M 300.51 209.65 C 299.76 210.18 299.00 210.71 298.24 211.23 L 297.87 209.46 C 297.36 209.72 296.34 210.23 295.83 210.49 C 296.35 210.98 297.41 211.97 297.93 212.47 C 299.69 211.69 301.56 211.22 303.44 210.81 C 303.54 210.21 303.74 209.02 303.84 208.42 L 302.22 208.60 C 302.07 207.69 301.78 205.88 301.64 204.97 C 301.05 206.47 300.77 208.06 300.51 209.65 Z" />
<path fill="#ffffff" opacity="1.00" d=" M 278.04 189.93 C 279.41 191.19 280.77 192.60 280.76 194.62 C 283.18 194.32 284.19 196.59 285.46 198.16 C 286.85 198.91 288.37 200.16 286.50 201.52 L 286.30 199.41 C 284.96 199.62 283.63 199.82 282.29 200.02 C 282.57 198.97 282.75 195.71 281.07 196.32 C 280.95 196.96 280.71 198.24 280.59 198.89 L 280.06 198.93 C 280.23 198.05 280.59 196.29 280.76 195.41 C 280.21 195.44 279.11 195.49 278.56 195.51 C 278.34 193.65 278.11 191.80 278.04 189.93 Z" />
<path fill="#ffffff" opacity="1.00" d=" M 231.06 198.81 C 232.20 195.58 233.60 192.45 235.07 189.35 C 235.34 191.25 236.99 194.97 233.76 195.08 L 234.00 196.68 L 232.99 196.45 C 232.73 197.67 233.16 198.13 234.30 197.85 L 234.00 196.68 L 236.02 194.70 C 235.42 197.05 234.48 199.32 233.09 201.32 L 233.55 198.69 C 232.92 198.72 231.68 198.78 231.06 198.81 Z" />
<path fill="#ffffff" opacity="1.00" d=" M 266.53 194.00 C 264.31 194.25 264.32 192.01 264.93 190.55 C 266.98 191.65 268.65 193.39 269.01 195.77 C 268.17 195.19 267.35 194.60 266.53 194.00 Z" />
<path fill="#ffffff" opacity="1.00" d=" M 238.12 201.78 C 240.97 199.41 241.55 195.03 245.11 193.46 C 245.27 194.57 245.42 195.68 245.57 196.80 C 244.73 198.16 243.89 199.52 243.05 200.88 C 242.23 201.97 241.41 203.07 240.74 204.27 C 243.40 202.08 244.70 198.49 248.01 197.05 C 248.95 198.63 246.20 200.46 245.94 202.26 C 247.81 201.43 248.63 199.32 250.51 198.51 C 249.65 201.90 248.05 205.14 248.40 208.73 C 249.43 206.00 250.13 203.14 251.42 200.51 C 252.57 200.48 253.72 200.57 254.87 200.59 C 254.08 202.72 253.31 204.85 252.79 207.06 C 252.43 206.26 252.08 205.46 251.75 204.65 C 252.19 203.69 253.06 201.78 253.50 200.83 C 249.95 202.70 251.98 206.95 252.18 209.99 L 253.57 209.25 C 252.34 211.99 253.25 215.64 251.04 217.85 C 249.71 215.74 247.32 216.31 245.92 217.94 C 245.80 217.21 245.57 215.75 245.45 215.02 C 244.36 216.25 244.36 219.18 242.24 219.08 C 241.84 217.08 242.12 215.07 242.53 213.11 C 241.91 213.15 240.68 213.23 240.07 213.27 C 240.40 213.07 241.05 212.66 241.38 212.45 C 241.96 210.74 242.55 209.03 243.16 207.33 C 242.37 207.76 240.80 208.61 240.01 209.03 C 240.14 208.28 240.39 206.76 240.52 206.01 L 238.57 206.17 C 239.07 204.41 239.83 202.75 240.69 201.14 C 240.05 201.30 238.76 201.62 238.12 201.78 Z" />
<path fill="#ffffff" opacity="1.00" d=" M 206.30 200.24 C 206.92 200.90 206.92 200.90 206.30 200.24 Z" />
<path fill="#ffffff" opacity="1.00" d=" M 260.66 202.70 C 261.65 201.86 262.66 201.04 263.68 200.24 C 263.22 202.40 262.50 204.51 261.68 206.56 C 261.50 207.75 261.30 208.94 261.05 210.12 C 260.11 211.93 258.77 213.47 257.06 214.61 C 258.21 210.65 260.16 206.80 259.94 202.56 C 258.34 206.96 256.28 211.32 256.33 216.11 C 252.44 215.95 255.11 212.02 254.81 209.90 C 254.50 206.57 254.72 201.87 257.79 200.11 C 257.08 202.77 256.19 205.38 255.46 208.03 C 257.85 206.41 257.95 203.43 259.10 201.03 C 259.49 201.45 260.27 202.28 260.66 202.70 Z" />
<path fill="#ffffff" opacity="1.00" d=" M 224.16 200.22 C 224.51 200.86 224.85 201.50 225.19 202.14 C 223.91 203.48 222.87 205.12 221.20 206.03 C 222.16 204.08 223.37 202.26 224.16 200.22 Z" />
<path fill="#ffffff" opacity="1.00" d=" M 294.83 205.78 C 294.60 204.26 294.59 202.09 295.91 201.08 C 296.82 202.12 296.69 206.00 294.83 205.78 Z" />
<path fill="#ffffff" opacity="1.00" d=" M 204.94 201.94 C 205.91 201.72 207.84 201.26 208.81 201.04 L 208.37 203.22 L 206.75 203.39 C 207.30 203.43 208.39 203.52 208.93 203.56 C 208.71 204.90 208.49 206.23 208.27 207.57 C 208.91 207.53 210.21 207.43 210.85 207.39 C 210.16 207.73 208.79 208.42 208.10 208.77 C 209.64 208.87 211.18 209.02 212.71 209.22 C 212.62 209.84 212.43 211.08 212.33 211.69 C 213.04 211.63 214.46 211.51 215.17 211.45 C 213.34 212.33 211.44 213.08 209.55 213.84 L 209.65 212.19 C 209.01 212.23 207.75 212.33 207.11 212.37 C 207.98 211.24 208.87 210.11 209.77 209.01 C 207.66 209.39 205.57 208.97 203.49 208.78 C 203.93 206.49 204.37 204.20 204.94 201.94 Z" />
<path fill="#ffffff" opacity="1.00" d=" M 263.87 202.25 C 267.21 202.44 262.16 205.26 263.87 202.25 Z" />
<path fill="#ffffff" opacity="1.00" d=" M 217.37 204.08 C 218.58 205.08 216.49 208.09 214.97 207.73 C 214.48 206.27 216.12 204.63 217.37 204.08 Z" />
<path fill="#ffffff" opacity="1.00" d=" M 281.61 203.48 C 282.80 204.26 283.92 205.16 285.01 206.09 C 285.16 205.49 285.48 204.31 285.64 203.71 C 286.04 205.11 286.22 206.56 286.35 208.01 C 286.89 209.29 287.44 210.58 287.92 211.90 C 284.77 210.17 283.22 206.54 281.61 203.48 Z" />
<path fill="#ffffff" opacity="1.00" d=" M 317.07 203.46 C 317.54 204.05 318.02 204.65 318.49 205.26 C 316.93 209.02 312.76 209.83 309.55 211.65 C 307.93 211.84 306.31 211.45 304.71 211.36 C 309.23 209.68 316.69 209.83 317.07 203.46 Z" />
<path fill="#ffffff" opacity="1.00" d=" M 268.67 212.97 C 269.07 209.53 270.77 206.25 273.49 204.08 C 273.13 207.57 271.10 210.56 268.67 212.97 Z" />
<path fill="#ffffff" opacity="1.00" d=" M 261.05 210.12 C 262.12 209.28 262.03 206.72 263.71 206.92 C 264.24 208.77 262.53 210.89 261.14 211.98 C 261.12 211.51 261.07 210.58 261.05 210.12 Z" />
<path fill="#ffffff" opacity="1.00" d=" M 267.34 207.22 C 267.66 207.78 267.66 207.78 267.34 207.22 Z" />
<path fill="#ffffff" opacity="1.00" d=" M 212.19 215.63 C 211.56 214.29 213.80 212.81 214.85 213.80 C 215.43 215.18 213.27 216.47 212.19 215.63 Z" />
<path fill="#ffffff" opacity="1.00" d=" M 212.97 218.45 C 211.96 217.06 214.54 215.75 215.60 216.53 C 215.97 217.81 214.12 219.23 212.97 218.45 Z" />
<path fill="#ffffff" opacity="1.00" d=" M 243.01 220.11 C 243.64 219.52 244.89 218.35 245.52 217.76 C 244.55 220.39 244.92 224.17 242.44 225.95 C 241.97 225.28 241.05 223.95 240.59 223.28 C 240.77 222.24 240.96 221.20 241.15 220.17 L 242.26 220.20 C 242.32 220.93 242.44 222.40 242.50 223.14 C 242.63 222.38 242.89 220.87 243.01 220.11 Z" />
<path fill="#ffffff" opacity="1.00" d=" M 246.18 220.06 C 246.64 219.70 247.55 219.00 248.01 218.64 C 247.81 222.08 246.48 225.30 245.92 228.67 C 241.81 226.81 245.30 222.88 246.18 220.06 Z" />
<path fill="#ffffff" opacity="1.00" d=" M 249.52 220.13 L 249.74 220.18 C 249.83 220.89 250.02 222.32 250.11 223.04 C 248.61 227.55 248.35 232.29 248.62 237.01 C 245.69 236.47 247.69 232.69 247.84 231.04 C 247.12 231.76 245.67 233.21 244.95 233.93 C 246.90 229.51 248.28 224.80 249.52 220.13 Z" />
<path fill="#ffffff" opacity="1.00" d=" M 252.77 222.28 C 253.72 222.37 254.68 222.46 255.63 222.54 C 255.31 224.42 255.13 226.49 253.38 227.61 C 253.42 228.28 253.51 229.64 253.56 230.31 C 252.76 230.82 251.97 231.34 251.18 231.86 C 251.81 230.43 252.34 228.93 252.26 227.34 C 252.65 227.18 253.42 226.88 253.80 226.73 L 252.19 227.01 C 252.33 225.83 252.63 223.46 252.77 222.28 Z" />
</g>
</svg>
