<?xml version="1.0" encoding="UTF-8" ?>
<!DOCTYPE svg PUBLIC "-//W3C//DTD SVG 1.1//EN" "http://www.w3.org/Graphics/SVG/1.1/DTD/svg11.dtd">
<svg width="512pt" height="256pt" viewBox="0 0 512 256" version="1.1" xmlns="http://www.w3.org/2000/svg">
<g id="#ffffffff">
<path fill="#ffffff" opacity="1.00" d=" M 294.21 20.67 C 294.33 18.86 294.83 17.20 296.93 17.13 C 296.63 18.23 296.09 19.21 295.33 20.07 C 295.98 20.86 297.28 22.45 297.93 23.24 C 297.74 22.41 297.35 20.75 297.16 19.92 C 297.75 21.66 299.17 22.10 300.82 21.48 C 300.85 21.77 300.91 22.33 300.95 22.61 L 298.02 21.74 C 298.55 22.70 299.60 24.60 300.13 25.55 C 299.28 26.61 298.88 27.83 298.92 29.21 C 298.60 29.30 297.94 29.50 297.62 29.59 C 297.14 28.24 296.68 26.90 296.25 25.54 C 297.60 23.76 294.85 22.22 294.21 20.67 Z" />
<path fill="#ffffff" opacity="1.00" d=" M 288.98 21.11 C 289.84 20.86 290.71 20.61 291.59 20.37 C 291.94 20.79 292.64 21.63 292.98 22.05 C 292.65 22.45 291.99 23.25 291.65 23.65 C 290.64 22.93 289.72 22.10 288.98 21.11 Z" />
<path fill="#ffffff" opacity="1.00" d=" M 207.12 23.15 L 207.81 23.23 C 207.70 25.72 207.73 28.23 208.16 30.70 C 208.84 28.97 209.05 27.11 209.40 25.30 C 211.44 28.01 210.42 31.99 211.11 35.19 C 210.37 35.30 208.87 35.52 208.12 35.63 L 208.56 37.08 L 209.58 37.75 C 209.55 37.98 209.47 38.44 209.43 38.66 C 208.34 38.12 207.27 37.57 206.20 37.01 L 206.73 38.62 C 205.89 39.05 205.08 39.50 204.29 39.98 L 206.14 40.45 L 205.67 41.79 C 202.92 38.18 199.33 35.17 197.82 30.73 L 201.00 32.94 C 200.55 32.05 199.64 30.27 199.19 29.37 C 200.38 29.64 201.55 29.61 202.72 29.27 C 203.02 31.00 203.37 32.72 203.78 34.42 C 203.36 34.54 202.51 34.76 202.09 34.88 C 202.55 35.96 203.00 37.04 203.45 38.13 C 204.00 38.20 205.10 38.33 205.65 38.40 C 205.10 37.58 204.00 35.95 203.45 35.14 L 205.73 35.53 C 204.90 32.75 204.13 29.94 204.21 27.00 C 207.26 28.51 203.19 33.27 207.19 33.27 C 208.20 29.99 206.91 26.52 207.12 23.15 M 207.49 33.91 C 205.83 37.04 210.58 34.00 207.49 33.91 Z" />
<path fill="#ffffff" opacity="1.00" d=" M 189.46 29.29 C 186.55 31.51 183.63 26.49 186.95 24.96 C 187.71 26.92 189.19 27.07 190.85 26.15 C 190.68 26.81 190.34 28.13 190.17 28.79 C 190.77 28.65 191.95 28.37 192.55 28.23 C 192.01 31.00 193.87 33.47 193.76 36.24 C 191.75 35.10 193.58 30.66 191.01 31.26 C 190.87 31.75 190.58 32.75 190.43 33.25 C 188.96 32.50 189.87 30.52 189.46 29.29 Z" />
<path fill="#ffffff" opacity="1.00" d=" M 223.85 31.22 C 222.05 30.95 223.24 27.30 224.81 27.59 C 225.26 28.77 224.70 30.33 223.85 31.22 Z" />
<path fill="#ffffff" opacity="1.00" d=" M 235.14 35.06 C 237.00 32.16 240.02 30.35 242.68 28.27 C 242.18 29.77 241.49 31.20 240.80 32.62 C 240.41 34.49 239.32 36.11 238.69 37.89 C 240.22 36.76 241.16 35.09 242.19 33.53 C 243.73 33.83 244.84 32.53 246.13 31.98 C 245.20 34.17 243.58 36.11 241.29 36.93 C 239.17 40.78 236.39 44.16 235.13 48.42 C 234.59 47.95 234.04 47.48 233.51 47.01 L 235.34 46.26 C 235.23 45.67 234.99 44.47 234.88 43.88 C 232.81 45.80 232.54 49.05 229.89 50.46 C 229.33 48.66 228.50 46.95 228.06 45.11 C 227.31 45.54 225.80 46.40 225.04 46.83 C 225.91 45.35 227.06 44.07 228.19 42.79 C 228.83 43.94 229.51 45.06 230.33 46.10 C 229.03 43.88 231.25 43.07 232.60 43.58 C 233.67 43.05 234.66 42.35 235.68 41.72 C 236.70 40.43 237.80 39.21 239.05 38.14 C 237.92 38.44 236.77 38.54 235.61 38.44 C 235.06 40.11 233.42 40.88 232.08 41.80 C 232.12 39.36 234.48 37.93 235.33 35.79 L 234.33 35.63 C 233.74 36.21 232.55 37.36 231.96 37.93 C 232.78 36.04 233.75 34.20 234.76 32.40 C 234.85 33.06 235.04 34.40 235.14 35.06 Z" />
<path fill="#ffffff" opacity="1.00" d=" M 217.87 33.82 C 217.88 31.28 220.16 30.03 221.91 28.73 C 221.90 30.32 221.33 31.80 220.84 33.29 C 221.24 32.74 222.04 31.65 222.44 31.10 C 222.85 31.91 223.67 33.52 224.08 34.32 C 221.75 33.89 221.34 36.65 220.15 37.99 C 219.65 37.69 218.64 37.09 218.14 36.79 C 218.18 36.20 218.26 35.02 218.30 34.43 C 218.77 34.21 219.70 33.76 220.17 33.54 L 217.87 33.82 Z" />
<path fill="#ffffff" opacity="1.00" d=" M 227.06 28.79 L 228.36 27.94 C 228.55 30.41 228.69 32.89 228.45 35.37 C 227.95 35.42 226.93 35.52 226.42 35.57 C 225.39 37.06 225.06 39.24 223.24 40.02 C 223.37 35.89 226.87 32.90 227.06 28.79 Z" />
<path fill="#ffffff" opacity="1.00" d=" M 230.67 28.70 C 229.14 36.00 230.41 29.30 232.58 29.30 C 230.82 32.83 231.96 38.98 227.07 39.93 C 227.35 37.67 228.95 35.96 229.90 33.97 C 229.89 32.17 227.44 29.17 230.67 28.70 Z" />
<path fill="#ffffff" opacity="1.00" d=" M 225.16 30.25 C 225.76 30.85 225.76 30.85 225.16 30.25 Z" />
<path fill="#ffffff" opacity="1.00" d=" M 276.27 32.37 C 276.81 31.59 277.35 30.81 277.90 30.03 C 278.96 31.27 280.07 32.49 280.95 33.87 C 279.31 33.65 277.77 33.02 276.27 32.37 Z" />
<path fill="#ffffff" opacity="1.00" d=" M 295.47 30.09 C 297.01 31.56 296.84 33.52 295.75 35.21 C 293.48 35.39 293.48 32.28 292.25 31.11 C 292.91 31.29 294.21 31.64 294.87 31.81 L 295.47 30.09 Z" />
<path fill="#ffffff" opacity="1.00" d=" M 224.21 31.86 C 224.82 32.50 224.82 32.50 224.21 31.86 Z" />
<path fill="#ffffff" opacity="1.00" d=" M 246.47 38.99 C 249.12 37.57 249.09 33.94 251.49 32.24 C 250.10 36.43 248.12 40.50 245.73 44.21 C 243.28 47.30 245.05 42.02 245.95 41.19 C 245.47 41.66 244.53 42.60 244.05 43.07 C 243.93 38.30 241.58 43.85 240.70 45.05 C 240.35 44.92 239.67 44.65 239.32 44.51 C 242.16 40.74 245.51 37.40 248.54 33.85 C 247.85 35.56 247.16 37.28 246.47 38.99 Z" />
<path fill="#ffffff" opacity="1.00" d=" M 196.11 32.97 C 198.50 35.67 201.01 38.45 202.43 41.80 C 201.97 41.51 201.03 40.92 200.56 40.63 C 198.22 38.64 197.26 35.70 196.11 32.97 Z" />
<path fill="#ffffff" opacity="1.00" d=" M 287.11 33.39 C 287.64 33.43 288.69 33.50 289.22 33.54 C 290.39 35.12 292.38 36.57 291.99 38.79 C 289.98 37.37 288.40 35.47 287.11 33.39 Z" />
<path fill="#ffffff" opacity="1.00" d=" M 282.78 34.92 C 283.25 35.36 284.20 36.24 284.67 36.67 C 284.89 36.10 285.32 34.96 285.54 34.39 C 286.46 35.75 287.79 37.01 287.85 38.76 C 288.59 39.57 289.31 40.41 290.01 41.26 C 289.62 42.12 289.21 42.97 288.77 43.80 C 288.37 43.54 287.57 43.02 287.17 42.75 C 286.95 39.48 283.14 38.10 282.78 34.92 Z" />
<path fill="#ffffff" opacity="1.00" d=" M 181.94 36.78 C 183.66 37.59 185.45 38.78 185.78 40.84 C 186.37 40.14 186.95 39.43 187.53 38.72 C 188.59 40.26 190.18 41.26 191.71 42.27 C 190.78 43.13 190.40 44.93 189.01 45.06 C 186.41 43.62 184.12 41.68 181.49 40.30 C 180.58 39.86 179.99 39.15 179.73 38.16 C 181.54 38.90 183.33 39.69 185.12 40.52 C 184.32 39.58 182.74 37.72 181.94 36.78 M 188.26 41.24 C 187.86 42.63 188.35 43.13 189.75 42.74 C 190.17 41.34 189.67 40.84 188.26 41.24 Z" />
<path fill="#ffffff" opacity="1.00" d=" M 266.20 38.49 C 267.18 38.02 268.16 37.53 269.12 37.01 C 269.58 37.29 270.51 37.83 270.98 38.11 C 271.25 38.55 271.79 39.43 272.06 39.87 L 270.55 40.35 L 269.88 38.72 C 269.31 39.41 268.79 40.14 268.27 40.87 C 267.58 40.07 266.87 39.29 266.20 38.49 Z" />
<path fill="#ffffff" opacity="1.00" d=" M 196.79 38.27 C 198.03 39.03 198.85 40.94 200.56 40.63 L 200.03 41.51 C 201.55 42.67 202.97 43.94 204.10 45.50 C 202.72 44.86 201.29 44.52 199.80 44.48 C 198.76 42.43 197.71 40.38 196.79 38.27 Z" />
<path fill="#ffffff" opacity="1.00" d=" M 208.25 39.73 C 209.68 40.04 210.33 41.32 211.04 42.45 L 209.43 42.07 C 209.24 42.53 208.87 43.45 208.68 43.91 C 207.99 42.96 207.30 42.02 206.63 41.07 L 209.11 41.95 L 208.25 39.73 Z" />
<path fill="#ffffff" opacity="1.00" d=" M 214.24 39.96 C 215.16 42.24 216.58 44.24 218.14 46.12 C 216.36 46.52 215.47 44.70 214.23 43.85 C 214.22 42.55 214.23 41.26 214.24 39.96 Z" />
<path fill="#ffffff" opacity="1.00" d=" M 251.60 40.53 C 252.05 40.17 252.94 39.43 253.38 39.07 C 253.44 39.80 253.56 41.26 253.62 41.99 C 251.34 42.76 252.18 45.59 251.46 47.37 C 249.98 48.79 246.97 51.98 245.89 48.59 C 246.82 47.70 247.75 46.82 248.68 45.93 C 248.34 45.49 247.65 44.62 247.30 44.19 L 248.09 42.48 C 248.43 42.44 249.12 42.37 249.46 42.33 L 248.86 40.75 L 250.66 41.71 L 250.02 40.07 L 251.60 40.53 Z" />
<path fill="#ffffff" opacity="1.00" d=" M 168.75 43.69 C 172.91 45.54 178.50 46.17 180.94 50.44 C 178.28 49.85 175.97 48.43 173.55 47.29 C 173.26 47.71 172.68 48.57 172.39 49.00 C 172.49 48.51 172.67 47.52 172.77 47.03 C 171.27 46.11 169.68 45.24 168.75 43.69 Z" />
<path fill="#ffffff" opacity="1.00" d=" M 210.23 43.91 C 211.30 44.23 211.86 44.99 211.89 46.21 C 213.39 46.41 214.36 47.55 215.34 48.58 C 215.10 51.16 216.85 53.37 216.37 56.00 C 215.00 55.23 214.09 54.10 213.66 52.61 C 213.30 52.60 212.59 52.58 212.23 52.57 C 212.32 51.00 212.41 49.44 212.49 47.87 C 211.33 46.82 210.82 45.31 210.23 43.91 Z" />
<path fill="#ffffff" opacity="1.00" d=" M 261.22 43.97 C 262.59 43.55 264.81 45.36 264.33 46.84 C 262.91 47.47 261.02 45.34 261.22 43.97 Z" />
<path fill="#ffffff" opacity="1.00" d=" M 206.96 45.25 C 208.21 44.72 210.09 46.48 209.50 47.73 C 208.25 48.16 206.26 46.57 206.96 45.25 Z" />
<path fill="#ffffff" opacity="1.00" d=" M 201.13 45.76 C 203.45 47.30 206.58 48.91 207.09 51.86 C 204.34 51.07 202.09 49.30 199.90 47.55 C 200.21 47.10 200.82 46.20 201.13 45.76 Z" />
<path fill="#ffffff" opacity="1.00" d=" M 257.77 45.86 C 260.47 45.95 262.61 47.42 264.07 49.63 L 262.59 50.34 C 261.96 49.17 260.84 49.42 259.94 50.07 C 259.07 48.75 257.92 47.52 257.77 45.86 Z" />
<path fill="#ffffff" opacity="1.00" d=" M 193.93 47.31 C 196.13 46.81 196.37 49.42 196.51 50.93 L 198.67 50.33 L 198.47 50.65 L 198.80 50.83 C 198.76 50.70 198.70 50.45 198.67 50.33 C 198.52 49.75 198.20 48.61 198.05 48.03 C 200.04 50.21 202.63 51.89 203.94 54.63 C 202.41 53.86 201.04 52.81 199.78 51.68 C 200.21 52.63 201.09 54.53 201.53 55.48 C 199.50 54.58 198.35 52.64 197.27 50.83 C 195.52 51.89 193.49 51.90 191.62 51.08 C 192.41 50.76 193.99 50.11 194.79 49.78 C 194.54 48.94 194.25 48.12 193.93 47.31 Z" />
<path fill="#ffffff" opacity="1.00" d=" M 235.85 48.35 C 236.35 47.49 238.36 46.43 238.85 47.79 C 238.26 49.01 237.31 49.83 235.99 50.24 C 235.95 49.77 235.89 48.82 235.85 48.35 Z" />
<path fill="#ffffff" opacity="1.00" d=" M 279.96 46.94 C 281.93 48.57 283.57 50.67 284.34 53.14 C 283.35 52.63 282.37 52.10 281.40 51.57 C 281.67 49.83 280.67 48.41 279.96 46.94 Z" />
<path fill="#ffffff" opacity="1.00" d=" M 187.03 48.02 C 189.31 48.31 190.85 50.32 191.95 52.16 C 190.08 51.08 188.48 49.61 187.03 48.02 Z" />
<path fill="#ffffff" opacity="1.00" d=" M 253.63 47.01 C 257.13 47.36 255.08 50.05 254.41 52.01 C 254.13 51.85 253.58 51.54 253.30 51.38 C 253.21 53.03 253.21 54.68 253.22 56.33 C 254.55 55.04 256.01 53.88 257.42 52.66 C 258.66 53.14 259.36 54.03 259.52 55.33 C 260.04 55.05 261.07 54.50 261.59 54.22 L 261.63 55.86 C 262.73 55.21 263.86 54.59 265.00 54.00 C 264.64 56.43 261.85 56.25 260.07 56.91 L 260.35 58.09 C 262.42 57.54 264.54 56.98 266.71 57.28 C 265.96 58.22 265.21 59.15 264.46 60.09 C 265.74 60.56 269.74 58.46 269.02 60.95 C 265.54 62.49 260.64 59.28 257.89 62.50 C 261.13 63.08 266.71 60.01 268.00 64.58 C 263.72 62.87 268.30 66.17 268.77 67.40 L 266.84 67.41 C 267.90 67.71 270.88 70.17 268.30 70.41 C 266.81 69.36 264.80 68.64 264.17 66.77 C 262.82 65.39 261.39 64.09 259.83 62.96 C 259.67 65.25 264.33 65.69 261.86 67.94 L 263.84 67.65 L 263.04 69.17 C 261.63 69.52 260.55 67.85 260.25 66.66 C 259.34 65.97 258.43 65.27 257.56 64.54 C 254.35 65.76 253.55 61.43 251.74 59.83 C 252.93 60.22 255.32 61.01 256.52 61.40 L 256.77 59.28 C 254.87 60.17 253.65 59.50 253.13 57.26 C 252.39 58.24 251.73 59.26 251.06 60.28 C 249.08 58.65 251.75 57.32 252.75 56.15 C 251.97 55.03 251.12 53.97 250.21 52.96 C 251.21 50.89 253.44 49.43 253.63 47.01 Z" />
<path fill="#ffffff" opacity="1.00" d=" M 240.08 51.03 C 240.06 49.59 240.59 49.03 241.67 49.34 L 242.11 49.85 L 242.53 50.33 C 242.62 50.92 242.81 52.11 242.91 52.71 C 242.65 53.05 242.12 53.73 241.86 54.07 C 243.04 53.90 245.40 53.55 246.58 53.38 C 244.12 56.09 240.22 55.91 237.45 58.12 C 236.90 57.64 235.80 56.67 235.25 56.18 C 236.74 54.36 238.34 52.63 240.08 51.03 Z" />
<path fill="#ffffff" opacity="1.00" d=" M 247.31 51.70 C 248.43 50.65 249.52 48.79 251.27 48.99 C 251.73 50.43 249.65 51.18 248.86 52.08 C 248.39 52.95 246.22 53.08 247.31 51.70 Z" />
<path fill="#ffffff" opacity="1.00" d=" M 274.88 53.05 C 274.65 51.52 275.25 50.05 275.59 48.58 C 275.85 51.06 277.79 49.67 278.85 49.10 C 279.12 49.98 279.39 50.87 279.67 51.75 C 280.95 52.99 283.72 53.59 283.59 55.72 C 282.38 55.77 281.24 55.31 280.10 55.01 C 278.89 53.92 277.27 49.87 275.48 51.98 L 274.88 53.05 Z" />
<path fill="#ffffff" opacity="1.00" d=" M 231.88 52.41 C 230.52 50.03 235.02 48.34 235.17 51.07 C 234.23 52.08 233.13 52.53 231.88 52.41 Z" />
<path fill="#ffffff" opacity="1.00" d=" M 219.53 51.19 C 219.77 51.17 220.25 51.13 220.48 51.11 C 219.75 52.52 219.20 54.94 221.63 54.62 C 221.53 55.65 221.44 56.69 221.35 57.72 C 220.28 57.54 219.22 57.37 218.16 57.20 C 218.68 55.21 219.14 53.20 219.53 51.19 Z" />
<path fill="#ffffff" opacity="1.00" d=" M 190.60 52.63 C 193.84 51.79 196.68 53.80 198.71 56.11 C 197.51 56.18 196.36 56.46 195.25 56.93 C 193.47 55.77 191.84 54.37 190.60 52.63 Z" />
<path fill="#ffffff" opacity="1.00" d=" M 273.05 52.97 C 274.15 54.02 275.00 55.33 276.33 56.13 C 276.11 55.09 275.69 53.02 275.48 51.98 C 276.95 54.42 278.98 56.41 281.16 58.20 C 280.27 58.72 279.39 59.24 278.52 59.79 C 280.06 60.14 280.91 61.15 281.06 62.81 C 279.75 62.20 278.52 61.40 277.76 60.14 C 276.19 57.76 273.90 55.77 273.05 52.97 M 277.24 57.26 C 277.73 57.74 277.73 57.74 277.24 57.26 C 276.38 56.54 276.38 56.54 277.24 57.26 Z" />
<path fill="#ffffff" opacity="1.00" d=" M 224.51 54.19 C 226.28 54.97 225.10 57.35 225.49 58.75 C 229.01 56.80 229.65 61.38 231.83 62.99 C 232.17 65.12 232.67 67.22 233.30 69.29 C 235.44 68.11 234.25 65.64 234.37 63.72 C 233.89 62.80 233.43 61.87 232.99 60.93 C 233.43 61.58 234.33 62.86 234.77 63.51 C 235.54 63.10 236.26 62.61 236.93 62.03 C 237.64 63.08 238.11 64.55 239.63 64.50 C 239.46 66.15 239.08 67.80 238.13 69.20 C 237.82 67.69 237.21 64.65 236.90 63.14 C 235.29 66.14 235.41 69.84 235.29 73.17 C 235.91 72.32 237.15 70.64 237.77 69.80 C 237.55 71.24 237.23 72.67 236.82 74.07 C 237.21 74.84 238.00 76.38 238.39 77.15 C 238.75 76.64 239.46 75.63 239.82 75.13 C 239.66 76.47 239.48 77.81 239.32 79.16 C 239.81 78.38 240.79 76.82 241.28 76.04 C 241.92 78.87 242.17 81.99 244.01 84.37 C 243.83 82.09 242.76 80.03 242.30 77.81 L 245.01 77.16 C 243.60 80.24 246.19 83.35 246.52 86.44 L 244.90 86.26 L 244.87 84.07 C 244.42 84.56 243.51 85.54 243.06 86.03 C 242.53 85.06 242.07 84.06 241.68 83.02 C 241.29 83.43 240.50 84.24 240.10 84.65 C 240.00 83.91 239.78 82.44 239.68 81.70 C 239.28 83.12 238.93 84.56 238.51 85.98 C 238.06 85.03 237.62 84.08 237.19 83.13 C 237.02 83.85 236.66 85.28 236.49 85.99 C 237.90 87.74 239.51 89.32 240.99 91.02 C 241.74 92.82 241.66 95.38 243.74 96.28 C 243.70 95.03 243.66 93.78 243.61 92.53 C 242.62 90.17 241.27 87.99 239.85 85.87 C 246.11 88.97 247.35 96.73 252.45 101.04 C 252.71 100.89 253.23 100.58 253.49 100.42 C 253.87 101.08 254.64 102.40 255.03 103.06 C 255.20 102.46 255.53 101.26 255.70 100.66 C 257.64 101.58 258.22 103.95 259.35 105.64 C 260.07 107.01 260.95 108.36 261.03 109.96 C 259.96 109.29 258.93 108.52 258.53 107.26 C 257.09 106.81 255.81 105.39 254.21 105.90 C 251.73 102.11 248.67 98.79 245.93 95.21 C 246.09 96.23 246.39 98.28 246.54 99.31 C 245.77 98.60 245.26 97.72 245.01 96.69 C 243.53 96.60 242.10 96.30 240.74 95.73 C 241.21 97.03 241.70 98.32 242.17 99.62 C 243.44 100.79 244.54 102.13 245.40 103.63 C 245.63 104.25 246.10 105.51 246.34 106.14 L 247.18 105.24 C 246.60 107.47 248.32 109.48 248.48 111.68 C 246.92 111.11 246.88 109.19 246.11 107.96 C 244.91 105.20 243.02 102.79 241.98 99.95 C 241.52 99.67 240.60 99.10 240.14 98.81 C 237.82 94.70 239.15 88.97 234.96 85.95 C 235.94 84.05 235.80 81.99 235.21 80.00 C 233.00 79.15 234.43 75.87 233.71 74.03 C 233.13 73.93 231.97 73.72 231.40 73.61 C 231.78 78.47 235.64 84.25 231.29 88.43 C 228.29 90.55 230.74 95.71 227.12 96.94 C 227.50 95.95 228.27 93.98 228.65 92.99 C 228.06 93.71 226.89 95.15 226.31 95.87 L 225.27 95.01 C 225.52 94.45 226.02 93.33 226.27 92.77 C 226.66 92.32 226.66 92.32 226.27 92.77 C 225.26 93.48 224.24 94.17 223.21 94.83 C 223.37 93.63 223.82 92.50 224.72 91.66 C 226.03 90.75 226.20 89.40 225.32 88.14 C 226.16 87.63 227.00 87.13 227.85 86.63 C 226.37 88.43 228.11 89.46 229.02 90.57 L 228.95 88.46 C 229.36 88.45 230.20 88.44 230.61 88.44 C 231.13 87.24 232.17 84.85 232.69 83.66 C 231.77 84.23 229.93 85.37 229.01 85.94 C 230.02 83.04 231.37 80.19 231.31 77.05 C 230.91 78.10 230.10 80.22 229.70 81.27 L 228.18 81.90 C 228.38 81.19 228.78 79.78 228.98 79.07 C 228.40 79.26 227.25 79.65 226.68 79.84 C 227.53 76.94 227.96 73.94 228.32 70.94 C 226.85 69.70 227.51 67.57 227.24 65.91 C 229.11 68.25 229.63 71.27 231.16 73.79 C 232.44 72.22 232.58 70.15 231.17 68.59 C 230.98 66.44 230.73 64.30 230.32 62.18 L 228.64 62.91 C 228.15 62.59 227.16 61.93 226.66 61.60 C 226.41 62.20 225.91 63.41 225.66 64.01 C 225.67 63.10 225.69 61.27 225.70 60.36 C 223.90 62.15 223.43 59.78 223.89 58.84 C 224.93 57.46 224.59 55.79 224.51 54.19 Z" />
<path fill="#ffffff" opacity="1.00" d=" M 232.25 54.10 C 234.00 53.10 234.01 55.59 232.55 55.88 C 230.65 57.16 230.52 54.34 232.25 54.10 Z" />
<path fill="#ffffff" opacity="1.00" d=" M 181.81 54.96 C 184.89 55.92 187.51 57.99 190.08 59.87 L 190.23 61.22 C 186.86 60.00 184.61 57.05 181.81 54.96 Z" />
<path fill="#ffffff" opacity="1.00" d=" M 163.84 56.17 C 165.89 56.15 167.89 56.64 169.83 57.26 C 169.76 57.55 169.62 58.15 169.54 58.45 C 167.58 57.86 165.42 57.61 163.84 56.17 Z" />
<path fill="#ffffff" opacity="1.00" d=" M 175.94 57.22 C 179.27 57.29 182.11 59.28 184.88 60.92 C 186.25 62.02 188.64 62.78 188.10 64.97 C 186.16 64.02 184.26 62.99 182.18 62.36 L 181.79 61.51 L 183.41 62.22 C 183.53 61.91 183.78 61.29 183.90 60.98 C 181.26 59.71 178.49 58.68 175.94 57.22 Z" />
<path fill="#ffffff" opacity="1.00" d=" M 242.30 57.30 C 243.70 56.83 245.46 56.86 246.78 57.56 C 246.44 59.20 242.71 58.63 242.30 57.30 Z" />
<path fill="#ffffff" opacity="1.00" d=" M 239.90 58.47 L 240.30 58.46 C 240.49 59.69 240.10 60.67 239.13 61.38 C 238.85 61.18 238.28 60.77 238.00 60.57 C 238.47 60.05 239.43 59.00 239.90 58.47 Z" />
<path fill="#ffffff" opacity="1.00" d=" M 240.43 61.98 C 240.57 60.66 240.68 59.33 240.74 58.01 C 244.02 58.77 245.06 61.83 246.86 64.15 C 249.98 64.69 251.62 68.25 254.76 68.31 C 257.35 70.69 259.22 73.72 261.75 76.17 C 261.49 77.32 261.38 78.49 261.32 79.66 C 262.59 79.63 263.87 79.62 265.15 79.64 C 265.34 80.89 265.67 82.10 266.13 83.28 L 265.94 83.92 C 265.42 83.97 264.40 84.08 263.89 84.13 C 263.73 82.73 262.99 82.02 261.67 81.99 C 261.67 83.40 262.41 84.11 263.89 84.13 C 264.27 84.62 265.04 85.59 265.42 86.08 C 264.99 86.46 264.57 86.83 264.14 87.19 C 263.07 85.81 261.90 84.53 260.63 83.33 C 259.20 85.46 262.23 86.44 262.75 88.27 C 263.34 89.80 264.93 91.00 264.83 92.75 C 262.98 92.22 262.33 90.13 261.11 88.85 C 258.59 86.22 256.36 83.34 254.12 80.49 L 254.47 79.77 L 255.77 80.03 C 256.14 80.62 256.89 81.80 257.27 82.39 C 257.82 81.41 258.29 80.38 258.80 79.37 L 259.18 81.00 L 259.88 80.88 C 259.70 79.85 259.47 78.83 259.20 77.83 C 257.61 75.76 254.55 76.00 252.65 74.31 C 253.05 75.27 253.87 77.20 254.28 78.16 C 253.83 78.23 252.94 78.38 252.49 78.45 C 251.82 76.15 250.76 74.00 249.65 71.88 C 250.02 71.53 250.76 70.83 251.13 70.48 L 249.29 70.69 C 249.61 69.45 249.58 68.23 249.18 67.03 C 248.16 67.22 246.13 67.61 245.11 67.80 C 246.85 64.98 243.65 60.94 240.43 61.98 M 251.33 69.38 C 251.96 70.03 251.96 70.03 251.33 69.38 M 253.00 69.54 C 253.68 70.05 253.68 70.05 253.00 69.54 Z" />
<path fill="#ffffff" opacity="1.00" d=" M 268.74 62.98 C 269.48 62.26 269.74 60.80 270.65 60.43 C 271.20 61.20 271.73 61.97 272.25 62.76 C 271.76 63.87 269.00 64.47 268.74 62.98 Z" />
<path fill="#ffffff" opacity="1.00" d=" M 174.26 61.42 C 178.37 62.84 183.73 63.74 186.00 67.85 C 184.42 67.79 183.01 67.06 181.59 66.47 L 181.20 68.55 L 183.06 67.97 C 182.56 69.37 182.28 70.82 182.40 72.31 C 180.24 72.04 178.07 72.05 175.91 72.10 C 175.37 72.90 174.84 73.71 174.31 74.52 C 176.45 74.71 178.61 74.68 180.73 74.27 C 180.26 74.99 179.80 75.72 179.35 76.44 C 178.01 76.42 176.67 76.44 175.34 76.52 C 175.37 76.14 175.43 75.37 175.46 74.99 L 174.06 74.88 C 174.21 74.18 174.50 72.77 174.64 72.07 C 173.92 71.91 172.48 71.61 171.76 71.45 C 174.27 71.38 176.79 71.49 179.30 71.42 C 178.45 69.43 175.75 69.74 174.03 68.86 C 174.25 67.67 174.48 66.47 174.71 65.28 C 176.34 65.46 177.98 65.49 179.62 65.35 L 179.35 66.93 C 180.12 66.73 181.66 66.32 182.43 66.12 C 180.99 62.47 175.48 64.98 174.26 61.42 M 175.21 67.92 C 177.09 67.59 178.99 69.31 180.74 68.44 C 180.85 67.09 178.59 67.32 177.76 66.74 C 177.05 66.56 174.66 66.81 175.21 67.92 Z" />
<path fill="#ffffff" opacity="1.00" d=" M 181.79 61.51 C 179.00 63.31 181.12 58.26 181.79 61.51 Z" />
<path fill="#ffffff" opacity="1.00" d=" M 248.09 63.05 C 248.96 60.85 250.77 63.06 252.00 63.49 C 253.21 64.20 254.32 65.04 255.46 65.87 C 255.98 65.65 257.02 65.23 257.54 65.02 C 258.78 69.15 263.35 70.21 266.24 72.86 C 266.42 72.15 266.77 70.73 266.95 70.02 C 268.29 71.71 269.61 73.42 271.17 74.93 L 269.07 75.51 C 269.73 75.38 271.05 75.12 271.71 74.99 C 271.85 75.54 272.14 76.64 272.28 77.19 L 271.96 74.89 C 275.02 76.70 278.52 77.64 281.57 79.44 C 281.68 79.71 281.90 80.26 282.02 80.53 C 280.77 80.58 278.75 79.05 278.42 81.17 C 280.25 82.19 282.55 82.89 283.29 85.09 C 281.23 84.95 279.58 83.61 277.82 82.69 C 277.40 80.24 274.84 79.78 272.90 78.96 C 269.22 77.59 266.33 74.83 262.97 72.89 C 265.23 76.13 269.24 77.65 271.19 81.14 C 268.06 81.12 266.29 77.67 263.43 77.59 C 263.35 77.22 263.18 76.48 263.09 76.11 C 260.48 73.39 258.32 70.20 255.58 67.65 C 252.70 66.75 250.84 64.18 248.09 63.05 Z" />
<path fill="#ffffff" opacity="1.00" d=" M 271.57 63.44 C 273.99 64.09 276.76 64.73 278.13 67.07 C 276.31 67.53 272.94 64.59 272.90 67.72 C 274.60 68.13 279.86 66.57 278.11 69.86 C 277.56 70.04 276.47 70.40 275.92 70.58 C 276.96 70.53 277.99 70.48 279.03 70.42 C 279.31 71.63 279.59 72.84 279.88 74.04 C 279.54 73.65 278.86 72.88 278.52 72.49 C 274.68 73.37 272.02 69.86 269.03 68.15 C 268.84 67.32 268.44 65.65 268.25 64.81 C 269.07 65.06 270.71 65.56 271.53 65.81 C 271.54 65.22 271.56 64.03 271.57 63.44 Z" />
<path fill="#ffffff" opacity="1.00" d=" M 240.98 65.42 C 242.76 65.48 243.64 68.24 243.68 69.74 C 241.98 69.94 240.41 66.87 240.98 65.42 Z" />
<path fill="#ffffff" opacity="1.00" d=" M 158.14 67.35 C 159.66 66.59 161.50 67.11 163.14 67.17 C 164.88 67.98 161.56 68.49 161.01 68.30 C 159.63 68.58 158.67 68.26 158.14 67.35 Z" />
<path fill="#ffffff" opacity="1.00" d=" M 239.60 72.88 C 238.99 71.09 238.40 69.44 239.92 67.89 C 241.54 69.53 242.47 71.65 242.92 73.88 C 241.80 73.57 240.69 73.24 239.60 72.88 Z" />
<path fill="#ffffff" opacity="1.00" d=" M 263.04 69.17 C 264.18 68.58 266.19 69.79 265.88 71.12 C 264.77 71.54 262.95 70.39 263.04 69.17 Z" />
<path fill="#ffffff" opacity="1.00" d=" M 245.15 71.84 C 246.80 73.34 247.14 75.66 248.56 77.33 C 247.59 77.26 246.61 77.21 245.64 77.17 C 245.93 75.34 244.71 73.69 245.15 71.84 Z" />
<path fill="#ffffff" opacity="1.00" d=" M 271.40 73.88 C 268.27 73.76 270.42 72.43 271.07 71.64 C 272.98 73.19 275.40 73.82 277.79 74.12 C 278.75 74.84 279.96 75.42 280.18 76.73 C 277.35 75.46 274.27 74.98 271.40 73.88 Z" />
<path fill="#ffffff" opacity="1.00" d=" M 243.22 75.27 C 243.87 75.73 243.87 75.73 243.22 75.27 Z" />
<path fill="#ffffff" opacity="1.00" d=" M 244.99 77.62 C 245.68 77.76 247.05 78.05 247.74 78.19 C 247.10 80.40 248.41 82.56 247.99 84.80 C 246.15 82.83 245.78 80.08 244.99 77.62 Z" />
<path fill="#ffffff" opacity="1.00" d=" M 170.02 86.81 C 171.32 83.28 174.48 80.83 177.78 79.29 C 176.89 80.91 175.69 82.35 174.44 83.70 C 175.04 84.42 175.63 85.15 176.22 85.88 C 175.38 88.23 173.02 89.35 170.74 89.83 C 171.17 89.27 172.03 88.14 172.46 87.58 C 172.29 87.08 171.93 86.09 171.76 85.59 C 171.32 85.89 170.45 86.50 170.02 86.81 M 173.70 86.97 C 173.76 86.32 173.89 85.03 173.95 84.38 C 172.41 83.82 172.28 86.94 173.70 86.97 Z" />
<path fill="#ffffff" opacity="1.00" d=" M 254.47 79.77 C 254.22 79.07 254.22 79.07 254.47 79.77 Z" />
<path fill="#ffffff" opacity="1.00" d=" M 251.02 80.02 C 254.01 81.00 256.01 84.26 257.03 87.06 C 254.54 87.47 254.70 84.94 253.61 83.66 C 252.73 82.46 251.76 81.32 251.02 80.02 Z" />
<path fill="#ffffff" opacity="1.00" d=" M 274.53 80.99 C 277.48 79.55 274.54 84.41 274.53 80.99 Z" />
<path fill="#ffffff" opacity="1.00" d=" M 248.93 81.84 C 250.25 82.55 251.31 83.61 252.36 84.67 C 253.26 88.81 255.59 92.35 257.19 96.21 C 255.17 95.35 254.50 93.12 253.31 91.46 C 251.38 88.49 250.26 85.10 248.93 81.84 Z" />
<path fill="#ffffff" opacity="1.00" d=" M 267.12 82.36 C 267.83 82.32 269.26 82.22 269.97 82.18 C 272.67 83.60 275.29 85.31 276.98 87.93 C 273.49 86.55 270.70 83.83 267.07 82.71 L 267.12 82.36 Z" />
<path fill="#ffffff" opacity="1.00" d=" M 274.89 83.06 C 278.46 84.07 281.30 86.74 284.68 88.25 C 286.76 89.01 286.16 91.51 286.87 93.17 C 284.93 93.11 281.94 94.29 281.61 91.07 C 282.72 91.17 284.95 91.37 286.06 91.47 C 282.77 88.12 278.48 86.03 274.89 83.06 Z" />
<path fill="#ffffff" opacity="1.00" d=" M 265.94 83.92 L 266.79 83.73 C 268.89 85.34 272.00 87.28 272.21 90.13 C 269.77 88.71 267.63 86.74 265.81 84.62 L 265.94 83.92 Z" />
<path fill="#ffffff" opacity="1.00" d=" M 247.77 86.81 C 248.50 85.03 250.72 87.88 249.97 88.98 C 248.75 88.82 248.02 88.09 247.77 86.81 Z" />
<path fill="#ffffff" opacity="1.00" d=" M 255.44 86.85 C 258.81 87.51 259.78 91.48 261.68 93.90 C 258.26 93.82 257.50 88.97 255.44 86.85 Z" />
<path fill="#ffffff" opacity="1.00" d=" M 264.67 90.62 C 265.37 89.49 266.04 88.29 267.18 87.53 C 267.20 88.39 267.23 90.11 267.25 90.97 L 269.06 89.79 C 268.38 91.16 268.20 92.60 268.52 94.10 C 267.20 92.98 265.91 91.82 264.67 90.62 Z" />
<path fill="#ffffff" opacity="1.00" d=" M 199.93 91.38 C 198.42 90.52 198.37 89.65 199.78 88.75 C 201.14 89.62 201.20 90.50 199.93 91.38 Z" />
<path fill="#ffffff" opacity="1.00" d=" M 232.89 88.60 C 235.45 89.97 236.38 92.93 237.65 95.33 C 233.78 96.52 233.55 91.19 232.89 88.60 Z" />
<path fill="#ffffff" opacity="1.00" d=" M 249.97 88.98 C 250.28 89.20 250.91 89.64 251.22 89.87 L 250.81 90.49 C 250.50 90.29 249.88 89.89 249.57 89.69 L 249.97 88.98 Z" />
<path fill="#ffffff" opacity="1.00" d=" M 255.29 89.24 C 255.81 89.88 255.81 89.88 255.29 89.24 Z" />
<path fill="#ffffff" opacity="1.00" d=" M 177.33 90.22 C 178.63 90.85 178.59 91.52 177.20 92.23 C 175.97 91.57 176.01 90.90 177.33 90.22 Z" />
<path fill="#ffffff" opacity="1.00" d=" M 246.69 89.65 C 247.16 89.78 248.09 90.05 248.56 90.19 C 249.70 92.53 251.33 94.61 252.32 97.03 L 253.54 96.56 C 253.33 97.16 252.92 98.34 252.72 98.94 C 252.31 98.67 251.51 98.13 251.11 97.86 C 249.70 95.08 247.99 92.48 246.69 89.65 Z" />
<path fill="#ffffff" opacity="1.00" d=" M 159.13 93.98 C 159.26 91.55 161.66 91.96 163.24 91.52 C 163.37 92.05 163.61 93.10 163.73 93.62 C 162.24 95.10 160.46 96.23 158.64 97.26 C 158.51 96.56 158.25 95.16 158.12 94.46 C 159.65 95.01 160.96 94.20 162.12 93.36 C 161.37 93.52 159.88 93.83 159.13 93.98 Z" />
<path fill="#ffffff" opacity="1.00" d=" M 250.81 90.49 C 251.19 90.90 251.95 91.71 252.33 92.11 L 253.31 91.46 C 252.57 94.09 255.16 95.99 256.03 98.26 C 254.86 98.20 254.03 97.64 253.54 96.56 C 252.43 94.64 250.93 92.80 250.81 90.49 Z" />
<path fill="#ffffff" opacity="1.00" d=" M 275.01 90.81 C 276.03 91.65 277.05 92.51 278.06 93.37 C 277.49 93.34 276.35 93.27 275.78 93.23 C 276.84 94.84 278.10 96.28 279.54 97.57 L 279.21 95.20 L 279.88 95.12 L 279.86 96.66 C 280.39 96.13 281.46 95.07 282.00 94.54 C 282.62 94.95 283.88 95.76 284.51 96.17 C 279.99 92.09 289.56 93.34 289.34 96.93 C 287.79 96.56 286.32 96.06 284.76 95.79 C 285.89 98.10 290.26 97.30 289.52 100.66 C 287.46 99.90 285.75 98.51 283.82 97.52 C 284.55 99.16 286.36 99.73 287.79 100.58 L 287.19 101.07 L 286.27 101.78 C 286.46 101.99 286.86 102.42 287.05 102.63 C 289.41 103.46 289.64 105.82 288.32 107.79 C 289.04 107.36 290.48 106.50 291.20 106.07 C 290.50 107.48 289.68 108.81 288.85 110.13 C 288.38 110.38 287.44 110.87 286.97 111.12 C 287.00 110.67 287.07 109.78 287.11 109.33 C 285.02 108.04 283.68 105.97 282.16 104.11 C 282.62 106.75 284.18 108.97 286.30 110.56 C 285.71 112.55 286.66 114.35 287.60 116.04 C 288.45 115.32 289.30 114.60 290.15 113.87 C 291.42 114.34 292.35 115.18 292.94 116.37 C 292.11 116.30 290.43 116.16 289.60 116.09 L 289.34 117.64 C 290.12 117.60 291.67 117.51 292.45 117.46 C 291.26 118.12 290.08 118.78 288.91 119.44 C 290.86 120.11 292.90 120.44 294.95 120.54 C 296.39 121.15 297.83 121.77 299.22 122.50 C 297.70 123.29 296.12 124.05 294.38 123.64 C 293.59 125.32 292.74 127.00 291.06 127.96 C 293.48 126.59 295.98 125.41 298.62 124.53 L 298.64 126.50 C 299.02 127.02 299.79 128.05 300.17 128.57 L 297.82 128.30 C 299.75 130.13 302.17 131.24 304.49 132.45 L 303.80 133.98 L 305.39 134.13 C 305.07 134.74 304.42 135.95 304.09 136.56 C 306.83 136.74 308.93 138.60 310.84 140.38 C 310.47 140.40 309.72 140.43 309.35 140.45 L 309.33 141.52 C 311.09 142.04 313.55 142.50 313.82 144.71 C 315.49 145.50 317.49 145.98 318.59 147.62 C 318.27 147.86 317.63 148.33 317.32 148.57 C 318.99 148.82 320.74 148.90 322.31 149.63 L 320.20 150.03 L 318.90 151.15 C 320.12 151.16 322.56 151.18 323.78 151.19 L 323.22 152.57 C 325.00 151.89 326.56 152.76 327.84 153.90 C 326.57 153.81 324.04 153.62 322.77 153.52 C 324.75 155.81 328.53 155.06 330.97 156.95 C 330.26 158.59 327.53 158.06 327.14 156.48 C 326.03 156.38 324.91 156.30 323.80 156.23 C 325.24 156.47 326.42 157.11 327.34 158.16 C 325.35 158.12 323.39 158.01 321.42 157.83 C 320.82 154.24 316.98 153.21 315.63 150.08 C 314.17 150.38 312.71 150.68 311.25 150.95 L 311.25 152.20 C 312.24 151.90 314.22 151.29 315.21 150.99 L 310.77 154.93 L 316.23 152.78 C 315.79 154.29 316.76 155.11 318.07 155.70 L 316.10 156.06 C 316.92 156.59 317.75 157.12 318.58 157.65 C 318.01 157.92 316.88 158.45 316.31 158.71 C 317.12 160.43 316.57 161.53 314.68 162.03 C 315.11 162.55 315.55 163.07 316.00 163.58 C 315.58 163.88 314.76 164.48 314.35 164.78 C 314.29 164.17 314.18 162.95 314.12 162.34 C 313.58 162.22 312.48 161.98 311.94 161.86 C 312.00 159.93 314.19 158.57 315.96 158.40 C 315.96 157.89 315.96 156.89 315.96 156.39 C 312.97 157.45 310.38 159.35 307.74 161.06 C 308.52 161.21 310.08 161.50 310.86 161.65 C 309.95 162.81 308.97 163.91 307.88 164.90 L 308.03 166.10 L 305.89 165.07 C 303.41 165.16 304.99 167.95 305.50 169.29 C 305.24 169.84 304.72 170.93 304.47 171.48 C 303.52 172.34 302.48 173.07 301.25 172.24 C 300.24 173.18 299.24 174.12 298.23 175.06 C 298.62 173.94 299.40 171.68 299.78 170.55 C 296.67 171.81 296.41 175.69 299.82 176.57 C 298.74 177.63 297.60 178.62 296.39 179.53 C 298.67 179.25 300.37 177.68 301.83 176.04 C 301.63 176.96 301.24 178.80 301.04 179.72 C 302.58 179.61 304.13 179.48 305.67 179.33 C 306.49 180.24 307.34 181.13 308.19 182.02 C 307.09 184.04 306.65 187.06 303.65 186.71 C 303.52 184.72 301.64 183.54 300.06 182.72 L 301.27 179.81 C 300.56 180.41 299.15 181.61 298.44 182.21 C 296.84 180.01 294.64 178.39 292.45 176.83 C 292.22 179.00 292.95 181.64 291.14 183.31 L 291.02 184.61 L 288.72 184.84 C 289.14 184.01 289.97 182.35 290.39 181.52 L 288.58 181.37 L 288.79 183.77 C 287.76 182.85 286.73 181.92 285.72 181.00 C 285.05 181.96 284.39 182.94 283.77 183.94 C 283.71 183.11 283.58 181.45 283.52 180.62 L 281.26 180.20 C 281.30 180.91 281.38 182.31 281.41 183.02 C 280.79 181.87 280.40 180.65 280.23 179.35 C 279.75 179.99 278.77 181.26 278.29 181.90 C 278.34 181.06 278.44 179.37 278.50 178.53 L 277.48 178.39 C 277.10 180.05 276.74 182.31 274.70 182.70 C 274.25 183.49 273.53 183.87 272.54 183.83 C 272.25 180.49 271.78 177.10 272.31 173.75 C 272.75 171.66 275.12 169.35 273.12 167.44 C 272.72 169.22 272.40 171.04 271.85 172.78 C 271.48 172.71 270.73 172.57 270.36 172.50 C 270.36 171.25 270.35 168.76 270.34 167.51 C 270.69 167.50 271.40 167.50 271.76 167.50 L 270.22 167.38 C 270.10 165.98 270.50 164.83 271.42 163.93 C 272.58 161.77 274.02 159.78 275.29 157.69 C 277.72 157.21 278.47 154.53 279.70 152.72 C 280.48 152.21 281.25 151.69 282.02 151.17 C 278.96 151.69 278.02 155.06 275.84 156.82 C 273.95 158.19 272.35 160.49 269.67 160.06 C 273.42 154.55 277.73 149.47 281.50 143.98 C 283.90 140.68 287.19 138.18 289.86 135.11 C 286.39 137.35 283.32 140.25 280.74 143.46 C 278.80 143.23 276.70 143.14 275.33 144.76 C 275.73 144.52 276.53 144.03 276.94 143.78 C 277.70 143.88 279.23 144.07 280.00 144.17 C 278.27 147.05 276.11 149.63 274.36 152.49 C 273.45 154.28 271.27 154.85 270.35 156.61 L 269.12 155.97 C 269.27 156.79 269.57 158.45 269.72 159.28 L 266.15 159.77 C 266.57 157.51 267.30 155.28 267.34 152.98 L 266.18 152.47 C 267.36 156.51 264.47 159.62 263.22 163.19 C 261.67 165.02 259.86 166.60 258.30 168.41 C 256.11 171.96 255.22 176.15 252.91 179.64 C 252.50 179.50 251.69 179.22 251.28 179.08 C 250.69 179.37 249.50 179.96 248.91 180.26 L 248.97 178.17 C 248.17 178.71 246.57 179.80 245.78 180.34 C 246.75 178.05 248.30 175.94 248.44 173.36 C 242.26 181.09 239.64 190.80 238.59 200.47 C 238.28 200.60 237.66 200.86 237.36 200.99 C 237.59 197.33 237.69 193.54 239.42 190.21 L 238.97 189.83 C 236.20 190.77 238.30 195.69 235.13 196.11 C 234.98 193.52 237.17 191.20 236.42 188.71 C 238.67 189.50 241.02 188.79 240.33 185.81 C 239.62 187.93 238.79 188.40 237.87 187.24 C 237.99 185.22 240.48 184.84 240.88 182.98 C 241.67 180.94 242.50 178.91 243.57 176.99 C 244.73 175.35 244.31 173.07 245.99 171.74 C 244.74 172.09 243.70 172.87 242.67 173.64 C 242.55 175.07 243.06 176.79 241.83 177.89 C 241.12 180.81 239.78 183.49 237.75 185.71 C 236.32 187.36 235.43 190.95 232.71 190.55 C 234.07 187.00 236.55 183.87 237.35 180.14 C 236.12 181.40 235.33 183.22 233.59 183.89 C 232.97 187.31 231.83 190.76 232.76 194.25 C 231.77 194.41 230.78 194.58 229.80 194.75 C 228.85 195.86 228.64 198.83 226.51 197.53 C 226.16 199.58 226.47 202.56 224.45 203.82 C 225.07 201.60 225.64 199.37 225.85 197.07 C 226.44 191.87 229.72 187.24 229.62 181.94 C 230.53 179.30 232.31 176.98 232.74 174.17 C 231.61 175.77 231.35 178.83 228.87 178.79 C 229.06 177.86 229.29 176.95 229.57 176.04 C 230.54 174.22 231.38 172.31 231.98 170.34 C 228.98 173.26 228.44 177.65 226.49 181.22 C 226.88 180.62 227.66 179.43 228.05 178.83 C 228.26 178.82 228.67 178.80 228.87 178.79 C 229.10 179.04 229.55 179.53 229.78 179.78 C 227.79 183.33 226.97 187.58 224.01 190.53 C 224.19 187.11 226.00 184.16 227.02 180.97 C 223.96 182.45 223.37 186.02 221.70 188.64 C 219.37 192.39 218.42 196.76 216.56 200.71 C 216.20 200.82 215.49 201.04 215.13 201.15 C 216.14 197.34 217.75 193.72 218.95 189.98 C 218.71 189.46 218.22 188.42 217.98 187.89 C 218.36 187.77 219.11 187.52 219.49 187.39 L 218.98 185.73 L 220.33 185.66 C 220.36 186.29 220.43 187.55 220.47 188.18 C 221.80 186.70 222.57 184.86 223.16 182.99 L 220.57 184.15 C 221.53 182.06 223.00 180.10 223.12 177.71 C 220.71 179.34 220.45 182.52 218.78 184.74 C 215.13 189.79 213.09 196.10 208.64 200.48 C 208.14 198.12 210.46 196.02 211.24 193.86 C 208.81 190.07 212.97 186.47 213.89 182.89 C 213.08 180.80 214.40 178.85 214.88 176.86 C 212.83 180.84 211.30 185.10 209.46 189.21 C 208.01 187.90 209.37 186.18 210.09 184.89 C 209.87 180.39 212.35 175.97 214.72 172.23 C 213.56 171.73 212.30 171.29 211.10 171.90 L 213.10 172.84 C 210.36 174.97 209.34 178.51 208.51 181.72 C 208.39 185.99 206.74 189.98 205.93 194.14 C 205.51 194.29 204.67 194.60 204.25 194.76 C 204.56 193.84 205.17 192.01 205.47 191.09 C 202.97 193.21 202.28 192.70 203.41 189.58 C 203.64 189.17 204.11 188.34 204.34 187.93 C 203.91 188.17 203.07 188.64 202.64 188.88 L 203.41 189.58 L 202.42 189.22 C 201.93 191.48 201.39 193.74 200.92 196.01 C 200.38 196.32 199.28 196.93 198.74 197.24 C 199.91 193.69 201.04 190.10 202.69 186.74 C 202.54 186.33 202.23 185.51 202.07 185.10 C 202.99 183.24 203.76 181.32 204.32 179.32 L 204.78 180.12 C 205.22 178.63 205.69 177.14 205.98 175.62 L 206.80 175.79 L 207.33 175.25 L 207.86 175.21 C 207.95 175.57 208.12 176.27 208.21 176.63 C 206.29 179.40 205.17 182.59 203.76 185.63 C 204.09 186.37 204.43 187.10 204.78 187.83 C 205.59 184.00 206.84 180.29 208.21 176.63 C 208.50 175.80 208.71 174.94 208.84 174.07 C 212.10 169.31 214.64 164.01 217.55 158.98 C 218.12 159.63 218.91 160.27 218.45 161.24 C 218.03 164.41 216.50 167.26 215.25 170.16 C 219.40 167.60 218.20 160.47 223.24 158.42 C 221.73 161.72 220.12 164.96 218.93 168.39 C 217.69 170.17 216.84 172.17 215.93 174.13 L 216.81 174.28 C 217.84 172.43 218.37 170.12 220.14 168.80 L 219.99 171.46 C 221.61 169.06 223.47 166.69 224.04 163.77 C 223.21 164.79 221.55 166.83 220.72 167.85 C 221.02 166.17 221.42 164.52 221.76 162.85 C 222.63 162.98 225.59 164.52 224.60 162.51 C 224.29 162.27 223.69 161.79 223.39 161.55 C 224.41 160.13 224.60 158.43 224.46 156.74 C 222.81 156.16 223.41 154.49 223.42 153.18 C 224.29 153.62 225.15 154.08 226.01 154.56 C 227.37 153.57 227.98 152.27 227.82 150.64 L 228.97 151.69 C 229.24 152.44 229.78 153.94 230.05 154.69 L 228.58 154.69 C 228.49 156.23 227.56 157.48 226.93 158.83 C 228.54 157.60 230.37 158.23 231.73 159.48 C 231.13 161.68 230.26 163.79 229.09 165.76 C 228.51 165.22 227.95 164.67 227.40 164.11 C 225.07 166.94 223.59 170.34 222.43 173.79 C 224.33 172.03 225.40 169.64 225.91 167.14 C 226.71 166.60 227.62 166.27 228.60 166.37 C 227.15 169.59 225.65 172.79 224.29 176.05 C 226.86 172.97 228.41 169.25 230.22 165.72 L 229.09 165.76 C 232.77 165.67 230.10 159.96 233.87 159.79 C 233.67 160.90 233.26 163.12 233.05 164.22 C 234.43 162.68 234.22 160.46 234.50 158.55 L 235.50 158.65 L 235.11 157.26 C 235.70 157.18 236.88 157.02 237.47 156.93 L 238.44 157.88 C 239.09 157.10 239.74 156.33 240.39 155.57 C 241.03 155.49 242.31 155.35 242.95 155.28 C 241.32 156.84 241.14 159.03 241.18 161.16 C 242.75 159.32 243.12 156.73 245.02 155.14 L 245.45 157.32 C 245.75 156.34 246.04 155.35 246.32 154.37 C 248.35 155.22 249.45 154.42 249.60 151.98 C 248.87 152.02 247.43 152.11 246.70 152.15 L 248.13 152.12 C 248.09 151.57 248.00 150.48 247.95 149.93 C 247.09 150.61 246.24 151.29 245.38 151.96 L 245.68 149.76 C 244.48 150.80 243.30 151.87 242.07 152.88 C 242.58 151.56 243.12 150.26 243.70 148.98 C 242.38 149.68 241.07 150.40 239.77 151.14 C 239.40 149.50 238.46 148.09 237.68 146.64 C 239.17 144.63 241.28 143.23 243.34 141.85 C 243.35 142.51 243.37 143.82 243.38 144.47 C 243.90 144.10 244.95 143.36 245.48 142.98 C 245.44 143.67 245.38 145.03 245.34 145.71 C 245.97 145.32 246.59 144.93 247.22 144.53 C 248.47 144.57 249.73 144.60 250.99 144.64 C 251.49 144.30 252.48 143.64 252.98 143.30 C 252.48 146.48 250.90 149.37 250.43 152.56 C 250.15 155.43 246.91 156.85 247.15 159.90 C 249.14 159.60 249.35 157.37 250.23 155.98 C 250.83 156.10 252.04 156.34 252.64 156.46 C 254.44 152.49 255.42 148.30 255.74 143.93 C 254.33 146.86 254.88 151.57 251.41 152.86 C 252.82 150.05 253.04 146.87 254.20 143.98 C 255.13 143.49 256.09 143.03 257.05 142.58 C 257.45 144.06 257.80 145.55 258.14 147.05 C 257.62 147.86 257.10 148.67 256.58 149.49 C 257.03 152.88 253.59 154.85 253.06 158.04 C 254.65 156.96 255.59 155.29 256.29 153.56 L 257.03 153.94 C 256.49 155.49 255.97 157.06 255.29 158.56 C 256.33 159.78 255.19 160.79 254.48 161.79 C 253.61 162.68 253.45 163.93 253.15 165.08 C 251.67 166.45 250.28 168.05 250.03 170.15 C 251.66 169.19 252.25 167.30 253.23 165.81 C 253.67 166.86 253.78 167.97 253.57 169.13 C 253.05 169.51 252.01 170.25 251.48 170.63 C 251.45 171.25 251.38 172.50 251.35 173.13 C 253.84 169.08 257.97 166.58 260.50 162.57 C 261.29 161.06 262.57 159.92 263.50 158.52 C 264.33 155.33 264.60 151.87 266.42 149.03 C 267.05 150.36 268.06 151.29 269.46 151.84 C 269.03 153.12 268.42 154.32 267.63 155.41 C 269.90 156.58 270.62 153.58 271.85 152.39 C 271.22 152.51 269.95 152.75 269.32 152.88 L 269.69 150.29 C 270.53 150.45 272.21 150.77 273.05 150.93 L 272.03 150.25 C 272.72 149.76 274.10 148.79 274.79 148.31 C 273.23 149.00 271.20 150.70 270.26 148.34 C 269.84 148.65 268.99 149.26 268.56 149.56 C 268.73 147.69 269.15 145.86 269.98 144.17 C 269.57 142.79 269.44 141.39 270.79 140.48 C 273.31 138.62 269.72 138.21 268.43 138.45 C 269.36 136.11 269.55 132.32 273.16 133.55 C 273.21 135.37 271.17 136.25 270.47 137.76 C 272.46 137.05 273.96 135.49 275.63 134.26 C 276.22 136.16 273.75 136.75 273.09 138.21 C 275.24 137.26 277.33 136.15 279.57 135.41 C 279.92 135.05 280.60 134.31 280.95 133.95 C 282.84 133.13 284.76 132.40 286.69 131.68 L 286.50 130.00 C 283.47 132.01 280.56 134.27 277.36 136.03 C 277.37 133.24 279.56 131.54 281.65 130.16 C 280.14 130.79 278.67 131.53 277.25 132.34 C 277.08 131.82 276.73 130.77 276.55 130.24 C 275.61 130.97 274.76 131.82 273.90 132.64 C 273.26 132.33 272.00 131.72 271.36 131.42 C 271.36 130.91 271.37 129.89 271.37 129.38 C 268.40 129.72 269.61 133.08 269.10 135.08 C 267.84 133.83 266.51 132.74 265.23 134.69 C 265.29 134.44 265.42 133.94 265.48 133.69 C 265.88 133.28 266.69 132.48 267.10 132.07 C 265.10 131.72 265.57 129.59 265.17 128.15 C 266.08 128.01 267.91 127.73 268.82 127.59 C 268.95 128.03 269.23 128.91 269.36 129.35 C 270.35 128.29 271.54 127.88 272.93 128.14 C 272.72 128.85 272.58 129.59 272.46 130.33 C 274.12 128.83 276.12 127.83 278.29 127.32 C 278.52 126.71 278.99 125.49 279.23 124.88 C 277.18 125.97 275.34 128.11 272.93 128.14 C 271.34 125.79 276.60 125.48 275.44 122.76 C 276.03 122.45 277.19 121.83 277.77 121.52 C 276.69 121.04 275.85 122.44 274.94 122.83 C 274.65 125.15 272.44 126.26 270.99 127.81 C 270.51 127.08 270.04 126.34 269.59 125.60 C 271.38 123.55 273.09 121.44 275.00 119.50 L 273.61 119.44 C 273.70 118.18 273.33 117.15 272.51 116.34 C 271.88 112.41 272.27 108.05 269.87 104.65 C 270.66 104.60 272.22 104.52 273.00 104.48 C 274.22 106.27 274.81 108.67 276.74 109.88 C 275.64 105.84 270.26 102.90 271.76 98.38 C 270.57 97.44 269.39 96.48 268.31 95.41 C 269.41 92.53 271.63 96.09 272.43 97.26 L 273.63 96.56 L 272.82 97.46 C 275.12 99.64 277.18 102.07 279.64 104.08 C 278.73 102.76 276.93 100.13 276.03 98.81 C 279.58 100.70 283.24 102.38 286.48 104.79 C 283.93 100.47 278.45 99.25 275.51 95.22 C 274.97 95.04 273.90 94.68 273.36 94.50 C 274.44 95.98 275.49 97.50 276.49 99.05 C 275.44 98.33 274.48 97.50 273.63 96.56 C 272.80 95.57 272.02 94.53 271.23 93.52 C 271.62 93.64 272.41 93.89 272.80 94.02 C 273.83 93.59 274.73 92.93 275.70 92.39 L 275.01 90.81 M 286.81 104.81 C 287.34 105.55 287.34 105.55 286.81 104.81 M 294.31 128.97 C 295.30 129.80 297.32 128.36 296.70 127.16 C 295.66 126.50 293.96 127.81 294.31 128.97 M 281.67 135.36 L 281.98 136.13 C 278.58 138.50 274.82 140.14 271.15 141.98 C 274.52 141.76 277.94 140.93 280.26 138.30 C 281.57 137.51 282.84 136.63 283.87 135.48 C 283.32 135.45 282.22 135.39 281.67 135.36 M 279.86 141.00 C 279.03 141.69 279.03 141.69 279.86 141.00 C 280.68 140.30 280.68 140.30 279.86 141.00 M 299.31 145.73 C 300.65 145.83 302.89 145.08 303.29 143.70 C 301.95 143.31 299.19 144.07 299.31 145.73 M 275.51 160.09 C 274.76 161.17 273.51 162.35 274.61 163.82 L 273.22 163.40 C 273.59 164.88 274.09 166.41 273.55 167.95 L 274.84 167.40 C 275.29 165.73 276.10 163.91 275.14 162.21 L 276.55 162.77 C 276.99 162.43 277.87 161.76 278.31 161.42 C 277.99 162.47 277.36 164.56 277.04 165.61 C 277.63 164.74 278.81 163.01 279.40 162.14 C 279.81 162.68 280.24 163.21 280.68 163.73 C 280.43 163.04 279.92 161.66 279.67 160.97 C 281.28 160.39 281.73 158.53 280.74 157.14 C 279.27 157.94 277.31 163.65 275.51 160.09 M 315.00 159.99 C 314.29 160.64 314.29 160.64 315.00 159.99 C 315.69 159.25 315.69 159.25 315.00 159.99 M 231.27 166.21 C 231.75 166.87 231.75 166.87 231.27 166.21 M 215.25 170.18 C 215.87 170.81 215.87 170.81 215.25 170.18 M 255.14 170.36 C 255.85 170.76 255.85 170.76 255.14 170.36 M 254.25 172.17 C 254.85 172.73 254.85 172.73 254.25 172.17 M 233.76 181.45 C 235.08 180.78 235.98 178.79 235.87 177.36 C 234.14 177.10 231.91 180.31 233.76 181.45 M 229.95 189.21 C 231.30 188.89 232.26 186.54 231.95 185.23 C 230.29 185.23 229.65 187.86 229.95 189.21 Z" />
<path fill="#ffffff" opacity="1.00" d=" M 279.45 92.24 C 280.48 91.64 282.71 92.62 282.20 93.98 C 281.15 94.55 279.25 93.43 279.45 92.24 Z" />
<path fill="#ffffff" opacity="1.00" d=" M 198.48 93.65 C 198.74 93.63 199.25 93.60 199.50 93.58 C 199.51 94.24 199.54 95.56 199.55 96.22 C 200.12 96.63 201.26 97.43 201.83 97.84 C 202.03 97.33 202.43 96.31 202.62 95.80 C 202.13 97.49 202.52 98.51 203.79 98.87 C 203.98 98.15 204.37 96.71 204.57 95.99 C 205.12 97.52 207.36 100.10 205.03 101.00 C 203.83 102.72 204.22 105.00 204.56 106.95 C 201.11 105.32 203.37 100.43 201.34 97.68 C 200.42 98.64 199.73 99.84 198.64 100.63 C 198.42 99.19 198.33 97.75 198.21 96.30 L 199.31 96.17 C 199.03 95.33 198.75 94.49 198.48 93.65 Z" />
<path fill="#ffffff" opacity="1.00" d=" M 160.35 98.21 C 162.51 96.71 164.52 94.96 166.88 93.74 L 165.97 95.94 L 167.95 95.68 C 165.05 98.11 162.89 101.60 159.27 103.04 C 159.30 102.32 159.38 100.88 159.42 100.16 C 158.78 100.57 157.52 101.39 156.88 101.81 C 157.29 100.04 159.04 99.23 160.35 98.21 M 161.88 99.15 C 162.78 98.32 162.78 98.32 161.88 99.15 M 160.90 100.10 C 160.27 100.72 160.27 100.72 160.90 100.10 C 161.14 99.86 161.63 99.39 161.88 99.15 C 161.63 99.39 161.14 99.86 160.90 100.10 Z" />
<path fill="#ffffff" opacity="1.00" d=" M 193.98 95.59 C 195.29 95.16 195.81 95.66 195.54 97.07 C 194.18 97.54 193.66 97.04 193.98 95.59 Z" />
<path fill="#ffffff" opacity="1.00" d=" M 262.07 95.15 C 266.80 95.08 268.07 100.66 271.82 102.36 C 270.62 102.79 269.36 103.01 268.11 103.19 C 268.70 104.18 269.29 105.17 269.88 106.16 C 270.99 108.76 271.62 111.52 271.92 114.33 L 270.50 113.36 C 268.87 109.19 267.51 104.92 265.96 100.72 C 264.84 98.75 263.23 97.11 262.07 95.15 Z" />
<path fill="#ffffff" opacity="1.00" d=" M 218.20 98.20 C 217.96 96.80 218.51 96.21 219.85 96.42 C 220.11 97.85 219.56 98.44 218.20 98.20 Z" />
<path fill="#ffffff" opacity="1.00" d=" M 241.06 104.40 C 238.08 102.97 236.40 99.13 237.70 96.05 C 238.71 99.18 241.33 101.46 241.88 104.81 C 243.70 106.60 244.80 108.92 246.36 110.89 C 245.86 111.55 245.36 112.21 244.84 112.87 L 244.50 111.19 L 243.32 111.49 C 241.91 109.51 239.71 108.40 237.91 106.85 C 236.37 104.27 235.77 101.09 233.60 98.91 C 234.15 100.73 234.80 102.54 235.47 104.32 C 232.35 106.55 232.05 102.98 231.48 100.91 C 231.13 102.30 231.58 104.13 230.11 104.99 C 229.94 103.90 229.60 101.73 229.43 100.65 C 229.77 100.01 230.45 98.72 230.79 98.08 C 230.99 98.41 231.41 99.05 231.61 99.38 C 232.98 98.76 234.44 98.36 235.93 98.16 C 236.67 100.57 238.23 102.90 237.66 105.51 C 238.17 105.67 239.18 105.98 239.69 106.13 C 240.47 106.84 241.26 107.53 242.07 108.20 C 241.76 106.93 241.40 105.66 241.06 104.40 Z" />
<path fill="#ffffff" opacity="1.00" d=" M 176.94 103.07 C 177.95 101.21 179.60 98.92 181.96 99.01 C 180.84 101.49 177.43 102.99 177.70 105.90 C 176.45 105.58 175.18 105.31 173.91 105.11 L 172.85 106.24 C 174.45 107.44 172.89 108.98 172.26 110.23 C 172.36 109.44 172.54 107.86 172.64 107.07 C 170.70 108.96 169.24 111.31 167.08 112.97 C 167.96 108.35 173.07 105.98 175.27 101.92 C 175.82 102.31 176.38 102.69 176.94 103.07 Z" />
<path fill="#ffffff" opacity="1.00" d=" M 193.41 98.91 C 195.34 101.39 193.84 105.04 195.94 107.62 C 195.12 107.59 193.50 107.53 192.69 107.50 C 192.59 105.55 192.59 103.59 192.61 101.63 L 193.71 101.62 C 193.64 100.95 193.48 99.59 193.41 98.91 Z" />
<path fill="#ffffff" opacity="1.00" d=" M 219.45 98.84 C 222.09 99.61 219.21 101.72 218.65 103.03 C 216.60 101.64 217.82 99.94 219.45 98.84 Z" />
<path fill="#ffffff" opacity="1.00" d=" M 261.09 98.85 C 264.70 100.24 266.08 104.33 267.17 107.72 C 266.62 107.31 265.53 106.50 264.98 106.10 C 264.87 106.69 264.65 107.87 264.54 108.46 C 265.33 109.68 265.64 111.50 267.39 111.65 C 267.38 113.09 267.60 114.50 268.06 115.88 C 268.59 115.20 269.67 113.85 270.20 113.17 C 269.26 116.72 272.48 120.21 270.49 123.46 C 269.14 125.47 267.38 125.39 266.95 122.88 C 266.54 122.79 265.72 122.63 265.31 122.54 C 265.93 119.74 266.31 116.86 265.90 114.00 C 265.54 114.73 264.83 116.19 264.47 116.91 C 263.31 113.20 263.08 109.19 260.87 105.87 C 261.50 106.22 262.78 106.93 263.41 107.28 C 263.01 106.42 262.20 104.70 261.80 103.84 C 261.43 104.12 260.69 104.69 260.32 104.97 C 259.52 103.46 258.59 101.99 258.29 100.29 C 259.34 100.58 260.02 101.24 260.31 102.26 C 260.99 102.39 262.35 102.66 263.03 102.79 C 262.36 101.49 261.71 100.18 261.09 98.85 M 263.12 103.28 C 263.78 103.78 263.78 103.78 263.12 103.28 M 268.00 117.15 C 267.46 118.73 267.60 120.68 267.99 122.31 C 270.32 122.68 268.84 118.04 268.00 117.15 Z" />
<path fill="#ffffff" opacity="1.00" d=" M 245.20 100.12 C 247.90 100.99 248.67 104.91 248.89 107.13 L 248.31 107.12 C 248.03 106.65 247.46 105.71 247.18 105.24 C 246.30 103.63 245.65 101.90 245.20 100.12 Z" />
<path fill="#ffffff" opacity="1.00" d=" M 214.50 101.44 C 217.28 100.37 215.60 105.81 213.49 104.85 C 212.92 103.72 213.66 102.24 214.50 101.44 Z" />
<path fill="#ffffff" opacity="1.00" d=" M 225.30 100.11 C 226.27 100.33 228.21 100.76 229.18 100.97 C 229.10 102.52 229.01 104.06 228.92 105.61 L 227.83 104.93 C 227.77 104.44 227.66 103.47 227.60 102.99 C 226.88 104.04 226.53 105.91 225.02 106.01 C 225.38 104.06 225.64 102.09 225.30 100.11 Z" />
<path fill="#ffffff" opacity="1.00" d=" M 287.19 101.07 C 287.62 101.19 288.48 101.44 288.90 101.56 L 289.03 102.33 L 288.28 102.51 C 288.00 102.15 287.46 101.43 287.19 101.07 Z" />
<path fill="#ffffff" opacity="1.00" d=" M 222.27 101.76 L 223.39 100.99 C 223.59 102.76 223.53 104.50 222.12 105.72 C 220.38 103.90 219.36 106.26 218.50 107.50 C 218.03 106.76 217.56 106.02 217.09 105.28 L 216.49 107.41 L 214.99 107.03 C 215.80 105.76 216.60 104.49 217.45 103.24 C 217.93 104.13 218.42 105.01 218.92 105.90 L 219.12 104.07 L 220.46 102.50 C 220.97 103.24 221.49 103.98 222.01 104.72 L 222.27 101.76 Z" />
<path fill="#ffffff" opacity="1.00" d=" M 165.83 105.26 C 165.96 103.08 168.56 103.48 170.01 102.99 C 170.01 104.72 167.32 105.90 165.83 105.26 Z" />
<path fill="#ffffff" opacity="1.00" d=" M 188.09 104.52 C 189.37 104.70 190.28 104.16 190.78 102.95 C 190.59 104.93 189.78 107.51 191.57 109.03 L 191.09 110.23 C 192.28 110.09 193.87 110.84 194.55 109.46 C 194.51 112.87 195.30 116.26 194.79 119.67 C 193.88 119.50 192.99 119.30 192.11 119.07 C 191.30 116.52 191.53 113.79 191.13 111.18 C 189.41 111.48 188.04 112.43 187.00 114.03 C 187.70 114.15 189.10 114.40 189.80 114.52 C 189.75 115.16 189.65 116.43 189.60 117.07 C 188.69 116.24 187.85 115.34 187.03 114.42 L 186.36 116.40 C 186.21 115.79 185.90 114.56 185.75 113.95 C 185.48 114.01 184.94 114.12 184.67 114.18 C 182.72 117.15 181.12 120.40 178.62 122.98 C 179.02 123.52 179.42 124.07 179.83 124.61 C 180.84 122.41 182.41 120.55 184.10 118.85 C 183.44 120.81 182.48 122.65 181.40 124.40 C 180.54 125.26 179.95 126.99 178.34 126.39 C 179.30 128.38 177.82 128.52 176.36 128.61 C 175.93 129.64 175.18 130.38 174.12 130.81 C 174.67 129.65 174.75 127.90 176.35 127.64 C 176.67 126.56 176.97 125.48 177.26 124.40 L 175.77 124.22 C 178.39 120.66 180.89 116.99 183.72 113.59 C 184.39 112.05 186.27 112.40 187.58 112.69 C 187.49 111.20 187.36 109.73 187.20 108.25 C 187.78 108.40 188.92 108.70 189.49 108.85 C 189.48 107.88 189.45 105.95 189.44 104.98 L 188.09 104.52 M 193.63 113.62 C 193.75 113.06 194.01 111.95 194.13 111.39 C 192.83 109.89 191.74 114.52 193.63 113.62 M 178.38 125.38 C 178.65 125.65 178.65 125.65 178.38 125.38 Z" />
<path fill="#ffffff" opacity="1.00" d=" M 199.02 109.84 C 199.10 108.02 197.39 104.17 200.70 105.28 C 200.61 105.76 200.41 106.72 200.32 107.19 C 200.70 107.79 201.47 108.99 201.85 109.58 C 201.15 109.65 199.73 109.78 199.02 109.84 Z" />
<path fill="#ffffff" opacity="1.00" d=" M 176.25 106.14 C 177.18 106.52 177.29 107.76 177.87 108.51 C 178.35 107.89 179.32 106.66 179.80 106.05 C 179.62 107.54 178.87 108.51 177.54 108.97 C 178.21 109.59 178.91 110.19 179.62 110.76 C 178.52 111.79 177.54 112.92 176.69 114.16 C 177.46 113.88 179.00 113.32 179.77 113.04 C 178.64 115.20 177.40 117.34 175.50 118.93 C 174.98 118.34 174.38 118.20 173.69 118.52 L 173.15 118.63 C 173.17 118.33 173.20 117.71 173.22 117.40 L 173.72 116.64 L 174.12 115.79 C 175.60 118.29 176.67 116.10 177.67 114.61 L 177.34 114.11 L 174.57 116.11 C 175.31 115.04 176.80 112.90 177.54 111.83 C 177.07 111.51 176.60 111.20 176.13 110.89 C 175.10 113.59 173.16 115.78 171.35 117.98 C 171.62 116.71 171.53 115.49 171.10 114.30 C 171.85 113.18 172.60 112.05 173.34 110.92 C 174.11 110.74 175.66 110.36 176.43 110.18 C 175.87 109.56 175.28 108.95 174.69 108.36 C 175.08 107.80 175.86 106.69 176.25 106.14 Z" />
<path fill="#ffffff" opacity="1.00" d=" M 197.58 115.62 C 196.68 112.40 197.50 109.09 197.43 105.81 C 198.02 108.91 198.62 112.01 199.11 115.12 C 198.73 115.25 197.96 115.50 197.58 115.62 Z" />
<path fill="#ffffff" opacity="1.00" d=" M 229.32 106.29 C 230.43 106.59 231.57 106.68 232.71 106.42 C 236.01 107.97 239.15 109.89 241.91 112.28 C 241.93 112.71 241.96 113.57 241.98 114.00 C 240.38 114.49 239.73 112.64 238.78 111.79 C 238.10 112.36 237.40 112.91 236.70 113.45 C 235.00 112.05 232.84 111.11 231.67 109.17 C 231.12 110.02 230.55 110.86 229.95 111.67 L 229.03 109.64 C 227.72 111.79 231.84 113.05 232.81 111.29 C 234.65 112.05 236.48 115.56 238.48 112.46 C 238.68 113.87 238.53 115.25 238.01 116.61 C 238.46 116.58 239.36 116.51 239.81 116.48 C 239.03 115.79 239.24 114.78 239.53 113.91 C 241.25 115.29 242.55 117.11 243.28 119.19 C 245.29 117.57 241.71 116.65 242.64 114.97 C 242.96 114.41 243.59 113.29 243.90 112.73 C 244.23 113.38 244.87 114.70 245.20 115.36 C 245.75 114.23 246.31 113.10 246.90 111.98 L 247.69 114.76 C 248.40 112.53 248.91 110.22 248.73 107.86 L 248.89 107.13 C 249.95 106.54 250.48 108.98 251.32 109.52 C 251.32 111.68 251.92 113.75 252.56 115.80 C 253.04 115.75 253.99 115.65 254.47 115.59 L 254.33 114.23 C 254.87 114.33 255.95 114.52 256.48 114.61 C 256.24 112.97 256.51 111.13 255.48 109.71 C 255.33 110.62 255.01 112.43 254.85 113.34 C 253.48 111.09 252.70 108.57 252.11 106.02 C 253.70 106.40 254.17 107.71 254.22 109.24 C 254.93 108.72 255.70 108.32 256.52 108.03 C 256.60 108.71 256.76 110.07 256.84 110.75 C 257.20 110.69 257.93 110.57 258.30 110.51 C 258.80 110.91 259.81 111.73 260.31 112.13 C 260.69 116.29 260.33 121.27 257.36 124.43 L 257.59 121.92 C 256.98 122.34 255.77 123.16 255.16 123.58 C 254.86 122.70 254.57 121.82 254.29 120.95 C 253.82 120.53 252.90 119.69 252.43 119.27 L 251.27 119.75 C 251.04 119.34 250.58 118.51 250.35 118.10 C 249.64 119.21 249.77 120.54 249.71 121.79 C 247.41 120.45 246.97 117.52 244.61 116.32 L 246.36 119.45 C 245.92 119.65 245.03 120.06 244.59 120.26 L 245.96 121.31 L 246.10 122.28 C 245.60 122.36 244.59 122.52 244.09 122.60 C 244.18 123.10 244.36 124.09 244.45 124.59 C 243.75 124.30 243.04 124.02 242.34 123.74 C 241.95 124.35 241.18 125.58 240.79 126.20 C 238.70 126.56 236.80 125.90 235.33 124.41 C 234.52 124.78 233.70 125.15 232.89 125.52 C 234.30 125.32 236.33 125.74 236.05 127.60 C 234.31 126.84 231.85 128.51 230.68 126.64 C 228.85 127.75 226.94 128.89 224.68 128.74 C 225.22 127.90 226.29 126.23 226.82 125.39 C 225.96 125.58 224.22 125.95 223.36 126.14 L 222.63 125.02 C 222.18 124.88 221.27 124.61 220.82 124.47 C 218.97 126.20 216.89 127.82 215.65 130.07 C 216.67 132.53 214.48 135.07 212.26 135.86 C 212.81 134.38 213.51 132.96 214.28 131.58 C 213.97 131.19 213.37 130.42 213.07 130.03 L 214.62 129.02 C 213.93 128.43 213.24 127.84 212.55 127.27 L 212.48 128.46 C 211.99 127.71 211.50 126.98 211.00 126.25 L 211.00 128.13 L 209.00 127.90 C 209.45 127.21 210.33 125.84 210.78 125.15 C 210.08 125.25 208.68 125.43 207.99 125.53 C 209.37 122.75 212.99 122.98 215.07 120.91 C 217.29 122.22 212.97 123.68 212.39 124.88 C 213.01 125.50 213.63 126.12 214.27 126.74 L 214.49 125.32 C 214.93 126.06 215.38 126.79 215.84 127.53 C 217.17 125.64 218.94 124.13 220.58 122.53 L 220.17 121.21 C 222.96 120.72 223.85 124.51 226.64 123.75 C 225.72 122.61 223.91 121.10 225.40 119.62 C 226.56 116.58 229.19 119.74 231.17 119.93 C 230.51 118.65 228.42 118.59 228.22 117.14 C 229.82 116.63 231.80 118.41 232.70 116.27 C 236.09 118.16 239.41 120.18 242.86 121.98 C 242.79 121.31 242.65 119.97 242.58 119.29 C 242.08 119.40 241.09 119.61 240.59 119.72 C 237.22 117.96 234.16 115.63 230.61 114.21 C 229.89 114.66 229.16 115.10 228.43 115.53 C 227.04 114.23 224.98 113.66 223.97 111.96 C 224.73 111.82 226.24 111.52 227.00 111.38 C 224.91 111.11 220.63 113.30 220.10 110.18 C 219.06 109.96 218.03 109.73 217.00 109.49 C 219.19 108.29 221.69 108.71 224.06 108.85 C 223.69 108.39 222.95 107.47 222.58 107.01 C 224.73 107.32 227.62 108.06 229.32 106.29 Z" />
<path fill="#ffffff" opacity="1.00" d=" M 158.17 115.18 C 159.22 114.52 160.26 113.84 161.30 113.17 C 162.32 113.84 163.45 114.34 164.69 114.44 C 161.86 117.10 159.08 119.81 156.42 122.63 C 155.99 121.96 155.56 121.28 155.14 120.61 C 156.38 119.70 157.61 118.77 158.81 117.82 C 158.15 117.82 156.83 117.82 156.17 117.82 C 156.83 116.94 157.50 116.06 158.17 115.18 M 160.62 114.86 C 159.08 115.47 158.81 116.19 159.82 117.02 C 161.14 116.63 161.41 115.91 160.62 114.86 Z" />
<path fill="#ffffff" opacity="1.00" d=" M 215.38 113.34 C 218.33 112.90 221.41 114.26 223.88 111.87 L 223.60 113.44 C 226.04 113.26 225.22 117.12 228.18 116.06 C 226.36 117.60 223.84 117.96 221.91 116.44 C 223.12 117.28 224.35 118.11 225.60 118.93 C 223.98 120.42 221.22 120.99 220.22 118.51 C 218.86 118.89 217.58 119.82 216.13 119.78 L 215.98 119.26 C 216.30 119.05 216.94 118.63 217.27 118.42 C 220.64 118.44 216.99 115.21 217.27 118.42 C 216.60 118.36 215.27 118.24 214.61 118.18 L 214.02 117.30 L 215.79 116.81 C 215.69 115.94 215.48 114.20 215.38 113.34 Z" />
<path fill="#ffffff" opacity="1.00" d=" M 260.84 115.21 C 261.08 114.93 261.57 114.37 261.81 114.10 C 262.09 114.43 262.66 115.08 262.95 115.41 C 262.23 116.38 261.53 116.31 260.84 115.21 Z" />
<path fill="#ffffff" opacity="1.00" d=" M 206.47 120.91 C 209.58 119.24 211.45 115.01 215.30 115.06 C 212.59 117.61 209.82 120.08 207.37 122.89 C 207.06 122.23 206.76 121.57 206.47 120.91 Z" />
<path fill="#ffffff" opacity="1.00" d=" M 271.24 114.64 L 271.61 114.64 C 272.32 116.16 273.01 117.82 273.05 119.53 C 272.77 119.57 272.23 119.63 271.96 119.66 C 271.53 118.06 270.69 116.31 271.24 114.64 Z" />
<path fill="#ffffff" opacity="1.00" d=" M 214.61 118.18 C 213.90 118.86 213.90 118.86 214.61 118.18 Z" />
<path fill="#ffffff" opacity="1.00" d=" M 260.22 118.38 C 260.91 118.09 262.29 117.49 262.98 117.20 C 263.12 119.09 263.08 120.99 262.98 122.89 C 262.56 122.79 261.72 122.61 261.30 122.52 C 260.80 123.10 259.80 124.26 259.30 124.84 C 259.96 122.75 260.48 120.60 260.22 118.38 Z" />
<path fill="#ffffff" opacity="1.00" d=" M 292.97 118.26 C 293.56 118.90 293.56 118.90 292.97 118.26 Z" />
<path fill="#ffffff" opacity="1.00" d=" M 179.01 130.50 C 181.00 126.23 184.20 122.72 188.03 120.02 C 187.24 123.80 183.38 125.93 182.39 129.57 L 181.38 129.27 C 181.98 131.64 180.29 133.91 178.35 135.05 C 179.21 133.38 180.18 131.78 181.18 130.18 L 179.01 130.50 Z" />
<path fill="#ffffff" opacity="1.00" d=" M 217.56 121.20 C 218.15 120.33 220.56 120.83 219.82 122.06 C 218.97 123.00 215.75 122.87 217.56 121.20 Z" />
<path fill="#ffffff" opacity="1.00" d=" M 168.13 126.19 C 170.94 126.11 171.48 122.21 174.32 121.78 C 173.25 124.53 171.77 127.09 169.97 129.42 C 170.29 130.17 170.61 130.91 170.93 131.66 C 169.17 131.12 168.06 131.63 167.59 133.18 C 167.40 132.81 167.00 132.07 166.80 131.70 C 165.62 131.48 164.64 130.80 163.71 130.08 C 164.41 129.38 165.80 128.00 166.50 127.31 L 164.23 127.31 C 165.62 125.74 167.10 124.24 168.68 122.85 C 168.54 123.68 168.27 125.35 168.13 126.19 Z" />
<path fill="#ffffff" opacity="1.00" d=" M 187.57 129.16 C 189.54 127.55 191.34 125.75 193.07 123.89 C 192.68 124.65 191.89 126.16 191.50 126.91 C 191.94 127.03 192.82 127.27 193.26 127.39 C 192.79 128.21 191.87 129.86 191.40 130.68 L 191.08 129.70 C 190.84 128.93 190.59 128.16 190.32 127.40 C 189.67 128.97 188.65 130.34 187.73 131.75 C 186.21 133.52 185.11 135.74 182.98 136.86 C 183.61 134.91 184.90 133.30 186.34 131.87 C 185.60 131.30 184.82 130.77 184.06 130.25 C 185.41 128.74 186.03 126.09 188.20 125.59 C 188.04 126.48 187.73 128.27 187.57 129.16 M 186.38 129.41 C 186.65 129.68 186.65 129.68 186.38 129.41 Z" />
<path fill="#ffffff" opacity="1.00" d=" M 263.29 124.46 C 266.88 122.75 264.23 129.91 262.67 126.29 C 262.83 125.83 263.14 124.92 263.29 124.46 Z" />
<path fill="#ffffff" opacity="1.00" d=" M 247.91 126.81 C 249.27 126.58 250.64 126.31 251.95 125.83 C 253.06 126.65 254.14 127.50 255.21 128.38 C 255.69 127.53 256.81 126.49 255.10 125.69 C 257.59 126.29 257.84 128.18 257.01 130.28 C 259.45 128.77 261.57 132.25 261.27 134.39 C 261.81 134.36 262.88 134.31 263.42 134.28 C 263.39 134.87 263.32 136.03 263.29 136.62 C 262.11 135.40 260.59 134.67 259.03 134.07 C 259.57 135.08 260.66 137.11 261.20 138.13 C 258.41 137.94 257.61 134.60 259.12 132.60 C 256.97 130.97 254.58 129.70 252.34 128.19 L 253.04 130.21 C 251.73 129.68 250.42 128.88 248.99 129.49 C 248.60 129.26 247.82 128.80 247.43 128.57 C 247.55 128.13 247.79 127.25 247.91 126.81 Z" />
<path fill="#ffffff" opacity="1.00" d=" M 218.94 128.47 C 220.32 128.00 221.70 127.52 223.10 127.11 C 221.23 129.81 219.26 132.40 218.67 135.77 C 218.24 136.01 217.37 136.49 216.94 136.73 C 217.14 136.13 217.55 134.93 217.75 134.32 L 216.19 133.66 C 217.34 132.07 218.40 130.38 218.94 128.47 Z" />
<path fill="#ffffff" opacity="1.00" d=" M 237.05 127.46 C 238.83 126.68 239.63 129.42 237.69 129.72 C 236.10 130.48 235.64 127.86 237.05 127.46 Z" />
<path fill="#ffffff" opacity="1.00" d=" M 258.61 126.85 C 260.12 126.71 260.75 127.45 260.48 129.08 C 258.85 129.30 258.23 128.56 258.61 126.85 Z" />
<path fill="#ffffff" opacity="1.00" d=" M 188.64 133.16 C 188.43 131.80 189.73 129.94 191.08 129.70 C 191.12 131.09 190.07 132.89 188.64 133.16 Z" />
<path fill="#ffffff" opacity="1.00" d=" M 193.44 130.25 C 194.68 129.57 194.97 131.26 193.98 131.77 C 192.98 132.39 192.73 134.57 191.35 134.29 C 190.74 132.73 192.21 131.07 193.44 130.25 Z" />
<path fill="#ffffff" opacity="1.00" d=" M 198.37 130.20 C 199.15 130.57 200.88 130.08 200.68 131.44 C 199.89 132.72 198.87 133.82 197.86 134.92 C 197.72 134.18 197.44 132.72 197.30 131.99 C 197.57 131.54 198.11 130.65 198.37 130.20 Z" />
<path fill="#ffffff" opacity="1.00" d=" M 225.61 129.29 C 226.40 129.35 227.99 129.46 228.78 129.51 C 228.65 130.08 228.41 131.20 228.29 131.77 L 229.88 131.52 C 229.18 133.03 228.40 134.52 228.05 136.16 C 229.79 135.73 229.47 133.07 231.58 133.09 C 231.67 133.82 231.84 135.27 231.92 136.00 C 229.34 139.72 227.99 144.23 225.15 147.86 L 224.85 146.14 L 224.12 146.11 C 224.50 147.18 224.84 148.27 225.14 149.36 C 224.80 149.18 224.13 148.82 223.79 148.64 L 223.62 147.52 C 222.01 145.67 219.32 143.43 220.83 140.75 C 218.87 143.48 215.96 145.54 214.72 148.75 C 213.26 150.70 211.18 152.08 209.59 153.92 C 208.82 154.32 208.02 154.61 207.19 154.78 C 207.18 154.30 207.15 153.34 207.13 152.86 C 208.45 152.69 209.38 151.97 209.92 150.69 C 211.00 150.24 212.43 149.35 210.74 148.49 C 212.46 145.89 213.81 143.01 216.35 141.04 C 214.70 141.67 213.05 142.29 211.40 142.90 C 213.10 141.10 215.28 139.86 217.64 139.13 C 219.49 137.67 221.22 135.37 223.82 135.51 C 224.43 133.44 225.05 131.38 225.61 129.29 M 223.94 138.99 C 226.79 138.84 226.41 135.11 226.74 133.06 C 225.57 134.92 224.59 136.89 223.94 138.99 M 227.29 136.84 C 227.83 137.50 227.83 137.50 227.29 136.84 Z" />
<path fill="#ffffff" opacity="1.00" d=" M 170.61 138.88 C 173.29 136.64 175.04 133.44 177.82 131.23 C 177.11 133.26 176.51 135.41 174.89 136.93 C 171.96 140.07 170.90 144.88 167.06 147.13 C 167.66 144.64 169.49 142.75 171.05 140.82 C 170.89 140.17 170.75 139.53 170.61 138.88 Z" />
<path fill="#ffffff" opacity="1.00" d=" M 241.85 131.32 C 242.81 131.60 243.77 131.90 244.73 132.21 C 245.68 133.53 247.51 134.23 248.78 132.87 C 250.78 133.57 252.91 133.50 255.00 133.39 C 254.15 134.03 253.31 134.68 252.47 135.34 C 249.22 134.87 245.90 134.52 242.88 133.12 C 243.34 133.81 244.25 135.20 244.70 135.90 C 242.25 136.07 242.16 133.06 241.85 131.32 Z" />
<path fill="#ffffff" opacity="1.00" d=" M 236.43 141.82 C 236.85 138.99 235.76 134.79 239.13 133.43 C 239.88 134.27 240.64 135.10 241.40 135.93 C 242.76 136.26 243.80 137.09 244.39 138.37 L 245.26 136.94 C 248.48 136.41 245.35 140.65 243.73 140.62 C 243.08 139.81 242.39 139.03 241.67 138.29 L 241.56 141.03 C 239.80 138.96 238.32 141.20 236.43 141.82 Z" />
<path fill="#ffffff" opacity="1.00" d=" M 192.42 135.50 C 193.69 135.33 194.73 134.53 195.86 133.98 C 194.13 136.28 191.69 138.02 190.46 140.69 C 189.57 141.89 188.61 143.05 187.63 144.19 C 187.98 144.40 188.68 144.81 189.04 145.01 C 188.12 145.98 188.04 146.81 188.79 147.52 C 189.13 147.08 189.79 146.19 190.12 145.74 C 189.85 145.56 189.31 145.19 189.04 145.01 C 189.37 143.86 189.80 142.75 190.32 141.67 C 190.80 142.61 191.27 143.57 191.79 144.50 C 192.96 142.07 195.03 140.28 196.62 138.15 C 196.71 138.53 196.90 139.30 196.99 139.69 L 195.44 139.91 L 196.35 141.17 C 194.07 140.77 193.20 143.34 192.80 145.08 C 192.33 145.24 191.39 145.55 190.92 145.70 C 190.92 146.69 191.42 147.16 192.41 147.10 C 192.51 146.60 192.70 145.59 192.80 145.08 C 194.64 144.56 195.71 142.85 196.35 141.17 C 196.94 141.05 198.12 140.83 198.71 140.71 C 197.81 138.81 200.52 138.51 200.67 136.84 C 202.29 136.74 203.46 135.51 204.93 134.97 C 202.72 137.38 200.94 140.13 198.83 142.62 C 198.48 142.49 197.77 142.22 197.42 142.09 C 195.68 145.35 192.80 147.74 190.36 150.45 C 193.80 151.13 194.81 145.55 198.17 145.12 C 196.86 148.24 194.04 150.36 191.99 152.99 C 189.50 155.46 187.81 158.57 185.52 161.22 C 186.25 162.14 186.57 163.45 187.76 163.91 C 187.86 165.14 187.54 166.29 186.78 167.37 C 186.26 166.47 185.78 165.55 185.25 164.66 C 184.05 168.44 180.93 171.25 178.45 174.21 C 179.19 172.19 180.02 170.20 180.94 168.25 C 179.68 169.32 178.65 170.61 177.60 171.89 C 177.45 170.93 177.29 169.97 177.13 169.02 C 178.49 166.69 180.61 165.13 182.84 163.73 C 183.16 160.85 185.40 158.96 186.99 156.74 L 186.52 155.69 C 188.36 156.27 189.59 154.22 189.15 152.62 C 188.02 153.41 187.14 154.44 186.52 155.69 C 185.70 156.81 184.81 157.89 183.86 158.91 C 183.46 158.29 183.07 157.66 182.68 157.03 C 181.75 157.98 180.77 158.89 179.76 159.76 C 180.64 159.63 182.39 159.38 183.26 159.26 C 182.18 161.21 180.73 162.80 178.92 164.01 C 179.09 160.90 177.36 163.83 176.03 164.10 C 174.74 164.27 172.56 165.58 172.94 163.22 C 174.82 162.80 176.07 160.92 176.07 159.06 L 179.29 156.43 C 178.45 157.90 176.76 160.84 175.92 162.31 C 177.73 160.58 180.96 158.12 179.00 155.21 L 180.68 157.08 C 182.58 154.06 185.56 151.91 187.32 148.79 C 184.88 150.87 182.72 153.25 180.34 155.39 C 180.02 152.82 181.76 151.03 182.72 148.91 C 183.52 145.96 185.73 143.76 187.19 141.15 C 188.64 139.10 192.91 138.54 192.42 135.50 M 189.28 148.00 L 188.71 148.41 L 189.01 149.36 L 189.93 149.56 C 189.93 149.21 189.94 148.51 189.95 148.16 L 189.28 148.00 Z" />
<path fill="#ffffff" opacity="1.00" d=" M 170.00 138.18 C 169.97 136.78 170.64 136.12 172.01 136.20 C 172.04 137.61 171.37 138.27 170.00 138.18 Z" />
<path fill="#ffffff" opacity="1.00" d=" M 253.05 136.56 C 254.00 136.72 254.95 136.88 255.91 137.03 C 256.54 138.19 257.18 139.35 257.81 140.51 C 256.26 140.53 254.72 140.61 253.18 140.62 C 252.99 139.27 253.04 137.91 253.05 136.56 Z" />
<path fill="#ffffff" opacity="1.00" d=" M 180.39 145.35 C 182.27 142.21 184.37 139.13 187.11 136.67 C 186.91 137.39 186.53 138.84 186.33 139.57 C 185.66 140.18 184.98 140.78 184.29 141.37 C 184.30 141.99 184.33 143.24 184.34 143.87 L 183.28 143.54 C 183.43 143.80 183.73 144.30 183.88 144.56 C 182.29 146.39 181.34 148.92 178.96 149.89 C 179.47 148.38 180.06 146.90 180.39 145.35 Z" />
<path fill="#ffffff" opacity="1.00" d=" M 204.59 138.17 C 205.30 141.51 207.06 136.79 208.85 137.01 C 207.23 139.04 205.35 140.84 203.48 142.64 C 203.41 143.80 203.34 144.97 203.29 146.14 C 205.81 145.20 206.33 141.47 209.37 141.79 C 207.24 145.51 202.25 147.03 201.19 151.59 C 200.33 152.62 198.95 153.43 199.28 155.09 C 198.77 154.58 197.76 153.56 197.25 153.05 C 196.45 155.73 194.45 157.78 193.09 160.17 L 192.45 160.08 L 193.18 162.32 L 191.17 160.92 C 190.29 162.15 189.42 163.40 188.57 164.65 C 188.37 164.47 187.96 164.10 187.76 163.91 C 188.20 161.80 190.02 160.44 191.23 158.78 C 191.37 158.64 191.66 158.36 191.80 158.22 C 191.98 158.04 192.33 157.69 192.50 157.52 C 193.66 156.37 193.66 156.37 192.50 157.52 C 192.33 157.69 191.98 158.04 191.80 158.22 C 191.66 158.36 191.37 158.64 191.23 158.78 C 190.28 158.73 189.33 158.65 188.39 158.54 C 192.20 156.05 194.84 152.18 197.19 148.36 C 197.66 149.10 198.09 149.87 198.60 150.59 C 199.28 149.61 200.85 148.90 200.71 147.65 C 199.83 147.49 198.92 147.59 198.04 147.48 L 200.21 144.88 C 199.70 144.94 198.68 145.06 198.17 145.12 C 198.38 143.45 200.11 143.55 201.39 143.61 C 201.39 141.79 203.14 140.88 204.23 139.72 C 204.32 139.33 204.50 138.56 204.59 138.17 Z" />
<path fill="#ffffff" opacity="1.00" d=" M 245.88 141.01 C 246.69 139.76 247.31 135.86 249.38 137.73 C 251.78 136.67 252.88 139.20 251.96 141.20 C 249.99 141.67 247.80 141.77 245.88 141.01 Z" />
<path fill="#ffffff" opacity="1.00" d=" M 232.34 137.33 C 233.03 138.00 234.34 139.15 233.28 140.15 C 231.64 142.59 229.87 144.98 228.74 147.71 C 228.27 147.70 227.33 147.68 226.87 147.67 C 228.75 144.26 230.91 140.98 232.34 137.33 Z" />
<path fill="#ffffff" opacity="1.00" d=" M 266.00 145.27 C 265.98 142.86 266.03 140.41 266.66 138.07 C 268.22 141.41 269.38 147.02 265.85 149.35 C 265.29 148.01 264.84 146.65 264.14 145.37 L 263.37 147.08 L 262.63 146.85 C 262.79 144.17 262.24 141.51 262.06 138.85 C 264.08 140.24 264.98 142.53 264.76 144.97 C 265.07 145.05 265.69 145.20 266.00 145.27 Z" />
<path fill="#ffffff" opacity="1.00" d=" M 170.63 152.46 C 176.43 149.00 177.45 140.96 183.71 137.93 C 182.55 140.90 179.94 142.98 178.59 145.88 C 176.60 148.74 174.30 152.72 170.31 152.54 C 168.48 154.38 167.09 156.60 166.25 159.07 C 167.17 158.64 169.01 157.79 169.93 157.36 C 169.41 157.95 168.90 158.53 168.39 159.12 C 168.45 159.74 168.57 160.99 168.62 161.61 C 167.04 163.77 164.56 165.01 163.21 167.39 C 162.91 167.53 162.33 167.81 162.04 167.95 C 163.16 165.61 165.63 164.02 165.87 161.27 C 165.15 161.53 163.70 162.04 162.97 162.29 L 164.70 157.69 C 162.39 158.80 162.07 162.70 159.25 162.90 C 160.40 161.12 162.02 159.54 162.26 157.32 C 161.10 158.25 160.10 159.46 158.68 160.03 C 159.99 157.67 161.78 155.65 163.31 153.45 C 163.85 153.27 164.92 152.91 165.46 152.73 C 166.70 150.90 167.93 148.89 169.96 147.85 C 168.44 150.12 167.21 152.54 166.27 155.12 C 169.74 152.08 171.35 147.45 175.13 144.69 C 173.88 147.42 172.00 149.79 170.63 152.46 Z" />
<path fill="#ffffff" opacity="1.00" d=" M 160.16 146.34 C 161.43 144.30 162.81 142.28 164.65 140.70 L 164.58 143.27 C 164.09 143.61 163.12 144.27 162.64 144.61 L 165.18 144.24 C 162.94 146.70 162.10 150.69 159.01 152.21 C 159.08 149.78 160.87 148.11 162.35 146.41 L 160.16 146.34 Z" />
<path fill="#ffffff" opacity="1.00" d=" M 174.37 142.05 C 176.23 140.91 175.63 143.74 174.52 144.12 C 172.68 145.51 173.03 142.35 174.37 142.05 Z" />
<path fill="#ffffff" opacity="1.00" d=" M 237.56 143.32 C 237.89 141.74 240.49 141.65 240.10 143.55 C 239.80 144.92 236.68 145.15 237.56 143.32 Z" />
<path fill="#ffffff" opacity="1.00" d=" M 229.80 147.26 C 230.89 145.50 232.01 143.76 233.08 142.00 C 233.48 142.48 234.28 143.44 234.69 143.92 C 234.17 146.84 232.68 149.45 231.49 152.12 C 232.30 152.67 233.16 153.18 234.01 153.69 C 233.23 155.31 232.50 156.96 232.04 158.71 C 230.01 157.30 230.78 155.59 232.26 153.98 C 230.32 153.61 229.24 152.02 228.28 150.43 C 228.98 149.47 229.75 148.51 229.80 147.26 Z" />
<path fill="#ffffff" opacity="1.00" d=" M 206.93 146.84 C 207.99 145.51 209.77 145.25 211.23 144.60 C 211.54 146.34 210.50 147.85 208.66 147.66 C 206.82 149.69 206.01 152.88 203.30 153.90 C 202.89 155.32 202.16 156.62 201.22 157.75 C 201.03 157.03 200.66 155.60 200.47 154.88 C 201.92 151.66 204.74 149.50 206.93 146.84 Z" />
<path fill="#ffffff" opacity="1.00" d=" M 215.42 148.16 C 216.91 147.15 218.34 146.08 219.72 144.92 L 218.96 146.69 L 217.90 147.32 C 218.36 148.24 218.36 149.65 219.54 149.98 C 217.18 148.56 219.72 147.36 220.79 146.62 C 221.03 147.09 221.52 148.03 221.76 148.49 C 219.91 151.93 217.15 154.90 215.99 158.68 C 213.57 155.39 211.04 159.90 209.88 161.99 C 212.90 162.79 213.31 158.68 215.88 159.36 C 214.31 162.09 212.75 164.85 211.63 167.80 C 211.19 166.57 210.74 165.34 210.23 164.14 C 210.10 166.42 207.81 167.03 206.72 168.64 C 205.23 170.87 203.54 172.95 201.86 175.04 C 202.55 175.18 203.94 175.45 204.64 175.59 C 205.23 174.32 205.98 173.12 206.86 172.02 C 206.70 173.25 206.51 174.49 205.98 175.62 L 204.94 177.78 C 204.43 177.02 203.93 176.25 203.43 175.49 C 202.89 176.78 202.37 178.08 201.87 179.39 L 203.10 177.21 C 203.51 177.91 203.91 178.62 204.32 179.32 C 201.86 180.95 201.67 184.49 200.05 186.89 C 198.06 189.90 198.50 193.53 197.83 196.90 L 197.02 196.97 C 197.23 195.93 197.66 193.83 197.87 192.78 C 196.19 194.58 194.25 196.11 192.57 197.91 C 192.30 197.88 191.75 197.81 191.48 197.78 C 193.21 194.24 193.63 189.17 197.50 187.30 C 197.54 183.81 197.17 180.21 198.73 176.96 C 201.73 172.80 205.77 169.55 208.17 164.93 C 207.70 164.84 206.75 164.65 206.28 164.56 C 208.96 160.97 210.97 156.94 212.93 152.93 L 213.82 153.75 C 214.46 152.25 214.80 150.67 214.81 149.04 L 217.39 149.53 C 216.73 149.07 216.07 148.61 215.42 148.16 M 213.96 156.42 C 215.49 154.89 217.80 153.46 217.87 151.09 C 215.82 152.03 215.15 154.64 213.96 156.42 M 211.27 163.72 C 211.73 163.98 211.73 163.98 211.27 163.72 Z" />
<path fill="#ffffff" opacity="1.00" d=" M 225.83 147.48 C 227.84 148.16 228.17 149.99 227.09 151.66 C 226.30 151.70 224.73 151.78 223.94 151.82 C 224.69 150.43 226.00 149.22 225.83 147.48 Z" />
<path fill="#ffffff" opacity="1.00" d=" M 210.54 153.73 C 211.39 152.81 212.37 152.11 213.49 151.63 C 213.35 151.96 213.07 152.61 212.93 152.93 C 212.12 154.28 211.13 155.42 209.96 156.36 C 209.63 155.39 209.82 154.51 210.54 153.73 Z" />
<path fill="#ffffff" opacity="1.00" d=" M 262.88 151.39 L 264.18 151.59 C 263.24 154.05 262.30 156.52 261.56 159.06 C 259.67 157.97 261.44 155.75 261.40 154.15 L 261.99 154.40 C 262.21 153.64 262.66 152.14 262.88 151.39 Z" />
<path fill="#ffffff" opacity="1.00" d=" M 236.05 154.69 L 236.77 154.66 C 236.71 155.08 236.60 155.92 236.55 156.34 L 235.81 156.37 C 235.87 155.95 235.99 155.11 236.05 154.69 Z" />
<path fill="#ffffff" opacity="1.00" d=" M 334.18 153.65 C 337.43 155.25 335.07 158.97 335.53 161.70 C 335.16 161.52 334.40 161.17 334.03 160.99 C 332.22 158.75 333.57 156.07 334.18 153.65 Z" />
<path fill="#ffffff" opacity="1.00" d=" M 170.78 163.19 C 173.16 160.42 174.89 157.00 177.84 154.77 C 177.21 156.18 176.19 157.47 176.07 159.06 L 175.57 159.17 C 173.98 159.83 173.21 161.62 172.94 163.22 C 172.40 163.21 171.32 163.20 170.78 163.19 Z" />
<path fill="#ffffff" opacity="1.00" d=" M 197.55 155.53 C 198.22 155.45 199.57 155.31 200.24 155.23 C 198.35 159.85 195.21 163.75 192.69 168.01 C 193.15 167.62 194.07 166.85 194.54 166.46 L 195.55 166.89 C 195.14 167.72 194.32 169.38 193.92 170.22 C 196.13 168.34 198.35 166.37 199.74 163.78 C 198.40 164.59 197.12 165.49 195.81 166.35 L 195.03 165.54 C 197.30 163.11 198.48 159.74 201.22 157.75 C 201.10 158.46 200.88 159.88 200.77 160.59 C 201.38 160.20 202.61 159.42 203.23 159.02 C 202.42 161.29 200.07 162.93 200.56 165.56 C 198.50 168.81 195.11 171.09 193.02 174.38 L 193.46 175.67 L 192.76 174.91 C 192.10 175.39 190.79 176.34 190.13 176.81 C 189.84 174.36 191.98 172.82 193.15 170.97 C 191.54 172.38 189.74 173.73 188.80 175.72 C 186.96 179.45 184.19 182.58 181.53 185.73 C 182.86 185.10 183.97 184.20 184.86 183.02 L 184.94 184.21 C 184.81 185.27 185.22 185.87 186.19 186.00 C 186.30 185.46 186.53 184.38 186.65 183.83 C 186.22 183.93 185.37 184.11 184.94 184.21 C 185.78 182.67 186.58 181.07 187.80 179.78 C 187.92 180.37 188.16 181.55 188.28 182.14 C 189.86 179.88 191.51 177.64 193.46 175.67 C 196.19 171.45 200.94 169.74 204.05 165.94 C 203.66 168.25 201.52 169.58 200.29 171.42 C 199.35 172.27 198.94 174.52 197.15 173.30 C 198.40 175.53 196.85 177.47 195.80 179.34 L 197.12 179.30 C 196.96 180.74 196.80 182.20 196.97 183.65 C 195.18 186.41 193.22 189.09 191.90 192.12 C 191.17 193.40 190.88 195.15 189.39 195.80 C 189.86 194.60 190.35 193.42 190.87 192.24 C 190.06 192.44 188.43 192.82 187.62 193.02 C 188.26 191.83 188.90 190.64 189.54 189.45 C 188.98 189.43 187.84 189.39 187.28 189.37 C 187.48 188.64 187.90 187.20 188.10 186.48 C 186.55 187.84 185.55 189.67 184.10 191.13 C 184.24 190.51 184.51 189.27 184.65 188.65 C 184.32 187.96 184.00 187.27 183.68 186.58 L 182.71 188.67 C 182.37 187.03 181.42 185.76 179.75 185.39 C 181.76 182.97 183.82 180.57 185.65 178.01 C 185.23 177.72 184.39 177.14 183.97 176.85 C 183.26 178.60 181.96 180.01 181.17 181.72 C 180.43 181.58 178.95 181.31 178.21 181.18 C 178.28 181.57 178.44 182.35 178.52 182.74 C 177.62 182.51 176.74 182.26 175.86 181.98 C 176.89 179.60 179.07 177.96 180.95 176.26 L 179.06 176.42 C 180.83 172.55 184.38 169.82 187.49 167.06 C 187.62 167.34 187.90 167.88 188.03 168.15 C 186.90 171.20 183.33 172.64 182.90 176.07 C 185.12 173.67 187.37 171.28 189.42 168.72 L 190.19 169.19 C 190.06 169.66 189.78 170.60 189.65 171.07 L 189.15 171.44 L 189.07 172.09 C 188.29 172.71 188.29 172.71 189.07 172.09 C 189.22 171.83 189.50 171.32 189.65 171.07 C 190.99 170.80 191.73 169.97 191.86 168.58 C 191.45 168.74 190.61 169.04 190.19 169.19 C 190.43 168.11 190.69 167.03 190.97 165.95 C 189.99 166.69 189.13 167.60 188.03 168.15 C 187.37 166.04 189.58 164.86 190.62 163.41 C 191.31 162.38 192.30 162.05 193.58 162.40 C 193.43 161.91 193.13 160.94 192.98 160.45 C 195.27 160.18 197.97 158.04 197.55 155.53 M 194.49 176.38 C 193.38 179.04 197.39 176.76 195.19 175.84 L 194.49 176.38 Z" />
<path fill="#ffffff" opacity="1.00" d=" M 207.30 156.12 C 208.58 155.73 210.10 158.45 208.44 158.71 C 207.43 157.83 206.34 158.66 205.29 158.79 C 205.02 157.60 206.34 156.61 207.30 156.12 Z" />
<path fill="#ffffff" opacity="1.00" d=" M 260.71 154.56 C 260.48 155.47 260.02 157.29 259.79 158.20 L 259.29 158.02 C 258.12 161.16 256.56 164.29 253.55 166.05 C 254.36 164.69 254.67 163.27 254.48 161.79 C 256.27 161.75 258.31 158.67 257.22 156.93 C 258.09 156.34 259.84 155.15 260.71 154.56 Z" />
<path fill="#ffffff" opacity="1.00" d=" M 233.40 158.78 C 234.00 159.44 234.00 159.44 233.40 158.78 Z" />
<path fill="#ffffff" opacity="1.00" d=" M 319.27 159.02 C 321.73 158.14 320.36 161.78 318.68 161.58 C 317.12 161.39 318.38 159.31 319.27 159.02 Z" />
<path fill="#ffffff" opacity="1.00" d=" M 268.48 162.95 C 267.49 161.73 269.23 159.35 270.64 160.44 C 272.41 161.68 269.98 164.21 268.48 162.95 Z" />
<path fill="#ffffff" opacity="1.00" d=" M 324.68 159.79 C 326.59 159.87 328.50 160.07 330.40 160.36 C 330.80 161.57 331.60 162.29 332.81 162.52 C 332.74 163.10 332.59 164.25 332.52 164.83 C 333.35 164.86 335.01 164.92 335.85 164.95 C 336.11 166.76 337.16 168.26 338.00 169.84 C 335.10 168.32 332.68 165.95 329.42 165.18 C 330.20 164.38 330.99 163.59 331.77 162.79 C 329.34 162.56 325.94 162.24 324.68 159.79 Z" />
<path fill="#ffffff" opacity="1.00" d=" M 321.25 160.93 C 324.98 159.87 321.13 165.64 320.25 162.31 C 320.50 161.96 321.00 161.28 321.25 160.93 Z" />
<path fill="#ffffff" opacity="1.00" d=" M 264.83 161.91 C 265.44 162.54 265.44 162.54 264.83 161.91 Z" />
<path fill="#ffffff" opacity="1.00" d=" M 311.34 163.18 C 312.99 163.29 311.70 165.65 310.63 165.73 C 308.93 165.64 310.23 163.24 311.34 163.18 Z" />
<path fill="#ffffff" opacity="1.00" d=" M 267.35 164.25 C 267.60 164.51 268.10 165.04 268.34 165.30 C 267.57 166.37 266.82 166.46 266.08 165.56 C 266.40 165.23 267.04 164.58 267.35 164.25 Z" />
<path fill="#ffffff" opacity="1.00" d=" M 274.14 164.30 C 274.76 164.92 274.76 164.92 274.14 164.30 Z" />
<path fill="#ffffff" opacity="1.00" d=" M 174.99 164.41 C 176.33 164.55 177.68 164.65 179.03 164.70 C 176.72 165.53 176.10 168.34 173.76 169.12 C 174.20 167.53 176.86 166.10 174.99 164.41 Z" />
<path fill="#ffffff" opacity="1.00" d=" M 263.23 164.84 C 263.96 165.65 263.97 166.65 263.27 167.85 C 262.92 167.83 262.23 167.81 261.89 167.79 C 262.22 167.06 262.89 165.58 263.23 164.84 Z" />
<path fill="#ffffff" opacity="1.00" d=" M 269.47 168.81 C 267.90 168.99 268.20 165.20 269.60 165.25 C 270.12 166.46 270.08 167.65 269.47 168.81 Z" />
<path fill="#ffffff" opacity="1.00" d=" M 195.55 166.89 C 195.62 166.75 195.74 166.48 195.81 166.35 C 195.74 166.48 195.62 166.75 195.55 166.89 Z" />
<path fill="#ffffff" opacity="1.00" d=" M 263.68 167.36 C 265.50 166.84 267.84 166.96 267.86 169.46 C 268.32 169.41 269.25 169.30 269.72 169.24 C 270.10 172.77 269.49 176.25 268.78 179.69 C 265.26 178.11 268.42 173.81 267.51 170.95 C 266.71 172.29 266.45 173.82 266.44 175.37 C 265.97 175.38 265.02 175.39 264.55 175.39 C 264.58 175.92 264.66 176.98 264.69 177.50 C 263.65 177.45 261.57 177.34 260.53 177.29 C 260.81 174.62 259.99 171.66 261.18 169.19 C 264.12 169.17 261.84 172.99 262.38 174.72 C 264.10 172.60 263.43 169.85 263.68 167.36 Z" />
<path fill="#ffffff" opacity="1.00" d=" M 303.23 174.41 C 305.57 172.69 306.35 169.35 308.95 168.06 C 308.38 169.06 307.79 170.05 307.18 171.02 C 308.11 172.37 309.13 173.68 310.03 175.06 C 310.00 176.92 308.27 178.52 306.36 178.00 C 306.86 177.15 307.86 175.45 308.36 174.60 C 306.69 177.13 304.92 175.10 303.23 174.41 Z" />
<path fill="#ffffff" opacity="1.00" d=" M 259.18 169.71 C 262.02 172.21 256.68 175.01 259.75 177.17 C 258.45 177.86 255.84 179.22 254.53 179.90 C 255.86 176.41 257.30 172.94 259.18 169.71 Z" />
<path fill="#ffffff" opacity="1.00" d=" M 330.61 174.04 C 333.23 171.17 337.47 171.59 340.97 171.01 L 340.05 172.59 C 343.08 172.38 344.88 175.21 347.12 176.71 C 344.05 176.12 340.96 176.42 337.99 177.28 C 338.65 176.61 339.96 175.26 340.61 174.58 C 336.70 174.98 333.65 178.05 329.71 178.15 C 330.87 176.65 332.63 175.92 334.30 175.15 C 336.25 174.08 339.71 174.75 340.18 171.97 C 337.32 172.89 334.41 173.60 331.60 174.64 C 329.21 175.57 327.43 177.78 324.81 178.14 C 325.54 175.50 328.46 175.03 330.61 174.04 Z" />
<path fill="#ffffff" opacity="1.00" d=" M 270.13 174.24 C 270.54 174.30 271.37 174.43 271.78 174.49 C 272.04 178.63 269.73 182.41 270.21 186.50 C 269.28 185.97 268.35 185.45 267.43 184.95 L 267.58 187.12 C 265.05 186.02 264.23 183.20 263.24 180.87 C 262.91 180.36 262.25 179.35 261.92 178.84 C 262.99 178.54 264.07 178.23 265.14 177.92 C 266.29 179.41 267.39 181.43 269.64 180.96 C 269.65 178.72 269.52 176.42 270.13 174.24 Z" />
<path fill="#ffffff" opacity="1.00" d=" M 343.43 178.19 C 344.94 179.18 347.56 175.90 347.94 178.18 C 348.84 180.66 345.73 179.31 344.52 179.29 C 343.46 179.10 343.10 178.73 343.43 178.19 Z" />
<path fill="#ffffff" opacity="1.00" d=" M 187.54 179.12 C 188.07 178.82 189.13 178.21 189.66 177.91 C 189.41 178.46 188.90 179.54 188.65 180.08 L 187.80 179.78 L 187.54 179.12 Z" />
<path fill="#ffffff" opacity="1.00" d=" M 334.29 178.11 C 337.19 176.53 334.46 181.43 334.29 178.11 Z" />
<path fill="#ffffff" opacity="1.00" d=" M 316.06 191.34 C 319.64 187.19 321.68 180.64 327.72 179.58 C 326.20 182.07 323.33 183.29 321.79 185.76 C 320.53 187.58 319.33 189.43 318.16 191.31 C 318.06 193.70 317.09 195.95 315.46 197.71 C 316.16 197.38 317.56 196.73 318.26 196.40 L 318.75 197.46 C 318.24 198.07 317.23 199.28 316.73 199.89 C 316.19 199.11 315.65 198.34 315.08 197.58 C 314.10 200.48 313.31 203.44 312.46 206.38 C 312.14 206.49 311.48 206.70 311.16 206.81 C 312.45 202.38 313.98 197.98 316.35 194.00 C 316.28 193.34 316.14 192.01 316.06 191.34 Z" />
<path fill="#ffffff" opacity="1.00" d=" M 338.79 180.58 C 339.50 180.14 340.23 179.71 340.96 179.29 C 341.29 179.50 341.93 179.93 342.26 180.14 C 341.44 180.83 339.82 182.20 339.01 182.88 C 341.19 182.49 343.17 181.50 345.02 180.32 C 348.00 179.89 349.96 182.35 352.07 183.98 C 351.59 185.13 351.81 186.89 350.26 187.24 C 350.49 186.65 350.96 185.45 351.19 184.85 C 349.75 183.41 347.84 182.68 346.00 181.92 C 343.73 182.61 341.71 183.83 340.07 185.55 L 341.12 186.99 C 339.51 187.28 337.90 187.43 336.27 187.35 L 336.65 188.42 C 333.90 189.00 332.66 191.96 330.31 193.31 C 326.83 195.62 324.10 198.81 320.89 201.37 L 321.74 197.95 C 317.62 200.53 318.45 206.02 315.16 208.99 C 315.33 207.35 315.66 205.75 316.09 204.17 C 318.23 200.91 320.02 197.44 322.45 194.36 C 322.58 194.57 322.85 194.99 322.98 195.20 C 322.93 195.71 322.85 196.72 322.80 197.23 C 322.39 197.67 322.39 197.67 322.80 197.23 C 325.59 195.31 327.74 192.62 330.59 190.78 C 330.99 189.19 336.46 186.84 332.31 186.73 C 333.82 184.39 336.80 183.79 338.80 182.13 C 338.80 181.74 338.79 180.96 338.79 180.58 Z" />
<path fill="#ffffff" opacity="1.00" d=" M 259.34 179.17 C 261.66 181.49 263.52 184.22 265.70 186.68 C 265.27 186.97 264.42 187.55 263.99 187.84 C 261.69 185.46 259.61 182.58 259.34 179.17 Z" />
<path fill="#ffffff" opacity="1.00" d=" M 250.00 182.41 C 251.52 182.84 253.17 185.16 252.88 186.84 C 251.27 186.71 249.37 184.00 250.00 182.41 Z" />
<path fill="#ffffff" opacity="1.00" d=" M 252.93 184.52 C 253.38 183.54 253.90 182.59 254.51 181.70 C 254.51 182.15 254.50 183.04 254.50 183.49 C 256.89 184.24 257.68 187.10 260.00 188.02 C 260.13 188.73 260.41 190.15 260.55 190.86 C 258.31 189.18 254.57 187.42 254.53 184.30 L 252.93 184.52 Z" />
<path fill="#ffffff" opacity="1.00" d=" M 255.84 182.48 C 256.70 182.48 257.56 182.47 258.43 182.46 C 259.36 184.93 261.45 186.88 263.52 188.44 L 263.07 189.82 C 262.02 189.25 261.00 188.65 260.00 188.02 C 258.81 186.04 257.88 183.77 255.84 182.48 Z" />
<path fill="#ffffff" opacity="1.00" d=" M 294.22 187.13 C 291.36 187.00 290.78 183.23 293.54 182.35 C 293.85 182.73 294.46 183.50 294.76 183.88 L 294.98 182.03 C 295.43 182.12 296.33 182.30 296.78 182.40 C 296.41 182.85 295.68 183.76 295.32 184.21 C 295.47 184.96 295.77 186.45 295.92 187.20 L 294.52 187.36 C 294.65 186.78 294.91 185.62 295.04 185.04 L 294.18 185.13 C 294.19 185.63 294.21 186.63 294.22 187.13 Z" />
<path fill="#ffffff" opacity="1.00" d=" M 248.21 182.82 C 249.18 183.81 249.40 185.19 249.62 186.50 L 250.37 186.54 C 250.34 189.08 252.42 188.68 253.53 187.07 C 254.48 188.49 255.66 189.86 255.95 191.60 C 254.26 190.81 252.60 189.94 250.85 189.30 C 250.13 188.62 248.71 187.28 247.99 186.60 C 248.32 187.53 248.98 189.38 249.31 190.30 C 247.52 189.46 246.80 187.61 245.97 185.96 C 246.69 186.18 248.14 186.60 248.86 186.82 C 248.70 185.82 248.37 183.82 248.21 182.82 Z" />
<path fill="#ffffff" opacity="1.00" d=" M 308.11 189.49 C 309.83 186.68 311.97 184.05 315.17 182.91 C 314.99 183.31 314.62 184.13 314.44 184.54 C 312.86 186.60 311.70 188.92 310.65 191.27 C 310.44 190.79 310.03 189.84 309.82 189.36 C 309.39 189.39 308.54 189.45 308.11 189.49 Z" />
<path fill="#ffffff" opacity="1.00" d=" M 314.44 184.54 C 316.17 185.24 317.31 183.19 319.02 183.21 C 316.66 186.11 314.42 189.09 312.60 192.37 L 310.90 193.21 C 311.10 189.97 315.48 187.78 314.44 184.54 Z" />
<path fill="#ffffff" opacity="1.00" d=" M 178.27 184.25 C 178.91 184.80 178.91 184.80 178.27 184.25 Z" />
<path fill="#ffffff" opacity="1.00" d=" M 220.33 185.66 C 218.73 182.83 223.70 185.22 220.33 185.66 Z" />
<path fill="#ffffff" opacity="1.00" d=" M 327.79 186.55 C 329.42 186.00 330.77 184.93 332.13 183.92 C 331.98 185.94 329.74 186.40 328.87 187.98 C 328.18 188.88 327.31 190.43 325.90 189.76 C 326.62 188.74 327.25 187.67 327.79 186.55 Z" />
<path fill="#ffffff" opacity="1.00" d=" M 285.04 185.53 C 286.02 185.05 287.66 185.67 287.69 186.88 C 287.22 188.74 283.78 186.96 285.04 185.53 Z" />
<path fill="#ffffff" opacity="1.00" d=" M 341.22 194.80 C 343.68 191.52 345.82 187.89 348.89 185.03 C 349.16 186.43 348.62 187.70 348.02 188.93 C 344.51 190.72 341.95 194.26 341.89 198.26 C 340.86 198.68 339.98 198.16 339.20 197.51 C 339.09 199.55 337.69 201.02 336.30 202.33 C 334.76 203.56 333.47 205.04 332.01 206.35 C 331.71 204.80 331.99 203.54 333.69 203.41 C 335.61 199.69 340.83 197.42 339.37 192.49 C 339.72 192.36 340.40 192.08 340.74 191.94 C 340.86 192.65 341.10 194.08 341.22 194.80 Z" />
<path fill="#ffffff" opacity="1.00" d=" M 244.23 186.60 C 244.95 187.16 244.95 187.16 244.23 186.60 Z" />
<path fill="#ffffff" opacity="1.00" d=" M 272.22 185.99 C 276.44 185.75 280.90 186.03 284.64 188.19 C 286.19 189.82 288.05 191.11 289.95 192.31 C 289.70 192.69 289.20 193.46 288.95 193.84 C 290.31 194.74 291.68 195.66 292.99 196.65 C 292.34 196.67 291.04 196.70 290.39 196.71 C 292.85 198.24 294.67 201.02 293.50 203.95 C 292.50 202.89 291.94 201.57 291.64 200.16 C 291.25 198.59 288.23 198.07 289.54 196.12 C 289.01 196.20 287.93 196.35 287.40 196.42 C 287.40 197.02 287.39 198.23 287.39 198.83 C 286.62 196.84 283.50 195.77 284.29 193.31 C 281.88 192.50 279.54 191.39 277.53 189.83 C 274.01 189.49 270.43 189.18 266.93 189.89 C 266.74 188.15 268.17 187.88 269.54 187.66 C 270.43 187.10 271.32 186.55 272.22 185.99 M 285.27 192.46 C 284.51 193.76 286.49 195.38 287.71 194.75 C 288.29 193.53 286.47 191.69 285.27 192.46 Z" />
<path fill="#ffffff" opacity="1.00" d=" M 296.87 189.25 C 295.17 188.02 297.64 186.03 298.98 186.89 C 299.51 187.96 298.13 190.80 296.87 189.25 Z" />
<path fill="#ffffff" opacity="1.00" d=" M 300.94 186.55 C 301.65 186.83 303.08 187.39 303.79 187.67 C 303.40 188.38 302.63 189.79 302.24 190.49 L 302.46 191.06 C 303.49 189.99 304.52 188.94 305.62 187.94 C 304.51 190.75 303.79 193.88 301.70 196.18 C 299.45 195.43 300.02 192.32 299.04 190.57 C 299.30 190.30 299.81 189.74 300.07 189.47 C 300.29 188.74 300.72 187.28 300.94 186.55 Z" />
<path fill="#ffffff" opacity="1.00" d=" M 318.70 193.87 C 322.00 191.99 323.71 188.35 326.76 186.12 C 326.35 190.53 322.20 192.71 319.80 195.83 C 319.43 195.17 319.06 194.52 318.70 193.87 Z" />
<path fill="#ffffff" opacity="1.00" d=" M 242.04 188.00 C 243.57 189.08 244.86 188.98 245.94 187.68 C 245.43 189.25 247.75 190.35 246.67 191.83 C 245.52 193.47 243.72 194.83 242.27 192.50 C 242.88 192.32 244.09 191.97 244.69 191.79 C 243.55 190.71 242.79 189.35 242.04 188.00 Z" />
<path fill="#ffffff" opacity="1.00" d=" M 290.16 190.26 C 291.09 187.76 293.40 191.71 294.75 192.21 C 295.38 193.24 296.12 194.19 296.89 195.12 C 296.75 195.51 296.48 196.29 296.35 196.68 C 298.95 196.96 298.01 199.78 295.89 199.11 C 295.48 195.61 293.21 191.98 290.16 190.26 Z" />
<path fill="#ffffff" opacity="1.00" d=" M 221.54 190.50 C 222.08 190.14 223.17 189.43 223.72 189.08 C 223.55 189.94 223.20 191.67 223.03 192.53 C 221.63 194.89 221.03 197.61 219.92 200.10 C 219.50 200.29 218.66 200.65 218.24 200.84 C 219.57 197.46 220.22 193.86 221.54 190.50 Z" />
<path fill="#ffffff" opacity="1.00" d=" M 322.98 195.20 C 323.03 193.95 324.35 191.98 325.77 192.42 C 325.73 193.64 325.15 194.62 324.05 195.36 C 323.78 195.32 323.24 195.24 322.98 195.20 Z" />
<path fill="#ffffff" opacity="1.00" d=" M 245.63 198.75 C 245.30 196.35 246.70 192.87 249.27 192.51 C 248.65 194.00 248.04 195.49 247.42 196.98 C 248.12 196.72 249.51 196.20 250.20 195.93 C 250.16 197.48 249.29 198.72 248.43 199.92 C 248.60 201.88 248.41 203.83 247.89 205.73 C 246.85 205.26 245.89 204.67 245.02 203.95 C 245.11 202.99 245.30 201.06 245.40 200.09 C 243.71 200.36 243.96 202.69 242.27 203.00 C 242.69 201.30 242.73 197.07 245.63 198.75 Z" />
<path fill="#ffffff" opacity="1.00" d=" M 331.60 196.91 C 332.92 195.29 334.49 193.61 336.68 193.33 C 334.50 197.17 330.49 199.58 327.68 202.96 C 326.72 202.31 325.73 201.72 324.74 201.13 C 325.11 200.90 325.83 200.42 326.19 200.18 L 326.76 201.86 C 327.93 200.63 328.85 199.19 329.81 197.79 C 330.25 197.57 331.15 197.13 331.60 196.91 Z" />
<path fill="#ffffff" opacity="1.00" d=" M 307.55 200.54 C 307.90 197.38 308.51 192.38 312.87 193.07 C 311.21 197.58 307.72 200.91 305.56 205.16 C 303.92 204.29 304.37 202.46 304.89 201.03 C 305.56 200.91 306.89 200.66 307.55 200.54 Z" />
<path fill="#ffffff" opacity="1.00" d=" M 233.16 194.74 C 234.95 195.20 234.00 198.09 232.79 198.76 C 231.46 198.08 231.93 195.40 233.16 194.74 Z" />
<path fill="#ffffff" opacity="1.00" d=" M 258.06 194.75 C 259.82 195.22 260.77 197.03 259.59 198.62 C 257.25 199.19 258.12 196.05 258.06 194.75 Z" />
<path fill="#ffffff" opacity="1.00" d=" M 275.21 195.35 C 276.88 196.57 279.05 198.13 280.63 195.89 L 279.24 195.02 C 281.09 195.82 283.17 196.64 284.05 198.60 C 282.66 197.44 281.14 198.01 280.25 199.38 C 279.70 199.28 278.61 199.08 278.06 198.98 C 276.99 197.86 275.90 196.74 275.21 195.35 Z" />
<path fill="#ffffff" opacity="1.00" d=" M 341.27 201.56 C 345.98 202.48 344.52 195.41 348.17 194.57 C 346.16 197.97 345.54 202.88 341.49 204.52 C 339.75 206.93 337.19 208.81 334.37 209.76 C 333.63 210.90 332.33 211.36 331.14 211.85 C 333.40 207.32 339.31 206.30 341.27 201.56 Z" />
<path fill="#ffffff" opacity="1.00" d=" M 250.72 205.57 C 250.35 201.74 251.93 196.15 256.67 196.50 C 255.09 201.02 256.40 205.81 256.57 210.43 C 256.20 210.61 255.46 210.96 255.09 211.13 C 254.80 208.96 255.09 206.81 255.56 204.70 C 255.06 204.56 254.07 204.30 253.58 204.17 C 253.56 202.82 253.57 201.48 253.60 200.14 C 253.19 201.11 252.76 202.06 252.34 203.02 C 252.71 205.63 252.75 208.26 252.56 210.89 C 250.80 209.63 250.37 207.16 248.16 206.47 C 248.71 205.27 249.57 204.97 250.72 205.57 Z" />
<path fill="#ffffff" opacity="1.00" d=" M 318.26 196.40 C 318.78 196.02 318.78 196.02 318.26 196.40 Z" />
<path fill="#ffffff" opacity="1.00" d=" M 263.27 202.11 C 262.55 200.45 259.88 197.34 262.89 196.50 C 263.24 196.79 263.96 197.38 264.31 197.68 C 265.19 196.43 266.47 197.12 267.65 197.47 C 266.27 199.60 268.03 200.61 269.82 201.20 C 269.31 200.39 268.29 198.78 267.78 197.98 C 269.95 198.73 272.03 199.84 273.78 201.34 C 280.73 203.44 287.09 207.16 294.06 209.24 C 295.78 209.86 298.30 209.77 298.44 212.19 C 296.56 211.51 294.86 210.47 293.01 209.77 C 290.91 209.03 288.47 209.09 286.78 207.47 C 286.42 207.75 285.69 208.30 285.33 208.58 C 284.87 208.29 283.94 207.71 283.48 207.42 C 282.67 204.99 279.72 204.78 277.83 203.51 C 276.87 204.35 274.38 206.52 275.16 202.83 C 274.75 203.28 273.93 204.17 273.52 204.62 C 273.30 204.27 272.88 203.59 272.66 203.25 L 270.71 204.87 C 270.69 204.17 270.64 202.79 270.62 202.09 C 269.71 203.69 267.64 203.91 267.01 201.95 C 266.05 199.60 264.09 204.44 263.27 202.11 Z" />
<path fill="#ffffff" opacity="1.00" d=" M 288.44 200.44 C 287.58 199.92 287.77 197.43 289.09 198.18 C 290.23 198.90 290.23 202.23 288.44 200.44 Z" />
<path fill="#ffffff" opacity="1.00" d=" M 296.13 200.35 C 296.75 200.26 298.01 200.09 298.63 200.00 C 298.36 200.98 298.14 201.98 297.98 202.99 C 298.62 204.34 300.04 205.08 300.99 206.21 C 301.29 208.57 298.73 206.77 298.06 205.88 C 296.17 204.64 296.43 202.30 296.13 200.35 Z" />
<path fill="#ffffff" opacity="1.00" d=" M 321.48 205.63 C 322.41 204.93 324.19 205.70 323.77 207.05 C 323.73 209.47 321.77 212.04 319.44 212.66 C 319.28 210.41 320.06 207.41 321.48 205.63 Z" />
<path fill="#ffffff" opacity="1.00" d=" M 324.89 214.06 C 325.90 211.30 327.28 208.67 328.69 206.09 C 328.71 207.92 328.53 209.74 328.42 211.57 C 327.44 212.68 326.59 214.12 324.89 214.06 Z" />
<path fill="#ffffff" opacity="1.00" d=" M 257.82 208.28 C 259.16 208.39 260.41 207.83 261.66 207.44 C 261.69 209.48 260.71 211.26 259.82 213.02 C 259.46 213.14 258.74 213.37 258.38 213.48 C 258.54 212.41 258.71 211.35 258.90 210.28 C 258.63 209.78 258.09 208.78 257.82 208.28 Z" />
<path fill="#ffffff" opacity="1.00" d=" M 263.40 208.61 C 264.11 208.39 265.53 207.96 266.24 207.74 C 266.11 209.75 265.99 211.77 265.90 213.79 L 264.44 213.49 C 264.47 214.06 264.52 215.20 264.55 215.77 C 261.52 214.81 263.91 210.86 263.40 208.61 Z" />
<path fill="#ffffff" opacity="1.00" d=" M 268.88 209.81 C 270.22 209.66 271.56 209.48 272.90 209.27 C 271.62 213.01 274.46 216.27 274.69 219.92 C 271.51 219.72 273.75 214.25 270.15 214.23 C 270.27 214.84 270.51 216.05 270.64 216.65 C 269.37 217.05 268.12 217.49 266.85 217.85 C 266.65 216.08 266.57 214.28 267.03 212.55 C 267.30 213.62 267.84 215.76 268.11 216.83 C 269.75 214.79 268.94 212.17 268.88 209.81 M 270.05 211.42 C 268.34 214.26 273.44 211.60 270.05 211.42 Z" />
<path fill="#ffffff" opacity="1.00" d=" M 274.26 215.48 C 277.03 214.88 273.82 211.47 276.34 211.09 C 276.68 211.88 277.37 213.45 277.71 214.23 C 277.86 213.40 278.14 211.73 278.28 210.89 C 279.87 213.44 281.66 216.19 281.54 219.33 C 282.05 219.22 283.09 219.00 283.60 218.89 C 283.89 218.48 284.47 217.66 284.76 217.25 C 285.54 218.88 285.51 220.54 284.67 222.23 L 284.02 219.12 C 283.44 219.92 282.87 220.73 282.30 221.54 C 280.93 219.17 280.08 216.55 279.33 213.94 L 277.54 214.56 C 276.18 217.67 278.27 220.52 279.87 223.04 C 276.16 222.49 275.74 218.22 274.26 215.48 Z" />
<path fill="#ffffff" opacity="1.00" d=" M 265.12 214.68 C 267.49 214.33 265.02 218.23 264.71 215.47 L 265.12 214.68 Z" />
<path fill="#ffffff" opacity="1.00" d=" M 321.96 219.95 C 324.06 218.89 324.33 215.97 326.64 215.20 C 325.97 217.62 326.64 220.99 324.07 222.40 C 324.07 221.56 324.08 219.88 324.08 219.04 C 323.13 220.09 322.68 221.58 321.33 222.26 C 321.02 220.86 320.75 219.47 320.60 218.05 C 320.94 218.53 321.62 219.48 321.96 219.95 Z" />
<path fill="#ffffff" opacity="1.00" d=" M 289.31 217.57 C 289.58 217.51 290.12 217.40 290.39 217.34 C 290.26 219.74 293.44 217.26 293.42 219.03 C 293.70 220.41 293.76 221.81 293.63 223.21 C 291.99 221.49 290.91 219.32 289.31 217.57 Z" />
<path fill="#ffffff" opacity="1.00" d=" M 296.07 217.80 C 296.33 218.29 296.86 219.25 297.13 219.73 C 297.57 219.56 298.46 219.21 298.90 219.04 C 299.22 220.09 299.55 221.15 299.87 222.21 C 300.38 222.43 301.41 222.86 301.92 223.08 C 302.28 224.16 302.63 225.24 302.99 226.32 C 300.83 226.39 300.66 224.22 300.07 222.68 C 296.76 223.64 296.49 220.08 296.07 217.80 Z" />
<path fill="#ffffff" opacity="1.00" d=" M 302.03 221.22 C 300.63 221.67 300.67 218.25 301.97 218.40 C 301.98 219.10 302.01 220.51 302.03 221.22 Z" />
<path fill="#ffffff" opacity="1.00" d=" M 312.20 218.18 C 312.59 218.58 313.36 219.38 313.75 219.78 C 313.96 219.18 314.39 217.97 314.61 217.37 C 316.39 219.26 315.01 222.58 313.26 223.98 C 313.27 223.28 313.29 221.88 313.30 221.18 C 311.86 221.36 310.42 221.53 308.99 221.69 C 309.02 221.42 309.09 220.88 309.13 220.61 C 310.96 221.18 311.35 219.26 312.20 218.18 Z" />
<path fill="#ffffff" opacity="1.00" d=" M 265.84 218.73 C 267.31 219.39 268.61 221.73 268.61 223.44 C 266.65 223.32 265.26 220.50 265.84 218.73 Z" />
<path fill="#ffffff" opacity="1.00" d=" M 286.28 225.07 C 285.41 222.56 285.19 219.98 287.11 217.87 C 286.37 220.11 289.61 224.23 286.28 225.07 Z" />
<path fill="#ffffff" opacity="1.00" d=" M 303.35 219.30 C 306.77 219.35 301.84 222.26 303.35 219.30 Z" />
<path fill="#ffffff" opacity="1.00" d=" M 303.82 222.50 C 305.46 223.04 305.70 225.86 305.68 227.43 C 303.73 227.59 303.09 223.94 303.82 222.50 Z" />
</g>
</svg>
