<?xml version="1.0" encoding="UTF-8" ?>
<!DOCTYPE svg PUBLIC "-//W3C//DTD SVG 1.1//EN" "http://www.w3.org/Graphics/SVG/1.1/DTD/svg11.dtd">
<svg width="512pt" height="256pt" viewBox="0 0 512 256" version="1.1" xmlns="http://www.w3.org/2000/svg">
<g id="#ffffffff">
<path fill="#ffffff" opacity="1.00" d=" M 307.57 13.97 C 309.18 11.82 311.57 12.28 313.86 12.67 C 315.96 14.59 316.29 17.42 316.98 20.03 C 316.22 20.70 315.47 21.37 314.72 22.05 C 314.80 20.02 314.79 17.85 313.47 16.20 L 314.04 15.00 C 311.91 14.52 309.73 14.23 307.57 13.97 Z" />
<path fill="#ffffff" opacity="1.00" d=" M 307.02 14.40 C 309.07 14.44 311.02 15.21 313.02 15.60 C 312.69 16.67 312.34 17.74 312.01 18.81 L 313.64 18.38 C 313.60 18.83 313.52 19.74 313.48 20.19 C 311.85 20.33 310.24 20.46 308.62 20.57 C 308.58 21.09 308.51 22.15 308.48 22.68 C 308.97 22.57 309.96 22.34 310.46 22.22 L 310.04 20.81 L 314.28 20.95 C 312.88 22.25 312.04 23.63 313.79 24.83 C 311.88 25.84 309.73 25.63 307.66 25.69 C 309.66 26.95 311.90 26.24 313.90 25.39 C 313.81 26.44 313.61 28.55 313.52 29.60 C 312.95 29.64 311.81 29.71 311.23 29.75 C 312.23 31.34 313.88 31.67 315.53 30.95 C 316.48 28.84 316.74 26.69 314.35 25.49 C 314.32 24.30 315.69 21.08 316.97 22.61 C 318.12 32.14 318.95 41.75 318.66 51.36 C 318.81 52.89 318.33 54.19 316.99 55.05 C 320.35 55.73 319.18 60.26 319.58 62.82 C 318.76 62.78 317.12 62.71 316.30 62.67 L 316.54 64.45 C 318.39 63.64 320.29 63.51 322.08 64.56 C 321.15 64.67 319.27 64.88 318.34 64.99 C 319.32 66.02 320.50 66.81 321.81 67.36 L 320.23 65.16 C 323.30 66.07 325.61 63.62 327.97 62.15 C 330.51 60.44 332.67 58.19 333.33 55.11 C 333.10 53.26 333.07 51.41 333.04 49.56 C 333.72 49.40 335.08 49.10 335.76 48.95 C 335.71 47.74 335.32 46.59 334.96 45.45 C 334.09 43.72 333.66 41.84 333.27 39.96 C 334.34 38.53 335.56 37.20 337.28 36.54 L 337.50 37.61 C 335.07 38.71 333.62 41.05 335.07 43.65 C 336.23 42.90 337.39 42.14 338.57 41.40 C 338.55 39.82 338.54 38.24 338.54 36.67 C 340.82 38.78 343.24 40.84 344.68 43.66 L 343.86 44.02 L 342.93 44.11 L 341.97 43.89 L 342.59 41.90 C 342.05 42.32 340.97 43.17 340.42 43.59 C 340.22 43.10 339.81 42.14 339.61 41.65 C 337.84 42.69 336.36 44.03 335.17 45.66 C 336.40 44.97 338.86 43.60 340.10 42.91 C 338.94 44.59 336.63 49.08 341.05 45.07 C 340.77 46.77 339.52 47.90 338.29 48.96 C 338.94 49.50 340.25 50.58 340.90 51.12 C 340.14 51.21 338.62 51.39 337.86 51.49 C 339.41 51.50 340.95 51.50 342.51 51.53 C 341.70 52.36 340.93 53.23 340.19 54.12 C 341.04 55.96 342.36 57.54 343.97 58.79 C 342.99 58.72 341.03 58.58 340.05 58.51 C 340.62 59.18 341.78 60.51 342.35 61.18 C 342.32 61.55 342.27 62.31 342.24 62.68 L 343.16 62.44 C 344.22 63.78 345.35 65.07 346.42 66.41 C 343.83 65.09 344.04 67.59 344.27 69.26 C 340.17 74.84 333.96 78.25 328.82 82.75 C 327.07 84.46 324.66 85.03 322.50 86.01 C 319.61 89.01 315.16 87.65 311.79 89.56 C 311.29 88.82 310.82 88.06 310.35 87.32 C 310.40 87.94 310.51 89.19 310.56 89.82 C 309.83 90.02 308.37 90.41 307.64 90.60 C 305.98 89.21 303.01 88.44 303.08 85.83 C 305.30 86.34 306.20 84.94 306.70 83.15 L 308.37 84.88 C 308.55 83.55 308.73 82.22 308.92 80.89 C 306.60 81.80 304.51 83.14 302.82 84.97 C 302.13 84.84 301.45 84.70 300.79 84.55 C 301.17 87.02 298.99 86.60 297.35 86.59 C 296.96 87.32 296.57 88.04 296.17 88.75 C 292.54 87.57 289.99 91.66 287.04 93.19 C 286.18 93.69 285.32 94.18 284.46 94.67 C 282.75 96.86 280.33 96.25 278.18 95.08 C 278.96 95.88 280.53 96.47 279.84 97.85 C 279.25 97.71 278.09 97.43 277.50 97.29 C 278.05 98.22 277.91 99.05 277.06 99.75 C 275.39 101.89 273.59 103.93 271.55 105.73 C 271.60 106.14 271.72 106.97 271.78 107.38 L 270.67 107.02 C 270.30 108.17 269.75 110.05 268.17 109.80 C 267.48 109.24 266.87 108.62 266.32 107.93 C 266.34 109.22 266.36 110.52 266.38 111.82 C 268.04 113.22 269.53 114.83 271.25 116.17 C 270.40 114.89 269.37 113.75 268.41 112.57 C 268.87 111.79 269.34 111.02 269.81 110.24 C 270.55 111.54 271.57 112.40 272.85 112.83 C 272.74 111.51 271.41 110.83 270.69 109.87 C 271.09 109.19 271.90 107.85 272.30 107.17 C 273.54 108.19 274.78 109.24 276.16 110.10 C 275.64 108.06 273.29 107.24 272.98 105.12 C 275.56 105.04 275.86 101.12 278.67 102.00 C 278.53 101.67 278.25 101.02 278.11 100.69 C 279.13 100.22 280.16 99.74 281.17 99.24 C 281.58 99.14 282.40 98.96 282.81 98.86 C 282.66 98.23 282.36 96.95 282.21 96.31 C 284.80 96.30 285.82 98.68 287.35 100.29 C 286.70 99.05 286.00 97.85 285.25 96.67 C 286.16 95.82 287.07 94.98 288.00 94.15 C 288.33 94.31 288.99 94.62 289.31 94.78 C 290.23 93.48 291.48 92.51 292.82 91.67 L 292.32 90.20 C 295.21 89.86 296.74 92.30 296.88 94.85 C 295.38 96.51 292.98 96.82 291.27 98.20 C 287.22 101.34 283.10 104.42 278.63 106.94 L 278.81 107.90 L 278.04 107.57 C 276.83 109.52 275.45 111.36 274.10 113.21 C 271.79 116.91 269.98 120.89 268.87 125.12 C 268.92 122.76 266.48 121.35 266.64 118.99 C 266.55 117.59 266.01 116.38 265.00 115.35 C 265.34 114.64 265.68 113.93 266.03 113.23 L 264.78 113.76 C 264.35 113.00 263.50 111.49 263.08 110.74 C 263.43 114.05 263.65 117.45 265.08 120.52 C 264.40 120.65 263.04 120.92 262.35 121.05 C 263.17 121.16 264.80 121.39 265.61 121.50 C 265.69 122.32 265.84 123.95 265.92 124.76 C 265.38 124.66 264.29 124.46 263.75 124.35 C 265.08 125.19 266.40 126.05 267.69 126.96 C 266.86 127.07 265.19 127.30 264.36 127.42 C 265.92 128.13 267.48 128.83 269.01 129.62 C 268.52 130.33 268.01 131.02 267.49 131.70 C 264.68 131.06 262.76 128.57 260.60 126.83 L 260.57 128.61 C 257.56 128.19 254.60 126.88 251.53 127.25 C 251.49 126.12 251.44 124.98 251.40 123.85 C 249.96 121.26 249.89 118.24 250.27 115.37 L 249.54 115.58 C 249.34 112.87 249.52 110.17 250.53 107.61 C 252.58 107.58 254.64 107.55 256.70 107.59 C 256.77 107.04 256.90 105.93 256.96 105.38 C 256.07 105.06 254.28 104.42 253.39 104.10 C 255.60 103.81 256.28 102.79 255.43 101.04 C 253.82 102.96 251.33 102.72 249.11 102.84 C 249.47 104.55 250.39 105.86 251.88 106.76 C 251.33 106.78 250.24 106.82 249.69 106.84 C 248.94 104.13 248.52 101.34 248.42 98.53 C 249.97 95.43 253.44 96.74 256.21 96.36 C 255.03 94.01 252.37 95.73 250.41 95.77 C 250.29 95.15 250.05 93.92 249.93 93.30 C 249.81 94.23 249.57 96.08 249.46 97.01 C 248.71 96.70 247.22 96.10 246.48 95.79 C 249.04 93.70 247.20 89.45 246.48 86.74 C 247.34 85.84 248.16 84.91 248.95 83.94 C 247.92 84.08 245.87 84.36 244.84 84.50 C 245.39 82.02 248.27 82.20 250.09 81.31 C 248.55 81.41 247.01 81.56 245.47 81.60 C 245.78 80.88 246.41 79.43 246.72 78.70 C 245.78 79.21 245.13 80.93 243.95 80.58 C 241.75 76.71 240.33 72.36 239.31 68.05 C 238.63 65.74 240.81 64.26 242.06 62.68 L 242.37 65.31 C 242.48 64.68 242.69 63.43 242.79 62.81 C 247.44 65.56 251.76 69.88 253.36 75.16 C 251.86 76.04 250.25 76.72 248.81 77.69 C 250.70 77.53 252.48 76.81 254.23 76.10 C 257.24 81.67 259.14 87.79 259.72 94.11 C 260.69 97.30 260.48 100.68 260.71 103.97 C 260.13 104.48 259.56 105.00 258.99 105.52 C 260.24 105.61 261.49 105.70 262.74 105.79 C 262.67 104.95 262.54 103.27 262.48 102.42 C 263.06 102.78 263.65 103.14 264.23 103.51 C 264.68 102.43 265.69 101.80 266.84 102.25 C 267.78 101.99 268.74 101.77 269.71 101.58 C 267.59 101.23 265.19 101.51 262.98 101.56 C 266.21 98.63 267.85 93.67 272.02 91.96 L 271.88 91.08 C 271.29 91.28 270.13 91.68 269.55 91.88 C 271.38 88.32 268.24 84.92 267.49 81.53 C 268.82 82.80 270.43 84.10 270.51 86.13 C 272.28 84.86 274.20 83.82 276.14 82.83 L 276.55 84.04 C 274.54 85.44 272.60 86.96 270.53 88.29 C 272.09 88.91 273.47 89.87 274.79 90.90 L 274.99 89.44 L 273.76 89.87 C 273.75 89.13 273.73 87.66 273.72 86.93 L 275.48 88.20 C 276.05 87.74 277.18 86.82 277.74 86.36 L 277.35 85.15 C 278.83 85.43 280.19 85.96 281.43 86.72 C 282.67 87.64 280.71 88.55 280.27 89.24 L 281.38 88.60 C 282.20 89.46 283.10 90.24 284.04 90.97 C 283.69 90.03 283.42 89.07 283.23 88.10 C 284.14 88.13 285.05 88.28 285.94 88.53 C 285.85 89.12 285.67 90.30 285.58 90.89 C 286.64 90.21 287.71 89.53 288.76 88.82 C 287.01 88.20 285.29 87.49 283.55 86.84 C 283.65 86.44 283.86 85.64 283.97 85.24 L 282.18 85.84 L 279.07 85.11 C 280.64 83.29 282.68 82.05 284.69 80.80 C 286.07 79.26 286.87 77.33 287.94 75.58 L 286.67 75.47 C 286.44 72.93 286.60 70.25 285.37 67.94 C 283.75 66.54 285.41 64.33 287.14 65.16 C 286.83 65.57 286.21 66.39 285.90 66.80 C 286.91 66.57 287.92 66.33 288.93 66.10 C 289.36 66.75 289.82 67.38 290.31 67.99 C 289.20 68.82 287.92 69.56 287.18 70.77 C 289.98 70.32 292.74 69.12 294.22 66.55 L 291.08 67.48 C 291.30 65.77 291.45 64.06 291.56 62.34 C 290.68 63.38 289.82 64.42 288.98 65.48 C 288.52 65.40 287.60 65.24 287.14 65.16 L 286.04 64.97 C 286.95 64.23 288.75 62.74 289.66 62.00 C 287.74 62.22 286.32 64.89 284.25 64.14 C 283.87 61.68 283.55 59.17 282.40 56.92 C 284.22 55.37 286.39 54.32 288.42 53.07 C 288.46 53.50 288.55 54.37 288.60 54.81 C 284.77 55.57 287.95 58.84 287.72 61.28 C 288.34 61.37 289.58 61.55 290.20 61.64 C 291.49 62.23 292.79 62.81 294.11 63.35 C 293.40 62.62 291.97 61.15 291.25 60.42 C 292.19 60.46 294.05 60.56 294.99 60.61 C 295.40 62.07 295.60 63.59 295.80 65.09 C 296.71 66.25 297.61 67.43 298.51 68.60 C 297.19 69.77 295.82 70.90 294.46 72.02 L 295.61 69.03 C 294.67 69.19 292.80 69.53 291.86 69.70 C 290.93 72.02 289.51 74.02 287.62 75.71 C 289.82 74.54 292.05 73.42 294.32 72.36 C 293.59 73.83 292.50 75.07 291.38 76.25 C 290.37 76.58 289.37 76.93 288.38 77.30 C 287.94 78.34 287.47 79.38 287.04 80.42 C 288.58 80.98 290.08 81.67 291.72 81.92 C 292.13 83.91 291.35 85.32 289.29 85.76 C 289.31 86.02 289.36 86.52 289.39 86.78 C 289.90 86.42 290.93 85.70 291.45 85.34 C 291.69 85.61 292.17 86.14 292.41 86.41 C 292.32 86.03 292.14 85.26 292.05 84.88 C 293.61 84.94 294.91 84.43 295.95 83.36 L 296.85 83.75 C 296.78 83.15 296.66 81.95 296.59 81.36 C 297.90 81.62 299.43 81.43 300.42 82.54 C 300.29 81.01 301.00 80.23 302.55 80.21 C 303.77 79.38 305.00 78.57 306.20 77.72 C 307.27 77.66 308.33 77.59 309.40 77.51 C 310.10 76.92 310.80 76.34 311.51 75.76 C 309.76 73.91 308.30 71.79 307.34 69.42 C 306.53 68.47 305.73 67.50 304.82 66.66 C 306.03 69.94 308.05 72.82 310.20 75.54 C 309.48 75.78 308.02 76.26 307.30 76.50 C 307.17 75.38 307.05 74.25 306.93 73.13 C 306.56 74.67 306.21 76.22 305.86 77.76 C 305.10 76.62 304.36 75.48 303.61 74.34 C 303.28 74.31 302.63 74.24 302.30 74.20 C 302.54 75.49 303.00 78.06 303.23 79.35 C 301.98 77.51 300.96 75.49 299.36 73.92 C 299.72 72.88 300.12 71.85 300.47 70.81 C 299.76 71.94 299.05 73.07 298.33 74.20 C 297.84 73.74 296.86 72.81 296.38 72.35 C 297.01 71.42 297.71 70.56 298.37 69.65 C 299.73 69.33 301.08 68.95 302.40 68.48 C 302.37 69.11 302.29 70.36 302.26 70.99 C 303.33 70.18 303.84 69.18 302.92 68.04 C 305.58 66.18 305.09 62.81 305.86 60.04 C 306.80 57.10 306.34 54.04 306.40 51.02 C 306.37 46.84 306.86 42.68 306.99 38.50 C 307.48 38.97 307.98 39.43 308.48 39.90 C 308.88 39.67 309.69 39.20 310.09 38.97 C 309.22 38.50 307.48 37.56 306.61 37.10 L 308.74 36.22 C 308.52 35.78 308.07 34.89 307.85 34.44 C 310.21 35.15 312.56 35.90 314.90 36.71 C 313.63 38.12 312.09 39.50 312.31 41.60 C 311.36 41.51 309.46 41.33 308.51 41.24 C 310.03 41.90 311.57 42.53 313.12 43.13 C 311.13 43.55 309.11 43.84 307.09 43.99 C 309.24 45.47 312.26 44.69 314.15 46.63 C 314.78 46.31 316.02 45.68 316.65 45.36 C 316.14 44.70 315.13 43.39 314.63 42.73 L 316.90 42.69 C 316.92 42.37 316.98 41.74 317.01 41.43 C 315.59 41.49 314.17 41.51 312.76 41.51 C 313.66 40.27 314.57 39.02 315.17 37.59 C 315.49 37.60 316.14 37.62 316.47 37.63 C 316.52 36.97 316.61 35.65 316.66 34.99 C 316.27 33.85 315.95 32.70 315.55 31.58 C 314.53 31.87 312.49 32.47 311.47 32.77 C 312.94 33.39 314.44 34.08 315.77 34.99 C 312.55 37.01 309.86 32.14 306.95 34.70 C 307.08 32.43 307.30 30.14 306.96 27.88 C 306.95 25.05 306.77 22.23 306.34 19.44 C 307.11 19.27 308.66 18.94 309.44 18.78 C 308.62 18.68 306.99 18.48 306.18 18.38 C 306.39 17.38 306.81 15.39 307.02 14.40 M 316.04 39.12 C 316.58 39.81 316.58 39.81 316.04 39.12 M 313.75 52.70 C 312.09 52.48 310.42 52.29 308.76 52.12 C 310.22 52.73 311.70 53.27 313.18 53.83 C 311.70 54.61 310.26 55.44 308.84 56.33 C 310.03 56.28 312.40 56.17 313.59 56.12 C 313.55 56.49 313.47 57.21 313.43 57.58 C 314.77 57.54 316.11 57.50 317.46 57.46 C 316.92 57.18 315.84 56.62 315.29 56.34 C 315.44 54.77 315.60 53.21 315.76 51.65 L 314.52 52.71 C 314.47 52.12 314.37 50.95 314.32 50.36 C 315.16 50.45 316.83 50.61 317.67 50.70 L 315.32 49.20 L 316.34 48.06 L 313.27 48.32 C 313.43 49.78 313.59 51.24 313.75 52.70 M 334.69 50.36 L 334.86 52.42 C 334.89 55.25 334.65 58.13 332.62 60.32 C 334.23 63.01 334.64 66.13 334.67 69.22 C 336.70 68.99 337.03 70.37 336.93 72.09 L 335.65 71.13 C 335.71 72.45 335.46 73.69 334.91 74.87 C 333.50 74.17 333.99 72.03 333.36 70.80 C 333.36 72.35 333.42 73.90 333.46 75.45 C 333.06 75.42 332.27 75.37 331.87 75.35 C 331.11 76.70 329.97 77.76 328.76 78.70 C 327.67 78.57 325.49 78.31 324.40 78.18 C 324.64 76.38 324.64 74.57 324.55 72.77 C 323.80 71.04 323.22 69.24 322.54 67.49 C 322.23 70.28 323.94 72.71 323.91 75.49 C 322.10 75.49 321.82 76.06 323.07 77.20 C 323.02 78.32 322.39 79.02 321.18 79.30 C 321.03 79.65 320.72 80.35 320.56 80.70 C 322.47 80.53 324.38 80.21 326.20 79.62 C 328.10 79.06 333.33 80.61 331.37 76.77 C 332.04 76.49 333.37 75.94 334.03 75.66 C 335.39 75.71 336.73 75.41 338.08 75.22 C 338.05 74.78 337.98 73.91 337.95 73.47 C 341.01 73.80 340.34 70.06 341.21 68.12 C 341.36 66.92 341.53 65.71 341.70 64.50 L 340.65 64.78 C 340.71 63.02 340.57 61.25 339.96 59.58 C 338.80 62.06 339.72 65.99 336.75 67.22 C 336.45 64.79 335.39 62.49 335.27 60.05 C 336.02 56.84 337.78 53.34 335.81 50.18 C 335.53 50.22 334.97 50.31 334.69 50.36 M 314.07 58.83 C 314.14 59.32 314.28 60.31 314.35 60.80 C 315.93 60.48 318.23 61.03 318.43 58.69 C 316.98 58.72 315.52 58.77 314.07 58.83 M 293.37 63.99 C 293.58 67.37 296.34 62.50 293.37 63.99 M 294.30 66.21 C 294.83 66.89 294.83 66.89 294.30 66.21 M 312.23 67.20 C 312.80 67.79 312.80 67.79 312.23 67.20 M 243.17 75.95 C 245.02 76.60 246.05 74.12 247.78 74.12 C 247.61 74.67 247.29 75.76 247.12 76.31 C 248.64 75.60 250.20 74.96 251.76 74.31 C 251.00 74.23 249.48 74.08 248.73 74.00 C 249.42 73.50 250.82 72.50 251.51 72.00 C 248.64 71.58 243.86 72.89 243.17 75.95 M 315.15 75.73 C 314.85 75.69 314.26 75.61 313.96 75.57 C 313.87 77.65 313.50 79.70 313.00 81.72 C 312.06 81.01 311.12 80.30 310.18 79.61 C 310.23 81.46 310.27 83.32 310.34 85.18 C 310.56 84.05 310.78 82.92 311.01 81.79 C 311.55 82.04 312.65 82.54 313.20 82.79 C 313.25 82.51 313.36 81.94 313.41 81.66 C 315.24 80.81 319.05 81.86 319.31 79.22 C 317.90 78.32 315.94 78.79 314.35 78.49 L 314.09 76.09 L 315.51 76.61 C 315.54 75.93 315.59 74.56 315.62 73.88 C 315.50 74.34 315.27 75.26 315.15 75.73 M 252.32 77.82 C 252.49 81.17 255.34 76.30 252.32 77.82 M 248.66 85.21 C 249.77 85.42 250.90 85.62 252.02 85.81 C 252.06 83.48 254.15 83.55 255.89 83.34 C 255.89 83.01 255.90 82.35 255.91 82.02 C 253.46 83.02 251.06 84.12 248.66 85.21 M 286.31 82.19 C 285.82 83.59 286.27 84.06 287.64 83.58 C 288.10 82.12 287.66 81.66 286.31 82.19 M 256.22 85.21 C 256.80 85.81 256.80 85.81 256.22 85.21 M 248.07 87.90 L 248.43 88.66 C 248.87 88.63 249.74 88.56 250.18 88.53 L 250.50 87.72 C 250.17 87.45 249.53 86.90 249.21 86.63 C 248.92 86.95 248.35 87.58 248.07 87.90 M 248.48 89.74 C 248.94 90.85 249.40 91.97 249.84 93.10 C 250.07 92.59 250.53 91.55 250.76 91.04 C 251.72 91.81 252.69 92.57 253.66 93.32 C 253.57 92.67 253.38 91.36 253.29 90.71 C 251.68 90.42 250.07 90.10 248.48 89.74 M 280.27 92.02 C 280.15 95.43 283.28 90.64 280.27 92.02 M 249.13 99.40 C 251.69 100.92 254.84 100.35 257.63 101.18 C 255.68 98.43 251.97 99.36 249.13 99.40 M 279.01 102.30 C 279.73 102.77 279.73 102.77 279.01 102.30 M 262.77 107.76 C 262.23 108.89 263.41 110.87 264.71 110.64 C 265.13 109.54 264.03 107.56 262.77 107.76 M 259.26 108.85 C 259.48 112.20 262.20 107.33 259.26 108.85 M 251.12 109.94 C 251.46 111.23 252.27 111.50 253.53 110.77 C 253.16 109.47 252.36 109.19 251.12 109.94 M 250.98 112.36 C 250.37 113.42 250.45 114.46 251.21 115.47 C 252.29 115.56 252.64 113.88 253.59 113.42 C 254.04 112.17 251.74 111.85 250.98 112.36 M 255.33 111.94 C 255.30 115.42 258.32 110.48 255.33 111.94 M 257.83 116.36 C 259.45 116.03 258.62 113.40 257.17 113.59 C 255.62 113.98 256.28 116.63 257.83 116.36 M 251.19 118.08 C 251.51 120.27 255.84 119.55 254.70 117.36 C 253.68 116.82 251.53 116.67 251.19 118.08 M 252.18 124.29 C 252.80 124.89 252.80 124.89 252.18 124.29 M 260.36 124.21 C 260.40 127.63 263.29 122.76 260.36 124.21 Z" />
<path fill="#ffffff" opacity="1.00" d=" M 182.62 25.42 C 183.38 23.75 185.36 22.93 186.99 23.91 C 189.21 24.53 189.35 27.03 189.99 28.84 C 189.24 31.47 188.29 34.06 186.63 36.26 L 187.58 35.95 C 187.04 37.93 186.63 39.95 186.41 41.99 C 182.76 41.01 184.77 37.40 186.33 35.63 C 186.31 35.04 186.28 33.86 186.26 33.27 L 187.72 33.62 C 187.52 31.01 187.48 28.29 186.21 25.92 C 185.40 27.20 184.61 28.49 183.86 29.81 C 183.36 29.42 182.36 28.64 181.86 28.25 L 181.28 29.83 C 181.94 30.10 183.27 30.66 183.93 30.94 C 183.63 32.43 183.16 33.88 182.72 35.33 C 183.15 35.73 184.01 36.52 184.43 36.91 C 183.64 36.74 182.04 36.40 181.24 36.23 C 181.49 37.84 181.73 39.45 181.96 41.06 C 180.24 40.35 178.53 39.61 176.85 38.81 L 177.84 40.62 L 175.96 40.97 C 177.16 42.11 178.27 43.34 179.28 44.65 C 178.40 44.27 176.64 43.50 175.75 43.12 C 177.36 45.72 178.77 48.81 182.17 49.39 C 181.65 48.59 180.62 46.97 180.11 46.16 L 180.27 46.10 C 181.08 45.89 181.88 45.66 182.67 45.39 L 180.92 43.99 L 179.93 42.04 C 181.85 42.88 183.30 45.93 185.85 44.48 L 185.29 47.65 L 182.62 45.55 C 182.69 45.98 182.83 46.86 182.90 47.29 C 185.61 47.77 183.86 51.04 184.25 52.91 C 184.00 56.85 183.22 60.72 182.26 64.53 C 181.08 64.57 179.91 64.62 178.74 64.69 C 179.54 64.91 181.13 65.35 181.93 65.57 C 181.67 71.44 180.61 77.22 180.10 83.07 C 180.10 84.03 178.90 85.88 177.87 84.62 C 177.43 79.14 178.85 73.72 178.75 68.22 C 177.73 68.37 175.68 68.66 174.66 68.81 C 174.60 70.96 174.54 73.12 174.70 75.27 C 174.07 75.41 172.81 75.69 172.18 75.83 C 172.68 76.44 173.68 77.67 174.18 78.29 C 173.43 78.51 171.95 78.95 171.21 79.17 C 174.38 80.92 171.46 84.45 171.08 86.99 C 171.32 87.48 171.79 88.46 172.03 88.94 C 170.55 89.36 169.06 89.76 167.58 90.17 L 167.36 87.90 C 166.46 90.95 166.24 94.10 167.20 97.17 C 167.93 95.97 168.67 94.78 169.43 93.60 C 169.86 94.00 170.72 94.82 171.15 95.23 C 171.26 95.60 171.49 96.35 171.60 96.72 C 171.37 94.74 171.02 92.78 170.78 90.81 C 169.34 91.86 167.26 94.52 167.34 90.87 C 168.53 90.47 169.72 90.07 170.90 89.65 C 173.65 92.66 173.15 97.00 175.03 100.45 C 173.45 102.51 174.63 105.03 174.70 107.35 C 173.29 106.52 171.88 105.65 170.49 104.79 C 171.21 104.64 172.64 104.34 173.36 104.18 L 173.03 103.42 C 170.21 105.10 169.27 101.79 167.95 100.01 C 168.65 101.95 169.71 103.71 170.65 105.54 C 170.92 106.04 171.45 107.04 171.72 107.54 L 172.29 107.19 C 172.24 108.63 172.54 110.03 172.96 111.39 C 176.26 113.63 179.84 115.87 182.28 119.05 C 176.65 115.72 171.81 111.35 167.01 106.94 L 168.45 106.29 C 166.01 100.87 164.98 94.84 164.38 88.96 C 164.73 83.21 164.43 77.47 164.11 71.73 C 165.04 70.15 167.11 69.74 168.49 68.64 C 169.74 70.91 167.33 71.74 166.26 73.06 C 167.79 72.08 169.68 71.14 169.68 68.99 L 170.15 69.18 C 170.18 64.86 171.22 60.66 171.64 56.38 C 172.16 56.22 173.20 55.90 173.71 55.74 C 173.46 55.31 172.95 54.45 172.69 54.03 C 173.42 53.87 174.86 53.56 175.59 53.41 L 175.65 54.37 C 175.95 54.59 176.57 55.04 176.87 55.26 L 177.08 55.85 C 176.58 56.03 175.59 56.39 175.09 56.57 C 175.26 56.74 175.61 57.06 175.78 57.23 C 174.50 58.92 177.17 59.26 178.10 60.11 C 177.40 60.42 175.99 61.03 175.29 61.34 C 176.12 62.70 177.69 62.84 179.14 62.93 C 179.43 61.62 179.38 60.26 179.44 58.93 C 177.54 58.50 178.27 57.16 179.29 56.55 C 179.67 54.20 179.88 51.81 180.77 49.57 C 178.48 49.61 176.39 48.70 174.55 47.41 L 174.87 48.56 C 175.95 49.35 177.03 50.14 178.12 50.93 C 177.68 51.90 177.24 52.86 176.80 53.83 C 176.50 53.54 175.91 52.96 175.61 52.68 C 174.58 52.59 173.53 52.51 172.51 52.42 C 174.72 43.07 177.66 33.71 182.62 25.42 M 183.21 27.29 C 183.82 27.92 183.82 27.92 183.21 27.29 M 174.16 50.41 C 174.81 51.06 174.81 51.06 174.16 50.41 M 175.12 63.44 C 175.31 65.15 175.47 66.87 175.65 68.58 C 178.48 68.51 178.64 66.00 178.82 63.80 C 177.89 63.71 176.04 63.53 175.12 63.44 Z" />
<path fill="#ffffff" opacity="1.00" d=" M 278.51 26.87 C 279.84 25.67 281.37 25.24 283.09 25.60 C 282.90 26.24 282.53 27.51 282.34 28.15 C 283.04 27.91 283.74 27.66 284.45 27.42 C 285.24 29.13 286.08 30.81 286.90 32.52 C 286.03 31.95 284.28 30.81 283.40 30.23 C 283.45 30.49 283.54 31.00 283.59 31.26 C 282.40 32.10 281.21 32.94 280.04 33.79 C 281.06 33.69 283.10 33.50 284.12 33.40 C 282.88 35.50 281.24 37.29 279.54 39.01 C 281.35 38.03 283.18 37.07 285.02 36.15 C 284.51 36.90 283.51 38.42 283.01 39.18 C 281.67 39.25 280.34 39.36 279.02 39.50 C 278.78 37.31 278.56 35.13 278.45 32.93 C 279.78 32.03 281.11 31.11 282.23 29.95 C 280.86 30.58 279.51 31.25 278.18 31.97 C 277.91 30.43 277.79 28.87 277.83 27.29 C 278.64 27.39 280.25 27.57 281.06 27.67 C 280.42 27.47 279.15 27.07 278.51 26.87 Z" />
<path fill="#ffffff" opacity="1.00" d=" M 286.11 32.73 C 286.85 33.34 286.85 33.34 286.11 32.73 Z" />
<path fill="#ffffff" opacity="1.00" d=" M 285.04 35.40 C 283.78 34.55 283.76 33.80 284.95 33.16 C 286.22 33.98 286.25 34.73 285.04 35.40 Z" />
<path fill="#ffffff" opacity="1.00" d=" M 286.53 33.58 C 289.81 37.34 289.74 42.93 291.41 47.51 C 289.11 47.04 286.98 47.89 285.12 49.20 C 285.33 49.90 285.74 51.31 285.95 52.01 C 287.63 50.52 289.22 48.83 291.40 48.08 C 292.92 51.81 293.58 55.80 294.59 59.68 C 293.14 59.62 291.70 59.64 290.26 59.55 C 290.46 58.52 290.69 57.49 290.96 56.47 C 290.54 56.46 289.69 56.44 289.27 56.43 C 289.26 56.26 289.22 55.90 289.21 55.72 C 289.81 55.28 291.00 54.39 291.60 53.95 C 290.73 53.60 288.99 52.92 288.12 52.57 C 289.12 52.41 291.11 52.08 292.11 51.92 C 291.65 51.53 290.73 50.74 290.27 50.34 C 289.62 50.70 288.33 51.42 287.68 51.78 C 287.19 52.37 286.22 53.55 285.74 54.14 C 285.64 53.35 285.46 51.76 285.37 50.96 C 284.97 52.92 284.33 54.84 281.91 54.74 C 282.30 49.80 280.51 45.14 279.46 40.40 C 280.60 40.17 281.74 39.94 282.89 39.70 C 282.20 41.16 281.53 42.63 281.15 44.20 C 281.58 43.58 282.44 42.33 282.86 41.71 C 283.91 40.91 284.95 40.11 286.00 39.30 C 285.75 40.47 285.51 41.65 285.29 42.83 C 283.82 43.92 282.34 45.01 281.11 46.37 C 282.74 45.75 284.36 45.09 285.95 44.37 C 285.50 45.33 284.59 47.25 284.13 48.21 C 285.80 47.72 287.46 47.19 289.11 46.61 C 288.47 45.63 287.78 44.68 287.06 43.75 C 287.57 43.59 288.58 43.26 289.09 43.09 C 288.31 42.47 286.75 41.22 285.96 40.60 L 289.13 40.20 C 286.50 38.86 286.10 36.25 286.53 33.58 Z" />
<path fill="#ffffff" opacity="1.00" d=" M 199.79 40.27 C 200.72 39.71 201.66 39.15 202.61 38.59 C 203.66 38.96 204.73 39.32 205.80 39.68 C 206.06 40.44 206.29 41.21 206.48 41.99 C 205.37 47.56 202.27 52.49 200.98 58.00 C 200.42 59.89 199.56 61.68 198.95 63.56 C 197.43 61.95 195.73 60.52 194.15 58.97 C 195.95 59.38 197.61 60.17 199.19 61.12 C 198.89 59.06 197.73 57.42 196.36 55.94 C 194.86 55.58 193.56 54.74 192.15 54.16 C 192.28 56.22 194.69 57.37 195.37 59.24 C 193.83 58.57 192.31 57.85 190.82 57.09 L 192.15 58.77 C 191.02 59.22 189.89 59.67 188.76 60.12 C 189.74 61.35 192.32 62.03 191.42 63.98 C 190.16 64.59 188.69 61.98 187.34 61.48 C 189.86 55.46 191.99 49.14 196.47 44.22 C 196.72 44.66 197.23 45.55 197.48 46.00 C 198.23 45.05 199.00 44.13 199.81 43.23 C 201.21 44.42 202.67 45.58 204.37 46.32 C 202.75 44.03 200.21 42.62 197.48 42.14 C 198.60 41.67 199.76 41.38 200.97 41.26 L 199.79 40.27 M 198.47 48.93 L 197.62 49.88 C 199.04 50.52 200.36 51.57 201.93 51.82 C 202.10 50.59 200.86 50.06 200.14 49.31 C 200.82 49.20 202.18 48.99 202.86 48.88 C 203.21 47.25 201.01 46.98 200.03 46.26 C 199.64 46.93 198.86 48.26 198.47 48.93 M 195.68 50.10 C 196.09 51.26 196.51 52.42 196.81 53.63 C 198.64 52.73 200.24 53.92 201.80 54.78 L 201.61 53.55 C 199.93 52.88 198.57 51.71 197.28 50.49 C 196.88 50.39 196.08 50.20 195.68 50.10 M 192.50 50.95 C 192.83 52.74 194.39 53.40 195.91 53.96 C 197.28 55.60 199.05 56.84 201.08 57.54 C 200.05 55.85 198.41 54.72 196.81 53.63 C 195.37 52.73 193.95 51.82 192.50 50.95 Z" />
<path fill="#ffffff" opacity="1.00" d=" M 183.64 42.45 C 185.00 40.87 186.84 43.74 184.65 44.04 C 184.40 43.64 183.90 42.85 183.64 42.45 Z" />
<path fill="#ffffff" opacity="1.00" d=" M 197.18 43.46 L 197.81 43.57 L 197.71 44.20 L 197.07 44.10 L 197.18 43.46 Z" />
<path fill="#ffffff" opacity="1.00" d=" M 180.27 46.10 C 179.66 45.47 179.66 45.47 180.27 46.10 Z" />
<path fill="#ffffff" opacity="1.00" d=" M 344.58 45.46 C 345.69 44.55 346.37 46.78 345.43 47.20 C 344.03 48.32 342.54 49.34 341.02 50.28 C 341.38 49.85 342.11 49.01 342.48 48.59 C 343.07 47.49 343.58 46.28 344.58 45.46 Z" />
<path fill="#ffffff" opacity="1.00" d=" M 346.07 47.84 C 346.62 49.09 347.11 50.38 347.67 51.64 C 347.52 55.93 348.24 60.33 346.86 64.50 L 345.90 64.57 C 345.39 62.82 344.77 61.09 344.19 59.37 L 346.10 59.96 C 344.19 58.56 344.15 56.13 343.44 54.07 C 344.51 53.19 345.55 52.26 346.52 51.26 C 345.74 51.54 344.18 52.11 343.40 52.39 C 342.59 50.19 344.93 49.19 346.07 47.84 M 345.19 56.01 C 345.85 56.65 345.85 56.65 345.19 56.01 Z" />
<path fill="#ffffff" opacity="1.00" d=" M 257.45 53.97 C 258.20 52.37 259.97 51.79 261.41 50.99 L 261.24 52.19 C 264.73 53.04 265.23 57.21 266.93 59.81 C 264.60 59.56 262.14 59.18 260.14 60.70 C 260.81 62.80 261.42 64.94 261.86 67.11 C 263.56 65.52 265.64 64.36 267.13 62.55 C 267.44 62.51 268.05 62.43 268.36 62.40 C 269.86 64.67 271.30 66.97 272.55 69.39 C 273.87 71.96 275.52 74.34 277.08 76.76 C 276.19 76.64 274.40 76.39 273.51 76.26 C 273.60 77.30 273.68 78.35 273.72 79.40 C 274.58 78.07 276.19 77.69 277.48 76.93 C 278.14 77.75 278.82 78.56 279.53 79.36 C 280.13 79.82 281.31 80.75 281.90 81.22 C 280.73 82.08 279.65 83.04 278.54 83.98 L 277.19 82.95 C 277.75 82.28 278.88 80.94 279.45 80.27 C 278.77 80.78 277.40 81.80 276.71 82.31 C 274.33 82.01 272.47 83.56 270.71 84.91 C 270.38 84.15 269.73 82.64 269.40 81.88 C 270.81 81.13 272.24 80.39 273.67 79.66 C 272.21 78.79 270.60 79.56 269.08 79.75 C 269.68 78.53 271.09 78.23 272.25 77.80 C 271.57 77.35 270.22 76.46 269.55 76.01 C 268.48 76.55 267.41 77.09 266.36 77.63 C 266.80 78.22 267.67 79.41 268.11 80.00 C 268.33 82.98 266.67 80.15 265.93 79.07 C 263.16 73.73 260.88 68.15 258.86 62.50 C 258.65 59.61 257.90 56.82 257.45 53.97 M 277.23 79.28 C 277.87 79.87 277.87 79.87 277.23 79.28 Z" />
<path fill="#ffffff" opacity="1.00" d=" M 163.29 59.92 C 163.46 56.76 167.57 51.45 170.49 55.38 L 168.15 55.84 C 168.43 56.35 168.99 57.37 169.27 57.88 C 166.64 56.35 165.19 58.86 163.29 59.92 Z" />
<path fill="#ffffff" opacity="1.00" d=" M 167.16 58.95 C 168.50 58.27 169.70 58.59 170.77 59.91 C 170.37 60.48 169.56 61.63 169.16 62.20 C 169.34 63.05 169.70 64.75 169.88 65.60 C 167.66 65.01 166.05 66.52 164.57 67.92 C 163.57 66.36 164.19 64.70 165.74 63.83 C 165.13 64.01 163.92 64.37 163.31 64.54 C 162.48 61.24 164.60 59.93 167.16 58.95 Z" />
<path fill="#ffffff" opacity="1.00" d=" M 189.92 60.21 C 190.99 59.65 192.08 59.12 193.18 58.61 C 193.48 59.67 193.75 60.73 194.02 61.79 C 195.46 62.59 196.86 63.47 198.29 64.29 C 197.72 65.97 197.30 67.69 196.91 69.42 C 195.75 68.03 193.66 67.20 193.21 65.32 C 194.58 66.05 195.85 66.94 197.22 67.70 C 195.98 64.18 192.88 62.14 189.92 60.21 Z" />
<path fill="#ffffff" opacity="1.00" d=" M 217.42 60.21 C 217.86 59.90 218.74 59.28 219.17 58.96 C 220.08 59.97 221.05 60.94 221.78 62.09 C 221.40 65.54 218.92 68.17 217.31 71.09 C 215.50 74.77 213.27 78.34 212.61 82.45 C 211.50 83.34 210.54 84.38 209.73 85.55 C 211.30 84.82 212.87 84.07 214.43 83.30 C 214.47 83.90 214.55 85.09 214.59 85.68 C 216.11 85.39 217.63 85.06 219.14 84.68 C 220.35 89.22 220.27 93.96 221.36 98.52 C 220.72 98.41 219.42 98.18 218.78 98.07 L 219.11 98.93 C 219.61 98.86 220.62 98.72 221.13 98.65 C 221.56 100.88 221.89 103.13 222.35 105.37 C 221.31 105.94 220.29 106.52 219.27 107.12 C 220.21 107.19 222.07 107.34 223.00 107.41 C 222.39 107.76 221.78 108.12 221.18 108.49 C 221.94 109.21 223.50 109.51 223.12 110.89 C 223.25 113.83 223.25 116.77 223.36 119.71 C 222.42 119.85 220.55 120.12 219.61 120.26 C 220.70 120.37 222.87 120.61 223.95 120.72 C 223.78 121.23 223.45 122.24 223.29 122.75 C 220.60 122.65 217.68 123.10 215.25 121.69 C 216.50 121.54 219.01 121.26 220.26 121.12 C 218.47 120.37 216.64 119.71 214.89 118.85 C 215.77 118.73 217.54 118.49 218.42 118.37 C 217.87 118.12 216.76 117.60 216.21 117.35 C 216.33 115.76 216.48 114.18 216.65 112.60 C 217.67 111.49 218.62 110.32 219.66 109.22 L 219.42 107.28 C 218.68 107.39 217.21 107.62 216.48 107.74 C 216.46 106.76 216.44 105.79 216.41 104.83 C 215.94 105.24 215.01 106.06 214.54 106.47 C 214.58 108.30 214.51 110.13 214.47 111.96 C 212.05 113.13 209.77 114.56 207.75 116.33 C 209.11 117.21 210.12 118.36 209.92 120.10 C 208.62 119.42 207.32 118.72 206.13 117.85 C 207.56 115.37 209.43 113.18 211.03 110.81 C 210.09 111.49 208.19 112.83 207.24 113.50 C 208.65 111.00 209.49 108.27 209.33 105.38 C 212.43 105.19 215.45 104.24 218.58 104.48 C 218.74 102.55 218.93 100.55 217.77 98.85 C 216.66 98.98 215.55 99.14 214.45 99.32 C 214.48 100.13 214.53 101.75 214.55 102.56 C 214.12 102.95 213.25 103.74 212.82 104.14 C 211.96 104.36 210.26 104.80 209.41 105.02 C 210.23 98.35 207.04 91.58 209.74 85.12 C 207.75 87.36 205.88 89.71 203.87 91.94 C 202.38 93.73 201.03 95.74 198.91 96.87 C 195.19 99.05 192.53 102.53 189.32 105.34 C 189.89 106.53 193.05 107.50 191.08 108.97 L 188.08 110.72 C 188.56 109.88 189.52 108.19 190.00 107.34 C 188.09 109.32 185.06 107.61 182.96 109.29 C 182.21 108.74 181.50 108.15 180.78 107.56 C 179.12 109.25 177.24 107.65 175.57 106.82 C 177.64 106.62 179.73 106.62 181.81 106.59 L 182.28 106.77 C 183.60 106.17 184.69 105.16 185.98 104.50 L 185.75 103.59 L 187.20 104.10 C 186.89 104.79 186.26 106.18 185.95 106.87 C 188.63 105.13 190.56 102.58 192.61 100.19 C 192.54 99.16 192.40 97.09 192.33 96.06 C 193.12 97.04 193.78 98.11 194.31 99.25 C 197.68 97.07 200.37 94.06 203.37 91.45 L 201.03 91.40 C 201.41 90.29 201.80 89.18 202.22 88.09 C 203.16 84.17 203.53 90.13 203.86 90.34 C 206.54 88.79 207.55 86.02 208.41 83.24 C 208.45 83.07 208.54 82.73 208.59 82.56 C 211.70 82.75 212.19 79.19 213.55 77.14 C 212.98 76.19 212.40 75.24 211.83 74.30 L 212.56 74.25 C 212.83 74.73 213.36 75.67 213.63 76.14 C 215.22 71.34 219.21 67.75 220.83 63.04 C 220.68 62.49 220.37 61.40 220.21 60.86 C 218.51 61.24 217.50 62.68 216.40 63.88 C 215.05 63.43 213.68 63.02 212.47 62.27 C 214.06 61.46 215.67 60.64 217.42 60.21 Z" />
<path fill="#ffffff" opacity="1.00" d=" M 262.96 61.00 C 263.99 57.83 265.75 63.01 262.96 61.00 Z" />
<path fill="#ffffff" opacity="1.00" d=" M 262.96 61.00 C 262.33 64.41 260.11 59.32 262.96 61.00 Z" />
<path fill="#ffffff" opacity="1.00" d=" M 264.45 62.07 C 266.10 60.97 266.16 63.53 264.72 63.73 C 264.05 64.59 261.24 64.32 262.76 62.96 C 263.18 62.74 264.03 62.29 264.45 62.07 Z" />
<path fill="#ffffff" opacity="1.00" d=" M 187.02 62.13 C 190.15 65.16 192.76 68.95 196.93 70.65 C 196.34 72.83 195.67 74.99 194.75 77.06 C 194.77 78.01 194.82 79.90 194.84 80.84 L 196.46 80.10 C 196.39 80.74 196.25 82.01 196.18 82.64 C 197.20 84.38 197.56 86.39 198.03 88.33 C 200.52 86.26 197.44 84.37 196.51 82.50 C 198.04 78.53 201.12 75.10 204.26 72.28 C 205.55 69.42 208.04 67.41 209.59 64.72 C 209.71 65.65 209.34 66.57 209.36 67.51 C 207.67 68.75 206.53 70.36 207.81 72.55 L 205.89 70.93 C 206.05 71.50 206.38 72.63 206.54 73.20 C 206.01 73.28 204.94 73.46 204.41 73.54 C 204.88 76.21 205.63 78.82 206.60 81.35 C 206.00 81.05 204.79 80.45 204.19 80.16 C 203.95 80.52 203.47 81.24 203.23 81.61 C 202.73 80.28 202.31 78.91 201.93 77.54 C 202.57 78.14 203.84 79.33 204.47 79.93 C 204.04 78.25 203.38 76.64 202.74 75.04 C 201.10 77.07 199.40 79.16 200.42 81.94 C 199.85 81.75 198.73 81.38 198.16 81.19 C 198.70 82.77 199.73 84.28 199.70 85.99 C 199.09 87.91 198.11 89.73 198.01 91.78 C 197.02 90.81 196.17 89.69 195.27 88.64 L 194.71 89.83 C 195.75 86.68 192.68 84.40 191.11 82.09 C 191.74 81.36 192.21 80.36 193.38 80.35 C 192.81 78.76 193.38 77.28 194.00 75.83 C 192.72 74.42 192.39 72.55 192.09 70.75 C 192.87 71.48 193.64 72.22 194.41 72.96 L 195.42 71.75 C 192.61 69.77 190.31 67.00 186.98 65.85 C 188.41 67.30 189.84 68.75 191.16 70.29 C 189.01 70.90 187.29 69.33 185.39 68.74 C 186.81 70.62 190.46 71.95 188.82 74.82 C 188.67 76.16 188.54 77.51 188.44 78.87 C 187.91 78.74 186.87 78.49 186.34 78.37 C 186.91 79.77 187.38 81.21 187.76 82.68 C 187.19 82.64 186.07 82.56 185.51 82.52 C 185.35 84.15 185.13 85.77 184.88 87.39 L 184.39 85.43 C 183.71 85.86 183.03 86.29 182.36 86.72 C 182.87 87.43 183.89 88.85 184.40 89.56 L 185.51 89.79 L 185.26 87.97 C 185.92 88.41 187.25 89.29 187.91 89.74 L 187.02 86.76 C 190.06 86.12 189.22 89.46 189.56 91.35 C 191.27 93.05 192.79 94.98 191.09 97.42 C 189.68 95.79 187.19 94.24 188.83 91.83 L 187.36 93.27 C 188.79 90.55 185.73 90.74 184.37 89.97 C 184.38 90.64 184.42 92.00 184.43 92.67 C 184.82 92.61 185.59 92.48 185.97 92.41 C 186.78 93.89 187.70 95.29 188.74 96.62 C 188.06 97.19 187.39 97.76 186.74 98.36 L 188.76 97.47 C 188.60 98.46 188.27 100.43 188.11 101.42 C 187.31 100.76 185.72 99.43 184.92 98.76 C 185.17 99.39 185.67 100.65 185.91 101.28 C 184.82 101.87 183.95 102.70 183.30 103.77 C 181.54 100.89 180.07 97.85 178.40 94.93 C 177.24 95.64 176.08 96.35 174.90 97.03 C 174.83 94.25 173.76 91.68 172.85 89.10 L 174.51 89.43 C 174.55 86.69 174.92 83.96 174.73 81.22 C 174.94 81.16 175.36 81.05 175.57 80.99 C 175.50 83.24 175.43 85.57 176.91 87.45 C 177.70 87.50 179.29 87.59 180.08 87.64 C 180.16 85.76 181.87 84.88 182.96 83.65 C 180.38 76.33 184.94 69.02 187.02 62.13 Z" />
<path fill="#ffffff" opacity="1.00" d=" M 212.21 64.10 C 213.70 64.52 214.24 66.30 214.64 67.65 C 213.56 67.65 212.49 67.60 211.42 67.50 C 210.82 69.16 210.11 70.77 209.41 72.39 C 209.34 71.01 209.31 69.62 209.29 68.24 C 210.27 66.87 211.25 65.49 212.21 64.10 Z" />
<path fill="#ffffff" opacity="1.00" d=" M 215.21 65.13 C 215.81 65.74 215.81 65.74 215.21 65.13 Z" />
<path fill="#ffffff" opacity="1.00" d=" M 167.14 66.70 C 167.70 66.62 168.83 66.44 169.39 66.36 C 169.17 66.84 168.73 67.79 168.52 68.27 C 167.40 68.25 166.94 67.73 167.14 66.70 Z" />
<path fill="#ffffff" opacity="1.00" d=" M 164.06 69.78 C 163.78 68.27 164.34 67.73 165.72 68.13 C 166.00 69.40 165.45 69.95 164.06 69.78 Z" />
<path fill="#ffffff" opacity="1.00" d=" M 208.93 72.72 C 209.94 74.23 210.93 75.80 211.17 77.65 C 209.72 77.62 208.28 77.57 206.83 77.50 C 207.64 75.96 208.38 74.38 208.93 72.72 Z" />
<path fill="#ffffff" opacity="1.00" d=" M 292.93 76.42 C 294.08 73.64 297.12 74.87 299.32 74.62 C 300.39 76.11 301.41 77.62 302.48 79.12 C 299.16 79.13 296.70 81.46 294.01 83.01 C 293.21 82.70 292.45 82.34 291.72 81.92 C 290.65 81.02 288.63 80.75 288.65 79.01 C 288.95 76.16 292.09 78.02 293.63 78.64 C 294.21 79.27 294.92 79.74 295.73 80.04 C 295.55 79.49 295.19 78.37 295.01 77.81 C 295.57 77.61 296.69 77.20 297.25 76.99 C 295.81 76.78 294.37 76.59 292.93 76.42 M 292.30 80.18 C 292.88 80.74 292.88 80.74 292.30 80.18 Z" />
<path fill="#ffffff" opacity="1.00" d=" M 216.98 75.72 C 218.10 78.55 218.82 81.52 219.64 84.45 C 218.64 84.49 216.66 84.57 215.66 84.61 C 215.27 83.94 214.49 82.61 214.10 81.94 C 215.31 79.99 216.33 77.93 216.98 75.72 Z" />
<path fill="#ffffff" opacity="1.00" d=" M 295.01 77.81 C 294.54 77.43 294.54 77.43 295.01 77.81 Z" />
<path fill="#ffffff" opacity="1.00" d=" M 190.52 85.70 C 190.62 85.01 190.80 83.62 190.89 82.92 C 191.03 83.89 191.32 85.85 191.46 86.82 C 192.59 87.77 193.73 88.72 194.71 89.83 C 196.81 91.47 195.27 92.80 193.66 93.91 C 192.41 92.50 191.26 90.98 189.82 89.75 C 190.17 89.40 190.52 89.06 190.88 88.72 C 190.05 87.53 189.22 86.34 188.47 85.10 L 190.52 85.70 M 192.86 90.25 C 191.29 93.06 196.18 90.77 192.86 90.25 Z" />
<path fill="#ffffff" opacity="1.00" d=" M 300.25 87.12 C 303.29 86.92 304.45 89.67 305.55 91.94 C 302.57 92.23 300.19 94.25 297.33 94.95 L 297.72 93.98 C 299.24 92.46 301.58 92.06 303.09 90.40 L 301.54 90.84 C 301.22 89.91 300.57 88.05 300.25 87.12 Z" />
<path fill="#ffffff" opacity="1.00" d=" M 297.16 88.26 C 298.06 88.35 299.86 88.53 300.76 88.62 C 301.21 90.76 298.94 94.02 296.53 92.15 C 296.28 91.45 295.79 90.05 295.54 89.36 L 297.12 89.58 L 297.16 88.26 Z" />
<path fill="#ffffff" opacity="1.00" d=" M 177.49 96.35 C 179.13 98.88 182.09 101.52 181.28 104.85 C 180.59 104.32 179.21 103.26 178.52 102.73 L 178.83 104.74 C 177.11 104.50 175.20 104.55 174.20 102.72 C 175.21 102.24 176.28 102.51 177.32 102.72 C 176.03 101.06 175.29 99.20 175.10 97.13 C 175.74 97.79 177.03 99.11 177.67 99.77 C 177.63 98.91 177.53 97.20 177.49 96.35 Z" />
<path fill="#ffffff" opacity="1.00" d=" M 251.32 104.37 C 252.60 103.80 255.16 105.06 254.56 106.61 C 253.27 107.15 250.74 105.92 251.32 104.37 Z" />
<path fill="#ffffff" opacity="1.00" d=" M 285.37 115.95 C 289.05 112.97 292.06 108.60 296.96 107.60 C 298.47 107.15 299.19 108.85 300.17 109.64 C 299.41 112.34 300.68 115.16 299.84 117.81 C 299.38 117.79 298.45 117.75 297.99 117.73 C 298.64 118.19 299.28 118.68 299.89 119.21 L 300.11 120.04 C 299.66 120.18 298.74 120.46 298.29 120.59 C 298.31 121.51 298.94 121.90 300.19 121.77 C 300.21 122.81 300.24 124.88 300.25 125.92 C 299.71 125.51 298.62 124.70 298.07 124.29 C 300.66 126.09 299.29 129.35 299.29 131.97 C 299.30 133.93 298.16 135.56 297.01 137.04 C 296.28 136.27 294.83 134.73 294.10 133.96 C 294.63 133.46 295.16 132.94 295.68 132.42 C 294.77 132.40 293.24 133.42 292.84 132.10 C 293.13 131.22 293.41 130.33 293.68 129.44 C 293.30 129.54 292.55 129.76 292.18 129.86 C 291.18 128.27 290.40 126.57 289.58 124.89 C 290.41 124.20 291.27 123.55 292.15 122.91 C 291.25 123.09 289.44 123.46 288.53 123.65 C 289.98 122.04 291.48 120.49 293.04 118.98 C 293.72 119.71 294.42 120.43 295.12 121.14 L 295.74 119.59 C 294.86 119.09 294.01 118.55 293.20 117.96 C 293.77 117.55 294.90 116.71 295.47 116.30 C 294.48 116.60 292.51 117.21 291.52 117.52 C 291.90 116.84 292.28 116.16 292.68 115.49 C 291.96 114.64 291.27 113.78 290.58 112.92 L 290.74 113.19 C 292.79 116.56 289.97 119.29 288.09 121.83 C 287.68 121.40 286.85 120.55 286.43 120.13 C 286.60 121.01 286.93 122.79 287.10 123.67 C 286.35 123.03 284.85 121.73 284.10 121.08 C 284.31 121.70 284.73 122.93 284.94 123.54 C 284.35 123.49 283.16 123.39 282.57 123.34 C 283.44 124.99 283.67 126.84 283.48 128.68 C 283.19 127.98 282.60 126.58 282.31 125.88 C 281.55 125.25 280.81 124.61 280.07 123.98 C 280.41 125.21 280.77 126.45 281.13 127.68 C 280.09 126.97 276.24 128.28 277.12 126.21 L 277.43 125.70 C 277.51 125.45 277.66 124.93 277.73 124.67 C 277.05 124.59 275.67 124.44 274.99 124.36 C 274.63 124.32 273.90 124.23 273.53 124.19 C 275.53 123.56 278.39 118.82 279.43 122.78 L 279.78 122.96 C 279.59 122.38 279.23 121.21 279.04 120.63 C 281.01 118.88 283.27 117.53 285.37 115.95 Z" />
<path fill="#ffffff" opacity="1.00" d=" M 193.19 108.13 C 194.76 108.60 193.29 111.13 192.01 110.19 C 192.30 109.67 192.89 108.64 193.19 108.13 Z" />
<path fill="#ffffff" opacity="1.00" d=" M 176.09 109.95 C 177.81 109.51 179.53 109.10 181.24 108.61 C 181.47 109.90 181.71 111.18 181.98 112.46 C 183.28 110.66 184.74 108.79 187.23 108.73 C 186.43 110.78 185.07 111.72 183.13 111.57 C 183.41 112.13 183.97 113.26 184.25 113.83 C 185.75 113.04 186.47 111.11 188.30 110.74 C 188.13 111.85 187.78 114.06 187.61 115.16 C 189.52 113.61 191.16 111.78 191.03 109.08 C 191.27 109.35 191.76 109.91 192.01 110.19 C 192.25 112.71 194.99 110.39 196.47 110.55 C 197.50 111.68 198.61 112.74 199.61 113.91 C 199.37 114.63 198.89 116.06 198.64 116.77 C 197.30 117.58 195.96 118.41 194.61 119.22 C 193.58 117.33 192.86 115.25 193.83 113.18 C 193.15 113.82 192.46 114.44 191.72 115.01 C 191.90 118.74 187.41 115.60 186.02 114.48 C 185.86 115.04 185.53 116.16 185.37 116.72 C 184.43 116.07 183.62 115.28 182.94 114.37 C 180.41 113.31 178.12 111.80 176.09 109.95 Z" />
<path fill="#ffffff" opacity="1.00" d=" M 212.02 117.07 C 210.19 113.71 214.66 112.00 216.07 115.22 C 215.58 115.40 214.61 115.77 214.13 115.95 L 214.34 117.27 L 213.77 117.87 L 213.22 118.32 C 213.43 118.80 213.87 119.76 214.08 120.23 C 213.26 119.82 212.44 119.41 211.62 119.01 C 211.72 118.53 211.92 117.55 212.02 117.07 Z" />
<path fill="#ffffff" opacity="1.00" d=" M 199.68 114.46 C 201.96 114.80 204.58 115.88 205.51 118.16 C 204.01 117.85 202.54 117.47 201.06 117.08 C 203.20 118.64 202.11 122.61 205.53 122.46 L 205.50 123.06 C 208.73 123.54 212.02 127.66 208.03 129.93 C 207.46 129.24 206.90 128.56 206.33 127.87 C 206.88 127.46 207.96 126.65 208.50 126.24 C 207.84 126.53 206.52 127.12 205.86 127.41 C 202.28 129.55 207.73 124.51 204.91 123.68 L 204.61 125.69 C 203.95 125.51 202.64 125.15 201.98 124.98 C 202.54 125.73 203.65 127.25 204.21 128.01 C 203.65 127.84 202.52 127.50 201.96 127.33 C 201.76 130.40 198.91 130.55 196.49 130.77 C 197.72 128.51 201.70 126.73 200.08 123.77 C 199.68 124.59 198.88 126.23 198.48 127.05 C 197.24 127.67 196.02 128.31 194.81 128.96 C 195.20 128.18 195.98 126.63 196.36 125.85 L 193.85 127.14 C 193.73 126.49 193.49 125.20 193.37 124.56 C 192.83 125.17 191.75 126.40 191.22 127.02 L 191.43 124.68 C 187.94 125.55 190.33 129.45 189.71 131.79 C 190.46 131.76 191.95 131.70 192.70 131.68 L 191.84 133.72 C 192.62 133.58 194.20 133.30 194.99 133.16 C 194.19 134.21 193.63 135.42 193.19 136.66 C 194.20 136.61 196.21 136.52 197.22 136.47 C 195.65 137.63 194.10 138.80 192.58 140.02 C 194.65 140.34 196.62 141.04 198.61 141.68 C 197.16 142.85 195.81 144.18 196.54 146.21 C 197.16 145.91 198.40 145.31 199.02 145.01 C 199.22 146.26 199.40 147.51 199.56 148.76 C 200.32 148.68 201.85 148.51 202.61 148.42 C 202.18 149.18 201.76 149.93 201.35 150.69 L 200.36 150.06 C 200.36 150.99 200.35 152.83 200.35 153.76 L 201.91 153.23 C 203.62 150.93 206.06 153.04 206.06 155.35 C 204.09 155.11 201.10 156.38 202.18 158.84 C 203.54 158.47 203.94 156.73 204.91 155.83 C 205.45 156.89 206.51 159.00 207.04 160.05 C 208.21 158.55 207.74 156.66 207.84 154.92 C 209.26 156.28 210.94 157.67 210.74 159.88 C 211.41 159.62 212.09 159.37 212.77 159.11 C 212.87 161.28 213.01 163.44 213.07 165.61 C 211.31 163.78 209.97 161.60 208.78 159.38 C 208.01 161.52 206.10 161.94 203.99 161.87 C 204.67 163.49 204.44 166.80 207.01 165.09 C 208.26 164.37 209.45 165.46 210.65 165.72 C 210.01 167.06 209.07 168.01 207.82 168.56 C 207.72 167.98 207.54 166.81 207.45 166.22 C 207.24 166.66 206.82 167.52 206.61 167.96 C 205.29 166.76 204.43 165.18 203.43 163.73 C 203.49 163.21 203.63 162.15 203.69 161.62 C 199.02 157.87 194.58 153.81 189.52 150.56 C 190.60 149.68 191.67 148.78 192.69 147.82 L 189.26 150.19 C 192.19 147.44 190.63 146.05 188.21 145.08 C 188.92 145.90 189.63 146.73 190.35 147.56 C 189.95 148.36 189.54 149.15 189.12 149.93 C 188.02 148.33 187.01 146.67 186.03 144.99 C 186.93 141.45 185.72 137.91 184.57 134.59 C 184.17 133.13 182.91 131.43 184.03 129.97 C 185.24 128.92 186.61 128.10 187.92 127.19 C 186.60 127.78 185.29 128.38 183.98 128.97 L 184.77 125.15 C 185.61 125.20 187.29 125.30 188.13 125.36 C 187.04 124.79 185.87 124.55 184.63 124.61 C 185.67 122.54 186.94 120.58 188.76 119.11 C 192.00 119.99 195.21 121.00 198.43 121.95 C 199.46 122.96 200.51 123.97 201.56 124.96 C 201.92 123.91 202.28 122.87 202.64 121.82 C 201.83 121.74 200.21 121.60 199.40 121.52 C 199.09 119.17 199.29 116.78 199.68 114.46 M 186.75 140.98 C 187.31 140.75 188.43 140.29 188.98 140.07 C 189.53 138.00 190.02 135.93 190.46 133.84 C 187.72 135.13 187.65 138.46 186.75 140.98 M 193.27 149.35 C 191.81 152.38 196.74 149.55 193.27 149.35 M 194.82 152.93 C 196.22 153.10 196.80 152.51 196.58 151.18 C 195.13 151.03 194.54 151.61 194.82 152.93 Z" />
<path fill="#ffffff" opacity="1.00" d=" M 196.49 119.66 C 196.23 118.29 196.80 117.69 198.20 117.85 C 198.45 119.27 197.88 119.87 196.49 119.66 Z" />
<path fill="#ffffff" opacity="1.00" d=" M 212.62 127.24 C 212.72 125.76 213.01 124.30 213.42 122.87 C 213.43 123.52 213.46 124.82 213.47 125.46 C 213.89 125.69 214.72 126.14 215.14 126.36 L 213.01 126.25 C 213.00 128.13 213.21 131.79 216.02 130.03 C 216.33 130.41 216.97 131.18 217.28 131.56 C 217.90 131.66 219.13 131.85 219.75 131.95 C 220.74 133.10 221.85 134.17 223.25 134.84 C 224.50 135.93 225.70 137.08 226.89 138.24 C 226.47 138.87 225.63 140.14 225.21 140.78 C 223.70 137.51 219.48 138.14 217.56 135.30 C 216.57 133.68 214.91 135.31 213.60 135.46 C 213.31 134.93 212.72 133.88 212.42 133.35 C 212.84 133.06 213.68 132.50 214.10 132.22 C 212.81 132.20 210.63 133.92 209.96 132.30 C 207.94 130.36 210.64 127.66 212.62 127.24 Z" />
<path fill="#ffffff" opacity="1.00" d=" M 215.98 124.65 C 218.42 122.79 221.63 123.79 224.43 123.65 C 222.73 126.01 219.40 124.86 216.98 125.67 C 219.51 127.32 223.05 125.46 225.26 127.68 C 228.21 129.95 229.53 133.77 232.96 135.52 C 232.70 136.10 232.17 137.26 231.90 137.85 C 229.16 137.94 226.96 136.68 225.17 134.74 C 223.65 134.13 222.87 132.75 222.22 131.35 C 220.96 130.97 219.68 130.67 218.39 130.52 C 219.53 128.19 216.96 126.52 215.98 124.65 Z" />
<path fill="#ffffff" opacity="1.00" d=" M 272.49 125.25 C 273.69 123.53 275.70 126.22 274.44 127.36 C 273.19 128.54 271.19 126.45 272.49 125.25 Z" />
<path fill="#ffffff" opacity="1.00" d=" M 286.92 124.23 L 289.25 124.39 C 289.82 126.32 290.51 128.22 291.03 130.17 C 289.49 130.48 288.02 130.99 286.62 131.69 C 285.10 130.24 284.56 127.54 287.74 128.29 L 287.79 126.56 L 285.75 126.67 C 286.15 126.49 286.97 126.13 287.37 125.95 C 287.26 125.52 287.03 124.66 286.92 124.23 Z" />
<path fill="#ffffff" opacity="1.00" d=" M 202.03 130.02 C 202.55 129.55 203.58 128.62 204.10 128.15 C 203.82 128.83 203.25 130.19 202.97 130.87 C 203.52 130.83 204.62 130.75 205.17 130.71 C 204.41 131.74 203.68 132.79 202.98 133.86 C 203.90 133.38 205.74 132.40 206.65 131.91 L 205.16 128.89 C 207.33 130.41 209.11 132.40 211.10 134.14 C 210.30 135.37 209.53 136.63 209.24 138.12 C 210.95 137.83 212.02 136.50 213.23 135.43 C 212.52 137.71 213.83 139.70 214.78 141.61 C 214.14 141.64 212.84 141.71 212.19 141.75 L 213.39 139.72 C 211.48 140.41 209.16 141.46 207.90 139.11 C 207.29 139.29 206.07 139.67 205.46 139.86 C 205.47 139.45 205.48 138.62 205.49 138.21 L 203.15 138.08 C 203.77 136.83 204.41 135.59 205.06 134.36 C 204.45 134.74 203.22 135.50 202.61 135.87 C 202.06 133.90 198.95 131.28 202.03 130.02 Z" />
<path fill="#ffffff" opacity="1.00" d=" M 260.50 132.57 C 261.00 131.75 261.48 130.93 261.95 130.10 C 261.39 132.35 260.94 134.63 260.48 136.90 L 262.75 137.32 C 262.77 135.90 262.83 134.48 262.92 133.07 C 263.32 132.86 264.13 132.45 264.54 132.25 C 264.53 133.12 264.51 134.86 264.49 135.73 C 267.93 133.78 272.36 128.18 276.34 131.96 C 277.58 135.76 274.80 138.55 272.56 141.18 C 272.57 142.97 272.78 144.75 272.60 146.54 C 272.89 146.87 273.45 147.53 273.73 147.86 L 272.26 148.98 C 274.79 149.78 271.43 151.93 273.18 153.47 C 273.26 152.88 273.41 151.70 273.49 151.10 C 274.04 151.33 275.14 151.79 275.68 152.02 C 275.31 152.90 274.93 153.79 274.57 154.67 C 275.23 155.15 276.56 156.10 277.22 156.58 C 278.45 156.19 279.68 155.79 280.90 155.38 C 278.08 157.52 277.26 160.84 277.11 164.21 C 277.53 165.19 277.95 166.18 278.38 167.16 C 278.97 167.21 280.14 167.30 280.73 167.35 C 280.55 167.73 280.19 168.49 280.01 168.87 C 284.39 172.96 288.81 177.27 291.71 182.56 C 291.36 182.81 290.67 183.33 290.32 183.58 C 291.79 183.66 293.27 183.80 294.73 184.00 L 293.70 184.86 C 295.22 185.13 296.65 185.69 297.94 186.57 C 296.18 187.07 294.38 187.34 292.61 187.83 C 289.83 188.52 286.78 188.93 284.60 190.99 C 284.24 189.93 283.91 188.87 283.59 187.81 C 286.18 187.64 288.48 186.37 291.01 185.92 C 289.41 185.65 288.01 184.44 286.39 184.47 C 285.00 185.88 283.85 187.65 281.67 187.81 C 281.87 188.21 282.27 189.00 282.48 189.40 C 281.84 189.61 280.57 190.04 279.93 190.25 L 281.97 190.14 C 281.85 190.61 281.63 191.55 281.52 192.02 L 283.18 189.93 C 283.63 190.81 284.08 191.69 284.53 192.58 C 285.59 192.65 286.66 192.70 287.73 192.74 C 284.27 193.28 284.26 196.95 285.58 199.41 C 286.03 201.63 287.84 202.81 289.78 203.68 C 290.32 203.17 290.86 202.65 291.40 202.13 C 289.83 201.58 288.82 200.25 287.74 199.10 C 288.40 199.24 289.73 199.52 290.40 199.66 C 291.34 200.00 292.29 200.35 293.24 200.73 C 293.76 200.57 294.82 200.25 295.35 200.09 C 294.53 201.07 293.70 202.05 292.88 203.03 C 291.91 203.37 290.92 203.65 289.92 203.86 C 289.65 204.48 289.12 205.72 288.85 206.34 C 287.45 206.26 286.00 206.35 284.71 205.71 C 284.40 205.77 283.79 205.89 283.48 205.95 C 281.97 205.25 280.43 204.62 278.92 203.92 C 279.91 202.98 280.91 202.05 281.91 201.13 C 282.91 202.12 283.89 203.15 284.98 204.06 C 284.31 202.11 282.41 201.17 280.89 199.99 C 279.96 202.20 278.71 204.32 275.84 203.63 C 277.27 201.27 278.82 198.97 279.90 196.43 C 277.63 198.11 277.02 201.04 275.29 203.16 C 272.88 202.52 270.69 201.38 268.71 199.88 C 269.14 201.74 271.05 203.74 269.65 205.63 C 268.70 203.87 267.93 202.02 267.55 200.06 L 267.15 200.01 C 267.22 201.01 267.34 203.02 267.41 204.03 C 266.10 202.82 264.81 201.59 263.53 200.36 C 263.49 201.38 263.39 203.41 263.34 204.43 C 265.42 205.09 267.59 205.56 269.53 206.59 C 270.53 206.84 271.53 207.11 272.54 207.37 C 272.61 207.98 272.76 209.19 272.83 209.80 C 270.02 210.99 268.71 207.98 266.75 206.66 C 267.39 208.24 268.36 209.64 269.27 211.06 C 267.36 210.92 265.45 210.85 263.55 210.71 C 264.25 209.59 265.26 208.78 266.29 207.99 C 265.68 207.42 264.45 206.29 263.83 205.72 C 263.48 206.34 262.76 207.58 262.40 208.21 L 262.49 205.97 C 261.84 206.31 260.54 206.99 259.89 207.32 C 259.52 209.96 263.50 209.75 263.44 212.45 C 261.43 211.66 259.98 209.91 259.33 207.90 C 259.19 205.94 260.06 204.12 260.67 202.31 C 260.50 202.43 260.16 202.66 259.99 202.78 L 259.57 203.19 L 258.48 203.48 C 258.51 204.24 258.56 205.78 258.58 206.54 C 256.95 206.61 255.31 206.62 253.68 206.65 C 255.39 204.30 255.71 201.44 256.36 198.71 C 254.30 201.12 254.80 204.57 252.76 206.93 C 252.58 205.54 252.43 204.15 252.33 202.76 C 250.48 201.11 249.06 198.86 250.65 196.50 C 250.23 196.61 249.41 196.83 248.99 196.94 C 248.84 195.31 249.70 193.76 249.80 192.14 C 248.22 194.81 246.85 197.61 246.09 200.63 C 245.45 200.10 244.81 199.57 244.17 199.05 C 244.72 200.72 244.66 202.46 244.45 204.19 C 243.63 202.61 243.02 200.78 241.13 200.24 C 241.64 198.64 242.32 197.11 242.92 195.54 L 241.04 195.56 C 241.83 193.57 242.67 191.59 243.80 189.77 C 244.63 188.68 245.26 186.50 247.31 188.65 C 247.39 187.65 247.55 185.66 247.63 184.66 L 245.78 186.08 L 245.34 183.70 C 244.41 184.27 242.54 185.41 241.60 185.99 C 242.34 184.86 243.82 182.62 244.56 181.50 C 243.23 181.89 240.54 186.59 239.27 183.77 C 238.36 182.34 238.51 180.59 238.21 178.99 C 238.74 178.85 239.80 178.56 240.33 178.41 C 240.80 179.95 241.39 181.64 240.26 183.07 C 241.07 182.09 241.91 181.12 242.78 180.20 C 242.62 179.85 242.30 179.16 242.13 178.81 C 241.89 175.07 247.14 176.91 249.13 175.96 C 244.51 178.82 250.68 177.86 251.96 179.93 C 252.19 177.26 249.27 177.73 247.64 177.93 C 249.59 176.72 250.61 174.18 248.38 172.79 C 248.53 173.53 248.83 175.01 248.97 175.76 C 246.19 176.10 243.60 174.12 240.92 174.96 C 240.24 175.05 239.57 175.14 238.89 175.21 C 238.73 174.81 238.40 174.02 238.23 173.62 C 240.37 173.15 242.48 172.54 244.65 172.20 L 244.71 171.57 L 245.47 171.80 C 245.80 171.23 246.45 170.08 246.77 169.50 C 248.00 170.53 249.38 171.35 251.06 171.46 C 251.50 172.56 251.90 173.67 252.30 174.79 L 253.59 172.92 C 253.56 174.15 253.53 175.38 253.49 176.62 C 253.98 176.63 254.96 176.66 255.45 176.67 C 255.55 175.45 255.63 174.23 255.84 173.03 C 259.56 175.03 258.32 179.94 259.42 183.36 C 258.01 183.85 256.61 184.37 255.19 184.83 C 255.54 184.46 256.23 183.72 256.58 183.35 C 256.28 182.71 255.68 181.41 255.38 180.77 C 253.92 182.11 252.42 183.41 251.00 184.80 C 249.44 185.76 247.48 186.86 248.26 189.04 C 248.47 188.58 248.89 187.68 249.11 187.23 C 249.75 187.26 251.04 187.33 251.69 187.36 C 252.50 187.29 254.12 187.14 254.93 187.07 L 254.40 188.56 L 255.77 188.24 C 255.80 188.70 255.85 189.62 255.87 190.08 C 256.08 189.58 256.51 188.58 256.72 188.08 C 257.86 188.31 259.00 188.53 260.15 188.75 C 261.47 189.60 262.84 190.40 263.95 191.54 C 264.20 191.53 264.72 191.51 264.98 191.50 C 265.54 192.82 266.23 194.08 267.04 195.27 C 267.97 194.15 268.70 192.92 269.23 191.57 C 269.66 191.91 270.53 192.60 270.96 192.94 C 270.55 193.11 269.71 193.47 269.30 193.64 L 270.18 195.13 C 270.81 194.51 271.44 193.89 272.08 193.28 C 272.58 191.70 273.12 190.15 273.69 188.61 C 273.37 188.27 272.73 187.61 272.41 187.28 C 273.93 184.60 275.44 181.91 276.97 179.23 C 277.50 179.92 278.04 180.61 278.57 181.30 L 276.67 181.55 L 276.87 182.95 C 277.30 182.61 278.17 181.93 278.60 181.60 C 278.64 180.65 278.69 179.70 278.73 178.75 C 277.83 178.24 276.03 177.22 275.12 176.72 C 276.11 176.68 278.09 176.62 279.07 176.59 C 277.18 176.36 275.75 175.30 275.27 173.47 C 275.08 174.45 274.82 175.41 274.49 176.36 C 273.03 176.90 271.54 177.47 270.36 178.51 C 270.81 178.38 271.71 178.12 272.16 177.99 C 273.09 177.80 274.97 177.43 275.91 177.24 C 275.18 179.57 273.86 181.63 272.66 183.74 C 272.20 183.74 271.27 183.74 270.81 183.74 C 271.28 183.92 272.21 184.27 272.67 184.44 C 271.39 186.75 270.16 189.10 269.23 191.57 C 268.75 191.56 267.79 191.54 267.31 191.53 C 268.01 190.32 268.71 189.09 269.36 187.85 C 268.56 188.51 266.97 189.83 266.18 190.49 C 266.23 188.25 267.40 186.46 268.76 184.83 C 267.81 185.67 266.87 186.51 265.93 187.35 C 264.71 187.44 263.50 187.56 262.29 187.68 C 262.32 187.26 262.37 186.41 262.40 185.99 C 260.12 183.64 259.41 180.32 259.60 177.14 C 259.83 174.25 261.82 178.93 262.39 176.86 C 262.43 175.19 261.43 173.68 261.18 172.04 C 260.46 172.88 260.25 175.92 259.06 175.14 C 258.60 174.52 257.67 173.26 257.20 172.64 C 257.58 171.28 257.93 169.92 258.33 168.58 C 258.07 167.42 257.81 166.26 257.57 165.11 L 257.00 165.12 C 257.21 166.70 257.44 168.27 257.69 169.85 C 256.56 170.67 255.73 173.29 254.02 172.05 C 253.87 171.40 253.58 170.11 253.43 169.46 C 252.45 167.62 251.50 165.75 250.52 163.92 C 251.14 164.02 252.39 164.22 253.01 164.33 C 252.44 164.03 251.28 163.43 250.70 163.13 C 251.02 160.43 247.86 159.88 246.33 158.33 C 246.30 158.65 246.23 159.27 246.19 159.59 C 247.55 160.58 248.89 161.60 250.23 162.64 C 245.63 163.64 240.60 159.53 236.67 163.48 C 235.95 162.96 235.16 162.55 234.50 161.99 C 234.77 162.90 235.32 164.71 235.60 165.62 C 234.48 164.95 233.44 164.17 232.41 163.39 C 230.62 164.61 228.91 165.95 227.06 167.08 C 228.17 165.17 229.48 163.38 231.10 161.87 C 230.26 162.03 228.59 162.34 227.76 162.50 C 227.96 161.11 228.15 159.71 228.33 158.32 C 228.83 158.39 229.82 158.54 230.32 158.62 C 230.57 158.05 231.07 156.91 231.32 156.34 C 231.48 156.00 231.79 155.32 231.95 154.99 L 234.10 155.90 C 234.20 155.27 234.39 154.02 234.48 153.40 C 237.34 152.14 240.64 152.77 243.41 151.24 C 243.36 151.81 243.26 152.96 243.21 153.53 C 243.76 153.12 244.85 152.32 245.39 151.92 C 244.60 151.14 243.88 150.31 243.25 149.41 L 242.02 149.88 L 242.50 148.28 C 239.85 149.50 236.95 149.93 234.20 150.81 C 231.94 152.00 230.04 153.78 227.75 154.93 C 228.86 152.89 230.45 151.19 231.97 149.45 C 232.49 149.54 233.54 149.71 234.07 149.80 C 233.82 149.54 233.33 149.00 233.08 148.74 L 234.47 149.03 C 235.28 148.73 236.91 148.14 237.72 147.85 L 234.63 146.13 C 235.56 145.55 236.50 144.97 237.43 144.39 C 239.69 141.56 242.34 139.01 245.48 137.17 C 247.64 136.72 249.82 135.67 252.03 136.99 C 250.96 135.39 249.83 133.84 248.98 132.10 C 250.71 133.34 251.93 135.06 252.99 136.87 C 255.15 136.67 257.32 136.65 259.46 136.27 C 258.34 135.99 256.10 135.44 254.98 135.16 C 255.24 134.61 255.75 133.52 256.01 132.97 C 256.14 132.74 256.39 132.27 256.52 132.04 C 257.81 131.06 259.20 132.16 260.50 132.57 M 271.32 134.18 C 271.36 134.97 271.36 135.77 271.29 136.57 C 271.44 136.86 271.76 137.44 271.92 137.73 L 269.94 138.93 C 273.25 139.22 274.74 135.73 276.04 133.27 C 274.45 133.45 272.87 133.77 271.32 134.18 M 249.49 150.67 C 248.38 151.28 247.26 151.89 246.15 152.50 C 247.93 153.56 249.92 154.13 251.79 154.98 C 253.59 156.06 254.76 158.73 257.41 157.30 C 255.51 155.73 253.40 154.47 251.41 153.05 C 250.67 153.09 249.21 153.16 248.47 153.20 C 249.52 150.89 252.17 150.44 254.07 149.09 C 252.51 149.51 251.00 150.11 249.49 150.67 M 273.92 189.92 C 273.56 191.70 273.28 193.49 272.97 195.28 C 273.43 195.31 274.36 195.37 274.82 195.40 L 274.11 196.85 C 274.60 196.76 275.59 196.58 276.08 196.49 C 276.46 195.30 276.92 194.10 277.55 193.03 C 275.90 192.57 274.97 191.13 273.92 189.92 Z" />
<path fill="#ffffff" opacity="1.00" d=" M 253.49 134.53 C 251.74 134.29 251.89 130.58 253.83 131.66 C 254.53 132.34 254.95 134.55 253.49 134.53 Z" />
<path fill="#ffffff" opacity="1.00" d=" M 233.47 134.06 C 236.85 132.41 243.02 132.88 244.40 137.24 C 242.29 135.86 240.09 134.65 237.81 133.61 C 238.72 134.66 240.54 136.75 241.45 137.80 C 239.81 138.96 238.19 138.47 236.92 137.05 C 237.39 136.58 238.34 135.64 238.81 135.17 C 238.22 135.26 237.03 135.44 236.43 135.53 C 236.18 138.02 237.73 142.25 233.94 142.47 C 233.20 139.73 233.16 136.87 233.47 134.06 Z" />
<path fill="#ffffff" opacity="1.00" d=" M 282.01 138.38 C 282.83 136.22 284.18 134.32 285.67 132.57 C 284.74 134.52 283.73 136.43 282.93 138.44 C 284.69 137.76 285.89 136.54 286.55 134.76 C 287.92 134.58 289.29 134.41 290.66 134.24 C 290.58 135.13 290.41 136.91 290.32 137.80 C 290.63 137.80 291.24 137.81 291.55 137.81 C 290.80 136.09 290.35 133.00 293.09 132.81 C 293.91 135.63 298.39 137.65 296.12 140.85 C 295.18 140.15 294.22 139.50 293.24 138.88 C 293.73 139.78 293.98 140.72 294.00 141.72 C 293.48 141.66 292.44 141.55 291.92 141.49 C 292.76 142.54 293.66 143.54 294.56 144.55 C 292.88 147.12 290.80 149.36 288.59 151.46 C 288.80 150.45 289.01 149.45 289.22 148.44 C 289.72 148.15 290.71 147.56 291.20 147.26 C 289.93 147.33 288.66 147.41 287.40 147.49 C 287.71 148.09 288.32 149.28 288.63 149.88 C 287.62 151.06 286.42 152.02 285.04 152.77 C 286.44 150.44 285.75 147.81 285.40 145.35 C 291.17 150.51 283.89 138.62 289.13 143.66 L 288.67 142.11 C 289.57 141.00 290.36 139.82 291.05 138.56 L 288.12 139.45 C 288.16 138.92 288.23 137.85 288.27 137.32 C 288.04 137.31 287.58 137.31 287.35 137.31 C 287.41 137.80 287.53 138.77 287.58 139.25 C 286.49 139.94 285.42 140.66 284.38 141.42 C 282.29 141.86 280.22 142.54 278.06 142.34 C 278.75 141.21 279.42 140.07 280.09 138.93 C 280.57 138.79 281.53 138.52 282.01 138.38 Z" />
<path fill="#ffffff" opacity="1.00" d=" M 214.25 136.44 C 215.23 136.26 216.43 135.72 217.25 136.60 C 220.54 138.87 223.46 141.61 226.46 144.24 C 224.85 147.79 221.22 144.18 219.41 142.65 C 216.77 141.43 215.44 138.94 214.25 136.44 Z" />
<path fill="#ffffff" opacity="1.00" d=" M 226.56 140.88 C 225.90 138.77 229.12 138.50 229.67 140.27 C 230.37 142.23 227.10 142.43 226.56 140.88 Z" />
<path fill="#ffffff" opacity="1.00" d=" M 208.29 142.47 C 209.69 142.33 211.09 142.20 212.50 142.09 C 211.59 142.61 210.67 143.12 209.75 143.63 C 211.87 143.84 213.97 144.23 216.10 144.43 C 216.29 145.69 216.44 146.95 216.59 148.22 C 215.70 148.24 212.98 149.09 214.89 150.00 C 215.83 150.60 216.76 151.21 217.68 151.83 L 215.08 151.70 L 215.44 152.82 C 216.34 153.30 217.24 153.80 218.12 154.32 C 215.69 154.78 211.36 155.00 211.10 151.69 C 212.52 151.63 213.91 151.84 215.27 152.33 C 214.64 151.45 214.01 150.57 213.39 149.69 C 211.15 149.81 209.00 149.15 206.93 148.36 C 207.31 147.88 208.06 146.91 208.44 146.43 C 209.51 146.49 211.65 146.62 212.72 146.68 C 211.27 146.18 209.80 145.77 208.33 145.38 C 208.31 144.41 208.30 143.44 208.29 142.47 M 214.20 145.19 C 214.71 145.86 214.71 145.86 214.20 145.19 Z" />
<path fill="#ffffff" opacity="1.00" d=" M 229.22 143.29 C 230.72 143.97 232.23 144.64 233.88 144.89 C 232.56 145.70 231.23 146.50 229.92 147.33 C 229.25 146.62 228.58 145.91 227.91 145.19 C 228.59 145.17 229.95 145.12 230.62 145.10 C 230.27 144.65 229.57 143.74 229.22 143.29 Z" />
<path fill="#ffffff" opacity="1.00" d=" M 218.39 145.27 C 219.69 144.30 222.29 146.41 220.79 147.72 C 219.35 148.98 217.43 146.63 218.39 145.27 Z" />
<path fill="#ffffff" opacity="1.00" d=" M 276.69 147.17 C 276.58 146.08 278.66 144.61 278.98 146.23 C 279.37 147.53 277.05 148.75 276.69 147.17 Z" />
<path fill="#ffffff" opacity="1.00" d=" M 281.12 145.26 C 283.77 144.77 281.20 148.34 280.61 145.90 L 281.12 145.26 Z" />
<path fill="#ffffff" opacity="1.00" d=" M 223.20 149.08 C 224.42 147.54 226.33 147.14 228.11 146.59 C 228.33 147.07 228.78 148.01 229.00 148.48 C 227.86 149.93 226.82 151.46 225.71 152.92 C 228.13 155.03 225.21 154.63 223.69 154.66 C 223.41 154.04 222.85 152.80 222.57 152.18 C 223.63 151.94 224.69 151.71 225.74 151.44 C 225.11 150.85 223.84 149.67 223.20 149.08 Z" />
<path fill="#ffffff" opacity="1.00" d=" M 283.19 152.07 C 282.80 150.81 282.63 148.62 283.92 147.90 C 284.45 148.85 285.04 153.20 283.19 152.07 Z" />
<path fill="#ffffff" opacity="1.00" d=" M 276.68 149.38 C 278.08 149.43 279.41 151.05 279.45 152.45 C 277.92 155.08 276.27 150.92 276.68 149.38 Z" />
<path fill="#ffffff" opacity="1.00" d=" M 279.95 148.84 C 281.33 149.21 281.19 151.61 280.73 152.70 C 279.41 152.30 279.27 149.89 279.95 148.84 Z" />
<path fill="#ffffff" opacity="1.00" d=" M 213.33 156.15 C 213.74 156.90 213.74 156.90 213.33 156.15 Z" />
<path fill="#ffffff" opacity="1.00" d=" M 213.28 166.23 C 214.92 163.10 216.76 159.77 220.06 158.12 C 218.33 161.17 216.54 164.59 213.28 166.23 Z" />
<path fill="#ffffff" opacity="1.00" d=" M 220.04 166.30 C 220.87 163.44 221.53 160.11 224.25 158.39 C 223.51 161.33 222.00 164.01 220.04 166.30 Z" />
<path fill="#ffffff" opacity="1.00" d=" M 278.47 159.19 C 279.93 159.25 281.38 159.34 282.83 159.46 C 283.27 160.35 283.70 161.24 284.13 162.13 C 282.14 161.38 279.94 160.86 278.47 159.19 Z" />
<path fill="#ffffff" opacity="1.00" d=" M 225.26 161.23 L 226.00 161.33 C 224.85 164.41 224.38 168.65 220.79 169.84 C 220.00 170.52 219.22 171.20 218.45 171.89 L 221.17 171.38 C 219.74 173.43 218.13 175.34 216.36 177.10 C 217.22 177.24 218.94 177.53 219.80 177.67 C 219.71 178.40 219.54 179.85 219.45 180.58 C 219.76 180.89 220.39 181.52 220.71 181.83 C 220.51 181.09 220.31 180.35 220.13 179.62 C 220.75 177.67 220.25 175.65 220.06 173.69 C 220.68 173.98 221.90 174.54 222.51 174.83 C 222.48 175.56 222.44 177.01 222.42 177.74 C 223.29 177.07 224.17 176.42 225.06 175.79 C 224.41 174.48 223.77 173.17 223.15 171.86 C 224.06 171.75 225.89 171.54 226.80 171.43 C 226.44 170.86 225.73 169.71 225.37 169.13 C 226.20 169.54 226.96 170.08 227.80 170.49 C 227.72 170.78 227.58 171.35 227.51 171.63 C 229.21 172.90 229.97 174.93 230.83 176.80 C 231.27 176.69 232.14 176.47 232.57 176.36 C 232.44 176.87 232.16 177.88 232.02 178.39 C 232.44 178.59 233.27 178.99 233.68 179.19 C 234.79 180.12 235.57 181.35 236.42 182.52 C 237.02 183.76 237.64 185.00 238.26 186.25 C 240.00 186.98 241.68 188.07 243.70 187.81 C 242.74 189.01 241.60 190.00 240.29 190.77 C 240.48 191.25 240.87 192.20 241.06 192.68 L 239.10 192.09 C 239.44 194.02 239.81 195.96 240.10 197.91 C 237.81 196.14 235.52 194.06 233.85 191.74 C 234.39 195.20 237.16 197.27 239.20 199.77 L 237.48 199.18 C 238.07 201.94 237.48 204.70 237.28 207.46 C 235.97 206.52 233.36 204.64 232.06 203.70 C 233.21 205.33 235.50 208.58 236.65 210.21 C 235.99 210.19 234.68 210.15 234.03 210.13 L 234.50 212.34 C 233.76 211.82 232.29 210.78 231.56 210.25 L 229.92 211.65 L 231.11 208.75 L 229.22 210.45 C 229.75 208.83 229.33 207.42 227.98 206.21 C 228.18 205.49 228.40 204.78 228.64 204.07 C 230.00 205.78 231.43 207.45 232.99 208.99 C 231.14 206.20 228.20 203.96 227.89 200.38 C 228.70 200.90 230.32 201.93 231.12 202.44 C 229.43 199.05 227.71 195.65 226.50 192.05 C 229.47 189.99 226.12 186.75 224.24 185.27 C 224.81 186.41 225.32 187.58 225.78 188.77 C 225.42 188.91 224.70 189.20 224.34 189.34 C 224.88 192.67 227.16 195.23 228.28 198.33 C 226.09 196.75 224.58 194.38 222.15 193.11 C 222.30 192.67 222.59 191.79 222.73 191.35 L 222.09 191.16 L 222.00 192.77 C 221.06 191.78 220.04 190.88 218.96 190.07 C 220.91 193.55 224.42 195.99 226.63 199.39 C 226.48 199.76 226.18 200.50 226.03 200.87 L 227.55 200.30 C 228.02 201.92 228.12 203.62 227.30 205.15 C 226.11 203.83 224.73 202.64 224.15 200.91 C 222.99 199.95 221.87 198.94 220.73 197.97 C 221.55 199.29 222.48 200.54 223.42 201.79 C 221.01 203.80 225.70 205.61 223.29 207.80 C 221.64 205.17 220.14 202.45 218.80 199.64 C 218.71 196.99 217.29 194.61 217.36 191.94 C 214.70 193.26 214.07 189.79 216.47 190.24 C 216.63 189.91 216.95 189.25 217.12 188.92 C 217.83 189.27 218.58 189.57 219.33 189.84 C 218.36 188.28 217.78 186.51 216.80 184.97 L 217.50 183.35 C 219.08 185.51 220.48 187.80 221.13 190.43 C 221.47 189.71 221.70 188.95 221.80 188.17 C 218.88 183.63 216.10 178.98 213.54 174.24 L 215.19 175.97 C 216.80 172.85 218.78 169.94 221.19 167.38 C 221.97 166.01 222.80 164.68 223.60 163.32 C 223.98 163.33 224.74 163.33 225.12 163.34 C 225.15 162.81 225.23 161.75 225.26 161.23 M 226.29 174.24 C 226.40 176.25 227.47 178.48 229.04 179.79 L 229.57 179.58 C 229.02 177.69 227.66 175.46 226.29 174.24 Z" />
<path fill="#ffffff" opacity="1.00" d=" M 246.87 163.31 C 249.98 161.89 246.97 166.66 246.87 163.31 Z" />
<path fill="#ffffff" opacity="1.00" d=" M 279.22 163.05 C 282.13 161.62 279.22 166.48 279.22 163.05 Z" />
<path fill="#ffffff" opacity="1.00" d=" M 215.77 167.80 C 215.47 166.42 217.31 164.34 218.66 164.30 C 218.87 165.82 217.55 168.26 215.77 167.80 Z" />
<path fill="#ffffff" opacity="1.00" d=" M 240.40 164.63 C 241.59 164.46 242.77 164.29 243.96 164.11 C 244.03 164.54 244.18 165.41 244.25 165.84 C 242.61 165.80 240.96 165.89 239.33 165.94 C 239.60 165.61 240.13 164.96 240.40 164.63 Z" />
<path fill="#ffffff" opacity="1.00" d=" M 232.10 165.09 C 233.51 164.41 235.36 167.69 233.16 167.79 C 231.64 167.29 231.29 166.39 232.10 165.09 Z" />
<path fill="#ffffff" opacity="1.00" d=" M 210.47 167.93 C 211.60 167.46 212.68 166.88 213.79 166.36 C 214.62 168.10 214.54 169.55 212.20 169.58 L 212.26 169.71 C 213.24 169.57 215.19 169.29 216.16 169.15 C 215.29 170.46 214.34 171.73 213.40 172.99 C 212.62 172.36 211.85 171.72 211.07 171.10 C 210.26 170.48 209.45 169.84 208.65 169.20 C 209.11 168.88 210.01 168.25 210.47 167.93 Z" />
<path fill="#ffffff" opacity="1.00" d=" M 248.57 166.66 C 249.88 165.58 251.69 167.61 250.48 168.81 C 249.18 170.26 247.20 167.82 248.57 166.66 Z" />
<path fill="#ffffff" opacity="1.00" d=" M 230.53 168.07 C 233.70 169.25 236.90 171.02 237.09 174.82 C 234.76 173.41 233.25 171.23 231.95 168.92 C 232.16 169.90 232.57 171.85 232.78 172.83 L 230.62 172.75 C 230.60 171.58 230.55 169.24 230.53 168.07 Z" />
<path fill="#ffffff" opacity="1.00" d=" M 231.84 173.00 C 235.28 173.10 230.38 176.04 231.84 173.00 Z" />
<path fill="#ffffff" opacity="1.00" d=" M 213.23 176.45 C 214.96 178.97 217.78 181.60 216.80 184.97 C 216.44 184.66 215.71 184.05 215.35 183.74 C 215.96 185.45 216.66 187.15 217.12 188.92 C 215.22 188.81 213.09 188.80 212.41 186.50 C 212.82 185.57 213.43 184.71 213.67 183.71 C 212.77 184.27 211.87 184.83 210.96 185.38 C 213.33 188.62 213.95 192.67 215.81 196.17 C 216.22 197.11 216.53 198.08 216.72 199.09 C 214.85 197.72 212.01 194.21 210.74 198.29 C 214.05 197.59 212.15 199.55 211.83 200.61 L 212.16 201.70 L 211.44 202.43 L 211.48 200.47 C 210.90 200.54 209.73 200.67 209.15 200.74 C 209.31 199.35 209.49 197.97 209.65 196.58 C 209.06 196.48 207.87 196.27 207.28 196.17 C 207.40 197.81 207.55 199.45 207.80 201.07 C 207.21 200.90 206.05 200.55 205.46 200.38 C 205.23 198.90 204.63 197.13 206.99 197.14 C 206.87 196.44 206.62 195.05 206.50 194.35 L 207.32 194.91 C 207.64 194.14 208.29 192.60 208.61 191.82 C 208.34 191.55 207.80 191.00 207.53 190.73 L 208.31 190.69 C 209.76 185.88 212.02 181.35 213.23 176.45 Z" />
<path fill="#ffffff" opacity="1.00" d=" M 285.82 190.92 C 288.67 187.39 293.43 189.36 296.93 187.04 C 300.31 189.32 304.19 191.11 305.98 195.04 C 305.48 196.20 305.01 197.38 304.52 198.55 C 304.37 196.58 304.09 194.63 303.70 192.70 C 302.24 192.13 300.89 190.85 299.23 191.10 C 299.76 192.72 301.03 194.03 301.73 195.60 C 299.96 194.11 298.39 192.35 296.39 191.16 C 295.76 192.55 296.86 193.58 297.86 194.36 C 298.19 195.23 298.52 196.10 298.84 196.98 C 298.16 197.73 297.48 198.48 296.78 199.22 C 296.80 198.34 296.85 196.58 296.87 195.70 C 295.59 195.63 294.41 195.28 293.33 194.64 L 296.36 194.05 C 295.85 193.34 294.83 191.92 294.31 191.21 L 293.21 192.10 L 293.35 189.89 C 293.17 190.32 292.81 191.18 292.63 191.61 C 291.15 191.77 289.69 191.98 288.23 192.24 C 287.41 191.82 286.60 191.38 285.82 190.92 Z" />
<path fill="#ffffff" opacity="1.00" d=" M 264.26 189.26 C 264.93 189.78 264.93 189.78 264.26 189.26 Z" />
<path fill="#ffffff" opacity="1.00" d=" M 244.77 204.46 C 246.33 202.10 246.91 198.65 248.99 196.94 C 249.82 198.15 248.77 199.40 248.64 200.61 C 249.91 201.55 252.46 201.89 252.09 204.00 C 251.52 204.51 250.39 205.51 249.82 206.02 C 249.57 204.59 249.29 203.20 248.96 201.81 C 248.64 202.44 248.02 203.70 247.71 204.33 C 246.98 204.36 245.51 204.43 244.77 204.46 Z" />
<path fill="#ffffff" opacity="1.00" d=" M 303.33 198.51 C 304.28 199.53 304.95 200.76 305.60 201.99 C 305.34 202.78 304.82 204.36 304.56 205.15 C 303.82 205.40 303.10 205.66 302.37 205.92 C 302.15 205.59 301.71 204.93 301.49 204.60 C 302.43 203.79 303.36 202.97 304.30 202.16 C 303.94 200.95 303.61 199.73 303.33 198.51 Z" />
<path fill="#ffffff" opacity="1.00" d=" M 204.04 200.31 C 205.66 200.12 206.83 203.65 205.11 204.15 C 204.25 203.19 203.78 201.56 204.04 200.31 Z" />
<path fill="#ffffff" opacity="1.00" d=" M 274.00 205.37 C 276.01 206.09 277.91 207.10 279.51 208.54 C 282.12 208.67 284.74 208.84 287.32 209.34 C 285.97 212.10 282.97 211.34 280.48 211.22 C 279.67 210.87 278.06 210.17 277.25 209.81 C 277.24 210.58 277.23 212.12 277.22 212.89 C 277.01 212.47 276.59 211.64 276.38 211.22 C 275.40 211.33 273.45 211.54 272.48 211.65 C 273.62 210.56 275.00 209.78 276.48 209.23 C 275.62 207.96 274.78 206.68 274.00 205.37 Z" />
<path fill="#ffffff" opacity="1.00" d=" M 223.73 208.32 C 224.53 207.55 225.22 205.52 226.66 206.26 C 227.10 207.43 226.31 208.62 226.14 209.78 C 228.06 210.11 229.40 211.49 230.71 212.80 C 231.28 212.50 231.85 212.22 232.43 211.93 C 232.10 213.49 232.73 214.86 233.53 216.16 C 232.38 215.43 231.23 214.71 230.08 214.01 C 227.99 212.07 225.47 210.63 223.73 208.32 Z" />
<path fill="#ffffff" opacity="1.00" d=" M 241.67 207.73 C 242.38 207.23 243.10 206.74 243.82 206.24 L 243.28 207.53 C 245.12 208.00 246.94 208.49 248.81 208.84 L 248.53 207.27 C 248.77 207.29 249.24 207.34 249.47 207.36 L 249.19 208.46 C 249.62 208.65 250.49 209.05 250.93 209.24 C 252.44 209.18 253.96 209.27 255.48 209.44 C 255.56 209.97 255.74 211.04 255.82 211.58 C 253.02 211.43 250.25 211.01 247.47 210.63 L 247.08 212.93 L 248.51 212.44 C 248.37 213.31 248.23 214.17 248.09 215.05 C 246.89 214.34 245.69 213.62 244.50 212.90 C 244.50 213.49 244.50 214.66 244.50 215.25 C 243.65 213.56 242.80 211.88 241.88 210.23 C 241.81 209.39 241.74 208.56 241.67 207.73 Z" />
<path fill="#ffffff" opacity="1.00" d=" M 204.18 207.23 C 204.75 207.88 204.75 207.88 204.18 207.23 Z" />
<path fill="#ffffff" opacity="1.00" d=" M 220.89 206.63 C 224.92 210.55 228.73 214.74 232.37 219.03 L 232.10 220.20 C 230.00 219.91 229.03 217.68 227.38 216.60 C 228.23 219.01 230.19 220.72 231.82 222.61 L 230.41 222.39 C 230.62 223.33 231.05 225.20 231.27 226.14 C 227.94 222.58 224.67 218.81 222.19 214.59 C 223.03 215.06 224.70 216.01 225.53 216.49 C 224.60 214.85 223.36 213.28 223.25 211.31 C 222.76 211.14 221.79 210.78 221.31 210.61 C 221.59 210.35 222.15 209.85 222.43 209.59 C 222.05 208.85 221.28 207.37 220.89 206.63 Z" />
<path fill="#ffffff" opacity="1.00" d=" M 296.42 209.73 C 297.35 208.80 298.32 207.90 299.31 207.03 C 299.53 209.38 298.36 211.06 296.20 211.73 C 295.21 212.32 294.23 212.97 293.15 213.38 C 291.99 212.87 290.90 212.26 289.78 211.70 L 289.76 213.19 C 289.13 212.82 287.88 212.07 287.26 211.70 C 287.90 210.89 288.55 210.10 289.19 209.29 C 289.17 209.65 289.12 210.36 289.09 210.72 C 291.59 211.07 294.09 210.71 296.42 209.73 Z" />
<path fill="#ffffff" opacity="1.00" d=" M 254.21 214.39 C 255.98 214.58 257.70 215.05 258.54 216.81 L 256.67 217.30 C 256.68 217.80 256.70 218.79 256.70 219.29 C 256.17 218.72 255.10 217.58 254.56 217.02 C 254.44 216.14 254.32 215.26 254.21 214.39 Z" />
<path fill="#ffffff" opacity="1.00" d=" M 252.53 217.28 C 254.13 217.48 255.12 219.16 256.32 220.11 C 256.50 223.50 254.16 220.22 252.95 219.48 C 253.52 221.39 254.44 223.24 254.19 225.31 C 253.05 224.15 251.98 222.95 250.86 221.80 C 251.47 223.50 252.20 225.15 252.91 226.82 C 252.32 226.71 251.15 226.49 250.57 226.38 C 250.93 228.50 249.69 230.08 248.35 231.53 C 247.91 231.55 247.02 231.59 246.58 231.61 C 246.58 229.78 246.54 227.97 246.42 226.15 C 247.03 226.29 248.25 226.56 248.85 226.70 C 248.24 224.76 247.59 222.83 246.95 220.91 C 247.52 221.55 248.67 222.83 249.24 223.47 C 248.66 220.70 250.94 219.06 252.53 217.28 Z" />
<path fill="#ffffff" opacity="1.00" d=" M 223.85 219.70 C 223.34 219.14 223.34 219.14 223.85 219.70 Z" />
<path fill="#ffffff" opacity="1.00" d=" M 223.85 219.70 L 224.52 219.59 C 226.95 222.25 229.25 225.16 231.02 228.33 C 228.58 227.26 226.86 225.07 225.74 222.73 C 225.34 223.12 224.96 223.54 224.59 223.97 C 225.43 224.97 226.27 225.98 227.10 227.00 C 227.93 227.95 228.76 228.91 229.60 229.86 C 229.54 230.49 229.42 231.74 229.36 232.36 C 229.63 232.63 230.18 233.18 230.45 233.45 L 230.02 234.10 L 229.58 234.62 C 228.34 235.06 227.75 233.71 227.05 233.00 C 227.26 232.55 227.68 231.67 227.89 231.22 C 226.51 229.74 225.20 228.20 224.08 226.52 L 223.25 226.38 C 223.65 226.16 224.44 225.72 224.84 225.50 C 223.69 223.89 221.92 222.46 221.85 220.32 L 223.46 222.68 C 223.57 221.68 223.70 220.68 223.85 219.70 Z" />
<path fill="#ffffff" opacity="1.00" d=" M 244.46 228.31 C 245.85 228.71 245.66 231.60 245.02 232.74 C 243.44 232.35 244.00 229.51 244.46 228.31 Z" />
</g>
</svg>
