<?xml version="1.0" encoding="UTF-8" ?>
<!DOCTYPE svg PUBLIC "-//W3C//DTD SVG 1.1//EN" "http://www.w3.org/Graphics/SVG/1.1/DTD/svg11.dtd">
<svg width="512pt" height="256pt" viewBox="0 0 512 256" version="1.1" xmlns="http://www.w3.org/2000/svg">
<g id="#ffffffff">
<path fill="#ffffff" opacity="1.00" d=" M 195.59 26.96 C 196.58 25.65 197.63 23.59 199.63 24.08 C 202.26 25.28 206.79 22.67 207.43 26.77 C 205.43 26.32 203.81 27.43 202.24 28.43 C 201.71 28.10 200.66 27.45 200.13 27.12 C 198.12 27.62 196.47 28.78 195.58 30.67 C 195.38 30.97 194.99 31.57 194.80 31.87 C 194.45 33.02 194.31 34.22 194.09 35.40 C 191.14 34.17 192.22 31.34 193.03 29.05 C 193.38 27.69 194.24 26.99 195.59 26.96 Z" />
<path fill="#ffffff" opacity="1.00" d=" M 208.13 26.41 C 209.32 25.56 211.29 26.65 211.29 28.09 C 210.61 29.98 206.67 28.07 208.13 26.41 Z" />
<path fill="#ffffff" opacity="1.00" d=" M 302.65 29.84 C 305.73 27.82 309.57 24.86 313.09 27.84 C 314.02 30.35 313.40 33.23 313.37 35.87 C 311.46 40.56 310.76 45.71 308.34 50.19 C 309.64 43.91 312.01 37.91 313.35 31.64 C 310.82 33.84 308.38 36.20 306.83 39.22 L 308.38 39.25 C 308.49 40.40 308.62 41.56 308.77 42.72 C 307.11 43.26 305.48 43.85 303.87 44.49 C 303.18 43.91 302.51 43.33 301.84 42.74 C 302.98 41.09 305.07 39.69 304.67 37.41 C 306.39 36.53 307.89 35.30 309.26 33.95 C 309.35 32.40 310.53 30.69 309.66 29.24 C 306.54 28.18 304.85 32.11 301.84 31.39 L 303.15 32.58 C 297.20 38.96 291.54 45.61 285.07 51.48 C 284.29 51.54 282.72 51.68 281.94 51.75 C 282.30 53.48 283.21 54.76 285.17 54.74 C 284.20 55.08 283.24 55.41 282.28 55.75 C 282.36 56.50 282.52 57.99 282.60 58.74 C 278.96 58.05 275.55 59.78 272.17 60.83 C 272.90 59.72 273.69 58.67 274.47 57.60 C 275.13 57.65 275.80 57.69 276.46 57.70 C 276.37 56.26 276.15 54.84 275.93 53.42 C 275.71 53.98 275.26 55.11 275.04 55.67 C 274.60 55.57 273.73 55.36 273.30 55.26 L 273.94 57.48 C 270.73 55.72 271.75 58.81 271.40 60.43 C 269.89 60.71 268.43 61.10 266.98 61.55 C 267.97 61.48 269.96 61.34 270.95 61.27 C 270.74 61.65 270.33 62.42 270.12 62.80 C 266.30 62.91 263.33 65.07 260.43 67.29 C 261.91 63.69 265.61 61.92 268.02 59.05 C 270.76 55.80 274.13 53.21 277.43 50.57 C 277.41 51.19 277.39 52.44 277.37 53.07 C 279.19 49.84 283.11 49.75 286.19 48.46 C 284.10 48.53 282.02 48.67 279.93 48.81 C 283.47 44.75 288.95 43.10 292.07 38.60 C 292.14 39.26 292.28 40.57 292.35 41.22 C 291.84 38.31 294.83 37.36 296.51 35.68 C 298.52 33.99 299.95 31.61 302.40 30.44 C 302.46 30.29 302.59 29.99 302.65 29.84 Z" />
<path fill="#ffffff" opacity="1.00" d=" M 200.67 32.98 C 202.55 31.44 204.78 30.30 207.22 30.01 C 205.19 31.30 203.08 32.60 200.67 32.98 Z" />
<path fill="#ffffff" opacity="1.00" d=" M 199.30 35.66 C 202.75 35.96 205.11 31.19 208.56 32.91 C 209.52 32.59 210.48 32.29 211.45 31.99 C 209.95 35.00 205.51 34.04 203.95 37.07 C 206.29 36.96 208.55 36.26 210.68 35.32 C 212.02 35.80 213.34 36.27 214.68 36.77 C 211.49 37.30 208.13 37.71 205.93 40.40 C 208.35 40.02 210.79 39.82 213.24 39.77 C 209.89 42.59 205.48 41.28 201.59 42.28 C 201.73 41.86 202.03 41.02 202.18 40.60 L 200.24 40.96 C 200.31 40.05 200.45 38.25 200.52 37.35 C 198.54 38.95 196.58 40.60 194.34 41.84 C 195.34 39.46 196.26 36.00 199.30 35.66 M 203.61 39.07 C 204.09 42.22 206.57 37.23 203.61 39.07 Z" />
<path fill="#ffffff" opacity="1.00" d=" M 191.33 34.48 C 192.08 35.20 192.83 35.93 193.58 36.66 C 192.08 39.07 191.86 41.88 192.29 44.63 C 191.65 44.31 191.02 44.00 190.39 43.69 C 190.06 40.57 190.65 37.50 191.33 34.48 Z" />
<path fill="#ffffff" opacity="1.00" d=" M 217.73 35.79 C 219.86 36.30 221.54 37.71 223.02 39.25 C 222.02 39.19 221.04 39.11 220.05 39.04 C 219.24 37.98 218.45 36.91 217.73 35.79 Z" />
<path fill="#ffffff" opacity="1.00" d=" M 208.81 43.61 C 210.80 42.87 212.77 42.05 214.77 41.32 C 213.97 42.33 213.13 43.31 212.31 44.30 C 212.72 44.54 213.52 45.00 213.92 45.23 C 209.05 45.90 205.49 49.52 201.01 51.14 C 202.94 47.93 207.30 47.18 208.81 43.61 Z" />
<path fill="#ffffff" opacity="1.00" d=" M 222.25 42.17 C 226.62 42.10 227.97 46.89 229.98 49.92 C 228.55 49.54 227.33 48.75 226.50 47.53 C 225.03 45.78 223.63 43.99 222.25 42.17 Z" />
<path fill="#ffffff" opacity="1.00" d=" M 300.07 46.30 C 302.33 46.04 304.82 44.33 306.99 45.19 C 306.57 47.85 303.18 48.20 301.55 49.82 L 305.27 49.53 C 303.61 51.17 301.88 52.75 300.03 54.17 L 302.10 55.24 C 297.33 56.99 292.33 57.48 287.28 57.41 L 287.37 56.29 C 290.05 56.12 292.71 55.73 295.37 55.44 C 295.74 53.23 297.87 52.29 299.45 51.05 C 299.43 50.64 299.40 49.82 299.38 49.42 L 300.84 49.39 C 300.65 48.62 300.26 47.07 300.07 46.30 M 297.51 54.30 C 297.74 55.64 298.45 55.89 299.65 55.04 C 299.44 53.68 298.72 53.43 297.51 54.30 Z" />
<path fill="#ffffff" opacity="1.00" d=" M 213.06 47.68 C 215.45 46.82 218.17 45.16 220.68 46.58 C 219.88 48.30 217.74 48.47 216.24 49.33 C 213.74 50.25 211.21 51.31 208.48 51.11 C 209.98 49.94 211.58 48.89 213.06 47.68 M 214.62 48.04 C 215.09 51.26 217.64 46.32 214.62 48.04 Z" />
<path fill="#ffffff" opacity="1.00" d=" M 187.92 47.90 C 188.40 47.78 189.36 47.54 189.84 47.42 C 189.72 49.82 190.44 52.71 187.90 54.14 C 187.98 52.06 188.04 49.98 187.92 47.90 Z" />
<path fill="#ffffff" opacity="1.00" d=" M 208.68 54.38 C 212.19 51.92 216.54 51.01 220.54 49.59 C 221.03 50.53 221.53 51.48 222.02 52.43 C 217.78 54.22 213.24 54.80 208.68 54.38 Z" />
<path fill="#ffffff" opacity="1.00" d=" M 228.47 50.74 C 232.00 50.82 232.02 54.90 233.19 57.36 C 232.13 56.63 231.11 55.85 230.12 55.03 C 229.61 53.58 229.03 52.16 228.47 50.74 Z" />
<path fill="#ffffff" opacity="1.00" d=" M 201.15 55.70 C 203.47 54.27 205.87 52.85 208.57 52.26 C 207.04 54.85 204.53 56.59 202.00 58.09 C 201.79 57.49 201.36 56.30 201.15 55.70 Z" />
<path fill="#ffffff" opacity="1.00" d=" M 219.20 54.87 C 220.90 54.37 222.57 53.81 224.25 53.27 C 223.99 53.83 223.46 54.96 223.19 55.53 C 223.35 55.83 223.67 56.43 223.83 56.73 C 221.00 57.10 218.94 59.86 216.17 59.84 C 216.13 58.03 218.26 57.25 219.20 55.92 C 217.99 56.39 216.81 56.92 215.62 57.43 C 215.24 60.22 211.57 60.37 209.72 62.00 C 211.12 61.99 212.70 60.55 214.01 61.17 C 214.14 61.53 214.40 62.27 214.53 62.64 C 218.33 60.18 222.81 59.39 227.25 58.99 C 227.80 61.26 229.59 62.82 230.97 64.59 C 228.92 64.18 226.85 63.85 224.76 63.75 C 222.79 62.67 220.40 60.79 218.14 62.14 C 214.37 64.07 211.03 66.79 206.98 68.16 C 206.47 66.59 205.96 65.03 205.45 63.46 C 206.21 63.25 207.73 62.84 208.49 62.64 C 208.12 62.30 207.38 61.62 207.01 61.28 C 209.44 59.70 211.85 58.10 214.43 56.78 C 215.72 55.51 217.51 55.22 219.20 54.87 Z" />
<path fill="#ffffff" opacity="1.00" d=" M 194.12 58.66 C 194.41 56.95 193.40 53.82 196.18 54.49 C 195.14 56.33 195.88 58.43 196.66 60.18 C 195.41 60.90 194.15 61.61 192.88 62.29 C 192.86 61.26 192.82 59.22 192.80 58.19 L 194.12 58.66 Z" />
<path fill="#ffffff" opacity="1.00" d=" M 187.65 54.95 C 187.91 55.02 188.44 55.18 188.70 55.26 C 188.50 55.93 188.29 56.60 188.10 57.26 C 188.74 58.37 189.49 59.45 189.83 60.70 C 188.59 61.62 187.73 60.05 186.75 59.59 C 187.30 58.09 187.60 56.54 187.65 54.95 Z" />
<path fill="#ffffff" opacity="1.00" d=" M 196.21 63.92 C 199.66 60.75 203.39 57.77 207.60 55.68 C 206.74 56.77 205.86 57.84 204.96 58.90 L 206.86 59.23 C 205.72 60.20 204.60 61.18 203.50 62.18 C 203.03 63.97 201.41 64.91 200.01 65.92 C 200.82 65.43 201.64 64.95 202.45 64.47 C 203.22 65.65 204.06 66.79 204.92 67.90 C 204.19 69.99 203.43 72.10 201.88 73.73 C 200.25 74.65 198.82 75.83 197.39 77.01 C 196.86 76.05 196.33 75.09 195.81 74.13 C 198.22 73.48 203.53 72.43 201.18 68.77 L 203.30 69.58 C 202.81 68.71 202.31 67.86 201.79 67.01 C 200.90 67.80 199.47 68.17 199.12 69.43 C 200.46 68.89 201.46 69.75 200.96 71.17 C 199.82 71.69 198.65 72.15 197.47 72.56 C 196.78 72.84 195.40 73.40 194.71 73.69 C 194.60 73.12 194.40 72.00 194.30 71.44 C 195.78 70.05 197.71 68.97 198.37 66.91 C 197.42 65.78 193.20 70.09 193.43 66.91 C 194.37 65.92 195.38 65.00 196.21 63.92 Z" />
<path fill="#ffffff" opacity="1.00" d=" M 293.06 60.02 C 295.41 57.67 298.88 57.33 301.94 56.56 C 300.52 60.24 296.30 60.02 293.06 60.02 Z" />
<path fill="#ffffff" opacity="1.00" d=" M 231.97 58.34 C 233.02 58.66 234.06 59.00 235.10 59.37 C 235.11 60.60 235.16 61.84 235.29 63.07 C 236.21 64.92 237.25 66.68 238.36 68.42 C 234.20 68.39 233.83 64.57 232.91 61.51 C 233.47 61.05 234.03 60.59 234.60 60.14 C 233.94 59.69 232.63 58.79 231.97 58.34 Z" />
<path fill="#ffffff" opacity="1.00" d=" M 273.50 63.70 C 275.19 62.05 277.24 58.95 279.93 60.08 C 280.30 61.56 278.46 61.97 277.63 62.79 C 274.56 64.66 271.56 66.66 269.33 69.53 C 268.36 69.34 266.40 68.95 265.43 68.75 C 266.48 69.95 266.78 71.32 266.33 72.87 L 268.48 72.63 C 267.38 72.97 264.78 75.75 265.78 72.18 L 264.15 72.40 C 263.88 72.20 263.34 71.79 263.07 71.58 L 261.63 71.59 C 262.62 70.48 263.60 69.39 264.63 68.32 C 264.29 68.07 263.62 67.55 263.29 67.29 C 263.63 66.96 264.32 66.29 264.67 65.96 C 264.70 66.67 264.76 68.09 264.79 68.80 C 267.11 66.21 270.21 64.69 273.50 63.70 M 264.53 70.41 C 265.13 71.03 265.13 71.03 264.53 70.41 Z" />
<path fill="#ffffff" opacity="1.00" d=" M 285.23 59.50 C 287.73 61.10 290.09 63.11 289.77 66.40 C 289.25 66.16 288.21 65.66 287.70 65.42 C 286.96 64.88 285.49 63.80 284.76 63.26 C 284.64 66.13 289.18 65.98 288.59 68.87 C 286.38 68.18 284.69 66.47 283.04 64.93 C 283.47 64.09 283.91 63.25 284.36 62.41 L 286.98 63.13 C 286.39 61.92 285.81 60.71 285.23 59.50 Z" />
<path fill="#ffffff" opacity="1.00" d=" M 292.84 61.51 C 294.55 61.02 296.27 60.56 298.00 60.12 C 298.77 60.39 300.31 60.93 301.08 61.20 C 301.22 61.48 301.48 62.04 301.61 62.32 C 300.23 63.16 298.87 64.03 297.61 65.03 C 298.25 65.24 299.54 65.66 300.19 65.87 C 299.64 66.57 298.55 67.97 298.00 68.67 L 299.92 68.85 C 298.86 69.19 297.79 69.51 296.73 69.83 C 296.78 70.59 296.88 72.10 296.93 72.86 C 297.67 73.25 298.42 73.64 299.16 74.04 C 298.31 74.46 296.60 75.31 295.74 75.74 C 294.45 75.22 293.18 74.69 291.90 74.17 C 291.52 74.94 291.35 75.74 291.40 76.56 C 292.85 76.70 294.17 75.70 295.67 75.96 C 295.45 76.42 295.01 77.32 294.79 77.77 C 295.76 78.33 296.72 78.89 297.70 79.44 C 297.52 79.70 297.18 80.21 297.01 80.46 C 296.17 80.49 294.48 80.54 293.64 80.56 L 294.62 78.94 C 293.09 81.87 290.59 78.98 288.52 78.29 C 290.07 76.12 288.90 73.17 290.76 71.09 C 293.12 71.38 295.15 70.34 296.72 68.63 C 294.86 68.88 293.04 69.35 291.24 69.86 C 291.24 68.55 291.22 67.25 291.19 65.94 C 293.42 65.13 295.67 64.32 297.76 63.15 C 296.09 62.65 294.40 62.27 292.84 61.51 Z" />
<path fill="#ffffff" opacity="1.00" d=" M 187.28 64.08 C 188.53 65.17 189.73 66.32 190.87 67.52 C 189.74 67.83 188.61 68.15 187.47 68.45 C 187.40 66.99 187.33 65.54 187.28 64.08 Z" />
<path fill="#ffffff" opacity="1.00" d=" M 208.23 68.80 C 212.29 66.90 216.41 65.12 220.32 62.90 C 219.42 64.49 218.18 65.83 216.63 66.79 C 216.49 67.28 216.21 68.26 216.07 68.75 C 218.00 68.24 219.93 67.74 221.92 67.49 C 220.38 69.94 217.34 69.99 214.93 71.01 C 214.87 70.66 214.76 69.95 214.70 69.59 C 212.72 69.73 209.18 71.67 208.23 68.80 Z" />
<path fill="#ffffff" opacity="1.00" d=" M 276.02 64.99 C 276.62 64.50 277.82 63.53 278.42 63.05 C 278.77 66.37 275.07 68.98 276.22 72.40 C 275.79 73.91 275.96 75.73 274.59 76.81 C 274.24 75.82 273.89 74.84 273.53 73.87 C 272.13 72.76 271.13 71.27 269.99 69.92 C 271.96 68.22 273.78 66.35 276.02 64.99 Z" />
<path fill="#ffffff" opacity="1.00" d=" M 226.54 65.18 C 229.50 63.69 226.61 68.52 226.54 65.18 Z" />
<path fill="#ffffff" opacity="1.00" d=" M 225.04 67.65 C 227.06 67.39 229.10 67.34 231.15 67.31 C 230.64 68.70 230.11 70.08 229.56 71.45 L 229.20 69.06 C 228.84 69.55 228.49 70.02 228.13 70.50 C 227.35 69.78 225.81 68.36 225.04 67.65 Z" />
<path fill="#ffffff" opacity="1.00" d=" M 283.90 68.37 C 284.76 68.79 285.63 69.22 286.50 69.65 C 286.41 70.54 286.32 71.43 286.24 72.32 L 284.28 72.02 L 286.00 74.24 C 283.09 74.69 281.82 72.13 280.23 70.26 C 280.73 70.11 281.73 69.81 282.23 69.66 C 283.08 70.15 284.78 71.12 285.63 71.61 C 285.20 70.80 284.33 69.18 283.90 68.37 Z" />
<path fill="#ffffff" opacity="1.00" d=" M 222.00 68.95 C 223.27 69.58 223.25 70.25 221.94 70.97 C 220.65 70.36 220.67 69.68 222.00 68.95 Z" />
<path fill="#ffffff" opacity="1.00" d=" M 233.86 68.77 C 235.75 68.22 237.42 69.29 239.07 70.04 C 239.17 70.46 239.38 71.28 239.49 71.70 C 238.32 71.29 237.16 70.87 236.01 70.45 C 236.73 71.99 237.48 73.53 238.13 75.10 C 236.49 73.20 233.87 71.53 233.86 68.77 Z" />
<path fill="#ffffff" opacity="1.00" d=" M 256.48 69.22 C 256.70 69.59 257.14 70.33 257.36 70.70 C 255.71 71.73 253.95 72.56 252.07 73.05 C 253.49 71.72 254.99 70.48 256.48 69.22 Z" />
<path fill="#ffffff" opacity="1.00" d=" M 227.05 75.00 C 225.99 73.29 224.82 71.53 225.30 69.41 C 227.13 70.34 229.03 71.14 230.79 72.23 C 226.88 70.49 227.34 73.14 227.05 75.00 Z" />
<path fill="#ffffff" opacity="1.00" d=" M 187.26 71.47 C 188.27 71.18 190.29 70.62 191.29 70.33 C 190.01 71.27 188.68 72.13 187.36 73.02 C 188.95 72.81 190.54 72.66 192.13 72.56 C 191.11 73.43 189.45 73.71 188.84 74.96 C 189.19 75.14 189.89 75.49 190.24 75.66 L 190.79 77.72 C 189.90 77.64 188.11 77.47 187.22 77.38 C 187.38 75.41 187.32 73.44 187.26 71.47 Z" />
<path fill="#ffffff" opacity="1.00" d=" M 205.71 70.81 C 206.67 71.30 208.58 72.30 209.54 72.79 C 210.09 72.76 210.65 72.74 211.20 72.71 C 214.34 74.87 217.76 72.17 221.02 72.79 C 222.02 74.56 221.78 76.71 222.17 78.65 C 220.30 77.18 218.10 76.23 215.95 75.25 L 215.99 77.10 C 213.28 76.58 210.66 75.73 208.12 74.65 C 207.08 76.26 206.13 77.95 204.59 79.15 C 205.01 79.53 205.44 79.90 205.87 80.26 C 206.68 78.90 207.58 77.59 208.44 76.26 C 210.92 77.22 213.44 78.09 215.93 79.04 L 216.09 80.48 C 216.72 79.62 217.34 78.75 217.99 77.90 L 217.01 80.29 C 219.00 78.19 220.70 79.65 222.19 81.17 C 220.45 80.99 218.72 80.76 217.02 80.39 C 217.49 81.30 218.42 83.11 218.88 84.02 C 217.92 84.88 216.75 85.46 215.66 86.13 C 214.85 85.55 213.23 84.38 212.43 83.80 C 212.93 84.77 213.94 86.69 214.44 87.66 C 213.98 87.55 213.05 87.32 212.58 87.21 C 212.26 87.90 211.62 89.26 211.30 89.94 C 211.11 89.46 210.73 88.49 210.54 88.01 C 210.60 88.68 210.72 90.03 210.78 90.70 C 210.26 90.52 209.22 90.15 208.70 89.97 C 207.24 90.12 205.91 89.37 204.55 88.97 C 204.81 87.76 205.07 86.55 205.34 85.35 C 204.33 84.62 203.12 84.15 202.07 85.13 C 200.28 86.33 199.65 82.86 197.91 82.86 L 198.03 82.49 C 200.63 83.12 203.22 82.30 205.84 82.22 C 204.70 81.59 203.56 80.95 202.43 80.32 C 203.27 78.82 204.25 77.40 205.27 76.02 L 205.67 75.47 C 205.68 73.91 205.64 72.36 205.71 70.81 M 208.49 79.10 C 208.85 79.43 209.57 80.08 209.92 80.41 L 212.01 80.99 C 211.11 81.61 210.23 82.22 209.33 82.83 C 209.60 83.12 210.12 83.70 210.39 83.99 C 211.04 83.13 211.69 82.26 212.31 81.38 C 213.38 82.17 215.53 83.75 216.60 84.54 C 215.25 82.32 213.59 80.34 211.92 78.37 C 211.60 78.79 210.96 79.62 210.64 80.04 L 208.49 79.10 Z" />
<path fill="#ffffff" opacity="1.00" d=" M 205.31 72.21 C 205.27 73.48 205.25 74.75 205.27 76.02 C 202.96 78.00 200.24 79.36 197.42 80.44 C 197.93 75.76 204.05 76.34 205.31 72.21 Z" />
<path fill="#ffffff" opacity="1.00" d=" M 227.27 77.02 C 226.77 75.39 227.88 74.21 228.96 73.16 C 229.49 73.95 230.54 75.53 231.07 76.32 C 230.61 76.61 229.69 77.18 229.23 77.46 C 230.10 78.48 231.01 79.51 231.40 80.83 C 230.97 80.62 230.10 80.20 229.67 79.99 L 228.52 79.37 C 226.35 78.46 223.92 77.40 223.01 75.04 C 224.46 75.62 225.84 76.37 227.27 77.02 Z" />
<path fill="#ffffff" opacity="1.00" d=" M 280.05 74.04 C 281.36 75.00 282.71 75.90 284.10 76.76 C 285.23 76.31 287.49 75.41 288.62 74.96 C 288.46 77.52 287.96 80.20 285.84 81.88 C 286.57 82.45 288.03 83.58 288.75 84.15 C 288.97 83.39 289.41 81.87 289.62 81.11 C 291.16 83.99 293.65 86.07 296.04 88.20 C 296.10 89.91 295.53 91.57 295.32 93.26 C 292.15 92.17 289.67 89.68 288.12 86.76 C 286.50 85.05 284.96 83.24 283.75 81.21 C 284.68 79.85 285.85 78.50 285.89 76.75 C 285.05 77.29 283.39 78.36 282.55 78.89 C 282.12 78.50 281.25 77.71 280.82 77.31 C 280.57 76.22 280.31 75.12 280.05 74.04 Z" />
<path fill="#ffffff" opacity="1.00" d=" M 255.89 76.33 C 258.33 77.42 260.59 78.86 263.06 79.90 L 263.19 82.49 C 262.17 81.74 261.19 80.94 260.23 80.12 C 259.53 80.31 258.83 80.50 258.13 80.69 C 257.29 79.28 256.50 77.84 255.89 76.33 Z" />
<path fill="#ffffff" opacity="1.00" d=" M 235.56 76.15 C 238.00 77.96 240.27 79.99 242.39 82.17 C 241.87 82.23 240.83 82.34 240.31 82.40 L 240.34 83.76 C 236.84 83.06 234.13 79.78 235.56 76.15 Z" />
<path fill="#ffffff" opacity="1.00" d=" M 192.20 78.33 C 194.50 82.08 197.08 85.65 199.34 89.42 C 201.43 90.99 203.21 92.94 205.36 94.43 C 208.00 96.10 210.83 91.10 213.08 93.93 C 214.66 95.46 211.83 96.32 210.85 97.02 C 210.25 97.76 209.67 98.50 209.08 99.25 C 208.95 98.52 208.68 97.05 208.54 96.32 C 207.76 98.08 206.94 99.81 206.14 101.56 C 205.62 101.65 204.58 101.82 204.06 101.91 L 203.95 100.01 C 203.58 100.14 202.84 100.39 202.46 100.51 C 202.67 100.00 203.08 98.97 203.29 98.45 C 202.43 98.37 200.71 98.20 199.84 98.11 C 200.05 97.64 200.47 96.69 200.68 96.22 C 200.32 95.52 199.60 94.12 199.23 93.42 C 197.85 92.79 196.43 92.20 194.95 92.96 C 194.39 91.39 193.76 89.85 193.27 88.26 L 192.95 88.23 C 192.03 86.72 191.04 85.25 190.04 83.79 C 191.27 83.33 192.49 82.84 193.69 82.29 C 192.78 82.39 190.96 82.58 190.05 82.67 C 189.03 81.17 187.96 79.70 186.90 78.23 C 188.66 78.27 190.43 78.30 192.20 78.33 Z" />
<path fill="#ffffff" opacity="1.00" d=" M 263.06 79.90 C 261.97 76.98 266.57 79.01 265.65 80.81 C 264.64 81.03 263.78 80.73 263.06 79.90 Z" />
<path fill="#ffffff" opacity="1.00" d=" M 272.95 79.30 C 274.00 78.83 275.06 78.39 276.14 77.98 C 276.40 79.43 275.99 80.83 275.21 82.05 C 274.44 81.14 273.69 80.22 272.95 79.30 Z" />
<path fill="#ffffff" opacity="1.00" d=" M 198.92 80.59 C 199.54 79.54 200.39 79.13 201.46 79.38 C 201.48 80.44 201.06 81.32 200.19 82.03 C 199.19 82.12 198.76 81.64 198.92 80.59 Z" />
<path fill="#ffffff" opacity="1.00" d=" M 222.28 78.90 C 224.88 78.06 227.12 80.00 229.67 79.99 C 228.77 80.39 226.96 81.20 226.06 81.60 C 227.70 82.29 229.39 82.87 231.12 83.34 C 228.53 85.33 224.57 86.36 222.28 83.32 C 223.16 83.17 224.92 82.86 225.80 82.70 C 224.55 81.51 223.34 80.27 222.28 78.90 Z" />
<path fill="#ffffff" opacity="1.00" d=" M 252.02 79.15 C 254.54 80.90 257.00 82.78 258.97 85.15 C 256.96 85.38 255.56 83.86 253.95 82.97 C 252.09 82.53 250.14 82.33 248.45 81.36 C 249.57 81.42 251.79 81.54 252.91 81.60 C 252.69 80.99 252.24 79.76 252.02 79.15 Z" />
<path fill="#ffffff" opacity="1.00" d=" M 295.66 83.63 C 295.66 82.98 295.65 81.69 295.65 81.04 C 298.60 82.52 297.22 85.67 297.22 88.13 C 294.92 86.56 292.60 84.92 291.00 82.58 C 292.77 81.81 294.21 82.96 295.66 83.63 Z" />
<path fill="#ffffff" opacity="1.00" d=" M 261.65 83.87 C 262.04 83.54 262.43 83.21 262.83 82.88 C 264.21 84.46 265.78 85.90 266.83 87.75 C 264.78 86.93 263.28 85.28 261.65 83.87 Z" />
<path fill="#ffffff" opacity="1.00" d=" M 220.71 83.84 C 222.15 84.59 223.59 85.37 225.01 86.16 C 227.20 86.43 224.09 90.22 223.02 87.34 L 223.85 89.51 C 222.38 89.10 221.24 88.12 220.16 87.11 C 220.79 86.96 222.05 86.66 222.68 86.51 C 222.19 85.84 221.21 84.51 220.71 83.84 Z" />
<path fill="#ffffff" opacity="1.00" d=" M 269.16 84.46 C 270.35 83.75 272.22 85.49 271.51 86.70 C 270.31 87.43 268.32 85.69 269.16 84.46 Z" />
<path fill="#ffffff" opacity="1.00" d=" M 277.00 84.52 C 278.17 83.78 280.15 85.42 279.51 86.69 C 278.35 87.36 276.25 85.81 277.00 84.52 Z" />
<path fill="#ffffff" opacity="1.00" d=" M 246.32 86.62 C 247.14 86.12 247.96 85.62 248.78 85.12 L 248.46 86.50 C 250.52 85.87 252.31 86.97 254.04 87.92 C 253.67 88.36 252.92 89.24 252.55 89.67 C 254.84 90.03 257.09 90.70 259.04 91.99 L 256.60 92.59 C 257.71 93.59 258.82 94.59 259.94 95.58 C 260.60 95.21 261.92 94.48 262.57 94.11 C 262.43 95.69 262.28 97.27 262.14 98.85 C 263.44 100.36 265.21 101.41 266.64 102.80 L 267.60 101.58 C 267.68 102.50 267.83 104.35 267.91 105.28 C 267.24 105.00 265.89 104.43 265.22 104.15 C 266.11 105.60 266.58 107.18 266.62 108.88 C 268.70 107.40 269.54 110.09 270.88 111.19 C 270.08 111.71 269.29 112.24 268.52 112.80 C 267.16 111.88 265.65 111.22 264.00 111.08 C 260.75 108.16 257.03 105.86 253.19 103.78 C 254.31 103.18 255.45 102.63 256.69 102.31 C 255.56 101.66 254.46 100.95 253.37 100.25 C 253.68 99.55 254.29 98.15 254.60 97.45 C 256.74 98.39 258.83 99.41 260.97 100.35 C 261.02 100.01 261.12 99.32 261.17 98.98 C 259.37 97.04 256.13 97.12 253.80 95.89 C 253.70 95.01 253.61 94.13 253.53 93.26 C 249.88 92.30 246.17 91.00 243.37 88.38 C 244.53 88.75 245.69 89.14 246.85 89.55 C 246.72 88.82 246.45 87.35 246.32 86.62 Z" />
<path fill="#ffffff" opacity="1.00" d=" M 202.52 85.73 C 203.80 85.68 204.22 86.23 203.78 87.40 C 203.38 87.37 202.59 87.31 202.19 87.28 C 202.28 86.89 202.44 86.12 202.52 85.73 Z" />
<path fill="#ffffff" opacity="1.00" d=" M 223.31 94.60 C 219.93 91.82 225.18 89.55 227.10 87.86 C 227.58 90.76 224.67 92.45 223.31 94.60 Z" />
<path fill="#ffffff" opacity="1.00" d=" M 280.16 88.13 C 281.96 89.24 283.74 90.38 285.66 91.27 C 287.95 93.48 290.99 94.48 293.93 95.50 C 293.07 96.52 292.16 97.50 291.30 98.52 C 290.74 98.68 289.61 98.99 289.04 99.15 C 286.64 95.04 283.03 91.88 280.16 88.13 Z" />
<path fill="#ffffff" opacity="1.00" d=" M 267.34 88.85 C 269.18 90.37 271.46 91.02 273.78 91.40 C 273.55 91.85 273.10 92.76 272.88 93.21 C 274.95 93.41 277.03 93.63 279.05 94.17 C 280.78 95.23 282.33 96.57 284.05 97.65 C 284.84 99.52 286.32 101.33 285.38 103.46 L 286.58 104.49 C 286.35 102.88 286.27 101.19 287.21 99.77 C 287.37 102.26 287.78 104.72 288.68 107.06 C 288.10 108.80 285.93 111.63 288.87 112.54 C 288.59 113.35 288.31 114.16 288.03 114.98 C 288.94 115.24 289.86 115.51 290.78 115.77 C 290.39 118.63 290.46 121.53 290.93 124.39 L 289.94 124.42 C 288.87 124.63 286.97 123.82 286.32 124.71 C 287.43 125.45 288.79 125.60 290.08 125.85 C 290.56 127.13 291.70 127.59 292.91 127.91 C 292.56 129.39 292.20 130.87 291.82 132.35 C 292.61 132.14 294.19 131.73 294.98 131.52 C 294.97 133.59 293.11 134.55 291.88 135.82 C 290.57 134.91 290.19 131.82 288.19 132.20 C 288.29 132.77 288.49 133.91 288.59 134.48 C 288.15 135.23 287.60 135.93 287.27 136.74 C 287.67 136.79 288.46 136.91 288.85 136.97 L 289.82 137.10 C 288.86 138.24 287.87 139.36 286.86 140.46 C 285.72 140.10 284.64 139.56 283.44 139.47 C 283.38 139.21 283.26 138.68 283.19 138.41 L 285.20 138.90 C 285.24 137.74 285.32 136.58 285.44 135.43 C 284.88 133.85 284.55 132.19 284.29 130.53 C 285.45 130.71 286.59 131.00 287.76 131.15 C 288.73 130.23 286.44 128.48 286.23 127.24 C 284.41 125.73 283.84 123.38 282.99 121.29 C 284.97 121.39 286.97 121.54 288.97 121.65 C 286.08 121.36 283.18 120.92 280.64 119.40 C 281.64 118.65 282.70 117.98 283.73 117.26 C 283.18 117.58 282.09 118.21 281.55 118.53 L 281.43 117.03 C 280.91 117.47 280.39 117.90 279.87 118.33 C 279.75 115.56 277.21 113.44 277.75 110.59 C 277.26 110.85 276.26 111.36 275.77 111.61 C 273.91 109.17 270.95 107.20 270.57 103.93 C 270.39 102.39 271.76 101.34 272.65 100.29 C 272.41 99.72 271.93 98.58 271.70 98.00 C 272.20 97.87 273.20 97.60 273.70 97.47 C 272.85 97.42 272.02 97.42 271.19 97.48 C 270.42 96.65 269.64 95.84 268.85 95.05 C 269.78 92.78 268.55 90.70 267.34 88.85 Z" />
<path fill="#ffffff" opacity="1.00" d=" M 213.97 91.44 C 214.97 91.12 215.97 90.81 216.97 90.50 C 217.51 91.02 218.06 91.54 218.61 92.07 C 217.53 93.04 216.45 94.02 215.38 95.01 C 215.42 94.58 215.50 93.71 215.54 93.28 C 215.14 92.82 214.36 91.90 213.97 91.44 Z" />
<path fill="#ffffff" opacity="1.00" d=" M 234.34 89.65 C 235.35 91.73 236.40 93.79 237.46 95.85 C 235.78 95.80 233.81 94.74 232.37 96.18 C 231.06 95.94 229.76 95.66 228.47 95.37 C 229.66 95.04 230.85 94.76 232.05 94.48 C 231.96 93.03 232.71 92.21 234.31 92.04 C 234.32 91.44 234.33 90.25 234.34 89.65 Z" />
<path fill="#ffffff" opacity="1.00" d=" M 245.18 93.87 C 245.29 93.44 245.49 92.59 245.59 92.16 C 247.99 93.13 251.03 93.77 252.45 96.20 C 252.51 97.58 252.54 98.96 252.54 100.35 C 248.97 98.56 245.06 98.00 241.11 97.93 C 240.43 96.38 239.74 94.84 239.04 93.30 C 243.20 93.69 246.69 96.31 250.95 96.57 C 248.99 95.74 247.03 94.93 245.18 93.87 Z" />
<path fill="#ffffff" opacity="1.00" d=" M 212.34 98.79 C 214.58 96.74 217.54 95.83 220.17 94.43 C 220.71 95.09 221.24 95.75 221.78 96.42 C 221.75 97.04 221.69 98.28 221.66 98.90 C 221.00 98.29 220.35 97.67 219.70 97.06 C 217.31 98.80 214.79 100.37 212.33 102.01 C 211.67 103.18 210.46 103.63 209.27 104.01 C 209.63 101.93 210.69 100.10 212.34 98.79 Z" />
<path fill="#ffffff" opacity="1.00" d=" M 303.38 103.49 C 305.36 99.20 309.79 96.72 313.44 93.98 C 310.39 97.42 307.00 100.67 303.38 103.49 Z" />
<path fill="#ffffff" opacity="1.00" d=" M 226.32 97.97 C 229.55 97.56 232.72 96.64 235.99 96.50 C 238.48 96.46 240.09 98.69 241.51 100.41 C 236.22 99.04 242.83 103.52 243.96 103.14 C 243.08 103.63 242.21 104.10 241.34 104.59 C 241.94 104.81 243.15 105.26 243.75 105.49 C 244.20 105.18 244.66 104.88 245.12 104.58 C 246.39 107.06 248.24 109.21 249.07 111.91 C 247.50 111.32 246.62 109.95 245.73 108.63 C 241.95 108.70 237.88 105.81 234.42 108.33 C 238.10 109.21 242.34 107.95 245.61 110.16 C 244.75 113.32 248.93 112.99 250.65 114.44 C 252.10 115.02 252.47 116.63 253.03 117.92 C 248.95 116.04 245.16 113.60 241.65 110.81 L 241.46 112.64 C 239.95 112.28 238.44 111.91 236.95 111.55 C 233.52 112.61 229.88 114.71 226.23 113.37 L 228.31 111.98 C 225.42 112.86 222.55 113.80 219.57 114.34 C 220.08 115.07 220.58 115.81 221.08 116.55 C 219.94 117.18 219.23 118.18 218.93 119.43 C 221.81 118.46 224.70 116.41 227.84 117.55 C 230.45 114.58 235.05 116.02 238.53 115.90 C 237.88 115.40 236.60 114.40 235.96 113.90 C 237.89 114.13 240.06 114.03 241.59 115.47 C 244.65 115.09 247.38 116.70 250.02 117.99 C 248.96 118.57 247.92 119.17 246.89 119.79 C 244.22 119.09 241.70 117.95 239.09 117.06 C 236.95 117.12 234.94 117.96 232.88 118.44 C 235.97 118.72 239.32 118.23 242.12 119.85 L 239.30 120.49 C 240.00 120.91 241.40 121.77 242.10 122.20 C 238.40 122.62 234.79 124.00 231.03 123.57 C 225.82 123.90 221.96 127.37 217.90 130.22 C 217.75 129.65 217.45 128.51 217.30 127.94 C 215.45 130.02 213.54 132.05 211.45 133.90 L 211.06 132.34 C 209.63 133.43 208.20 134.55 206.59 135.36 C 209.14 129.72 216.31 129.40 219.70 124.55 L 220.04 124.18 L 216.96 124.68 C 218.75 123.45 220.48 121.52 222.71 121.19 C 222.81 121.53 223.02 122.22 223.12 122.56 L 225.01 122.13 L 222.85 125.10 C 226.26 122.49 230.79 122.51 234.39 120.32 C 231.21 120.44 228.12 121.22 225.08 122.11 C 225.13 121.89 225.23 121.45 225.28 121.24 C 226.03 120.94 227.53 120.36 228.29 120.07 C 227.55 119.62 226.09 118.74 225.35 118.29 C 221.67 120.38 217.11 124.37 212.90 121.19 C 213.62 121.85 215.06 123.19 215.78 123.85 C 213.62 125.26 211.53 126.78 209.24 127.98 C 209.72 127.12 210.21 126.27 210.72 125.43 L 209.58 123.81 L 211.46 124.37 L 211.54 122.36 L 211.77 122.43 L 211.82 122.15 C 211.75 122.20 211.61 122.30 211.54 122.36 C 207.77 124.53 205.46 128.32 202.68 131.51 C 203.21 131.50 204.27 131.47 204.80 131.45 C 202.32 133.24 199.98 135.39 198.60 138.17 C 198.05 141.64 196.18 144.71 195.64 148.19 C 195.45 149.30 194.69 150.18 194.13 151.12 C 194.16 149.42 194.37 147.75 194.63 146.08 C 194.53 143.16 196.24 140.67 197.76 138.33 C 197.16 138.37 195.95 138.45 195.35 138.49 C 195.99 136.32 199.42 134.74 198.37 132.26 C 198.47 131.97 198.67 131.37 198.77 131.07 C 198.54 130.61 198.08 129.69 197.85 129.23 C 201.07 125.50 204.70 122.07 208.75 119.23 L 209.19 119.41 C 209.22 120.52 208.67 121.29 207.53 121.72 C 209.49 121.68 211.04 120.48 212.61 119.48 C 212.28 119.22 211.61 118.71 211.28 118.45 C 212.35 118.09 213.42 117.75 214.51 117.43 L 214.45 116.67 L 217.05 116.57 C 215.07 113.98 212.20 115.99 209.80 116.37 C 206.68 116.61 205.55 120.03 202.71 120.94 C 203.40 119.68 204.35 118.66 205.56 117.86 C 204.73 117.28 203.89 116.71 203.05 116.15 C 203.79 115.58 204.53 115.00 205.27 114.42 C 205.78 115.05 206.28 115.70 206.82 116.32 C 208.63 115.58 210.66 115.44 212.23 114.13 C 214.78 112.10 218.30 112.29 220.88 110.36 C 219.26 110.60 217.64 110.86 216.03 111.16 C 217.51 110.03 219.14 106.91 221.31 108.59 L 222.12 108.95 L 223.08 109.25 C 222.59 107.20 220.22 106.75 219.17 105.19 C 222.04 104.36 225.19 104.22 227.69 102.38 C 225.85 102.56 224.07 103.83 222.25 102.84 C 220.23 101.98 218.12 103.14 216.10 103.29 C 217.27 101.64 219.23 101.19 221.01 100.54 C 223.62 101.04 226.27 100.70 228.89 100.47 C 228.25 99.84 226.96 98.59 226.32 97.97 M 205.23 123.27 C 204.76 124.45 204.31 125.62 203.85 126.80 C 204.19 126.79 204.86 126.77 205.20 126.75 C 206.14 125.39 207.13 124.06 208.15 122.74 C 207.42 122.87 205.96 123.14 205.23 123.27 M 221.28 123.20 C 221.78 123.86 221.78 123.86 221.28 123.20 M 221.21 125.87 C 221.98 125.34 221.98 125.34 221.21 125.87 M 217.95 127.88 C 219.19 128.27 221.06 127.17 221.21 125.87 C 219.99 125.58 218.01 126.56 217.95 127.88 Z" />
<path fill="#ffffff" opacity="1.00" d=" M 294.62 97.67 C 296.05 97.34 296.63 97.84 296.36 99.20 C 294.93 99.64 294.35 99.13 294.62 97.67 Z" />
<path fill="#ffffff" opacity="1.00" d=" M 188.32 98.24 C 188.57 98.24 189.05 98.24 189.30 98.24 C 190.00 102.22 191.85 105.88 192.35 109.90 C 192.68 111.98 193.78 113.80 194.73 115.64 C 194.34 116.39 193.95 117.14 193.56 117.89 C 194.00 119.11 194.47 120.32 194.93 121.54 C 193.93 122.32 193.41 123.34 193.38 124.59 C 193.13 125.20 192.63 126.42 192.38 127.02 C 192.11 126.15 190.39 125.22 191.42 124.33 L 191.90 123.85 C 192.06 123.03 191.93 122.26 191.51 121.54 L 192.55 121.62 C 192.17 120.05 192.09 118.47 192.33 116.88 C 192.04 115.97 191.79 115.05 191.60 114.12 C 191.43 112.71 191.25 111.29 191.06 109.89 C 189.64 106.13 190.11 101.91 188.32 98.24 Z" />
<path fill="#ffffff" opacity="1.00" d=" M 329.94 98.97 C 330.69 98.60 331.52 98.82 332.30 98.88 C 327.60 100.76 322.68 102.05 317.98 103.96 C 314.81 105.21 311.90 107.08 308.62 108.06 C 309.32 105.75 311.92 105.49 313.81 104.66 C 319.14 102.64 324.51 100.71 329.94 98.97 Z" />
<path fill="#ffffff" opacity="1.00" d=" M 241.81 98.32 C 246.02 99.12 250.16 100.29 254.04 102.16 C 253.03 102.63 252.02 103.07 251.00 103.49 C 251.62 105.01 252.17 106.57 252.63 108.15 C 250.67 107.10 247.69 106.79 246.85 104.39 C 245.69 101.99 243.56 100.26 241.81 98.32 Z" />
<path fill="#ffffff" opacity="1.00" d=" M 292.49 99.24 C 292.76 99.55 292.76 99.55 292.49 99.24 Z" />
<path fill="#ffffff" opacity="1.00" d=" M 297.22 99.58 C 300.29 98.96 297.94 102.43 296.41 102.65 C 294.72 102.13 295.48 99.35 297.22 99.58 Z" />
<path fill="#ffffff" opacity="1.00" d=" M 294.24 101.48 C 294.57 101.77 294.57 101.77 294.24 101.48 Z" />
<path fill="#ffffff" opacity="1.00" d=" M 299.98 101.97 C 300.47 101.50 300.47 101.50 299.98 101.97 Z" />
<path fill="#ffffff" opacity="1.00" d=" M 299.48 101.71 L 299.98 101.97 C 300.11 102.33 300.37 103.05 300.49 103.42 C 301.41 103.22 302.33 103.01 303.25 102.79 C 302.20 104.34 301.07 105.86 300.26 107.56 C 300.22 107.71 300.14 108.01 300.11 108.16 C 299.85 109.21 299.59 110.27 299.33 111.32 C 300.99 109.96 303.57 108.86 302.34 106.20 L 303.25 106.38 C 303.41 104.88 304.25 104.24 305.71 104.66 C 306.91 106.70 308.18 108.74 308.83 111.05 C 307.11 110.34 306.17 108.83 305.64 107.18 C 305.40 109.69 302.66 110.73 301.01 112.29 C 299.44 113.76 297.23 113.92 295.20 113.73 C 293.10 111.40 296.18 109.69 296.81 107.75 C 295.63 108.46 294.50 109.25 293.43 110.12 C 294.43 108.88 294.05 107.32 292.19 107.88 C 291.73 106.18 291.54 104.43 291.38 102.69 C 292.43 102.61 294.55 102.45 295.60 102.36 L 294.52 103.75 C 294.86 105.07 295.17 106.39 295.45 107.73 C 296.07 105.31 297.72 103.41 299.48 101.71 Z" />
<path fill="#ffffff" opacity="1.00" d=" M 210.08 109.19 C 212.93 107.23 217.01 101.97 220.10 106.54 C 218.73 106.62 215.98 106.79 214.61 106.87 C 215.22 107.13 216.44 107.65 217.05 107.91 C 217.20 108.20 217.50 108.77 217.65 109.05 C 214.56 109.62 211.48 110.29 208.40 110.92 L 208.54 108.98 C 205.84 110.89 203.18 112.86 200.75 115.12 C 201.28 112.85 202.34 107.81 205.64 110.00 C 207.75 108.09 210.24 106.68 212.94 105.77 C 212.23 106.63 210.79 108.33 210.08 109.19 Z" />
<path fill="#ffffff" opacity="1.00" d=" M 253.77 106.13 C 254.99 106.57 256.20 107.05 257.40 107.57 C 260.97 111.01 266.25 113.01 267.92 118.04 C 269.39 121.83 272.48 124.96 272.33 129.28 C 269.11 126.66 267.85 122.49 266.87 118.61 C 265.55 116.68 264.27 114.72 262.74 112.97 L 262.62 114.56 C 265.33 118.50 267.05 122.97 268.29 127.57 C 267.30 127.36 266.30 127.26 265.30 127.26 C 263.75 129.10 262.58 126.89 261.98 125.52 C 262.44 125.39 263.34 125.13 263.79 124.99 C 264.65 123.59 262.66 121.73 262.26 120.20 C 260.50 119.11 258.00 118.05 258.52 115.50 C 261.30 116.57 262.52 119.50 264.99 121.01 C 263.28 118.09 261.92 114.13 258.38 113.02 L 258.72 111.83 C 257.86 112.58 256.96 113.30 256.05 113.99 C 256.82 113.91 258.35 113.73 259.12 113.65 C 258.13 114.87 257.10 116.06 256.03 117.20 C 254.73 115.92 250.07 114.40 252.95 112.51 C 251.35 111.39 250.08 109.89 248.75 108.49 C 250.24 108.48 251.73 108.53 253.23 108.58 C 254.08 109.16 254.94 109.74 255.80 110.32 C 255.00 108.98 254.29 107.60 253.77 106.13 Z" />
<path fill="#ffffff" opacity="1.00" d=" M 217.05 107.91 C 217.51 107.47 217.51 107.47 217.05 107.91 Z" />
<path fill="#ffffff" opacity="1.00" d=" M 305.57 111.47 C 306.02 111.41 306.93 111.29 307.38 111.23 C 307.44 111.69 307.54 112.60 307.59 113.05 C 306.23 113.40 305.55 112.87 305.57 111.47 Z" />
<path fill="#ffffff" opacity="1.00" d=" M 310.33 113.09 C 312.40 111.13 315.39 111.50 318.00 111.40 C 321.75 111.40 325.56 110.80 329.28 111.59 C 322.90 111.38 316.67 112.74 310.33 113.09 Z" />
<path fill="#ffffff" opacity="1.00" d=" M 211.32 112.51 C 211.83 113.25 211.83 113.25 211.32 112.51 Z" />
<path fill="#ffffff" opacity="1.00" d=" M 303.24 112.75 C 303.70 112.35 303.70 112.35 303.24 112.75 Z" />
<path fill="#ffffff" opacity="1.00" d=" M 274.59 112.98 C 276.33 114.31 277.69 116.02 278.46 118.10 C 276.93 117.41 275.44 116.64 273.99 115.80 C 274.14 115.09 274.44 113.69 274.59 112.98 Z" />
<path fill="#ffffff" opacity="1.00" d=" M 296.51 115.86 C 298.41 114.66 300.26 113.18 302.47 112.61 L 303.24 112.75 C 303.94 114.22 301.23 114.79 300.41 115.65 C 299.89 117.27 299.43 118.91 299.01 120.56 C 297.41 119.49 297.15 117.51 296.51 115.86 Z" />
<path fill="#ffffff" opacity="1.00" d=" M 309.35 113.03 C 309.76 116.52 309.28 120.04 309.77 123.53 C 309.44 123.72 308.79 124.08 308.47 124.26 C 308.59 121.78 308.44 119.30 307.63 116.93 C 306.64 117.84 305.69 118.77 304.71 119.69 C 305.26 117.25 304.36 115.97 302.00 115.87 C 302.91 115.41 303.61 114.14 304.72 114.28 C 305.52 115.25 306.29 116.24 307.03 117.27 C 307.26 115.57 308.18 114.20 309.35 113.03 Z" />
<path fill="#ffffff" opacity="1.00" d=" M 223.65 114.85 C 224.10 114.54 225.01 113.92 225.46 113.61 C 226.79 114.75 224.47 116.16 223.65 114.85 Z" />
<path fill="#ffffff" opacity="1.00" d=" M 269.12 115.60 C 272.12 118.48 274.25 122.52 274.54 126.69 C 275.39 124.23 276.44 126.32 277.37 127.55 C 277.75 127.55 278.51 127.55 278.89 127.56 C 278.03 126.40 277.18 125.25 276.35 124.08 C 276.75 121.40 274.25 119.56 273.39 117.25 C 274.46 118.03 275.50 118.85 276.52 119.72 L 278.01 119.01 L 277.19 120.63 C 278.22 121.54 278.58 122.70 278.27 124.11 C 279.03 124.85 279.80 125.58 280.60 126.30 C 277.95 128.28 280.21 131.10 282.17 132.54 C 282.27 134.32 282.25 136.11 282.24 137.89 C 281.06 137.21 280.15 136.26 280.06 134.81 C 279.59 134.75 278.66 134.63 278.19 134.57 C 278.22 134.33 278.28 133.83 278.31 133.58 L 280.41 133.59 C 279.73 133.01 278.38 131.84 277.71 131.26 L 279.66 131.08 C 278.20 129.81 276.73 128.54 275.30 127.24 L 276.18 130.79 C 274.05 129.22 272.19 127.02 271.90 124.31 C 271.71 121.20 269.66 118.63 269.12 115.60 Z" />
<path fill="#ffffff" opacity="1.00" d=" M 186.64 118.54 C 187.47 118.53 187.86 118.98 187.80 119.90 C 188.35 122.56 186.91 125.06 186.26 127.57 L 187.64 127.43 C 187.52 128.46 187.42 129.49 187.31 130.52 C 186.69 130.27 186.06 130.02 185.44 129.77 C 185.05 130.22 184.29 131.13 183.91 131.59 C 183.14 133.52 181.66 135.01 180.33 136.56 C 179.62 136.80 178.20 137.27 177.50 137.51 C 178.51 135.64 180.72 134.29 180.65 131.97 C 181.29 130.38 182.34 128.98 183.29 127.57 C 185.00 124.80 186.44 121.84 186.64 118.54 Z" />
<path fill="#ffffff" opacity="1.00" d=" M 248.21 121.48 C 250.77 121.02 253.35 120.90 255.93 121.35 C 254.01 121.97 252.12 122.67 250.27 123.46 L 250.43 122.35 C 249.34 123.25 248.29 124.20 247.20 125.10 C 245.87 125.64 244.55 126.18 243.22 126.70 C 243.27 125.99 243.38 124.56 243.44 123.84 C 244.93 124.20 246.07 123.65 246.83 122.41 L 248.32 123.71 C 248.29 123.16 248.24 122.04 248.21 121.48 Z" />
<path fill="#ffffff" opacity="1.00" d=" M 278.56 120.90 C 280.67 121.97 282.65 123.33 284.07 125.27 C 281.42 124.93 279.01 123.76 278.56 120.90 Z" />
<path fill="#ffffff" opacity="1.00" d=" M 259.22 122.41 C 260.37 121.79 261.82 123.64 261.05 124.66 C 259.88 125.30 258.50 123.42 259.22 122.41 Z" />
<path fill="#ffffff" opacity="1.00" d=" M 302.01 125.20 C 302.53 125.38 303.56 125.74 304.08 125.93 C 304.79 129.15 303.95 132.47 300.95 134.24 C 299.65 132.89 298.39 131.50 297.30 129.98 C 298.20 128.60 299.07 127.19 299.97 125.81 C 300.31 127.87 300.74 129.92 301.23 131.95 C 303.23 130.10 302.55 127.52 302.01 125.20 Z" />
<path fill="#ffffff" opacity="1.00" d=" M 245.37 128.54 C 247.67 127.27 250.21 126.51 252.65 125.54 C 252.74 126.74 252.93 129.14 253.02 130.34 C 251.69 130.46 250.39 130.69 249.08 130.94 C 251.02 131.60 253.50 131.32 254.83 133.17 C 256.54 132.08 257.02 130.15 257.63 128.35 C 259.92 127.71 259.90 131.57 259.47 133.10 C 258.95 133.36 257.92 133.89 257.41 134.16 C 252.75 135.22 246.76 133.69 245.37 128.54 Z" />
<path fill="#ffffff" opacity="1.00" d=" M 224.12 126.95 C 225.82 125.92 226.18 128.49 224.53 128.72 C 222.80 129.79 222.47 127.22 224.12 126.95 Z" />
<path fill="#ffffff" opacity="1.00" d=" M 229.24 133.50 C 232.48 131.24 236.01 129.27 239.91 128.43 C 237.61 131.24 233.99 132.35 231.37 134.79 C 230.66 134.36 229.95 133.93 229.24 133.50 Z" />
<path fill="#ffffff" opacity="1.00" d=" M 282.37 128.10 C 285.19 126.38 282.80 131.44 282.37 128.10 Z" />
<path fill="#ffffff" opacity="1.00" d=" M 262.71 130.29 C 264.56 131.52 266.44 132.72 268.32 133.90 C 267.55 134.25 266.77 134.57 265.98 134.86 C 264.28 133.87 263.63 131.91 262.71 130.29 Z" />
<path fill="#ffffff" opacity="1.00" d=" M 190.34 130.92 C 191.38 132.07 192.19 133.40 192.96 134.74 C 193.83 135.71 194.64 136.73 195.42 137.78 L 193.43 137.97 C 193.43 138.80 193.42 140.47 193.42 141.30 C 192.50 140.31 192.22 138.99 191.90 137.73 C 191.23 136.70 190.60 135.66 189.96 134.62 L 192.09 134.83 C 191.46 133.55 190.87 132.24 190.34 130.92 Z" />
<path fill="#ffffff" opacity="1.00" d=" M 234.17 139.35 C 232.00 135.73 235.48 132.19 238.45 130.55 C 238.94 133.98 237.68 137.26 236.43 140.38 C 234.88 138.26 237.18 135.97 237.27 133.74 C 236.10 135.54 235.21 137.48 234.17 139.35 Z" />
<path fill="#ffffff" opacity="1.00" d=" M 239.44 136.57 C 240.41 135.71 241.41 134.88 242.41 134.05 C 242.39 134.50 242.36 135.40 242.34 135.85 C 244.37 136.92 246.35 138.10 248.37 139.22 C 246.99 140.37 245.58 141.49 244.16 142.58 C 244.09 142.11 243.94 141.17 243.87 140.69 C 241.55 140.47 240.64 138.21 239.44 136.57 Z" />
<path fill="#ffffff" opacity="1.00" d=" M 292.82 135.97 C 293.68 135.39 294.53 134.82 295.39 134.24 C 295.85 134.86 296.76 136.10 297.21 136.72 C 301.55 139.31 305.82 142.14 309.34 145.80 C 310.88 147.30 312.97 148.02 314.82 149.07 C 313.06 150.23 311.22 151.27 309.42 152.35 C 309.43 151.88 309.47 150.93 309.49 150.46 C 308.80 149.88 307.41 148.71 306.72 148.13 C 304.70 149.66 303.01 151.56 301.42 153.52 L 304.16 153.16 L 304.85 154.24 C 303.82 154.49 301.76 155.00 300.73 155.25 C 301.60 155.38 303.34 155.65 304.21 155.78 C 301.80 157.87 299.05 159.53 296.06 160.63 C 296.66 161.89 296.90 163.24 296.94 164.63 C 297.40 164.07 298.31 162.94 298.77 162.38 C 298.63 162.08 298.35 161.49 298.21 161.20 C 300.55 158.94 305.48 159.48 305.88 155.58 C 306.77 157.01 307.77 158.40 309.07 159.50 C 309.81 161.42 308.86 163.44 307.06 164.32 C 306.53 164.32 305.47 164.34 304.94 164.34 C 305.61 163.04 306.55 161.91 307.41 160.73 L 306.65 160.48 C 306.68 160.15 306.74 159.48 306.76 159.15 C 304.67 158.31 303.82 161.25 303.19 162.71 L 302.31 162.13 C 301.82 163.65 301.45 165.20 300.97 166.72 C 298.70 168.57 296.18 170.20 294.72 172.85 C 295.45 172.44 296.92 171.62 297.65 171.21 C 298.86 169.83 300.46 168.73 302.37 169.47 C 302.53 168.75 302.85 167.30 303.01 166.57 L 301.45 166.39 C 301.89 165.76 302.33 165.13 302.79 164.52 C 304.34 165.46 306.19 165.46 307.91 165.88 C 309.30 167.02 310.07 168.73 311.19 170.12 C 310.69 171.27 310.18 172.41 309.66 173.56 L 308.98 174.06 C 308.07 175.01 307.35 175.06 306.82 174.22 L 307.03 173.41 L 307.40 172.75 C 307.41 172.39 307.43 171.65 307.45 171.29 C 308.26 170.66 308.69 169.80 308.74 168.71 C 306.89 170.18 305.95 172.26 305.59 174.57 C 304.68 174.02 303.79 173.43 302.93 172.81 C 303.14 173.62 303.58 175.22 303.79 176.02 C 302.62 176.99 301.36 177.83 300.00 178.48 C 299.82 177.77 299.47 176.34 299.29 175.63 C 298.84 176.13 297.93 177.13 297.47 177.63 C 297.98 179.72 300.11 180.02 301.85 180.53 C 302.25 179.90 303.04 178.65 303.43 178.03 C 303.66 178.51 304.13 179.48 304.36 179.96 C 305.65 178.18 306.94 176.35 308.66 174.95 C 308.96 177.15 307.07 178.72 306.31 180.62 C 305.30 180.88 304.28 181.13 303.27 181.37 C 304.10 181.62 304.93 181.89 305.76 182.19 C 305.54 182.82 305.27 183.44 304.94 184.04 C 303.67 183.45 302.37 182.96 301.03 182.56 C 299.26 182.95 298.74 184.94 297.66 186.15 C 296.68 185.52 295.70 184.89 294.72 184.26 C 293.17 184.61 291.62 185.00 290.10 185.43 C 290.29 185.15 290.69 184.58 290.89 184.30 C 291.06 184.06 291.40 183.58 291.57 183.34 C 293.92 183.57 296.27 183.50 298.63 183.52 C 298.23 182.92 297.44 181.73 297.04 181.14 C 295.44 181.05 293.84 180.77 292.26 180.57 C 293.31 179.64 294.64 179.31 296.02 179.30 C 296.59 177.20 297.10 175.08 297.56 172.96 C 294.25 175.22 292.04 178.68 288.81 181.02 C 290.48 178.10 293.01 175.78 295.60 173.67 C 294.40 173.20 293.15 172.84 291.92 172.46 C 292.97 171.85 294.01 171.23 295.07 170.61 L 295.09 170.06 C 294.42 170.16 293.07 170.37 292.40 170.48 C 294.32 168.62 296.21 166.71 298.17 164.90 L 295.48 165.80 C 295.77 164.78 296.06 163.76 296.35 162.74 C 294.61 164.59 292.15 164.26 289.91 164.05 C 289.33 164.16 288.15 164.39 287.57 164.50 C 291.49 161.46 296.43 159.94 299.99 156.31 C 296.36 157.82 293.02 159.92 289.37 161.38 C 290.22 160.22 291.15 159.13 291.96 157.94 C 290.41 157.00 289.47 157.40 289.13 159.15 C 288.19 159.48 287.26 159.83 286.34 160.20 C 282.51 162.55 278.36 164.44 273.97 165.45 C 277.13 161.56 283.08 162.28 286.33 158.54 C 283.45 158.70 280.66 159.47 277.81 159.76 C 279.94 158.80 282.18 158.11 284.36 157.24 C 285.07 157.70 285.78 158.17 286.50 158.64 C 287.74 157.90 288.98 157.15 290.21 156.39 C 290.65 156.66 291.52 157.20 291.95 157.48 C 293.21 156.58 294.48 155.70 295.75 154.82 C 295.63 155.40 295.38 156.55 295.26 157.12 C 297.33 156.11 299.45 155.17 301.55 154.21 C 300.63 154.31 298.79 154.51 297.86 154.62 C 299.00 153.59 300.18 152.62 301.36 151.64 C 302.02 149.90 302.67 148.16 303.56 146.52 L 303.19 149.52 C 303.82 149.09 305.09 148.22 305.72 147.79 C 305.31 147.40 304.48 146.61 304.07 146.22 C 304.61 145.58 305.14 144.93 305.66 144.27 C 304.66 144.47 303.71 144.85 302.75 145.18 C 300.13 141.45 296.80 138.22 292.82 135.97 M 300.89 172.90 C 302.33 172.71 304.52 170.77 303.88 169.18 C 302.20 168.87 301.06 171.56 300.89 172.90 Z" />
<path fill="#ffffff" opacity="1.00" d=" M 174.10 143.07 C 177.04 140.13 180.40 137.35 184.32 135.84 C 182.95 137.99 181.12 139.77 179.36 141.59 C 180.40 141.28 181.44 140.97 182.48 140.63 C 182.89 140.19 183.72 139.31 184.13 138.87 C 183.62 141.50 181.40 143.26 179.98 145.40 C 179.50 144.97 179.04 144.55 178.57 144.13 C 179.39 143.42 181.02 141.99 181.83 141.28 C 178.87 141.88 177.10 144.46 174.95 146.33 C 176.64 146.01 178.33 145.73 180.03 145.49 C 177.83 149.33 173.29 150.32 170.12 153.03 C 173.46 152.12 176.68 150.83 180.05 150.01 C 176.33 153.89 171.96 157.24 166.48 158.01 C 167.61 156.28 170.19 155.18 168.75 152.83 C 169.80 151.73 171.05 150.66 171.01 149.00 C 171.98 148.42 172.96 147.85 173.95 147.30 C 173.45 147.27 172.45 147.21 171.94 147.18 C 172.53 146.60 173.71 145.46 174.30 144.88 C 174.25 144.43 174.15 143.52 174.10 143.07 Z" />
<path fill="#ffffff" opacity="1.00" d=" M 220.62 137.37 C 221.82 137.33 223.00 137.14 224.17 136.82 C 225.68 136.67 227.20 136.53 228.73 136.42 C 227.64 137.37 226.43 138.15 225.16 138.83 C 225.15 139.04 225.13 139.46 225.11 139.67 C 226.09 139.20 227.06 138.74 228.05 138.29 C 228.76 138.71 230.20 139.57 230.91 140.00 C 230.58 140.68 229.93 142.03 229.60 142.71 L 228.69 141.96 C 228.35 143.01 227.92 144.04 227.41 145.02 C 229.17 143.93 231.11 143.21 233.18 142.97 C 233.59 142.68 234.41 142.09 234.82 141.80 L 234.29 143.74 C 235.82 143.76 237.36 143.79 238.90 143.81 C 238.33 144.13 237.77 144.46 237.20 144.80 C 236.55 145.73 235.89 146.66 235.22 147.59 C 234.53 147.42 233.14 147.10 232.45 146.94 C 232.47 145.94 232.48 144.95 232.50 143.96 C 231.91 144.46 230.73 145.46 230.14 145.97 C 230.39 146.94 230.65 147.91 230.89 148.89 C 231.98 148.42 233.07 147.97 234.17 147.53 L 233.20 149.85 C 234.62 149.24 236.07 148.67 237.54 148.16 C 235.11 152.18 230.01 151.68 226.16 153.05 C 228.29 149.95 222.87 148.81 222.19 145.96 C 223.50 144.54 226.07 143.49 225.04 141.13 C 224.72 141.52 224.07 142.30 223.75 142.68 C 223.05 141.86 222.33 141.05 221.60 140.26 C 222.01 139.95 222.82 139.33 223.23 139.02 L 220.80 139.86 C 220.75 139.24 220.66 138.00 220.62 137.37 Z" />
<path fill="#ffffff" opacity="1.00" d=" M 263.38 138.88 C 265.45 138.68 267.02 137.24 268.76 136.26 C 267.97 137.70 267.12 139.12 266.36 140.58 C 265.59 141.60 264.82 142.62 264.06 143.65 L 267.01 141.92 L 267.47 142.59 C 265.92 143.23 263.42 148.43 263.03 143.97 C 262.53 144.73 261.53 146.23 261.03 146.99 C 259.85 146.35 258.62 146.69 257.52 147.29 L 257.39 147.75 C 257.70 148.57 258.01 149.40 258.32 150.23 C 256.39 151.35 254.55 152.64 252.58 153.69 C 253.57 151.40 255.66 150.07 257.59 148.65 L 254.45 148.89 C 256.18 145.69 259.48 144.08 262.22 141.92 C 259.40 142.26 257.47 144.39 255.15 145.76 C 254.83 145.59 254.20 145.26 253.88 145.10 C 252.70 145.09 250.33 145.06 249.15 145.05 C 250.15 144.40 251.16 143.75 252.18 143.12 C 251.58 143.17 250.38 143.27 249.78 143.32 C 250.38 140.95 252.72 140.18 254.50 139.00 L 254.28 140.79 C 254.97 140.63 256.33 140.30 257.02 140.13 C 256.08 141.34 255.04 142.46 254.21 143.74 C 256.03 143.53 257.09 141.66 258.59 140.77 C 258.58 140.35 258.56 139.51 258.55 139.09 C 258.83 139.11 259.38 139.16 259.66 139.18 L 259.65 141.07 C 260.89 140.34 262.14 139.61 263.38 138.88 Z" />
<path fill="#ffffff" opacity="1.00" d=" M 288.85 136.97 C 289.67 136.38 289.67 136.38 288.85 136.97 Z" />
<path fill="#ffffff" opacity="1.00" d=" M 308.19 136.38 C 309.42 136.65 310.42 137.39 310.48 138.73 L 310.23 139.23 C 309.66 140.76 310.72 142.14 311.14 143.55 C 309.08 142.96 307.51 141.31 307.29 139.15 L 305.92 139.72 C 306.55 138.70 307.19 137.68 307.88 136.70 L 308.19 136.38 Z" />
<path fill="#ffffff" opacity="1.00" d=" M 217.87 137.64 C 218.26 137.42 219.06 136.97 219.46 136.74 C 221.18 137.88 217.35 140.06 217.87 137.64 Z" />
<path fill="#ffffff" opacity="1.00" d=" M 229.23 138.18 C 229.77 138.83 229.77 138.83 229.23 138.18 Z" />
<path fill="#ffffff" opacity="1.00" d=" M 249.38 138.09 C 249.93 138.88 250.48 139.67 251.04 140.46 C 250.09 141.53 249.13 142.61 248.20 143.70 C 246.83 143.84 245.45 143.92 244.08 143.97 C 245.72 142.24 247.52 140.66 249.53 139.38 C 249.49 139.06 249.41 138.41 249.38 138.09 Z" />
<path fill="#ffffff" opacity="1.00" d=" M 288.04 140.08 C 289.21 138.78 290.47 137.54 292.32 137.42 C 292.12 138.20 291.72 139.75 291.53 140.53 C 292.47 140.74 295.56 138.41 295.03 140.66 C 293.53 142.14 291.98 143.61 291.13 145.59 C 293.04 145.60 294.95 145.51 296.86 145.55 L 296.46 144.66 C 296.91 144.24 297.80 143.41 298.25 142.99 C 298.33 143.43 298.49 144.32 298.57 144.76 C 299.21 144.77 300.48 144.79 301.12 144.79 C 298.85 147.69 296.04 150.15 292.90 152.05 C 292.87 151.66 292.80 150.88 292.77 150.49 C 290.92 150.39 289.31 149.29 287.45 149.24 C 286.85 148.41 286.26 147.59 285.66 146.78 C 286.60 146.13 287.54 145.48 288.48 144.82 C 287.72 144.84 286.20 144.87 285.44 144.88 C 286.17 144.03 286.92 143.19 287.68 142.36 C 289.04 143.70 290.55 144.59 292.31 143.26 C 290.86 142.22 289.44 141.16 288.04 140.08 Z" />
<path fill="#ffffff" opacity="1.00" d=" M 267.01 141.92 C 266.99 140.44 269.07 138.85 270.50 139.24 C 270.56 140.68 268.85 142.01 267.50 142.22 L 267.01 141.92 Z" />
<path fill="#ffffff" opacity="1.00" d=" M 208.51 144.17 C 211.49 140.80 216.07 139.93 220.38 140.03 C 219.69 140.44 218.32 141.26 217.64 141.67 L 219.10 141.74 C 219.70 142.89 220.49 143.94 221.31 144.96 C 219.71 145.31 218.35 146.21 217.04 147.14 C 215.60 148.11 214.11 149.00 212.60 149.85 L 212.46 150.64 C 211.62 150.62 209.93 150.58 209.09 150.56 C 211.79 148.81 214.51 147.10 217.23 145.38 C 216.53 145.24 215.14 144.96 214.44 144.82 C 214.76 144.54 215.41 143.96 215.73 143.68 C 216.04 143.38 216.67 142.80 216.98 142.51 C 216.56 142.04 215.71 141.10 215.29 140.63 C 214.92 142.06 214.41 143.53 212.97 144.28 C 213.25 144.67 213.81 145.45 214.10 145.84 C 212.18 147.13 210.20 148.32 208.24 149.52 C 208.39 148.44 208.55 147.36 208.71 146.28 C 209.42 145.67 210.12 145.05 210.82 144.43 C 210.24 144.36 209.09 144.24 208.51 144.17 Z" />
<path fill="#ffffff" opacity="1.00" d=" M 220.24 141.22 C 220.85 141.84 220.85 141.84 220.24 141.22 Z" />
<path fill="#ffffff" opacity="1.00" d=" M 270.68 141.25 C 271.34 141.56 272.00 141.92 272.67 142.24 C 272.11 142.63 270.98 143.42 270.42 143.81 C 270.58 144.50 270.90 145.87 271.06 146.56 C 272.93 145.63 274.56 143.26 276.94 143.94 C 275.52 145.04 273.70 145.66 272.66 147.19 C 272.59 147.27 272.46 147.42 272.39 147.50 L 272.50 147.40 L 272.66 147.19 C 273.83 145.95 275.41 145.80 276.68 146.85 C 274.98 147.98 273.11 148.74 271.14 149.22 C 269.40 150.34 268.32 152.23 266.88 153.68 C 269.00 152.75 271.09 151.73 273.22 150.83 C 272.42 151.56 270.81 153.02 270.00 153.75 C 272.42 153.55 274.72 152.81 276.96 151.91 L 276.32 153.58 C 277.07 153.64 278.57 153.74 279.32 153.80 C 277.40 155.38 275.01 155.42 272.68 155.40 C 271.07 155.32 269.59 155.92 268.15 156.55 C 268.20 156.09 268.29 155.16 268.34 154.69 C 267.11 155.35 265.88 155.99 264.64 156.61 C 264.96 155.96 265.60 154.67 265.92 154.02 C 264.13 155.34 262.08 156.17 259.82 155.66 C 258.55 156.13 257.28 156.55 255.99 156.94 C 258.90 152.71 264.79 153.15 268.36 149.88 L 265.84 149.16 C 267.18 148.10 268.66 147.29 270.28 146.73 C 269.88 146.47 269.49 146.22 269.10 145.97 C 267.38 147.15 265.45 147.94 263.59 148.85 C 263.01 148.98 261.84 149.25 261.25 149.39 C 261.02 149.96 260.55 151.10 260.31 151.67 L 262.49 150.49 C 262.92 150.53 263.78 150.60 264.21 150.64 C 261.02 152.85 257.66 154.79 254.12 156.38 C 254.32 156.82 254.70 157.69 254.89 158.12 C 254.75 159.01 254.62 159.89 254.50 160.78 C 251.04 162.13 247.73 163.87 244.14 164.82 C 239.64 165.68 236.16 168.88 232.58 171.50 C 232.44 170.34 230.75 169.02 232.14 167.91 C 232.36 167.16 232.81 165.64 233.03 164.89 C 232.19 165.27 230.51 166.04 229.67 166.42 C 229.69 165.91 229.72 164.89 229.74 164.38 C 228.28 165.61 226.92 167.55 224.74 166.83 C 221.84 168.52 218.48 166.37 215.39 167.52 C 216.86 164.81 219.34 162.54 222.29 161.59 L 222.93 162.10 L 223.42 162.62 C 224.36 162.77 225.11 162.43 225.69 161.58 C 225.59 160.87 225.40 159.45 225.30 158.74 C 226.45 159.30 227.59 159.87 228.71 160.48 L 226.19 160.58 C 226.60 161.67 227.00 162.75 227.41 163.84 C 229.76 162.20 232.22 160.72 234.81 159.47 C 234.47 159.01 233.79 158.08 233.46 157.62 C 231.84 157.93 230.21 158.04 228.57 157.94 C 230.55 156.41 233.19 154.11 235.78 155.21 L 236.24 155.48 C 238.50 154.72 240.78 154.03 243.18 153.91 C 242.32 154.41 240.60 155.41 239.75 155.91 C 241.72 156.55 243.74 155.59 245.72 155.50 C 242.89 157.65 239.69 159.62 236.21 160.47 C 235.62 160.66 234.45 161.05 233.87 161.25 L 234.44 162.32 C 233.02 161.45 231.04 162.50 230.80 164.09 C 232.25 164.24 233.44 163.22 234.44 162.32 C 234.84 162.00 235.65 161.37 236.05 161.05 C 236.64 164.34 240.65 161.59 242.77 162.70 L 242.68 160.07 C 241.94 160.22 240.46 160.51 239.72 160.65 C 241.08 158.31 243.89 157.67 246.10 156.37 C 246.79 156.49 248.18 156.71 248.87 156.82 L 247.90 155.12 C 250.91 155.82 253.74 154.12 256.56 153.34 C 260.03 147.94 266.05 145.42 270.68 141.25 M 243.14 160.24 C 243.17 160.93 243.24 162.32 243.27 163.01 C 244.44 162.45 245.61 161.89 246.79 161.34 C 246.53 161.05 245.99 160.47 245.72 160.18 C 246.79 159.59 247.87 159.01 248.93 158.40 C 247.02 159.06 245.10 159.72 243.14 160.24 Z" />
<path fill="#ffffff" opacity="1.00" d=" M 293.75 143.72 C 293.60 142.37 294.23 141.79 295.66 141.98 C 295.82 143.32 295.19 143.90 293.75 143.72 Z" />
<path fill="#ffffff" opacity="1.00" d=" M 210.12 152.76 C 214.69 152.64 216.82 147.47 221.31 146.72 C 220.72 147.52 220.11 148.31 219.49 149.09 C 217.85 149.74 216.29 150.75 216.03 152.64 C 214.04 154.11 211.99 155.57 210.59 157.64 C 212.90 156.04 215.07 154.23 217.48 152.78 C 219.32 152.08 220.98 151.02 222.69 150.05 C 223.17 152.88 219.45 153.24 217.83 154.85 C 214.17 157.22 211.25 160.65 207.24 162.52 C 207.12 162.12 206.89 161.31 206.77 160.91 C 205.70 161.44 203.56 162.49 202.50 163.02 C 201.51 159.99 205.87 159.09 206.94 156.72 C 203.12 157.51 201.68 161.59 198.77 163.74 L 197.89 162.75 C 199.89 159.60 202.55 157.08 205.54 154.87 C 204.48 155.23 202.35 155.94 201.29 156.30 C 203.28 153.10 206.35 150.37 210.40 151.24 C 210.33 151.62 210.19 152.38 210.12 152.76 M 208.43 157.69 C 209.71 157.92 210.78 155.92 210.31 154.83 C 209.05 154.70 207.83 156.57 208.43 157.69 Z" />
<path fill="#ffffff" opacity="1.00" d=" M 240.92 150.20 C 243.44 148.92 245.80 147.15 248.70 146.86 C 246.19 149.97 242.01 150.78 238.79 152.93 C 238.49 152.83 237.89 152.61 237.59 152.51 L 236.91 152.93 C 234.84 153.84 232.61 154.23 230.39 154.57 C 233.55 152.48 236.99 150.20 240.92 150.20 Z" />
<path fill="#ffffff" opacity="1.00" d=" M 247.70 152.02 C 247.83 149.10 251.07 148.16 253.22 146.96 C 252.48 149.60 249.82 150.71 247.70 152.02 Z" />
<path fill="#ffffff" opacity="1.00" d=" M 328.89 151.84 C 332.92 150.05 336.75 147.30 341.32 147.24 C 335.67 149.20 330.40 151.96 325.50 155.38 C 326.13 153.78 327.24 152.43 328.89 151.84 Z" />
<path fill="#ffffff" opacity="1.00" d=" M 295.55 151.34 C 297.38 150.19 299.42 149.52 301.58 149.29 C 301.39 149.87 301.01 151.02 300.82 151.59 C 298.92 152.81 296.88 153.77 295.55 151.34 Z" />
<path fill="#ffffff" opacity="1.00" d=" M 315.44 150.29 C 315.83 150.91 316.21 151.56 316.58 152.21 C 320.25 152.42 323.47 154.48 326.58 156.25 C 325.22 156.40 323.87 156.54 322.52 156.67 C 319.84 155.51 316.81 157.26 314.23 155.96 C 313.45 157.65 312.29 159.11 311.15 160.55 C 309.64 159.15 308.18 157.52 306.86 156.00 C 307.90 156.49 309.99 157.47 311.03 157.96 C 310.44 157.42 309.27 156.33 308.68 155.79 C 310.34 155.27 312.23 155.15 313.64 154.01 L 311.86 153.29 C 313.11 152.36 314.32 151.38 315.44 150.29 Z" />
<path fill="#ffffff" opacity="1.00" d=" M 180.17 156.18 C 182.06 154.10 184.34 152.39 186.87 151.16 C 186.06 152.39 184.01 153.06 184.19 154.74 L 184.49 155.19 C 182.50 157.99 178.66 159.56 176.19 162.16 C 175.58 161.78 174.99 161.38 174.41 160.97 C 175.93 158.94 178.05 157.50 180.17 156.18 M 182.25 155.98 C 181.47 156.68 181.47 156.68 182.25 155.98 C 182.70 155.35 182.70 155.35 182.25 155.98 Z" />
<path fill="#ffffff" opacity="1.00" d=" M 217.83 154.85 C 218.99 154.46 220.13 154.01 221.25 153.50 C 223.21 153.54 225.17 153.57 227.14 153.59 C 223.76 156.85 219.75 159.44 215.28 160.90 L 215.97 159.11 L 213.58 159.66 C 214.95 158.02 216.46 156.49 217.83 154.85 Z" />
<path fill="#ffffff" opacity="1.00" d=" M 165.20 159.16 C 168.02 158.58 170.66 157.41 173.41 156.56 C 172.00 160.62 167.18 161.91 163.70 163.74 C 162.20 164.79 160.77 164.04 159.72 162.81 C 161.84 162.22 163.99 161.70 166.14 161.20 C 165.91 160.69 165.44 159.67 165.20 159.16 Z" />
<path fill="#ffffff" opacity="1.00" d=" M 320.02 157.66 C 321.42 157.41 323.81 159.23 323.16 160.75 C 321.75 160.91 319.68 159.10 320.02 157.66 Z" />
<path fill="#ffffff" opacity="1.00" d=" M 326.70 160.39 C 324.94 159.90 325.07 156.23 327.09 156.63 C 328.03 157.57 328.59 160.21 326.70 160.39 Z" />
<path fill="#ffffff" opacity="1.00" d=" M 314.83 160.31 C 315.74 159.57 316.67 158.84 317.60 158.12 C 318.98 159.35 320.20 160.73 321.28 162.23 C 319.02 164.88 316.82 161.42 314.83 160.31 Z" />
<path fill="#ffffff" opacity="1.00" d=" M 179.88 162.34 C 181.25 161.31 182.66 160.34 184.24 159.65 C 182.88 161.74 181.40 163.83 179.25 165.19 C 179.42 165.54 179.76 166.25 179.93 166.60 L 176.94 166.52 C 177.33 167.11 178.10 168.31 178.48 168.91 C 178.09 168.71 177.31 168.31 176.92 168.11 C 176.25 170.15 174.81 171.77 173.44 173.37 C 173.25 171.88 173.41 170.41 173.93 169.02 C 174.15 167.59 174.27 166.16 174.52 164.74 C 176.07 163.51 177.64 161.11 179.88 162.34 Z" />
<path fill="#ffffff" opacity="1.00" d=" M 229.27 160.22 C 229.85 160.80 229.85 160.80 229.27 160.22 Z" />
<path fill="#ffffff" opacity="1.00" d=" M 248.85 164.35 C 252.97 163.41 256.72 161.36 260.76 160.17 C 258.58 162.91 255.10 163.86 252.06 165.29 C 247.80 165.73 243.96 168.09 241.12 171.21 C 245.55 169.91 248.87 166.27 253.47 165.28 C 257.28 163.79 261.31 163.09 265.40 163.29 C 261.42 165.71 256.93 166.93 252.31 167.24 C 249.29 169.06 246.15 170.68 243.12 172.47 L 241.94 171.27 C 239.62 172.37 237.53 173.88 235.24 175.03 C 232.67 176.83 230.73 179.33 228.35 181.34 C 228.76 181.50 229.57 181.83 229.98 181.99 C 230.21 182.17 230.67 182.53 230.90 182.71 L 228.67 184.25 C 230.88 183.40 232.77 181.91 234.80 180.71 C 234.35 181.54 233.43 183.20 232.97 184.02 C 237.63 182.43 242.00 180.09 245.88 177.07 C 246.65 180.46 249.86 177.24 252.02 177.16 C 250.71 177.97 249.34 178.66 247.97 179.34 C 248.65 179.72 250.01 180.48 250.69 180.85 C 248.74 180.32 246.78 179.85 244.81 179.43 C 245.85 180.03 247.93 181.23 248.98 181.83 L 245.51 183.10 C 245.99 183.48 246.48 183.85 246.97 184.22 C 247.69 183.64 249.13 182.48 249.84 181.91 L 249.16 184.21 C 251.61 184.29 254.17 184.47 255.74 186.64 C 256.29 186.58 257.37 186.46 257.92 186.39 C 256.90 187.38 254.64 190.58 255.99 187.10 L 254.49 187.59 L 254.65 186.25 C 252.98 186.44 251.31 186.69 249.66 186.99 L 251.15 184.78 C 249.94 185.48 248.73 186.18 247.53 186.88 L 247.85 184.94 C 246.59 185.57 245.34 186.19 244.09 186.82 C 244.20 186.15 244.42 184.82 244.53 184.15 C 243.89 184.73 242.60 185.88 241.96 186.45 L 241.89 184.20 C 240.45 184.76 238.19 188.78 237.62 185.33 C 236.74 185.88 235.87 186.42 235.00 186.97 C 235.48 186.03 236.43 184.15 236.91 183.21 C 235.37 184.30 233.81 185.37 232.24 186.41 L 232.29 184.98 C 230.00 185.84 228.14 184.25 226.37 183.08 C 225.69 183.02 224.32 182.91 223.64 182.86 L 225.65 182.05 C 224.70 181.30 223.72 180.61 222.74 179.93 C 223.79 179.17 224.81 178.35 225.92 177.67 C 226.58 177.51 227.92 177.20 228.59 177.05 C 228.17 177.51 227.33 178.43 226.91 178.89 C 228.44 179.31 230.01 178.31 230.54 176.86 C 230.05 176.91 229.08 177.00 228.59 177.05 L 227.20 176.89 C 229.00 175.36 230.96 174.04 232.91 172.73 L 231.72 175.50 C 233.07 174.62 234.40 173.70 235.70 172.75 C 235.31 172.08 234.92 171.44 234.50 170.81 C 239.20 168.50 243.73 165.68 248.85 164.35 M 244.68 181.68 C 244.03 182.34 244.03 182.34 244.68 181.68 C 245.32 181.03 245.32 181.03 244.68 181.68 Z" />
<path fill="#ffffff" opacity="1.00" d=" M 329.58 159.57 C 331.02 159.42 332.09 161.41 331.39 162.60 C 330.24 163.21 329.35 161.69 328.38 161.30 C 328.33 160.46 328.73 159.88 329.58 159.57 Z" />
<path fill="#ffffff" opacity="1.00" d=" M 333.66 160.22 C 337.37 161.62 341.50 162.76 344.23 165.84 C 341.07 164.21 337.85 162.72 334.45 161.69 C 334.25 161.32 333.86 160.58 333.66 160.22 Z" />
<path fill="#ffffff" opacity="1.00" d=" M 163.43 165.26 C 166.94 164.79 168.34 161.02 171.66 160.14 C 171.36 162.26 170.63 164.34 168.79 165.60 C 168.56 166.31 168.11 167.72 167.88 168.43 C 167.79 167.48 167.60 165.59 167.51 164.64 C 167.32 165.18 166.96 166.26 166.78 166.80 C 165.53 166.68 164.51 165.82 163.43 165.26 Z" />
<path fill="#ffffff" opacity="1.00" d=" M 204.90 166.84 C 207.29 164.23 210.27 161.71 213.90 161.22 C 213.21 162.46 212.52 163.69 211.81 164.93 C 213.07 164.38 214.33 163.82 215.60 163.30 L 215.44 162.10 L 217.53 162.88 C 217.14 163.54 216.34 164.87 215.95 165.54 C 215.42 165.56 214.37 165.60 213.85 165.62 C 211.36 167.96 208.30 169.53 205.15 170.78 C 206.02 169.56 207.04 168.46 208.04 167.34 C 207.25 167.22 205.68 166.97 204.90 166.84 Z" />
<path fill="#ffffff" opacity="1.00" d=" M 309.92 163.74 C 311.46 162.02 313.47 161.73 315.57 162.67 C 315.30 164.11 314.81 165.55 313.59 166.49 C 313.60 167.13 313.62 168.41 313.63 169.05 C 311.88 167.68 310.84 165.72 309.92 163.74 Z" />
<path fill="#ffffff" opacity="1.00" d=" M 198.50 164.07 C 199.81 163.88 201.84 162.41 202.41 164.43 C 200.93 165.02 199.95 166.07 199.46 167.58 L 198.95 167.82 L 198.82 168.23 C 198.71 168.33 198.49 168.52 198.39 168.62 C 197.66 168.97 196.21 169.66 195.49 170.01 C 196.48 168.06 199.01 166.57 198.50 164.07 Z" />
<path fill="#ffffff" opacity="1.00" d=" M 204.04 163.33 C 204.43 163.84 204.81 164.35 205.20 164.88 C 204.56 165.36 203.27 166.32 202.62 166.80 L 204.65 167.38 C 203.60 168.26 201.49 170.00 200.44 170.88 L 201.51 167.75 C 200.77 169.41 196.98 170.93 199.33 172.73 C 198.31 173.89 197.27 175.02 196.20 176.13 C 196.47 175.24 197.02 173.47 197.29 172.58 C 196.65 172.84 195.37 173.35 194.73 173.61 C 195.86 172.07 197.02 170.56 198.04 168.94 L 198.39 168.62 L 198.60 168.43 L 198.82 168.23 L 199.22 168.09 L 199.46 167.58 C 201.00 167.04 201.99 166.00 202.41 164.43 L 202.41 165.27 L 204.04 163.33 Z" />
<path fill="#ffffff" opacity="1.00" d=" M 262.40 167.29 C 263.05 166.87 263.72 166.45 264.39 166.03 C 264.45 166.63 264.56 167.84 264.62 168.44 L 263.03 168.33 C 263.20 168.80 263.53 169.73 263.70 170.20 C 261.13 171.55 258.67 173.16 255.78 173.77 C 255.78 173.12 255.76 171.83 255.75 171.18 L 257.68 171.83 C 257.48 171.06 257.28 170.29 257.09 169.52 C 258.85 168.76 260.61 167.99 262.40 167.29 Z" />
<path fill="#ffffff" opacity="1.00" d=" M 279.75 172.77 C 283.15 168.91 288.36 167.28 293.20 166.10 C 291.36 167.18 289.41 168.06 287.50 169.03 C 285.09 170.60 282.46 171.81 279.75 172.77 Z" />
<path fill="#ffffff" opacity="1.00" d=" M 333.02 165.93 C 337.89 166.92 342.26 170.19 345.06 174.25 C 342.58 172.65 340.68 170.20 337.88 169.14 C 336.04 168.43 334.32 167.44 333.02 165.93 Z" />
<path fill="#ffffff" opacity="1.00" d=" M 163.37 167.11 C 166.24 165.71 163.60 170.03 163.37 167.11 Z" />
<path fill="#ffffff" opacity="1.00" d=" M 331.33 167.40 C 333.26 167.75 331.93 171.57 330.16 170.56 C 329.31 169.53 330.11 167.73 331.33 167.40 Z" />
<path fill="#ffffff" opacity="1.00" d=" M 165.37 167.75 C 166.57 168.18 167.81 168.69 168.90 169.39 C 168.31 169.67 167.14 170.24 166.55 170.53 C 166.76 170.99 167.18 171.93 167.38 172.40 C 165.69 171.27 160.40 172.14 161.91 168.97 C 163.76 168.53 165.23 169.06 166.34 170.56 C 166.10 169.86 165.61 168.45 165.37 167.75 Z" />
<path fill="#ffffff" opacity="1.00" d=" M 270.15 171.24 C 273.88 169.91 277.52 167.76 281.63 168.29 C 279.17 169.48 276.57 170.47 273.84 170.76 C 268.35 172.35 263.39 175.31 257.94 177.00 C 261.23 173.63 265.98 172.94 270.15 171.24 Z" />
<path fill="#ffffff" opacity="1.00" d=" M 201.79 170.60 C 203.14 169.57 204.48 168.53 205.84 167.51 C 205.16 168.92 204.21 170.35 204.49 172.00 C 203.72 172.94 202.17 174.82 201.40 175.76 C 202.57 175.50 204.91 174.97 206.09 174.71 C 205.66 174.95 204.80 175.42 204.38 175.65 C 204.35 176.99 204.30 179.65 204.28 180.99 C 205.65 179.32 207.09 177.71 208.56 176.13 C 208.52 176.43 208.45 177.04 208.42 177.34 C 207.45 178.59 206.50 179.86 205.60 181.16 L 207.75 179.83 C 207.00 181.93 207.74 183.26 209.91 183.62 C 209.23 184.31 208.58 185.03 207.83 185.65 C 204.32 184.96 201.80 182.37 199.19 180.13 C 200.18 178.67 201.17 177.22 202.16 175.76 C 200.67 176.97 199.29 178.31 197.85 179.58 L 198.16 177.31 C 197.64 177.49 196.61 177.85 196.09 178.03 C 196.36 177.47 196.91 176.34 197.18 175.77 L 197.94 176.02 L 198.04 175.30 C 199.45 173.87 200.77 172.34 201.79 170.60 Z" />
<path fill="#ffffff" opacity="1.00" d=" M 239.29 174.74 C 245.29 173.16 250.34 168.91 256.63 168.28 L 256.53 170.05 C 254.94 171.11 254.23 173.27 251.99 172.22 C 253.24 172.71 254.50 173.23 255.67 173.89 C 253.77 174.37 251.78 175.11 250.08 173.73 C 249.56 174.06 248.51 174.73 247.99 175.06 L 248.21 173.34 C 246.93 173.74 245.63 174.11 244.34 174.46 C 243.65 175.12 242.97 175.79 242.29 176.46 C 241.36 176.58 240.44 176.71 239.51 176.84 C 239.45 176.31 239.34 175.26 239.29 174.74 Z" />
<path fill="#ffffff" opacity="1.00" d=" M 332.78 168.41 C 336.40 169.86 336.89 174.37 338.54 177.48 C 336.33 174.65 334.54 171.52 332.78 168.41 Z" />
<path fill="#ffffff" opacity="1.00" d=" M 159.79 172.69 C 158.96 171.66 157.46 170.74 158.41 169.23 C 160.58 170.94 162.95 172.41 165.09 174.18 C 165.50 176.01 162.94 175.52 161.96 176.09 C 162.63 177.06 163.29 178.04 163.90 179.05 C 162.54 178.42 161.23 177.69 159.95 176.93 C 159.90 175.51 159.84 174.10 159.79 172.69 Z" />
<path fill="#ffffff" opacity="1.00" d=" M 317.00 172.96 C 316.81 170.43 319.65 170.93 321.31 170.41 C 320.23 171.67 319.03 174.49 317.00 172.96 Z" />
<path fill="#ffffff" opacity="1.00" d=" M 313.87 171.79 C 315.09 170.92 316.96 172.84 315.63 173.87 C 314.37 174.82 312.41 172.78 313.87 171.79 Z" />
<path fill="#ffffff" opacity="1.00" d=" M 210.18 179.42 C 212.45 177.15 210.97 173.97 212.28 171.27 L 211.85 173.49 L 213.58 173.62 C 213.74 174.14 214.04 175.17 214.19 175.68 C 215.72 177.46 218.45 182.34 212.91 179.01 C 213.68 180.54 214.56 182.01 215.62 183.37 C 215.92 184.77 214.06 184.53 213.21 184.46 C 213.07 186.14 215.22 188.90 213.04 189.93 C 211.15 188.58 211.54 185.38 211.00 183.27 C 211.37 183.00 212.10 182.47 212.47 182.21 C 211.69 181.29 210.93 180.36 210.18 179.42 Z" />
<path fill="#ffffff" opacity="1.00" d=" M 233.50 172.24 C 233.76 172.55 233.76 172.55 233.50 172.24 Z" />
<path fill="#ffffff" opacity="1.00" d=" M 217.73 172.47 C 219.69 173.07 221.67 173.60 223.72 173.82 L 223.43 175.54 C 222.33 175.82 221.23 176.08 220.12 176.31 C 218.37 176.31 218.74 173.41 217.73 172.47 Z" />
<path fill="#ffffff" opacity="1.00" d=" M 224.18 173.14 C 225.10 173.65 226.02 174.14 226.96 174.62 C 226.70 175.38 226.18 176.91 225.92 177.67 L 225.54 176.94 C 224.42 178.04 220.61 180.40 221.11 177.16 C 222.03 176.29 223.30 176.11 224.48 175.81 C 224.37 174.92 224.27 174.03 224.18 173.14 Z" />
<path fill="#ffffff" opacity="1.00" d=" M 270.24 174.31 C 272.08 173.94 273.94 173.62 275.81 173.36 C 275.81 173.62 275.81 174.14 275.81 174.40 C 274.75 174.76 273.71 175.14 272.67 175.54 C 273.37 175.48 274.77 175.35 275.47 175.28 L 275.37 178.03 C 274.57 177.68 272.97 176.96 272.18 176.60 C 271.25 176.27 270.33 175.94 269.41 175.62 C 269.62 175.29 270.03 174.64 270.24 174.31 Z" />
<path fill="#ffffff" opacity="1.00" d=" M 310.47 175.69 C 310.03 174.00 310.60 172.64 312.17 171.59 C 312.43 172.44 312.95 174.15 313.21 175.00 C 312.29 176.66 311.78 180.83 308.92 178.23 C 309.22 177.74 309.83 176.75 310.14 176.25 L 310.47 175.69 Z" />
<path fill="#ffffff" opacity="1.00" d=" M 332.22 172.95 C 333.63 175.30 333.39 178.12 333.79 180.73 C 332.23 182.64 330.89 184.81 328.79 186.19 C 330.17 183.38 333.25 181.38 333.00 177.91 C 332.48 177.44 331.44 176.49 330.92 176.02 C 331.13 176.73 331.56 178.16 331.77 178.88 L 330.42 179.04 C 330.48 179.68 330.61 180.96 330.68 181.60 C 329.62 180.53 328.59 179.43 327.60 178.30 C 328.62 177.69 329.64 177.08 330.67 176.48 C 331.18 175.30 331.70 174.13 332.22 172.95 Z" />
<path fill="#ffffff" opacity="1.00" d=" M 168.78 176.68 C 170.85 175.20 172.91 173.55 175.52 173.17 C 173.90 175.87 171.56 178.07 168.65 179.32 C 168.68 178.66 168.75 177.34 168.78 176.68 Z" />
<path fill="#ffffff" opacity="1.00" d=" M 177.95 177.91 C 179.56 177.29 181.18 176.70 182.85 176.23 C 182.26 178.04 181.64 179.85 181.07 181.67 C 179.94 179.65 178.09 181.13 176.53 181.51 C 174.58 182.03 172.52 181.69 170.59 181.24 C 169.86 180.05 171.76 179.84 172.38 179.24 C 174.03 178.08 176.13 178.57 177.95 177.91 Z" />
<path fill="#ffffff" opacity="1.00" d=" M 186.24 177.17 C 187.83 176.59 188.35 177.13 187.81 178.79 C 186.23 179.37 185.70 178.83 186.24 177.17 Z" />
<path fill="#ffffff" opacity="1.00" d=" M 231.82 179.76 C 232.41 178.54 233.84 176.65 235.37 177.33 C 235.67 178.94 233.26 180.14 231.90 180.29 L 231.82 179.76 Z" />
<path fill="#ffffff" opacity="1.00" d=" M 251.35 181.55 C 252.38 180.42 254.68 176.07 255.88 179.28 C 255.79 179.56 255.60 180.13 255.50 180.41 C 254.22 181.12 252.84 181.50 251.35 181.55 Z" />
<path fill="#ffffff" opacity="1.00" d=" M 256.89 178.41 C 258.21 179.04 259.50 179.76 260.68 180.64 C 260.66 180.28 260.62 179.57 260.60 179.21 C 262.82 179.24 265.03 179.43 267.25 179.50 C 265.03 181.51 262.96 183.72 260.47 185.41 C 261.39 183.62 262.50 181.93 263.31 180.09 C 261.88 181.68 260.44 183.28 258.56 184.36 L 258.82 182.47 C 257.56 182.85 256.31 183.20 255.05 183.52 C 255.70 181.82 256.75 180.28 256.89 178.41 Z" />
<path fill="#ffffff" opacity="1.00" d=" M 312.64 181.33 C 313.45 180.65 315.07 179.31 315.87 178.63 C 316.68 179.74 317.38 180.93 318.13 182.10 C 319.16 181.36 320.21 180.66 321.28 179.98 C 320.72 183.81 316.81 183.83 313.79 184.55 C 314.83 183.37 315.88 182.19 316.96 181.03 C 315.52 181.13 314.08 181.23 312.64 181.33 Z" />
<path fill="#ffffff" opacity="1.00" d=" M 229.98 181.99 C 229.99 180.65 230.63 180.08 231.90 180.29 L 232.10 181.13 C 231.57 181.34 230.51 181.77 229.98 181.99 Z" />
<path fill="#ffffff" opacity="1.00" d=" M 322.41 184.88 C 322.63 183.02 321.43 180.35 323.77 179.50 C 323.98 180.90 324.18 182.31 324.39 183.71 C 323.73 184.10 323.07 184.49 322.41 184.88 Z" />
<path fill="#ffffff" opacity="1.00" d=" M 217.75 182.13 C 217.86 181.87 218.07 181.37 218.17 181.11 C 218.18 181.55 218.18 182.44 218.18 182.88 C 223.09 183.20 215.50 187.20 216.37 188.63 L 220.22 186.04 L 221.77 185.88 C 220.24 188.58 217.64 190.17 214.74 190.95 C 215.46 187.91 216.72 185.06 217.75 182.13 Z" />
<path fill="#ffffff" opacity="1.00" d=" M 266.30 182.50 C 267.56 181.69 269.25 179.78 269.69 182.36 C 271.86 180.57 272.79 183.63 274.07 184.71 C 273.70 184.92 272.95 185.35 272.58 185.56 C 271.35 184.66 270.08 183.79 268.82 182.96 C 268.48 183.98 268.14 185.00 267.81 186.02 C 267.63 184.70 267.12 183.53 266.30 182.50 Z" />
<path fill="#ffffff" opacity="1.00" d=" M 307.23 181.01 C 307.45 181.41 307.90 182.20 308.12 182.59 C 309.65 180.28 312.26 181.98 314.07 182.97 C 311.60 184.14 308.80 183.55 306.19 183.93 C 306.45 183.20 306.97 181.74 307.23 181.01 Z" />
<path fill="#ffffff" opacity="1.00" d=" M 289.28 182.57 C 289.68 183.00 290.49 183.87 290.89 184.30 C 289.27 184.25 287.67 184.30 286.06 184.36 C 286.08 184.16 286.11 183.77 286.13 183.58 C 287.18 183.25 288.23 182.91 289.28 182.57 Z" />
<path fill="#ffffff" opacity="1.00" d=" M 300.18 185.00 C 300.88 185.40 300.88 185.40 300.18 185.00 Z" />
<path fill="#ffffff" opacity="1.00" d=" M 202.06 185.93 C 203.79 187.51 205.42 189.20 207.27 190.65 C 207.85 189.35 208.11 187.93 208.42 186.57 C 209.27 187.79 210.08 189.03 210.89 190.29 C 211.35 192.41 211.87 194.53 212.14 196.69 C 211.25 194.86 210.63 192.91 209.88 191.02 C 209.27 190.89 208.04 190.63 207.43 190.50 C 207.89 191.39 208.82 193.18 209.28 194.07 C 206.71 191.51 203.54 189.36 202.06 185.93 Z" />
<path fill="#ffffff" opacity="1.00" d=" M 219.36 189.82 C 220.96 188.27 222.58 186.73 224.43 185.47 C 224.35 188.00 222.33 189.60 220.95 191.48 C 220.42 190.93 219.88 190.37 219.36 189.82 Z" />
<path fill="#ffffff" opacity="1.00" d=" M 223.26 191.97 C 224.20 190.21 225.11 188.43 226.17 186.74 C 227.18 188.08 228.30 189.17 229.62 187.61 C 229.81 187.97 230.18 188.69 230.37 189.05 C 228.78 188.10 227.24 189.69 226.12 190.65 C 226.75 190.71 228.01 190.84 228.64 190.91 C 229.07 190.44 229.94 189.52 230.37 189.05 C 230.94 188.62 231.62 188.44 232.32 188.35 C 230.59 190.69 228.86 193.02 226.99 195.25 C 225.96 194.22 225.05 193.10 224.25 191.89 C 222.98 192.61 221.78 193.43 220.66 194.37 L 223.36 194.22 C 222.20 195.96 221.05 197.73 219.61 199.26 C 218.21 200.16 217.32 198.50 216.33 197.86 C 215.93 198.26 215.12 199.04 214.71 199.44 L 215.47 199.92 C 214.53 200.17 212.66 200.68 211.72 200.93 C 213.41 198.83 215.42 196.95 217.92 195.85 C 219.46 194.25 220.98 192.47 223.26 191.97 Z" />
<path fill="#ffffff" opacity="1.00" d=" M 258.66 187.15 C 259.36 187.21 260.78 187.33 261.48 187.39 L 261.36 188.51 L 263.29 189.09 C 261.31 190.20 257.58 190.29 258.66 187.15 Z" />
<path fill="#ffffff" opacity="1.00" d=" M 300.04 189.68 C 303.67 188.35 307.51 188.44 311.32 188.35 C 310.44 189.62 309.24 190.59 307.96 191.42 C 307.89 190.72 307.77 189.32 307.71 188.62 C 306.55 189.15 305.39 189.66 304.24 190.18 C 302.72 190.05 301.21 190.09 299.70 190.23 C 299.79 190.09 299.96 189.82 300.04 189.68 Z" />
<path fill="#ffffff" opacity="1.00" d=" M 238.07 191.23 C 238.37 192.19 238.67 193.15 238.99 194.11 C 237.21 196.69 235.71 199.76 232.69 201.11 C 233.11 200.42 233.97 199.05 234.39 198.37 C 234.05 198.13 233.37 197.66 233.04 197.43 C 233.94 196.17 234.93 194.94 236.34 194.22 C 236.92 193.23 237.50 192.23 238.07 191.23 Z" />
<path fill="#ffffff" opacity="1.00" d=" M 241.73 195.08 C 242.55 193.49 243.69 192.11 244.93 190.83 C 245.84 191.30 246.75 191.76 247.66 192.23 C 248.07 193.07 248.54 193.88 249.07 194.65 C 248.87 195.19 248.46 196.27 248.26 196.81 C 249.05 196.12 249.82 195.40 250.57 194.66 C 251.43 194.68 253.14 194.72 254.00 194.75 C 252.23 196.25 250.35 197.64 248.25 198.65 C 247.48 198.27 246.71 197.89 245.94 197.51 C 246.58 196.15 247.18 194.78 247.75 193.40 C 246.96 194.10 245.39 195.52 244.61 196.23 C 244.66 195.45 244.76 193.89 244.81 193.11 C 244.04 193.60 242.50 194.59 241.73 195.08 Z" />
<path fill="#ffffff" opacity="1.00" d=" M 320.90 191.12 C 318.56 197.70 310.11 199.82 303.82 198.52 C 301.40 197.90 299.33 199.95 296.94 199.72 C 295.26 199.43 293.62 198.98 291.97 198.58 C 292.29 198.32 292.93 197.79 293.25 197.53 C 298.25 197.64 303.28 197.16 308.22 198.19 C 313.41 198.33 317.43 194.51 320.90 191.12 Z" />
<path fill="#ffffff" opacity="1.00" d=" M 213.42 194.66 C 214.72 193.34 216.21 192.24 217.71 191.15 C 218.37 191.80 219.02 192.45 219.67 193.11 C 217.82 194.45 215.65 194.84 213.42 194.66 Z" />
<path fill="#ffffff" opacity="1.00" d=" M 279.31 193.47 C 279.53 193.55 279.96 193.72 280.18 193.81 C 279.00 194.80 277.84 195.82 276.69 196.85 C 275.65 196.60 274.57 196.19 273.53 196.64 C 272.85 195.67 274.48 195.00 274.93 194.30 C 276.44 194.55 278.11 194.58 279.31 193.47 Z" />
<path fill="#ffffff" opacity="1.00" d=" M 205.48 193.56 C 207.33 194.77 207.81 196.71 207.38 198.84 L 208.30 198.53 C 208.27 200.95 209.58 203.87 207.44 205.75 C 207.34 204.47 207.15 201.91 207.05 200.63 C 206.16 202.20 205.38 203.85 204.37 205.35 C 205.18 202.71 206.92 200.08 205.32 197.37 L 207.14 197.49 C 206.57 196.19 206.02 194.87 205.48 193.56 Z" />
<path fill="#ffffff" opacity="1.00" d=" M 257.54 196.07 C 258.33 195.02 259.33 194.65 260.52 194.96 C 260.93 196.29 257.58 197.86 257.54 196.07 Z" />
<path fill="#ffffff" opacity="1.00" d=" M 253.42 197.94 C 252.93 196.62 255.16 195.28 256.27 195.95 C 256.21 196.31 256.10 197.02 256.04 197.38 C 255.38 197.52 254.07 197.80 253.42 197.94 Z" />
<path fill="#ffffff" opacity="1.00" d=" M 218.91 200.93 C 220.76 199.15 222.23 196.14 225.26 196.67 C 224.38 197.83 223.47 198.96 222.53 200.07 C 222.96 200.52 223.40 200.97 223.84 201.43 C 224.24 200.71 225.03 199.27 225.43 198.56 C 225.63 199.44 226.01 201.20 226.20 202.08 C 222.82 205.74 219.40 209.50 214.94 211.89 C 217.10 208.60 220.46 206.32 222.47 202.90 C 222.04 202.48 221.61 202.07 221.18 201.67 C 218.86 204.53 215.56 206.53 212.07 207.63 C 214.36 205.40 216.86 203.40 218.91 200.93 Z" />
<path fill="#ffffff" opacity="1.00" d=" M 289.12 197.25 C 290.77 196.64 291.24 197.15 290.54 198.79 C 288.87 199.40 288.39 198.88 289.12 197.25 Z" />
<path fill="#ffffff" opacity="1.00" d=" M 215.47 199.92 C 215.88 199.93 216.70 199.96 217.12 199.97 C 216.53 201.26 215.13 203.21 213.54 202.82 C 213.25 201.57 214.67 200.66 215.47 199.92 Z" />
<path fill="#ffffff" opacity="1.00" d=" M 223.69 206.21 C 224.19 204.95 225.05 204.03 226.26 203.46 C 228.01 204.14 224.30 207.91 223.69 206.21 Z" />
<path fill="#ffffff" opacity="1.00" d=" M 241.67 209.74 C 240.95 207.62 243.36 206.64 244.43 205.26 C 244.41 206.15 244.40 207.04 244.39 207.94 C 243.28 209.05 242.23 210.23 241.23 211.45 C 241.63 211.63 242.44 211.98 242.85 212.16 C 243.27 214.46 239.65 214.82 238.60 216.23 C 239.01 215.33 239.82 213.52 240.22 212.62 C 239.24 213.46 238.28 214.33 237.30 215.17 C 236.50 214.20 235.69 213.25 234.87 212.30 C 235.55 211.85 236.90 210.95 237.58 210.50 C 237.27 210.13 236.64 209.38 236.32 209.01 C 237.47 208.41 238.63 207.83 239.80 207.26 C 239.39 207.91 238.55 209.20 238.13 209.85 C 239.31 209.79 240.49 209.76 241.67 209.74 Z" />
<path fill="#ffffff" opacity="1.00" d=" M 224.09 213.20 C 225.73 210.53 227.73 208.07 230.19 206.11 C 229.40 209.31 226.57 211.32 224.09 213.20 Z" />
<path fill="#ffffff" opacity="1.00" d=" M 263.62 207.86 C 263.57 207.45 263.46 206.63 263.41 206.22 C 264.41 207.47 265.45 208.69 266.54 209.88 C 267.61 209.13 268.70 208.38 269.79 207.65 C 269.08 209.34 268.39 211.04 267.97 212.82 C 266.83 214.35 265.71 215.90 264.57 217.43 C 262.40 216.06 262.58 213.59 263.62 211.54 L 262.22 211.35 L 262.11 211.04 L 263.29 211.17 C 263.50 210.45 263.91 209.00 264.12 208.28 C 262.94 208.46 261.82 208.31 260.74 207.84 C 261.46 207.84 262.90 207.85 263.62 207.86 Z" />
<path fill="#ffffff" opacity="1.00" d=" M 246.34 208.03 C 246.68 207.06 248.66 206.82 247.86 208.27 C 246.98 209.49 246.05 211.19 244.41 211.40 C 243.32 209.93 245.73 209.08 246.34 208.03 Z" />
<path fill="#ffffff" opacity="1.00" d=" M 273.63 208.40 C 274.05 207.98 274.89 207.15 275.31 206.73 C 273.81 211.41 270.46 215.30 269.10 220.08 C 267.58 225.85 266.00 231.62 264.57 237.41 C 264.85 227.11 269.09 217.47 273.63 208.40 Z" />
<path fill="#ffffff" opacity="1.00" d=" M 235.47 219.69 C 238.13 217.59 240.92 215.64 243.88 213.99 C 243.95 216.48 241.88 218.01 240.50 219.79 L 241.02 218.43 C 239.19 218.96 237.34 219.36 235.47 219.69 Z" />
</g>
</svg>
