<?xml version="1.0" encoding="UTF-8" ?>
<!DOCTYPE svg PUBLIC "-//W3C//DTD SVG 1.1//EN" "http://www.w3.org/Graphics/SVG/1.1/DTD/svg11.dtd">
<svg width="512pt" height="256pt" viewBox="0 0 512 256" version="1.1" xmlns="http://www.w3.org/2000/svg">
<g id="#ffffffff">
<path fill="#ffffff" opacity="1.00" d=" M 205.04 30.40 C 205.59 28.41 206.95 27.29 209.12 27.32 C 208.70 29.40 207.06 30.75 205.51 32.02 C 204.80 33.83 203.69 35.43 202.84 37.17 C 201.65 39.66 203.15 42.19 203.94 44.54 C 203.25 44.44 201.86 44.23 201.17 44.12 C 201.72 44.94 202.82 46.58 203.36 47.40 C 203.62 51.74 200.63 47.17 199.79 46.11 C 198.91 45.16 200.85 44.49 201.03 43.67 C 200.78 43.27 200.27 42.46 200.02 42.06 C 200.77 40.05 201.16 37.95 201.57 35.86 C 202.85 34.62 203.18 32.83 203.71 31.20 C 204.04 31.00 204.71 30.60 205.04 30.40 Z" />
<path fill="#ffffff" opacity="1.00" d=" M 209.83 31.90 C 208.26 31.37 209.71 27.93 211.15 28.11 C 211.57 29.39 210.89 31.11 209.83 31.90 Z" />
<path fill="#ffffff" opacity="1.00" d=" M 214.40 28.76 C 214.96 29.02 215.52 29.28 216.08 29.54 C 216.27 30.04 216.64 31.06 216.82 31.57 C 215.83 31.74 214.84 31.93 213.86 32.15 C 215.60 32.28 217.34 32.39 219.09 32.51 C 219.58 33.18 220.55 34.53 221.04 35.20 C 219.00 36.24 216.98 37.34 215.04 38.56 C 213.47 38.25 211.88 38.43 210.32 38.66 C 210.36 37.99 210.43 36.66 210.47 35.99 C 211.00 36.22 212.07 36.67 212.60 36.90 L 212.03 34.34 C 211.62 34.52 210.81 34.88 210.41 35.05 C 210.48 34.35 210.62 32.93 210.70 32.22 L 211.47 32.58 C 211.46 31.83 211.44 30.35 211.43 29.61 C 212.42 29.35 213.41 29.06 214.40 28.76 Z" />
<path fill="#ffffff" opacity="1.00" d=" M 314.56 32.97 C 315.62 32.20 316.71 31.46 317.76 30.67 C 318.85 31.29 319.95 31.90 321.05 32.51 C 322.26 32.38 325.57 32.80 324.66 34.53 C 324.07 36.63 322.94 35.29 321.99 34.23 C 321.26 34.49 320.53 34.74 319.81 35.00 C 318.06 34.31 316.32 33.62 314.56 32.97 Z" />
<path fill="#ffffff" opacity="1.00" d=" M 312.25 35.01 C 314.23 32.34 319.73 34.57 318.64 38.08 C 316.52 37.01 314.41 35.95 312.25 35.01 Z" />
<path fill="#ffffff" opacity="1.00" d=" M 310.02 34.79 C 311.85 35.51 313.60 36.39 315.42 37.13 C 315.08 38.65 315.33 39.98 316.99 40.56 L 316.65 40.70 C 318.94 41.96 320.98 43.72 322.37 45.95 C 320.18 44.95 318.55 43.15 316.70 41.68 C 316.69 42.53 316.65 44.22 316.64 45.06 C 317.20 45.27 318.33 45.69 318.90 45.90 C 319.20 48.63 322.02 49.63 323.46 51.65 C 322.36 51.13 321.36 50.45 320.47 49.62 C 318.99 48.81 317.59 47.86 316.26 46.83 C 313.28 44.68 309.87 43.20 306.47 41.89 C 311.38 46.37 317.77 48.94 322.31 53.88 C 323.88 54.94 323.04 57.03 323.36 58.61 C 322.15 57.86 320.93 57.13 319.72 56.39 C 320.54 56.38 322.17 56.37 322.99 56.36 C 321.73 55.16 320.84 53.16 318.78 53.34 C 319.15 50.78 316.48 50.23 314.88 49.05 C 312.31 47.15 309.04 46.71 306.10 45.72 C 308.11 47.77 310.52 49.36 312.74 51.17 L 312.54 51.76 L 312.04 52.31 C 311.95 52.85 311.77 53.93 311.68 54.47 C 312.87 54.23 314.01 53.82 315.10 53.25 C 315.92 54.09 316.72 54.94 317.49 55.83 L 315.88 54.63 C 315.01 55.57 313.92 56.50 314.08 58.00 C 311.31 55.76 308.55 53.50 305.52 51.62 C 304.77 50.98 302.59 49.96 302.21 51.44 C 306.04 52.71 308.90 55.50 311.44 58.52 C 307.87 56.49 304.16 54.77 300.48 52.99 C 300.36 52.41 300.12 51.24 300.00 50.66 C 300.96 50.12 301.92 49.56 302.82 48.92 C 302.00 48.67 300.36 48.16 299.54 47.91 C 299.99 47.84 300.88 47.70 301.33 47.63 C 301.69 45.90 302.97 44.39 304.86 44.47 L 304.92 44.45 C 304.37 43.95 303.26 42.94 302.70 42.44 L 306.84 44.05 C 306.32 43.41 305.27 42.13 304.75 41.49 C 307.76 42.46 307.74 37.78 310.72 38.37 L 309.83 36.98 L 313.43 38.25 C 312.58 37.39 310.87 35.66 310.02 34.79 M 309.33 39.90 C 311.47 41.78 314.26 42.73 316.27 44.81 C 316.26 43.59 316.29 42.36 316.36 41.13 C 313.83 42.32 311.63 40.61 309.33 39.90 M 304.07 46.15 C 305.91 48.29 308.15 50.05 310.38 51.78 L 310.37 50.93 C 309.28 48.42 306.17 47.60 304.07 46.15 Z" />
<path fill="#ffffff" opacity="1.00" d=" M 221.37 36.15 C 222.40 36.50 223.43 36.86 224.47 37.23 C 221.36 39.21 218.19 41.10 215.03 42.99 C 215.20 43.94 215.42 44.87 215.58 45.83 C 214.71 46.60 213.56 46.45 212.50 46.51 C 213.83 45.11 213.23 43.25 212.28 41.88 C 211.60 42.61 210.25 44.08 209.57 44.81 C 209.20 44.69 208.46 44.45 208.09 44.33 C 208.58 43.94 209.56 43.16 210.05 42.77 C 210.39 41.84 210.76 40.91 211.16 40.00 C 212.08 40.86 213.03 41.70 213.98 42.52 C 215.28 39.25 218.45 37.68 221.37 36.15 Z" />
<path fill="#ffffff" opacity="1.00" d=" M 209.36 39.20 C 210.06 39.82 210.06 39.82 209.36 39.20 Z" />
<path fill="#ffffff" opacity="1.00" d=" M 215.56 45.50 C 218.31 42.57 221.44 39.92 225.28 38.55 L 224.47 40.37 C 225.91 40.84 227.34 41.34 228.77 41.87 C 227.04 43.39 223.94 43.88 223.29 46.33 C 221.09 45.60 219.46 47.38 217.84 48.51 C 217.58 48.45 217.05 48.33 216.79 48.27 C 216.56 49.59 215.47 50.36 214.64 51.27 C 214.22 50.72 213.37 49.63 212.95 49.09 C 214.39 48.28 215.83 47.47 217.29 46.68 C 219.64 47.02 222.99 44.90 222.65 42.34 C 220.28 43.38 217.93 44.46 215.56 45.50 Z" />
<path fill="#ffffff" opacity="1.00" d=" M 319.28 40.43 C 319.28 39.82 319.26 38.59 319.25 37.97 C 320.55 39.15 321.90 40.30 323.19 41.49 C 321.88 41.14 320.58 40.78 319.28 40.43 Z" />
<path fill="#ffffff" opacity="1.00" d=" M 223.29 46.33 C 225.62 44.94 229.24 41.55 231.06 45.44 C 232.56 45.55 233.75 46.17 234.02 47.82 C 234.31 47.69 234.90 47.42 235.19 47.29 C 235.66 48.86 236.24 50.39 236.75 51.96 C 237.18 51.72 238.02 51.24 238.44 51.01 L 237.54 52.66 L 237.85 53.54 C 238.63 53.51 240.17 53.44 240.95 53.41 C 240.28 54.03 238.94 55.26 238.27 55.88 C 239.20 55.67 241.05 55.24 241.97 55.02 L 241.19 57.59 C 241.86 57.22 243.20 56.48 243.87 56.10 C 243.79 56.68 243.62 57.84 243.54 58.42 C 243.90 58.42 244.62 58.41 244.98 58.41 C 245.28 59.12 245.89 60.53 246.19 61.24 C 245.52 61.35 244.20 61.58 243.53 61.69 L 243.98 63.20 C 245.58 62.71 246.80 61.59 248.00 60.49 L 247.04 62.91 C 247.78 62.71 249.28 62.31 250.02 62.11 C 245.68 65.46 240.69 67.74 236.10 70.71 C 234.22 70.38 232.15 70.84 230.47 69.72 L 232.59 69.75 L 232.50 67.55 C 231.72 67.49 230.15 67.37 229.37 67.30 L 229.97 68.99 C 228.67 68.13 227.60 65.81 225.68 67.67 C 225.71 66.49 225.72 65.31 225.69 64.13 C 226.22 63.79 227.29 63.11 227.83 62.77 C 228.80 62.31 229.78 61.86 230.76 61.41 L 230.50 60.14 C 231.09 60.36 232.27 60.81 232.86 61.04 L 232.08 58.95 C 232.78 59.19 234.17 59.66 234.87 59.90 C 234.67 59.35 234.26 58.25 234.05 57.70 C 234.51 57.67 235.42 57.60 235.87 57.57 C 235.79 57.16 235.62 56.33 235.54 55.92 C 234.73 56.67 233.87 57.38 233.29 58.33 C 232.19 58.37 231.15 58.61 230.16 59.06 C 228.26 60.71 226.17 62.10 224.18 63.61 C 224.30 63.86 224.55 64.37 224.68 64.62 C 223.20 64.54 221.72 64.47 220.25 64.41 L 220.52 65.44 C 219.83 65.85 219.14 66.26 218.46 66.67 C 219.01 65.45 219.55 64.22 220.09 62.99 C 215.92 62.22 220.85 60.72 221.88 59.65 C 221.63 59.25 221.12 58.45 220.87 58.06 L 223.26 58.95 L 222.01 57.07 C 223.59 57.43 225.23 57.68 226.50 58.78 C 226.46 58.15 226.38 56.89 226.34 56.26 C 226.80 56.39 227.73 56.64 228.19 56.76 C 228.04 55.20 228.68 53.86 229.86 52.85 C 228.83 53.22 226.77 53.97 225.74 54.34 C 227.14 52.87 228.73 51.55 230.14 50.07 C 226.22 50.93 225.34 56.55 220.98 55.83 L 220.69 55.39 C 221.16 54.91 222.09 53.93 222.56 53.44 C 222.47 53.11 222.29 52.44 222.20 52.10 C 222.57 51.67 223.31 50.79 223.68 50.36 L 224.39 51.02 C 224.06 49.52 224.70 48.23 225.51 47.04 C 221.38 48.24 219.32 52.42 215.32 53.79 C 216.59 51.91 218.43 50.57 220.00 48.97 C 221.09 48.08 222.19 47.21 223.29 46.33 M 229.29 66.50 C 230.45 66.54 231.62 66.59 232.78 66.66 C 232.60 66.12 232.23 65.04 232.04 64.50 L 234.52 64.42 L 233.04 63.04 C 231.89 63.53 228.65 67.81 229.28 64.59 L 231.18 62.45 C 228.45 62.47 227.21 64.70 229.29 66.50 Z" />
<path fill="#ffffff" opacity="1.00" d=" M 199.83 48.79 C 199.28 48.27 199.28 48.27 199.83 48.79 Z" />
<path fill="#ffffff" opacity="1.00" d=" M 199.83 48.79 C 201.97 48.66 203.13 52.13 204.64 53.63 C 204.17 54.99 203.65 56.33 203.20 57.69 C 204.29 59.22 205.57 60.63 206.30 62.38 C 204.04 60.39 202.32 57.90 200.16 55.81 C 200.68 57.68 201.34 59.51 201.83 61.40 C 200.31 60.79 199.05 59.73 197.77 58.74 C 198.14 58.10 198.52 57.45 198.90 56.80 C 198.54 56.09 197.83 54.67 197.47 53.96 C 198.70 53.48 199.92 52.99 201.14 52.49 C 201.61 52.84 202.54 53.54 203.00 53.89 C 203.11 52.72 202.74 51.66 201.90 50.70 L 200.04 52.16 L 200.37 50.04 L 199.85 49.45 L 199.83 48.79 Z" />
<path fill="#ffffff" opacity="1.00" d=" M 219.89 52.51 C 220.32 52.59 221.17 52.75 221.59 52.84 C 221.08 54.42 219.12 55.18 217.67 55.71 C 216.36 54.97 218.81 53.71 219.22 53.01 L 219.89 52.51 Z" />
<path fill="#ffffff" opacity="1.00" d=" M 296.79 53.16 C 300.59 53.01 303.67 55.49 306.85 57.21 C 306.76 58.07 306.60 59.79 306.52 60.65 C 304.13 60.66 301.49 59.82 300.40 57.51 C 299.54 55.65 297.13 56.69 295.57 56.38 C 295.87 55.57 296.48 53.96 296.79 53.16 Z" />
<path fill="#ffffff" opacity="1.00" d=" M 217.37 58.48 C 216.98 56.80 219.51 55.41 220.98 55.83 L 221.19 56.38 C 220.67 57.61 218.76 59.10 217.37 58.48 Z" />
<path fill="#ffffff" opacity="1.00" d=" M 293.42 57.49 C 295.24 57.47 297.07 57.36 298.89 57.23 C 300.44 57.76 300.57 59.65 301.38 60.85 C 299.29 60.17 297.20 59.64 295.06 59.20 C 295.65 59.43 296.83 59.90 297.42 60.13 C 299.02 60.93 300.69 61.56 302.39 62.13 C 301.60 62.45 300.01 63.08 299.22 63.40 L 299.30 63.72 C 300.75 63.53 302.21 63.34 303.67 63.17 L 303.24 64.61 C 306.05 62.49 306.08 66.99 307.63 68.14 L 307.24 69.22 C 306.32 68.85 304.49 68.13 303.57 67.77 L 303.37 70.22 C 307.14 70.89 311.55 72.77 313.03 76.63 C 310.27 74.80 307.38 73.17 304.74 71.16 C 304.57 71.63 304.23 72.56 304.06 73.03 C 302.08 72.02 300.25 70.75 298.39 69.54 C 296.04 70.23 293.94 68.99 291.78 68.28 C 293.27 69.27 294.92 70.00 296.57 70.71 L 296.83 72.61 C 294.86 71.78 294.09 72.54 294.54 74.90 C 297.87 75.78 300.64 77.98 303.44 79.89 C 300.53 79.64 297.90 78.40 295.28 77.22 C 295.23 77.53 295.13 78.13 295.09 78.43 L 298.35 79.05 C 296.84 79.83 295.23 80.39 293.65 80.98 C 295.46 81.36 297.31 81.54 299.15 81.77 L 296.94 81.06 C 297.62 80.51 298.30 79.95 298.98 79.40 C 300.66 80.61 302.57 81.02 304.72 80.63 C 303.74 81.35 301.80 82.80 300.82 83.53 C 301.82 83.82 303.82 84.39 304.82 84.68 C 304.89 84.93 305.04 85.43 305.12 85.67 C 302.91 85.47 300.70 85.37 298.50 85.33 L 298.75 86.36 C 294.72 86.44 291.12 88.57 287.30 89.38 L 286.26 88.24 C 286.49 89.01 286.71 89.79 286.92 90.56 C 290.13 88.98 293.60 88.06 297.04 87.10 C 298.39 88.61 300.32 89.59 301.17 91.52 C 296.44 89.61 300.09 93.05 300.74 94.34 C 304.81 94.50 308.64 92.69 312.44 91.44 C 312.49 91.69 312.60 92.19 312.66 92.44 C 311.96 92.52 310.55 92.68 309.85 92.76 C 309.56 93.20 308.97 94.07 308.67 94.51 C 307.23 94.45 305.79 94.38 304.35 94.30 L 304.65 96.86 C 305.98 96.68 307.30 96.50 308.63 96.32 L 308.42 97.28 C 309.62 97.57 310.84 97.89 312.04 98.24 C 310.93 98.70 308.71 99.63 307.60 100.09 C 308.67 100.31 310.80 100.76 311.86 100.98 C 310.36 102.06 307.34 104.21 305.83 105.28 C 308.92 104.31 311.96 103.09 315.08 102.16 C 315.83 103.87 315.64 105.73 315.51 107.54 C 315.86 107.59 316.57 107.68 316.93 107.72 C 316.00 108.23 314.14 109.24 313.21 109.74 C 313.80 108.88 314.42 108.04 315.07 107.23 C 314.74 107.01 314.08 106.58 313.75 106.36 C 313.18 107.96 310.68 109.14 311.99 111.06 L 309.99 109.66 C 312.33 110.66 310.56 111.66 309.86 112.50 C 310.26 112.60 311.07 112.80 311.47 112.90 C 312.69 113.29 313.95 113.61 315.22 113.84 C 314.65 114.53 313.51 115.90 312.93 116.58 C 314.18 115.91 315.43 115.22 316.68 114.55 L 316.50 113.55 C 317.48 113.43 318.46 113.31 319.44 113.20 C 319.40 113.90 319.34 115.30 319.30 116.00 C 320.63 115.42 321.98 114.87 323.34 114.35 C 321.43 115.94 319.33 117.31 317.42 118.89 C 319.62 118.57 321.86 117.47 324.16 117.79 L 322.48 118.41 C 322.42 119.32 322.31 121.15 322.26 122.06 C 324.01 122.78 325.79 123.42 327.53 124.18 C 326.26 124.27 323.71 124.46 322.43 124.55 C 323.51 125.42 324.63 126.26 325.76 127.07 C 326.97 127.79 328.12 128.59 329.22 129.47 C 328.03 129.02 326.86 128.53 325.70 128.02 C 325.18 128.27 324.14 128.77 323.61 129.02 C 323.68 128.61 323.83 127.80 323.90 127.39 L 321.47 128.09 C 325.12 127.30 322.10 125.83 321.03 125.17 C 319.44 124.08 316.91 123.93 316.22 121.89 L 317.72 120.86 C 317.10 120.08 316.49 119.30 315.87 118.53 C 314.11 118.37 312.33 118.31 310.56 118.32 C 310.36 118.72 309.97 119.53 309.77 119.93 L 309.75 118.79 C 307.86 118.87 306.20 118.00 304.56 117.23 L 304.69 115.65 C 305.29 115.68 306.49 115.75 307.10 115.78 C 305.89 115.30 304.18 115.34 304.10 113.64 C 303.73 113.33 303.00 112.71 302.64 112.40 C 302.36 112.63 301.81 113.08 301.54 113.31 C 300.56 112.97 299.56 112.84 298.53 112.92 C 297.47 113.33 296.71 114.15 295.98 114.97 C 293.66 116.01 292.43 113.12 290.32 113.74 C 286.23 114.47 281.96 114.29 278.21 116.31 L 278.29 116.48 C 282.09 115.25 286.13 115.07 290.02 114.19 C 291.51 116.46 294.57 114.84 296.79 115.33 C 297.12 115.04 297.76 114.45 298.08 114.16 C 299.98 114.26 301.89 114.44 303.78 114.70 C 304.21 117.05 301.98 118.68 302.53 120.94 L 303.95 119.62 C 308.64 121.98 313.69 123.57 318.65 125.27 C 319.15 125.50 320.16 125.97 320.66 126.20 C 319.74 128.54 322.69 129.53 323.81 131.09 C 329.35 130.19 333.61 135.24 334.82 140.11 C 332.58 138.29 331.91 135.14 329.30 133.69 C 327.49 131.59 324.62 132.28 322.18 131.95 C 320.34 129.68 317.12 130.53 314.78 129.16 C 312.73 129.47 310.66 129.66 308.59 129.87 C 307.03 130.51 306.67 128.75 307.99 128.13 C 309.97 127.75 311.97 127.41 313.97 127.05 C 313.21 126.78 311.69 126.25 310.93 125.98 C 310.73 125.61 310.32 124.86 310.12 124.49 C 309.60 124.75 308.57 125.26 308.05 125.52 L 308.43 123.49 C 304.64 123.49 300.79 123.95 297.08 122.97 C 298.86 123.76 300.40 125.72 299.83 127.75 C 298.67 129.06 296.81 129.33 295.38 130.26 C 295.32 132.79 296.76 135.62 294.97 137.85 C 293.42 139.99 293.58 142.66 294.20 145.09 C 294.40 143.35 294.50 141.60 294.59 139.86 C 295.38 138.93 295.57 137.24 296.87 136.89 C 298.29 138.36 301.13 139.22 300.22 141.93 C 299.64 144.85 303.45 145.73 305.49 146.65 C 305.91 147.23 306.34 147.80 306.78 148.36 C 308.35 146.58 309.64 149.07 310.92 149.72 C 312.91 149.00 314.93 148.35 317.01 147.91 C 316.62 148.25 315.85 148.91 315.46 149.25 C 314.18 150.55 312.49 151.28 310.86 152.02 C 310.65 152.50 310.24 153.45 310.04 153.93 C 309.16 152.64 308.37 151.30 307.62 149.95 C 305.32 148.41 303.10 146.74 300.47 145.81 C 300.25 148.84 304.24 149.58 304.38 152.22 C 304.40 153.15 304.43 155.00 304.45 155.93 C 301.90 156.32 301.55 153.64 300.74 151.97 C 300.62 152.55 300.38 153.72 300.26 154.31 L 298.02 157.21 C 299.74 154.07 298.35 151.21 296.62 148.74 C 297.08 150.51 297.48 152.29 298.06 154.03 C 297.81 154.51 297.57 154.98 297.32 155.45 L 295.71 153.35 C 296.10 154.87 296.79 156.29 297.44 157.71 C 297.71 158.21 298.25 159.22 298.52 159.72 L 299.81 159.20 L 299.20 160.97 C 299.64 160.74 300.50 160.28 300.93 160.05 C 301.81 161.49 302.71 162.92 303.55 164.40 C 304.13 164.56 305.31 164.88 305.90 165.04 C 305.86 165.46 305.78 166.29 305.74 166.71 C 304.65 165.96 303.50 165.33 302.37 164.67 C 302.32 165.61 302.24 167.50 302.20 168.44 C 301.58 166.49 300.31 163.74 298.25 166.07 L 300.35 166.28 L 300.14 167.76 C 299.25 167.75 297.47 167.75 296.58 167.74 C 296.99 166.99 297.82 165.47 298.23 164.71 C 297.61 165.38 296.37 166.72 295.75 167.39 C 295.68 166.63 295.53 165.10 295.46 164.34 C 295.05 165.46 294.64 166.58 294.24 167.71 C 294.46 168.47 294.91 170.00 295.13 170.76 C 293.56 169.40 292.63 167.54 291.71 165.72 C 290.57 165.33 289.45 164.93 288.32 164.52 C 288.42 165.48 288.61 167.39 288.70 168.35 C 289.78 168.54 290.86 168.76 291.93 169.00 C 291.48 169.66 291.01 170.30 290.54 170.93 C 289.54 169.99 288.56 169.04 287.53 168.15 C 287.88 169.24 288.60 171.40 288.95 172.49 C 287.96 171.32 287.10 170.05 286.23 168.80 C 286.87 168.31 287.53 167.83 288.16 167.32 C 287.05 165.58 286.28 163.68 285.35 161.85 C 286.39 161.06 287.64 160.51 288.98 160.65 C 290.69 161.20 290.27 163.28 290.76 164.60 C 291.63 164.50 293.39 164.29 294.27 164.19 L 292.90 166.24 L 293.89 166.74 C 293.81 165.60 296.70 162.56 293.18 163.44 C 293.31 162.48 293.57 160.56 293.70 159.60 C 293.15 160.48 292.61 161.37 292.08 162.26 C 291.28 161.68 290.60 155.18 289.63 159.92 C 288.65 159.62 287.70 159.28 286.76 158.88 C 286.12 159.70 285.47 160.52 284.82 161.33 L 284.24 157.64 C 281.86 160.56 285.55 163.66 286.17 166.58 C 284.98 165.79 283.87 164.92 282.73 164.09 C 282.13 161.18 281.46 158.28 281.23 155.32 C 282.16 155.87 283.10 156.42 284.03 156.98 C 284.16 154.00 284.74 150.71 283.02 148.04 C 282.54 150.57 282.72 153.14 282.87 155.68 C 280.40 152.73 282.43 148.64 281.46 145.19 C 280.41 148.82 280.77 152.65 280.52 156.38 C 278.86 154.40 279.58 151.97 280.04 149.73 C 279.05 150.75 278.14 151.85 277.22 152.95 C 278.33 156.90 281.07 160.36 281.15 164.57 C 280.71 164.05 279.84 162.99 279.41 162.46 C 278.37 161.47 277.07 161.09 275.68 161.46 C 274.83 159.55 273.94 157.66 273.31 155.67 C 273.23 157.16 273.15 158.64 273.09 160.13 C 273.37 161.48 273.59 162.85 273.79 164.22 C 274.66 166.08 275.42 168.00 276.00 169.98 C 274.60 171.36 274.50 169.44 274.23 168.33 C 273.86 168.43 273.13 168.62 272.77 168.71 C 272.14 166.62 271.37 164.57 270.44 162.59 C 270.31 165.22 270.89 167.78 271.62 170.30 C 270.19 169.78 268.78 169.23 267.37 168.70 C 266.88 165.91 266.95 163.00 265.89 160.34 C 265.62 161.38 265.08 163.45 264.81 164.49 C 262.85 161.97 267.18 159.54 264.97 157.03 C 264.82 160.12 263.26 162.80 262.16 165.61 L 263.54 165.64 C 263.48 166.21 263.36 167.36 263.30 167.93 C 263.92 167.80 265.17 167.54 265.79 167.41 C 265.86 167.95 266.00 169.04 266.07 169.59 C 265.06 168.68 263.86 168.18 262.48 168.11 L 262.36 170.06 C 261.21 168.99 258.25 167.54 261.51 167.19 C 261.21 165.19 262.73 162.01 260.25 161.02 C 260.37 160.66 260.61 159.94 260.73 159.58 C 260.08 159.50 258.77 159.34 258.12 159.26 C 257.89 160.90 256.93 161.72 255.23 161.74 C 255.36 162.76 255.61 164.80 255.74 165.82 C 256.83 167.30 257.55 164.31 258.24 163.69 C 260.08 166.90 255.88 168.33 253.34 167.54 C 253.50 168.06 253.83 169.12 253.99 169.64 C 253.23 169.65 251.72 169.66 250.97 169.67 L 251.70 168.16 C 251.38 168.18 250.73 168.22 250.41 168.24 C 250.50 169.03 250.70 170.61 250.80 171.40 C 248.27 171.02 250.14 173.19 250.05 174.14 C 249.67 175.08 249.30 176.02 248.89 176.95 C 248.89 174.81 247.94 172.96 247.29 171.00 C 247.90 167.66 248.48 164.31 248.66 160.91 C 247.55 164.69 247.67 168.85 245.41 172.23 C 245.17 172.23 244.69 172.22 244.45 172.21 C 244.67 171.79 245.10 170.95 245.32 170.52 C 243.90 168.63 244.38 166.23 244.27 164.05 L 245.63 164.65 C 245.24 162.87 245.88 161.23 246.73 159.70 C 244.80 160.63 244.24 158.23 243.69 157.03 C 245.66 153.21 247.69 149.42 249.90 145.73 L 247.72 145.15 C 249.49 144.50 251.79 142.17 253.04 144.86 C 252.74 144.22 252.16 142.94 251.87 142.29 L 253.84 142.74 C 253.97 142.30 254.23 141.43 254.36 140.99 C 255.14 141.54 255.93 142.08 256.71 142.63 C 256.33 143.45 255.56 145.10 255.18 145.92 C 258.05 145.95 258.24 139.62 260.91 142.11 C 261.81 143.69 260.63 145.25 260.27 146.80 C 260.51 146.80 260.98 146.80 261.22 146.80 C 261.91 144.11 262.38 141.20 264.23 139.01 C 263.84 138.44 263.44 137.86 263.04 137.29 C 262.72 138.24 262.07 140.13 261.75 141.07 C 259.84 139.81 259.88 136.27 259.77 134.02 C 259.43 132.40 263.99 132.06 261.71 131.24 C 259.96 130.85 258.39 132.41 256.74 132.68 C 256.74 131.69 256.74 130.70 256.75 129.71 C 258.29 129.71 259.84 129.65 261.39 129.55 C 262.20 129.67 263.02 129.76 263.86 129.82 C 265.24 128.09 267.47 127.58 269.38 126.65 C 273.34 126.42 276.82 124.26 280.71 123.63 C 278.33 125.47 278.22 128.33 277.62 130.99 L 276.77 128.93 C 276.77 128.48 276.79 127.58 276.79 127.13 C 275.92 128.20 275.05 129.26 274.20 130.34 C 272.27 130.43 270.23 130.36 268.66 131.68 C 267.36 131.07 266.06 130.48 264.72 129.97 C 264.27 130.39 263.35 131.23 262.89 131.65 C 263.87 131.52 264.86 131.40 265.85 131.30 C 265.40 132.46 264.89 133.61 264.37 134.75 C 263.52 134.66 261.83 134.47 260.99 134.38 C 260.58 136.16 260.51 137.97 261.15 139.72 C 261.34 138.70 261.72 136.65 261.91 135.63 C 262.76 136.36 263.63 137.09 264.51 137.81 C 265.35 136.20 266.21 134.61 267.10 133.04 C 268.04 133.31 268.99 133.59 269.93 133.86 C 271.03 132.46 272.02 130.67 274.14 131.12 C 273.64 132.06 272.65 133.94 272.15 134.88 C 271.62 134.71 270.56 134.38 270.03 134.21 L 269.30 135.14 C 270.45 135.34 271.61 135.55 272.76 135.76 C 273.61 134.26 274.46 132.75 275.32 131.26 C 275.68 130.68 276.40 129.51 276.77 128.93 C 277.02 130.49 276.72 131.92 275.88 133.25 C 276.66 133.87 277.01 134.65 276.93 135.62 C 276.67 136.26 276.14 137.55 275.88 138.19 C 276.84 137.31 277.51 136.20 278.09 135.04 C 281.01 131.20 284.18 127.63 287.20 123.83 L 283.36 125.15 C 283.48 124.43 283.71 122.99 283.83 122.27 L 282.35 123.44 C 281.97 123.12 281.20 122.47 280.81 122.14 C 277.41 123.41 273.78 123.74 270.33 124.83 L 270.48 123.39 C 267.67 124.69 264.97 126.30 261.91 126.92 C 262.68 126.14 263.48 125.40 264.35 124.74 C 268.97 121.83 275.20 122.22 279.14 118.30 C 278.33 118.45 276.70 118.75 275.89 118.89 L 276.86 117.59 C 274.53 115.62 273.08 112.87 271.56 110.28 L 270.41 111.16 C 271.30 109.41 270.08 107.98 269.44 106.51 C 269.43 107.46 269.39 109.36 269.38 110.31 L 268.46 108.99 C 268.41 107.99 268.32 106.00 268.28 105.00 C 265.32 107.90 269.23 110.44 268.87 113.61 C 268.25 114.59 267.42 115.49 267.24 116.69 C 268.44 115.80 269.49 114.76 270.57 113.73 C 273.29 115.82 269.77 117.59 270.11 119.81 C 271.67 118.61 272.31 116.40 274.29 115.65 C 273.35 117.81 271.89 119.68 270.85 121.79 C 269.20 120.56 267.44 119.37 266.25 117.64 C 265.30 116.61 264.88 114.81 263.10 114.90 C 263.28 114.62 263.63 114.05 263.81 113.77 C 262.46 112.88 261.19 111.88 259.90 110.93 C 261.10 112.72 262.37 114.47 263.66 116.20 C 263.24 116.42 262.39 116.87 261.96 117.10 L 261.77 115.14 C 261.43 115.57 260.74 116.45 260.40 116.88 L 260.30 115.92 C 256.06 114.43 254.00 109.17 249.03 109.01 C 250.52 110.29 252.18 111.41 253.85 112.45 L 252.73 114.02 L 254.73 113.15 C 255.74 115.07 256.85 116.95 257.66 118.97 C 256.61 118.42 255.59 117.82 254.59 117.20 C 254.32 117.23 253.78 117.29 253.51 117.32 C 252.21 116.93 250.88 116.66 249.55 116.42 C 245.71 117.10 242.70 120.11 238.67 119.97 L 238.75 120.68 C 236.53 120.64 234.31 120.58 232.10 120.49 C 232.97 120.00 234.70 119.02 235.57 118.52 L 235.51 118.22 C 235.40 117.60 235.32 116.98 235.29 116.36 C 236.25 115.81 238.16 114.73 239.12 114.19 C 239.22 114.56 239.42 115.31 239.52 115.68 C 239.72 114.95 239.94 114.22 240.18 113.49 C 238.90 113.71 237.62 113.45 236.36 113.34 L 236.43 113.62 C 236.80 113.86 237.55 114.34 237.93 114.59 C 236.41 115.94 234.92 115.94 233.47 114.59 C 233.06 114.33 232.24 113.81 231.83 113.55 C 228.00 113.18 224.96 116.19 221.16 116.18 L 223.03 113.44 C 220.39 113.09 220.34 115.38 219.72 117.09 C 216.18 118.79 212.25 119.62 208.56 120.98 C 210.38 122.73 209.67 124.79 207.28 125.37 C 205.66 125.57 204.04 125.87 202.49 126.39 C 203.56 126.45 205.70 126.55 206.76 126.60 L 206.68 127.60 C 206.00 128.51 202.41 128.03 203.21 129.85 C 205.54 130.25 207.66 128.65 209.62 127.60 C 212.84 126.92 215.80 124.82 219.20 125.27 C 219.34 125.64 219.62 126.40 219.76 126.78 C 217.92 128.17 215.68 128.95 213.79 130.28 C 212.12 130.88 210.30 131.20 208.89 132.36 C 208.39 131.93 207.89 131.50 207.40 131.07 C 206.53 131.43 205.67 131.81 204.80 132.18 C 206.35 132.96 210.06 131.86 208.65 135.37 C 208.06 135.33 206.87 135.24 206.28 135.20 L 206.58 136.66 C 206.00 136.56 204.83 136.36 204.25 136.25 C 204.37 136.99 204.62 138.45 204.74 139.18 C 205.40 138.58 206.06 137.98 206.72 137.38 L 207.76 137.83 L 207.48 136.84 C 208.72 136.56 209.44 135.80 209.63 134.55 C 209.99 132.94 212.00 132.76 213.24 132.11 C 215.66 130.33 218.16 128.62 220.92 127.38 L 221.25 128.03 C 220.89 128.53 220.17 129.52 219.81 130.02 C 219.03 130.75 218.25 131.47 217.46 132.18 C 217.36 132.97 217.26 133.75 217.16 134.54 L 216.36 131.67 C 216.08 132.32 215.53 133.62 215.25 134.28 C 213.80 134.75 212.63 135.59 211.74 136.79 L 214.83 135.42 C 214.72 135.82 214.51 136.61 214.41 137.01 C 210.66 139.37 207.14 142.28 202.90 143.71 C 201.98 143.59 201.07 143.45 200.17 143.30 C 201.36 145.61 198.07 146.30 196.67 147.24 C 197.31 146.18 198.38 145.40 198.84 144.24 C 197.23 144.80 195.74 145.69 194.02 145.91 C 193.30 146.69 192.52 147.41 191.74 148.12 L 191.88 146.41 C 191.06 146.47 189.42 146.61 188.61 146.67 C 189.89 145.87 191.31 145.41 192.84 145.43 C 192.72 144.75 192.47 143.39 192.34 142.71 C 191.23 143.10 190.10 143.41 188.95 143.65 C 189.92 141.73 192.26 142.62 193.95 142.45 C 194.34 141.41 194.89 140.47 195.61 139.63 C 195.86 138.86 196.38 137.31 196.64 136.54 C 196.00 136.49 194.73 136.38 194.10 136.33 C 195.21 135.88 197.44 134.99 198.55 134.54 L 195.11 134.35 L 195.58 132.93 C 196.41 133.15 198.06 133.59 198.89 133.81 L 198.34 131.96 C 198.93 132.15 200.11 132.53 200.70 132.72 L 200.50 131.59 C 200.94 131.37 201.82 130.94 202.25 130.72 C 202.10 130.53 201.80 130.16 201.64 129.97 C 198.67 130.93 195.97 132.54 193.16 133.86 C 193.38 134.54 193.60 135.22 193.82 135.90 L 192.07 135.33 C 191.95 136.86 192.62 137.74 194.09 137.99 C 193.75 138.13 193.07 138.42 192.73 138.56 C 192.79 141.12 190.33 140.38 188.64 140.44 C 188.42 141.02 187.97 142.19 187.75 142.77 L 187.40 143.24 C 187.39 143.68 187.37 144.54 187.36 144.98 C 186.13 145.89 184.17 146.27 183.90 148.04 C 183.69 150.68 181.04 151.79 179.13 153.04 C 179.68 151.93 180.25 150.83 180.86 149.75 C 178.44 151.20 176.21 152.94 174.22 154.94 C 174.36 154.27 174.64 152.95 174.78 152.28 C 173.32 153.58 171.72 154.70 170.06 155.73 C 170.52 154.52 171.46 153.43 171.41 152.07 C 171.20 148.50 175.79 146.87 175.58 143.29 C 177.91 142.06 180.48 141.15 182.15 138.91 C 180.54 139.41 177.34 140.42 175.73 140.92 C 176.73 140.33 177.74 139.79 178.77 139.27 C 178.64 138.77 178.37 137.76 178.24 137.26 C 178.81 137.33 179.95 137.47 180.52 137.54 L 180.37 136.23 L 182.79 136.35 C 182.22 135.67 181.66 135.00 181.09 134.33 C 180.35 134.84 178.89 135.86 178.16 136.37 L 179.74 134.81 C 178.91 134.29 178.09 133.77 177.27 133.25 C 178.10 132.53 179.74 132.42 179.90 131.15 C 178.23 131.03 176.61 131.67 174.96 131.81 C 181.32 128.53 188.39 126.97 195.07 124.48 C 195.57 124.96 196.08 125.44 196.58 125.92 C 192.88 127.18 188.74 127.52 185.47 129.80 C 189.33 129.43 192.75 127.45 196.39 126.29 L 197.10 125.94 C 197.70 125.82 198.90 125.57 199.50 125.45 C 199.58 124.61 199.65 123.78 199.72 122.94 C 202.12 122.77 204.40 121.98 206.71 121.39 C 206.49 120.98 206.06 120.15 205.85 119.74 L 203.68 121.11 C 203.44 120.15 203.32 119.18 203.31 118.21 C 204.85 117.21 206.64 116.65 208.32 115.92 C 208.39 116.42 208.53 117.42 208.60 117.92 L 209.19 118.07 C 209.21 117.62 209.24 116.72 209.26 116.26 C 209.86 116.36 211.07 116.54 211.68 116.64 C 211.70 116.36 211.75 115.81 211.77 115.54 C 211.12 115.71 209.84 116.04 209.19 116.21 L 209.13 113.63 C 211.28 113.52 213.41 113.11 215.46 112.47 C 213.59 112.17 209.84 111.56 207.96 111.25 C 208.19 112.00 208.64 113.49 208.87 114.24 C 205.83 114.87 202.48 117.91 199.55 115.68 C 197.93 115.11 196.20 114.94 194.54 114.55 C 198.98 113.66 203.12 111.15 207.78 112.33 L 207.89 110.53 C 206.31 110.45 204.47 110.88 203.33 109.43 L 205.91 109.81 C 205.68 109.21 205.23 108.00 205.00 107.40 C 205.67 107.55 207.00 107.85 207.66 108.00 C 207.75 107.28 207.92 105.83 208.00 105.11 L 210.11 105.40 C 209.83 104.77 209.28 103.50 209.00 102.87 C 211.30 103.21 213.61 103.56 215.92 103.88 L 215.90 103.41 C 214.41 102.98 212.92 102.53 211.43 102.08 C 211.83 101.50 212.63 100.33 213.02 99.74 C 212.16 99.72 210.43 99.68 209.57 99.66 C 208.22 102.75 205.76 105.20 203.01 107.07 C 201.87 109.02 200.54 110.88 198.56 112.06 L 200.14 108.70 C 199.46 109.08 198.10 109.84 197.42 110.22 C 198.86 108.41 198.79 106.13 198.68 103.95 C 199.38 101.71 196.32 99.97 198.18 97.78 C 198.25 98.61 198.39 100.26 198.46 101.08 C 198.92 101.17 199.83 101.35 200.29 101.44 C 200.94 100.81 202.25 99.54 202.90 98.90 C 202.88 99.72 202.84 101.37 202.82 102.19 C 200.96 102.65 199.78 104.11 198.82 105.66 L 201.58 105.01 L 200.32 106.85 L 200.65 106.87 C 202.79 104.36 205.57 102.52 208.07 100.40 C 206.88 100.47 205.16 101.34 204.66 99.70 C 203.69 97.62 201.20 98.60 200.10 99.97 C 199.48 99.21 198.86 98.45 198.25 97.69 L 199.97 97.27 L 197.58 97.44 C 198.84 96.31 200.08 95.17 201.31 94.02 C 201.28 96.37 202.38 98.23 204.60 99.13 C 204.59 97.05 204.65 94.98 204.86 92.91 L 206.36 93.86 C 206.43 93.27 206.57 92.09 206.64 91.50 C 207.76 91.93 208.89 92.34 210.04 92.69 C 209.23 92.67 207.61 92.65 206.80 92.64 C 207.30 93.17 208.29 94.23 208.78 94.76 C 208.69 95.21 208.51 96.11 208.42 96.56 C 208.96 96.57 210.03 96.59 210.56 96.59 L 210.55 94.60 C 211.46 95.32 212.36 96.05 213.25 96.80 C 216.33 97.66 219.43 98.59 222.65 98.75 C 219.54 97.34 216.14 96.69 213.07 95.17 C 213.90 94.44 215.55 92.98 216.37 92.25 L 216.48 94.32 C 217.14 94.34 218.47 94.36 219.13 94.38 C 219.70 95.91 220.33 95.94 221.03 94.46 C 222.36 94.49 223.71 94.56 225.06 94.58 C 222.86 94.11 220.66 93.71 218.44 93.43 C 218.40 92.53 218.31 90.73 218.27 89.83 C 220.16 90.75 222.12 91.57 223.84 92.80 C 223.50 91.65 223.35 90.49 223.37 89.30 C 221.19 88.60 219.03 87.85 216.81 87.33 C 218.81 85.44 218.74 82.81 218.57 80.31 C 218.39 79.62 218.02 78.24 217.84 77.55 C 219.89 79.61 221.24 76.82 222.75 75.70 C 223.62 74.32 224.56 72.98 225.56 71.68 L 222.34 73.09 C 223.28 72.01 224.29 70.98 225.31 69.97 L 225.03 71.43 C 226.85 70.59 227.13 72.45 227.86 73.40 C 227.39 73.89 226.47 74.88 226.00 75.37 C 226.23 75.72 226.70 76.43 226.94 76.79 L 225.27 76.16 L 225.89 77.43 C 224.38 77.53 222.89 77.76 221.44 78.16 C 222.07 78.32 223.35 78.65 223.98 78.81 C 223.74 79.33 223.25 80.38 223.00 80.90 C 222.01 82.41 221.02 83.92 219.99 85.40 C 220.66 86.29 221.28 87.22 221.91 88.16 C 223.15 88.01 226.09 90.13 225.50 87.33 C 226.67 87.93 227.87 88.48 229.10 88.98 C 226.80 87.44 224.06 83.80 221.25 87.03 C 221.47 86.30 221.89 84.84 222.10 84.11 C 224.14 81.79 225.64 78.88 228.41 77.31 C 227.41 78.79 226.36 80.30 225.82 82.02 C 227.49 81.19 229.61 79.64 229.58 77.62 C 229.29 77.55 228.70 77.39 228.41 77.31 C 229.27 76.57 230.05 75.74 230.87 74.95 C 230.60 75.69 230.07 77.17 229.81 77.91 C 231.68 76.62 233.72 75.07 235.69 77.41 C 234.84 77.43 233.13 77.47 232.28 77.49 C 233.32 78.31 234.35 79.16 235.36 80.03 L 236.15 79.20 C 236.34 80.77 237.78 81.51 238.81 82.48 L 236.20 78.23 C 238.16 79.74 240.21 81.27 242.17 82.82 C 242.45 83.03 243.02 83.47 243.31 83.69 L 243.92 84.04 L 244.21 84.90 L 246.09 83.73 L 245.31 85.90 C 245.91 85.68 247.12 85.25 247.73 85.03 C 247.70 85.63 247.63 86.84 247.60 87.45 L 249.74 87.16 C 247.96 90.17 250.05 89.41 251.68 89.16 C 251.74 90.37 251.72 91.58 251.80 92.79 C 253.10 94.12 254.30 95.56 255.69 96.81 C 254.89 95.38 253.88 94.06 253.00 92.71 C 253.68 92.82 255.05 93.05 255.73 93.17 C 252.58 94.01 252.92 90.80 252.10 89.09 C 250.47 86.89 248.48 85.01 246.64 83.01 L 245.01 84.03 L 245.98 82.32 C 245.49 81.93 244.52 81.15 244.04 80.76 C 243.94 79.44 244.26 78.17 244.98 76.96 C 244.93 79.82 247.29 81.37 249.26 82.84 C 248.63 81.32 247.56 80.09 246.31 79.05 C 245.88 77.91 245.55 76.73 245.16 75.58 C 244.13 76.78 243.23 78.06 242.31 79.34 C 240.86 76.84 238.09 75.61 236.38 73.35 C 237.17 73.68 238.75 74.34 239.54 74.67 L 239.26 72.81 L 237.57 73.49 L 238.03 71.99 L 235.79 71.94 C 237.40 70.88 239.03 69.85 240.54 68.64 C 240.87 68.60 241.52 68.53 241.85 68.49 C 242.94 66.09 245.85 65.55 248.08 64.67 C 249.21 65.54 250.50 65.79 251.94 65.42 C 249.93 66.21 248.22 67.53 246.67 69.01 C 247.86 68.78 250.22 68.31 251.41 68.08 C 252.91 69.45 253.82 72.05 256.27 71.85 C 255.10 70.59 252.78 68.06 251.61 66.80 C 252.78 67.63 255.10 69.28 256.26 70.11 C 255.23 67.94 253.50 66.18 252.67 63.91 C 254.04 65.02 255.28 66.27 256.49 67.57 C 256.64 66.77 256.95 65.16 257.10 64.36 C 257.33 65.24 257.78 66.99 258.01 67.87 C 258.42 67.42 259.25 66.53 259.66 66.08 C 260.86 67.51 262.07 68.94 263.29 70.35 C 262.92 69.15 262.17 66.75 261.80 65.55 C 262.45 66.07 263.76 67.10 264.41 67.62 C 264.48 67.67 264.62 67.77 264.68 67.83 L 264.66 67.57 L 264.41 67.62 C 264.40 66.95 264.38 65.62 264.36 64.95 C 265.33 66.15 266.32 67.38 266.62 68.94 C 266.87 68.16 267.13 67.38 267.40 66.60 C 268.36 68.70 269.29 70.83 270.47 72.82 C 270.25 70.50 269.75 68.23 269.52 65.91 C 270.79 67.55 271.10 69.63 271.60 71.58 C 272.27 71.51 273.61 71.36 274.28 71.29 C 274.36 72.42 274.42 73.55 274.45 74.68 L 275.24 74.46 C 275.47 75.52 275.74 76.57 276.05 77.62 C 276.87 75.51 277.86 73.35 277.43 71.03 L 278.31 71.77 C 278.57 71.22 279.07 70.10 279.32 69.55 C 279.40 70.32 279.57 71.87 279.65 72.65 L 278.32 72.20 C 278.38 73.18 278.51 75.14 278.57 76.12 C 280.23 78.76 280.48 81.95 280.52 84.99 C 280.38 88.93 282.51 92.38 283.76 95.99 C 281.59 88.71 280.48 81.12 280.56 73.51 C 281.08 73.38 282.13 73.14 282.65 73.02 C 282.51 75.16 282.40 77.31 282.21 79.46 C 283.37 79.62 284.54 79.80 285.70 80.02 C 285.19 77.47 287.71 74.65 285.63 72.52 C 285.29 71.50 284.87 70.50 284.40 69.53 C 284.48 70.43 284.65 72.23 284.74 73.12 C 284.12 72.58 282.90 71.50 282.28 70.96 C 284.84 66.93 286.41 61.93 291.04 59.68 C 290.62 62.35 287.94 63.50 286.51 65.53 C 285.71 67.42 287.39 68.91 288.48 70.21 C 287.91 68.98 285.76 67.53 287.34 66.18 C 288.46 63.87 291.52 62.59 291.42 59.81 C 293.85 62.23 293.30 59.16 293.42 57.49 M 238.97 72.16 C 239.90 72.91 240.84 73.66 241.78 74.41 C 242.27 73.74 243.23 72.40 243.72 71.73 C 247.37 74.90 250.89 78.21 254.38 81.55 L 254.99 81.95 L 255.59 82.39 C 256.78 83.94 258.24 85.26 259.95 86.22 C 258.90 85.06 257.72 84.01 256.64 82.88 C 256.43 81.63 256.65 80.25 255.81 79.20 C 255.19 79.48 254.59 79.80 254.01 80.15 C 251.66 76.53 247.72 74.42 244.96 71.16 C 245.02 70.90 245.13 70.38 245.19 70.13 C 247.02 70.64 247.88 72.82 249.54 73.65 C 248.92 72.56 247.67 70.38 247.05 69.29 C 243.97 68.83 241.93 71.75 238.97 72.16 M 252.88 72.30 L 253.05 72.61 C 256.56 76.11 259.42 80.18 262.50 84.05 C 261.97 84.23 260.93 84.59 260.40 84.78 C 260.87 85.27 261.82 86.26 262.29 86.76 C 262.76 86.30 263.21 85.81 263.64 85.30 C 264.43 86.84 265.70 88.02 266.88 89.24 C 267.36 89.26 268.32 89.29 268.79 89.31 C 267.92 87.91 267.07 86.13 265.12 86.15 C 264.74 85.11 264.17 84.19 263.42 83.38 C 261.62 80.77 259.34 78.43 258.10 75.48 L 257.19 76.03 L 257.95 73.72 L 256.11 75.21 C 255.88 74.78 255.42 73.92 255.19 73.49 L 255.98 71.96 C 255.20 72.05 253.65 72.21 252.88 72.30 M 272.53 72.27 C 272.06 73.27 271.72 75.80 273.07 76.07 C 273.63 75.09 273.97 72.48 272.53 72.27 M 293.80 74.17 C 293.82 72.70 291.89 72.07 290.71 71.74 C 289.18 72.73 292.74 74.81 293.80 74.17 M 287.16 76.22 C 287.01 77.76 289.64 78.63 290.87 78.11 C 290.82 76.70 288.37 75.91 287.16 76.22 M 232.29 80.12 L 231.75 80.79 C 229.81 81.90 227.62 82.53 225.39 82.59 C 225.24 83.11 224.92 84.16 224.77 84.69 C 226.69 85.58 228.56 86.58 230.36 87.71 C 230.50 86.58 230.67 85.45 230.87 84.33 C 231.87 84.60 232.87 84.87 233.87 85.14 C 233.83 84.61 233.76 83.55 233.72 83.02 L 233.76 82.01 C 237.19 84.64 241.04 86.75 243.97 90.00 C 245.40 91.68 247.38 92.91 249.67 92.67 C 249.17 91.97 248.58 91.35 248.03 90.69 C 246.39 94.22 245.51 89.76 244.24 88.85 C 241.65 85.98 237.80 84.60 235.34 81.57 C 234.45 81.04 233.29 78.48 232.29 80.12 M 233.87 85.14 L 233.80 85.70 C 234.58 86.73 235.55 87.07 236.72 86.71 C 236.62 85.58 235.88 84.97 234.51 84.87 L 233.87 85.14 M 268.09 98.12 C 266.71 95.77 264.99 93.63 262.94 91.85 C 263.84 94.49 265.92 96.46 268.09 98.12 M 247.39 93.56 C 247.68 94.98 249.42 96.41 250.86 96.51 C 250.53 95.08 248.83 93.70 247.39 93.56 M 301.63 96.96 C 302.28 98.31 303.24 98.74 304.52 98.23 C 304.70 96.88 304.05 96.18 302.55 96.14 C 302.32 96.34 301.86 96.75 301.63 96.96 M 210.47 97.56 C 210.70 100.03 215.10 97.58 214.36 100.01 C 214.31 100.44 214.21 101.29 214.15 101.72 C 217.94 102.27 221.59 103.59 225.43 103.84 C 222.11 102.56 218.63 101.74 215.17 101.00 C 215.19 100.83 215.24 100.48 215.26 100.30 C 216.48 99.98 217.74 99.76 218.83 99.08 C 215.76 100.12 213.37 97.56 210.47 97.56 M 252.78 97.84 C 252.68 98.44 252.46 99.64 252.36 100.24 C 255.42 100.27 257.47 102.52 259.78 104.16 C 258.42 106.49 260.39 107.89 262.48 108.16 C 261.86 107.42 261.23 106.69 260.59 105.96 C 260.39 104.58 259.53 103.43 259.24 102.09 C 261.51 101.66 262.77 103.99 264.36 105.13 C 263.66 103.82 262.87 102.56 262.13 101.28 C 260.89 101.43 259.66 101.61 258.43 101.80 L 258.27 99.29 C 258.15 99.89 257.91 101.10 257.79 101.71 C 256.15 100.37 254.44 99.15 252.78 97.84 M 219.30 100.24 C 219.37 100.51 219.50 101.06 219.57 101.34 C 222.46 102.27 221.38 98.33 219.30 100.24 M 265.38 103.29 C 265.14 104.61 265.74 105.11 267.18 104.77 C 267.42 103.47 266.82 102.98 265.38 103.29 M 264.01 106.35 C 263.72 107.98 263.43 109.61 263.12 111.24 C 263.42 110.73 264.02 109.72 264.32 109.21 C 264.82 109.71 265.82 110.70 266.32 111.20 C 265.80 109.47 265.03 107.84 264.01 106.35 M 227.50 108.25 C 227.62 108.67 227.85 109.49 227.97 109.91 C 227.20 109.85 225.67 109.74 224.90 109.69 C 225.36 113.23 228.81 109.64 230.92 110.16 C 232.27 109.00 234.03 108.75 235.76 108.76 L 235.49 108.19 C 232.83 108.32 230.16 108.26 227.50 108.25 M 194.61 129.01 C 191.19 131.62 185.89 130.59 183.40 134.70 C 186.02 133.86 188.54 132.66 191.26 132.15 C 192.11 131.69 192.95 131.23 193.80 130.77 C 196.50 130.44 199.01 129.34 201.38 128.06 C 199.73 128.43 198.13 128.97 196.53 129.49 C 196.09 128.74 195.29 128.18 194.61 129.01 M 181.16 130.36 C 181.50 130.72 181.50 130.72 181.16 130.36 M 180.15 132.91 C 180.13 133.21 180.09 133.81 180.07 134.11 C 181.79 133.92 184.42 133.16 184.79 131.26 C 183.17 130.99 181.68 132.45 180.15 132.91 M 182.57 134.27 L 182.68 134.96 L 183.37 134.85 L 183.26 134.16 L 182.57 134.27 M 267.41 134.94 C 267.59 135.30 267.93 136.01 268.11 136.37 L 268.76 135.97 C 268.59 135.61 268.26 134.89 268.09 134.53 L 267.41 134.94 M 267.09 139.88 C 268.42 139.42 268.27 136.83 267.01 136.35 C 265.63 136.81 265.83 139.38 267.09 139.88 M 203.15 139.16 C 203.79 139.76 203.79 139.76 203.15 139.16 M 205.51 140.03 L 205.53 140.80 C 207.67 142.19 207.40 138.12 205.51 140.03 M 266.19 141.27 C 266.83 141.85 266.83 141.85 266.19 141.27 M 202.50 142.16 C 203.09 142.87 203.09 142.87 202.50 142.16 M 277.02 148.37 C 275.25 151.30 280.41 148.53 277.02 148.37 M 275.22 152.12 C 275.27 155.14 276.01 158.09 276.06 161.12 C 278.16 158.49 277.06 154.59 275.22 152.12 M 298.24 164.68 C 298.53 164.16 298.81 163.63 299.10 163.09 C 297.72 161.16 296.58 159.07 295.21 157.13 C 295.00 160.01 297.08 162.23 298.24 164.68 M 252.90 162.32 C 252.26 163.66 252.89 166.07 254.14 166.74 C 254.67 165.43 254.39 162.75 252.90 162.32 Z" />
<path fill="#ffffff" opacity="1.00" d=" M 307.32 59.47 C 307.89 59.43 309.02 59.33 309.58 59.28 C 311.93 61.08 313.26 63.70 314.71 66.20 C 312.26 64.50 309.97 62.56 307.35 61.10 C 307.34 60.69 307.33 59.88 307.32 59.47 Z" />
<path fill="#ffffff" opacity="1.00" d=" M 196.76 60.14 L 197.68 60.04 C 199.63 61.88 201.78 63.70 201.73 66.64 C 200.60 66.01 199.47 65.39 198.35 64.76 C 200.86 62.97 197.89 61.59 196.76 60.14 Z" />
<path fill="#ffffff" opacity="1.00" d=" M 306.18 62.19 C 306.86 62.84 306.86 62.84 306.18 62.19 Z" />
<path fill="#ffffff" opacity="1.00" d=" M 317.04 62.87 C 320.34 64.71 321.94 68.20 323.86 71.26 C 322.71 70.61 321.58 69.93 320.47 69.23 C 320.20 69.70 319.66 70.65 319.38 71.13 C 319.96 69.43 319.62 67.91 318.33 66.68 C 317.81 65.44 317.37 64.17 317.04 62.87 Z" />
<path fill="#ffffff" opacity="1.00" d=" M 306.28 65.06 C 309.43 63.85 306.33 68.43 306.28 65.06 Z" />
<path fill="#ffffff" opacity="1.00" d=" M 197.94 72.09 C 198.33 70.50 198.74 68.92 199.35 67.40 C 200.08 68.60 200.60 69.95 199.98 71.30 L 200.64 71.45 C 199.94 73.88 202.29 74.89 203.69 76.29 C 202.08 77.82 198.61 80.79 202.49 82.52 C 200.02 83.35 197.91 81.66 195.70 80.92 C 195.69 81.75 195.66 83.39 195.65 84.22 C 198.27 84.46 200.93 84.35 203.49 85.07 L 203.45 86.40 C 202.82 86.33 201.57 86.21 200.95 86.15 C 201.34 86.61 202.13 87.53 202.52 88.00 C 201.00 88.51 199.69 89.34 198.59 90.50 C 199.71 90.16 201.96 89.47 203.09 89.13 C 203.19 89.72 203.84 90.53 203.14 90.99 C 201.42 92.78 199.67 94.54 197.86 96.24 C 197.75 94.60 197.22 93.09 196.28 91.71 C 197.08 91.27 197.88 90.83 198.69 90.39 C 198.63 89.93 198.51 89.00 198.45 88.53 C 196.84 87.97 195.23 87.43 193.64 86.85 L 196.53 86.05 C 195.76 85.56 194.22 84.58 193.44 84.09 C 194.52 81.54 196.96 79.07 200.03 80.94 C 194.81 78.89 199.25 78.25 200.74 77.25 C 200.10 76.78 198.83 75.86 198.19 75.39 L 201.05 75.18 C 200.01 74.15 198.97 73.13 197.94 72.09 Z" />
<path fill="#ffffff" opacity="1.00" d=" M 276.28 69.20 C 276.88 69.78 276.88 69.78 276.28 69.20 Z" />
<path fill="#ffffff" opacity="1.00" d=" M 234.35 71.39 C 234.99 72.10 234.99 72.10 234.35 71.39 Z" />
<path fill="#ffffff" opacity="1.00" d=" M 298.16 70.91 L 298.71 70.73 C 299.83 72.53 301.62 73.69 303.43 74.69 C 305.44 75.94 307.43 77.27 309.11 78.96 C 304.98 78.00 301.64 75.05 297.49 74.23 C 297.33 73.78 297.03 72.87 296.87 72.41 C 297.55 72.54 298.90 72.78 299.57 72.91 L 298.16 70.91 Z" />
<path fill="#ffffff" opacity="1.00" d=" M 237.15 76.39 C 238.86 76.70 240.91 78.68 241.44 80.34 C 239.67 80.21 236.95 78.37 237.15 76.39 Z" />
<path fill="#ffffff" opacity="1.00" d=" M 319.79 80.87 C 317.77 81.40 316.30 77.42 317.96 76.49 C 319.45 77.30 319.56 79.39 319.79 80.87 Z" />
<path fill="#ffffff" opacity="1.00" d=" M 241.44 80.34 C 242.08 81.06 242.08 81.06 241.44 80.34 Z" />
<path fill="#ffffff" opacity="1.00" d=" M 309.60 81.75 C 312.70 83.53 316.34 84.22 319.13 86.55 C 319.50 87.82 319.94 89.08 320.37 90.34 C 317.16 87.56 314.02 84.46 309.80 83.32 C 308.01 83.72 306.37 85.01 304.43 84.27 C 306.15 83.42 308.04 82.90 309.60 81.75 Z" />
<path fill="#ffffff" opacity="1.00" d=" M 316.56 81.76 C 317.48 81.61 319.30 81.32 320.21 81.17 C 320.78 83.32 322.83 84.52 324.12 86.22 C 321.47 84.96 318.77 83.72 316.56 81.76 Z" />
<path fill="#ffffff" opacity="1.00" d=" M 214.21 85.32 C 215.38 84.01 216.63 82.83 217.99 84.73 C 216.74 86.14 215.52 87.57 214.26 88.96 C 214.24 88.05 214.22 86.23 214.21 85.32 Z" />
<path fill="#ffffff" opacity="1.00" d=" M 304.78 86.63 C 307.25 86.88 310.09 85.53 312.35 87.01 C 310.03 87.47 307.65 88.04 305.27 87.76 C 305.15 87.48 304.90 86.92 304.78 86.63 Z" />
<path fill="#ffffff" opacity="1.00" d=" M 216.23 87.66 C 217.85 87.88 216.16 91.18 214.83 90.72 C 214.69 89.48 215.15 88.46 216.23 87.66 Z" />
<path fill="#ffffff" opacity="1.00" d=" M 301.18 91.81 C 301.40 90.12 300.99 86.15 303.74 88.16 C 303.19 88.73 302.65 89.31 302.14 89.90 C 303.33 91.41 305.39 90.22 307.00 90.36 C 308.12 89.85 309.27 89.39 310.44 88.99 C 309.48 89.85 308.46 90.61 307.43 91.37 C 305.34 91.42 303.26 91.60 301.18 91.81 Z" />
<path fill="#ffffff" opacity="1.00" d=" M 316.37 88.97 C 316.91 89.25 317.99 89.80 318.53 90.07 L 318.36 90.68 C 316.89 90.87 316.23 90.30 316.37 88.97 Z" />
<path fill="#ffffff" opacity="1.00" d=" M 315.61 98.09 C 314.37 96.79 311.46 95.96 312.52 93.64 C 314.05 94.19 315.59 94.73 317.12 95.27 C 316.68 95.39 315.81 95.62 315.37 95.73 C 315.43 96.32 315.55 97.50 315.61 98.09 Z" />
<path fill="#ffffff" opacity="1.00" d=" M 189.02 108.37 C 190.16 109.21 191.32 110.02 192.55 110.74 C 192.09 109.99 191.17 108.48 190.70 107.72 C 192.87 107.97 192.53 110.24 193.49 111.66 C 192.96 113.18 192.47 114.73 191.98 116.28 C 194.86 115.54 198.23 114.77 200.51 117.27 C 199.25 117.38 196.74 117.61 195.48 117.73 L 195.88 118.94 C 193.52 118.21 190.14 119.10 188.67 116.62 C 189.47 116.60 191.07 116.55 191.87 116.52 C 191.82 116.22 191.70 115.61 191.65 115.31 C 190.63 115.53 189.62 115.75 188.61 115.97 C 189.14 119.99 183.90 117.48 181.67 118.48 C 182.37 116.20 185.03 116.07 186.82 115.12 C 186.22 114.59 185.03 113.52 184.43 112.99 C 187.30 112.89 190.38 113.62 193.06 112.27 C 191.44 111.63 189.83 111.00 188.21 110.37 C 188.48 109.70 188.75 109.03 189.02 108.37 Z" />
<path fill="#ffffff" opacity="1.00" d=" M 311.47 112.90 C 312.99 111.07 315.09 109.92 317.27 109.03 C 317.35 109.95 317.52 111.78 317.60 112.70 C 315.55 112.57 313.51 112.86 311.47 112.90 Z" />
<path fill="#ffffff" opacity="1.00" d=" M 228.10 114.48 C 230.48 114.00 236.13 114.92 233.57 118.36 L 233.15 119.09 C 231.88 119.55 230.56 119.66 229.20 119.43 C 229.42 119.86 229.85 120.74 230.07 121.17 C 229.35 121.26 227.91 121.44 227.19 121.52 L 227.90 122.95 C 225.71 123.97 223.47 125.02 221.78 126.81 C 221.34 125.98 220.91 125.16 220.50 124.33 L 217.99 125.14 L 219.31 123.13 C 218.68 123.55 218.05 123.97 217.42 124.39 C 214.79 125.13 212.29 126.28 209.71 127.18 C 210.70 124.94 212.81 123.44 213.63 121.13 C 215.60 120.38 217.56 119.63 219.50 118.81 C 220.34 118.04 221.20 117.30 222.08 116.58 C 222.78 116.60 224.18 116.65 224.88 116.68 C 225.08 117.05 225.47 117.80 225.67 118.17 C 225.53 117.58 225.26 116.40 225.12 115.81 C 225.86 115.48 227.35 114.81 228.10 114.48 Z" />
<path fill="#ffffff" opacity="1.00" d=" M 177.93 121.98 C 182.69 120.05 187.92 117.76 193.13 118.87 C 192.23 120.24 190.91 120.89 189.17 120.82 C 189.43 120.93 189.93 121.15 190.19 121.26 C 192.08 120.75 194.02 120.47 195.94 120.06 C 197.49 119.41 199.05 118.77 200.66 118.24 C 201.51 118.83 202.33 119.47 203.11 120.17 C 200.25 121.65 197.11 122.42 194.03 123.33 C 191.82 124.28 189.08 122.61 187.31 124.69 C 187.32 124.32 187.36 123.57 187.37 123.20 C 184.92 124.06 182.48 124.96 180.05 125.88 C 178.52 125.55 176.97 125.34 175.42 125.16 C 177.24 123.50 179.64 122.84 182.03 122.51 C 180.66 122.37 179.28 122.25 177.93 121.98 Z" />
<path fill="#ffffff" opacity="1.00" d=" M 248.24 121.82 C 250.24 123.83 252.21 125.85 254.31 127.77 C 251.80 127.62 248.95 127.10 247.34 124.96 C 247.57 123.90 247.87 122.85 248.24 121.82 Z" />
<path fill="#ffffff" opacity="1.00" d=" M 197.17 124.44 C 197.55 124.73 197.55 124.73 197.17 124.44 Z" />
<path fill="#ffffff" opacity="1.00" d=" M 226.18 124.95 C 227.85 124.59 229.53 124.28 231.22 124.04 C 229.24 125.57 227.06 126.83 225.16 128.47 C 225.84 128.68 227.22 129.10 227.90 129.32 C 224.14 131.85 220.86 134.99 217.35 137.84 C 217.06 137.40 216.48 136.54 216.19 136.11 C 218.09 134.30 220.12 132.59 222.61 131.64 C 222.03 131.26 221.54 130.79 221.14 130.25 C 222.01 129.63 222.90 129.04 223.81 128.49 C 223.57 128.33 223.08 128.03 222.83 127.87 C 222.96 126.19 225.13 125.94 226.18 124.95 Z" />
<path fill="#ffffff" opacity="1.00" d=" M 303.60 125.11 C 304.01 123.67 306.56 123.84 307.75 124.25 C 307.26 125.57 304.80 125.45 303.60 125.11 Z" />
<path fill="#ffffff" opacity="1.00" d=" M 235.57 129.16 C 238.00 127.60 240.68 126.48 243.17 125.02 C 244.05 125.56 245.79 126.62 246.66 127.16 C 246.23 127.48 245.80 127.79 245.37 128.09 C 248.25 128.95 245.84 131.45 244.85 132.85 C 243.05 134.28 240.99 135.34 239.08 136.63 C 239.30 135.72 239.52 134.82 239.75 133.91 C 238.84 133.39 237.01 132.33 236.10 131.81 L 236.86 133.78 C 233.59 136.94 230.18 139.97 226.62 142.80 C 228.59 141.82 230.61 140.96 232.69 140.24 C 228.96 143.43 224.92 146.49 222.30 150.73 C 222.01 150.47 221.43 149.95 221.14 149.69 C 221.70 149.09 222.82 147.91 223.38 147.31 C 222.55 146.84 218.79 148.66 219.21 146.50 C 218.05 143.30 225.29 147.32 221.71 143.08 C 224.35 141.55 226.88 139.79 229.10 137.69 C 225.77 138.32 224.24 141.73 221.20 142.90 C 221.32 143.34 221.56 144.21 221.68 144.65 C 217.31 145.09 214.65 149.18 211.41 151.70 C 210.25 151.27 209.10 150.85 207.94 150.44 C 209.77 149.03 211.63 147.62 213.12 145.83 C 211.10 147.08 209.54 149.02 207.26 149.82 L 207.91 150.91 L 205.94 150.34 C 206.24 151.17 206.53 152.00 206.83 152.84 C 205.12 154.08 203.44 155.50 201.26 155.74 C 198.24 158.11 195.35 161.38 191.39 161.87 C 189.27 163.74 186.08 164.80 185.18 167.70 C 184.88 167.60 184.29 167.40 184.00 167.30 L 183.46 168.82 C 182.88 169.18 181.72 169.91 181.14 170.28 C 181.70 170.53 182.27 170.78 182.85 171.03 C 184.07 169.56 186.63 169.02 186.64 166.75 C 188.75 165.22 190.75 163.55 192.71 161.84 L 192.04 164.33 C 194.07 162.74 196.43 161.71 198.70 160.53 L 199.15 160.41 C 200.23 159.58 201.32 158.77 202.50 158.09 C 202.56 157.74 202.67 157.06 202.72 156.71 C 203.00 157.30 203.56 158.49 203.84 159.08 C 205.69 157.95 207.45 156.64 209.45 155.75 C 207.69 158.00 205.17 159.45 202.66 160.69 C 200.38 162.56 198.92 165.24 196.30 166.74 C 192.72 169.55 189.26 172.53 185.50 175.11 C 187.22 174.48 188.92 173.82 190.65 173.20 L 189.94 172.55 C 192.60 170.90 195.20 169.17 197.81 167.45 L 196.30 166.74 C 197.68 166.77 199.05 166.69 200.41 166.50 C 198.43 167.87 196.42 169.20 194.32 170.38 C 195.05 170.79 196.53 171.59 197.27 172.00 C 196.51 171.79 194.98 171.37 194.22 171.16 L 194.36 172.66 C 192.47 174.03 190.47 175.22 188.51 176.48 C 187.46 176.04 186.41 175.62 185.35 175.19 C 183.86 176.24 182.47 177.55 180.60 177.93 C 183.02 174.29 187.68 172.95 189.74 168.99 C 186.87 170.02 183.70 170.72 181.46 172.94 C 180.09 171.91 178.38 171.02 178.35 169.07 C 179.72 167.08 182.06 166.18 184.04 164.96 C 184.82 163.54 185.13 161.87 185.74 160.36 C 183.73 162.50 181.51 164.43 179.09 166.10 C 179.78 164.09 180.75 162.14 180.86 159.99 C 181.20 160.17 181.87 160.54 182.20 160.72 C 181.55 158.36 184.00 158.91 185.20 158.43 C 186.65 158.38 187.05 156.65 187.91 155.76 C 188.66 155.24 189.42 154.73 190.18 154.23 C 190.57 153.95 191.34 153.39 191.72 153.11 L 192.55 151.56 C 192.46 152.38 192.27 154.00 192.18 154.82 C 193.67 153.29 195.47 152.15 197.41 151.30 C 198.61 150.25 199.90 149.30 201.14 148.29 C 201.37 149.71 202.83 149.58 203.92 149.84 C 203.38 150.10 202.30 150.63 201.76 150.90 L 200.28 149.04 C 200.00 150.38 199.80 151.74 199.67 153.11 L 198.18 152.46 L 199.04 153.78 C 198.21 154.15 196.55 154.90 195.72 155.27 L 199.23 150.88 C 197.06 151.58 194.44 153.60 195.60 156.09 L 194.17 154.92 L 194.47 157.47 C 195.79 156.61 197.22 156.27 198.77 156.46 C 198.60 156.17 198.27 155.59 198.11 155.31 C 200.17 153.97 202.21 152.61 204.21 151.17 C 205.67 149.44 207.06 147.52 209.29 146.70 C 208.66 146.17 208.01 145.65 207.37 145.13 C 207.96 144.62 208.56 144.10 209.16 143.59 C 209.66 144.19 210.25 144.73 210.78 145.32 C 211.96 143.85 213.64 142.97 215.32 142.21 C 215.63 141.49 215.95 140.78 216.28 140.07 L 216.14 142.89 C 219.14 140.03 223.31 139.11 226.43 136.40 C 225.50 136.42 223.65 136.48 222.72 136.51 C 223.92 135.33 225.19 134.21 226.40 133.03 C 226.85 133.92 227.32 134.81 227.83 135.67 C 228.69 134.23 229.57 132.79 230.45 131.36 C 230.43 132.78 230.87 134.11 231.51 135.36 C 230.76 136.39 229.87 137.30 229.12 138.32 C 231.58 137.30 234.04 135.92 235.49 133.60 C 234.46 133.57 232.40 133.50 231.37 133.47 C 232.70 132.61 234.03 131.73 235.36 130.86 C 235.41 130.43 235.52 129.58 235.57 129.16 M 203.20 153.19 C 203.83 153.80 203.83 153.80 203.20 153.19 Z" />
<path fill="#ffffff" opacity="1.00" d=" M 282.00 124.32 C 282.55 124.91 283.11 125.51 283.66 126.10 C 282.31 127.41 280.98 128.72 279.61 130.01 C 279.51 127.78 280.48 125.89 282.00 124.32 Z" />
<path fill="#ffffff" opacity="1.00" d=" M 300.75 125.12 L 301.44 125.06 L 301.51 125.74 L 300.82 125.81 L 300.75 125.12 Z" />
<path fill="#ffffff" opacity="1.00" d=" M 301.89 126.64 C 304.20 126.50 306.65 125.42 308.93 126.20 C 308.51 126.52 307.69 127.16 307.28 127.48 L 306.35 127.81 C 305.53 128.62 304.65 129.35 303.56 129.75 L 303.03 130.19 C 301.94 130.88 300.71 131.27 299.49 131.67 C 299.43 131.89 299.29 132.33 299.23 132.55 L 299.64 132.56 C 301.26 132.05 302.88 131.48 304.60 131.38 C 306.17 130.47 308.12 130.38 309.63 131.48 C 310.70 129.18 314.16 130.49 316.28 130.18 C 317.51 128.86 319.69 131.22 318.46 132.14 C 312.56 133.38 303.02 130.16 299.94 137.50 C 299.10 136.55 298.00 136.67 296.87 136.89 C 296.62 136.37 296.14 135.34 295.89 134.82 C 296.58 134.71 297.95 134.48 298.64 134.37 C 297.55 133.32 296.53 132.22 295.60 131.05 C 297.16 130.48 298.73 129.87 300.32 129.34 C 300.48 129.02 300.81 128.39 300.97 128.08 C 301.20 127.72 301.66 127.00 301.89 126.64 Z" />
<path fill="#ffffff" opacity="1.00" d=" M 246.96 131.01 C 247.62 130.21 248.19 129.34 248.84 128.53 C 250.63 129.63 252.73 129.79 254.73 130.25 L 256.33 129.13 C 256.25 130.18 256.16 131.24 256.06 132.29 C 254.51 132.54 252.99 132.84 251.50 133.30 C 250.34 133.51 249.21 133.79 248.10 134.14 C 247.33 134.00 245.78 133.72 245.01 133.58 C 245.63 132.70 246.28 131.84 246.96 131.01 Z" />
<path fill="#ffffff" opacity="1.00" d=" M 278.20 131.31 L 279.17 131.46 C 280.68 133.46 276.60 133.07 278.20 131.31 Z" />
<path fill="#ffffff" opacity="1.00" d=" M 253.32 136.97 C 254.04 133.91 257.02 133.26 259.68 132.51 C 259.31 134.09 258.88 135.65 258.48 137.23 C 257.18 137.90 255.91 138.62 254.65 139.34 C 252.08 136.45 251.65 143.93 248.07 142.18 C 248.65 141.35 249.80 139.70 250.38 138.88 C 250.33 137.88 250.24 136.90 250.09 135.93 C 251.06 135.43 253.00 134.45 253.97 133.95 C 253.81 134.71 253.48 136.22 253.32 136.97 Z" />
<path fill="#ffffff" opacity="1.00" d=" M 301.87 136.70 C 303.28 135.47 304.92 134.54 306.60 133.69 C 306.24 135.52 305.84 137.33 305.44 139.15 C 304.54 138.54 302.76 137.32 301.87 136.70 Z" />
<path fill="#ffffff" opacity="1.00" d=" M 316.70 135.35 C 320.08 133.13 325.68 132.95 328.42 136.18 L 326.45 136.11 C 326.05 137.25 325.57 138.36 325.04 139.44 C 323.41 138.94 324.01 137.02 323.63 135.81 C 321.31 135.67 319.00 135.61 316.70 135.35 Z" />
<path fill="#ffffff" opacity="1.00" d=" M 244.52 135.32 C 245.10 135.39 246.27 135.53 246.85 135.60 C 245.66 137.21 244.41 138.92 242.16 138.75 C 242.91 137.59 243.72 136.46 244.52 135.32 Z" />
<path fill="#ffffff" opacity="1.00" d=" M 249.01 137.17 C 250.35 138.75 248.64 141.76 246.72 141.82 C 245.87 140.06 248.28 138.62 249.01 137.17 Z" />
<path fill="#ffffff" opacity="1.00" d=" M 301.17 138.02 C 302.23 136.98 303.93 138.09 304.48 139.15 C 304.01 140.81 300.04 139.92 301.17 138.02 Z" />
<path fill="#ffffff" opacity="1.00" d=" M 257.14 139.52 C 258.46 139.64 258.64 140.33 257.66 141.58 C 256.35 141.49 256.18 140.80 257.14 139.52 Z" />
<path fill="#ffffff" opacity="1.00" d=" M 235.84 141.70 C 236.91 141.61 237.98 141.54 239.05 141.47 C 238.14 141.96 237.22 142.43 236.30 142.89 C 236.54 143.43 237.01 144.51 237.25 145.05 L 235.07 143.79 L 235.86 145.77 L 233.79 145.11 L 234.97 146.61 C 233.47 148.42 232.02 150.27 230.67 152.18 C 230.27 151.73 229.47 150.82 229.08 150.36 C 228.67 150.93 227.85 152.07 227.44 152.63 C 226.56 153.66 225.72 154.73 224.91 155.81 C 222.98 158.55 220.57 160.90 218.17 163.23 C 217.77 157.46 224.81 156.11 225.69 151.02 C 222.49 153.05 220.33 156.26 217.71 158.93 C 216.05 158.30 214.48 159.14 212.91 159.63 C 213.46 158.28 214.07 156.96 214.62 155.61 C 216.85 156.31 215.70 152.40 217.88 153.39 C 218.71 153.41 220.36 153.46 221.19 153.49 C 220.20 153.00 218.23 152.02 217.25 151.53 C 222.87 153.37 225.44 147.99 229.05 145.13 C 231.24 143.34 233.30 141.34 235.90 140.14 C 233.86 142.90 231.25 145.28 229.76 148.42 C 232.13 146.53 234.14 144.20 235.84 141.70 Z" />
<path fill="#ffffff" opacity="1.00" d=" M 239.05 144.98 C 241.13 144.32 242.81 142.95 244.46 141.58 C 244.36 142.32 244.17 143.81 244.07 144.56 L 242.95 143.90 C 242.84 144.27 242.63 145.00 242.52 145.37 C 242.13 145.51 241.35 145.81 240.96 145.95 C 240.34 146.71 239.73 147.46 239.12 148.22 C 238.16 148.60 237.22 149.01 236.28 149.44 C 237.26 149.47 239.21 149.51 240.19 149.54 C 239.07 150.74 237.93 151.92 236.93 153.23 C 238.35 152.19 239.62 150.97 240.90 149.78 C 241.11 149.13 241.54 147.84 241.76 147.19 C 242.23 147.41 243.17 147.84 243.64 148.06 L 242.24 146.27 L 246.24 146.15 C 245.62 147.33 244.37 149.69 243.74 150.88 C 245.56 149.51 246.60 147.67 246.87 145.35 C 247.47 145.88 248.07 146.40 248.68 146.93 C 246.93 150.03 244.21 152.70 243.26 156.19 C 243.02 156.60 242.53 157.43 242.28 157.85 C 242.14 157.43 241.85 156.61 241.71 156.19 C 239.79 159.34 237.26 162.27 236.16 165.83 C 238.48 165.01 239.24 161.49 240.28 159.38 C 240.82 160.45 241.33 161.54 241.88 162.62 C 241.44 160.40 242.15 159.27 244.01 159.20 C 244.09 160.16 243.91 161.09 243.47 161.99 C 243.59 162.92 243.72 163.85 243.85 164.78 L 241.47 164.34 C 241.98 164.70 243.01 165.43 243.52 165.79 C 242.13 168.74 240.32 171.46 238.83 174.35 C 237.98 172.80 238.46 171.04 238.46 169.38 L 239.81 169.53 C 239.59 168.99 239.15 167.90 238.93 167.36 C 239.50 167.26 240.64 167.07 241.21 166.97 L 239.15 166.89 C 239.89 165.32 240.60 163.74 241.27 162.14 C 239.38 163.63 237.84 166.22 238.83 168.68 L 237.86 168.67 C 237.70 169.58 237.55 170.48 237.40 171.39 C 236.94 171.73 236.01 172.39 235.55 172.72 C 235.43 171.11 235.22 169.51 234.86 167.94 L 234.46 167.28 C 233.18 166.57 234.41 165.33 234.47 164.35 C 232.52 163.82 233.81 162.16 234.75 161.29 C 233.92 161.35 233.09 161.42 232.27 161.49 C 233.68 159.96 235.16 158.47 236.30 156.71 C 234.15 158.31 232.52 160.79 229.79 161.47 C 230.42 160.64 231.68 158.99 232.31 158.16 C 230.95 158.41 229.59 158.77 228.22 158.41 C 227.48 159.12 226.01 160.56 225.27 161.27 C 226.73 161.33 228.18 161.38 229.65 161.42 C 228.62 162.48 226.57 164.61 225.54 165.67 C 228.33 165.41 230.30 164.10 231.46 161.75 C 231.59 162.46 231.71 163.17 231.82 163.88 C 230.94 164.42 229.19 165.50 228.31 166.04 C 229.44 166.92 230.85 167.22 232.19 167.63 C 229.44 169.32 228.31 173.96 224.71 173.49 C 225.59 171.90 226.78 170.59 228.28 169.58 C 227.60 169.30 226.92 169.04 226.24 168.79 C 226.40 168.02 226.54 167.24 226.68 166.47 C 224.21 167.78 221.62 169.10 218.73 168.81 C 218.49 165.51 221.58 163.73 223.53 161.58 C 226.06 159.38 227.84 156.53 229.75 153.82 C 232.84 150.86 235.78 147.74 239.05 144.98 Z" />
<path fill="#ffffff" opacity="1.00" d=" M 245.61 143.24 C 247.61 143.38 244.87 146.43 243.66 145.91 C 243.77 145.57 243.97 144.89 244.07 144.56 C 244.46 144.23 245.22 143.57 245.61 143.24 Z" />
<path fill="#ffffff" opacity="1.00" d=" M 203.42 147.67 C 203.85 147.68 204.71 147.70 205.15 147.72 C 206.30 149.77 202.00 149.48 203.42 147.67 Z" />
<path fill="#ffffff" opacity="1.00" d=" M 331.45 157.65 C 331.41 155.00 330.41 151.68 333.65 150.59 C 333.24 153.21 333.60 155.82 334.53 158.29 C 335.00 158.61 335.94 159.24 336.41 159.56 L 333.29 159.10 C 334.20 160.25 335.12 161.41 336.03 162.57 C 335.49 162.44 334.41 162.19 333.87 162.06 C 333.21 165.28 333.09 168.54 333.74 171.78 C 331.79 172.86 330.63 171.22 331.69 169.42 C 331.01 168.84 330.36 168.25 329.74 167.63 C 330.07 166.19 331.12 164.78 330.55 163.26 C 330.05 161.98 329.48 160.74 328.95 159.49 C 330.17 160.20 331.46 160.63 332.82 160.79 C 332.34 159.69 330.99 159.42 330.15 158.70 C 330.48 158.43 331.13 157.91 331.45 157.65 Z" />
<path fill="#ffffff" opacity="1.00" d=" M 180.45 155.60 C 183.14 154.59 185.41 152.70 188.15 151.84 C 186.57 153.67 184.47 154.94 182.30 155.94 C 180.77 156.96 179.25 157.99 177.63 158.86 C 178.15 157.48 178.99 156.12 180.45 155.60 Z" />
<path fill="#ffffff" opacity="1.00" d=" M 300.26 154.31 L 300.94 154.47 C 300.96 154.83 301.02 155.56 301.04 155.92 L 300.38 156.16 L 299.86 155.25 L 300.26 154.31 Z" />
<path fill="#ffffff" opacity="1.00" d=" M 306.19 154.17 C 308.24 155.02 309.44 157.42 310.43 159.34 C 308.54 158.15 306.39 156.61 306.19 154.17 Z" />
<path fill="#ffffff" opacity="1.00" d=" M 301.04 155.92 L 301.61 155.90 C 302.65 157.51 303.64 159.16 304.69 160.78 C 304.54 159.75 304.25 157.69 304.11 156.66 C 306.41 157.09 307.64 159.06 308.81 160.86 C 308.27 161.89 307.69 162.88 307.06 163.85 C 306.15 163.56 305.45 162.90 304.77 162.27 L 304.17 161.83 L 303.50 161.50 L 302.55 161.49 C 301.95 160.56 301.35 159.64 300.75 158.72 C 300.82 158.02 300.97 156.62 301.04 155.92 Z" />
<path fill="#ffffff" opacity="1.00" d=" M 299.16 157.22 C 299.48 157.31 300.12 157.48 300.44 157.57 L 300.11 158.50 L 299.16 158.63 C 299.16 158.28 299.16 157.58 299.16 157.22 Z" />
<path fill="#ffffff" opacity="1.00" d=" M 303.57 157.00 C 303.63 156.78 303.76 156.34 303.82 156.12 L 304.11 156.66 L 303.57 157.00 Z" />
<path fill="#ffffff" opacity="1.00" d=" M 276.22 164.21 C 276.85 164.85 276.85 164.85 276.22 164.21 Z" />
<path fill="#ffffff" opacity="1.00" d=" M 211.00 167.43 C 211.96 166.54 212.97 165.69 214.00 164.89 C 213.22 166.10 212.40 167.29 211.53 168.44 C 212.43 168.46 214.25 168.52 215.15 168.55 C 214.45 169.03 213.76 169.53 213.07 170.03 C 210.41 172.35 207.14 174.10 205.56 177.43 C 205.67 178.03 205.68 178.63 205.60 179.24 C 204.58 180.37 203.55 181.50 202.37 182.47 C 200.53 182.34 199.18 183.89 197.37 183.65 L 199.88 178.96 C 198.81 179.62 196.69 180.94 195.62 181.60 C 195.04 180.73 194.49 179.84 193.92 178.97 L 192.79 181.54 C 191.99 180.29 191.35 178.96 191.21 177.47 C 192.70 176.53 194.10 175.40 195.83 174.94 C 194.56 176.20 192.92 177.11 191.94 178.65 C 192.20 178.73 192.71 178.89 192.97 178.98 C 193.27 178.90 193.88 178.74 194.18 178.66 C 195.27 176.04 198.15 174.92 200.46 173.66 C 199.72 173.42 198.98 173.20 198.24 173.00 L 198.08 172.95 C 198.39 172.51 199.01 171.62 199.32 171.18 L 199.11 173.01 C 203.03 171.70 206.07 168.86 209.39 166.53 C 209.79 166.75 210.60 167.21 211.00 167.43 M 207.27 171.19 C 207.87 171.84 207.87 171.84 207.27 171.19 M 195.32 178.01 C 195.85 178.52 196.38 179.03 196.91 179.55 C 198.34 177.65 201.78 176.85 201.60 174.03 C 199.48 175.31 197.50 176.83 195.32 178.01 Z" />
<path fill="#ffffff" opacity="1.00" d=" M 279.83 165.44 C 283.02 166.89 284.22 170.40 285.68 173.31 C 284.32 171.91 283.13 170.32 281.51 169.20 C 280.91 167.96 280.33 166.71 279.83 165.44 Z" />
<path fill="#ffffff" opacity="1.00" d=" M 224.77 169.92 L 224.32 167.77 L 226.24 168.79 C 225.40 170.95 223.51 172.45 221.87 174.00 C 222.42 172.39 223.12 170.84 223.68 169.24 L 224.77 169.92 Z" />
<path fill="#ffffff" opacity="1.00" d=" M 215.68 170.90 C 216.24 170.44 218.16 169.33 218.34 170.64 C 217.83 171.64 217.09 172.45 216.12 173.06 C 214.79 173.38 214.84 171.41 215.68 170.90 Z" />
<path fill="#ffffff" opacity="1.00" d=" M 229.23 174.12 C 229.58 172.77 230.03 171.42 231.08 170.43 C 230.66 172.02 230.20 173.61 229.70 175.19 L 231.85 172.79 L 232.30 173.40 C 230.64 176.59 229.33 179.94 227.75 183.17 C 227.65 181.15 227.38 179.24 226.82 177.32 C 225.51 178.93 223.68 180.18 222.74 182.07 C 223.09 182.23 223.80 182.57 224.15 182.74 C 224.68 181.75 225.72 179.77 226.25 178.78 C 226.61 179.63 226.96 180.49 227.31 181.36 C 225.15 183.44 223.52 185.95 221.80 188.38 C 221.75 186.74 223.54 184.01 221.45 183.10 C 222.58 187.09 218.47 189.64 215.64 191.50 C 215.42 191.20 214.97 190.61 214.75 190.32 C 213.74 190.95 212.77 191.62 211.79 192.29 C 211.56 191.18 210.91 189.92 211.99 189.04 C 215.29 185.10 217.46 180.19 221.72 177.12 C 220.60 181.40 216.38 184.19 215.44 188.45 C 215.59 188.53 215.90 188.70 216.05 188.78 C 219.59 183.23 223.56 177.67 229.23 174.12 Z" />
<path fill="#ffffff" opacity="1.00" d=" M 319.39 171.85 C 320.99 171.40 321.54 171.98 321.06 173.59 C 319.46 174.04 318.91 173.46 319.39 171.85 Z" />
<path fill="#ffffff" opacity="1.00" d=" M 328.06 173.45 C 329.50 172.11 331.27 171.74 332.20 173.85 C 331.72 174.48 331.32 175.15 331.02 175.87 C 332.46 177.33 333.89 178.81 335.16 180.43 C 333.74 179.68 332.46 178.68 331.00 178.02 C 330.10 176.44 328.89 175.06 328.06 173.45 Z" />
<path fill="#ffffff" opacity="1.00" d=" M 198.24 173.00 C 197.58 173.63 197.58 173.63 198.24 173.00 Z" />
<path fill="#ffffff" opacity="1.00" d=" M 195.83 174.94 C 196.11 174.12 196.11 174.12 195.83 174.94 Z" />
<path fill="#ffffff" opacity="1.00" d=" M 207.57 177.81 C 204.88 175.37 210.53 174.33 212.50 174.31 L 212.80 172.72 C 213.44 173.67 214.03 174.66 214.57 175.67 C 213.46 177.08 212.06 178.22 210.68 179.36 C 210.68 179.99 210.66 181.25 210.66 181.88 C 210.06 181.39 209.72 180.70 209.63 179.84 C 208.66 182.40 206.24 183.30 203.69 183.55 L 203.58 182.85 C 203.92 180.93 205.73 179.40 207.65 179.22 L 207.14 177.98 C 207.71 178.15 208.86 178.49 209.43 178.66 L 209.19 177.58 C 209.70 177.39 210.74 177.03 211.25 176.85 C 209.95 175.97 208.77 177.44 207.57 177.81 Z" />
<path fill="#ffffff" opacity="1.00" d=" M 219.23 177.01 C 218.39 175.88 220.81 173.01 221.44 174.84 C 221.10 176.08 220.36 176.81 219.23 177.01 Z" />
<path fill="#ffffff" opacity="1.00" d=" M 230.98 179.81 C 231.92 178.22 232.28 174.34 234.73 175.34 C 234.62 176.19 234.41 177.90 234.31 178.75 C 234.97 178.68 236.30 178.56 236.97 178.49 L 235.64 179.50 C 235.13 179.51 234.11 179.54 233.61 179.55 C 233.48 180.11 233.22 181.23 233.09 181.79 C 232.57 181.30 231.51 180.31 230.98 179.81 Z" />
<path fill="#ffffff" opacity="1.00" d=" M 321.96 181.59 C 322.43 178.25 325.77 178.38 327.54 176.20 C 328.69 176.81 329.82 177.45 331.00 178.02 C 331.15 178.77 331.45 180.26 331.60 181.00 C 330.09 179.79 328.49 178.70 326.79 177.81 C 326.82 178.17 326.89 178.89 326.92 179.25 C 328.19 179.77 330.67 183.18 331.60 181.00 L 331.92 179.89 C 332.30 181.19 332.65 182.50 333.02 183.81 L 332.65 183.75 C 332.03 183.25 330.80 182.25 330.18 181.74 C 330.72 183.34 331.48 184.87 332.24 186.38 C 332.55 188.15 333.35 189.77 334.03 191.43 C 333.27 190.77 332.52 190.10 331.79 189.43 C 331.02 189.38 329.46 189.27 328.69 189.22 L 330.97 191.49 C 327.11 191.39 324.09 189.35 321.77 186.48 C 322.33 186.43 323.46 186.32 324.02 186.27 C 323.82 183.35 328.05 181.27 325.17 178.43 C 323.92 180.46 323.50 183.90 320.31 182.69 C 319.67 181.19 318.98 179.72 318.52 178.16 C 319.78 179.19 320.82 180.43 321.96 181.59 Z" />
<path fill="#ffffff" opacity="1.00" d=" M 205.98 188.66 C 209.87 184.42 213.77 180.19 217.28 175.63 L 217.54 178.37 C 214.70 178.16 215.65 180.89 215.61 182.69 C 214.90 182.62 213.47 182.49 212.75 182.42 C 213.32 182.63 214.46 183.04 215.02 183.24 C 213.38 186.09 211.10 188.46 208.92 190.89 C 208.57 191.60 208.23 192.32 207.89 193.03 L 207.68 191.32 L 205.72 191.91 C 206.52 190.74 207.33 189.57 208.15 188.41 L 205.98 188.66 Z" />
<path fill="#ffffff" opacity="1.00" d=" M 301.21 177.80 C 303.18 178.80 303.87 181.02 304.25 183.06 C 302.60 181.73 301.33 179.97 301.21 177.80 Z" />
<path fill="#ffffff" opacity="1.00" d=" M 259.46 184.40 C 258.74 183.36 258.02 182.36 257.44 181.25 C 258.44 181.65 260.42 182.44 261.41 182.83 C 260.76 183.36 260.11 183.88 259.46 184.40 Z" />
<path fill="#ffffff" opacity="1.00" d=" M 191.54 183.68 C 192.45 183.14 193.45 182.79 194.43 182.38 C 192.77 185.38 196.25 184.88 197.53 184.24 C 197.14 185.54 196.16 186.47 195.18 187.35 C 194.17 186.17 192.73 185.85 191.31 186.48 C 191.36 185.54 191.44 184.60 191.54 183.68 Z" />
<path fill="#ffffff" opacity="1.00" d=" M 314.99 184.08 C 315.56 183.26 315.68 181.89 316.93 181.79 C 317.58 182.54 318.07 183.40 318.39 184.38 C 317.54 184.30 315.84 184.16 314.99 184.08 Z" />
<path fill="#ffffff" opacity="1.00" d=" M 198.33 193.92 C 199.58 189.43 203.31 186.23 206.53 183.09 C 206.87 183.35 207.55 183.86 207.89 184.11 C 207.90 184.38 207.93 184.92 207.95 185.20 C 204.47 187.81 201.88 191.39 198.33 193.92 Z" />
<path fill="#ffffff" opacity="1.00" d=" M 195.29 190.84 C 196.08 187.52 199.46 185.82 201.89 183.81 C 201.13 187.02 199.06 190.79 195.29 190.84 Z" />
<path fill="#ffffff" opacity="1.00" d=" M 313.27 188.20 C 313.47 188.53 313.87 189.19 314.07 189.51 C 316.34 187.99 318.99 188.49 321.46 189.15 C 320.80 189.23 319.48 189.40 318.82 189.48 L 319.03 191.02 C 317.03 190.44 315.01 190.01 312.99 189.52 C 313.06 189.19 313.20 188.53 313.27 188.20 Z" />
<path fill="#ffffff" opacity="1.00" d=" M 216.78 194.27 C 219.13 192.33 221.37 190.10 224.27 188.98 C 222.57 191.64 220.01 193.56 218.07 196.03 C 216.36 197.87 215.02 200.17 212.74 201.39 C 213.32 200.61 214.49 199.06 215.07 198.29 C 214.11 198.38 212.17 198.56 211.20 198.66 C 212.65 196.73 214.29 194.74 216.78 194.27 Z" />
<path fill="#ffffff" opacity="1.00" d=" M 321.43 191.93 C 321.99 191.70 323.10 191.23 323.66 191.00 C 324.42 191.84 325.20 192.67 325.98 193.50 C 325.83 193.81 325.53 194.44 325.38 194.75 C 325.99 195.41 326.60 196.07 327.21 196.73 C 328.17 198.65 329.55 200.33 330.33 202.34 C 326.64 199.65 323.67 195.88 321.43 191.93 Z" />
<path fill="#ffffff" opacity="1.00" d=" M 296.30 192.24 C 297.72 192.35 299.14 192.47 300.57 192.59 C 299.97 192.91 298.77 193.54 298.17 193.86 C 298.31 194.57 298.58 195.98 298.71 196.68 C 296.31 196.44 293.90 196.32 291.49 196.21 C 291.59 195.54 291.79 194.18 291.89 193.50 C 293.53 193.43 295.16 193.60 296.80 193.66 L 296.30 192.24 Z" />
<path fill="#ffffff" opacity="1.00" d=" M 287.63 195.20 C 287.49 193.14 289.41 193.68 290.67 193.43 C 290.63 194.10 290.55 195.42 290.52 196.09 C 289.54 195.83 288.58 195.53 287.63 195.20 Z" />
<path fill="#ffffff" opacity="1.00" d=" M 306.25 193.40 C 306.85 193.49 308.06 193.67 308.66 193.76 C 308.76 194.84 308.85 195.91 308.94 196.99 C 307.47 196.54 306.04 195.97 304.68 195.28 C 304.20 195.95 303.24 197.28 302.77 197.94 C 301.17 196.62 301.12 195.05 302.61 193.23 C 303.51 193.75 305.32 194.78 306.22 195.29 L 306.25 193.40 Z" />
<path fill="#ffffff" opacity="1.00" d=" M 214.66 206.25 C 218.14 201.67 222.84 198.24 226.63 193.94 C 226.26 194.71 225.87 195.48 225.47 196.23 C 224.70 197.68 224.71 200.64 222.23 199.35 C 221.25 200.64 220.24 201.93 219.32 203.28 C 220.38 202.56 221.43 201.81 222.45 201.04 C 222.82 201.34 223.19 201.64 223.56 201.94 C 221.06 202.69 221.21 205.63 221.70 207.67 L 220.00 205.87 L 220.00 207.33 C 219.07 207.44 217.22 207.66 216.30 207.76 C 217.91 206.16 219.36 204.42 220.64 202.54 C 218.18 202.65 217.01 207.76 214.66 206.25 Z" />
<path fill="#ffffff" opacity="1.00" d=" M 227.02 200.44 C 228.11 198.50 229.37 196.63 231.05 195.15 C 230.49 197.35 229.20 199.51 227.02 200.44 Z" />
<path fill="#ffffff" opacity="1.00" d=" M 320.88 195.24 C 322.27 194.96 322.79 195.48 322.45 196.82 C 321.01 197.10 320.49 196.57 320.88 195.24 Z" />
<path fill="#ffffff" opacity="1.00" d=" M 315.00 198.08 C 316.29 197.01 317.88 196.45 319.48 196.01 C 320.13 196.75 320.78 197.48 321.44 198.22 C 321.37 200.27 322.27 202.14 322.79 204.08 C 323.08 205.52 323.35 206.95 323.56 208.41 C 322.56 206.88 321.77 205.22 321.08 203.54 L 320.22 203.46 C 320.42 202.90 320.82 201.79 321.02 201.23 L 319.30 201.79 L 319.73 200.54 L 317.15 200.25 C 317.95 201.86 318.70 203.50 319.44 205.14 C 320.10 207.24 321.13 209.19 321.79 211.29 C 320.71 210.31 320.19 208.92 319.62 207.63 C 319.10 207.56 318.06 207.41 317.54 207.34 C 317.58 206.57 317.65 205.01 317.68 204.24 L 316.53 204.71 C 316.04 202.52 314.68 200.34 315.00 198.08 Z" />
<path fill="#ffffff" opacity="1.00" d=" M 307.87 201.70 C 309.42 200.54 310.92 199.33 312.39 198.07 C 313.72 201.40 314.80 204.82 315.87 208.25 C 314.93 206.97 313.05 204.41 312.12 203.13 C 311.46 202.73 310.81 202.35 310.17 201.96 L 310.66 204.48 C 309.47 203.80 309.05 202.75 309.43 201.33 L 307.87 201.70 Z" />
<path fill="#ffffff" opacity="1.00" d=" M 300.44 200.95 C 303.73 202.34 304.51 206.06 305.90 208.98 L 306.84 208.18 C 305.41 205.87 303.69 203.38 304.18 200.51 C 306.83 202.72 307.40 206.36 308.76 209.38 C 308.01 209.37 306.51 209.36 305.76 209.35 C 305.58 209.94 305.21 211.11 305.03 211.69 C 304.75 210.13 304.48 208.58 304.22 207.02 C 303.47 208.07 302.78 209.17 302.06 210.24 C 301.45 207.32 299.58 204.95 298.29 202.34 C 298.86 202.47 300.02 202.73 300.60 202.87 L 300.44 200.95 M 301.28 204.23 C 301.88 204.83 301.88 204.83 301.28 204.23 M 302.22 206.29 C 302.86 206.91 302.86 206.91 302.22 206.29 Z" />
<path fill="#ffffff" opacity="1.00" d=" M 296.03 203.59 C 297.53 204.41 298.07 206.05 298.79 207.50 C 298.47 207.58 297.82 207.75 297.49 207.84 C 296.96 206.43 296.43 205.03 296.03 203.59 Z" />
<path fill="#ffffff" opacity="1.00" d=" M 290.46 207.15 C 290.62 203.43 293.89 206.46 293.27 208.66 C 292.82 208.60 291.94 208.50 291.50 208.44 L 290.80 207.94 L 290.46 207.15 Z" />
<path fill="#ffffff" opacity="1.00" d=" M 289.99 208.78 L 290.67 208.72 L 290.73 209.39 L 290.05 209.46 L 289.99 208.78 Z" />
</g>
</svg>
