<?xml version="1.0" encoding="UTF-8" ?>
<!DOCTYPE svg PUBLIC "-//W3C//DTD SVG 1.1//EN" "http://www.w3.org/Graphics/SVG/1.1/DTD/svg11.dtd">
<svg width="512pt" height="256pt" viewBox="0 0 512 256" version="1.1" xmlns="http://www.w3.org/2000/svg">
<g id="#ffffffff">
<path fill="#ffffff" opacity="1.00" d=" M 141.56 39.65 C 144.40 39.51 147.24 39.32 150.09 39.30 C 151.32 41.81 152.26 44.48 151.77 47.32 C 150.94 47.31 150.11 47.30 149.28 47.28 C 149.48 45.79 149.68 44.29 149.86 42.80 C 149.37 43.84 148.89 44.89 148.44 45.95 C 145.99 45.81 143.90 44.51 142.17 42.86 C 142.93 42.39 144.45 41.45 145.21 40.98 C 143.98 40.58 142.76 40.14 141.56 39.65 Z" />
<path fill="#ffffff" opacity="1.00" d=" M 166.18 41.40 C 169.28 41.59 172.53 41.39 175.42 42.76 C 181.91 46.38 187.05 51.89 193.32 55.84 C 194.46 56.53 195.51 57.34 196.44 58.31 C 192.99 57.80 190.58 55.06 187.84 53.17 C 181.83 49.10 176.71 42.80 168.95 42.29 C 169.37 42.82 170.21 43.87 170.63 44.39 L 169.54 47.20 C 170.94 45.13 174.12 44.56 175.65 46.69 C 174.18 47.99 172.73 49.35 171.67 51.02 C 173.29 49.74 174.69 48.22 176.21 46.82 L 176.40 48.48 C 176.00 49.26 175.22 50.81 174.83 51.59 C 177.56 49.79 178.00 52.44 178.97 54.12 C 177.78 55.10 176.59 56.08 175.48 57.16 C 177.56 56.78 179.08 55.27 180.82 54.21 C 182.39 56.12 178.96 57.54 177.86 58.65 C 176.10 58.29 174.34 58.34 173.34 60.08 C 173.34 59.61 173.34 58.68 173.34 58.21 C 172.43 58.59 170.62 59.36 169.72 59.74 C 169.69 59.07 169.63 57.73 169.60 57.06 C 167.74 59.96 164.87 56.67 162.63 56.28 C 164.59 55.35 166.75 55.81 168.81 56.03 C 172.00 56.64 175.11 55.02 177.98 53.84 C 177.28 53.48 176.57 53.12 175.87 52.77 C 175.57 53.35 174.98 54.50 174.68 55.07 C 174.02 53.52 172.93 52.61 171.40 52.34 C 169.92 51.65 168.28 51.93 166.70 51.88 C 166.93 49.93 168.26 48.33 168.91 46.51 C 167.72 47.39 166.64 48.41 165.57 49.43 C 163.15 47.31 159.72 48.88 156.85 48.88 C 159.69 46.08 162.96 43.75 166.18 41.40 M 161.15 46.47 C 162.37 46.25 164.80 45.81 166.02 45.58 C 166.98 44.58 167.91 43.55 168.78 42.46 C 165.75 42.65 163.21 44.36 161.15 46.47 Z" />
<path fill="#ffffff" opacity="1.00" d=" M 206.41 55.87 C 208.62 55.87 210.72 55.19 212.84 54.64 C 216.15 55.70 219.63 56.00 222.98 56.85 C 226.28 60.23 229.01 64.15 232.65 67.22 C 232.06 67.55 231.47 67.88 230.88 68.20 C 228.59 64.45 225.44 61.35 222.62 58.02 C 220.90 57.07 218.88 56.99 217.00 56.54 C 218.59 58.36 221.00 59.76 221.47 62.33 C 220.53 61.68 219.61 61.02 218.70 60.35 C 218.37 60.60 217.71 61.09 217.38 61.34 C 216.83 60.65 215.71 59.27 215.15 58.58 C 215.32 59.35 215.66 60.90 215.83 61.68 C 214.57 60.59 213.24 59.59 211.87 58.66 C 211.77 58.22 211.57 57.35 211.48 56.91 C 212.53 57.52 213.58 58.15 214.61 58.81 C 214.57 57.91 214.48 56.10 214.43 55.19 C 211.75 55.96 209.08 56.78 206.27 56.82 C 206.30 56.58 206.37 56.11 206.41 55.87 M 215.15 56.11 C 215.77 56.76 215.77 56.76 215.15 56.11 Z" />
<path fill="#ffffff" opacity="1.00" d=" M 147.08 57.88 C 148.89 57.18 150.82 57.44 152.71 57.57 L 152.57 58.84 C 153.46 58.68 155.23 58.36 156.12 58.19 C 156.22 58.52 156.41 59.18 156.51 59.51 C 158.45 60.12 160.29 60.98 162.03 62.03 C 159.57 63.67 157.61 60.04 155.06 60.44 C 153.85 60.52 152.64 60.62 151.44 60.74 C 150.54 59.06 148.71 58.54 147.08 57.88 Z" />
<path fill="#ffffff" opacity="1.00" d=" M 170.97 61.11 C 173.16 61.67 175.10 62.84 176.96 64.08 C 174.55 64.60 172.26 63.07 170.97 61.11 Z" />
<path fill="#ffffff" opacity="1.00" d=" M 189.98 61.67 C 193.92 61.63 197.97 61.25 201.71 62.82 L 201.15 61.17 C 202.57 61.84 204.00 62.50 205.43 63.18 C 206.87 61.62 208.88 62.91 210.31 63.80 C 210.34 63.40 210.40 62.60 210.43 62.19 C 211.60 63.53 212.78 64.86 213.91 66.23 C 213.87 64.95 212.44 63.34 213.75 62.29 C 216.52 64.71 219.39 67.42 220.11 71.20 C 219.14 70.53 218.19 69.84 217.26 69.12 L 216.33 70.15 C 215.89 69.41 215.03 67.94 214.59 67.20 C 214.09 67.34 213.09 67.62 212.58 67.76 C 210.89 66.69 209.14 65.67 207.69 64.28 C 207.34 64.91 206.99 65.55 206.65 66.18 C 204.97 65.44 202.75 61.60 201.34 64.48 C 199.11 63.03 196.55 63.22 194.04 63.25 C 192.55 63.07 190.99 62.89 189.98 61.67 Z" />
<path fill="#ffffff" opacity="1.00" d=" M 216.99 63.56 C 217.64 64.23 217.64 64.23 216.99 63.56 Z" />
<path fill="#ffffff" opacity="1.00" d=" M 219.52 62.48 C 220.72 63.76 221.78 65.17 222.79 66.61 C 222.76 66.40 222.70 65.96 222.67 65.75 C 224.15 65.79 225.62 65.61 227.02 65.09 C 227.48 65.76 227.95 66.44 228.41 67.11 C 230.03 67.89 231.64 68.69 233.44 68.93 C 238.50 78.95 250.01 82.46 258.78 88.38 L 257.97 91.07 L 259.66 88.97 C 272.01 96.56 284.07 104.67 296.87 111.50 C 299.91 113.04 303.27 113.70 306.38 115.05 C 305.53 115.18 304.65 115.30 303.82 115.00 C 301.35 114.27 298.75 113.83 296.50 112.51 C 288.00 107.77 279.38 103.18 271.33 97.69 C 267.33 95.05 263.37 92.34 259.23 89.92 C 259.20 90.47 259.14 91.57 259.11 92.12 C 258.03 91.35 256.96 90.59 255.89 89.82 L 258.35 89.49 C 255.53 87.83 252.79 86.06 250.07 84.24 L 249.37 83.79 C 249.02 84.02 248.33 84.49 247.98 84.73 L 248.70 83.32 C 243.89 81.92 240.27 78.52 236.74 75.16 L 235.37 75.20 L 236.44 74.54 C 235.02 73.37 233.66 72.10 232.74 70.49 C 231.13 70.70 229.50 70.68 228.39 69.32 C 226.51 69.40 224.57 69.51 223.05 70.76 C 222.25 68.80 219.46 67.24 220.68 64.89 L 219.38 66.04 C 219.41 65.15 219.48 63.37 219.52 62.48 Z" />
<path fill="#ffffff" opacity="1.00" d=" M 139.03 63.50 C 142.35 64.17 145.75 64.61 149.10 63.86 C 152.05 65.24 154.49 67.53 157.56 68.68 C 157.23 70.08 156.88 71.48 156.40 72.84 C 154.53 70.47 152.54 68.20 150.84 65.72 C 146.57 64.31 142.45 66.50 138.47 67.78 C 136.61 69.14 134.50 70.07 132.26 70.56 C 133.32 68.96 134.75 67.67 136.21 66.44 C 136.56 66.55 137.28 66.78 137.64 66.90 C 138.42 66.67 139.97 66.23 140.74 66.01 C 140.31 65.38 139.46 64.13 139.03 63.50 Z" />
<path fill="#ffffff" opacity="1.00" d=" M 184.89 64.09 C 187.27 64.81 189.60 65.69 192.01 66.33 C 191.90 66.60 191.67 67.15 191.56 67.42 C 189.21 66.60 186.08 66.67 184.89 64.09 Z" />
<path fill="#ffffff" opacity="1.00" d=" M 180.64 65.07 C 182.88 65.66 185.08 66.56 186.82 68.14 C 184.33 68.36 182.00 67.10 180.64 65.07 Z" />
<path fill="#ffffff" opacity="1.00" d=" M 146.34 69.00 C 147.97 68.45 149.67 68.18 151.40 68.27 C 152.75 70.33 154.32 72.23 156.14 73.91 C 157.42 73.06 158.78 72.34 160.17 71.66 C 160.56 72.61 160.97 73.57 161.37 74.52 C 160.76 74.99 159.53 75.93 158.92 76.39 C 159.39 76.95 159.86 77.51 160.33 78.06 C 160.76 77.47 161.63 76.27 162.06 75.67 C 161.75 73.98 161.51 72.29 161.36 70.58 C 161.87 72.02 162.61 73.12 163.56 73.86 C 163.73 74.11 164.08 74.63 164.25 74.89 C 165.33 75.68 166.38 76.49 167.41 77.35 C 166.06 77.47 164.39 78.99 163.22 77.66 C 161.79 76.09 161.49 78.82 160.78 79.69 C 159.36 78.51 158.10 77.15 156.81 75.83 C 154.32 76.28 152.14 77.90 149.84 78.94 C 151.43 79.74 153.15 80.24 154.94 80.06 L 155.11 80.66 C 156.39 81.02 157.65 81.48 158.95 81.81 C 161.01 81.95 163.16 80.28 165.01 81.81 C 165.38 81.32 166.13 80.34 166.50 79.86 C 167.36 80.46 168.17 81.16 168.98 81.83 C 169.76 81.98 171.31 82.29 172.09 82.45 C 173.37 82.28 174.66 82.11 175.94 81.96 C 176.12 82.42 176.48 83.33 176.66 83.79 C 174.66 84.61 172.56 85.06 170.39 84.90 C 169.11 83.87 167.84 82.82 166.61 81.73 C 165.68 82.89 164.73 84.03 163.77 85.15 C 166.26 86.46 168.92 84.97 171.44 86.10 C 169.44 87.33 167.48 88.81 165.02 88.89 C 164.10 87.89 163.85 86.49 163.30 85.29 C 160.57 88.21 157.04 84.63 154.10 86.08 C 152.97 87.67 155.25 88.36 156.17 89.23 C 160.33 91.42 165.51 91.34 169.80 89.52 C 171.28 91.45 173.56 90.79 175.49 91.58 C 174.84 92.35 173.54 93.89 172.89 94.65 C 171.73 93.72 170.59 92.76 169.56 91.69 C 169.07 92.75 168.12 93.07 167.00 92.95 C 162.84 92.82 158.63 92.81 154.60 91.65 C 152.07 92.60 149.53 90.67 152.02 88.26 C 151.50 88.23 150.45 88.17 149.93 88.13 C 151.06 86.86 152.20 85.58 153.39 84.36 C 157.14 85.01 161.80 86.33 164.53 82.72 C 162.57 82.81 160.68 83.20 158.87 83.91 C 157.70 83.51 156.55 83.09 155.41 82.64 C 152.72 83.13 150.06 82.54 147.44 81.98 C 146.98 80.79 146.48 79.59 146.39 78.31 C 145.79 80.73 143.08 78.50 141.86 77.73 C 140.64 78.50 139.36 79.18 138.09 79.86 C 135.70 79.01 133.30 76.82 130.64 77.95 C 130.14 79.34 129.68 80.76 129.23 82.17 C 127.63 81.59 126.12 80.56 124.40 80.39 C 122.55 81.81 120.92 83.50 119.32 85.19 C 119.51 87.18 119.66 89.18 119.70 91.18 C 117.16 90.13 118.21 87.07 118.06 84.95 C 119.96 82.23 122.88 79.90 126.18 79.19 C 127.49 77.37 128.67 75.46 130.20 73.81 C 130.55 74.26 131.26 75.15 131.62 75.59 C 131.90 75.66 132.45 75.81 132.73 75.89 C 133.45 73.02 136.63 72.47 139.05 71.77 C 139.33 72.72 139.59 73.67 139.82 74.64 C 140.07 74.38 140.58 73.85 140.83 73.58 C 140.58 73.10 140.07 72.13 139.82 71.64 C 141.27 71.04 142.70 70.38 144.11 69.68 C 145.35 70.80 146.60 71.91 147.88 72.98 C 147.38 71.65 146.85 70.32 146.34 69.00 Z" />
<path fill="#ffffff" opacity="1.00" d=" M 196.78 70.23 C 195.15 69.88 197.16 68.40 197.22 67.59 L 197.51 69.38 C 202.88 69.16 208.42 68.66 213.55 70.67 C 217.58 73.59 222.98 74.52 225.80 79.01 C 220.64 76.13 215.69 72.64 210.09 70.71 C 205.57 69.39 200.86 73.43 196.78 70.23 Z" />
<path fill="#ffffff" opacity="1.00" d=" M 206.93 73.35 C 210.13 72.98 212.74 75.25 214.39 77.75 C 211.61 76.83 209.20 75.15 206.93 73.35 Z" />
<path fill="#ffffff" opacity="1.00" d=" M 199.82 74.05 C 200.10 74.89 200.67 76.58 200.95 77.42 C 200.86 71.97 204.88 75.08 207.24 76.38 C 205.68 76.84 204.13 76.86 202.60 76.43 C 201.80 78.19 199.92 78.81 198.31 79.57 C 198.39 79.85 198.53 80.41 198.61 80.69 C 198.39 80.47 197.95 80.03 197.73 79.82 C 195.79 80.92 193.79 81.91 191.71 82.69 C 192.35 80.29 190.39 79.13 188.76 77.90 C 190.08 77.53 191.40 77.07 192.81 77.31 C 192.73 76.98 192.58 76.32 192.51 75.99 C 194.88 75.47 197.30 75.22 199.73 75.48 L 199.82 74.05 Z" />
<path fill="#ffffff" opacity="1.00" d=" M 224.41 74.39 C 225.61 73.80 227.58 75.33 226.95 76.63 C 225.77 77.29 223.68 75.66 224.41 74.39 Z" />
<path fill="#ffffff" opacity="1.00" d=" M 234.25 74.65 C 234.53 74.79 235.09 75.06 235.37 75.20 C 237.09 76.72 238.44 78.60 239.90 80.36 C 237.58 81.41 234.31 80.00 235.56 77.08 C 235.23 76.47 234.57 75.26 234.25 74.65 Z" />
<path fill="#ffffff" opacity="1.00" d=" M 140.19 80.71 C 139.47 78.79 142.64 77.66 143.10 79.81 C 143.70 81.66 140.83 82.38 140.19 80.71 Z" />
<path fill="#ffffff" opacity="1.00" d=" M 183.64 79.68 C 185.82 79.72 188.01 79.81 190.15 80.27 C 188.94 81.15 187.82 82.54 186.14 82.16 C 185.15 81.49 184.32 80.65 183.64 79.68 Z" />
<path fill="#ffffff" opacity="1.00" d=" M 213.71 79.10 C 215.24 80.06 216.66 81.15 218.10 82.24 C 218.01 81.54 217.83 80.15 217.74 79.45 C 218.07 79.62 218.75 79.97 219.09 80.14 C 219.31 81.18 219.53 82.22 219.73 83.27 C 220.01 84.04 220.29 84.80 220.57 85.57 C 220.12 85.58 219.21 85.60 218.76 85.61 C 217.31 83.25 214.92 81.61 213.71 79.10 Z" />
<path fill="#ffffff" opacity="1.00" d=" M 203.42 82.53 C 204.65 78.18 209.59 81.03 211.98 82.65 L 212.37 81.17 C 212.88 81.64 213.39 82.12 213.90 82.59 C 211.18 82.89 208.50 83.77 205.74 83.49 L 205.20 82.34 L 203.42 82.53 Z" />
<path fill="#ffffff" opacity="1.00" d=" M 123.34 84.65 C 123.81 83.73 124.74 81.90 125.20 80.98 C 126.49 81.91 127.72 82.92 128.96 83.91 C 128.52 85.27 128.36 86.67 128.56 88.10 L 127.20 88.09 L 127.19 88.93 C 128.16 88.56 129.13 88.20 130.10 87.84 C 130.16 88.34 130.28 89.33 130.34 89.83 C 131.91 89.99 133.48 90.17 135.05 90.36 C 131.93 91.63 128.60 92.68 126.50 95.56 C 129.78 94.68 133.14 94.14 136.40 93.20 C 137.35 94.12 138.32 95.03 139.21 96.02 C 137.24 97.24 134.74 94.55 133.37 96.42 C 133.88 97.96 135.92 97.46 137.14 97.74 C 136.23 98.39 134.40 99.70 133.48 100.35 C 134.54 100.94 135.61 101.49 136.70 102.03 C 135.73 102.63 134.74 103.20 133.75 103.77 C 132.22 105.55 130.74 107.38 129.13 109.09 C 129.28 107.51 129.52 105.94 129.67 104.36 L 131.74 103.81 C 130.65 103.33 129.53 102.94 128.39 102.58 C 128.49 101.05 128.57 99.52 128.63 98.00 C 127.55 97.86 126.47 97.72 125.39 97.60 C 125.48 97.16 125.65 96.28 125.73 95.84 L 124.50 95.93 L 126.70 92.81 C 124.26 93.96 122.18 95.65 120.08 97.29 C 119.19 100.83 119.18 104.49 120.02 108.04 C 119.57 108.22 118.67 108.58 118.22 108.76 C 119.25 110.50 120.26 112.26 121.08 114.12 C 118.54 113.64 118.53 110.70 117.43 108.87 C 115.79 105.94 116.45 102.47 115.71 99.31 C 118.62 100.82 118.74 98.05 119.22 96.06 C 120.18 95.57 121.14 95.08 122.10 94.60 C 122.87 92.74 124.46 90.99 123.63 88.85 C 122.74 87.11 124.49 85.77 126.05 85.94 C 125.14 85.52 124.23 85.10 123.34 84.65 Z" />
<path fill="#ffffff" opacity="1.00" d=" M 131.91 84.00 C 132.63 82.30 133.44 82.01 134.34 83.14 C 133.70 84.24 132.89 84.52 131.91 84.00 Z" />
<path fill="#ffffff" opacity="1.00" d=" M 175.51 87.39 C 177.90 84.86 180.81 81.07 184.50 81.33 C 184.72 81.70 185.17 82.45 185.40 82.83 C 184.74 84.52 182.07 84.69 180.55 85.64 C 178.91 87.71 177.08 89.61 175.52 91.74 C 175.59 91.09 175.71 89.79 175.78 89.15 C 174.29 89.55 172.80 89.96 171.30 90.30 C 171.47 87.97 173.84 88.02 175.51 87.39 Z" />
<path fill="#ffffff" opacity="1.00" d=" M 135.54 82.60 C 135.81 82.85 136.36 83.35 136.63 83.60 L 136.88 82.29 C 137.61 82.72 139.09 83.58 139.83 84.01 C 137.78 85.35 134.94 87.49 132.42 85.98 C 133.49 84.87 134.54 83.76 135.54 82.60 Z" />
<path fill="#ffffff" opacity="1.00" d=" M 183.78 85.92 C 186.53 85.08 188.69 81.77 191.77 82.86 C 190.19 84.50 188.47 86.57 185.91 85.83 L 185.60 87.35 C 184.99 86.88 184.38 86.40 183.78 85.92 Z" />
<path fill="#ffffff" opacity="1.00" d=" M 201.88 82.63 C 203.17 82.23 204.11 82.59 204.71 83.72 C 204.56 85.10 202.49 85.85 201.58 84.73 C 201.65 84.21 201.81 83.16 201.88 82.63 Z" />
<path fill="#ffffff" opacity="1.00" d=" M 227.57 82.97 C 231.52 85.76 229.15 91.27 229.14 95.19 C 228.15 94.09 227.66 92.27 225.86 92.30 C 224.74 89.87 225.69 87.34 228.11 86.21 C 227.91 85.13 227.73 84.05 227.57 82.97 Z" />
<path fill="#ffffff" opacity="1.00" d=" M 148.65 87.09 C 148.09 85.85 149.89 84.37 151.07 84.43 C 151.47 85.65 149.87 87.26 148.65 87.09 Z" />
<path fill="#ffffff" opacity="1.00" d=" M 196.49 84.40 C 197.87 83.88 201.02 84.55 200.73 86.40 C 199.32 87.21 196.48 86.04 196.49 84.40 Z" />
<path fill="#ffffff" opacity="1.00" d=" M 245.47 84.00 C 246.10 84.18 247.35 84.54 247.98 84.73 C 248.50 84.61 249.55 84.36 250.07 84.24 L 249.36 85.46 C 250.87 86.26 252.36 87.13 253.82 88.04 C 253.03 88.63 252.25 89.23 251.48 89.85 C 254.64 90.97 257.90 92.30 260.29 94.76 C 260.67 94.16 261.06 93.56 261.45 92.96 C 267.94 96.84 273.48 102.00 279.70 106.27 C 283.09 108.04 286.56 109.65 290.12 111.09 C 291.08 111.45 291.87 112.06 292.48 112.93 C 287.39 112.46 283.02 109.68 278.46 107.68 C 280.22 110.07 283.09 111.14 285.30 113.00 C 282.15 112.44 279.68 110.25 277.03 108.64 C 274.63 106.99 271.74 105.82 270.10 103.29 C 273.35 104.00 276.06 106.00 279.05 107.35 C 273.73 102.37 267.01 99.06 261.61 94.16 C 261.40 94.70 261.19 95.24 260.99 95.79 L 262.04 96.62 L 262.68 99.08 C 258.41 95.01 253.66 91.58 248.70 88.39 L 250.71 88.48 C 250.50 88.02 250.08 87.11 249.87 86.65 C 248.32 85.90 246.79 85.11 245.47 84.00 Z" />
<path fill="#ffffff" opacity="1.00" d=" M 135.82 87.02 C 137.66 86.37 139.30 85.30 141.03 84.40 C 142.82 85.58 145.50 86.37 145.23 89.06 C 146.37 91.79 148.67 93.31 151.37 94.30 C 153.92 93.66 155.35 95.43 155.41 97.89 L 155.22 98.57 C 151.92 97.52 148.60 96.49 145.44 95.07 C 144.25 94.36 141.57 94.96 141.71 93.00 C 142.42 92.63 143.86 91.89 144.57 91.52 C 141.69 89.93 138.41 89.13 135.82 87.02 Z" />
<path fill="#ffffff" opacity="1.00" d=" M 203.94 88.48 C 205.55 87.29 207.27 86.18 209.30 85.89 C 208.14 87.03 206.87 88.07 205.63 89.13 C 207.76 88.70 209.79 87.87 211.93 87.47 C 213.70 87.53 215.31 88.41 217.02 88.84 C 217.96 90.29 218.66 92.11 220.46 92.69 C 221.72 93.92 223.24 94.83 224.57 95.97 C 223.80 97.31 222.88 98.59 221.59 99.47 C 220.47 97.58 221.59 92.51 218.16 93.47 C 216.98 90.90 214.79 89.01 212.02 88.37 C 206.80 89.18 202.76 93.21 197.55 93.89 C 195.92 94.19 194.26 94.44 192.60 94.50 C 192.62 95.05 192.64 96.17 192.65 96.73 C 193.56 96.52 195.39 96.11 196.30 95.91 C 195.19 96.91 195.66 102.60 193.47 99.63 C 192.52 100.30 191.57 100.97 190.61 101.62 C 190.45 100.89 190.14 99.43 189.99 98.70 C 189.32 98.59 188.00 98.39 187.33 98.29 L 187.70 97.48 C 185.01 98.15 182.68 96.86 181.05 94.79 C 184.29 93.61 187.63 92.73 191.04 92.20 C 189.89 93.52 188.65 94.73 187.49 96.03 C 188.43 96.42 190.31 97.19 191.25 97.58 C 192.34 96.09 192.21 94.20 192.19 92.44 C 192.79 92.16 193.99 91.58 194.58 91.29 C 194.79 91.68 195.21 92.45 195.42 92.84 C 197.65 91.25 199.72 88.15 202.88 89.52 L 202.36 88.23 C 202.75 88.30 203.54 88.42 203.94 88.48 M 193.16 97.11 C 193.18 97.42 193.21 98.05 193.23 98.36 L 194.25 98.16 L 194.60 97.27 C 194.24 97.23 193.52 97.15 193.16 97.11 Z" />
<path fill="#ffffff" opacity="1.00" d=" M 191.37 89.34 C 191.75 88.55 192.08 87.74 192.41 86.93 C 193.92 87.50 195.46 87.59 197.02 87.19 C 197.18 87.44 197.50 87.93 197.66 88.18 C 196.44 88.56 195.23 88.97 194.03 89.42 L 192.47 87.93 C 192.57 88.65 192.76 90.10 192.86 90.82 C 189.41 90.77 185.98 91.08 182.62 91.85 C 184.15 90.59 185.99 89.82 187.63 88.71 C 187.86 88.84 188.32 89.10 188.55 89.22 L 189.75 87.70 C 190.15 88.11 190.96 88.93 191.37 89.34 Z" />
<path fill="#ffffff" opacity="1.00" d=" M 148.65 88.16 C 149.86 87.60 151.55 89.29 150.71 90.46 C 149.45 91.36 147.53 89.34 148.65 88.16 Z" />
<path fill="#ffffff" opacity="1.00" d=" M 243.15 88.37 C 246.46 89.77 250.34 90.78 252.36 94.04 C 249.07 92.57 245.55 91.17 243.15 88.37 Z" />
<path fill="#ffffff" opacity="1.00" d=" M 202.79 97.15 C 202.65 92.72 207.53 91.13 211.04 90.18 C 213.73 90.28 212.99 93.55 213.38 95.33 C 212.51 95.88 211.64 96.43 210.77 96.98 C 210.08 96.02 208.72 94.09 208.04 93.13 L 208.19 97.41 C 206.39 97.40 204.58 97.32 202.79 97.15 Z" />
<path fill="#ffffff" opacity="1.00" d=" M 165.41 94.29 C 166.92 93.81 168.39 93.21 169.88 92.68 C 170.44 93.29 171.56 94.52 172.11 95.14 C 170.42 95.75 168.79 96.62 167.01 96.96 C 166.16 96.28 165.62 95.39 165.41 94.29 Z" />
<path fill="#ffffff" opacity="1.00" d=" M 154.75 94.96 C 158.04 93.07 161.93 95.02 165.48 95.14 C 165.44 95.68 165.36 96.77 165.32 97.31 L 164.89 97.96 C 164.42 97.53 163.49 96.68 163.02 96.25 C 162.79 96.81 162.56 97.37 162.34 97.94 C 160.71 98.67 158.89 99.66 157.09 98.85 C 156.91 98.49 156.54 97.77 156.36 97.40 C 157.09 97.20 158.55 96.78 159.28 96.57 C 158.07 95.33 156.42 95.03 154.75 94.96 Z" />
<path fill="#ffffff" opacity="1.00" d=" M 178.07 94.18 C 179.89 94.92 181.45 96.09 182.61 97.69 C 181.15 98.40 179.61 100.75 177.93 99.16 C 176.21 97.90 177.42 95.71 178.07 94.18 Z" />
<path fill="#ffffff" opacity="1.00" d=" M 215.84 97.68 C 216.92 97.22 218.01 96.75 219.10 96.28 C 219.73 97.44 220.31 98.70 219.92 100.07 C 218.05 101.11 216.98 98.72 215.84 97.68 Z" />
<path fill="#ffffff" opacity="1.00" d=" M 237.93 95.82 C 239.91 96.88 241.07 98.87 242.61 100.42 C 243.96 101.96 245.70 103.22 246.46 105.19 C 242.63 103.18 240.17 99.38 237.93 95.82 Z" />
<path fill="#ffffff" opacity="1.00" d=" M 141.89 97.09 C 145.56 97.87 148.87 99.78 152.47 100.77 C 154.35 100.81 156.29 100.36 158.05 101.30 C 162.04 101.01 166.28 100.13 170.15 100.76 C 170.45 101.35 171.05 102.54 171.36 103.13 C 169.65 103.32 167.94 103.38 166.22 103.32 C 163.23 102.05 159.98 102.87 156.93 101.89 C 152.78 100.31 156.30 103.59 157.28 104.47 C 155.59 104.56 153.91 104.70 152.23 104.84 C 152.70 103.73 153.17 102.62 153.63 101.50 C 151.00 100.65 149.89 102.67 148.88 104.62 C 146.64 103.65 144.08 102.95 142.54 100.90 C 144.73 101.41 146.92 102.61 149.14 101.34 C 146.92 99.57 144.01 98.99 141.89 97.09 Z" />
<path fill="#ffffff" opacity="1.00" d=" M 228.85 97.79 C 232.11 98.84 231.71 102.91 233.85 105.05 C 234.90 105.89 235.33 107.91 236.87 107.87 C 236.01 104.46 232.81 101.78 232.02 98.16 C 235.07 100.76 236.63 104.71 238.49 108.19 C 241.87 110.82 245.75 112.67 249.49 114.72 C 251.91 116.18 254.06 118.09 256.60 119.36 C 259.81 120.59 261.53 123.82 264.23 125.79 C 264.36 126.22 264.62 127.07 264.75 127.50 C 265.75 127.86 266.75 128.22 267.77 128.56 C 267.88 131.22 271.27 132.26 270.63 135.20 C 271.03 135.74 271.84 136.81 272.24 137.34 C 274.30 137.96 275.14 139.65 275.37 141.70 C 275.94 142.14 277.08 143.03 277.65 143.47 C 275.51 144.78 273.03 143.27 270.76 143.25 C 270.95 141.34 272.48 140.32 273.81 139.18 C 272.70 137.01 271.40 140.85 270.25 141.48 C 269.37 138.95 268.33 136.47 267.78 133.85 C 266.02 132.32 264.18 130.89 262.41 129.36 C 261.09 127.09 260.66 124.24 258.54 122.50 C 254.96 119.23 250.73 116.67 246.36 114.62 C 244.34 113.35 242.37 111.99 240.37 110.70 C 239.10 109.17 236.75 111.32 235.66 109.59 C 233.01 105.91 230.32 102.12 228.85 97.79 M 263.27 126.88 C 263.86 127.58 263.86 127.58 263.27 126.88 Z" />
<path fill="#ffffff" opacity="1.00" d=" M 123.64 107.71 C 124.97 104.75 123.69 100.88 126.21 98.47 C 125.16 106.77 122.66 115.03 123.71 123.48 C 124.86 125.69 125.88 127.98 126.47 130.41 C 128.69 130.35 130.82 129.68 132.97 129.18 C 131.64 128.90 130.29 128.65 128.96 128.44 C 129.11 128.05 129.42 127.25 129.58 126.86 C 127.54 126.11 126.89 124.87 127.62 123.16 C 128.28 123.51 129.59 124.20 130.24 124.55 C 129.27 123.76 128.29 122.98 127.33 122.19 C 128.71 119.99 129.39 117.19 128.47 114.70 L 128.52 114.28 C 128.81 114.15 129.37 113.89 129.66 113.75 C 130.63 117.31 130.25 121.11 131.59 124.59 C 132.22 127.31 134.87 128.67 136.60 130.62 C 135.50 131.47 134.35 132.25 133.14 132.93 C 131.87 132.19 130.63 131.43 129.40 130.63 C 128.37 131.19 125.45 131.63 126.51 133.29 C 128.19 134.81 130.36 135.92 131.13 138.22 C 132.16 139.08 133.17 139.97 134.13 140.92 C 131.73 140.92 129.53 139.94 127.40 138.96 C 128.06 137.25 126.89 136.32 125.67 135.49 C 125.47 134.11 125.33 132.73 125.26 131.34 L 123.78 131.51 C 124.40 130.99 125.00 130.45 125.60 129.91 L 123.71 129.86 C 123.78 129.05 123.84 128.23 123.91 127.42 C 121.19 121.19 122.32 114.14 123.64 107.71 Z" />
<path fill="#ffffff" opacity="1.00" d=" M 171.73 99.67 C 172.51 99.51 174.07 99.20 174.85 99.05 C 175.47 99.73 176.09 100.41 176.71 101.09 C 175.54 101.23 174.37 101.38 173.21 101.54 C 172.71 100.92 172.22 100.29 171.73 99.67 Z" />
<path fill="#ffffff" opacity="1.00" d=" M 196.56 100.61 C 197.90 97.23 201.88 100.37 204.29 100.46 C 202.66 103.34 199.02 100.67 196.56 100.61 Z" />
<path fill="#ffffff" opacity="1.00" d=" M 211.84 101.89 C 211.89 100.48 212.94 99.61 213.99 98.86 C 214.68 99.59 215.32 100.37 215.98 101.14 C 214.60 101.41 213.22 101.66 211.84 101.89 Z" />
<path fill="#ffffff" opacity="1.00" d=" M 223.71 99.37 C 224.64 99.59 225.57 99.82 226.51 100.05 C 227.62 102.28 228.97 104.42 229.63 106.85 C 226.97 105.00 225.41 102.04 223.71 99.37 Z" />
<path fill="#ffffff" opacity="1.00" d=" M 205.62 100.27 C 207.29 100.32 210.39 99.64 209.41 102.51 L 207.76 102.91 L 205.36 101.62 C 205.47 102.06 205.69 102.94 205.80 103.39 C 207.48 103.79 209.14 104.27 210.78 104.82 L 210.30 103.14 C 212.63 104.60 215.87 103.43 217.63 105.92 C 217.54 105.24 217.37 103.88 217.28 103.20 C 218.20 102.80 219.07 102.32 219.90 101.75 L 220.32 101.27 C 222.67 102.25 224.10 104.97 225.85 106.84 C 223.44 106.20 220.84 105.94 218.65 104.71 C 218.21 105.49 217.82 106.29 217.44 107.10 C 215.32 106.25 213.18 105.50 211.11 104.56 L 210.39 106.00 C 209.38 105.70 207.37 105.11 206.36 104.81 C 207.43 106.20 208.44 107.63 209.39 109.10 C 207.97 108.38 206.61 107.55 205.26 106.71 C 202.43 107.49 200.25 104.20 197.37 104.11 C 197.48 104.94 197.62 105.78 197.51 106.62 C 196.58 105.95 194.72 104.61 193.80 103.94 C 194.87 102.33 196.74 102.42 198.46 102.31 C 199.72 103.07 200.85 104.70 202.58 103.83 C 202.81 104.11 203.28 104.66 203.51 104.94 C 204.29 103.42 205.01 101.87 205.62 100.27 Z" />
<path fill="#ffffff" opacity="1.00" d=" M 183.99 102.89 C 184.77 104.45 184.70 106.16 184.41 107.83 C 184.78 107.65 185.51 107.28 185.88 107.09 C 186.13 107.47 186.62 108.24 186.87 108.62 C 185.88 109.10 184.90 109.58 183.93 110.05 C 182.62 109.59 181.38 109.75 180.22 110.54 C 181.18 108.48 181.67 106.26 181.43 103.99 C 181.88 104.14 182.79 104.45 183.24 104.61 L 183.99 102.89 Z" />
<path fill="#ffffff" opacity="1.00" d=" M 186.54 103.97 C 189.48 105.88 190.85 109.31 193.02 111.96 L 194.28 110.08 C 194.68 111.18 195.01 112.30 195.28 113.45 L 193.81 111.39 C 193.22 112.37 192.65 113.36 192.09 114.35 C 188.66 111.89 188.17 107.57 186.54 103.97 Z" />
<path fill="#ffffff" opacity="1.00" d=" M 240.84 103.74 C 243.29 104.94 245.10 107.06 247.23 108.71 C 247.61 108.11 247.99 107.51 248.37 106.91 L 246.47 105.88 C 248.93 106.31 251.46 107.28 253.92 106.32 L 253.47 107.38 L 255.78 107.73 L 255.20 105.80 C 255.58 106.09 256.36 106.68 256.75 106.97 C 256.50 108.55 256.29 110.15 256.14 111.75 C 254.09 110.58 252.21 109.16 250.25 107.86 C 249.63 108.55 249.00 109.24 248.36 109.92 C 250.45 111.27 253.78 112.52 253.53 115.58 C 249.53 111.37 244.16 108.58 240.84 103.74 Z" />
<path fill="#ffffff" opacity="1.00" d=" M 139.96 106.31 C 141.85 104.89 143.78 105.19 145.39 106.83 C 144.67 108.02 143.94 109.20 143.20 110.38 C 141.48 109.56 140.37 108.15 139.96 106.31 Z" />
<path fill="#ffffff" opacity="1.00" d=" M 135.80 106.13 C 138.77 106.25 137.19 109.11 137.43 110.80 C 133.44 111.53 134.87 116.96 133.69 119.86 C 137.59 118.95 138.09 114.32 141.02 112.30 C 143.17 112.09 142.63 114.61 143.47 115.81 C 143.54 114.63 143.60 113.45 143.64 112.27 C 145.43 112.46 147.24 112.74 149.04 112.50 C 148.92 113.07 148.68 114.21 148.55 114.78 C 149.07 114.72 150.09 114.60 150.60 114.54 C 151.27 115.56 152.01 116.52 152.84 117.41 C 152.18 115.92 151.51 114.44 150.82 112.97 C 153.27 114.31 154.97 116.54 156.71 118.65 C 155.82 118.30 154.92 117.95 154.04 117.59 C 154.01 118.24 153.95 119.56 153.92 120.21 C 153.32 119.66 152.11 118.56 151.50 118.00 C 151.62 119.00 151.87 120.99 151.99 121.99 C 151.22 121.04 149.68 119.15 148.91 118.20 L 149.58 122.00 C 149.07 121.78 148.05 121.33 147.54 121.11 L 147.80 123.70 C 146.94 122.79 146.18 121.79 145.53 120.72 C 144.90 119.73 144.34 118.68 144.13 117.51 L 143.60 116.19 C 143.07 116.49 142.02 117.10 141.49 117.40 C 141.92 119.82 142.91 122.07 143.59 124.41 C 140.99 122.79 140.63 119.37 139.19 116.86 C 139.26 119.64 140.09 122.28 141.07 124.86 C 139.11 124.73 138.27 122.61 136.52 122.25 C 136.61 122.80 136.78 123.88 136.86 124.43 C 133.94 125.13 133.14 121.28 132.43 119.22 C 133.92 114.97 134.68 110.49 135.80 106.13 Z" />
<path fill="#ffffff" opacity="1.00" d=" M 147.60 107.45 C 148.87 107.55 150.16 107.64 151.44 107.72 C 151.79 108.01 152.49 108.60 152.84 108.90 C 153.87 110.51 155.82 110.94 157.39 111.83 C 157.53 111.10 157.81 109.63 157.94 108.90 C 158.20 110.29 158.38 111.69 158.48 113.11 C 159.01 112.66 160.09 111.77 160.63 111.32 C 160.56 112.52 160.42 114.93 160.36 116.13 C 161.36 115.26 162.35 114.37 163.31 113.45 C 166.47 113.95 169.68 113.58 172.86 113.66 C 172.20 114.43 170.87 115.97 170.20 116.73 C 167.67 116.00 165.06 116.43 162.49 116.62 L 162.22 115.71 C 160.77 117.05 159.34 116.23 158.10 115.07 C 154.39 115.46 153.20 110.84 149.66 111.06 C 148.89 109.91 148.19 108.70 147.60 107.45 Z" />
<path fill="#ffffff" opacity="1.00" d=" M 176.73 107.28 C 177.31 107.86 177.88 108.44 178.46 109.02 C 176.59 112.20 173.05 111.87 169.92 111.33 C 168.58 111.41 167.24 111.45 165.90 111.43 C 166.74 110.50 167.62 109.61 168.52 108.73 C 171.02 108.78 173.50 109.05 175.98 109.44 C 176.17 108.90 176.55 107.82 176.73 107.28 Z" />
<path fill="#ffffff" opacity="1.00" d=" M 202.21 108.73 C 201.15 108.89 199.41 107.84 200.34 106.68 C 201.38 106.20 203.97 108.09 202.21 108.73 Z" />
<path fill="#ffffff" opacity="1.00" d=" M 195.22 107.53 C 200.58 108.18 204.36 112.81 209.49 114.32 C 207.17 116.44 203.91 115.20 201.10 115.36 C 198.95 114.15 197.43 112.13 195.64 110.48 L 197.26 110.85 C 197.55 110.28 197.84 109.71 198.13 109.14 L 195.22 107.53 M 198.08 112.03 C 200.60 113.39 203.40 113.95 206.25 113.95 C 204.15 112.71 201.97 111.62 199.89 110.35 C 199.29 110.91 198.69 111.47 198.08 112.03 Z" />
<path fill="#ffffff" opacity="1.00" d=" M 270.85 110.07 C 272.94 110.03 274.75 111.10 276.53 112.06 C 276.45 111.58 276.29 110.62 276.21 110.15 C 278.23 111.80 280.51 113.06 282.79 114.30 C 286.93 116.61 290.12 120.24 294.17 122.68 C 294.77 122.69 295.97 122.69 296.58 122.69 C 297.35 123.18 298.12 123.68 298.90 124.16 C 300.37 124.77 302.21 125.51 301.66 127.61 L 298.15 125.87 C 298.40 126.71 298.89 128.39 299.14 129.23 C 300.41 130.28 303.76 130.52 302.67 132.76 C 301.94 132.48 300.49 131.93 299.77 131.65 C 300.01 132.40 300.50 133.90 300.74 134.65 C 298.40 133.15 296.34 131.29 294.07 129.70 C 295.16 131.15 296.32 132.53 297.34 134.03 C 293.45 132.50 291.40 128.34 288.84 125.26 C 291.32 124.90 293.37 126.30 295.28 127.67 C 295.93 126.69 296.74 125.83 297.61 125.03 C 294.70 125.26 293.02 121.97 290.24 122.16 L 289.74 122.38 C 287.32 122.13 285.34 120.63 283.29 119.47 C 282.61 119.53 281.25 119.66 280.57 119.73 C 280.92 117.54 279.24 116.28 277.82 114.99 C 278.13 115.91 278.74 117.74 279.04 118.66 C 276.92 117.64 275.35 115.87 273.80 114.16 C 274.73 114.34 276.58 114.69 277.51 114.86 C 276.60 114.29 275.68 113.75 274.74 113.24 C 273.39 112.24 272.05 111.23 270.85 110.07 M 283.10 116.99 C 284.73 118.68 286.73 120.02 288.87 120.97 L 289.51 120.86 C 287.65 119.16 285.45 117.88 283.10 116.99 Z" />
<path fill="#ffffff" opacity="1.00" d=" M 174.22 115.59 C 174.17 112.17 178.68 112.08 180.91 113.44 C 180.71 114.13 180.30 115.51 180.10 116.21 C 180.88 115.17 181.66 114.13 182.44 113.09 C 184.39 115.08 182.02 117.46 181.87 119.67 L 181.20 118.90 C 179.35 120.83 176.81 118.97 174.75 120.24 C 174.44 120.06 173.83 119.71 173.52 119.54 C 172.61 120.38 171.69 121.21 170.78 122.03 C 167.73 121.08 164.57 121.33 161.46 121.77 C 164.57 119.50 168.11 117.79 171.88 116.98 C 172.17 116.59 172.75 115.80 173.04 115.41 C 173.33 115.45 173.92 115.55 174.22 115.59 Z" />
<path fill="#ffffff" opacity="1.00" d=" M 182.57 119.43 C 183.73 117.09 184.38 113.96 187.59 113.80 C 187.14 115.12 186.71 116.46 186.24 117.78 C 188.86 114.62 192.79 117.72 196.12 117.63 C 196.32 118.70 196.50 119.76 196.68 120.84 C 196.19 120.49 195.22 119.79 194.73 119.43 C 194.34 119.72 193.57 120.29 193.19 120.58 L 192.73 119.48 C 189.35 119.93 185.96 119.16 182.57 119.43 Z" />
<path fill="#ffffff" opacity="1.00" d=" M 209.83 114.08 C 212.27 115.06 214.76 115.92 217.16 117.00 C 215.77 118.47 214.72 120.63 212.41 120.79 C 212.34 121.06 212.19 121.62 212.12 121.90 C 209.86 120.66 207.64 119.20 206.22 116.99 C 207.13 117.26 208.04 117.56 208.94 117.87 C 205.35 112.77 210.66 117.88 212.11 118.52 C 211.13 117.15 210.37 115.67 209.83 114.08 Z" />
<path fill="#ffffff" opacity="1.00" d=" M 256.89 114.98 C 261.22 117.31 264.27 121.31 267.27 125.08 C 270.93 127.32 273.05 131.32 275.13 134.94 C 273.29 134.85 272.28 133.29 271.21 132.03 C 270.24 129.86 268.54 128.17 267.32 126.15 L 266.83 126.74 C 265.10 121.54 258.95 119.87 256.89 114.98 Z" />
<path fill="#ffffff" opacity="1.00" d=" M 111.98 126.89 C 113.49 123.12 114.74 118.91 117.89 116.15 C 116.13 119.65 114.62 123.25 113.65 127.06 C 113.99 127.68 114.66 128.92 114.99 129.54 C 115.80 127.85 116.34 125.90 117.90 124.69 C 117.64 125.39 117.13 126.80 116.88 127.50 C 117.03 127.78 117.33 128.33 117.48 128.61 C 116.94 129.41 116.44 130.22 115.98 131.06 C 117.01 133.85 119.35 135.92 121.16 138.22 C 121.75 136.62 121.91 134.46 124.05 134.44 C 123.51 136.23 122.91 138.01 122.12 139.72 C 122.82 141.16 123.56 142.59 124.14 144.08 C 121.32 142.05 120.30 138.52 117.67 136.33 C 115.36 133.45 113.97 129.97 111.98 126.89 Z" />
<path fill="#ffffff" opacity="1.00" d=" M 197.42 115.76 C 199.25 117.19 200.87 118.92 202.08 120.91 C 201.15 121.18 200.21 121.43 199.27 121.66 C 198.66 119.69 198.01 117.73 197.42 115.76 Z" />
<path fill="#ffffff" opacity="1.00" d=" M 229.62 118.01 C 231.39 117.65 233.19 117.47 235.00 117.40 C 235.52 117.88 236.56 118.83 237.08 119.30 C 236.43 120.57 236.57 121.75 237.66 122.71 C 237.02 122.66 235.73 122.58 235.09 122.54 C 235.14 122.33 235.23 121.90 235.28 121.68 C 234.22 121.50 233.17 121.33 232.11 121.16 C 231.26 120.13 230.42 119.08 229.62 118.01 Z" />
<path fill="#ffffff" opacity="1.00" d=" M 254.00 120.71 C 255.49 123.61 258.51 125.08 260.34 127.69 C 259.64 127.45 258.24 126.98 257.54 126.74 C 255.57 126.95 254.23 125.33 252.82 124.24 L 252.47 125.80 C 250.47 124.97 248.73 123.71 248.18 121.47 C 250.93 120.78 251.83 124.49 254.65 123.87 C 254.49 123.08 254.16 121.50 254.00 120.71 Z" />
<path fill="#ffffff" opacity="1.00" d=" M 308.04 121.29 C 312.48 122.50 316.80 124.14 321.34 124.99 C 320.18 123.64 318.98 122.36 317.85 121.00 C 321.38 121.94 324.97 123.43 327.37 126.31 C 325.10 125.72 323.05 124.49 320.82 123.83 C 323.97 126.82 328.89 127.94 331.13 131.82 C 327.13 130.53 324.08 127.51 320.36 125.70 C 319.23 125.44 318.11 125.14 317.01 124.79 C 313.72 125.11 310.30 123.65 308.04 121.29 Z" />
<path fill="#ffffff" opacity="1.00" d=" M 324.89 121.14 C 330.68 122.67 333.63 128.41 338.64 131.28 C 343.03 136.26 350.21 135.48 356.17 136.60 C 361.44 137.66 367.42 136.80 371.87 140.41 C 377.52 144.66 384.91 147.03 388.94 153.12 C 390.70 155.08 393.01 157.16 392.71 160.07 C 392.49 162.84 394.30 165.44 393.55 168.20 C 392.82 171.24 392.14 174.42 390.23 176.96 C 390.20 174.12 391.72 171.65 392.47 169.00 C 392.52 164.16 392.24 158.71 388.94 154.86 C 386.73 152.04 384.28 149.28 381.10 147.53 C 376.60 144.94 372.44 141.80 367.89 139.29 C 367.43 139.84 366.97 140.40 366.52 140.96 C 368.43 142.35 370.24 143.93 371.66 145.83 L 369.36 145.27 C 369.39 145.85 369.46 147.01 369.49 147.59 C 367.42 146.29 365.87 144.46 364.94 142.22 C 365.71 141.15 366.24 139.95 366.77 138.75 C 359.54 138.01 352.34 136.95 345.14 136.02 C 338.50 134.54 334.31 128.72 329.23 124.71 C 327.77 123.53 325.81 122.89 324.89 121.14 Z" />
<path fill="#ffffff" opacity="1.00" d=" M 228.97 121.60 C 230.76 122.86 232.30 124.45 233.72 126.11 C 233.51 126.58 233.10 127.50 232.89 127.97 C 234.06 130.23 236.71 131.62 236.96 134.46 C 235.70 134.91 234.40 135.26 233.09 135.51 C 231.37 134.80 230.72 132.92 229.75 131.51 C 231.46 132.23 233.23 133.02 235.13 132.59 C 233.52 131.48 231.84 130.50 230.19 129.47 C 230.46 128.97 231.01 127.97 231.28 127.47 L 231.14 126.85 C 230.36 125.12 229.57 123.39 228.97 121.60 Z" />
<path fill="#ffffff" opacity="1.00" d=" M 197.61 123.56 C 197.65 123.80 197.73 124.29 197.77 124.53 C 200.26 123.30 203.08 123.54 205.73 122.94 C 204.58 125.05 202.19 125.13 200.11 125.30 C 200.19 126.70 199.65 127.75 198.50 128.44 C 198.61 128.74 198.82 129.35 198.93 129.66 C 196.32 129.50 194.17 127.95 192.21 126.38 C 192.87 125.78 193.54 125.18 194.21 124.59 C 195.45 124.65 196.58 124.31 197.61 123.56 Z" />
<path fill="#ffffff" opacity="1.00" d=" M 244.70 124.02 C 245.26 124.40 245.82 124.78 246.38 125.16 C 246.49 125.90 246.70 127.37 246.80 128.10 C 247.31 129.20 247.70 130.34 247.97 131.53 C 250.30 130.27 252.76 131.47 252.20 134.15 C 251.05 133.62 248.74 132.56 247.59 132.03 C 249.06 134.63 251.65 136.30 253.27 138.79 C 254.14 137.92 254.99 137.02 255.94 136.23 C 256.86 136.68 257.77 137.15 258.67 137.65 C 257.95 139.69 257.23 141.85 254.89 142.56 C 254.55 142.08 253.86 141.12 253.52 140.64 C 253.20 142.74 250.59 141.70 249.83 143.13 C 250.46 145.04 253.26 143.87 254.31 145.39 C 255.23 146.67 255.90 148.10 256.65 149.49 C 252.68 148.51 248.71 147.46 246.20 143.97 C 246.60 145.45 247.02 146.94 247.46 148.42 C 249.14 149.07 250.87 149.67 252.50 150.47 C 253.04 152.01 253.38 153.62 253.70 155.22 C 253.06 157.35 250.55 156.63 248.95 156.34 C 249.93 158.12 250.68 160.07 248.63 161.00 C 248.20 160.48 247.32 159.45 246.89 158.94 C 247.08 158.36 247.48 157.19 247.67 156.60 C 252.10 156.08 249.74 150.84 247.47 149.08 C 244.93 151.19 245.36 154.76 243.24 157.08 C 243.21 154.28 241.26 150.53 244.10 148.51 C 244.97 148.54 246.70 148.59 247.56 148.61 C 246.21 145.51 242.85 147.42 240.50 147.60 C 240.12 145.69 240.06 143.51 238.37 142.21 C 238.23 144.31 238.20 146.42 238.15 148.53 C 236.26 149.06 234.74 148.41 233.65 146.82 C 233.10 146.72 232.02 146.53 231.47 146.44 L 231.61 144.45 C 230.94 144.92 229.61 145.86 228.94 146.33 C 227.84 146.11 226.73 145.89 225.63 145.67 C 226.19 144.90 226.76 144.12 227.32 143.34 C 230.17 142.33 231.64 139.68 232.81 137.08 C 234.63 137.39 236.46 137.60 238.30 137.74 C 238.66 139.21 238.98 140.68 239.31 142.17 C 242.65 143.01 246.33 142.70 249.21 144.93 C 249.87 142.53 248.02 140.98 246.54 139.46 C 246.03 136.91 249.70 140.29 250.42 139.81 C 249.96 139.00 249.04 137.38 248.58 136.57 C 245.60 134.75 244.84 131.13 243.37 128.20 C 244.74 127.22 244.37 125.44 244.70 124.02 M 234.27 141.37 C 231.38 142.41 236.45 143.81 237.45 142.93 C 238.71 141.06 235.36 140.68 234.27 141.37 Z" />
<path fill="#ffffff" opacity="1.00" d=" M 271.80 124.16 C 273.40 125.30 274.75 126.74 276.13 128.13 C 276.19 127.55 276.32 126.40 276.38 125.83 C 277.21 128.53 278.66 130.96 280.30 133.24 C 277.69 135.62 281.22 138.49 280.99 141.34 C 278.72 138.25 277.40 134.63 275.91 131.14 C 274.77 128.67 272.11 127.00 271.80 124.16 Z" />
<path fill="#ffffff" opacity="1.00" d=" M 216.22 124.98 C 217.41 124.75 218.61 124.56 219.82 124.39 C 220.19 125.50 220.78 126.46 221.60 127.29 C 221.53 128.56 221.52 129.84 221.57 131.11 C 220.29 130.58 219.79 129.89 220.07 129.04 C 220.21 128.88 220.50 128.56 220.64 128.40 C 219.47 128.43 218.29 128.43 217.13 128.41 C 220.21 128.53 220.06 132.46 222.78 133.53 C 222.48 133.62 221.88 133.82 221.58 133.92 C 220.93 133.37 219.63 132.27 218.98 131.72 C 219.56 132.77 220.72 134.88 221.29 135.93 C 220.32 135.10 218.37 133.44 217.40 132.60 C 217.23 134.00 217.25 135.41 217.14 136.81 L 217.90 137.30 C 217.05 137.71 215.35 138.52 214.49 138.93 C 214.24 134.95 214.97 131.13 215.48 127.25 C 216.03 127.42 217.14 127.74 217.70 127.91 C 217.33 127.18 216.59 125.71 216.22 124.98 Z" />
<path fill="#ffffff" opacity="1.00" d=" M 203.78 124.92 L 205.58 125.86 C 205.34 126.71 204.87 128.42 204.64 129.27 C 205.46 128.54 207.10 127.08 207.92 126.36 C 207.73 127.28 207.36 129.14 207.17 130.06 C 208.32 129.70 209.47 129.34 210.62 128.98 C 210.54 131.62 210.79 134.26 210.75 136.91 C 208.29 134.38 204.93 133.17 202.21 131.08 C 202.56 128.98 203.24 126.96 203.78 124.92 Z" />
<path fill="#ffffff" opacity="1.00" d=" M 309.61 126.54 C 314.28 127.41 317.91 130.49 321.50 133.38 C 321.60 133.79 321.79 134.61 321.88 135.01 C 322.09 135.50 322.51 136.47 322.72 136.96 C 320.73 136.63 318.99 135.54 317.19 134.73 C 317.31 134.20 317.54 133.14 317.66 132.62 C 315.61 132.85 313.71 132.51 313.42 129.94 C 314.17 130.43 315.66 131.39 316.41 131.87 L 316.55 130.65 C 314.22 129.33 311.13 128.98 309.61 126.54 Z" />
<path fill="#ffffff" opacity="1.00" d=" M 158.55 128.44 C 159.65 128.02 160.75 127.64 161.88 127.27 L 161.63 127.81 L 160.97 128.45 C 161.64 129.42 162.35 130.35 163.10 131.26 C 161.01 131.36 158.92 131.52 156.84 131.82 C 155.78 130.90 154.75 129.94 153.76 128.95 C 155.33 128.54 156.92 128.37 158.55 128.44 Z" />
<path fill="#ffffff" opacity="1.00" d=" M 163.09 128.18 C 164.71 126.82 165.71 129.38 166.90 130.01 C 166.70 129.40 166.30 128.18 166.09 127.57 C 168.13 128.19 170.67 128.05 171.92 130.10 C 173.97 132.66 176.70 134.46 179.21 136.52 C 176.97 137.80 174.71 139.04 172.47 140.33 C 171.70 139.38 170.92 138.44 170.14 137.51 C 170.67 136.41 170.69 135.25 170.19 134.05 C 170.94 133.81 172.45 133.35 173.20 133.11 C 170.45 132.91 168.72 130.71 166.69 129.20 L 167.52 132.00 C 166.27 130.78 161.97 130.59 163.09 128.18 Z" />
<path fill="#ffffff" opacity="1.00" d=" M 188.58 126.71 C 191.70 129.16 193.33 133.29 197.21 134.75 C 201.64 136.56 205.09 139.98 208.99 142.66 L 210.23 142.33 C 210.41 141.71 210.78 140.47 210.96 139.85 C 212.34 141.27 214.27 142.34 214.97 144.29 C 216.73 144.60 218.48 144.56 220.05 143.57 C 220.59 143.93 221.14 144.29 221.69 144.66 C 221.64 148.86 223.04 152.95 225.97 156.01 C 225.33 156.42 224.03 157.24 223.39 157.65 L 224.10 158.73 C 223.54 159.22 222.43 160.19 221.88 160.67 C 219.29 158.91 216.99 156.77 214.89 154.46 C 215.33 154.51 216.21 154.62 216.65 154.67 L 216.44 153.33 L 218.06 153.22 C 217.34 150.59 216.07 148.05 216.24 145.24 C 215.40 145.36 214.64 145.73 213.88 146.08 C 214.76 147.73 214.54 149.59 214.50 151.38 C 212.20 149.18 210.90 146.27 209.51 143.47 C 208.89 143.67 207.65 144.08 207.03 144.28 C 207.54 145.02 208.58 146.50 209.09 147.24 L 206.97 147.48 C 208.60 149.65 210.36 151.74 211.93 153.97 C 209.28 153.62 208.14 151.01 206.84 149.02 C 205.83 147.16 204.05 145.60 204.24 143.28 C 203.77 143.47 202.83 143.86 202.36 144.06 C 204.04 142.84 202.84 141.59 201.83 140.40 L 203.10 139.02 L 200.25 137.66 C 200.33 138.57 200.48 140.38 200.55 141.28 C 199.29 140.44 198.07 139.53 196.84 138.64 C 197.91 138.17 198.98 137.69 200.04 137.20 C 198.15 136.36 196.27 135.51 194.34 134.78 C 192.46 132.43 190.69 129.87 187.96 128.43 C 188.11 128.00 188.42 127.14 188.58 126.71 M 204.92 140.93 C 205.44 141.72 205.44 141.72 204.92 140.93 Z" />
<path fill="#ffffff" opacity="1.00" d=" M 238.93 131.43 C 236.72 130.95 235.57 129.12 235.60 126.98 C 236.37 127.12 237.93 127.41 238.71 127.55 C 238.78 128.84 238.86 130.13 238.93 131.43 Z" />
<path fill="#ffffff" opacity="1.00" d=" M 282.04 126.50 C 284.31 127.99 285.34 130.61 286.87 132.74 L 284.52 132.45 C 284.39 131.98 284.13 131.04 284.01 130.57 C 283.27 132.35 283.20 134.18 284.52 135.71 C 285.06 135.63 286.12 135.46 286.65 135.38 C 286.34 136.16 285.73 137.74 285.42 138.53 C 284.32 137.39 283.61 135.98 282.93 134.58 C 281.51 132.38 280.13 130.14 279.16 127.70 C 280.05 128.52 281.82 130.15 282.71 130.97 C 282.54 129.85 282.21 127.61 282.04 126.50 Z" />
<path fill="#ffffff" opacity="1.00" d=" M 151.53 129.76 C 151.80 129.42 152.36 128.74 152.63 128.40 C 153.74 129.54 154.86 130.67 155.92 131.86 C 154.92 132.01 152.92 132.31 151.91 132.46 L 150.69 130.72 C 150.27 131.30 149.86 131.90 149.47 132.50 C 148.62 132.56 146.93 132.70 146.09 132.77 C 145.46 131.91 144.85 131.06 144.32 130.15 C 144.95 130.30 146.22 130.62 146.85 130.77 L 147.05 129.57 C 147.77 129.95 149.21 130.69 149.93 131.06 L 150.16 128.89 L 151.53 129.76 Z" />
<path fill="#ffffff" opacity="1.00" d=" M 224.62 127.45 C 225.60 127.94 226.59 128.44 227.57 128.94 C 228.03 131.17 228.86 133.28 230.10 135.19 C 229.24 137.83 227.14 139.75 224.81 141.13 C 222.03 142.98 220.76 138.45 218.93 137.06 C 218.99 136.82 219.11 136.33 219.17 136.09 C 220.48 136.51 221.23 137.86 222.38 138.58 C 224.26 137.87 225.92 133.89 227.77 136.59 C 227.60 135.85 227.44 135.11 227.29 134.38 C 226.52 133.64 225.74 132.91 224.98 132.18 C 224.87 130.60 224.75 129.02 224.62 127.45 Z" />
<path fill="#ffffff" opacity="1.00" d=" M 256.49 128.71 C 257.83 129.58 259.16 130.50 260.33 131.60 C 260.08 132.52 259.59 134.36 259.34 135.28 C 258.21 134.52 257.02 133.83 256.00 132.93 C 255.61 131.53 256.37 130.09 256.49 128.71 Z" />
<path fill="#ffffff" opacity="1.00" d=" M 304.65 129.09 C 309.27 129.88 312.86 133.23 316.63 135.77 L 315.93 136.41 C 319.38 136.60 322.47 139.18 324.34 141.97 C 320.42 140.71 316.88 138.56 313.30 136.57 C 313.87 136.47 315.02 136.28 315.60 136.18 C 312.16 133.48 307.83 132.11 304.65 129.09 Z" />
<path fill="#ffffff" opacity="1.00" d=" M 179.77 130.18 C 184.28 132.29 187.90 136.15 190.77 140.13 C 188.57 138.92 187.25 136.58 184.98 135.50 C 182.70 134.44 180.38 132.77 179.77 130.18 Z" />
<path fill="#ffffff" opacity="1.00" d=" M 134.32 133.90 C 135.20 132.71 136.17 131.57 137.16 130.46 C 138.74 132.89 143.87 130.01 143.71 133.52 C 142.32 134.31 140.75 134.27 139.21 134.24 C 137.58 134.25 135.94 134.10 134.32 133.90 Z" />
<path fill="#ffffff" opacity="1.00" d=" M 175.96 132.38 C 176.18 131.72 176.61 130.40 176.83 129.74 C 179.75 132.62 182.64 135.69 186.57 137.22 C 184.77 137.25 182.97 137.35 181.18 137.54 C 182.13 138.88 183.08 140.22 184.04 141.56 C 183.32 141.33 181.87 140.87 181.15 140.64 L 180.73 140.82 C 179.89 140.64 179.07 140.40 178.27 140.11 C 179.40 141.20 180.45 142.37 181.42 143.61 L 181.94 144.03 C 182.53 144.82 183.71 146.42 184.30 147.22 C 181.20 145.61 177.85 144.18 175.47 141.51 C 176.06 140.95 176.65 140.39 177.24 139.84 C 178.42 139.42 179.57 138.94 180.69 138.38 C 180.86 136.13 178.98 134.86 177.68 133.36 L 177.33 132.48 L 175.96 132.38 Z" />
<path fill="#ffffff" opacity="1.00" d=" M 240.40 131.37 C 241.28 131.56 242.16 131.75 243.05 131.94 C 243.30 133.49 243.55 135.03 243.82 136.58 C 242.56 136.60 241.29 136.62 240.03 136.65 C 240.16 134.89 240.29 133.13 240.40 131.37 Z" />
<path fill="#ffffff" opacity="1.00" d=" M 288.59 131.42 C 288.89 131.32 289.49 131.12 289.79 131.02 C 290.66 134.89 294.01 137.18 295.33 140.75 L 294.38 140.91 C 294.09 140.16 293.51 138.66 293.23 137.90 C 293.25 139.08 293.31 141.42 293.33 142.60 C 290.59 139.41 291.64 134.57 288.59 131.42 Z" />
<path fill="#ffffff" opacity="1.00" d=" M 166.48 133.92 C 166.30 132.53 169.18 131.84 169.39 133.50 C 169.71 134.33 169.13 136.40 167.93 135.70 C 167.57 135.25 166.84 134.37 166.48 133.92 Z" />
<path fill="#ffffff" opacity="1.00" d=" M 157.66 134.54 C 158.87 134.27 160.06 133.90 161.22 133.42 C 162.32 134.37 163.25 135.53 164.52 136.30 C 162.05 136.62 159.82 134.96 157.26 135.76 C 157.43 138.91 154.85 136.58 153.68 136.09 C 151.70 135.37 151.32 138.28 150.28 139.35 C 148.77 140.12 147.28 140.15 145.79 139.45 C 145.33 140.08 144.88 140.73 144.44 141.38 C 143.32 140.28 142.07 140.52 140.84 141.23 C 138.34 139.70 134.69 139.56 133.58 136.42 C 135.98 136.85 138.42 138.42 140.84 137.20 C 141.47 137.85 142.74 139.14 143.37 139.79 C 143.79 138.62 144.14 137.43 144.50 136.25 L 145.84 138.01 L 145.83 136.33 C 148.20 135.64 150.60 135.01 152.99 134.36 C 154.49 134.95 156.10 134.64 157.66 134.54 Z" />
<path fill="#ffffff" opacity="1.00" d=" M 164.52 136.30 C 164.32 135.57 162.56 133.66 163.77 133.29 C 164.80 133.90 167.77 135.78 165.82 136.84 C 165.49 136.70 164.85 136.43 164.52 136.30 Z" />
<path fill="#ffffff" opacity="1.00" d=" M 261.18 133.00 C 262.78 134.01 265.59 134.56 265.07 137.02 C 265.43 137.28 266.15 137.80 266.52 138.06 C 266.47 139.41 266.50 140.76 266.59 142.11 C 267.89 144.07 269.56 145.84 269.97 148.27 C 270.33 147.75 271.04 146.71 271.39 146.20 C 272.50 147.31 273.63 148.41 274.54 149.71 C 274.82 149.63 275.38 149.47 275.66 149.39 C 275.60 149.80 275.47 150.63 275.41 151.04 C 278.33 150.31 279.70 152.43 279.14 154.98 C 279.00 157.37 278.82 159.81 276.87 161.49 C 278.36 161.45 279.79 161.85 280.99 162.73 C 280.98 163.59 280.96 165.30 280.94 166.16 C 280.49 166.04 279.59 165.80 279.14 165.67 L 279.53 166.77 C 278.62 166.57 277.71 166.38 276.80 166.18 C 276.07 165.87 274.61 165.26 273.88 164.96 C 274.99 163.67 276.32 162.52 277.08 160.98 C 275.64 159.39 273.69 160.13 271.88 160.17 C 270.81 158.09 272.27 156.15 272.74 154.15 C 272.37 152.47 271.52 150.96 270.78 149.42 L 271.57 148.94 L 273.99 151.53 C 274.46 147.57 270.77 148.56 268.52 148.59 C 269.06 149.52 270.16 151.40 270.70 152.34 C 269.06 151.66 267.47 150.87 265.94 149.98 C 266.34 150.34 267.15 151.07 267.55 151.44 C 267.62 152.80 267.77 154.15 268.01 155.49 C 268.55 154.76 269.64 153.29 270.19 152.56 C 269.61 154.41 268.79 156.24 268.92 158.24 C 266.33 156.40 264.65 153.81 263.67 150.81 C 265.02 149.58 266.62 148.39 266.97 146.46 L 267.71 146.49 C 266.97 144.81 266.28 143.12 265.71 141.38 C 264.22 140.01 262.80 138.57 261.47 137.06 L 264.97 137.93 C 263.31 136.59 261.05 135.49 261.18 133.00 Z" />
<path fill="#ffffff" opacity="1.00" d=" M 284.48 134.31 C 286.20 130.87 287.14 134.78 288.12 135.87 C 289.56 138.09 291.38 140.50 290.81 143.31 C 288.14 141.17 288.21 137.36 286.64 134.51 L 284.48 134.31 Z" />
<path fill="#ffffff" opacity="1.00" d=" M 302.08 136.45 C 305.84 137.48 308.62 140.26 309.74 143.97 C 310.83 143.61 311.91 143.24 312.99 142.83 C 313.10 143.65 313.31 145.29 313.42 146.11 C 313.75 145.57 314.42 144.48 314.75 143.93 C 315.23 144.62 315.71 145.32 316.19 146.02 C 319.11 146.90 318.16 149.75 317.37 151.86 C 313.91 148.60 308.97 146.48 307.07 141.88 C 306.15 139.48 303.66 138.35 302.08 136.45 Z" />
<path fill="#ffffff" opacity="1.00" d=" M 299.21 137.33 C 299.55 137.22 300.22 137.01 300.55 136.90 C 300.59 137.42 300.66 138.46 300.69 138.98 L 300.90 139.84 L 302.62 139.39 C 304.76 140.18 306.19 141.93 306.97 144.04 C 305.10 143.61 303.20 143.22 301.27 143.31 C 300.21 141.73 298.09 140.41 298.37 138.29 L 298.74 137.79 L 299.21 137.33 Z" />
<path fill="#ffffff" opacity="1.00" d=" M 337.32 137.48 C 338.68 136.80 341.23 138.42 340.14 140.00 C 338.75 141.05 336.51 138.90 337.32 137.48 Z" />
<path fill="#ffffff" opacity="1.00" d=" M 160.58 136.93 C 162.34 138.12 165.24 140.03 166.80 137.54 L 167.72 138.96 C 167.91 138.51 168.28 137.61 168.47 137.16 C 169.28 138.37 170.12 139.58 170.94 140.79 C 169.29 140.97 166.95 142.20 166.83 139.24 C 166.36 140.01 165.89 140.78 165.43 141.55 C 163.00 141.19 161.22 139.26 160.58 136.93 Z" />
<path fill="#ffffff" opacity="1.00" d=" M 186.25 138.25 C 186.54 138.55 186.54 138.55 186.25 138.25 Z" />
<path fill="#ffffff" opacity="1.00" d=" M 216.95 138.49 L 217.58 138.40 L 217.66 139.04 L 217.03 139.12 L 216.95 138.49 Z" />
<path fill="#ffffff" opacity="1.00" d=" M 240.64 138.21 C 241.47 138.16 243.12 138.07 243.95 138.03 C 244.53 139.08 245.10 140.15 245.65 141.23 C 243.36 141.36 240.92 140.91 240.64 138.21 Z" />
<path fill="#ffffff" opacity="1.00" d=" M 114.07 146.02 C 114.88 143.63 115.52 141.11 117.36 139.27 C 117.13 140.41 116.90 141.56 116.65 142.70 C 117.23 142.74 118.38 142.82 118.95 142.86 C 118.55 143.02 117.74 143.33 117.33 143.49 C 117.53 145.90 117.47 148.31 117.06 150.70 C 118.23 152.26 120.06 153.47 119.92 155.67 C 120.73 157.02 121.53 158.37 122.39 159.69 C 122.81 157.67 122.97 155.53 124.05 153.72 C 124.22 155.91 124.18 158.10 124.17 160.29 C 125.95 161.04 126.35 162.71 126.54 164.45 C 127.28 165.04 128.07 165.58 128.85 166.12 C 127.66 166.37 126.48 166.62 125.30 166.89 C 123.84 165.13 122.32 163.28 122.48 160.85 C 119.30 156.16 115.13 151.77 114.07 146.02 Z" />
<path fill="#ffffff" opacity="1.00" d=" M 153.68 139.78 C 155.40 139.44 157.09 139.01 158.80 138.63 C 160.44 140.97 162.28 143.16 163.96 145.47 C 161.93 145.18 159.85 144.51 157.90 145.50 C 156.61 143.78 155.87 141.79 155.16 139.79 L 155.71 142.14 C 154.48 142.27 153.26 142.42 152.04 142.60 C 152.45 141.89 153.27 140.49 153.68 139.78 Z" />
<path fill="#ffffff" opacity="1.00" d=" M 334.77 139.94 C 335.17 140.71 335.57 141.48 335.96 142.27 C 337.65 143.75 339.51 145.02 341.24 146.46 L 338.48 146.23 C 338.86 147.03 339.60 148.62 339.97 149.42 C 337.81 147.93 336.58 145.52 334.73 143.71 C 334.74 142.46 334.74 141.20 334.77 139.94 Z" />
<path fill="#ffffff" opacity="1.00" d=" M 148.65 142.38 C 150.13 139.85 151.14 142.96 152.26 144.11 L 151.93 144.94 C 152.33 144.38 153.12 143.26 153.52 142.70 C 154.53 143.73 155.98 144.50 156.21 146.07 C 153.78 147.30 151.39 146.15 149.88 144.10 C 148.95 144.88 148.02 145.66 147.10 146.45 C 146.19 145.45 145.29 144.46 144.40 143.45 C 145.79 143.00 147.20 142.59 148.65 142.38 Z" />
<path fill="#ffffff" opacity="1.00" d=" M 167.41 143.69 C 169.50 143.94 171.61 143.90 173.62 143.19 C 175.03 144.49 176.44 145.80 177.84 147.12 C 179.56 148.95 181.46 150.79 182.21 153.27 C 180.26 152.80 179.30 151.19 178.70 149.43 C 177.28 149.96 176.54 149.03 175.99 147.85 C 175.15 146.95 174.31 146.04 173.37 145.25 C 173.45 145.84 173.60 147.02 173.68 147.61 C 173.08 147.68 171.88 147.82 171.28 147.89 C 169.99 146.49 168.65 145.13 167.41 143.69 Z" />
<path fill="#ffffff" opacity="1.00" d=" M 259.04 144.80 C 258.69 144.18 257.98 142.94 257.62 142.32 C 259.73 143.69 262.24 144.72 263.54 147.03 C 262.90 147.08 261.62 147.17 260.99 147.22 L 261.04 145.34 C 260.04 147.16 258.98 148.94 256.60 148.89 C 256.67 147.58 253.92 144.77 256.37 144.57 L 259.04 144.80 Z" />
<path fill="#ffffff" opacity="1.00" d=" M 124.97 148.10 C 124.67 146.38 126.31 145.30 127.19 144.07 C 127.61 146.28 130.05 150.08 127.43 151.54 C 126.44 150.52 125.59 149.37 124.97 148.10 Z" />
<path fill="#ffffff" opacity="1.00" d=" M 129.77 143.99 C 131.07 144.08 132.37 144.17 133.67 144.28 C 133.56 144.76 133.33 145.72 133.22 146.20 C 135.17 146.07 137.62 145.09 138.92 147.22 L 139.14 146.19 C 140.21 147.94 141.12 149.76 140.88 151.89 C 142.53 153.94 142.71 156.64 142.97 159.16 C 140.67 157.31 140.31 154.22 139.45 151.59 C 138.20 151.05 136.95 150.49 135.72 149.91 C 136.33 149.54 137.54 148.79 138.15 148.41 C 135.84 148.79 133.52 148.66 131.21 148.43 C 131.35 147.71 131.64 146.28 131.79 145.56 C 131.28 145.17 130.27 144.38 129.77 143.99 Z" />
<path fill="#ffffff" opacity="1.00" d=" M 281.09 145.17 C 281.94 145.91 282.73 146.71 282.96 147.88 C 283.86 150.50 285.84 152.57 286.51 155.30 C 285.41 154.95 284.32 154.58 283.25 154.17 C 282.85 154.79 282.46 155.41 282.06 156.03 C 282.39 153.25 280.33 151.05 280.65 148.30 L 280.23 147.79 C 279.91 146.91 280.20 146.04 281.09 145.17 Z" />
<path fill="#ffffff" opacity="1.00" d=" M 224.01 150.09 C 223.74 148.64 223.38 147.16 223.81 145.71 C 224.39 146.34 225.53 147.60 226.11 148.24 C 226.53 149.24 226.97 150.24 227.48 151.21 C 227.44 150.37 227.35 148.70 227.31 147.86 C 228.34 148.37 229.37 148.88 230.41 149.39 C 230.99 149.07 232.15 148.42 232.74 148.10 C 232.98 150.45 233.27 152.80 233.75 155.12 C 232.59 154.81 231.44 154.49 230.29 154.16 C 229.74 154.42 228.64 154.95 228.09 155.21 C 226.69 153.54 225.34 151.82 224.01 150.09 Z" />
<path fill="#ffffff" opacity="1.00" d=" M 318.31 153.15 C 319.25 150.45 320.81 148.02 321.94 145.40 C 321.83 146.37 321.63 148.30 321.53 149.27 C 322.28 148.66 323.77 147.44 324.52 146.83 C 324.17 147.66 323.45 149.32 323.10 150.15 C 324.84 150.00 326.68 148.84 328.31 150.15 C 327.04 150.45 325.82 150.90 324.67 151.51 C 326.58 151.70 328.49 151.51 330.35 151.05 C 329.10 152.44 328.36 154.05 328.54 155.96 L 329.89 155.95 C 329.85 155.43 329.78 154.38 329.75 153.86 C 330.41 153.49 331.73 152.75 332.39 152.38 C 332.79 153.76 333.19 155.15 333.59 156.54 C 334.47 155.68 335.37 154.84 336.29 154.02 C 336.11 155.28 335.73 157.79 335.55 159.05 C 338.36 157.34 336.78 154.05 338.46 151.88 C 338.61 153.74 338.70 155.60 338.73 157.47 C 339.38 155.97 340.05 154.47 340.74 152.98 C 341.06 155.27 340.44 157.50 339.18 159.42 C 335.96 159.93 332.50 161.28 329.36 159.73 C 328.31 158.82 327.41 157.77 326.49 156.76 C 326.18 157.01 325.58 157.52 325.28 157.78 C 325.43 157.09 325.72 155.72 325.86 155.03 L 322.87 157.01 C 323.08 156.34 323.50 155.00 323.71 154.33 L 320.97 155.52 C 321.66 154.66 323.04 152.94 323.73 152.08 C 322.06 153.09 320.30 153.99 318.31 153.15 Z" />
<path fill="#ffffff" opacity="1.00" d=" M 195.89 150.71 C 193.83 148.73 197.90 145.40 198.24 148.85 C 197.84 150.08 197.06 150.70 195.89 150.71 Z" />
<path fill="#ffffff" opacity="1.00" d=" M 360.94 149.84 C 361.51 148.75 362.28 147.78 362.98 146.77 C 366.24 148.96 369.50 151.29 370.89 155.14 C 371.51 156.51 373.46 157.91 372.27 159.50 C 369.43 157.38 367.05 154.73 364.45 152.34 C 365.37 151.96 366.30 151.58 367.23 151.21 C 365.71 150.20 364.16 149.26 362.56 148.40 C 362.99 150.69 363.25 153.12 364.63 155.08 C 366.15 157.61 369.69 158.29 370.66 161.24 C 365.32 159.64 362.97 154.51 360.94 149.84 M 367.16 153.23 C 367.76 154.51 368.65 155.27 369.83 155.49 C 369.72 154.20 369.16 153.10 368.14 152.19 C 367.23 151.92 366.90 152.27 367.16 153.23 Z" />
<path fill="#ffffff" opacity="1.00" d=" M 157.50 147.65 C 158.72 148.16 160.00 148.36 161.20 147.66 C 162.15 148.44 163.08 149.26 163.99 150.10 C 162.41 150.33 160.82 150.56 159.25 150.85 C 158.09 150.03 157.51 148.96 157.50 147.65 Z" />
<path fill="#ffffff" opacity="1.00" d=" M 200.93 149.00 C 202.77 151.90 205.24 154.29 208.06 156.24 C 207.14 157.00 206.23 157.79 205.34 158.59 C 206.59 158.27 207.37 157.09 208.41 156.42 C 210.99 159.70 214.30 162.34 218.10 164.06 C 220.36 164.84 221.13 167.26 223.05 168.49 C 222.49 169.16 221.94 169.84 221.39 170.52 C 219.70 170.71 218.00 170.74 216.31 170.59 C 216.85 171.17 217.93 172.34 218.47 172.93 C 215.78 170.85 214.48 174.82 211.98 175.06 C 213.07 173.80 214.29 172.68 215.56 171.60 C 215.41 169.66 216.90 168.44 218.04 167.11 C 217.43 167.16 216.20 167.26 215.58 167.31 C 216.18 166.69 217.37 165.46 217.97 164.84 C 215.47 163.85 212.68 163.07 211.24 160.57 C 210.58 161.34 209.92 162.11 209.26 162.87 C 209.15 162.41 208.95 161.47 208.85 161.01 C 208.55 161.22 207.96 161.64 207.66 161.85 C 206.40 161.19 205.11 160.59 203.78 160.09 C 201.86 160.68 199.91 161.16 197.93 161.53 C 198.69 160.38 199.63 159.30 199.90 157.90 C 198.76 158.99 197.83 160.27 196.90 161.54 L 196.69 159.46 C 195.35 160.38 194.00 161.30 192.62 162.16 L 192.49 162.94 C 187.88 162.77 190.91 158.89 193.40 158.52 C 196.78 157.64 200.06 156.40 203.47 155.59 C 203.49 156.23 203.52 157.52 203.54 158.16 C 203.72 156.77 203.87 155.38 203.98 153.99 C 202.88 152.98 201.40 153.39 200.09 153.60 C 194.97 154.99 189.98 156.83 185.36 159.47 C 187.26 155.09 192.62 154.30 196.63 152.87 C 198.14 151.67 199.58 150.38 200.93 149.00 Z" />
<path fill="#ffffff" opacity="1.00" d=" M 237.06 150.29 C 237.77 149.83 239.19 148.90 239.90 148.44 C 240.33 151.82 239.65 155.22 239.81 158.61 C 237.53 157.52 237.21 155.29 237.83 153.05 L 235.88 153.84 C 236.18 152.95 236.77 151.18 237.06 150.29 Z" />
<path fill="#ffffff" opacity="1.00" d=" M 145.11 149.88 C 145.48 150.54 146.21 151.87 146.58 152.53 C 147.23 151.34 148.19 150.54 149.46 150.12 C 148.92 151.47 148.39 152.82 147.86 154.18 C 149.25 152.76 150.59 151.29 152.04 149.94 L 151.16 153.25 C 151.94 152.94 152.72 152.63 153.50 152.34 C 152.84 154.43 152.26 156.54 151.78 158.68 C 151.03 155.98 148.04 155.17 145.56 155.42 C 145.58 156.40 145.62 158.36 145.64 159.33 C 144.50 156.40 143.05 152.68 145.11 149.88 Z" />
<path fill="#ffffff" opacity="1.00" d=" M 173.36 150.41 C 176.21 149.44 178.05 152.67 179.85 154.30 C 177.86 154.03 175.89 153.72 173.89 153.55 C 174.09 153.12 174.48 152.27 174.67 151.85 C 174.35 151.49 173.69 150.77 173.36 150.41 Z" />
<path fill="#ffffff" opacity="1.00" d=" M 257.78 150.33 C 259.47 150.67 260.46 152.45 260.23 154.18 C 260.71 152.89 261.10 151.58 261.52 150.27 C 262.98 151.41 263.11 153.13 263.14 154.83 L 261.77 153.13 C 261.47 153.65 261.17 154.17 260.87 154.68 C 259.49 153.92 258.10 153.11 256.49 153.04 C 256.91 152.13 257.30 151.21 257.78 150.33 Z" />
<path fill="#ffffff" opacity="1.00" d=" M 164.52 150.89 C 167.00 151.78 169.50 152.83 171.45 154.67 C 168.40 155.25 165.96 153.40 164.52 150.89 Z" />
<path fill="#ffffff" opacity="1.00" d=" M 287.90 161.33 C 289.43 158.17 291.32 155.08 290.85 151.41 C 291.69 151.34 293.37 151.19 294.22 151.12 C 294.74 152.92 295.38 154.69 296.22 156.37 C 295.95 154.23 295.58 152.10 295.31 149.96 C 299.66 151.35 298.14 156.41 298.46 159.87 C 298.10 160.43 297.38 161.54 297.02 162.10 C 296.70 160.43 296.76 158.57 295.41 157.33 C 295.20 159.12 295.08 160.91 295.06 162.71 C 294.53 162.29 293.48 161.44 292.96 161.02 C 293.46 158.57 294.22 156.17 294.72 153.72 C 294.20 153.60 293.18 153.36 292.67 153.24 C 292.56 156.04 293.15 159.16 291.10 161.45 C 290.99 160.89 290.76 159.76 290.65 159.19 C 289.96 159.73 288.59 160.79 287.90 161.33 Z" />
<path fill="#ffffff" opacity="1.00" d=" M 303.33 151.31 C 303.91 151.31 305.07 151.31 305.65 151.31 C 306.49 152.03 307.32 152.76 308.14 153.51 C 310.32 153.52 312.42 155.44 311.47 157.71 C 312.33 158.89 312.91 160.23 313.39 161.61 C 311.96 161.62 310.52 161.63 309.09 161.64 C 309.35 159.79 309.22 157.83 310.14 156.12 C 308.36 157.37 307.30 156.92 306.97 154.76 C 305.80 153.56 304.59 152.41 303.33 151.31 Z" />
<path fill="#ffffff" opacity="1.00" d=" M 301.05 152.50 C 303.20 153.39 302.49 155.65 302.72 157.45 C 304.42 158.83 305.15 160.50 304.27 162.67 C 302.45 162.66 300.65 162.55 298.85 162.49 C 299.48 159.14 300.50 155.87 301.05 152.50 Z" />
<path fill="#ffffff" opacity="1.00" d=" M 374.11 154.45 C 374.23 154.12 374.47 153.46 374.59 153.12 C 376.24 154.66 377.44 156.58 378.80 158.36 C 378.73 158.92 378.60 160.02 378.53 160.58 L 376.43 160.12 C 377.88 161.52 380.13 163.08 378.03 164.90 C 376.94 163.98 375.85 163.07 374.76 162.16 C 375.09 161.77 375.74 160.99 376.07 160.59 C 375.51 159.65 374.99 158.71 374.46 157.76 L 377.22 158.09 C 376.44 157.18 374.89 155.36 374.11 154.45 Z" />
<path fill="#ffffff" opacity="1.00" d=" M 355.57 155.97 C 356.61 155.15 357.67 154.37 358.75 153.62 C 359.41 154.86 359.71 156.18 359.65 157.58 L 360.32 157.46 C 360.38 159.28 360.65 161.09 360.75 162.91 C 363.45 163.51 362.45 166.12 362.12 168.05 C 363.21 169.25 362.99 170.85 362.06 172.08 C 361.36 171.85 359.97 171.40 359.27 171.17 C 360.26 170.22 361.48 169.41 361.48 167.80 C 360.77 168.16 359.34 168.89 358.62 169.25 C 358.65 168.88 358.70 168.16 358.72 167.79 C 357.82 167.37 356.93 166.94 356.05 166.50 C 355.69 167.19 354.97 168.57 354.62 169.26 C 354.03 168.17 353.49 167.09 352.92 166.00 C 352.63 168.12 351.75 170.04 350.28 171.63 C 350.40 170.78 350.64 169.08 350.76 168.24 C 349.59 169.79 348.20 171.16 346.63 172.30 C 347.55 170.79 349.40 167.75 350.33 166.23 C 348.72 168.78 346.61 170.38 344.00 171.03 C 344.82 169.87 345.72 168.76 346.66 167.68 C 346.70 165.83 346.83 163.98 346.94 162.15 L 344.54 164.27 L 342.69 161.38 C 342.72 164.11 342.62 166.84 342.51 169.56 C 339.49 170.14 337.36 167.75 335.05 166.30 C 335.59 165.67 336.67 164.41 337.22 163.78 C 336.65 164.04 335.51 164.55 334.94 164.81 C 333.75 164.54 332.56 164.26 331.37 163.99 C 332.84 163.09 334.47 162.46 336.17 163.12 C 337.53 162.11 338.89 161.09 340.29 160.12 C 339.99 161.00 339.39 162.77 339.08 163.65 C 341.97 160.96 344.35 157.81 347.08 154.98 C 347.78 155.53 348.49 156.08 349.20 156.63 L 349.71 154.93 C 348.98 157.91 350.48 160.80 351.44 163.56 C 352.07 163.65 353.31 163.81 353.93 163.90 C 354.45 163.30 355.48 162.11 355.99 161.52 L 355.45 165.14 C 356.65 165.26 357.85 165.36 359.06 165.45 L 358.87 163.38 L 356.93 163.78 C 356.45 162.12 355.80 160.50 354.52 159.29 C 354.91 158.87 355.69 158.03 356.08 157.60 L 353.58 157.55 C 354.23 157.01 354.90 156.48 355.57 155.97 M 346.69 157.01 C 345.84 158.52 343.68 159.50 343.64 161.32 C 345.68 161.27 347.00 158.41 348.10 156.86 C 347.75 156.89 347.05 156.97 346.69 157.01 M 347.36 165.04 C 348.59 165.01 350.22 163.51 349.93 162.24 C 348.72 162.27 346.93 163.75 347.36 165.04 Z" />
<path fill="#ffffff" opacity="1.00" d=" M 155.61 162.05 C 156.39 159.62 157.97 157.59 159.28 155.44 C 159.71 156.17 160.58 157.65 161.01 158.39 C 161.11 157.88 161.31 156.87 161.41 156.37 C 162.30 157.32 163.21 158.25 164.12 159.19 C 163.21 160.54 162.36 161.93 161.58 163.36 C 160.45 163.31 159.97 162.37 160.23 161.11 C 158.39 162.67 157.59 165.02 155.87 166.67 C 154.53 165.38 152.88 162.89 155.61 162.05 Z" />
<path fill="#ffffff" opacity="1.00" d=" M 231.86 157.67 C 232.10 157.28 232.57 156.49 232.81 156.09 C 232.52 159.21 232.82 162.32 233.11 165.43 C 231.48 164.48 228.87 164.03 228.62 161.76 C 229.10 161.66 230.05 161.45 230.53 161.35 C 230.53 160.69 230.53 159.38 230.53 158.73 C 228.85 159.53 228.07 160.94 227.79 162.75 C 225.18 161.74 226.82 158.68 226.94 156.74 C 228.70 156.58 230.73 155.72 231.86 157.67 Z" />
<path fill="#ffffff" opacity="1.00" d=" M 279.92 159.63 C 281.07 157.90 282.55 155.43 285.02 156.34 C 284.54 157.19 283.58 158.90 283.10 159.75 C 282.30 159.72 280.71 159.66 279.92 159.63 Z" />
<path fill="#ffffff" opacity="1.00" d=" M 303.30 156.54 L 303.94 156.51 L 303.97 157.15 L 303.33 157.17 L 303.30 156.54 Z" />
<path fill="#ffffff" opacity="1.00" d=" M 175.92 159.63 C 177.95 158.63 180.16 158.09 182.33 157.45 C 181.46 158.36 180.56 159.23 179.68 160.13 C 178.42 159.99 177.17 159.82 175.92 159.63 Z" />
<path fill="#ffffff" opacity="1.00" d=" M 251.37 160.08 C 253.52 158.98 255.60 157.74 257.45 156.19 C 257.97 156.67 259.00 157.63 259.52 158.11 C 258.73 159.62 256.86 159.89 255.53 160.73 C 254.92 160.98 253.71 161.50 253.11 161.76 C 253.34 162.49 253.80 163.97 254.04 164.70 C 253.38 164.73 252.08 164.79 251.42 164.82 C 251.35 163.24 251.33 161.66 251.37 160.08 Z" />
<path fill="#ffffff" opacity="1.00" d=" M 167.41 158.46 C 167.93 158.51 168.98 158.61 169.50 158.65 C 167.76 160.68 167.51 164.51 164.53 165.04 C 163.44 165.85 162.33 166.63 161.07 167.16 C 162.77 163.97 165.30 161.36 167.41 158.46 Z" />
<path fill="#ffffff" opacity="1.00" d=" M 320.10 160.75 C 318.53 157.71 321.33 160.81 322.28 161.55 L 320.42 161.16 C 320.77 162.89 321.07 164.62 321.35 166.37 C 320.70 167.27 320.21 168.26 319.87 169.33 C 318.62 167.17 317.94 164.77 317.10 162.44 L 319.34 163.01 C 319.60 162.26 319.85 161.50 320.10 160.75 Z" />
<path fill="#ffffff" opacity="1.00" d=" M 306.14 159.88 C 307.71 158.69 308.32 161.52 307.29 162.35 C 305.83 163.48 305.01 160.66 306.14 159.88 Z" />
<path fill="#ffffff" opacity="1.00" d=" M 237.22 161.50 C 237.86 162.17 237.86 162.17 237.22 161.50 Z" />
<path fill="#ffffff" opacity="1.00" d=" M 238.57 160.61 C 240.88 163.10 242.86 166.14 243.16 169.62 C 241.97 168.90 240.78 168.16 239.60 167.45 C 239.65 166.92 239.74 165.87 239.79 165.35 C 238.79 168.43 234.73 166.30 236.74 163.66 C 237.23 163.58 238.22 163.40 238.71 163.32 C 238.67 162.64 238.60 161.28 238.57 160.61 Z" />
<path fill="#ffffff" opacity="1.00" d=" M 265.51 164.16 C 266.63 163.89 267.74 163.63 268.86 163.38 C 268.92 164.53 268.98 165.67 269.04 166.82 C 267.83 166.82 266.63 166.81 265.44 166.80 C 265.45 166.14 265.49 164.82 265.51 164.16 Z" />
<path fill="#ffffff" opacity="1.00" d=" M 372.00 163.02 C 374.53 163.86 375.78 166.32 377.33 168.28 C 377.25 168.64 377.09 169.34 377.01 169.69 C 377.27 170.06 377.79 170.81 378.05 171.18 C 377.23 171.36 375.60 171.73 374.78 171.91 C 372.85 170.38 369.43 163.09 375.33 167.72 C 374.01 166.28 372.90 164.71 372.00 163.02 Z" />
<path fill="#ffffff" opacity="1.00" d=" M 173.20 163.83 C 175.90 166.24 178.46 168.94 181.88 170.35 L 181.09 171.60 C 183.28 171.49 185.47 171.34 187.67 171.39 C 186.54 172.45 184.93 172.26 183.54 172.51 L 183.79 174.08 C 183.32 173.53 182.39 172.44 181.92 171.89 C 181.60 172.75 180.94 174.47 180.61 175.32 C 180.58 174.49 180.53 172.83 180.51 171.99 C 179.57 172.08 179.01 176.26 177.78 173.97 C 178.81 173.05 179.55 171.92 179.99 170.59 C 177.51 172.26 175.96 174.99 173.37 176.50 L 173.09 177.17 C 173.28 176.35 173.66 174.72 173.85 173.90 L 171.55 175.50 C 171.13 175.50 170.28 175.50 169.86 175.50 C 172.03 173.63 174.42 172.07 176.69 170.35 C 175.65 170.28 174.60 170.25 173.56 170.26 L 173.61 171.21 C 171.95 172.39 170.36 173.68 168.78 174.96 C 167.13 172.89 169.83 172.22 171.05 171.13 C 172.46 169.52 174.21 168.24 175.49 166.50 C 173.18 167.64 171.73 170.30 169.01 170.59 C 170.38 168.27 174.74 167.08 173.20 163.83 Z" />
<path fill="#ffffff" opacity="1.00" d=" M 382.84 166.37 C 384.17 165.56 385.61 164.86 386.78 163.80 C 387.11 164.15 387.79 164.86 388.13 165.21 C 385.85 167.69 387.07 171.42 385.35 174.21 C 383.85 173.09 383.73 171.27 384.52 169.65 C 383.94 168.56 383.38 167.47 382.84 166.37 Z" />
<path fill="#ffffff" opacity="1.00" d=" M 249.86 165.08 C 250.84 167.41 254.01 165.56 254.87 167.93 C 254.95 168.58 255.11 169.87 255.19 170.51 C 254.70 170.33 253.71 169.95 253.22 169.76 C 250.21 172.04 250.31 166.75 249.86 165.08 Z" />
<path fill="#ffffff" opacity="1.00" d=" M 306.35 165.45 C 307.73 165.43 309.10 165.35 310.48 165.21 C 310.99 166.89 310.43 168.56 310.04 170.20 C 308.40 170.02 307.20 171.02 306.04 172.01 C 306.06 169.83 305.23 167.50 306.35 165.45 Z" />
<path fill="#ffffff" opacity="1.00" d=" M 314.76 164.37 C 316.29 166.16 316.74 168.51 317.53 170.66 C 316.87 169.94 316.22 169.23 315.57 168.52 C 314.56 169.57 313.33 170.36 312.04 171.04 C 312.63 168.70 313.77 166.56 314.76 164.37 Z" />
<path fill="#ffffff" opacity="1.00" d=" M 204.42 167.50 C 205.85 166.58 207.37 165.79 209.05 165.41 C 208.28 167.15 207.03 168.57 205.72 169.91 C 205.01 169.84 203.60 169.69 202.90 169.61 C 202.25 170.68 201.32 171.51 200.42 172.36 L 200.97 170.38 C 198.83 169.59 197.36 171.53 195.38 171.40 C 197.19 168.67 200.48 168.47 203.18 167.17 C 203.49 167.25 204.11 167.42 204.42 167.50 Z" />
<path fill="#ffffff" opacity="1.00" d=" M 283.02 166.77 C 284.50 166.04 286.62 164.90 287.83 166.79 C 286.73 168.91 284.69 170.15 282.77 171.42 C 281.57 170.67 280.19 170.57 278.81 170.58 C 279.86 169.70 280.83 168.72 281.97 167.95 L 282.61 167.50 L 283.02 166.77 Z" />
<path fill="#ffffff" opacity="1.00" d=" M 291.51 168.29 C 291.49 166.64 293.21 166.12 294.30 165.28 L 294.52 166.39 C 295.83 166.24 297.24 165.34 298.44 166.45 C 300.07 166.35 301.67 166.70 303.28 166.94 C 302.62 169.80 300.27 172.16 297.23 172.18 C 297.90 170.96 298.61 169.76 299.36 168.58 L 297.98 167.55 C 296.10 169.33 293.74 169.55 291.51 168.29 Z" />
<path fill="#ffffff" opacity="1.00" d=" M 324.37 172.26 C 325.64 169.59 327.34 167.19 329.66 165.34 C 329.71 166.34 329.79 168.34 329.84 169.35 C 330.11 169.26 330.65 169.10 330.92 169.01 C 331.53 168.10 332.13 167.19 332.72 166.26 C 335.42 169.02 333.30 172.65 331.15 174.97 C 331.30 173.45 331.21 172.03 330.87 170.73 C 330.58 170.79 329.99 170.90 329.70 170.96 C 329.56 174.19 330.18 178.42 327.25 180.65 L 328.25 177.09 C 327.24 178.66 325.90 179.58 324.25 179.85 C 324.91 178.98 326.23 177.22 326.88 176.35 C 326.12 176.52 324.60 176.86 323.84 177.03 C 324.48 175.69 329.74 171.85 325.00 173.62 L 325.86 172.12 L 324.37 172.26 Z" />
<path fill="#ffffff" opacity="1.00" d=" M 141.59 178.30 C 137.05 175.96 138.32 170.10 139.49 166.11 C 139.70 168.96 139.59 171.82 139.58 174.68 C 140.10 174.56 141.13 174.31 141.64 174.18 C 141.63 175.55 141.62 176.92 141.59 178.30 Z" />
<path fill="#ffffff" opacity="1.00" d=" M 363.80 166.97 C 366.77 167.39 366.73 170.59 367.04 172.89 C 366.32 172.67 364.90 172.24 364.19 172.02 C 364.22 170.31 364.43 168.62 363.80 166.97 Z" />
<path fill="#ffffff" opacity="1.00" d=" M 367.50 168.50 C 368.05 168.17 368.60 167.84 369.15 167.50 C 370.02 169.47 374.13 172.59 370.96 174.39 C 370.88 173.80 370.71 172.61 370.63 172.01 C 369.81 172.42 369.00 172.83 368.19 173.24 C 367.97 171.66 367.74 170.08 367.50 168.50 Z" />
<path fill="#ffffff" opacity="1.00" d=" M 267.77 175.74 C 268.48 173.72 268.99 171.09 271.33 170.37 C 272.12 171.68 271.19 172.94 270.68 174.15 C 270.90 175.91 271.14 177.67 271.31 179.45 C 270.05 178.28 268.91 177.01 267.77 175.74 Z" />
<path fill="#ffffff" opacity="1.00" d=" M 224.30 170.54 C 225.88 172.91 228.25 174.93 229.18 177.61 C 227.85 178.40 226.47 179.09 225.07 179.76 C 225.19 180.23 225.42 181.18 225.53 181.65 C 224.75 181.08 223.98 180.51 223.21 179.94 C 223.63 179.20 224.48 177.70 224.90 176.96 C 224.35 176.54 223.24 175.72 222.69 175.30 L 224.87 175.50 C 224.70 173.85 224.45 172.20 224.30 170.54 Z" />
<path fill="#ffffff" opacity="1.00" d=" M 227.93 170.45 C 230.12 171.88 231.48 174.21 232.96 176.30 C 229.93 175.81 227.97 173.55 227.93 170.45 Z" />
<path fill="#ffffff" opacity="1.00" d=" M 379.07 174.23 C 379.34 173.61 379.90 172.36 380.17 171.74 C 381.40 173.53 382.21 175.54 382.98 177.56 C 382.42 178.68 381.69 179.67 380.32 179.69 C 379.88 180.55 379.43 181.39 378.97 182.24 C 377.64 179.94 377.20 177.35 376.86 174.76 C 377.41 174.63 378.51 174.36 379.07 174.23 Z" />
<path fill="#ffffff" opacity="1.00" d=" M 245.29 175.54 C 243.88 175.63 242.86 172.94 244.68 172.83 C 245.99 172.84 247.10 175.40 245.29 175.54 Z" />
<path fill="#ffffff" opacity="1.00" d=" M 257.07 172.48 C 260.62 172.67 258.88 177.28 259.93 179.49 C 257.71 177.96 256.16 175.71 254.87 173.39 C 255.59 173.71 257.03 174.35 257.75 174.67 C 257.58 174.12 257.24 173.03 257.07 172.48 Z" />
<path fill="#ffffff" opacity="1.00" d=" M 338.35 173.58 L 339.36 172.43 L 339.59 174.68 C 341.26 174.18 342.91 173.66 344.60 173.20 C 344.05 175.02 343.37 176.82 342.27 178.37 C 340.22 179.02 338.12 179.49 336.06 180.08 C 336.36 178.61 336.65 177.14 336.88 175.66 C 337.13 175.73 337.64 175.88 337.89 175.95 L 338.35 173.58 Z" />
<path fill="#ffffff" opacity="1.00" d=" M 346.22 178.11 C 347.85 176.70 348.98 173.92 351.54 174.37 C 350.73 176.72 349.24 180.11 346.22 178.11 Z" />
<path fill="#ffffff" opacity="1.00" d=" M 235.33 178.85 C 235.94 177.45 236.53 176.04 237.20 174.66 C 237.93 176.52 238.61 178.40 239.42 180.23 C 241.79 179.61 243.52 180.25 244.64 182.14 C 241.11 184.45 238.41 180.58 236.83 178.13 C 236.26 178.93 235.69 179.72 235.11 180.50 C 234.32 179.48 233.69 178.37 233.20 177.18 C 233.73 177.60 234.80 178.43 235.33 178.85 Z" />
<path fill="#ffffff" opacity="1.00" d=" M 240.11 176.98 C 241.31 176.85 241.87 177.58 241.79 179.17 C 240.53 179.33 239.97 178.60 240.11 176.98 Z" />
<path fill="#ffffff" opacity="1.00" d=" M 266.21 177.29 C 267.56 176.65 268.16 178.60 268.98 179.26 C 269.88 179.71 269.87 181.54 268.56 180.78 C 267.43 180.11 265.48 178.80 266.21 177.29 Z" />
<path fill="#ffffff" opacity="1.00" d=" M 272.98 177.52 C 274.21 177.45 275.65 179.69 274.87 180.81 C 273.05 181.63 272.01 178.76 272.98 177.52 Z" />
<path fill="#ffffff" opacity="1.00" d=" M 353.15 177.62 C 354.25 177.58 355.35 177.50 356.45 177.40 C 355.07 179.21 355.50 182.72 352.62 182.92 L 352.56 183.89 C 351.76 183.57 350.97 183.26 350.18 182.94 L 349.89 184.22 C 349.44 184.07 348.54 183.77 348.08 183.63 C 349.23 182.20 350.42 180.79 351.88 179.68 C 352.30 178.99 352.72 178.31 353.15 177.62 Z" />
<path fill="#ffffff" opacity="1.00" d=" M 367.26 177.23 C 368.62 177.48 371.02 176.18 371.06 178.61 C 371.48 178.54 372.31 178.40 372.72 178.33 C 372.39 180.24 372.45 183.87 369.11 182.46 L 371.83 184.10 C 370.35 183.70 368.88 183.35 367.42 182.91 C 366.70 184.03 365.95 185.14 365.14 186.20 C 365.50 183.90 366.23 181.66 367.50 179.69 C 367.44 179.08 367.32 177.85 367.26 177.23 M 369.95 180.71 C 370.62 181.38 370.62 181.38 369.95 180.71 Z" />
<path fill="#ffffff" opacity="1.00" d=" M 111.99 177.97 C 116.20 180.36 120.87 182.16 124.42 185.57 C 127.54 188.40 131.50 190.03 134.90 192.49 C 138.97 192.58 142.89 191.28 146.92 190.90 C 152.51 190.36 157.79 188.31 162.96 186.24 C 167.37 186.19 171.65 187.41 175.99 188.03 C 191.71 192.20 208.03 192.64 223.96 195.54 C 223.86 195.79 223.66 196.31 223.56 196.56 C 220.54 195.19 217.02 196.46 214.17 194.70 C 202.72 193.79 191.34 192.15 180.07 189.93 C 174.69 189.34 169.58 187.29 164.13 187.11 C 158.43 189.01 152.70 190.90 146.83 192.16 C 142.57 192.51 138.33 192.98 134.10 193.54 C 129.95 190.92 125.83 188.24 122.07 185.08 C 119.00 182.25 114.42 181.51 111.99 177.97 Z" />
<path fill="#ffffff" opacity="1.00" d=" M 181.30 177.44 C 180.23 180.31 183.04 179.91 184.11 178.80 C 184.22 179.18 184.45 179.94 184.57 180.32 C 182.72 182.23 181.06 184.37 178.73 185.72 C 176.96 184.98 174.73 185.03 173.39 183.52 C 171.29 183.30 169.19 183.26 167.11 183.71 C 167.82 182.98 168.53 182.26 169.24 181.55 C 170.02 181.54 171.57 181.50 172.35 181.49 C 172.65 181.02 173.24 180.08 173.53 179.61 L 173.35 181.42 L 175.99 181.53 L 175.47 179.78 C 176.27 180.22 177.07 180.68 177.85 181.17 C 177.74 181.74 177.52 182.88 177.41 183.45 C 178.71 182.29 181.37 181.44 180.40 179.26 C 180.63 178.81 181.08 177.90 181.30 177.44 Z" />
<path fill="#ffffff" opacity="1.00" d=" M 247.70 180.00 C 249.86 179.41 252.01 178.78 254.22 178.37 C 255.41 180.63 258.11 181.53 259.31 183.81 C 255.93 182.76 252.66 181.41 249.44 179.96 C 250.37 181.23 250.43 184.37 252.86 183.12 C 253.98 183.84 255.09 184.58 256.18 185.35 C 255.58 185.79 254.37 186.66 253.76 187.09 C 252.15 186.36 250.45 185.70 249.29 184.30 C 249.02 184.70 248.48 185.50 248.22 185.90 C 247.71 184.99 247.22 184.08 246.74 183.17 C 247.47 183.35 248.93 183.72 249.66 183.90 C 248.98 182.61 248.33 181.31 247.70 180.00 Z" />
<path fill="#ffffff" opacity="1.00" d=" M 285.13 177.56 C 286.28 179.33 288.41 180.90 287.81 183.28 C 286.06 181.90 283.96 180.03 285.13 177.56 Z" />
<path fill="#ffffff" opacity="1.00" d=" M 150.51 180.10 C 151.37 179.64 152.22 179.17 153.09 178.72 L 151.72 181.67 C 152.52 181.07 154.11 179.87 154.90 179.27 C 155.80 179.79 156.70 180.31 157.62 180.82 C 156.52 181.45 155.44 182.09 154.38 182.77 C 153.60 182.64 152.83 182.50 152.07 182.36 C 151.68 181.80 150.90 180.67 150.51 180.10 Z" />
<path fill="#ffffff" opacity="1.00" d=" M 280.68 178.71 C 281.80 180.70 282.98 182.67 283.89 184.78 C 282.42 184.63 280.83 184.36 280.03 182.95 C 278.82 181.72 280.64 180.07 280.68 178.71 Z" />
<path fill="#ffffff" opacity="1.00" d=" M 362.48 179.61 C 363.07 179.99 363.68 180.39 364.29 180.78 C 363.63 182.62 363.25 184.55 362.95 186.48 C 361.78 186.51 360.63 186.55 359.47 186.62 C 360.61 184.34 362.05 182.16 362.48 179.61 Z" />
<path fill="#ffffff" opacity="1.00" d=" M 231.84 180.31 C 232.52 182.13 233.15 183.97 233.69 185.83 C 232.88 185.26 231.26 184.12 230.44 183.55 L 230.38 185.83 C 229.64 185.31 228.91 184.79 228.19 184.27 C 228.56 183.41 228.93 182.54 229.31 181.68 C 229.94 181.34 231.21 180.65 231.84 180.31 Z" />
<path fill="#ffffff" opacity="1.00" d=" M 263.65 179.77 C 266.56 181.87 269.91 183.12 273.52 183.23 C 273.11 184.61 272.16 185.17 270.65 184.91 L 271.31 186.75 C 269.05 184.96 266.49 183.63 264.07 182.10 C 263.96 181.52 263.75 180.35 263.65 179.77 Z" />
<path fill="#ffffff" opacity="1.00" d=" M 183.48 186.10 C 186.76 183.38 191.26 182.71 195.13 181.06 C 194.34 182.48 192.95 183.30 191.60 184.10 C 192.01 184.61 192.43 185.13 192.84 185.65 C 194.67 184.54 196.53 183.48 198.54 182.74 C 197.22 186.27 193.65 188.52 189.89 187.70 C 190.14 187.02 190.65 185.67 190.90 185.00 L 186.56 187.51 L 188.73 184.27 C 187.00 184.93 185.30 185.72 183.48 186.10 Z" />
<path fill="#ffffff" opacity="1.00" d=" M 288.86 181.87 C 290.77 182.31 292.72 182.49 294.66 182.75 C 295.62 183.77 296.68 184.70 297.76 185.61 C 297.44 186.39 297.11 187.17 296.80 187.94 C 293.91 186.30 290.00 185.40 288.86 181.87 Z" />
<path fill="#ffffff" opacity="1.00" d=" M 385.02 183.97 C 385.20 182.54 386.47 181.81 387.54 181.08 C 386.62 184.12 384.82 186.81 384.11 189.92 C 383.70 191.83 382.80 193.58 381.49 195.02 C 381.81 191.09 384.05 187.73 385.02 183.97 Z" />
<path fill="#ffffff" opacity="1.00" d=" M 260.35 182.74 C 262.68 183.59 262.21 186.65 263.70 188.30 C 262.84 188.79 261.97 189.27 261.10 189.74 C 262.03 191.39 263.08 193.00 263.82 194.77 C 261.69 193.77 260.59 191.48 258.47 190.48 C 258.56 191.32 258.72 192.98 258.81 193.81 C 258.14 193.18 257.47 192.55 256.79 191.93 C 256.26 190.28 255.68 187.55 258.58 188.11 C 259.18 187.35 259.78 186.58 260.38 185.81 C 260.37 185.05 260.36 183.51 260.35 182.74 Z" />
<path fill="#ffffff" opacity="1.00" d=" M 263.85 182.76 C 265.81 183.92 267.74 185.14 269.67 186.37 C 269.31 186.70 268.60 187.37 268.25 187.70 C 268.84 188.00 270.01 188.59 270.60 188.89 C 270.00 189.07 268.80 189.44 268.20 189.62 L 268.40 191.24 C 265.52 189.37 264.40 185.98 263.85 182.76 Z" />
<path fill="#ffffff" opacity="1.00" d=" M 273.36 191.60 C 274.34 189.07 275.16 186.48 276.18 183.97 C 278.76 184.83 279.94 187.61 281.88 189.33 C 282.06 188.66 282.43 187.33 282.61 186.67 C 284.14 187.79 285.04 189.38 284.70 191.33 C 283.73 191.01 281.77 190.37 280.79 190.05 C 282.36 191.67 283.74 193.44 283.84 195.79 C 281.66 194.86 279.42 193.91 276.98 194.37 L 277.78 192.87 C 277.42 192.87 276.71 192.87 276.36 192.87 C 276.50 193.53 276.77 194.86 276.91 195.52 C 275.20 194.49 273.58 193.34 272.11 192.00 C 272.42 191.90 273.05 191.70 273.36 191.60 M 277.49 187.40 C 277.53 188.93 279.17 190.97 280.78 190.98 C 280.65 189.47 278.96 187.67 277.49 187.40 Z" />
<path fill="#ffffff" opacity="1.00" d=" M 286.69 185.10 C 285.72 184.35 287.79 182.45 288.11 184.67 C 290.31 187.20 293.39 188.82 295.29 191.61 C 292.00 190.10 288.77 188.15 286.69 185.10 Z" />
<path fill="#ffffff" opacity="1.00" d=" M 330.32 184.47 C 331.42 184.82 332.53 184.49 333.61 184.23 C 333.51 184.87 333.30 186.15 333.19 186.78 C 333.86 186.80 335.20 186.82 335.87 186.83 C 335.55 187.58 335.22 188.33 334.90 189.09 L 333.79 187.29 C 333.08 188.69 332.38 190.10 331.59 191.46 C 331.28 190.84 330.66 189.62 330.34 189.01 C 330.84 187.76 330.89 186.42 330.46 185.15 C 329.32 187.42 328.14 189.67 326.91 191.90 C 324.97 191.11 323.60 192.72 322.13 193.68 C 320.35 193.70 318.58 193.83 316.81 193.94 L 317.92 192.11 L 315.60 192.64 C 316.11 191.19 317.09 190.85 318.54 191.59 C 319.82 189.64 321.86 188.53 323.95 187.63 C 323.26 188.82 321.88 191.19 321.19 192.38 C 325.28 190.85 327.01 186.82 330.22 184.29 L 330.32 184.47 Z" />
<path fill="#ffffff" opacity="1.00" d=" M 239.47 184.95 C 240.28 185.37 241.08 185.79 241.89 186.22 C 242.25 186.01 242.98 185.57 243.35 185.35 C 243.46 186.46 243.58 187.56 243.71 188.66 C 241.74 188.29 239.28 189.21 237.69 187.71 C 238.19 187.33 239.18 186.58 239.67 186.20 L 239.47 184.95 Z" />
<path fill="#ffffff" opacity="1.00" d=" M 194.91 190.06 C 196.61 188.51 198.54 187.26 200.46 186.01 L 199.93 188.80 C 200.83 188.11 202.64 186.74 203.54 186.05 C 203.60 186.54 203.72 187.51 203.78 188.00 C 205.14 187.31 206.49 186.63 207.87 185.99 C 208.51 186.94 209.17 187.88 209.83 188.82 C 210.90 188.50 213.03 187.86 214.09 187.54 C 213.15 188.56 212.20 189.57 211.20 190.54 C 210.65 190.23 209.54 189.62 208.98 189.31 C 208.52 189.70 207.59 190.47 207.12 190.86 C 207.31 190.14 207.67 188.69 207.85 187.96 C 205.56 190.26 202.24 189.07 199.58 190.46 C 199.62 189.75 199.72 188.34 199.76 187.64 C 198.25 188.64 196.81 189.94 194.91 190.06 Z" />
<path fill="#ffffff" opacity="1.00" d=" M 302.20 186.69 C 302.64 186.75 303.51 186.86 303.95 186.92 C 304.27 187.33 304.91 188.17 305.23 188.59 C 306.75 188.42 308.28 188.32 309.81 188.28 C 309.70 189.77 309.33 191.22 308.94 192.66 C 306.38 191.06 303.85 189.28 302.20 186.69 Z" />
<path fill="#ffffff" opacity="1.00" d=" M 247.11 187.92 C 247.82 187.62 248.53 187.32 249.25 187.03 C 250.62 188.76 252.40 190.17 253.46 192.15 C 250.63 192.03 249.01 189.62 247.11 187.92 Z" />
<path fill="#ffffff" opacity="1.00" d=" M 285.69 186.27 C 286.86 187.07 287.86 188.10 288.78 189.19 C 289.42 190.88 290.49 192.33 291.50 193.81 C 290.46 194.28 289.37 194.50 288.23 194.47 C 287.96 194.74 287.43 195.28 287.17 195.55 C 286.93 194.91 286.69 194.28 286.45 193.65 L 287.53 193.52 C 287.18 192.51 286.48 190.50 286.13 189.50 C 286.56 189.77 287.43 190.31 287.86 190.58 C 287.11 189.16 286.34 187.73 285.69 186.27 Z" />
<path fill="#ffffff" opacity="1.00" d=" M 264.02 191.33 C 263.80 190.35 264.14 189.89 265.06 189.97 C 265.45 190.56 266.24 191.74 266.63 192.34 C 266.58 194.10 264.30 192.09 264.02 191.33 Z" />
<path fill="#ffffff" opacity="1.00" d=" M 344.33 197.10 C 346.19 194.52 349.11 193.00 351.35 190.79 L 351.86 191.03 L 350.65 192.86 L 352.84 192.77 C 351.80 194.17 350.71 195.53 349.58 196.85 C 349.99 197.46 350.40 198.08 350.82 198.69 C 351.54 197.13 352.59 195.79 354.11 194.96 C 352.76 197.09 352.82 201.14 349.73 201.40 L 350.03 199.04 C 349.25 199.37 347.70 200.02 346.93 200.34 L 347.41 198.84 C 345.53 199.96 344.15 199.38 344.33 197.10 Z" />
<path fill="#ffffff" opacity="1.00" d=" M 366.85 196.89 C 369.52 195.58 371.60 193.41 374.16 191.92 C 372.97 194.64 370.64 196.57 368.76 198.79 C 367.77 200.93 367.09 203.48 364.73 204.53 C 365.31 202.90 365.95 201.30 366.65 199.72 C 364.82 201.59 362.75 205.31 359.61 204.06 C 361.59 201.24 364.55 199.41 366.85 196.89 Z" />
<path fill="#ffffff" opacity="1.00" d=" M 267.49 194.50 C 269.86 194.57 270.67 197.82 272.21 199.36 C 271.09 199.85 269.98 200.33 268.87 200.82 C 267.86 199.72 266.85 198.63 265.87 197.52 L 268.45 197.63 C 268.21 196.85 267.73 195.29 267.49 194.50 Z" />
<path fill="#ffffff" opacity="1.00" d=" M 331.73 194.85 C 333.52 195.51 335.20 195.51 336.44 193.88 C 337.50 194.61 338.69 195.27 339.17 196.59 C 339.58 196.47 340.41 196.24 340.82 196.12 C 341.49 198.24 341.36 203.30 344.77 200.85 C 345.73 201.31 346.71 201.76 347.69 202.21 C 348.15 203.58 348.63 204.94 349.07 206.32 C 346.70 205.96 346.00 203.23 344.33 201.90 L 344.83 205.72 C 344.18 204.71 343.65 203.66 343.21 202.55 C 341.92 202.00 340.76 201.26 339.74 200.33 C 339.30 200.87 338.87 201.41 338.43 201.95 C 338.91 202.65 339.85 204.07 340.32 204.78 C 337.77 203.30 335.22 201.56 334.31 198.59 C 333.41 197.37 332.56 196.11 331.73 194.85 M 334.25 196.19 C 333.84 197.60 335.67 198.44 336.70 198.94 C 337.64 199.08 338.12 198.71 338.13 197.80 C 337.14 196.92 335.64 195.72 334.25 196.19 Z" />
<path fill="#ffffff" opacity="1.00" d=" M 374.47 197.24 C 375.62 195.83 376.86 194.48 378.50 193.64 C 377.67 195.37 376.64 196.98 375.58 198.57 C 375.21 198.13 374.84 197.68 374.47 197.24 Z" />
<path fill="#ffffff" opacity="1.00" d=" M 229.21 195.45 C 232.77 195.64 236.33 195.65 239.88 195.86 C 244.28 196.46 248.45 198.09 252.83 198.83 C 255.70 199.47 258.71 199.52 261.45 200.69 C 268.74 203.49 276.51 204.67 283.92 207.07 C 291.88 208.85 300.10 208.98 308.07 210.72 C 317.26 212.59 326.79 210.25 335.94 212.19 C 340.24 212.01 344.53 211.71 348.83 211.70 C 353.32 211.71 357.51 209.80 361.98 209.61 C 367.80 209.11 372.23 204.91 377.34 202.55 C 378.59 200.37 379.67 197.80 382.07 196.63 C 380.99 198.64 379.62 200.48 378.20 202.26 C 378.18 202.64 378.14 203.40 378.12 203.77 C 373.69 206.25 369.12 208.53 364.31 210.17 C 360.32 211.23 356.15 211.37 352.12 212.26 C 345.79 213.52 339.36 212.44 332.98 212.80 C 325.87 211.52 318.61 213.18 311.48 212.09 C 307.99 211.44 304.40 211.56 300.97 210.58 C 293.42 208.79 285.33 209.61 278.12 206.38 C 272.12 204.70 266.00 203.47 260.10 201.43 C 254.85 199.69 249.29 199.35 243.98 197.89 C 239.24 196.12 234.15 196.58 229.19 196.59 C 229.19 196.30 229.21 195.74 229.21 195.45 Z" />
<path fill="#ffffff" opacity="1.00" d=" M 306.32 197.14 C 306.88 196.46 307.51 195.83 308.12 195.18 C 308.85 197.21 310.39 199.17 309.97 201.45 C 308.64 200.11 307.29 198.76 306.32 197.14 Z" />
<path fill="#ffffff" opacity="1.00" d=" M 289.43 198.90 C 292.02 198.10 294.51 197.04 297.12 196.28 C 298.62 196.58 300.15 196.72 301.68 196.78 C 302.00 197.53 302.32 198.29 302.65 199.04 C 301.23 199.98 300.08 201.20 299.30 202.72 L 296.55 199.47 C 297.02 200.69 297.96 203.13 298.43 204.35 C 297.02 203.14 295.75 201.77 294.52 200.39 L 294.25 202.88 C 293.99 202.48 293.47 201.69 293.21 201.29 C 292.58 201.36 291.31 201.48 290.68 201.54 C 290.26 200.66 289.84 199.78 289.43 198.90 Z" />
<path fill="#ffffff" opacity="1.00" d=" M 330.09 196.21 C 331.19 197.00 332.25 197.85 333.32 198.69 C 333.69 200.19 335.51 201.79 333.96 203.24 C 331.93 201.48 329.90 199.07 330.09 196.21 Z" />
<path fill="#ffffff" opacity="1.00" d=" M 279.82 196.48 C 283.44 198.26 285.04 202.54 288.04 205.19 C 285.18 206.74 284.08 203.25 281.52 203.16 C 280.22 202.14 279.43 200.83 279.14 199.22 C 280.42 199.91 281.67 200.67 282.88 201.49 C 281.84 199.83 280.74 198.21 279.82 196.48 Z" />
<path fill="#ffffff" opacity="1.00" d=" M 313.32 198.54 C 314.80 198.51 316.28 198.50 317.77 198.46 C 318.34 199.62 318.93 200.77 319.54 201.92 C 319.25 202.49 318.97 203.07 318.69 203.64 C 317.80 202.73 316.02 200.92 315.13 200.01 C 315.65 201.19 316.68 203.54 317.20 204.72 C 316.07 203.58 310.93 201.89 314.82 201.09 C 314.45 200.45 313.69 199.18 313.32 198.54 Z" />
<path fill="#ffffff" opacity="1.00" d=" M 304.55 203.05 C 303.69 201.14 304.62 199.91 306.11 199.03 C 306.60 199.69 307.56 201.00 308.04 201.66 C 307.29 202.99 306.53 204.31 305.80 205.65 L 307.83 205.29 C 307.11 205.79 306.39 206.30 305.68 206.81 C 304.18 206.39 302.67 206.01 301.21 205.47 C 301.44 204.11 302.58 203.19 303.30 202.08 L 304.55 203.05 Z" />
<path fill="#ffffff" opacity="1.00" d=" M 328.23 203.33 C 324.29 201.93 328.60 194.72 330.77 199.90 C 330.09 200.69 328.09 200.91 328.72 202.29 C 329.18 203.75 328.40 205.16 327.93 206.51 C 327.48 206.08 326.57 205.24 326.12 204.82 C 326.83 204.34 327.54 203.85 328.23 203.33 Z" />
<path fill="#ffffff" opacity="1.00" d=" M 358.08 199.03 C 359.72 198.55 360.25 199.11 359.68 200.71 C 358.03 201.18 357.50 200.62 358.08 199.03 Z" />
<path fill="#ffffff" opacity="1.00" d=" M 352.81 204.53 C 350.79 202.28 353.93 201.29 354.98 199.88 C 355.88 201.37 356.69 202.91 357.56 204.43 C 355.97 204.46 354.39 204.49 352.81 204.53 Z" />
<path fill="#ffffff" opacity="1.00" d=" M 332.31 204.67 C 330.65 205.83 328.86 201.97 330.94 201.63 C 331.84 202.49 332.30 203.50 332.31 204.67 Z" />
</g>
</svg>
