<?xml version="1.0" encoding="UTF-8" ?>
<!DOCTYPE svg PUBLIC "-//W3C//DTD SVG 1.1//EN" "http://www.w3.org/Graphics/SVG/1.1/DTD/svg11.dtd">
<svg width="512pt" height="256pt" viewBox="0 0 512 256" version="1.1" xmlns="http://www.w3.org/2000/svg">
<g id="#ffffffff">
<path fill="#ffffff" opacity="1.00" d=" M 171.10 16.15 C 171.59 15.54 172.08 14.93 172.58 14.32 C 173.18 14.99 173.78 15.67 174.38 16.34 C 174.54 17.10 174.86 18.62 175.02 19.38 C 177.11 18.88 178.66 17.01 180.81 16.46 C 181.71 15.78 182.61 15.10 183.52 14.42 C 184.49 15.65 185.45 16.88 186.37 18.16 C 186.94 18.20 188.08 18.30 188.65 18.34 C 190.04 20.03 191.63 21.52 193.40 22.81 C 196.10 28.72 195.59 35.38 196.67 41.67 C 192.17 43.24 195.27 39.36 195.64 37.69 C 194.95 36.82 194.27 35.95 193.60 35.08 C 195.93 31.71 192.83 27.67 193.28 23.95 C 191.60 22.57 189.97 21.11 188.51 19.50 C 186.45 18.95 184.57 17.95 183.91 15.78 C 182.46 16.84 180.91 17.83 179.06 17.91 C 178.14 18.87 177.24 19.84 176.35 20.80 C 174.56 19.53 173.59 17.57 172.74 15.61 C 170.97 18.46 169.76 21.80 170.68 25.17 C 170.36 27.05 170.14 28.97 169.66 30.82 C 168.68 32.14 167.46 33.24 166.38 34.46 C 166.99 37.41 168.05 40.24 169.14 43.05 C 168.50 43.80 167.87 44.56 167.26 45.32 C 167.74 47.46 168.17 49.60 168.67 51.74 C 166.16 50.88 165.46 48.22 164.66 45.98 C 163.34 48.83 164.69 51.94 164.97 54.88 C 166.02 59.13 164.37 63.58 165.23 67.77 C 165.71 68.01 166.66 68.50 167.14 68.75 C 167.50 69.43 167.87 70.12 168.23 70.81 C 165.39 72.62 170.45 75.57 167.67 77.20 C 169.87 82.62 172.70 87.76 174.76 93.24 C 170.46 88.58 169.32 81.77 165.14 76.99 C 164.99 75.29 164.85 73.60 164.76 71.90 C 165.29 70.83 165.26 69.65 164.64 68.62 C 164.21 63.45 163.71 58.23 164.05 53.05 C 162.56 48.48 160.77 43.66 161.93 38.80 C 162.95 39.70 164.19 40.40 165.00 41.52 L 165.41 41.89 C 167.60 39.86 164.29 36.32 166.17 34.02 C 169.84 28.77 169.20 22.05 171.10 16.15 M 161.94 40.32 C 162.34 42.32 162.98 44.29 162.88 46.37 C 164.37 45.44 165.87 44.61 167.44 43.81 C 165.24 43.22 163.67 41.66 161.94 40.32 Z" />
<path fill="#ffffff" opacity="1.00" d=" M 224.51 20.39 C 226.35 18.98 227.90 17.25 229.50 15.57 C 229.94 16.30 230.82 17.74 231.26 18.47 C 233.14 19.16 234.91 20.13 236.85 20.65 C 238.72 19.82 240.59 18.96 242.51 18.26 C 243.18 18.96 243.84 19.66 244.50 20.36 C 243.97 23.38 243.33 26.54 244.31 29.54 C 245.39 32.37 248.25 33.70 250.52 35.41 C 252.18 37.70 253.54 40.19 255.24 42.46 C 255.82 41.16 256.37 39.86 256.90 38.54 C 257.25 38.48 257.95 38.37 258.30 38.32 C 259.68 42.91 260.04 47.92 262.71 52.02 C 264.12 53.78 265.95 55.15 267.70 56.56 C 267.98 55.81 268.54 54.29 268.82 53.53 L 269.32 53.79 C 269.99 48.37 270.08 42.78 271.85 37.56 C 275.94 42.79 274.80 49.79 275.44 55.97 C 276.29 64.48 275.15 73.40 278.44 81.50 C 279.06 83.16 280.39 84.38 281.56 85.65 C 284.44 81.28 284.15 75.92 285.52 71.05 C 285.69 70.06 286.23 69.35 287.13 68.92 C 286.97 70.21 286.15 71.59 287.11 72.78 C 284.56 77.92 285.87 85.38 279.71 88.12 C 280.15 92.15 276.86 94.97 274.41 97.65 C 274.79 96.15 275.11 94.57 274.33 93.14 C 275.61 91.35 277.01 89.66 278.32 87.89 C 277.41 88.47 275.58 89.61 274.67 90.18 C 275.15 89.33 275.63 88.49 276.12 87.64 C 277.65 87.54 279.17 87.41 280.70 87.24 C 278.70 82.63 274.77 78.32 275.55 72.99 C 275.70 70.27 274.43 67.74 274.42 65.03 C 273.81 61.36 274.81 57.73 274.68 54.06 C 274.27 52.31 275.58 49.11 272.58 49.12 C 272.57 49.68 272.55 50.80 272.54 51.36 C 269.83 49.99 268.22 56.75 271.64 51.95 L 272.42 52.62 C 271.14 53.96 270.30 55.88 268.56 56.69 C 266.61 57.11 264.99 55.60 263.32 54.87 C 260.87 49.75 258.08 44.57 257.70 38.79 C 256.97 40.49 256.46 42.28 255.93 44.05 C 253.18 40.83 251.02 37.12 247.71 34.41 C 246.96 35.90 246.10 37.35 244.81 38.42 C 244.82 37.77 244.85 36.47 244.87 35.82 C 244.27 36.46 243.06 37.73 242.46 38.37 C 241.13 34.96 246.28 33.67 244.09 30.42 C 243.38 30.50 241.97 30.65 241.26 30.72 C 241.99 30.20 242.71 29.67 243.43 29.13 C 242.80 29.00 241.54 28.73 240.91 28.60 C 241.39 28.36 242.33 27.88 242.80 27.64 C 242.55 24.84 243.03 22.07 243.44 19.31 C 241.53 20.02 239.64 20.79 237.63 21.16 C 237.58 22.72 237.43 24.28 237.33 25.84 C 236.55 25.08 235.77 24.32 235.00 23.56 L 236.83 23.18 C 234.51 20.49 230.47 20.27 228.63 17.12 C 227.66 18.97 225.59 20.77 226.65 23.05 C 225.78 22.61 224.90 22.18 224.02 21.75 C 223.53 26.20 223.11 30.66 222.07 35.03 C 221.51 36.56 222.24 37.69 223.58 38.41 C 223.54 42.03 226.67 44.37 228.59 47.09 C 227.51 47.64 226.45 48.22 225.45 48.90 L 227.51 50.17 C 225.00 50.11 223.28 48.15 221.34 46.89 C 220.51 51.61 221.82 56.23 223.95 60.41 C 224.37 60.53 225.22 60.78 225.64 60.90 C 225.56 60.13 225.46 59.36 225.35 58.59 C 227.26 59.55 230.10 59.58 231.32 61.53 L 231.16 62.06 C 230.09 61.78 227.94 61.21 226.87 60.92 C 228.97 63.63 232.30 64.92 234.91 67.04 C 234.70 67.40 234.26 68.11 234.05 68.46 C 235.62 69.60 237.16 70.79 238.71 71.97 L 238.73 69.01 L 236.99 69.87 C 237.12 69.19 237.39 67.82 237.52 67.14 C 236.69 66.64 235.03 65.64 234.20 65.14 L 234.85 65.14 C 237.09 65.30 239.27 67.44 239.45 69.77 C 240.05 70.82 241.16 71.39 242.08 72.13 C 241.24 72.00 239.57 71.72 238.74 71.59 C 239.62 72.32 241.37 73.79 242.25 74.53 C 242.80 76.14 243.34 77.76 243.78 79.41 C 241.86 78.57 239.99 77.56 237.93 77.15 C 239.25 78.52 240.74 79.74 242.20 80.98 C 240.83 80.69 239.48 80.41 238.12 80.11 C 235.57 78.36 232.95 76.69 230.62 74.65 L 233.63 75.31 C 232.65 73.74 229.92 72.81 230.55 70.48 C 229.50 69.49 228.54 68.42 227.68 67.27 C 231.06 68.78 233.78 71.56 237.45 72.45 C 236.36 70.79 234.44 70.21 232.78 69.32 C 229.85 67.53 227.77 64.84 225.99 61.96 C 225.72 62.20 225.18 62.69 224.92 62.93 C 225.32 65.32 226.24 67.57 226.77 69.93 C 229.00 74.22 231.68 78.23 234.08 82.40 C 234.63 81.86 235.17 81.32 235.72 80.77 C 237.13 81.23 238.56 81.63 240.00 81.98 C 243.35 83.75 247.58 84.53 249.97 87.63 C 247.70 87.15 245.49 86.45 243.29 85.75 C 241.06 84.82 238.94 83.64 236.85 82.43 C 236.54 82.86 236.24 83.31 235.94 83.75 C 240.35 87.40 243.55 92.32 248.04 95.91 C 251.07 99.09 253.59 102.73 257.10 105.45 C 258.27 101.56 262.84 105.50 264.68 102.42 C 263.31 102.59 260.58 102.94 259.21 103.12 C 258.74 99.54 263.77 100.73 265.89 101.56 C 265.04 102.64 264.20 103.73 263.38 104.82 C 264.60 104.69 267.06 104.41 268.28 104.27 C 267.04 105.28 265.55 105.90 264.06 106.43 C 265.55 107.62 267.07 108.78 268.63 109.88 C 268.31 110.63 268.00 111.38 267.69 112.13 C 265.28 109.89 262.18 108.36 260.34 105.58 C 259.62 105.47 258.19 105.26 257.47 105.16 C 260.41 107.53 263.20 110.16 265.31 113.32 C 256.86 106.93 249.45 99.22 242.08 91.63 C 238.92 86.92 233.83 83.87 230.95 78.94 C 229.28 76.11 227.35 73.45 225.72 70.59 C 226.04 64.29 220.36 59.39 220.59 53.03 C 220.67 49.12 220.20 45.19 220.50 41.29 C 220.78 40.87 221.32 40.04 221.60 39.62 C 221.69 41.90 221.63 44.18 221.51 46.46 L 223.66 45.81 L 223.91 47.32 C 224.40 46.95 224.89 46.58 225.38 46.21 C 222.04 45.21 224.39 41.49 222.76 39.31 C 220.93 36.55 221.39 33.11 221.16 29.97 C 221.24 26.61 221.33 22.41 224.51 20.39 M 271.63 40.27 C 271.83 43.97 271.68 47.67 271.19 51.34 C 273.47 48.05 273.43 44.10 273.19 40.28 L 271.63 40.27 M 277.78 89.56 C 276.31 92.70 281.09 89.47 277.78 89.56 M 275.14 92.47 C 276.24 95.32 277.87 90.50 275.14 92.47 Z" />
<path fill="#ffffff" opacity="1.00" d=" M 177.98 25.44 C 180.08 26.95 181.46 29.16 182.77 31.34 C 183.37 32.69 184.07 34.01 184.80 35.30 L 183.45 35.39 C 184.23 36.44 185.26 37.88 183.57 38.68 C 183.85 39.17 184.39 40.16 184.67 40.65 C 183.74 41.08 182.80 41.50 181.86 41.90 C 182.37 41.46 183.40 40.56 183.91 40.12 C 183.53 39.78 182.76 39.10 182.38 38.77 L 183.56 37.21 L 180.65 37.18 C 181.40 37.07 182.90 36.84 183.65 36.73 C 182.34 35.51 181.09 34.24 179.87 32.94 C 180.35 32.93 181.33 32.90 181.82 32.88 C 180.28 30.54 178.95 28.06 177.98 25.44 Z" />
<path fill="#ffffff" opacity="1.00" d=" M 231.01 25.86 C 232.60 25.46 233.18 26.06 232.76 27.68 C 231.14 28.06 230.56 27.45 231.01 25.86 Z" />
<path fill="#ffffff" opacity="1.00" d=" M 223.90 33.43 C 226.20 35.05 227.72 37.49 229.02 39.93 C 226.52 38.52 224.98 36.01 223.90 33.43 Z" />
<path fill="#ffffff" opacity="1.00" d=" M 244.81 38.42 C 244.13 38.83 244.13 38.83 244.81 38.42 Z" />
<path fill="#ffffff" opacity="1.00" d=" M 246.17 39.05 C 247.42 39.70 247.35 40.36 245.94 41.02 C 244.69 40.36 244.77 39.70 246.17 39.05 Z" />
<path fill="#ffffff" opacity="1.00" d=" M 195.11 42.50 C 195.60 42.47 196.58 42.39 197.07 42.35 C 197.98 45.71 198.95 49.08 198.81 52.61 C 197.61 49.23 196.43 45.84 195.11 42.50 Z" />
<path fill="#ffffff" opacity="1.00" d=" M 238.43 54.06 C 239.57 51.94 240.48 49.67 241.98 47.76 C 241.70 48.57 241.14 50.17 240.86 50.97 C 241.15 51.49 241.44 52.00 241.74 52.51 C 242.47 50.59 243.86 49.05 245.65 48.07 C 245.09 49.41 244.47 50.71 243.84 52.02 C 243.40 53.80 242.71 55.50 241.92 57.15 C 241.68 56.17 241.22 54.20 240.99 53.22 C 240.35 53.43 239.07 53.85 238.43 54.06 Z" />
<path fill="#ffffff" opacity="1.00" d=" M 223.39 51.12 C 225.03 50.99 227.23 52.79 227.44 54.42 C 225.85 54.05 223.39 53.01 223.39 51.12 Z" />
<path fill="#ffffff" opacity="1.00" d=" M 166.29 52.45 C 167.45 51.80 168.78 53.80 167.82 54.68 C 166.58 55.42 165.41 53.36 166.29 52.45 Z" />
<path fill="#ffffff" opacity="1.00" d=" M 250.30 52.18 L 250.46 52.16 C 251.09 54.13 253.57 55.99 252.26 58.18 C 250.14 62.40 249.35 67.12 247.32 71.36 C 247.69 67.49 250.23 64.01 249.54 60.04 C 250.33 57.49 250.48 54.83 250.30 52.18 Z" />
<path fill="#ffffff" opacity="1.00" d=" M 247.25 53.44 C 248.49 52.08 249.35 54.45 248.44 55.30 C 247.29 56.69 246.09 54.23 247.25 53.44 Z" />
<path fill="#ffffff" opacity="1.00" d=" M 198.00 53.35 C 199.95 55.40 200.06 58.40 200.48 61.04 C 200.82 72.22 203.30 83.16 205.76 94.02 C 206.58 96.83 208.38 99.27 208.85 102.20 C 207.29 101.35 206.47 99.76 206.09 98.09 C 204.36 91.09 203.28 83.92 200.93 77.08 C 199.11 72.70 202.26 67.18 198.44 63.58 C 198.83 63.42 199.60 63.09 199.99 62.92 C 199.00 60.04 197.73 57.26 195.86 54.83 L 197.71 55.94 C 197.78 55.29 197.92 54.00 198.00 53.35 Z" />
<path fill="#ffffff" opacity="1.00" d=" M 223.74 53.85 C 225.13 54.19 227.46 55.49 227.40 57.06 C 225.86 57.01 223.79 55.40 223.74 53.85 Z" />
<path fill="#ffffff" opacity="1.00" d=" M 227.44 54.42 C 227.78 54.78 227.78 54.78 227.44 54.42 Z" />
<path fill="#ffffff" opacity="1.00" d=" M 230.51 53.62 C 231.90 53.39 232.57 53.95 232.50 55.31 C 231.11 55.58 230.45 55.01 230.51 53.62 Z" />
<path fill="#ffffff" opacity="1.00" d=" M 228.37 58.07 C 228.48 56.71 228.58 55.35 228.68 53.98 C 229.86 55.53 231.57 56.88 231.69 59.00 C 232.14 58.78 233.02 58.35 233.46 58.14 C 233.45 58.84 233.42 60.22 233.40 60.92 C 234.77 61.70 236.10 62.55 237.36 63.49 C 235.82 62.94 234.33 62.21 232.69 61.99 L 232.74 61.82 L 232.30 60.72 L 232.96 59.72 C 231.35 59.40 229.87 58.69 228.37 58.07 Z" />
<path fill="#ffffff" opacity="1.00" d=" M 173.46 66.30 C 174.00 64.14 174.41 61.94 175.19 59.85 C 175.44 62.17 176.27 64.34 177.57 66.27 C 177.31 66.28 176.80 66.31 176.55 66.33 C 177.13 68.85 177.17 71.42 176.35 73.90 L 177.44 73.81 C 177.23 74.52 177.03 75.22 176.83 75.93 C 175.72 78.21 177.21 80.46 177.43 82.74 C 176.89 85.17 176.34 87.60 175.66 90.00 C 174.16 87.71 174.92 85.02 175.24 82.52 C 174.62 82.41 173.39 82.20 172.77 82.09 C 172.38 80.45 173.43 78.97 173.88 77.46 C 172.33 75.50 172.50 73.13 173.89 71.09 L 171.88 71.34 C 172.27 71.06 173.05 70.50 173.45 70.22 C 173.46 68.91 173.47 67.60 173.46 66.30 Z" />
<path fill="#ffffff" opacity="1.00" d=" M 231.16 62.06 C 231.54 62.04 232.31 62.01 232.69 61.99 C 233.74 62.53 235.20 63.86 234.85 65.14 C 233.15 64.84 231.84 63.60 231.16 62.06 Z" />
<path fill="#ffffff" opacity="1.00" d=" M 255.85 60.74 L 257.11 61.95 C 256.97 64.90 256.33 67.80 255.97 70.72 C 257.54 73.89 255.42 77.31 254.14 80.21 C 253.80 77.39 254.72 74.69 255.28 71.97 L 253.32 72.75 C 255.41 68.97 253.80 64.53 255.85 60.74 Z" />
<path fill="#ffffff" opacity="1.00" d=" M 284.89 61.28 C 285.61 61.22 287.06 61.09 287.78 61.02 C 287.79 62.20 287.79 64.57 287.79 65.75 C 287.02 66.52 286.24 67.28 285.47 68.04 C 285.34 65.78 285.06 63.54 284.89 61.28 Z" />
<path fill="#ffffff" opacity="1.00" d=" M 260.62 74.00 C 260.00 71.45 259.67 68.57 261.46 66.41 C 261.61 68.97 261.46 71.56 260.62 74.00 Z" />
<path fill="#ffffff" opacity="1.00" d=" M 287.13 68.92 C 287.54 68.48 287.54 68.48 287.13 68.92 Z" />
<path fill="#ffffff" opacity="1.00" d=" M 288.02 70.35 C 288.34 70.71 288.34 70.71 288.02 70.35 Z" />
<path fill="#ffffff" opacity="1.00" d=" M 263.02 81.56 C 260.87 79.17 260.80 76.05 261.96 73.20 L 262.74 74.99 C 263.72 74.77 264.71 74.55 265.72 74.40 C 264.87 76.80 264.00 79.20 263.02 81.56 Z" />
<path fill="#ffffff" opacity="1.00" d=" M 187.93 80.79 C 187.56 79.46 189.43 77.78 190.74 78.20 C 191.17 79.54 189.21 81.18 187.93 80.79 Z" />
<path fill="#ffffff" opacity="1.00" d=" M 286.85 82.97 C 287.35 81.27 287.68 79.52 288.04 77.78 C 288.52 81.88 289.02 86.37 286.68 90.03 C 285.19 90.14 283.83 90.55 282.76 91.60 C 282.32 91.78 281.45 92.13 281.01 92.31 C 281.60 91.33 282.21 90.36 282.84 89.41 C 282.66 89.14 282.31 88.60 282.14 88.33 C 283.52 86.88 284.85 85.38 286.22 83.92 C 286.24 84.99 286.27 87.13 286.28 88.20 L 287.44 88.33 C 287.27 86.54 287.08 84.75 286.85 82.97 Z" />
<path fill="#ffffff" opacity="1.00" d=" M 189.05 81.56 C 190.13 81.02 191.26 80.55 192.38 80.09 C 192.49 81.64 192.62 83.20 192.76 84.75 C 194.88 83.84 195.77 82.03 195.89 79.84 C 197.04 81.90 196.26 83.51 194.14 84.44 C 194.13 85.69 194.66 86.48 195.73 86.80 C 195.87 86.21 196.13 85.03 196.26 84.44 C 196.46 85.26 196.85 86.89 197.05 87.70 C 196.65 87.76 195.86 87.89 195.46 87.95 C 195.58 88.72 195.82 90.25 195.94 91.02 C 195.52 90.05 195.09 89.09 194.66 88.14 C 193.50 89.09 193.25 90.73 192.55 92.00 C 192.36 91.38 191.98 90.13 191.79 89.51 C 191.38 89.83 190.55 90.46 190.13 90.78 C 190.68 89.42 191.21 88.04 191.77 86.68 C 191.15 86.92 189.91 87.39 189.28 87.63 C 190.03 86.38 190.76 85.12 191.51 83.87 C 190.68 83.11 189.82 82.38 189.05 81.56 Z" />
<path fill="#ffffff" opacity="1.00" d=" M 264.37 80.55 C 266.54 80.34 266.34 85.37 264.44 85.18 C 263.81 83.77 263.81 81.97 264.37 80.55 Z" />
<path fill="#ffffff" opacity="1.00" d=" M 311.91 98.36 C 316.11 92.72 316.54 85.50 319.86 79.45 C 320.03 80.33 320.38 82.09 320.55 82.97 C 316.61 84.93 319.98 89.90 317.02 92.63 C 318.10 91.72 319.19 90.82 320.30 89.94 C 319.83 91.59 319.38 93.26 318.73 94.85 C 318.05 99.65 315.80 104.02 312.90 107.85 L 311.11 106.57 C 312.72 108.59 310.82 110.27 309.96 111.92 C 306.76 116.42 303.75 121.38 298.70 124.02 C 300.82 120.40 304.27 117.84 306.58 114.34 C 305.70 112.05 306.24 109.33 304.72 107.29 C 304.51 110.65 305.25 114.40 302.82 117.17 C 302.44 117.38 301.68 117.79 301.30 118.00 C 301.39 115.95 301.44 113.89 301.43 111.84 C 298.91 114.00 300.63 117.36 300.48 120.14 C 299.67 119.95 298.07 119.57 297.26 119.38 C 297.26 118.16 297.24 116.95 297.19 115.73 C 293.42 117.58 300.30 124.29 294.65 123.62 C 294.33 124.33 293.69 125.77 293.37 126.49 C 293.15 123.40 295.44 120.77 295.60 117.65 C 294.12 118.60 292.71 119.99 290.81 119.19 C 290.54 119.58 290.00 120.34 289.73 120.72 C 289.40 120.67 288.74 120.57 288.42 120.52 C 288.53 118.71 288.77 116.92 289.14 115.14 C 291.02 114.92 290.93 117.76 291.92 118.82 C 293.67 117.28 295.42 115.73 297.20 114.21 C 298.93 112.96 300.54 111.56 302.17 110.18 C 303.18 108.88 304.25 107.63 305.29 106.35 C 307.31 104.10 309.15 101.69 310.94 99.24 C 311.53 99.93 312.12 100.61 312.72 101.30 C 312.61 100.27 312.34 99.29 311.91 98.36 M 302.21 111.57 C 302.83 112.18 302.83 112.18 302.21 111.57 Z" />
<path fill="#ffffff" opacity="1.00" d=" M 244.09 81.92 C 243.42 81.43 243.42 81.43 244.09 81.92 Z" />
<path fill="#ffffff" opacity="1.00" d=" M 244.09 81.92 C 244.66 82.52 244.66 82.52 244.09 81.92 Z" />
<path fill="#ffffff" opacity="1.00" d=" M 199.78 83.19 C 199.94 83.27 200.26 83.42 200.42 83.49 C 199.84 85.72 199.48 88.01 198.80 90.22 C 199.37 89.96 200.51 89.43 201.08 89.17 C 201.23 92.10 201.35 95.05 201.91 97.94 L 199.83 97.54 C 200.69 94.98 198.43 93.56 197.15 91.77 C 197.30 90.79 197.54 89.82 197.88 88.88 C 198.61 87.02 199.25 85.12 199.78 83.19 Z" />
<path fill="#ffffff" opacity="1.00" d=" M 178.56 84.26 C 179.52 84.39 180.48 84.52 181.45 84.65 C 181.34 86.00 181.24 87.36 181.14 88.71 C 181.73 88.66 182.90 88.54 183.49 88.49 C 182.53 92.61 182.93 96.86 182.36 101.02 C 179.84 99.47 180.93 96.40 180.01 94.09 C 178.92 90.91 179.85 87.43 178.56 84.26 Z" />
<path fill="#ffffff" opacity="1.00" d=" M 250.23 84.09 C 251.55 83.39 253.44 84.75 253.87 86.04 C 253.01 87.75 249.46 85.81 250.23 84.09 Z" />
<path fill="#ffffff" opacity="1.00" d=" M 266.12 92.70 C 265.55 90.25 265.68 87.75 266.50 85.36 C 268.79 86.90 268.21 89.72 268.44 92.02 C 268.84 91.77 269.64 91.28 270.04 91.03 C 269.81 92.40 269.58 93.78 269.35 95.16 C 272.03 97.10 270.48 101.62 268.32 103.27 C 268.50 100.92 268.86 98.59 269.16 96.26 C 268.71 96.33 267.81 96.49 267.36 96.56 C 267.72 95.11 268.06 93.64 268.43 92.19 C 267.85 92.32 266.69 92.58 266.12 92.70 Z" />
<path fill="#ffffff" opacity="1.00" d=" M 243.19 87.78 C 248.84 88.71 254.69 89.82 259.54 93.12 C 254.10 91.69 248.01 92.08 243.19 88.80 L 243.19 87.78 Z" />
<path fill="#ffffff" opacity="1.00" d=" M 319.27 87.82 C 322.46 88.33 317.46 90.84 319.27 87.82 Z" />
<path fill="#ffffff" opacity="1.00" d=" M 282.76 91.60 C 284.22 91.70 285.69 91.52 287.15 91.38 C 285.83 95.58 285.36 99.92 285.08 104.28 C 284.77 104.79 284.15 105.79 283.84 106.30 C 283.77 105.16 283.64 102.87 283.58 101.73 C 281.96 104.52 281.03 107.77 278.59 110.00 C 279.08 107.85 279.74 105.74 280.03 103.54 C 279.35 103.58 278.01 103.65 277.34 103.69 C 278.01 105.71 277.50 108.93 275.15 109.66 C 275.65 107.85 276.26 106.07 276.89 104.29 L 274.68 104.81 C 275.32 103.58 275.97 102.36 276.64 101.15 C 276.05 101.31 274.86 101.62 274.27 101.77 C 275.56 99.45 276.19 95.89 279.45 95.72 C 278.54 97.34 277.57 98.93 276.54 100.48 C 277.47 100.10 279.33 99.34 280.26 98.96 L 278.11 102.18 C 278.82 102.54 279.54 102.90 280.26 103.25 C 281.64 101.51 283.26 99.96 284.37 98.03 C 282.79 99.15 281.28 100.37 279.73 101.51 C 280.47 98.75 281.85 95.81 284.78 94.87 C 284.85 94.38 284.99 93.41 285.07 92.92 L 284.47 93.18 C 283.25 94.32 281.92 95.32 280.52 96.21 C 281.20 94.64 282.14 93.20 282.76 91.60 Z" />
<path fill="#ffffff" opacity="1.00" d=" M 183.48 91.32 C 186.88 93.21 185.06 98.00 187.51 100.63 C 186.99 98.04 186.07 95.42 187.20 92.84 C 187.28 96.73 189.52 99.91 192.22 102.48 C 192.64 102.47 193.48 102.43 193.90 102.41 C 195.95 104.81 197.94 107.30 199.24 110.20 C 200.72 110.82 202.13 111.60 203.40 112.60 C 206.34 115.50 211.44 117.12 211.62 121.90 C 210.05 120.67 208.54 119.34 207.27 117.80 C 205.41 115.14 202.26 113.93 200.25 111.41 C 199.76 111.47 198.77 111.59 198.27 111.65 C 197.12 110.28 195.94 108.94 194.57 107.80 C 194.19 106.30 193.83 104.80 193.43 103.31 C 193.36 104.65 193.32 105.98 193.31 107.32 L 192.42 107.50 C 192.22 105.41 190.04 105.27 188.65 104.49 C 189.01 106.45 189.43 108.40 189.62 110.38 C 188.83 109.48 188.22 108.47 187.81 107.34 C 187.50 107.46 186.89 107.70 186.59 107.81 C 186.00 105.56 183.69 104.22 183.41 101.86 C 183.10 98.35 183.29 94.83 183.48 91.32 Z" />
<path fill="#ffffff" opacity="1.00" d=" M 231.48 103.79 C 232.48 100.56 232.52 96.82 234.93 94.22 C 235.31 94.78 236.07 95.92 236.45 96.49 C 236.36 102.75 237.08 109.13 235.90 115.32 C 236.64 117.70 237.13 120.16 237.10 122.67 C 239.41 124.29 241.66 125.99 243.74 127.91 C 243.50 127.00 243.02 125.19 242.79 124.28 C 245.54 126.46 247.36 129.48 248.64 132.71 C 249.40 129.93 247.93 127.77 246.10 125.90 C 245.74 125.57 245.04 124.90 244.68 124.56 C 245.45 124.54 246.98 124.49 247.75 124.46 C 248.70 125.50 249.66 126.55 250.61 127.60 C 250.58 126.51 250.52 124.34 250.49 123.25 C 250.82 123.92 251.50 125.26 251.83 125.94 C 252.52 125.14 253.21 124.34 253.90 123.54 C 254.05 124.31 254.35 125.85 254.50 126.62 C 254.95 126.50 255.84 126.28 256.28 126.16 C 256.34 128.70 256.67 131.27 257.96 133.51 C 258.96 130.71 257.70 127.56 258.36 124.61 C 259.13 125.34 259.89 126.07 260.65 126.82 C 260.61 124.32 263.09 123.41 264.62 121.98 C 266.64 120.74 267.01 118.28 267.99 116.31 C 268.58 118.22 269.20 120.78 272.04 119.59 C 270.30 120.13 268.45 120.69 268.27 122.84 L 267.57 122.35 C 266.89 122.98 266.20 123.59 265.50 124.19 C 263.82 128.92 261.28 133.24 257.52 136.62 C 256.76 136.31 255.25 135.70 254.50 135.39 C 254.57 134.76 254.72 133.48 254.79 132.85 C 254.07 134.04 253.38 135.24 252.72 136.46 C 254.10 136.49 255.48 136.53 256.87 136.59 C 256.20 137.64 255.53 138.69 254.86 139.74 C 253.51 140.55 252.21 141.43 250.90 142.31 C 249.39 139.13 250.24 134.74 247.14 132.50 C 247.94 135.64 249.04 138.70 249.72 141.88 C 244.82 139.73 241.96 135.14 238.68 131.20 C 238.48 130.17 238.29 129.16 238.11 128.14 C 238.47 128.10 239.19 128.02 239.55 127.98 C 240.00 129.58 239.58 132.54 242.14 131.31 C 243.21 129.29 242.56 127.21 240.21 126.87 C 236.73 124.48 234.03 120.15 235.27 115.83 C 236.09 113.16 233.05 111.53 231.73 109.66 C 232.47 111.52 233.22 113.38 233.98 115.24 C 232.71 113.84 230.88 112.82 230.04 111.08 C 229.93 109.57 229.90 108.06 229.94 106.55 C 230.75 107.71 231.55 108.87 232.33 110.05 C 232.51 109.63 232.87 108.78 233.05 108.36 C 233.81 109.46 234.59 110.54 235.40 111.61 C 235.57 108.69 234.46 106.03 232.62 103.83 C 232.93 105.05 233.56 107.48 233.87 108.70 C 232.23 107.85 230.67 105.69 231.48 103.79 M 234.34 96.82 C 233.31 99.53 233.02 102.96 235.22 105.21 C 235.36 102.29 235.72 99.38 235.85 96.47 C 235.47 96.56 234.71 96.74 234.34 96.82 M 254.08 129.22 C 254.12 128.49 254.19 127.03 254.22 126.30 C 252.41 125.21 252.37 129.76 254.08 129.22 M 243.23 129.66 C 242.80 130.64 242.37 131.62 241.96 132.61 C 244.24 133.58 245.11 135.97 246.09 138.04 C 248.20 136.58 246.45 134.32 246.29 132.47 C 245.99 132.48 245.37 132.48 245.07 132.48 C 244.46 131.53 243.85 130.59 243.23 129.66 M 249.45 132.60 C 249.90 134.38 250.40 136.16 250.82 137.95 C 251.58 138.71 252.34 139.47 253.11 140.23 C 252.22 137.52 252.52 133.95 249.45 132.60 Z" />
<path fill="#ffffff" opacity="1.00" d=" M 248.30 92.82 C 251.51 93.43 254.71 94.20 257.83 95.19 C 259.22 94.83 260.62 94.51 262.04 94.23 C 259.66 95.31 257.53 96.77 255.75 98.68 C 257.85 98.62 259.96 98.54 262.07 98.55 C 261.23 99.92 260.03 100.95 258.75 101.89 L 258.81 103.31 C 256.23 101.78 253.40 100.27 251.91 97.55 C 250.66 96.00 249.43 94.44 248.30 92.82 Z" />
<path fill="#ffffff" opacity="1.00" d=" M 194.60 94.74 L 196.41 94.67 C 196.33 95.32 196.17 96.63 196.10 97.28 C 197.30 98.11 198.47 98.98 199.64 99.86 C 199.50 102.14 199.41 104.43 199.30 106.71 C 198.25 105.52 197.24 104.30 196.21 103.10 C 196.06 101.29 196.18 99.27 194.53 98.07 C 194.54 97.24 194.58 95.57 194.60 94.74 Z" />
<path fill="#ffffff" opacity="1.00" d=" M 201.67 98.67 C 203.44 98.71 204.23 101.72 204.09 103.26 C 202.21 103.43 201.30 100.22 201.67 98.67 Z" />
<path fill="#ffffff" opacity="1.00" d=" M 336.82 101.77 C 337.99 100.95 339.14 99.73 340.72 100.07 C 338.17 105.52 335.58 111.02 331.78 115.73 C 331.05 116.99 329.79 117.52 328.38 117.57 C 326.81 118.21 325.25 118.88 323.71 119.57 C 324.44 119.70 325.92 119.95 326.65 120.08 C 322.83 122.93 317.74 122.50 313.63 124.68 C 311.65 125.68 309.64 126.66 307.46 127.14 C 311.55 123.85 316.77 122.30 320.62 118.67 C 323.81 115.42 327.57 112.75 330.46 109.19 C 330.43 109.79 330.35 110.99 330.32 111.60 L 332.58 111.39 C 330.37 113.95 327.20 115.12 324.50 116.99 C 326.61 116.41 328.71 115.70 330.67 114.71 C 332.14 113.46 332.92 111.65 333.94 110.05 C 333.35 110.26 332.19 110.68 331.61 110.89 L 331.47 108.93 C 335.47 108.61 337.64 105.10 338.87 101.67 C 336.11 103.69 333.82 106.27 331.01 108.23 C 332.03 105.35 334.58 103.61 336.82 101.77 Z" />
<path fill="#ffffff" opacity="1.00" d=" M 203.79 111.53 C 199.53 109.16 198.84 103.95 200.68 99.78 C 202.08 103.59 203.10 107.53 203.79 111.53 Z" />
<path fill="#ffffff" opacity="1.00" d=" M 270.09 108.18 C 269.90 105.93 270.11 103.52 271.97 101.96 C 272.32 104.33 272.16 106.69 270.09 108.18 Z" />
<path fill="#ffffff" opacity="1.00" d=" M 177.98 103.89 C 179.58 104.99 181.18 106.12 182.82 107.18 C 183.26 107.76 184.15 108.92 184.59 109.50 C 183.23 109.58 181.87 109.68 180.51 109.78 C 180.63 109.21 180.88 108.05 181.01 107.48 C 180.38 107.55 179.11 107.71 178.48 107.79 C 178.32 106.48 178.15 105.18 177.98 103.89 Z" />
<path fill="#ffffff" opacity="1.00" d=" M 213.43 104.43 C 213.86 105.47 214.31 106.50 214.76 107.53 C 215.83 107.59 216.91 107.72 217.96 107.96 C 218.52 106.97 219.08 105.98 219.64 104.99 C 219.97 108.07 218.93 110.95 218.23 113.87 C 220.13 112.71 221.22 110.46 222.85 108.91 C 222.35 110.42 221.79 111.92 221.30 113.45 C 222.01 112.91 223.43 111.83 224.14 111.30 C 224.63 114.65 227.63 118.48 224.57 121.46 C 225.92 120.91 227.46 120.62 228.59 119.64 C 229.41 117.37 229.69 114.96 230.21 112.61 C 231.23 113.77 232.25 114.92 233.26 116.08 C 232.69 116.07 231.55 116.06 230.97 116.05 C 231.68 117.66 232.43 119.26 233.10 120.89 C 232.30 119.99 231.53 119.07 230.76 118.15 C 229.59 120.10 227.81 121.53 226.07 122.92 C 222.94 121.82 219.62 120.83 217.43 118.16 C 218.55 118.31 220.78 118.59 221.90 118.73 C 220.74 117.23 219.43 115.90 217.96 114.74 C 217.44 114.55 216.41 114.15 215.89 113.96 C 216.02 112.84 216.28 110.61 216.42 109.49 C 215.86 110.16 214.74 111.51 214.18 112.18 C 213.14 110.33 212.16 108.45 211.15 106.59 C 211.92 105.88 212.68 105.16 213.43 104.43 Z" />
<path fill="#ffffff" opacity="1.00" d=" M 205.34 112.61 C 205.11 109.49 201.79 105.78 205.09 103.35 C 205.68 105.44 206.24 107.55 206.58 109.70 C 207.62 109.79 208.66 109.89 209.70 110.00 C 210.28 111.15 210.88 112.29 211.48 113.44 C 213.00 114.77 214.34 116.31 215.22 118.16 C 212.95 116.97 210.87 115.45 208.62 114.21 C 208.40 113.71 207.94 112.70 207.71 112.19 C 207.12 112.29 205.93 112.50 205.34 112.61 Z" />
<path fill="#ffffff" opacity="1.00" d=" M 206.85 106.34 C 208.22 106.45 208.99 107.24 209.14 108.72 C 208.06 109.41 205.93 107.45 206.85 106.34 Z" />
<path fill="#ffffff" opacity="1.00" d=" M 284.55 105.74 C 286.74 107.27 288.49 110.87 287.87 113.05 C 285.08 112.01 285.04 108.19 284.55 105.74 Z" />
<path fill="#ffffff" opacity="1.00" d=" M 171.26 109.60 C 173.18 106.73 177.32 108.45 179.96 109.32 C 180.99 111.61 177.51 111.30 176.19 111.35 C 174.61 110.58 172.89 110.19 171.26 109.60 Z" />
<path fill="#ffffff" opacity="1.00" d=" M 224.22 110.27 C 224.86 110.73 224.86 110.73 224.22 110.27 Z" />
<path fill="#ffffff" opacity="1.00" d=" M 170.29 111.22 C 172.84 110.76 176.43 110.62 177.94 113.07 C 177.79 114.64 175.81 112.34 175.22 112.48 C 173.85 113.21 172.42 113.81 170.94 114.27 L 171.96 114.69 C 174.57 114.85 177.43 116.03 179.78 114.32 C 180.44 114.37 181.76 114.45 182.42 114.49 C 181.51 113.63 179.45 113.49 179.25 112.18 C 181.71 111.67 185.40 110.06 187.05 112.74 C 187.69 113.34 188.32 113.95 188.95 114.57 C 191.07 116.59 192.99 118.86 195.49 120.44 C 192.35 123.57 187.46 122.49 184.11 125.03 C 181.48 126.35 178.38 126.94 176.17 128.94 C 179.41 128.01 182.55 126.66 185.89 126.07 C 188.23 123.18 192.18 123.50 195.38 122.18 C 195.88 121.87 196.38 121.57 196.89 121.27 C 197.78 122.14 198.76 122.87 199.86 123.47 L 199.05 124.62 C 202.96 124.05 205.76 127.34 208.80 129.21 C 214.26 132.49 218.88 137.35 225.27 138.85 C 224.05 137.11 222.70 135.34 220.43 135.06 C 220.56 134.54 220.82 133.52 220.94 133.00 L 219.23 133.67 C 219.49 132.58 219.75 131.49 220.00 130.40 C 219.39 129.64 218.78 128.87 218.17 128.10 L 218.09 130.34 C 217.07 129.54 216.04 128.78 214.98 128.03 C 216.00 130.13 217.22 132.13 218.05 134.32 C 215.69 131.32 214.16 127.77 212.00 124.64 C 212.00 123.93 211.99 122.52 211.99 121.81 C 213.23 122.42 214.48 123.01 215.76 123.56 C 216.33 124.81 216.93 126.05 217.54 127.28 C 217.83 126.58 218.41 125.19 218.70 124.49 L 216.47 124.72 C 216.81 124.36 217.48 123.64 217.82 123.29 C 220.88 125.09 221.63 130.08 219.93 133.03 L 221.93 132.44 C 221.70 132.90 221.24 133.83 221.02 134.29 C 223.00 135.38 226.34 136.70 225.40 139.56 C 227.01 139.59 228.42 140.29 229.62 141.32 C 225.25 140.59 221.11 142.11 216.94 143.07 C 216.43 144.46 213.13 142.88 214.61 141.90 C 217.28 140.54 220.55 140.70 223.32 139.44 C 220.31 139.36 217.15 139.50 214.60 141.28 C 210.12 142.63 205.47 143.17 200.94 144.28 C 201.49 143.60 202.61 142.23 203.16 141.54 C 198.33 142.89 193.31 143.51 188.69 145.57 C 190.17 145.91 191.64 146.26 193.12 146.62 C 188.45 145.76 183.72 146.88 179.91 149.70 C 179.99 149.99 180.16 150.57 180.24 150.87 C 181.66 151.12 182.65 149.86 183.85 149.35 C 182.60 152.98 177.87 154.02 174.94 156.15 C 174.03 157.47 173.06 158.75 172.09 160.03 C 171.41 159.94 170.06 159.76 169.39 159.67 C 169.17 158.62 169.05 157.57 169.01 156.50 L 171.64 158.23 L 171.49 155.82 C 172.05 156.29 173.19 157.24 173.76 157.72 C 172.11 154.45 176.62 154.32 177.95 152.64 L 176.94 152.78 C 175.24 153.21 172.42 154.78 171.94 151.98 C 172.19 151.74 172.68 151.26 172.93 151.02 C 173.47 151.23 174.56 151.65 175.10 151.86 L 175.57 151.79 C 175.38 151.06 175.44 150.38 175.75 149.75 C 176.78 149.02 176.88 148.46 176.06 148.05 L 175.17 147.83 L 174.94 147.35 C 176.36 146.39 180.12 144.79 177.22 143.23 C 181.82 140.86 186.69 138.01 192.09 138.87 C 191.59 139.48 190.60 140.70 190.10 141.31 C 191.69 140.90 193.28 140.52 194.89 140.16 C 194.74 139.80 194.43 139.09 194.28 138.73 C 197.73 138.11 201.14 137.23 204.55 136.43 C 201.68 136.17 198.79 136.21 195.92 136.03 C 198.32 133.44 201.88 134.24 205.03 134.03 C 200.97 132.93 196.68 133.33 193.10 135.60 C 193.71 136.05 194.33 136.50 194.94 136.95 C 189.27 138.80 182.99 138.19 177.85 141.72 C 177.50 140.67 177.11 139.63 176.70 138.61 C 182.01 138.55 185.65 133.58 190.78 133.33 C 191.02 133.64 191.51 134.26 191.75 134.56 C 191.89 134.47 192.16 134.29 192.30 134.20 C 192.64 134.09 193.32 133.85 193.67 133.74 C 192.83 133.19 192.00 132.65 191.17 132.10 L 192.88 130.88 C 191.54 131.61 190.22 132.35 188.92 133.15 C 185.94 133.15 183.66 134.84 181.40 136.55 C 175.84 138.28 170.71 141.27 166.11 144.78 C 168.21 144.45 169.79 143.02 171.42 141.81 C 171.95 141.76 173.01 141.66 173.55 141.61 L 173.71 142.47 L 172.12 143.46 L 172.17 144.26 C 171.61 144.19 170.50 144.05 169.95 143.98 L 170.46 145.14 C 168.12 145.80 165.79 146.68 163.31 146.43 C 163.34 147.26 163.40 148.92 163.43 149.76 C 165.65 148.17 168.12 146.34 170.81 148.22 C 166.83 150.14 163.49 153.09 159.64 155.22 C 159.68 154.66 159.76 153.54 159.79 152.99 L 158.01 154.14 C 157.89 153.68 157.65 152.77 157.53 152.31 L 156.32 152.98 C 155.72 151.90 155.11 150.85 154.48 149.79 C 156.97 148.54 159.64 147.59 162.45 147.49 C 162.23 145.41 164.13 144.29 165.23 142.85 C 164.67 142.87 163.55 142.93 162.99 142.95 C 163.23 142.45 163.73 141.46 163.98 140.96 C 162.28 141.66 160.60 142.42 158.87 143.03 C 160.17 141.33 161.79 139.89 163.82 139.13 C 161.86 139.15 160.24 138.84 161.59 136.75 C 160.59 138.03 159.56 139.27 158.46 140.47 C 158.37 139.20 158.36 137.94 158.43 136.68 C 161.04 135.04 164.37 134.78 166.91 133.17 C 163.65 132.87 160.71 134.93 157.43 134.82 C 160.86 131.44 166.37 132.51 170.21 129.86 C 168.67 130.07 167.15 130.37 165.65 130.78 C 163.39 130.99 161.13 131.08 158.86 131.14 C 156.20 132.01 153.71 133.33 151.11 134.36 C 148.36 134.75 145.63 135.22 142.88 135.60 C 143.87 132.11 148.53 133.32 151.28 132.59 C 150.05 132.12 148.82 131.65 147.60 131.18 C 149.99 130.26 152.51 129.77 155.05 129.49 C 158.07 129.16 161.14 127.83 164.10 129.22 C 166.71 128.81 169.27 128.13 171.76 127.27 C 170.47 127.29 167.87 127.33 166.58 127.35 C 169.16 125.73 172.13 125.05 175.10 124.57 C 173.42 124.40 171.75 124.23 170.09 124.03 C 175.86 121.13 182.67 120.92 188.79 118.84 L 188.86 120.76 C 186.30 121.25 183.72 121.66 181.29 122.63 C 185.08 122.97 188.49 120.96 192.07 120.06 C 191.35 119.05 190.65 118.03 189.96 117.00 C 183.96 120.15 176.86 120.30 170.33 121.82 L 170.43 120.82 C 167.42 120.56 164.43 120.11 161.43 119.84 C 161.50 119.16 161.64 117.80 161.71 117.12 C 162.49 117.63 163.26 118.15 164.03 118.67 C 166.25 117.48 168.51 116.35 170.76 115.23 C 169.02 114.85 167.32 115.71 165.61 115.88 C 166.64 115.16 167.76 114.59 168.90 114.07 C 169.37 113.12 169.83 112.17 170.29 111.22 M 168.27 132.07 C 168.41 132.36 168.67 132.94 168.80 133.23 L 169.65 132.80 L 169.66 131.92 L 168.84 131.54 L 168.27 132.07 M 196.65 139.83 C 194.36 140.88 192.01 141.79 189.70 142.80 C 189.31 142.71 188.53 142.54 188.13 142.45 C 188.95 142.94 189.54 144.40 190.68 143.79 C 195.41 142.56 200.52 141.53 204.49 138.55 C 201.90 139.12 199.31 139.73 196.65 139.83 M 177.55 147.16 C 177.94 147.45 178.34 147.74 178.75 148.03 C 180.36 146.28 182.49 145.17 184.35 143.73 C 181.82 144.30 179.67 145.75 177.55 147.16 M 176.83 150.20 C 177.53 150.79 177.53 150.79 176.83 150.20 M 172.00 157.42 C 172.69 158.01 172.69 158.01 172.00 157.42 M 170.73 158.31 C 170.99 158.72 170.99 158.72 170.73 158.31 Z" />
<path fill="#ffffff" opacity="1.00" d=" M 273.04 117.80 C 273.64 114.39 276.74 111.96 279.79 110.67 C 279.56 112.13 279.32 113.59 279.06 115.04 C 278.33 115.22 276.87 115.60 276.14 115.78 L 276.36 116.37 C 277.93 117.90 279.39 119.56 281.21 120.81 C 282.02 121.94 282.85 123.07 283.71 124.18 C 283.55 124.58 283.23 125.36 283.07 125.75 C 282.09 126.30 281.12 126.86 280.16 127.44 C 278.91 126.19 277.36 126.93 275.94 127.26 C 277.73 127.88 279.67 128.18 280.92 129.89 C 278.70 129.87 276.52 129.77 274.31 129.73 C 274.30 129.93 274.27 130.33 274.26 130.52 C 276.00 130.40 277.73 130.13 279.48 130.00 C 278.12 133.81 282.81 128.61 283.09 132.05 C 282.35 132.41 280.88 133.12 280.15 133.48 C 281.03 133.71 281.93 133.94 282.82 134.17 C 282.33 135.37 281.85 136.57 281.39 137.77 C 281.67 137.80 282.24 137.84 282.52 137.86 L 282.64 138.15 C 281.14 138.84 279.70 139.63 278.23 140.37 C 278.31 139.59 278.47 138.05 278.55 137.28 C 277.67 137.91 275.91 139.18 275.03 139.82 C 275.50 138.93 276.44 137.14 276.91 136.25 C 275.29 137.39 273.65 138.49 271.92 139.43 C 272.20 138.79 272.78 137.51 273.07 136.86 C 272.45 136.85 271.20 136.81 270.58 136.79 C 271.74 135.89 272.87 134.92 274.15 134.18 C 275.61 134.26 276.90 135.21 278.27 135.69 C 278.51 134.82 278.75 133.95 278.99 133.08 L 278.46 134.28 C 276.20 132.78 273.46 133.46 271.08 134.26 C 270.34 129.62 270.74 124.47 273.59 120.58 C 274.72 118.88 276.06 117.25 276.24 115.10 L 273.04 117.80 Z" />
<path fill="#ffffff" opacity="1.00" d=" M 268.99 112.52 C 270.67 112.71 272.37 112.92 274.01 113.41 C 272.99 114.90 272.23 116.64 270.79 117.80 C 268.09 117.86 268.81 114.27 268.99 112.52 Z" />
<path fill="#ffffff" opacity="1.00" d=" M 339.40 119.34 C 343.62 117.13 346.96 113.12 351.74 112.11 C 352.40 113.47 350.95 114.53 350.36 115.60 C 347.87 118.69 344.65 121.10 342.25 124.28 C 338.40 126.86 334.31 129.33 331.87 133.45 C 337.46 132.89 343.63 131.46 346.52 126.09 C 346.94 127.07 347.38 128.05 347.81 129.03 C 346.83 131.19 346.24 133.80 343.98 135.02 C 341.31 136.48 338.62 139.13 335.32 138.27 C 339.34 136.54 343.35 134.68 346.49 131.53 C 346.18 130.54 345.87 129.57 345.56 128.59 C 345.30 129.25 344.78 130.57 344.52 131.23 C 343.09 132.35 341.83 133.66 340.61 134.99 L 340.21 133.59 C 337.54 133.90 333.27 135.04 334.50 138.62 C 334.03 138.97 333.09 139.68 332.62 140.03 C 330.82 140.19 329.01 140.30 327.21 140.23 C 325.65 137.30 323.01 139.79 320.90 140.55 C 322.14 140.40 323.41 139.67 324.65 140.24 C 325.31 141.35 326.29 142.19 327.27 143.02 C 327.65 142.96 328.42 142.83 328.81 142.77 C 332.21 143.14 335.64 142.82 339.05 142.79 C 337.84 146.23 333.99 147.17 330.90 148.19 C 327.05 147.98 323.24 147.35 319.39 147.20 C 320.29 149.17 318.95 150.50 317.67 151.76 C 317.57 150.92 317.37 149.25 317.27 148.42 L 316.43 151.17 C 316.19 150.45 315.70 148.99 315.45 148.27 C 316.43 148.29 318.38 148.34 319.36 148.37 C 318.31 147.39 317.26 146.41 316.22 145.43 C 315.55 145.41 314.19 145.39 313.52 145.37 C 313.53 145.12 313.57 144.62 313.58 144.37 C 318.77 145.10 323.64 147.53 328.94 147.47 C 332.09 147.10 335.52 146.39 337.35 143.49 C 335.04 143.21 332.97 144.06 330.90 144.88 C 327.45 144.87 324.03 144.51 320.59 144.39 C 321.20 143.74 322.43 142.44 323.04 141.79 C 322.47 142.10 321.31 142.73 320.74 143.04 C 318.35 143.74 315.96 143.26 313.63 142.65 L 313.80 141.56 C 313.19 141.64 311.97 141.81 311.36 141.90 C 307.55 145.05 302.78 146.59 298.17 148.17 C 298.44 149.18 298.70 150.20 298.95 151.23 C 298.12 150.45 297.32 149.64 296.56 148.79 C 297.29 146.61 299.88 146.80 301.68 146.12 C 305.35 144.37 308.94 142.46 312.24 140.06 C 312.97 140.57 313.72 141.08 314.47 141.58 C 315.90 139.66 317.37 137.77 318.98 135.99 C 320.27 136.46 321.58 136.93 322.86 137.45 C 322.69 137.05 322.36 136.25 322.19 135.86 C 324.22 135.76 326.33 135.68 328.10 134.57 C 329.53 134.77 330.96 134.99 332.40 135.22 C 332.15 133.77 330.56 131.48 332.30 130.42 C 338.62 125.95 344.85 121.12 349.35 114.74 L 349.53 114.56 L 349.59 114.46 C 349.53 114.53 349.41 114.67 349.35 114.74 C 343.57 116.80 339.44 122.32 333.07 122.76 C 332.36 123.07 330.93 123.68 330.21 123.98 C 330.84 124.41 331.48 124.82 332.13 125.23 C 332.92 124.93 334.51 124.33 335.31 124.02 C 334.01 125.65 332.01 125.69 330.11 125.42 L 330.33 126.89 L 329.65 126.92 C 330.36 125.49 330.30 124.18 329.47 122.99 C 332.91 122.19 336.40 121.27 339.40 119.34 M 331.24 138.26 C 332.51 139.09 334.17 137.06 333.06 135.97 C 331.77 134.96 330.21 137.21 331.24 138.26 Z" />
<path fill="#ffffff" opacity="1.00" d=" M 194.10 112.69 C 194.68 113.09 195.83 113.91 196.41 114.31 C 196.82 114.42 197.64 114.62 198.06 114.72 C 198.47 115.33 199.30 116.53 199.71 117.13 C 200.18 116.71 201.11 115.85 201.58 115.43 C 202.45 116.94 202.80 119.84 205.19 118.33 C 205.41 118.70 205.84 119.45 206.06 119.83 C 209.53 119.64 210.54 124.12 211.88 126.62 C 211.17 126.95 210.47 127.28 209.78 127.61 C 209.62 124.13 205.87 123.13 204.05 120.65 C 203.59 120.76 202.65 121.00 202.19 121.11 C 200.39 118.94 198.68 116.68 196.84 114.54 L 196.47 116.88 C 195.66 115.49 194.87 114.10 194.10 112.69 Z" />
<path fill="#ffffff" opacity="1.00" d=" M 272.35 118.01 C 272.68 118.32 272.68 118.32 272.35 118.01 Z" />
<path fill="#ffffff" opacity="1.00" d=" M 327.03 120.23 C 328.10 119.39 329.18 118.56 330.32 117.80 C 329.72 119.27 328.81 120.57 327.75 121.73 C 328.09 122.50 328.79 124.02 329.14 124.78 C 325.06 123.37 320.74 125.49 317.14 127.32 C 321.33 127.70 325.36 125.66 329.57 126.49 C 327.38 128.57 324.38 128.85 321.65 129.72 C 324.56 129.60 327.47 129.21 330.29 128.44 C 330.42 129.14 330.67 130.54 330.80 131.24 C 328.67 131.47 326.56 131.66 324.43 131.79 C 324.43 131.93 324.43 132.20 324.43 132.33 C 326.71 132.07 329.12 131.53 331.17 132.94 C 329.86 133.37 328.57 133.82 327.28 134.29 C 325.16 134.48 323.09 134.99 321.05 135.56 C 322.37 133.04 321.16 130.42 318.34 129.99 C 313.21 133.70 307.41 136.27 301.94 139.35 C 297.68 138.66 293.50 139.15 289.58 140.99 C 289.25 140.22 288.60 138.67 288.28 137.90 C 288.93 138.52 289.56 139.16 290.19 139.80 C 292.41 138.60 296.59 138.85 295.61 135.19 C 298.08 135.19 299.37 137.36 300.97 138.85 C 300.36 137.83 299.76 136.81 299.15 135.80 C 301.05 136.12 302.98 136.36 304.92 136.25 C 304.64 135.20 304.35 134.16 304.07 133.12 L 305.96 133.44 C 305.78 132.90 305.44 131.82 305.27 131.28 C 305.82 131.26 306.94 131.21 307.49 131.19 C 308.43 130.36 309.50 129.78 310.71 129.44 L 310.76 129.21 C 309.71 129.24 307.62 129.31 306.57 129.35 C 312.78 125.94 319.73 124.41 326.46 122.42 C 326.60 121.87 326.88 120.77 327.03 120.23 M 312.33 129.81 C 312.14 133.12 315.41 128.57 312.33 129.81 Z" />
<path fill="#ffffff" opacity="1.00" d=" M 157.91 123.17 C 161.15 120.15 166.03 121.82 170.01 121.24 C 170.10 121.80 170.26 122.94 170.34 123.51 C 169.07 123.67 167.96 124.17 167.00 125.03 C 164.49 126.37 161.70 126.84 158.88 126.51 C 159.65 126.75 161.20 127.23 161.97 127.47 C 157.95 129.00 153.40 128.67 149.23 127.90 C 152.15 126.89 155.11 126.05 158.07 125.19 C 157.61 124.56 156.69 123.30 156.23 122.67 C 156.97 123.30 157.70 123.94 158.42 124.60 C 160.35 124.58 162.29 124.70 164.22 124.60 C 162.09 124.22 159.82 124.33 157.91 123.17 Z" />
<path fill="#ffffff" opacity="1.00" d=" M 290.02 122.80 C 290.12 121.86 291.63 120.17 292.43 121.47 C 292.27 122.14 291.94 123.48 291.77 124.15 C 290.74 124.51 290.15 124.06 290.02 122.80 Z" />
<path fill="#ffffff" opacity="1.00" d=" M 296.33 127.28 C 300.13 124.49 304.43 122.37 309.02 121.22 C 308.15 124.37 304.60 122.92 302.63 124.71 C 299.56 126.93 296.60 129.31 293.62 131.64 C 293.29 131.46 292.62 131.09 292.28 130.91 C 291.53 131.85 290.78 132.79 290.01 133.71 C 289.46 133.27 288.34 132.39 287.79 131.95 C 287.60 134.39 285.93 136.19 284.07 137.55 C 283.81 137.37 283.30 137.03 283.04 136.86 C 283.06 136.17 283.09 134.78 283.11 134.09 C 283.32 134.06 283.75 134.01 283.96 133.98 C 287.75 131.14 292.48 130.02 296.33 127.28 Z" />
<path fill="#ffffff" opacity="1.00" d=" M 282.45 129.18 C 283.86 127.23 285.64 125.61 287.39 123.98 C 287.09 126.08 286.90 128.34 289.80 128.48 C 287.75 130.25 284.86 129.61 282.45 129.18 Z" />
<path fill="#ffffff" opacity="1.00" d=" M 221.58 130.05 C 221.42 128.50 221.73 126.95 221.95 125.42 C 222.47 126.66 223.00 127.90 223.53 129.14 C 224.67 130.03 225.80 130.96 226.93 131.88 C 227.79 133.07 228.61 134.28 229.37 135.55 C 226.49 134.30 223.10 133.01 221.58 130.05 Z" />
<path fill="#ffffff" opacity="1.00" d=" M 224.79 127.78 C 225.59 125.83 227.84 128.48 227.31 129.77 C 226.17 130.67 224.77 128.86 224.79 127.78 Z" />
<path fill="#ffffff" opacity="1.00" d=" M 302.12 129.43 C 303.02 128.24 304.85 127.45 306.33 127.89 C 306.98 129.69 302.73 131.26 302.12 129.43 Z" />
<path fill="#ffffff" opacity="1.00" d=" M 264.09 130.79 C 267.31 130.81 262.77 133.98 264.09 130.79 Z" />
<path fill="#ffffff" opacity="1.00" d=" M 266.21 130.37 C 267.44 129.60 268.51 131.74 267.71 132.64 C 266.50 133.39 265.33 131.26 266.21 130.37 Z" />
<path fill="#ffffff" opacity="1.00" d=" M 318.28 131.26 C 320.00 130.76 320.57 131.28 320.00 132.82 C 318.27 133.36 317.70 132.84 318.28 131.26 Z" />
<path fill="#ffffff" opacity="1.00" d=" M 262.94 132.93 C 263.53 133.11 264.72 133.47 265.32 133.65 C 265.82 134.73 266.34 135.81 266.84 136.90 C 265.89 136.61 264.95 136.31 264.01 136.01 C 263.60 136.78 263.19 137.55 262.77 138.31 C 262.75 136.52 262.77 134.72 262.94 132.93 Z" />
<path fill="#ffffff" opacity="1.00" d=" M 297.89 142.08 C 305.36 140.96 311.70 136.73 317.77 132.54 C 317.31 135.86 313.57 136.50 311.56 138.65 C 308.84 141.53 304.66 141.83 301.53 144.03 C 300.33 143.35 299.09 142.75 297.89 142.08 Z" />
<path fill="#ffffff" opacity="1.00" d=" M 337.25 135.25 C 337.57 135.56 337.57 135.56 337.25 135.25 Z" />
<path fill="#ffffff" opacity="1.00" d=" M 174.68 140.46 C 177.03 139.39 176.09 143.59 176.84 144.72 L 175.07 144.38 C 175.24 144.72 175.59 145.39 175.76 145.73 C 174.55 146.34 173.36 146.96 172.18 147.61 C 171.76 145.24 172.47 143.43 174.88 142.66 C 174.55 142.40 173.88 141.87 173.55 141.61 L 172.97 141.19 C 173.40 141.01 174.25 140.64 174.68 140.46 Z" />
<path fill="#ffffff" opacity="1.00" d=" M 162.99 142.95 C 162.44 143.58 162.44 143.58 162.99 142.95 Z" />
<path fill="#ffffff" opacity="1.00" d=" M 207.29 144.73 C 207.97 142.97 212.51 141.58 212.88 143.97 C 211.04 144.25 209.14 144.77 207.29 144.73 Z" />
<path fill="#ffffff" opacity="1.00" d=" M 210.02 146.25 C 214.79 144.22 220.05 143.15 225.23 143.52 C 226.43 144.25 227.64 144.95 228.85 145.66 C 228.81 146.08 228.73 146.92 228.69 147.34 C 225.58 147.55 222.29 146.69 219.40 148.19 C 220.25 148.76 221.11 149.35 221.96 149.95 C 220.05 150.51 218.23 151.98 216.17 151.82 C 212.26 150.81 208.44 152.67 204.76 153.78 C 207.91 153.47 210.97 152.56 214.14 152.37 C 212.86 153.32 211.54 154.22 210.19 155.09 C 211.39 155.88 212.58 156.68 213.79 157.46 C 213.61 157.96 213.25 158.98 213.07 159.48 C 215.65 158.25 218.11 156.77 220.26 154.87 C 218.91 154.35 217.53 153.96 216.10 154.30 C 216.08 154.11 216.03 153.74 216.01 153.55 C 218.98 152.67 221.85 151.47 224.85 150.70 C 224.01 151.42 222.33 152.84 221.48 153.56 C 223.67 153.16 225.85 152.70 228.01 152.17 C 228.99 152.77 229.29 153.39 228.93 154.05 C 226.10 155.05 223.20 155.85 220.16 155.65 C 219.87 157.04 219.43 158.37 217.94 158.81 C 216.59 159.65 215.26 160.53 213.96 161.45 C 212.14 161.10 208.61 162.40 208.24 159.76 C 208.10 158.97 210.10 158.73 208.88 158.10 C 207.68 157.46 208.80 156.07 208.83 155.14 C 207.71 155.88 206.56 156.58 205.41 157.27 C 206.80 157.86 207.05 159.09 205.47 159.64 C 206.39 160.01 207.31 160.40 208.21 160.82 C 206.75 161.34 205.30 161.92 203.89 162.54 C 206.87 161.52 210.18 160.77 212.92 162.86 L 210.96 163.44 L 211.43 164.58 C 214.07 162.02 218.02 161.49 220.53 158.82 C 222.00 158.46 223.47 158.12 224.94 157.77 C 226.34 157.11 227.79 156.61 229.30 156.27 C 228.90 157.03 228.09 158.54 227.69 159.30 C 225.19 159.67 222.77 160.42 220.34 161.12 C 220.86 161.42 221.39 161.72 221.93 162.02 C 223.42 161.02 225.05 159.35 227.04 160.08 C 228.19 162.03 225.56 162.99 224.72 164.35 C 225.85 165.76 227.18 163.61 227.99 162.89 C 229.65 162.19 231.30 161.35 233.12 161.19 C 231.71 163.53 228.18 163.59 226.88 166.07 C 225.83 167.99 224.40 169.65 222.78 171.10 C 221.44 171.01 222.02 173.53 222.93 172.66 C 226.56 169.41 230.57 166.60 234.12 163.25 C 233.45 164.39 232.85 165.66 231.56 166.26 C 232.36 166.70 233.19 167.09 234.02 167.49 C 231.81 170.01 230.51 173.22 227.98 175.48 C 228.43 174.46 229.34 172.42 229.79 171.40 L 226.13 173.61 C 227.73 171.13 230.25 169.48 232.14 167.25 C 231.02 167.74 229.92 168.27 228.84 168.83 C 227.06 170.19 225.37 171.68 223.87 173.34 C 224.06 173.71 224.46 174.45 224.66 174.82 C 224.06 175.48 222.86 176.80 222.26 177.47 C 223.48 177.88 224.69 177.82 225.72 176.78 C 224.68 177.99 223.63 179.18 222.56 180.35 C 222.11 179.77 221.66 179.19 221.20 178.61 C 219.70 182.73 213.19 182.98 213.02 187.84 L 212.33 186.78 C 211.97 186.22 211.27 185.10 210.92 184.54 C 211.24 184.02 211.86 182.96 212.17 182.43 C 209.67 183.27 208.35 185.70 206.28 187.15 C 206.15 186.40 205.89 184.90 205.76 184.15 C 204.11 187.03 201.88 189.56 200.64 192.68 C 202.59 191.41 203.65 189.19 205.58 187.88 C 204.27 190.55 202.68 193.08 201.16 195.64 C 200.03 194.34 198.51 193.41 196.72 193.47 C 198.86 190.05 202.00 187.40 203.98 183.90 C 201.55 184.57 200.26 186.92 198.75 188.73 C 198.23 189.54 197.19 191.16 196.67 191.98 C 196.50 191.73 196.17 191.23 196.00 190.98 C 195.97 189.33 194.70 189.46 193.54 189.97 C 194.43 188.08 195.73 186.44 196.82 184.68 C 194.53 186.45 192.65 188.66 190.58 190.67 C 191.40 190.64 192.21 190.61 193.03 190.56 C 192.18 192.73 190.59 194.59 189.46 196.65 C 187.66 197.76 188.76 195.04 188.74 194.21 C 187.33 194.87 186.37 196.22 185.24 197.26 C 186.22 194.84 187.80 192.71 188.66 190.24 C 190.63 188.11 192.76 186.14 194.93 184.22 C 194.51 184.24 193.65 184.28 193.22 184.30 C 193.58 183.28 193.92 182.25 194.24 181.22 C 191.97 182.67 189.77 184.23 187.64 185.88 C 187.83 183.92 189.66 182.91 190.86 181.60 L 189.13 179.97 L 192.16 180.57 C 191.74 180.25 190.90 179.61 190.48 179.28 C 191.03 178.45 192.12 176.79 192.67 175.96 C 190.82 177.93 188.96 179.94 186.67 181.42 C 187.35 181.69 188.05 181.96 188.75 182.21 C 188.46 183.22 187.89 185.24 187.60 186.25 L 186.50 184.98 C 185.22 186.48 183.75 187.79 182.09 188.87 C 182.85 186.95 184.16 185.36 185.41 183.76 C 185.42 183.70 185.44 183.58 185.45 183.52 L 185.41 183.76 C 184.78 183.75 183.52 183.75 182.88 183.74 C 185.31 181.21 187.99 178.89 189.98 175.96 C 186.72 176.86 184.39 179.32 181.67 181.15 C 182.49 179.78 183.35 178.42 184.39 177.20 C 184.75 177.02 185.49 176.66 185.85 176.48 L 185.69 175.75 L 184.88 175.67 C 184.76 176.05 184.51 176.82 184.39 177.20 C 183.13 177.25 181.87 177.33 180.62 177.44 C 182.25 176.07 183.97 174.83 185.75 173.68 C 187.92 171.59 190.35 169.86 192.99 168.45 C 192.44 168.03 191.87 167.66 191.28 167.32 C 189.12 171.00 185.14 173.19 181.10 174.16 C 181.97 173.27 183.71 171.48 184.58 170.59 C 183.85 170.80 182.38 171.23 181.65 171.45 C 182.25 170.74 183.46 169.31 184.06 168.60 C 184.74 169.26 185.38 169.95 186.03 170.64 C 187.63 168.83 187.60 166.17 189.61 164.64 C 188.08 162.09 193.07 161.95 192.41 159.40 C 194.03 159.73 195.25 158.49 196.61 157.87 C 199.39 157.57 202.03 156.53 204.28 154.85 C 201.43 155.12 198.85 156.47 196.18 157.39 C 195.15 153.51 200.04 153.02 202.64 153.45 C 202.69 152.91 202.79 151.81 202.84 151.26 C 203.60 150.02 204.17 148.70 204.69 147.34 C 205.79 147.49 206.90 147.64 208.02 147.79 C 207.44 147.33 206.29 146.40 205.72 145.94 C 207.18 145.52 208.62 145.62 210.02 146.25 M 198.94 158.72 C 197.31 159.51 195.67 160.27 194.04 161.08 C 194.38 161.51 195.06 162.38 195.40 162.81 C 194.20 163.33 193.02 163.86 191.83 164.37 C 193.73 164.13 195.50 164.57 196.85 165.97 C 196.21 166.30 194.93 166.98 194.29 167.31 C 194.88 167.53 196.06 167.97 196.65 168.19 L 194.97 167.05 L 196.94 166.97 C 196.79 165.33 196.64 163.70 196.58 162.06 L 195.34 161.65 C 195.97 161.21 197.23 160.32 197.86 159.87 C 198.61 160.57 199.35 161.28 200.09 161.99 C 200.72 161.31 201.33 160.62 201.90 159.91 C 202.70 159.36 203.49 158.82 204.28 158.28 C 202.49 158.24 200.70 158.35 198.94 158.72 M 215.86 163.66 C 213.90 166.19 211.16 167.91 208.82 170.05 C 206.81 170.42 204.84 170.97 202.98 171.80 C 204.80 171.67 206.62 171.40 208.44 171.27 C 211.21 168.88 213.75 165.70 217.51 164.95 C 218.67 163.86 219.84 162.76 220.82 161.48 C 219.14 162.16 217.51 162.92 215.86 163.66 M 218.90 165.09 C 218.50 166.63 218.26 168.19 218.17 169.79 L 220.20 169.90 C 218.98 170.27 217.86 170.03 216.85 169.17 L 217.54 171.59 C 216.84 171.56 216.14 171.54 215.45 171.52 C 215.56 172.06 215.80 173.15 215.91 173.69 C 214.25 175.50 212.64 177.35 211.02 179.21 L 212.49 179.78 C 214.75 175.94 217.39 171.93 221.95 170.68 C 221.68 169.81 221.44 168.93 221.24 168.05 C 222.25 166.92 223.40 165.95 224.47 164.88 C 223.11 165.50 221.74 166.09 220.37 166.67 C 221.61 165.07 223.07 163.66 224.40 162.14 C 222.53 163.06 220.64 163.95 218.90 165.09 M 198.26 168.00 C 199.33 168.17 200.13 167.76 200.66 166.76 C 200.46 166.27 200.06 165.28 199.86 164.78 C 198.02 164.12 198.68 167.00 198.26 168.00 M 196.65 168.19 C 196.33 168.48 195.68 169.06 195.36 169.36 C 195.76 169.51 196.55 169.83 196.94 169.99 C 197.27 169.49 197.93 168.49 198.26 168.00 C 197.86 168.04 197.05 168.14 196.65 168.19 M 196.94 169.99 C 196.14 170.89 196.17 171.63 197.04 172.20 C 197.53 171.89 198.52 171.28 199.02 170.97 C 199.19 170.58 199.54 169.79 199.71 169.40 C 198.77 169.36 197.84 169.55 196.94 169.99 M 200.91 170.20 C 201.52 170.78 201.52 170.78 200.91 170.20 M 199.30 172.67 C 199.87 172.12 199.87 172.12 199.30 172.67 M 194.11 178.98 C 195.36 178.36 196.32 176.67 197.90 177.10 C 197.71 177.65 197.34 178.73 197.16 179.28 C 196.66 180.05 195.44 181.27 196.66 181.99 C 197.66 180.05 199.72 180.54 201.43 180.40 C 200.00 182.02 198.44 183.52 197.05 185.17 C 199.67 183.33 202.21 181.35 204.49 179.09 C 206.80 177.93 208.21 175.65 209.98 173.86 C 209.47 174.23 208.43 174.98 207.92 175.36 C 205.20 175.52 202.88 177.16 200.31 177.88 L 200.69 175.90 C 200.35 175.86 199.68 175.76 199.34 175.71 C 199.33 174.95 199.31 173.43 199.30 172.67 C 197.33 174.57 195.72 176.79 194.11 178.98 M 202.22 174.97 C 203.60 175.35 206.40 174.66 206.68 173.12 C 205.28 172.52 202.50 173.44 202.22 174.97 M 219.37 174.92 C 217.36 178.49 214.15 181.18 212.21 184.80 C 213.77 183.54 215.23 182.15 216.64 180.72 C 218.02 178.45 219.78 176.45 221.58 174.51 C 221.03 174.61 219.93 174.82 219.37 174.92 M 197.10 187.75 C 198.46 187.92 199.03 187.32 198.81 185.96 C 197.44 185.75 196.87 186.35 197.10 187.75 Z" />
<path fill="#ffffff" opacity="1.00" d=" M 281.91 143.09 C 282.61 143.68 284.01 144.86 284.71 145.45 C 284.64 144.75 284.48 143.36 284.40 142.66 C 285.62 143.00 286.79 143.47 287.91 144.07 C 288.06 144.80 288.37 146.26 288.52 146.99 C 287.62 146.70 286.90 146.15 286.37 145.35 C 285.57 145.44 283.97 145.63 283.17 145.72 C 282.74 144.84 282.32 143.96 281.91 143.09 Z" />
<path fill="#ffffff" opacity="1.00" d=" M 288.64 143.91 C 291.00 143.25 293.74 143.49 296.13 142.46 C 297.59 143.60 299.19 144.69 299.50 146.68 C 297.45 146.77 296.39 145.18 295.12 144.00 C 295.39 144.72 295.94 146.16 296.21 146.88 C 295.43 146.75 293.87 146.47 293.09 146.33 C 293.31 146.71 293.75 147.46 293.97 147.83 C 294.34 148.20 295.08 148.94 295.45 149.31 C 293.34 149.58 290.82 150.13 289.33 148.15 C 289.98 148.01 291.29 147.73 291.94 147.58 C 290.68 146.55 288.69 145.81 288.64 143.91 Z" />
<path fill="#ffffff" opacity="1.00" d=" M 170.46 145.14 C 170.77 145.12 171.37 145.08 171.68 145.07 C 172.42 145.99 171.95 148.66 170.30 147.84 C 168.88 147.40 169.38 145.62 170.46 145.14 Z" />
<path fill="#ffffff" opacity="1.00" d=" M 231.23 146.24 C 231.86 146.87 231.86 146.87 231.23 146.24 Z" />
<path fill="#ffffff" opacity="1.00" d=" M 192.06 147.73 C 193.66 147.41 195.26 147.08 196.85 146.73 C 196.72 147.21 196.46 148.17 196.32 148.65 L 198.31 148.71 C 196.96 149.57 195.63 150.44 194.31 151.34 C 193.49 150.96 192.68 150.58 191.87 150.18 L 194.11 149.32 L 191.17 149.79 C 191.39 149.28 191.84 148.24 192.06 147.73 Z" />
<path fill="#ffffff" opacity="1.00" d=" M 230.74 147.40 C 231.93 147.41 233.14 147.42 234.34 147.44 C 234.63 148.11 235.21 149.47 235.50 150.15 C 236.14 149.68 237.43 148.74 238.07 148.27 C 238.64 148.77 239.77 149.78 240.34 150.28 C 240.49 149.73 240.79 148.63 240.94 148.08 C 241.06 148.81 241.29 150.28 241.40 151.01 C 242.44 150.31 243.49 149.62 244.55 148.94 L 244.05 149.62 C 244.10 149.94 244.19 150.58 244.24 150.90 C 245.51 152.86 246.82 150.43 247.79 149.54 C 247.27 151.04 246.33 152.50 246.60 154.17 C 245.88 154.83 245.16 155.50 244.43 156.15 L 244.62 154.07 C 243.98 154.61 242.71 155.69 242.07 156.23 L 242.61 154.24 C 241.74 154.58 239.99 155.24 239.12 155.57 C 240.08 154.45 241.13 153.40 242.04 152.24 C 238.34 153.60 234.48 157.08 230.41 154.89 L 230.48 153.90 L 232.23 153.27 C 231.72 153.13 230.70 152.87 230.18 152.73 C 230.52 152.05 231.01 151.47 231.65 150.99 C 229.60 151.39 227.54 151.81 225.45 151.81 C 226.40 149.46 228.76 148.61 230.74 147.40 Z" />
<path fill="#ffffff" opacity="1.00" d=" M 173.35 148.02 C 173.81 147.98 174.71 147.88 175.17 147.83 L 175.24 148.49 C 173.75 149.71 171.94 150.40 170.21 151.21 C 169.25 151.63 168.45 152.24 167.81 153.01 C 167.83 154.38 168.67 155.19 170.32 155.44 C 169.10 156.52 167.70 156.78 166.31 155.87 C 166.51 155.00 166.71 154.14 166.93 153.29 C 166.09 153.76 164.63 154.33 164.65 155.52 C 164.97 157.40 162.65 157.96 161.69 159.18 C 163.45 158.58 165.08 157.47 166.93 157.22 C 167.21 158.61 166.97 159.94 166.23 161.23 L 165.32 159.47 C 163.99 159.89 162.65 160.25 161.28 160.45 C 160.67 160.34 160.08 160.19 159.48 160.05 C 160.02 158.79 160.34 157.48 160.43 156.12 C 161.13 155.67 161.83 155.23 162.53 154.79 C 165.05 151.10 169.61 150.02 173.35 148.02 Z" />
<path fill="#ffffff" opacity="1.00" d=" M 184.51 151.09 C 186.79 149.69 189.24 148.60 191.79 147.78 C 190.89 148.86 189.94 149.90 188.91 150.86 C 190.54 149.91 191.93 151.26 193.25 151.97 C 189.39 153.31 185.41 154.41 181.30 154.48 C 182.69 152.11 185.64 152.41 187.89 151.61 L 187.86 151.35 C 187.02 151.28 185.35 151.16 184.51 151.09 Z" />
<path fill="#ffffff" opacity="1.00" d=" M 222.41 150.00 C 221.51 149.27 221.53 148.51 222.47 147.73 C 225.22 146.80 224.93 150.43 222.41 150.00 Z" />
<path fill="#ffffff" opacity="1.00" d=" M 307.31 150.76 C 307.16 149.38 309.56 148.13 310.65 149.08 C 310.91 150.61 308.42 151.15 307.31 150.76 Z" />
<path fill="#ffffff" opacity="1.00" d=" M 311.64 149.88 C 312.37 149.45 313.85 148.58 314.59 148.15 C 315.15 149.45 315.72 150.75 316.27 152.06 C 314.65 152.64 313.03 153.22 311.42 153.82 C 311.47 152.83 311.58 150.87 311.64 149.88 Z" />
<path fill="#ffffff" opacity="1.00" d=" M 265.48 150.33 C 266.18 150.67 266.88 151.02 267.59 151.37 C 269.48 151.10 271.13 151.97 272.61 153.03 C 270.06 153.09 267.67 152.21 265.29 151.41 C 265.34 151.14 265.43 150.60 265.48 150.33 Z" />
<path fill="#ffffff" opacity="1.00" d=" M 303.03 153.01 C 303.34 151.28 304.72 150.38 306.28 149.85 C 305.31 151.01 304.23 152.06 303.16 153.12 C 303.99 153.33 305.67 153.77 306.51 153.98 C 304.08 154.90 301.50 154.79 298.96 154.71 C 300.32 154.16 301.68 153.60 303.03 153.01 Z" />
<path fill="#ffffff" opacity="1.00" d=" M 192.46 153.30 C 193.97 152.79 195.53 152.46 197.13 152.52 C 195.42 154.62 192.95 155.77 190.47 156.69 L 190.62 157.87 C 190.10 157.75 189.08 157.51 188.56 157.38 L 188.67 158.82 L 186.70 158.44 C 187.37 158.99 188.04 159.56 188.71 160.13 L 187.80 160.23 C 188.86 161.11 188.98 162.49 189.05 163.78 C 187.68 162.94 186.43 163.09 185.30 164.23 L 184.81 164.52 C 183.44 165.32 182.04 166.04 180.60 166.69 C 180.92 166.03 181.57 164.71 181.89 164.05 L 181.36 164.31 C 180.59 164.57 179.03 165.08 178.26 165.33 C 180.34 163.52 182.58 161.91 184.72 160.17 C 184.70 159.91 184.65 159.38 184.63 159.12 C 184.23 159.39 183.43 159.94 183.03 160.21 C 181.50 160.79 179.99 161.41 178.46 161.97 C 178.33 161.53 178.05 160.64 177.91 160.19 C 176.95 159.78 175.89 159.84 174.72 160.35 C 177.54 158.31 180.54 156.38 183.89 155.35 C 183.95 157.86 180.38 157.89 179.21 159.73 C 181.90 158.90 184.39 157.48 186.99 156.40 C 185.86 155.99 184.76 155.50 183.71 154.93 C 186.59 154.22 189.48 153.39 192.46 153.30 M 182.97 163.18 C 183.54 163.79 183.54 163.79 182.97 163.18 Z" />
<path fill="#ffffff" opacity="1.00" d=" M 307.35 153.66 C 306.49 151.48 311.92 150.69 310.43 153.29 C 309.45 154.00 308.42 154.12 307.35 153.66 Z" />
<path fill="#ffffff" opacity="1.00" d=" M 259.15 153.13 C 259.27 153.93 259.39 154.74 259.51 155.55 C 259.85 155.52 260.52 155.46 260.86 155.43 C 261.62 157.76 263.20 159.54 265.81 158.38 C 264.62 159.58 263.45 160.82 262.19 161.95 C 260.07 162.03 258.00 162.45 255.95 162.99 C 256.53 162.41 257.68 161.26 258.26 160.68 C 257.47 160.50 255.90 160.14 255.12 159.96 C 255.25 158.96 255.38 157.96 255.51 156.96 C 256.91 155.87 258.10 154.55 259.15 153.13 Z" />
<path fill="#ffffff" opacity="1.00" d=" M 280.18 153.42 C 281.36 153.36 282.54 153.35 283.73 153.38 C 286.64 154.93 289.95 154.46 293.10 154.57 C 294.57 156.64 295.81 158.87 297.23 160.97 C 297.19 159.05 297.06 156.98 298.35 155.40 C 299.01 158.82 299.67 162.24 300.63 165.60 L 298.12 163.14 C 298.65 164.40 299.68 165.54 299.81 166.93 C 298.30 167.22 297.07 166.03 295.75 165.54 C 295.01 165.66 294.29 165.64 293.58 165.46 L 293.12 165.42 C 293.29 165.87 293.62 166.77 293.79 167.22 C 294.18 169.61 296.95 172.28 294.00 174.37 C 291.26 173.17 292.87 170.59 291.72 168.57 C 286.97 167.86 289.41 160.44 284.33 160.47 C 283.46 159.22 282.77 157.66 281.13 157.32 C 282.25 157.35 283.37 157.35 284.51 157.33 C 284.20 156.65 283.58 155.27 283.27 154.58 C 281.47 153.35 281.90 157.98 280.81 157.86 C 280.65 156.75 280.33 154.53 280.18 153.42 Z" />
<path fill="#ffffff" opacity="1.00" d=" M 248.35 153.99 C 248.93 154.63 248.93 154.63 248.35 153.99 Z" />
<path fill="#ffffff" opacity="1.00" d=" M 276.06 153.70 L 278.45 153.20 C 278.94 154.57 279.45 155.94 279.96 157.31 C 279.15 157.50 278.35 157.67 277.54 157.84 C 277.96 158.41 278.81 159.55 279.24 160.12 C 279.57 159.92 280.23 159.50 280.57 159.30 L 279.98 161.95 C 280.74 161.42 282.25 160.36 283.01 159.83 C 282.70 160.88 282.06 162.98 281.74 164.04 C 282.62 163.41 284.39 162.15 285.27 161.52 C 284.53 164.29 283.80 167.27 281.26 168.97 C 281.59 167.48 282.00 166.02 282.39 164.56 C 280.31 163.83 277.03 163.93 277.92 160.49 C 277.35 160.97 276.78 161.45 276.21 161.93 C 274.41 161.75 272.61 161.59 270.81 161.73 C 269.59 160.32 268.40 158.89 267.22 157.45 C 268.84 158.16 270.46 158.86 272.09 159.55 C 274.12 158.64 275.59 159.10 276.50 160.91 C 276.76 159.80 277.07 158.64 276.60 157.53 C 277.32 157.02 278.03 156.51 278.75 156.00 L 276.06 153.70 Z" />
<path fill="#ffffff" opacity="1.00" d=" M 194.16 156.18 C 195.61 155.55 196.04 155.96 195.45 157.42 C 193.95 158.03 193.52 157.61 194.16 156.18 Z" />
<path fill="#ffffff" opacity="1.00" d=" M 230.39 157.70 C 233.36 158.34 236.10 156.80 238.95 156.26 C 238.68 159.07 235.50 159.28 233.37 159.73 L 233.45 160.29 C 231.63 160.68 230.09 160.54 228.83 159.89 C 229.25 159.44 230.10 158.55 230.52 158.10 L 230.39 157.70 Z" />
<path fill="#ffffff" opacity="1.00" d=" M 240.24 161.81 C 240.90 158.71 244.46 157.93 246.92 156.68 C 245.95 158.46 244.82 160.14 243.91 161.95 C 242.89 162.63 241.87 163.30 240.84 163.95 C 240.10 164.22 238.61 164.76 237.87 165.03 L 237.53 162.40 C 238.20 162.25 239.56 161.96 240.24 161.81 Z" />
<path fill="#ffffff" opacity="1.00" d=" M 189.02 158.37 C 189.30 158.69 189.30 158.69 189.02 158.37 Z" />
<path fill="#ffffff" opacity="1.00" d=" M 234.24 160.71 C 236.22 159.95 238.14 159.04 240.12 158.29 C 238.87 160.11 236.50 162.56 234.24 160.71 Z" />
<path fill="#ffffff" opacity="1.00" d=" M 172.09 160.03 C 172.53 160.09 173.40 160.22 173.84 160.29 C 172.74 161.84 170.60 163.27 168.68 163.26 C 169.03 161.66 171.18 161.30 172.09 160.03 Z" />
<path fill="#ffffff" opacity="1.00" d=" M 190.01 160.34 C 190.34 160.68 190.34 160.68 190.01 160.34 Z" />
<path fill="#ffffff" opacity="1.00" d=" M 251.29 160.03 C 252.39 160.79 253.47 161.56 254.59 162.31 C 253.75 163.87 252.43 165.06 251.03 166.10 C 249.30 167.79 246.73 166.14 244.69 166.39 C 246.64 165.54 248.62 164.76 250.54 163.84 L 248.13 163.57 C 249.34 162.54 250.59 161.51 251.29 160.03 Z" />
<path fill="#ffffff" opacity="1.00" d=" M 163.18 161.59 C 163.73 160.75 164.91 161.46 165.70 161.47 C 166.26 161.37 167.38 161.19 167.95 161.10 C 167.42 162.61 165.59 163.01 164.47 163.97 C 164.23 163.50 163.75 162.55 163.52 162.08 L 163.18 161.59 Z" />
<path fill="#ffffff" opacity="1.00" d=" M 244.74 162.99 C 244.45 161.64 245.03 161.08 246.49 161.30 C 246.73 162.63 246.14 163.20 244.74 162.99 Z" />
<path fill="#ffffff" opacity="1.00" d=" M 261.87 164.13 C 262.36 163.77 263.33 163.06 263.81 162.70 C 264.91 163.49 266.06 164.23 267.11 165.08 C 266.76 165.74 266.39 166.38 266.00 167.02 C 264.62 166.02 263.33 164.64 261.53 164.50 C 262.03 166.09 263.47 167.17 264.03 168.74 C 263.03 171.07 261.41 173.35 262.56 176.02 C 263.26 175.25 263.94 174.47 264.60 173.67 C 264.49 172.06 264.62 170.45 264.91 168.87 C 265.48 169.38 266.05 169.90 266.62 170.42 C 266.09 174.27 264.09 177.71 263.16 181.47 C 262.47 180.44 261.85 179.35 261.29 178.25 L 258.87 178.49 C 259.51 181.07 260.76 183.58 260.51 186.32 C 261.28 185.62 262.06 184.92 262.85 184.23 C 262.41 185.79 262.32 187.36 262.58 188.95 L 261.96 188.85 C 259.65 191.37 256.83 193.81 253.38 194.45 C 254.23 193.18 255.17 191.97 256.06 190.73 C 254.42 191.59 252.99 193.01 251.06 193.17 C 252.40 191.34 254.29 190.08 256.17 188.86 C 257.11 185.56 258.18 182.30 258.60 178.88 C 257.89 180.46 257.29 182.08 256.86 183.77 C 256.39 183.02 255.93 182.27 255.48 181.52 L 255.81 183.43 C 253.84 184.64 252.00 186.03 250.06 187.27 C 250.57 186.41 251.09 185.56 251.63 184.72 C 252.29 183.90 252.77 182.99 253.08 181.99 C 255.07 180.70 256.33 178.66 257.94 176.99 C 258.35 177.07 259.19 177.24 259.60 177.33 C 259.57 175.82 259.58 174.32 259.61 172.82 C 259.02 173.82 258.45 174.82 257.82 175.79 C 255.68 177.38 254.34 179.70 253.08 181.99 C 251.11 183.10 249.67 184.90 247.90 186.27 C 249.14 182.71 252.06 180.28 254.38 177.46 C 255.62 175.29 256.36 172.89 257.51 170.67 C 255.90 171.93 254.48 173.54 252.46 174.13 C 253.17 174.62 253.88 175.12 254.59 175.63 L 252.08 175.65 L 253.02 176.48 C 250.31 179.16 248.50 182.78 245.04 184.66 L 245.83 181.94 C 243.58 183.46 241.35 185.05 238.86 186.15 C 239.83 184.86 240.90 183.66 242.02 182.50 L 241.47 181.97 C 243.64 182.02 245.09 180.30 246.29 178.76 C 246.78 179.29 247.25 179.83 247.73 180.38 C 248.60 179.56 249.48 178.75 250.37 177.95 C 250.03 177.75 249.36 177.34 249.03 177.14 C 250.56 174.57 253.48 172.69 253.42 169.33 C 251.68 170.86 250.27 172.72 248.59 174.33 C 249.71 172.24 251.19 170.35 252.22 168.21 C 253.12 166.80 254.04 165.40 255.01 164.05 C 257.28 164.49 259.58 164.17 261.87 164.13 Z" />
<path fill="#ffffff" opacity="1.00" d=" M 186.62 163.70 C 187.41 164.03 188.21 164.36 189.01 164.71 C 187.08 165.84 185.33 167.22 183.51 168.50 C 183.94 167.18 184.42 165.86 184.81 164.52 L 186.47 165.13 L 186.62 163.70 Z" />
<path fill="#ffffff" opacity="1.00" d=" M 236.13 170.82 C 236.57 168.52 235.79 165.84 237.24 163.82 L 237.68 165.84 C 238.73 165.21 239.78 164.57 240.84 163.95 C 241.51 163.75 242.83 163.35 243.50 163.15 L 245.15 165.19 C 241.12 164.85 238.71 168.40 236.13 170.82 Z" />
<path fill="#ffffff" opacity="1.00" d=" M 303.68 171.41 C 302.00 169.22 300.13 166.95 300.58 163.98 C 302.90 165.36 303.83 169.54 306.97 169.20 C 309.38 172.62 311.39 176.44 314.68 179.14 C 313.71 179.92 312.74 181.83 311.27 180.93 C 310.42 179.80 309.71 178.58 308.80 177.50 C 309.06 179.28 308.43 180.85 307.18 182.14 C 305.27 181.12 303.82 179.51 302.20 178.10 L 303.90 180.19 C 303.14 180.65 302.37 181.11 301.62 181.57 L 301.82 180.49 C 300.91 179.79 300.02 179.06 299.16 178.31 C 299.67 179.71 300.17 181.13 300.63 182.56 C 299.04 183.99 299.58 185.83 300.27 187.55 C 301.91 189.36 303.22 191.44 304.44 193.56 C 305.16 195.33 305.69 197.17 306.32 198.98 C 305.35 199.25 304.39 199.51 303.43 199.75 C 302.89 200.35 302.36 200.94 301.83 201.54 C 301.28 201.27 300.18 200.73 299.64 200.46 C 299.77 201.98 300.00 203.50 300.23 205.01 C 300.80 206.78 301.01 208.76 302.44 210.09 L 300.90 209.37 C 301.43 210.97 302.36 212.39 303.54 213.58 C 304.43 211.74 305.85 212.47 307.16 213.10 C 306.55 213.24 305.33 213.53 304.72 213.67 C 306.55 214.69 308.01 216.09 308.86 218.04 C 311.12 217.69 312.58 216.05 313.64 214.16 C 312.77 214.46 311.93 214.79 311.08 215.13 C 310.37 213.88 309.62 212.68 308.85 211.49 C 307.66 210.93 306.49 210.37 305.32 209.80 C 304.55 207.91 303.62 206.07 303.13 204.09 C 303.75 202.55 305.28 201.80 306.59 200.95 C 307.97 202.42 311.07 203.16 310.37 205.68 C 310.70 205.48 311.35 205.08 311.67 204.88 C 311.17 202.73 309.87 200.96 308.55 199.26 L 309.70 199.08 L 310.02 200.26 C 311.16 200.23 312.37 200.67 313.49 200.41 C 313.89 199.16 314.31 197.92 314.96 196.77 C 315.56 196.71 316.76 196.58 317.36 196.52 C 317.33 196.01 317.27 194.98 317.24 194.46 C 317.13 194.16 316.92 193.56 316.81 193.26 C 316.60 195.01 315.47 196.34 313.93 197.12 C 313.62 197.52 312.98 198.33 312.67 198.74 C 310.80 198.29 308.06 195.04 306.93 198.63 C 305.78 195.82 305.34 192.72 303.56 190.20 C 304.06 189.98 305.06 189.54 305.56 189.31 C 304.61 188.13 303.73 186.89 302.79 185.71 C 302.26 184.52 301.40 183.41 301.24 182.11 C 303.45 181.02 305.72 182.39 307.89 182.82 C 306.28 184.85 308.42 185.37 309.64 186.05 C 309.50 186.80 309.23 188.31 309.09 189.06 C 308.94 189.22 308.65 189.53 308.51 189.68 C 307.24 187.67 305.68 185.88 304.07 184.15 C 305.22 186.47 306.57 188.67 308.01 190.82 L 306.39 190.95 C 307.05 192.54 307.73 194.14 308.64 195.62 C 308.60 194.40 308.52 191.95 308.48 190.73 C 310.01 192.05 310.83 193.91 311.52 195.77 C 312.14 195.24 313.38 194.19 314.00 193.67 C 312.80 193.09 311.63 192.45 310.49 191.78 L 312.52 190.81 C 311.58 189.46 308.75 187.36 311.57 186.38 C 309.25 186.04 308.89 183.93 309.21 181.94 C 310.41 182.83 311.51 183.88 312.65 184.87 C 312.16 183.81 312.32 182.67 312.70 181.61 C 313.26 182.32 314.37 183.74 314.92 184.46 L 315.97 184.41 C 315.82 184.91 315.51 185.92 315.35 186.43 L 317.61 185.50 C 317.48 186.36 317.22 188.09 317.09 188.96 C 317.47 188.68 318.22 188.13 318.60 187.85 C 318.10 186.73 318.06 185.51 318.56 184.38 C 321.69 190.56 325.97 197.17 324.19 204.43 C 322.96 202.59 322.81 199.85 320.23 199.27 C 321.25 201.38 322.45 203.46 322.72 205.83 C 323.16 205.61 324.02 205.15 324.45 204.92 C 324.06 207.27 323.83 209.65 323.84 212.04 C 323.20 212.51 321.93 213.45 321.29 213.92 C 321.42 211.89 321.59 209.87 321.62 207.84 C 321.07 209.92 320.65 212.03 320.30 214.15 C 318.74 215.26 317.11 216.29 315.43 217.20 C 316.72 214.17 317.77 210.99 317.73 207.66 C 316.30 211.92 315.53 217.03 310.88 219.03 C 310.16 218.80 308.71 218.34 307.99 218.10 C 306.17 221.28 302.91 219.09 300.97 217.33 C 300.45 217.61 299.40 218.17 298.87 218.45 C 297.17 218.48 295.47 218.53 293.79 218.68 C 290.68 215.12 287.90 211.18 286.01 206.84 C 287.15 208.19 288.10 209.69 289.13 211.14 C 291.29 207.09 286.66 205.27 285.11 202.21 C 290.17 204.04 292.20 209.33 295.54 213.08 C 294.10 214.17 293.06 215.52 293.42 217.44 C 296.28 217.90 299.13 217.48 301.88 216.66 L 301.34 214.63 C 300.76 214.83 299.59 215.24 299.01 215.45 L 298.98 213.70 C 298.66 213.71 298.00 213.72 297.67 213.73 C 297.40 212.97 296.86 211.47 296.58 210.72 C 297.31 210.05 298.04 209.38 298.78 208.71 C 297.96 207.53 297.29 206.25 297.31 204.77 C 295.65 203.77 294.41 202.26 293.05 200.91 L 295.04 200.57 C 294.53 200.53 293.51 200.44 292.99 200.40 C 294.12 198.45 295.25 196.50 296.21 194.46 C 294.93 195.15 293.68 195.88 292.41 196.59 L 293.35 198.81 C 291.71 198.15 290.47 197.04 289.61 195.49 L 291.97 195.72 C 291.56 195.01 290.74 193.58 290.33 192.86 L 292.69 193.61 L 292.67 192.32 C 293.44 192.37 294.99 192.48 295.77 192.53 C 294.42 190.09 293.18 187.59 292.22 184.97 C 292.97 185.44 294.47 186.38 295.23 186.85 C 295.22 187.50 295.22 188.80 295.21 189.44 C 296.00 190.26 296.80 191.08 297.59 191.90 L 297.35 189.76 C 299.99 190.14 299.54 192.97 300.22 194.80 L 300.47 194.70 C 300.38 193.35 299.05 191.59 300.46 190.59 C 299.14 190.28 297.84 189.87 296.56 189.47 C 295.84 187.86 295.12 186.26 294.39 184.67 C 294.43 182.88 293.29 181.50 292.36 180.11 L 293.66 180.40 C 293.12 178.73 292.08 177.35 290.88 176.11 C 289.58 180.41 289.20 173.19 286.68 174.32 C 287.16 172.29 285.12 171.23 284.19 169.73 C 284.97 169.26 286.55 168.31 287.33 167.83 C 287.68 169.45 288.02 171.07 288.37 172.70 C 289.43 171.50 290.40 170.22 291.45 169.00 C 291.06 171.51 290.80 174.36 293.49 175.66 C 294.87 173.10 297.92 171.81 300.72 172.64 C 299.96 171.63 299.07 170.73 298.19 169.83 C 297.36 170.50 296.54 171.17 295.71 171.84 C 291.76 169.52 295.50 166.14 297.43 167.40 C 298.99 167.98 300.00 169.64 301.79 169.66 C 302.73 171.09 303.85 172.36 305.17 173.45 C 302.40 175.23 305.38 177.92 307.03 179.10 C 306.67 177.33 303.83 175.32 306.59 174.19 C 305.64 173.24 304.65 172.33 303.68 171.41 M 296.22 178.37 C 296.22 178.73 296.22 179.45 296.21 179.81 C 296.61 179.92 297.40 180.12 297.79 180.22 C 298.14 178.93 297.62 178.31 296.22 178.37 M 294.15 180.43 C 294.69 181.47 295.49 181.91 296.53 181.77 C 296.45 181.28 296.29 180.30 296.21 179.81 C 295.80 179.64 294.97 179.28 294.56 179.10 C 294.46 179.43 294.25 180.10 294.15 180.43 M 317.84 202.80 C 319.32 203.90 320.85 201.43 319.62 200.34 C 318.17 199.23 316.50 201.72 317.84 202.80 M 313.22 202.31 C 313.85 202.81 313.85 202.81 313.22 202.31 M 315.23 202.15 C 315.75 202.77 315.75 202.77 315.23 202.15 M 298.49 211.62 C 299.92 211.64 300.62 210.96 300.59 209.60 C 299.18 209.56 298.48 210.23 298.49 211.62 M 302.38 216.53 C 301.60 217.96 305.34 220.25 305.94 218.34 C 305.50 216.96 303.68 216.45 302.38 216.53 Z" />
<path fill="#ffffff" opacity="1.00" d=" M 236.86 170.57 C 238.51 169.25 240.01 167.48 242.07 166.84 C 243.54 167.07 242.29 169.21 242.74 170.06 C 241.66 171.13 240.93 172.46 240.22 173.78 C 241.39 172.93 242.53 172.04 243.73 171.23 C 242.97 172.63 242.18 174.01 241.35 175.38 C 240.67 176.74 238.22 178.52 240.49 179.71 L 239.48 180.87 C 239.23 181.15 238.72 181.72 238.47 182.01 C 236.48 182.93 235.24 184.94 233.09 185.60 C 233.79 184.15 234.48 182.70 235.15 181.24 C 234.10 179.64 232.91 178.15 231.89 176.54 C 233.27 175.54 234.64 174.54 236.04 173.57 L 233.93 172.12 C 235.61 172.68 237.21 172.56 238.75 171.74 C 238.28 171.45 237.33 170.86 236.86 170.57 Z" />
<path fill="#ffffff" opacity="1.00" d=" M 243.05 170.25 C 242.83 168.83 244.37 166.83 245.85 167.17 C 245.98 168.49 244.42 170.51 243.05 170.25 Z" />
<path fill="#ffffff" opacity="1.00" d=" M 243.72 174.33 C 244.87 171.49 246.79 168.45 249.63 166.98 C 248.90 168.82 248.14 170.65 247.50 172.53 C 247.09 176.13 245.39 179.26 242.35 181.29 L 241.47 181.97 C 241.10 182.24 240.37 182.78 240.00 183.05 L 239.48 180.87 L 240.70 181.02 C 241.67 179.72 242.52 178.35 242.88 176.75 L 243.55 176.50 C 244.76 175.82 245.03 175.17 244.38 174.55 L 243.72 174.33 Z" />
<path fill="#ffffff" opacity="1.00" d=" M 268.14 167.89 C 271.66 168.23 274.95 170.13 278.56 169.64 C 278.17 170.77 277.57 171.80 276.97 172.84 C 275.59 172.99 274.22 173.14 272.84 173.29 C 271.68 172.22 270.32 171.87 268.86 172.58 C 270.95 173.76 272.95 175.26 273.31 177.85 C 273.81 176.58 274.26 175.29 274.67 173.99 C 275.77 174.47 276.87 174.97 277.96 175.51 C 277.97 174.91 278.00 173.70 278.01 173.10 C 278.76 173.92 280.27 175.57 281.02 176.39 C 280.65 175.15 279.92 172.68 279.55 171.45 C 280.46 172.19 282.26 173.68 283.16 174.42 C 282.97 173.43 282.60 171.45 282.42 170.46 C 283.39 172.25 283.00 174.81 284.97 175.96 C 286.71 176.98 286.78 179.06 287.13 180.82 C 286.34 180.18 284.76 178.89 283.97 178.25 L 284.69 180.82 C 284.57 181.10 284.32 181.66 284.19 181.94 C 283.24 182.90 282.31 183.89 281.41 184.90 C 280.66 182.95 279.88 181.01 279.06 179.09 C 278.55 181.29 279.84 183.55 278.77 185.67 C 277.91 184.08 277.12 182.47 276.34 180.85 C 276.75 180.40 277.59 179.49 278.01 179.04 C 277.64 178.94 276.91 178.73 276.54 178.62 C 276.18 179.35 275.46 180.81 275.10 181.54 L 274.66 180.34 L 275.32 177.99 C 274.92 178.02 274.13 178.08 273.73 178.12 C 273.50 179.36 272.60 180.23 271.83 181.15 C 270.91 179.85 269.97 178.58 269.00 177.33 C 268.51 177.97 268.03 178.61 267.56 179.27 C 269.09 180.14 269.92 181.53 270.02 183.28 C 270.43 183.27 271.24 183.24 271.65 183.22 L 271.43 185.74 C 272.05 185.10 273.30 183.81 273.92 183.16 C 273.79 184.69 273.67 186.23 273.57 187.76 C 272.26 186.84 270.94 185.94 269.55 185.15 C 267.92 183.13 267.07 180.68 266.29 178.25 L 267.69 178.82 C 267.06 177.02 265.84 174.95 267.16 173.16 C 268.69 173.22 268.28 175.77 268.98 176.77 C 268.83 175.24 268.68 173.71 268.50 172.19 C 269.10 171.56 270.31 170.30 270.92 169.68 C 270.08 169.76 268.40 169.94 267.56 170.03 C 267.70 169.49 267.99 168.42 268.14 167.89 Z" />
<path fill="#ffffff" opacity="1.00" d=" M 202.14 178.67 C 202.34 177.31 203.19 176.69 204.71 176.81 C 205.51 177.98 203.09 179.64 202.14 178.67 Z" />
<path fill="#ffffff" opacity="1.00" d=" M 240.87 177.59 C 241.45 178.24 241.45 178.24 240.87 177.59 Z" />
<path fill="#ffffff" opacity="1.00" d=" M 249.03 177.14 C 248.56 177.54 248.56 177.54 249.03 177.14 Z" />
<path fill="#ffffff" opacity="1.00" d=" M 225.30 183.88 C 226.87 182.45 228.52 181.09 230.31 179.94 C 229.54 182.01 228.26 183.83 226.64 185.31 C 226.57 185.85 226.44 186.92 226.38 187.46 C 224.90 188.93 223.58 190.67 221.58 191.48 C 222.54 189.56 223.88 187.87 225.02 186.06 C 223.86 187.24 222.76 188.49 221.67 189.74 C 220.39 189.59 219.11 189.45 217.84 189.32 C 219.69 187.91 221.57 186.51 223.25 184.89 C 221.67 185.65 220.10 186.42 218.53 187.21 C 219.08 186.46 220.17 184.96 220.71 184.20 L 219.81 183.37 C 221.36 182.27 222.91 181.18 224.48 180.11 L 224.76 182.97 L 222.57 182.34 C 223.47 182.87 224.38 183.38 225.30 183.88 Z" />
<path fill="#ffffff" opacity="1.00" d=" M 315.71 183.80 C 314.83 182.84 314.10 181.03 314.93 179.88 C 315.43 180.51 316.41 181.78 316.90 182.41 C 317.16 183.60 316.76 184.07 315.71 183.80 Z" />
<path fill="#ffffff" opacity="1.00" d=" M 275.25 183.47 C 276.68 182.60 277.56 185.36 276.64 186.25 C 275.08 187.34 274.48 184.39 275.25 183.47 Z" />
<path fill="#ffffff" opacity="1.00" d=" M 234.71 189.91 C 232.30 186.76 236.37 184.92 238.24 183.04 C 236.45 185.30 237.98 187.40 239.05 189.47 L 237.30 189.69 C 237.79 190.20 238.29 190.72 238.78 191.24 C 238.84 192.15 238.98 193.96 239.05 194.87 C 240.64 192.82 239.16 190.15 239.45 187.84 C 242.12 189.83 244.33 192.35 246.72 194.65 C 244.50 195.00 243.05 192.70 241.18 191.94 C 241.64 193.74 242.39 195.45 243.08 197.18 C 241.97 196.59 241.04 194.68 239.62 195.52 C 240.27 197.09 240.97 198.64 241.25 200.34 L 240.26 198.80 C 239.56 199.11 238.88 199.44 238.20 199.77 C 238.59 200.40 239.37 201.67 239.77 202.31 C 238.42 201.11 237.32 199.68 236.21 198.27 C 236.94 198.32 238.40 198.43 239.13 198.48 C 238.66 197.69 237.71 196.10 237.24 195.31 L 239.39 195.63 C 238.55 193.40 236.99 192.83 234.69 193.91 C 235.18 191.21 236.24 188.67 237.22 186.12 C 236.59 187.07 235.33 188.96 234.71 189.91 Z" />
<path fill="#ffffff" opacity="1.00" d=" M 255.10 184.22 C 257.26 183.83 255.25 187.54 254.75 184.91 L 255.10 184.22 Z" />
<path fill="#ffffff" opacity="1.00" d=" M 266.37 187.17 C 264.89 186.95 265.07 184.36 266.50 184.25 C 268.07 184.38 268.02 187.26 266.37 187.17 Z" />
<path fill="#ffffff" opacity="1.00" d=" M 210.21 185.52 C 210.97 185.10 210.97 185.10 210.21 185.52 Z" />
<path fill="#ffffff" opacity="1.00" d=" M 300.31 184.83 C 301.65 184.59 302.20 185.21 301.98 186.70 C 300.64 186.92 300.08 186.30 300.31 184.83 Z" />
<path fill="#ffffff" opacity="1.00" d=" M 207.62 189.03 C 208.39 187.81 208.87 186.27 210.21 185.52 C 210.24 186.19 210.30 187.51 210.33 188.18 L 211.04 188.15 L 210.81 185.93 L 212.33 186.78 C 212.92 188.92 212.60 190.88 210.61 192.14 L 212.93 190.97 L 212.36 194.75 C 211.92 194.12 211.04 192.85 210.60 192.22 L 209.29 192.08 C 209.81 191.22 210.33 190.37 210.85 189.52 C 210.04 189.40 208.42 189.15 207.62 189.03 Z" />
<path fill="#ffffff" opacity="1.00" d=" M 226.00 190.24 C 227.25 188.46 228.47 186.46 230.65 185.73 C 230.24 186.63 229.81 187.53 229.37 188.43 C 228.55 190.15 227.55 191.77 226.49 193.36 C 226.03 192.32 225.57 191.26 225.13 190.21 L 226.00 190.24 Z" />
<path fill="#ffffff" opacity="1.00" d=" M 274.53 189.60 C 276.81 189.27 278.76 187.95 280.82 187.00 C 280.64 187.44 280.29 188.32 280.11 188.76 C 280.67 189.61 281.23 190.47 281.77 191.34 C 283.67 191.98 285.57 192.67 287.59 192.78 C 287.41 193.59 287.06 195.20 286.88 196.00 C 287.57 195.50 288.95 194.51 289.64 194.01 C 289.45 195.01 289.08 197.01 288.89 198.01 C 288.86 199.74 292.01 199.92 290.87 201.86 C 288.21 202.31 286.83 199.44 284.90 198.13 C 283.89 198.84 282.87 199.53 281.83 200.18 C 282.30 198.51 283.10 196.96 283.75 195.36 C 282.85 196.30 282.03 197.31 281.08 198.20 C 279.14 195.94 275.22 194.53 275.67 190.99 C 273.39 193.85 270.10 191.44 267.25 191.17 C 266.72 189.87 266.14 188.60 265.52 187.35 C 267.10 187.43 268.68 187.51 270.26 187.61 C 271.61 188.39 272.84 189.73 274.53 189.60 Z" />
<path fill="#ffffff" opacity="1.00" d=" M 245.30 189.45 C 246.39 188.79 248.03 190.56 247.01 191.52 C 245.87 192.22 244.38 190.43 245.30 189.45 Z" />
<path fill="#ffffff" opacity="1.00" d=" M 261.72 192.76 C 262.02 191.34 263.44 189.39 264.95 189.36 C 265.40 190.68 264.30 192.05 263.42 192.94 C 263.00 192.89 262.15 192.81 261.72 192.76 Z" />
<path fill="#ffffff" opacity="1.00" d=" M 309.09 189.06 C 312.08 189.49 307.85 192.14 309.09 189.06 Z" />
<path fill="#ffffff" opacity="1.00" d=" M 193.03 190.56 C 193.15 190.41 193.41 190.11 193.54 189.97 C 193.41 190.11 193.15 190.41 193.03 190.56 Z" />
<path fill="#ffffff" opacity="1.00" d=" M 229.59 195.37 C 230.83 193.09 232.06 190.61 234.39 189.24 C 234.16 191.55 233.74 193.87 232.82 196.02 L 232.38 194.24 C 231.68 194.52 230.29 195.09 229.59 195.37 Z" />
<path fill="#ffffff" opacity="1.00" d=" M 192.99 194.78 C 192.68 193.19 194.44 191.15 196.00 190.98 C 196.23 192.63 194.57 194.67 192.99 194.78 Z" />
<path fill="#ffffff" opacity="1.00" d=" M 204.21 191.32 C 204.74 192.55 205.28 193.78 205.82 195.01 C 206.21 194.53 206.98 193.58 207.37 193.11 C 207.54 194.38 208.25 195.26 209.52 195.75 C 209.28 196.09 208.82 196.75 208.59 197.09 C 208.06 196.57 207.54 196.05 207.01 195.54 L 205.87 197.34 C 205.30 196.35 204.75 195.37 204.16 194.40 L 203.05 196.89 C 203.05 194.97 203.44 193.11 204.21 191.32 Z" />
<path fill="#ffffff" opacity="1.00" d=" M 256.38 194.67 C 257.50 193.75 258.65 192.86 259.83 192.01 C 259.76 192.75 259.63 194.21 259.56 194.94 L 260.31 194.82 L 260.11 193.56 C 261.90 193.89 263.70 194.24 265.51 194.49 C 264.67 195.35 263.80 196.19 262.94 197.03 C 261.91 196.70 260.88 196.37 259.85 196.04 C 258.69 195.58 257.53 195.13 256.38 194.67 Z" />
<path fill="#ffffff" opacity="1.00" d=" M 269.76 198.23 C 269.25 196.87 271.21 194.90 272.54 195.46 C 273.09 196.88 271.22 199.05 269.76 198.23 Z" />
<path fill="#ffffff" opacity="1.00" d=" M 250.99 201.11 C 250.69 199.79 252.55 198.10 253.85 198.42 C 254.25 199.80 252.32 201.49 250.99 201.11 Z" />
<path fill="#ffffff" opacity="1.00" d=" M 232.25 199.92 C 233.14 201.06 233.97 202.23 234.81 203.41 C 233.48 203.51 232.14 203.60 230.81 203.69 C 231.21 203.53 232.02 203.23 232.43 203.07 C 232.38 202.28 232.30 200.71 232.25 199.92 Z" />
<path fill="#ffffff" opacity="1.00" d=" M 235.64 200.89 C 236.32 202.34 236.96 203.81 237.61 205.28 C 236.77 206.01 235.91 206.72 235.04 207.41 C 235.08 205.22 235.41 203.06 235.64 200.89 Z" />
<path fill="#ffffff" opacity="1.00" d=" M 251.62 203.32 C 252.47 202.24 253.85 199.67 254.98 201.88 C 256.78 203.46 254.38 204.99 253.72 206.43 C 255.99 204.91 258.01 203.05 260.30 201.56 C 259.76 203.18 259.01 204.72 258.25 206.25 C 260.19 204.29 262.50 203.71 265.09 204.85 C 263.57 206.26 261.98 207.60 260.67 209.21 C 263.77 208.02 266.02 205.49 268.79 203.75 L 268.07 205.40 C 265.64 207.94 266.52 211.49 266.54 214.64 L 268.04 214.07 C 267.86 215.40 267.67 216.73 267.48 218.07 L 271.17 215.05 C 270.61 216.80 269.54 218.14 267.98 219.07 C 267.24 217.96 266.48 216.85 265.68 215.79 C 265.32 216.93 264.60 219.21 264.24 220.36 C 263.45 218.07 262.82 215.05 259.63 217.18 C 259.34 214.81 260.00 212.47 261.64 210.73 C 260.23 212.36 258.77 213.94 257.29 215.51 C 257.18 215.05 256.95 214.15 256.83 213.70 L 256.34 215.27 C 255.50 215.25 253.83 215.22 252.99 215.20 C 253.91 216.35 254.86 217.48 255.56 218.79 C 256.32 218.55 257.85 218.06 258.61 217.82 C 258.75 219.88 254.13 221.72 256.19 223.72 C 255.46 224.81 254.71 225.88 253.99 226.97 C 255.39 225.22 258.24 223.94 257.36 221.20 C 258.18 221.78 259.82 222.95 260.64 223.53 C 261.90 222.32 261.68 220.52 261.79 218.95 C 262.90 220.39 263.95 221.89 264.98 223.41 L 263.50 223.40 C 263.53 224.02 263.60 225.25 263.63 225.87 C 263.04 225.40 261.87 224.45 261.28 223.98 C 260.96 226.09 260.73 228.22 260.29 230.32 C 260.39 231.35 260.49 232.38 260.59 233.42 C 257.97 231.48 259.83 227.55 258.77 224.87 C 256.87 227.66 257.24 231.05 256.49 234.17 C 255.73 233.98 254.23 233.60 253.48 233.41 C 253.53 231.60 253.34 229.80 253.26 228.00 L 251.98 228.16 C 251.85 226.54 251.73 224.94 251.73 223.32 C 250.85 221.49 250.36 219.53 250.22 217.52 C 251.38 215.94 251.58 214.00 251.93 212.14 C 251.32 212.58 250.12 213.46 249.51 213.90 C 249.50 212.10 249.59 210.31 249.70 208.53 C 250.08 207.67 250.45 206.81 250.81 205.94 C 251.59 204.98 254.04 204.78 253.77 203.26 C 253.23 203.28 252.16 203.31 251.62 203.32 M 254.71 213.26 C 256.67 212.16 258.33 210.62 259.81 208.94 C 257.69 209.81 255.98 211.37 254.71 213.26 Z" />
<path fill="#ffffff" opacity="1.00" d=" M 292.46 201.27 C 294.05 203.73 295.60 206.34 296.85 208.93 C 293.58 209.98 292.84 205.14 290.71 203.52 C 291.15 202.96 292.02 201.84 292.46 201.27 Z" />
<path fill="#ffffff" opacity="1.00" d=" M 229.73 204.53 C 231.13 207.29 229.73 210.56 229.95 213.52 C 227.95 210.84 229.32 207.48 229.73 204.53 Z" />
<path fill="#ffffff" opacity="1.00" d=" M 231.77 210.18 C 230.70 209.05 231.58 205.76 233.34 206.31 C 233.99 207.50 233.60 210.65 231.77 210.18 Z" />
<path fill="#ffffff" opacity="1.00" d=" M 268.07 205.40 C 269.53 205.30 271.00 205.24 272.47 205.21 C 272.47 206.22 272.46 208.24 272.45 209.25 C 272.91 208.62 273.83 207.36 274.28 206.73 C 274.51 207.74 274.97 209.77 275.20 210.78 C 275.80 210.70 276.99 210.55 277.59 210.48 C 277.08 208.98 276.92 207.46 277.11 205.91 C 278.83 207.39 280.23 209.33 280.52 211.64 C 279.89 211.60 278.63 211.53 278.00 211.50 C 278.10 212.01 278.30 213.03 278.40 213.54 C 276.82 213.32 274.92 213.82 273.85 212.22 C 273.24 212.90 272.03 214.25 271.42 214.93 C 271.49 213.56 271.55 212.19 271.61 210.83 C 271.26 211.63 270.55 213.24 270.20 214.04 C 268.02 211.59 268.02 208.48 268.07 205.40 Z" />
<path fill="#ffffff" opacity="1.00" d=" M 227.13 207.52 C 228.58 207.35 228.55 209.86 227.78 210.62 C 226.36 210.77 226.35 208.27 227.13 207.52 Z" />
<path fill="#ffffff" opacity="1.00" d=" M 225.58 209.61 C 225.77 213.24 225.58 216.90 225.33 220.53 C 225.35 221.80 224.40 222.56 223.47 223.24 C 224.39 218.72 225.28 214.21 225.58 209.61 Z" />
<path fill="#ffffff" opacity="1.00" d=" M 218.98 219.05 C 220.32 216.28 221.54 213.47 222.58 210.57 C 223.51 213.54 222.85 216.52 221.64 219.29 C 219.55 219.16 219.40 221.50 218.61 222.85 C 218.21 221.63 217.79 220.43 217.31 219.25 C 216.71 220.99 215.88 222.63 215.09 224.29 C 214.14 224.41 213.18 224.51 212.23 224.59 C 213.26 221.79 216.46 220.09 217.60 217.16 L 218.49 217.39 L 217.63 219.39 C 217.97 219.31 218.64 219.14 218.98 219.05 Z" />
</g>
</svg>
